<svg id="Layer_1" data-name="Layer 1" xmlns="http://www.w3.org/2000/svg" viewBox="0 0 135.25 82.62"><defs><style>.cls-1{fill:#f04b51;}.cls-2,.cls-5{fill:#fff3e5;}.cls-3,.cls-4{fill:#de4752;}.cls-4{stroke:#de4752;stroke-width:4.79px;}.cls-4,.cls-5{stroke-miterlimit:10;}.cls-5{stroke:#6666af;stroke-width:3.66px;}</style></defs><title>bus</title><path class="cls-1" d="M7.48,0H125.3a5.16,5.16,0,0,1,5.16,5.16V71.81a0,0,0,0,1,0,0H0a0,0,0,0,1,0,0V7.48A7.48,7.48,0,0,1,7.48,0Z"/><rect class="cls-1" x="124.48" y="47.88" width="10.77" height="23.94" rx="4.75"/><rect class="cls-2" x="113.71" y="27.53" width="14.36" height="20.35"/><rect class="cls-2" x="98.15" y="27.53" width="14.36" height="20.35"/><rect class="cls-2" x="80.19" y="40.69" width="16.76" height="7.18"/><rect class="cls-2" x="62.24" y="40.69" width="16.76" height="7.18"/><rect class="cls-2" x="44.29" y="40.69" width="16.76" height="7.18"/><rect class="cls-2" x="26.33" y="40.69" width="16.76" height="7.18"/><path class="cls-2" d="M7.94,2.39H21.54a0,0,0,0,1,0,0v8.38a0,0,0,0,1,0,0H2.39a0,0,0,0,1,0,0V7.94A5.54,5.54,0,0,1,7.94,2.39Z"/><rect class="cls-2" x="23.94" y="2.39" width="19.15" height="8.38"/><rect class="cls-2" x="45.48" y="2.39" width="19.15" height="8.38"/><rect class="cls-2" x="67.03" y="2.39" width="19.15" height="8.38"/><rect class="cls-2" x="88.57" y="2.39" width="19.15" height="8.38"/><path class="cls-2" d="M110.12,2.39h14a5.16,5.16,0,0,1,5.16,5.16v3.22a0,0,0,0,1,0,0H110.12a0,0,0,0,1,0,0V2.39A0,0,0,0,1,110.12,2.39Z"/><rect class="cls-3" y="23.94" width="130.46" height="2.39"/><circle class="cls-4" cx="114.3" cy="71.22" r="7.78"/><path class="cls-3" d="M0,65.83H135.25a0,0,0,0,1,0,0v1.35a4.64,4.64,0,0,1-4.64,4.64H0a0,0,0,0,1,0,0v-6A0,0,0,0,1,0,65.83Z"/><circle class="cls-5" cx="114.3" cy="72.41" r="7.78"/><circle class="cls-4" cx="33.51" cy="70.62" r="7.78"/><circle class="cls-5" cx="33.51" cy="73.01" r="7.78"/></svg>