<svg id="Layer_1" data-name="Layer 1" xmlns="http://www.w3.org/2000/svg" viewBox="0 0 329.91 51.72"><defs><style>.cls-1{fill:#fff;}</style></defs><title>cloud-07</title><path class="cls-1" d="M426.27,330.67H359.14c-6.58,0-12-4.39-12-9.75s5.38-9.75,12-9.75h49.44c5.15,0,9.36-3.44,9.36-7.63s-4.21-7.63-9.36-7.63H147.36c-5.15,0-9.37,3.43-9.37,7.63s4.22,7.63,9.37,7.63h77.53c6.58,0,12,4.39,12,9.75s-5.39,9.75-12,9.75H117.18c-5.73,0-10.41,3.81-10.41,8.48s4.68,8.48,10.41,8.48H426.27c5.72,0,10.41-3.82,10.41-8.48S432,330.67,426.27,330.67Z" transform="translate(-106.77 -295.91)"/></svg>