<svg id="Layer_1" data-name="Layer 1" xmlns="http://www.w3.org/2000/svg" xmlns:xlink="http://www.w3.org/1999/xlink" viewBox="0 0 1004.53 142.88"><defs><style>.cls-1{fill:url(#linear-gradient);}.cls-2{fill:url(#linear-gradient-2);}</style><linearGradient id="linear-gradient" x1="636.03" y1="-103.99" x2="641.2" y2="-54.91" gradientUnits="userSpaceOnUse"><stop offset="0" stop-color="#f3b07d"/><stop offset="0.19" stop-color="#ecaf85"/><stop offset="0.47" stop-color="#d9ac99"/><stop offset="0.8" stop-color="#bba8bb"/><stop offset="1" stop-color="#a6a5d2"/></linearGradient><linearGradient id="linear-gradient-2" x1="-164.38" y1="-19.38" x2="-159.22" y2="29.7" xlink:href="#linear-gradient"/></defs><title>cloud-03</title><path class="cls-1" d="M546.77,7.85,749.75,9s-12.37-21.49-45-26c0,0-2.81-31.67-43.29-32.24s-36.12,27.74-36.12,27.74-8.3-12.47-30.23-9.07-20.25,17.53-20.25,17.53S538.9-4,546.77,7.85Z" transform="translate(254.77 49.29)"/><path class="cls-2" d="M-253.65,92.46l203,1.13s-12.37-21.49-45-26c0,0-2.81-31.68-43.29-32.24S-175,63.07-175,63.07s-8.31-12.46-30.24-9.07-20.24,17.54-20.24,17.54S-261.52,80.59-253.65,92.46Z" transform="translate(254.77 49.29)"/></svg>