<svg id="Layer_1" data-name="Layer 1" xmlns="http://www.w3.org/2000/svg" xmlns:xlink="http://www.w3.org/1999/xlink" viewBox="0 0 468.52 303.88"><defs><style>.cls-1{fill:url(#linear-gradient);}.cls-2{fill:url(#linear-gradient-2);}</style><linearGradient id="linear-gradient" x1="-38.12" y1="298.77" x2="130.23" y2="298.77" gradientUnits="userSpaceOnUse"><stop offset="0" stop-color="#f3b07d"/><stop offset="0.19" stop-color="#ecaf85"/><stop offset="0.47" stop-color="#d9ac99"/><stop offset="0.8" stop-color="#bba8bb"/><stop offset="1" stop-color="#a6a5d2"/></linearGradient><linearGradient id="linear-gradient-2" x1="327.34" y1="-0.39" x2="327.34" y2="74.25" xlink:href="#linear-gradient"/></defs><title>cloud-02</title><path class="cls-1" d="M-38.11,323l168.34.83s-.73-16.2-11-16.2c0,0,11-33.13-24.14-33.88s-30.74,14.7-30.74,14.7-19-16.2-34.4-4.43-8.79,19.13-8.79,19.13-22-10.32-27.81-.75c0,0-2.93,5.15,0,10.31C-6.63,312.7-38.83,312.68-38.11,323Z" transform="translate(38.12 -19.94)"/><path class="cls-2" d="M224.29,80.37l206.11.9S429.51,61.44,417,61.44c0,0,13.44-40.57-29.57-41.47s-37.64,18-37.64,18-23.3-19.83-42.12-5.41S296.88,56,296.88,56s-26.89-12.62-34.05-.9c0,0-3.59,6.31,0,12.62C262.83,67.75,223.4,67.75,224.29,80.37Z" transform="translate(38.12 -19.94)"/></svg>