<svg id="Layer_1" data-name="Layer 1" xmlns="http://www.w3.org/2000/svg" xmlns:xlink="http://www.w3.org/1999/xlink" viewBox="0 0 1354.98 151.99"><defs><style>.cls-1{fill:url(#linear-gradient);}.cls-2{fill:url(#linear-gradient-2);}</style><linearGradient id="linear-gradient" x1="738.24" y1="88.39" x2="738.24" y2="220.03" gradientUnits="userSpaceOnUse"><stop offset="0" stop-color="#f3b07d"/><stop offset="1" stop-color="#a6a5d2"/></linearGradient><linearGradient id="linear-gradient-2" x1="-252.28" y1="27.04" x2="-249.69" y2="182.14" gradientUnits="userSpaceOnUse"><stop offset="0" stop-color="#f3b07d"/><stop offset="0.19" stop-color="#ecaf85"/><stop offset="0.47" stop-color="#d9ac99"/><stop offset="0.8" stop-color="#bba8bb"/><stop offset="1" stop-color="#a6a5d2"/></linearGradient></defs><title>cloud-01</title><path class="cls-1" d="M555.24,218.64H923.43s-4-61.39-70-54.35c0,0,29-65.42-39-59.38s-48,61.39-48,61.39,34-75.48-39-72.46-46,75.48-46,75.48-12-73.47-54-56.36-38,66.43-11,67.44C616.27,180.4,539.23,171.34,555.24,218.64Z" transform="translate(431.55 -66.65)"/><path class="cls-2" d="M-429.55,168.32l361.19,2s-22-38.25-80-46.3c0,0-5-56.36-77-57.37S-289.7,116-289.7,116s-14.78-22.18-53.81-16.14-36,31.2-36,31.2S-443.56,147.18-429.55,168.32Z" transform="translate(431.55 -66.65)"/></svg>