<svg id="Layer_1" data-name="Layer 1" xmlns="http://www.w3.org/2000/svg" viewBox="0 0 161.63 152.15"><defs><style>.cls-1{fill:#ffd10a;}.cls-2{fill:#f2aa1e;}.cls-3{fill:#fdf7f6;}.cls-4{fill:#46ac9b;}.cls-5{fill:#cd474c;}.cls-6{fill:#ce2027;}</style></defs><title>crown</title><path class="cls-1" d="M307.83,294.33c.3-4.42.61-8.85.92-13.47,3.78,2.61,6.51,5.95,9.49,9,.71.74.08,1.08-.4,1.55a55.25,55.25,0,0,1-6.4,5.44,3.7,3.7,0,0,0-1.64,2.63c-.46,2.74-1.82,5.18-4.64,5.65-5.24.87-8.62,4.44-12.2,7.7-3.86,3.5-7.25,7.35-8.4,12.77a5.12,5.12,0,0,1-4.83,4,51.67,51.67,0,0,0-10.61,2,1.93,1.93,0,0,1-2.48-1.12c-6.75-11.73-16.79-20.38-27.13-28.7a242.06,242.06,0,0,0-36.22-24c-10.64-5.79-21.56-11-33.4-13.94a52.79,52.79,0,0,0-7.88-1.27,2.23,2.23,0,0,1-2.32-2.26,46.06,46.06,0,0,0-2.21-9.24c-1.15-3.36-.57-5.44,2.27-7.59,4.14-3.16,5.81-7.78,7.51-12.37.8-2.15,1.33-4.4,2-6.62a10.87,10.87,0,0,0,.16-6c-.93-3.5.29-6.24,3.26-8.19a3.19,3.19,0,0,0,1.5-2.22,59.84,59.84,0,0,1,2.41-8.28c.23-.63.28-1.34,1.25-1,4,1.45,8.2,2.58,12.13,5-4.09,2.18-8,4.26-11.91,6.35,0,.14,0,.28,0,.41s.16,0,.18,0c.14-.23,0-.34-.19-.43,1,1.41,2.48,1,3.8,1.1a22.16,22.16,0,0,0,5.54-.82c1.11-.21,1.64-.07,1.37,1.23a68.73,68.73,0,0,1-6.6,17.66c-1.16-2.65-1.63-5.16-3-7.25-.71-1-1.21-2.89-2.4-2.79s-1.19,2.05-1.51,3.22c-1.67,6.25-1.29,12.11,3.34,17.18,6.38,7,15.08,7.83,21.43,2a11.88,11.88,0,0,0,1.8-2.14c2.17-3.3,1.93-6.62-.55-8.56-3.65-2.88-7.33-2.75-10.21.4a22.06,22.06,0,0,0-3.07,4.71c-3.51-4.06-2.21-12,2.62-16.25,5.58-4.88,11.6-3.75,18,3.63,2.77-7.09,5.51-14.11,13-17.49l.14.12c2.82,8,1.55,15.15-4.61,21.9,4.85-.2,9.31-.73,12,3.8a9.33,9.33,0,0,1,1.65,5.69c-.5,5.74-5.41,10.15-11.85,10.57.49-1.31,1.06-2.55,1.41-3.86.74-2.76-.11-4.71-2.56-6.25s-4.79-1.52-7,.26c-3.41,2.77-4.47,6.71-2.7,11.35a16.18,16.18,0,0,0,13.67,10.82c6.51.89,12.09-1.12,16.17-6.53a7,7,0,0,0,.47-.82,14.65,14.65,0,0,0-6.66-.41,11.06,11.06,0,0,1-2.36.12c-1-.14-1.59-.58-.82-1.74,3-4.52,5.9-9.07,8.84-13.62,1.13-1.76,1.83-.54,2.15.46.64,2,1,4.05,1.52,6.08.15.6.11,1.5.93,1.52s.8-.9.93-1.48c.78-3.51,1.55-7,2.27-10.55.33-1.62.84-2,2.36-.94,3.87,2.65,7.82,5.2,11.81,7.66,1.42.87,1.2,1.44.1,2.29-3.25,2.5-6.82,4.57-9.87,7.33l-.81.7c1.46.63,2.68.12,3.88-.08,1.64-.26,3.26-.61,4.89-.9a1.6,1.6,0,0,1,1.58.51c.56.72-.23,1.18-.54,1.66-2.71,4.26-5.47,8.5-8.23,12.72-.34.51-.51,1.39-1.28,1.29s-1.1-.83-1.34-1.54c-.77-2.25-1.4-4.56-2.85-6.5-.21-.27-.44-.52-.68-.8-4.38,6-3.3,15.71,2.26,21.05,4.59,4.42,9.91,6.28,16.21,4.59,3.39-.91,5.31-3.32,6.27-6.55.8-2.7-.1-4.8-2.6-6.47s-4.54-1.58-6.75.22c-1,.86-2,1.89-2.95,2.86-2.36-6.38.08-13.14,5.59-15.51,3.05-1.31,6.08-.64,8.73.88s3.25,4.76,4.76,7.91c3.61-8.1,9.63-12.32,18.09-13l.15.07c.1,5.89-2.91,10.42-6.48,14.67-1.24,1.46-2.68,2.75-4.25,4.34,4.49,1.13,8.37,2.69,10.36,6.95a10.59,10.59,0,0,1,.6,7.38,13,13,0,0,1-14.08,9.81,26.62,26.62,0,0,0,3-4.49c2.49-5.46-.65-8.84-4.62-10.26-2.55-.91-4.64.36-6.27,2.33-4.78,5.77-3.43,15,3,19.45,9.18,6.31,17.05,4.23,24.57-2.79,1-.88.66-1.31-.39-1.57a20.18,20.18,0,0,0-6.43-.56c-1.21.1-2.42.22-3.91.36a10.94,10.94,0,0,1,2.55-3.51,68.64,68.64,0,0,1,9.7-9.2c2-1.57,2.22-1.5,2.76,1s1,4.66,2.48,6.62c.31.42.48,1.33,1.39.95l-.36-.1,0,.28ZM251.73,304a11.67,11.67,0,0,0,4.47,1.89c2.39.42,4.64.19,6.29-1.83s1.52-4.3.59-6.54a11.85,11.85,0,0,0-8.91-7.4c-5.36-1.14-8.75,2.77-7,7.94A12.06,12.06,0,0,0,251.73,304Zm-59.89-38.79c2.83,1.64,5.94,2.56,9.36,1.52a5.27,5.27,0,0,0,3.68-7.12c-1.68-5.12-8.92-8.65-14-6.82a5.37,5.37,0,0,0-3.41,7.29A10.76,10.76,0,0,0,191.84,265.23Zm39.07,5.65c-7.45,2.81-7.45,2.81-7.36,9.62a1.49,1.49,0,0,1,0,.21c-.13,1.12.2,1.34,1.3.89,6-2.44,6-2.42,6.09-8.8C230.92,272.23,230.91,271.67,230.91,270.88Zm-66.24-26.7c-4.45,3.1-5,5.47-2.11,9.09C166.66,249.34,166.66,249.34,164.67,244.18Zm117.62,76.21c-6,.23-6.83.9-7.23,5.92C280.84,326.1,281.09,325.9,282.29,320.39ZM176.07,256.12a2.12,2.12,0,0,0-3,.76,2.08,2.08,0,0,0,3.61,2.06A2.09,2.09,0,0,0,176.07,256.12Zm91.3,61.68c.52-1.25.36-2.37-.83-3a2.09,2.09,0,0,0-2,3.7A2.08,2.08,0,0,0,267.37,317.8Zm35.76-16.47c-.21.59-.83,1.25-.16,1.89s1.22.17,1.78-.12a6,6,0,0,0,2.58-2.47c.27-.48.58-1.1.15-1.6s-1.19-.21-1.73.08A7.42,7.42,0,0,0,303.13,301.33ZM215.52,265.9a2.16,2.16,0,0,0-.87-2.87,2.1,2.1,0,0,0-2.24,3.54C213.51,267.33,214.56,267,215.52,265.9Zm29,16.42a2.08,2.08,0,0,0-2.93.82,1.94,1.94,0,0,0,.73,2.79,2,2,0,0,0,2.94-.76A2.09,2.09,0,0,0,244.49,282.32Zm-67.38-30.76A2.09,2.09,0,0,0,180,251a2,2,0,0,0-.5-3,1.91,1.91,0,0,0-2.82.51C175.81,249.64,176.12,250.65,177.11,251.56Zm96.22,59.85a2,2,0,0,0-.61-3,1.92,1.92,0,0,0-2.81.6,2.08,2.08,0,1,0,3.42,2.37ZM173.6,217.25a7.78,7.78,0,0,0,.9-3.54c0-.49,0-1.06-.58-1.26s-.95.2-1.28.57a5.75,5.75,0,0,0-1.38,3.51c0,.68-.16,1.56.74,1.78S173.18,217.71,173.6,217.25Zm37.91,56.9a2,2,0,0,0-.57-2.81,1.88,1.88,0,0,0-2.85.39,1.92,1.92,0,0,0,.5,3A2,2,0,0,0,211.51,274.15Zm27.24,15.17a2,2,0,0,0-2.91.51,1.94,1.94,0,0,0,.67,3,1.9,1.9,0,0,0,2.81-.69A1.94,1.94,0,0,0,238.75,289.32Zm3.94-36.59a1.76,1.76,0,0,0,2.43-.67,1.59,1.59,0,0,0-.63-2.38,1.57,1.57,0,0,0-2.38.62A1.74,1.74,0,0,0,242.69,252.73Z" transform="translate(-156.93 -180.3)"/><path class="cls-2" d="M218.53,289.8c13.92,9.33,27.29,19.35,38.74,31.7a33.26,33.26,0,0,1,6.07,8.07c1.06,2.24.41,3.14-2,2.82-6.15-.8-11.79-3.22-17.41-5.64a253.19,253.19,0,0,1-45.6-26c-12-8.44-23.49-17.46-33.15-28.6a30.41,30.41,0,0,1-2.9-4c-1.23-2-.68-3,1.67-2.94,3.43.05,6.66,1.13,9.86,2.21C189.71,272.81,204.32,280.91,218.53,289.8Z" transform="translate(-156.93 -180.3)"/><path class="cls-1" d="M279.2,193.82c-2.38-.14-4.44-.25-6.5-.39-1.4-.09-2.07-.53-1.06-2,1.51-2.2,2.95-4.45,4.36-6.72.83-1.34,1.48-1.17,2.07.12.93,2,1.82,4,2.77,6.1a4.32,4.32,0,0,0,1.54-3.6c0-1.73.08-3.46.21-5.18.16-2,.74-2.3,2.34-1.28q3.19,2,6.36,4.12c1.54,1,1.55,1.61-.08,2.54a35.88,35.88,0,0,1-4.25,2.13,6.25,6.25,0,0,0-3.7,3.82c2,.41,4,.08,6,.18.63,0,1.4-.18,1.81.42s-.28,1.17-.59,1.68c-1.22,2-2.56,3.84-3.73,5.83-1,1.63-1.61,1.23-2.31-.16-.89-1.78-1.83-3.53-2.88-5.56-.48.73-.74,1.23-1.09,1.66-1.47,1.81-2.12,3.3-.44,5.73,2.37,3.43,1.16,8.15-2.05,10.91a9,9,0,0,1-11.36.41,9.15,9.15,0,0,1-3-10.83c1.53-3.72,5.65-6.27,9.62-5.35,2.33.54,3.41-.11,4.31-2A23.72,23.72,0,0,1,279.2,193.82ZM273,213.91a9.86,9.86,0,0,0-6.66-6.36c-1.19-.32-1.17.13-1.06,1A6.59,6.59,0,0,0,273,213.91Zm-1.39-8.4c.54-.83,1-1.45,1.36-2.12s1.57-1.6,1.16-2.31c-.56-1-1.93-.65-3-.54-2.2.23-2.47.76-1.35,2.62A28.12,28.12,0,0,0,271.63,205.51Zm5.52-2.87c-.86,1.33-1.47,2.4-2.2,3.36s-.54,1.43.63,1.72,2.38,1,3,.31.18-2.18-.24-3.25A20.47,20.47,0,0,0,277.15,202.64Z" transform="translate(-156.93 -180.3)"/><path class="cls-2" d="M221.63,206.11l-.14-.12c.79-.41.55-.76-.13-.86-1.21-.18-2.43-.28-3.65-.34-7.06-.3-14.12-.4-21.11.88-2.29.41-1.44-1.62-1.93-2.56-.71-1.36.51-1.28,1.29-1.43a88.49,88.49,0,0,1,23-.85c12.27.9,24.22,3.26,35.57,8.25,1.51.66,1.82,1.32,1.54,2.87a80.74,80.74,0,0,1-4.81,17c-.23.55.08,2.27-1.37,1.41-1-.61-3.05-.77-2.18-3s1.6-4.47,2.31-6.73c.41-1.3.71-2.64,1-4,.93-4.26,1-4.36-3-5.77a104,104,0,0,0-25.2-5.62C221.73,205.16,221.73,205.19,221.63,206.11Z" transform="translate(-156.93 -180.3)"/><path class="cls-2" d="M293.9,252.91l-.15-.07c.78-.48.79-.48.25-1.49a88,88,0,0,0-7-10.64,102,102,0,0,0-10-11.61c-1.07-1-1.8-1.13-3.07-.24a70.13,70.13,0,0,0-10.05,8.46,2.88,2.88,0,0,1-4.26-.63c-.28-.55.14-.76.42-1.05A88.46,88.46,0,0,1,275,223.28c1-.67,1.53-.19,2.2.41,9.53,8.58,16.84,18.86,22.78,30.13a87.31,87.31,0,0,1,8.24,20.61c.18.75.82,1.85-.75,1.78-1.1,0-2.6,1.55-3.21-.9-1.92-7.74-5.31-14.9-9.09-21.88C294.65,252.41,294.61,252.44,293.9,252.91Z" transform="translate(-156.93 -180.3)"/><path class="cls-3" d="M252.16,206.41a4.14,4.14,0,0,1-1.08-5.73,4.29,4.29,0,0,1,5.62-1.1,4.22,4.22,0,0,1,1.17,5.73A4.09,4.09,0,0,1,252.16,206.41Z" transform="translate(-156.93 -180.3)"/><path class="cls-3" d="M285.4,218.18a4.28,4.28,0,0,1,1.11,5.77,4.12,4.12,0,0,1-5.74,1,4,4,0,0,1-1.09-5.54A4.21,4.21,0,0,1,285.4,218.18Z" transform="translate(-156.93 -180.3)"/><path class="cls-3" d="M247.07,201.26a3.75,3.75,0,1,1-1-5.15A3.8,3.8,0,0,1,247.07,201.26Z" transform="translate(-156.93 -180.3)"/><path class="cls-3" d="M294.09,231.66a3.75,3.75,0,0,1-6.32-4,3.78,3.78,0,0,1,5.1-1.2A3.74,3.74,0,0,1,294.09,231.66Z" transform="translate(-156.93 -180.3)"/><path class="cls-4" d="M267.07,221.33a3.46,3.46,0,0,1-5.81-3.75,3.46,3.46,0,0,1,5.81,3.75Z" transform="translate(-156.93 -180.3)"/><path class="cls-3" d="M236,199.27a3.33,3.33,0,0,1-4.55.95,3.33,3.33,0,1,1,4.55-.95Z" transform="translate(-156.93 -180.3)"/><path class="cls-3" d="M298.71,235.85a3.33,3.33,0,1,1-4.53,1A3.28,3.28,0,0,1,298.71,235.85Z" transform="translate(-156.93 -180.3)"/><path class="cls-3" d="M226.23,197.72a3.09,3.09,0,1,1-5.19-3.34,3.12,3.12,0,0,1,4.17-.95A3.09,3.09,0,0,1,226.23,197.72Z" transform="translate(-156.93 -180.3)"/><path class="cls-3" d="M303.72,244.3a3.12,3.12,0,0,1,.92,4.33,3.09,3.09,0,0,1-5.22-3.32A3.11,3.11,0,0,1,303.72,244.3Z" transform="translate(-156.93 -180.3)"/><path class="cls-5" d="M262.15,228.05a3.12,3.12,0,0,1-4,1,3,3,0,1,1,4-1Z" transform="translate(-156.93 -180.3)"/><path class="cls-3" d="M211.59,198.37a3,3,0,0,1-1-4,2.9,2.9,0,1,1,5.07,2.83A3,3,0,0,1,211.59,198.37Z" transform="translate(-156.93 -180.3)"/><path class="cls-3" d="M305,258.91a3,3,0,0,1-1-4,2.9,2.9,0,1,1,5.05,2.86A3,3,0,0,1,305,258.91Z" transform="translate(-156.93 -180.3)"/><path class="cls-3" d="M311.52,263.2c1.36,1,1.71,2.26.87,3.61a2.41,2.41,0,0,1-3.57.83,2.38,2.38,0,0,1-.81-3.56A2.45,2.45,0,0,1,311.52,263.2Z" transform="translate(-156.93 -180.3)"/><path class="cls-3" d="M205.66,197.55c-1,1.35-2.27,1.73-3.62.9a2.41,2.41,0,0,1-.86-3.56,2.37,2.37,0,0,1,3.55-.84A2.47,2.47,0,0,1,205.66,197.55Z" transform="translate(-156.93 -180.3)"/><path class="cls-2" d="M254.66,234.21a2.08,2.08,0,0,1-.62-3,1.94,1.94,0,0,1,2.83-.61,2,2,0,0,1,.66,3A2.09,2.09,0,0,1,254.66,234.21Z" transform="translate(-156.93 -180.3)"/><path class="cls-3" d="M314.23,275.08c-.93.89-2,1.24-3.06.36a1.91,1.91,0,0,1-.4-2.85,2,2,0,0,1,2.84-.55A2.14,2.14,0,0,1,314.23,275.08Z" transform="translate(-156.93 -180.3)"/><path class="cls-3" d="M196.08,195.82c.89.94,1.25,2,.38,3.07a1.92,1.92,0,0,1-2.86.38,1.94,1.94,0,0,1-.56-2.83A2.13,2.13,0,0,1,196.08,195.82Z" transform="translate(-156.93 -180.3)"/><path class="cls-5" d="M251.73,304a12.06,12.06,0,0,1-4.58-5.94c-1.73-5.17,1.66-9.08,7-7.94a11.85,11.85,0,0,1,8.91,7.4c.93,2.24,1.06,4.53-.59,6.54s-3.9,2.25-6.29,1.83A11.67,11.67,0,0,1,251.73,304Z" transform="translate(-156.93 -180.3)"/><path class="cls-5" d="M191.84,265.23a10.76,10.76,0,0,1-4.36-5.13,5.37,5.37,0,0,1,3.41-7.29c5.07-1.83,12.31,1.7,14,6.82a5.27,5.27,0,0,1-3.68,7.12C197.78,267.79,194.67,266.87,191.84,265.23Z" transform="translate(-156.93 -180.3)"/><path class="cls-4" d="M230.91,270.88c0,.79,0,1.35,0,1.92-.07,6.38-.08,6.36-6.09,8.8-1.1.45-1.43.23-1.3-.89a1.49,1.49,0,0,0,0-.21C223.46,273.69,223.46,273.69,230.91,270.88Z" transform="translate(-156.93 -180.3)"/><path class="cls-5" d="M164.67,244.18c2,5.16,2,5.16-2.11,9.09C159.7,249.65,160.22,247.28,164.67,244.18Z" transform="translate(-156.93 -180.3)"/><path class="cls-5" d="M282.29,320.39c-1.2,5.51-1.45,5.71-7.23,5.92C275.46,321.29,276.26,320.62,282.29,320.39Z" transform="translate(-156.93 -180.3)"/><path class="cls-2" d="M176.07,256.12a2.09,2.09,0,0,1,.6,2.82,2.08,2.08,0,0,1-3.61-2.06A2.12,2.12,0,0,1,176.07,256.12Z" transform="translate(-156.93 -180.3)"/><path class="cls-2" d="M267.37,317.8a2.08,2.08,0,0,1-2.78.72,2.09,2.09,0,0,1,2-3.7C267.73,315.43,267.89,316.55,267.37,317.8Z" transform="translate(-156.93 -180.3)"/><path class="cls-4" d="M303.13,301.33a7.42,7.42,0,0,1,2.62-2.22c.54-.29,1.19-.69,1.73-.08s.12,1.12-.15,1.6a6,6,0,0,1-2.58,2.47c-.56.29-1.24.65-1.78.12S302.92,301.92,303.13,301.33Z" transform="translate(-156.93 -180.3)"/><path class="cls-5" d="M215.52,265.9c-1,1.12-2,1.43-3.11.67a2.1,2.1,0,0,1,2.24-3.54A2.16,2.16,0,0,1,215.52,265.9Z" transform="translate(-156.93 -180.3)"/><path class="cls-3" d="M194.33,257.45c-1,1.13-2,1.44-3.11.68a2.1,2.1,0,0,1,2.24-3.54A2.15,2.15,0,0,1,194.33,257.45Z" transform="translate(-156.93 -180.3)"/><path class="cls-3" d="M255.31,295.43c-1,1.12-2,1.43-3.12.67a2.1,2.1,0,0,1,2.25-3.54A2.16,2.16,0,0,1,255.31,295.43Z" transform="translate(-156.93 -180.3)"/><path class="cls-5" d="M244.49,282.32a2.09,2.09,0,0,1,.74,2.85,2,2,0,0,1-2.94.76,1.94,1.94,0,0,1-.73-2.79A2.08,2.08,0,0,1,244.49,282.32Z" transform="translate(-156.93 -180.3)"/><path class="cls-2" d="M177.11,251.56c-1-.91-1.3-1.92-.47-3a1.91,1.91,0,0,1,2.82-.51,2,2,0,0,1,.5,3A2.09,2.09,0,0,1,177.11,251.56Z" transform="translate(-156.93 -180.3)"/><path class="cls-2" d="M273.33,311.41a2.08,2.08,0,1,1-3.42-2.37,1.92,1.92,0,0,1,2.81-.6A2,2,0,0,1,273.33,311.41Z" transform="translate(-156.93 -180.3)"/><path class="cls-4" d="M173.6,217.25c-.42.46-.77,1.27-1.6,1.06s-.79-1.1-.74-1.78a5.75,5.75,0,0,1,1.38-3.51c.33-.37.74-.77,1.28-.57s.59.77.58,1.26A7.78,7.78,0,0,1,173.6,217.25Z" transform="translate(-156.93 -180.3)"/><path class="cls-5" d="M211.51,274.15a2,2,0,0,1-2.92.57,1.92,1.92,0,0,1-.5-3,1.88,1.88,0,0,1,2.85-.39A2,2,0,0,1,211.51,274.15Z" transform="translate(-156.93 -180.3)"/><path class="cls-5" d="M238.75,289.32a1.94,1.94,0,0,1,.57,2.8,1.9,1.9,0,0,1-2.81.69,1.94,1.94,0,0,1-.67-3A2,2,0,0,1,238.75,289.32Z" transform="translate(-156.93 -180.3)"/><path class="cls-4" d="M242.69,252.73a1.74,1.74,0,0,1-.58-2.43,1.57,1.57,0,0,1,2.38-.62,1.59,1.59,0,0,1,.63,2.38A1.76,1.76,0,0,1,242.69,252.73Z" transform="translate(-156.93 -180.3)"/><path class="cls-6" d="M307.83,294.33l-.35.21,0-.28.36.1Z" transform="translate(-156.93 -180.3)"/><path class="cls-6" d="M178,210.18c.19.09.33.2.19.43,0,0-.12,0-.18,0s0-.27,0-.41Z" transform="translate(-156.93 -180.3)"/><path class="cls-5" d="M271.63,205.51a28.12,28.12,0,0,1-1.8-2.35c-1.12-1.86-.85-2.39,1.35-2.62,1-.11,2.41-.41,3,.54.41.71-.73,1.53-1.16,2.31S272.17,204.68,271.63,205.51Z" transform="translate(-156.93 -180.3)"/><path class="cls-5" d="M277.15,202.64a20.47,20.47,0,0,1,1.21,2.14c.42,1.07,1,2.47.24,3.25s-2-.06-3-.31-1.4-.71-.63-1.72S276.29,204,277.15,202.64Z" transform="translate(-156.93 -180.3)"/></svg>