<svg id="Layer_1" data-name="Layer 1" xmlns="http://www.w3.org/2000/svg" viewBox="0 0 247.29 211.76"><defs><style>.cls-1,.cls-3{fill:#fff;}.cls-1{opacity:0.62;}.cls-2{fill:#6164ad;}.cls-4{fill:#ee4038;}.cls-5{fill:#6f5447;}.cls-6{fill:#f9ce96;}</style></defs><title>eng</title><circle class="cls-1" cx="150.62" cy="117.97" r="5.75"/><circle class="cls-1" cx="227.94" cy="79.49" r="4.26"/><circle class="cls-1" cx="238.38" cy="8.91" r="8.91"/><circle class="cls-1" cx="146.59" cy="5.68" r="5.68"/><rect class="cls-2" x="269.89" y="181.45" width="78.01" height="44.09" transform="translate(360.17 384.15) rotate(-153.15)"/><polygon class="cls-3" points="151.64 25.8 155.8 27.9 173.46 53.87 180.32 40.32 192.56 46.51 185.69 60.06 217.08 58.92 221.24 61.03 219.64 64.18 196.26 65.41 214.38 74.58 208.19 86.81 190.07 77.64 202.92 97.22 201.32 100.37 197.16 98.26 179.5 72.29 172.64 85.85 160.41 79.66 167.27 66.1 135.89 67.24 131.72 65.13 133.32 61.98 156.7 60.75 138.59 51.58 144.78 39.35 162.89 48.52 150.04 28.95 151.64 25.8"/><polygon class="cls-4" points="143.6 41.68 174.61 57.38 182.66 41.5 190.22 45.33 182.18 61.21 213.2 76.92 209.37 84.48 178.35 68.78 170.31 84.67 162.74 80.84 170.78 64.95 139.77 49.25 143.6 41.68"/><polygon class="cls-4" points="191.51 63.01 221.24 61.03 220.22 63.05 194.54 64.54 191.51 63.01"/><polygon class="cls-4" points="167.64 50.92 151.64 25.8 150.62 27.81 164.62 49.39 167.64 50.92"/><polygon class="cls-4" points="161.45 63.15 131.72 65.13 132.75 63.12 158.42 61.62 161.45 63.15"/><polygon class="cls-4" points="185.32 75.24 201.32 100.37 202.35 98.35 188.35 76.77 185.32 75.24"/><rect class="cls-5" x="248.04" y="157.61" width="3.83" height="143.4" transform="translate(236.99 406.39) rotate(-153.15)"/><path class="cls-6" d="M132.41,347.68s26.59-30.14,40.7-38.81,28-17.44,29.69-21.94,2.7-14.8,4.21-17.38a5.45,5.45,0,0,1,3.5-2.88s.94-4.39,5.16-3c0,0,3.09-2.34,5.09-2.54s5-2.31,6.16-1.87c0,0,1.88-4.73,4.39-4s3.85,4.19,3.85,4.19a4.35,4.35,0,0,0,3.31-.15c1.8-.81,2.35-1.12,2,.86s-3.32,9.89-2.67,15.31-.43,6.68-1.17,8.16-6.11,9.61-14.2,11.71c0,0-15.79,11.28-18.15,13.81s-20.83,20.6-23.79,23.77a68.14,68.14,0,0,1-8.26,6.95l-33.2,12.29Z" transform="translate(-132.41 -140.41)"/></svg>