<svg id="Layer_1" data-name="Layer 1" xmlns="http://www.w3.org/2000/svg" viewBox="0 0 220.37 197.11"><defs><style>.cls-1{fill:#6164ad;}.cls-2,.cls-6{fill:#fff;}.cls-3{fill:#ee4038;}.cls-4{fill:#6f5447;}.cls-5{fill:#f9ce96;}.cls-6{opacity:0.62;}</style></defs><title>eng-02</title><rect class="cls-1" x="240.04" y="193.1" width="79.87" height="45.14" transform="translate(231.81 402.91) rotate(-140.64)"/><polygon class="cls-2" points="135.58 15.82 139.27 18.85 151.16 48.72 161.03 36.7 171.88 45.6 162.02 57.62 193.64 63.45 197.33 66.48 195.04 69.27 171.39 65.32 187.47 78.5 178.56 89.35 162.49 76.17 170.99 98.58 168.7 101.38 165.01 98.35 153.11 68.47 143.25 80.5 132.4 71.6 142.26 59.57 110.64 53.75 106.95 50.72 109.24 47.92 132.88 51.88 116.81 38.7 125.72 27.84 141.79 41.03 133.29 18.61 135.58 15.82"/><polygon class="cls-3" points="124.02 29.91 151.54 52.49 163.1 38.39 169.81 43.9 158.25 57.99 185.77 80.57 180.26 87.28 152.74 64.71 141.18 78.8 134.47 73.3 146.03 59.2 118.51 36.63 124.02 29.91"/><polygon class="cls-3" points="167.18 61.86 197.33 66.48 195.86 68.27 169.87 64.06 167.18 61.86"/><polygon class="cls-3" points="146 44.48 135.58 15.82 134.11 17.61 143.31 42.28 146 44.48"/><polygon class="cls-3" points="137.1 55.34 106.95 50.72 108.42 48.93 134.41 53.13 137.1 55.34"/><polygon class="cls-3" points="158.28 72.71 168.7 101.38 170.17 99.59 160.96 74.91 158.28 72.71"/><rect class="cls-4" x="213.37" y="154.99" width="3.93" height="146.82" transform="translate(109.12 384.49) rotate(-140.64)"/><path class="cls-5" d="M206.59,243.15s-11.79,6-12.28,5.61c0,0,1-1,.23-1.53s-5.35,1.5-7.21,2.92-3.81,3.57-5.56,8.7-4.89,12-8.42,16.56-17.89,23.9-19.51,27.12-1.92,7.22-3.75,9.46-10.47,8.55-10.47,8.55l-11.78,15.24,13.31,18.38s.55.56,4.64-4.1,17.46-23.84,19.93-26.88a84.63,84.63,0,0,0,10.64-17.07c3.55-7.72,10.4-29.19,11.75-31.72s3.84-6,4.76-6.22a11.78,11.78,0,0,0,6.48-3.51,29,29,0,0,0,5.28-7.62c.29-1,.66-2.18.66-2.18s3.77-5,1.37-6.15C206.66,248.71,209.41,245.2,206.59,243.15Z" transform="translate(-127.84 -157.07)"/><circle class="cls-6" cx="125.35" cy="91.26" r="5.75"/><circle class="cls-6" cx="201.02" cy="79.49" r="4.26"/><circle class="cls-6" cx="211.46" cy="8.91" r="8.91"/><circle class="cls-6" cx="119.67" cy="5.68" r="5.68"/></svg>