<svg xmlns="http://www.w3.org/2000/svg" xmlns:xlink="http://www.w3.org/1999/xlink" viewBox="0 0 977.95 283.46"><defs><style>.cls-1,.cls-12,.cls-13,.cls-14,.cls-17{fill:none;}.cls-2{isolation:isolate;}.cls-3{clip-path:url(#clip-path);}.cls-4{fill:url(#linear-gradient);}.cls-5{fill:url(#linear-gradient-2);}.cls-6{fill:url(#linear-gradient-3);}.cls-7{fill:#f8dabc;}.cls-8{fill:#f04b51;}.cls-9{fill:#de4752;}.cls-10{fill:#c1282d;}.cls-11,.cls-22{fill:#e6ae88;}.cls-11,.cls-21,.cls-26{mix-blend-mode:multiply;}.cls-12,.cls-13,.cls-14,.cls-17{stroke:#6498a7;stroke-miterlimit:10;}.cls-12{stroke-width:2.88px;}.cls-13{stroke-width:2.97px;}.cls-14{stroke-width:1.44px;}.cls-15{fill:#6498a7;}.cls-16{fill:#eac38c;}.cls-17{stroke-width:1.8px;}.cls-18{fill:#f9d395;}.cls-19,.cls-26{fill:#fff3e5;}.cls-20{fill:#e0a982;}.cls-21{fill:#fdecde;}.cls-23{fill:#cc9d7d;}.cls-24{fill:#f3b07d;}.cls-25{fill:#f8c193;}.cls-27{fill:#f9ce96;}.cls-28{fill:#010101;}</style><clipPath id="clip-path"><rect id="SVGID" class="cls-1" x="-1.34" y="-23.27" width="980.63" height="306.64"/></clipPath><linearGradient id="linear-gradient" x1="728.52" y1="157.85" x2="729.1" y2="189.72" gradientUnits="userSpaceOnUse"><stop offset="0" stop-color="#f3b07d"/><stop offset="0.19" stop-color="#ecaf85"/><stop offset="0.47" stop-color="#d9ac99"/><stop offset="0.8" stop-color="#bba8bb"/><stop offset="1" stop-color="#a6a5d2"/></linearGradient><linearGradient id="linear-gradient-2" x1="644.08" y1="251.32" x2="839.65" y2="251.32" gradientUnits="userSpaceOnUse"><stop offset="0" stop-color="#6498a7"/><stop offset="0.22" stop-color="#91a099"/><stop offset="0.47" stop-color="#bca78b"/><stop offset="0.68" stop-color="#dbac81"/><stop offset="0.87" stop-color="#eeaf7b"/><stop offset="1" stop-color="#f5b079"/></linearGradient><linearGradient id="linear-gradient-3" x1="187.47" y1="251.32" x2="383.04" y2="251.32" gradientUnits="userSpaceOnUse"><stop offset="0" stop-color="#6498a7"/><stop offset="0.13" stop-color="#6c99a5"/><stop offset="0.32" stop-color="#809d9e"/><stop offset="0.56" stop-color="#a2a293"/><stop offset="0.82" stop-color="#d1aa84"/><stop offset="1" stop-color="#f5b079"/></linearGradient></defs><title>footer</title><g class="cls-2"><g id="Layer_1" data-name="Layer 1"><g class="cls-3"><path class="cls-4" d="M678.86,235.37l102.15.5s-.43-9.76-6.65-9.76c0,0,6.67-20-14.65-20.42s-18.66,8.86-18.66,8.86-11.54-9.76-20.87-2.67-5.33,11.53-5.33,11.53S701.53,217.19,698,223a6.64,6.64,0,0,0,0,6.21S678.42,229.16,678.86,235.37Z"/><path class="cls-5" d="M646.59,279.76l193.06-2S839.14,240,801.85,241c0,0-.51-22.45-43.41-17.35S724.73,244,724.73,244,694.6,214.45,678.25,240c0,0-4.59,18.88,5.62,21.43C683.87,261.39,632.28,253.74,646.59,279.76Z"/><path class="cls-6" d="M190,279.76l193.06-2S382.53,240,345.25,241c0,0-.51-22.45-43.42-17.35S268.12,244,268.12,244,238,214.45,221.65,240c0,0-4.6,18.88,5.61,21.43C227.26,261.39,175.68,253.74,190,279.76Z"/><path class="cls-7" d="M253,237.11a10.22,10.22,0,0,1,18.42,0Z"/><path class="cls-8" d="M262.24,232.37c-5.08,0-9.14,3.07-9.14,8.15v37.59h18.42V240.52C271.52,235.44,267.33,232.37,262.24,232.37Z"/><rect class="cls-8" x="253.1" y="237.11" width="18.42" height="3.42"/><rect class="cls-7" x="254.88" y="237.11" width="14.74" height="2.89"/><rect class="cls-8" x="252.86" y="240.52" width="18.95" height="37.59"/><rect class="cls-7" x="252.77" y="240.52" width="19.21" height="0.53"/><rect class="cls-9" x="254.66" y="241.57" width="15.26" height="34.7"/><rect class="cls-7" x="256.43" y="243.41" width="3.36" height="6.04"/><rect class="cls-7" x="260.65" y="243.41" width="3.36" height="6.04"/><rect class="cls-7" x="264.87" y="243.41" width="3.36" height="6.04"/><rect class="cls-7" x="256.43" y="250.32" width="3.36" height="6.04"/><rect class="cls-7" x="260.65" y="250.32" width="3.36" height="6.04"/><rect class="cls-7" x="264.87" y="250.32" width="3.36" height="6.04"/><rect class="cls-7" x="256.43" y="257.22" width="3.36" height="6.04"/><rect class="cls-7" x="260.65" y="257.22" width="3.36" height="6.04"/><rect class="cls-7" x="264.87" y="257.22" width="3.36" height="6.04"/><rect class="cls-7" x="256.43" y="264.31" width="3.36" height="6.04"/><rect class="cls-7" x="260.65" y="264.31" width="3.36" height="6.04"/><rect class="cls-7" x="264.87" y="264.31" width="3.36" height="6.04"/><rect class="cls-10" x="254.66" y="241.57" width="15.26" height="0.53"/><polygon class="cls-11" points="271.68 237.05 253.92 277.33 271.81 277.33 271.68 237.05"/><path class="cls-7" d="M616.17,237.11a10.22,10.22,0,0,1,18.42,0Z"/><path class="cls-8" d="M625.38,232.37c-5.08,0-9.14,3.07-9.14,8.15v37.59h18.42V240.52C634.66,235.44,630.47,232.37,625.38,232.37Z"/><rect class="cls-8" x="616.24" y="237.11" width="18.42" height="3.42"/><rect class="cls-7" x="618.01" y="237.11" width="14.74" height="2.89"/><rect class="cls-8" x="616" y="240.52" width="18.95" height="37.59"/><rect class="cls-7" x="615.91" y="240.52" width="19.21" height="0.53"/><rect class="cls-9" x="617.8" y="241.57" width="15.26" height="34.7"/><rect class="cls-7" x="619.57" y="243.41" width="3.36" height="6.04"/><rect class="cls-7" x="623.79" y="243.41" width="3.36" height="6.04"/><rect class="cls-7" x="628.01" y="243.41" width="3.36" height="6.04"/><rect class="cls-7" x="619.57" y="250.32" width="3.36" height="6.04"/><rect class="cls-7" x="623.79" y="250.32" width="3.36" height="6.04"/><rect class="cls-7" x="628.01" y="250.32" width="3.36" height="6.04"/><rect class="cls-7" x="619.57" y="257.22" width="3.36" height="6.04"/><rect class="cls-7" x="623.79" y="257.22" width="3.36" height="6.04"/><rect class="cls-7" x="628.01" y="257.22" width="3.36" height="6.04"/><rect class="cls-7" x="619.57" y="264.31" width="3.36" height="6.04"/><rect class="cls-7" x="623.79" y="264.31" width="3.36" height="6.04"/><rect class="cls-7" x="628.01" y="264.31" width="3.36" height="6.04"/><rect class="cls-10" x="617.8" y="241.57" width="15.26" height="0.53"/><polygon class="cls-11" points="634.82 237.05 617.06 277.33 634.94 277.33 634.82 237.05"/><path class="cls-12" d="M277.75,279.32s68.86-23.72,105.75-70.87"/><line class="cls-12" x1="373.17" y1="219.95" x2="373.17" y2="279.06"/><line class="cls-12" x1="360.92" y1="231.1" x2="360.92" y2="279.06"/><line class="cls-12" x1="348.67" y1="240.82" x2="348.67" y2="279.06"/><line class="cls-12" x1="336.43" y1="249.09" x2="336.43" y2="279.06"/><line class="cls-12" x1="324.18" y1="256.29" x2="324.18" y2="279.06"/><line class="cls-12" x1="311.93" y1="263.13" x2="311.93" y2="279.06"/><line class="cls-12" x1="299.73" y1="269.96" x2="299.69" y2="279.06"/><path class="cls-12" d="M383.65,221S352.32,261,296.48,279.68"/><rect class="cls-13" x="415.71" y="204.11" width="95.09" height="7.56"/><path class="cls-12" d="M646.81,279.32S578,255.6,541.06,208.45"/><line class="cls-12" x1="551.4" y1="219.95" x2="551.4" y2="279.06"/><line class="cls-12" x1="563.64" y1="231.1" x2="563.64" y2="279.06"/><line class="cls-12" x1="575.89" y1="240.82" x2="575.89" y2="279.06"/><line class="cls-12" x1="588.14" y1="249.09" x2="588.14" y2="279.06"/><line class="cls-12" x1="600.39" y1="256.29" x2="600.39" y2="279.06"/><line class="cls-12" x1="612.63" y1="263.13" x2="612.63" y2="279.06"/><line class="cls-12" x1="624.84" y1="269.96" x2="624.88" y2="279.06"/><path class="cls-12" d="M540,221s31.34,39.94,87.17,58.65"/><polyline class="cls-14" points="417.5 211.54 424.78 204.27 431.9 211.39 439.57 203.73 447.28 211.44 455.33 203.75 462.96 211.21 470.14 204.03 476.91 210.79 483.43 204.28 490.73 211.57 497.48 204.11 503.54 211.01 509.37 205.19"/><rect class="cls-15" x="-22.79" y="276.24" width="1012.81" height="4.57"/><rect class="cls-16" x="507.56" y="194.76" width="35.3" height="114.79"/><rect class="cls-16" x="382.57" y="194.76" width="35.3" height="115.15"/><polygon class="cls-15" points="383.65 195.3 400.22 178.75 416.97 195.48 383.65 195.3"/><polygon class="cls-15" points="509 195.3 525.57 178.75 542.32 195.48 509 195.3"/><polyline class="cls-17" points="417.33 290.29 462.54 281.53 507.74 289.93"/><polygon class="cls-18" points="385.09 195.48 382.57 195.48 383.81 189.72 385.09 195.48"/><polygon class="cls-18" points="417.87 195.48 415.35 195.48 416.59 189.72 417.87 195.48"/><polygon class="cls-18" points="510.08 195.48 507.56 195.48 508.81 189.72 510.08 195.48"/><polygon class="cls-18" points="542.86 195.48 540.34 195.48 541.58 189.72 542.86 195.48"/><polyline class="cls-14" points="422.58 288.91 426.52 280.4 433.36 286.51 437.68 280.04 443.81 284.36 447.05 280.04 452.27 283.1 454.97 280.04"/><polyline class="cls-17" points="502.88 288.91 498.94 280.4 491.89 286.33 487.77 280.04 481.65 284.36 478.41 280.04 473.16 283.1 470.49 280.04"/><polygon class="cls-19" points="396.98 195.48 397.34 191.52 399.86 187.56 402.38 191.52 402.74 195.48 396.98 195.48"/><polygon class="cls-15" points="459.3 204.47 459.66 200.51 462.18 196.56 464.7 200.51 465.06 204.47 459.3 204.47"/><polygon class="cls-19" points="522.69 195.48 523.05 191.52 525.57 187.56 528.1 191.52 528.46 195.48 522.69 195.48"/><rect class="cls-19" x="390.45" y="204.83" width="1.54" height="7.2"/><rect class="cls-19" x="397.65" y="204.83" width="1.54" height="7.2"/><rect class="cls-19" x="400.74" y="204.83" width="1.54" height="7.2"/><rect class="cls-19" x="408.46" y="204.83" width="1.54" height="7.2"/><rect class="cls-19" x="390.45" y="222.82" width="1.54" height="7.2"/><rect class="cls-19" x="397.65" y="222.82" width="1.54" height="7.2"/><rect class="cls-19" x="400.74" y="222.82" width="1.54" height="7.2"/><rect class="cls-19" x="408.46" y="222.82" width="1.54" height="7.2"/><rect class="cls-19" x="390.45" y="240.82" width="1.54" height="7.2"/><rect class="cls-19" x="397.65" y="240.82" width="1.54" height="7.2"/><rect class="cls-19" x="400.74" y="240.82" width="1.54" height="7.2"/><rect class="cls-19" x="408.46" y="240.82" width="1.54" height="7.2"/><rect class="cls-19" x="390.45" y="258.81" width="1.54" height="7.2"/><rect class="cls-19" x="397.65" y="258.81" width="1.54" height="7.2"/><rect class="cls-19" x="400.74" y="258.81" width="1.54" height="7.2"/><rect class="cls-19" x="408.46" y="258.81" width="1.54" height="7.2"/><rect class="cls-19" x="515.8" y="204.83" width="1.54" height="7.2"/><rect class="cls-19" x="523" y="204.83" width="1.54" height="7.2"/><rect class="cls-19" x="526.09" y="204.83" width="1.54" height="7.2"/><rect class="cls-19" x="533.81" y="204.83" width="1.54" height="7.2"/><rect class="cls-19" x="515.8" y="222.82" width="1.54" height="7.2"/><rect class="cls-19" x="523" y="222.82" width="1.54" height="7.2"/><rect class="cls-19" x="526.09" y="222.82" width="1.54" height="7.2"/><rect class="cls-19" x="533.81" y="222.82" width="1.54" height="7.2"/><rect class="cls-19" x="515.8" y="240.82" width="1.54" height="7.2"/><rect class="cls-19" x="523" y="240.82" width="1.54" height="7.2"/><rect class="cls-19" x="526.09" y="240.82" width="1.54" height="7.2"/><rect class="cls-19" x="533.81" y="240.82" width="1.54" height="7.2"/><rect class="cls-19" x="515.8" y="258.81" width="1.54" height="7.2"/><rect class="cls-19" x="523" y="258.81" width="1.54" height="7.2"/><rect class="cls-19" x="526.09" y="258.81" width="1.54" height="7.2"/><rect class="cls-19" x="533.81" y="258.81" width="1.54" height="7.2"/><rect class="cls-20" x="382.57" y="195.12" width="35.3" height="1.08"/><rect class="cls-20" x="507.56" y="195.12" width="35.3" height="1.08"/><rect class="cls-20" x="382.57" y="213.9" width="35.3" height="1.08"/><rect class="cls-20" x="507.56" y="213.9" width="35.3" height="1.08"/><rect class="cls-20" x="382.57" y="231.54" width="35.3" height="1.08"/><rect class="cls-20" x="507.56" y="231.54" width="35.3" height="1.08"/><rect class="cls-20" x="382.57" y="249.17" width="35.3" height="1.08"/><rect class="cls-20" x="507.56" y="249.17" width="35.3" height="1.08"/><rect class="cls-20" x="382.57" y="280.04" width="35.3" height="1.08"/><rect class="cls-20" x="507.56" y="280.04" width="35.3" height="1.08"/><rect class="cls-19" x="389.78" y="199.08" width="20.17" height="1.8"/><rect class="cls-19" x="389.78" y="219.23" width="20.17" height="1.8"/><rect class="cls-19" x="389.78" y="237.22" width="20.17" height="1.8"/><rect class="cls-19" x="389.78" y="255.57" width="20.17" height="1.8"/><rect class="cls-19" x="514.77" y="199.08" width="20.17" height="1.8"/><rect class="cls-19" x="514.77" y="219.23" width="20.17" height="1.8"/><rect class="cls-19" x="514.77" y="237.22" width="20.17" height="1.8"/><rect class="cls-19" x="514.77" y="255.57" width="20.17" height="1.8"/><path class="cls-16" d="M381.86,280.94h37.45a3.43,3.43,0,0,1,3.43,3.43v30.76a0,0,0,0,1,0,0H378.43a0,0,0,0,1,0,0V284.37A3.43,3.43,0,0,1,381.86,280.94Z"/><path class="cls-16" d="M506.25,281.12H543.1a3.73,3.73,0,0,1,3.73,3.73V315.3a0,0,0,0,1,0,0H502.52a0,0,0,0,1,0,0V284.85A3.73,3.73,0,0,1,506.25,281.12Z"/><path class="cls-21" d="M422.82,314.18V284.45a3.44,3.44,0,0,0-3.44-3.44h-1.51l0-.7V196.08h-2.48l0-.6-.24.6h-1.24v3.15l-32.25,81.55v34.51H423Z"/><path class="cls-21" d="M539.73,196.08h-1.24v3.15l-30.93,81.89-1.32,34.17h41.37l-.16-1.11-.69-29.64c0-1.9-2-3.53-3.9-3.53h0V196.2l-2.87-.12"/><rect class="cls-16" x="684.08" y="177.24" width="126.66" height="98.98"/><rect class="cls-15" x="684.08" y="176.73" width="124.62" height="27.55"/><rect class="cls-16" x="710.64" y="159.89" width="41.88" height="115.82"/><rect class="cls-16" x="808.7" y="159.89" width="41.88" height="115.82"/><rect class="cls-18" x="654.47" y="64.8" width="17.97" height="8.31"/><rect class="cls-16" x="641.63" y="142.48" width="42.85" height="133.96"/><rect class="cls-18" x="641.95" y="94.14" width="42.21" height="9.37"/><polygon class="cls-15" points="684.16 94.14 641.95 94.14 654.45 72.84 672.36 72.84 684.16 94.14"/><rect class="cls-22" x="640.88" y="103.51" width="44.34" height="39.61"/><ellipse class="cls-19" cx="663.05" cy="116.71" rx="12.37" ry="12.35"/><path class="cls-15" d="M654.57,64.8h17.91s-7.41-4.33-9.12-41.39C662.08,60.9,654.57,64.8,654.57,64.8Z"/><path class="cls-19" d="M648.6,145h.35a1.32,1.32,0,0,1,1.32,1.32v24.24a0,0,0,0,1,0,0h-3a0,0,0,0,1,0,0V146.35A1.32,1.32,0,0,1,648.6,145Z"/><rect class="cls-19" x="652.4" y="150.58" width="2.98" height="20.02"/><rect class="cls-19" x="657.51" y="150.58" width="2.98" height="20.02"/><rect class="cls-19" x="666.04" y="150.58" width="2.98" height="20.02"/><rect class="cls-19" x="671.16" y="150.58" width="2.98" height="20.02"/><path class="cls-19" d="M677.59,145h.35a1.32,1.32,0,0,1,1.32,1.32v24.24a0,0,0,0,1,0,0h-3a0,0,0,0,1,0,0V146.35a1.32,1.32,0,0,1,1.32-1.32Z"/><path class="cls-19" d="M648.6,175.28h.35a1.32,1.32,0,0,1,1.32,1.32v24.24a0,0,0,0,1,0,0h-3a0,0,0,0,1,0,0V176.6A1.32,1.32,0,0,1,648.6,175.28Z"/><rect class="cls-19" x="652.4" y="180.82" width="2.98" height="20.02"/><rect class="cls-19" x="657.51" y="180.82" width="2.98" height="20.02"/><rect class="cls-19" x="666.04" y="180.82" width="2.98" height="20.02"/><rect class="cls-19" x="671.16" y="180.82" width="2.98" height="20.02"/><path class="cls-19" d="M677.59,175.28h.35a1.32,1.32,0,0,1,1.32,1.32v24.24a0,0,0,0,1,0,0h-3a0,0,0,0,1,0,0V176.6A1.32,1.32,0,0,1,677.59,175.28Z"/><path class="cls-19" d="M648.6,205.52h.35a1.32,1.32,0,0,1,1.32,1.32v24.24a0,0,0,0,1,0,0h-3a0,0,0,0,1,0,0V206.84A1.32,1.32,0,0,1,648.6,205.52Z"/><rect class="cls-19" x="652.4" y="211.06" width="2.98" height="20.02"/><rect class="cls-19" x="657.51" y="211.06" width="2.98" height="20.02"/><rect class="cls-19" x="666.04" y="211.06" width="2.98" height="20.02"/><rect class="cls-19" x="671.16" y="211.06" width="2.98" height="20.02"/><path class="cls-19" d="M677.59,205.52h.35a1.32,1.32,0,0,1,1.32,1.32v24.24a0,0,0,0,1,0,0h-3a0,0,0,0,1,0,0V206.84A1.32,1.32,0,0,1,677.59,205.52Z"/><path class="cls-19" d="M648.6,235.76h.35a1.32,1.32,0,0,1,1.32,1.32v24.24a0,0,0,0,1,0,0h-3a0,0,0,0,1,0,0V237.08A1.32,1.32,0,0,1,648.6,235.76Z"/><rect class="cls-19" x="652.4" y="241.3" width="2.98" height="20.02"/><rect class="cls-19" x="657.51" y="241.3" width="2.98" height="20.02"/><rect class="cls-19" x="666.04" y="241.3" width="2.98" height="20.02"/><rect class="cls-19" x="671.16" y="241.3" width="2.98" height="20.02"/><path class="cls-19" d="M677.59,235.76h.35a1.32,1.32,0,0,1,1.32,1.32v24.24a0,0,0,0,1,0,0h-3a0,0,0,0,1,0,0V237.08A1.32,1.32,0,0,1,677.59,235.76Z"/><rect class="cls-23" x="641.74" y="142.91" width="42.64" height="2.13"/><rect class="cls-24" x="643.87" y="94.78" width="2.13" height="8.94"/><rect class="cls-24" x="648.99" y="94.78" width="2.13" height="8.94"/><rect class="cls-24" x="654.1" y="94.78" width="2.13" height="8.94"/><rect class="cls-24" x="659.22" y="94.78" width="2.13" height="8.94"/><rect class="cls-24" x="664.34" y="94.78" width="2.13" height="8.94"/><rect class="cls-24" x="669.45" y="94.78" width="2.13" height="8.94"/><rect class="cls-24" x="674.57" y="94.78" width="2.13" height="8.94"/><rect class="cls-24" x="679.69" y="94.78" width="2.13" height="8.94"/><rect class="cls-19" x="655.81" y="65.39" width="0.85" height="5.54"/><rect class="cls-19" x="659.09" y="65.39" width="0.85" height="5.54"/><rect class="cls-19" x="661.65" y="65.39" width="0.85" height="5.54"/><rect class="cls-19" x="664.92" y="65.39" width="0.85" height="5.54"/><rect class="cls-19" x="667.48" y="65.39" width="0.85" height="5.54"/><rect class="cls-19" x="670.04" y="65.39" width="0.85" height="5.54"/><rect class="cls-25" x="662.63" y="105" width="0.85" height="12.35" rx="0.38"/><rect class="cls-25" x="662.63" y="116.07" width="7.25" height="1.28" rx="0.64"/><rect class="cls-24" x="642.11" y="93.94" width="41.78" height="0.72"/><polygon class="cls-26" points="685.23 103.51 684.16 103.51 684.16 94.14 675.91 93.53 675.91 276.19 684.59 276.19 684.59 143.02 685.1 143.02 685.23 103.51"/><path class="cls-26" d="M684.16,94.27,672.33,72.74l.11-7.94s-7.58-4.32-9.08-41.39L663.14,73l12.77,20.65Z"/><path class="cls-16" d="M713.7,151.73h0a3.06,3.06,0,0,1,3.06,3.06v12.76a0,0,0,0,1,0,0h-6.13a0,0,0,0,1,0,0V154.79A3.06,3.06,0,0,1,713.7,151.73Z"/><path class="cls-16" d="M749.45,151.73h0a3.06,3.06,0,0,1,3.06,3.06v12.76a0,0,0,0,1,0,0h-6.13a0,0,0,0,1,0,0V154.79A3.06,3.06,0,0,1,749.45,151.73Z"/><path class="cls-16" d="M811.76,151.73h0a3.06,3.06,0,0,1,3.06,3.06v12.76a0,0,0,0,1,0,0H808.7a0,0,0,0,1,0,0V154.79A3.06,3.06,0,0,1,811.76,151.73Z"/><path class="cls-16" d="M847.52,151.73h0a3.06,3.06,0,0,1,3.06,3.06v12.76a0,0,0,0,1,0,0h-6.13a0,0,0,0,1,0,0V154.79a3.06,3.06,0,0,1,3.06-3.06Z"/><rect class="cls-15" x="716.77" y="159.89" width="29.62" height="13.78"/><rect class="cls-15" x="814.83" y="159.89" width="29.62" height="13.78"/><path class="cls-19" d="M730.45,184.89h0a6.63,6.63,0,0,1,6.63,6.63V205.3a0,0,0,0,1,0,0H723.82a0,0,0,0,1,0,0V191.53A6.63,6.63,0,0,1,730.45,184.89Z"/><path class="cls-19" d="M830.61,184.89h0a6.63,6.63,0,0,1,6.63,6.63V205.3a0,0,0,0,1,0,0H824a0,0,0,0,1,0,0V191.53A6.63,6.63,0,0,1,830.61,184.89Z"/><rect class="cls-19" x="724.37" y="216.16" width="2.98" height="20.02"/><rect class="cls-19" x="728.96" y="216.16" width="2.98" height="20.02"/><rect class="cls-19" x="733.56" y="216.16" width="2.98" height="20.02"/><rect class="cls-19" x="691.88" y="216.16" width="2.98" height="20.02"/><rect class="cls-19" x="696.47" y="216.16" width="2.98" height="20.02"/><rect class="cls-19" x="701.07" y="216.16" width="2.98" height="20.02"/><rect class="cls-19" x="824.52" y="216.16" width="2.98" height="20.02"/><rect class="cls-19" x="829.12" y="216.16" width="2.98" height="20.02"/><rect class="cls-19" x="833.72" y="216.16" width="2.98" height="20.02"/><rect class="cls-19" x="753.02" y="216.16" width="2.98" height="20.02"/><rect class="cls-19" x="757.62" y="216.16" width="2.98" height="20.02"/><rect class="cls-19" x="799.36" y="216.16" width="2.98" height="20.02"/><rect class="cls-19" x="803.95" y="216.16" width="2.98" height="20.02"/><rect class="cls-19" x="753.02" y="245.75" width="2.98" height="20.02"/><rect class="cls-19" x="757.62" y="245.75" width="2.98" height="20.02"/><rect class="cls-19" x="774.47" y="245.75" width="2.98" height="20.02"/><rect class="cls-19" x="779.07" y="245.75" width="2.98" height="20.02"/><rect class="cls-19" x="783.67" y="245.75" width="2.98" height="20.02"/><rect class="cls-19" x="774.47" y="216.16" width="2.98" height="20.02"/><rect class="cls-19" x="779.07" y="216.16" width="2.98" height="20.02"/><rect class="cls-19" x="783.67" y="216.16" width="2.98" height="20.02"/><rect class="cls-19" x="799.5" y="245.75" width="2.98" height="20.02"/><rect class="cls-19" x="804.1" y="245.75" width="2.98" height="20.02"/><rect class="cls-19" x="724.37" y="246.26" width="2.98" height="20.02"/><rect class="cls-19" x="728.96" y="246.26" width="2.98" height="20.02"/><rect class="cls-19" x="733.56" y="246.26" width="2.98" height="20.02"/><rect class="cls-19" x="692.19" y="246.26" width="2.98" height="20.02"/><rect class="cls-19" x="696.79" y="246.26" width="2.98" height="20.02"/><rect class="cls-19" x="701.38" y="246.26" width="2.98" height="20.02"/><rect class="cls-19" x="824.52" y="246.26" width="2.98" height="20.02"/><rect class="cls-19" x="829.12" y="246.26" width="2.98" height="20.02"/><rect class="cls-19" x="833.72" y="246.26" width="2.98" height="20.02"/><polygon class="cls-26" points="752.49 203.7 752.49 275.71 810.75 275.71 752.49 203.7"/><rect class="cls-26" x="805.13" y="204.28" width="3.58" height="72.96"/><polygon class="cls-26" points="684.59 204.28 710.64 276.22 684.08 276.22 684.59 204.28"/><rect class="cls-26" x="709.11" y="204.28" width="1.53" height="71.94"/><polygon class="cls-8" points="240.24 252.58 239.96 252.69 239.96 253.23 241.26 253.68 241.26 253.05 240.24 252.58"/><polygon class="cls-8" points="242.3 252.58 242.57 252.69 242.57 253.23 241.26 253.68 241.26 253.05 242.3 252.58"/><rect class="cls-27" x="240.24" y="251.16" width="2.08" height="1.58"/><ellipse class="cls-27" cx="241.28" cy="248.91" rx="2.62" ry="2.73"/><rect class="cls-28" x="238.64" y="241.02" width="5.28" height="8.83" rx="2.31"/><path class="cls-8" d="M239.29,243.81a1.3,1.3,0,0,1-2-.81,1.31,1.31,0,0,1,2,.81Z"/><path class="cls-28" d="M243.6,247.17v2.18a2.26,2.26,0,0,1-2.26,2.26h-.13a2.26,2.26,0,0,1-2.26-2.26v-2.18h4.65m.3-.3h-5.25v2.48a2.56,2.56,0,0,0,2.56,2.56h.13a2.56,2.56,0,0,0,2.56-2.56v-2.48Z"/><polygon class="cls-27" points="240.18 252.74 241.26 253.05 242.26 252.74 240.18 252.74"/><polygon class="cls-8" points="239.96 253.21 236.57 254.26 238.47 261.09 238.47 266.48 241.26 266.48 241.26 253.63 239.96 253.21"/><polygon class="cls-8" points="242.57 253.19 245.96 254.24 244.11 261.09 244.11 266.46 241.26 266.46 241.26 253.61 242.57 253.19"/><path class="cls-8" d="M236.57,254.22l-.63.16v11.16h1.76V254.89S236.57,254.2,236.57,254.22Z"/><path class="cls-8" d="M246,254.22l.63.16v11.16h-1.76V254.89S246,254.2,246,254.22Z"/><rect class="cls-28" x="235.94" y="264.95" width="1.76" height="1.4"/><rect class="cls-28" x="244.83" y="264.95" width="1.76" height="1.4"/><path class="cls-27" d="M235.94,266.35h1.76a0,0,0,0,1,0,0v.16a.88.88,0,0,1-.88.88h0a.88.88,0,0,1-.88-.88v-.16a0,0,0,0,1,0,0Z"/><path class="cls-27" d="M244.83,266.35h1.76a0,0,0,0,1,0,0v.16a.88.88,0,0,1-.88.88h0a.88.88,0,0,1-.88-.88v-.16A0,0,0,0,1,244.83,266.35Z"/><polygon class="cls-7" points="244.11 262.34 241.76 262.34 241.22 261.84 240.77 262.34 238.47 262.34 238.47 261.17 240.77 261.17 241.26 261.71 241.76 261.17 244.11 261.17 244.11 262.34"/><rect class="cls-28" x="238.47" y="265.22" width="2.8" height="12.12"/><rect class="cls-28" x="241.27" y="265.22" width="2.84" height="12.12"/><path class="cls-28" d="M238.67,276.36h2.6a0,0,0,0,1,0,0v1.4a0,0,0,0,1,0,0h-2.6a.7.7,0,0,1-.7-.7v0a.7.7,0,0,1,.7-.7Z"/><path class="cls-28" d="M241.92,276.36h2.6a0,0,0,0,1,0,0v1.4a0,0,0,0,1,0,0h-2.6a.7.7,0,0,1-.7-.7v0A.7.7,0,0,1,241.92,276.36Z" transform="translate(485.73 554.11) rotate(-180)"/><circle class="cls-27" cx="241.63" cy="254.18" r="0.18"/><circle class="cls-27" cx="241.63" cy="254.54" r="0.18"/><circle class="cls-27" cx="241.63" cy="256.03" r="0.18"/><circle class="cls-27" cx="241.63" cy="256.39" r="0.18"/><circle class="cls-27" cx="241.63" cy="257.87" r="0.18"/><circle class="cls-27" cx="241.63" cy="258.24" r="0.18"/><circle class="cls-27" cx="241.63" cy="259.72" r="0.18"/><circle class="cls-27" cx="241.63" cy="260.08" r="0.18"/><rect class="cls-27" x="236.75" y="265.27" width="0.95" height="0.18"/><rect class="cls-27" x="236.75" y="265.54" width="0.95" height="0.18"/><rect class="cls-27" x="236.75" y="265.81" width="0.95" height="0.18"/><rect class="cls-27" x="244.83" y="265.27" width="0.95" height="0.18"/><rect class="cls-27" x="244.83" y="265.54" width="0.95" height="0.18"/><rect class="cls-27" x="244.83" y="265.81" width="0.95" height="0.18"/><circle class="cls-27" cx="241.25" cy="261.75" r="0.5"/><rect class="cls-27" x="240.54" y="261.17" width="0.23" height="1.17"/><rect class="cls-27" x="241.76" y="261.17" width="0.23" height="1.17"/><polygon class="cls-8" points="225.93 252.58 225.66 252.69 225.66 253.23 226.96 253.68 226.96 253.05 225.93 252.58"/><polygon class="cls-8" points="228 252.58 228.27 252.69 228.27 253.23 226.96 253.68 226.96 253.05 228 252.58"/><rect class="cls-27" x="225.94" y="251.16" width="2.08" height="1.58"/><ellipse class="cls-27" cx="226.98" cy="248.91" rx="2.62" ry="2.73"/><rect class="cls-28" x="224.34" y="241.02" width="5.28" height="8.83" rx="2.31"/><path class="cls-8" d="M225,243.81a1.3,1.3,0,0,1-2-.81,1.32,1.32,0,0,1,2,.81Z"/><path class="cls-28" d="M229.3,247.17v2.18a2.26,2.26,0,0,1-2.26,2.26h-.13a2.26,2.26,0,0,1-2.26-2.26v-2.18h4.65m.3-.3h-5.25v2.48a2.56,2.56,0,0,0,2.56,2.56H227a2.56,2.56,0,0,0,2.56-2.56v-2.48Z"/><polygon class="cls-27" points="225.88 252.74 226.96 253.05 227.96 252.74 225.88 252.74"/><polygon class="cls-8" points="225.66 253.21 222.27 254.26 224.17 261.09 224.17 266.48 226.96 266.48 226.96 253.63 225.66 253.21"/><polygon class="cls-8" points="228.27 253.19 231.66 254.24 229.81 261.09 229.81 266.46 226.96 266.46 226.96 253.61 228.27 253.19"/><path class="cls-8" d="M222.27,254.22l-.63.16v11.16h1.76V254.89S222.27,254.2,222.27,254.22Z"/><path class="cls-8" d="M231.66,254.22l.63.16v11.16h-1.76V254.89S231.66,254.2,231.66,254.22Z"/><rect class="cls-28" x="221.64" y="264.95" width="1.76" height="1.4"/><rect class="cls-28" x="230.53" y="264.95" width="1.76" height="1.4"/><path class="cls-27" d="M221.64,266.35h1.76a0,0,0,0,1,0,0v.16a.88.88,0,0,1-.88.88h0a.88.88,0,0,1-.88-.88v-.16A0,0,0,0,1,221.64,266.35Z"/><path class="cls-27" d="M230.53,266.35h1.76a0,0,0,0,1,0,0v.16a.88.88,0,0,1-.88.88h0a.88.88,0,0,1-.88-.88v-.16A0,0,0,0,1,230.53,266.35Z"/><polygon class="cls-7" points="229.81 262.34 227.46 262.34 226.92 261.84 226.47 262.34 224.17 262.34 224.17 261.17 226.47 261.17 226.96 261.71 227.46 261.17 229.81 261.17 229.81 262.34"/><rect class="cls-28" x="224.17" y="265.22" width="2.8" height="12.12"/><rect class="cls-28" x="226.96" y="265.22" width="2.84" height="12.12"/><path class="cls-28" d="M224.37,276.36H227a0,0,0,0,1,0,0v1.4a0,0,0,0,1,0,0h-2.6a.7.7,0,0,1-.7-.7v0A.7.7,0,0,1,224.37,276.36Z"/><path class="cls-28" d="M227.62,276.36h2.6a0,0,0,0,1,0,0v1.4a0,0,0,0,1,0,0h-2.6a.7.7,0,0,1-.7-.7v0a.7.7,0,0,1,.7-.7Z" transform="translate(457.13 554.11) rotate(-180)"/><circle class="cls-27" cx="227.33" cy="254.18" r="0.18"/><circle class="cls-27" cx="227.33" cy="254.54" r="0.18"/><circle class="cls-27" cx="227.33" cy="256.03" r="0.18"/><circle class="cls-27" cx="227.33" cy="256.39" r="0.18"/><circle class="cls-27" cx="227.33" cy="257.87" r="0.18"/><circle class="cls-27" cx="227.33" cy="258.24" r="0.18"/><circle class="cls-27" cx="227.33" cy="259.72" r="0.18"/><circle class="cls-27" cx="227.33" cy="260.08" r="0.18"/><rect class="cls-27" x="222.45" y="265.27" width="0.95" height="0.18"/><rect class="cls-27" x="222.45" y="265.54" width="0.95" height="0.18"/><rect class="cls-27" x="222.45" y="265.81" width="0.95" height="0.18"/><rect class="cls-27" x="230.53" y="265.27" width="0.95" height="0.18"/><rect class="cls-27" x="230.53" y="265.54" width="0.95" height="0.18"/><rect class="cls-27" x="230.53" y="265.81" width="0.95" height="0.18"/><circle class="cls-27" cx="226.95" cy="261.75" r="0.5"/><rect class="cls-27" x="226.24" y="261.17" width="0.23" height="1.17"/><rect class="cls-27" x="227.46" y="261.17" width="0.23" height="1.17"/><polygon class="cls-8" points="857.73 252.58 857.45 252.69 857.45 253.23 858.76 253.68 858.76 253.05 857.73 252.58"/><polygon class="cls-8" points="859.79 252.58 860.06 252.69 860.06 253.23 858.76 253.68 858.76 253.05 859.79 252.58"/><rect class="cls-27" x="857.73" y="251.16" width="2.08" height="1.58"/><ellipse class="cls-27" cx="858.77" cy="248.91" rx="2.62" ry="2.73"/><rect class="cls-28" x="856.13" y="241.02" width="5.28" height="8.83" rx="2.31"/><path class="cls-8" d="M856.78,243.81a1.3,1.3,0,0,1-2-.81,1.31,1.31,0,0,1,2,.81Z"/><path class="cls-28" d="M861.09,247.17v2.18a2.26,2.26,0,0,1-2.26,2.26h-.13a2.26,2.26,0,0,1-2.26-2.26v-2.18h4.65m.3-.3h-5.25v2.48a2.56,2.56,0,0,0,2.56,2.56h.13a2.56,2.56,0,0,0,2.56-2.56v-2.48Z"/><polygon class="cls-27" points="857.67 252.74 858.76 253.05 859.75 252.74 857.67 252.74"/><polygon class="cls-8" points="857.45 253.21 854.06 254.26 855.96 261.09 855.96 266.48 858.76 266.48 858.76 253.63 857.45 253.21"/><polygon class="cls-8" points="860.06 253.19 863.45 254.24 861.6 261.09 861.6 266.46 858.76 266.46 858.76 253.61 860.06 253.19"/><path class="cls-8" d="M854.06,254.22l-.63.16v11.16h1.76V254.89S854.06,254.2,854.06,254.22Z"/><path class="cls-8" d="M863.45,254.22l.63.16v11.16h-1.76V254.89S863.45,254.2,863.45,254.22Z"/><rect class="cls-28" x="853.43" y="264.95" width="1.76" height="1.4"/><rect class="cls-28" x="862.32" y="264.95" width="1.76" height="1.4"/><path class="cls-27" d="M853.43,266.35h1.76a0,0,0,0,1,0,0v.16a.88.88,0,0,1-.88.88h0a.88.88,0,0,1-.88-.88v-.16A0,0,0,0,1,853.43,266.35Z"/><path class="cls-27" d="M862.32,266.35h1.76a0,0,0,0,1,0,0v.16a.88.88,0,0,1-.88.88h0a.88.88,0,0,1-.88-.88v-.16a0,0,0,0,1,0,0Z"/><polygon class="cls-7" points="861.6 262.34 859.25 262.34 858.71 261.84 858.26 262.34 855.96 262.34 855.96 261.17 858.26 261.17 858.76 261.71 859.25 261.17 861.6 261.17 861.6 262.34"/><rect class="cls-28" x="855.96" y="265.22" width="2.8" height="12.12"/><rect class="cls-28" x="858.76" y="265.22" width="2.84" height="12.12"/><path class="cls-28" d="M856.16,276.36h2.6a0,0,0,0,1,0,0v1.4a0,0,0,0,1,0,0h-2.6a.7.7,0,0,1-.7-.7v0A.7.7,0,0,1,856.16,276.36Z"/><path class="cls-28" d="M859.41,276.36H862a0,0,0,0,1,0,0v1.4a0,0,0,0,1,0,0h-2.6a.7.7,0,0,1-.7-.7v0A.7.7,0,0,1,859.41,276.36Z" transform="translate(1720.72 554.11) rotate(-180)"/><circle class="cls-27" cx="859.12" cy="254.18" r="0.18"/><circle class="cls-27" cx="859.12" cy="254.54" r="0.18"/><circle class="cls-27" cx="859.12" cy="256.03" r="0.18"/><circle class="cls-27" cx="859.12" cy="256.39" r="0.18"/><circle class="cls-27" cx="859.12" cy="257.87" r="0.18"/><circle class="cls-27" cx="859.12" cy="258.24" r="0.18"/><circle class="cls-27" cx="859.12" cy="259.72" r="0.18"/><circle class="cls-27" cx="859.12" cy="260.08" r="0.18"/><rect class="cls-27" x="854.24" y="265.27" width="0.95" height="0.18"/><rect class="cls-27" x="854.24" y="265.54" width="0.95" height="0.18"/><rect class="cls-27" x="854.24" y="265.81" width="0.95" height="0.18"/><rect class="cls-27" x="862.32" y="265.27" width="0.95" height="0.18"/><rect class="cls-27" x="862.32" y="265.54" width="0.95" height="0.18"/><rect class="cls-27" x="862.32" y="265.81" width="0.95" height="0.18"/><circle class="cls-27" cx="858.74" cy="261.75" r="0.5"/><rect class="cls-27" x="858.03" y="261.17" width="0.23" height="1.17"/><rect class="cls-27" x="859.25" y="261.17" width="0.23" height="1.17"/><polygon class="cls-8" points="873.05 252.58 872.77 252.69 872.77 253.23 874.08 253.68 874.08 253.05 873.05 252.58"/><polygon class="cls-8" points="875.11 252.58 875.39 252.69 875.39 253.23 874.08 253.68 874.08 253.05 875.11 252.58"/><rect class="cls-27" x="873.05" y="251.16" width="2.08" height="1.58"/><ellipse class="cls-27" cx="874.09" cy="248.91" rx="2.62" ry="2.73"/><rect class="cls-28" x="871.45" y="241.02" width="5.28" height="8.83" rx="2.31"/><path class="cls-8" d="M872.1,243.81a1.64,1.64,0,0,1-1.18.1,1.7,1.7,0,0,1-.78-.91,1.31,1.31,0,0,1,2,.81Z"/><path class="cls-28" d="M876.41,247.17v2.18a2.26,2.26,0,0,1-2.26,2.26H874a2.26,2.26,0,0,1-2.26-2.26v-2.18h4.64m.3-.3h-5.25v2.48a2.57,2.57,0,0,0,2.57,2.56h.12a2.56,2.56,0,0,0,2.56-2.56v-2.48Z"/><polygon class="cls-27" points="873 252.74 874.08 253.05 875.07 252.74 873 252.74"/><polygon class="cls-8" points="872.77 253.21 869.38 254.26 871.28 261.09 871.28 266.48 874.08 266.48 874.08 253.63 872.77 253.21"/><polygon class="cls-8" points="875.39 253.19 878.77 254.24 876.92 261.09 876.92 266.46 874.08 266.46 874.08 253.61 875.39 253.19"/><path class="cls-8" d="M869.39,254.22l-.64.16v11.16h1.76V254.89S869.39,254.2,869.39,254.22Z"/><path class="cls-8" d="M878.77,254.22l.63.16v11.16h-1.76V254.89S878.77,254.2,878.77,254.22Z"/><rect class="cls-28" x="868.75" y="264.95" width="1.76" height="1.4"/><rect class="cls-28" x="877.64" y="264.95" width="1.76" height="1.4"/><path class="cls-27" d="M868.75,266.35h1.76a0,0,0,0,1,0,0v.16a.88.88,0,0,1-.88.88h0a.88.88,0,0,1-.88-.88v-.16A0,0,0,0,1,868.75,266.35Z"/><path class="cls-27" d="M877.64,266.35h1.76a0,0,0,0,1,0,0v.16a.88.88,0,0,1-.88.88h0a.88.88,0,0,1-.88-.88v-.16A0,0,0,0,1,877.64,266.35Z"/><polygon class="cls-7" points="876.92 262.34 874.57 262.34 874.03 261.84 873.58 262.34 871.28 262.34 871.28 261.17 873.58 261.17 874.08 261.71 874.57 261.17 876.92 261.17 876.92 262.34"/><rect class="cls-28" x="871.28" y="265.22" width="2.8" height="12.12"/><rect class="cls-28" x="874.08" y="265.22" width="2.84" height="12.12"/><path class="cls-28" d="M871.48,276.36h2.6a0,0,0,0,1,0,0v1.4a0,0,0,0,1,0,0h-2.6a.7.7,0,0,1-.7-.7v0A.7.7,0,0,1,871.48,276.36Z"/><path class="cls-28" d="M874.73,276.36h2.6a0,0,0,0,1,0,0v1.4a0,0,0,0,1,0,0h-2.6a.7.7,0,0,1-.7-.7v0A.7.7,0,0,1,874.73,276.36Z" transform="translate(1751.36 554.11) rotate(-180)"/><circle class="cls-27" cx="874.44" cy="254.18" r="0.18"/><circle class="cls-27" cx="874.44" cy="254.54" r="0.18"/><circle class="cls-27" cx="874.44" cy="256.03" r="0.18"/><circle class="cls-27" cx="874.44" cy="256.39" r="0.18"/><circle class="cls-27" cx="874.44" cy="257.87" r="0.18"/><circle class="cls-27" cx="874.44" cy="258.24" r="0.18"/><circle class="cls-27" cx="874.44" cy="259.72" r="0.18"/><circle class="cls-27" cx="874.44" cy="260.08" r="0.18"/><rect class="cls-27" x="869.57" y="265.27" width="0.95" height="0.18"/><rect class="cls-27" x="869.57" y="265.54" width="0.95" height="0.18"/><rect class="cls-27" x="869.57" y="265.81" width="0.95" height="0.18"/><rect class="cls-27" x="877.64" y="265.27" width="0.95" height="0.18"/><rect class="cls-27" x="877.64" y="265.54" width="0.95" height="0.18"/><rect class="cls-27" x="877.64" y="265.81" width="0.95" height="0.18"/><circle class="cls-27" cx="874.07" cy="261.75" r="0.5"/><rect class="cls-27" x="873.36" y="261.17" width="0.23" height="1.17"/><rect class="cls-27" x="874.57" y="261.17" width="0.23" height="1.17"/></g></g></g></svg>