<svg id="Layer_1" data-name="Layer 1" xmlns="http://www.w3.org/2000/svg" xmlns:xlink="http://www.w3.org/1999/xlink" viewBox="0 0 1921 997.86"><defs><style>.cls-1{fill:none;}.cls-2{fill:#de4752;opacity:0.4;}.cls-3{clip-path:url(#clip-path);}.cls-4{fill:#eed8ca;}.cls-5{fill:#ead7c6;}.cls-6{fill:#c1ad94;}.cls-7{fill:#aa937e;}.cls-8{fill:#938278;}.cls-9{fill:#c6ae97;}.cls-10{fill:#b39d8a;}.cls-11,.cls-17{fill:#75615a;}.cls-12{clip-path:url(#clip-path-2);}.cls-13{fill:#ead8c7;}.cls-14{fill:#8686c1;}.cls-15{fill:#fff;}.cls-16{fill:#ef6257;}.cls-17{opacity:0.45;}</style><clipPath id="clip-path" transform="translate(666.68 336.2)"><rect class="cls-1" x="-558.19" y="88.53" width="1694.3" height="573.13"/></clipPath><clipPath id="clip-path-2" transform="translate(666.68 336.2)"><rect class="cls-1" x="-1096.97" y="-395.34" width="2905.13" height="1634.14"/></clipPath></defs><title>hall</title><path class="cls-2" d="M294.8-336.2c-527.51,0-955.58,426.33-959.48,953.73h1919C1250.37,90.13,822.3-336.2,294.8-336.2Z" transform="translate(666.68 336.2)"/><g class="cls-3"><rect class="cls-4" x="421.58" y="577.87" width="24.21" height="9.08"/><rect class="cls-4" x="485.13" y="577.87" width="24.21" height="9.08"/><rect class="cls-4" x="548.68" y="577.87" width="24.21" height="9.08"/><rect class="cls-4" x="612.23" y="577.87" width="24.21" height="9.08"/><rect class="cls-4" x="675.78" y="577.87" width="24.21" height="9.08"/><rect class="cls-4" x="739.33" y="577.87" width="24.21" height="9.08"/><rect class="cls-4" x="1156.94" y="577.87" width="24.21" height="9.08"/><rect class="cls-4" x="1220.49" y="577.87" width="24.21" height="9.08"/><rect class="cls-4" x="1284.04" y="577.87" width="24.21" height="9.08"/><rect class="cls-4" x="1347.59" y="577.87" width="24.21" height="9.08"/><rect class="cls-4" x="1411.14" y="577.87" width="24.21" height="9.08"/><rect class="cls-4" x="1474.69" y="577.87" width="24.21" height="9.08"/><rect class="cls-5" x="150.74" y="568.79" width="217.88" height="75.65"/><polygon class="cls-6" points="199.16 567.27 199.16 599.42 199.16 635.36 205.21 635.36 205.21 567.27 199.16 567.27"/><polygon class="cls-6" points="314.15 567.27 314.15 599.42 314.15 635.36 320.2 635.36 320.2 567.27 314.15 567.27"/><rect class="cls-6" x="147.71" y="556.68" width="223.94" height="12.1"/><rect class="cls-5" x="150.74" y="546.09" width="51.45" height="10.59"/><rect class="cls-5" x="317.18" y="546.09" width="51.45" height="10.59"/><rect class="cls-6" x="367.11" y="586.94" width="452.41" height="25.72"/><rect class="cls-7" x="367.11" y="612.67" width="452.41" height="31.77"/><polygon class="cls-8" points="259.7 539.74 144.11 612.67 375.28 612.67 259.7 539.74"/><polygon class="cls-9" points="259.7 553.85 166.47 612.67 352.93 612.67 259.7 553.85"/><rect class="cls-5" x="1551.86" y="568.79" width="217.88" height="75.65"/><polygon class="cls-6" points="1721.32 567.27 1721.32 599.42 1721.32 635.36 1715.27 635.36 1715.27 567.27 1721.32 567.27"/><polygon class="cls-6" points="1606.33 567.27 1606.33 599.42 1606.33 635.36 1600.28 635.36 1600.28 567.27 1606.33 567.27"/><rect class="cls-6" x="1548.83" y="556.68" width="223.94" height="12.1"/><rect class="cls-5" x="1718.3" y="546.09" width="51.45" height="10.59"/><rect class="cls-5" x="1551.86" y="546.09" width="51.45" height="10.59"/><rect class="cls-6" x="1099.62" y="586.94" width="453.04" height="25.72"/><rect class="cls-7" x="1098.29" y="612.67" width="456.38" height="31.77"/><polygon class="cls-8" points="1660.71 539.74 1776.29 612.67 1545.12 612.67 1660.71 539.74"/><polygon class="cls-9" points="1660.71 553.85 1753.93 612.67 1567.47 612.67 1660.71 553.85"/><rect class="cls-9" x="150.74" y="841.14" width="216.37" height="96.84"/><polygon class="cls-8" points="147.71 616.8 147.71 636.88 371.65 636.88 371.65 615.69 147.71 616.8"/><rect class="cls-9" x="152.25" y="638.39" width="27.24" height="202.75"/><rect class="cls-9" x="339.87" y="638.39" width="27.24" height="202.75"/><rect class="cls-10" x="367.11" y="847.19" width="452.41" height="90.79"/><rect class="cls-10" x="367.11" y="644.44" width="452.41" height="178.54"/><rect class="cls-8" x="367.11" y="822.99" width="470.57" height="25.72"/><rect class="cls-9" x="179.49" y="638.39" width="161.9" height="175.52"/><rect class="cls-9" x="179.49" y="638.39" width="161.9" height="175.52"/><rect class="cls-11" x="395.86" y="676.22" width="12.1" height="57.5"/><rect class="cls-11" x="395.86" y="665.62" width="12.1" height="7.57"/><rect class="cls-11" x="459.41" y="665.62" width="12.1" height="7.57"/><rect class="cls-11" x="524.47" y="665.62" width="12.1" height="7.57"/><rect class="cls-11" x="588.02" y="665.62" width="12.1" height="7.57"/><rect class="cls-11" x="653.08" y="665.62" width="12.1" height="7.57"/><rect class="cls-11" x="716.63" y="665.62" width="12.1" height="7.57"/><rect class="cls-11" x="781.69" y="665.62" width="12.1" height="7.57"/><rect class="cls-11" x="459.41" y="676.22" width="12.1" height="57.5"/><rect class="cls-11" x="524.47" y="676.22" width="12.1" height="57.5"/><rect class="cls-11" x="588.02" y="676.22" width="12.1" height="57.5"/><rect class="cls-11" x="653.08" y="676.22" width="12.1" height="57.5"/><rect class="cls-11" x="716.63" y="676.22" width="12.1" height="57.5"/><rect class="cls-11" x="781.69" y="676.22" width="12.1" height="57.5"/><rect class="cls-11" x="394.34" y="753.38" width="12.1" height="57.5"/><rect class="cls-11" x="395.86" y="888.05" width="12.1" height="27.24"/><rect class="cls-11" x="459.41" y="888.05" width="12.1" height="27.24"/><rect class="cls-11" x="522.96" y="888.05" width="12.1" height="27.24"/><rect class="cls-11" x="651.57" y="888.05" width="12.1" height="27.24"/><rect class="cls-11" x="716.63" y="888.05" width="12.1" height="27.24"/><rect class="cls-11" x="780.18" y="888.05" width="12.1" height="27.24"/><rect class="cls-11" x="394.34" y="742.79" width="12.1" height="7.57"/><rect class="cls-11" x="395.86" y="877.46" width="12.1" height="7.57"/><rect class="cls-11" x="459.41" y="877.46" width="12.1" height="7.57"/><rect class="cls-11" x="522.96" y="877.46" width="12.1" height="7.57"/><rect class="cls-11" x="651.57" y="877.46" width="12.1" height="7.57"/><rect class="cls-11" x="716.63" y="877.46" width="12.1" height="7.57"/><rect class="cls-11" x="780.18" y="877.46" width="12.1" height="7.57"/><rect class="cls-11" x="459.41" y="742.79" width="12.1" height="7.57"/><rect class="cls-11" x="522.96" y="742.79" width="12.1" height="7.57"/><rect class="cls-11" x="588.02" y="742.79" width="12.1" height="7.57"/><rect class="cls-11" x="651.57" y="742.79" width="12.1" height="7.57"/><rect class="cls-11" x="716.63" y="742.79" width="12.1" height="7.57"/><rect class="cls-11" x="780.18" y="742.79" width="12.1" height="7.57"/><rect class="cls-11" x="459.41" y="753.38" width="12.1" height="57.5"/><rect class="cls-11" x="522.96" y="753.38" width="12.1" height="57.5"/><rect class="cls-11" x="588.02" y="753.38" width="12.1" height="57.5"/><rect class="cls-11" x="651.57" y="753.38" width="12.1" height="57.5"/><rect class="cls-11" x="716.63" y="753.38" width="12.1" height="57.5"/><rect class="cls-11" x="780.18" y="753.38" width="12.1" height="57.5"/><rect class="cls-11" x="327.77" y="897.13" width="25.72" height="40.85"/><rect class="cls-11" x="327.77" y="886.54" width="25.72" height="6.05"/><rect class="cls-11" x="165.87" y="897.13" width="25.72" height="40.85"/><rect class="cls-11" x="165.87" y="886.54" width="25.72" height="6.05"/><rect class="cls-11" x="247.57" y="897.13" width="25.72" height="40.85"/><rect class="cls-11" x="247.57" y="886.54" width="25.72" height="6.05"/><rect class="cls-4" x="427.63" y="659.57" width="13.62" height="163.41"/><rect class="cls-8" x="421.58" y="644.44" width="24.21" height="18.16"/><rect class="cls-4" x="491.18" y="659.57" width="13.62" height="163.41"/><rect class="cls-8" x="485.13" y="644.44" width="24.21" height="18.16"/><rect class="cls-4" x="554.73" y="659.57" width="13.62" height="163.41"/><rect class="cls-8" x="548.68" y="644.44" width="24.21" height="18.16"/><rect class="cls-4" x="618.28" y="659.57" width="13.62" height="163.41"/><rect class="cls-8" x="612.23" y="644.44" width="24.21" height="18.16"/><rect class="cls-4" x="681.83" y="659.57" width="13.62" height="163.41"/><rect class="cls-8" x="675.78" y="644.44" width="24.21" height="18.16"/><rect class="cls-4" x="745.38" y="659.57" width="13.62" height="163.41"/><rect class="cls-8" x="739.33" y="644.44" width="24.21" height="18.16"/><rect class="cls-11" x="193.1" y="689.83" width="25.72" height="40.85"/><rect class="cls-11" x="193.1" y="756.41" width="25.72" height="40.85"/><rect class="cls-11" x="247.57" y="756.41" width="25.72" height="40.85"/><rect class="cls-11" x="300.53" y="756.41" width="25.72" height="40.85"/><rect class="cls-11" x="247.57" y="689.83" width="25.72" height="40.85"/><rect class="cls-11" x="300.53" y="689.83" width="25.72" height="40.85"/><rect class="cls-11" x="193.1" y="745.82" width="25.72" height="6.05"/><rect class="cls-11" x="193.1" y="674.7" width="25.72" height="6.05"/><rect class="cls-11" x="247.57" y="674.7" width="25.72" height="6.05"/><rect class="cls-11" x="300.53" y="674.7" width="25.72" height="6.05"/><rect class="cls-11" x="247.57" y="745.82" width="25.72" height="6.05"/><rect class="cls-11" x="300.53" y="745.82" width="25.72" height="6.05"/><rect class="cls-4" x="171.92" y="653.52" width="13.62" height="160.39"/><rect class="cls-4" x="226.39" y="653.52" width="13.62" height="160.39"/><rect class="cls-4" x="279.35" y="653.52" width="13.62" height="160.39"/><rect class="cls-4" x="333.82" y="653.52" width="13.62" height="160.39"/><rect class="cls-8" x="167.38" y="638.39" width="24.21" height="18.16"/><rect class="cls-8" x="220.34" y="638.39" width="24.21" height="18.16"/><rect class="cls-8" x="274.81" y="638.39" width="24.21" height="18.16"/><rect class="cls-8" x="327.77" y="638.39" width="24.21" height="18.16"/><rect class="cls-4" x="205.21" y="836.6" width="13.62" height="101.38"/><rect class="cls-4" x="300.53" y="836.6" width="13.62" height="101.38"/><g class="cls-12"><path class="cls-11" d="M-48.4,601.78H-96.82V558.54c0-13.07,10-24.37,23.11-24.95A24.26,24.26,0,0,1-48.4,557.9Z" transform="translate(666.68 336.2)"/><polygon class="cls-13" points="374.39 638.39 144.69 638.39 144.69 633.85 374.39 633.85 368.65 638.39 374.39 638.39"/><polygon class="cls-13" points="374.39 617.21 144.69 617.21 144.69 612.67 374.39 612.67 368.65 617.21 374.39 617.21"/><rect class="cls-11" x="367.11" y="822.99" width="452.41" height="9.08"/><rect class="cls-7" x="143.17" y="813.91" width="233.02" height="27.24"/><rect class="cls-11" x="143.17" y="813.91" width="233.02" height="9.08"/><rect class="cls-9" x="1551.86" y="841.14" width="216.37" height="96.84"/><polygon class="cls-8" points="1772.77 616.8 1772.77 636.88 1548.83 636.88 1548.83 615.69 1772.77 616.8"/><rect class="cls-9" x="1740.99" y="638.39" width="27.24" height="202.75"/><rect class="cls-9" x="1553.37" y="638.39" width="27.24" height="202.75"/><rect class="cls-10" x="1099" y="847.19" width="454.37" height="90.79"/><rect class="cls-10" x="1100.96" y="644.44" width="452.41" height="178.54"/><rect class="cls-8" x="1082.8" y="822.99" width="470.57" height="25.72"/><rect class="cls-9" x="1579.09" y="638.39" width="161.9" height="175.52"/><rect class="cls-9" x="1579.09" y="638.39" width="161.9" height="175.52"/><rect class="cls-11" x="1512.52" y="676.22" width="12.1" height="57.5"/><rect class="cls-11" x="1512.52" y="665.62" width="12.1" height="7.57"/><rect class="cls-11" x="1448.97" y="665.62" width="12.1" height="7.57"/><rect class="cls-11" x="1383.9" y="665.62" width="12.1" height="7.57"/><rect class="cls-11" x="1320.35" y="665.62" width="12.1" height="7.57"/><rect class="cls-11" x="1255.29" y="665.62" width="12.1" height="7.57"/><rect class="cls-11" x="1191.74" y="665.62" width="12.1" height="7.57"/><rect class="cls-11" x="1126.68" y="665.62" width="12.1" height="7.57"/><rect class="cls-11" x="1448.97" y="676.22" width="12.1" height="57.5"/><rect class="cls-11" x="1383.9" y="676.22" width="12.1" height="57.5"/><rect class="cls-11" x="1320.35" y="676.22" width="12.1" height="57.5"/><rect class="cls-11" x="1255.29" y="676.22" width="12.1" height="57.5"/><rect class="cls-11" x="1191.74" y="676.22" width="12.1" height="57.5"/><rect class="cls-11" x="1126.68" y="676.22" width="12.1" height="57.5"/><rect class="cls-11" x="1514.03" y="753.38" width="12.1" height="57.5"/><rect class="cls-11" x="1512.52" y="888.05" width="12.1" height="27.24"/><rect class="cls-11" x="1448.97" y="888.05" width="12.1" height="27.24"/><rect class="cls-11" x="1385.42" y="888.05" width="12.1" height="27.24"/><rect class="cls-11" x="1256.8" y="888.05" width="12.1" height="27.24"/><rect class="cls-11" x="1191.74" y="888.05" width="12.1" height="27.24"/><rect class="cls-11" x="1128.19" y="888.05" width="12.1" height="27.24"/><rect class="cls-11" x="1514.03" y="742.79" width="12.1" height="7.57"/><rect class="cls-11" x="1512.52" y="877.46" width="12.1" height="7.57"/><rect class="cls-11" x="1448.97" y="877.46" width="12.1" height="7.57"/><rect class="cls-11" x="1385.42" y="877.46" width="12.1" height="7.57"/><rect class="cls-11" x="1256.8" y="877.46" width="12.1" height="7.57"/><rect class="cls-11" x="1191.74" y="877.46" width="12.1" height="7.57"/><rect class="cls-11" x="1128.19" y="877.46" width="12.1" height="7.57"/><rect class="cls-11" x="1448.97" y="742.79" width="12.1" height="7.57"/><rect class="cls-11" x="1385.42" y="742.79" width="12.1" height="7.57"/><rect class="cls-11" x="1320.35" y="742.79" width="12.1" height="7.57"/><rect class="cls-11" x="1256.8" y="742.79" width="12.1" height="7.57"/><rect class="cls-11" x="1191.74" y="742.79" width="12.1" height="7.57"/><rect class="cls-11" x="1128.19" y="742.79" width="12.1" height="7.57"/><rect class="cls-11" x="1448.97" y="753.38" width="12.1" height="57.5"/><rect class="cls-11" x="1385.42" y="753.38" width="12.1" height="57.5"/><rect class="cls-11" x="1320.35" y="753.38" width="12.1" height="57.5"/><rect class="cls-11" x="1256.8" y="753.38" width="12.1" height="57.5"/><rect class="cls-11" x="1191.74" y="753.38" width="12.1" height="57.5"/><rect class="cls-11" x="1128.19" y="753.38" width="12.1" height="57.5"/><rect class="cls-11" x="1566.99" y="897.13" width="25.72" height="40.85"/><rect class="cls-11" x="1566.99" y="886.54" width="25.72" height="6.05"/><rect class="cls-11" x="1728.89" y="897.13" width="25.72" height="40.85"/><rect class="cls-11" x="1728.89" y="886.54" width="25.72" height="6.05"/><rect class="cls-11" x="1647.18" y="897.13" width="25.72" height="40.85"/><rect class="cls-11" x="1647.18" y="886.54" width="25.72" height="6.05"/><rect class="cls-4" x="1479.23" y="659.57" width="13.62" height="163.41"/><rect class="cls-8" x="1474.69" y="644.44" width="24.21" height="18.16"/><rect class="cls-4" x="1415.68" y="659.57" width="13.62" height="163.41"/><rect class="cls-8" x="1411.14" y="644.44" width="24.21" height="18.16"/><rect class="cls-4" x="1352.13" y="659.57" width="13.62" height="163.41"/><rect class="cls-8" x="1347.59" y="644.44" width="24.21" height="18.16"/><rect class="cls-4" x="1288.58" y="659.57" width="13.62" height="163.41"/><rect class="cls-8" x="1284.04" y="644.44" width="24.21" height="18.16"/><rect class="cls-4" x="1225.03" y="659.57" width="13.62" height="163.41"/><rect class="cls-8" x="1220.49" y="644.44" width="24.21" height="18.16"/><rect class="cls-4" x="1161.48" y="659.57" width="13.62" height="163.41"/><rect class="cls-8" x="1156.94" y="644.44" width="24.21" height="18.16"/><rect class="cls-11" x="1701.65" y="689.83" width="25.72" height="40.85"/><rect class="cls-11" x="1701.65" y="756.41" width="25.72" height="40.85"/><rect class="cls-11" x="1647.18" y="756.41" width="25.72" height="40.85"/><rect class="cls-11" x="1594.22" y="756.41" width="25.72" height="40.85"/><rect class="cls-11" x="1647.18" y="689.83" width="25.72" height="40.85"/><rect class="cls-11" x="1594.22" y="689.83" width="25.72" height="40.85"/><rect class="cls-11" x="1701.65" y="745.82" width="25.72" height="6.05"/><rect class="cls-11" x="1701.65" y="674.7" width="25.72" height="6.05"/><rect class="cls-11" x="1647.18" y="674.7" width="25.72" height="6.05"/><rect class="cls-11" x="1594.22" y="674.7" width="25.72" height="6.05"/><rect class="cls-11" x="1647.18" y="745.82" width="25.72" height="6.05"/><rect class="cls-11" x="1594.22" y="745.82" width="25.72" height="6.05"/><rect class="cls-4" x="1734.94" y="653.52" width="13.62" height="160.39"/><rect class="cls-4" x="1680.47" y="653.52" width="13.62" height="160.39"/><rect class="cls-4" x="1627.51" y="653.52" width="13.62" height="160.39"/><rect class="cls-4" x="1573.04" y="653.52" width="13.62" height="160.39"/><rect class="cls-8" x="1728.89" y="638.39" width="24.21" height="18.16"/><rect class="cls-8" x="1675.93" y="638.39" width="24.21" height="18.16"/><rect class="cls-8" x="1621.46" y="638.39" width="24.21" height="18.16"/><rect class="cls-8" x="1568.5" y="638.39" width="24.21" height="18.16"/><rect class="cls-4" x="1701.65" y="836.6" width="13.62" height="101.38"/><rect class="cls-4" x="1606.33" y="836.6" width="13.62" height="101.38"/><path class="cls-11" d="M635.52,601.78h48.42V558.54c0-13.08-10.05-24.37-23.12-24.95a24.27,24.27,0,0,0-25.3,24.31Z" transform="translate(666.68 336.2)"/><polygon class="cls-13" points="1546.09 638.39 1775.79 638.39 1775.79 633.85 1546.09 633.85 1551.83 638.39 1546.09 638.39"/><polygon class="cls-13" points="1546.09 617.21 1775.79 617.21 1775.79 612.67 1546.09 612.67 1551.83 617.21 1546.09 617.21"/><rect class="cls-11" x="1100.96" y="822.99" width="452.41" height="9.08"/><rect class="cls-7" x="1544.29" y="813.91" width="233.02" height="27.24"/><rect class="cls-11" x="1544.29" y="813.91" width="233.02" height="9.08"/><rect class="cls-9" x="819.52" y="842.66" width="279.92" height="95.32"/><rect class="cls-5" x="819.52" y="543.06" width="279.92" height="75.65"/><polygon class="cls-6" points="881.56 543.06 881.56 575.21 881.56 611.15 889.12 611.15 889.12 543.06 881.56 543.06"/><polygon class="cls-6" points="1029.84 543.06 1029.84 575.21 1029.84 611.15 1037.41 611.15 1037.41 543.06 1029.84 543.06"/><rect class="cls-9" x="821.04" y="638.39" width="59.01" height="175.52"/><rect class="cls-9" x="1040.43" y="638.39" width="59.01" height="175.52"/><rect class="cls-9" x="878.53" y="638.39" width="54.47" height="175.52"/><rect class="cls-9" x="933" y="638.39" width="54.47" height="175.52"/><rect class="cls-9" x="985.96" y="638.39" width="54.47" height="175.52"/><rect class="cls-11" x="843.73" y="674.7" width="12.1" height="114.99"/><rect class="cls-11" x="843.73" y="859.3" width="12.1" height="57.5"/><rect class="cls-11" x="1064.64" y="859.3" width="12.1" height="57.5"/><rect class="cls-11" x="1064.64" y="674.7" width="12.1" height="114.99"/><rect class="cls-11" x="893.66" y="689.83" width="25.72" height="40.85"/><rect class="cls-11" x="893.66" y="756.41" width="25.72" height="40.85"/><rect class="cls-11" x="946.62" y="756.41" width="25.72" height="40.85"/><rect class="cls-11" x="1001.09" y="756.41" width="25.72" height="40.85"/><rect class="cls-11" x="946.62" y="689.83" width="25.72" height="40.85"/><rect class="cls-11" x="1001.09" y="689.83" width="25.72" height="40.85"/><rect class="cls-11" x="893.66" y="745.82" width="25.72" height="6.05"/><rect class="cls-11" x="892.15" y="897.13" width="25.72" height="40.85"/><rect class="cls-11" x="892.15" y="888.05" width="25.72" height="6.05"/><rect class="cls-11" x="1002.61" y="897.13" width="25.72" height="40.85"/><rect class="cls-11" x="1002.61" y="888.05" width="25.72" height="6.05"/><rect class="cls-11" x="893.66" y="674.7" width="25.72" height="6.05"/><rect class="cls-11" x="946.62" y="674.7" width="25.72" height="6.05"/><rect class="cls-11" x="1001.09" y="674.7" width="25.72" height="6.05"/><rect class="cls-11" x="946.62" y="745.82" width="25.72" height="6.05"/><rect class="cls-11" x="1001.09" y="745.82" width="25.72" height="6.05"/><rect class="cls-13" x="819.52" y="611.15" width="279.92" height="27.24"/><rect class="cls-4" x="813.47" y="653.52" width="13.62" height="160.39"/><rect class="cls-4" x="872.48" y="653.52" width="13.62" height="160.39"/><rect class="cls-4" x="926.95" y="653.52" width="13.62" height="160.39"/><rect class="cls-4" x="979.91" y="653.52" width="13.62" height="160.39"/><rect class="cls-4" x="1034.38" y="653.52" width="13.62" height="160.39"/><rect class="cls-4" x="1093.39" y="653.52" width="13.62" height="160.39"/><rect class="cls-8" x="807.42" y="638.39" width="24.21" height="18.16"/><rect class="cls-8" x="867.94" y="638.39" width="24.21" height="18.16"/><rect class="cls-8" x="920.9" y="638.39" width="24.21" height="18.16"/><rect class="cls-8" x="975.37" y="638.39" width="24.21" height="18.16"/><rect class="cls-8" x="1028.33" y="638.39" width="24.21" height="18.16"/><rect class="cls-8" x="1088.85" y="638.39" width="24.21" height="18.16"/><rect class="cls-6" x="816.5" y="530.96" width="287.49" height="12.1"/><polygon class="cls-8" points="960.2 539.53 802.21 611.15 960.2 611.15 1118.19 611.15 960.2 539.53"/><polygon class="cls-9" points="960.2 551.13 827.8 611.15 960.2 611.15 1092.6 611.15 960.2 551.13"/><rect class="cls-5" x="819.52" y="520.37" width="66.58" height="10.59"/><rect class="cls-5" x="1034.38" y="520.37" width="66.58" height="10.59"/><path class="cls-11" d="M320.79,601.78h-56V551.17c0-13.34,9.21-25.21,22.31-27.77a28,28,0,0,1,33.67,27.19Z" transform="translate(666.68 336.2)"/><path class="cls-8" d="M251.22,530.84A12.87,12.87,0,1,1,238.36,518a12.87,12.87,0,0,1,12.86,12.86" transform="translate(666.68 336.2)"/><path class="cls-8" d="M361.55,530.84A12.87,12.87,0,1,1,348.68,518a12.87,12.87,0,0,1,12.87,12.86" transform="translate(666.68 336.2)"/><rect class="cls-7" x="813.47" y="813.91" width="71.12" height="28.75"/><rect class="cls-7" x="1035.89" y="813.91" width="71.12" height="28.75"/><rect class="cls-7" x="884.58" y="813.91" width="151.31" height="28.75"/><rect class="cls-11" x="813.47" y="813.91" width="293.54" height="9.08"/><rect class="cls-14" x="919.39" y="465.9" width="37.83" height="21.18"/><polygon class="cls-15" points="957.21 464.38 955.02 464.38 942.08 471.95 942.08 464.38 934.52 464.38 934.52 471.95 921.58 464.38 919.39 464.38 919.39 466.14 928.94 471.95 919.39 471.95 919.39 479.51 928.94 479.51 919.39 485.32 919.39 487.08 921.58 487.08 934.52 479.51 934.52 487.08 942.08 487.08 942.08 479.51 955.02 487.08 957.21 487.08 957.21 485.32 947.66 479.51 957.21 479.51 957.21 471.95 947.66 471.95 957.21 466.14 957.21 464.38"/><polygon class="cls-16" points="957.21 473.46 940.57 473.46 940.57 464.38 936.03 464.38 936.03 473.46 919.39 473.46 919.39 478 936.03 478 936.03 487.08 940.57 487.08 940.57 478 957.21 478 957.21 473.46"/><polygon class="cls-16" points="932.03 471.95 919.39 464.45 919.39 465.57 930.35 471.95 932.03 471.95"/><polygon class="cls-16" points="944.57 471.95 957.21 464.45 957.21 465.57 946.25 471.95 944.57 471.95"/><polygon class="cls-16" points="944.57 479.51 957.21 487.01 957.21 485.89 946.25 479.51 944.57 479.51"/><polygon class="cls-16" points="932.03 479.51 919.39 487.01 919.39 485.89 930.35 479.51 932.03 479.51"/><rect class="cls-8" x="958.73" y="459.84" width="1.51" height="71.12"/><polygon class="cls-7" points="1100.03 615.69 819.52 615.69 819.52 611.15 1100.03 611.15 1093.02 615.69 1100.03 615.69"/><polygon class="cls-7" points="1100.03 638.39 819.52 638.39 819.52 633.85 1100.03 633.85 1093.02 638.39 1100.03 638.39"/><rect class="cls-8" x="137.12" y="937.98" width="1643.21" height="16.64"/></g></g><rect class="cls-17" y="953.86" width="1921" height="44"/></svg>