<svg xmlns="http://www.w3.org/2000/svg" xmlns:xlink="http://www.w3.org/1999/xlink" viewBox="0 0 595.28 283.46"><defs><style>.cls-1,.cls-13,.cls-14,.cls-16,.cls-17{fill:none;}.cls-2{isolation:isolate;}.cls-3{clip-path:url(#clip-path);}.cls-4{fill:url(#linear-gradient);}.cls-5{fill:url(#linear-gradient-2);}.cls-6{fill:url(#linear-gradient-3);}.cls-7{fill:#f8dabc;}.cls-8{fill:#f04b51;}.cls-9{fill:#de4752;}.cls-10{fill:#c1282d;}.cls-11,.cls-24{fill:#e6ae88;}.cls-11,.cls-22,.cls-23{mix-blend-mode:multiply;}.cls-12{fill:#6498a7;}.cls-13,.cls-14,.cls-16,.cls-17{stroke:#6498a7;stroke-miterlimit:10;}.cls-13{stroke-width:1.1px;}.cls-14{stroke-width:0.88px;}.cls-15{fill:#9797c6;}.cls-16{stroke-width:1.76px;}.cls-17{stroke-width:1.81px;}.cls-18{fill:#eac38c;}.cls-19{fill:#f9d395;}.cls-20,.cls-23{fill:#fff3e5;}.cls-21{fill:#e0a982;}.cls-22{fill:#fdecde;}.cls-25{fill:#cc9d7d;}.cls-26{fill:#f3b07d;}.cls-27{fill:#f8c193;}.cls-28{fill:#f9ce96;}.cls-29{fill:#010101;}</style><clipPath id="clip-path"><rect class="cls-1" x="-0.92" y="-11.72" width="595.97" height="337.72"/></clipPath><linearGradient id="linear-gradient" x1="442.25" y1="153.54" x2="442.6" y2="173.06" gradientUnits="userSpaceOnUse"><stop offset="0" stop-color="#f3b07d"/><stop offset="0.19" stop-color="#ecaf85"/><stop offset="0.47" stop-color="#d9ac99"/><stop offset="0.8" stop-color="#bba8bb"/><stop offset="1" stop-color="#a6a5d2"/></linearGradient><linearGradient id="linear-gradient-2" x1="390.91" y1="210.77" x2="509.82" y2="210.77" gradientUnits="userSpaceOnUse"><stop offset="0" stop-color="#6498a7"/><stop offset="0.22" stop-color="#91a099"/><stop offset="0.47" stop-color="#bca78b"/><stop offset="0.68" stop-color="#dbac81"/><stop offset="0.87" stop-color="#eeaf7b"/><stop offset="1" stop-color="#f5b079"/></linearGradient><linearGradient id="linear-gradient-3" x1="113.26" y1="210.77" x2="232.18" y2="210.77" gradientUnits="userSpaceOnUse"><stop offset="0" stop-color="#6498a7"/><stop offset="0.13" stop-color="#6c99a5"/><stop offset="0.32" stop-color="#809d9e"/><stop offset="0.56" stop-color="#a2a293"/><stop offset="0.82" stop-color="#d1aa84"/><stop offset="1" stop-color="#f5b079"/></linearGradient></defs><title>plan</title><g class="cls-2"><g id="Layer_1" data-name="Layer 1"><g class="cls-3"><rect class="cls-1" x="0.94" y="-2.04" width="596.28" height="337.4"/><rect class="cls-1" x="0.94" y="-2.04" width="596.28" height="337.4"/><rect class="cls-1" x="-0.61" y="-2.04" width="597.83" height="337.4"/><path class="cls-4" d="M412.06,201l62.11.3s-.26-6-4.05-6c0,0,4.06-12.23-8.9-12.51s-11.35,5.43-11.35,5.43-7-6-12.69-1.64-3.24,7.06-3.24,7.06-8.1-3.8-10.26-.27a4.08,4.08,0,0,0,0,3.8S411.79,197.2,412.06,201Z"/><path class="cls-5" d="M392.43,228.19l117.39-1.25s-.31-23.12-23-22.5c0,0-.31-13.74-26.4-10.62S440,206.32,440,206.32s-18.33-18.12-28.26-2.5c0,0-2.8,11.56,3.41,13.12C415.1,216.94,383.74,212.25,392.43,228.19Z"/><path class="cls-6" d="M114.79,228.19l117.39-1.25s-.31-23.12-23-22.5c0,0-.31-13.74-26.4-10.62s-20.5,12.5-20.5,12.5S144,188.2,134,203.82c0,0-2.79,11.56,3.42,13.12C137.46,216.94,106.09,212.25,114.79,228.19Z"/><path class="cls-7" d="M153.13,202.07a6.2,6.2,0,0,1,11.2,0Z"/><path class="cls-8" d="M158.73,199.17c-3.09,0-5.56,1.88-5.56,5v23h11.2v-23C164.37,201.05,161.82,199.17,158.73,199.17Z"/><rect class="cls-8" x="153.17" y="202.07" width="11.2" height="2.09"/><rect class="cls-7" x="154.25" y="202.07" width="8.96" height="1.77"/><rect class="cls-8" x="153.02" y="204.16" width="11.52" height="23.02"/><rect class="cls-7" x="152.97" y="204.16" width="11.68" height="0.32"/><rect class="cls-9" x="154.11" y="204.81" width="9.28" height="21.25"/><rect class="cls-7" x="155.19" y="205.93" width="2.04" height="3.7"/><rect class="cls-7" x="157.76" y="205.93" width="2.04" height="3.7"/><rect class="cls-7" x="160.33" y="205.93" width="2.04" height="3.7"/><rect class="cls-7" x="155.19" y="210.16" width="2.04" height="3.7"/><rect class="cls-7" x="157.76" y="210.16" width="2.04" height="3.7"/><rect class="cls-7" x="160.33" y="210.16" width="2.04" height="3.7"/><rect class="cls-7" x="155.19" y="214.38" width="2.04" height="3.7"/><rect class="cls-7" x="157.76" y="214.38" width="2.04" height="3.7"/><rect class="cls-7" x="160.33" y="214.38" width="2.04" height="3.7"/><rect class="cls-7" x="155.19" y="218.73" width="2.04" height="3.7"/><rect class="cls-7" x="157.76" y="218.73" width="2.04" height="3.7"/><rect class="cls-7" x="160.33" y="218.73" width="2.04" height="3.7"/><rect class="cls-10" x="154.11" y="204.81" width="9.28" height="0.32"/><polygon class="cls-11" points="164.47 202.03 153.66 226.7 164.54 226.7 164.47 202.03"/><path class="cls-7" d="M373.94,202.07a6.2,6.2,0,0,1,11.2,0Z"/><path class="cls-8" d="M379.54,199.17c-3.09,0-5.56,1.88-5.56,5v23h11.2v-23C385.18,201.05,382.63,199.17,379.54,199.17Z"/><rect class="cls-8" x="373.98" y="202.07" width="11.2" height="2.09"/><rect class="cls-7" x="375.06" y="202.07" width="8.96" height="1.77"/><rect class="cls-8" x="373.83" y="204.16" width="11.52" height="23.02"/><rect class="cls-7" x="373.78" y="204.16" width="11.68" height="0.32"/><rect class="cls-9" x="374.93" y="204.81" width="9.28" height="21.25"/><rect class="cls-7" x="376" y="205.93" width="2.04" height="3.7"/><rect class="cls-7" x="378.57" y="205.93" width="2.04" height="3.7"/><rect class="cls-7" x="381.14" y="205.93" width="2.04" height="3.7"/><rect class="cls-7" x="376" y="210.16" width="2.04" height="3.7"/><rect class="cls-7" x="378.57" y="210.16" width="2.04" height="3.7"/><rect class="cls-7" x="381.14" y="210.16" width="2.04" height="3.7"/><rect class="cls-7" x="376" y="214.38" width="2.04" height="3.7"/><rect class="cls-7" x="378.57" y="214.38" width="2.04" height="3.7"/><rect class="cls-7" x="381.14" y="214.38" width="2.04" height="3.7"/><rect class="cls-7" x="376" y="218.73" width="2.04" height="3.7"/><rect class="cls-7" x="378.57" y="218.73" width="2.04" height="3.7"/><rect class="cls-7" x="381.14" y="218.73" width="2.04" height="3.7"/><rect class="cls-10" x="374.93" y="204.81" width="9.28" height="0.32"/><polygon class="cls-11" points="385.28 202.03 374.48 226.7 385.35 226.7 385.28 202.03"/><rect class="cls-12" x="-14.59" y="226.03" width="615.85" height="2.8"/><polyline class="cls-13" points="253.03 234.64 280.52 229.27 308.01 234.42"/><polyline class="cls-14" points="256.22 233.79 258.62 228.58 262.78 232.32 265.41 228.36 269.13 231 271.1 228.36 274.28 230.23 275.92 228.36"/><polyline class="cls-13" points="305.05 233.79 302.65 228.58 298.37 232.21 295.87 228.36 292.14 231 290.17 228.36 286.98 230.23 285.35 228.36"/><path class="cls-15" d="M275.48,251H263.89a2.19,2.19,0,0,0-2.08-2.81H223.3a2.19,2.19,0,0,0,0,4.37h11.58a2.18,2.18,0,0,0-.09.63,2.27,2.27,0,0,0,.21.94H209.64a2.19,2.19,0,0,0,0,4.37h38.51a2.18,2.18,0,0,0,2.17-2.19,2.22,2.22,0,0,0-.21-.93h25.37a2.19,2.19,0,0,0,0-4.38Z"/><path class="cls-15" d="M341.27,250.68h-5.55c0-.05,0-.1,0-.16a2,2,0,0,0-2-2H303.27a2,2,0,0,0,0,4.06h9.17a.09.09,0,0,0,0,0v.22a1.89,1.89,0,0,0,.27,1h-5.24a1.55,1.55,0,0,0-1.55,1.56v.95a1.55,1.55,0,0,0,1.55,1.56h17.09a1.55,1.55,0,0,0,1.55-1.56v-.95a1.6,1.6,0,0,0-.13-.62h15.3a1.91,1.91,0,0,0,1.91-1.92v-.22A1.91,1.91,0,0,0,341.27,250.68Z"/><path class="cls-16" d="M168.16,227.92s41.87-14.53,64.3-43.4"/><line class="cls-16" x1="226.18" y1="191.56" x2="226.18" y2="227.76"/><line class="cls-16" x1="218.73" y1="198.39" x2="218.73" y2="227.76"/><line class="cls-16" x1="211.28" y1="204.34" x2="211.28" y2="227.76"/><line class="cls-16" x1="203.84" y1="209.41" x2="203.84" y2="227.76"/><line class="cls-16" x1="196.39" y1="213.82" x2="196.39" y2="227.76"/><line class="cls-16" x1="188.94" y1="218" x2="188.94" y2="227.76"/><line class="cls-16" x1="181.52" y1="222.19" x2="181.5" y2="227.76"/><path class="cls-16" d="M232.55,192.22s-19.05,24.46-53,35.92"/><rect class="cls-17" x="252.05" y="181.87" width="57.82" height="4.63"/><path class="cls-16" d="M392.57,227.92s-41.87-14.53-64.3-43.4"/><line class="cls-16" x1="334.55" y1="191.56" x2="334.55" y2="227.76"/><line class="cls-16" x1="342" y1="198.39" x2="342" y2="227.76"/><line class="cls-16" x1="349.45" y1="204.34" x2="349.45" y2="227.76"/><line class="cls-16" x1="356.89" y1="209.41" x2="356.89" y2="227.76"/><line class="cls-16" x1="364.34" y1="213.82" x2="364.34" y2="227.76"/><line class="cls-16" x1="371.79" y1="218" x2="371.79" y2="227.76"/><line class="cls-16" x1="379.21" y1="222.19" x2="379.23" y2="227.76"/><path class="cls-16" d="M327.61,192.22s19.06,24.46,53,35.92"/><polyline class="cls-14" points="253.14 186.41 257.56 181.96 261.89 186.32 266.55 181.64 271.24 186.35 276.14 181.65 280.78 186.21 285.14 181.82 289.26 185.96 293.22 181.97 297.66 186.43 301.76 181.87 305.45 186.09 308.99 182.53"/><rect class="cls-18" x="307.9" y="176.14" width="21.46" height="70.29"/><rect class="cls-18" x="231.9" y="176.14" width="21.46" height="70.51"/><polygon class="cls-12" points="232.55 176.47 242.63 166.34 252.81 176.58 232.55 176.47"/><polygon class="cls-12" points="308.77 176.47 318.85 166.34 329.03 176.58 308.77 176.47"/><polygon class="cls-19" points="233.43 176.58 231.9 176.58 232.65 173.06 233.43 176.58"/><polygon class="cls-19" points="253.36 176.58 251.83 176.58 252.58 173.06 253.36 176.58"/><polygon class="cls-19" points="309.43 176.58 307.9 176.58 308.65 173.06 309.43 176.58"/><polygon class="cls-19" points="329.36 176.58 327.83 176.58 328.58 173.06 329.36 176.58"/><polygon class="cls-20" points="240.66 176.58 240.88 174.16 242.41 171.73 243.94 174.16 244.16 176.58 240.66 176.58"/><polygon class="cls-12" points="278.55 182.09 278.77 179.66 280.3 177.24 281.83 179.66 282.05 182.09 278.55 182.09"/><polygon class="cls-20" points="317.1 176.58 317.32 174.16 318.85 171.73 320.38 174.16 320.6 176.58 317.1 176.58"/><rect class="cls-20" x="236.68" y="182.31" width="0.94" height="4.41"/><rect class="cls-20" x="241.06" y="182.31" width="0.94" height="4.41"/><rect class="cls-20" x="242.94" y="182.31" width="0.94" height="4.41"/><rect class="cls-20" x="247.63" y="182.31" width="0.94" height="4.41"/><rect class="cls-20" x="236.68" y="193.33" width="0.94" height="4.41"/><rect class="cls-20" x="241.06" y="193.33" width="0.94" height="4.41"/><rect class="cls-20" x="242.94" y="193.33" width="0.94" height="4.41"/><rect class="cls-20" x="247.63" y="193.33" width="0.94" height="4.41"/><rect class="cls-20" x="236.68" y="204.34" width="0.94" height="4.41"/><rect class="cls-20" x="241.06" y="204.34" width="0.94" height="4.41"/><rect class="cls-20" x="242.94" y="204.34" width="0.94" height="4.41"/><rect class="cls-20" x="247.63" y="204.34" width="0.94" height="4.41"/><rect class="cls-20" x="236.68" y="215.36" width="0.94" height="4.41"/><rect class="cls-20" x="241.06" y="215.36" width="0.94" height="4.41"/><rect class="cls-20" x="242.94" y="215.36" width="0.94" height="4.41"/><rect class="cls-20" x="247.63" y="215.36" width="0.94" height="4.41"/><rect class="cls-20" x="312.9" y="182.31" width="0.94" height="4.41"/><rect class="cls-20" x="317.28" y="182.31" width="0.94" height="4.41"/><rect class="cls-20" x="319.16" y="182.31" width="0.94" height="4.41"/><rect class="cls-20" x="323.86" y="182.31" width="0.94" height="4.41"/><rect class="cls-20" x="312.9" y="193.33" width="0.94" height="4.41"/><rect class="cls-20" x="317.28" y="193.33" width="0.94" height="4.41"/><rect class="cls-20" x="319.16" y="193.33" width="0.94" height="4.41"/><rect class="cls-20" x="323.86" y="193.33" width="0.94" height="4.41"/><rect class="cls-20" x="312.9" y="204.34" width="0.94" height="4.41"/><rect class="cls-20" x="317.28" y="204.34" width="0.94" height="4.41"/><rect class="cls-20" x="319.16" y="204.34" width="0.94" height="4.41"/><rect class="cls-20" x="323.86" y="204.34" width="0.94" height="4.41"/><rect class="cls-20" x="312.9" y="215.36" width="0.94" height="4.41"/><rect class="cls-20" x="317.28" y="215.36" width="0.94" height="4.41"/><rect class="cls-20" x="319.16" y="215.36" width="0.94" height="4.41"/><rect class="cls-20" x="323.86" y="215.36" width="0.94" height="4.41"/><rect class="cls-21" x="231.9" y="176.36" width="21.46" height="0.66"/><rect class="cls-21" x="307.9" y="176.36" width="21.46" height="0.66"/><rect class="cls-21" x="231.9" y="187.86" width="21.46" height="0.66"/><rect class="cls-21" x="307.9" y="187.86" width="21.46" height="0.66"/><rect class="cls-21" x="231.9" y="198.66" width="21.46" height="0.66"/><rect class="cls-21" x="307.9" y="198.66" width="21.46" height="0.66"/><rect class="cls-21" x="231.9" y="209.46" width="21.46" height="0.66"/><rect class="cls-21" x="307.9" y="209.46" width="21.46" height="0.66"/><rect class="cls-21" x="231.9" y="228.36" width="21.46" height="0.66"/><rect class="cls-21" x="307.9" y="228.36" width="21.46" height="0.66"/><rect class="cls-20" x="236.28" y="178.78" width="12.27" height="1.1"/><rect class="cls-20" x="236.28" y="191.12" width="12.27" height="1.1"/><rect class="cls-20" x="236.28" y="202.14" width="12.27" height="1.1"/><rect class="cls-20" x="236.28" y="213.38" width="12.27" height="1.1"/><rect class="cls-20" x="312.28" y="178.78" width="12.27" height="1.1"/><rect class="cls-20" x="312.28" y="191.12" width="12.27" height="1.1"/><rect class="cls-20" x="312.28" y="202.14" width="12.27" height="1.1"/><rect class="cls-20" x="312.28" y="213.38" width="12.27" height="1.1"/><path class="cls-18" d="M231.46,228.91h22.77a2.09,2.09,0,0,1,2.09,2.09v18.85a0,0,0,0,1,0,0H229.38a0,0,0,0,1,0,0V231A2.09,2.09,0,0,1,231.46,228.91Z"/><path class="cls-18" d="M307.1,229h22.4a2.27,2.27,0,0,1,2.27,2.27v18.66a0,0,0,0,1,0,0H304.83a0,0,0,0,1,0,0V231.29A2.27,2.27,0,0,1,307.1,229Z"/><path class="cls-22" d="M256.37,249.26v-18.2a2.11,2.11,0,0,0-2.09-2.11h-.92V177h-1.51v-.37l-.15.37h-.75v1.93l-19.61,49.93v21.13h25.15Z"/><path class="cls-22" d="M331.67,249.29v-17.8c0-1.14-.79-2.46-1.92-2.46h-.39V178.59h-2.12v-.36l-.14.36h-.74v1.88L307.9,229,307.18,250h24.59Z"/><polygon class="cls-23" points="242.5 166.29 250.91 176.97 253.3 176.98 242.5 166.29"/><polygon class="cls-23" points="318.58 166.29 327 176.97 329.39 176.98 318.58 166.29"/><rect class="cls-18" x="415.23" y="165.41" width="77.02" height="60.61"/><rect class="cls-12" x="415.23" y="165.1" width="75.78" height="16.87"/><rect class="cls-18" x="431.38" y="154.79" width="25.47" height="70.92"/><rect class="cls-18" x="491.01" y="154.79" width="25.47" height="70.92"/><rect class="cls-19" x="397.8" y="96.03" width="10.93" height="5.09"/><rect class="cls-18" x="389.99" y="143.6" width="26.06" height="82.03"/><rect class="cls-19" x="390.18" y="114" width="25.67" height="5.74"/><polygon class="cls-12" points="415.85 114 390.18 114 397.79 100.96 408.68 100.96 415.85 114"/><rect class="cls-24" x="389.54" y="119.74" width="26.96" height="24.26"/><ellipse class="cls-20" cx="403.02" cy="127.82" rx="7.52" ry="7.56"/><path class="cls-12" d="M397.86,96h10.89s-4.51-2.64-5.55-25.34C402.43,93.65,397.86,96,397.86,96Z"/><path class="cls-20" d="M394.23,145.17h.21a.8.8,0,0,1,.8.8v14.85a0,0,0,0,1,0,0h-1.81a0,0,0,0,1,0,0V146A.8.8,0,0,1,394.23,145.17Z"/><rect class="cls-20" x="396.54" y="148.56" width="1.81" height="12.26"/><rect class="cls-20" x="399.65" y="148.56" width="1.81" height="12.26"/><rect class="cls-20" x="404.83" y="148.56" width="1.81" height="12.26"/><rect class="cls-20" x="407.95" y="148.56" width="1.81" height="12.26"/><path class="cls-20" d="M411.86,145.17h.21a.8.8,0,0,1,.8.8v14.85a0,0,0,0,1,0,0h-1.81a0,0,0,0,1,0,0V146A.8.8,0,0,1,411.86,145.17Z"/><path class="cls-20" d="M394.23,163.68h.21a.8.8,0,0,1,.8.8v14.85a0,0,0,0,1,0,0h-1.81a0,0,0,0,1,0,0V164.49a.8.8,0,0,1,.8-.8Z"/><rect class="cls-20" x="396.54" y="167.08" width="1.81" height="12.26"/><rect class="cls-20" x="399.65" y="167.08" width="1.81" height="12.26"/><rect class="cls-20" x="404.83" y="167.08" width="1.81" height="12.26"/><rect class="cls-20" x="407.95" y="167.08" width="1.81" height="12.26"/><path class="cls-20" d="M411.86,163.68h.21a.8.8,0,0,1,.8.8v14.85a0,0,0,0,1,0,0h-1.81a0,0,0,0,1,0,0V164.49a.8.8,0,0,1,.8-.8Z"/><path class="cls-20" d="M394.23,182.2h.21a.8.8,0,0,1,.8.8v14.85a0,0,0,0,1,0,0h-1.81a0,0,0,0,1,0,0V183a.8.8,0,0,1,.8-.8Z"/><rect class="cls-20" x="396.54" y="185.59" width="1.81" height="12.26"/><rect class="cls-20" x="399.65" y="185.59" width="1.81" height="12.26"/><rect class="cls-20" x="404.83" y="185.59" width="1.81" height="12.26"/><rect class="cls-20" x="407.95" y="185.59" width="1.81" height="12.26"/><path class="cls-20" d="M411.86,182.2h.21a.8.8,0,0,1,.8.8v14.85a0,0,0,0,1,0,0h-1.81a0,0,0,0,1,0,0V183A.8.8,0,0,1,411.86,182.2Z"/><path class="cls-20" d="M394.23,200.72h.21a.8.8,0,0,1,.8.8v14.85a0,0,0,0,1,0,0h-1.81a0,0,0,0,1,0,0V201.52a.8.8,0,0,1,.8-.8Z"/><rect class="cls-20" x="396.54" y="204.11" width="1.81" height="12.26"/><rect class="cls-20" x="399.65" y="204.11" width="1.81" height="12.26"/><rect class="cls-20" x="404.83" y="204.11" width="1.81" height="12.26"/><rect class="cls-20" x="407.95" y="204.11" width="1.81" height="12.26"/><path class="cls-20" d="M411.86,200.72h.21a.8.8,0,0,1,.8.8v14.85a0,0,0,0,1,0,0h-1.81a0,0,0,0,1,0,0V201.52a.8.8,0,0,1,.8-.8Z"/><rect class="cls-25" x="390.06" y="143.86" width="25.93" height="1.3"/><rect class="cls-26" x="391.35" y="114.39" width="1.3" height="5.48"/><rect class="cls-26" x="394.46" y="114.39" width="1.3" height="5.48"/><rect class="cls-26" x="397.57" y="114.39" width="1.3" height="5.48"/><rect class="cls-26" x="400.69" y="114.39" width="1.3" height="5.48"/><rect class="cls-26" x="403.8" y="114.39" width="1.3" height="5.48"/><rect class="cls-26" x="406.91" y="114.39" width="1.3" height="5.48"/><rect class="cls-26" x="410.02" y="114.39" width="1.3" height="5.48"/><rect class="cls-26" x="413.13" y="114.39" width="1.3" height="5.48"/><rect class="cls-20" x="398.61" y="96.39" width="0.52" height="3.39"/><rect class="cls-20" x="400.61" y="96.39" width="0.52" height="3.39"/><rect class="cls-20" x="402.16" y="96.39" width="0.52" height="3.39"/><rect class="cls-20" x="404.15" y="96.39" width="0.52" height="3.39"/><rect class="cls-20" x="405.71" y="96.39" width="0.52" height="3.39"/><rect class="cls-20" x="407.27" y="96.39" width="0.52" height="3.39"/><rect class="cls-27" x="402.76" y="120.65" width="0.52" height="7.56" rx="0.23"/><rect class="cls-27" x="402.76" y="127.43" width="4.41" height="0.78" rx="0.39"/><rect class="cls-26" x="390" y="114.2" width="25.41" height="0.44"/><polygon class="cls-23" points="416.14 120.19 415.83 120.19 415.83 113.94 410.55 113.94 410.55 225.79 415.83 225.79 415.83 144.25 416.14 144.25 416.14 120.19"/><path class="cls-23" d="M415.83,113.94l-7.46-12.8V96.45S403.83,91,403.2,70.69l-.42,30.61,7.77,12.64Z"/><path class="cls-18" d="M433.24,149.79h0a1.86,1.86,0,0,1,1.86,1.86v7.82a0,0,0,0,1,0,0h-3.73a0,0,0,0,1,0,0v-7.82A1.86,1.86,0,0,1,433.24,149.79Z"/><path class="cls-18" d="M455,149.79h0a1.86,1.86,0,0,1,1.86,1.86v7.82a0,0,0,0,1,0,0h-3.73a0,0,0,0,1,0,0v-7.82A1.86,1.86,0,0,1,455,149.79Z"/><path class="cls-18" d="M492.87,149.79h0a1.86,1.86,0,0,1,1.86,1.86v7.82a0,0,0,0,1,0,0H491a0,0,0,0,1,0,0v-7.82A1.86,1.86,0,0,1,492.87,149.79Z"/><path class="cls-18" d="M514.61,149.79h0a1.86,1.86,0,0,1,1.86,1.86v7.82a0,0,0,0,1,0,0h-3.73a0,0,0,0,1,0,0v-7.82A1.86,1.86,0,0,1,514.61,149.79Z"/><rect class="cls-12" x="435.11" y="154.79" width="18.01" height="8.44"/><rect class="cls-12" x="494.74" y="154.79" width="18.01" height="8.44"/><path class="cls-20" d="M443.43,170.1h0a4,4,0,0,1,4,4v8.46a0,0,0,0,1,0,0h-8.07a0,0,0,0,1,0,0v-8.46A4,4,0,0,1,443.43,170.1Z"/><path class="cls-20" d="M504.33,170.1h0a4,4,0,0,1,4,4v8.46a0,0,0,0,1,0,0h-8.07a0,0,0,0,1,0,0v-8.46A4,4,0,0,1,504.33,170.1Z"/><rect class="cls-20" x="439.73" y="189.25" width="1.81" height="12.26"/><rect class="cls-20" x="442.52" y="189.25" width="1.81" height="12.26"/><rect class="cls-20" x="445.32" y="189.25" width="1.81" height="12.26"/><rect class="cls-20" x="419.97" y="189.25" width="1.81" height="12.26"/><rect class="cls-20" x="422.77" y="189.25" width="1.81" height="12.26"/><rect class="cls-20" x="425.56" y="189.25" width="1.81" height="12.26"/><rect class="cls-20" x="500.63" y="189.25" width="1.81" height="12.26"/><rect class="cls-20" x="503.42" y="189.25" width="1.81" height="12.26"/><rect class="cls-20" x="506.22" y="189.25" width="1.81" height="12.26"/><rect class="cls-20" x="457.15" y="189.25" width="1.81" height="12.26"/><rect class="cls-20" x="459.95" y="189.25" width="1.81" height="12.26"/><rect class="cls-20" x="485.33" y="189.25" width="1.81" height="12.26"/><rect class="cls-20" x="488.12" y="189.25" width="1.81" height="12.26"/><rect class="cls-20" x="457.15" y="207.37" width="1.81" height="12.26"/><rect class="cls-20" x="459.95" y="207.37" width="1.81" height="12.26"/><rect class="cls-20" x="470.19" y="207.37" width="1.81" height="12.26"/><rect class="cls-20" x="472.99" y="207.37" width="1.81" height="12.26"/><rect class="cls-20" x="475.78" y="207.37" width="1.81" height="12.26"/><rect class="cls-20" x="470.19" y="189.25" width="1.81" height="12.26"/><rect class="cls-20" x="472.99" y="189.25" width="1.81" height="12.26"/><rect class="cls-20" x="475.78" y="189.25" width="1.81" height="12.26"/><rect class="cls-20" x="485.41" y="207.37" width="1.81" height="12.26"/><rect class="cls-20" x="488.21" y="207.37" width="1.81" height="12.26"/><rect class="cls-20" x="439.73" y="207.68" width="1.81" height="12.26"/><rect class="cls-20" x="442.52" y="207.68" width="1.81" height="12.26"/><rect class="cls-20" x="445.32" y="207.68" width="1.81" height="12.26"/><rect class="cls-20" x="420.16" y="207.68" width="1.81" height="12.26"/><rect class="cls-20" x="422.96" y="207.68" width="1.81" height="12.26"/><rect class="cls-20" x="425.75" y="207.68" width="1.81" height="12.26"/><rect class="cls-20" x="500.63" y="207.68" width="1.81" height="12.26"/><rect class="cls-20" x="503.42" y="207.68" width="1.81" height="12.26"/><rect class="cls-20" x="506.22" y="207.68" width="1.81" height="12.26"/><polygon class="cls-23" points="456.83 181.61 456.83 225.71 492.25 225.71 456.83 181.61"/><rect class="cls-23" x="488.83" y="181.97" width="2.17" height="44.67"/><polygon class="cls-23" points="415.54 181.97 431.38 226.02 415.23 226.02 415.54 181.97"/><rect class="cls-23" x="430.45" y="181.97" width="0.93" height="44.05"/><polygon class="cls-8" points="145.35 211.55 145.18 211.61 145.18 211.94 145.97 212.22 145.97 211.83 145.35 211.55"/><polygon class="cls-8" points="146.6 211.55 146.77 211.61 146.77 211.94 145.97 212.22 145.97 211.83 146.6 211.55"/><rect class="cls-28" x="145.35" y="210.67" width="1.26" height="0.97"/><ellipse class="cls-28" cx="145.98" cy="209.29" rx="1.59" ry="1.67"/><rect class="cls-29" x="144.37" y="204.46" width="3.21" height="5.41" rx="1.41"/><path class="cls-8" d="M144.77,206.17a.79.79,0,0,1-1.19-.49,1,1,0,0,1,.72-.06A1,1,0,0,1,144.77,206.17Z"/><path class="cls-29" d="M147.39,208.23v1.35A1.37,1.37,0,0,1,146,211h-.08a1.37,1.37,0,0,1-1.37-1.37v-1.35h2.82m.19-.18h-3.2v1.53a1.55,1.55,0,0,0,1.56,1.55H146a1.55,1.55,0,0,0,1.56-1.55v-1.53Z"/><polygon class="cls-28" points="145.31 211.64 145.97 211.83 146.58 211.64 145.31 211.64"/><polygon class="cls-8" points="145.18 211.93 143.12 212.58 144.27 216.76 144.27 220.06 145.97 220.06 145.97 212.19 145.18 211.93"/><polygon class="cls-8" points="146.77 211.92 148.83 212.56 147.7 216.76 147.7 220.04 145.97 220.04 145.97 212.18 146.77 211.92"/><path class="cls-8" d="M143.12,212.55l-.39.1v6.83h1.07V213S143.12,212.54,143.12,212.55Z"/><path class="cls-8" d="M148.83,212.55l.38.1v6.83h-1.07V213S148.83,212.54,148.83,212.55Z"/><rect class="cls-29" x="142.73" y="219.12" width="1.07" height="0.86"/><rect class="cls-29" x="148.14" y="219.12" width="1.07" height="0.86"/><path class="cls-28" d="M142.73,220h1.07a0,0,0,0,1,0,0v.1a.53.53,0,0,1-.53.53h0a.53.53,0,0,1-.53-.53V220A0,0,0,0,1,142.73,220Z"/><path class="cls-28" d="M148.14,220h1.07a0,0,0,0,1,0,0v.1a.53.53,0,0,1-.53.53h0a.53.53,0,0,1-.53-.53V220A0,0,0,0,1,148.14,220Z"/><polygon class="cls-7" points="147.7 217.52 146.27 217.52 145.94 217.22 145.67 217.52 144.27 217.52 144.27 216.8 145.67 216.8 145.97 217.13 146.27 216.8 147.7 216.8 147.7 217.52"/><rect class="cls-29" x="144.27" y="219.29" width="1.7" height="7.42"/><rect class="cls-29" x="145.97" y="219.29" width="1.73" height="7.42"/><path class="cls-29" d="M144.39,226.1H146a0,0,0,0,1,0,0V227a0,0,0,0,1,0,0h-1.58a.43.43,0,0,1-.43-.43v0A.43.43,0,0,1,144.39,226.1Z"/><path class="cls-29" d="M146.37,226.1h1.58a0,0,0,0,1,0,0V227a0,0,0,0,1,0,0h-1.58a.43.43,0,0,1-.43-.43v0A.43.43,0,0,1,146.37,226.1Z" transform="translate(293.89 453.06) rotate(180)"/><circle class="cls-28" cx="146.19" cy="212.52" r="0.11"/><circle class="cls-28" cx="146.19" cy="212.74" r="0.11"/><circle class="cls-28" cx="146.19" cy="213.66" r="0.11"/><circle class="cls-28" cx="146.19" cy="213.88" r="0.11"/><circle class="cls-28" cx="146.19" cy="214.79" r="0.11"/><circle class="cls-28" cx="146.19" cy="215.01" r="0.11"/><circle class="cls-28" cx="146.19" cy="215.92" r="0.11"/><circle class="cls-28" cx="146.19" cy="216.14" r="0.11"/><rect class="cls-28" x="143.23" y="219.31" width="0.58" height="0.11"/><rect class="cls-28" x="143.23" y="219.48" width="0.58" height="0.11"/><rect class="cls-28" x="143.23" y="219.64" width="0.58" height="0.11"/><rect class="cls-28" x="148.14" y="219.31" width="0.58" height="0.11"/><rect class="cls-28" x="148.14" y="219.48" width="0.58" height="0.11"/><rect class="cls-28" x="148.14" y="219.64" width="0.58" height="0.11"/><circle class="cls-28" cx="145.97" cy="217.16" r="0.3"/><rect class="cls-28" x="145.53" y="216.8" width="0.14" height="0.72"/><rect class="cls-28" x="146.27" y="216.8" width="0.14" height="0.72"/><polygon class="cls-8" points="136.65 211.55 136.48 211.61 136.48 211.94 137.28 212.22 137.28 211.83 136.65 211.55"/><polygon class="cls-8" points="137.9 211.55 138.07 211.61 138.07 211.94 137.28 212.22 137.28 211.83 137.9 211.55"/><rect class="cls-28" x="136.65" y="210.67" width="1.26" height="0.97"/><ellipse class="cls-28" cx="137.28" cy="209.29" rx="1.59" ry="1.67"/><rect class="cls-29" x="135.68" y="204.46" width="3.21" height="5.41" rx="1.41"/><path class="cls-8" d="M136.08,206.17a1,1,0,0,1-.73.06,1,1,0,0,1-.47-.55.8.8,0,0,1,1.2.49Z"/><path class="cls-29" d="M138.7,208.23v1.35a1.38,1.38,0,0,1-1.38,1.37h-.07a1.38,1.38,0,0,1-1.38-1.37v-1.35h2.83m.18-.18h-3.19v1.53a1.55,1.55,0,0,0,1.56,1.55h.07a1.55,1.55,0,0,0,1.56-1.55v-1.53Z"/><polygon class="cls-28" points="136.62 211.64 137.28 211.83 137.88 211.64 136.62 211.64"/><polygon class="cls-8" points="136.48 211.93 134.42 212.58 135.58 216.76 135.58 220.06 137.28 220.06 137.28 212.19 136.48 211.93"/><polygon class="cls-8" points="138.07 211.92 140.13 212.56 139 216.76 139 220.04 137.28 220.04 137.28 212.18 138.07 211.92"/><path class="cls-8" d="M134.42,212.55l-.38.1v6.83h1.07V213S134.42,212.54,134.42,212.55Z"/><path class="cls-8" d="M140.13,212.55l.38.1v6.83h-1.07V213S140.13,212.54,140.13,212.55Z"/><rect class="cls-29" x="134.04" y="219.12" width="1.07" height="0.86"/><rect class="cls-29" x="139.44" y="219.12" width="1.07" height="0.86"/><path class="cls-28" d="M134,220h1.07a0,0,0,0,1,0,0v.1a.53.53,0,0,1-.53.53h0a.53.53,0,0,1-.53-.53V220A0,0,0,0,1,134,220Z"/><path class="cls-28" d="M139.44,220h1.07a0,0,0,0,1,0,0v.1a.53.53,0,0,1-.53.53h0a.53.53,0,0,1-.53-.53V220A0,0,0,0,1,139.44,220Z"/><polygon class="cls-7" points="139 217.52 137.58 217.52 137.25 217.22 136.97 217.52 135.58 217.52 135.58 216.8 136.97 216.8 137.28 217.13 137.58 216.8 139 216.8 139 217.52"/><rect class="cls-29" x="135.58" y="219.29" width="1.7" height="7.42"/><rect class="cls-29" x="137.28" y="219.29" width="1.73" height="7.42"/><path class="cls-29" d="M135.7,226.1h1.58a0,0,0,0,1,0,0V227a0,0,0,0,1,0,0H135.7a.43.43,0,0,1-.43-.43v0A.43.43,0,0,1,135.7,226.1Z"/><path class="cls-29" d="M137.67,226.1h1.58a0,0,0,0,1,0,0V227a0,0,0,0,1,0,0h-1.58a.43.43,0,0,1-.43-.43v0A.43.43,0,0,1,137.67,226.1Z" transform="translate(276.5 453.06) rotate(180)"/><circle class="cls-28" cx="137.5" cy="212.52" r="0.11"/><circle class="cls-28" cx="137.5" cy="212.74" r="0.11"/><circle class="cls-28" cx="137.5" cy="213.66" r="0.11"/><circle class="cls-28" cx="137.5" cy="213.88" r="0.11"/><circle class="cls-28" cx="137.5" cy="214.79" r="0.11"/><circle class="cls-28" cx="137.5" cy="215.01" r="0.11"/><circle class="cls-28" cx="137.5" cy="215.92" r="0.11"/><circle class="cls-28" cx="137.5" cy="216.14" r="0.11"/><rect class="cls-28" x="134.53" y="219.31" width="0.58" height="0.11"/><rect class="cls-28" x="134.53" y="219.48" width="0.58" height="0.11"/><rect class="cls-28" x="134.53" y="219.64" width="0.58" height="0.11"/><rect class="cls-28" x="139.44" y="219.31" width="0.58" height="0.11"/><rect class="cls-28" x="139.44" y="219.48" width="0.58" height="0.11"/><rect class="cls-28" x="139.44" y="219.64" width="0.58" height="0.11"/><circle class="cls-28" cx="137.27" cy="217.16" r="0.3"/><rect class="cls-28" x="136.84" y="216.8" width="0.14" height="0.72"/><rect class="cls-28" x="137.58" y="216.8" width="0.14" height="0.72"/><polygon class="cls-8" points="520.82 211.55 520.65 211.61 520.65 211.94 521.44 212.22 521.44 211.83 520.82 211.55"/><polygon class="cls-8" points="522.07 211.55 522.24 211.61 522.24 211.94 521.44 212.22 521.44 211.83 522.07 211.55"/><rect class="cls-28" x="520.82" y="210.67" width="1.26" height="0.97"/><ellipse class="cls-28" cx="521.45" cy="209.29" rx="1.59" ry="1.67"/><rect class="cls-29" x="519.85" y="204.46" width="3.21" height="5.41" rx="1.41"/><path class="cls-8" d="M520.24,206.17a.79.79,0,0,1-1.19-.49,1,1,0,0,1,.72-.06A1,1,0,0,1,520.24,206.17Z"/><path class="cls-29" d="M522.86,208.23v1.35a1.37,1.37,0,0,1-1.37,1.37h-.08a1.37,1.37,0,0,1-1.37-1.37v-1.35h2.82m.19-.18h-3.2v1.53a1.55,1.55,0,0,0,1.56,1.55h.08a1.55,1.55,0,0,0,1.56-1.55v-1.53Z"/><polygon class="cls-28" points="520.78 211.64 521.44 211.83 522.05 211.64 520.78 211.64"/><polygon class="cls-8" points="520.65 211.93 518.59 212.58 519.74 216.76 519.74 220.06 521.44 220.06 521.44 212.19 520.65 211.93"/><polygon class="cls-8" points="522.24 211.92 524.3 212.56 523.17 216.76 523.17 220.04 521.44 220.04 521.44 212.18 522.24 211.92"/><path class="cls-8" d="M518.59,212.55l-.38.1v6.83h1.07V213S518.59,212.54,518.59,212.55Z"/><path class="cls-8" d="M524.3,212.55l.38.1v6.83h-1.07V213S524.3,212.54,524.3,212.55Z"/><rect class="cls-29" x="518.21" y="219.12" width="1.07" height="0.86"/><rect class="cls-29" x="523.61" y="219.12" width="1.07" height="0.86"/><path class="cls-28" d="M518.21,220h1.07a0,0,0,0,1,0,0v.1a.53.53,0,0,1-.53.53h0a.53.53,0,0,1-.53-.53V220A0,0,0,0,1,518.21,220Z"/><path class="cls-28" d="M523.61,220h1.07a0,0,0,0,1,0,0v.1a.53.53,0,0,1-.53.53h0a.53.53,0,0,1-.53-.53V220A0,0,0,0,1,523.61,220Z"/><polygon class="cls-7" points="523.17 217.52 521.75 217.52 521.42 217.22 521.14 217.52 519.74 217.52 519.74 216.8 521.14 216.8 521.44 217.13 521.75 216.8 523.17 216.8 523.17 217.52"/><rect class="cls-29" x="519.74" y="219.29" width="1.7" height="7.42"/><rect class="cls-29" x="521.44" y="219.29" width="1.73" height="7.42"/><path class="cls-29" d="M519.87,226.1h1.58a0,0,0,0,1,0,0V227a0,0,0,0,1,0,0h-1.58a.43.43,0,0,1-.43-.43v0a.43.43,0,0,1,.43-.43Z"/><path class="cls-29" d="M521.84,226.1h1.58a0,0,0,0,1,0,0V227a0,0,0,0,1,0,0h-1.58a.43.43,0,0,1-.43-.43v0A.43.43,0,0,1,521.84,226.1Z" transform="translate(1044.84 453.06) rotate(180)"/><circle class="cls-28" cx="521.66" cy="212.52" r="0.11"/><circle class="cls-28" cx="521.66" cy="212.74" r="0.11"/><circle class="cls-28" cx="521.66" cy="213.66" r="0.11"/><circle class="cls-28" cx="521.66" cy="213.88" r="0.11"/><circle class="cls-28" cx="521.66" cy="214.79" r="0.11"/><circle class="cls-28" cx="521.66" cy="215.01" r="0.11"/><circle class="cls-28" cx="521.66" cy="215.92" r="0.11"/><circle class="cls-28" cx="521.66" cy="216.14" r="0.11"/><rect class="cls-28" x="518.7" y="219.31" width="0.58" height="0.11"/><rect class="cls-28" x="518.7" y="219.48" width="0.58" height="0.11"/><rect class="cls-28" x="518.7" y="219.64" width="0.58" height="0.11"/><rect class="cls-28" x="523.61" y="219.31" width="0.58" height="0.11"/><rect class="cls-28" x="523.61" y="219.48" width="0.58" height="0.11"/><rect class="cls-28" x="523.61" y="219.64" width="0.58" height="0.11"/><circle class="cls-28" cx="521.44" cy="217.16" r="0.3"/><rect class="cls-28" x="521" y="216.8" width="0.14" height="0.72"/><rect class="cls-28" x="521.75" y="216.8" width="0.14" height="0.72"/><polygon class="cls-8" points="530.13 211.55 529.97 211.61 529.97 211.94 530.76 212.22 530.76 211.83 530.13 211.55"/><polygon class="cls-8" points="531.39 211.55 531.56 211.61 531.56 211.94 530.76 212.22 530.76 211.83 531.39 211.55"/><rect class="cls-28" x="530.14" y="210.67" width="1.26" height="0.97"/><ellipse class="cls-28" cx="530.77" cy="209.29" rx="1.59" ry="1.67"/><rect class="cls-29" x="529.16" y="204.46" width="3.21" height="5.41" rx="1.41"/><path class="cls-8" d="M529.56,206.17a.79.79,0,0,1-1.19-.49,1,1,0,0,1,.72-.06A1,1,0,0,1,529.56,206.17Z"/><path class="cls-29" d="M532.18,208.23v1.35a1.38,1.38,0,0,1-1.37,1.37h-.08a1.38,1.38,0,0,1-1.38-1.37v-1.35h2.83m.18-.18h-3.19v1.53a1.55,1.55,0,0,0,1.56,1.55h.08a1.55,1.55,0,0,0,1.55-1.55v-1.53Z"/><polygon class="cls-28" points="530.1 211.64 530.76 211.83 531.36 211.64 530.1 211.64"/><polygon class="cls-8" points="529.97 211.93 527.91 212.58 529.06 216.76 529.06 220.06 530.76 220.06 530.76 212.19 529.97 211.93"/><polygon class="cls-8" points="531.56 211.92 533.61 212.56 532.49 216.76 532.49 220.04 530.76 220.04 530.76 212.18 531.56 211.92"/><path class="cls-8" d="M527.91,212.55l-.39.1v6.83h1.07V213S527.91,212.54,527.91,212.55Z"/><path class="cls-8" d="M533.61,212.55l.39.1v6.83h-1.07V213S533.61,212.54,533.61,212.55Z"/><rect class="cls-29" x="527.52" y="219.12" width="1.07" height="0.86"/><rect class="cls-29" x="532.93" y="219.12" width="1.07" height="0.86"/><path class="cls-28" d="M527.52,220h1.07a0,0,0,0,1,0,0v.1a.53.53,0,0,1-.53.53h0a.53.53,0,0,1-.53-.53V220A0,0,0,0,1,527.52,220Z"/><path class="cls-28" d="M532.93,220H534a0,0,0,0,1,0,0v.1a.53.53,0,0,1-.53.53h0a.53.53,0,0,1-.53-.53V220a0,0,0,0,1,0,0Z"/><polygon class="cls-7" points="532.49 217.52 531.06 217.52 530.73 217.22 530.46 217.52 529.06 217.52 529.06 216.8 530.46 216.8 530.76 217.13 531.06 216.8 532.49 216.8 532.49 217.52"/><rect class="cls-29" x="529.06" y="219.29" width="1.7" height="7.42"/><rect class="cls-29" x="530.76" y="219.29" width="1.73" height="7.42"/><path class="cls-29" d="M529.18,226.1h1.58a0,0,0,0,1,0,0V227a0,0,0,0,1,0,0h-1.58a.43.43,0,0,1-.43-.43v0a.43.43,0,0,1,.43-.43Z"/><path class="cls-29" d="M531.16,226.1h1.58a0,0,0,0,1,0,0V227a0,0,0,0,1,0,0h-1.58a.43.43,0,0,1-.43-.43v0A.43.43,0,0,1,531.16,226.1Z" transform="translate(1063.47 453.06) rotate(180)"/><circle class="cls-28" cx="530.98" cy="212.52" r="0.11"/><circle class="cls-28" cx="530.98" cy="212.74" r="0.11"/><circle class="cls-28" cx="530.98" cy="213.66" r="0.11"/><circle class="cls-28" cx="530.98" cy="213.88" r="0.11"/><circle class="cls-28" cx="530.98" cy="214.79" r="0.11"/><circle class="cls-28" cx="530.98" cy="215.01" r="0.11"/><circle class="cls-28" cx="530.98" cy="215.92" r="0.11"/><circle class="cls-28" cx="530.98" cy="216.14" r="0.11"/><rect class="cls-28" x="528.02" y="219.31" width="0.58" height="0.11"/><rect class="cls-28" x="528.02" y="219.48" width="0.58" height="0.11"/><rect class="cls-28" x="528.02" y="219.64" width="0.58" height="0.11"/><rect class="cls-28" x="532.93" y="219.31" width="0.58" height="0.11"/><rect class="cls-28" x="532.93" y="219.48" width="0.58" height="0.11"/><rect class="cls-28" x="532.93" y="219.64" width="0.58" height="0.11"/><circle class="cls-28" cx="530.75" cy="217.16" r="0.3"/><rect class="cls-28" x="530.32" y="216.8" width="0.14" height="0.72"/><rect class="cls-28" x="531.06" y="216.8" width="0.14" height="0.72"/></g></g></g></svg>