<svg id="Layer_1" data-name="Layer 1" xmlns="http://www.w3.org/2000/svg" viewBox="0 0 220.61 37.24"><defs><style>.cls-1{fill:#9797c6;}</style></defs><title>river-02</title><path class="cls-1" d="M340.21,132.22H311c0-.21,0-.41,0-.62,0-4.46-4.75-8.07-10.62-8.07H140.25c-5.87,0-10.62,3.61-10.62,8.07s4.75,8.07,10.62,8.07h48.22c0,.05,0,.11,0,.17v.9a6.25,6.25,0,0,0,1.42,3.89H162.27c-4.49,0-8.13,2.77-8.13,6.18v3.78c0,3.41,3.64,6.18,8.13,6.18h90c4.48,0,8.12-2.77,8.12-6.18v-3.78a4.87,4.87,0,0,0-.67-2.45h80.52c5.54,0,10-3.42,10-7.62v-.9C350.24,135.63,345.75,132.22,340.21,132.22Z" transform="translate(-129.63 -123.53)"/></svg>