<svg xmlns="http://www.w3.org/2000/svg" viewBox="0 0 121.63 322.08"><defs><style>.cls-1{isolation:isolate;}.cls-2{fill:#f04b51;}.cls-3{fill:#f9ce96;}.cls-4{fill:#010101;}.cls-5{fill:#f8dabc;}.cls-6{fill:#ccc;opacity:0.5;mix-blend-mode:multiply;}</style></defs><title>soldier</title><g class="cls-1"><g id="Layer_1" data-name="Layer 1"><polygon class="cls-2" points="52.47 98.07 50.11 99 50.11 103.59 61.2 107.39 61.2 102.04 52.47 98.07"/><polygon class="cls-2" points="69.93 98.07 72.28 99 72.28 103.59 61.2 107.39 61.2 102.04 69.93 98.07"/><rect class="cls-3" x="52.5" y="86" width="17.58" height="13.38"/><ellipse class="cls-3" cx="61.29" cy="66.89" rx="22.17" ry="23.15"/><rect class="cls-4" x="38.93" width="44.72" height="74.92" rx="7.05"/><path class="cls-2" d="M306.32,213.12s-5.46,2.72-10.05.83-6.58-7.65-6.58-7.65,5.47-2.72,10.06-.83S306.32,213.12,306.32,213.12Z" transform="translate(-261.84 -189.45)"/><path class="cls-4" d="M342.82,241.63v30.75a6.9,6.9,0,0,1-6.9,6.9H310.35a6.9,6.9,0,0,1-6.9-6.9V241.63h39.37m2.56-2.56H300.9v33.31a9.46,9.46,0,0,0,9.45,9.45h25.57a9.46,9.46,0,0,0,9.46-9.45V239.07Z" transform="translate(-261.84 -189.45)"/><polygon class="cls-3" points="52.02 99.37 61.2 102.04 69.61 99.37 52.02 99.37"/><polygon class="cls-2" points="50.11 103.38 21.45 112.35 37.5 170.25 37.5 215.96 61.2 215.96 61.2 106.97 50.11 103.38"/><polygon class="cls-2" points="72.28 103.2 100.95 112.17 85.28 170.25 85.28 215.78 61.2 215.78 61.2 106.79 72.28 103.2"/><path class="cls-2" d="M283.29,301.45l-5.35,1.32v94.62h14.91V307.07S283.29,301.28,283.29,301.45Z" transform="translate(-261.84 -189.45)"/><path class="cls-2" d="M362.79,301.45l5.36,1.32v94.62H353.24V307.07S362.79,301.28,362.79,301.45Z" transform="translate(-261.84 -189.45)"/><rect class="cls-4" x="16.09" y="202.97" width="14.91" height="11.85"/><rect class="cls-4" x="91.39" y="202.97" width="14.91" height="11.85"/><path class="cls-3" d="M16.09,214.82H31a0,0,0,0,1,0,0v6.11a2.68,2.68,0,0,1-2.68,2.68H18.78a2.68,2.68,0,0,1-2.68-2.68v-6.11A0,0,0,0,1,16.09,214.82Z"/><path class="cls-3" d="M91.39,214.82H106.3a0,0,0,0,1,0,0v6.11a2.68,2.68,0,0,1-2.68,2.68H94.08a2.68,2.68,0,0,1-2.68-2.68v-6.11A0,0,0,0,1,91.39,214.82Z"/><polygon class="cls-5" points="85.28 180.8 65.4 180.8 60.81 176.59 56.99 180.8 37.5 180.8 37.5 170.86 56.99 170.86 61.2 175.45 65.4 170.86 85.28 170.86 85.28 180.8"/><line class="cls-5" x1="61.2" y1="107.03" x2="61.2" y2="174.98"/><rect class="cls-4" x="37.5" y="205.26" width="23.7" height="102.82"/><rect class="cls-4" x="61.2" y="205.26" width="24.08" height="102.82"/><path class="cls-4" d="M35.43,299.67H61.2a0,0,0,0,1,0,0v11.85a0,0,0,0,1,0,0H35.43a2.13,2.13,0,0,1-2.13-2.13v-7.58A2.13,2.13,0,0,1,35.43,299.67Z"/><path class="cls-4" d="M324.79,489.12h25.77a0,0,0,0,1,0,0V501a0,0,0,0,1,0,0H324.79a2.13,2.13,0,0,1-2.13-2.13v-7.58A2.13,2.13,0,0,1,324.79,489.12Z" transform="translate(411.38 800.65) rotate(180)"/><circle class="cls-3" cx="64.26" cy="111.61" r="1.53"/><circle class="cls-3" cx="64.26" cy="114.67" r="1.53"/><circle class="cls-3" cx="64.26" cy="127.29" r="1.53"/><circle class="cls-3" cx="64.26" cy="130.34" r="1.53"/><circle class="cls-3" cx="64.26" cy="142.96" r="1.53"/><circle class="cls-3" cx="64.26" cy="146.01" r="1.53"/><circle class="cls-3" cx="64.26" cy="158.63" r="1.53"/><circle class="cls-3" cx="64.26" cy="161.69" r="1.53"/><rect class="cls-3" x="22.97" y="205.64" width="8.03" height="1.53"/><rect class="cls-3" x="22.97" y="207.94" width="8.03" height="1.53"/><rect class="cls-3" x="22.97" y="210.23" width="8.03" height="1.53"/><rect class="cls-3" x="91.39" y="205.64" width="8.03" height="1.53"/><rect class="cls-3" x="91.39" y="207.94" width="8.03" height="1.53"/><rect class="cls-3" x="91.39" y="210.23" width="8.03" height="1.53"/><circle class="cls-3" cx="61.1" cy="175.83" r="4.2"/><rect class="cls-3" x="55.08" y="170.86" width="1.91" height="9.94"/><rect class="cls-3" x="65.4" y="170.86" width="1.91" height="9.94"/><ellipse class="cls-6" cx="60.82" cy="311.52" rx="60.82" ry="10.55"/></g></g></svg>