<svg id="Layer_1" data-name="Layer 1" xmlns="http://www.w3.org/2000/svg" viewBox="0 0 97.24 96.42"><defs><style>.cls-1,.cls-3{fill:none;stroke:#fff3e5;stroke-miterlimit:10;}.cls-1{stroke-width:0.76px;}.cls-2{fill:#6498a7;}.cls-3{stroke-width:0.38px;}</style></defs><title>swing-02</title><ellipse class="cls-1" cx="48.62" cy="48.21" rx="43.26" ry="43.52"/><ellipse class="cls-1" cx="48.55" cy="48.15" rx="39.98" ry="40.22"/><ellipse class="cls-1" cx="48.55" cy="48.15" rx="36.32" ry="36.54"/><ellipse class="cls-2" cx="2.71" cy="48.15" rx="2.71" ry="2.28"/><ellipse class="cls-2" cx="220.45" cy="219.72" rx="2.72" ry="2.28" transform="translate(-293.1 -4.34) rotate(-30.85)"/><ellipse class="cls-2" cx="237.23" cy="236.64" rx="2.72" ry="2.28" transform="translate(-299.4 6.66) rotate(-30.85)"/><ellipse class="cls-2" cx="48.55" cy="94.14" rx="2.71" ry="2.28"/><ellipse class="cls-2" cx="283.13" cy="236.71" rx="2.28" ry="2.71" transform="translate(-182.88 355.58) rotate(-86.32)"/><ellipse class="cls-2" cx="88.34" cy="71.35" rx="2.71" ry="2.28"/><ellipse class="cls-2" cx="94.52" cy="48.27" rx="2.71" ry="2.28"/><ellipse class="cls-2" cx="88.41" cy="25.17" rx="2.71" ry="2.28"/><ellipse class="cls-2" cx="283.24" cy="156.72" rx="2.71" ry="2.28" transform="translate(-223.49 -124.76) rotate(-4.69)"/><ellipse class="cls-2" cx="48.68" cy="2.28" rx="2.71" ry="2.28"/><ellipse class="cls-2" cx="237.34" cy="156.91" rx="2.28" ry="2.71" transform="translate(-164.68 219.85) rotate(-81.46)"/><ellipse class="cls-2" cx="220.51" cy="173.54" rx="2.28" ry="2.71" transform="translate(-184.37 228.51) rotate(-84.67)"/><polyline class="cls-3" points="48.55 11.61 48.55 48.15 30.16 16.85"/><polyline class="cls-3" points="12.23 48.15 48.55 48.15 16.58 30.37"/><polyline class="cls-3" points="17.07 66.72 48.55 48.15 30.9 80.14"/><polyline class="cls-3" points="48.55 84.68 48.55 48.15 68.07 78.77"/><polyline class="cls-3" points="80.42 65.6 48.55 48.15 84.88 48.15"/><polyline class="cls-3" points="79.67 29.58 48.55 48.15 66.96 16.67"/></svg>