<svg id="Layer_1" data-name="Layer 1" xmlns="http://www.w3.org/2000/svg" viewBox="0 0 235.85 274.21"><defs><style>.cls-1{fill:none;}.cls-2,.cls-3{fill:#fff;}.cls-2{opacity:0.62;}.cls-4{fill:#ee4038;}.cls-5{fill:#6164ad;}.cls-6{fill:#6f5447;}.cls-7{fill:#f9ce96;}</style></defs><title>thai-02</title><path class="cls-1" d="M587.8,392.88c-2.33-2.49-9.11-15-14-25.1a153.17,153.17,0,0,0-12.64-20.58h-.07l3.33,7.68-3.61,1.57-4.36-10c-2.18-.5-4.52-1.09-5.94-1.33-2.7-.44-3.34-.87-5.28-4.3s-.38-2.84-.65-3.73.7-4.87.78-5.52-.88-2.15-1.07-3.45,2.27-2.7,2.36-3.58S529.7,316,528.46,314.34s-.2-3,2.58-3.1c1.93-.06,7.84,2.34,11.92,4.16l-26.31-60.53-85.31,37.76-23.78-53.72L493.23,201l-.16-.37,3.62-1.57,51.6,118.74c3.42,1.16,10.52,2.94,13.67,4.68,3.77,2.07,4.08,3.26,7.1,8.31s14.94,24,17.28,28c.91,1.55,4.68,6.14,8.94,11.17V166.66H359.43V440.87H595.28v-39C593.62,399.77,589.63,394.83,587.8,392.88ZM423.48,204.43a6.77,6.77,0,1,1,6.22,7.27A6.77,6.77,0,0,1,423.48,204.43Zm-16.3,95.08a4.37,4.37,0,1,1,4.7-4A4.38,4.38,0,0,1,407.18,299.51Zm97.41-4.93a3.24,3.24,0,1,1,3.48-3A3.24,3.24,0,0,1,504.59,294.58Z" transform="translate(-359.43 -166.66)"/><circle class="cls-2" cx="407.53" cy="295.15" r="4.37" transform="translate(-453.46 168.84) rotate(-40.51)"/><path class="cls-2" d="M505.1,288.13a3.24,3.24,0,1,0,3,3.48A3.24,3.24,0,0,0,505.1,288.13Z" transform="translate(-359.43 -166.66)"/><path class="cls-2" d="M429.7,211.7a6.77,6.77,0,1,0-6.22-7.27A6.77,6.77,0,0,0,429.7,211.7Z" transform="translate(-359.43 -166.66)"/><polygon class="cls-3" points="152.55 77.46 148.82 68.87 63.38 106.69 56.66 91.53 142.21 53.67 138.48 45.08 52.88 82.97 48.13 72.25 71.91 125.97 67.16 115.25 152.55 77.46"/><polygon class="cls-4" points="138.48 45.08 133.81 34.33 48.13 72.25 52.88 82.97 138.48 45.08"/><polygon class="cls-4" points="67.16 115.25 71.91 125.97 157.23 88.21 152.55 77.46 67.16 115.25"/><polygon class="cls-5" points="63.38 106.69 148.82 68.87 142.21 53.67 56.66 91.53 63.38 106.69"/><path class="cls-6" d="M548.29,317.79l-51.6-118.74-3.62,1.57.16.37,4.68,10.75,3.73,8.59,6.61,15.2,3.73,8.59,4.67,10.75L543,315.4c1.76.79,3.18,1.47,3.79,1.79A11.59,11.59,0,0,0,548.29,317.79Z" transform="translate(-359.43 -166.66)"/><path class="cls-6" d="M560.79,356.44l3.61-1.57-3.33-7.68a25.1,25.1,0,0,1-4.64-.79Z" transform="translate(-359.43 -166.66)"/><path class="cls-7" d="M569.06,330.78c-3-5-3.33-6.24-7.1-8.31-3.15-1.74-10.25-3.52-13.67-4.68a11.59,11.59,0,0,1-1.54-.6c-.61-.32-2-1-3.79-1.79-4.08-1.82-10-4.22-11.92-4.16-2.78.09-3.82,1.41-2.58,3.1s18.26,9.27,18.17,10.15-2.55,2.28-2.36,3.58,1.15,2.81,1.07,3.45-1,4.63-.78,5.52-1.3.31.65,3.73,2.58,3.86,5.28,4.3c1.42.24,3.76.83,5.94,1.33a25.1,25.1,0,0,0,4.64.79h.07a153.17,153.17,0,0,1,12.64,20.58c4.91,10.12,11.69,22.61,14,25.1,1.83,1.95,5.82,6.89,7.48,8.95v-31.9c-4.26-5-8-9.62-8.94-11.17C584,354.79,572.07,335.83,569.06,330.78Z" transform="translate(-359.43 -166.66)"/></svg>