<svg id="Layer_1" data-name="Layer 1" xmlns="http://www.w3.org/2000/svg" viewBox="0 0 281.12 257.08"><defs><style>.cls-1,.cls-2{fill:#fff;}.cls-1{opacity:0.62;}.cls-3{fill:#ee4038;}.cls-4{fill:#6164ad;}.cls-5{fill:#6f5447;}.cls-6{fill:#f9ce96;}</style></defs><title>thai</title><circle class="cls-1" cx="275.37" cy="135.28" r="5.75"/><circle class="cls-1" cx="148.06" cy="120.29" r="4.26"/><circle class="cls-1" cx="254.87" cy="14.6" r="8.91"/><rect class="cls-2" x="295.2" y="123.12" width="77.33" height="123.64" transform="translate(-112.98 272.09) rotate(-61.64)"/><rect class="cls-3" x="340.85" y="95.89" width="15.43" height="123.64" transform="translate(-81.3 270.73) rotate(-61.64)"/><rect class="cls-3" x="311.45" y="150.36" width="15.43" height="123.64" transform="translate(-144.67 273.45) rotate(-61.64)"/><rect class="cls-4" x="272.05" y="174.03" width="123.64" height="21.82" transform="translate(2.41 -255.2) rotate(28.36)"/><rect class="cls-5" x="241.03" y="106.95" width="5.18" height="223.62" transform="translate(230.65 407.45) rotate(-152.02)"/><path class="cls-6" d="M126,353.48s30.2-29.37,33.69-34.34,21.08-28.62,25.56-34.94,5-7.84,10.16-10.17,17.73-4.17,20.5-5.36,17.61-6.58,21.24-6.18,4.87,2.23,3.06,4.33-24.91,10.28-24.89,11.45,3.12,3.24,2.73,4.93-1.79,3.57-1.75,4.42.88,6.18.44,7.32,1.69.54-1.22,4.83-3.79,4.8-7.37,5.11-11.58,2-14.21,1.68c0,0-11.21,12.92-18.7,25.7s-17.66,28.47-21,31.5-11.8,12.12-11.8,12.12S122.1,357.31,126,353.48Z" transform="translate(-125.51 -118.8)"/></svg>