<svg id="Layer_1" data-name="Layer 1" xmlns="http://www.w3.org/2000/svg" viewBox="0 0 284.39 506.84"><defs><style>.cls-1{fill:#de4752;opacity:0.4;}</style></defs><title>thailand</title><path class="cls-1" d="M219.61,509.7a10,10,0,0,1-6.22-2.17,32.08,32.08,0,0,1-3.35-3.15A16.82,16.82,0,0,0,208.6,503a9.93,9.93,0,0,1-3.55-3.59l-.39-.69a10,10,0,0,1,.27-10.46,12.67,12.67,0,0,1-4.64-6.36l-1-.22c-1-.22-2-.45-3.13-.75a11.94,11.94,0,0,1-6.9,2.18c-.34,0-.68,0-1-.05a12.18,12.18,0,0,1-6.59-2.62,11.2,11.2,0,0,1-5.42,1.41,11.39,11.39,0,0,1-8-3.26,9.86,9.86,0,0,1-2-2.65l-.18-.33c-1.12-2.13-4.31-8.14-.88-14.6a19.38,19.38,0,0,1-.28-5.37v-.05c-.15-.24-.3-.48-.43-.72a7,7,0,0,0-1.33-1.58A9.31,9.31,0,0,1,162,452l-2.37-2.88a10.41,10.41,0,0,1-.68-.92,22.82,22.82,0,0,0-1.35-1.93h0a12.7,12.7,0,0,1-8.38-3.3,10.41,10.41,0,0,1-1.65-1.8,11.85,11.85,0,0,1-2.91-4,10,10,0,0,1-3.61.67h-.45a10,10,0,0,1-4.94,2.51,12.37,12.37,0,0,1-2.34.23,11.65,11.65,0,0,1-10.22-6.11,14.91,14.91,0,0,1-1.69-17.59l.15-.33a9.27,9.27,0,0,1-.45-1.87,9.67,9.67,0,0,1-.29-1.18l-.1-.57a9.85,9.85,0,0,1-.44-1.78,9.51,9.51,0,0,1-.36-1.49l-.13-.84a18.29,18.29,0,0,1,.65-9.89l.09-.25a10,10,0,0,1,.39-2.66l1.5-5.28c0-.15.19-.6.19-.6a42.57,42.57,0,0,0,2.13-8,244.45,244.45,0,0,1,.92-3.67l.08-.46a10,10,0,0,1,.58-2,27.46,27.46,0,0,1,1.37-4.63c.17-.47.4-1.09.47-1.37a10.71,10.71,0,0,1,.14-1.12,31.9,31.9,0,0,1,1.21-4.41,16.7,16.7,0,0,0,.51-1.71,10,10,0,0,1,.38-2.61,70.37,70.37,0,0,1,1.89-4.45,22.79,22.79,0,0,0,2.12-5.5,9.82,9.82,0,0,1,1.25-3.05,16.49,16.49,0,0,1,1.07-2.74,9.5,9.5,0,0,1,.5-.88,16.71,16.71,0,0,0-.32-2.51,10,10,0,0,1,1.32-7l.63-1a10.17,10.17,0,0,1,1.94-2.3l.18-.18a9.35,9.35,0,0,1,1.33-1.18,4.31,4.31,0,0,0,1-.95,10.13,10.13,0,0,1,2.48-2.66,7.54,7.54,0,0,0,1.6-1.59,10.4,10.4,0,0,1,2.28-2.26,4.17,4.17,0,0,0,1.08-1,10.16,10.16,0,0,1,1.35-1.58l.11-.14.11-.19c0-.12.11-.24.17-.36a59.72,59.72,0,0,0,2.14-4.63,26.83,26.83,0,0,0,2.67-6,10.84,10.84,0,0,1,.57-1.36,19.81,19.81,0,0,1,4-5.28,65.8,65.8,0,0,0-2.66-7.59,10.44,10.44,0,0,1-.43-1.18l-.44-1.45a10.22,10.22,0,0,1-.75-2.35l-.08-.41a10.48,10.48,0,0,1-.88-2.56,10.2,10.2,0,0,1-.27-2.06s0-.53-.07-.72A20.17,20.17,0,0,1,150.14,270c-.09-.36-.17-.72-.23-1.08l-.25-1.63c0-.29-.07-.58-.09-.86a9.94,9.94,0,0,1-.35-1.79h0a9.82,9.82,0,0,1-.27-1.31l-.1-.7a8.11,8.11,0,0,1-.09-1l0-.23a13.35,13.35,0,0,1,.86-7.43c-.1-.49-.22-1.05-.31-1.68-.05-.32-.08-.65-.1-1l-.09-1.75-.08-.63a8.87,8.87,0,0,1-.08-1.36c0-2.24-.52-3.26-1.38-4.18a42.9,42.9,0,0,1-4-5.1c-.53-.77-1-1.49-1.49-2.09s-1-1.37-1.54-2.07a15.88,15.88,0,0,0-2.14-2.63l-.71-.53a27.11,27.11,0,0,1-8.06-8.41c-.09-.16-.18-.32-.26-.49a21.5,21.5,0,0,0-3-4.9,10.24,10.24,0,0,1-2.24-4l-.34-.57a17.77,17.77,0,0,1-2.89-8.36,23.88,23.88,0,0,0-.45-2.51,29.34,29.34,0,0,1-.78-9.14,10,10,0,0,1,4-7.06l.5-.37c.12-.08.24-.16.35-.25.45-.37,1-.93,1.63-1.52a36.87,36.87,0,0,1,4.37-3.78c0-.75,0-1.54,0-2.39,0-1.25,0-2.56,0-3.94l.11-3a10,10,0,0,1,.3-2,15.28,15.28,0,0,1,1.21-6.91,9.83,9.83,0,0,1,1.69-2.61c-1.12-2.35-2.36-4.71-3.64-7.16l-1.21-2.32a12.85,12.85,0,0,1-1.57-6.95,10.36,10.36,0,0,1-1-.91l-.51-.55a9.93,9.93,0,0,1-1.06-1.36,9.8,9.8,0,0,1-.78-1.16c-.26-.27-.56-.6-.88-1-.12-.13-.22-.27-.33-.41l-.39-.54a10.07,10.07,0,0,1-1.08-1.84,18.78,18.78,0,0,0-2.39-3.22,9.77,9.77,0,0,1-1.19-1.6,9.51,9.51,0,0,1-.71-1c-3.4-5.17-6.64-9.68-9.9-13.78a9.37,9.37,0,0,1-.7-1c-.11-.18-.25-.36-.37-.54a17.4,17.4,0,0,1-2.89-5.67,11.83,11.83,0,0,1,.12-6.51,12.48,12.48,0,0,1-5.31-6.53c-.37-1-.77-1.89-1.18-2.82l-.61-1.44a9.56,9.56,0,0,1-.55-1.72,12.51,12.51,0,0,1,3.62-11.89,20.86,20.86,0,0,1,2.23-2A10.05,10.05,0,0,1,105,71.63l.05,0a57.85,57.85,0,0,1-.8-6.2,10.1,10.1,0,0,1,.67-4.34,11.09,11.09,0,0,1,.67-1.5l.38-.68a9.07,9.07,0,0,1,.56-1.18l.76-1.38c.17-.3.4-.71.51-.93a10,10,0,0,1,1-2.5,103.81,103.81,0,0,0,6-12.42,9.7,9.7,0,0,1,1-2.27l.32-.53a10.16,10.16,0,0,1,1.17-1.53l.91-1a7.27,7.27,0,0,1,.56-.55l.34-.32.19-.19a20.37,20.37,0,0,1,2.55-2.18l.11-.24c1.41-2.85,4.42-6.3,10.74-6.6h.59a10,10,0,0,1,3.93.8L142.36,28c1.91-.45,3.82-.88,5.73-1.31l1.74-.73,2.23-2a10,10,0,0,1,2.63-3.89l1.4-1.29a9.64,9.64,0,0,1,1.64-1.21c.22-.14.44-.31.66-.47a17.22,17.22,0,0,1,6.81-3.31l1.14-1.11c1.44-3.7,4.8-7,11-7.52l.88-.07a24.4,24.4,0,0,0,3.84-.5,9.9,9.9,0,0,1,2.59-.34H185c.3,0,.59,0,.88,0a11.77,11.77,0,0,0,3.54-.45,10.06,10.06,0,0,1,2.38-.41l2.65-.15L196.86,3l.4,0a14.66,14.66,0,0,1,1.48-.07,14.42,14.42,0,0,1,11.07,5.27,47.55,47.55,0,0,0,5.6,5.65,9.27,9.27,0,0,1,1.67,1.7c.1.12.19.25.29.38A13.86,13.86,0,0,1,221.45,31h.44l3.42.18a10.12,10.12,0,0,1,1.74.24l.92,0c.26,0,.52,0,.78.05l1.67.19c1,.11,2,.23,2.78.26a12.49,12.49,0,0,1,11.13,7.08,9.85,9.85,0,0,1,1,4l.32,7.85L246,57A43.41,43.41,0,0,1,245,67.47l-.29,1.43a10.83,10.83,0,0,1-.38,1.38,13.05,13.05,0,0,0-.7,2.45,10,10,0,0,1-1.33,4.68l-3.7,6.41a9.86,9.86,0,0,1,.39,1.69,19,19,0,0,0,.83,2.78l.3.89c.79-.69,1.6-1.46,2.42-2.25l.36-.32.5-.43a10.79,10.79,0,0,1,1-.76,42,42,0,0,0,4.08-3.3c.77-.68,1.54-1.35,2.33-2a10,10,0,0,1,5.72-2.3q.43,0,.87,0a13.86,13.86,0,0,1,7.76,2.53c.84.55,1.55,1.1,2.18,1.57.39.3.91.69,1.14.83a9.84,9.84,0,0,1,2.45,1.52c1.23,1,2.71,2,4.27,3.12l.86.59a35,35,0,0,1,7.19-8.18c.05-.08.11-.2.2-.38,1.1-2.3,4-8.41,11.72-8.41a25,25,0,0,1,3.68.35c2.56.39,5.12.72,7.82,1.07l3.59.46.43.07,1.79.31,1.78.15a10.12,10.12,0,0,1,2.18.42c4.25.42,8,2.56,11.1,6.38q1.69,2.08,3.37,4.2c2.9,3.63,5.64,7.06,8.6,10.2a10.08,10.08,0,0,1,1.08,1.36,23.06,23.06,0,0,0,3.39,4.15,9.39,9.39,0,0,1,1,1.15l1.08,1.39c.35.46.71,1,1.06,1.45.22.31.51.72.66.89,4.17,3.89,6.09,9,5.7,15.22-.35,5.43-.58,11-.81,16.4-.06,1.52-.12,3-.19,4.55l3.88,5a9.48,9.48,0,0,1,1.08,1.71,7,7,0,0,0,.86,1.05l.75.16,1.24.27a10.1,10.1,0,0,1,2.58.75c6.66,2.11,9.45,7.57,10.51,9.65.1.18.18.36.26.53s.41.49.6.75a9.91,9.91,0,0,1,.76,1.25l3.75,7.24a10,10,0,0,1,1,6l-1.35,9.38-.2,1.88a9.39,9.39,0,0,1-.31,1.58l0,.58a9.67,9.67,0,0,1-.36,2,32.78,32.78,0,0,0-.87,5.83,4.43,4.43,0,0,1-.06.51l-.21,1.57a9.67,9.67,0,0,1-.29,1.4c-.15,1.25-.37,2.37-.56,3.32a15,15,0,0,0-.34,2.08,10,10,0,0,1-.39,3c0,.07-.21,1.83-.21,1.83a8.29,8.29,0,0,1-.19,1.09c-1.16,5.1-3.78,7.91-6.45,9.46a45.92,45.92,0,0,1-10.83,9.46,9.75,9.75,0,0,1-2.11.95,19.76,19.76,0,0,0-4.54,2A10,10,0,0,1,348,234.5l-.89.26-.3.16a16.09,16.09,0,0,1-7.56,2.1h0a13.6,13.6,0,0,1-5.91-1.36,10.09,10.09,0,0,1-3.14-2.37c-.92.12-1.85.22-2.78.33-3.73.44-7.26.85-10.67,1.51q-.39.08-.78.12l-1.35.15-.34,0a10.26,10.26,0,0,1-1.84.32l-1.63.12a10,10,0,0,1-2.37.38,57,57,0,0,0-8.47,1.1,10.54,10.54,0,0,1-1.67.26l-.57,0a10.73,10.73,0,0,1-1.58.3l-1.68.17-1.46.13a44.28,44.28,0,0,0-6.36.84l-.15.17a20.79,20.79,0,0,0-1.95,3.1c-.27.48-.54,1-.82,1.43a10.11,10.11,0,0,1-1.32,2.31l-.69,1.16a9.9,9.9,0,0,1-1.23,1.66l-.56.61a12.77,12.77,0,0,1-1,.93,23.18,23.18,0,0,1,3.37,13.47c1,.95,2.1,1.87,3.15,2.75l.47.41.7.67.25.25.39.36a10.18,10.18,0,0,1,.85.89,13.79,13.79,0,0,1,3.28,12.15c0,.14,0,.72-.06,1.14s0,1-.07,1.49l-.09,2a10.66,10.66,0,0,1-.26,1.87l-.09,1.93a9.47,9.47,0,0,1-.39,2.37,5.46,5.46,0,0,1,0,.56c-.76,7.69-6.17,10.15-8.46,10.86l-.28.08a10,10,0,0,1-2.12,2,9.9,9.9,0,0,1-.88.95,12.5,12.5,0,0,1-8.71,3.69,11.28,11.28,0,0,1-5.6-1.47,12.52,12.52,0,0,1-6.66,1.88,13.77,13.77,0,0,1-1.57-.09c-10.79-1.08-13.12-8.5-13.62-11.33a11.83,11.83,0,0,1-1.19-6.61,11.27,11.27,0,0,1,.39-1.9c0-.07-1.35-1.94-1.35-1.94l-.37-.22c-.56-.31-1.23-.69-2-1.16l-.87.21-4.41,1a9.82,9.82,0,0,1-2.29.27c-.33,0-.65,0-1,0l-8.89-.87a12,12,0,0,1-4.79,1,12.5,12.5,0,0,1-10-5.17l-.14-.19a15.88,15.88,0,0,1-2.93,10.47c-.12.19-.25.38-.36.57a10.32,10.32,0,0,1-.74,1.12c-.54.7-1.07,1.31-1.53,1.86-.23.26-.52.6-.73.86a65.15,65.15,0,0,1-3.17,9.88l-6,14.25c-.12.29-.26.57-.41.85a10,10,0,0,1,.55,4.16,18.19,18.19,0,0,1-3.56,9c-.19.28-.44.66-.54.83a10.28,10.28,0,0,1-.93,1.65,61.86,61.86,0,0,0-4,6.42,9.5,9.5,0,0,1-.75,1.22l-.37.52c-.3.41-.68.93-.92,1.29,0,2.62-.05,5.25-.09,7.79,0,.89,0,1.78-.05,2.67a9.43,9.43,0,0,1,.62,1.81,20,20,0,0,0,1.4,3.28c.26.53.52,1.07.77,1.61a10,10,0,0,1,2.61-.35l.67,0c9.35.63,15.72,6.59,17,15.95a7.2,7.2,0,0,0,.16.78l.18.84a10,10,0,0,1,.18,1.53l0,.62.31,1.85c0,.16,0,.33.07.5.06.52.14,1,.22,1.56a37.54,37.54,0,0,1,.49,4.67l.31.17a16.06,16.06,0,0,1,7.73,7.7,9.85,9.85,0,0,1,1,3c1,3.86,2.24,8,4,13.05.09.26.17.51.24.78s.19.78.29,1.17a17.48,17.48,0,0,0,.89,3,10.29,10.29,0,0,1,.86,2.32c1.12,4.81,2.71,9.64,4.3,14.34l.47.53.41.48a9,9,0,0,1,.89,1.24c.58.17,1.17.36,1.76.57a12.46,12.46,0,0,1,5.1-1.07,15.46,15.46,0,0,1,2.39.19,48.24,48.24,0,0,1,8.66,2.39c.82.28,1.63.57,2.46.83a10,10,0,0,1,4.46,2.89l.31.33a6.4,6.4,0,0,1,.42.49l.84,1a7.92,7.92,0,0,1,.61.69,9.81,9.81,0,0,1,1.33,1.55,14,14,0,0,0,1.88,2.35,10,10,0,0,1,2.58,2.93l.67.67a10.13,10.13,0,0,1,1.33,1.62,31.76,31.76,0,0,0,4,4.6,11.25,11.25,0,0,1,.93,1,9.05,9.05,0,0,1,.95,1.09,13.72,13.72,0,0,1,1.51,14.51c-.91,2-1.72,4.17-2.57,6.46-.3.82-.61,1.64-.92,2.45a9.88,9.88,0,0,1-1.35,2.77l-.14.28-2.34,4.49a10,10,0,0,1-6,5,15,15,0,0,1-3.8.64,9.37,9.37,0,0,1-.81.86,13.5,13.5,0,0,1-9.32,3.69,15.17,15.17,0,0,1-4.21-.62l-.65,0h-.31a9.45,9.45,0,0,1-1.83-.17,11.76,11.76,0,0,1-2.62-.8,12.89,12.89,0,0,1-1.56.15,20.2,20.2,0,0,1-6,3.55A10.15,10.15,0,0,1,219.61,509.7Z" transform="translate(-95.52 -2.86)"/><path class="cls-1" d="M366.17,166.82v0c-1.08-.5-1.18-1.68-1.63-2.56-1.08-2.11-2.3-4-4.71-4.69l-.52-.12c-.23,0-.45,0-.47-.29v.07c-2.5-.67-5.26-.72-7.17-2.87a17.16,17.16,0,0,1-3.11-4.08q-2.85-3.63-5.69-7.28a3.28,3.28,0,0,1-.39-2.39c.34-7.68.6-15.36,1.09-23,.18-2.91-.38-5.29-2.58-7.31a28.32,28.32,0,0,1-2.78-3.52l-1.08-1.4a33.6,33.6,0,0,1-4.87-5.9c-4.45-4.73-8.34-9.92-12.44-14.94-1.39-1.7-2.83-2.83-5.08-2.77a4.13,4.13,0,0,1-1.27-.39l-1.76-.14-.44,0-2.29-.4c-3.87-.52-7.74-1-11.6-1.56-3.28-.49-3.46-.49-4.87,2.47a10,10,0,0,1-2.64,3.6A24.44,24.44,0,0,0,283.54,95c-.39,2.31-2.39,2.84-4.08,3.73-1.74,1.69-3.28,1.85-5.37.16-3.07-2.49-6.55-4.46-9.59-7-1.8-.77-3.2-2.15-4.82-3.2a3.83,3.83,0,0,0-2.46-.89A88.31,88.31,0,0,1,250,93.74l-.5.44a41.83,41.83,0,0,1-6.7,5.53v0l-.48.53a3.25,3.25,0,0,1-1.47,1.22,35.3,35.3,0,0,1-5.4,4.51,1.76,1.76,0,0,1-1,1l-.06.2-.2,0-.93.69-.47.41-.56.46a18.7,18.7,0,0,1-3,2.67c-2,1.14-3.33-.74-4.82-1.48s0-1.68.36-2.4c1.94-3.8,4-7.56,6-11.33a3.34,3.34,0,0,0,.57-1.91c-.66-2.45-1.76-4.77-2.13-7.31-1.35-2.49-2.37-5,.34-7.28.06-.15.13-.29.19-.43l.35-.46c1.23-2.11,2.45-4.23,3.67-6.34a18.2,18.2,0,0,1,1.26-5.49c.09-.45.18-.9.28-1.35a33.76,33.76,0,0,0,.78-8.14c-.1-2-.21-4.09-.31-6.13-.11-2.62-.21-5.24-.32-7.86A2.59,2.59,0,0,0,232.84,42c-1.71-.06-3.4-.32-5.1-.49l-1.39,0a1.68,1.68,0,0,1-1.56-.25L221.38,41a4.79,4.79,0,0,0-3.15,1.6c-2.16,2.16-4.82,1.63-7.4,1.62-.55,0-.78-.36-.87-.85-1.15-2.3-3.18-4.46-1.2-7.27a46.2,46.2,0,0,1,3-7.81c1-2.23.38-4-1.54-5.38a6.67,6.67,0,0,1-1.08-1.36,56.27,56.27,0,0,1-6.87-6.85,4.45,4.45,0,0,0-4-1.85l-2.75.38-.43,0-2.72.15a23.19,23.19,0,0,1-7.73.86,37.65,37.65,0,0,1-6.44.88c-1.43.12-2.71.3-2.7,2.24,0,1.12-1.12,1.54-1.81,2.16-1.83,1.64-3.29,3.66-6.18,4-1.63.19-3.1,1.7-4.64,2.62l-1.4,1.29a2.61,2.61,0,0,1-1,2.53c-1.64,1.37-3.23,2.81-4.84,4.22a1.36,1.36,0,0,1-.1.21l-4.32,1.81q-4.29,1-8.57,2a4,4,0,0,1-2.61-.37c-2.2-.95-4.41-1.88-6.61-2.82-.92,0-1.87,0-2.36,1-.51,2.56-2.92,3.39-4.49,5h0l-.43.44h0l-.44.41-.91,1-.34.55,0,.06a114.34,114.34,0,0,1-6.94,14.36,16.79,16.79,0,0,1-1.9,4.1l-.31.56a.47.47,0,0,1-.14.35.72.72,0,0,1-.41.79l0,.08-.33.59a.38.38,0,0,1-.12.34,61.28,61.28,0,0,0,1.26,8.2c.69,3.35.54,3.76-2.52,5.09-1.17.51-1.37,2.05-2.74,2.16-.69,1.69-2.37,2.44-3.54,3.66a2.83,2.83,0,0,0-1.05,2.75c.64,1.51,1.31,3,1.9,4.54.49,1.26,1.08,2.14,2.66,1.43,1.35-.61,2.17-.14,2.69,1.32.7,2,1.68,3.85,2.44,5.81.26.67,1.09,1.39.19,2.2-.36,1.47-3,1.45-2.46,3.28.35,1.29,1.39,2.4,2.13,3.59,3.72,4.67,7.16,9.54,10.44,14.53a1.67,1.67,0,0,1,.94,1.32,27.69,27.69,0,0,1,4.16,5.86h0l.39.52a8,8,0,0,1,1.82,2.34l.32.37a.53.53,0,0,1,.19.35l.49.53v-.05c2.51-.31,4,.71,4.39,3.28a2.22,2.22,0,0,1,.07,3.31,2.79,2.79,0,0,0-.41,3.43c2.5,4.83,5.12,9.61,7.19,14.65.4.33.7.94,1.37.47l3.14-2.69c-.37,2.18-1.84,2.76-3.13,3.5a29.45,29.45,0,0,1-5.1,4.94c-.76,1.69.05,3.58-.64,5.27l-.12,3c-.12,3.67.25,7.36-.43,11A1.83,1.83,0,0,1,139,186.4c-3.42,1.18-5.46,4.09-8.1,6.26-.4.33-.83.62-1.25.93-.34,3.42,1,6.64,1.26,10,.09,2.63,2.28,4.38,2.85,6.8a29.88,29.88,0,0,1,4.57,7.27c1.45,2.56,3.84,4.16,6.1,5.88s3.78,4.27,5.53,6.51,3,4.55,4.85,6.51a15.27,15.27,0,0,1,4.08,11.07l.12.92,0,.43.09,1.84c.36,2.4,1.53,4.75-.37,7.15-.54.68-.06,2.16-.05,3.27l.1.7a1.08,1.08,0,0,1,.26,1.11l0,.55a2.88,2.88,0,0,1,.39,2.16c.08.55.16,1.09.25,1.63a2,2,0,0,1,.24.62c.08,3.93,1.54,7.07,5,9.17a2.75,2.75,0,0,1,1.34,3.62,8.52,8.52,0,0,0,0,2.67.68.68,0,0,1,.1.44,2.08,2.08,0,0,1,.74,1.83c.07.4.15.8.22,1.2l.3.62c.21.72.43,1.44.64,2.16,1.94,4.35,3.08,9,4.55,13.48.42,1.26-.54,2.11-1.36,2.9-1.67,1.61-3.65,2.93-4.74,5.08a37.5,37.5,0,0,1-3.69,8.1,4.65,4.65,0,0,1-1.22,2.76c0,.16-.09.32-.13.48l-.3.51a.64.64,0,0,1-.15.4l-.3.5a.62.62,0,0,1-.12.41l-.33.47-.46.5-.69.85-.27.26-.14.11a13.93,13.93,0,0,1-3.52,3.54,17.41,17.41,0,0,1-3.73,3.74,13.66,13.66,0,0,1-3.51,3.6l-.48.52-.39.34-.63,1c.58,3.32,1,6.62-1.1,9.64-.58,1.13-.59,2.51-1.5,3.51a32.76,32.76,0,0,1-3.15,8.16v0c0,.73,0,1.5-.87,1.85a1.13,1.13,0,0,1-.11.41c0,2.76-1.4,5.18-1.88,7.82-.14,2.59-1.6,4.82-2,7.34l-.18.82a.82.82,0,0,1-.33.88c0,.15-.06.3-.08.45a1.59,1.59,0,0,1-.35,1.42.37.37,0,0,1-.09.4c0,.48,0,1-.4,1.3a50.78,50.78,0,0,1-2.64,10.16q-.75,2.66-1.51,5.29a6.5,6.5,0,0,1-.63,3.43,8.26,8.26,0,0,0-.29,4.74l.18,1.13.26.68.12.91a.8.8,0,0,1,.29.93l.21,1.17.24.61.1.93c1.62,2.94.48,5.62-.75,8.29-1.58,2.4-1.16,4.61.67,6.66.88.85,1,2.65,2.84,2.29l1.44-1.34.4-.37.79-.61c.11-.19.22-.39.35-.57,1.62-2.2,1.62-2.2,3.57-.31a5.3,5.3,0,0,0,.73.51,12.18,12.18,0,0,0,5.42-6.84,8.1,8.1,0,0,1-.81-4.35c3.36,3.6,6.37,6.82,9.36,10.06.55.59.84,1.27,0,1.92-.4,1.18-.82,2.35-1.21,3.54-.59,1.78,1.69,1.89,1.89,3.21,1.22,1,2.38,1.38,3.55-.1.81-1,1.62-.77,2.35.17a7,7,0,0,1,1.66,2.33,22.33,22.33,0,0,1,4.09,5l2.25,2.74.39.46,0,.06a16.81,16.81,0,0,1,3.21,4c2.05,1.36,2.13,3.34,1.69,5.47-.09,2.12-.56,4.34,1.67,5.82.44.29.19.8-.12,1.18-.65.79-1.29,1.59-1.93,2.38-1.8,2.31-.52,4.35.56,6.41a1.35,1.35,0,0,0,2.15,0c.59-.58,1.29-1,1.89-1.61,3-2.83,3-2.79,6-.16,1.35,1.18,2.1,3.38,3.92,3.54s2.68-2.19,4.23-3.08c.37-.22.65-.87,1.1-.59,3.82,2.46,8.5,2.29,12.52,4.11,1.74-.08,2.29.87,2.14,2.44a1.22,1.22,0,0,1,.37,1.27l.15.86c.42,2.1,1.59,2.76,3.66,2.12a6.62,6.62,0,0,1,2.2.11,1.53,1.53,0,0,1,1.35-.09c.84-.12.78.48.82,1,.34,4.52-.34,8.71-3.91,12l-.42.49.4.69c2.32,1.37,3.82,3.66,5.9,5.31,2.25-.83,3.82-2.61,5.59-4.1,1.21-1,2.26-1.41,3.43-.07,1.69,0,2.59-1.4,3.79-2.25.94-.67,1.38-.51,1.32.65s-.12,2.15,1.32,2.42c.11-.19.22-.25.34,0h0a7.83,7.83,0,0,1,3.12.31,4,4,0,0,0,4.19-.72,6.91,6.91,0,0,1,2.59-2.39,2.4,2.4,0,0,1,3.12-1.33,4.93,4.93,0,0,0,2.87,0l2.33-4.49a.79.79,0,0,1,.43-.86v0c.13-.17.26-.34.38-.52h0c1.3-3.37,2.46-6.79,3.95-10.07a3.83,3.83,0,0,0-.37-4.34,1.1,1.1,0,0,1-.82-.92,42.53,42.53,0,0,1-5.45-6.38h0l-.47-.48a4.82,4.82,0,0,1-1.8-2.26,19.72,19.72,0,0,1-4-4.58,1.78,1.78,0,0,1-1-1l-.26-.28-1.12-1.37-.44-.48h0c-3.2-1-6.28-2.35-9.66-2.88a2.51,2.51,0,0,0-2.71.81c-1.19,1.45-2.5,1.52-4.11.71a19.23,19.23,0,0,0-4.19-1.62,8,8,0,0,1-5.22-4.26l-.39-.46-.06-.07c-.11-.13-.23-.26-.35-.38a2.28,2.28,0,0,1-1.4-1.86c-1.88-5.53-3.75-11.06-5.08-16.75a28.61,28.61,0,0,1-2-6.27c-1.66-4.8-3.18-9.65-4.39-14.59l0,0-.24-.42c-.66-1.89-2.39-2.65-3.92-3.5-3-1.68-5.26-3.71-5.09-7.6a41,41,0,0,0-.65-6.21c-.12-.77-.25-1.53-.38-2.3l0-.43c0-.31,0-.62-.05-.92-.14-.73-.33-1.46-.43-2.2-.66-4.63-3.23-7.06-7.82-7.37l-1.22.55-.58.29-.45.12a1,1,0,0,1-.93.41h0a.75.75,0,0,1-.86.38l-.45.1-.43.23-.89.31c-3.49,2-4,1.94-5.4-.23-.24-.36-.69-.82-.14-1.12,2.34-1.27,1.07-2.84.46-4.38-.27-.69-.5-1.39-.75-2.09a35.77,35.77,0,0,1-2.83-6.8,3,3,0,0,1-.92-2.22c0-4.35.16-8.69.16-13,0-2.84,1.65-4.87,3.18-7a70.81,70.81,0,0,1,4.59-7.49c1-2.26,3.07-4,3.28-6.61-1-2.79-1.26-5.52.61-8.09q3-7,5.93-14.08a55.14,55.14,0,0,0,2.84-9c.49-2.36,2.48-4.06,3.93-6,1-1.71,2.45-3.25,1.94-5.49-.3-3-.61-6-.92-9-.13-2.14-.78-4.31.41-6.37.82-2.72,1.47-5.5,2.5-8.14.92-2.34,1.11-4.38-.53-6.49a28.45,28.45,0,0,1-2.12-3.83h4.18l6.82.08a29.68,29.68,0,0,1,7.69,1c2.34.48.57,2.15.44,3.32-.05.3-.09.6-.14.91a1.22,1.22,0,0,1-.29,1.35l-.12,1.37c-.08.23-.16.46-.23.69l-.22,1.57c-.51,2.79-1,5.57-1.54,8.35-.38,2.06-2.13,4.07-.2,6.2a6.84,6.84,0,0,1,2.33,2.48c1.27,1.62,2.61,1.82,4,.21.33-.55.72-.44,1.13-.1l1.59.13,10,1,4.48-1.06c2.65-.57,5.4-2.49,7.77.59,1.87,1.54,4.48,2.12,5.74,4.44,1.55,2.23,3.09,4.46,4.65,6.69.6.87.73,1.7-.28,2.32-1.8,1.1-2.15,2.35-.56,3.93a1.11,1.11,0,0,1,.09,1.63c.27,1.89,1.79,2.87,4.89,3.16,1.89.27,2.85-1.16,3.87-2.28s2.13-1.51,3.42-.42c1.55-1.14,2.77-.92,3.66.85s2.17,1.87,3.59.53a4.41,4.41,0,0,1,2-1.84c.84-1.45,2.4-2.16,3.45-3.39.58-.68,1.2-.29,1.82-.15,1.13-.35,1.35-1.25,1.45-2.28.08-.79-.18-1.66.39-2.37l.12-2.75a1.06,1.06,0,0,1,.23-1.1c0-.68.07-1.37.1-2.06a28.7,28.7,0,0,1,.33-4.16,3.92,3.92,0,0,0-1.14-3.59c-.17-.17-.35-.33-.53-.49l-.39-.4-.51-.48a64.26,64.26,0,0,1-6.34-5.89c-1-1.52-.65-3.29-.43-4.8.58-4.13-1.49-7.33-3.34-10.54a8.76,8.76,0,0,1-1.14-6.43,4.15,4.15,0,0,1,4-3.6.37.37,0,0,1,.38,0l.52-.39.06,0,.4-.44c.37-.64.75-1.27,1.13-1.91,0-.17.06-.26.24-.26.07-.2.14-.39.22-.58,1.39-2.3,2.51-4.76,4.31-6.8.07-.15.13-.31.2-.46.66-1,.83-2.57,2.54-2.57l.44,0,1.8-.12a61.66,61.66,0,0,1,9.57-1.29l1.57-.16.67-.24,1.83-.12a66.37,66.37,0,0,1,10.42-1.38h0c.38-.46.87-.38,1.37-.31l2.28-.18a2.08,2.08,0,0,1,1.81-.31l1.35-.15c5.11-1,10.29-1.45,15.44-2.1l1.83-.13c1.38-.34,2.85-1.35,4,.49a.51.51,0,0,1,.17.35,3.58,3.58,0,0,1,1.41,2.72c2.62,1.26,4.45-1,6.68-1.5l.86-.24a29,29,0,0,1,6.82-3.05,39.18,39.18,0,0,0,9.17-8.3c.29-.33.58-.79.95-.9,1.75-.48,2.2-1.86,2.55-3.36l.18-1.64a2.08,2.08,0,0,1,.35-1.83c-.06-2.62.91-5.1,1-7.69.08-.22.16-.44.23-.66.07-.53.14-1.06.22-1.58a39.74,39.74,0,0,1,1.22-7.74c0-.61.09-1.22.14-1.82.08-.23.16-.45.23-.67.08-.69.15-1.37.23-2.06q.68-4.77,1.37-9.54Z" transform="translate(-95.52 -2.86)"/></svg>