<svg id="Layer_1" data-name="Layer 1" xmlns="http://www.w3.org/2000/svg" xmlns:xlink="http://www.w3.org/1999/xlink" viewBox="0 0 596.68 183.38"><defs><style>.cls-1{fill:none;}.cls-2{clip-path:url(#clip-path);}.cls-3{clip-path:url(#clip-path-2);}.cls-4{fill:#353535;}.cls-5{fill:#242526;}.cls-6{fill:#484848;}.cls-7{fill:#232323;}.cls-8{fill:#e5e7ea;}.cls-9{fill:#cbd0d1;}.cls-10{fill:#aaaaab;}.cls-11{fill:#3d4248;}.cls-12{fill:#9f9ea0;}.cls-13{fill:#191919;}</style><clipPath id="clip-path" transform="translate(-36.52 -150.52)"><rect class="cls-1" x="-15.85" y="123.77" width="649.49" height="220.6"/></clipPath><clipPath id="clip-path-2" transform="translate(-36.52 -150.52)"><rect id="SVGID" class="cls-1" x="-4.44" y="-66.2" width="1268.69" height="720.19"/></clipPath></defs><title>train</title><g class="cls-2"><g class="cls-3"><g class="cls-3"><path class="cls-4" d="M60.5,206.54a23.05,23.05,0,0,0-4.34.42,40.9,40.9,0,0,1,4.81-.29v86.42a35.8,35.8,0,0,1-5.42-.39,23.75,23.75,0,0,0,5,.53H367.57V206.54Z" transform="translate(-36.52 -150.52)"/><rect class="cls-5" x="26.43" y="152.71" width="534.57" height="18.67"/><rect class="cls-6" x="25.77" y="142.7" width="566.95" height="10"/><rect class="cls-6" x="331.05" y="18" width="78.63" height="124.7"/><path class="cls-4" d="M464.05,189.2H361V168.53H468v16.85a3.81,3.81,0,0,1-3.8,3.82" transform="translate(-36.52 -150.52)"/><rect class="cls-6" x="66.74" y="31.34" width="31.72" height="24.67"/><polygon class="cls-4" points="104.9 31.34 60.75 31.34 56.84 0 108.81 0 104.9 31.34"/><rect class="cls-7" x="64.1" y="31.34" width="37.66" height="5.33"/><rect class="cls-7" x="24.45" y="52.68" width="5.29" height="90.02"/><rect class="cls-7" x="131.49" y="52.68" width="5.29" height="90.02"/><rect class="cls-7" x="244.49" y="52.68" width="5.29" height="90.02"/><rect class="cls-7" x="286.78" y="52.68" width="5.29" height="90.02"/><rect class="cls-7" x="25.77" y="116.7" width="305.28" height="4.67"/><rect class="cls-6" x="153.3" y="86.69" width="72.69" height="18"/><polygon class="cls-4" points="549.08 142.7 409.68 142.7 409.68 67.35 560.05 67.35 549.08 142.7"/><rect class="cls-7" x="409.68" y="59.35" width="155.94" height="8"/><rect class="cls-8" x="588.75" y="99.36" width="3.96" height="43.34"/><rect class="cls-8" x="576.2" y="99.36" width="3.96" height="43.34"/><rect class="cls-8" x="562.98" y="99.36" width="3.96" height="43.34"/><rect class="cls-8" x="550.43" y="99.36" width="3.96" height="43.34"/><rect class="cls-8" x="537.21" y="99.36" width="3.96" height="43.34"/><rect class="cls-8" x="524.66" y="99.36" width="3.96" height="43.34"/><rect class="cls-9" x="522.01" y="95.36" width="74.67" height="4"/><rect class="cls-4" x="179.73" y="34.01" width="20.48" height="22.01"/><rect class="cls-7" x="174.45" y="50.01" width="31.06" height="6"/><polygon class="cls-6" points="198.65 34.01 180.82 34.01 183.88 25.34 195.59 25.34 198.65 34.01"/><rect class="cls-4" x="584.79" y="166.71" width="8.59" height="16.67"/><rect class="cls-4" x="553.07" y="171.38" width="31.72" height="4"/><path class="cls-10" d="M61,206.64c-15.85,0-24.45,7.53-24.45,27.19v32.24c0,18.1,8.21,27.2,24.45,27.2Z" transform="translate(-36.52 -150.52)"/><rect class="cls-5" x="340.3" y="46.68" width="50.88" height="46.01"/><path class="cls-11" d="M423.08,239.88H381.7a.92.92,0,0,1-.91-.92V202.12a.92.92,0,0,1,.91-.92h41.13a.92.92,0,0,1,.91.92V239a.91.91,0,0,1-.91.91" transform="translate(-36.52 -150.52)"/><polygon class="cls-12" points="364.87 50.01 387.22 72.56 387.22 63.58 373.77 50.01 364.87 50.01"/><polygon class="cls-12" points="344.26 75.74 357.76 89.36 364.49 89.36 344.26 68.95 344.26 75.74"/><path class="cls-12" d="M385.12,201a4.92,4.92,0,0,0-4.33,4.9v10.77l23,23.17H418.7a4.83,4.83,0,0,0,3.46-1.45Z" transform="translate(-36.52 -150.52)"/><path class="cls-13" d="M504.06,209.87c0-.1.06-.19.06-.29a2.67,2.67,0,0,0-5.16-1,5.5,5.5,0,0,0-4.22-1.71,6.27,6.27,0,0,0-3,.75c-.5-3-2.66-5.21-5.24-5.21s-4.5,2-5.14,4.76c-3.76-2.91-9.46-4.76-15.85-4.76-8.17,0-15.21,3.05-18.52,7.45Z" transform="translate(-36.52 -150.52)"/><path class="cls-13" d="M594.44,209.87c-.35-1.68-2.62-3-5.39-3-2.31,0-4.27.9-5.08,2.18a10.51,10.51,0,0,0-3.83-.63,10.06,10.06,0,0,0-4.15.77c-4.36-3.59-16.08-6.16-29.88-6.16-14.66,0-27,2.9-30.6,6.83Z" transform="translate(-36.52 -150.52)"/></g></g></g></svg>