<svg id="Layer_1" data-name="Layer 1" xmlns="http://www.w3.org/2000/svg" viewBox="0 0 498.24 76.9"><defs><style>.cls-1{fill:#2d2e2d;}.cls-2{fill:#232323;}.cls-3{fill:#484848;}</style></defs><title>train-02</title><rect class="cls-1" x="419.6" y="4" width="78.63" height="37.34"/><rect class="cls-2" x="419.6" width="5.95" height="45.35"/><rect class="cls-2" x="492.29" width="5.95" height="45.35"/><rect class="cls-2" x="457.93" width="2.64" height="45.35"/><path class="cls-3" d="M87.48,265.63s-5.75,1.51-8.8,1.21l23.75-47.22H99L69.46,266.24s-6,.17-9-1.19l36.81-45.43h-2.9L43.08,268.79c20.05,13.74,51.24,5,51.24,5l12.56-54.13h-2.37Z" transform="translate(-43.08 -199.61)"/><rect class="cls-1" x="41.64" y="22.67" width="52.2" height="20.01"/><rect class="cls-2" x="42.3" y="18" width="4.63" height="30.01"/><rect class="cls-2" x="89.22" y="20.01" width="4.63" height="26.01"/><rect class="cls-2" x="96.48" y="63.35" width="239.86" height="2.67"/><path class="cls-2" d="M384.1,263.81a3.31,3.31,0,1,1-3.31-3.34,3.33,3.33,0,0,1,3.31,3.34" transform="translate(-43.08 -199.61)"/><rect class="cls-3" x="248.46" y="58.02" width="37.66" height="12"/><polygon class="cls-3" points="96.67 65.48 72.54 49.67 73.93 47.5 98.07 63.31 96.67 65.48"/><path class="cls-2" d="M118.26,248.68a1.94,1.94,0,1,1-1.93-2,1.94,1.94,0,0,1,1.93,2" transform="translate(-43.08 -199.61)"/></svg>