<svg id="Layer_1" data-name="Layer 1" xmlns="http://www.w3.org/2000/svg" viewBox="0 0 92.03 92.88"><defs><style>.cls-1{fill:#2c2c2d;}.cls-2{fill:#c63030;}</style></defs><title>wheels</title><path class="cls-1" d="M355.6,375.28a46.44,46.44,0,1,0,46,46.44,46.23,46.23,0,0,0-46-46.44m0,77.67a31.23,31.23,0,1,1,30.94-31.23A31.09,31.09,0,0,1,355.6,453" transform="translate(-309.58 -375.28)"/><path class="cls-2" d="M383.74,401.49a35.48,35.48,0,0,0-5.53-6.14l-16.69,16.71V387.39a32,32,0,0,0-5.92-.57c-.73,0-1.44.07-1.89.11v25.13l-18.55-18.44a34.6,34.6,0,0,0-6,5.64L347.63,418h-26.4a31.06,31.06,0,0,0-.22,3.7,26.84,26.84,0,0,0,.32,4.18h26.3l-18.16,18.64a34.19,34.19,0,0,0,6.07,5.58l18.17-18.05v24.44a17.85,17.85,0,0,0,1.89.11,32,32,0,0,0,5.92-.56v-24l16.33,16.35a35.07,35.07,0,0,0,5.6-6.07l-16-16.45h22.41a26.84,26.84,0,0,0,.32-4.18A33.38,33.38,0,0,0,390,418H367.45Z" transform="translate(-309.58 -375.28)"/><path class="cls-2" d="M355.6,386.82a34.9,34.9,0,1,0,34.58,34.9,34.75,34.75,0,0,0-34.58-34.9m0,66.13a31.23,31.23,0,1,1,30.94-31.23A31.09,31.09,0,0,1,355.6,453" transform="translate(-309.58 -375.28)"/><path class="cls-2" d="M371,421.72a15.42,15.42,0,1,1-15.41-15.56A15.48,15.48,0,0,1,371,421.72" transform="translate(-309.58 -375.28)"/><path class="cls-1" d="M364,421.72a8.4,8.4,0,1,1-8.39-8.47,8.44,8.44,0,0,1,8.39,8.47" transform="translate(-309.58 -375.28)"/></svg>