<?xml version="1.0" encoding="utf-8"?>
<!-- Generator: Adobe Illustrator 17.0.0, SVG Export Plug-In . SVG Version: 6.00 Build 0)  -->
<!DOCTYPE svg PUBLIC "-//W3C//DTD SVG 1.1//EN" "http://www.w3.org/Graphics/SVG/1.1/DTD/svg11.dtd">
<svg version="1.1" id="Layer_1" xmlns="http://www.w3.org/2000/svg" xmlns:xlink="http://www.w3.org/1999/xlink" x="0px" y="0px"
	 width="700px" height="375px" viewBox="0 0 700 375" enable-background="new 0 0 700 375" xml:space="preserve">
<g id="background_แค่แถวบน">
</g>
<g id="Layer_1_1_">
	<path fill="#9797C6" d="M379.396,39.06h-13.339c0.068-0.34,0.105-0.701,0.105-1.079c0-2.083-1.12-3.77-2.503-3.77h-44.352
		c-1.383,0-2.503,1.687-2.503,3.77s1.12,3.77,2.503,3.77h13.339c-0.068,0.34-0.105,0.701-0.105,1.079
		c0,0.581,0.089,1.127,0.244,1.615h-29.217c-1.383,0-2.503,1.687-2.503,3.77c0,2.083,1.12,3.77,2.503,3.77h44.352
		c1.383,0,2.503-1.687,2.503-3.77c0-0.581-0.089-1.127-0.244-1.615h29.215c1.383,0,2.503-1.687,2.503-3.77
		C381.899,40.748,380.779,39.06,379.396,39.06z"/>
	<path fill="#9797C6" d="M542.256,20.643h-13.339c0.068-0.34,0.105-0.701,0.105-1.079c0-2.083-1.12-3.77-2.503-3.77h-44.352
		c-1.383,0-2.503,1.687-2.503,3.77s1.12,3.77,2.503,3.77h13.339c-0.068,0.34-0.105,0.701-0.105,1.079
		c0,0.581,0.089,1.127,0.244,1.615H466.43c-1.383,0-2.503,1.687-2.503,3.77s1.12,3.77,2.503,3.77h44.352
		c1.383,0,2.503-1.687,2.503-3.77c0-0.581-0.089-1.127-0.244-1.615h29.215c1.383,0,2.503-1.687,2.503-3.77
		C544.759,22.334,543.639,20.643,542.256,20.643z"/>
	<path fill="#9797C6" d="M224.385,17.584h-6.416c0.005-0.069,0.009-0.134,0.009-0.203c0-1.464-1.045-2.653-2.332-2.653h-35.161
		c-1.287,0-2.332,1.189-2.332,2.653c0,1.464,1.045,2.653,2.332,2.653h10.587c0,0.021-0.002,0.038-0.002,0.055v0.296
		c0,0.467,0.116,0.907,0.313,1.282h-6.063c-0.986,0-1.784,0.907-1.784,2.031v1.244c0,1.12,0.799,2.031,1.784,2.031h19.751
		c0.986,0,1.784-0.907,1.784-2.031v-1.244c0-0.285-0.052-0.557-0.148-0.804h17.679c1.216,0,2.202-1.12,2.202-2.505v-0.296
		C226.59,18.705,225.604,17.584,224.385,17.584z"/>
</g>
<g id="text">
</g>
<g id="ปุ่มซ้ายขวา" display="none">
</g>
<g id="ชื่อประเทศ" display="none">
</g>
<g id="Layer_5">
</g>
<g id="รถในหลวง" display="none">
</g>
<g id="Layer_6">
</g>
</svg>
