<?xml version="1.0" encoding="utf-8"?>
<!-- Generator: Adobe Illustrator 17.0.0, SVG Export Plug-In . SVG Version: 6.00 Build 0)  -->
<!DOCTYPE svg PUBLIC "-//W3C//DTD SVG 1.1//EN" "http://www.w3.org/Graphics/SVG/1.1/DTD/svg11.dtd">
<svg version="1.1" id="Layer_1" xmlns="http://www.w3.org/2000/svg" xmlns:xlink="http://www.w3.org/1999/xlink" x="0px" y="0px"
	 width="1960px" height="1000px" viewBox="0 0 1960 1000" enable-background="new 0 0 1960 1000" xml:space="preserve">
<g id="Layer_1_1_">
	
		<linearGradient id="SVGID_1_" gradientUnits="userSpaceOnUse" x1="2443.4661" y1="110.9901" x2="3279.1033" y2="110.9901" gradientTransform="matrix(0.3472 0 0 -0.3472 357.2831 441.1153)">
		<stop  offset="0" style="stop-color:#F4B07D"/>
		<stop  offset="0.1729" style="stop-color:#EEAF85"/>
		<stop  offset="0.4337" style="stop-color:#DCAD99"/>
		<stop  offset="0.7482" style="stop-color:#C0A9BB"/>
		<stop  offset="1" style="stop-color:#A5A5DB"/>
	</linearGradient>
	<path fill="url(#SVGID_1_)" d="M1205.73,443.132l290.131,1.394c0,0-1.241-27.114-18.902-27.128c0,0,18.959-55.469-41.598-56.724
		c-60.557-1.269-52.996,24.619-52.996,24.619s-32.782-27.142-59.287-7.43c-26.505,19.712-15.15,32.049-15.15,32.049
		s-37.832-17.286-47.932-1.255c0,0-5.05,8.629-0.014,17.258C1259.981,425.901,1204.474,425.873,1205.73,443.132z"/>
	
		<linearGradient id="SVGID_2_" gradientUnits="userSpaceOnUse" x1="3589.1167" y1="481.7375" x2="3589.1167" y2="-52.2469" gradientTransform="matrix(0.3472 0 0 -0.3472 357.2831 441.1153)">
		<stop  offset="0" style="stop-color:#F4B07D"/>
		<stop  offset="1" style="stop-color:#A5A5DB"/>
	</linearGradient>
	<path fill="url(#SVGID_2_)" d="M1338.17,457.309h533.842c0,0-5.806-86.473-101.542-76.547c0,0,42.069-92.147-56.577-83.643
		s-69.63,86.473-69.63,86.473s49.33-106.324-56.577-102.073c-105.892,4.252-66.734,106.324-66.734,106.324
		s-17.404-103.481-78.332-79.391c-60.928,24.103-55.122,93.569-15.963,94.977C1426.659,403.429,1314.96,390.673,1338.17,457.309z"/>
	
		<linearGradient id="SVGID_3_" gradientUnits="userSpaceOnUse" x1="133.1095" y1="-1153.5166" x2="1732.8469" y2="-1153.5166" gradientTransform="matrix(0.3472 0 0 -0.3472 357.2831 441.1153)">
		<stop  offset="0" style="stop-color:#6398A8"/>
		<stop  offset="0.1268" style="stop-color:#6B99A6"/>
		<stop  offset="0.3181" style="stop-color:#7F9D9F"/>
		<stop  offset="0.5501" style="stop-color:#A1A294"/>
		<stop  offset="0.8118" style="stop-color:#D0AA85"/>
		<stop  offset="1" style="stop-color:#F6B079"/>
	</linearGradient>
	<path fill="url(#SVGID_3_)" d="M410.616,920.664l548.35-5.674c0,0-1.455-104.902-107.348-102.073c0,0-1.455-62.37-123.311-48.206
		c-121.855,14.164-95.75,56.71-95.75,56.71s-85.593-82.221-132.012-11.348c0,0-13.053,52.458,15.963,59.54
		C516.523,869.628,370.003,848.369,410.616,920.664z"/>
	
		<linearGradient id="SVGID_4_" gradientUnits="userSpaceOnUse" x1="-546.7861" y1="730.6801" x2="-536.2922" y2="101.0482" gradientTransform="matrix(0.3472 0 0 -0.3472 357.2831 441.1153)">
		<stop  offset="0" style="stop-color:#F4B07D"/>
		<stop  offset="0.1729" style="stop-color:#EEAF85"/>
		<stop  offset="0.4337" style="stop-color:#DCAD99"/>
		<stop  offset="0.7482" style="stop-color:#C0A9BB"/>
		<stop  offset="1" style="stop-color:#A5A5DB"/>
	</linearGradient>
	<path fill="url(#SVGID_4_)" d="M-89.702,386.422l523.699,2.83c0,0-31.912-53.866-116.049-65.214c0,0-7.247-79.391-111.699-80.799
		c-104.452-1.422-93.168,69.521-93.168,69.521s-21.441-31.241-78.018-22.737c-56.577,8.504-52.226,43.941-52.226,43.941
		S-110.001,356.659-89.702,386.422z"/>
	
		<linearGradient id="SVGID_5_" gradientUnits="userSpaceOnUse" x1="3733.1294" y1="1405.1243" x2="3754.1787" y2="1205.1595" gradientTransform="matrix(0.3472 0 0 -0.3472 357.2831 441.1153)">
		<stop  offset="0" style="stop-color:#F4B07D"/>
		<stop  offset="0.1729" style="stop-color:#EEAF85"/>
		<stop  offset="0.4337" style="stop-color:#DCAD99"/>
		<stop  offset="0.7482" style="stop-color:#C0A9BB"/>
		<stop  offset="1" style="stop-color:#A5A5DB"/>
	</linearGradient>
	<path fill="url(#SVGID_5_)" d="M1523.635,111.078l294.311,1.589c0,0-17.932-30.279-65.222-36.65c0,0-4.08-44.61-62.768-45.418
		c-58.702-0.795-52.354,39.075-52.354,39.075s-12.054-17.565-43.838-12.783c-31.798,4.782-29.344,24.703-29.344,24.703
		S1512.223,94.35,1523.635,111.078z"/>
	
		<linearGradient id="SVGID_6_" gradientUnits="userSpaceOnUse" x1="355.8633" y1="391.3838" x2="376.9119" y2="191.419" gradientTransform="matrix(0.3472 0 0 -0.3472 357.2831 441.1153)">
		<stop  offset="0" style="stop-color:#F4B07D"/>
		<stop  offset="0.1729" style="stop-color:#EEAF85"/>
		<stop  offset="0.4337" style="stop-color:#DCAD99"/>
		<stop  offset="0.7482" style="stop-color:#C0A9BB"/>
		<stop  offset="1" style="stop-color:#A5A5DB"/>
	</linearGradient>
	<path fill="url(#SVGID_6_)" d="M350.973,463.067l294.311,1.589c0,0-17.932-30.279-65.222-36.65c0,0-4.08-44.61-62.768-45.418
		c-58.702-0.795-52.354,39.075-52.354,39.075s-12.054-17.565-43.838-12.784c-31.798,4.782-29.344,24.703-29.344,24.703
		S339.56,446.338,350.973,463.067z"/>
	<path opacity="0.34" fill="#FFFFFF" enable-background="new    " d="M2337.594,733.276h-138.646h-71.784h-34.579
		c-24.023,0-43.681-15.655-43.681-34.782c0-19.126,19.658-34.782,43.681-34.782h36.092h70.272h74.066
		c18.802,0,34.18-12.254,34.18-27.212c0-14.972-15.378-27.212-34.18-27.212h-953.403c-18.802,0-34.18,12.254-34.18,27.212
		c0,14.972,15.378,27.212,34.18,27.212h176.635h77.861h28.488c24.023,0,43.681,15.655,43.681,34.782
		c0,19.126-19.658,34.782-43.681,34.782h-26.976h-79.373h-286.778c-20.885,0-37.989,13.606-37.989,30.237
		s17.09,30.237,37.989,30.237h1128.141c20.885,0,37.989-13.606,37.989-30.237S2358.493,733.276,2337.594,733.276z"/>
	<path opacity="0.34" fill="#FFFFFF" enable-background="new    " d="M820.905,683.62h-54.195h-28.06h-13.509
		c-9.387,0-17.076-6.12-17.076-13.592s7.689-13.592,17.076-13.592h14.109h27.461h28.945c7.347,0,13.367-4.782,13.367-10.637
		s-6.006-10.637-13.367-10.637H423.027c-7.347,0-13.367,4.782-13.367,10.637s6.006,10.637,13.367,10.637h69.031h30.428h11.141
		c9.387,0,17.076,6.12,17.076,13.592s-7.689,13.592-17.076,13.592h-10.542h-31.027H379.974c-8.16,0-14.85,5.325-14.85,11.822
		c0,6.496,6.676,11.822,14.85,11.822h440.931c8.16,0,14.85-5.325,14.85-11.822C835.755,688.945,829.065,683.62,820.905,683.62z"/>
	<g>
		<g>
			<path fill="#F9DABB" d="M299.232,790.516c0,0,7.546-18.025,29.358-18.025c21.812,0,29.358,18.025,29.358,18.025H299.232z"/>
			<path fill="#F14950" d="M328.59,775.753c-16.22,0-29.144,9.563-29.144,25.414v117.212h58.717V801.166
				C358.148,785.33,344.796,775.753,328.59,775.753z"/>
			<rect x="299.446" y="790.516" fill="#F14950" width="58.717" height="10.651"/>
			<rect x="305.095" y="790.516" fill="#F9DABB" width="46.976" height="9.019"/>
			<rect x="298.675" y="801.166" fill="#F14950" width="60.386" height="117.212"/>
			<rect x="298.39" y="801.166" fill="#F9DABB" width="61.227" height="1.645"/>
			<rect x="304.396" y="804.442" fill="#DD4551" width="48.645" height="108.192"/>
			<g>
				<rect x="310.059" y="810.186" fill="#F9DABB" width="10.713" height="18.834"/>
				<rect x="323.512" y="810.186" fill="#F9DABB" width="10.713" height="18.834"/>
				<rect x="336.964" y="810.186" fill="#F9DABB" width="10.713" height="18.834"/>
				<rect x="310.059" y="831.71" fill="#F9DABB" width="10.713" height="18.834"/>
				<rect x="323.512" y="831.71" fill="#F9DABB" width="10.713" height="18.834"/>
				<rect x="336.964" y="831.71" fill="#F9DABB" width="10.713" height="18.834"/>
				<rect x="310.059" y="853.22" fill="#F9DABB" width="10.713" height="18.834"/>
				<rect x="323.512" y="853.22" fill="#F9DABB" width="10.713" height="18.834"/>
				<rect x="336.964" y="853.22" fill="#F9DABB" width="10.713" height="18.834"/>
				<rect x="310.059" y="875.358" fill="#F9DABB" width="10.713" height="18.834"/>
				<rect x="323.512" y="875.358" fill="#F9DABB" width="10.713" height="18.834"/>
				<rect x="336.964" y="875.358" fill="#F9DABB" width="10.713" height="18.834"/>
			</g>
			<rect x="304.396" y="804.442" fill="#C1272D" width="48.645" height="1.645"/>
		</g>
		<polygon opacity="0.4" fill="#E5AD88" points="358.676,790.335 302.042,915.953 359.061,915.953 		"/>
	</g>
	<g>
		
			<linearGradient id="SVGID_7_" gradientUnits="userSpaceOnUse" x1="4657.5679" y1="-324.5479" x2="4662.7744" y2="-610.9045" gradientTransform="matrix(0.3472 0 0 -0.3472 357.2831 441.1153)">
			<stop  offset="0" style="stop-color:#F4B07D"/>
			<stop  offset="0.1729" style="stop-color:#EEAF85"/>
			<stop  offset="0.4337" style="stop-color:#DCAD99"/>
			<stop  offset="0.7482" style="stop-color:#C0A9BB"/>
			<stop  offset="1" style="stop-color:#A5A5DB"/>
		</linearGradient>
		<path fill="url(#SVGID_7_)" d="M1816.106,795.548l325.609,1.561c0,0-1.398-30.432-21.213-30.446c0,0,21.27-62.245-46.677-63.666
			c-67.946-1.422-59.473,27.63-59.473,27.63s-36.791-30.46-66.534-8.336c-29.743,22.124-17.005,35.967-17.005,35.967
			s-42.454-19.391-53.795-1.408c0,0-5.663,9.675-0.014,19.363C1876.991,776.213,1814.708,776.185,1816.106,795.548z"/>
		<rect x="1832.739" y="614.293" fill="#EAC38C" width="403.755" height="308.643"/>
		<rect x="1832.739" y="612.704" fill="#6398A8" width="397.236" height="85.915"/>
		<rect x="1917.391" y="560.204" fill="#EAC38C" width="133.496" height="361.143"/>
		<g>
			<g>
				<g>
					<rect x="1738.359" y="263.675" fill="#F9D395" width="57.276" height="25.901"/>
					<rect x="1697.417" y="505.906" fill="#EAC38C" width="136.592" height="417.714"/>
					<rect x="1698.43" y="355.167" fill="#F9D395" width="134.552" height="29.219"/>
					<polygon fill="#6398A8" points="1832.996,355.167 1698.43,355.167 1738.288,288.754 1795.378,288.754 					"/>
					<rect x="1695.035" y="384.386" fill="#E5AD88" width="141.356" height="123.527"/>
					<ellipse fill="#FEF2E4" cx="1765.706" cy="425.553" rx="39.415" ry="38.518"/>
					<path fill="#6398A8" d="M1738.673,263.675h57.09c0,0-23.624-13.494-29.059-129.047
						C1762.61,251.519,1738.673,263.675,1738.673,263.675z"/>
					<path fill="#FEF2E4" d="M1724.949,593.578h-9.515V517.24c0-1.854,1.541-3.36,3.438-3.36h2.653c1.897,0,3.438,1.506,3.438,3.36
						v76.338H1724.949z"/>
					<rect x="1731.74" y="531.152" fill="#FEF2E4" width="9.515" height="62.426"/>
					<rect x="1748.06" y="531.152" fill="#FEF2E4" width="9.515" height="62.426"/>
					<rect x="1775.235" y="531.152" fill="#FEF2E4" width="9.515" height="62.426"/>
					<rect x="1791.541" y="531.152" fill="#FEF2E4" width="9.515" height="62.426"/>
					<path fill="#FEF2E4" d="M1817.375,593.578h-9.515V517.24c0-1.854,1.541-3.36,3.438-3.36h2.653c1.897,0,3.438,1.506,3.438,3.36
						v76.338H1817.375z"/>
					<path fill="#FEF2E4" d="M1724.949,687.872h-9.515v-76.338c0-1.854,1.541-3.36,3.438-3.36h2.653c1.897,0,3.438,1.506,3.438,3.36
						v76.338H1724.949z"/>
					<rect x="1731.74" y="625.446" fill="#FEF2E4" width="9.515" height="62.426"/>
					<rect x="1748.06" y="625.446" fill="#FEF2E4" width="9.515" height="62.426"/>
					<rect x="1775.235" y="625.446" fill="#FEF2E4" width="9.515" height="62.426"/>
					<rect x="1791.541" y="625.446" fill="#FEF2E4" width="9.515" height="62.426"/>
					<path fill="#FEF2E4" d="M1817.375,687.872h-9.515v-76.338c0-1.854,1.541-3.36,3.438-3.36h2.653c1.897,0,3.438,1.506,3.438,3.36
						v76.338H1817.375z"/>
					<path fill="#FEF2E4" d="M1724.949,782.179h-9.515v-76.338c0-1.854,1.541-3.36,3.438-3.36h2.653c1.897,0,3.438,1.506,3.438,3.36
						v76.338H1724.949z"/>
					<rect x="1731.74" y="719.754" fill="#FEF2E4" width="9.515" height="62.426"/>
					<rect x="1748.06" y="719.754" fill="#FEF2E4" width="9.515" height="62.426"/>
					<rect x="1775.235" y="719.754" fill="#FEF2E4" width="9.515" height="62.426"/>
					<rect x="1791.541" y="719.754" fill="#FEF2E4" width="9.515" height="62.426"/>
					<path fill="#FEF2E4" d="M1817.375,782.179h-9.515v-76.338c0-1.854,1.541-3.36,3.438-3.36h2.653c1.897,0,3.438,1.506,3.438,3.36
						v76.338H1817.375z"/>
					<path fill="#FEF2E4" d="M1724.949,876.473h-9.515v-76.338c0-1.854,1.541-3.36,3.438-3.36h2.653c1.897,0,3.438,1.506,3.438,3.36
						v76.338H1724.949z"/>
					<rect x="1731.74" y="814.047" fill="#FEF2E4" width="9.515" height="62.426"/>
					<rect x="1748.06" y="814.047" fill="#FEF2E4" width="9.515" height="62.426"/>
					<rect x="1775.235" y="814.047" fill="#FEF2E4" width="9.515" height="62.426"/>
					<rect x="1791.541" y="814.047" fill="#FEF2E4" width="9.515" height="62.426"/>
					<path fill="#FEF2E4" d="M1817.375,876.473h-9.515v-76.338c0-1.854,1.541-3.36,3.438-3.36h2.653c1.897,0,3.438,1.506,3.438,3.36
						v76.338H1817.375z"/>
					<rect x="1697.76" y="507.244" fill="#CC9D7D" width="135.921" height="6.636"/>
					<rect x="1704.564" y="357.16" fill="#F4B07D" width="6.79" height="27.895"/>
					<rect x="1720.87" y="357.16" fill="#F4B07D" width="6.79" height="27.895"/>
					<rect x="1737.175" y="357.16" fill="#F4B07D" width="6.79" height="27.895"/>
					<rect x="1753.495" y="357.16" fill="#F4B07D" width="6.79" height="27.895"/>
					<rect x="1769.8" y="357.16" fill="#F4B07D" width="6.79" height="27.895"/>
					<rect x="1786.105" y="357.16" fill="#F4B07D" width="6.79" height="27.895"/>
					<rect x="1802.425" y="357.16" fill="#F4B07D" width="6.79" height="27.895"/>
					<rect x="1818.731" y="357.16" fill="#F4B07D" width="6.79" height="27.895"/>
					<rect x="1742.61" y="265.515" fill="#FEF2E4" width="2.725" height="17.272"/>
					<rect x="1753.067" y="265.515" fill="#FEF2E4" width="2.725" height="17.272"/>
					<rect x="1761.227" y="265.515" fill="#FEF2E4" width="2.725" height="17.272"/>
					<rect x="1771.669" y="265.515" fill="#FEF2E4" width="2.725" height="17.272"/>
					<rect x="1779.829" y="265.515" fill="#FEF2E4" width="2.725" height="17.272"/>
					<rect x="1787.989" y="265.515" fill="#FEF2E4" width="2.725" height="17.272"/>
					<path fill="#F9C193" d="M1766.105,427.546h-0.756c-0.542,0-0.984-0.432-0.984-0.962v-36.608c0-0.53,0.442-0.962,0.984-0.962
						h0.756c0.542,0,0.984,0.432,0.984,0.962v36.608C1767.075,427.114,1766.647,427.546,1766.105,427.546z"/>
					<path fill="#F9C193" d="M1785.991,427.546h-20.171c-0.813,0-1.469-0.641-1.469-1.436v-1.115c0-0.795,0.656-1.436,1.469-1.436
						h20.171c0.813,0,1.469,0.641,1.469,1.436v1.115C1787.475,426.905,1786.805,427.546,1785.991,427.546z"/>
				</g>
				<rect x="1698.944" y="354.554" fill="#F4B07D" width="133.182" height="2.244"/>
				<polygon opacity="0.4" fill="#FEF2E4" points="1835.992,385.083 1834.351,385.083 1834.351,353.271 1806.676,353.271 
					1806.676,922.825 1834.351,922.825 1834.351,507.593 1835.992,507.593 				"/>
			</g>
			<path opacity="0.4" fill="#FEF2E4" d="M1834.351,353.271l-39.073-65.228v-23.866c0,0-26.049-25.455-29.301-128.866v153.555
				l40.699,64.405H1834.351z"/>
		</g>
		<path fill="#EAC38C" d="M1936.934,584.07h-19.529v-42.435c0-3.806,3.153-6.887,7.047-6.887h5.449c3.894,0,7.047,3.081,7.047,6.887
			v42.435H1936.934z"/>
		<rect x="1936.934" y="560.204" fill="#6398A8" width="94.423" height="42.951"/>
		<path fill="#FEF2E4" d="M2001.728,701.798h-42.326v-48.722c0-8.239,6.833-14.916,15.264-14.916h11.797
			c8.431,0,15.264,6.677,15.264,14.916L2001.728,701.798L2001.728,701.798z"/>
		<g>
			<rect x="1857.59" y="735.66" fill="#FEF2E4" width="9.515" height="62.426"/>
			<rect x="1872.24" y="735.66" fill="#FEF2E4" width="9.515" height="62.426"/>
			<rect x="1886.891" y="735.66" fill="#FEF2E4" width="9.515" height="62.426"/>
		</g>
		<g>
			<rect x="1858.588" y="829.521" fill="#FEF2E4" width="9.515" height="62.426"/>
			<rect x="1873.239" y="829.521" fill="#FEF2E4" width="9.515" height="62.426"/>
			<rect x="1887.89" y="829.521" fill="#FEF2E4" width="9.515" height="62.426"/>
		</g>
		<polygon opacity="0.4" fill="#FEF2E4" points="1834.366,698.62 1917.39,922.937 1832.739,922.937 		"/>
		<rect x="1912.512" y="698.62" fill="#FEF2E4" width="4.879" height="224.331"/>
	</g>
	<g>
		<polygon fill="#F14950" points="142.683,840.674 141.798,841.008 141.798,842.695 145.978,844.089 145.978,842.124 		"/>
		<polygon fill="#F14950" points="149.259,840.674 150.143,841.008 150.143,842.695 145.978,844.089 145.978,842.124 		"/>
		<rect x="142.697" y="836.227" fill="#F9CE95" width="6.619" height="4.921"/>
		<ellipse fill="#F9CE95" cx="146.006" cy="829.201" rx="8.345" ry="8.518"/>
		<path d="M148.36,832.156h-4.693c-3.352,0-6.063-2.649-6.063-5.925v-15.683c0-3.276,2.71-5.925,6.063-5.925h4.693
			c3.352,0,6.063,2.649,6.063,5.925v15.683C154.423,829.507,151.713,832.156,148.36,832.156z"/>
		<path fill="#F14950" d="M139.687,813.308c0,0-2.054,1.004-3.78,0.307s-2.468-2.816-2.468-2.816s2.054-1.004,3.78-0.307
			C138.931,811.19,139.687,813.308,139.687,813.308z"/>
		<g>
			<path d="M153.41,823.792v8.629c0,2.886-2.397,5.228-5.35,5.228h-4.123c-2.953,0-5.35-2.342-5.35-5.228v-8.629H153.41
				 M154.38,822.858h-0.956h-14.822h-0.956v0.934v8.629c0,3.401,2.825,6.162,6.305,6.162h4.123c3.481,0,6.305-2.76,6.305-6.162
				v-8.629L154.38,822.858L154.38,822.858z"/>
		</g>
		<polygon fill="#F9CE95" points="142.526,841.148 145.978,842.124 149.131,841.148 		"/>
		<polygon fill="#F14950" points="141.798,842.625 131.014,845.915 137.062,867.217 137.062,884.015 145.978,884.015 
			145.978,843.936 		"/>
		<polygon fill="#F14950" points="150.143,842.556 160.928,845.86 155.037,867.217 155.037,883.959 145.978,883.959 145.978,843.88 
					"/>
		<path fill="#F14950" d="M131.014,845.79l-2.011,0.488v34.796h5.606v-33.22C134.608,847.853,131.014,845.734,131.014,845.79z"/>
		<path fill="#F14950" d="M160.928,845.79l2.011,0.488v34.796h-5.606v-33.22C157.333,847.853,160.928,845.734,160.928,845.79z"/>
		<rect x="129.002" y="879.247" width="5.606" height="4.363"/>
		<rect x="157.333" y="879.247" width="5.606" height="4.363"/>
		<path fill="#F9CE95" d="M129.002,883.597h5.606v1.255c0,1.087-0.899,1.98-2.026,1.98h-1.569c-1.113,0-2.026-0.878-2.026-1.98
			v-1.255H129.002z"/>
		<path fill="#F9CE95" d="M157.333,883.597h5.606v1.255c0,1.087-0.899,1.98-2.026,1.98h-1.569c-1.113,0-2.026-0.878-2.026-1.98
			v-1.255H157.333z"/>
		<polygon fill="#F9DABB" points="155.037,871.092 147.561,871.092 145.835,869.545 144.394,871.092 137.062,871.092 
			137.062,867.44 144.394,867.44 145.978,869.126 147.561,867.44 155.037,867.44 		"/>
		<rect x="137.062" y="880.084" width="8.916" height="37.807"/>
		<rect x="145.978" y="880.084" width="9.059" height="37.807"/>
		<path d="M145.978,919.159h-8.887c-0.884,0-1.612-0.697-1.612-1.575v-1.213c0-0.864,0.713-1.575,1.612-1.575h8.887V919.159z"/>
		<path d="M145.835,919.159h8.887c0.884,0,1.612-0.697,1.612-1.575v-1.213c0-0.864-0.713-1.575-1.612-1.575h-8.887V919.159z"/>
		<ellipse fill="#F9CE95" cx="147.119" cy="845.651" rx="0.571" ry="0.558"/>
		<ellipse fill="#F9CE95" cx="147.119" cy="846.78" rx="0.571" ry="0.558"/>
		<ellipse fill="#F9CE95" cx="147.119" cy="851.408" rx="0.571" ry="0.558"/>
		<ellipse fill="#F9CE95" cx="147.119" cy="852.537" rx="0.571" ry="0.558"/>
		<ellipse fill="#F9CE95" cx="147.119" cy="857.179" rx="0.571" ry="0.558"/>
		<ellipse fill="#F9CE95" cx="147.119" cy="858.295" rx="0.571" ry="0.558"/>
		<ellipse fill="#F9CE95" cx="147.119" cy="862.937" rx="0.571" ry="0.558"/>
		<ellipse fill="#F9CE95" cx="147.119" cy="864.066" rx="0.571" ry="0.558"/>
		<rect x="131.584" y="880.223" fill="#F9CE95" width="3.024" height="0.558"/>
		<rect x="131.584" y="881.073" fill="#F9CE95" width="3.024" height="0.558"/>
		<rect x="131.584" y="881.91" fill="#F9CE95" width="3.024" height="0.558"/>
		<rect x="157.333" y="880.223" fill="#F9CE95" width="3.024" height="0.558"/>
		<rect x="157.333" y="881.073" fill="#F9CE95" width="3.024" height="0.558"/>
		<rect x="157.333" y="881.91" fill="#F9CE95" width="3.024" height="0.558"/>
		<ellipse fill="#F9CE95" cx="145.935" cy="869.266" rx="1.583" ry="1.547"/>
		<rect x="143.667" y="867.44" fill="#F9CE95" width="0.713" height="3.652"/>
		<rect x="147.561" y="867.44" fill="#F9CE95" width="0.713" height="3.652"/>
	</g>
	<g>
		<polygon fill="#F14950" points="88.346,840.674 87.461,841.008 87.461,842.695 91.641,844.089 91.641,842.124 		"/>
		<polygon fill="#F14950" points="94.922,840.674 95.806,841.008 95.806,842.695 91.641,844.089 91.641,842.124 		"/>
		<rect x="88.36" y="836.227" fill="#F9CE95" width="6.619" height="4.921"/>
		<ellipse fill="#F9CE95" cx="91.669" cy="829.201" rx="8.345" ry="8.518"/>
		<path d="M94.009,832.156h-4.693c-3.352,0-6.063-2.649-6.063-5.925v-15.683c0-3.276,2.71-5.925,6.063-5.925h4.693
			c3.352,0,6.063,2.649,6.063,5.925v15.683C100.086,829.507,97.361,832.156,94.009,832.156z"/>
		<path fill="#F14950" d="M85.335,813.308c0,0-2.054,1.004-3.78,0.307c-1.726-0.697-2.468-2.816-2.468-2.816s2.054-1.004,3.78-0.307
			C84.594,811.19,85.335,813.308,85.335,813.308z"/>
		<g>
			<path d="M99.073,823.792v8.629c0,2.886-2.397,5.228-5.35,5.228h-4.123c-2.953,0-5.35-2.342-5.35-5.228v-8.629H99.073
				 M100.043,822.858h-0.956H84.28h-0.956v0.934v8.629c0,3.401,2.825,6.162,6.305,6.162h4.123c3.481,0,6.305-2.76,6.305-6.162
				v-8.629v-0.934H100.043z"/>
		</g>
		<polygon fill="#F9CE95" points="88.189,841.148 91.641,842.124 94.794,841.148 		"/>
		<polygon fill="#F14950" points="87.461,842.625 76.676,845.915 82.711,867.217 82.711,884.015 91.641,884.015 91.641,843.936 		
			"/>
		<polygon fill="#F14950" points="95.806,842.556 106.591,845.86 100.699,867.217 100.699,883.959 91.641,883.959 91.641,843.88 		
			"/>
		<path fill="#F14950" d="M76.676,845.79l-2.011,0.488v34.796h5.606v-33.22C80.271,847.853,76.676,845.734,76.676,845.79z"/>
		<path fill="#F14950" d="M106.591,845.79l2.011,0.488v34.796h-5.606v-33.22C102.996,847.853,106.591,845.734,106.591,845.79z"/>
		<rect x="74.665" y="879.247" width="5.606" height="4.363"/>
		<rect x="102.996" y="879.247" width="5.606" height="4.363"/>
		<path fill="#F9CE95" d="M74.665,883.597h5.606v1.255c0,1.087-0.899,1.98-2.026,1.98h-1.569c-1.113,0-2.026-0.878-2.026-1.98
			v-1.255H74.665z"/>
		<path fill="#F9CE95" d="M102.996,883.597h5.606v1.255c0,1.087-0.899,1.98-2.026,1.98h-1.569c-1.113,0-2.026-0.878-2.026-1.98
			v-1.255H102.996z"/>
		<polygon fill="#F9DABB" points="100.699,871.092 93.21,871.092 91.484,869.545 90.057,871.092 82.711,871.092 82.711,867.44 
			90.057,867.44 91.641,869.126 93.21,867.44 100.699,867.44 		"/>
		<rect x="82.711" y="880.084" width="8.916" height="37.807"/>
		<rect x="91.641" y="880.084" width="9.059" height="37.807"/>
		<path d="M91.641,919.159h-8.887c-0.884,0-1.612-0.697-1.612-1.575v-1.213c0-0.864,0.713-1.575,1.612-1.575h8.887V919.159z"/>
		<path d="M91.484,919.159h8.887c0.884,0,1.612-0.697,1.612-1.575v-1.213c0-0.864-0.713-1.575-1.612-1.575h-8.887V919.159z"/>
		<ellipse fill="#F9CE95" cx="92.782" cy="845.651" rx="0.571" ry="0.558"/>
		<ellipse fill="#F9CE95" cx="92.782" cy="846.78" rx="0.571" ry="0.558"/>
		<ellipse fill="#F9CE95" cx="92.782" cy="851.408" rx="0.571" ry="0.558"/>
		<ellipse fill="#F9CE95" cx="92.782" cy="852.537" rx="0.571" ry="0.558"/>
		<ellipse fill="#F9CE95" cx="92.782" cy="857.179" rx="0.571" ry="0.558"/>
		<ellipse fill="#F9CE95" cx="92.782" cy="858.295" rx="0.571" ry="0.558"/>
		<ellipse fill="#F9CE95" cx="92.782" cy="862.937" rx="0.571" ry="0.558"/>
		<ellipse fill="#F9CE95" cx="92.782" cy="864.066" rx="0.571" ry="0.558"/>
		<rect x="77.247" y="880.223" fill="#F9CE95" width="3.024" height="0.558"/>
		<rect x="77.247" y="881.073" fill="#F9CE95" width="3.024" height="0.558"/>
		<rect x="77.247" y="881.91" fill="#F9CE95" width="3.024" height="0.558"/>
		<rect x="102.996" y="880.223" fill="#F9CE95" width="3.024" height="0.558"/>
		<rect x="102.996" y="881.073" fill="#F9CE95" width="3.024" height="0.558"/>
		<rect x="102.996" y="881.91" fill="#F9CE95" width="3.024" height="0.558"/>
		<ellipse fill="#F9CE95" cx="91.598" cy="869.266" rx="1.583" ry="1.547"/>
		<rect x="89.33" y="867.44" fill="#F9CE95" width="0.713" height="3.652"/>
		<rect x="93.21" y="867.44" fill="#F9CE95" width="0.713" height="3.652"/>
	</g>
	<g>
		<path fill="#EAC38C" d="M261.514,917.876l-17.575,0.293L111.413,541.217c-1.398-3.987,0.77-8.322,4.836-9.689l0,0
			c4.08-1.366,8.516,0.753,9.915,4.726L261.514,917.876z"/>
		
			<ellipse fill="none" stroke="#FEF2E4" stroke-width="2.7488" stroke-miterlimit="10" cx="118.717" cy="537.732" rx="224.167" ry="219.062"/>
		
			<ellipse fill="none" stroke="#FEF2E4" stroke-width="2.7488" stroke-miterlimit="10" cx="118.389" cy="537.411" rx="207.177" ry="202.458"/>
		
			<ellipse fill="none" stroke="#FEF2E4" stroke-width="2.7488" stroke-miterlimit="10" cx="118.389" cy="537.411" rx="188.218" ry="183.931"/>
		<path fill="#6398A8" d="M-6.408,728.913c6.721-3.792,14.803-2.407,18.053,3.094c3.25,5.501,0.436,13.034-6.284,16.826
			s-14.803,2.407-18.053-3.094C-15.942,740.238-13.128,732.705-6.408,728.913z"/>
		<ellipse fill="#6398A8" cx="118.389" cy="768.922" rx="14.051" ry="11.501"/>
		<path fill="#6398A8" d="M223.404,738.381c0.404-6.34,7.01-11.097,14.756-10.626s13.698,5.992,13.294,12.332
			c-0.404,6.34-7.01,11.097-14.756,10.626S223,744.72,223.404,738.381z"/>
		<ellipse fill="#6398A8" cx="324.581" cy="654.247" rx="14.051" ry="11.501"/>
		<ellipse fill="#6398A8" cx="356.622" cy="538.053" rx="14.051" ry="11.501"/>
		<ellipse fill="#6398A8" cx="324.91" cy="421.761" rx="14.051" ry="11.501"/>
		<path fill="#6398A8" d="M237.029,325.114c7.736-0.6,14.425,4.047,14.939,10.379s-5.341,11.952-13.077,12.551
			c-7.736,0.6-14.425-4.047-14.939-10.379C223.438,331.334,229.293,325.714,237.029,325.114z"/>
		<ellipse fill="#6398A8" cx="119.045" cy="306.528" rx="14.051" ry="11.501"/>
		<path fill="#6398A8" d="M-13.881,335.541c0.933-6.286,7.914-10.499,15.594-9.411s13.149,7.066,12.216,13.352
			s-7.914,10.499-15.594,9.411S-14.813,341.827-13.881,335.541z"/>
		<polyline fill="none" stroke="#FEF2E4" stroke-width="1.3744" stroke-miterlimit="10" points="118.389,353.466 118.389,537.411 
			23.053,379.87 		"/>
		<polyline fill="none" stroke="#FEF2E4" stroke-width="1.3744" stroke-miterlimit="10" points="-69.83,537.411 118.389,537.411 
			-47.29,447.913 		"/>
		<polyline fill="none" stroke="#FEF2E4" stroke-width="1.3744" stroke-miterlimit="10" points="-44.751,630.925 118.389,537.411 
			26.918,698.453 		"/>
		<polyline fill="none" stroke="#FEF2E4" stroke-width="1.3744" stroke-miterlimit="10" points="118.389,721.343 118.389,537.411 
			219.516,691.58 		"/>
		<polyline fill="none" stroke="#FEF2E4" stroke-width="1.3744" stroke-miterlimit="10" points="283.497,625.293 118.389,537.411 
			306.621,537.411 		"/>
		<polyline fill="none" stroke="#FEF2E4" stroke-width="1.3744" stroke-miterlimit="10" points="279.659,443.968 118.389,537.411 
			213.753,378.936 		"/>
		<path fill="#FEF2E4" d="M-25.022,917.876l17.432,0.293l132.526-376.952c1.398-3.987-0.77-8.322-4.836-9.689l0,0
			c-4.08-1.366-8.516,0.753-9.915,4.726L-25.022,917.876z"/>
	</g>
	<polygon fill="#6398A8" points="1381.537,917.821 2449.178,917.821 2444.382,1000 1381.537,1000 	"/>
	<polygon fill="#6398A8" points="-360.317,919.204 822.274,916.873 822.274,1000 -360.317,1000 	"/>
	<rect x="822.274" y="917.821" fill="#6398A8" width="559.263" height="39.926"/>
	<polyline fill="none" stroke="#6398A8" stroke-width="5.1857" stroke-miterlimit="10" points="902.061,995.191 1078.71,958.165 
		1255.359,993.671 	"/>
</g>
<g id="Layer_6">
	<g>
		<g>
			<path fill="none" stroke="#6398A8" stroke-width="6.8182" stroke-miterlimit="10" d="M458.091,986.555
				c0,0,237.324-87.646,364.479-261.888"/>
			
				<line fill="none" stroke="#6398A8" stroke-width="6.8182" stroke-miterlimit="10" x1="786.937" y1="767.169" x2="786.937" y2="985.598"/>
			
				<line fill="none" stroke="#6398A8" stroke-width="6.8182" stroke-miterlimit="10" x1="744.736" y1="808.392" x2="744.736" y2="985.598"/>
			
				<line fill="none" stroke="#6398A8" stroke-width="6.8182" stroke-miterlimit="10" x1="702.523" y1="844.291" x2="702.523" y2="985.598"/>
			
				<line fill="none" stroke="#6398A8" stroke-width="6.8182" stroke-miterlimit="10" x1="660.31" y1="874.868" x2="660.31" y2="985.598"/>
			
				<line fill="none" stroke="#6398A8" stroke-width="6.8182" stroke-miterlimit="10" x1="618.097" y1="901.469" x2="618.097" y2="985.598"/>
			
				<line fill="none" stroke="#6398A8" stroke-width="6.8182" stroke-miterlimit="10" x1="575.884" y1="926.722" x2="575.884" y2="985.598"/>
			
				<line fill="none" stroke="#6398A8" stroke-width="6.8182" stroke-miterlimit="10" x1="533.81" y1="951.99" x2="533.684" y2="985.598"/>
			<path fill="none" stroke="#6398A8" stroke-width="6.8182" stroke-miterlimit="10" d="M823.085,771.158
				c0,0-108.005,147.587-300.436,216.731"/>
		</g>
		
			<rect x="933.569" y="708.658" fill="none" stroke="#6398A8" stroke-width="8.1279" stroke-miterlimit="10" width="327.752" height="27.922"/>
		<g>
			<path fill="none" stroke="#6398A8" stroke-width="6.8182" stroke-miterlimit="10" d="M1730.08,986.555
				c0,0-237.324-87.646-364.479-261.888"/>
			
				<line fill="none" stroke="#6398A8" stroke-width="6.8182" stroke-miterlimit="10" x1="1401.221" y1="767.169" x2="1401.221" y2="985.598"/>
			
				<line fill="none" stroke="#6398A8" stroke-width="6.8182" stroke-miterlimit="10" x1="1443.434" y1="808.392" x2="1443.434" y2="985.598"/>
			
				<line fill="none" stroke="#6398A8" stroke-width="6.8182" stroke-miterlimit="10" x1="1485.647" y1="844.291" x2="1485.647" y2="985.598"/>
			
				<line fill="none" stroke="#6398A8" stroke-width="6.8182" stroke-miterlimit="10" x1="1527.86" y1="874.868" x2="1527.86" y2="985.598"/>
			
				<line fill="none" stroke="#6398A8" stroke-width="6.8182" stroke-miterlimit="10" x1="1570.061" y1="901.469" x2="1570.061" y2="985.598"/>
			
				<line fill="none" stroke="#6398A8" stroke-width="6.8182" stroke-miterlimit="10" x1="1612.274" y1="926.722" x2="1612.274" y2="985.598"/>
			
				<line fill="none" stroke="#6398A8" stroke-width="6.8182" stroke-miterlimit="10" x1="1654.348" y1="951.99" x2="1654.487" y2="985.598"/>
			<path fill="none" stroke="#6398A8" stroke-width="6.8182" stroke-miterlimit="10" d="M1361.877,771.158
				c0,0,108.005,147.587,300.436,216.731"/>
		</g>
		<polyline fill="none" stroke="#6398A8" stroke-width="3.9468" stroke-miterlimit="10" points="939.747,736.094 964.81,709.237 
			989.383,735.555 1015.793,707.256 1042.379,735.73 1070.135,707.337 1096.419,734.881 1121.181,708.375 1144.496,733.332 
			1166.967,709.264 1192.144,736.216 1215.383,708.658 1236.282,734.154 1256.351,712.646 		"/>
		<rect x="1250.148" y="674.092" fill="#EAC38C" width="121.669" height="424.163"/>
		<rect x="819.361" y="674.092" fill="#EAC38C" width="121.669" height="425.484"/>
		<polygon fill="#6398A8" points="823.085,676.087 880.183,614.92 937.922,676.747 		"/>
		<polygon fill="#6398A8" points="1255.118,676.087 1312.228,614.92 1369.955,676.747 		"/>
		<polygon fill="#F9D395" points="828.043,676.747 819.361,676.747 823.639,655.482 		"/>
		<polygon fill="#F9D395" points="941.018,676.747 932.336,676.747 936.614,655.482 		"/>
		<polygon fill="#F9D395" points="1258.842,676.747 1250.148,676.747 1254.426,655.482 		"/>
		<polygon fill="#F9D395" points="1371.817,676.747 1363.123,676.747 1367.401,655.482 		"/>
		<polygon fill="#FEF2E4" points="869.01,676.747 870.256,662.126 878.95,647.505 887.632,662.126 888.877,676.747 		"/>
		<polygon fill="#6398A8" points="1083.787,709.992 1085.033,695.37 1093.727,680.736 1102.408,695.37 1103.654,709.992 		"/>
		<polygon fill="#FEF2E4" points="1302.288,676.747 1303.534,662.126 1312.228,647.505 1320.91,662.126 1322.155,676.747 		"/>
		<g>
			<rect x="846.488" y="711.326" fill="#FEF2E4" width="5.322" height="26.588"/>
			<rect x="871.325" y="711.326" fill="#FEF2E4" width="5.322" height="26.588"/>
			<rect x="881.957" y="711.326" fill="#FEF2E4" width="5.322" height="26.588"/>
			<rect x="908.568" y="711.326" fill="#FEF2E4" width="5.322" height="26.588"/>
		</g>
		<g>
			<rect x="846.488" y="777.802" fill="#FEF2E4" width="5.322" height="26.588"/>
			<rect x="871.325" y="777.802" fill="#FEF2E4" width="5.322" height="26.588"/>
			<rect x="881.957" y="777.802" fill="#FEF2E4" width="5.322" height="26.588"/>
			<rect x="908.568" y="777.802" fill="#FEF2E4" width="5.322" height="26.588"/>
		</g>
		<g>
			<rect x="846.488" y="844.291" fill="#FEF2E4" width="5.322" height="26.588"/>
			<rect x="871.325" y="844.291" fill="#FEF2E4" width="5.322" height="26.588"/>
			<rect x="881.957" y="844.291" fill="#FEF2E4" width="5.322" height="26.588"/>
			<rect x="908.568" y="844.291" fill="#FEF2E4" width="5.322" height="26.588"/>
		</g>
		<g>
			<rect x="846.488" y="910.767" fill="#FEF2E4" width="5.322" height="26.588"/>
			<rect x="871.325" y="910.767" fill="#FEF2E4" width="5.322" height="26.588"/>
			<rect x="881.957" y="910.767" fill="#FEF2E4" width="5.322" height="26.588"/>
			<rect x="908.568" y="910.767" fill="#FEF2E4" width="5.322" height="26.588"/>
		</g>
		<g>
			<rect x="1278.521" y="711.326" fill="#FEF2E4" width="5.322" height="26.588"/>
			<rect x="1303.358" y="711.326" fill="#FEF2E4" width="5.322" height="26.588"/>
			<rect x="1314.002" y="711.326" fill="#FEF2E4" width="5.322" height="26.588"/>
			<rect x="1340.601" y="711.326" fill="#FEF2E4" width="5.322" height="26.588"/>
		</g>
		<g>
			<rect x="1278.521" y="777.802" fill="#FEF2E4" width="5.322" height="26.588"/>
			<rect x="1303.358" y="777.802" fill="#FEF2E4" width="5.322" height="26.588"/>
			<rect x="1314.002" y="777.802" fill="#FEF2E4" width="5.322" height="26.588"/>
			<rect x="1340.601" y="777.802" fill="#FEF2E4" width="5.322" height="26.588"/>
		</g>
		<g>
			<rect x="1278.521" y="844.291" fill="#FEF2E4" width="5.322" height="26.588"/>
			<rect x="1303.358" y="844.291" fill="#FEF2E4" width="5.322" height="26.588"/>
			<rect x="1314.002" y="844.291" fill="#FEF2E4" width="5.322" height="26.588"/>
			<rect x="1340.601" y="844.291" fill="#FEF2E4" width="5.322" height="26.588"/>
		</g>
		<g>
			<rect x="1278.521" y="910.767" fill="#FEF2E4" width="5.322" height="26.588"/>
			<rect x="1303.358" y="910.767" fill="#FEF2E4" width="5.322" height="26.588"/>
			<rect x="1314.002" y="910.767" fill="#FEF2E4" width="5.322" height="26.588"/>
			<rect x="1340.601" y="910.767" fill="#FEF2E4" width="5.322" height="26.588"/>
		</g>
		<rect x="819.361" y="675.426" fill="#E0A882" width="121.669" height="3.989"/>
		<rect x="1250.148" y="675.426" fill="#E0A882" width="121.669" height="3.989"/>
		<rect x="819.361" y="744.84" fill="#E0A882" width="121.669" height="3.989"/>
		<rect x="1250.148" y="744.84" fill="#E0A882" width="121.669" height="3.989"/>
		<rect x="819.361" y="809.995" fill="#E0A882" width="121.669" height="3.989"/>
		<rect x="1250.148" y="809.995" fill="#E0A882" width="121.669" height="3.989"/>
		<rect x="819.361" y="875.151" fill="#E0A882" width="121.669" height="3.989"/>
		<rect x="1250.148" y="875.151" fill="#E0A882" width="121.669" height="3.989"/>
		<rect x="819.361" y="989.223" fill="#E0A882" width="121.669" height="3.989"/>
		<rect x="1250.148" y="989.223" fill="#E0A882" width="121.669" height="3.989"/>
		<rect x="844.186" y="690.048" fill="#FEF2E4" width="69.529" height="6.644"/>
		<rect x="844.186" y="764.515" fill="#FEF2E4" width="69.529" height="6.644"/>
		<rect x="844.186" y="830.991" fill="#FEF2E4" width="69.529" height="6.644"/>
		<rect x="844.186" y="898.801" fill="#FEF2E4" width="69.529" height="6.644"/>
		<rect x="1274.972" y="690.048" fill="#FEF2E4" width="69.529" height="6.644"/>
		<rect x="1274.972" y="764.515" fill="#FEF2E4" width="69.529" height="6.644"/>
		<rect x="1274.972" y="830.991" fill="#FEF2E4" width="69.529" height="6.644"/>
		<rect x="1274.972" y="898.801" fill="#FEF2E4" width="69.529" height="6.644"/>
		<path fill="#EAC38C" d="M957.777,1118.86H805.08V998.724c0-3.409,2.579-6.172,5.763-6.172h141.171
			c3.183,0,5.763,2.763,5.763,6.172L957.777,1118.86L957.777,1118.86z"/>
		<path fill="#EAC38C" d="M1385.469,1119.534h-152.697V999.936c0-3.706,2.806-6.711,6.266-6.711h140.165
			c3.46,0,6.266,3.005,6.266,6.711V1119.534L1385.469,1119.534z"/>
		<path opacity="0.4" fill="#FCECDE" d="M958.092,1115.383v-109.868c0-7.021-5.31-12.708-11.865-12.708h-5.222l-0.075-2.587V678.984
			h-8.543l-0.063-2.237l-0.83,2.237h-4.278V690.6L816.065,991.945v127.521h142.581L958.092,1115.383z"/>
		<path opacity="0.4" fill="#FCECDE" d="M1387.607,1115.383v-109.868c0-7.021-5.31-12.708-11.865-12.708h-5.222l-0.075-2.587
			V678.984h-8.543l-0.063-2.237l-0.83,2.237h-4.291V690.6l-111.151,301.345v127.521h142.581L1387.607,1115.383z"/>
		<polygon fill="#FEF2E4" points="879.68,614.799 927.366,679.253 940.93,679.321 		"/>
		<polygon fill="#FEF2E4" points="1312.228,614.799 1359.914,679.253 1373.465,679.321 		"/>
	</g>
</g>
</svg>
