<?xml version="1.0" encoding="utf-8"?>
<!-- Generator: Adobe Illustrator 17.0.0, SVG Export Plug-In . SVG Version: 6.00 Build 0)  -->
<!DOCTYPE svg PUBLIC "-//W3C//DTD SVG 1.1//EN" "http://www.w3.org/Graphics/SVG/1.1/DTD/svg11.dtd">
<svg version="1.1" id="Layer_1" xmlns="http://www.w3.org/2000/svg" xmlns:xlink="http://www.w3.org/1999/xlink" x="0px" y="0px"
	 width="700px" height="375px" viewBox="0 0 700 375" enable-background="new 0 0 700 375" xml:space="preserve">
<g id="background_แค่แถวบน">
</g>
<g id="Layer_1_1_">
</g>
<g id="text">
</g>
<g id="ปุ่มซ้ายขวา" display="none">
</g>
<g id="ชื่อประเทศ" display="none">
</g>
<g id="Layer_5">
</g>
<g id="รถในหลวง" display="none">
</g>
<g id="Layer_6">
	<g>
		<rect x="219.437" y="230.09" fill="#E0A882" width="52.668" height="1.612"/>
		<rect x="405.915" y="230.09" fill="#E0A882" width="52.668" height="1.612"/>
		<path fill="#EAC38C" d="M279.354,282.486h-66.099V233.93c0-1.378,1.117-2.495,2.495-2.495h61.11c1.378,0,2.495,1.117,2.495,2.495
			L279.354,282.486L279.354,282.486z"/>
		<path fill="#EAC38C" d="M464.492,282.758h-66.099V234.42c0-1.498,1.215-2.712,2.712-2.712h60.674c1.498,0,2.712,1.215,2.712,2.712
			L464.492,282.758L464.492,282.758z"/>
	</g>
</g>
<path opacity="0.4" fill="#FCECDE" d="M278.868,237.015c0-2.818-2.222-5.101-4.965-5.101h-2.185l-0.032-1.039V229h-51.263
	l-0.987,2.568v51.19H279.1l-0.232-1.639V237.015z"/>
<path opacity="0.4" fill="#FCECDE" d="M465.347,238.369c0-2.818-2.222-5.101-4.965-5.101h-2.185l-0.032-1.039v-1.875h-51.263
	l-0.987,2.568v51.19h59.663l-0.232-1.639V238.369z"/>
</svg>
