<?xml version="1.0" encoding="utf-8"?>
<!-- Generator: Adobe Illustrator 17.0.0, SVG Export Plug-In . SVG Version: 6.00 Build 0)  -->
<!DOCTYPE svg PUBLIC "-//W3C//DTD SVG 1.1//EN" "http://www.w3.org/Graphics/SVG/1.1/DTD/svg11.dtd">
<svg version="1.1" id="Layer_1" xmlns="http://www.w3.org/2000/svg" xmlns:xlink="http://www.w3.org/1999/xlink" x="0px" y="0px"
	 width="700px" height="375px" viewBox="0 0 700 375" enable-background="new 0 0 700 375" xml:space="preserve">
<g id="background_แค่แถวบน">
</g>
<g id="text">
</g>
<g id="ปุ่มซ้ายขวา" display="none">
</g>
<g id="ชื่อประเทศ" display="none">
</g>
<g id="Layer_5">
</g>
<g id="รถในหลวง" display="none">
</g>
<path fill="#9797C6" d="M346.486,27.844h-15.927c0.08-0.271,0.125-0.556,0.125-0.854c0-1.653-1.34-2.99-2.99-2.99h-52.962
	c-1.653,0-2.99,1.34-2.99,2.99c0,1.653,1.34,2.99,2.99,2.99h15.927c-0.08,0.271-0.125,0.556-0.125,0.854
	c0,0.458,0.108,0.892,0.292,1.281h-34.885c-1.653,0-2.99,1.337-2.99,2.99c0,1.653,1.34,2.99,2.99,2.99h52.962
	c1.653,0,2.99-1.34,2.99-2.99c0-0.458-0.108-0.892-0.292-1.281h34.885c1.653,0,2.99-1.34,2.99-2.99S348.139,27.844,346.486,27.844z"
	/>
<path fill="#9797C6" d="M450.872,26.903h-9.253c0.007-0.087,0.014-0.17,0.014-0.257c0-1.858-1.507-3.361-3.361-3.361H387.58
	c-1.858,0-3.361,1.507-3.361,3.361s1.507,3.361,3.361,3.361h15.264c0,0.024-0.003,0.049-0.003,0.073v0.375
	c0,0.594,0.167,1.149,0.451,1.625h-8.74c-1.42,0-2.573,1.153-2.573,2.573v1.58c0,1.42,1.153,2.573,2.573,2.573h28.476
	c1.42,0,2.573-1.153,2.573-2.573v-1.58c0-0.365-0.076-0.708-0.212-1.021h25.486c1.754,0,3.174-1.42,3.174-3.174v-0.375
	C454.049,28.323,452.625,26.903,450.872,26.903z"/>
</svg>
