<?xml version="1.0" encoding="utf-8"?>
<!-- Generator: Adobe Illustrator 21.0.0, SVG Export Plug-In . SVG Version: 6.00 Build 0)  -->
<svg version="1.1" id="Layer_1" xmlns="http://www.w3.org/2000/svg" xmlns:xlink="http://www.w3.org/1999/xlink" x="0px" y="0px"
	 viewBox="0 0 1920 598" style="enable-background:new 0 0 1920 598;" xml:space="preserve">
<style type="text/css">
	.st0{clip-path:url(#SVGID_2_);fill:url(#SVGID_3_);}
	.st1{clip-path:url(#SVGID_5_);}
	.st2{fill:#FFFFFF;}
	.st3{fill:url(#SVGID_6_);}
	.st4{opacity:0.53;fill:url(#SVGID_7_);enable-background:new    ;}
	.st5{opacity:0.53;fill:url(#SVGID_8_);enable-background:new    ;}
	.st6{opacity:0.53;}
	.st7{fill:url(#SVGID_9_);}
	.st8{fill:#B58D76;}
	.st9{fill:#525B52;}
	.st10{fill:#E8E8D6;}
	.st11{fill:#C97378;}
	.st12{opacity:0.18;fill:#6874D6;enable-background:new    ;}
	.st13{fill:#FFEB99;}
	.st14{fill:none;stroke:#C97378;stroke-width:7.3159;stroke-linecap:round;stroke-linejoin:round;stroke-miterlimit:10;}
	.st15{fill:#E8E8D6;stroke:#C97378;stroke-width:2.7435;stroke-miterlimit:10;}
	.st16{fill:#F7EAC4;}
	.st17{fill:#FFCFCF;}
	.st18{opacity:0.81;}
	.st19{opacity:0.74;}
	.st20{fill:none;stroke:#6B7F6E;stroke-width:7.3159;stroke-linecap:round;stroke-linejoin:round;stroke-miterlimit:10;}
	.st21{fill:#C2CCB0;}
	.st22{fill:#A2B286;}
	.st23{fill:none;stroke:#FFFFFF;stroke-width:0.9145;stroke-miterlimit:10;}
	.st24{fill:none;stroke:#C97378;stroke-width:2.7435;stroke-miterlimit:10;}
	.st25{fill:none;stroke:#FFFFFF;stroke-width:1.829;stroke-miterlimit:10;}
	.st26{fill:#E9F2D1;}
	.st27{fill:#6B7F6E;}
	.st28{fill:#E2EFF7;}
	.st29{fill:none;stroke:#C69254;stroke-width:3.658;stroke-miterlimit:10;}
	.st30{fill:none;stroke:#C69254;stroke-width:3.658;stroke-linecap:round;stroke-miterlimit:10;}
	.st31{fill:#7A523F;}
	.st32{fill:#9ACA98;}
	.st33{fill:#6B5A39;}
	.st34{display:none;}
</style>
<g id="background_แค่แถวบน">
	<g>
		<g>
			<defs>
				<rect id="SVGID_1_" width="1920" height="598"/>
			</defs>
			<clipPath id="SVGID_2_">
				<use xlink:href="#SVGID_1_"  style="overflow:visible;"/>
			</clipPath>
			
				<linearGradient id="SVGID_3_" gradientUnits="userSpaceOnUse" x1="955.3138" y1="671.4013" x2="968.0199" y2="-324.7582" gradientTransform="matrix(1 0 0 -1 0 600)">
				<stop  offset="4.102398e-07" style="stop-color:#9AC69B"/>
				<stop  offset="1" style="stop-color:#67A3B9"/>
			</linearGradient>
			<rect y="1" class="st0" width="1920" height="590"/>
		</g>
		<g>
			<defs>
				<rect id="SVGID_4_" width="1920" height="598"/>
			</defs>
			<clipPath id="SVGID_5_">
				<use xlink:href="#SVGID_4_"  style="overflow:visible;"/>
			</clipPath>
			<g class="st1">
				<path class="st2" d="M929,389.4c0-19.1-16.9-34.6-37.7-34.6c-7.4,0-14.2,2-20,5.3c-1.8-0.7-3.7-1.1-5.8-1.2
					c-2-11.7-13-20.6-26.3-20.6c-3.8,0-7.5,0.8-10.7,2.1c-3.6-9.6-7.7-18.2-22.5-21.6c-17.8-4.1-30.5,7.6-33.1,18.6
					c-3.3-1.4-2.4,3.5-6.3,3.5c-7.3,0-14,2.8-18.7,7.3c-1.8-1.2-3.9-2-6.3-2c-5.8,0-10.4,4.3-10.4,9.6c0,0.1,0,0.2,0,0.4
					c-17,1.8-30.1,15-30.1,31c0,0.9,0,1.7,0.1,2.5c0,0-0.1,0.1-0.1,0.1h0.1H769h84.7h75.3C928.9,389.7,929,389.6,929,389.4
					C929,389.5,929,389.4,929,389.4z"/>
				<path class="st2" d="M1334.2,436.2c0-8-7-14.5-15.7-14.5c-3.1,0-5.9,0.8-8.4,2.2c-0.7-0.3-1.6-0.5-2.4-0.5
					c-0.8-4.9-5.4-8.6-11-8.6c-1.6,0-3.1,0.3-4.5,0.9c-1.5-4-3.2-7.6-9.4-9c-7.5-1.7-12.7,3.2-13.8,7.8c-1.4-0.6-1,1.5-2.6,1.5
					c-3.1,0-5.8,1.2-7.8,3c-0.7-0.5-1.6-0.8-2.6-0.8c-2.4,0-4.3,1.8-4.3,4c0,0,0,0.1,0,0.1c-7.1,0.7-12.6,6.3-12.6,13
					c0,0.4,0,0.7,0.1,1.1c0,0,0,0-0.1,0h0.1h28.3h35.4h31.4C1334.2,436.3,1334.2,436.2,1334.2,436.2
					C1334.2,436.2,1334.2,436.2,1334.2,436.2z"/>
				
					<linearGradient id="SVGID_6_" gradientUnits="userSpaceOnUse" x1="1136.614" y1="17.9364" x2="1136.614" y2="421.5875" gradientTransform="matrix(1 0 0 -1 0 600)">
					<stop  offset="4.101825e-07" style="stop-color:#9CCA7D"/>
					<stop  offset="0.2182" style="stop-color:#C8D286"/>
					<stop  offset="0.4424" style="stop-color:#F0D98E"/>
					<stop  offset="0.5591" style="stop-color:#FFDC91"/>
					<stop  offset="0.716" style="stop-color:#FFE298"/>
					<stop  offset="0.9504" style="stop-color:#FFF4AD"/>
					<stop  offset="1" style="stop-color:#FFF9B2"/>
				</linearGradient>
				<path class="st3" d="M917.2,541.7c0,0-2.8-30.9,31.9-30.9c0,0-11.9-44.9,31.7-45.9c0,0-11.9-26.2,10.9-29
					c22.8-2.8,20.8,10.3,20.8,10.3s-3-58,61.3-73.9s83.1,50.5,77.2,63.6c0,0,19.8-35.6,50.5-18.7c30.7,16.9,23.8,46.8,21.8,47.7
					s17.8-13.1,26.7,0c0,0,7.9,9.4,0,20.6c0,0,24.7-19.7,45.5-7.5s21.8,37.4,21.8,37.4s15.8-12.2,33.6,1.9c0,0,5.3,7.4,5.3,24.2
					L917.2,541.7z"/>
				
					<linearGradient id="SVGID_7_" gradientUnits="userSpaceOnUse" x1="701.1609" y1="369.6624" x2="701.1609" y2="664.6702" gradientTransform="matrix(1 0 0 -1 0 600)">
					<stop  offset="4.101825e-07" style="stop-color:#9CCA7D"/>
					<stop  offset="0.2182" style="stop-color:#C8D286"/>
					<stop  offset="0.4424" style="stop-color:#F0D98E"/>
					<stop  offset="0.5591" style="stop-color:#FFDC91"/>
					<stop  offset="0.716" style="stop-color:#FFE298"/>
					<stop  offset="0.9504" style="stop-color:#FFF4AD"/>
					<stop  offset="1" style="stop-color:#FFF9B2"/>
				</linearGradient>
				<path class="st4" d="M540.8,200.9c0,0-2-22.6,23.3-22.6c0,0-8.7-32.8,23.1-33.5c0,0-8.7-19.2,8-21.2c16.6-2.1,15.2,7.5,15.2,7.5
					s-2.2-42.4,44.8-54.1s60.8,36.9,56.4,46.5c0,0,14.5-26,36.9-13.7s17.4,34.2,15.9,34.9c-1.5,0.7,13-9.6,19.5,0
					c0,0,5.8,6.8,0,15.1c0,0,18.1-14.4,33.3-5.5c15.2,8.9,15.9,27.4,15.9,27.4s11.6-8.9,24.6,1.4c0,0,3.9,5.4,3.9,17.7L540.8,200.9z
					"/>
				
					<linearGradient id="SVGID_8_" gradientUnits="userSpaceOnUse" x1="1421.2961" y1="501.6299" x2="1624.72" y2="501.6299" gradientTransform="matrix(1 0 0 -1 0 600)">
					<stop  offset="4.101825e-07" style="stop-color:#9CCA7D"/>
					<stop  offset="0.2614" style="stop-color:#9FCA7C"/>
					<stop  offset="0.4516" style="stop-color:#A8CB7B"/>
					<stop  offset="0.6194" style="stop-color:#B8CB77"/>
					<stop  offset="0.774" style="stop-color:#CFCD73"/>
					<stop  offset="0.9184" style="stop-color:#EBCE6D"/>
					<stop  offset="1" style="stop-color:#FFCF69"/>
				</linearGradient>
				<path class="st5" d="M1421.3,138.1c0,0-1.3-14.3,14.7-14.3c0,0-5.5-20.8,14.6-21.2c0,0-5.5-12.1,5-13.4s9.6,4.8,9.6,4.8
					s-1.4-26.8,28.3-34.1c29.7-7.3,38.4,23.3,35.6,29.4c0,0,9.1-16.4,23.3-8.6s11,21.6,10.1,22c-0.9,0.4,8.2-6.1,12.3,0
					c0,0,3.7,4.3,0,9.5c0,0,11.4-9.1,21-3.5c9.6,5.6,10.1,17.3,10.1,17.3s7.3-5.6,15.5,0.9c0,0,3.2,2.6,3.2,10.4L1421.3,138.1z"/>
				<g class="st6">
					
						<linearGradient id="SVGID_9_" gradientUnits="userSpaceOnUse" x1="1058.7101" y1="207.1448" x2="1058.7101" y2="456.8727" gradientTransform="matrix(1 0 0 -1 0 600)">
						<stop  offset="4.101825e-07" style="stop-color:#9CCA7D"/>
						<stop  offset="0.2182" style="stop-color:#C8D286"/>
						<stop  offset="0.4424" style="stop-color:#F0D98E"/>
						<stop  offset="0.5591" style="stop-color:#FFDC91"/>
						<stop  offset="0.716" style="stop-color:#FFE298"/>
						<stop  offset="0.9504" style="stop-color:#FFF4AD"/>
						<stop  offset="1" style="stop-color:#FFF9B2"/>
					</linearGradient>
					<path class="st7" d="M1194.5,307.1c0-22.8-20.1-41.2-44.9-41.2c-8.8,0-17,2.3-23.9,6.3c-2.1-0.9-4.4-1.4-6.9-1.4
						c-2.4-13.9-15.5-24.6-31.3-24.6c-4.6,0-8.9,0.9-12.8,2.5c-4.3-11.4-9.2-21.7-26.8-25.7c-21.3-4.9-36.4,9.1-39.5,22.2
						c-3.9-1.6-2.9,4.2-7.5,4.2c-8.7,0-16.6,3.3-22.3,8.7c-2.1-1.5-4.7-2.3-7.5-2.3c-6.9,0-12.4,5.1-12.4,11.4c0,0.1,0,0.3,0,0.4
						c-20.2,2.1-35.9,17.9-35.9,37c0,1,0,2,0.1,3c0,0-0.1,0.1-0.1,0.1h0.2h80.7h101h89.8C1194.5,307.5,1194.5,307.3,1194.5,307.1
						C1194.5,307.1,1194.5,307.1,1194.5,307.1z"/>
				</g>
				<g>
					<g>
						<rect x="507.3" y="369.7" class="st8" width="228.9" height="171.9"/>
					</g>
					<g>
						<polygon class="st9" points="527.5,295.2 501.6,369.7 740,369.7 718.2,294.3 						"/>
					</g>
					<g>
						<g>
							<rect x="545.4" y="385.6" class="st10" width="26.4" height="35.6"/>
							<path class="st11" d="M570.5,386.9v32.9h-23.7v-32.9H570.5 M573.2,384.2h-29.2v38.3h29.2V384.2L573.2,384.2z"/>
						</g>
						<g>
							<rect x="544.1" y="408.7" class="st10" width="29.2" height="2.3"/>
							<polygon class="st11" points="573.2,408.7 544.1,408.7 544.1,411 573.2,411 							"/>
						</g>
						<g>
							<rect x="557.4" y="384.2" class="st10" width="2.5" height="38.3"/>
							<polygon class="st11" points="559.9,384.2 557.4,384.2 557.4,422.5 559.9,422.5 							"/>
						</g>
						<g>
							<rect x="544.1" y="395.7" class="st10" width="29.2" height="2.3"/>
							<polygon class="st11" points="573.2,395.7 544.1,395.7 544.1,398 573.2,398 							"/>
						</g>
					</g>
					<g>
						<g>
							<rect x="608" y="385.6" class="st10" width="26.4" height="35.6"/>
							<path class="st11" d="M633,386.9v32.9h-23.7v-32.9H633 M635.8,384.2h-29.2v38.3h29.2L635.8,384.2L635.8,384.2z"/>
						</g>
						<g>
							<rect x="606.6" y="408.7" class="st10" width="29.2" height="2.3"/>
							<polygon class="st11" points="635.8,408.7 606.6,408.7 606.6,411 635.8,411 							"/>
						</g>
						<g>
							<rect x="619.9" y="384.2" class="st10" width="2.5" height="38.3"/>
							<polygon class="st11" points="622.4,384.2 619.9,384.2 619.9,422.5 622.4,422.5 							"/>
						</g>
						<g>
							<rect x="606.6" y="395.7" class="st10" width="29.2" height="2.3"/>
							<polygon class="st11" points="635.8,395.7 606.6,395.7 606.6,398 635.8,398 							"/>
						</g>
					</g>
					<g>
						<g>
							<rect x="670.5" y="385.6" class="st10" width="26.4" height="35.6"/>
							<path class="st11" d="M695.6,386.9v32.9h-23.7v-32.9H695.6 M698.3,384.2h-29.2v38.3h29.2V384.2L698.3,384.2z"/>
						</g>
						<g>
							<rect x="669.1" y="408.7" class="st10" width="29.2" height="2.3"/>
							<polygon class="st11" points="698.3,408.7 669.1,408.7 669.1,411 698.3,411 							"/>
						</g>
						<g>
							<rect x="682.5" y="384.2" class="st10" width="2.5" height="38.3"/>
							<polygon class="st11" points="685,384.2 682.5,384.2 682.5,422.5 685,422.5 							"/>
						</g>
						<g>
							<rect x="669.1" y="395.7" class="st10" width="29.2" height="2.3"/>
							<polygon class="st11" points="698.3,395.7 669.1,395.7 669.1,398 698.3,398 							"/>
						</g>
					</g>
					<g>
						<g>
							<rect x="545.8" y="441.2" class="st10" width="26.4" height="35.6"/>
							<path class="st11" d="M570.9,442.5v32.9h-23.7v-32.9H570.9 M573.7,439.8h-29.2v38.3h29.2V439.8L573.7,439.8z"/>
						</g>
						<g>
							<rect x="544.5" y="464.3" class="st10" width="29.2" height="2.3"/>
							<polygon class="st11" points="573.7,464.3 544.5,464.3 544.5,466.6 573.7,466.6 							"/>
						</g>
						<g>
							<rect x="557.8" y="439.8" class="st10" width="2.5" height="38.3"/>
							<polygon class="st11" points="560.3,439.8 557.8,439.8 557.8,478.1 560.3,478.1 							"/>
						</g>
						<g>
							<rect x="544.5" y="451.3" class="st10" width="29.2" height="2.3"/>
							<polygon class="st11" points="573.7,451.3 544.5,451.3 544.5,453.6 573.7,453.6 							"/>
						</g>
					</g>
					<g>
						<g>
							<rect x="607.4" y="441.2" class="st10" width="26.4" height="35.6"/>
							<path class="st11" d="M632.5,442.5v32.9h-23.7v-32.9H632.5 M635.3,439.8h-29.2v38.3h29.2V439.8L635.3,439.8z"/>
						</g>
						<g>
							<rect x="606.1" y="464.3" class="st10" width="29.2" height="2.3"/>
							<polygon class="st11" points="635.3,464.3 606.1,464.3 606.1,466.6 635.3,466.6 							"/>
						</g>
						<g>
							<rect x="619.4" y="439.8" class="st10" width="2.5" height="38.3"/>
							<polygon class="st11" points="621.9,439.8 619.4,439.8 619.4,478.1 621.9,478.1 							"/>
						</g>
						<g>
							<rect x="606.1" y="451.3" class="st10" width="29.2" height="2.3"/>
							<polygon class="st11" points="635.3,451.3 606.1,451.3 606.1,453.6 635.3,453.6 							"/>
						</g>
					</g>
					<g>
						<g>
							<rect x="670" y="441.2" class="st10" width="26.4" height="35.6"/>
							<path class="st11" d="M695,442.5v32.9h-23.7v-32.9H695 M697.8,439.8h-29.2v38.3h29.2L697.8,439.8L697.8,439.8z"/>
						</g>
						<g>
							<rect x="668.6" y="464.3" class="st10" width="29.2" height="2.3"/>
							<polygon class="st11" points="697.8,464.3 668.6,464.3 668.6,466.6 697.8,466.6 							"/>
						</g>
						<g>
							<rect x="681.9" y="439.8" class="st10" width="2.5" height="38.3"/>
							<polygon class="st11" points="684.4,439.8 681.9,439.8 681.9,478.1 684.4,478.1 							"/>
						</g>
						<g>
							<rect x="668.6" y="451.3" class="st10" width="29.2" height="2.3"/>
							<polygon class="st11" points="697.8,451.3 668.6,451.3 668.6,453.6 697.8,453.6 							"/>
						</g>
					</g>
					<g>
						<g>
							<rect x="546.3" y="496.8" class="st10" width="26.4" height="35.6"/>
							<path class="st11" d="M571.3,498.1V531h-23.7v-32.9L571.3,498.1 M574.1,495.4h-29.2v38.3h29.2V495.4L574.1,495.4z"/>
						</g>
						<g>
							<rect x="544.9" y="519.9" class="st10" width="29.2" height="2.3"/>
							<polygon class="st11" points="574.1,519.9 544.9,519.9 544.9,522.2 574.1,522.2 							"/>
						</g>
						<g>
							<rect x="558.2" y="495.4" class="st10" width="2.5" height="38.3"/>
							<polygon class="st11" points="560.7,495.4 558.2,495.4 558.2,533.7 560.7,533.7 							"/>
						</g>
						<g>
							<rect x="544.9" y="506.9" class="st10" width="29.2" height="2.3"/>
							<polygon class="st11" points="574.1,506.9 544.9,506.9 544.9,509.2 574.1,509.2 							"/>
						</g>
					</g>
					<g>
						<g>
							<rect x="670.4" y="496.8" class="st10" width="26.4" height="35.6"/>
							<path class="st11" d="M695.5,498.1V531h-23.7v-32.9L695.5,498.1 M698.2,495.4H669v38.3h29.2V495.4L698.2,495.4z"/>
						</g>
						<g>
							<rect x="669" y="519.9" class="st10" width="29.2" height="2.3"/>
							<polygon class="st11" points="698.2,519.9 669,519.9 669,522.2 698.2,522.2 							"/>
						</g>
						<g>
							<rect x="682.4" y="495.4" class="st10" width="2.5" height="38.3"/>
							<polygon class="st11" points="684.9,495.4 682.4,495.4 682.4,533.7 684.9,533.7 							"/>
						</g>
						<g>
							<rect x="669" y="506.9" class="st10" width="29.2" height="2.3"/>
							<polygon class="st11" points="698.2,506.9 669,506.9 669,509.2 698.2,509.2 							"/>
						</g>
					</g>
					<path class="st9" d="M641.3,541.2h-39.1v-26.8c0-10.4,8.4-18.8,18.8-18.8h1.6c10.3,0,18.8,8.4,18.8,18.8L641.3,541.2
						L641.3,541.2z"/>
					<polygon class="st12" points="553.6,295.1 581.1,369.7 602.2,369.7 657.6,541.6 735.8,541.6 736.2,369.7 739.6,369.3 
						718.6,293.9 					"/>
					<g>
						<polygon class="st13" points="801.1,311 736.2,397.8 736.2,541.6 862.1,541.6 862.1,397.8 						"/>
					</g>
					<g>
						<g>
							<rect x="760.6" y="404.3" class="st10" width="26.4" height="35.6"/>
							<path class="st11" d="M785.6,405.7v32.9h-23.7v-32.9H785.6 M788.4,403h-29.2v38.3h29.2V403L788.4,403z"/>
						</g>
						<g>
							<rect x="759.2" y="427.5" class="st10" width="29.2" height="2.3"/>
							<polygon class="st11" points="788.4,427.5 759.2,427.5 759.2,429.8 788.4,429.8 							"/>
						</g>
						<g>
							<rect x="772.5" y="403" class="st10" width="2.5" height="38.3"/>
							<polygon class="st11" points="775,403 772.5,403 772.5,441.3 775,441.3 							"/>
						</g>
						<g>
							<rect x="759.2" y="414.5" class="st10" width="29.2" height="2.3"/>
							<polygon class="st11" points="788.4,414.5 759.2,414.5 759.2,416.8 788.4,416.8 							"/>
						</g>
					</g>
					<g>
						<g>
							<rect x="812.1" y="404.3" class="st10" width="26.4" height="35.6"/>
							<path class="st11" d="M837.1,405.7v32.9h-23.7v-32.9H837.1 M839.9,403h-29.2v38.3h29.2V403L839.9,403z"/>
						</g>
						<g>
							<rect x="810.7" y="427.5" class="st10" width="29.2" height="2.3"/>
							<polygon class="st11" points="839.9,427.5 810.7,427.5 810.7,429.8 839.9,429.8 							"/>
						</g>
						<g>
							<rect x="824" y="403" class="st10" width="2.5" height="38.3"/>
							<polygon class="st11" points="826.5,403 824,403 824,441.3 826.5,441.3 							"/>
						</g>
						<g>
							<rect x="810.7" y="414.5" class="st10" width="29.2" height="2.3"/>
							<polygon class="st11" points="839.9,414.5 810.7,414.5 810.7,416.8 839.9,416.8 							"/>
						</g>
					</g>
					<g>
						<g>
							<rect x="760.6" y="457" class="st10" width="26.4" height="35.6"/>
							<path class="st11" d="M785.6,458.3v32.9h-23.7v-32.9H785.6 M788.4,455.6h-29.2v38.3h29.2V455.6L788.4,455.6z"/>
						</g>
						<g>
							<rect x="759.2" y="480.1" class="st10" width="29.2" height="2.3"/>
							<polygon class="st11" points="788.4,480.1 759.2,480.1 759.2,482.4 788.4,482.4 							"/>
						</g>
						<g>
							<rect x="772.5" y="455.6" class="st10" width="2.5" height="38.3"/>
							<polygon class="st11" points="775,455.6 772.5,455.6 772.5,493.9 775,493.9 							"/>
						</g>
						<g>
							<rect x="759.2" y="467.1" class="st10" width="29.2" height="2.3"/>
							<polygon class="st11" points="788.4,467.1 759.2,467.1 759.2,469.4 788.4,469.4 							"/>
						</g>
					</g>
					<g>
						<g>
							<rect x="812.1" y="457" class="st10" width="26.4" height="35.6"/>
							<path class="st11" d="M837.1,458.3v32.9h-23.7v-32.9H837.1 M839.9,455.6h-29.2v38.3h29.2V455.6L839.9,455.6z"/>
						</g>
						<g>
							<rect x="810.7" y="480.1" class="st10" width="29.2" height="2.3"/>
							<polygon class="st11" points="839.9,480.1 810.7,480.1 810.7,482.4 839.9,482.4 							"/>
						</g>
						<g>
							<rect x="824" y="455.6" class="st10" width="2.5" height="38.3"/>
							<polygon class="st11" points="826.5,455.6 824,455.6 824,493.9 826.5,493.9 							"/>
						</g>
						<g>
							<rect x="810.7" y="467.1" class="st10" width="29.2" height="2.3"/>
							<polygon class="st11" points="839.9,467.1 810.7,467.1 810.7,469.4 839.9,469.4 							"/>
						</g>
					</g>
					<polyline class="st14" points="865,397.8 801.1,307.5 733.4,397.8 					"/>
					<polygon class="st12" points="766.3,360.7 810.6,540.7 862.1,540.7 862.1,399.5 801.3,314 					"/>
				</g>
				<rect x="792" y="368.4" class="st15" width="14.3" height="21"/>
				<rect x="405.3" y="285.5" class="st16" width="28.6" height="21"/>
				<g>
					<g>
						<rect x="1111.1" y="356.3" class="st17" width="245.5" height="184.4"/>
					</g>
					<g>
						<rect x="1356.6" y="386.4" class="st11" width="135" height="154.3"/>
					</g>
					<g>
						<polygon class="st11" points="1132.6,276.3 1104.9,356.3 1360.7,356.3 1337.2,275.4 						"/>
					</g>
					<g>
						<polygon class="st11" points="1426.2,293.2 1356.6,386.4 1491.6,386.4 						"/>
					</g>
					<g class="st18">
						<g>
							<rect x="1151.8" y="373.1" class="st10" width="28.6" height="38.4"/>
							<path class="st9" d="M1179,374.5v35.6h-25.8v-35.6H1179 M1181.8,371.8h-31.3v41.1h31.3V371.8L1181.8,371.8z"/>
						</g>
						<g>
							<rect x="1150.4" y="398.1" class="st10" width="31.3" height="2.5"/>
							<polygon class="st9" points="1181.8,398.1 1150.4,398.1 1150.4,400.6 1181.8,400.6 							"/>
						</g>
						<g>
							<rect x="1164.8" y="371.8" class="st10" width="2.7" height="41.1"/>
							<polygon class="st9" points="1167.4,371.8 1164.8,371.8 1164.8,412.9 1167.4,412.9 							"/>
						</g>
						<g>
							<rect x="1150.4" y="384.1" class="st10" width="31.3" height="2.5"/>
							<polygon class="st9" points="1181.8,384.1 1150.4,384.1 1150.4,386.6 1181.8,386.6 							"/>
						</g>
					</g>
					<g class="st18">
						<g>
							<rect x="1218.9" y="373.1" class="st10" width="28.6" height="38.4"/>
							<path class="st9" d="M1246.1,374.5v35.6h-25.8v-35.6H1246.1 M1248.8,371.8h-31.3v41.1h31.3V371.8L1248.8,371.8z"/>
						</g>
						<g>
							<rect x="1217.5" y="398.1" class="st10" width="31.3" height="2.5"/>
							<polygon class="st9" points="1248.8,398.1 1217.5,398.1 1217.5,400.6 1248.8,400.6 							"/>
						</g>
						<g>
							<rect x="1231.8" y="371.8" class="st10" width="2.7" height="41.1"/>
							<polygon class="st9" points="1234.5,371.8 1231.8,371.8 1231.8,412.9 1234.5,412.9 							"/>
						</g>
						<g>
							<rect x="1217.5" y="384.1" class="st10" width="31.3" height="2.5"/>
							<polygon class="st9" points="1248.8,384.1 1217.5,384.1 1217.5,386.6 1248.8,386.6 							"/>
						</g>
					</g>
					<g class="st18">
						<g>
							<rect x="1286" y="373.1" class="st10" width="28.6" height="38.4"/>
							<path class="st9" d="M1313.2,374.5v35.6h-25.8v-35.6H1313.2 M1315.9,371.8h-31.3v41.1h31.3V371.8L1315.9,371.8z"/>
						</g>
						<g>
							<rect x="1284.6" y="398.1" class="st10" width="31.3" height="2.5"/>
							<polygon class="st9" points="1315.9,398.1 1284.6,398.1 1284.6,400.6 1315.9,400.6 							"/>
						</g>
						<g>
							<rect x="1298.9" y="371.8" class="st10" width="2.7" height="41.1"/>
							<polygon class="st9" points="1301.6,371.8 1298.9,371.8 1298.9,412.9 1301.6,412.9 							"/>
						</g>
						<g>
							<rect x="1284.6" y="384.1" class="st10" width="31.3" height="2.5"/>
							<polygon class="st9" points="1315.9,384.1 1284.6,384.1 1284.6,386.6 1315.9,386.6 							"/>
						</g>
					</g>
					<g class="st18">
						<g>
							<rect x="1152.3" y="432.8" class="st10" width="28.6" height="38.4"/>
							<path class="st9" d="M1179.5,434.1v35.6h-25.8v-35.6H1179.5 M1182.2,431.4h-31.3v41.1h31.3V431.4L1182.2,431.4z"/>
						</g>
						<g>
							<rect x="1150.9" y="457.7" class="st10" width="31.3" height="2.5"/>
							<polygon class="st9" points="1182.2,457.7 1150.9,457.7 1150.9,460.2 1182.2,460.2 							"/>
						</g>
						<g>
							<rect x="1165.2" y="431.4" class="st10" width="2.7" height="41.1"/>
							<polygon class="st9" points="1167.9,431.4 1165.2,431.4 1165.2,472.5 1167.9,472.5 							"/>
						</g>
						<g>
							<rect x="1150.9" y="443.7" class="st10" width="31.3" height="2.5"/>
							<polygon class="st9" points="1182.2,443.7 1150.9,443.7 1150.9,446.2 1182.2,446.2 							"/>
						</g>
					</g>
					<g class="st19">
						<g>
							<rect x="1218.3" y="432.8" class="st10" width="28.6" height="38.4"/>
							<path class="st9" d="M1245.5,434.1v35.6h-25.8v-35.6H1245.5 M1248.3,431.4H1217v41.1h31.3V431.4L1248.3,431.4z"/>
						</g>
						<g>
							<rect x="1217" y="457.7" class="st10" width="31.3" height="2.5"/>
							<polygon class="st9" points="1248.3,457.7 1217,457.7 1217,460.2 1248.3,460.2 							"/>
						</g>
						<g>
							<rect x="1231.3" y="431.4" class="st10" width="2.7" height="41.1"/>
							<polygon class="st9" points="1233.9,431.4 1231.3,431.4 1231.3,472.5 1233.9,472.5 							"/>
						</g>
						<g>
							<rect x="1217" y="443.7" class="st10" width="31.3" height="2.5"/>
							<polygon class="st9" points="1248.3,443.7 1217,443.7 1217,446.2 1248.3,446.2 							"/>
						</g>
					</g>
					<g class="st18">
						<g>
							<rect x="1285.4" y="432.8" class="st10" width="28.6" height="38.4"/>
							<path class="st9" d="M1312.6,434.1v35.6h-25.8v-35.6H1312.6 M1315.3,431.4H1284v41.1h31.3V431.4L1315.3,431.4z"/>
						</g>
						<g>
							<rect x="1284.1" y="457.7" class="st10" width="31.3" height="2.5"/>
							<polygon class="st9" points="1315.3,457.7 1284.1,457.7 1284.1,460.2 1315.3,460.2 							"/>
						</g>
						<g>
							<rect x="1298.4" y="431.4" class="st10" width="2.7" height="41.1"/>
							<polygon class="st9" points="1301,431.4 1298.4,431.4 1298.4,472.5 1301,472.5 							"/>
						</g>
						<g>
							<rect x="1284.1" y="443.7" class="st10" width="31.3" height="2.5"/>
							<polygon class="st9" points="1315.3,443.7 1284.1,443.7 1284.1,446.2 1315.3,446.2 							"/>
						</g>
					</g>
					<g>
						<g>
							<rect x="1382.6" y="393.3" class="st10" width="28.6" height="38.4"/>
							<path class="st9" d="M1409.8,394.6v35.6H1384v-35.6H1409.8 M1412.5,391.9h-31.3V433h31.3V391.9L1412.5,391.9z"/>
						</g>
						<g>
							<rect x="1381.2" y="418.2" class="st10" width="31.3" height="2.5"/>
							<polygon class="st9" points="1412.5,418.2 1381.2,418.2 1381.2,420.7 1412.5,420.7 							"/>
						</g>
						<g>
							<rect x="1395.5" y="391.9" class="st10" width="2.7" height="41.1"/>
							<polygon class="st9" points="1398.2,391.9 1395.5,391.9 1395.5,433 1398.2,433 							"/>
						</g>
						<g>
							<rect x="1381.2" y="404.2" class="st10" width="31.3" height="2.5"/>
							<polygon class="st9" points="1412.5,404.2 1381.2,404.2 1381.2,406.7 1412.5,406.7 							"/>
						</g>
					</g>
					<g>
						<g>
							<rect x="1437.8" y="393.3" class="st10" width="28.6" height="38.4"/>
							<path class="st9" d="M1465,394.6v35.6h-25.8v-35.6H1465 M1467.8,391.9h-31.3V433h31.3V391.9L1467.8,391.9z"/>
						</g>
						<g>
							<rect x="1436.5" y="418.2" class="st10" width="31.3" height="2.5"/>
							<polygon class="st9" points="1467.8,418.2 1436.5,418.2 1436.5,420.7 1467.8,420.7 							"/>
						</g>
						<g>
							<rect x="1450.8" y="391.9" class="st10" width="2.7" height="41.1"/>
							<polygon class="st9" points="1453.5,391.9 1450.8,391.9 1450.8,433 1453.5,433 							"/>
						</g>
						<g>
							<rect x="1436.5" y="404.2" class="st10" width="31.3" height="2.5"/>
							<polygon class="st9" points="1467.8,404.2 1436.5,404.2 1436.5,406.7 1467.8,406.7 							"/>
						</g>
					</g>
					<g>
						<g>
							<rect x="1382.6" y="449.7" class="st10" width="28.6" height="38.4"/>
							<path class="st9" d="M1409.8,451.1v35.6H1384v-35.6L1409.8,451.1 M1412.5,448.3h-31.3v41.1h31.3V448.3L1412.5,448.3z"/>
						</g>
						<g>
							<rect x="1381.2" y="474.6" class="st10" width="31.3" height="2.5"/>
							<polygon class="st9" points="1412.5,474.6 1381.2,474.6 1381.2,477.1 1412.5,477.1 							"/>
						</g>
						<g>
							<rect x="1395.5" y="448.3" class="st10" width="2.7" height="41.1"/>
							<polygon class="st9" points="1398.2,448.3 1395.5,448.3 1395.5,489.5 1398.2,489.5 							"/>
						</g>
						<g>
							<rect x="1381.2" y="460.7" class="st10" width="31.3" height="2.5"/>
							<polygon class="st9" points="1412.5,460.7 1381.2,460.7 1381.2,463.1 1412.5,463.1 							"/>
						</g>
					</g>
					<g>
						<g>
							<rect x="1437.8" y="449.7" class="st10" width="28.6" height="38.4"/>
							<path class="st9" d="M1465,451.1v35.6h-25.8v-35.6L1465,451.1 M1467.8,448.3h-31.3v41.1h31.3V448.3L1467.8,448.3z"/>
						</g>
						<g>
							<rect x="1436.5" y="474.6" class="st10" width="31.3" height="2.5"/>
							<polygon class="st9" points="1467.8,474.6 1436.5,474.6 1436.5,477.1 1467.8,477.1 							"/>
						</g>
						<g>
							<rect x="1450.8" y="448.3" class="st10" width="2.7" height="41.1"/>
							<polygon class="st9" points="1453.5,448.3 1450.8,448.3 1450.8,489.5 1453.5,489.5 							"/>
						</g>
						<g>
							<rect x="1436.5" y="460.7" class="st10" width="31.3" height="2.5"/>
							<polygon class="st9" points="1467.8,460.7 1436.5,460.7 1436.5,463.1 1467.8,463.1 							"/>
						</g>
					</g>
					<g class="st18">
						<g>
							<rect x="1152.7" y="492.4" class="st10" width="28.6" height="38.4"/>
							<path class="st9" d="M1179.9,493.8v35.6h-25.8v-35.6L1179.9,493.8 M1182.7,491h-31.3v41.1h31.3V491L1182.7,491z"/>
						</g>
						<g>
							<rect x="1151.3" y="517.3" class="st10" width="31.3" height="2.5"/>
							<polygon class="st9" points="1182.7,517.3 1151.3,517.3 1151.3,519.8 1182.7,519.8 							"/>
						</g>
						<g>
							<rect x="1165.7" y="491" class="st10" width="2.7" height="41.1"/>
							<polygon class="st9" points="1168.3,491 1165.7,491 1165.7,532.2 1168.3,532.2 							"/>
						</g>
						<g>
							<rect x="1151.3" y="503.4" class="st10" width="31.3" height="2.5"/>
							<polygon class="st9" points="1182.7,503.4 1151.3,503.4 1151.3,505.8 1182.7,505.8 							"/>
						</g>
					</g>
					<g class="st18">
						<g>
							<rect x="1285.9" y="492.4" class="st10" width="28.6" height="38.4"/>
							<path class="st9" d="M1313.1,493.8v35.6h-25.8v-35.6L1313.1,493.8 M1315.8,491h-31.3v41.1h31.3V491L1315.8,491z"/>
						</g>
						<g>
							<rect x="1284.5" y="517.3" class="st10" width="31.3" height="2.5"/>
							<polygon class="st9" points="1315.8,517.3 1284.5,517.3 1284.5,519.8 1315.8,519.8 							"/>
						</g>
						<g>
							<rect x="1298.8" y="491" class="st10" width="2.7" height="41.1"/>
							<polygon class="st9" points="1301.5,491 1298.8,491 1298.8,532.2 1301.5,532.2 							"/>
						</g>
						<g>
							<rect x="1284.5" y="503.4" class="st10" width="31.3" height="2.5"/>
							<polygon class="st9" points="1315.8,503.4 1284.5,503.4 1284.5,505.8 1315.8,505.8 							"/>
						</g>
					</g>
					<path class="st9" d="M1254.8,540.2h-41.9v-28.8c0-11.1,9-20.1,20.1-20.1h1.7c11.1,0,20.1,9,20.1,20.1V540.2z"/>
					<polygon class="st12" points="1160.7,274.9 1190.2,356.3 1212.8,356.3 1272.2,540.6 1356.1,540.6 1356.6,356.3 1360.2,355.8 
						1337.7,274.9 					"/>
					<polyline class="st20" points="1494.7,386.4 1426.2,289.5 1353.5,386.4 					"/>
					<polygon class="st12" points="1387.3,345.2 1436.4,539.7 1491.6,539.7 1491.6,386.4 1424.1,289.5 					"/>
					<g>
						<polygon class="st13" points="1584.8,209.7 1491.9,334.1 1491.9,540 1672.2,540 1672.2,334.1 						"/>
					</g>
					<g>
						<g>
							<rect x="1526.2" y="342.8" class="st10" width="39.1" height="52.2"/>
							<path class="st9" d="M1563.9,344.2v49.4h-36.3v-49.4H1563.9 M1566.6,341.5h-41.8v54.9h41.8V341.5L1566.6,341.5z"/>
						</g>
						<g>
							<rect x="1526.2" y="378" class="st10" width="39.1" height="0.5"/>
							<polygon class="st9" points="1566.6,376.6 1524.8,376.6 1524.8,379.9 1566.6,379.9 							"/>
						</g>
						<g>
							<rect x="1545.3" y="342.8" class="st10" width="0.8" height="52.2"/>
							<polygon class="st9" points="1547.5,341.5 1543.9,341.5 1543.9,396.4 1547.5,396.4 							"/>
						</g>
						<g>
							<rect x="1526.2" y="359.3" class="st10" width="39.1" height="0.5"/>
							<polygon class="st9" points="1566.6,357.9 1524.8,357.9 1524.8,361.2 1566.6,361.2 							"/>
						</g>
					</g>
					<g>
						<g>
							<rect x="1599.9" y="342.8" class="st10" width="39.1" height="52.2"/>
							<path class="st9" d="M1637.6,344.2v49.4h-36.3v-49.4H1637.6 M1640.4,341.5h-41.8v54.9h41.8V341.5L1640.4,341.5z"/>
						</g>
						<g>
							<rect x="1599.9" y="378" class="st10" width="39.1" height="0.5"/>
							<polygon class="st9" points="1640.4,376.6 1598.6,376.6 1598.6,379.9 1640.4,379.9 							"/>
						</g>
						<g>
							<rect x="1619.1" y="342.8" class="st10" width="0.8" height="52.2"/>
							<polygon class="st9" points="1621.3,341.5 1617.7,341.5 1617.7,396.4 1621.3,396.4 							"/>
						</g>
						<g>
							<rect x="1599.9" y="359.3" class="st10" width="39.1" height="0.5"/>
							<polygon class="st9" points="1640.4,357.9 1598.6,357.9 1598.6,361.2 1640.4,361.2 							"/>
						</g>
					</g>
					<g>
						<g>
							<rect x="1526.2" y="418.2" class="st10" width="39.1" height="52.2"/>
							<path class="st9" d="M1563.9,419.6V469h-36.3v-49.4H1563.9 M1566.6,416.8h-41.8v54.9h41.8V416.8L1566.6,416.8z"/>
						</g>
						<g>
							<rect x="1526.2" y="453.3" class="st10" width="39.1" height="0.5"/>
							<polygon class="st9" points="1566.6,452 1524.8,452 1524.8,455.3 1566.6,455.3 							"/>
						</g>
						<g>
							<rect x="1545.3" y="418.2" class="st10" width="0.8" height="52.2"/>
							<polygon class="st9" points="1547.5,416.8 1543.9,416.8 1543.9,471.7 1547.5,471.7 							"/>
						</g>
						<g>
							<rect x="1526.2" y="434.7" class="st10" width="39.1" height="0.5"/>
							<polygon class="st9" points="1566.6,433.3 1524.8,433.3 1524.8,436.6 1566.6,436.6 							"/>
						</g>
					</g>
					<g>
						<g>
							<rect x="1599.9" y="418.2" class="st10" width="39.1" height="52.2"/>
							<path class="st9" d="M1637.6,419.6V469h-36.3v-49.4H1637.6 M1640.4,416.8h-41.8v54.9h41.8V416.8L1640.4,416.8z"/>
						</g>
						<g>
							<rect x="1599.9" y="453.3" class="st10" width="39.1" height="0.5"/>
							<polygon class="st9" points="1640.4,452 1598.6,452 1598.6,455.3 1640.4,455.3 							"/>
						</g>
						<g>
							<rect x="1619.1" y="418.2" class="st10" width="0.8" height="52.2"/>
							<polygon class="st9" points="1621.3,416.8 1617.7,416.8 1617.7,471.7 1621.3,471.7 							"/>
						</g>
						<g>
							<rect x="1599.9" y="434.7" class="st10" width="39.1" height="0.5"/>
							<polygon class="st9" points="1640.4,433.3 1598.6,433.3 1598.6,436.6 1640.4,436.6 							"/>
						</g>
					</g>
					<polyline class="st20" points="1676.3,334.1 1584.8,204.7 1487.8,334.1 					"/>
					<polygon class="st12" points="1533,279.1 1598.4,538.8 1672.2,538.8 1672.2,334.1 1582.1,204.7 					"/>
				</g>
				<g>
					<polygon class="st21" points="1012.8,542 1038.5,405.3 1076,405.3 1104.3,542 					"/>
					<path class="st22" d="M1079.1,411.8h-43.9v-4.4c0-11.6,9.4-21,21-21h1.8c11.6,0,21,9.4,21,21L1079.1,411.8L1079.1,411.8z"/>
					<g>
						<g>
							<g>
								<polygon class="st23" points="1146.9,499.2 1066.7,438.4 1084.8,418.1 1165.1,478.9 								"/>
								<line class="st23" x1="1143.9" y1="461.1" x2="1125.1" y2="482.1"/>
								<line class="st23" x1="1147.6" y1="463.9" x2="1128.8" y2="484.9"/>
								<line class="st23" x1="1150.7" y1="467.4" x2="1131.9" y2="488.4"/>
								<line class="st23" x1="1155" y1="469.5" x2="1136.2" y2="490.5"/>
								<line class="st23" x1="1158.7" y1="472.3" x2="1139.9" y2="493.3"/>
								<line class="st23" x1="1161.1" y1="476.4" x2="1142.3" y2="497.4"/>
								<line class="st23" x1="1081.2" y1="422.2" x2="1162.2" y2="483.5"/>
								<line class="st23" x1="1077.8" y1="425.3" x2="1158.8" y2="486.6"/>
								<line class="st23" x1="1075.2" y1="428.9" x2="1156.2" y2="490.2"/>
								<line class="st23" x1="1072.5" y1="432.6" x2="1153.5" y2="493.9"/>
								<line class="st23" x1="1069.1" y1="435.7" x2="1150.1" y2="497"/>
							</g>
							<line class="st23" x1="1088.4" y1="419.6" x2="1069.6" y2="440.6"/>
							<line class="st23" x1="1091.8" y1="422.8" x2="1073" y2="443.8"/>
							<line class="st23" x1="1095.8" y1="425.2" x2="1077" y2="446.2"/>
							<line class="st23" x1="1099.8" y1="427.7" x2="1081" y2="448.7"/>
							<line class="st23" x1="1102.8" y1="431.1" x2="1084" y2="452.1"/>
							<line class="st23" x1="1107.1" y1="433.3" x2="1088.3" y2="454.2"/>
							<line class="st23" x1="1110.8" y1="436" x2="1092" y2="457"/>
							<line class="st23" x1="1114.5" y1="438.8" x2="1095.7" y2="459.8"/>
							<line class="st23" x1="1118.2" y1="441.6" x2="1099.4" y2="462.6"/>
							<line class="st23" x1="1121.8" y1="444.4" x2="1103.1" y2="465.4"/>
							<line class="st23" x1="1124.9" y1="447.9" x2="1106.1" y2="468.9"/>
							<line class="st23" x1="1128.6" y1="450.6" x2="1109.8" y2="471.6"/>
							<line class="st23" x1="1132.9" y1="452.8" x2="1114.1" y2="473.7"/>
							<line class="st23" x1="1136" y1="456.2" x2="1117.2" y2="477.2"/>
							<line class="st23" x1="1140.2" y1="458.3" x2="1121.5" y2="479.3"/>
						</g>
						<g>
							<g>
								<polygon class="st23" points="1023.7,405.9 934.2,338.1 952.3,317.8 1041.9,385.6 								"/>
								<line class="st23" x1="1018.1" y1="365.9" x2="999.4" y2="386.9"/>
								<line class="st23" x1="1022.3" y1="369" x2="1003.5" y2="390"/>
								<line class="st23" x1="1025.8" y1="372.8" x2="1007" y2="393.8"/>
								<line class="st23" x1="1030.5" y1="375.2" x2="1011.7" y2="396.2"/>
								<line class="st23" x1="1034.6" y1="378.3" x2="1015.8" y2="399.3"/>
								<line class="st23" x1="1037.5" y1="382.8" x2="1018.7" y2="403.8"/>
								<line class="st23" x1="948.7" y1="321.9" x2="1039.1" y2="390.3"/>
								<line class="st23" x1="945.3" y1="325" x2="1035.6" y2="393.3"/>
								<line class="st23" x1="942.7" y1="328.6" x2="1033" y2="397"/>
								<line class="st23" x1="940" y1="332.4" x2="1030.4" y2="400.7"/>
								<line class="st23" x1="936.6" y1="335.4" x2="1026.9" y2="403.8"/>
							</g>
							<line class="st23" x1="956.2" y1="319.6" x2="937.5" y2="340.6"/>
							<line class="st23" x1="960" y1="323.1" x2="941.3" y2="344.1"/>
							<line class="st23" x1="964.5" y1="325.9" x2="945.7" y2="346.8"/>
							<line class="st23" x1="968.9" y1="328.6" x2="950.1" y2="349.6"/>
							<line class="st23" x1="972.4" y1="332.4" x2="953.6" y2="353.4"/>
							<line class="st23" x1="977.1" y1="334.8" x2="958.3" y2="355.8"/>
							<line class="st23" x1="981.2" y1="337.9" x2="962.4" y2="358.9"/>
							<line class="st23" x1="985.3" y1="341" x2="966.5" y2="362"/>
							<line class="st23" x1="989.4" y1="344.2" x2="970.6" y2="365.1"/>
							<line class="st23" x1="993.5" y1="347.3" x2="974.7" y2="368.3"/>
							<line class="st23" x1="997" y1="351" x2="978.2" y2="372"/>
							<line class="st23" x1="1001.1" y1="354.2" x2="982.3" y2="375.1"/>
							<line class="st23" x1="1005.8" y1="356.6" x2="987" y2="377.6"/>
							<line class="st23" x1="1009.3" y1="360.4" x2="990.5" y2="381.4"/>
							<line class="st23" x1="1014" y1="362.8" x2="995.3" y2="383.8"/>
						</g>
						<line class="st24" x1="951.9" y1="317.5" x2="1165.5" y2="479.1"/>
					</g>
					<g>
						<g>
							<g>
								<polygon class="st23" points="1168.1,331.9 1094.3,399.1 1074.1,380.4 1148,313.2 								"/>
								<line class="st23" x1="1126.6" y1="330.7" x2="1147.4" y2="350"/>
								<line class="st23" x1="1130" y1="327.7" x2="1150.8" y2="347"/>
								<line class="st23" x1="1134.1" y1="325.2" x2="1154.9" y2="344.5"/>
								<line class="st23" x1="1136.8" y1="321.5" x2="1157.6" y2="340.8"/>
								<line class="st23" x1="1140.2" y1="318.4" x2="1161" y2="337.7"/>
								<line class="st23" x1="1144.9" y1="316.6" x2="1165.7" y2="335.9"/>
								<line class="st23" x1="1078.2" y1="384.2" x2="1152.7" y2="316.3"/>
								<line class="st23" x1="1081.2" y1="387.6" x2="1155.7" y2="319.7"/>
								<line class="st23" x1="1084.9" y1="390.4" x2="1159.4" y2="322.5"/>
								<line class="st23" x1="1088.6" y1="393.2" x2="1163.1" y2="325.3"/>
								<line class="st23" x1="1091.6" y1="396.6" x2="1166.1" y2="328.7"/>
							</g>
							<line class="st23" x1="1076.2" y1="377.4" x2="1097" y2="396.7"/>
							<line class="st23" x1="1079.9" y1="374.6" x2="1100.7" y2="393.9"/>
							<line class="st23" x1="1082.9" y1="371.2" x2="1103.7" y2="390.5"/>
							<line class="st23" x1="1086" y1="367.8" x2="1106.8" y2="387.1"/>
							<line class="st23" x1="1090" y1="365.3" x2="1110.8" y2="384.6"/>
							<line class="st23" x1="1092.8" y1="361.6" x2="1113.6" y2="380.9"/>
							<line class="st23" x1="1096.2" y1="358.5" x2="1116.9" y2="377.8"/>
							<line class="st23" x1="1099.5" y1="355.4" x2="1120.3" y2="374.7"/>
							<line class="st23" x1="1102.9" y1="352.4" x2="1123.7" y2="371.7"/>
							<line class="st23" x1="1106.3" y1="349.3" x2="1127.1" y2="368.6"/>
							<line class="st23" x1="1110.4" y1="346.8" x2="1131.2" y2="366.1"/>
							<line class="st23" x1="1113.8" y1="343.7" x2="1134.6" y2="363"/>
							<line class="st23" x1="1116.5" y1="340" x2="1137.3" y2="359.3"/>
							<line class="st23" x1="1120.5" y1="337.5" x2="1141.3" y2="356.9"/>
							<line class="st23" x1="1123.2" y1="333.8" x2="1144.1" y2="353.1"/>
						</g>
						<g>
							<g>
								<polygon class="st23" points="1054.7,435.1 972.3,510.2 952.2,491.5 1034.6,416.5 								"/>
								<line class="st23" x1="1010.9" y1="436.2" x2="1031.7" y2="455.5"/>
								<line class="st23" x1="1014.7" y1="432.7" x2="1035.5" y2="452"/>
								<line class="st23" x1="1019.1" y1="429.9" x2="1039.9" y2="449.2"/>
								<line class="st23" x1="1022.2" y1="425.9" x2="1043.1" y2="445.2"/>
								<line class="st23" x1="1026" y1="422.4" x2="1046.8" y2="441.7"/>
								<line class="st23" x1="1031.1" y1="420.2" x2="1051.9" y2="439.5"/>
								<line class="st23" x1="956.2" y1="495.2" x2="1039.4" y2="419.5"/>
								<line class="st23" x1="959.2" y1="498.7" x2="1042.3" y2="423"/>
								<line class="st23" x1="963" y1="501.5" x2="1046.1" y2="425.7"/>
								<line class="st23" x1="966.7" y1="504.2" x2="1049.8" y2="428.5"/>
								<line class="st23" x1="969.7" y1="507.7" x2="1052.8" y2="432"/>
							</g>
							<line class="st23" x1="954.6" y1="488.1" x2="975.4" y2="507.4"/>
							<line class="st23" x1="958.7" y1="485" x2="979.5" y2="504.3"/>
							<line class="st23" x1="962.1" y1="481.2" x2="982.9" y2="500.5"/>
							<line class="st23" x1="965.6" y1="477.5" x2="986.4" y2="496.8"/>
							<line class="st23" x1="970" y1="474.7" x2="990.8" y2="494"/>
							<line class="st23" x1="973.1" y1="470.6" x2="993.9" y2="489.9"/>
							<line class="st23" x1="976.9" y1="467.2" x2="997.7" y2="486.5"/>
							<line class="st23" x1="980.7" y1="463.7" x2="1001.5" y2="483"/>
							<line class="st23" x1="984.5" y1="460.3" x2="1005.3" y2="479.6"/>
							<line class="st23" x1="988.2" y1="456.8" x2="1009" y2="476.1"/>
							<line class="st23" x1="992.7" y1="454" x2="1013.5" y2="473.3"/>
							<line class="st23" x1="996.5" y1="450.6" x2="1017.3" y2="469.9"/>
							<line class="st23" x1="999.6" y1="446.5" x2="1020.4" y2="465.8"/>
							<line class="st23" x1="1004" y1="443.7" x2="1024.8" y2="463"/>
							<line class="st23" x1="1007.1" y1="439.6" x2="1027.9" y2="458.9"/>
						</g>
						<line class="st24" x1="951.8" y1="491.8" x2="1148.3" y2="312.9"/>
					</g>
					<path class="st12" d="M1054.5,387.5l2.3,24.3h5.3l15.9,129.8l26.3,0.4l-26.7-127.1l-0.2-3.1l2.1-0.4c0,0,0.7-12.5-6.3-18.5
						c0,0-5.6-7.5-18.7-6.3L1054.5,387.5L1054.5,387.5z"/>
				</g>
				<g>
					<line class="st25" x1="1457.9" y1="256.2" x2="1510.1" y2="539.3"/>
					<line class="st25" x1="1462.6" y1="255.7" x2="1548.8" y2="539.3"/>
					<line class="st25" x1="1447.7" y1="256.2" x2="1395.5" y2="539.3"/>
					<line class="st25" x1="1443" y1="255.7" x2="1356.8" y2="539.3"/>
					<g>
						<polygon class="st26" points="1469.6,540.7 1437.2,540.7 1447.7,171.6 1459.1,171.6 						"/>
						<rect x="1433.4" y="254.9" class="st27" width="40.1" height="3.5"/>
						<rect x="1437.2" y="232.9" class="st27" width="31.5" height="3.5"/>
						<ellipse class="st27" cx="1460.2" cy="246" rx="4.7" ry="4.3"/>
					</g>
				</g>
				<g>
					<polygon class="st28" points="770.6,540.7 770.6,491.5 844.9,466.9 922.2,491.3 922.2,540.7 					"/>
					<polyline class="st29" points="800.1,540.7 800.1,521.4 892.6,521.1 892.6,540.7 					"/>
					<line class="st29" x1="830.6" y1="521.4" x2="830.6" y2="540.7"/>
					<line class="st29" x1="859.3" y1="521.4" x2="859.3" y2="540.7"/>
					<polygon class="st11" points="856.9,497.3 845.4,507.9 834,497.3 845.4,486.8 					"/>
					<polygon class="st12" points="811.1,479 839.2,519.7 848.2,519.7 863.1,540.7 922.2,540.7 922.2,493 844.9,466.9 					"/>
					<polyline class="st30" points="759.1,495.4 844.9,466.9 929.2,495.4 					"/>
				</g>
				<g>
					<rect x="222.9" y="369.7" class="st16" width="285" height="171.9"/>
				</g>
				<g>
					<polygon class="st11" points="482.9,295.2 515,369.7 218.1,369.7 245.4,294.3 					"/>
				</g>
				<g>
					<g>
						<rect x="412.1" y="385.6" class="st10" width="26.4" height="35.6"/>
						<path class="st11" d="M437.2,386.9v32.9h-23.7v-32.9H437.2 M439.9,384.2h-29.2v38.3h29.2V384.2L439.9,384.2z"/>
					</g>
					<g>
						<rect x="410.7" y="408.7" class="st10" width="29.2" height="2.3"/>
						<polygon class="st11" points="439.9,408.7 410.7,408.7 410.7,411 439.9,411 						"/>
					</g>
					<g>
						<rect x="424.1" y="384.2" class="st10" width="2.5" height="38.3"/>
						<polygon class="st11" points="426.6,384.2 424.1,384.2 424.1,422.5 426.6,422.5 						"/>
					</g>
					<g>
						<rect x="410.7" y="395.7" class="st10" width="29.2" height="2.3"/>
						<polygon class="st11" points="439.9,395.7 410.7,395.7 410.7,398 439.9,398 						"/>
					</g>
				</g>
				<g>
					<g>
						<rect x="353.4" y="385.6" class="st10" width="26.4" height="35.6"/>
						<path class="st11" d="M378.4,386.9v32.9h-23.7v-32.9H378.4 M381.2,384.2H352v38.3h29.2V384.2L381.2,384.2z"/>
					</g>
					<g>
						<rect x="352" y="408.7" class="st10" width="29.2" height="2.3"/>
						<polygon class="st11" points="381.2,408.7 352,408.7 352,411 381.2,411 						"/>
					</g>
					<g>
						<rect x="365.3" y="384.2" class="st10" width="2.5" height="38.3"/>
						<polygon class="st11" points="367.8,384.2 365.3,384.2 365.3,422.5 367.8,422.5 						"/>
					</g>
					<g>
						<rect x="352" y="395.7" class="st10" width="29.2" height="2.3"/>
						<polygon class="st11" points="381.2,395.7 352,395.7 352,398 381.2,398 						"/>
					</g>
				</g>
				<g>
					<g>
						<rect x="298.5" y="385.6" class="st10" width="26.4" height="35.6"/>
						<path class="st11" d="M323.5,386.9v32.9h-23.7v-32.9H323.5 M326.3,384.2h-29.2v38.3h29.2V384.2L326.3,384.2z"/>
					</g>
					<g>
						<rect x="297.1" y="408.7" class="st10" width="29.2" height="2.3"/>
						<polygon class="st11" points="326.3,408.7 297.1,408.7 297.1,411 326.3,411 						"/>
					</g>
					<g>
						<rect x="310.4" y="384.2" class="st10" width="2.5" height="38.3"/>
						<polygon class="st11" points="312.9,384.2 310.4,384.2 310.4,422.5 312.9,422.5 						"/>
					</g>
					<g>
						<rect x="297.1" y="395.7" class="st10" width="29.2" height="2.3"/>
						<polygon class="st11" points="326.3,395.7 297.1,395.7 297.1,398 326.3,398 						"/>
					</g>
				</g>
				<g>
					<g>
						<rect x="411.7" y="441.2" class="st10" width="26.4" height="35.6"/>
						<path class="st11" d="M436.7,442.5v32.9H413v-32.9H436.7 M439.5,439.8h-29.2v38.3h29.2L439.5,439.8L439.5,439.8z"/>
					</g>
					<g>
						<rect x="410.3" y="464.3" class="st10" width="29.2" height="2.3"/>
						<polygon class="st11" points="439.5,464.3 410.3,464.3 410.3,466.6 439.5,466.6 						"/>
					</g>
					<g>
						<rect x="423.6" y="439.8" class="st10" width="2.5" height="38.3"/>
						<polygon class="st11" points="426.1,439.8 423.6,439.8 423.6,478.1 426.1,478.1 						"/>
					</g>
					<g>
						<rect x="410.3" y="451.3" class="st10" width="29.2" height="2.3"/>
						<polygon class="st11" points="439.5,451.3 410.3,451.3 410.3,453.6 439.5,453.6 						"/>
					</g>
				</g>
				<g>
					<g>
						<rect x="353.9" y="441.2" class="st10" width="26.4" height="35.6"/>
						<path class="st11" d="M379,442.5v32.9h-23.7v-32.9H379 M381.7,439.8h-29.2v38.3h29.2V439.8L381.7,439.8z"/>
					</g>
					<g>
						<rect x="352.5" y="464.3" class="st10" width="29.2" height="2.3"/>
						<polygon class="st11" points="381.7,464.3 352.5,464.3 352.5,466.6 381.7,466.6 						"/>
					</g>
					<g>
						<rect x="365.9" y="439.8" class="st10" width="2.5" height="38.3"/>
						<polygon class="st11" points="368.4,439.8 365.9,439.8 365.9,478.1 368.4,478.1 						"/>
					</g>
					<g>
						<rect x="352.5" y="451.3" class="st10" width="29.2" height="2.3"/>
						<polygon class="st11" points="381.7,451.3 352.5,451.3 352.5,453.6 381.7,453.6 						"/>
					</g>
				</g>
				<g>
					<g>
						<rect x="299" y="441.2" class="st10" width="26.4" height="35.6"/>
						<path class="st11" d="M324.1,442.5v32.9h-23.7v-32.9H324.1 M326.8,439.8h-29.2v38.3h29.2V439.8L326.8,439.8z"/>
					</g>
					<g>
						<rect x="297.6" y="464.3" class="st10" width="29.2" height="2.3"/>
						<polygon class="st11" points="326.8,464.3 297.6,464.3 297.6,466.6 326.8,466.6 						"/>
					</g>
					<g>
						<rect x="311" y="439.8" class="st10" width="2.5" height="38.3"/>
						<polygon class="st11" points="313.5,439.8 311,439.8 311,478.1 313.5,478.1 						"/>
					</g>
					<g>
						<rect x="297.6" y="451.3" class="st10" width="29.2" height="2.3"/>
						<polygon class="st11" points="326.8,451.3 297.6,451.3 297.6,453.6 326.8,453.6 						"/>
					</g>
				</g>
				<g>
					<g>
						<rect x="411.3" y="496.8" class="st10" width="26.4" height="35.6"/>
						<path class="st11" d="M436.3,498.1V531h-23.7v-32.9L436.3,498.1 M439.1,495.4h-29.2v38.3h29.2V495.4L439.1,495.4z"/>
					</g>
					<g>
						<rect x="409.9" y="519.9" class="st10" width="29.2" height="2.3"/>
						<polygon class="st11" points="439.1,519.9 409.9,519.9 409.9,522.2 439.1,522.2 						"/>
					</g>
					<g>
						<rect x="423.2" y="495.4" class="st10" width="2.5" height="38.3"/>
						<polygon class="st11" points="425.7,495.4 423.2,495.4 423.2,533.7 425.7,533.7 						"/>
					</g>
					<g>
						<rect x="409.9" y="506.9" class="st10" width="29.2" height="2.3"/>
						<polygon class="st11" points="439.1,506.9 409.9,506.9 409.9,509.2 439.1,509.2 						"/>
					</g>
				</g>
				<g>
					<g>
						<rect x="298.6" y="496.8" class="st10" width="26.4" height="35.6"/>
						<path class="st11" d="M323.6,498.1V531h-23.7v-32.9L323.6,498.1 M326.4,495.4h-29.2v38.3h29.2V495.4L326.4,495.4z"/>
					</g>
					<g>
						<rect x="297.2" y="519.9" class="st10" width="29.2" height="2.3"/>
						<polygon class="st11" points="326.4,519.9 297.2,519.9 297.2,522.2 326.4,522.2 						"/>
					</g>
					<g>
						<rect x="310.5" y="495.4" class="st10" width="2.5" height="38.3"/>
						<polygon class="st11" points="313,495.4 310.5,495.4 310.5,533.7 313,533.7 						"/>
					</g>
					<g>
						<rect x="297.2" y="506.9" class="st10" width="29.2" height="2.3"/>
						<polygon class="st11" points="326.4,506.9 297.2,506.9 297.2,509.2 326.4,509.2 						"/>
					</g>
				</g>
				<path class="st31" d="M346.4,541.2h39.1v-26.8c0-10.4-8.4-18.8-18.8-18.8h-1.6c-10.4,0-18.8,8.4-18.8,18.8L346.4,541.2
					L346.4,541.2z"/>
				<g>
					<g>
						<rect x="243.3" y="496.8" class="st10" width="26.4" height="35.6"/>
						<path class="st11" d="M268.4,498.1V531h-23.7v-32.9L268.4,498.1 M271.1,495.4h-29.2v38.3h29.2V495.4L271.1,495.4z"/>
					</g>
					<g>
						<rect x="241.9" y="519.9" class="st10" width="29.2" height="2.3"/>
						<polygon class="st11" points="271.1,519.9 241.9,519.9 241.9,522.2 271.1,522.2 						"/>
					</g>
					<g>
						<rect x="255.3" y="495.4" class="st10" width="2.5" height="38.3"/>
						<polygon class="st11" points="257.8,495.4 255.3,495.4 255.3,533.7 257.8,533.7 						"/>
					</g>
					<g>
						<rect x="241.9" y="506.9" class="st10" width="29.2" height="2.3"/>
						<polygon class="st11" points="271.1,506.9 241.9,506.9 241.9,509.2 271.1,509.2 						"/>
					</g>
				</g>
				<g>
					<g>
						<rect x="244.6" y="441.2" class="st10" width="26.4" height="35.6"/>
						<path class="st11" d="M269.6,442.5v32.9h-23.7v-32.9H269.6 M272.4,439.8h-29.2v38.3h29.2V439.8L272.4,439.8z"/>
					</g>
					<g>
						<rect x="243.2" y="464.3" class="st10" width="29.2" height="2.3"/>
						<polygon class="st11" points="272.4,464.3 243.2,464.3 243.2,466.6 272.4,466.6 						"/>
					</g>
					<g>
						<rect x="256.5" y="439.8" class="st10" width="2.5" height="38.3"/>
						<polygon class="st11" points="259,439.8 256.5,439.8 256.5,478.1 259,478.1 						"/>
					</g>
					<g>
						<rect x="243.2" y="451.3" class="st10" width="29.2" height="2.3"/>
						<polygon class="st11" points="272.4,451.3 243.2,451.3 243.2,453.6 272.4,453.6 						"/>
					</g>
				</g>
				<g>
					<g>
						<rect x="245.8" y="385.6" class="st10" width="26.4" height="35.6"/>
						<path class="st11" d="M270.9,386.9v32.9h-23.7v-32.9H270.9 M273.6,384.2h-29.2v38.3h29.2V384.2L273.6,384.2z"/>
					</g>
					<g>
						<rect x="244.4" y="408.7" class="st10" width="29.2" height="2.3"/>
						<polygon class="st11" points="273.6,408.7 244.4,408.7 244.4,411 273.6,411 						"/>
					</g>
					<g>
						<rect x="257.8" y="384.2" class="st10" width="2.5" height="38.3"/>
						<polygon class="st11" points="260.3,384.2 257.8,384.2 257.8,422.5 260.3,422.5 						"/>
					</g>
					<g>
						<rect x="244.4" y="395.7" class="st10" width="29.2" height="2.3"/>
						<polygon class="st11" points="273.6,395.7 244.4,395.7 244.4,398 273.6,398 						"/>
					</g>
				</g>
				<g>
					<g>
						<rect x="464" y="496.8" class="st10" width="26.4" height="35.6"/>
						<path class="st11" d="M489,498.1V531h-23.7v-32.9L489,498.1 M491.8,495.4h-29.2v38.3h29.2V495.4L491.8,495.4z"/>
					</g>
					<g>
						<rect x="462.6" y="519.9" class="st10" width="29.2" height="2.3"/>
						<polygon class="st11" points="491.8,519.9 462.6,519.9 462.6,522.2 491.8,522.2 						"/>
					</g>
					<g>
						<rect x="475.9" y="495.4" class="st10" width="2.5" height="38.3"/>
						<polygon class="st11" points="478.4,495.4 475.9,495.4 475.9,533.7 478.4,533.7 						"/>
					</g>
					<g>
						<rect x="462.6" y="506.9" class="st10" width="29.2" height="2.3"/>
						<polygon class="st11" points="491.8,506.9 462.6,506.9 462.6,509.2 491.8,509.2 						"/>
					</g>
				</g>
				<g>
					<g>
						<rect x="465.2" y="441.2" class="st10" width="26.4" height="35.6"/>
						<path class="st11" d="M490.3,442.5v32.9h-23.7v-32.9H490.3 M493,439.8h-29.2v38.3H493V439.8L493,439.8z"/>
					</g>
					<g>
						<rect x="463.8" y="464.3" class="st10" width="29.2" height="2.3"/>
						<polygon class="st11" points="493,464.3 463.8,464.3 463.8,466.6 493,466.6 						"/>
					</g>
					<g>
						<rect x="477.2" y="439.8" class="st10" width="2.5" height="38.3"/>
						<polygon class="st11" points="479.7,439.8 477.2,439.8 477.2,478.1 479.7,478.1 						"/>
					</g>
					<g>
						<rect x="463.8" y="451.3" class="st10" width="29.2" height="2.3"/>
						<polygon class="st11" points="493,451.3 463.8,451.3 463.8,453.6 493,453.6 						"/>
					</g>
				</g>
				<g>
					<g>
						<rect x="466.5" y="385.6" class="st10" width="26.4" height="35.6"/>
						<path class="st11" d="M491.5,386.9v32.9h-23.7v-32.9H491.5 M494.3,384.2h-29.2v38.3h29.2V384.2L494.3,384.2z"/>
					</g>
					<g>
						<rect x="465.1" y="408.7" class="st10" width="29.2" height="2.3"/>
						<polygon class="st11" points="494.3,408.7 465.1,408.7 465.1,411 494.3,411 						"/>
					</g>
					<g>
						<rect x="478.4" y="384.2" class="st10" width="2.5" height="38.3"/>
						<polygon class="st11" points="480.9,384.2 478.4,384.2 478.4,422.5 480.9,422.5 						"/>
					</g>
					<g>
						<rect x="465.1" y="395.7" class="st10" width="29.2" height="2.3"/>
						<polygon class="st11" points="494.3,395.7 465.1,395.7 465.1,398 494.3,398 						"/>
					</g>
				</g>
				<polygon class="st12" points="282.2,294.5 316.2,369.7 342.5,369.7 411.4,541.6 507.9,541.6 507.9,369.7 515,369.7 482.9,295.2 
									"/>
				<g>
					<rect x="121.4" y="425.9" class="st11" width="101.3" height="115.7"/>
				</g>
				<g>
					<polygon class="st11" points="170.5,356 222.7,425.9 121.4,425.9 					"/>
				</g>
				<g>
					<g>
						<rect x="182.1" y="431.4" class="st10" width="20.7" height="28.1"/>
						<path class="st9" d="M201.5,432.8v25.4h-18v-25.4H201.5 M204.2,430h-23.5v30.9h23.5V430L204.2,430z"/>
					</g>
					<g>
						<rect x="180.8" y="449.8" class="st10" width="23.5" height="1.9"/>
						<polygon class="st9" points="204.2,449.8 180.8,449.8 180.8,451.6 204.2,451.6 						"/>
					</g>
					<g>
						<rect x="191.5" y="430" class="st10" width="2" height="30.9"/>
						<polygon class="st9" points="193.5,430 191.5,430 191.5,460.9 193.5,460.9 						"/>
					</g>
					<g>
						<rect x="180.8" y="439.3" class="st10" width="23.5" height="1.9"/>
						<polygon class="st9" points="204.2,439.3 180.8,439.3 180.8,441.1 204.2,441.1 						"/>
					</g>
				</g>
				<g>
					<g>
						<rect x="140.7" y="431.4" class="st10" width="20.7" height="28.1"/>
						<path class="st9" d="M160,432.8v25.4h-18v-25.4H160 M162.8,430h-23.5v30.9h23.5L162.8,430L162.8,430z"/>
					</g>
					<g>
						<rect x="139.3" y="449.8" class="st10" width="23.5" height="1.9"/>
						<polygon class="st9" points="162.8,449.8 139.3,449.8 139.3,451.6 162.8,451.6 						"/>
					</g>
					<g>
						<rect x="150" y="430" class="st10" width="2" height="30.9"/>
						<polygon class="st9" points="152.1,430 150,430 150,460.9 152.1,460.9 						"/>
					</g>
					<g>
						<rect x="139.3" y="439.3" class="st10" width="23.5" height="1.9"/>
						<polygon class="st9" points="162.8,439.3 139.3,439.3 139.3,441.1 162.8,441.1 						"/>
					</g>
				</g>
				<g>
					<g>
						<rect x="182.1" y="473.7" class="st10" width="20.7" height="28.1"/>
						<path class="st9" d="M201.5,475.1v25.4h-18v-25.4H201.5 M204.2,472.4h-23.5v30.9h23.5V472.4L204.2,472.4z"/>
					</g>
					<g>
						<rect x="180.8" y="492.1" class="st10" width="23.5" height="1.9"/>
						<polygon class="st9" points="204.2,492.1 180.8,492.1 180.8,494 204.2,494 						"/>
					</g>
					<g>
						<rect x="191.5" y="472.4" class="st10" width="2" height="30.9"/>
						<polygon class="st9" points="193.5,472.4 191.5,472.4 191.5,503.2 193.5,503.2 						"/>
					</g>
					<g>
						<rect x="180.8" y="481.6" class="st10" width="23.5" height="1.9"/>
						<polygon class="st9" points="204.2,481.6 180.8,481.6 180.8,483.5 204.2,483.5 						"/>
					</g>
				</g>
				<g>
					<g>
						<rect x="140.7" y="473.7" class="st10" width="20.7" height="28.1"/>
						<path class="st9" d="M160,475.1v25.4h-18v-25.4H160 M162.8,472.4h-23.5v30.9h23.5L162.8,472.4L162.8,472.4z"/>
					</g>
					<g>
						<rect x="139.3" y="492.1" class="st10" width="23.5" height="1.9"/>
						<polygon class="st9" points="162.8,492.1 139.3,492.1 139.3,494 162.8,494 						"/>
					</g>
					<g>
						<rect x="150" y="472.4" class="st10" width="2" height="30.9"/>
						<polygon class="st9" points="152.1,472.4 150,472.4 150,503.2 152.1,503.2 						"/>
					</g>
					<g>
						<rect x="139.3" y="481.6" class="st10" width="23.5" height="1.9"/>
						<polygon class="st9" points="162.8,481.6 139.3,481.6 139.3,483.5 162.8,483.5 						"/>
					</g>
				</g>
				<polygon class="st12" points="144.5,395 181.3,540.9 222.7,540.9 222.7,425.9 172.1,353.2 				"/>
				<polyline class="st20" points="119.1,425.9 170.5,353.2 225,425.9 				"/>
				<g>
					<g>
						<polygon class="st32" points="1.5,452.1 0,448.3 0,452.1 						"/>
					</g>
					<g>
						<path class="st32" d="M11.3,485.7H0v15.5c8.3,1.1,14.6,7.6,14.6,15.6V541H0v0.4h37.3l-26-65V485.7z"/>
					</g>
					<g>
						<polygon class="st11" points="100,325.4 0,325 0,325 						"/>
					</g>
					<path class="st9" d="M14.3,540.7v-23.9c0-7.9-6-14.5-14.3-15.6v39.5L14.3,540.7L14.3,540.7z"/>
					<g>
						<path class="st32" d="M0,403.4h10.8v10.1v2v9.4v2V437H0v11.3l1.5,3.9h9.7v10.1v2v9.4v2v0.8l26,65h84.6V390.7H0V403.4z
							 M84.4,426.9v-2v-9.4v-2v-10.1h11.7h2.2h11.7v10.1v2v9.4v2V437H98.3h-2.2H84.4V426.9z M83.3,475.6v-2v-9.4v-2v-10.1H95h2.2
							h11.7v10.1v2v9.4v2v10.1H97.2H95H83.3V475.6z M82.2,524.4v-2V513v-2v-10.1h11.7h2.2h11.7v10.1v2v9.4v2v10.1H96.1h-2.2H82.2
							V524.4z M36.7,426.9v-2v-9.4v-2v-10.1h11.7h2.2h11.7v10.1v2v9.4v2V437H50.6h-2.2H36.7L36.7,426.9L36.7,426.9z M36.3,475.6v-2
							v-9.4v-2v-10.1H48h2.2h11.7v10.1v2v9.4v2v10.1H50.2H48H36.3V475.6z M36,524.4v-2V513v-2v-10.1h11.7h2.2h11.7v10.1v2v9.4v2
							v10.1H49.9h-2.2H36V524.4z"/>
					</g>
					<g>
						<polygon class="st11" points="100,325.4 0,325 0,390.7 121.9,390.7 128.2,390.7 						"/>
					</g>
					<polygon class="st12" points="100,325.4 0,325 0,390.8 121.9,390.8 128.2,390.8 					"/>
					<g>
						<polygon class="st10" points="11.3,476.4 11.3,475.6 11,475.6 						"/>
						<polygon class="st9" points="11.3,475.6 11,475.6 11.3,476.4 						"/>
					</g>
					<g>
						<g>
							<rect x="37.7" y="404.5" class="st10" width="23.3" height="31.5"/>
							<path class="st9" d="M59.7,405.8v28.8H39v-28.8H59.7 M62.4,403.1H36.3v34.3h26.1V403.1L62.4,403.1z"/>
						</g>
						<g>
							<rect x="36.3" y="425" class="st10" width="26.1" height="2.1"/>
							<polygon class="st9" points="62.4,425 36.3,425 36.3,427.1 62.4,427.1 							"/>
						</g>
						<g>
							<rect x="48.2" y="403.1" class="st10" width="2.2" height="34.3"/>
							<polygon class="st9" points="50.5,403.1 48.2,403.1 48.2,437.4 50.5,437.4 							"/>
						</g>
						<g>
							<rect x="36.3" y="413.4" class="st10" width="26.1" height="2.1"/>
							<polygon class="st9" points="62.4,413.4 36.3,413.4 36.3,415.4 62.4,415.4 							"/>
						</g>
					</g>
					<g>
						<g>
							<rect x="85.6" y="404.5" class="st10" width="23.3" height="31.5"/>
							<path class="st9" d="M107.6,405.8v28.8H87v-28.8H107.6 M110.3,403.1H84.2v34.3h26.1V403.1L110.3,403.1z"/>
						</g>
						<g>
							<rect x="84.2" y="425" class="st10" width="26.1" height="2.1"/>
							<polygon class="st9" points="110.3,425 84.2,425 84.2,427.1 110.3,427.1 							"/>
						</g>
						<g>
							<rect x="96.2" y="403.1" class="st10" width="2.2" height="34.3"/>
							<polygon class="st9" points="98.4,403.1 96.2,403.1 96.2,437.4 98.4,437.4 							"/>
						</g>
						<g>
							<rect x="84.2" y="413.4" class="st10" width="26.1" height="2.1"/>
							<polygon class="st9" points="110.3,413.4 84.2,413.4 84.2,415.4 110.3,415.4 							"/>
						</g>
					</g>
					<g>
						<g>
							<rect x="37.7" y="453" class="st10" width="23.3" height="31.5"/>
							<path class="st9" d="M59.7,454.4v28.8H39v-28.8H59.7 M62.4,451.6H36.3v34.3h26.1V451.6L62.4,451.6z"/>
						</g>
						<g>
							<rect x="36.3" y="473.6" class="st10" width="26.1" height="2.1"/>
							<polygon class="st9" points="62.4,473.6 36.3,473.6 36.3,475.6 62.4,475.6 							"/>
						</g>
						<g>
							<rect x="48.2" y="451.6" class="st10" width="2.2" height="34.3"/>
							<polygon class="st9" points="50.5,451.6 48.2,451.6 48.2,485.9 50.5,485.9 							"/>
						</g>
						<g>
							<rect x="36.3" y="461.9" class="st10" width="26.1" height="2.1"/>
							<polygon class="st9" points="62.4,461.9 36.3,461.9 36.3,464 62.4,464 							"/>
						</g>
					</g>
					<g>
						<g>
							<rect x="84.5" y="453" class="st10" width="23.3" height="31.5"/>
							<path class="st9" d="M106.5,454.4v28.8H85.8v-28.8H106.5 M109.2,451.6H83.1v34.3h26.1V451.6L109.2,451.6z"/>
						</g>
						<g>
							<rect x="83.1" y="473.6" class="st10" width="26.1" height="2.1"/>
							<polygon class="st9" points="109.2,473.6 83.1,473.6 83.1,475.6 109.2,475.6 							"/>
						</g>
						<g>
							<rect x="95" y="451.6" class="st10" width="2.2" height="34.3"/>
							<polygon class="st9" points="97.3,451.6 95,451.6 95,485.9 97.3,485.9 							"/>
						</g>
						<g>
							<rect x="83.1" y="461.9" class="st10" width="26.1" height="2.1"/>
							<polygon class="st9" points="109.2,461.9 83.1,461.9 83.1,464 109.2,464 							"/>
						</g>
					</g>
					<g>
						<g>
							<rect x="37.7" y="501.7" class="st10" width="23.3" height="31.5"/>
							<path class="st9" d="M59.7,503.1v28.8H39v-28.8H59.7 M62.4,500.3H36.3v34.3h26.1V500.3L62.4,500.3z"/>
						</g>
						<g>
							<rect x="36.3" y="522.3" class="st10" width="26.1" height="2.1"/>
							<polygon class="st9" points="62.4,522.3 36.3,522.3 36.3,524.3 62.4,524.3 							"/>
						</g>
						<g>
							<rect x="48.2" y="500.3" class="st10" width="2.2" height="34.3"/>
							<polygon class="st9" points="50.5,500.3 48.2,500.3 48.2,534.6 50.5,534.6 							"/>
						</g>
						<g>
							<rect x="36.3" y="510.6" class="st10" width="26.1" height="2.1"/>
							<polygon class="st9" points="62.4,510.6 36.3,510.6 36.3,512.7 62.4,512.7 							"/>
						</g>
					</g>
					<g>
						<g>
							<rect x="83.4" y="501.7" class="st10" width="23.3" height="31.5"/>
							<path class="st9" d="M105.3,503.1v28.8H84.7v-28.8H105.3 M108.1,500.3H82v34.3h26.1V500.3L108.1,500.3z"/>
						</g>
						<g>
							<rect x="82" y="522.3" class="st10" width="26.1" height="2.1"/>
							<polygon class="st9" points="108.1,522.3 82,522.3 82,524.3 108.1,524.3 							"/>
						</g>
						<g>
							<rect x="93.9" y="500.3" class="st10" width="2.2" height="34.3"/>
							<polygon class="st9" points="96.2,500.3 93.9,500.3 93.9,534.6 96.2,534.6 							"/>
						</g>
						<g>
							<rect x="82" y="510.6" class="st10" width="26.1" height="2.1"/>
							<polygon class="st9" points="108.1,510.6 82,510.6 82,512.7 108.1,512.7 							"/>
						</g>
					</g>
					<g>
						<rect x="1.4" y="453" class="st10" width="8.5" height="31.5"/>
						<path class="st9" d="M8.5,454.4v28.8H2.7v-28.8H8.5 M11.3,451.6H0v34.3h11.3V451.6L11.3,451.6z"/>
					</g>
					<g>
						<rect x="0" y="473.6" class="st10" width="11.3" height="2.1"/>
						<polygon class="st9" points="11.3,473.6 0,473.6 0,475.6 11.3,475.6 						"/>
					</g>
					<g>
						<rect x="0" y="461.9" class="st10" width="11.3" height="2.1"/>
						<polygon class="st9" points="11.3,461.9 0,461.9 0,464 11.3,464 						"/>
					</g>
					<g>
						<rect x="1.4" y="404.5" class="st10" width="8.5" height="31.5"/>
						<path class="st9" d="M8.6,405.8v28.8H2.8v-28.8H8.6 M11.3,403.1H0v34.3h11.3L11.3,403.1L11.3,403.1z"/>
					</g>
					<g>
						<rect x="0" y="425" class="st10" width="11.3" height="2.1"/>
						<polygon class="st9" points="11.3,425 0,425 0,427.1 11.3,427.1 						"/>
					</g>
					<g>
						<rect x="0" y="413.4" class="st10" width="11.3" height="2.1"/>
						<polygon class="st9" points="11.3,413.4 0,413.4 0,415.4 11.3,415.4 						"/>
					</g>
					<polygon class="st12" points="-0.2,448.3 37.3,541.6 121.1,541.6 122.1,390.8 0,390.8 					"/>
				</g>
				<g>
					<g>
						<polygon class="st32" points="1829.2,423.3 1831.2,418.2 1831.2,423.3 						"/>
					</g>
					<g>
						<polygon class="st11" points="1701,258.1 1831.2,257.6 1831.2,257.6 						"/>
					</g>
					<path class="st9" d="M1812,539v-31.5c0-10.3,9.5-18.8,19.1-20.3V539L1812,539L1812,539z"/>
					<g>
						<path class="st32" d="M1817.1,387.8v-12.3v-2.6v-13.1h14.1v-16.5h-158.9v196.3h110.2h48.6v-0.5h-19.1v-31.5
							c0-10.3,8.3-18.8,19.1-20.3V467h-14.7v-12.1v-1v-2.6V439v-2.6v-13.1h12.7l2-5v-14.7h-14.1v-13.1L1817.1,387.8L1817.1,387.8z
							 M1687.9,390.4v-2.6v-12.3v-2.6v-13.1h15.2h2.9h15.2v13.1v2.6v12.3v2.6v13.1H1706h-2.9h-15.2V390.4z M1689.4,453.9v-2.6V439
							v-2.6v-13.1h15.2h2.9h15.2v13.1v2.6v12.3v2.6v13.1h-15.2h-2.9h-15.2V453.9z M1724.1,499.9v2.6v12.3v2.6v13.1h-15.2h-2.9h-15.2
							v-13.1v-2.6v-12.3v-2.6v-13.1h15.2h2.9h15.2V499.9z M1750,390.4v-2.6v-12.3v-2.6v-13.1h15.2h2.9h15.2v13.1v2.6v12.3v2.6v13.1
							h-15.2h-2.9H1750V390.4z M1750.5,453.9v-2.6V439v-2.6v-13.1h15.2h2.9h15.2v13.1v2.6v12.3v2.6v13.1h-15.2h-2.9h-15.2V453.9z
							 M1769.1,530.5h-2.9H1751v-13.1v-2.6v-12.3v-2.6v-13.1h15.2h2.9h15.2v13.1v2.6v12.3v2.6v13.1H1769.1z"/>
					</g>
					<g>
						<polygon class="st11" points="1701,258.1 1831.2,257.6 1831.2,343.2 1672.4,343.2 1664.2,343.2 						"/>
					</g>
					<g>
						<polygon class="st10" points="1816.5,454.9 1816.5,453.9 1816.9,453.9 						"/>
						<polygon class="st9" points="1816.9,453.9 1816.5,453.9 1816.5,454.9 						"/>
					</g>
					<g>
						<g>
							<rect x="1751.3" y="360.7" class="st10" width="31.3" height="41.9"/>
							<path class="st9" d="M1781.2,362.1v39.2h-28.5v-39.2H1781.2 M1783.9,359.4h-34V404h34V359.4L1783.9,359.4z"/>
						</g>
						<g>
							<rect x="1749.9" y="388" class="st10" width="34" height="2.7"/>
							<polygon class="st9" points="1783.9,388 1749.9,388 1749.9,390.6 1783.9,390.6 							"/>
						</g>
						<g>
							<rect x="1766.8" y="360.7" class="st10" width="0.2" height="41.9"/>
							<polygon class="st9" points="1768.4,359.4 1765.4,359.4 1765.4,404 1768.4,404 							"/>
						</g>
						<g>
							<rect x="1749.9" y="372.8" class="st10" width="34" height="2.7"/>
							<polygon class="st9" points="1783.9,372.8 1749.9,372.8 1749.9,375.4 1783.9,375.4 							"/>
						</g>
					</g>
					<g>
						<g>
							<rect x="1688.8" y="360.7" class="st10" width="31.3" height="41.9"/>
							<path class="st9" d="M1718.7,362.1v39.2h-28.5v-39.2H1718.7 M1721.5,359.4h-34V404h34V359.4L1721.5,359.4z"/>
						</g>
						<g>
							<rect x="1687.5" y="388" class="st10" width="34" height="2.7"/>
							<polygon class="st9" points="1721.5,388 1687.5,388 1687.5,390.6 1721.5,390.6 							"/>
						</g>
						<g>
							<rect x="1704.4" y="360.7" class="st10" width="0.2" height="41.9"/>
							<polygon class="st9" points="1705.9,359.4 1703,359.4 1703,404 1705.9,404 							"/>
						</g>
						<g>
							<rect x="1687.5" y="372.8" class="st10" width="34" height="2.7"/>
							<polygon class="st9" points="1721.5,372.8 1687.5,372.8 1687.5,375.4 1721.5,375.4 							"/>
						</g>
					</g>
					<g>
						<g>
							<rect x="1751.3" y="424" class="st10" width="31.3" height="41.9"/>
							<path class="st9" d="M1781.2,425.4v39.2h-28.5v-39.2H1781.2 M1783.9,422.6h-34v44.7h34V422.6L1783.9,422.6z"/>
						</g>
						<g>
							<rect x="1749.9" y="451.2" class="st10" width="34" height="2.7"/>
							<polygon class="st9" points="1783.9,451.2 1749.9,451.2 1749.9,453.9 1783.9,453.9 							"/>
						</g>
						<g>
							<rect x="1766.8" y="424" class="st10" width="0.2" height="41.9"/>
							<polygon class="st9" points="1768.4,422.6 1765.4,422.6 1765.4,467.3 1768.4,467.3 							"/>
						</g>
						<g>
							<rect x="1749.9" y="436" class="st10" width="34" height="2.7"/>
							<polygon class="st9" points="1783.9,436 1749.9,436 1749.9,438.7 1783.9,438.7 							"/>
						</g>
					</g>
					<g>
						<g>
							<rect x="1690.3" y="424" class="st10" width="31.3" height="41.9"/>
							<path class="st9" d="M1720.2,425.4v39.2h-28.5v-39.2H1720.2 M1722.9,422.6h-34v44.7h34V422.6L1722.9,422.6z"/>
						</g>
						<g>
							<rect x="1688.9" y="451.2" class="st10" width="34" height="2.7"/>
							<polygon class="st9" points="1722.9,451.2 1688.9,451.2 1688.9,453.9 1722.9,453.9 							"/>
						</g>
						<g>
							<rect x="1705.8" y="424" class="st10" width="0.2" height="41.9"/>
							<polygon class="st9" points="1707.4,422.6 1704.5,422.6 1704.5,467.3 1707.4,467.3 							"/>
						</g>
						<g>
							<rect x="1688.9" y="436" class="st10" width="34" height="2.7"/>
							<polygon class="st9" points="1722.9,436 1688.9,436 1688.9,438.7 1722.9,438.7 							"/>
						</g>
					</g>
					<g>
						<g>
							<rect x="1751.3" y="487.5" class="st10" width="31.3" height="41.9"/>
							<path class="st9" d="M1781.2,488.8V528h-28.5v-39.2H1781.2 M1783.9,486.1h-34v44.7h34V486.1L1783.9,486.1z"/>
						</g>
						<g>
							<rect x="1749.9" y="514.7" class="st10" width="34" height="2.7"/>
							<polygon class="st9" points="1783.9,514.7 1749.9,514.7 1749.9,517.3 1783.9,517.3 							"/>
						</g>
						<g>
							<rect x="1766.8" y="487.5" class="st10" width="0.2" height="41.9"/>
							<polygon class="st9" points="1768.4,486.1 1765.4,486.1 1765.4,530.7 1768.4,530.7 							"/>
						</g>
						<g>
							<rect x="1749.9" y="499.5" class="st10" width="34" height="2.7"/>
							<polygon class="st9" points="1783.9,499.5 1749.9,499.5 1749.9,502.2 1783.9,502.2 							"/>
						</g>
					</g>
					<g>
						<g>
							<rect x="1691.8" y="487.5" class="st10" width="31.3" height="41.9"/>
							<path class="st9" d="M1721.6,488.8V528h-28.5v-39.2H1721.6 M1724.4,486.1h-34v44.7h34V486.1L1724.4,486.1z"/>
						</g>
						<g>
							<rect x="1690.4" y="514.7" class="st10" width="34" height="2.7"/>
							<polygon class="st9" points="1724.4,514.7 1690.4,514.7 1690.4,517.3 1724.4,517.3 							"/>
						</g>
						<g>
							<rect x="1707.3" y="487.5" class="st10" width="0.2" height="41.9"/>
							<polygon class="st9" points="1708.8,486.1 1705.9,486.1 1705.9,530.7 1708.8,530.7 							"/>
						</g>
						<g>
							<rect x="1690.4" y="499.5" class="st10" width="34" height="2.7"/>
							<polygon class="st9" points="1724.4,499.5 1690.4,499.5 1690.4,502.2 1724.4,502.2 							"/>
						</g>
					</g>
					<g>
						<rect x="1817.9" y="424" class="st10" width="12" height="41.9"/>
						<path class="st9" d="M1828.5,425.4v39.2h-9.2v-39.2H1828.5 M1831.2,422.6h-14.7v44.7h14.7V422.6L1831.2,422.6z"/>
					</g>
					<g>
						<rect x="1816.5" y="451.2" class="st10" width="14.7" height="2.7"/>
						<polygon class="st9" points="1831.3,451.2 1816.5,451.2 1816.5,453.9 1831.3,453.9 						"/>
					</g>
					<g>
						<rect x="1816.5" y="436" class="st10" width="14.7" height="2.7"/>
						<polygon class="st9" points="1831.3,436 1816.5,436 1816.5,438.7 1831.3,438.7 						"/>
					</g>
					<g>
						<rect x="1817.9" y="360.7" class="st10" width="12" height="41.9"/>
						<path class="st9" d="M1828.4,362.1v39.2h-9.2v-39.2H1828.4 M1831.2,359.4h-14.7V404h14.7V359.4L1831.2,359.4z"/>
					</g>
					<g>
						<rect x="1816.5" y="388" class="st10" width="14.7" height="2.7"/>
						<polygon class="st9" points="1831.2,388 1816.5,388 1816.5,390.6 1831.2,390.6 						"/>
					</g>
					<g>
						<rect x="1816.5" y="372.8" class="st10" width="14.7" height="2.7"/>
						<polygon class="st9" points="1831.2,372.8 1816.5,372.8 1816.5,375.4 1831.2,375.4 						"/>
					</g>
					<polygon class="st12" points="1728.6,343.2 1748.1,343.2 1831,539 1831,539.1 1831,257.5 1701,258.1 					"/>
				</g>
				<g>
					<g>
						<polygon class="st32" points="1831.3,423.3 1829.3,418.2 1829.3,423.3 						"/>
					</g>
					<g>
						<polygon class="st11" points="1959.5,258.1 1829.3,257.6 1829.3,257.6 						"/>
					</g>
					<path class="st9" d="M1848.5,539v-31.5c0-10.3-9.5-18.8-19.1-20.3V539L1848.5,539L1848.5,539z"/>
					<g>
						<path class="st32" d="M1843.3,390.4v13.1h-14.1v14.7l2,5h12.7v13.1v2.6v12.3v2.6v1v12.1h-14.7v20.2
							c10.8,1.5,19.1,10,19.1,20.3v31.5h-19.1v0.5h48.6h110.2V343.2h-158.9v16.5h14.1v13.1v2.6v12.3L1843.3,390.4L1843.3,390.4z
							 M1972.5,403.5h-15.2h-2.9h-15.2v-13.1v-2.6v-12.3v-2.6v-13.1h15.2h2.9h15.2v13.1v2.6v12.3v2.6V403.5z M1971.1,467h-15.2h-2.9
							h-15.2v-13.1v-2.6V439v-2.6v-13.1h15.2h2.9h15.2v13.1v2.6v12.3v2.6V467z M1936.3,486.8h15.2h2.9h15.2v13.1v2.6v12.3v2.6v13.1
							h-15.2h-2.9h-15.2v-13.1v-2.6v-12.3v-2.6V486.8z M1910.4,403.5h-15.2h-2.9h-15.2v-13.1v-2.6v-12.3v-2.6v-13.1h15.2h2.9h15.2
							v13.1v2.6v12.3v2.6V403.5z M1909.9,467h-15.2h-2.9h-15.2v-13.1v-2.6V439v-2.6v-13.1h15.2h2.9h15.2v13.1v2.6v12.3v2.6V467z
							 M1876.1,530.5v-13.1v-2.6v-12.3v-2.6v-13.1h15.2h2.9h15.2v13.1v2.6v12.3v2.6v13.1h-15.2h-2.9H1876.1z"/>
					</g>
					<g>
						<polygon class="st11" points="1959.5,258.1 1829.3,257.6 1829.3,343.2 1988.1,343.2 1996.3,343.2 						"/>
					</g>
					<g>
						<polygon class="st10" points="1844,454.9 1844,453.9 1843.6,453.9 						"/>
						<polygon class="st9" points="1844,453.9 1843.6,453.9 1844,454.9 						"/>
					</g>
					<g>
						<g>
							<rect x="1877.9" y="360.7" class="st10" width="31.3" height="41.9"/>
							<path class="st9" d="M1907.8,362.1v39.2h-28.5v-39.2H1907.8 M1910.6,359.4h-34V404h34V359.4L1910.6,359.4z"/>
						</g>
						<g>
							<rect x="1876.6" y="388" class="st10" width="34" height="2.7"/>
							<polygon class="st9" points="1910.6,388 1876.6,388 1876.6,390.6 1910.6,390.6 							"/>
						</g>
						<g>
							<rect x="1893.5" y="360.7" class="st10" width="0.2" height="41.9"/>
							<polygon class="st9" points="1895,359.4 1892.1,359.4 1892.1,404 1895,404 							"/>
						</g>
						<g>
							<rect x="1876.6" y="372.8" class="st10" width="34" height="2.7"/>
							<polygon class="st9" points="1910.6,372.8 1876.6,372.8 1876.6,375.4 1910.6,375.4 							"/>
						</g>
					</g>
					<g>
						<g>
							<rect x="1877.9" y="424" class="st10" width="31.3" height="41.9"/>
							<path class="st9" d="M1907.8,425.4v39.2h-28.5v-39.2H1907.8 M1910.6,422.6h-34v44.7h34V422.6L1910.6,422.6z"/>
						</g>
						<g>
							<rect x="1876.6" y="451.2" class="st10" width="34" height="2.7"/>
							<polygon class="st9" points="1910.6,451.2 1876.6,451.2 1876.6,453.9 1910.6,453.9 							"/>
						</g>
						<g>
							<rect x="1893.5" y="424" class="st10" width="0.2" height="41.9"/>
							<polygon class="st9" points="1895,422.6 1892.1,422.6 1892.1,467.3 1895,467.3 							"/>
						</g>
						<g>
							<rect x="1876.6" y="436" class="st10" width="34" height="2.7"/>
							<polygon class="st9" points="1910.6,436 1876.6,436 1876.6,438.7 1910.6,438.7 							"/>
						</g>
					</g>
					<g>
						<g>
							<rect x="1877.9" y="487.5" class="st10" width="31.3" height="41.9"/>
							<path class="st9" d="M1907.8,488.8V528h-28.5v-39.2H1907.8 M1910.6,486.1h-34v44.7h34V486.1L1910.6,486.1z"/>
						</g>
						<g>
							<rect x="1876.6" y="514.7" class="st10" width="34" height="2.7"/>
							<polygon class="st9" points="1910.6,514.7 1876.6,514.7 1876.6,517.3 1910.6,517.3 							"/>
						</g>
						<g>
							<rect x="1893.5" y="487.5" class="st10" width="0.2" height="41.9"/>
							<polygon class="st9" points="1895,486.1 1892.1,486.1 1892.1,530.7 1895,530.7 							"/>
						</g>
						<g>
							<rect x="1876.6" y="499.5" class="st10" width="34" height="2.7"/>
							<polygon class="st9" points="1910.6,499.5 1876.6,499.5 1876.6,502.2 1910.6,502.2 							"/>
						</g>
					</g>
					<g>
						<rect x="1830.6" y="424" class="st10" width="12" height="41.9"/>
						<path class="st9" d="M1841.2,425.4v39.2h-9.2v-39.2H1841.2 M1844,422.6h-14.7v44.7h14.7V422.6L1844,422.6z"/>
					</g>
					<g>
						<rect x="1829.2" y="451.2" class="st10" width="14.7" height="2.7"/>
						<polygon class="st9" points="1844,451.2 1829.2,451.2 1829.2,453.9 1844,453.9 						"/>
					</g>
					<g>
						<rect x="1829.2" y="436" class="st10" width="14.7" height="2.7"/>
						<polygon class="st9" points="1844,436 1829.2,436 1829.2,438.7 1844,438.7 						"/>
					</g>
					<g>
						<rect x="1830.7" y="360.7" class="st10" width="12" height="41.9"/>
						<path class="st9" d="M1841.2,362.1v39.2h-9.2v-39.2H1841.2 M1844,359.4h-14.7V404h14.7V359.4L1844,359.4z"/>
					</g>
					<g>
						<rect x="1829.2" y="388" class="st10" width="14.7" height="2.7"/>
						<polygon class="st9" points="1844,388 1829.2,388 1829.2,390.6 1844,390.6 						"/>
					</g>
					<g>
						<rect x="1829.2" y="372.8" class="st10" width="14.7" height="2.7"/>
						<polygon class="st9" points="1844,372.8 1829.2,372.8 1829.2,375.4 1844,375.4 						"/>
					</g>
					<polygon class="st12" points="1931.9,343.2 1920,540.5 1829.4,539 1831,540.5 1829.4,257.5 1959.5,258.1 					"/>
				</g>
				<g>
					<line class="st25" x1="183.8" y1="257" x2="236" y2="540.2"/>
					<line class="st25" x1="188.5" y1="256.6" x2="274.6" y2="540.2"/>
					<line class="st25" x1="173.6" y1="257" x2="121.4" y2="540.2"/>
					<line class="st25" x1="168.9" y1="256.6" x2="82.8" y2="540.2"/>
					<g>
						<polygon class="st26" points="196.4,541.6 164,541.6 174.5,172.4 186,172.4 						"/>
						<rect x="160.2" y="255.7" class="st27" width="40.1" height="3.5"/>
						<rect x="164" y="233.8" class="st27" width="31.5" height="3.5"/>
						<ellipse class="st27" cx="187" cy="246.9" rx="4.7" ry="4.3"/>
					</g>
				</g>
				<path class="st33" d="M0,542.5v15v8v26v8l0,0h1920v-57H0z M1895,550.5h14v7h-14V550.5z M1909,591.5h-14v-26h14V591.5z M34,565.5
					h14v26H34V565.5z M62,565.5h14v26H62V565.5z M91,565.5h14v26H91V565.5z M120,565.5h14v26h-14V565.5z M148,565.5h14v26h-14V565.5
					z M176,565.5h14v26h-14V565.5z M205,565.5h14v26h-14V565.5z M236,565.5h14v26h-14V565.5z M264,565.5h14v26h-14V565.5z
					 M292,565.5h14v26h-14V565.5z M321,565.5h14v26h-14V565.5z M350,565.5h14v26h-14V565.5z M378,565.5h14v26h-14V565.5z M406,565.5
					h14v26h-14V565.5z M435,565.5h14v26h-14V565.5z M464,565.5h14v26h-14V565.5z M492,565.5h14v26h-14V565.5z M520,565.5h14v26h-14
					V565.5z M549,565.5h14v26h-14V565.5z M580,565.5h14v26h-14V565.5z M608,565.5h14v26h-14V565.5z M636,565.5h14v26h-14V565.5z
					 M665,565.5h14v26h-14V565.5z M693,565.5h14v26h-14V565.5z M721,565.5h14v26h-14V565.5z M749,565.5h14v26h-14V565.5z M778,565.5
					h14v26h-14V565.5z M807,565.5h14v26h-14V565.5z M835,565.5h14v26h-14V565.5z M863,565.5h14v26h-14V565.5z M892,565.5h14v26h-14
					V565.5z M923,565.5h14v26h-14V565.5z M951,565.5h14v26h-14V565.5z M979,565.5h14v26h-14V565.5z M1008,565.5h14v26h-14V565.5z
					 M1037,565.5h14v26h-14V565.5z M1065,565.5h14v26h-14V565.5z M1093,565.5h14v26h-14V565.5z M1122,565.5h14v26h-14V565.5z
					 M1151,565.5h14v26h-14V565.5z M1179,565.5h14v26h-14V565.5z M1207,565.5h14v26h-14V565.5z M1236,565.5h14v26h-14V565.5z
					 M1267,565.5h14v26h-14V565.5z M1295,565.5h14v26h-14V565.5z M1323,565.5h14v26h-14V565.5z M1352,565.5h14v26h-14V565.5z
					 M1381,565.5h14v26h-14V565.5z M1409,565.5h14v26h-14V565.5z M1437,565.5h14v26h-14V565.5z M1466,565.5h14v26h-14V565.5z
					 M1495,565.5h14v26h-14V565.5z M1523,565.5h14v26h-14V565.5z M1551,565.5h14v26h-14V565.5z M1580,565.5h14v26h-14V565.5z
					 M1611,565.5h14v26h-14V565.5z M1639,565.5h14v26h-14V565.5z M1667,565.5h14v26h-14V565.5z M1696,565.5h14v26h-14V565.5z
					 M1725,565.5h14v26h-14V565.5z M1753,565.5h14v26h-14V565.5z M1781,565.5h14v26h-14V565.5z M1810,565.5h14v26h-14V565.5z
					 M1839,565.5h14v26h-14V565.5z M1867,565.5h14v26h-14V565.5z M1867,550.5h14v7h-14V550.5z M1839,550.5h14v7h-14V550.5z
					 M1810,550.5h14v7h-14V550.5z M1781,550.5h14v7h-14V550.5z M1753,550.5h14v7h-14V550.5z M1725,550.5h14v7h-14V550.5z
					 M1696,550.5h14v7h-14V550.5z M1667,550.5h14v7h-14V550.5z M1639,550.5h14v7h-14V550.5z M1611,550.5h14v7h-14V550.5z
					 M1580,550.5h14v7h-14V550.5z M1551,550.5h14v7h-14V550.5z M1523,550.5h14v7h-14V550.5z M1495,550.5h14v7h-14V550.5z
					 M1466,550.5h14v7h-14V550.5z M1437,550.5h14v7h-14V550.5z M1409,550.5h14v7h-14V550.5z M1381,550.5h14v7h-14V550.5z
					 M1352,550.5h14v7h-14V550.5z M1323,550.5h14v7h-14V550.5z M1295,550.5h14v7h-14V550.5z M1267,550.5h14v7h-14V550.5z
					 M1236,550.5h14v7h-14V550.5z M1207,550.5h14v7h-14V550.5z M1179,550.5h14v7h-14V550.5z M1151,550.5h14v7h-14V550.5z
					 M1122,550.5h14v7h-14V550.5z M1093,550.5h14v7h-14V550.5z M1065,550.5h14v7h-14V550.5z M1037,550.5h14v7h-14V550.5z
					 M1008,550.5h14v7h-14V550.5z M979,550.5h14v7h-14V550.5z M951,550.5h14v7h-14V550.5z M923,550.5h14v7h-14V550.5z M892,550.5h14
					v7h-14V550.5z M863,550.5h14v7h-14V550.5z M835,550.5h14v7h-14V550.5z M807,550.5h14v7h-14V550.5z M778,550.5h14v7h-14V550.5z
					 M749,550.5h14v7h-14V550.5z M721,550.5h14v7h-14V550.5z M693,550.5h14v7h-14V550.5z M665,550.5h14v7h-14V550.5z M636,550.5h14
					v7h-14V550.5z M608,550.5h14v7h-14V550.5z M580,550.5h14v7h-14V550.5z M549,550.5h14v7h-14V550.5z M520,550.5h14v7h-14V550.5z
					 M492,550.5h14v7h-14V550.5z M464,550.5h14v7h-14V550.5z M435,550.5h14v7h-14V550.5z M406,550.5h14v7h-14V550.5z M378,550.5h14
					v7h-14V550.5z M350,550.5h14v7h-14V550.5z M321,550.5h14v7h-14V550.5z M292,550.5h14v7h-14V550.5z M264,550.5h14v7h-14V550.5z
					 M236,550.5h14v7h-14V550.5z M205,550.5h14v7h-14V550.5z M176,550.5h14v7h-14V550.5z M148,550.5h14v7h-14V550.5z M120,550.5h14
					v7h-14V550.5z M91,550.5h14v7H91V550.5z M62,550.5h14v7H62V550.5z M34,550.5h14v7H34V550.5z M6,550.5h14v7H6V550.5z M6,565.5h14
					v26H6V565.5z"/>
				<g>
					<polygon class="st28" points="1542.1,540.7 1542.1,491.5 1616.4,466.9 1693.7,491.3 1693.7,540.7 					"/>
					<polyline class="st29" points="1571.6,540.7 1571.6,521.4 1664.1,521.1 1664.1,540.7 					"/>
					<line class="st29" x1="1602.2" y1="521.4" x2="1602.2" y2="540.7"/>
					<line class="st29" x1="1630.8" y1="521.4" x2="1630.8" y2="540.7"/>
					<polygon class="st11" points="1628.4,497.3 1616.9,507.9 1605.5,497.3 1616.9,486.8 					"/>
					<polygon class="st12" points="1582.6,479 1610.7,519.7 1619.7,519.7 1634.6,540.7 1693.7,540.7 1693.7,493 1616.4,466.9 					
						"/>
					<polyline class="st30" points="1530.6,495.4 1616.4,466.9 1700.7,495.4 					"/>
				</g>
				<g>
					<line class="st25" x1="552.3" y1="246" x2="713.3" y2="540.2"/>
					<line class="st25" x1="556.9" y1="256.6" x2="643.1" y2="540.2"/>
					<line class="st25" x1="537.9" y1="246" x2="376.8" y2="540.2"/>
					<line class="st25" x1="533.2" y1="256.6" x2="447" y2="540.2"/>
					<g>
						<polygon class="st26" points="561.7,540.7 529.3,540.7 539.8,171.6 551.2,171.6 						"/>
						<rect x="525.5" y="254.9" class="st27" width="40" height="3.5"/>
						<rect x="529.3" y="232.9" class="st27" width="31.5" height="3.5"/>
						<ellipse class="st27" cx="552.3" cy="246" rx="4.7" ry="4.3"/>
					</g>
				</g>
				<g>
					<polygon class="st28" points="362.4,540.7 362.4,491.5 436.7,466.9 514,491.3 514,540.7 					"/>
					<polyline class="st29" points="392,540.7 392,521.4 484.5,521.1 484.5,540.7 					"/>
					<line class="st29" x1="422.5" y1="521.4" x2="422.5" y2="540.7"/>
					<line class="st29" x1="451.1" y1="521.4" x2="451.1" y2="540.7"/>
					<polygon class="st11" points="448.7,497.3 437.3,507.9 425.8,497.3 437.3,486.8 					"/>
					<polygon class="st12" points="402.9,479 431,519.7 440,519.7 454.9,540.7 514,540.7 514,493 436.7,466.9 					"/>
					<polyline class="st30" points="350.9,495.4 436.7,466.9 521,495.4 					"/>
				</g>
				<g>
					<polygon class="st28" points="597,540.7 597,491.5 671.3,466.9 748.6,491.3 748.6,540.7 					"/>
					<polyline class="st29" points="626.5,540.7 626.5,521.4 719.1,521.1 719.1,540.7 					"/>
					<line class="st29" x1="657.1" y1="521.4" x2="657.1" y2="540.7"/>
					<line class="st29" x1="685.7" y1="521.4" x2="685.7" y2="540.7"/>
					<polygon class="st11" points="683.3,497.3 671.8,507.9 660.4,497.3 671.8,486.8 					"/>
					<polygon class="st12" points="637.5,479 665.6,519.7 674.6,519.7 689.5,540.7 748.6,540.7 748.6,493 671.3,466.9 					"/>
					<polyline class="st30" points="585.5,495.4 671.3,466.9 755.6,495.4 					"/>
				</g>
			</g>
		</g>
	</g>
</g>
<g id="Layer_1_1_">
</g>
<g id="text" class="st34">
</g>
<g id="ปุ่มซ้ายขวา" class="st34">
</g>
<g id="ชื่อประเทศ" class="st34">
</g>
<g id="Layer_5">
</g>
<g id="รถในหลวง">
</g>
<g id="Layer_6">
</g>
</svg>
