<?xml version="1.0" encoding="utf-8"?>
<!-- Generator: Adobe Illustrator 17.0.0, SVG Export Plug-In . SVG Version: 6.00 Build 0)  -->
<!DOCTYPE svg PUBLIC "-//W3C//DTD SVG 1.1//EN" "http://www.w3.org/Graphics/SVG/1.1/DTD/svg11.dtd">
<svg version="1.1" id="Layer_1" xmlns="http://www.w3.org/2000/svg" xmlns:xlink="http://www.w3.org/1999/xlink" x="0px" y="0px"
	 width="700px" height="375px" viewBox="0 0 700 375" enable-background="new 0 0 700 375" xml:space="preserve">
<g id="background_แค่แถวบน">
</g>
<g id="Layer_1_1_">
	<g>
		
			<linearGradient id="SVGID_1_" gradientUnits="userSpaceOnUse" x1="1361.9393" y1="307.2806" x2="1361.9393" y2="502.9712" gradientTransform="matrix(0.3539 0 0 -0.3539 -70.637 160.8468)">
			<stop  offset="4.102398e-007" style="stop-color:#B4D66B"/>
			<stop  offset="1" style="stop-color:#67A3B9"/>
		</linearGradient>
		<path fill="url(#SVGID_1_)" d="M443.515,15.955H405.12c-1.403,0-2.551,1.148-2.551,2.548c0,1.403,1.148,2.548,2.551,2.548h-26.546
			c-0.989,0-1.798,0.809-1.798,1.798v1.199c0,0.989,0.809,1.798,1.798,1.798h43.792c0.989,0,1.798-0.809,1.798-1.798v-1.199
			c0-0.989-0.809-1.798-1.798-1.798h21.145c1.403,0,2.551-1.148,2.551-2.548C446.065,17.1,444.918,15.955,443.515,15.955z"/>
		
			<linearGradient id="SVGID_2_" gradientUnits="userSpaceOnUse" x1="1365.1021" y1="247.2062" x2="1365.1021" y2="340.3922" gradientTransform="matrix(0.3539 0 0 -0.3539 -70.637 160.8468)">
			<stop  offset="4.102398e-007" style="stop-color:#B4D66B"/>
			<stop  offset="1" style="stop-color:#67A3B9"/>
		</linearGradient>
		<path fill="url(#SVGID_2_)" d="M397.921,64.204h29.235c1.034,0,1.879-0.845,1.879-1.879v-0.74c0-1.034-0.845-1.879-1.879-1.879
			h-29.235c-1.034,0-1.879,0.845-1.879,1.879v0.74C396.042,63.359,396.887,64.204,397.921,64.204z"/>
		
			<linearGradient id="SVGID_3_" gradientUnits="userSpaceOnUse" x1="1040.3469" y1="231.7437" x2="1040.3469" y2="311.3755" gradientTransform="matrix(0.3539 0 0 -0.3539 -70.637 160.8468)">
			<stop  offset="4.102398e-007" style="stop-color:#B4D66B"/>
			<stop  offset="1" style="stop-color:#67A3B9"/>
		</linearGradient>
		<path fill="url(#SVGID_3_)" d="M309.686,69.224h-24.188c-1.103,0-2.005-0.902-2.005-2.005v-0.788c0-1.103,0.902-2.005,2.005-2.005
			h24.188c1.103,0,2.005,0.902,2.005,2.005v0.788C311.691,68.322,310.789,69.224,309.686,69.224z"/>
		
			<linearGradient id="SVGID_4_" gradientUnits="userSpaceOnUse" x1="890.3454" y1="316.8777" x2="890.3454" y2="431.4541" gradientTransform="matrix(0.3539 0 0 -0.3539 -70.637 160.8468)">
			<stop  offset="4.102398e-007" style="stop-color:#B4D66B"/>
			<stop  offset="1" style="stop-color:#67A3B9"/>
		</linearGradient>
		<path fill="url(#SVGID_4_)" d="M227.808,33h33.383c1.975,0,3.591-1.577,3.591-3.504l0,0c0-1.927-1.616-3.504-3.591-3.504h-33.383
			c-1.975,0-3.591,1.577-3.591,3.504l0,0C224.217,31.423,225.833,33,227.808,33z"/>
		
			<linearGradient id="SVGID_5_" gradientUnits="userSpaceOnUse" x1="1049.2468" y1="260.1477" x2="1049.2468" y2="414.7517" gradientTransform="matrix(0.3539 0 0 -0.3539 -70.637 160.8468)">
			<stop  offset="4.102398e-007" style="stop-color:#BBCE95"/>
			<stop  offset="1" style="stop-color:#67A3B9"/>
		</linearGradient>
		<path fill="url(#SVGID_5_)" d="M278.218,43.484h45.048c2.665,0,4.846-1.577,4.846-3.504l0,0c0-1.927-2.182-3.504-4.846-3.504
			h-45.048c-2.665,0-4.846,1.577-4.846,3.504l0,0C273.372,41.911,275.553,43.484,278.218,43.484z"/>
		
			<linearGradient id="SVGID_6_" gradientUnits="userSpaceOnUse" x1="554.8615" y1="367.7789" x2="554.8615" y2="444.2536" gradientTransform="matrix(0.3539 0 0 -0.3539 -70.637 160.8468)">
			<stop  offset="4.102398e-007" style="stop-color:#B4D66B"/>
			<stop  offset="1" style="stop-color:#67A3B9"/>
		</linearGradient>
		<path fill="url(#SVGID_6_)" d="M114.615,14.414h22.281c1.319,0,2.398-0.779,2.398-1.732l0,0c0-0.953-1.079-1.732-2.398-1.732
			h-22.281c-1.319,0-2.398,0.779-2.398,1.732l0,0C112.22,13.635,113.296,14.414,114.615,14.414z"/>
		
			<linearGradient id="SVGID_7_" gradientUnits="userSpaceOnUse" x1="480.1401" y1="361.4979" x2="480.1401" y2="437.9726" gradientTransform="matrix(0.3539 0 0 -0.3539 -70.637 160.8468)">
			<stop  offset="4.102398e-007" style="stop-color:#B4D66B"/>
			<stop  offset="1" style="stop-color:#67A3B9"/>
		</linearGradient>
		<path fill="url(#SVGID_7_)" d="M88.167,22.633h22.281c1.319,0,2.398-0.779,2.398-1.732l0,0c0-0.953-1.079-1.732-2.398-1.732
			H88.167c-1.319,0-2.398,0.779-2.398,1.732l0,0C85.769,21.853,86.848,22.633,88.167,22.633z"/>
		
			<linearGradient id="SVGID_8_" gradientUnits="userSpaceOnUse" x1="479.3229" y1="194.3239" x2="479.3229" y2="390.1029" gradientTransform="matrix(0.3539 0 0 -0.3539 -70.637 160.8468)">
			<stop  offset="4.102398e-007" style="stop-color:#B4D66B"/>
			<stop  offset="1" style="stop-color:#67A3B9"/>
		</linearGradient>
		<path fill="url(#SVGID_8_)" d="M131.129,54.733H92.717c-1.403,0-2.551,1.148-2.551,2.551s1.148,2.551,2.551,2.551H66.159
			c-0.989,0-1.801,0.809-1.801,1.801v1.199c0,0.989,0.809,1.801,1.801,1.801h43.813c0.989,0,1.801-0.809,1.801-1.801v-1.199
			c0-0.989-0.809-1.801-1.801-1.801h21.157c1.403,0,2.551-1.148,2.551-2.551S132.532,54.733,131.129,54.733z"/>
		
			<linearGradient id="SVGID_9_" gradientUnits="userSpaceOnUse" x1="-13344.5654" y1="220.5211" x2="-13344.5654" y2="371.4687" gradientTransform="matrix(-0.3539 0 0 -0.3539 -4229.1196 160.8468)">
			<stop  offset="4.102398e-007" style="stop-color:#B4D66B"/>
			<stop  offset="1" style="stop-color:#67A3B9"/>
		</linearGradient>
		<path fill="url(#SVGID_9_)" d="M469.408,60.386h29.616c1.082,0,1.966,0.884,1.966,1.966c0,1.082-0.884,1.966-1.966,1.966H519.5
			c0.764,0,1.388,0.623,1.388,1.388v0.926c0,0.764-0.623,1.388-1.388,1.388h-33.779c-0.764,0-1.388-0.623-1.388-1.388v-0.926
			c0-0.764,0.623-1.388,1.388-1.388h-16.311c-1.082,0-1.966-0.884-1.966-1.966C467.442,61.273,468.326,60.386,469.408,60.386z"/>
		
			<linearGradient id="SVGID_10_" gradientUnits="userSpaceOnUse" x1="1870.9022" y1="188.7178" x2="1870.9022" y2="497.1297" gradientTransform="matrix(0.3539 0 0 -0.3539 -70.637 160.8468)">
			<stop  offset="4.102398e-007" style="stop-color:#B4D66B"/>
			<stop  offset="1" style="stop-color:#67A3B9"/>
		</linearGradient>
		<path fill="url(#SVGID_10_)" d="M592.27,28.681c-2.05,0-3.848,1.493-4.094,3.528c-0.291,2.425,1.618,4.508,3.989,4.508h-41.841
			c-1.562,0-2.835,1.277-2.835,2.835v1.888c0,1.559,1.277,2.835,2.835,2.835h69.029c1.562,0,2.835-1.277,2.835-2.835v-1.888
			c0-1.559-1.277-2.835-2.835-2.835h12.274c2.218,0,4.016-1.798,4.016-4.016l0,0c0-2.218-1.798-4.016-4.016-4.016H592.27V28.681z"/>
	</g>
</g>
<g id="text" display="none">
</g>
<g id="ปุ่มซ้ายขวา" display="none">
</g>
<g id="ชื่อประเทศ" display="none">
</g>
<g id="Layer_5">
</g>
<g id="รถในหลวง">
</g>
<g id="Layer_6">
</g>
</svg>
