<?xml version="1.0" encoding="utf-8"?>
<!-- Generator: Adobe Illustrator 17.0.0, SVG Export Plug-In . SVG Version: 6.00 Build 0)  -->
<!DOCTYPE svg PUBLIC "-//W3C//DTD SVG 1.1//EN" "http://www.w3.org/Graphics/SVG/1.1/DTD/svg11.dtd">
<svg version="1.1" id="Layer_1" xmlns="http://www.w3.org/2000/svg" xmlns:xlink="http://www.w3.org/1999/xlink" x="0px" y="0px"
	 width="700px" height="375px" viewBox="0 0 700 375" enable-background="new 0 0 700 375" xml:space="preserve">
<g id="background_แค่แถวบน">
</g>
<g id="Layer_1_1_">
	<g>
		<polygon fill="#FFFFFF" points="443.504,32.85 447.533,15.143 465.844,15.143 469.802,32.85 		"/>
		<path fill="#6F758E" d="M468.562,31.641c-14.724-0.243-37.735-2.206-37.735-2.206c2.268,9.134,10.449,18.267,14.349,18.267
			c9.209,0,68.53,0,68.53,0s12.531-11.203,14.243-21.692C527.949,26.011,503.888,32.228,468.562,31.641z"/>
		<path fill="none" stroke="#FFFFFF" stroke-width="6.4741" stroke-miterlimit="10" d="M525.536,32.832
			c0,0-20.138,6.923-55.469,6.336c-14.724-0.243-35.335-1.994-35.335-1.994"/>
		<polygon fill="#6B7F6E" points="466.056,23.712 461.401,23.712 461.401,17.998 464.772,17.998 		"/>
		<rect x="457.399" y="17.998" fill="#6B7F6E" width="3.428" height="5.714"/>
		<rect x="453.397" y="17.998" fill="#6B7F6E" width="2.859" height="5.714"/>
		<polygon fill="#6B7F6E" points="451.685,23.712 447.422,23.712 448.711,17.998 451.685,17.998 		"/>
		<polygon fill="#FFFFFF" points="204.226,85.499 214.445,39.861 260.917,39.861 270.973,85.499 		"/>
		<path fill="#7C6757" d="M267.814,82.225c-37.365-0.618-95.763-5.599-95.763-5.599c5.749,23.183,26.519,46.366,36.416,46.366
			c23.373,0,173.925,0,173.925,0s31.8-28.434,36.147-55.058C418.538,67.933,357.475,83.708,267.814,82.225z"/>
		<path fill="none" stroke="#FFFFFF" stroke-width="3.6947" stroke-miterlimit="10" d="M412.418,85.248
			c0,0-51.114,17.566-140.774,16.083c-37.369-0.618-89.674-5.061-89.674-5.061"/>
		<polygon fill="#6B7F6E" points="261.46,62.135 250.588,62.135 250.588,46.921 258.199,46.921 		"/>
		<rect x="239.72" y="46.921" fill="#6B7F6E" width="7.611" height="15.214"/>
		<rect x="228.848" y="46.921" fill="#6B7F6E" width="7.611" height="15.214"/>
		<polygon fill="#6B7F6E" points="225.044,62.135 214.172,62.135 217.433,46.921 225.044,46.921 		"/>
	</g>
</g>
<g id="text" display="none">
</g>
<g id="ปุ่มซ้ายขวา" display="none">
</g>
<g id="ชื่อประเทศ" display="none">
</g>
<g id="Layer_5">
</g>
<g id="รถในหลวง">
</g>
<g id="Layer_6">
</g>
</svg>
