<?xml version="1.0" encoding="utf-8"?>
<!-- Generator: Adobe Illustrator 17.0.0, SVG Export Plug-In . SVG Version: 6.00 Build 0)  -->
<!DOCTYPE svg PUBLIC "-//W3C//DTD SVG 1.1//EN" "http://www.w3.org/Graphics/SVG/1.1/DTD/svg11.dtd">
<svg version="1.1" id="Layer_1" xmlns="http://www.w3.org/2000/svg" xmlns:xlink="http://www.w3.org/1999/xlink" x="0px" y="0px"
	 width="700px" height="375px" viewBox="0 0 700 375" enable-background="new 0 0 700 375" xml:space="preserve">
<g id="background_แค่แถวบน">
</g>
<g id="Layer_1_1_">
	<g>
		<polygon fill="#FFFFFF" points="549.701,74.692 540.484,33.782 498.547,33.782 489.47,74.692 		"/>
		<path fill="#6F758E" d="M492.321,71.373c33.725-0.56,86.425-5.055,86.425-5.055c-5.188,20.919-23.932,41.839-32.865,41.839
			c-21.093,0-156.957,0-156.957,0S360.225,82.5,356.301,58.47C356.301,58.475,411.407,72.712,492.321,71.373z"/>
		<path fill="none" stroke="#FFFFFF" stroke-width="6.4454" stroke-miterlimit="10" d="M361.823,74.097
			c0,0,46.127,15.853,127.04,14.514c33.725-0.56,80.925-4.571,80.925-4.571"/>
		<polygon fill="#6B7F6E" points="498.057,53.12 508.456,53.12 508.456,39.732 501,39.732 		"/>
		<rect x="510.689" y="39.732" fill="#6B7F6E" width="7.439" height="13.388"/>
		<rect x="520.361" y="39.732" fill="#6B7F6E" width="6.694" height="13.388"/>
		<polygon fill="#6B7F6E" points="530.778,53.12 540.727,53.12 537.784,39.732 530.778,39.732 		"/>
		<polygon fill="#FFFFFF" points="237.893,49.455 232.048,23.862 205.461,23.862 199.713,49.455 		"/>
		<path fill="#7C6757" d="M201.52,47.736c21.375-0.352,54.783-3.203,54.783-3.203c-3.289,13.262-15.172,26.523-20.833,26.523
			c-13.371,0-99.49,0-99.49,0s-18.196-16.268-20.683-31.498C115.297,39.558,150.228,48.584,201.52,47.736z"/>
		<path fill="none" stroke="#FFFFFF" stroke-width="4.1587" stroke-miterlimit="10" d="M118.8,49.461
			c0,0,29.241,10.047,80.527,9.199c21.375-0.352,51.297-2.897,51.297-2.897"/>
		<polygon fill="#6B7F6E" points="205.155,35.859 211.711,35.859 211.711,27.861 207.019,27.861 		"/>
		<rect x="213.309" y="27.861" fill="#6B7F6E" width="4.801" height="7.998"/>
		<rect x="218.913" y="27.861" fill="#6B7F6E" width="4.801" height="7.998"/>
		<polygon fill="#6B7F6E" points="226.115,35.859 232.203,35.859 230.339,27.861 226.115,27.861 		"/>
	</g>
</g>
<g id="text" display="none">
</g>
<g id="ปุ่มซ้ายขวา" display="none">
</g>
<g id="ชื่อประเทศ" display="none">
</g>
<g id="Layer_5">
</g>
<g id="รถในหลวง">
</g>
<g id="Layer_6">
</g>
</svg>
