<svg id="Layer_1" data-name="Layer 1" xmlns="http://www.w3.org/2000/svg" viewBox="0 0 231.61 21.19"><defs><style>.cls-1,.cls-2{fill:#fff;isolation:isolate;}.cls-1{opacity:0.46;}.cls-2{opacity:0.34;}</style></defs><title>cloud-02</title><path class="cls-1" d="M535.49,218.91h-72a4.35,4.35,0,0,1-4.36-4c-.15-2.55,1.92-5.37,11.79-5.37h56c.67-.06,3.65-.19,3.65,1.8,0,0,.22,1.29-3.32.93H494.34a2,2,0,0,0-2.22,1.75,2.09,2.09,0,0,0,0,.25,1.83,1.83,0,0,0,1.8,1.87,1.63,1.63,0,0,0,.49-.05h40.39a4,4,0,0,0,.49,0c.44-.06,1.62,0,1.62,1.59a1.32,1.32,0,0,1-1.36,1.28Z" transform="translate(-305.29 -197.72)"/><path class="cls-2" d="M411.65,209.43H389.34c-2.19,0-4-1.47-4-3.27s1.79-3.27,4-3.27H405.8a2.61,2.61,0,1,0,1-5.12,2.46,2.46,0,0,0-1,0h-87a2.61,2.61,0,1,0-1,5.12,2.91,2.91,0,0,0,1,0h25.81c2.19,0,4,1.47,4,3.27s-1.79,3.27-4,3.27H308.75c-1.9,0-3.46,1.28-3.46,2.84s1.56,2.84,3.46,2.84h102.9c1.9,0,3.46-1.28,3.46-2.84S413.55,209.43,411.65,209.43Z" transform="translate(-305.29 -197.72)"/></svg>