<svg id="Layer_1" data-name="Layer 1" xmlns="http://www.w3.org/2000/svg" viewBox="0 0 469.12 106.93"><defs><style>.cls-1{fill:#fff;}</style></defs><title>cloud-03</title><path class="cls-1" d="M655.64,171.64a8,8,0,0,0-7.94-8.07,7.92,7.92,0,0,0-4.34,1.25,2.89,2.89,0,0,0-1.22-.27,5.66,5.66,0,0,0-5.59-4.81,5.26,5.26,0,0,0-2.28.49c-.76-2.24-1.65-4.24-4.78-5a5.7,5.7,0,0,0-7,4.11,1.42,1.42,0,0,0,0,.22c-.69-.31-.53.83-1.34.83a5.51,5.51,0,0,0-4,1.69,2.1,2.1,0,0,0-1.34-.46,2.22,2.22,0,0,0-2.22,2.22h0v.08a7.24,7.24,0,0,0-6.4,7.23v.59h48.44v-.11Z" transform="translate(-186.52 -155.04)"/><path class="cls-1" d="M201.5,262h79.12s-3.84-25.53-29.57-22.82c0,0-1.92-20.11-19.21-13.54,0,0-8.06,3.1-6.53,13.54,0,0-2.3-4.25-8.06-2.32,0,0-4.23,1.94-3.46,6.19,0,0-7.68-2.71-8.07,4.64,0,0-18.05,1.55-19.2,14.31Z" transform="translate(-186.52 -155.04)"/></svg>