<svg id="Layer_1" data-name="Layer 1" xmlns="http://www.w3.org/2000/svg" viewBox="0 0 617.33 65.23"><defs><style>.cls-1{fill:#f595a6;}</style></defs><title>cloud-05</title><path class="cls-1" d="M318,241.83a34.09,34.09,0,0,0-34-34.18h0a33.76,33.76,0,0,0-18.08,5.25,13.49,13.49,0,0,0-5.2-1.16,23.93,23.93,0,0,0-33.38-18.33,23.94,23.94,0,0,0-46.12,2.65,23.43,23.43,0,0,0-26.54,5.08,9.24,9.24,0,0,0-5.68-1.93,9.44,9.44,0,0,0-9.39,9.46V209a30.78,30.78,0,0,0-27.19,30.66,19.09,19.09,0,0,0,.11,2.51l-.11.11H318v-.47Z" transform="translate(-112.42 -177.07)"/><path class="cls-1" d="M729.75,241.83a34.08,34.08,0,0,0-34-34.18h0a33.68,33.68,0,0,0-18.08,5.25,13.49,13.49,0,0,0-5.2-1.16,24.05,24.05,0,0,0-23.7-20.39,23.77,23.77,0,0,0-9.68,2.06A24,24,0,0,0,593,196.06a23.42,23.42,0,0,0-26.53,5.08,9.32,9.32,0,0,0-5.68-1.93,9.43,9.43,0,0,0-9.4,9.46h0V209a30.79,30.79,0,0,0-27.18,30.66,21,21,0,0,0,.1,2.51l-.1.11H729.75Z" transform="translate(-112.42 -177.07)"/></svg>