<svg id="Layer_1" data-name="Layer 1" xmlns="http://www.w3.org/2000/svg" viewBox="0 0 418.35 104.32"><defs><style>.cls-1{fill:#fff;}</style></defs><title>cloud-04</title><path class="cls-1" d="M630.26,260.64a6.94,6.94,0,0,0-6.88-7h0a6.81,6.81,0,0,0-3.68,1.07,2.82,2.82,0,0,0-1.06-.24,4.91,4.91,0,0,0-4.83-4.15,4.72,4.72,0,0,0-2,.42,4.88,4.88,0,0,0-9.4.54,4.62,4.62,0,0,0-2-.43,4.75,4.75,0,0,0-3.43,1.46,2,2,0,0,0-1.16-.39,1.92,1.92,0,0,0-1.92,1.92h0a.09.09,0,0,0,0,.07,6.25,6.25,0,0,0-5.54,6.24v.51h41.87v-.09Z" transform="translate(-211.91 -156.35)"/><path class="cls-1" d="M260.33,173a8,8,0,0,0-7.94-8.06h-.06a7.93,7.93,0,0,0-4.26,1.24,3.24,3.24,0,0,0-1.22-.28,5.69,5.69,0,0,0-5.59-4.8,5.55,5.55,0,0,0-2.28.48c-.76-2.23-1.65-4.24-4.78-5a5.71,5.71,0,0,0-6.95,4.11,2.25,2.25,0,0,0-.05.22c-.7-.32-.52.83-1.33.83a5.48,5.48,0,0,0-4,1.69,2.21,2.21,0,0,0-3.56,1.76h0v.08a7.27,7.27,0,0,0-6.4,7.23v.59h48.42v-.11Z" transform="translate(-211.91 -156.35)"/></svg>