<svg id="Layer_1" data-name="Layer 1" xmlns="http://www.w3.org/2000/svg" viewBox="0 0 762.86 54.67"><defs><style>.cls-1,.cls-2{fill:#fff;isolation:isolate;}.cls-1{opacity:0.21;}.cls-2{opacity:0.34;}</style></defs><title>cloud-01</title><path class="cls-1" d="M322.78,105.61h-77s-4.5,1.74-4.5,5.22,5.53,3.83,5.53,3.83H291s5.53,1,6.22,4.87-5.87,4.52-5.87,4.52H219.11s-6.91.35-6.91,7.66,8.29,6.61,8.29,6.61h39.05s5.18,0,5.18,4.87-5.18,3.83-5.18,3.83H224s-4.84,1.39-4.15,5.91,4.49,4.53,4.49,4.53H384.64s7.94,1.39,7.94-3.83-8.63-4.18-8.63-4.18H345.59s-5.53.35-5.53-3.82,5.53-3.83,5.53-3.83h35.25a6.12,6.12,0,0,0,5.18-6.26c0-5.57-6.57-5.92-6.57-5.92H345.24s-3.8.7-3.8-4.18,6.91-3.47,6.91-3.47h20s9.67.69,9.67-9.75c0,0,.69-6.61-10.71-6.61Z" transform="translate(-47.64 -102.96)"/><path class="cls-1" d="M740.65,103H663.59s-4.48,1.74-4.48,5.21,5.53,3.83,5.53,3.83h44.23s5.53,1,6.22,4.87-5.88,4.53-5.88,4.53H637s-6.91.35-6.91,7.65,8.3,6.61,8.3,6.61h39s5.19,0,5.19,4.88-5.19,3.82-5.19,3.82H641.82s-4.84,1.4-4.15,5.92,4.5,4.52,4.5,4.52H802.5s8,1.39,8-3.83-8.64-4.17-8.64-4.17H763.45s-5.53.35-5.53-3.83,5.53-3.83,5.53-3.83H798.7a6.12,6.12,0,0,0,5.18-6.26c0-5.57-6.56-5.92-6.56-5.92H763.11s-3.8.7-3.8-4.17,6.91-3.48,6.91-3.48h20s9.67.7,9.67-9.74c0,0,.7-6.62-10.71-6.62Z" transform="translate(-47.64 -102.96)"/><path class="cls-2" d="M154,140.34H131.62c-2.19,0-4-1.47-4-3.27s1.8-3.26,4-3.26h16.49a2.61,2.61,0,1,0,1-5.12,2.86,2.86,0,0,0-1,0h-87a2.61,2.61,0,0,0-1,5.12,2.5,2.5,0,0,0,1,0H86.93c2.19,0,4,1.47,4,3.26s-1.79,3.27-4,3.27H51.11c-1.91,0-3.47,1.28-3.47,2.85S49.2,146,51.11,146H154c1.91,0,3.47-1.28,3.47-2.84S155.87,140.34,154,140.34Z" transform="translate(-47.64 -102.96)"/></svg>