<svg id="Layer_1" data-name="Layer 1" xmlns="http://www.w3.org/2000/svg" viewBox="0 0 267.08 30.24"><defs><style>.cls-1{fill:#fff;}</style></defs><title>cloud-07</title><path class="cls-1" d="M404.07,251.44a5.37,5.37,0,0,0-8.24-4.55,2,2,0,0,0-.82-.18,3.81,3.81,0,0,0-3.76-3.21,3.92,3.92,0,0,0-1.53.32,3.8,3.8,0,0,0-7.3.42,3.73,3.73,0,0,0-4.21.8,1.45,1.45,0,0,0-.89-.3,1.48,1.48,0,0,0-1.49,1.48v.06a4.86,4.86,0,0,0-4.31,4.82c0,.13,0,.27,0,.4h32.53v-.07Z" transform="translate(-136.99 -221.27)"/><path class="cls-1" d="M148.64,250.35h61.5s-3-19.7-23-17.61c0,0-1.49-15.53-14.93-10.45,0,0-6.27,2.39-5.07,10.45,0,0-1.79-3.29-6.27-1.79,0,0-3.29,1.49-2.69,4.77,0,0-6-2.09-6.27,3.59,0,0-14,1.19-14.93,11Z" transform="translate(-136.99 -221.27)"/></svg>