<svg id="Layer_1" data-name="Layer 1" xmlns="http://www.w3.org/2000/svg" xmlns:xlink="http://www.w3.org/1999/xlink" viewBox="0 0 570.63 47.46"><defs><style>.cls-1{fill:url(#linear-gradient);}.cls-2{opacity:0.75;isolation:isolate;fill:url(#linear-gradient-2);}</style><linearGradient id="linear-gradient" x1="135.78" y1="94.93" x2="239.15" y2="94.93" gradientTransform="matrix(1, 0, 0, -1, 0, 298.36)" gradientUnits="userSpaceOnUse"><stop offset="0" stop-color="#f4899e"/><stop offset="0.24" stop-color="#ef8ca2"/><stop offset="0.51" stop-color="#e295ad"/><stop offset="0.61" stop-color="#db99b3"/></linearGradient><linearGradient id="linear-gradient-2" x1="637.88" y1="77.11" x2="706.41" y2="77.11" xlink:href="#linear-gradient"/></defs><title>cloud-06</title><path class="cls-1" d="M154.26,221.26h84.89s-.39-18.57-23.05-12.76c0,0,3.07-4.65-2.31-5.42,0,0,3.46-6.58-2.68-13.15s-17.67-3.87-20,3.87c0,0-3.07-10.45-13.83-7.74s-14.59,8.9-12.67,17.41c0,0-10,0-7.68,8.89,0,0-5-3.48-6.15,1.55,0,0-13.83-1.55-15,7.35Z" transform="translate(-135.78 -185.61)"/><path class="cls-2" d="M650.13,233.07h56.28s-.26-12.31-15.29-8.46c0,0,2-3.08-1.53-3.6,0,0,2.3-4.36-1.78-8.72s-11.72-2.56-13.25,2.57c0,0-2-6.93-9.17-5.13s-9.68,5.9-8.41,11.54c0,0-6.62,0-5.09,5.9,0,0-3.31-2.31-4.08,1,0,0-9.17-1-9.93,4.87Z" transform="translate(-135.78 -185.61)"/></svg>