<svg id="Layer_1" data-name="Layer 1" xmlns="http://www.w3.org/2000/svg" viewBox="0 0 907.09 316.08"><defs><style>.cls-1{fill:#d55564;}</style></defs><title>film_Small</title><path class="cls-1" d="M-155.91,209.87v10.56a1.76,1.76,0,0,1,.91-.26h7.43a1.74,1.74,0,0,1,1.74,1.74v18.37a1.75,1.75,0,0,1-1.74,1.75H-155a1.76,1.76,0,0,1-.91-.26V495.32a1.76,1.76,0,0,1,.91-.26h7.43a1.74,1.74,0,0,1,1.74,1.74v18.37a1.74,1.74,0,0,1-1.74,1.75H-155a1.76,1.76,0,0,1-.91-.26V526H751.18V209.87Zm40.32,305.3a1.74,1.74,0,0,1-1.74,1.75h-7.44a1.74,1.74,0,0,1-1.74-1.75V496.8a1.74,1.74,0,0,1,1.74-1.74h7.44a1.74,1.74,0,0,1,1.74,1.74Zm0-274.89a1.75,1.75,0,0,1-1.74,1.75h-7.44a1.75,1.75,0,0,1-1.74-1.75V221.91a1.74,1.74,0,0,1,1.74-1.74h7.44a1.74,1.74,0,0,1,1.74,1.74Zm30.24,274.89a1.75,1.75,0,0,1-1.75,1.75h-7.43a1.74,1.74,0,0,1-1.74-1.75V496.8a1.74,1.74,0,0,1,1.74-1.74h7.43a1.74,1.74,0,0,1,1.75,1.74Zm0-274.89A1.75,1.75,0,0,1-87.1,242h-7.43a1.75,1.75,0,0,1-1.74-1.75V221.91a1.74,1.74,0,0,1,1.74-1.74h7.43a1.74,1.74,0,0,1,1.75,1.74Zm30.23,274.89a1.74,1.74,0,0,1-1.74,1.75h-7.43A1.75,1.75,0,0,1-66,515.17V496.8a1.74,1.74,0,0,1,1.75-1.74h7.43a1.74,1.74,0,0,1,1.74,1.74Zm0-274.89A1.75,1.75,0,0,1-56.86,242h-7.43A1.75,1.75,0,0,1-66,240.28V221.91a1.74,1.74,0,0,1,1.75-1.74h7.43a1.74,1.74,0,0,1,1.74,1.74Zm30.24,274.89a1.74,1.74,0,0,1-1.74,1.75h-7.44a1.74,1.74,0,0,1-1.74-1.75V496.8a1.74,1.74,0,0,1,1.74-1.74h7.44a1.74,1.74,0,0,1,1.74,1.74Zm0-274.89A1.75,1.75,0,0,1-26.62,242h-7.44a1.75,1.75,0,0,1-1.74-1.75V221.91a1.74,1.74,0,0,1,1.74-1.74h7.44a1.74,1.74,0,0,1,1.74,1.74ZM5.35,515.17a1.74,1.74,0,0,1-1.74,1.75H-3.82a1.74,1.74,0,0,1-1.74-1.75V496.8a1.74,1.74,0,0,1,1.74-1.74H3.61a1.74,1.74,0,0,1,1.74,1.74Zm0-274.89A1.75,1.75,0,0,1,3.61,242H-3.82a1.75,1.75,0,0,1-1.74-1.75V221.91a1.74,1.74,0,0,1,1.74-1.74H3.61a1.74,1.74,0,0,1,1.74,1.74ZM35.59,515.17a1.74,1.74,0,0,1-1.74,1.75H26.41a1.74,1.74,0,0,1-1.74-1.75V496.8a1.74,1.74,0,0,1,1.74-1.74h7.44a1.74,1.74,0,0,1,1.74,1.74Zm0-274.89A1.75,1.75,0,0,1,33.85,242H26.41a1.75,1.75,0,0,1-1.74-1.75V221.91a1.74,1.74,0,0,1,1.74-1.74h7.44a1.74,1.74,0,0,1,1.74,1.74ZM65.83,515.17a1.75,1.75,0,0,1-1.75,1.75H56.65a1.74,1.74,0,0,1-1.74-1.75V496.8a1.74,1.74,0,0,1,1.74-1.74h7.43a1.74,1.74,0,0,1,1.75,1.74Zm0-274.89A1.75,1.75,0,0,1,64.08,242H56.65a1.75,1.75,0,0,1-1.74-1.75V221.91a1.74,1.74,0,0,1,1.74-1.74h7.43a1.74,1.74,0,0,1,1.75,1.74ZM96.06,515.17a1.74,1.74,0,0,1-1.74,1.75H86.89a1.75,1.75,0,0,1-1.75-1.75V496.8a1.74,1.74,0,0,1,1.75-1.74h7.43a1.74,1.74,0,0,1,1.74,1.74Zm0-274.89A1.75,1.75,0,0,1,94.32,242H86.89a1.75,1.75,0,0,1-1.75-1.75V221.91a1.74,1.74,0,0,1,1.75-1.74h7.43a1.74,1.74,0,0,1,1.74,1.74ZM126.3,515.17a1.74,1.74,0,0,1-1.74,1.75h-7.44a1.74,1.74,0,0,1-1.74-1.75V496.8a1.74,1.74,0,0,1,1.74-1.74h7.44a1.74,1.74,0,0,1,1.74,1.74Zm0-274.89a1.75,1.75,0,0,1-1.74,1.75h-7.44a1.75,1.75,0,0,1-1.74-1.75V221.91a1.74,1.74,0,0,1,1.74-1.74h7.44a1.74,1.74,0,0,1,1.74,1.74Zm30.24,274.89a1.75,1.75,0,0,1-1.75,1.75h-7.43a1.74,1.74,0,0,1-1.74-1.75V496.8a1.74,1.74,0,0,1,1.74-1.74h7.43a1.74,1.74,0,0,1,1.75,1.74Zm0-274.89a1.75,1.75,0,0,1-1.75,1.75h-7.43a1.75,1.75,0,0,1-1.74-1.75V221.91a1.74,1.74,0,0,1,1.74-1.74h7.43a1.74,1.74,0,0,1,1.75,1.74Zm30.23,274.89a1.74,1.74,0,0,1-1.74,1.75H177.6a1.75,1.75,0,0,1-1.75-1.75V496.8a1.74,1.74,0,0,1,1.75-1.74H185a1.74,1.74,0,0,1,1.74,1.74Zm0-274.89A1.75,1.75,0,0,1,185,242H177.6a1.75,1.75,0,0,1-1.75-1.75V221.91a1.74,1.74,0,0,1,1.75-1.74H185a1.74,1.74,0,0,1,1.74,1.74ZM217,515.17a1.74,1.74,0,0,1-1.74,1.75h-7.44a1.74,1.74,0,0,1-1.74-1.75V496.8a1.74,1.74,0,0,1,1.74-1.74h7.44A1.74,1.74,0,0,1,217,496.8Zm0-274.89a1.75,1.75,0,0,1-1.74,1.75h-7.44a1.75,1.75,0,0,1-1.74-1.75V221.91a1.74,1.74,0,0,1,1.74-1.74h7.44a1.74,1.74,0,0,1,1.74,1.74Zm30.23,274.89a1.74,1.74,0,0,1-1.74,1.75h-7.43a1.74,1.74,0,0,1-1.74-1.75V496.8a1.74,1.74,0,0,1,1.74-1.74h7.43a1.74,1.74,0,0,1,1.74,1.74Zm0-274.89A1.75,1.75,0,0,1,245.5,242h-7.43a1.75,1.75,0,0,1-1.74-1.75V221.91a1.74,1.74,0,0,1,1.74-1.74h7.43a1.74,1.74,0,0,1,1.74,1.74Zm30.24,274.89a1.74,1.74,0,0,1-1.74,1.75H268.3a1.74,1.74,0,0,1-1.74-1.75V496.8a1.74,1.74,0,0,1,1.74-1.74h7.44a1.74,1.74,0,0,1,1.74,1.74Zm0-274.89a1.75,1.75,0,0,1-1.74,1.75H268.3a1.75,1.75,0,0,1-1.74-1.75V221.91a1.74,1.74,0,0,1,1.74-1.74h7.44a1.74,1.74,0,0,1,1.74,1.74Zm30.24,274.89a1.75,1.75,0,0,1-1.75,1.75h-7.43a1.74,1.74,0,0,1-1.74-1.75V496.8a1.74,1.74,0,0,1,1.74-1.74H306a1.74,1.74,0,0,1,1.75,1.74Zm0-274.89A1.75,1.75,0,0,1,306,242h-7.43a1.75,1.75,0,0,1-1.74-1.75V221.91a1.74,1.74,0,0,1,1.74-1.74H306a1.74,1.74,0,0,1,1.75,1.74ZM338,515.17a1.74,1.74,0,0,1-1.74,1.75h-7.43a1.75,1.75,0,0,1-1.75-1.75V496.8a1.74,1.74,0,0,1,1.75-1.74h7.43A1.74,1.74,0,0,1,338,496.8Zm0-274.89a1.75,1.75,0,0,1-1.74,1.75h-7.43a1.75,1.75,0,0,1-1.75-1.75V221.91a1.74,1.74,0,0,1,1.75-1.74h7.43a1.74,1.74,0,0,1,1.74,1.74Zm30.24,274.89a1.74,1.74,0,0,1-1.74,1.75H359a1.74,1.74,0,0,1-1.74-1.75V496.8a1.74,1.74,0,0,1,1.74-1.74h7.44a1.74,1.74,0,0,1,1.74,1.74Zm0-274.89a1.75,1.75,0,0,1-1.74,1.75H359a1.75,1.75,0,0,1-1.74-1.75V221.91a1.74,1.74,0,0,1,1.74-1.74h7.44a1.74,1.74,0,0,1,1.74,1.74Zm30.24,274.89a1.75,1.75,0,0,1-1.75,1.75h-7.43a1.74,1.74,0,0,1-1.74-1.75V496.8a1.74,1.74,0,0,1,1.74-1.74h7.43a1.74,1.74,0,0,1,1.75,1.74Zm0-274.89a1.75,1.75,0,0,1-1.75,1.75h-7.43a1.75,1.75,0,0,1-1.74-1.75V221.91a1.74,1.74,0,0,1,1.74-1.74h7.43a1.74,1.74,0,0,1,1.75,1.74Zm30.23,274.89a1.74,1.74,0,0,1-1.74,1.75h-7.44a1.74,1.74,0,0,1-1.74-1.75V496.8a1.74,1.74,0,0,1,1.74-1.74h7.44a1.74,1.74,0,0,1,1.74,1.74Zm0-274.89a1.75,1.75,0,0,1-1.74,1.75h-7.44a1.75,1.75,0,0,1-1.74-1.75V221.91a1.74,1.74,0,0,1,1.74-1.74h7.44a1.74,1.74,0,0,1,1.74,1.74ZM458.9,515.17a1.74,1.74,0,0,1-1.74,1.75h-7.44a1.74,1.74,0,0,1-1.74-1.75V496.8a1.74,1.74,0,0,1,1.74-1.74h7.44a1.74,1.74,0,0,1,1.74,1.74Zm0-274.89a1.75,1.75,0,0,1-1.74,1.75h-7.44a1.75,1.75,0,0,1-1.74-1.75V221.91a1.74,1.74,0,0,1,1.74-1.74h7.44a1.74,1.74,0,0,1,1.74,1.74Zm30.23,274.89a1.74,1.74,0,0,1-1.74,1.75H480a1.74,1.74,0,0,1-1.74-1.75V496.8a1.74,1.74,0,0,1,1.74-1.74h7.43a1.74,1.74,0,0,1,1.74,1.74Zm0-274.89a1.75,1.75,0,0,1-1.74,1.75H480a1.75,1.75,0,0,1-1.74-1.75V221.91a1.74,1.74,0,0,1,1.74-1.74h7.43a1.74,1.74,0,0,1,1.74,1.74Zm30.24,274.89a1.74,1.74,0,0,1-1.74,1.75h-7.44a1.74,1.74,0,0,1-1.74-1.75V496.8a1.74,1.74,0,0,1,1.74-1.74h7.44a1.74,1.74,0,0,1,1.74,1.74Zm0-274.89a1.75,1.75,0,0,1-1.74,1.75h-7.44a1.75,1.75,0,0,1-1.74-1.75V221.91a1.74,1.74,0,0,1,1.74-1.74h7.44a1.74,1.74,0,0,1,1.74,1.74Zm30.24,274.89a1.75,1.75,0,0,1-1.75,1.75h-7.43a1.74,1.74,0,0,1-1.74-1.75V496.8a1.74,1.74,0,0,1,1.74-1.74h7.43a1.74,1.74,0,0,1,1.75,1.74Zm0-274.89a1.75,1.75,0,0,1-1.75,1.75h-7.43a1.75,1.75,0,0,1-1.74-1.75V221.91a1.74,1.74,0,0,1,1.74-1.74h7.43a1.74,1.74,0,0,1,1.75,1.74Zm30.23,274.89a1.74,1.74,0,0,1-1.74,1.75h-7.43a1.75,1.75,0,0,1-1.75-1.75V496.8a1.74,1.74,0,0,1,1.75-1.74h7.43a1.74,1.74,0,0,1,1.74,1.74Zm0-274.89A1.75,1.75,0,0,1,578.1,242h-7.43a1.75,1.75,0,0,1-1.75-1.75V221.91a1.74,1.74,0,0,1,1.75-1.74h7.43a1.74,1.74,0,0,1,1.74,1.74Zm30.24,274.89a1.74,1.74,0,0,1-1.74,1.75H600.9a1.74,1.74,0,0,1-1.74-1.75V496.8a1.74,1.74,0,0,1,1.74-1.74h7.44a1.74,1.74,0,0,1,1.74,1.74Zm0-274.89a1.75,1.75,0,0,1-1.74,1.75H600.9a1.75,1.75,0,0,1-1.74-1.75V221.91a1.74,1.74,0,0,1,1.74-1.74h7.44a1.74,1.74,0,0,1,1.74,1.74Zm30.23,274.89a1.74,1.74,0,0,1-1.74,1.75h-7.43a1.74,1.74,0,0,1-1.74-1.75V496.8a1.74,1.74,0,0,1,1.74-1.74h7.43a1.74,1.74,0,0,1,1.74,1.74Zm0-274.89a1.75,1.75,0,0,1-1.74,1.75h-7.43a1.75,1.75,0,0,1-1.74-1.75V221.91a1.74,1.74,0,0,1,1.74-1.74h7.43a1.74,1.74,0,0,1,1.74,1.74Zm30.24,274.89a1.74,1.74,0,0,1-1.74,1.75h-7.44a1.74,1.74,0,0,1-1.74-1.75V496.8a1.74,1.74,0,0,1,1.74-1.74h7.44a1.74,1.74,0,0,1,1.74,1.74Zm0-274.89a1.75,1.75,0,0,1-1.74,1.75h-7.44a1.75,1.75,0,0,1-1.74-1.75V221.91a1.74,1.74,0,0,1,1.74-1.74h7.44a1.74,1.74,0,0,1,1.74,1.74Zm30.24,274.89a1.74,1.74,0,0,1-1.74,1.75h-7.44a1.74,1.74,0,0,1-1.74-1.75V496.8a1.74,1.74,0,0,1,1.74-1.74h7.44a1.74,1.74,0,0,1,1.74,1.74Zm0-274.89a1.75,1.75,0,0,1-1.74,1.75h-7.44a1.75,1.75,0,0,1-1.74-1.75V221.91a1.74,1.74,0,0,1,1.74-1.74h7.44a1.74,1.74,0,0,1,1.74,1.74ZM731,515.17a1.74,1.74,0,0,1-1.74,1.75h-7.43a1.75,1.75,0,0,1-1.75-1.75V496.8a1.75,1.75,0,0,1,1.75-1.74h7.43A1.74,1.74,0,0,1,731,496.8Zm0-274.89a1.75,1.75,0,0,1-1.74,1.75h-7.43a1.76,1.76,0,0,1-1.75-1.75V221.91a1.75,1.75,0,0,1,1.75-1.74h7.43a1.74,1.74,0,0,1,1.74,1.74Z" transform="translate(155.91 -209.87)"/></svg>