<svg id="Layer_1" data-name="Layer 1" xmlns="http://www.w3.org/2000/svg" viewBox="0 0 54.52 30.63"><defs><style>.cls-1{fill:#807198;}.cls-2{fill:#9d84a0;}</style></defs><title>fish</title><path class="cls-1" d="M438.22,198.7s1.73-4.44-3.44-5.22-17.55-.79-23.47,4c0,0-2.61,2.37-5,2.37,0,0,3.44,4.74,6.34,2.64C412.67,202.47,417.48,195.75,438.22,198.7Z" transform="translate(-393.94 -193.1)"/><path class="cls-1" d="M417.62,217.11a6.3,6.3,0,0,1-6.12,4.7c-5.17.24-7.76-1.19-7.76-1.19s3.06-1.43,2.35-3.58,4-1.67,4-1.67l1.7-.18Z" transform="translate(-393.94 -193.1)"/><path class="cls-1" d="M401.87,207.14s-2.64-5.34-4.4-5.11-3.74,4.18-3.52,9.29c.2,4.69,1.76,8.82,3.08,8.82s5.06-4.64,5.06-4.64Z" transform="translate(-393.94 -193.1)"/><path class="cls-2" d="M448.45,207.26c-6.82-5-3.12-11.22-22.59-9.53-15.27,1.33-13.76,7.37-19.64,10.71a1.74,1.74,0,0,1-1.84,0,15.72,15.72,0,0,0-2.52-1.37s-4.24,4.53.23,8.58l2.28-1.51a3.15,3.15,0,0,1,1.71-.31,22,22,0,0,1,6.13,1.58c3.06,1.44,10.36,3.1,15.77,3.1C432,218.47,444.78,218.13,448.45,207.26Z" transform="translate(-393.94 -193.1)"/><path class="cls-1" d="M439.3,216.58s.21,5-5.44,7.14c0,0,.47-3.1-1.17-3.82s3.35-1.63,3.67-2.36Z" transform="translate(-393.94 -193.1)"/></svg>