<svg id="Layer_1" data-name="Layer 1" xmlns="http://www.w3.org/2000/svg" viewBox="0 0 70.18 39.68"><defs><style>.cls-1{fill:#807097;}.cls-2{fill:#9d83a0;}</style></defs><title>fish-02</title><path class="cls-1" d="M217.49,179.71s-2.47-5.6,4.13-6.9,22.47-2,30.34,3.71c0,0,3.48,2.89,6.52,2.75,0,0-4.15,6.29-8,3.75C250.49,183,244,174.72,217.49,179.71Z" transform="translate(-204.84 -171.89)"/><path class="cls-1" d="M245,202.14a8.09,8.09,0,0,0,8.12,5.68c6.66,0,9.9-2,9.9-2s-4-1.66-3.22-4.45-5.23-1.91-5.23-1.91l-2.19-.14Z" transform="translate(-204.84 -171.89)"/><path class="cls-1" d="M264.62,188.43s3.08-7,5.36-6.81,5,5.15,5,11.72c0,6-1.76,11.43-3.45,11.5s-6.76-5.67-6.76-5.67Z" transform="translate(-204.84 -171.89)"/><path class="cls-2" d="M204.84,191.29c8.48-6.81,3.38-14.58,28.46-13.54,19.67.82,18.07,8.65,25.81,12.6a2.28,2.28,0,0,0,2.36-.15,20.91,20.91,0,0,1,3.16-1.91s5.69,5.57.18,11l-3-1.81a3.91,3.91,0,0,0-2.21-.29,27.38,27.38,0,0,0-7.78,2.38c-3.84,2-13.11,4.58-20.06,4.89C226.58,204.73,210.17,205,204.84,191.29Z" transform="translate(-204.84 -171.89)"/><path class="cls-1" d="M217.11,202.72s0,6.42,7.39,8.85c0,0-.78-3.95,1.29-5s-4.4-1.91-4.85-2.83Z" transform="translate(-204.84 -171.89)"/></svg>