<?xml version="1.0" encoding="utf-8"?>
<!-- Generator: Adobe Illustrator 23.1.0, SVG Export Plug-In . SVG Version: 6.00 Build 0)  -->
<svg version="1.0" id="Layer_1" xmlns="http://www.w3.org/2000/svg" xmlns:xlink="http://www.w3.org/1999/xlink" x="0px" y="0px"
	 viewBox="0 0 595.28 595.28" style="enable-background:new 0 0 595.28 595.28;" xml:space="preserve">
<style type="text/css">
	.st0{opacity:0.57;}
	.st1{fill:#8894A9;}
	.st2{fill:#F3F2F9;}
	.st3{fill:url(#SVGID_1_);}
	.st4{fill:#272361;}
	.st5{opacity:0.67;fill:#FFFFFF;}
	.st6{opacity:0.38;fill:#FFFFFF;}
	.st7{fill:url(#SVGID_2_);}
	.st8{fill:#EDDCC3;}
	.st9{fill:#99897F;}
	.st10{fill:#5E5E56;}
	.st11{fill:#CDBCA0;}
	.st12{fill:#AB9992;}
	.st13{fill:#9B8E85;}
	.st14{fill:#39362D;}
	.st15{fill:#558979;}
	.st16{fill:#94BC9F;}
	.st17{fill:#719E84;}
	.st18{fill:#B29F91;}
	.st19{fill:#6D6965;}
	.st20{fill:#A09288;}
	.st21{fill:#FFFFFF;}
	.st22{fill:#D33A2A;}
	.st23{fill:#786D66;}
	.st24{fill:#806056;}
	.st25{fill:#D55564;}
	.st26{fill:#EC8898;}
	.st27{opacity:0.11;fill:url(#SVGID_3_);}
	.st28{fill:url(#SVGID_4_);}
	.st29{opacity:0.67;clip-path:url(#SVGID_6_);fill:#FFFFFF;}
	.st30{clip-path:url(#SVGID_8_);fill:url(#SVGID_9_);}
</style>
<g class="st0">
	<polygon class="st1" points="188.89,407.1 163.07,396.03 129.87,407.1 104.05,392.34 65.02,400.91 65.03,400.9 -102.52,585.25 
		415.75,585.25 251.73,407.1 211.02,392.34 	"/>
	<polygon class="st2" points="128.8,330.73 128.16,330.73 65.03,400.9 	"/>
	<polygon class="st2" points="251.73,407.1 251.73,407.1 183.17,330.73 181.43,330.73 	"/>
	<polygon class="st2" points="128.8,330.73 65.03,400.9 65.02,400.91 104.05,392.34 129.87,407.1 163.07,396.03 188.89,407.1 
		211.02,392.34 251.73,407.1 181.43,330.73 	"/>
</g>
<linearGradient id="SVGID_1_" gradientUnits="userSpaceOnUse" x1="-309096.125" y1="6213.6919" x2="-300201.0625" y2="6213.6919" gradientTransform="matrix(0.0207 0 0 0.0207 6567.7778 -69.4436)">
	<stop  offset="0" style="stop-color:#F4889D"/>
	<stop  offset="0.2147" style="stop-color:#EE8AA0"/>
	<stop  offset="0.4662" style="stop-color:#E392AA"/>
	<stop  offset="0.6129" style="stop-color:#DA98B2"/>
</linearGradient>
<path class="st3" d="M194.01,90.93h151.47c0,0-0.69-32.9-41.12-22.62c0,0,5.48-8.22-4.11-9.6c0,0,6.17-11.65-4.8-23.3
	c-10.97-11.65-31.53-6.85-35.64,6.85c0,0-5.48-18.51-24.67-13.71s-26.04,15.76-22.62,30.84c0,0-17.82,0-13.71,15.76
	c0,0-8.91-6.17-10.97,2.74c0,0-24.67-2.74-26.73,13.02H194.01z"/>
<g>
	<g>
		<path class="st4" d="M237.03,483.13c0.72-3.65,4.1-6.21,7.85-5.42c0.74,0.15,1.48,0.43,2.14,0.8c0.75,0.42,1.05,0.99,1.47,1.71
			c0.81,1.41,1.43,2.8,2.7,3.88c2.45,2.1,5.93,2.6,8.8,1.03c1.5-0.82,2.42-2.14,3.28-3.57c0.94-1.55,2.1-2.74,3.85-3.32
			c3.63-1.19,7.36,1.06,8.28,4.7c0.39,1.52,2.74,0.88,2.35-0.65c-0.86-3.4-3.72-6.19-7.23-6.72c-3.82-0.58-7.28,1.37-9.26,4.58
			c-1.1,1.79-2.26,3.27-4.51,3.47c-1.91,0.17-3.77-0.82-4.89-2.34c-1.06-1.44-1.44-3.32-2.93-4.43c-1.4-1.04-3.24-1.61-4.96-1.71
			c-4.48-0.25-8.44,2.98-9.3,7.34C234.38,484.01,236.73,484.67,237.03,483.13L237.03,483.13z"/>
	</g>
</g>
<g>
	<g>
		<path class="st4" d="M237.03,494.51c0.72-3.65,4.1-6.21,7.85-5.42c0.74,0.15,1.48,0.43,2.14,0.8c0.75,0.42,1.05,0.99,1.47,1.71
			c0.81,1.41,1.43,2.8,2.7,3.88c2.45,2.1,5.93,2.6,8.8,1.03c1.5-0.82,2.42-2.14,3.28-3.57c0.94-1.55,2.1-2.74,3.85-3.32
			c3.63-1.19,7.36,1.06,8.28,4.7c0.39,1.52,2.74,0.88,2.35-0.65c-0.86-3.4-3.72-6.19-7.23-6.72c-3.82-0.58-7.28,1.37-9.26,4.58
			c-1.1,1.79-2.26,3.27-4.51,3.47c-1.91,0.17-3.77-0.82-4.89-2.34c-1.06-1.44-1.44-3.32-2.93-4.43c-1.4-1.04-3.24-1.61-4.96-1.71
			c-4.48-0.25-8.44,2.98-9.3,7.34C234.38,495.4,236.73,496.05,237.03,494.51L237.03,494.51z"/>
	</g>
</g>
<path class="st5" d="M226.85,440.78h-13.54h-7.01h-3.38c-2.35,0-4.27-1.56-4.27-3.48c0-1.91,1.92-3.48,4.27-3.48h3.52h6.86h7.23
	c1.84,0,3.34-1.22,3.34-2.72c0-1.5-1.5-2.72-3.34-2.72h-93.1c-1.84,0-3.34,1.22-3.34,2.72c0,1.5,1.5,2.72,3.34,2.72h17.25h7.6h2.78
	c2.35,0,4.27,1.56,4.27,3.48c0,1.91-1.92,3.48-4.27,3.48h-2.63h-7.75h-28c-2.04,0-3.71,1.36-3.71,3.02c0,1.66,1.67,3.02,3.71,3.02
	h110.17c2.04,0,3.71-1.36,3.71-3.02C230.56,442.14,228.89,440.78,226.85,440.78z"/>
<path class="st6" d="M357.82,222.79h-39.19h-20.29h-9.77c-6.79,0-12.35-4.53-12.35-10.06s5.56-10.06,12.35-10.06h10.2h19.86h20.94
	c5.31,0,9.66-3.54,9.66-7.87s-4.35-7.87-9.66-7.87H70.09c-5.31,0-9.66,3.54-9.66,7.87s4.35,7.87,9.66,7.87h49.92h22.01h8.05
	c6.79,0,12.35,4.53,12.35,10.06s-5.56,10.06-12.35,10.06h-7.63h-22.44H38.96c-5.9,0-10.74,3.94-10.74,8.75s4.83,8.75,10.74,8.75
	h318.86c5.9,0,10.74-3.94,10.74-8.75S363.72,222.79,357.82,222.79z"/>
<path class="st5" d="M224.36,390.19h-8.8H211h-2.19c-1.52,0-2.77-1.02-2.77-2.26c0-1.24,1.25-2.26,2.77-2.26h2.29h4.46h4.7
	c1.19,0,2.17-0.8,2.17-1.77s-0.98-1.77-2.17-1.77h-60.5c-1.19,0-2.17,0.8-2.17,1.77s0.98,1.77,2.17,1.77h11.21h4.94h1.81
	c1.52,0,2.77,1.02,2.77,2.26c0,1.24-1.25,2.26-2.77,2.26H176h-5.04h-18.2c-1.33,0-2.41,0.88-2.41,1.96c0,1.08,1.08,1.96,2.41,1.96
	h71.59c1.33,0,2.41-0.88,2.41-1.96C226.77,391.08,225.68,390.19,224.36,390.19z"/>
<path class="st5" d="M87.06,518.88h-8.8h-4.56h-2.19c-1.52,0-2.77-1.02-2.77-2.26s1.25-2.26,2.77-2.26h2.29h4.46h4.7
	c1.19,0,2.17-0.8,2.17-1.77c0-0.97-0.98-1.77-2.17-1.77h-60.5c-1.19,0-2.17,0.8-2.17,1.77c0,0.97,0.98,1.77,2.17,1.77h11.21h4.94
	h1.81c1.52,0,2.77,1.02,2.77,2.26s-1.25,2.26-2.77,2.26H38.7h-5.04h-18.2c-1.33,0-2.41,0.88-2.41,1.96c0,1.08,1.08,1.96,2.41,1.96
	h71.59c1.33,0,2.41-0.88,2.41-1.96C89.47,519.76,88.39,518.88,87.06,518.88z"/>
<path class="st5" d="M223.1,542.52h-8.8h-4.56h-2.19c-1.52,0-2.77-1.02-2.77-2.26s1.25-2.26,2.77-2.26h2.29h4.46h4.7
	c1.19,0,2.17-0.8,2.17-1.77c0-0.97-0.98-1.77-2.17-1.77h-60.5c-1.19,0-2.17,0.8-2.17,1.77c0,0.97,0.98,1.77,2.17,1.77h11.21h4.94
	h1.81c1.52,0,2.77,1.02,2.77,2.26s-1.25,2.26-2.77,2.26h-1.71h-5.04h-18.2c-1.33,0-2.41,0.88-2.41,1.96s1.08,1.96,2.41,1.96h71.59
	c1.33,0,2.41-0.88,2.41-1.96S224.42,542.52,223.1,542.52z"/>
<linearGradient id="SVGID_2_" gradientUnits="userSpaceOnUse" x1="-296465.9063" y1="29345.8008" x2="-293745.1563" y2="29345.8008" gradientTransform="matrix(0.0207 0 0 0.0207 6567.7778 -69.4436)">
	<stop  offset="4.049120e-07" style="stop-color:#F4889D"/>
	<stop  offset="0.2449" style="stop-color:#F38B9F"/>
	<stop  offset="0.4869" style="stop-color:#F293A4"/>
	<stop  offset="0.728" style="stop-color:#F1A1AE"/>
	<stop  offset="0.9672" style="stop-color:#F0B5BC"/>
	<stop  offset="1" style="stop-color:#EFB9BE"/>
</linearGradient>
<rect x="422.9" y="527.69" class="st7" width="56.39" height="22.23"/>
<g>
	<polygon class="st8" points="58.96,464.15 61.09,551.51 47.32,574.3 47.32,583.22 184.91,583.22 178.8,464.15 	"/>
	<polygon class="st9" points="41.21,462.31 39.18,462.31 39.18,465.99 194.99,465.99 194.99,462.31 	"/>
	<rect x="37.14" y="465.99" class="st10" width="31.03" height="3.68"/>
	<rect x="71.76" y="465.99" class="st10" width="90.37" height="3.68"/>
	<rect x="33.45" y="451.21" class="st11" width="132.26" height="3.35"/>
	<rect x="41.21" y="454.55" class="st12" width="124.5" height="7.76"/>
	<polygon class="st13" points="33.16,574.69 33.16,578.95 41.21,578.95 41.21,583.22 56.34,583.22 56.34,567.41 61.09,567.41 
		64.39,557.81 64.39,517.19 68.17,517.19 68.17,469.68 41.21,469.68 41.21,574.71 	"/>
	<rect x="52.65" y="539.44" class="st14" width="4.85" height="16.14"/>
	<path class="st15" d="M63.42,445c0,0,0.78-11.54-10.52-17.11C41.6,433.46,42.38,445,42.38,445H41.5v2.33H52.9h11.39V445H63.42z"/>
	<rect x="165.71" y="465.99" class="st10" width="31.03" height="3.68"/>
	<rect x="165.71" y="451.21" class="st11" width="34.71" height="3.35"/>
	<rect x="165.71" y="454.55" class="st12" width="26.95" height="7.76"/>
	<polygon class="st13" points="200.71,574.69 200.71,578.95 192.67,578.95 192.67,583.22 177.54,583.22 177.54,567.41 
		172.79,567.41 169.49,557.81 169.49,517.19 165.71,517.19 165.71,469.68 192.67,469.68 192.67,574.71 	"/>
	
		<rect x="176.38" y="539.44" transform="matrix(-1 -4.802659e-11 4.802659e-11 -1 357.5996 1095.0243)" class="st14" width="4.85" height="16.14"/>
	<path class="st15" d="M170.46,445c0,0-0.78-11.54,10.52-17.11c11.3,5.57,10.52,17.11,10.52,17.11h0.87v2.33h-11.39h-11.39V445
		H170.46z"/>
	<polygon class="st16" points="153.98,431.77 116.94,431.77 79.9,431.77 68.17,443.4 68.17,447.33 91.15,447.33 91.15,442.72 
		95.99,442.72 95.99,447.33 116.94,447.33 137.88,447.33 137.88,442.72 142.73,442.72 142.73,447.33 165.71,447.33 165.71,443.4 	
		"/>
	<rect x="79.9" y="411.6" class="st17" width="4.37" height="20.17"/>
	<rect x="87.75" y="419.53" class="st15" width="4.44" height="4.44"/>
	<rect x="94.88" y="419.53" class="st15" width="4.44" height="4.44"/>
	<rect x="103.1" y="419.53" class="st15" width="4.44" height="4.44"/>
	<rect x="111.05" y="419.53" class="st15" width="4.44" height="4.44"/>
	<rect x="149.61" y="411.6" class="st17" width="4.37" height="20.17"/>
	<polygon class="st16" points="116.94,423.96 84.26,423.96 84.26,427.89 116.94,427.89 149.61,427.89 149.61,423.96 	"/>
	
		<rect x="141.69" y="419.53" transform="matrix(-1 -4.264645e-11 4.264645e-11 -1 287.8134 843.4867)" class="st15" width="4.44" height="4.44"/>
	
		<rect x="134.56" y="419.53" transform="matrix(-1 -4.346669e-11 4.346669e-11 -1 273.5603 843.4867)" class="st15" width="4.44" height="4.44"/>
	
		<rect x="126.34" y="419.53" transform="matrix(-1 -5.412793e-11 5.412793e-11 -1 257.1256 843.4867)" class="st15" width="4.44" height="4.44"/>
	
		<rect x="118.39" y="419.53" transform="matrix(-1 -4.264645e-11 4.264645e-11 -1 241.2242 843.4867)" class="st15" width="4.44" height="4.44"/>
	<rect x="71.76" y="473.99" class="st18" width="27.56" height="43.2"/>
	<path class="st14" d="M91.72,513.48H79.35v-20.32c0-1.59,1.29-2.88,2.88-2.88h6.6c1.59,0,2.88,1.29,2.88,2.88V513.48z"/>
	<rect x="103.16" y="473.99" class="st18" width="27.56" height="43.2"/>
	<path class="st14" d="M123.12,513.48h-12.36v-20.32c0-1.59,1.29-2.88,2.88-2.88h6.6c1.59,0,2.88,1.29,2.88,2.88V513.48z"/>
	<rect x="134.56" y="473.99" class="st18" width="27.56" height="43.2"/>
	<path class="st14" d="M154.52,513.48h-12.36v-20.32c0-1.59,1.29-2.88,2.88-2.88h6.6c1.59,0,2.88,1.29,2.88,2.88V513.48z"/>
	<rect x="75.6" y="520.68" class="st19" width="19.88" height="8.14"/>
	<rect x="107" y="520.68" class="st19" width="19.88" height="8.14"/>
	<rect x="138.4" y="520.68" class="st19" width="19.88" height="8.14"/>
	<rect x="68.17" y="520.68" class="st20" width="3.59" height="8.14"/>
	<rect x="68.17" y="532.31" class="st20" width="3.59" height="34.91"/>
	<rect x="99.44" y="532.31" class="st20" width="3.59" height="34.91"/>
	<rect x="130.85" y="532.31" class="st20" width="3.59" height="34.91"/>
	<rect x="162.12" y="532.31" class="st20" width="3.59" height="34.91"/>
	<rect x="99.44" y="520.68" class="st20" width="3.59" height="8.14"/>
	<rect x="130.85" y="520.68" class="st20" width="3.59" height="8.14"/>
	<rect x="162.12" y="520.68" class="st20" width="3.59" height="8.14"/>
	<polygon class="st19" points="87.78,532.31 87.78,537.26 85.54,537.26 83.29,537.26 83.29,532.31 75.6,532.31 75.6,556.26 
		79.7,567.22 79.7,540.46 85.54,540.46 91.37,540.46 91.37,567.22 95.47,556.26 95.47,532.31 	"/>
	<polygon class="st19" points="119.18,532.31 119.18,537.26 116.94,537.26 114.7,537.26 114.7,532.31 107,532.31 107,556.26 
		111.11,567.22 111.11,540.46 116.94,540.46 122.77,540.46 122.77,567.22 126.88,556.26 126.88,532.31 	"/>
	<polygon class="st19" points="150.58,532.31 150.58,537.26 148.34,537.26 146.1,537.26 146.1,532.31 138.4,532.31 138.4,556.26 
		142.51,567.22 142.51,540.46 148.34,540.46 154.17,540.46 154.17,567.22 158.28,556.26 158.28,532.31 	"/>
	<polygon class="st20" points="61.09,571.78 61.09,583.22 68.55,583.22 71.76,571 61.09,571 	"/>
	<polygon class="st20" points="172.79,571.78 172.79,583.22 165.32,583.22 162.12,571 172.79,571 	"/>
	<polygon class="st18" points="158.92,571 151.45,571 82.42,571 74.96,571 71.76,583.22 82.42,583.22 151.45,583.22 162.12,583.22 	
		"/>
	<rect x="77.72" y="574.3" class="st14" width="78.44" height="4.46"/>
	<polygon class="st18" points="71.76,556.36 69.96,556.36 68.17,556.36 64.33,567.22 69.96,567.22 75.6,567.22 	"/>
	<polygon class="st18" points="103.03,556.36 101.24,556.36 99.44,556.36 95.6,567.22 101.24,567.22 106.87,567.22 	"/>
	<polygon class="st18" points="134.56,556.36 132.77,556.36 130.97,556.36 127.13,567.22 132.77,567.22 138.4,567.22 	"/>
	<polygon class="st18" points="165.71,556.36 163.92,556.36 162.12,556.36 158.28,567.22 163.92,567.22 169.55,567.22 	"/>
	<rect x="84.26" y="427.89" class="st15" width="65.35" height="3.88"/>
	<rect x="68.17" y="447.33" class="st17" width="97.54" height="3.88"/>
	<rect x="91.15" y="442.72" class="st10" width="4.85" height="4.61"/>
	<rect x="137.83" y="442.72" class="st10" width="4.85" height="4.61"/>
	<rect x="37.14" y="447.33" class="st9" width="31.03" height="3.88"/>
	<rect x="165.71" y="447.33" class="st9" width="31.03" height="3.88"/>
	<polygon class="st10" points="116.94,449.37 80.43,462.31 153.44,462.31 	"/>
	<polygon class="st11" points="116.94,450.73 84.26,462.31 149.61,462.31 	"/>
	<rect x="79.7" y="540.46" class="st14" width="11.66" height="26.76"/>
	<rect x="111.11" y="540.46" class="st14" width="11.66" height="26.76"/>
	<rect x="142.51" y="540.46" class="st14" width="11.66" height="26.76"/>
	<g>
		<rect x="115.8" y="498.21" class="st21" width="11.64" height="8.58"/>
		<circle class="st22" cx="121.62" cy="502.5" r="2.88"/>
	</g>
	<rect x="114.73" y="498.21" class="st16" width="1.07" height="18.98"/>
	<rect x="41.21" y="469.68" class="st23" width="6.11" height="105.03"/>
	<rect x="186.56" y="469.68" class="st23" width="6.11" height="105.03"/>
	<rect x="41.21" y="578.95" class="st23" width="15.13" height="4.27"/>
	<rect x="177.54" y="578.95" class="st23" width="15.13" height="4.27"/>
	<rect x="33.16" y="574.69" class="st11" width="23.17" height="4.27"/>
	<rect x="177.54" y="574.69" class="st11" width="23.17" height="4.27"/>
</g>
<g>
	<rect x="336.19" y="487.28" class="st21" width="45.54" height="33.56"/>
	<circle class="st22" cx="358.96" cy="504.06" r="11.28"/>
</g>
<rect x="334.1" y="487.28" class="st20" width="2.09" height="95.94"/>
<g>
	<g>
		<path class="st24" d="M240.73,562.81c-1.4-1.4,2.79-18.15,2.79-18.15l1.22,0.38c0.1-1.08,0.18-1.78,0.18-1.78
			c9.78-2.79,17.46-8.38,17.46-8.38l-1.4-2.09c-2.79,2.79-18.85,8.38-18.85,8.38s0.7,12.57-6.28,16.76
			c-6.98,4.19-15.36-5.59-15.36-5.59l-2.09,3.49c0,0,9.78,5.59,15.36,10.47c5.59,4.89-0.21,18.85-0.21,18.85l5.45,0.07
			C240.75,580.66,242.01,564.1,240.73,562.81z"/>
		<path class="st24" d="M247.71,564.91c3.32,0,10.05-5,14.03-8.21l1.49-4.21l-0.15-0.15c-4.19,4.89-18.06,8.67-18.85,6.28
			c-0.54-1.62,0.17-9.9,0.52-13.59l-1.22-0.38c0,0-4.19,16.76-2.79,18.15c1.29,1.29,0.02,17.85-1.74,22.41l10.48,0.13
			C244.23,580.68,247.71,564.91,247.71,564.91z"/>
		<path class="st25" d="M259.39,543.15c0,0,3.56-0.4,5.47-1.48h7.34l-5.64-7.57c0-3.37-5.05-3.37-5.05-3.37s0-3.37-4.21-4.21
			c-4.21-0.84-5.05,2.52-5.05,2.52s0.84-6.73-6.73-6.73c-7.57,0-5.05,8.41-5.05,8.41s-0.84-2.52-5.05-1.68s-1.68,5.89-1.68,5.89
			c-7.16,0-5.3,6.01-5.07,6.67c-0.12,0.94,0.22,2.05,1.84,3.02c2.87,1.72,7.52-1.45,9.46-2.96h2.65c1.7,0.65,4.42,1.48,7.14,1.48
			s4.05-0.83,4.68-1.48h1.99L259.39,543.15z"/>
		<path class="st26" d="M270.96,539.06c0.94-0.84,0.94-2.52-0.52-3.37c-1.45-0.84-3.22,0.84-3.22,0.84s1.87-5.89-3.74-6.73
			s-6.55,4.21-6.55,4.21s-0.94-1.68-2.81-0.84c-1.87,0.84-0.94,2.52-0.94,2.52c-0.94-1.68-2.81-1.68-2.81-1.68
			c-4.68-0.84-4.68,5.05-4.68,5.05c-2.58-0.46-4.02,0.87-4.8,2.15c-0.51,0.38-0.83,0.93-0.73,1.7c-0.06,0.22-0.09,0.36-0.09,0.36
			h0.15c0.75,2.7,13.09,2.32,17.78,0h2.31c1.4,0.82,3.78,1.97,5.42,1.48c1.32-0.4,2.4-1,3.12-1.48h3.01c0,0,3.71,0,3.74-0.84
			C275.77,538.96,270.96,539.06,270.96,539.06z"/>
		<path class="st26" d="M229.57,555.39c0.06-1.83-2.22-1.78-2.22-1.78c0.44-0.44,0.44-1.33-0.25-1.78
			c-0.69-0.44-1.53,0.44-1.53,0.44s0.89-3.11-1.78-3.55c-2.67-0.44-3.11,2.22-3.11,2.22s-0.44-0.89-1.33-0.44
			c-0.89,0.44-0.44,1.33-0.44,1.33c-0.44-0.89-1.33-0.89-1.33-0.89c-2.22-0.44-2.22,2.67-2.22,2.67c-1.78-0.36-2.41,1.28-2.6,1.94
			c-0.04,0.09-0.07,0.18-0.07,0.28c0,1.12,3.93,0.56,3.93,0c0,0,2.81,1.12,4.5,0.56l1.69-0.56h2.46c0.49,0.28,1.19,0.56,2.04,0.56
			c1.69,0,2.16-0.84,2.16-0.84C229.53,555.5,229.57,555.45,229.57,555.39z"/>
		<path class="st26" d="M274.26,555.28c0.08-2.27-2.76-2.21-2.76-2.21c0.55-0.55,0.55-1.66-0.31-2.21s-1.9,0.55-1.9,0.55
			s1.1-3.86-2.21-4.41s-3.86,2.76-3.86,2.76s-0.55-1.1-1.66-0.55c-1.1,0.55-0.55,1.66-0.55,1.66c-0.55-1.1-1.66-1.1-1.66-1.1
			c-2.76-0.55-2.76,3.31-2.76,3.31c-2.76-0.55-3.31,2.76-3.31,2.76s0,2.09,3.49,1.4c3.49-0.7,3.55-1.4,3.55-1.4s2.04,2.09,4.13,1.4
			c2.09-0.7,3.13-1.4,3.13-1.4s2.46,2.09,4.55,1.4c1.5-0.5,1.92-1.36,2.05-1.8C274.23,555.38,274.26,555.33,274.26,555.28z"/>
	</g>
	
		<linearGradient id="SVGID_3_" gradientUnits="userSpaceOnUse" x1="-305361.0313" y1="30606.5391" x2="-304143.2813" y2="30606.5391" gradientTransform="matrix(0.0207 0 0 0.0207 6567.7778 -69.4436)">
		<stop  offset="3.409785e-07" style="stop-color:#747D9D"/>
		<stop  offset="0.4985" style="stop-color:#8E80A7"/>
		<stop  offset="1" style="stop-color:#AA84B4"/>
	</linearGradient>
	<path class="st27" d="M247.71,564.84c3.32,0,10.05-5,14.03-8.21l1.49-4.21l-0.15-0.15c-4.19,4.89-18.06,8.67-18.85,6.28
		c-0.54-1.62,0.17-9.9,0.52-13.59l-1.22-0.38c0,0-4.19,16.76-2.79,18.15c1.29,1.29,0.02,17.85-1.74,22.41l10.48,0.13
		C244.23,580.61,247.71,564.84,247.71,564.84z"/>
</g>
<linearGradient id="SVGID_4_" gradientUnits="userSpaceOnUse" x1="-316878.0625" y1="31779.168" x2="-290788.3125" y2="31779.168" gradientTransform="matrix(0.0207 0 0 0.0207 6567.7778 -69.4436)">
	<stop  offset="4.049120e-07" style="stop-color:#F4889D"/>
	<stop  offset="0.2449" style="stop-color:#F38B9F"/>
	<stop  offset="0.4869" style="stop-color:#F293A4"/>
	<stop  offset="0.728" style="stop-color:#F1A1AE"/>
	<stop  offset="0.9672" style="stop-color:#F0B5BC"/>
	<stop  offset="1" style="stop-color:#EFB9BE"/>
</linearGradient>
<polygon class="st28" points="79.14,583.22 -0.19,583.22 -0.19,595.28 540.58,595.28 540.58,583.22 "/>
<g>
	<circle class="st21" cx="144.46" cy="73.55" r="2.67"/>
	<circle class="st21" cx="169.48" cy="407.16" r="2.29"/>
	<circle class="st21" cx="90.09" cy="459.73" r="2.99"/>
	<circle class="st21" cx="29.19" cy="458.23" r="1.5"/>
	<circle class="st21" cx="54.98" cy="62.08" r="1.89"/>
	<circle class="st21" cx="106.32" cy="260.18" r="1.07"/>
	<circle class="st21" cx="135.22" cy="309.19" r="1.07"/>
</g>
<g>
	<circle class="st21" cx="47.11" cy="506.31" r="2.67"/>
	<circle class="st21" cx="22.09" cy="172.69" r="2.29"/>
	<circle class="st21" cx="101.49" cy="120.12" r="2.99"/>
	<circle class="st21" cx="162.39" cy="121.62" r="1.5"/>
	<circle class="st21" cx="136.6" cy="517.77" r="1.89"/>
	<circle class="st21" cx="85.26" cy="319.67" r="1.07"/>
	<circle class="st21" cx="56.35" cy="270.66" r="1.07"/>
</g>
<g>
	<defs>
		<rect id="SVGID_5_" x="-0.04" y="302.35" width="128.6" height="79.06"/>
	</defs>
	<clipPath id="SVGID_6_">
		<use xlink:href="#SVGID_5_"  style="overflow:visible;"/>
	</clipPath>
	<path class="st29" d="M115.35,354.14H81.97H64.69h-8.32c-5.78,0-10.52-3.86-10.52-8.57c0-4.71,4.73-8.57,10.52-8.57h8.69h16.92
		h17.83c4.53,0,8.23-3.02,8.23-6.71c0-3.69-3.7-6.71-8.23-6.71h-229.56c-4.53,0-8.23,3.02-8.23,6.71c0,3.69,3.7,6.71,8.23,6.71
		h42.53h18.75h6.86c5.78,0,10.52,3.86,10.52,8.57c0,4.71-4.73,8.57-10.52,8.57h-6.5h-19.11h-69.05c-5.03,0-9.15,3.35-9.15,7.45
		s4.12,7.45,9.15,7.45h271.63c5.03,0,9.15-3.35,9.15-7.45S120.38,354.14,115.35,354.14z"/>
</g>
<g>
	<defs>
		<rect id="SVGID_7_" x="-0.19" y="197.15" width="183.25" height="97.6"/>
	</defs>
	<clipPath id="SVGID_8_">
		<use xlink:href="#SVGID_7_"  style="overflow:visible;"/>
	</clipPath>
	
		<linearGradient id="SVGID_9_" gradientUnits="userSpaceOnUse" x1="-319780.875" y1="15279.252" x2="-309068.3438" y2="15279.252" gradientTransform="matrix(0.0207 0 0 0.0207 6567.7778 -69.4436)">
		<stop  offset="1.385225e-07" style="stop-color:#F4889D"/>
		<stop  offset="0.1396" style="stop-color:#F48C9E"/>
		<stop  offset="0.3034" style="stop-color:#F596A3"/>
		<stop  offset="0.4788" style="stop-color:#F7A8AA"/>
		<stop  offset="0.6129" style="stop-color:#F9B9B1"/>
		<stop  offset="1" style="stop-color:#FEDDC0"/>
	</linearGradient>
	<path class="st30" d="M-20.73,285.29h182.42c0,0-0.83-39.62-49.53-27.24c0,0,6.6-9.91-4.95-11.56c0,0,7.43-14.03-5.78-28.06
		c-13.21-14.03-37.97-8.25-42.92,8.25c0,0-6.6-22.29-29.72-16.51c-23.11,5.78-31.37,18.98-27.24,37.14c0,0-21.46,0-16.51,18.98
		c0,0-10.73-7.43-13.21,3.3c0,0-29.72-3.3-32.19,15.68H-20.73z"/>
</g>
</svg>
