<svg xmlns="http://www.w3.org/2000/svg" xmlns:xlink="http://www.w3.org/1999/xlink" viewBox="0 0 595.28 572.6"><defs><style>.cls-1{fill:none;}.cls-2{isolation:isolate;}.cls-3{opacity:0.57;}.cls-4{fill:#8894a9;}.cls-5{fill:#f3f2f9;}.cls-6{fill:url(#linear-gradient);}.cls-7{fill:#272361;}.cls-25,.cls-8,.cls-9{fill:#fff;}.cls-8{opacity:0.67;}.cls-9{opacity:0.38;}.cls-10{fill:#f59261;}.cls-11{fill:url(#linear-gradient-2);}.cls-12{fill:#eddcc3;}.cls-13{fill:#99897f;}.cls-14{fill:#5e5e56;}.cls-15{fill:#cdbca0;}.cls-16{fill:#ab9992;}.cls-17{fill:#9b8e85;}.cls-18{fill:#39362d;}.cls-19{fill:#558979;}.cls-20{fill:#94bc9f;}.cls-21{fill:#719e84;}.cls-22{fill:#b29f91;}.cls-23{fill:#6d6965;}.cls-24{fill:#a09288;}.cls-26{fill:#d33a2a;}.cls-27{fill:#786d66;}.cls-28{fill:#806056;}.cls-29{fill:#d55564;}.cls-30{fill:#ec8898;}.cls-31{opacity:0.11;mix-blend-mode:multiply;fill:url(#linear-gradient-3);}.cls-32{fill:url(#linear-gradient-4);}.cls-33{clip-path:url(#clip-path);}.cls-34{clip-path:url(#clip-path-2);}.cls-35{fill:url(#linear-gradient-5);}</style><linearGradient id="linear-gradient" x1="159.55" y1="41.51" x2="341.6" y2="41.51" gradientUnits="userSpaceOnUse"><stop offset="0" stop-color="#f4889d"/><stop offset="0.24" stop-color="#ef8ba1"/><stop offset="0.51" stop-color="#e194ac"/><stop offset="0.61" stop-color="#da98b2"/></linearGradient><linearGradient id="linear-gradient-2" x1="418.04" y1="514.93" x2="473.72" y2="514.93" gradientUnits="userSpaceOnUse"><stop offset="0" stop-color="#f4889d"/><stop offset="0.29" stop-color="#f48ca0"/><stop offset="0.57" stop-color="#f298a8"/><stop offset="0.85" stop-color="#f0acb5"/><stop offset="1" stop-color="#efb9be"/></linearGradient><linearGradient id="linear-gradient-3" x1="235.99" y1="540.74" x2="260.91" y2="540.74" gradientUnits="userSpaceOnUse"><stop offset="0" stop-color="#747d9d"/><stop offset="0.59" stop-color="#9281aa"/><stop offset="1" stop-color="#aa84b4"/></linearGradient><linearGradient id="linear-gradient-4" x1="0.28" y1="564.74" x2="534.24" y2="564.74" xlink:href="#linear-gradient-2"/><clipPath id="clip-path"><rect class="cls-1" x="0.43" y="281.45" width="126.98" height="78.06"/></clipPath><clipPath id="clip-path-2"><rect class="cls-1" x="0.28" y="177.58" width="180.95" height="96.37"/></clipPath><linearGradient id="linear-gradient-5" x1="-59.13" y1="227.05" x2="160.12" y2="227.05" gradientUnits="userSpaceOnUse"><stop offset="0" stop-color="#f4889d"/><stop offset="0.16" stop-color="#f48d9f"/><stop offset="0.36" stop-color="#f69ba5"/><stop offset="0.57" stop-color="#f8b3ae"/><stop offset="0.61" stop-color="#f9b9b1"/><stop offset="1" stop-color="#feddc0"/></linearGradient></defs><title>layer1</title><g class="cls-2"><g id="Layer_1" data-name="Layer 1"><g class="cls-3"><polygon class="cls-4" points="186.98 384.88 161.49 373.95 128.7 384.88 103.21 370.31 64.67 378.77 64.68 378.76 -100.76 560.79 410.98 560.79 249.03 384.88 208.84 370.31 186.98 384.88"/><polygon class="cls-5" points="127.65 309.47 127.01 309.47 64.68 378.76 127.65 309.47"/><polygon class="cls-5" points="249.03 384.88 249.03 384.88 181.33 309.47 179.61 309.47 249.03 384.88"/><polygon class="cls-5" points="127.65 309.47 64.68 378.76 64.67 378.77 103.21 370.31 128.7 384.88 161.49 373.95 186.98 384.88 208.84 370.31 249.03 384.88 179.61 309.47 127.65 309.47"/></g><path class="cls-6" d="M192,72.7H341.6S340.92,40.21,301,50.36c0,0,5.41-8.12-4.06-9.47,0,0,6.09-11.51-4.74-23S261.06,11.11,257,24.65c0,0-5.41-18.28-24.36-13.54s-25.72,15.57-22.33,30.45c0,0-17.6,0-13.54,15.57,0,0-8.8-6.09-10.83,2.71,0,0-24.36-2.71-26.39,12.86Z"/><path class="cls-7" d="M234.52,460a6.57,6.57,0,0,1,7.75-5.35,7.74,7.74,0,0,1,2,.71,3.9,3.9,0,0,1,1.59,1.77,13.48,13.48,0,0,0,2.53,3.71A7.68,7.68,0,0,0,257,462c3.06-1.58,3.58-5.49,6.87-6.77a6.41,6.41,0,0,1,8.51,4.52,1.21,1.21,0,0,0,2.33-.64,8.94,8.94,0,0,0-7.3-6.66,9.15,9.15,0,0,0-9.09,4.72c-1.07,1.77-2.32,3.15-4.52,3.26a5.55,5.55,0,0,1-4.75-2.47c-1-1.4-1.38-3.16-2.79-4.23a9.18,9.18,0,0,0-5.1-1.69,9,9,0,0,0-9,7.25c-.29,1.52,2,2.16,2.33.64Z"/><path class="cls-7" d="M234.52,471.2a6.58,6.58,0,0,1,7.75-5.36,7.4,7.4,0,0,1,2,.72,3.88,3.88,0,0,1,1.59,1.76,13.68,13.68,0,0,0,2.53,3.72,7.7,7.7,0,0,0,8.66,1.22c3.06-1.57,3.58-5.48,6.87-6.77A6.41,6.41,0,0,1,272.4,471a1.21,1.21,0,0,0,2.33-.64,8.93,8.93,0,0,0-7.3-6.65,9.15,9.15,0,0,0-9.09,4.72c-1.07,1.77-2.32,3.14-4.52,3.25a5.51,5.51,0,0,1-4.75-2.47c-1-1.4-1.38-3.16-2.79-4.22a9.19,9.19,0,0,0-5.1-1.7,9,9,0,0,0-9,7.25c-.29,1.52,2,2.17,2.33.65Z"/><path class="cls-8" d="M224.47,418.14H200.84c-2.31,0-4.21-1.54-4.21-3.43s1.9-3.43,4.21-3.43h17.4c1.81,0,3.3-1.21,3.3-2.69s-1.49-2.68-3.3-2.68H126.31c-1.81,0-3.3,1.2-3.3,2.68s1.49,2.69,3.3,2.69H153.6c2.31,0,4.21,1.54,4.21,3.43s-1.9,3.43-4.21,3.43H115.69c-2,0-3.66,1.34-3.66,3s1.64,3,3.66,3H224.47c2,0,3.66-1.34,3.66-3S226.48,418.14,224.47,418.14Z"/><path class="cls-9" d="M353.78,202.9H285.4c-6.7,0-12.19-4.47-12.19-9.94S278.7,183,285.4,183h50.36c5.24,0,9.54-3.5,9.54-7.77s-4.3-7.77-9.54-7.77H69.68c-5.25,0-9.54,3.49-9.54,7.77S64.43,183,69.68,183h79c6.71,0,12.19,4.47,12.19,9.93s-5.48,9.94-12.19,9.94H38.93c-5.83,0-10.6,3.88-10.6,8.63s4.77,8.64,10.6,8.64H353.78c5.83,0,10.6-3.89,10.6-8.64S359.61,202.9,353.78,202.9Z"/><path class="cls-8" d="M222,368.19H206.65a2.28,2.28,0,1,1,0-4.46H218a1.78,1.78,0,1,0,0-3.49H158.21a1.78,1.78,0,1,0,0,3.49h17.73a2.28,2.28,0,1,1,0,4.46H151.31a2,2,0,1,0,0,3.88H222a2,2,0,1,0,0-3.88Z"/><path class="cls-8" d="M86.43,495.25H71.08a2.28,2.28,0,1,1,0-4.46H82.39a1.78,1.78,0,1,0,0-3.49H22.64a1.78,1.78,0,1,0,0,3.49H40.38a2.28,2.28,0,1,1,0,4.46H15.74a2,2,0,1,0,0,3.88H86.43a2,2,0,1,0,0-3.88Z"/><path class="cls-8" d="M220.76,518.6H205.4a2.28,2.28,0,1,1,0-4.46h11.31a1.78,1.78,0,1,0,0-3.49H157a1.78,1.78,0,1,0,0,3.49H174.7a2.28,2.28,0,1,1,0,4.46H150.06a2,2,0,1,0,0,3.88h70.7a2,2,0,1,0,0-3.88Z"/><circle class="cls-10" cx="200.14" cy="119.22" r="31.05"/><rect class="cls-11" x="418.04" y="503.96" width="55.68" height="21.95"/><polygon class="cls-12" points="58.68 441.21 60.79 527.48 47.19 549.97 47.19 558.78 183.05 558.78 177.02 441.21 58.68 441.21"/><polygon class="cls-13" points="41.16 439.4 39.15 439.4 39.15 443.03 193 443.03 193 439.4 41.16 439.4"/><rect class="cls-14" x="37.14" y="443.03" width="30.64" height="3.64"/><rect class="cls-14" x="71.32" y="443.03" width="89.23" height="3.64"/><rect class="cls-15" x="33.5" y="428.43" width="130.59" height="3.3"/><rect class="cls-16" x="41.16" y="431.74" width="122.93" height="7.66"/><polygon class="cls-17" points="33.22 550.36 33.22 554.57 41.16 554.57 41.16 558.78 56.1 558.78 56.1 543.18 60.79 543.18 64.04 533.7 64.04 493.58 67.78 493.58 67.78 446.67 41.16 446.67 41.16 550.38 33.22 550.36"/><rect class="cls-18" x="52.46" y="515.56" width="4.79" height="15.94"/><path class="cls-19" d="M63.09,422.31a18.35,18.35,0,0,0-10.39-16.9,18.33,18.33,0,0,0-10.39,16.9h-.86v2.29H64v-2.29Z"/><rect class="cls-14" x="164.09" y="443.03" width="30.64" height="3.64"/><rect class="cls-15" x="164.09" y="428.43" width="34.27" height="3.3"/><rect class="cls-16" x="164.09" y="431.74" width="26.62" height="7.66"/><polygon class="cls-17" points="198.65 550.36 198.65 554.57 190.71 554.57 190.71 558.78 175.77 558.78 175.77 543.18 171.08 543.18 167.83 533.7 167.83 493.58 164.09 493.58 164.09 446.67 190.71 446.67 190.71 550.38 198.65 550.36"/><rect class="cls-18" x="174.62" y="515.56" width="4.79" height="15.94" transform="translate(354.03 1047.05) rotate(-180)"/><path class="cls-19" d="M168.78,422.31a18.35,18.35,0,0,1,10.39-16.9,18.35,18.35,0,0,1,10.39,16.9h.86v2.29h-22.5v-2.29Z"/><polygon class="cls-20" points="152.51 409.24 115.94 409.24 79.36 409.24 67.78 420.73 67.78 424.61 90.47 424.61 90.47 420.06 95.25 420.06 95.25 424.61 115.94 424.61 136.62 424.61 136.62 420.06 141.4 420.06 141.4 424.61 164.09 424.61 164.09 420.73 152.51 409.24"/><rect class="cls-21" x="79.36" y="389.33" width="4.31" height="19.91"/><rect class="cls-19" x="87.12" y="397.15" width="4.38" height="4.38"/><rect class="cls-19" x="94.15" y="397.15" width="4.38" height="4.38"/><rect class="cls-19" x="102.27" y="397.15" width="4.38" height="4.38"/><rect class="cls-19" x="110.12" y="397.15" width="4.38" height="4.38"/><rect class="cls-21" x="148.2" y="389.33" width="4.31" height="19.91"/><polygon class="cls-20" points="115.94 401.53 83.67 401.53 83.67 405.41 115.94 405.41 148.2 405.41 148.2 401.53 115.94 401.53"/><rect class="cls-19" x="140.37" y="397.15" width="4.38" height="4.38" transform="translate(285.13 798.68) rotate(-180)"/><rect class="cls-19" x="133.34" y="397.15" width="4.38" height="4.38" transform="translate(271.05 798.68) rotate(-180)"/><rect class="cls-19" x="125.22" y="397.15" width="4.38" height="4.38" transform="translate(254.82 798.68) rotate(-180)"/><rect class="cls-19" x="117.37" y="397.15" width="4.38" height="4.38" transform="translate(239.12 798.68) rotate(-180)"/><rect class="cls-22" x="71.32" y="450.93" width="27.21" height="42.65"/><path class="cls-18" d="M81.67,467h6.52A2.84,2.84,0,0,1,91,469.86v20.06a0,0,0,0,1,0,0H78.82a0,0,0,0,1,0,0V469.86A2.84,2.84,0,0,1,81.67,467Z"/><rect class="cls-22" x="102.33" y="450.93" width="27.21" height="42.65"/><path class="cls-18" d="M112.68,467h6.52a2.84,2.84,0,0,1,2.84,2.84v20.06a0,0,0,0,1,0,0H109.83a0,0,0,0,1,0,0V469.86A2.84,2.84,0,0,1,112.68,467Z"/><rect class="cls-22" x="133.34" y="450.93" width="27.21" height="42.65"/><path class="cls-18" d="M143.68,467h6.52a2.84,2.84,0,0,1,2.84,2.84v20.06a0,0,0,0,1,0,0H140.84a0,0,0,0,1,0,0V469.86A2.84,2.84,0,0,1,143.68,467Z"/><rect class="cls-23" x="75.11" y="497.03" width="19.63" height="8.04"/><rect class="cls-23" x="106.12" y="497.03" width="19.63" height="8.04"/><rect class="cls-23" x="137.13" y="497.03" width="19.63" height="8.04"/><rect class="cls-24" x="67.78" y="497.03" width="3.54" height="8.04"/><rect class="cls-24" x="67.78" y="508.52" width="3.54" height="34.47"/><rect class="cls-24" x="98.66" y="508.52" width="3.54" height="34.47"/><rect class="cls-24" x="129.67" y="508.52" width="3.54" height="34.47"/><rect class="cls-24" x="160.55" y="508.52" width="3.54" height="34.47"/><rect class="cls-24" x="98.66" y="497.03" width="3.54" height="8.04"/><rect class="cls-24" x="129.67" y="497.03" width="3.54" height="8.04"/><rect class="cls-24" x="160.55" y="497.03" width="3.54" height="8.04"/><polygon class="cls-23" points="87.14 508.52 87.14 513.4 84.93 513.4 82.71 513.4 82.71 508.52 75.11 508.52 75.11 532.17 79.17 542.99 79.17 516.56 84.93 516.56 90.68 516.56 90.68 542.99 94.74 532.17 94.74 508.52 87.14 508.52"/><polygon class="cls-23" points="118.15 508.52 118.15 513.4 115.94 513.4 113.72 513.4 113.72 508.52 106.12 508.52 106.12 532.17 110.18 542.99 110.18 516.56 115.94 516.56 121.69 516.56 121.69 542.99 125.75 532.17 125.75 508.52 118.15 508.52"/><polygon class="cls-23" points="149.16 508.52 149.16 513.4 146.94 513.4 144.73 513.4 144.73 508.52 137.13 508.52 137.13 532.17 141.19 542.99 141.19 516.56 146.94 516.56 152.7 516.56 152.7 542.99 156.76 532.17 156.76 508.52 149.16 508.52"/><polygon class="cls-24" points="60.79 547.49 60.79 558.78 68.16 558.78 71.32 546.72 60.79 546.72 60.79 547.49"/><polygon class="cls-24" points="171.08 547.49 171.08 558.78 163.71 558.78 160.55 546.72 171.08 546.72 171.08 547.49"/><polygon class="cls-22" points="157.39 546.72 150.02 546.72 81.85 546.72 74.48 546.72 71.32 558.78 81.85 558.78 150.02 558.78 160.55 558.78 157.39 546.72"/><rect class="cls-18" x="77.21" y="549.97" width="77.45" height="4.4"/><polygon class="cls-22" points="71.32 532.26 69.55 532.26 67.78 532.26 63.98 542.99 69.55 542.99 75.11 542.99 71.32 532.26"/><polygon class="cls-22" points="102.2 532.26 100.43 532.26 98.66 532.26 94.87 542.99 100.43 542.99 106 542.99 102.2 532.26"/><polygon class="cls-22" points="133.34 532.26 131.56 532.26 129.79 532.26 126 542.99 131.56 542.99 137.13 542.99 133.34 532.26"/><polygon class="cls-22" points="164.09 532.26 162.32 532.26 160.55 532.26 156.76 542.99 162.32 542.99 167.88 542.99 164.09 532.26"/><rect class="cls-19" x="83.67" y="405.41" width="64.53" height="3.83"/><rect class="cls-21" x="67.78" y="424.6" width="96.31" height="3.83"/><rect class="cls-14" x="90.47" y="420.06" width="4.79" height="4.55"/><rect class="cls-14" x="136.56" y="420.06" width="4.79" height="4.55"/><rect class="cls-13" x="37.14" y="424.6" width="30.64" height="3.83"/><rect class="cls-13" x="164.09" y="424.6" width="30.64" height="3.83"/><polygon class="cls-14" points="115.93 426.62 79.89 439.4 151.98 439.4 115.93 426.62"/><polygon class="cls-15" points="115.94 427.96 83.67 439.4 148.2 439.4 115.94 427.96"/><rect class="cls-18" x="79.17" y="516.56" width="11.51" height="26.42"/><rect class="cls-18" x="110.18" y="516.56" width="11.51" height="26.42"/><rect class="cls-18" x="141.19" y="516.56" width="11.51" height="26.42"/><rect class="cls-25" x="114.81" y="474.84" width="11.49" height="8.47"/><circle class="cls-26" cx="120.55" cy="479.08" r="2.85"/><rect class="cls-20" x="113.76" y="474.84" width="1.05" height="18.74"/><rect class="cls-27" x="41.16" y="446.67" width="6.03" height="103.71"/><rect class="cls-27" x="184.68" y="446.67" width="6.03" height="103.71"/><rect class="cls-27" x="41.16" y="554.57" width="14.94" height="4.21"/><rect class="cls-27" x="175.77" y="554.57" width="14.94" height="4.21"/><rect class="cls-15" x="33.22" y="550.36" width="22.88" height="4.21"/><rect class="cls-15" x="175.77" y="550.36" width="22.88" height="4.21"/><rect class="cls-25" x="332.42" y="464.05" width="44.96" height="33.14"/><circle class="cls-26" cx="354.9" cy="480.62" r="11.14"/><rect class="cls-24" x="330.36" y="464.05" width="2.06" height="94.73"/><path class="cls-28" d="M238.16,538.64c-1.38-1.38,2.76-17.93,2.76-17.93l1.21.37c.1-1.07.17-1.75.17-1.75a61.85,61.85,0,0,0,17.24-8.27L258.16,509c-2.76,2.76-18.62,8.27-18.62,8.27s.69,12.41-6.2,16.55-15.17-5.52-15.17-5.52l-2.07,3.45s9.65,5.52,15.17,10.34-.21,18.62-.21,18.62l5.38.07C238.19,556.26,239.43,539.91,238.16,538.64Z"/><path class="cls-28" d="M245.06,540.7c3.28,0,9.92-4.93,13.85-8.1l1.47-4.16-.16-.15c-4.13,4.83-17.82,8.57-18.61,6.21-.53-1.6.17-9.78.52-13.42l-1.21-.37s-4.14,16.55-2.76,17.93,0,17.62-1.72,22.13l10.35.13C241.62,556.27,245.06,540.7,245.06,540.7Z"/><path class="cls-29" d="M256.59,519.22a17.91,17.91,0,0,0,5.4-1.46h7.25l-5.57-7.48c0-3.32-5-3.32-5-3.32s0-3.33-4.15-4.16-5,2.5-5,2.5.83-6.65-6.65-6.65-5,8.31-5,8.31-.83-2.5-5-1.66-1.66,5.81-1.66,5.81c-7.07,0-5.23,5.94-5,6.59-.12.93.22,2,1.82,3,2.83,1.7,7.42-1.43,9.34-2.92H240a20.83,20.83,0,0,0,7.06,1.46c2.69,0,4-.82,4.61-1.46h2Z"/><path class="cls-30" d="M268,515.18a2,2,0,0,0-.51-3.33c-1.43-.83-3.18.84-3.18.84s1.85-5.82-3.69-6.65a5.36,5.36,0,0,0-6.47,4.15,2.1,2.1,0,0,0-2.77-.83,1.72,1.72,0,0,0-.92,2.49,3.37,3.37,0,0,0-2.77-1.66c-4.62-.83-4.62,5-4.62,5a4.26,4.26,0,0,0-4.73,2.13,1.67,1.67,0,0,0-.72,1.67c-.06.21-.09.35-.09.35h.15c.74,2.66,12.93,2.3,17.56,0h2.28c1.38.81,3.73,1.95,5.35,1.46a11.37,11.37,0,0,0,3.08-1.46h3s3.66,0,3.69-.83C272.77,515.08,268,515.18,268,515.18Z"/><path class="cls-30" d="M227.15,531.3c.06-1.8-2.19-1.75-2.19-1.75a1.15,1.15,0,0,0-.24-1.76c-.69-.43-1.52.44-1.52.44s.88-3.07-1.75-3.51a2.62,2.62,0,0,0-3.07,2.2,1,1,0,1,0-1.75.87,1.57,1.57,0,0,0-1.32-.87c-2.19-.44-2.19,2.63-2.19,2.63a2.25,2.25,0,0,0-2.57,1.92.68.68,0,0,0-.07.27c0,1.11,3.89.56,3.89,0,0,0,2.78,1.11,4.44.56l1.67-.56h2.42a4.07,4.07,0,0,0,2,.56c1.66,0,2.13-.84,2.13-.84A.19.19,0,0,0,227.15,531.3Z"/><path class="cls-30" d="M271.27,531.2c.08-2.25-2.72-2.18-2.72-2.18a1.42,1.42,0,0,0-.3-2.18c-.85-.55-1.88.54-1.88.54s1.09-3.81-2.18-4.35a3.24,3.24,0,0,0-3.81,2.72,1.22,1.22,0,1,0-2.18,1.09,1.94,1.94,0,0,0-1.63-1.09c-2.73-.55-2.73,3.27-2.73,3.27-2.72-.55-3.27,2.72-3.27,2.72s0,2.07,3.45,1.38,3.51-1.38,3.51-1.38,2,2.07,4.07,1.38a13.77,13.77,0,0,0,3.09-1.38s2.43,2.07,4.5,1.38a2.75,2.75,0,0,0,2-1.78A.2.2,0,0,0,271.27,531.2Z"/><path class="cls-31" d="M245.06,540.64c3.28,0,9.92-4.94,13.85-8.11l1.47-4.16-.16-.14c-4.13,4.82-17.82,8.56-18.61,6.2-.53-1.6.17-9.77.52-13.41l-1.21-.38s-4.14,16.55-2.76,17.93,0,17.62-1.72,22.13l10.35.13C241.62,556.2,245.06,540.64,245.06,540.64Z"/><polygon class="cls-32" points="78.61 558.78 0.28 558.78 0.28 570.69 534.24 570.69 534.24 558.78 78.61 558.78"/><rect class="cls-24" x="318.9" y="555.05" width="24.99" height="3.73"/><rect class="cls-27" x="321.07" y="551.31" width="20.64" height="3.73"/><circle class="cls-25" cx="143.11" cy="55.53" r="2.64"/><circle class="cls-25" cx="167.82" cy="384.95" r="2.26"/><circle class="cls-25" cx="89.42" cy="436.85" r="2.96"/><circle class="cls-25" cx="29.29" cy="435.37" r="1.48"/><circle class="cls-25" cx="54.75" cy="44.21" r="1.86"/><circle class="cls-25" cx="105.45" cy="239.82" r="1.06"/><circle class="cls-25" cx="133.99" cy="288.2" r="1.06"/><circle class="cls-25" cx="46.99" cy="482.84" r="2.64"/><circle class="cls-25" cx="22.28" cy="153.42" r="2.26"/><circle class="cls-25" cx="100.68" cy="101.52" r="2.96"/><circle class="cls-25" cx="160.81" cy="103" r="1.48"/><circle class="cls-25" cx="135.35" cy="494.16" r="1.86"/><circle class="cls-25" cx="84.65" cy="298.55" r="1.06"/><circle class="cls-25" cx="56.11" cy="250.16" r="1.06"/><g class="cls-33"><path class="cls-8" d="M114.37,332.59H56.12c-5.71,0-10.38-3.81-10.38-8.46s4.67-8.46,10.38-8.46H99c4.47,0,8.13-3,8.13-6.63s-3.66-6.62-8.13-6.62H-127.65c-4.47,0-8.13,3-8.13,6.62s3.66,6.63,8.13,6.63h67.28c5.71,0,10.38,3.8,10.38,8.46s-4.67,8.46-10.38,8.46h-93.47c-5,0-9,3.31-9,7.35s4.07,7.36,9,7.36H114.37c5,0,9-3.31,9-7.36S119.34,332.59,114.37,332.59Z"/></g><g class="cls-34"><path class="cls-35" d="M-20,264.6H160.12s-.82-39.12-48.9-26.89c0,0,6.52-9.78-4.89-11.41,0,0,7.33-13.86-5.71-27.71s-37.49-8.15-42.38,8.15c0,0-6.52-22-29.34-16.3s-31,18.74-26.9,36.67c0,0-21.19,0-16.3,18.75,0,0-10.59-7.34-13,3.26,0,0-29.34-3.26-31.79,15.48Z"/></g></g></g></svg>