<svg id="Layer_1" data-name="Layer 1" xmlns="http://www.w3.org/2000/svg" viewBox="0 0 598.23 62.62"><defs><style>.cls-1{fill:#d55564;}</style></defs><title>pic-film</title><path class="cls-1" d="M23.4,224.71v2.09a.27.27,0,0,1,.18-.05h1.47a.35.35,0,0,1,.35.34v3.64a.35.35,0,0,1-.35.34H23.58a.35.35,0,0,1-.18,0V281.2a.35.35,0,0,1,.18-.05h1.47a.35.35,0,0,1,.35.35v3.63a.35.35,0,0,1-.35.35H23.58a.35.35,0,0,1-.18-.05v1.84H202.93V224.71Zm8,60.42a.35.35,0,0,1-.34.35H29.56a.35.35,0,0,1-.34-.35V281.5a.35.35,0,0,1,.34-.35H31a.35.35,0,0,1,.34.35Zm0-54.4a.34.34,0,0,1-.34.34H29.56a.34.34,0,0,1-.34-.34v-3.64a.34.34,0,0,1,.34-.34H31a.34.34,0,0,1,.34.34Zm6,54.4a.35.35,0,0,1-.34.35H35.55a.35.35,0,0,1-.35-.35V281.5a.35.35,0,0,1,.35-.35H37a.35.35,0,0,1,.34.35Zm0-54.4a.34.34,0,0,1-.34.34H35.55a.35.35,0,0,1-.35-.34v-3.64a.35.35,0,0,1,.35-.34H37a.34.34,0,0,1,.34.34Zm6,54.4a.35.35,0,0,1-.35.35H41.53a.35.35,0,0,1-.34-.35V281.5a.35.35,0,0,1,.34-.35H43a.35.35,0,0,1,.35.35Zm0-54.4a.35.35,0,0,1-.35.34H41.53a.34.34,0,0,1-.34-.34v-3.64a.34.34,0,0,1,.34-.34H43a.35.35,0,0,1,.35.34Zm6,54.4a.35.35,0,0,1-.34.35H47.52a.35.35,0,0,1-.35-.35V281.5a.35.35,0,0,1,.35-.35H49a.35.35,0,0,1,.34.35Zm0-54.4a.34.34,0,0,1-.34.34H47.52a.35.35,0,0,1-.35-.34v-3.64a.35.35,0,0,1,.35-.34H49a.34.34,0,0,1,.34.34Zm6,54.4a.35.35,0,0,1-.35.35H53.5a.35.35,0,0,1-.34-.35V281.5a.35.35,0,0,1,.34-.35H55a.35.35,0,0,1,.35.35Zm0-54.4a.35.35,0,0,1-.35.34H53.5a.34.34,0,0,1-.34-.34v-3.64a.34.34,0,0,1,.34-.34H55a.35.35,0,0,1,.35.34Zm6,54.4a.35.35,0,0,1-.34.35H59.49a.35.35,0,0,1-.35-.35V281.5a.35.35,0,0,1,.35-.35H61a.35.35,0,0,1,.34.35Zm0-54.4a.34.34,0,0,1-.34.34H59.49a.35.35,0,0,1-.35-.34v-3.64a.35.35,0,0,1,.35-.34H61a.34.34,0,0,1,.34.34Zm6,54.4a.35.35,0,0,1-.35.35H65.47a.35.35,0,0,1-.34-.35V281.5a.35.35,0,0,1,.34-.35h1.47a.35.35,0,0,1,.35.35Zm0-54.4a.35.35,0,0,1-.35.34H65.47a.34.34,0,0,1-.34-.34v-3.64a.34.34,0,0,1,.34-.34h1.47a.35.35,0,0,1,.35.34Zm6,54.4a.35.35,0,0,1-.34.35H71.45a.35.35,0,0,1-.34-.35V281.5a.35.35,0,0,1,.34-.35h1.48a.35.35,0,0,1,.34.35Zm0-54.4a.34.34,0,0,1-.34.34H71.45a.34.34,0,0,1-.34-.34v-3.64a.34.34,0,0,1,.34-.34h1.48a.34.34,0,0,1,.34.34Zm6,54.4a.35.35,0,0,1-.35.35H77.44a.35.35,0,0,1-.35-.35V281.5a.35.35,0,0,1,.35-.35h1.47a.35.35,0,0,1,.35.35Zm0-54.4a.35.35,0,0,1-.35.34H77.44a.35.35,0,0,1-.35-.34v-3.64a.35.35,0,0,1,.35-.34h1.47a.35.35,0,0,1,.35.34Zm6,54.4a.35.35,0,0,1-.35.35H83.42a.35.35,0,0,1-.34-.35V281.5a.35.35,0,0,1,.34-.35h1.47a.35.35,0,0,1,.35.35Zm0-54.4a.34.34,0,0,1-.35.34H83.42a.34.34,0,0,1-.34-.34v-3.64a.34.34,0,0,1,.34-.34h1.47a.34.34,0,0,1,.35.34Zm6,54.4a.35.35,0,0,1-.34.35H89.41a.35.35,0,0,1-.35-.35V281.5a.35.35,0,0,1,.35-.35h1.47a.35.35,0,0,1,.34.35Zm0-54.4a.34.34,0,0,1-.34.34H89.41a.35.35,0,0,1-.35-.34v-3.64a.35.35,0,0,1,.35-.34h1.47a.34.34,0,0,1,.34.34Zm6,54.4a.35.35,0,0,1-.35.35H95.39a.35.35,0,0,1-.34-.35V281.5a.35.35,0,0,1,.34-.35h1.47a.35.35,0,0,1,.35.35Zm0-54.4a.35.35,0,0,1-.35.34H95.39a.34.34,0,0,1-.34-.34v-3.64a.34.34,0,0,1,.34-.34h1.47a.35.35,0,0,1,.35.34Zm6,54.4a.35.35,0,0,1-.34.35h-1.47a.35.35,0,0,1-.35-.35V281.5a.35.35,0,0,1,.35-.35h1.47a.35.35,0,0,1,.34.35Zm0-54.4a.34.34,0,0,1-.34.34h-1.47a.35.35,0,0,1-.35-.34v-3.64a.35.35,0,0,1,.35-.34h1.47a.34.34,0,0,1,.34.34Zm6,54.4a.35.35,0,0,1-.35.35h-1.47a.35.35,0,0,1-.34-.35V281.5a.35.35,0,0,1,.34-.35h1.47a.35.35,0,0,1,.35.35Zm0-54.4a.35.35,0,0,1-.35.34h-1.47a.34.34,0,0,1-.34-.34v-3.64a.34.34,0,0,1,.34-.34h1.47a.35.35,0,0,1,.35.34Zm6,54.4a.35.35,0,0,1-.34.35h-1.47a.35.35,0,0,1-.35-.35V281.5a.35.35,0,0,1,.35-.35h1.47a.35.35,0,0,1,.34.35Zm0-54.4a.34.34,0,0,1-.34.34h-1.47a.34.34,0,0,1-.35-.34v-3.64a.34.34,0,0,1,.35-.34h1.47a.34.34,0,0,1,.34.34Zm6,54.4a.35.35,0,0,1-.35.35h-1.47a.35.35,0,0,1-.35-.35V281.5a.35.35,0,0,1,.35-.35h1.47a.35.35,0,0,1,.35.35Zm0-54.4a.35.35,0,0,1-.35.34h-1.47a.35.35,0,0,1-.35-.34v-3.64a.35.35,0,0,1,.35-.34h1.47a.35.35,0,0,1,.35.34Zm6,54.4a.35.35,0,0,1-.34.35h-1.48a.35.35,0,0,1-.34-.35V281.5a.35.35,0,0,1,.34-.35h1.48a.35.35,0,0,1,.34.35Zm0-54.4a.34.34,0,0,1-.34.34h-1.48a.34.34,0,0,1-.34-.34v-3.64a.34.34,0,0,1,.34-.34h1.48a.34.34,0,0,1,.34.34Zm6,54.4a.35.35,0,0,1-.34.35H131.3a.35.35,0,0,1-.35-.35V281.5a.35.35,0,0,1,.35-.35h1.47a.35.35,0,0,1,.34.35Zm0-54.4a.34.34,0,0,1-.34.34H131.3a.35.35,0,0,1-.35-.34v-3.64a.35.35,0,0,1,.35-.34h1.47a.34.34,0,0,1,.34.34Zm6,54.4a.35.35,0,0,1-.35.35h-1.47a.35.35,0,0,1-.34-.35V281.5a.35.35,0,0,1,.34-.35h1.47a.35.35,0,0,1,.35.35Zm0-54.4a.35.35,0,0,1-.35.34h-1.47a.34.34,0,0,1-.34-.34v-3.64a.34.34,0,0,1,.34-.34h1.47a.35.35,0,0,1,.35.34Zm6,54.4a.35.35,0,0,1-.34.35h-1.47a.35.35,0,0,1-.35-.35V281.5a.35.35,0,0,1,.35-.35h1.47a.35.35,0,0,1,.34.35Zm0-54.4a.34.34,0,0,1-.34.34h-1.47a.35.35,0,0,1-.35-.34v-3.64a.35.35,0,0,1,.35-.34h1.47a.34.34,0,0,1,.34.34Zm6,54.4a.35.35,0,0,1-.35.35h-1.47a.35.35,0,0,1-.34-.35V281.5a.35.35,0,0,1,.34-.35h1.47a.35.35,0,0,1,.35.35Zm0-54.4a.35.35,0,0,1-.35.34h-1.47a.34.34,0,0,1-.34-.34v-3.64a.34.34,0,0,1,.34-.34h1.47a.35.35,0,0,1,.35.34Zm6,54.4a.35.35,0,0,1-.34.35h-1.47a.35.35,0,0,1-.35-.35V281.5a.35.35,0,0,1,.35-.35h1.47a.35.35,0,0,1,.34.35Zm0-54.4a.34.34,0,0,1-.34.34h-1.47a.35.35,0,0,1-.35-.34v-3.64a.35.35,0,0,1,.35-.34h1.47a.34.34,0,0,1,.34.34Zm6,54.4a.35.35,0,0,1-.35.35h-1.47a.35.35,0,0,1-.34-.35V281.5a.35.35,0,0,1,.34-.35h1.47a.35.35,0,0,1,.35.35Zm0-54.4a.35.35,0,0,1-.35.34h-1.47a.34.34,0,0,1-.34-.34v-3.64a.34.34,0,0,1,.34-.34h1.47a.35.35,0,0,1,.35.34Zm6,54.4a.35.35,0,0,1-.34.35H167.2a.35.35,0,0,1-.34-.35V281.5a.35.35,0,0,1,.34-.35h1.48a.35.35,0,0,1,.34.35Zm0-54.4a.34.34,0,0,1-.34.34H167.2a.34.34,0,0,1-.34-.34v-3.64a.34.34,0,0,1,.34-.34h1.48a.34.34,0,0,1,.34.34Zm6,54.4a.35.35,0,0,1-.34.35h-1.47a.35.35,0,0,1-.35-.35V281.5a.35.35,0,0,1,.35-.35h1.47a.35.35,0,0,1,.34.35Zm0-54.4a.34.34,0,0,1-.34.34h-1.47a.35.35,0,0,1-.35-.34v-3.64a.35.35,0,0,1,.35-.34h1.47a.34.34,0,0,1,.34.34Zm6,54.4a.35.35,0,0,1-.35.35h-1.47a.35.35,0,0,1-.34-.35V281.5a.35.35,0,0,1,.34-.35h1.47a.35.35,0,0,1,.35.35Zm0-54.4a.35.35,0,0,1-.35.34h-1.47a.34.34,0,0,1-.34-.34v-3.64a.34.34,0,0,1,.34-.34h1.47a.35.35,0,0,1,.35.34Zm6,54.4a.35.35,0,0,1-.34.35h-1.47a.35.35,0,0,1-.35-.35V281.5a.35.35,0,0,1,.35-.35h1.47a.35.35,0,0,1,.34.35Zm0-54.4a.34.34,0,0,1-.34.34h-1.47a.35.35,0,0,1-.35-.34v-3.64a.35.35,0,0,1,.35-.34h1.47a.34.34,0,0,1,.34.34Zm6,54.4a.35.35,0,0,1-.35.35h-1.47a.35.35,0,0,1-.34-.35V281.5a.35.35,0,0,1,.34-.35h1.47a.35.35,0,0,1,.35.35Zm0-54.4a.35.35,0,0,1-.35.34h-1.47a.34.34,0,0,1-.34-.34v-3.64a.34.34,0,0,1,.34-.34h1.47a.35.35,0,0,1,.35.34Zm6,54.4a.35.35,0,0,1-.34.35h-1.47a.35.35,0,0,1-.35-.35V281.5a.35.35,0,0,1,.35-.35h1.47a.35.35,0,0,1,.34.35Zm0-54.4a.34.34,0,0,1-.34.34h-1.47a.35.35,0,0,1-.35-.34v-3.64a.35.35,0,0,1,.35-.34h1.47a.34.34,0,0,1,.34.34Z" transform="translate(0.33 -224.65)"/><path class="cls-1" d="M202.93,224.65v2.08a.35.35,0,0,1,.18,0h1.47a.35.35,0,0,1,.35.35v3.63a.35.35,0,0,1-.35.35h-1.47a.35.35,0,0,1-.18,0v50.18a.35.35,0,0,1,.18-.05h1.47a.35.35,0,0,1,.35.35v3.63a.35.35,0,0,1-.35.35h-1.47a.28.28,0,0,1-.18-.06v1.84H382.46V224.65Zm8,60.42a.35.35,0,0,1-.34.35h-1.48a.35.35,0,0,1-.34-.35v-3.63a.34.34,0,0,1,.34-.35h1.48a.34.34,0,0,1,.34.35Zm0-54.41a.35.35,0,0,1-.34.35h-1.48a.35.35,0,0,1-.34-.35V227a.35.35,0,0,1,.34-.35h1.48a.35.35,0,0,1,.34.35Zm6,54.41a.35.35,0,0,1-.35.35h-1.47a.35.35,0,0,1-.35-.35v-3.63a.35.35,0,0,1,.35-.35h1.47a.35.35,0,0,1,.35.35Zm0-54.41a.35.35,0,0,1-.35.35h-1.47a.35.35,0,0,1-.35-.35V227a.35.35,0,0,1,.35-.35h1.47a.35.35,0,0,1,.35.35Zm6,54.41a.35.35,0,0,1-.35.35h-1.47a.35.35,0,0,1-.34-.35v-3.63a.34.34,0,0,1,.34-.35h1.47a.34.34,0,0,1,.35.35Zm0-54.41a.35.35,0,0,1-.35.35h-1.47a.35.35,0,0,1-.34-.35V227a.35.35,0,0,1,.34-.35h1.47a.35.35,0,0,1,.35.35Zm6,54.41a.35.35,0,0,1-.34.35h-1.47a.35.35,0,0,1-.35-.35v-3.63a.35.35,0,0,1,.35-.35h1.47a.34.34,0,0,1,.34.35Zm0-54.41a.35.35,0,0,1-.34.35h-1.47a.35.35,0,0,1-.35-.35V227a.35.35,0,0,1,.35-.35h1.47a.35.35,0,0,1,.34.35Zm6,54.41a.35.35,0,0,1-.35.35H233a.35.35,0,0,1-.34-.35v-3.63a.34.34,0,0,1,.34-.35h1.47a.35.35,0,0,1,.35.35Zm0-54.41a.35.35,0,0,1-.35.35H233a.35.35,0,0,1-.34-.35V227a.35.35,0,0,1,.34-.35h1.47a.35.35,0,0,1,.35.35Zm6,54.41a.35.35,0,0,1-.34.35H239a.35.35,0,0,1-.35-.35v-3.63a.35.35,0,0,1,.35-.35h1.47a.34.34,0,0,1,.34.35Zm0-54.41a.35.35,0,0,1-.34.35H239a.35.35,0,0,1-.35-.35V227a.35.35,0,0,1,.35-.35h1.47a.35.35,0,0,1,.34.35Zm6,54.41a.35.35,0,0,1-.35.35H245a.35.35,0,0,1-.34-.35v-3.63a.34.34,0,0,1,.34-.35h1.47a.35.35,0,0,1,.35.35Zm0-54.41a.35.35,0,0,1-.35.35H245a.35.35,0,0,1-.34-.35V227a.35.35,0,0,1,.34-.35h1.47a.35.35,0,0,1,.35.35Zm6,54.41a.35.35,0,0,1-.34.35H251a.35.35,0,0,1-.35-.35v-3.63a.34.34,0,0,1,.35-.35h1.47a.34.34,0,0,1,.34.35Zm0-54.41a.35.35,0,0,1-.34.35H251a.35.35,0,0,1-.35-.35V227a.35.35,0,0,1,.35-.35h1.47a.35.35,0,0,1,.34.35Zm6,54.41a.35.35,0,0,1-.35.35H257a.35.35,0,0,1-.35-.35v-3.63a.35.35,0,0,1,.35-.35h1.47a.35.35,0,0,1,.35.35Zm0-54.41a.35.35,0,0,1-.35.35H257a.35.35,0,0,1-.35-.35V227a.35.35,0,0,1,.35-.35h1.47a.35.35,0,0,1,.35.35Zm6,54.41a.35.35,0,0,1-.34.35H263a.35.35,0,0,1-.34-.35v-3.63a.34.34,0,0,1,.34-.35h1.48a.34.34,0,0,1,.34.35Zm0-54.41a.35.35,0,0,1-.34.35H263a.35.35,0,0,1-.34-.35V227a.35.35,0,0,1,.34-.35h1.48a.35.35,0,0,1,.34.35Zm6,54.41a.35.35,0,0,1-.34.35h-1.47a.35.35,0,0,1-.35-.35v-3.63a.35.35,0,0,1,.35-.35h1.47a.34.34,0,0,1,.34.35Zm0-54.41a.35.35,0,0,1-.34.35h-1.47a.35.35,0,0,1-.35-.35V227a.35.35,0,0,1,.35-.35h1.47a.35.35,0,0,1,.34.35Zm6,54.41a.35.35,0,0,1-.35.35h-1.47a.35.35,0,0,1-.34-.35v-3.63a.34.34,0,0,1,.34-.35h1.47a.35.35,0,0,1,.35.35Zm0-54.41a.35.35,0,0,1-.35.35h-1.47a.35.35,0,0,1-.34-.35V227a.35.35,0,0,1,.34-.35h1.47a.35.35,0,0,1,.35.35Zm6,54.41a.35.35,0,0,1-.34.35h-1.47a.35.35,0,0,1-.35-.35v-3.63a.35.35,0,0,1,.35-.35h1.47a.34.34,0,0,1,.34.35Zm0-54.41a.35.35,0,0,1-.34.35h-1.47a.35.35,0,0,1-.35-.35V227a.35.35,0,0,1,.35-.35h1.47a.35.35,0,0,1,.34.35Zm6,54.41a.35.35,0,0,1-.35.35h-1.47a.35.35,0,0,1-.34-.35v-3.63a.34.34,0,0,1,.34-.35h1.47a.35.35,0,0,1,.35.35Zm0-54.41a.35.35,0,0,1-.35.35h-1.47a.35.35,0,0,1-.34-.35V227a.35.35,0,0,1,.34-.35h1.47a.35.35,0,0,1,.35.35Zm6,54.41a.35.35,0,0,1-.34.35h-1.47a.35.35,0,0,1-.35-.35v-3.63a.35.35,0,0,1,.35-.35h1.47a.34.34,0,0,1,.34.35Zm0-54.41a.35.35,0,0,1-.34.35h-1.47a.35.35,0,0,1-.35-.35V227a.35.35,0,0,1,.35-.35h1.47a.35.35,0,0,1,.34.35Zm6,54.41a.35.35,0,0,1-.35.35h-1.47a.35.35,0,0,1-.34-.35v-3.63a.34.34,0,0,1,.34-.35h1.47a.35.35,0,0,1,.35.35Zm0-54.41a.35.35,0,0,1-.35.35h-1.47a.35.35,0,0,1-.34-.35V227a.35.35,0,0,1,.34-.35h1.47a.35.35,0,0,1,.35.35Zm6,54.41a.35.35,0,0,1-.34.35h-1.48a.35.35,0,0,1-.34-.35v-3.63a.34.34,0,0,1,.34-.35h1.48a.34.34,0,0,1,.34.35Zm0-54.41a.35.35,0,0,1-.34.35h-1.48a.35.35,0,0,1-.34-.35V227a.35.35,0,0,1,.34-.35h1.48a.35.35,0,0,1,.34.35Zm6,54.41a.35.35,0,0,1-.34.35h-1.47a.35.35,0,0,1-.35-.35v-3.63a.35.35,0,0,1,.35-.35h1.47a.34.34,0,0,1,.34.35Zm0-54.41a.35.35,0,0,1-.34.35h-1.47a.35.35,0,0,1-.35-.35V227a.35.35,0,0,1,.35-.35h1.47a.35.35,0,0,1,.34.35Zm6,54.41a.35.35,0,0,1-.35.35h-1.47a.35.35,0,0,1-.34-.35v-3.63a.34.34,0,0,1,.34-.35h1.47a.35.35,0,0,1,.35.35Zm0-54.41a.35.35,0,0,1-.35.35h-1.47a.35.35,0,0,1-.34-.35V227a.35.35,0,0,1,.34-.35h1.47a.35.35,0,0,1,.35.35Zm6,54.41a.35.35,0,0,1-.34.35H322.8a.35.35,0,0,1-.35-.35v-3.63a.35.35,0,0,1,.35-.35h1.47a.34.34,0,0,1,.34.35Zm0-54.41a.35.35,0,0,1-.34.35H322.8a.35.35,0,0,1-.35-.35V227a.35.35,0,0,1,.35-.35h1.47a.35.35,0,0,1,.34.35Zm6,54.41a.35.35,0,0,1-.35.35h-1.47a.35.35,0,0,1-.34-.35v-3.63a.34.34,0,0,1,.34-.35h1.47a.35.35,0,0,1,.35.35Zm0-54.41a.35.35,0,0,1-.35.35h-1.47a.35.35,0,0,1-.34-.35V227a.35.35,0,0,1,.34-.35h1.47a.35.35,0,0,1,.35.35Zm6,54.41a.35.35,0,0,1-.34.35h-1.47a.35.35,0,0,1-.35-.35v-3.63a.35.35,0,0,1,.35-.35h1.47a.34.34,0,0,1,.34.35Zm0-54.41a.35.35,0,0,1-.34.35h-1.47a.35.35,0,0,1-.35-.35V227a.35.35,0,0,1,.35-.35h1.47a.35.35,0,0,1,.34.35Zm6,54.41a.35.35,0,0,1-.35.35h-1.47a.35.35,0,0,1-.34-.35v-3.63a.34.34,0,0,1,.34-.35h1.47a.35.35,0,0,1,.35.35Zm0-54.41a.35.35,0,0,1-.35.35h-1.47a.35.35,0,0,1-.34-.35V227a.35.35,0,0,1,.34-.35h1.47a.35.35,0,0,1,.35.35Zm6,54.41a.35.35,0,0,1-.34.35h-1.48a.35.35,0,0,1-.34-.35v-3.63a.34.34,0,0,1,.34-.35h1.48a.34.34,0,0,1,.34.35Zm0-54.41a.35.35,0,0,1-.34.35h-1.48a.35.35,0,0,1-.34-.35V227a.35.35,0,0,1,.34-.35h1.48a.35.35,0,0,1,.34.35Zm6,54.41a.35.35,0,0,1-.35.35h-1.47a.35.35,0,0,1-.35-.35v-3.63a.35.35,0,0,1,.35-.35h1.47a.35.35,0,0,1,.35.35Zm0-54.41a.35.35,0,0,1-.35.35h-1.47a.35.35,0,0,1-.35-.35V227a.35.35,0,0,1,.35-.35h1.47a.35.35,0,0,1,.35.35Zm6,54.41a.35.35,0,0,1-.35.35H358.7a.35.35,0,0,1-.34-.35v-3.63a.34.34,0,0,1,.34-.35h1.47a.34.34,0,0,1,.35.35Zm0-54.41a.35.35,0,0,1-.35.35H358.7a.35.35,0,0,1-.34-.35V227a.35.35,0,0,1,.34-.35h1.47a.35.35,0,0,1,.35.35Zm6,54.41a.35.35,0,0,1-.34.35h-1.47a.35.35,0,0,1-.35-.35v-3.63a.35.35,0,0,1,.35-.35h1.47a.34.34,0,0,1,.34.35Zm0-54.41a.35.35,0,0,1-.34.35h-1.47a.35.35,0,0,1-.35-.35V227a.35.35,0,0,1,.35-.35h1.47a.35.35,0,0,1,.34.35Zm6,54.41a.35.35,0,0,1-.35.35h-1.47a.35.35,0,0,1-.34-.35v-3.63a.34.34,0,0,1,.34-.35h1.47a.35.35,0,0,1,.35.35Zm0-54.41a.35.35,0,0,1-.35.35h-1.47a.35.35,0,0,1-.34-.35V227a.35.35,0,0,1,.34-.35h1.47a.35.35,0,0,1,.35.35Zm6,54.41a.35.35,0,0,1-.34.35h-1.47a.35.35,0,0,1-.35-.35v-3.63a.35.35,0,0,1,.35-.35h1.47a.34.34,0,0,1,.34.35Zm0-54.41a.35.35,0,0,1-.34.35h-1.47a.35.35,0,0,1-.35-.35V227a.35.35,0,0,1,.35-.35h1.47a.35.35,0,0,1,.34.35Z" transform="translate(0.33 -224.65)"/><path class="cls-1" d="M418.37,224.65v2.08a.35.35,0,0,1,.18,0H420a.35.35,0,0,1,.34.35v3.63a.35.35,0,0,1-.34.35h-1.47a.35.35,0,0,1-.18,0v50.18a.35.35,0,0,1,.18-.05H420a.34.34,0,0,1,.34.35v3.63a.35.35,0,0,1-.34.35h-1.47a.28.28,0,0,1-.18-.06v1.84H597.9V224.65Zm8,60.42a.35.35,0,0,1-.35.35h-1.47a.35.35,0,0,1-.34-.35v-3.63a.34.34,0,0,1,.34-.35H426a.35.35,0,0,1,.35.35Zm0-54.41a.35.35,0,0,1-.35.35h-1.47a.35.35,0,0,1-.34-.35V227a.35.35,0,0,1,.34-.35H426a.35.35,0,0,1,.35.35Zm6,54.41a.35.35,0,0,1-.34.35h-1.47a.35.35,0,0,1-.35-.35v-3.63a.35.35,0,0,1,.35-.35H432a.34.34,0,0,1,.34.35Zm0-54.41a.35.35,0,0,1-.34.35h-1.47a.35.35,0,0,1-.35-.35V227a.35.35,0,0,1,.35-.35H432a.35.35,0,0,1,.34.35Zm6,54.41a.35.35,0,0,1-.35.35H436.5a.35.35,0,0,1-.34-.35v-3.63a.34.34,0,0,1,.34-.35H438a.35.35,0,0,1,.35.35Zm0-54.41a.35.35,0,0,1-.35.35H436.5a.35.35,0,0,1-.34-.35V227a.35.35,0,0,1,.34-.35H438a.35.35,0,0,1,.35.35Zm6,54.41a.35.35,0,0,1-.34.35h-1.48a.35.35,0,0,1-.34-.35v-3.63a.34.34,0,0,1,.34-.35H444a.34.34,0,0,1,.34.35Zm0-54.41a.35.35,0,0,1-.34.35h-1.48a.35.35,0,0,1-.34-.35V227a.35.35,0,0,1,.34-.35H444a.35.35,0,0,1,.34.35Zm6,54.41a.35.35,0,0,1-.34.35h-1.47a.35.35,0,0,1-.35-.35v-3.63a.35.35,0,0,1,.35-.35h1.47a.34.34,0,0,1,.34.35Zm0-54.41a.35.35,0,0,1-.34.35h-1.47a.35.35,0,0,1-.35-.35V227a.35.35,0,0,1,.35-.35h1.47a.35.35,0,0,1,.34.35Zm6,54.41a.35.35,0,0,1-.35.35h-1.47a.35.35,0,0,1-.34-.35v-3.63a.34.34,0,0,1,.34-.35h1.47a.35.35,0,0,1,.35.35Zm0-54.41a.35.35,0,0,1-.35.35h-1.47a.35.35,0,0,1-.34-.35V227a.35.35,0,0,1,.34-.35h1.47a.35.35,0,0,1,.35.35Zm6,54.41a.35.35,0,0,1-.34.35h-1.47a.35.35,0,0,1-.35-.35v-3.63a.35.35,0,0,1,.35-.35h1.47a.34.34,0,0,1,.34.35Zm0-54.41a.35.35,0,0,1-.34.35h-1.47a.35.35,0,0,1-.35-.35V227a.35.35,0,0,1,.35-.35h1.47a.35.35,0,0,1,.34.35Zm6,54.41a.35.35,0,0,1-.35.35h-1.47a.35.35,0,0,1-.34-.35v-3.63a.34.34,0,0,1,.34-.35h1.47a.35.35,0,0,1,.35.35Zm0-54.41a.35.35,0,0,1-.35.35h-1.47a.35.35,0,0,1-.34-.35V227a.35.35,0,0,1,.34-.35h1.47a.35.35,0,0,1,.35.35Zm6,54.41a.35.35,0,0,1-.34.35h-1.47a.35.35,0,0,1-.35-.35v-3.63a.35.35,0,0,1,.35-.35h1.47a.34.34,0,0,1,.34.35Zm0-54.41a.35.35,0,0,1-.34.35h-1.47a.35.35,0,0,1-.35-.35V227a.35.35,0,0,1,.35-.35h1.47a.35.35,0,0,1,.34.35Zm6,54.41a.35.35,0,0,1-.35.35h-1.47a.35.35,0,0,1-.34-.35v-3.63a.34.34,0,0,1,.34-.35h1.47a.35.35,0,0,1,.35.35Zm0-54.41a.35.35,0,0,1-.35.35h-1.47a.35.35,0,0,1-.34-.35V227a.35.35,0,0,1,.34-.35h1.47a.35.35,0,0,1,.35.35Zm6,54.41a.35.35,0,0,1-.34.35h-1.48a.35.35,0,0,1-.34-.35v-3.63a.34.34,0,0,1,.34-.35h1.48a.34.34,0,0,1,.34.35Zm0-54.41a.35.35,0,0,1-.34.35h-1.48a.35.35,0,0,1-.34-.35V227a.35.35,0,0,1,.34-.35h1.48a.35.35,0,0,1,.34.35Zm6,54.41a.35.35,0,0,1-.35.35h-1.47a.35.35,0,0,1-.35-.35v-3.63a.35.35,0,0,1,.35-.35h1.47a.35.35,0,0,1,.35.35Zm0-54.41a.35.35,0,0,1-.35.35h-1.47a.35.35,0,0,1-.35-.35V227a.35.35,0,0,1,.35-.35h1.47a.35.35,0,0,1,.35.35Zm6,54.41a.35.35,0,0,1-.35.35h-1.47a.35.35,0,0,1-.34-.35v-3.63a.34.34,0,0,1,.34-.35h1.47a.34.34,0,0,1,.35.35Zm0-54.41a.35.35,0,0,1-.35.35h-1.47a.35.35,0,0,1-.34-.35V227a.35.35,0,0,1,.34-.35h1.47a.35.35,0,0,1,.35.35Zm6,54.41a.35.35,0,0,1-.34.35h-1.47a.35.35,0,0,1-.35-.35v-3.63a.35.35,0,0,1,.35-.35h1.47a.34.34,0,0,1,.34.35Zm0-54.41a.35.35,0,0,1-.34.35h-1.47a.35.35,0,0,1-.35-.35V227a.35.35,0,0,1,.35-.35h1.47a.35.35,0,0,1,.34.35Zm6,54.41a.35.35,0,0,1-.35.35h-1.47a.35.35,0,0,1-.34-.35v-3.63a.34.34,0,0,1,.34-.35h1.47a.35.35,0,0,1,.35.35Zm0-54.41a.35.35,0,0,1-.35.35h-1.47a.35.35,0,0,1-.34-.35V227a.35.35,0,0,1,.34-.35h1.47a.35.35,0,0,1,.35.35Zm6,54.41a.35.35,0,0,1-.34.35H514.3a.35.35,0,0,1-.35-.35v-3.63a.35.35,0,0,1,.35-.35h1.47a.34.34,0,0,1,.34.35Zm0-54.41a.35.35,0,0,1-.34.35H514.3a.35.35,0,0,1-.35-.35V227a.35.35,0,0,1,.35-.35h1.47a.35.35,0,0,1,.34.35Zm6,54.41a.35.35,0,0,1-.35.35h-1.47a.35.35,0,0,1-.34-.35v-3.63a.34.34,0,0,1,.34-.35h1.47a.35.35,0,0,1,.35.35Zm0-54.41a.35.35,0,0,1-.35.35h-1.47a.35.35,0,0,1-.34-.35V227a.35.35,0,0,1,.34-.35h1.47a.35.35,0,0,1,.35.35Zm6,54.41a.35.35,0,0,1-.34.35h-1.47a.35.35,0,0,1-.35-.35v-3.63a.34.34,0,0,1,.35-.35h1.47a.34.34,0,0,1,.34.35Zm0-54.41a.35.35,0,0,1-.34.35h-1.47a.35.35,0,0,1-.35-.35V227a.35.35,0,0,1,.35-.35h1.47a.35.35,0,0,1,.34.35Zm6,54.41a.35.35,0,0,1-.35.35h-1.47a.35.35,0,0,1-.35-.35v-3.63a.35.35,0,0,1,.35-.35h1.47a.35.35,0,0,1,.35.35Zm0-54.41a.35.35,0,0,1-.35.35h-1.47a.35.35,0,0,1-.35-.35V227a.35.35,0,0,1,.35-.35h1.47a.35.35,0,0,1,.35.35Zm6,54.41a.35.35,0,0,1-.34.35h-1.48a.35.35,0,0,1-.34-.35v-3.63a.34.34,0,0,1,.34-.35h1.48a.34.34,0,0,1,.34.35Zm0-54.41a.35.35,0,0,1-.34.35h-1.48a.35.35,0,0,1-.34-.35V227a.35.35,0,0,1,.34-.35h1.48a.35.35,0,0,1,.34.35Zm6,54.41a.35.35,0,0,1-.34.35h-1.47a.35.35,0,0,1-.35-.35v-3.63a.35.35,0,0,1,.35-.35h1.47a.34.34,0,0,1,.34.35Zm0-54.41a.35.35,0,0,1-.34.35h-1.47a.35.35,0,0,1-.35-.35V227a.35.35,0,0,1,.35-.35h1.47a.35.35,0,0,1,.34.35Zm6,54.41a.35.35,0,0,1-.35.35H550.2a.35.35,0,0,1-.34-.35v-3.63a.34.34,0,0,1,.34-.35h1.47a.35.35,0,0,1,.35.35Zm0-54.41a.35.35,0,0,1-.35.35H550.2a.35.35,0,0,1-.34-.35V227a.35.35,0,0,1,.34-.35h1.47a.35.35,0,0,1,.35.35Zm6,54.41a.35.35,0,0,1-.34.35h-1.47a.35.35,0,0,1-.35-.35v-3.63a.35.35,0,0,1,.35-.35h1.47a.34.34,0,0,1,.34.35Zm0-54.41a.35.35,0,0,1-.34.35h-1.47a.35.35,0,0,1-.35-.35V227a.35.35,0,0,1,.35-.35h1.47a.35.35,0,0,1,.34.35Zm6,54.41a.35.35,0,0,1-.35.35h-1.47a.35.35,0,0,1-.34-.35v-3.63a.34.34,0,0,1,.34-.35h1.47a.35.35,0,0,1,.35.35Zm0-54.41a.35.35,0,0,1-.35.35h-1.47a.35.35,0,0,1-.34-.35V227a.35.35,0,0,1,.34-.35h1.47a.35.35,0,0,1,.35.35Zm6,54.41a.35.35,0,0,1-.34.35h-1.47a.35.35,0,0,1-.35-.35v-3.63a.35.35,0,0,1,.35-.35h1.47a.34.34,0,0,1,.34.35Zm0-54.41a.35.35,0,0,1-.34.35h-1.47a.35.35,0,0,1-.35-.35V227a.35.35,0,0,1,.35-.35h1.47a.35.35,0,0,1,.34.35Zm6,54.41a.35.35,0,0,1-.35.35h-1.47a.35.35,0,0,1-.34-.35v-3.63a.34.34,0,0,1,.34-.35h1.47a.35.35,0,0,1,.35.35Zm0-54.41a.35.35,0,0,1-.35.35h-1.47a.35.35,0,0,1-.34-.35V227a.35.35,0,0,1,.34-.35h1.47a.35.35,0,0,1,.35.35Zm6,54.41a.35.35,0,0,1-.34.35h-1.48a.35.35,0,0,1-.34-.35v-3.63a.34.34,0,0,1,.34-.35h1.48a.34.34,0,0,1,.34.35Zm0-54.41a.35.35,0,0,1-.34.35h-1.48a.35.35,0,0,1-.34-.35V227a.35.35,0,0,1,.34-.35h1.48a.35.35,0,0,1,.34.35Zm6,54.41a.35.35,0,0,1-.34.35h-1.47a.35.35,0,0,1-.35-.35v-3.63a.35.35,0,0,1,.35-.35h1.47a.34.34,0,0,1,.34.35Zm0-54.41a.35.35,0,0,1-.34.35h-1.47a.35.35,0,0,1-.35-.35V227a.35.35,0,0,1,.35-.35h1.47a.35.35,0,0,1,.34.35Zm6,54.41a.35.35,0,0,1-.35.35h-1.47a.35.35,0,0,1-.34-.35v-3.63a.34.34,0,0,1,.34-.35h1.47a.35.35,0,0,1,.35.35Zm0-54.41a.35.35,0,0,1-.35.35h-1.47a.35.35,0,0,1-.34-.35V227a.35.35,0,0,1,.34-.35h1.47a.35.35,0,0,1,.35.35Z" transform="translate(0.33 -224.65)"/><path class="cls-1" d="M382.46,224.65v2.08a.37.37,0,0,1,.18,0h1.47a.35.35,0,0,1,.35.35v3.63a.35.35,0,0,1-.35.35h-1.47a.37.37,0,0,1-.18,0v50.18a.37.37,0,0,1,.18-.05h1.47a.35.35,0,0,1,.35.35v3.63a.35.35,0,0,1-.35.35h-1.47a.3.3,0,0,1-.18-.06v1.84H562V224.65Zm8,60.42a.35.35,0,0,1-.34.35h-1.47a.35.35,0,0,1-.35-.35v-3.63a.34.34,0,0,1,.35-.35h1.47a.34.34,0,0,1,.34.35Zm0-54.41a.35.35,0,0,1-.34.35h-1.47a.35.35,0,0,1-.35-.35V227a.35.35,0,0,1,.35-.35h1.47a.35.35,0,0,1,.34.35Zm6,54.41a.35.35,0,0,1-.35.35h-1.47a.35.35,0,0,1-.35-.35v-3.63a.35.35,0,0,1,.35-.35h1.47a.35.35,0,0,1,.35.35Zm0-54.41a.35.35,0,0,1-.35.35h-1.47a.35.35,0,0,1-.35-.35V227a.35.35,0,0,1,.35-.35h1.47a.35.35,0,0,1,.35.35Zm6,54.41a.35.35,0,0,1-.34.35h-1.48a.35.35,0,0,1-.34-.35v-3.63a.34.34,0,0,1,.34-.35h1.48a.34.34,0,0,1,.34.35Zm0-54.41a.35.35,0,0,1-.34.35h-1.48a.35.35,0,0,1-.34-.35V227a.35.35,0,0,1,.34-.35h1.48a.35.35,0,0,1,.34.35Zm6,54.41a.35.35,0,0,1-.34.35h-1.47a.35.35,0,0,1-.35-.35v-3.63a.35.35,0,0,1,.35-.35h1.47a.34.34,0,0,1,.34.35Zm0-54.41a.35.35,0,0,1-.34.35h-1.47a.35.35,0,0,1-.35-.35V227a.35.35,0,0,1,.35-.35h1.47a.35.35,0,0,1,.34.35Zm6,54.41a.35.35,0,0,1-.35.35h-1.47a.35.35,0,0,1-.34-.35v-3.63a.34.34,0,0,1,.34-.35H414a.35.35,0,0,1,.35.35Zm0-54.41a.35.35,0,0,1-.35.35h-1.47a.35.35,0,0,1-.34-.35V227a.35.35,0,0,1,.34-.35H414a.35.35,0,0,1,.35.35Zm6,54.41a.35.35,0,0,1-.34.35h-1.47a.35.35,0,0,1-.35-.35v-3.63a.35.35,0,0,1,.35-.35H420a.34.34,0,0,1,.34.35Zm0-54.41a.35.35,0,0,1-.34.35h-1.47a.35.35,0,0,1-.35-.35V227a.35.35,0,0,1,.35-.35H420a.35.35,0,0,1,.34.35Zm6,54.41a.35.35,0,0,1-.35.35h-1.47a.35.35,0,0,1-.34-.35v-3.63a.34.34,0,0,1,.34-.35H426a.35.35,0,0,1,.35.35Zm0-54.41a.35.35,0,0,1-.35.35h-1.47a.35.35,0,0,1-.34-.35V227a.35.35,0,0,1,.34-.35H426a.35.35,0,0,1,.35.35Zm6,54.41a.35.35,0,0,1-.34.35h-1.47a.35.35,0,0,1-.35-.35v-3.63a.35.35,0,0,1,.35-.35H432a.34.34,0,0,1,.34.35Zm0-54.41a.35.35,0,0,1-.34.35h-1.47a.35.35,0,0,1-.35-.35V227a.35.35,0,0,1,.35-.35H432a.35.35,0,0,1,.34.35Zm6,54.41a.35.35,0,0,1-.35.35H436.5a.35.35,0,0,1-.34-.35v-3.63a.34.34,0,0,1,.34-.35H438a.35.35,0,0,1,.35.35Zm0-54.41a.35.35,0,0,1-.35.35H436.5a.35.35,0,0,1-.34-.35V227a.35.35,0,0,1,.34-.35H438a.35.35,0,0,1,.35.35Zm6,54.41a.35.35,0,0,1-.34.35h-1.48a.35.35,0,0,1-.34-.35v-3.63a.34.34,0,0,1,.34-.35H444a.34.34,0,0,1,.34.35Zm0-54.41a.35.35,0,0,1-.34.35h-1.48a.35.35,0,0,1-.34-.35V227a.35.35,0,0,1,.34-.35H444a.35.35,0,0,1,.34.35Zm6,54.41a.35.35,0,0,1-.34.35h-1.47a.35.35,0,0,1-.35-.35v-3.63a.35.35,0,0,1,.35-.35h1.47a.34.34,0,0,1,.34.35Zm0-54.41a.35.35,0,0,1-.34.35h-1.47a.35.35,0,0,1-.35-.35V227a.35.35,0,0,1,.35-.35h1.47a.35.35,0,0,1,.34.35Zm6,54.41a.35.35,0,0,1-.35.35h-1.47a.35.35,0,0,1-.34-.35v-3.63a.34.34,0,0,1,.34-.35h1.47a.35.35,0,0,1,.35.35Zm0-54.41a.35.35,0,0,1-.35.35h-1.47a.35.35,0,0,1-.34-.35V227a.35.35,0,0,1,.34-.35h1.47a.35.35,0,0,1,.35.35Zm6,54.41a.35.35,0,0,1-.34.35h-1.47a.35.35,0,0,1-.35-.35v-3.63a.35.35,0,0,1,.35-.35h1.47a.34.34,0,0,1,.34.35Zm0-54.41a.35.35,0,0,1-.34.35h-1.47a.35.35,0,0,1-.35-.35V227a.35.35,0,0,1,.35-.35h1.47a.35.35,0,0,1,.34.35Zm6,54.41a.35.35,0,0,1-.35.35h-1.47a.35.35,0,0,1-.34-.35v-3.63a.34.34,0,0,1,.34-.35h1.47a.35.35,0,0,1,.35.35Zm0-54.41a.35.35,0,0,1-.35.35h-1.47a.35.35,0,0,1-.34-.35V227a.35.35,0,0,1,.34-.35h1.47a.35.35,0,0,1,.35.35Zm6,54.41a.35.35,0,0,1-.34.35h-1.47a.35.35,0,0,1-.35-.35v-3.63a.35.35,0,0,1,.35-.35h1.47a.34.34,0,0,1,.34.35Zm0-54.41a.35.35,0,0,1-.34.35h-1.47a.35.35,0,0,1-.35-.35V227a.35.35,0,0,1,.35-.35h1.47a.35.35,0,0,1,.34.35Zm6,54.41a.35.35,0,0,1-.35.35h-1.47a.35.35,0,0,1-.34-.35v-3.63a.34.34,0,0,1,.34-.35h1.47a.35.35,0,0,1,.35.35Zm0-54.41a.35.35,0,0,1-.35.35h-1.47a.35.35,0,0,1-.34-.35V227a.35.35,0,0,1,.34-.35h1.47a.35.35,0,0,1,.35.35Zm6,54.41a.35.35,0,0,1-.34.35h-1.48a.35.35,0,0,1-.34-.35v-3.63a.34.34,0,0,1,.34-.35h1.48a.34.34,0,0,1,.34.35Zm0-54.41a.35.35,0,0,1-.34.35h-1.48a.35.35,0,0,1-.34-.35V227a.35.35,0,0,1,.34-.35h1.48a.35.35,0,0,1,.34.35Zm6,54.41a.35.35,0,0,1-.35.35h-1.47a.35.35,0,0,1-.35-.35v-3.63a.35.35,0,0,1,.35-.35h1.47a.35.35,0,0,1,.35.35Zm0-54.41a.35.35,0,0,1-.35.35h-1.47a.35.35,0,0,1-.35-.35V227a.35.35,0,0,1,.35-.35h1.47a.35.35,0,0,1,.35.35Zm6,54.41a.35.35,0,0,1-.35.35h-1.47a.35.35,0,0,1-.34-.35v-3.63a.34.34,0,0,1,.34-.35h1.47a.34.34,0,0,1,.35.35Zm0-54.41a.35.35,0,0,1-.35.35h-1.47a.35.35,0,0,1-.34-.35V227a.35.35,0,0,1,.34-.35h1.47a.35.35,0,0,1,.35.35Zm6,54.41a.35.35,0,0,1-.34.35h-1.47a.35.35,0,0,1-.35-.35v-3.63a.35.35,0,0,1,.35-.35h1.47a.34.34,0,0,1,.34.35Zm0-54.41a.35.35,0,0,1-.34.35h-1.47a.35.35,0,0,1-.35-.35V227a.35.35,0,0,1,.35-.35h1.47a.35.35,0,0,1,.34.35Zm6,54.41a.35.35,0,0,1-.35.35h-1.47a.35.35,0,0,1-.34-.35v-3.63a.34.34,0,0,1,.34-.35h1.47a.35.35,0,0,1,.35.35Zm0-54.41a.35.35,0,0,1-.35.35h-1.47a.35.35,0,0,1-.34-.35V227a.35.35,0,0,1,.34-.35h1.47a.35.35,0,0,1,.35.35Zm6,54.41a.35.35,0,0,1-.34.35H514.3a.35.35,0,0,1-.35-.35v-3.63a.35.35,0,0,1,.35-.35h1.47a.34.34,0,0,1,.34.35Zm0-54.41a.35.35,0,0,1-.34.35H514.3a.35.35,0,0,1-.35-.35V227a.35.35,0,0,1,.35-.35h1.47a.35.35,0,0,1,.34.35Zm6,54.41a.35.35,0,0,1-.35.35h-1.47a.35.35,0,0,1-.34-.35v-3.63a.34.34,0,0,1,.34-.35h1.47a.35.35,0,0,1,.35.35Zm0-54.41a.35.35,0,0,1-.35.35h-1.47a.35.35,0,0,1-.34-.35V227a.35.35,0,0,1,.34-.35h1.47a.35.35,0,0,1,.35.35Zm6,54.41a.35.35,0,0,1-.34.35h-1.47a.35.35,0,0,1-.35-.35v-3.63a.34.34,0,0,1,.35-.35h1.47a.34.34,0,0,1,.34.35Zm0-54.41a.35.35,0,0,1-.34.35h-1.47a.35.35,0,0,1-.35-.35V227a.35.35,0,0,1,.35-.35h1.47a.35.35,0,0,1,.34.35Zm6,54.41a.35.35,0,0,1-.35.35h-1.47a.35.35,0,0,1-.35-.35v-3.63a.35.35,0,0,1,.35-.35h1.47a.35.35,0,0,1,.35.35Zm0-54.41a.35.35,0,0,1-.35.35h-1.47a.35.35,0,0,1-.35-.35V227a.35.35,0,0,1,.35-.35h1.47a.35.35,0,0,1,.35.35Zm6,54.41a.35.35,0,0,1-.34.35h-1.48a.35.35,0,0,1-.34-.35v-3.63a.34.34,0,0,1,.34-.35h1.48a.34.34,0,0,1,.34.35Zm0-54.41a.35.35,0,0,1-.34.35h-1.48a.35.35,0,0,1-.34-.35V227a.35.35,0,0,1,.34-.35h1.48a.35.35,0,0,1,.34.35Zm6,54.41a.35.35,0,0,1-.34.35h-1.47a.35.35,0,0,1-.35-.35v-3.63a.35.35,0,0,1,.35-.35h1.47a.34.34,0,0,1,.34.35Zm0-54.41a.35.35,0,0,1-.34.35h-1.47a.35.35,0,0,1-.35-.35V227a.35.35,0,0,1,.35-.35h1.47a.35.35,0,0,1,.34.35Zm6,54.41a.35.35,0,0,1-.35.35H550.2a.35.35,0,0,1-.34-.35v-3.63a.34.34,0,0,1,.34-.35h1.47a.35.35,0,0,1,.35.35Zm0-54.41a.35.35,0,0,1-.35.35H550.2a.35.35,0,0,1-.34-.35V227a.35.35,0,0,1,.34-.35h1.47a.35.35,0,0,1,.35.35Zm6,54.41a.35.35,0,0,1-.34.35h-1.47a.35.35,0,0,1-.35-.35v-3.63a.35.35,0,0,1,.35-.35h1.47a.34.34,0,0,1,.34.35Zm0-54.41a.35.35,0,0,1-.34.35h-1.47a.35.35,0,0,1-.35-.35V227a.35.35,0,0,1,.35-.35h1.47a.35.35,0,0,1,.34.35Z" transform="translate(0.33 -224.65)"/><path class="cls-1" d="M-.33,224.65v2.08a.35.35,0,0,1,.18,0H1.32a.35.35,0,0,1,.34.35v3.63a.35.35,0,0,1-.34.35H-.15a.35.35,0,0,1-.18,0v50.18a.35.35,0,0,1,.18-.05H1.32a.34.34,0,0,1,.34.35v3.63a.35.35,0,0,1-.34.35H-.15a.28.28,0,0,1-.18-.06v1.84H179.2V224.65Zm8,60.42a.35.35,0,0,1-.35.35H5.83a.35.35,0,0,1-.34-.35v-3.63a.34.34,0,0,1,.34-.35H7.3a.35.35,0,0,1,.35.35Zm0-54.41a.35.35,0,0,1-.35.35H5.83a.35.35,0,0,1-.34-.35V227a.35.35,0,0,1,.34-.35H7.3a.35.35,0,0,1,.35.35Zm6,54.41a.35.35,0,0,1-.34.35H11.81a.35.35,0,0,1-.34-.35v-3.63a.34.34,0,0,1,.34-.35h1.48a.34.34,0,0,1,.34.35Zm0-54.41a.35.35,0,0,1-.34.35H11.81a.35.35,0,0,1-.34-.35V227a.35.35,0,0,1,.34-.35h1.48a.35.35,0,0,1,.34.35Zm6,54.41a.35.35,0,0,1-.34.35H17.8a.35.35,0,0,1-.35-.35v-3.63a.35.35,0,0,1,.35-.35h1.47a.34.34,0,0,1,.34.35Zm0-54.41a.35.35,0,0,1-.34.35H17.8a.35.35,0,0,1-.35-.35V227a.35.35,0,0,1,.35-.35h1.47a.35.35,0,0,1,.34.35Zm6,54.41a.35.35,0,0,1-.35.35H23.78a.35.35,0,0,1-.34-.35v-3.63a.34.34,0,0,1,.34-.35h1.47a.35.35,0,0,1,.35.35Zm0-54.41a.35.35,0,0,1-.35.35H23.78a.35.35,0,0,1-.34-.35V227a.35.35,0,0,1,.34-.35h1.47a.35.35,0,0,1,.35.35Zm6,54.41a.35.35,0,0,1-.34.35H29.77a.35.35,0,0,1-.35-.35v-3.63a.35.35,0,0,1,.35-.35h1.47a.34.34,0,0,1,.34.35Zm0-54.41a.35.35,0,0,1-.34.35H29.77a.35.35,0,0,1-.35-.35V227a.35.35,0,0,1,.35-.35h1.47a.35.35,0,0,1,.34.35Zm6,54.41a.35.35,0,0,1-.35.35H35.75a.35.35,0,0,1-.34-.35v-3.63a.34.34,0,0,1,.34-.35h1.47a.35.35,0,0,1,.35.35Zm0-54.41a.35.35,0,0,1-.35.35H35.75a.35.35,0,0,1-.34-.35V227a.35.35,0,0,1,.34-.35h1.47a.35.35,0,0,1,.35.35Zm6,54.41a.35.35,0,0,1-.34.35H41.74a.35.35,0,0,1-.35-.35v-3.63a.35.35,0,0,1,.35-.35h1.47a.34.34,0,0,1,.34.35Zm0-54.41a.35.35,0,0,1-.34.35H41.74a.35.35,0,0,1-.35-.35V227a.35.35,0,0,1,.35-.35h1.47a.35.35,0,0,1,.34.35Zm6,54.41a.35.35,0,0,1-.35.35H47.72a.35.35,0,0,1-.34-.35v-3.63a.34.34,0,0,1,.34-.35h1.47a.35.35,0,0,1,.35.35Zm0-54.41a.35.35,0,0,1-.35.35H47.72a.35.35,0,0,1-.34-.35V227a.35.35,0,0,1,.34-.35h1.47a.35.35,0,0,1,.35.35Zm6,54.41a.35.35,0,0,1-.34.35H53.7a.35.35,0,0,1-.34-.35v-3.63a.34.34,0,0,1,.34-.35h1.48a.34.34,0,0,1,.34.35Zm0-54.41a.35.35,0,0,1-.34.35H53.7a.35.35,0,0,1-.34-.35V227a.35.35,0,0,1,.34-.35h1.48a.35.35,0,0,1,.34.35Zm6,54.41a.35.35,0,0,1-.35.35H59.69a.35.35,0,0,1-.35-.35v-3.63a.35.35,0,0,1,.35-.35h1.47a.35.35,0,0,1,.35.35Zm0-54.41a.35.35,0,0,1-.35.35H59.69a.35.35,0,0,1-.35-.35V227a.35.35,0,0,1,.35-.35h1.47a.35.35,0,0,1,.35.35Zm6,54.41a.35.35,0,0,1-.35.35H65.67a.35.35,0,0,1-.34-.35v-3.63a.34.34,0,0,1,.34-.35h1.47a.34.34,0,0,1,.35.35Zm0-54.41a.35.35,0,0,1-.35.35H65.67a.35.35,0,0,1-.34-.35V227a.35.35,0,0,1,.34-.35h1.47a.35.35,0,0,1,.35.35Zm6,54.41a.35.35,0,0,1-.34.35H71.66a.35.35,0,0,1-.35-.35v-3.63a.35.35,0,0,1,.35-.35h1.47a.34.34,0,0,1,.34.35Zm0-54.41a.35.35,0,0,1-.34.35H71.66a.35.35,0,0,1-.35-.35V227a.35.35,0,0,1,.35-.35h1.47a.35.35,0,0,1,.34.35Zm6,54.41a.35.35,0,0,1-.35.35H77.64a.35.35,0,0,1-.34-.35v-3.63a.34.34,0,0,1,.34-.35h1.47a.35.35,0,0,1,.35.35Zm0-54.41a.35.35,0,0,1-.35.35H77.64a.35.35,0,0,1-.34-.35V227a.35.35,0,0,1,.34-.35h1.47a.35.35,0,0,1,.35.35Zm6,54.41a.35.35,0,0,1-.34.35H83.63a.35.35,0,0,1-.35-.35v-3.63a.35.35,0,0,1,.35-.35H85.1a.34.34,0,0,1,.34.35Zm0-54.41a.35.35,0,0,1-.34.35H83.63a.35.35,0,0,1-.35-.35V227a.35.35,0,0,1,.35-.35H85.1a.35.35,0,0,1,.34.35Zm6,54.41a.35.35,0,0,1-.35.35H89.61a.35.35,0,0,1-.34-.35v-3.63a.34.34,0,0,1,.34-.35h1.47a.35.35,0,0,1,.35.35Zm0-54.41a.35.35,0,0,1-.35.35H89.61a.35.35,0,0,1-.34-.35V227a.35.35,0,0,1,.34-.35h1.47a.35.35,0,0,1,.35.35Zm6,54.41a.35.35,0,0,1-.34.35H95.6a.35.35,0,0,1-.35-.35v-3.63a.34.34,0,0,1,.35-.35h1.47a.34.34,0,0,1,.34.35Zm0-54.41a.35.35,0,0,1-.34.35H95.6a.35.35,0,0,1-.35-.35V227a.35.35,0,0,1,.35-.35h1.47a.35.35,0,0,1,.34.35Zm6,54.41a.35.35,0,0,1-.35.35h-1.47a.35.35,0,0,1-.35-.35v-3.63a.35.35,0,0,1,.35-.35h1.47a.35.35,0,0,1,.35.35Zm0-54.41a.35.35,0,0,1-.35.35h-1.47a.35.35,0,0,1-.35-.35V227a.35.35,0,0,1,.35-.35h1.47a.35.35,0,0,1,.35.35Zm6,54.41a.35.35,0,0,1-.34.35h-1.48a.35.35,0,0,1-.34-.35v-3.63a.34.34,0,0,1,.34-.35H109a.34.34,0,0,1,.34.35Zm0-54.41a.35.35,0,0,1-.34.35h-1.48a.35.35,0,0,1-.34-.35V227a.35.35,0,0,1,.34-.35H109a.35.35,0,0,1,.34.35Zm6,54.41a.35.35,0,0,1-.34.35h-1.47a.35.35,0,0,1-.35-.35v-3.63a.35.35,0,0,1,.35-.35H115a.34.34,0,0,1,.34.35Zm0-54.41a.35.35,0,0,1-.34.35h-1.47a.35.35,0,0,1-.35-.35V227a.35.35,0,0,1,.35-.35H115a.35.35,0,0,1,.34.35Zm6,54.41a.35.35,0,0,1-.35.35h-1.47a.35.35,0,0,1-.34-.35v-3.63a.34.34,0,0,1,.34-.35H121a.35.35,0,0,1,.35.35Zm0-54.41a.35.35,0,0,1-.35.35h-1.47a.35.35,0,0,1-.34-.35V227a.35.35,0,0,1,.34-.35H121a.35.35,0,0,1,.35.35Zm6,54.41a.35.35,0,0,1-.34.35h-1.47a.35.35,0,0,1-.35-.35v-3.63a.35.35,0,0,1,.35-.35H127a.34.34,0,0,1,.34.35Zm0-54.41a.35.35,0,0,1-.34.35h-1.47a.35.35,0,0,1-.35-.35V227a.35.35,0,0,1,.35-.35H127a.35.35,0,0,1,.34.35Zm6,54.41a.35.35,0,0,1-.35.35H131.5a.35.35,0,0,1-.34-.35v-3.63a.34.34,0,0,1,.34-.35H133a.35.35,0,0,1,.35.35Zm0-54.41a.35.35,0,0,1-.35.35H131.5a.35.35,0,0,1-.34-.35V227a.35.35,0,0,1,.34-.35H133a.35.35,0,0,1,.35.35Zm6,54.41a.35.35,0,0,1-.34.35h-1.47a.35.35,0,0,1-.35-.35v-3.63a.35.35,0,0,1,.35-.35H139a.34.34,0,0,1,.34.35Zm0-54.41a.35.35,0,0,1-.34.35h-1.47a.35.35,0,0,1-.35-.35V227a.35.35,0,0,1,.35-.35H139a.35.35,0,0,1,.34.35Zm6,54.41a.35.35,0,0,1-.35.35h-1.47a.35.35,0,0,1-.34-.35v-3.63a.34.34,0,0,1,.34-.35h1.47a.35.35,0,0,1,.35.35Zm0-54.41a.35.35,0,0,1-.35.35h-1.47a.35.35,0,0,1-.34-.35V227a.35.35,0,0,1,.34-.35h1.47a.35.35,0,0,1,.35.35Zm6,54.41a.35.35,0,0,1-.34.35h-1.48a.35.35,0,0,1-.34-.35v-3.63a.34.34,0,0,1,.34-.35h1.48a.34.34,0,0,1,.34.35Zm0-54.41a.35.35,0,0,1-.34.35h-1.48a.35.35,0,0,1-.34-.35V227a.35.35,0,0,1,.34-.35h1.48a.35.35,0,0,1,.34.35Zm6,54.41a.35.35,0,0,1-.34.35h-1.47a.35.35,0,0,1-.35-.35v-3.63a.35.35,0,0,1,.35-.35h1.47a.34.34,0,0,1,.34.35Zm0-54.41a.35.35,0,0,1-.34.35h-1.47a.35.35,0,0,1-.35-.35V227a.35.35,0,0,1,.35-.35h1.47a.35.35,0,0,1,.34.35Zm6,54.41a.35.35,0,0,1-.35.35h-1.47a.35.35,0,0,1-.34-.35v-3.63a.34.34,0,0,1,.34-.35h1.47a.35.35,0,0,1,.35.35Zm0-54.41a.35.35,0,0,1-.35.35h-1.47a.35.35,0,0,1-.34-.35V227a.35.35,0,0,1,.34-.35h1.47a.35.35,0,0,1,.35.35Zm6,54.41a.35.35,0,0,1-.34.35h-1.47a.35.35,0,0,1-.35-.35v-3.63a.35.35,0,0,1,.35-.35h1.47a.34.34,0,0,1,.34.35Zm0-54.41a.35.35,0,0,1-.34.35h-1.47a.35.35,0,0,1-.35-.35V227a.35.35,0,0,1,.35-.35h1.47a.35.35,0,0,1,.34.35Zm6,54.41a.35.35,0,0,1-.35.35h-1.47a.35.35,0,0,1-.34-.35v-3.63a.34.34,0,0,1,.34-.35h1.47a.35.35,0,0,1,.35.35Zm0-54.41a.35.35,0,0,1-.35.35h-1.47a.35.35,0,0,1-.34-.35V227a.35.35,0,0,1,.34-.35h1.47a.35.35,0,0,1,.35.35Z" transform="translate(0.33 -224.65)"/></svg>