<svg id="Layer_1" data-name="Layer 1" xmlns="http://www.w3.org/2000/svg" xmlns:xlink="http://www.w3.org/1999/xlink" viewBox="0 0 841.89 297.64"><defs><style>.cls-1{fill:none;}.cls-2{clip-path:url(#clip-path);}.cls-3{opacity:0.56;fill:url(#linear-gradient);}.cls-100,.cls-101,.cls-102,.cls-103,.cls-104,.cls-105,.cls-106,.cls-107,.cls-108,.cls-109,.cls-110,.cls-111,.cls-112,.cls-113,.cls-114,.cls-115,.cls-116,.cls-117,.cls-118,.cls-119,.cls-120,.cls-121,.cls-122,.cls-123,.cls-124,.cls-125,.cls-126,.cls-127,.cls-128,.cls-129,.cls-130,.cls-131,.cls-132,.cls-133,.cls-134,.cls-135,.cls-136,.cls-137,.cls-138,.cls-139,.cls-14,.cls-140,.cls-141,.cls-142,.cls-143,.cls-144,.cls-145,.cls-146,.cls-147,.cls-148,.cls-149,.cls-150,.cls-151,.cls-152,.cls-153,.cls-154,.cls-155,.cls-156,.cls-16,.cls-20,.cls-23,.cls-24,.cls-25,.cls-26,.cls-27,.cls-29,.cls-3,.cls-30,.cls-31,.cls-32,.cls-33,.cls-34,.cls-35,.cls-36,.cls-37,.cls-38,.cls-39,.cls-40,.cls-41,.cls-42,.cls-43,.cls-44,.cls-45,.cls-46,.cls-47,.cls-48,.cls-49,.cls-50,.cls-51,.cls-52,.cls-53,.cls-54,.cls-55,.cls-56,.cls-57,.cls-58,.cls-59,.cls-60,.cls-61,.cls-62,.cls-63,.cls-64,.cls-65,.cls-66,.cls-67,.cls-69,.cls-70,.cls-71,.cls-72,.cls-73,.cls-74,.cls-75,.cls-76,.cls-77,.cls-78,.cls-79,.cls-8,.cls-80,.cls-81,.cls-82,.cls-83,.cls-84,.cls-85,.cls-86,.cls-87,.cls-88,.cls-89,.cls-90,.cls-91,.cls-92,.cls-93,.cls-94,.cls-95,.cls-96,.cls-97,.cls-98,.cls-99{isolation:isolate;}.cls-4{fill:#9e8592;}.cls-5{fill:url(#linear-gradient-2);}.cls-6{fill:url(#linear-gradient-3);}.cls-7{fill:url(#linear-gradient-4);}.cls-8{opacity:0.59;fill:url(#linear-gradient-5);}.cls-9{fill:#8894a9;}.cls-10{fill:#fff;}.cls-11{fill:#fdd3bb;}.cls-12{fill:#d55664;}.cls-13{fill:#807198;}.cls-100,.cls-101,.cls-102,.cls-103,.cls-104,.cls-105,.cls-106,.cls-107,.cls-108,.cls-109,.cls-110,.cls-111,.cls-112,.cls-113,.cls-114,.cls-115,.cls-116,.cls-117,.cls-118,.cls-119,.cls-120,.cls-121,.cls-122,.cls-123,.cls-124,.cls-125,.cls-126,.cls-127,.cls-128,.cls-129,.cls-130,.cls-131,.cls-132,.cls-133,.cls-134,.cls-135,.cls-136,.cls-137,.cls-138,.cls-139,.cls-14,.cls-140,.cls-141,.cls-142,.cls-143,.cls-144,.cls-145,.cls-146,.cls-147,.cls-148,.cls-149,.cls-150,.cls-151,.cls-152,.cls-16,.cls-23,.cls-24,.cls-25,.cls-26,.cls-27,.cls-29,.cls-30,.cls-31,.cls-32,.cls-33,.cls-34,.cls-35,.cls-36,.cls-37,.cls-38,.cls-39,.cls-40,.cls-41,.cls-42,.cls-43,.cls-44,.cls-45,.cls-46,.cls-47,.cls-48,.cls-49,.cls-50,.cls-51,.cls-52,.cls-53,.cls-54,.cls-55,.cls-56,.cls-57,.cls-58,.cls-59,.cls-60,.cls-61,.cls-62,.cls-63,.cls-64,.cls-65,.cls-66,.cls-67,.cls-69,.cls-70,.cls-71,.cls-72,.cls-73,.cls-74,.cls-75,.cls-76,.cls-77,.cls-78,.cls-79,.cls-80,.cls-81,.cls-82,.cls-83,.cls-84,.cls-85,.cls-86,.cls-87,.cls-88,.cls-89,.cls-90,.cls-91,.cls-92,.cls-93,.cls-94,.cls-95,.cls-96,.cls-97,.cls-98,.cls-99{opacity:0.31;}.cls-14{fill:url(#linear-gradient-6);}.cls-15{fill:#9195ad;}.cls-16{fill:url(#linear-gradient-7);}.cls-17{fill:#806157;}.cls-18{fill:#9ebc52;}.cls-19{fill:#b3cf59;}.cls-153,.cls-154,.cls-155,.cls-156,.cls-20{opacity:0.11;}.cls-20{fill:url(#linear-gradient-8);}.cls-21{fill:#d7646a;}.cls-22{fill:#efd8ce;}.cls-23{fill:url(#linear-gradient-9);}.cls-24{fill:url(#linear-gradient-10);}.cls-25{fill:url(#linear-gradient-11);}.cls-26{fill:url(#linear-gradient-12);}.cls-27{fill:url(#linear-gradient-13);}.cls-28{fill:#8da5c6;}.cls-29{fill:url(#linear-gradient-14);}.cls-30{fill:url(#linear-gradient-15);}.cls-31{fill:url(#linear-gradient-16);}.cls-32{fill:url(#linear-gradient-17);}.cls-33{fill:url(#linear-gradient-18);}.cls-34{fill:url(#linear-gradient-19);}.cls-35{fill:url(#linear-gradient-20);}.cls-36{fill:url(#linear-gradient-21);}.cls-37{fill:url(#linear-gradient-22);}.cls-38{fill:url(#linear-gradient-23);}.cls-39{fill:url(#linear-gradient-24);}.cls-40{fill:url(#linear-gradient-25);}.cls-41{fill:url(#linear-gradient-26);}.cls-42{fill:url(#linear-gradient-27);}.cls-43{fill:url(#linear-gradient-28);}.cls-44{fill:url(#linear-gradient-29);}.cls-45{fill:url(#linear-gradient-30);}.cls-46{fill:url(#linear-gradient-31);}.cls-47{fill:url(#linear-gradient-32);}.cls-48{fill:url(#linear-gradient-33);}.cls-49{fill:url(#linear-gradient-34);}.cls-50{fill:url(#linear-gradient-37);}.cls-51{fill:url(#linear-gradient-40);}.cls-52{fill:url(#linear-gradient-43);}.cls-53{fill:url(#linear-gradient-46);}.cls-54{fill:url(#linear-gradient-49);}.cls-55{fill:url(#linear-gradient-52);}.cls-56{fill:url(#linear-gradient-55);}.cls-57{fill:url(#linear-gradient-58);}.cls-58{fill:url(#linear-gradient-61);}.cls-59{fill:url(#linear-gradient-64);}.cls-60{fill:url(#linear-gradient-67);}.cls-61{fill:url(#linear-gradient-70);}.cls-62{fill:url(#linear-gradient-73);}.cls-63{fill:url(#linear-gradient-76);}.cls-64{fill:url(#linear-gradient-79);}.cls-65{fill:url(#linear-gradient-82);}.cls-66{fill:url(#linear-gradient-85);}.cls-67{fill:url(#linear-gradient-88);}.cls-68{fill:#fecd91;}.cls-69{fill:url(#linear-gradient-91);}.cls-70{fill:url(#linear-gradient-92);}.cls-71{fill:url(#linear-gradient-93);}.cls-72{fill:url(#linear-gradient-94);}.cls-73{fill:url(#linear-gradient-95);}.cls-74{fill:url(#linear-gradient-96);}.cls-75{fill:url(#linear-gradient-97);}.cls-76{fill:url(#linear-gradient-98);}.cls-77{fill:url(#linear-gradient-100);}.cls-78{fill:url(#linear-gradient-101);}.cls-79{fill:url(#linear-gradient-102);}.cls-80{fill:url(#linear-gradient-103);}.cls-81{fill:url(#linear-gradient-104);}.cls-82{fill:url(#linear-gradient-105);}.cls-83{fill:url(#linear-gradient-107);}.cls-84{fill:url(#linear-gradient-108);}.cls-85{fill:url(#linear-gradient-109);}.cls-86{fill:url(#linear-gradient-110);}.cls-87{fill:url(#linear-gradient-111);}.cls-88{fill:url(#linear-gradient-112);}.cls-89{fill:url(#linear-gradient-114);}.cls-90{fill:url(#linear-gradient-115);}.cls-91{fill:url(#linear-gradient-116);}.cls-92{fill:url(#linear-gradient-117);}.cls-93{fill:url(#linear-gradient-118);}.cls-94{fill:url(#linear-gradient-119);}.cls-95{fill:url(#linear-gradient-120);}.cls-96{fill:url(#linear-gradient-121);}.cls-97{fill:url(#linear-gradient-122);}.cls-98{fill:url(#linear-gradient-123);}.cls-99{fill:url(#linear-gradient-124);}.cls-100{fill:url(#linear-gradient-125);}.cls-101{fill:url(#linear-gradient-126);}.cls-102{fill:url(#linear-gradient-127);}.cls-103{fill:url(#linear-gradient-128);}.cls-104{fill:url(#linear-gradient-129);}.cls-105{fill:url(#linear-gradient-130);}.cls-106{fill:url(#linear-gradient-131);}.cls-107{fill:url(#linear-gradient-132);}.cls-108{fill:url(#linear-gradient-133);}.cls-109{fill:url(#linear-gradient-134);}.cls-110{fill:url(#linear-gradient-135);}.cls-111{fill:url(#linear-gradient-136);}.cls-112{fill:url(#linear-gradient-137);}.cls-113{fill:url(#linear-gradient-138);}.cls-114{fill:url(#linear-gradient-139);}.cls-115{fill:url(#linear-gradient-142);}.cls-116{fill:url(#linear-gradient-145);}.cls-117{fill:url(#linear-gradient-148);}.cls-118{fill:url(#linear-gradient-151);}.cls-119{fill:url(#linear-gradient-154);}.cls-120{fill:url(#linear-gradient-157);}.cls-121{fill:url(#linear-gradient-160);}.cls-122{fill:url(#linear-gradient-163);}.cls-123{fill:url(#linear-gradient-166);}.cls-124{fill:url(#linear-gradient-169);}.cls-125{fill:url(#linear-gradient-172);}.cls-126{fill:url(#linear-gradient-175);}.cls-127{fill:url(#linear-gradient-178);}.cls-128{fill:url(#linear-gradient-181);}.cls-129{fill:url(#linear-gradient-184);}.cls-130{fill:url(#linear-gradient-187);}.cls-131{fill:url(#linear-gradient-190);}.cls-132{fill:url(#linear-gradient-193);}.cls-133{fill:url(#linear-gradient-196);}.cls-134{fill:url(#linear-gradient-197);}.cls-135{fill:url(#linear-gradient-198);}.cls-136{fill:url(#linear-gradient-199);}.cls-137{fill:url(#linear-gradient-200);}.cls-138{fill:url(#linear-gradient-201);}.cls-139{fill:url(#linear-gradient-202);}.cls-140{fill:url(#linear-gradient-203);}.cls-141{fill:url(#linear-gradient-205);}.cls-142{fill:url(#linear-gradient-206);}.cls-143{fill:url(#linear-gradient-207);}.cls-144{fill:url(#linear-gradient-208);}.cls-145{fill:url(#linear-gradient-209);}.cls-146{fill:url(#linear-gradient-210);}.cls-147{fill:url(#linear-gradient-212);}.cls-148{fill:url(#linear-gradient-213);}.cls-149{fill:url(#linear-gradient-214);}.cls-150{fill:url(#linear-gradient-215);}.cls-151{fill:url(#linear-gradient-216);}.cls-152{fill:url(#linear-gradient-217);}.cls-153{fill:url(#linear-gradient-219);}.cls-154{fill:url(#linear-gradient-220);}.cls-155{fill:url(#linear-gradient-221);}.cls-156{fill:url(#linear-gradient-222);}</style><clipPath id="clip-path"><rect class="cls-1" x="0.2" y="-43.24" width="841.74" height="473.94"/></clipPath><linearGradient id="linear-gradient" x1="243.05" y1="60.25" x2="541.05" y2="60.25" gradientTransform="matrix(1, 0, 0, -1, 0, 298.72)" gradientUnits="userSpaceOnUse"><stop offset="0" stop-color="#f4899e"/><stop offset="0.24" stop-color="#ef8ca2"/><stop offset="0.51" stop-color="#e295ad"/><stop offset="0.61" stop-color="#db99b3"/><stop offset="0.93" stop-color="#f6d0be"/><stop offset="1" stop-color="#feddc0"/></linearGradient><linearGradient id="linear-gradient-2" x1="763.07" y1="-40.89" x2="699.18" y2="69.78" gradientTransform="matrix(1, 0, 0, -1, 0, 298.72)" gradientUnits="userSpaceOnUse"><stop offset="0" stop-color="#f4899e"/><stop offset="0.16" stop-color="#f48d9f"/><stop offset="0.36" stop-color="#f69ba5"/><stop offset="0.57" stop-color="#f8b3ae"/><stop offset="0.61" stop-color="#f9bab2"/><stop offset="1" stop-color="#feddc0"/></linearGradient><linearGradient id="linear-gradient-3" x1="404.68" y1="-41.41" x2="340.78" y2="69.25" xlink:href="#linear-gradient-2"/><linearGradient id="linear-gradient-4" x1="162.34" y1="-41.78" x2="98.44" y2="68.9" xlink:href="#linear-gradient-2"/><linearGradient id="linear-gradient-5" x1="529.07" y1="50.03" x2="607.69" y2="50.03" gradientTransform="matrix(1, 0, 0, -1, 0, 298.72)" gradientUnits="userSpaceOnUse"><stop offset="0" stop-color="#747e9d"/><stop offset="0.59" stop-color="#9282aa"/><stop offset="1" stop-color="#aa84b4"/></linearGradient><linearGradient id="linear-gradient-6" x1="414.71" y1="42.75" x2="473.78" y2="42.75" xlink:href="#linear-gradient-5"/><linearGradient id="linear-gradient-7" x1="305.09" y1="10.49" x2="356.63" y2="10.49" xlink:href="#linear-gradient-5"/><linearGradient id="linear-gradient-8" x1="590.79" y1="23.15" x2="606.42" y2="23.15" xlink:href="#linear-gradient-5"/><linearGradient id="linear-gradient-9" x1="237.59" y1="13.29" x2="291.72" y2="13.29" xlink:href="#linear-gradient-5"/><linearGradient id="linear-gradient-10" x1="237.59" y1="62.95" x2="291.72" y2="62.95" xlink:href="#linear-gradient-5"/><linearGradient id="linear-gradient-11" x1="237.59" y1="34.81" x2="291.72" y2="34.81" xlink:href="#linear-gradient-5"/><linearGradient id="linear-gradient-12" x1="237.59" y1="57.2" x2="291.72" y2="57.2" xlink:href="#linear-gradient-5"/><linearGradient id="linear-gradient-13" x1="237.59" y1="87.99" x2="291.72" y2="87.99" xlink:href="#linear-gradient-5"/><linearGradient id="linear-gradient-14" x1="237.59" y1="99.58" x2="291.72" y2="99.58" xlink:href="#linear-gradient-5"/><linearGradient id="linear-gradient-15" x1="237.59" y1="101.23" x2="291.72" y2="101.23" xlink:href="#linear-gradient-5"/><linearGradient id="linear-gradient-16" x1="237.59" y1="122.75" x2="291.72" y2="122.75" xlink:href="#linear-gradient-5"/><linearGradient id="linear-gradient-17" x1="237.59" y1="121.1" x2="291.72" y2="121.1" xlink:href="#linear-gradient-5"/><linearGradient id="linear-gradient-18" x1="237.59" y1="119.44" x2="291.72" y2="119.44" xlink:href="#linear-gradient-5"/><linearGradient id="linear-gradient-19" x1="237.59" y1="102.89" x2="291.72" y2="102.89" xlink:href="#linear-gradient-5"/><linearGradient id="linear-gradient-20" x1="237.59" y1="117.79" x2="291.72" y2="117.79" xlink:href="#linear-gradient-5"/><linearGradient id="linear-gradient-21" x1="237.59" y1="114.47" x2="291.72" y2="114.47" xlink:href="#linear-gradient-5"/><linearGradient id="linear-gradient-22" x1="237.59" y1="111.16" x2="291.72" y2="111.16" xlink:href="#linear-gradient-5"/><linearGradient id="linear-gradient-23" x1="237.59" y1="112.82" x2="291.72" y2="112.82" xlink:href="#linear-gradient-5"/><linearGradient id="linear-gradient-24" x1="237.59" y1="106.2" x2="291.72" y2="106.2" xlink:href="#linear-gradient-5"/><linearGradient id="linear-gradient-25" x1="237.59" y1="116.13" x2="291.72" y2="116.13" xlink:href="#linear-gradient-5"/><linearGradient id="linear-gradient-26" x1="237.59" y1="109.51" x2="291.72" y2="109.51" xlink:href="#linear-gradient-5"/><linearGradient id="linear-gradient-27" x1="237.59" y1="104.54" x2="291.72" y2="104.54" xlink:href="#linear-gradient-5"/><linearGradient id="linear-gradient-28" x1="237.59" y1="127.72" x2="291.72" y2="127.72" xlink:href="#linear-gradient-5"/><linearGradient id="linear-gradient-29" x1="237.59" y1="107.85" x2="291.72" y2="107.85" xlink:href="#linear-gradient-5"/><linearGradient id="linear-gradient-30" x1="237.59" y1="97.3" x2="291.72" y2="97.3" xlink:href="#linear-gradient-5"/><linearGradient id="linear-gradient-31" x1="237.59" y1="126.06" x2="291.72" y2="126.06" xlink:href="#linear-gradient-5"/><linearGradient id="linear-gradient-32" x1="237.59" y1="129.17" x2="291.72" y2="129.17" xlink:href="#linear-gradient-5"/><linearGradient id="linear-gradient-33" x1="237.59" y1="124.41" x2="291.72" y2="124.41" xlink:href="#linear-gradient-5"/><linearGradient id="linear-gradient-34" x1="237.59" y1="128.55" x2="291.72" y2="128.55" xlink:href="#linear-gradient-5"/><linearGradient id="linear-gradient-37" x1="237.59" y1="126.89" x2="291.72" y2="126.89" xlink:href="#linear-gradient-5"/><linearGradient id="linear-gradient-40" x1="237.59" y1="125.23" x2="291.72" y2="125.23" xlink:href="#linear-gradient-5"/><linearGradient id="linear-gradient-43" x1="237.59" y1="123.58" x2="291.72" y2="123.58" xlink:href="#linear-gradient-5"/><linearGradient id="linear-gradient-46" x1="237.59" y1="121.92" x2="291.72" y2="121.92" xlink:href="#linear-gradient-5"/><linearGradient id="linear-gradient-49" x1="237.59" y1="120.27" x2="291.72" y2="120.27" xlink:href="#linear-gradient-5"/><linearGradient id="linear-gradient-52" x1="237.59" y1="118.61" x2="291.72" y2="118.61" xlink:href="#linear-gradient-5"/><linearGradient id="linear-gradient-55" x1="237.59" y1="116.96" x2="291.72" y2="116.96" xlink:href="#linear-gradient-5"/><linearGradient id="linear-gradient-58" x1="237.59" y1="115.3" x2="291.72" y2="115.3" xlink:href="#linear-gradient-5"/><linearGradient id="linear-gradient-61" x1="237.59" y1="113.65" x2="291.72" y2="113.65" xlink:href="#linear-gradient-5"/><linearGradient id="linear-gradient-64" x1="237.59" y1="111.99" x2="291.72" y2="111.99" xlink:href="#linear-gradient-5"/><linearGradient id="linear-gradient-67" x1="237.59" y1="110.34" x2="291.72" y2="110.34" xlink:href="#linear-gradient-5"/><linearGradient id="linear-gradient-70" x1="237.59" y1="108.68" x2="291.72" y2="108.68" xlink:href="#linear-gradient-5"/><linearGradient id="linear-gradient-73" x1="237.59" y1="107.03" x2="291.72" y2="107.03" xlink:href="#linear-gradient-5"/><linearGradient id="linear-gradient-76" x1="237.59" y1="105.37" x2="291.72" y2="105.37" xlink:href="#linear-gradient-5"/><linearGradient id="linear-gradient-79" x1="237.59" y1="103.71" x2="291.72" y2="103.71" xlink:href="#linear-gradient-5"/><linearGradient id="linear-gradient-82" x1="237.59" y1="102.06" x2="291.72" y2="102.06" xlink:href="#linear-gradient-5"/><linearGradient id="linear-gradient-85" x1="237.59" y1="100.4" x2="291.72" y2="100.4" xlink:href="#linear-gradient-5"/><linearGradient id="linear-gradient-88" x1="237.59" y1="98.75" x2="291.72" y2="98.75" xlink:href="#linear-gradient-5"/><linearGradient id="linear-gradient-91" x1="237.59" y1="95.23" x2="291.72" y2="95.23" xlink:href="#linear-gradient-5"/><linearGradient id="linear-gradient-92" x1="237.59" y1="94.22" x2="291.72" y2="94.22" xlink:href="#linear-gradient-5"/><linearGradient id="linear-gradient-93" x1="237.59" y1="95.64" x2="291.72" y2="95.64" xlink:href="#linear-gradient-5"/><linearGradient id="linear-gradient-94" x1="237.59" y1="78.26" x2="291.72" y2="78.26" xlink:href="#linear-gradient-5"/><linearGradient id="linear-gradient-95" x1="237.59" y1="69.16" x2="291.72" y2="69.16" xlink:href="#linear-gradient-5"/><linearGradient id="linear-gradient-96" x1="237.59" y1="77.43" x2="291.72" y2="77.43" xlink:href="#linear-gradient-5"/><linearGradient id="linear-gradient-97" x1="237.59" y1="70.19" x2="291.72" y2="70.19" xlink:href="#linear-gradient-5"/><linearGradient id="linear-gradient-98" x1="237.59" y1="73.71" x2="291.72" y2="73.71" xlink:href="#linear-gradient-5"/><linearGradient id="linear-gradient-100" x1="237.59" y1="50.53" x2="291.72" y2="50.53" xlink:href="#linear-gradient-5"/><linearGradient id="linear-gradient-101" x1="237.59" y1="41.43" x2="291.72" y2="41.43" xlink:href="#linear-gradient-5"/><linearGradient id="linear-gradient-102" x1="237.59" y1="37.95" x2="291.72" y2="37.95" xlink:href="#linear-gradient-5"/><linearGradient id="linear-gradient-103" x1="237.59" y1="49.7" x2="291.72" y2="49.7" xlink:href="#linear-gradient-5"/><linearGradient id="linear-gradient-104" x1="237.59" y1="42.46" x2="291.72" y2="42.46" xlink:href="#linear-gradient-5"/><linearGradient id="linear-gradient-105" x1="237.59" y1="45.98" x2="291.72" y2="45.98" xlink:href="#linear-gradient-5"/><linearGradient id="linear-gradient-107" x1="237.59" y1="19.29" x2="291.72" y2="19.29" xlink:href="#linear-gradient-5"/><linearGradient id="linear-gradient-108" x1="237.59" y1="28.19" x2="291.72" y2="28.19" xlink:href="#linear-gradient-5"/><linearGradient id="linear-gradient-109" x1="237.59" y1="15.77" x2="291.72" y2="15.77" xlink:href="#linear-gradient-5"/><linearGradient id="linear-gradient-110" x1="237.59" y1="27.36" x2="291.72" y2="27.36" xlink:href="#linear-gradient-5"/><linearGradient id="linear-gradient-111" x1="237.59" y1="20.12" x2="291.72" y2="20.12" xlink:href="#linear-gradient-5"/><linearGradient id="linear-gradient-112" x1="237.59" y1="23.64" x2="291.72" y2="23.64" xlink:href="#linear-gradient-5"/><linearGradient id="linear-gradient-114" x1="790.59" y1="12.84" x2="835.57" y2="12.84" xlink:href="#linear-gradient-5"/><linearGradient id="linear-gradient-115" x1="790.59" y1="54.11" x2="835.57" y2="54.11" xlink:href="#linear-gradient-5"/><linearGradient id="linear-gradient-116" x1="790.59" y1="30.71" x2="835.57" y2="30.71" xlink:href="#linear-gradient-5"/><linearGradient id="linear-gradient-117" x1="790.59" y1="49.32" x2="835.57" y2="49.32" xlink:href="#linear-gradient-5"/><linearGradient id="linear-gradient-118" x1="790.59" y1="74.91" x2="835.57" y2="74.91" xlink:href="#linear-gradient-5"/><linearGradient id="linear-gradient-119" x1="790.59" y1="84.54" x2="835.57" y2="84.54" xlink:href="#linear-gradient-5"/><linearGradient id="linear-gradient-120" x1="790.59" y1="85.92" x2="835.57" y2="85.92" xlink:href="#linear-gradient-5"/><linearGradient id="linear-gradient-121" x1="790.59" y1="103.8" x2="835.57" y2="103.8" xlink:href="#linear-gradient-5"/><linearGradient id="linear-gradient-122" x1="790.59" y1="102.43" x2="835.57" y2="102.43" xlink:href="#linear-gradient-5"/><linearGradient id="linear-gradient-123" x1="790.59" y1="101.05" x2="835.57" y2="101.05" xlink:href="#linear-gradient-5"/><linearGradient id="linear-gradient-124" x1="790.59" y1="87.29" x2="835.57" y2="87.29" xlink:href="#linear-gradient-5"/><linearGradient id="linear-gradient-125" x1="790.59" y1="99.67" x2="835.57" y2="99.67" xlink:href="#linear-gradient-5"/><linearGradient id="linear-gradient-126" x1="790.59" y1="96.92" x2="835.57" y2="96.92" xlink:href="#linear-gradient-5"/><linearGradient id="linear-gradient-127" x1="790.59" y1="94.17" x2="835.57" y2="94.17" xlink:href="#linear-gradient-5"/><linearGradient id="linear-gradient-128" x1="790.59" y1="95.55" x2="835.57" y2="95.55" xlink:href="#linear-gradient-5"/><linearGradient id="linear-gradient-129" x1="790.59" y1="90.04" x2="835.57" y2="90.04" xlink:href="#linear-gradient-5"/><linearGradient id="linear-gradient-130" x1="790.59" y1="98.3" x2="835.57" y2="98.3" xlink:href="#linear-gradient-5"/><linearGradient id="linear-gradient-131" x1="790.59" y1="92.8" x2="835.57" y2="92.8" xlink:href="#linear-gradient-5"/><linearGradient id="linear-gradient-132" x1="790.59" y1="88.67" x2="835.57" y2="88.67" xlink:href="#linear-gradient-5"/><linearGradient id="linear-gradient-133" x1="790.59" y1="107.93" x2="835.57" y2="107.93" xlink:href="#linear-gradient-5"/><linearGradient id="linear-gradient-134" x1="790.59" y1="91.42" x2="835.57" y2="91.42" xlink:href="#linear-gradient-5"/><linearGradient id="linear-gradient-135" x1="790.59" y1="82.65" x2="835.57" y2="82.65" xlink:href="#linear-gradient-5"/><linearGradient id="linear-gradient-136" x1="790.59" y1="106.55" x2="835.57" y2="106.55" xlink:href="#linear-gradient-5"/><linearGradient id="linear-gradient-137" x1="790.59" y1="109.13" x2="835.57" y2="109.13" xlink:href="#linear-gradient-5"/><linearGradient id="linear-gradient-138" x1="790.59" y1="105.18" x2="835.57" y2="105.18" xlink:href="#linear-gradient-5"/><linearGradient id="linear-gradient-139" x1="790.59" y1="108.62" x2="835.57" y2="108.62" xlink:href="#linear-gradient-5"/><linearGradient id="linear-gradient-142" x1="790.59" y1="107.24" x2="835.57" y2="107.24" xlink:href="#linear-gradient-5"/><linearGradient id="linear-gradient-145" x1="790.59" y1="105.86" x2="835.57" y2="105.86" xlink:href="#linear-gradient-5"/><linearGradient id="linear-gradient-148" x1="790.59" y1="104.49" x2="835.57" y2="104.49" xlink:href="#linear-gradient-5"/><linearGradient id="linear-gradient-151" x1="790.59" y1="103.11" x2="835.57" y2="103.11" xlink:href="#linear-gradient-5"/><linearGradient id="linear-gradient-154" x1="790.59" y1="101.74" x2="835.57" y2="101.74" xlink:href="#linear-gradient-5"/><linearGradient id="linear-gradient-157" x1="790.59" y1="100.36" x2="835.57" y2="100.36" xlink:href="#linear-gradient-5"/><linearGradient id="linear-gradient-160" x1="790.59" y1="98.99" x2="835.57" y2="98.99" xlink:href="#linear-gradient-5"/><linearGradient id="linear-gradient-163" x1="790.59" y1="97.61" x2="835.57" y2="97.61" xlink:href="#linear-gradient-5"/><linearGradient id="linear-gradient-166" x1="790.59" y1="96.23" x2="835.57" y2="96.23" xlink:href="#linear-gradient-5"/><linearGradient id="linear-gradient-169" x1="790.59" y1="94.86" x2="835.57" y2="94.86" xlink:href="#linear-gradient-5"/><linearGradient id="linear-gradient-172" x1="790.59" y1="93.48" x2="835.57" y2="93.48" xlink:href="#linear-gradient-5"/><linearGradient id="linear-gradient-175" x1="790.59" y1="92.11" x2="835.57" y2="92.11" xlink:href="#linear-gradient-5"/><linearGradient id="linear-gradient-178" x1="790.59" y1="90.73" x2="835.57" y2="90.73" xlink:href="#linear-gradient-5"/><linearGradient id="linear-gradient-181" x1="790.59" y1="89.36" x2="835.57" y2="89.36" xlink:href="#linear-gradient-5"/><linearGradient id="linear-gradient-184" x1="790.59" y1="87.98" x2="835.57" y2="87.98" xlink:href="#linear-gradient-5"/><linearGradient id="linear-gradient-187" x1="790.59" y1="86.61" x2="835.57" y2="86.61" xlink:href="#linear-gradient-5"/><linearGradient id="linear-gradient-190" x1="790.59" y1="85.23" x2="835.57" y2="85.23" xlink:href="#linear-gradient-5"/><linearGradient id="linear-gradient-193" x1="790.59" y1="83.85" x2="835.57" y2="83.85" xlink:href="#linear-gradient-5"/><linearGradient id="linear-gradient-196" x1="790.59" y1="80.93" x2="835.57" y2="80.93" xlink:href="#linear-gradient-5"/><linearGradient id="linear-gradient-197" x1="790.59" y1="80.1" x2="835.57" y2="80.1" xlink:href="#linear-gradient-5"/><linearGradient id="linear-gradient-198" x1="790.59" y1="81.28" x2="835.57" y2="81.28" xlink:href="#linear-gradient-5"/><linearGradient id="linear-gradient-199" x1="790.59" y1="66.83" x2="835.57" y2="66.83" xlink:href="#linear-gradient-5"/><linearGradient id="linear-gradient-200" x1="790.59" y1="59.26" x2="835.57" y2="59.26" xlink:href="#linear-gradient-5"/><linearGradient id="linear-gradient-201" x1="790.59" y1="66.14" x2="835.57" y2="66.14" xlink:href="#linear-gradient-5"/><linearGradient id="linear-gradient-202" x1="790.59" y1="60.12" x2="835.57" y2="60.12" xlink:href="#linear-gradient-5"/><linearGradient id="linear-gradient-203" x1="790.59" y1="63.04" x2="835.57" y2="63.04" xlink:href="#linear-gradient-5"/><linearGradient id="linear-gradient-205" x1="790.59" y1="43.79" x2="835.57" y2="43.79" xlink:href="#linear-gradient-5"/><linearGradient id="linear-gradient-206" x1="790.59" y1="36.22" x2="835.57" y2="36.22" xlink:href="#linear-gradient-5"/><linearGradient id="linear-gradient-207" x1="790.59" y1="33.32" x2="835.57" y2="33.32" xlink:href="#linear-gradient-5"/><linearGradient id="linear-gradient-208" x1="790.59" y1="43.1" x2="835.57" y2="43.1" xlink:href="#linear-gradient-5"/><linearGradient id="linear-gradient-209" x1="790.59" y1="37.08" x2="835.57" y2="37.08" xlink:href="#linear-gradient-5"/><linearGradient id="linear-gradient-210" x1="790.59" y1="40" x2="835.57" y2="40" xlink:href="#linear-gradient-5"/><linearGradient id="linear-gradient-212" x1="790.59" y1="17.82" x2="835.57" y2="17.82" xlink:href="#linear-gradient-5"/><linearGradient id="linear-gradient-213" x1="790.59" y1="25.21" x2="835.57" y2="25.21" xlink:href="#linear-gradient-5"/><linearGradient id="linear-gradient-214" x1="790.59" y1="14.9" x2="835.57" y2="14.9" xlink:href="#linear-gradient-5"/><linearGradient id="linear-gradient-215" x1="790.59" y1="24.53" x2="835.57" y2="24.53" xlink:href="#linear-gradient-5"/><linearGradient id="linear-gradient-216" x1="790.59" y1="18.51" x2="835.57" y2="18.51" xlink:href="#linear-gradient-5"/><linearGradient id="linear-gradient-217" x1="790.59" y1="21.43" x2="835.57" y2="21.43" xlink:href="#linear-gradient-5"/><linearGradient id="linear-gradient-219" x1="355.39" y1="22.01" x2="369.6" y2="22.01" xlink:href="#linear-gradient-5"/><linearGradient id="linear-gradient-220" x1="712.94" y1="22.01" x2="727.15" y2="22.01" xlink:href="#linear-gradient-5"/><linearGradient id="linear-gradient-221" x1="164.78" y1="22.01" x2="178.99" y2="22.01" xlink:href="#linear-gradient-5"/><linearGradient id="linear-gradient-222" x1="255.91" y1="28.8" x2="278.44" y2="28.8" gradientTransform="translate(326.81 298.72) rotate(180)" xlink:href="#linear-gradient-5"/></defs><title>plan</title><g class="cls-2"><path class="cls-3" d="M541,289.72c0-30.12-22.06-54.53-49.24-54.53a45.53,45.53,0,0,0-26.2,8.37,18,18,0,0,0-7.5-1.84c-2.61-18.43-17-32.53-34.36-32.53a31.88,31.88,0,0,0-14,3.28c-4.69-15.14-17.64-26-32.9-26-16.65,0-30.55,13-34,30.27a31.26,31.26,0,0,0-14-3.34,32.58,32.58,0,0,0-24.45,11.44,12.7,12.7,0,0,0-8.29-3.12c-7.53,0-13.62,6.76-13.62,15.1v.54c-22.17,2.8-39.38,23.64-39.38,48.95,0,1.33,0,2.67.15,4l-.15.16h298v-.75Z"/><path class="cls-4" d="M492.62,287.91l-25.16-20s-33,13-47.56,0a64.24,64.24,0,0,1-24.77,10.52c-14.15,2.47-42.08-24.59-42.08-24.59s-13,9-18.08,6.51c0,0-.39,14.53-12.58,18s-31.06-7.52-31.06-7.52-12.58-7.51-14.15-17c0,0-13.32,18.33-32.61,6.31l-1.52,28.77Z"/><path class="cls-4" d="M314.72,287.82l-25.15-20s-33,13-47.57,0a64,64,0,0,1-24.77,10.52c-14.18,2.47-42.06-24.62-42.06-24.62s-13,9-18.08,6.51c0,0-.39,14.53-12.58,18s-31.06-7.51-31.06-7.51-12.57-7.52-14.15-17c0,0-13.32,18.33-32.61,6.31l-1.57,28.79Z"/><path class="cls-5" d="M601.45,288l25.16-17.13s33,11.13,47.56,0a69.67,69.67,0,0,0,24.77,9c14.15,2.14,42.06-21,42.06-21s13,7.7,18.08,5.56c0,0,.4,12.42,12.58,15.41s31.06-6.42,31.06-6.42,12.58-6.42,14.15-14.55c0,0,9.38,5.56,28.67-4.71l5.51,34.69Z"/><path class="cls-4" d="M827,287.82l-25.16-20s-33,13-47.56,0a64.09,64.09,0,0,1-24.77,10.52c-14.15,2.47-42.06-24.62-42.06-24.62s-13,9-18.08,6.51c0,0-.4,14.53-12.58,18s-31.06-7.51-31.06-7.51-12.58-7.52-14.15-17c0,0-13.32,18.33-32.61,6.31l-1.57,28.79Z"/><path class="cls-6" d="M243.05,288.5l25.16-17.13s33,11.13,47.56,0a69.67,69.67,0,0,0,24.77,9c14.15,2.14,42.06-21,42.06-21s13,7.71,18.09,5.57c0,0,.39,12.41,12.57,15.41s31.06-6.42,31.06-6.42,12.58-6.42,14.15-14.56c0,0,9.38,5.57,28.67-4.71l5.51,34.68Z"/><path class="cls-7" d="M.71,288.85l25.16-17.13s33,11.13,47.56,0a69.67,69.67,0,0,0,24.77,9c14.15,2.14,42.06-21,42.06-21s13,7.71,18.08,5.57c0,0,.4,12.42,12.58,15.41S202,274.28,202,274.28s12.58-6.42,14.15-14.56c0,0,9.38,5.57,28.67-4.7l5.51,34.7Z"/><polygon class="cls-8" points="529.07 208.92 544.72 288.46 607.69 288 534.68 211.15 529.07 208.92"/><polygon class="cls-9" points="425.81 288.91 524.23 193.72 559.16 193.72 649.88 288.91 425.81 288.91"/><polygon class="cls-10" points="527.5 190.43 503.23 214.03 517.13 210.68 528.59 216.69 542.24 210.68 557.52 216.69 566.25 211.22 579.35 214.51 559.16 190.43 527.5 190.43"/><path class="cls-11" d="M-29.16,297.72H879.61s1.82-9.63-34.57-9.63H3.59S-29.16,289.41-29.16,297.72Z"/><path class="cls-12" d="M369.73,224.64a324.06,324.06,0,0,0,51.21,4.08,332.76,332.76,0,0,0,51.6-4.12L469,235.73H373.4Z"/><polygon class="cls-12" points="388.85 288.12 390.96 235.77 397.47 235.77 396.42 287.71 388.85 288.12"/><polygon class="cls-12" points="451.34 288.12 449.24 235.77 442.73 235.77 443.78 287.71 451.34 288.12"/><rect class="cls-12" x="416.2" y="235.77" width="6.58" height="7.01"/><rect class="cls-12" x="374.49" y="241.95" width="93.68" height="4.95"/><path class="cls-13" d="M368.91,224.64l1.23,4.12s24.27,2.48,49.76,2.48a503.41,503.41,0,0,0,52.64-3.3l1.23-4.12s-36.6,3.71-54.28,3.71C401.4,227.53,368.91,224.64,368.91,224.64Z"/><polygon class="cls-13" points="389.06 278.64 396.87 278.64 397.47 288.12 388.33 288.12 389.06 278.64"/><polygon class="cls-13" points="443.34 278.64 451.16 278.64 451.75 288.12 442.62 288.12 443.34 278.64"/><path class="cls-14" d="M414.73,227.54c-.46,0,8,19.36,8,19.36l19.85.22.93,31.68-.93,9.32h9.29L451,278.8l-1.31-31.9h18.51V242H449.52l-.39-6.06h20l2.32-7.86.94-.06,1.39-4.19S448.67,226.61,414.73,227.54ZM442.63,242h-20v-6.06h20Z"/><polygon class="cls-15" points="340.9 220.35 340.86 220.33 340.86 220.35 340.9 220.35"/><polygon class="cls-16" points="315.35 288.35 340.9 288.12 315.33 288.12 315.35 288.35"/><path class="cls-17" d="M592.16,274.25c-.87-.87,1.72-11.27,1.72-11.27l.76.23c.06-.67.11-1.1.11-1.1a38.53,38.53,0,0,0,10.81-5.2l-.87-1.3c-1.73,1.74-11.67,5.2-11.67,5.2s.43,7.8-3.89,10.4-9.51-3.46-9.51-3.46l-1.3,2.16a75,75,0,0,1,9.51,6.5c3.46,3-.13,11.7-.13,11.7l3.38.05C592.17,285.32,593,275.05,592.16,274.25Z"/><path class="cls-17" d="M596.48,275.55c2.06,0,6.22-3.11,8.68-5.1l.92-2.61-.09-.09c-2.6,3-11.18,5.38-11.67,3.9-.34-1,.1-6.15.32-8.44l-.76-.23s-2.59,10.4-1.72,11.27,0,11.07-1.08,13.91l6.48.08C594.33,285.33,596.48,275.55,596.48,275.55Z"/><path class="cls-18" d="M603.71,262a11.45,11.45,0,0,0,3.39-.92h4.54l-3.49-4.7c0-2.09-3.13-2.09-3.13-2.09a2.86,2.86,0,0,0-2.6-2.61c-2.61-.52-3.13,1.57-3.13,1.57s.52-4.18-4.16-4.18-3.13,5.22-3.13,5.22-.52-1.56-3.13-1-1,3.66-1,3.66c-4.43,0-3.28,3.73-3.14,4.14a1.88,1.88,0,0,0,1.14,1.87c1.78,1.07,4.65-.9,5.86-1.84h1.64a12.88,12.88,0,0,0,4.42.92,3.84,3.84,0,0,0,2.9-.92h1.23Z"/><path class="cls-19" d="M610.87,259.5a1.29,1.29,0,0,0,0-1.82,1.36,1.36,0,0,0-.36-.27c-.9-.52-2,.53-2,.53s1.15-3.66-2.32-4.18a3.36,3.36,0,0,0-4,2.52.29.29,0,0,0,0,.09,1.32,1.32,0,0,0-1.74-.52,1.09,1.09,0,0,0-.67,1.38,1.51,1.51,0,0,0,.09.18,2.14,2.14,0,0,0-1.74-1c-2.89-.52-2.89,3.13-2.89,3.13a2.67,2.67,0,0,0-3,1.34,1.06,1.06,0,0,0-.45,1.05l-.06.22h.1c.46,1.68,8.1,1.44,11,0h1.43c.86.51,2.33,1.23,3.35.92a7.35,7.35,0,0,0,1.94-.92h1.86s2.3,0,2.32-.52C613.85,259.44,610.87,259.5,610.87,259.5Z"/><path class="cls-18" d="M585.25,269.64c0-1.14-1.37-1.11-1.37-1.11a.73.73,0,0,0,0-1l-.11-.08c-.42-.27-.94.28-.94.28s.55-1.93-1.1-2.21a1.65,1.65,0,0,0-1.92,1.33v.05a.6.6,0,0,0-.8-.29h0a.6.6,0,0,0-.29.81v0a1,1,0,0,0-.82-.55c-1.38-.28-1.38,1.65-1.38,1.65-1.1-.22-1.49.8-1.61,1.21a.48.48,0,0,0,0,.17c0,.7,2.44.35,2.44,0a5.18,5.18,0,0,0,2.78.35l1-.35h1.52a2.42,2.42,0,0,0,1.26.35,1.56,1.56,0,0,0,1.34-.52A.18.18,0,0,0,585.25,269.64Z"/><path class="cls-18" d="M612.92,269.57c0-1.41-1.71-1.37-1.71-1.37a.9.9,0,0,0-.06-1.27l-.13-.1c-.53-.34-1.18.34-1.18.34s.69-2.39-1.36-2.74a2,2,0,0,0-2.37,1.56.88.88,0,0,0,0,.16.77.77,0,0,0-1-.34.75.75,0,0,0-.34,1,1.23,1.23,0,0,0-1-.68c-1.7-.35-1.7,2.05-1.7,2.05-1.71-.34-2,1.71-2,1.71s0,1.3,2.16.87,2.2-.87,2.2-.87,1.26,1.3,2.55.87a8.23,8.23,0,0,0,1.94-.87s1.52,1.3,2.82.87a1.69,1.69,0,0,0,1.26-1.12A.29.29,0,0,0,612.92,269.57Z"/><path class="cls-20" d="M596.48,275.5c2.06,0,6.22-3.1,8.68-5.09l.92-2.61-.09-.1c-2.6,3-11.18,5.39-11.67,3.9-.34-1,.1-6.14.32-8.43l-.76-.23s-2.59,10.4-1.72,11.26,0,11.08-1.08,13.91l6.48.09C594.33,285.29,596.48,275.5,596.48,275.5Z"/><polygon class="cls-1" points="242.71 238.38 242.7 238.34 233.85 238.34 242.71 238.38"/><polygon class="cls-21" points="215.34 283.16 215.34 282.74 208.74 282.74 208.74 288.12 248.34 288.12 247.78 283.16 215.34 283.16"/><polygon class="cls-21" points="233.85 238.34 242.7 238.34 242.12 233.21 214.93 233.21 214.93 238.34 222.08 238.34 222.19 238.29 233.85 238.34"/><polygon class="cls-15" points="245.25 260.81 216.99 260.81 216.99 260.68 201.31 267.02 215.34 267.02 245.95 267.02 245.25 260.81"/><polygon class="cls-15" points="242.71 238.38 233.85 238.34 222.08 238.34 209.15 244.67 216.99 244.67 243.42 244.67 242.71 238.38"/><polygon class="cls-15" points="222.19 238.29 222.08 238.34 233.85 238.34 222.19 238.29"/><polygon class="cls-15" points="238.87 204.53 238.87 204.47 238.72 204.47 208.74 216.94 223.6 216.94 240.28 216.94 238.87 204.53"/><polygon class="cls-12" points="225.66 231.01 225.66 226.05 224.43 226.05 224.43 223.98 225.66 223.98 225.66 218.6 240.47 218.6 240.28 216.94 223.6 216.94 223.6 233.08 242.11 233.08 241.87 231.01 225.66 231.01"/><polygon class="cls-22" points="240.47 218.6 225.66 218.6 225.66 223.98 241.08 223.98 240.47 218.6"/><polygon class="cls-22" points="225.66 226.05 225.66 231.01 241.87 231.01 241.31 226.05 225.66 226.05"/><rect class="cls-12" x="224.43" y="223.98" width="1.24" height="2.07"/><polygon class="cls-12" points="241.08 223.98 225.66 223.98 225.66 226.05 241.31 226.05 241.08 223.98"/><polygon class="cls-12" points="245.24 260.74 245.02 258.74 219.76 258.74 219.76 253.78 218.1 253.78 218.1 251.71 219.76 251.71 219.76 246.33 243.61 246.33 243.42 244.67 216.99 244.67 216.99 260.68 217.11 260.63 245.24 260.74"/><polygon class="cls-12" points="245.25 260.81 245.24 260.74 217.11 260.63 216.99 260.68 216.99 260.81 245.25 260.81"/><polygon class="cls-22" points="219.76 253.78 219.76 258.74 245.02 258.74 244.45 253.78 219.76 253.78"/><polygon class="cls-22" points="243.61 246.33 219.76 246.33 219.76 251.71 244.22 251.71 243.61 246.33"/><rect class="cls-12" x="218.1" y="251.71" width="1.66" height="2.07"/><polygon class="cls-12" points="244.22 251.71 219.76 251.71 219.76 253.78 244.45 253.78 244.22 251.71"/><polygon class="cls-12" points="247.55 281.09 218.34 281.09 218.34 276.12 216.54 276.12 216.54 274.05 218.34 274.05 218.34 268.67 246.14 268.67 245.95 267.02 215.34 267.02 215.34 282.74 247.73 282.74 247.55 281.09"/><polygon class="cls-12" points="247.78 283.16 247.73 282.74 215.34 282.74 215.34 283.16 247.78 283.16"/><polygon class="cls-22" points="246.14 268.67 218.34 268.67 218.34 274.05 246.75 274.05 246.14 268.67"/><polygon class="cls-22" points="218.34 276.12 218.34 281.09 247.55 281.09 246.98 276.12 218.34 276.12"/><rect class="cls-12" x="216.54" y="274.05" width="1.8" height="2.07"/><polygon class="cls-12" points="246.75 274.05 218.34 274.05 218.34 276.12 246.98 276.12 246.75 274.05"/><polygon class="cls-21" points="268.19 282.74 268.19 283.16 247.78 283.16 248.34 288.12 275.2 288.12 275.2 282.74 268.19 282.74"/><polygon class="cls-23" points="268.19 282.74 268.19 283.16 247.78 283.16 248.34 288.12 275.2 288.12 275.2 282.74 268.19 282.74"/><polygon class="cls-21" points="266.95 238.34 266.95 233.21 242.12 233.21 242.7 238.34 266.95 238.34"/><polygon class="cls-24" points="266.95 238.34 266.95 233.21 242.12 233.21 242.7 238.34 266.95 238.34"/><polygon class="cls-15" points="245.95 267.02 268.19 267.02 281.81 267.02 266.31 260.82 263.12 260.81 245.25 260.81 245.95 267.02"/><polygon class="cls-25" points="245.95 267.02 268.19 267.02 281.81 267.02 266.31 260.82 263.12 260.81 245.25 260.81 245.95 267.02"/><polygon class="cls-15" points="265.71 244.67 275.62 244.67 262.82 238.47 242.71 238.38 243.42 244.67 265.71 244.67"/><polygon class="cls-26" points="265.71 244.67 275.62 244.67 262.82 238.47 242.71 238.38 243.42 244.67 265.71 244.67"/><polygon class="cls-15" points="238.87 204.53 240.28 216.94 259.93 216.94 275.16 216.94 275.16 216.92 244.49 204.53 238.87 204.53"/><polygon class="cls-27" points="238.87 204.53 240.28 216.94 259.93 216.94 275.16 216.94 275.16 216.92 244.49 204.53 238.87 204.53"/><rect class="cls-28" x="240.94" y="198.73" width="1.24" height="0.83"/><rect class="cls-29" x="240.94" y="198.73" width="1.24" height="0.83"/><rect class="cls-28" x="240.94" y="197.08" width="1.24" height="0.83"/><rect class="cls-30" x="240.94" y="197.08" width="1.24" height="0.83"/><rect class="cls-28" x="240.94" y="175.56" width="1.24" height="0.83"/><rect class="cls-31" x="240.94" y="175.56" width="1.24" height="0.83"/><rect class="cls-28" x="240.94" y="177.21" width="1.24" height="0.83"/><rect class="cls-32" x="240.94" y="177.21" width="1.24" height="0.83"/><rect class="cls-28" x="240.94" y="178.87" width="1.24" height="0.83"/><rect class="cls-33" x="240.94" y="178.87" width="1.24" height="0.83"/><rect class="cls-28" x="240.94" y="195.42" width="1.24" height="0.83"/><rect class="cls-34" x="240.94" y="195.42" width="1.24" height="0.83"/><rect class="cls-28" x="240.94" y="180.52" width="1.24" height="0.83"/><rect class="cls-35" x="240.94" y="180.52" width="1.24" height="0.83"/><rect class="cls-28" x="240.94" y="183.84" width="1.24" height="0.83"/><rect class="cls-36" x="240.94" y="183.84" width="1.24" height="0.83"/><rect class="cls-28" x="240.94" y="187.15" width="1.24" height="0.83"/><rect class="cls-37" x="240.94" y="187.15" width="1.24" height="0.83"/><rect class="cls-28" x="240.94" y="185.49" width="1.24" height="0.83"/><rect class="cls-38" x="240.94" y="185.49" width="1.24" height="0.83"/><rect class="cls-28" x="240.94" y="192.11" width="1.24" height="0.83"/><rect class="cls-39" x="240.94" y="192.11" width="1.24" height="0.83"/><rect class="cls-28" x="240.94" y="182.18" width="1.24" height="0.83"/><rect class="cls-40" x="240.94" y="182.18" width="1.24" height="0.83"/><rect class="cls-28" x="240.94" y="188.8" width="1.24" height="0.83"/><rect class="cls-41" x="240.94" y="188.8" width="1.24" height="0.83"/><rect class="cls-28" x="240.94" y="193.77" width="1.24" height="0.83"/><rect class="cls-42" x="240.94" y="193.77" width="1.24" height="0.83"/><rect class="cls-28" x="240.94" y="170.59" width="1.24" height="0.83"/><rect class="cls-43" x="240.94" y="170.59" width="1.24" height="0.83"/><rect class="cls-28" x="240.94" y="190.46" width="1.24" height="0.83"/><rect class="cls-44" x="240.94" y="190.46" width="1.24" height="0.83"/><rect class="cls-28" x="240.94" y="200.39" width="1.24" height="2.07"/><rect class="cls-45" x="240.94" y="200.39" width="1.24" height="2.07"/><rect class="cls-28" x="240.94" y="172.25" width="1.24" height="0.83"/><rect class="cls-46" x="240.94" y="172.25" width="1.24" height="0.83"/><rect class="cls-28" x="240.94" y="169.35" width="1.24" height="0.41"/><rect class="cls-47" x="240.94" y="169.35" width="1.24" height="0.41"/><rect class="cls-28" x="240.94" y="173.9" width="1.24" height="0.83"/><rect class="cls-48" x="240.94" y="173.9" width="1.24" height="0.83"/><rect class="cls-12" x="242.18" y="169.76" width="1.24" height="0.83"/><rect class="cls-49" x="242.18" y="169.76" width="1.24" height="0.83"/><rect class="cls-12" x="239.7" y="169.76" width="1.24" height="0.83"/><rect class="cls-49" x="239.7" y="169.76" width="1.24" height="0.83"/><rect class="cls-12" x="240.94" y="169.76" width="1.24" height="0.83"/><rect class="cls-49" x="240.94" y="169.76" width="1.24" height="0.83"/><rect class="cls-12" x="242.18" y="171.42" width="1.24" height="0.83"/><rect class="cls-50" x="242.18" y="171.42" width="1.24" height="0.83"/><rect class="cls-12" x="239.7" y="171.42" width="1.24" height="0.83"/><rect class="cls-50" x="239.7" y="171.42" width="1.24" height="0.83"/><rect class="cls-12" x="240.94" y="171.42" width="1.24" height="0.83"/><rect class="cls-50" x="240.94" y="171.42" width="1.24" height="0.83"/><rect class="cls-12" x="239.7" y="173.08" width="1.24" height="0.83"/><rect class="cls-51" x="239.7" y="173.08" width="1.24" height="0.83"/><rect class="cls-12" x="242.18" y="173.08" width="1.24" height="0.83"/><rect class="cls-51" x="242.18" y="173.08" width="1.24" height="0.83"/><rect class="cls-12" x="240.94" y="173.08" width="1.24" height="0.83"/><rect class="cls-51" x="240.94" y="173.08" width="1.24" height="0.83"/><rect class="cls-12" x="242.18" y="174.73" width="1.24" height="0.83"/><rect class="cls-52" x="242.18" y="174.73" width="1.24" height="0.83"/><rect class="cls-12" x="239.7" y="174.73" width="1.24" height="0.83"/><rect class="cls-52" x="239.7" y="174.73" width="1.24" height="0.83"/><rect class="cls-12" x="240.94" y="174.73" width="1.24" height="0.83"/><rect class="cls-52" x="240.94" y="174.73" width="1.24" height="0.83"/><rect class="cls-12" x="242.18" y="176.39" width="1.24" height="0.83"/><rect class="cls-53" x="242.18" y="176.39" width="1.24" height="0.83"/><rect class="cls-12" x="239.7" y="176.39" width="1.24" height="0.83"/><rect class="cls-53" x="239.7" y="176.39" width="1.24" height="0.83"/><rect class="cls-12" x="240.94" y="176.39" width="1.24" height="0.83"/><rect class="cls-53" x="240.94" y="176.39" width="1.24" height="0.83"/><rect class="cls-12" x="239.7" y="178.04" width="1.24" height="0.83"/><rect class="cls-54" x="239.7" y="178.04" width="1.24" height="0.83"/><rect class="cls-12" x="242.18" y="178.04" width="1.24" height="0.83"/><rect class="cls-54" x="242.18" y="178.04" width="1.24" height="0.83"/><rect class="cls-12" x="240.94" y="178.04" width="1.24" height="0.83"/><rect class="cls-54" x="240.94" y="178.04" width="1.24" height="0.83"/><rect class="cls-12" x="242.18" y="179.7" width="1.24" height="0.83"/><rect class="cls-55" x="242.18" y="179.7" width="1.24" height="0.83"/><rect class="cls-12" x="239.7" y="179.7" width="1.24" height="0.83"/><rect class="cls-55" x="239.7" y="179.7" width="1.24" height="0.83"/><rect class="cls-12" x="240.94" y="179.7" width="1.24" height="0.83"/><rect class="cls-55" x="240.94" y="179.7" width="1.24" height="0.83"/><rect class="cls-12" x="242.18" y="181.35" width="1.24" height="0.83"/><rect class="cls-56" x="242.18" y="181.35" width="1.24" height="0.83"/><rect class="cls-12" x="239.7" y="181.35" width="1.24" height="0.83"/><rect class="cls-56" x="239.7" y="181.35" width="1.24" height="0.83"/><rect class="cls-12" x="240.94" y="181.35" width="1.24" height="0.83"/><rect class="cls-56" x="240.94" y="181.35" width="1.24" height="0.83"/><rect class="cls-12" x="239.7" y="183.01" width="1.24" height="0.83"/><rect class="cls-57" x="239.7" y="183.01" width="1.24" height="0.83"/><rect class="cls-12" x="242.18" y="183.01" width="1.24" height="0.83"/><rect class="cls-57" x="242.18" y="183.01" width="1.24" height="0.83"/><rect class="cls-12" x="240.94" y="183.01" width="1.24" height="0.83"/><rect class="cls-57" x="240.94" y="183.01" width="1.24" height="0.83"/><rect class="cls-12" x="239.7" y="184.66" width="1.24" height="0.83"/><rect class="cls-58" x="239.7" y="184.66" width="1.24" height="0.83"/><rect class="cls-12" x="242.18" y="184.66" width="1.24" height="0.83"/><rect class="cls-58" x="242.18" y="184.66" width="1.24" height="0.83"/><rect class="cls-12" x="240.94" y="184.66" width="1.24" height="0.83"/><rect class="cls-58" x="240.94" y="184.66" width="1.24" height="0.83"/><rect class="cls-12" x="239.7" y="186.32" width="1.24" height="0.83"/><rect class="cls-59" x="239.7" y="186.32" width="1.24" height="0.83"/><rect class="cls-12" x="242.18" y="186.32" width="1.24" height="0.83"/><rect class="cls-59" x="242.18" y="186.32" width="1.24" height="0.83"/><rect class="cls-12" x="240.94" y="186.32" width="1.24" height="0.83"/><rect class="cls-59" x="240.94" y="186.32" width="1.24" height="0.83"/><rect class="cls-12" x="242.18" y="187.97" width="1.24" height="0.83"/><rect class="cls-60" x="242.18" y="187.97" width="1.24" height="0.83"/><rect class="cls-12" x="239.7" y="187.97" width="1.24" height="0.83"/><rect class="cls-60" x="239.7" y="187.97" width="1.24" height="0.83"/><rect class="cls-12" x="240.94" y="187.97" width="1.24" height="0.83"/><rect class="cls-60" x="240.94" y="187.97" width="1.24" height="0.83"/><rect class="cls-12" x="242.18" y="189.63" width="1.24" height="0.83"/><rect class="cls-61" x="242.18" y="189.63" width="1.24" height="0.83"/><rect class="cls-12" x="239.7" y="189.63" width="1.24" height="0.83"/><rect class="cls-61" x="239.7" y="189.63" width="1.24" height="0.83"/><rect class="cls-12" x="240.94" y="189.63" width="1.24" height="0.83"/><rect class="cls-61" x="240.94" y="189.63" width="1.24" height="0.83"/><rect class="cls-12" x="239.7" y="191.28" width="1.24" height="0.83"/><rect class="cls-62" x="239.7" y="191.28" width="1.24" height="0.83"/><rect class="cls-12" x="242.18" y="191.28" width="1.24" height="0.83"/><rect class="cls-62" x="242.18" y="191.28" width="1.24" height="0.83"/><rect class="cls-12" x="240.94" y="191.28" width="1.24" height="0.83"/><rect class="cls-62" x="240.94" y="191.28" width="1.24" height="0.83"/><rect class="cls-12" x="239.7" y="192.94" width="1.24" height="0.83"/><rect class="cls-63" x="239.7" y="192.94" width="1.24" height="0.83"/><rect class="cls-12" x="242.18" y="192.94" width="1.24" height="0.83"/><rect class="cls-63" x="242.18" y="192.94" width="1.24" height="0.83"/><rect class="cls-12" x="240.94" y="192.94" width="1.24" height="0.83"/><rect class="cls-63" x="240.94" y="192.94" width="1.24" height="0.83"/><rect class="cls-12" x="242.18" y="194.6" width="1.24" height="0.83"/><rect class="cls-64" x="242.18" y="194.6" width="1.24" height="0.83"/><rect class="cls-12" x="239.7" y="194.6" width="1.24" height="0.83"/><rect class="cls-64" x="239.7" y="194.6" width="1.24" height="0.83"/><rect class="cls-12" x="240.94" y="194.6" width="1.24" height="0.83"/><rect class="cls-64" x="240.94" y="194.6" width="1.24" height="0.83"/><rect class="cls-12" x="242.18" y="196.25" width="1.24" height="0.83"/><rect class="cls-65" x="242.18" y="196.25" width="1.24" height="0.83"/><rect class="cls-12" x="239.7" y="196.25" width="1.24" height="0.83"/><rect class="cls-65" x="239.7" y="196.25" width="1.24" height="0.83"/><rect class="cls-12" x="240.94" y="196.25" width="1.24" height="0.83"/><rect class="cls-65" x="240.94" y="196.25" width="1.24" height="0.83"/><rect class="cls-12" x="239.7" y="197.91" width="1.24" height="0.83"/><rect class="cls-66" x="239.7" y="197.91" width="1.24" height="0.83"/><rect class="cls-12" x="242.18" y="197.91" width="1.24" height="0.83"/><rect class="cls-66" x="242.18" y="197.91" width="1.24" height="0.83"/><rect class="cls-12" x="240.94" y="197.91" width="1.24" height="0.83"/><rect class="cls-66" x="240.94" y="197.91" width="1.24" height="0.83"/><rect class="cls-12" x="239.7" y="199.56" width="1.24" height="0.83"/><rect class="cls-67" x="239.7" y="199.56" width="1.24" height="0.83"/><rect class="cls-12" x="242.18" y="199.56" width="1.24" height="0.83"/><rect class="cls-67" x="242.18" y="199.56" width="1.24" height="0.83"/><rect class="cls-12" x="240.94" y="199.56" width="1.24" height="0.83"/><rect class="cls-67" x="240.94" y="199.56" width="1.24" height="0.83"/><polygon class="cls-68" points="244.49 204.53 244.65 204.53 244.65 202.46 242.18 202.46 242.18 203.7 240.94 203.7 240.94 202.46 238.87 202.46 238.87 204.47 244.34 204.47 244.49 204.53"/><polygon class="cls-69" points="244.49 204.53 244.65 204.53 244.65 202.46 242.18 202.46 242.18 203.7 240.94 203.7 240.94 202.46 238.87 202.46 238.87 204.47 244.34 204.47 244.49 204.53"/><polygon class="cls-68" points="244.34 204.47 238.87 204.47 238.87 204.53 244.49 204.53 244.34 204.47"/><polygon class="cls-70" points="244.34 204.47 238.87 204.47 238.87 204.53 244.49 204.53 244.34 204.47"/><rect class="cls-68" x="240.94" y="202.46" width="1.24" height="1.24"/><rect class="cls-71" x="240.94" y="202.46" width="1.24" height="1.24"/><polygon class="cls-12" points="240.47 218.6 257.45 218.6 257.45 223.98 259.93 223.98 259.93 216.94 240.28 216.94 240.47 218.6"/><polygon class="cls-72" points="240.47 218.6 257.45 218.6 257.45 223.98 259.93 223.98 259.93 216.94 240.28 216.94 240.47 218.6"/><polygon class="cls-12" points="259.93 226.05 257.45 226.05 257.45 231.01 241.87 231.01 242.11 233.08 259.93 233.08 259.93 226.05"/><polygon class="cls-73" points="259.93 226.05 257.45 226.05 257.45 231.01 241.87 231.01 242.11 233.08 259.93 233.08 259.93 226.05"/><polygon class="cls-22" points="257.45 223.98 257.45 218.6 240.47 218.6 241.08 223.98 257.45 223.98"/><polygon class="cls-74" points="257.45 223.98 257.45 218.6 240.47 218.6 241.08 223.98 257.45 223.98"/><polygon class="cls-22" points="241.87 231.01 257.45 231.01 257.45 226.05 241.31 226.05 241.87 231.01"/><polygon class="cls-75" points="241.87 231.01 257.45 231.01 257.45 226.05 241.31 226.05 241.87 231.01"/><rect class="cls-12" x="257.45" y="223.98" width="2.48" height="2.07"/><rect class="cls-76" x="257.45" y="223.98" width="2.48" height="2.07"/><polygon class="cls-12" points="241.08 223.98 241.31 226.05 257.45 226.05 257.45 223.98 241.08 223.98"/><polygon class="cls-76" points="241.08 223.98 241.31 226.05 257.45 226.05 257.45 223.98 241.08 223.98"/><polygon class="cls-12" points="243.61 246.33 262.39 246.33 262.39 251.71 265.71 251.71 265.71 244.67 243.42 244.67 243.61 246.33"/><polygon class="cls-77" points="243.61 246.33 262.39 246.33 262.39 251.71 265.71 251.71 265.71 244.67 243.42 244.67 243.61 246.33"/><polygon class="cls-12" points="262.39 258.74 245.02 258.74 245.24 260.74 263.12 260.81 265.71 260.81 265.71 253.78 262.39 253.78 262.39 258.74"/><polygon class="cls-78" points="262.39 258.74 245.02 258.74 245.24 260.74 263.12 260.81 265.71 260.81 265.71 253.78 262.39 253.78 262.39 258.74"/><polygon class="cls-12" points="245.25 260.81 263.12 260.81 245.24 260.74 245.25 260.81"/><polygon class="cls-79" points="245.25 260.81 263.12 260.81 245.24 260.74 245.25 260.81"/><polygon class="cls-22" points="262.39 251.71 262.39 246.33 243.61 246.33 244.22 251.71 262.39 251.71"/><polygon class="cls-80" points="262.39 251.71 262.39 246.33 243.61 246.33 244.22 251.71 262.39 251.71"/><polygon class="cls-22" points="262.39 253.78 244.45 253.78 245.02 258.74 262.39 258.74 262.39 253.78"/><polygon class="cls-81" points="262.39 253.78 244.45 253.78 245.02 258.74 262.39 258.74 262.39 253.78"/><rect class="cls-12" x="262.39" y="251.71" width="3.32" height="2.07"/><rect class="cls-82" x="262.39" y="251.71" width="3.32" height="2.07"/><polygon class="cls-12" points="244.45 253.78 262.39 253.78 262.39 251.71 244.22 251.71 244.45 253.78"/><polygon class="cls-82" points="244.45 253.78 262.39 253.78 262.39 251.71 244.22 251.71 244.45 253.78"/><polygon class="cls-12" points="264.58 281.09 247.55 281.09 247.73 282.74 268.19 282.74 268.19 276.12 264.58 276.12 264.58 281.09"/><polygon class="cls-83" points="264.58 281.09 247.55 281.09 247.73 282.74 268.19 282.74 268.19 276.12 264.58 276.12 264.58 281.09"/><polygon class="cls-12" points="246.14 268.67 264.58 268.67 264.58 274.05 268.19 274.05 268.19 267.02 245.95 267.02 246.14 268.67"/><polygon class="cls-84" points="246.14 268.67 264.58 268.67 264.58 274.05 268.19 274.05 268.19 267.02 245.95 267.02 246.14 268.67"/><polygon class="cls-12" points="247.78 283.16 268.19 283.16 268.19 282.74 247.73 282.74 247.78 283.16"/><polygon class="cls-85" points="247.78 283.16 268.19 283.16 268.19 282.74 247.73 282.74 247.78 283.16"/><polygon class="cls-22" points="264.58 274.05 264.58 268.67 246.14 268.67 246.75 274.05 264.58 274.05"/><polygon class="cls-86" points="264.58 274.05 264.58 268.67 246.14 268.67 246.75 274.05 264.58 274.05"/><polygon class="cls-22" points="264.58 276.12 246.98 276.12 247.55 281.09 264.58 281.09 264.58 276.12"/><polygon class="cls-87" points="264.58 276.12 246.98 276.12 247.55 281.09 264.58 281.09 264.58 276.12"/><rect class="cls-12" x="264.58" y="274.05" width="3.6" height="2.07"/><rect class="cls-88" x="264.58" y="274.05" width="3.6" height="2.07"/><polygon class="cls-12" points="246.98 276.12 264.58 276.12 264.58 274.05 246.75 274.05 246.98 276.12"/><polygon class="cls-88" points="246.98 276.12 264.58 276.12 264.58 274.05 246.75 274.05 246.98 276.12"/><polygon class="cls-1" points="794.85 246.79 794.84 246.75 787.48 246.75 794.85 246.79"/><polygon class="cls-21" points="772.1 284 772.1 283.65 766.61 283.65 766.61 288.12 799.53 288.12 799.06 284 772.1 284"/><polygon class="cls-21" points="787.48 246.75 794.84 246.75 794.36 242.48 771.76 242.48 771.76 246.75 777.71 246.75 777.8 246.71 787.48 246.75"/><polygon class="cls-15" points="796.96 265.43 773.48 265.43 773.48 265.32 760.44 270.59 772.1 270.59 797.54 270.59 796.96 265.43"/><polygon class="cls-15" points="794.85 246.79 787.48 246.75 777.71 246.75 766.96 252.01 773.48 252.01 795.44 252.01 794.85 246.79"/><polygon class="cls-15" points="777.8 246.71 777.71 246.75 787.48 246.75 777.8 246.71"/><polygon class="cls-15" points="791.66 218.65 791.66 218.6 791.53 218.6 766.61 228.97 778.96 228.97 792.83 228.97 791.66 218.65"/><polygon class="cls-12" points="780.68 240.66 780.68 236.54 779.65 236.54 779.65 234.82 780.68 234.82 780.68 230.35 792.98 230.35 792.83 228.97 778.96 228.97 778.96 242.38 794.35 242.38 794.15 240.66 780.68 240.66"/><polygon class="cls-22" points="792.98 230.35 780.68 230.35 780.68 234.82 793.49 234.82 792.98 230.35"/><polygon class="cls-22" points="780.68 236.54 780.68 240.66 794.15 240.66 793.68 236.54 780.68 236.54"/><rect class="cls-12" x="779.65" y="234.82" width="1.03" height="1.72"/><polygon class="cls-12" points="793.49 234.82 780.68 234.82 780.68 236.54 793.68 236.54 793.49 234.82"/><polygon class="cls-12" points="796.95 265.37 796.76 263.71 775.78 263.71 775.78 259.58 774.4 259.58 774.4 257.86 775.78 257.86 775.78 253.39 795.59 253.39 795.44 252.01 773.48 252.01 773.48 265.32 773.57 265.28 796.95 265.37"/><polygon class="cls-12" points="796.96 265.43 796.95 265.37 773.57 265.28 773.48 265.32 773.48 265.43 796.96 265.43"/><polygon class="cls-22" points="775.78 259.58 775.78 263.71 796.76 263.71 796.3 259.58 775.78 259.58"/><polygon class="cls-22" points="795.59 253.39 775.78 253.39 775.78 257.86 796.1 257.86 795.59 253.39"/><rect class="cls-12" x="774.4" y="257.86" width="1.38" height="1.72"/><polygon class="cls-12" points="796.1 257.86 775.78 257.86 775.78 259.58 796.3 259.58 796.1 257.86"/><polygon class="cls-12" points="798.87 282.28 774.6 282.28 774.6 278.15 773.1 278.15 773.1 276.43 774.6 276.43 774.6 271.96 797.7 271.96 797.54 270.59 772.1 270.59 772.1 283.65 799.02 283.65 798.87 282.28"/><polygon class="cls-12" points="799.06 284 799.02 283.65 772.1 283.65 772.1 284 799.06 284"/><polygon class="cls-22" points="797.7 271.96 774.6 271.96 774.6 276.43 798.2 276.43 797.7 271.96"/><polygon class="cls-22" points="774.6 278.15 774.6 282.28 798.87 282.28 798.4 278.15 774.6 278.15"/><rect class="cls-12" x="773.1" y="276.43" width="1.5" height="1.72"/><polygon class="cls-12" points="798.2 276.43 774.6 276.43 774.6 278.15 798.4 278.15 798.2 276.43"/><polygon class="cls-21" points="816.02 283.65 816.02 284 799.06 284 799.53 288.12 821.85 288.12 821.85 283.65 816.02 283.65"/><polygon class="cls-89" points="816.02 283.65 816.02 284 799.06 284 799.53 288.12 821.85 288.12 821.85 283.65 816.02 283.65"/><polygon class="cls-21" points="814.99 246.75 814.99 242.48 794.36 242.48 794.84 246.75 814.99 246.75"/><polygon class="cls-90" points="814.99 246.75 814.99 242.48 794.36 242.48 794.84 246.75 814.99 246.75"/><polygon class="cls-15" points="797.54 270.59 816.02 270.59 827.34 270.59 814.46 265.44 811.81 265.43 796.96 265.43 797.54 270.59"/><polygon class="cls-91" points="797.54 270.59 816.02 270.59 827.34 270.59 814.46 265.44 811.81 265.43 796.96 265.43 797.54 270.59"/><polygon class="cls-15" points="813.96 252.01 822.19 252.01 811.56 246.86 794.85 246.79 795.44 252.01 813.96 252.01"/><polygon class="cls-92" points="813.96 252.01 822.19 252.01 811.56 246.86 794.85 246.79 795.44 252.01 813.96 252.01"/><polygon class="cls-15" points="791.66 218.65 792.83 228.97 809.16 228.97 821.82 228.97 821.81 228.96 796.32 218.65 791.66 218.65"/><polygon class="cls-93" points="791.66 218.65 792.83 228.97 809.16 228.97 821.82 228.97 821.81 228.96 796.32 218.65 791.66 218.65"/><rect class="cls-28" x="793.37" y="213.84" width="1.03" height="0.69"/><rect class="cls-94" x="793.37" y="213.84" width="1.03" height="0.69"/><rect class="cls-28" x="793.37" y="212.46" width="1.03" height="0.69"/><rect class="cls-95" x="793.37" y="212.46" width="1.03" height="0.69"/><rect class="cls-28" x="793.37" y="194.58" width="1.03" height="0.69"/><rect class="cls-96" x="793.37" y="194.58" width="1.03" height="0.69"/><rect class="cls-28" x="793.37" y="195.95" width="1.03" height="0.69"/><rect class="cls-97" x="793.37" y="195.95" width="1.03" height="0.69"/><rect class="cls-28" x="793.37" y="197.33" width="1.03" height="0.69"/><rect class="cls-98" x="793.37" y="197.33" width="1.03" height="0.69"/><rect class="cls-28" x="793.37" y="211.09" width="1.03" height="0.69"/><rect class="cls-99" x="793.37" y="211.09" width="1.03" height="0.69"/><rect class="cls-28" x="793.37" y="198.71" width="1.03" height="0.69"/><rect class="cls-100" x="793.37" y="198.71" width="1.03" height="0.69"/><rect class="cls-28" x="793.37" y="201.46" width="1.03" height="0.69"/><rect class="cls-101" x="793.37" y="201.46" width="1.03" height="0.69"/><rect class="cls-28" x="793.37" y="204.21" width="1.03" height="0.69"/><rect class="cls-102" x="793.37" y="204.21" width="1.03" height="0.69"/><rect class="cls-28" x="793.37" y="202.83" width="1.03" height="0.69"/><rect class="cls-103" x="793.37" y="202.83" width="1.03" height="0.69"/><rect class="cls-28" x="793.37" y="208.34" width="1.03" height="0.69"/><rect class="cls-104" x="793.37" y="208.34" width="1.03" height="0.69"/><rect class="cls-28" x="793.37" y="200.08" width="1.03" height="0.69"/><rect class="cls-105" x="793.37" y="200.08" width="1.03" height="0.69"/><rect class="cls-28" x="793.37" y="205.58" width="1.03" height="0.69"/><rect class="cls-106" x="793.37" y="205.58" width="1.03" height="0.69"/><rect class="cls-28" x="793.37" y="209.71" width="1.03" height="0.69"/><rect class="cls-107" x="793.37" y="209.71" width="1.03" height="0.69"/><rect class="cls-28" x="793.37" y="190.45" width="1.03" height="0.69"/><rect class="cls-108" x="793.37" y="190.45" width="1.03" height="0.69"/><rect class="cls-28" x="793.37" y="206.96" width="1.03" height="0.69"/><rect class="cls-109" x="793.37" y="206.96" width="1.03" height="0.69"/><rect class="cls-28" x="793.37" y="215.21" width="1.03" height="1.72"/><rect class="cls-110" x="793.37" y="215.21" width="1.03" height="1.72"/><rect class="cls-28" x="793.37" y="191.83" width="1.03" height="0.69"/><rect class="cls-111" x="793.37" y="191.83" width="1.03" height="0.69"/><rect class="cls-28" x="793.37" y="189.42" width="1.03" height="0.34"/><rect class="cls-112" x="793.37" y="189.42" width="1.03" height="0.34"/><rect class="cls-28" x="793.37" y="193.2" width="1.03" height="0.69"/><rect class="cls-113" x="793.37" y="193.2" width="1.03" height="0.69"/><rect class="cls-12" x="794.4" y="189.76" width="1.03" height="0.69"/><rect class="cls-114" x="794.4" y="189.76" width="1.03" height="0.69"/><rect class="cls-12" x="792.35" y="189.76" width="1.03" height="0.69"/><rect class="cls-114" x="792.35" y="189.76" width="1.03" height="0.69"/><rect class="cls-12" x="793.37" y="189.76" width="1.03" height="0.69"/><rect class="cls-114" x="793.37" y="189.76" width="1.03" height="0.69"/><rect class="cls-12" x="794.4" y="191.14" width="1.03" height="0.69"/><rect class="cls-115" x="794.4" y="191.14" width="1.03" height="0.69"/><rect class="cls-12" x="792.35" y="191.14" width="1.03" height="0.69"/><rect class="cls-115" x="792.35" y="191.14" width="1.03" height="0.69"/><rect class="cls-12" x="793.37" y="191.14" width="1.03" height="0.69"/><rect class="cls-115" x="793.37" y="191.14" width="1.03" height="0.69"/><rect class="cls-12" x="792.35" y="192.52" width="1.03" height="0.69"/><rect class="cls-116" x="792.35" y="192.52" width="1.03" height="0.69"/><rect class="cls-12" x="794.4" y="192.52" width="1.03" height="0.69"/><rect class="cls-116" x="794.4" y="192.52" width="1.03" height="0.69"/><rect class="cls-12" x="793.37" y="192.52" width="1.03" height="0.69"/><rect class="cls-116" x="793.37" y="192.52" width="1.03" height="0.69"/><rect class="cls-12" x="794.4" y="193.89" width="1.03" height="0.69"/><rect class="cls-117" x="794.4" y="193.89" width="1.03" height="0.69"/><rect class="cls-12" x="792.35" y="193.89" width="1.03" height="0.69"/><rect class="cls-117" x="792.35" y="193.89" width="1.03" height="0.69"/><rect class="cls-12" x="793.37" y="193.89" width="1.03" height="0.69"/><rect class="cls-117" x="793.37" y="193.89" width="1.03" height="0.69"/><rect class="cls-12" x="794.4" y="195.27" width="1.03" height="0.69"/><rect class="cls-118" x="794.4" y="195.27" width="1.03" height="0.69"/><rect class="cls-12" x="792.35" y="195.27" width="1.03" height="0.69"/><rect class="cls-118" x="792.35" y="195.27" width="1.03" height="0.69"/><rect class="cls-12" x="793.37" y="195.27" width="1.03" height="0.69"/><rect class="cls-118" x="793.37" y="195.27" width="1.03" height="0.69"/><rect class="cls-12" x="792.35" y="196.64" width="1.03" height="0.69"/><rect class="cls-119" x="792.35" y="196.64" width="1.03" height="0.69"/><rect class="cls-12" x="794.4" y="196.64" width="1.03" height="0.69"/><rect class="cls-119" x="794.4" y="196.64" width="1.03" height="0.69"/><rect class="cls-12" x="793.37" y="196.64" width="1.03" height="0.69"/><rect class="cls-119" x="793.37" y="196.64" width="1.03" height="0.69"/><rect class="cls-12" x="794.4" y="198.02" width="1.03" height="0.69"/><rect class="cls-120" x="794.4" y="198.02" width="1.03" height="0.69"/><rect class="cls-12" x="792.35" y="198.02" width="1.03" height="0.69"/><rect class="cls-120" x="792.35" y="198.02" width="1.03" height="0.69"/><rect class="cls-12" x="793.37" y="198.02" width="1.03" height="0.69"/><rect class="cls-120" x="793.37" y="198.02" width="1.03" height="0.69"/><rect class="cls-12" x="794.4" y="199.39" width="1.03" height="0.69"/><rect class="cls-121" x="794.4" y="199.39" width="1.03" height="0.69"/><rect class="cls-12" x="792.35" y="199.39" width="1.03" height="0.69"/><rect class="cls-121" x="792.35" y="199.39" width="1.03" height="0.69"/><rect class="cls-12" x="793.37" y="199.39" width="1.03" height="0.69"/><rect class="cls-121" x="793.37" y="199.39" width="1.03" height="0.69"/><rect class="cls-12" x="792.35" y="200.77" width="1.03" height="0.69"/><rect class="cls-122" x="792.35" y="200.77" width="1.03" height="0.69"/><rect class="cls-12" x="794.4" y="200.77" width="1.03" height="0.69"/><rect class="cls-122" x="794.4" y="200.77" width="1.03" height="0.69"/><rect class="cls-12" x="793.37" y="200.77" width="1.03" height="0.69"/><rect class="cls-122" x="793.37" y="200.77" width="1.03" height="0.69"/><rect class="cls-12" x="792.35" y="202.15" width="1.03" height="0.69"/><rect class="cls-123" x="792.35" y="202.15" width="1.03" height="0.69"/><rect class="cls-12" x="794.4" y="202.15" width="1.03" height="0.69"/><rect class="cls-123" x="794.4" y="202.15" width="1.03" height="0.69"/><rect class="cls-12" x="793.37" y="202.15" width="1.03" height="0.69"/><rect class="cls-123" x="793.37" y="202.15" width="1.03" height="0.69"/><rect class="cls-12" x="792.35" y="203.52" width="1.03" height="0.69"/><rect class="cls-124" x="792.35" y="203.52" width="1.03" height="0.69"/><rect class="cls-12" x="794.4" y="203.52" width="1.03" height="0.69"/><rect class="cls-124" x="794.4" y="203.52" width="1.03" height="0.69"/><rect class="cls-12" x="793.37" y="203.52" width="1.03" height="0.69"/><rect class="cls-124" x="793.37" y="203.52" width="1.03" height="0.69"/><rect class="cls-12" x="794.4" y="204.9" width="1.03" height="0.69"/><rect class="cls-125" x="794.4" y="204.9" width="1.03" height="0.69"/><rect class="cls-12" x="792.35" y="204.9" width="1.03" height="0.69"/><rect class="cls-125" x="792.35" y="204.9" width="1.03" height="0.69"/><rect class="cls-12" x="793.37" y="204.9" width="1.03" height="0.69"/><rect class="cls-125" x="793.37" y="204.9" width="1.03" height="0.69"/><rect class="cls-12" x="794.4" y="206.27" width="1.03" height="0.69"/><rect class="cls-126" x="794.4" y="206.27" width="1.03" height="0.69"/><rect class="cls-12" x="792.35" y="206.27" width="1.03" height="0.69"/><rect class="cls-126" x="792.35" y="206.27" width="1.03" height="0.69"/><rect class="cls-12" x="793.37" y="206.27" width="1.03" height="0.69"/><rect class="cls-126" x="793.37" y="206.27" width="1.03" height="0.69"/><rect class="cls-12" x="792.35" y="207.65" width="1.03" height="0.69"/><rect class="cls-127" x="792.35" y="207.65" width="1.03" height="0.69"/><rect class="cls-12" x="794.4" y="207.65" width="1.03" height="0.69"/><rect class="cls-127" x="794.4" y="207.65" width="1.03" height="0.69"/><rect class="cls-12" x="793.37" y="207.65" width="1.03" height="0.69"/><rect class="cls-127" x="793.37" y="207.65" width="1.03" height="0.69"/><rect class="cls-12" x="792.35" y="209.02" width="1.03" height="0.69"/><rect class="cls-128" x="792.35" y="209.02" width="1.03" height="0.69"/><rect class="cls-12" x="794.4" y="209.02" width="1.03" height="0.69"/><rect class="cls-128" x="794.4" y="209.02" width="1.03" height="0.69"/><rect class="cls-12" x="793.37" y="209.02" width="1.03" height="0.69"/><rect class="cls-128" x="793.37" y="209.02" width="1.03" height="0.69"/><rect class="cls-12" x="794.4" y="210.4" width="1.03" height="0.69"/><rect class="cls-129" x="794.4" y="210.4" width="1.03" height="0.69"/><rect class="cls-12" x="792.35" y="210.4" width="1.03" height="0.69"/><rect class="cls-129" x="792.35" y="210.4" width="1.03" height="0.69"/><rect class="cls-12" x="793.37" y="210.4" width="1.03" height="0.69"/><rect class="cls-129" x="793.37" y="210.4" width="1.03" height="0.69"/><rect class="cls-12" x="794.4" y="211.77" width="1.03" height="0.69"/><rect class="cls-130" x="794.4" y="211.77" width="1.03" height="0.69"/><rect class="cls-12" x="792.35" y="211.77" width="1.03" height="0.69"/><rect class="cls-130" x="792.35" y="211.77" width="1.03" height="0.69"/><rect class="cls-12" x="793.37" y="211.77" width="1.03" height="0.69"/><rect class="cls-130" x="793.37" y="211.77" width="1.03" height="0.69"/><rect class="cls-12" x="792.35" y="213.15" width="1.03" height="0.69"/><rect class="cls-131" x="792.35" y="213.15" width="1.03" height="0.69"/><rect class="cls-12" x="794.4" y="213.15" width="1.03" height="0.69"/><rect class="cls-131" x="794.4" y="213.15" width="1.03" height="0.69"/><rect class="cls-12" x="793.37" y="213.15" width="1.03" height="0.69"/><rect class="cls-131" x="793.37" y="213.15" width="1.03" height="0.69"/><rect class="cls-12" x="792.35" y="214.53" width="1.03" height="0.69"/><rect class="cls-132" x="792.35" y="214.53" width="1.03" height="0.69"/><rect class="cls-12" x="794.4" y="214.53" width="1.03" height="0.69"/><rect class="cls-132" x="794.4" y="214.53" width="1.03" height="0.69"/><rect class="cls-12" x="793.37" y="214.53" width="1.03" height="0.69"/><rect class="cls-132" x="793.37" y="214.53" width="1.03" height="0.69"/><polygon class="cls-68" points="796.32 218.65 796.46 218.65 796.46 216.93 794.4 216.93 794.4 217.97 793.38 217.97 793.38 216.93 791.66 216.93 791.66 218.6 796.2 218.6 796.32 218.65"/><polygon class="cls-133" points="796.32 218.65 796.46 218.65 796.46 216.93 794.4 216.93 794.4 217.97 793.38 217.97 793.38 216.93 791.66 216.93 791.66 218.6 796.2 218.6 796.32 218.65"/><polygon class="cls-68" points="796.2 218.6 791.66 218.6 791.66 218.65 796.32 218.65 796.2 218.6"/><polygon class="cls-134" points="796.2 218.6 791.66 218.6 791.66 218.65 796.32 218.65 796.2 218.6"/><rect class="cls-68" x="793.37" y="216.93" width="1.03" height="1.03"/><rect class="cls-135" x="793.37" y="216.93" width="1.03" height="1.03"/><polygon class="cls-12" points="792.98 230.35 807.1 230.35 807.1 234.82 809.16 234.82 809.16 228.97 792.83 228.97 792.98 230.35"/><polygon class="cls-136" points="792.98 230.35 807.1 230.35 807.1 234.82 809.16 234.82 809.16 228.97 792.83 228.97 792.98 230.35"/><polygon class="cls-12" points="809.16 236.54 807.1 236.54 807.1 240.66 794.15 240.66 794.35 242.38 809.16 242.38 809.16 236.54"/><polygon class="cls-137" points="809.16 236.54 807.1 236.54 807.1 240.66 794.15 240.66 794.35 242.38 809.16 242.38 809.16 236.54"/><polygon class="cls-22" points="807.1 234.82 807.1 230.35 792.98 230.35 793.49 234.82 807.1 234.82"/><polygon class="cls-138" points="807.1 234.82 807.1 230.35 792.98 230.35 793.49 234.82 807.1 234.82"/><polygon class="cls-22" points="794.15 240.66 807.1 240.66 807.1 236.54 793.68 236.54 794.15 240.66"/><polygon class="cls-139" points="794.15 240.66 807.1 240.66 807.1 236.54 793.68 236.54 794.15 240.66"/><rect class="cls-12" x="807.1" y="234.82" width="2.06" height="1.72"/><rect class="cls-140" x="807.1" y="234.82" width="2.06" height="1.72"/><polygon class="cls-12" points="793.49 234.82 793.68 236.54 807.1 236.54 807.1 234.82 793.49 234.82"/><polygon class="cls-140" points="793.49 234.82 793.68 236.54 807.1 236.54 807.1 234.82 793.49 234.82"/><polygon class="cls-12" points="795.59 253.39 811.2 253.39 811.2 257.86 813.96 257.86 813.96 252.01 795.44 252.01 795.59 253.39"/><polygon class="cls-141" points="795.59 253.39 811.2 253.39 811.2 257.86 813.96 257.86 813.96 252.01 795.44 252.01 795.59 253.39"/><polygon class="cls-12" points="811.2 263.71 796.76 263.71 796.95 265.37 811.81 265.43 813.96 265.43 813.96 259.58 811.2 259.58 811.2 263.71"/><polygon class="cls-142" points="811.2 263.71 796.76 263.71 796.95 265.37 811.81 265.43 813.96 265.43 813.96 259.58 811.2 259.58 811.2 263.71"/><polygon class="cls-12" points="796.96 265.43 811.81 265.43 796.95 265.37 796.96 265.43"/><polygon class="cls-143" points="796.96 265.43 811.81 265.43 796.95 265.37 796.96 265.43"/><polygon class="cls-22" points="811.2 257.86 811.2 253.39 795.59 253.39 796.1 257.86 811.2 257.86"/><polygon class="cls-144" points="811.2 257.86 811.2 253.39 795.59 253.39 796.1 257.86 811.2 257.86"/><polygon class="cls-22" points="811.2 259.58 796.3 259.58 796.76 263.71 811.2 263.71 811.2 259.58"/><polygon class="cls-145" points="811.2 259.58 796.3 259.58 796.76 263.71 811.2 263.71 811.2 259.58"/><rect class="cls-12" x="811.2" y="257.86" width="2.76" height="1.72"/><rect class="cls-146" x="811.2" y="257.86" width="2.76" height="1.72"/><polygon class="cls-12" points="796.3 259.58 811.2 259.58 811.2 257.86 796.1 257.86 796.3 259.58"/><polygon class="cls-146" points="796.3 259.58 811.2 259.58 811.2 257.86 796.1 257.86 796.3 259.58"/><polygon class="cls-12" points="813.02 282.28 798.87 282.28 799.02 283.65 816.02 283.65 816.02 278.15 813.02 278.15 813.02 282.28"/><polygon class="cls-147" points="813.02 282.28 798.87 282.28 799.02 283.65 816.02 283.65 816.02 278.15 813.02 278.15 813.02 282.28"/><polygon class="cls-12" points="797.7 271.96 813.02 271.96 813.02 276.43 816.02 276.43 816.02 270.59 797.54 270.59 797.7 271.96"/><polygon class="cls-148" points="797.7 271.96 813.02 271.96 813.02 276.43 816.02 276.43 816.02 270.59 797.54 270.59 797.7 271.96"/><polygon class="cls-12" points="799.06 284 816.02 284 816.02 283.65 799.02 283.65 799.06 284"/><polygon class="cls-149" points="799.06 284 816.02 284 816.02 283.65 799.02 283.65 799.06 284"/><polygon class="cls-22" points="813.02 276.43 813.02 271.96 797.7 271.96 798.2 276.43 813.02 276.43"/><polygon class="cls-150" points="813.02 276.43 813.02 271.96 797.7 271.96 798.2 276.43 813.02 276.43"/><polygon class="cls-22" points="813.02 278.15 798.4 278.15 798.87 282.28 813.02 282.28 813.02 278.15"/><polygon class="cls-151" points="813.02 278.15 798.4 278.15 798.87 282.28 813.02 282.28 813.02 278.15"/><rect class="cls-12" x="813.02" y="276.43" width="2.99" height="1.72"/><rect class="cls-152" x="813.02" y="276.43" width="2.99" height="1.72"/><polygon class="cls-12" points="798.4 278.15 813.02 278.15 813.02 276.43 798.2 276.43 798.4 278.15"/><polygon class="cls-152" points="798.4 278.15 813.02 278.15 813.02 276.43 798.2 276.43 798.4 278.15"/><path class="cls-17" d="M356.63,275.51c-.79-.78,1.57-10.24,1.57-10.24l.69.21c.06-.61.1-1,.1-1a35.21,35.21,0,0,0,9.82-4.73l-.78-1.18c-1.57,1.58-10.62,4.73-10.62,4.73s.4,7.09-3.53,9.46-8.65-3.16-8.65-3.16l-1.18,2a68.8,68.8,0,0,1,8.65,5.91c3.14,2.76-.12,10.64-.12,10.64h3.07C356.64,285.59,357.35,276.24,356.63,275.51Z"/><path class="cls-17" d="M360.56,276.72c1.87,0,5.66-2.83,7.9-4.63l.83-2.38-.08-.09c-2.36,2.76-10.17,4.9-10.62,3.55-.3-.91.1-5.59.3-7.67l-.69-.21s-2.36,9.46-1.57,10.24,0,10.08-1,12.65l5.9.08C358.6,285.59,360.56,276.72,360.56,276.72Z"/><path class="cls-18" d="M367.14,264.42a10.36,10.36,0,0,0,3.08-.84h4.13l-3.18-4.27c0-1.9-2.84-1.9-2.84-1.9A2.62,2.62,0,0,0,366,255a2.22,2.22,0,0,0-2.82,1.36s0,.05,0,.07.47-3.8-3.79-3.8-2.84,4.75-2.84,4.75-.48-1.43-2.85-1-.94,3.32-.94,3.32c-4,0-3,3.4-2.86,3.77a1.69,1.69,0,0,0,1,1.7c1.61,1,4.23-.81,5.32-1.67h1.49a11.68,11.68,0,0,0,4,.84,3.46,3.46,0,0,0,2.63-.84h1.12Z"/><path class="cls-19" d="M373.65,262.11a1.18,1.18,0,0,0-.29-1.9c-.82-.48-1.82.47-1.82.47s1.06-3.32-2.1-3.8a3.07,3.07,0,0,0-3.68,2.31v.07a1.21,1.21,0,0,0-1.58-.48,1,1,0,0,0-.6,1.28,1,1,0,0,0,.07.15,1.92,1.92,0,0,0-1.58-.95c-2.63-.48-2.63,2.85-2.63,2.85a2.43,2.43,0,0,0-2.7,1.21,1,1,0,0,0-.41,1v.2h.09c.42,1.52,7.37,1.31,10,0h1.3c.79.47,2.12,1.12,3.05.84a6.94,6.94,0,0,0,1.76-.84h1.7s2.08,0,2.1-.47C376.36,262.05,373.65,262.11,373.65,262.11Z"/><path class="cls-18" d="M350.35,271.32c0-1-1.25-1-1.25-1a.66.66,0,0,0,0-.92l-.11-.08c-.39-.25-.86.25-.86.25s.5-1.76-1-2a1.49,1.49,0,0,0-1.74,1.19.2.2,0,0,0,0,.07.56.56,0,0,0-1,.5.9.9,0,0,0-.75-.5c-1.25-.25-1.25,1.5-1.25,1.5a1.3,1.3,0,0,0-1.47,1.1.38.38,0,0,0,0,.15c0,.64,2.21.32,2.21,0a4.66,4.66,0,0,0,2.53.32l.95-.32H348a2.18,2.18,0,0,0,1.14.32c1,0,1.22-.47,1.22-.47A.11.11,0,0,0,350.35,271.32Z"/><path class="cls-18" d="M375.51,271.26C375.51,270,374,270,374,270a.82.82,0,0,0,0-1.14l-.14-.11c-.48-.31-1.07.31-1.07.31s.62-2.18-1.24-2.49a1.85,1.85,0,0,0-2.16,1.48s0,.05,0,.08a.7.7,0,0,0-.92-.32h0a.67.67,0,0,0-.32.91v0a1.1,1.1,0,0,0-.93-.62c-1.55-.31-1.55,1.87-1.55,1.87-1.56-.31-1.87,1.55-1.87,1.55s0,1.19,2,.79,2-.79,2-.79,1.14,1.19,2.32.79a7.53,7.53,0,0,0,1.76-.79s1.39,1.19,2.57.79a1.57,1.57,0,0,0,1.15-1A.12.12,0,0,0,375.51,271.26Z"/><path class="cls-153" d="M360.56,276.66c1.87,0,5.66-2.83,7.9-4.63l.83-2.38-.08-.09c-2.36,2.76-10.17,4.9-10.62,3.55-.3-.91.1-5.59.3-7.67l-.69-.21s-2.36,9.46-1.57,10.25,0,10.07-1,12.64l5.9.08C358.6,285.56,360.56,276.66,360.56,276.66Z"/><path class="cls-17" d="M714.18,275.51c-.79-.78,1.57-10.24,1.57-10.24l.69.21.1-1a35.27,35.27,0,0,0,9.83-4.73l-.79-1.18C724,260.15,715,263.3,715,263.3s.39,7.09-3.54,9.46-8.65-3.16-8.65-3.16l-1.18,2a68.8,68.8,0,0,1,8.65,5.91c3.14,2.76-.12,10.64-.12,10.64h3.07C714.19,285.59,714.9,276.24,714.18,275.51Z"/><path class="cls-17" d="M718.11,276.72c1.87,0,5.66-2.83,7.9-4.63l.84-2.38-.09-.09c-2.36,2.76-10.17,4.9-10.61,3.55-.31-.91.09-5.59.29-7.67l-.69-.21s-2.36,9.46-1.57,10.24,0,10.08-1,12.65l5.9.08C716.15,285.59,718.11,276.72,718.11,276.72Z"/><path class="cls-18" d="M724.69,264.42a10.36,10.36,0,0,0,3.08-.84h4.13l-3.18-4.27c0-1.9-2.84-1.9-2.84-1.9a2.62,2.62,0,0,0-2.37-2.38,2.22,2.22,0,0,0-2.82,1.36s0,.05,0,.07.47-3.8-3.79-3.8-2.84,4.75-2.84,4.75-.48-1.43-2.84-1-1,3.32-1,3.32c-4,0-3,3.4-2.86,3.77a1.69,1.69,0,0,0,1,1.7c1.61,1,4.23-.81,5.33-1.67h1.49a11.45,11.45,0,0,0,4,.84,3.46,3.46,0,0,0,2.63-.84h1.21Z"/><path class="cls-19" d="M731.2,262.11a1.18,1.18,0,0,0-.29-1.9c-.86-.49-1.86.51-1.86.51s1.06-3.32-2.1-3.8a3.07,3.07,0,0,0-3.68,2.31v.07a1.21,1.21,0,0,0-1.58-.48,1,1,0,0,0-.59,1.29.61.61,0,0,0,.07.14,2,2,0,0,0-1.58-.95c-2.64-.48-2.64,2.85-2.64,2.85a2.43,2.43,0,0,0-2.7,1.21,1,1,0,0,0-.41,1l-.05.2h.09c.42,1.52,7.37,1.31,10,0h1.3c.79.47,2.13,1.12,3.05.84a6.94,6.94,0,0,0,1.76-.84h1.7s2.09,0,2.1-.47C733.91,262.05,731.2,262.11,731.2,262.11Z"/><path class="cls-18" d="M707.9,271.32c0-1-1.25-1-1.25-1a.66.66,0,0,0,0-.92l-.11-.08c-.39-.25-.86.25-.86.25s.5-1.76-1-2a1.49,1.49,0,0,0-1.74,1.19.2.2,0,0,0,0,.07.57.57,0,0,0-.74-.29.56.56,0,0,0-.29.73l0,.06a.9.9,0,0,0-.75-.5c-1.25-.25-1.25,1.5-1.25,1.5a1.29,1.29,0,0,0-1.46,1.08v0a.2.2,0,0,0,0,.15c0,.64,2.21.32,2.21,0a4.7,4.7,0,0,0,2.54.32l.95-.32h1.38a2.22,2.22,0,0,0,1.15.32c1,0,1.21-.47,1.21-.47A.14.14,0,0,0,707.9,271.32Z"/><path class="cls-18" d="M733.05,271.26c0-1.28-1.55-1.24-1.55-1.24a.82.82,0,0,0-.06-1.16l-.12-.09c-.48-.31-1.07.31-1.07.31s.63-2.18-1.24-2.49a1.85,1.85,0,0,0-2.16,1.48s0,.05,0,.08a.7.7,0,0,0-1-.24.69.69,0,0,0-.29.86,1.1,1.1,0,0,0-.93-.62c-1.55-.31-1.55,1.87-1.55,1.87-1.55-.31-1.86,1.55-1.86,1.55s0,1.19,2,.79,2-.79,2-.79,1.15,1.19,2.33.79a7.72,7.72,0,0,0,1.76-.79s1.38,1.19,2.56.79a1.57,1.57,0,0,0,1.15-1A.17.17,0,0,0,733.05,271.26Z"/><path class="cls-154" d="M718.11,276.66c1.87,0,5.66-2.83,7.9-4.63l.84-2.38-.09-.09c-2.36,2.76-10.17,4.9-10.61,3.55-.31-.91.09-5.59.29-7.67l-.69-.21s-2.36,9.46-1.57,10.25,0,10.07-1,12.64l5.9.08C716.15,285.56,718.11,276.66,718.11,276.66Z"/><path class="cls-17" d="M166.05,275.51c-.79-.78,1.57-10.24,1.57-10.24l.69.21.1-1a35.27,35.27,0,0,0,9.83-4.73l-.79-1.18c-1.57,1.58-10.61,4.73-10.61,4.73s.39,7.09-3.54,9.46-8.65-3.16-8.65-3.16l-1.18,2a67.75,67.75,0,0,1,8.65,5.91c3.14,2.76-.12,10.64-.12,10.64h3.07C166.05,285.59,166.75,276.24,166.05,275.51Z"/><path class="cls-17" d="M170,276.72c1.87,0,5.66-2.83,7.9-4.63l.84-2.38-.09-.09c-2.36,2.76-10.17,4.9-10.61,3.55-.31-.91.09-5.59.29-7.67l-.69-.21s-2.36,9.43-1.54,10.22,0,10.08-1,12.65l5.9.08C168,285.59,170,276.72,170,276.72Z"/><path class="cls-18" d="M176.53,264.42a10.36,10.36,0,0,0,3.08-.84h4.13l-3.18-4.27c0-1.9-2.84-1.9-2.84-1.9a2.62,2.62,0,0,0-2.37-2.38,2.21,2.21,0,0,0-2.82,1.38l0,0s.48-3.8-3.79-3.8-2.84,4.75-2.84,4.75-.47-1.43-2.84-1-1,3.32-1,3.32c-4,0-3,3.4-2.86,3.77a1.71,1.71,0,0,0,1,1.7c1.62,1,4.23-.81,5.33-1.67h1.54a11.68,11.68,0,0,0,4,.84,3.46,3.46,0,0,0,2.63-.84h1.12Z"/><path class="cls-19" d="M183.05,262.11a1.18,1.18,0,0,0-.29-1.9c-.82-.48-1.81.47-1.81.47s1.05-3.32-2.11-3.8a3.07,3.07,0,0,0-3.68,2.31v.07a1.21,1.21,0,0,0-1.58-.48,1,1,0,0,0-.59,1.29.61.61,0,0,0,.07.14,2,2,0,0,0-1.58-.95c-2.63-.48-2.63,2.85-2.63,2.85a2.42,2.42,0,0,0-2.7,1.21,1,1,0,0,0-.41,1,.67.67,0,0,0,0,.2h.08c.42,1.52,7.37,1.31,10,0h1.24c.79.47,2.13,1.12,3.06.84a7.06,7.06,0,0,0,1.75-.84h1.7s2.09,0,2.1-.47C185.75,262.05,183.05,262.11,183.05,262.11Z"/><path class="cls-18" d="M159.74,271.32c0-1-1.25-1-1.25-1a.66.66,0,0,0,0-.92l-.11-.08c-.38-.25-.86.25-.86.25s.5-1.76-1-2a1.49,1.49,0,0,0-1.74,1.19.2.2,0,0,0,0,.07.57.57,0,0,0-.74-.29.56.56,0,0,0-.29.73l0,.06a.9.9,0,0,0-.75-.5c-1.25-.25-1.25,1.5-1.25,1.5a1.29,1.29,0,0,0-1.46,1.08v0a.38.38,0,0,0,0,.15c0,.64,2.22.32,2.22,0a4.66,4.66,0,0,0,2.53.32l.95-.32h1.38a2.22,2.22,0,0,0,1.15.32c1,0,1.21-.47,1.21-.47A.14.14,0,0,0,159.74,271.32Z"/><path class="cls-18" d="M184.9,271.26c0-1.28-1.55-1.24-1.55-1.24a.83.83,0,0,0,0-1.16l-.12-.09c-.49-.31-1.07.31-1.07.31s.62-2.18-1.25-2.49a1.85,1.85,0,0,0-2.16,1.48s0,.05,0,.08a.69.69,0,0,0-1.24.62,1.12,1.12,0,0,0-.94-.62C175,267.84,175,270,175,270c-1.55-.31-1.86,1.55-1.86,1.55s0,1.19,2,.79,2-.79,2-.79,1.15,1.19,2.33.79a7.53,7.53,0,0,0,1.76-.79s1.38,1.19,2.56.79a1.56,1.56,0,0,0,1.15-1A.17.17,0,0,0,184.9,271.26Z"/><path class="cls-155" d="M170,276.66c1.87,0,5.66-2.83,7.9-4.63l.84-2.38-.09-.09c-2.36,2.76-10.17,4.9-10.61,3.55-.31-.91.09-5.59.29-7.67l-.69-.21s-2.36,9.49-1.54,10.25,0,10.07-1,12.64l5.9.08C168,285.56,170,276.66,170,276.66Z"/><path class="cls-17" d="M68.94,268.06c1.24-1.25-2.5-16.25-2.5-16.25l-1.09.34c-.09-1-.15-1.59-.15-1.59a55.42,55.42,0,0,1-15.59-7.5l1.25-1.87c2.49,2.53,16.83,7.53,16.83,7.53s-.62,11.25,5.61,15,13.75-5,13.75-5l1.87,3.12s-8.72,5-13.71,9.38.19,16.87.19,16.87l-4.87.06C68.91,284,67.79,269.21,68.94,268.06Z"/><path class="cls-17" d="M62.7,269.94c-3,0-9-4.48-12.52-7.35l-1.33-3.77.14-.13c3.74,4.37,16.12,7.76,16.83,5.62.48-1.45-.15-8.86-.47-12.16l1.09-.34s3.74,15,2.5,16.25,0,16,1.55,20.06l-9.35.12C65.81,284.05,62.7,269.94,62.7,269.94Z"/><path class="cls-18" d="M52.27,250.46a16.21,16.21,0,0,1-4.88-1.32H40.84l5-6.78c0-3,4.51-3,4.51-3s0-3,3.76-3.77,4.5,2.26,4.5,2.26-.75-6,6-6,4.51,7.53,4.51,7.53.75-2.26,4.51-1.51,1.5,5.27,1.5,5.27c6.39,0,4.73,5.38,4.53,6,.11.85-.2,1.84-1.64,2.71-2.57,1.54-6.71-1.3-8.45-2.65H67.25a18.69,18.69,0,0,1-6.38,1.32c-2.44,0-3.62-.74-4.18-1.32H54.92Z"/><path class="cls-19" d="M41.94,246.8a1.85,1.85,0,0,1,0-2.63,2.08,2.08,0,0,1,.51-.37c1.29-.76,2.87.75,2.87.75s-1.67-5.27,3.34-6a4.86,4.86,0,0,1,5.82,3.65l0,.12a1.88,1.88,0,0,1,2.5-.75,1.58,1.58,0,0,1,1,2l-.12.26a3,3,0,0,1,2.5-1.51c4.18-.75,4.18,4.52,4.18,4.52a3.86,3.86,0,0,1,4.28,1.88,1.54,1.54,0,0,1,.65,1.51l.08.32h-.13c-.67,2.42-11.69,2.08-15.88,0H51.43c-1.25.74-3.37,1.77-4.85,1.33a10.17,10.17,0,0,1-2.78-1.33H41.11s-3.31,0-3.34-.75C37.65,246.72,41.94,246.8,41.94,246.8Z"/><path class="cls-18" d="M78.89,261.41c0-1.63,2-1.59,2-1.59a1,1,0,0,1,0-1.41,1,1,0,0,1,.23-.18c.62-.39,1.37.4,1.37.4s-.79-2.78,1.59-3.18a2.36,2.36,0,0,1,2.75,1.89s0,.07,0,.11a.89.89,0,1,1,1.64.68.54.54,0,0,1,0,.11,1.41,1.41,0,0,1,1.19-.79c2-.4,2,2.38,2,2.38a2,2,0,0,1,2.3,1.64s0,.07,0,.1a.54.54,0,0,1,.06.25c0,1-3.51.5-3.51,0,0,0-2.51,1-4,.5l-1.5-.5h-2.2a3.66,3.66,0,0,1-1.82.5c-1.5,0-1.92-.75-1.92-.75A.18.18,0,0,1,78.89,261.41Z"/><path class="cls-18" d="M39.05,261.32c-.08-2,2.46-2,2.46-2a1.27,1.27,0,0,1,0-1.82,1,1,0,0,1,.23-.18c.77-.5,1.7.49,1.7.49s-1-3.46,2-3.95a3,3,0,0,1,3.43,2.35s0,.08,0,.12a1.07,1.07,0,0,1,1.42-.52l.06,0a1.09,1.09,0,0,1,.51,1.44l0,0a1.75,1.75,0,0,1,1.48-1c2.46-.49,2.46,3,2.46,3,2.46-.49,2.95,2.47,2.95,2.47s0,1.88-3.11,1.25-3.17-1.25-3.17-1.25-1.82,1.88-3.69,1.25A12.27,12.27,0,0,1,45,261.79S42.83,263.67,41,263a2.45,2.45,0,0,1-1.91-1.59A.15.15,0,0,1,39.05,261.32Z"/><path class="cls-156" d="M62.7,269.87c-3,0-9-4.47-12.52-7.34l-1.33-3.81.14-.14c3.74,4.38,16.12,7.77,16.83,5.63.48-1.45-.15-8.86-.47-12.16l1.09-.34s3.74,15,2.5,16.25,0,16,1.55,20.06l-9.35.12C65.81,284,62.7,269.87,62.7,269.87Z"/></g></svg>