<svg id="Layer_1" data-name="Layer 1" xmlns="http://www.w3.org/2000/svg" xmlns:xlink="http://www.w3.org/1999/xlink" viewBox="0 0 534.06 16.6"><defs><style>.cls-1{fill:url(#linear-gradient);}.cls-2{fill:url(#linear-gradient-2);}</style><linearGradient id="linear-gradient" x1="-238.97" y1="90.02" x2="-103.22" y2="90.02" gradientTransform="translate(449.03 298.36) rotate(180)" gradientUnits="userSpaceOnUse"><stop offset="0" stop-color="#f4899e"/><stop offset="0.24" stop-color="#ef8ca2"/><stop offset="0.51" stop-color="#e295ad"/><stop offset="0.61" stop-color="#db99b3"/></linearGradient><linearGradient id="linear-gradient-2" x1="153.94" y1="85.47" x2="175.33" y2="85.47" gradientTransform="matrix(1, 0, 0, -1, -153.94, 98.32)" xlink:href="#linear-gradient"/></defs><title>river-01</title><path class="cls-1" d="M554.58,216.64H680.36a7.62,7.62,0,0,0,7.63-7.11c.26-4.49-3.36-9.44-20.59-9.44H569.52c-1.17-.1-6.38-.33-6.38,3.17,0,0-.38,2.27,5.8,1.63a7.55,7.55,0,0,1,.83,0h56.76s3.89-.4,3.89,3.55c0,3.32-3,3.28-4,3.18H555.93a7.92,7.92,0,0,1-.85,0c-.77-.1-2.83-.09-2.83,2.81a2.28,2.28,0,0,0,2.27,2.31Z" transform="translate(-153.94 -200.05)"/><rect class="cls-2" y="10.08" width="21.39" height="5.52" rx="2.52"/></svg>