<svg id="Layer_1" data-name="Layer 1" xmlns="http://www.w3.org/2000/svg" xmlns:xlink="http://www.w3.org/1999/xlink" viewBox="0 0 1918.28 1030.06"><defs><style>.cls-1,.cls-5{fill:#fff;}.cls-1,.cls-4{opacity:0.57;}.cls-2{fill:#aebdd1;opacity:0.79;}.cls-3{fill:url(#linear-gradient);}</style><linearGradient id="linear-gradient" x1="-13471.36" y1="9857.69" x2="-11554.84" y2="9857.69" gradientTransform="translate(-11554.08 10876.63) rotate(180)" gradientUnits="userSpaceOnUse"><stop offset="0" stop-color="#f4879c"/><stop offset="0.28" stop-color="#f48b9f"/><stop offset="0.57" stop-color="#f397a7"/><stop offset="0.85" stop-color="#f1abb5"/><stop offset="1" stop-color="#f0b9bf"/></linearGradient></defs><title>river-03</title><path class="cls-1" d="M11.42,1068a10,10,0,0,1-9.9-10L1.25,64.42A10,10,0,0,1,6.5,55.58c1.26-.67,8.15-4,20.06-4,12.81,0,33.61,4.1,59.94,23.59,29,21.46,58.91,57.1,88.93,105.94,24.64,40.09,41.89,88.11,52.73,146.81,9.48,51.38,13,104.33,16.48,155.53,5.23,77.92,10.17,151.53,35.32,207.41,66.78,148.46,135.81,225.13,205.17,227.88,1,0,2,.06,2.91.06,19.06,0,32.8-7.49,51.81-17.85C570,884.46,611.37,862,698.18,862c69.4,0,156.35,13.85,265.8,42.34,112.49,29.28,203.1,43.52,277,43.52,93.43,0,144.45-22.64,193.79-44.53,29.09-12.9,56.56-25.09,91.08-32.11,15.27-3.11,32.71-4.68,51.85-4.68,57.76,0,131.84,13.83,220.2,41.1,65.55,20.23,115,40.77,115.5,41a10,10,0,0,1,6.12,9.35l-1,100.18a10,10,0,0,1-9.89,9.9Z" transform="translate(-1.25 -51.53)"/><path class="cls-2" d="M1.25,76.9s61.49-32.66,157.5,121.92,45,376.6,105,508.62,132,230.43,216,233.72,78.4-118.62,481.74-14.7,438-6,572.2-33,385.8,76.83,385.8,76.83l-1,100.18H1.52Z" transform="translate(-1.25 -51.53)"/><polygon class="cls-3" points="1636.13 1030.06 1917.28 1030.06 1917.28 1007.82 0.75 1007.82 0.75 1030.06 1636.13 1030.06"/><g class="cls-4"><circle class="cls-5" cx="1188.47" cy="623.81" r="11.95"/><path class="cls-5" d="M270.89,202a83.44,83.44,0,0,1-47.3,29.95c-8.15,1.86-4.7,14.39,3.46,12.54a94.62,94.62,0,0,0,53-33.3C285.22,204.69,276.08,195.43,270.89,202Z" transform="translate(-1.25 -51.53)"/><path class="cls-5" d="M769.39,796c-8.37,0-8.38,13,0,13S777.77,796,769.39,796Z" transform="translate(-1.25 -51.53)"/><path class="cls-5" d="M1640.3,830.87c-7.3,7-16.8,12.93-27.28,12.49-8.74-.38-17.1-5.86-19.23-14.57-2-8.12-14.52-4.68-12.53,3.46,3.26,13.35,15.49,22.27,28.78,23.85,14.93,1.77,29-6,39.45-16C1655.55,834.28,1646.35,825.09,1640.3,830.87Z" transform="translate(-1.25 -51.53)"/><path class="cls-5" d="M289.39,180c-8.37,0-8.38,13,0,13S297.77,180,289.39,180Z" transform="translate(-1.25 -51.53)"/><path class="cls-5" d="M1583.39,798c-8.37,0-8.38,13,0,13S1591.77,798,1583.39,798Z" transform="translate(-1.25 -51.53)"/><path class="cls-5" d="M952.6,137.56A87.46,87.46,0,0,0,897,102.88c-8.18-1.39-11.7,11.13-3.45,12.54,18.84,3.2,36.38,13.2,47.81,28.7a74.31,74.31,0,0,1,12.82,58.46c-1.67,8.17,10.86,11.66,12.53,3.46C971.51,182.49,966.88,157.12,952.6,137.56Z" transform="translate(-1.25 -51.53)"/><path class="cls-5" d="M957.39,222c-8.37,0-8.38,13,0,13S965.77,222,957.39,222Z" transform="translate(-1.25 -51.53)"/><path class="cls-5" d="M1766.22,628.9c-41.63,9.92-75.88,43.6-86.61,85-2.1,8.1,10.44,11.56,12.54,3.46,9.64-37.22,40.15-67,77.53-75.93C1777.82,639.5,1774.37,627,1766.22,628.9Z" transform="translate(-1.25 -51.53)"/></g></svg>