<svg id="Layer_1" data-name="Layer 1" xmlns="http://www.w3.org/2000/svg" xmlns:xlink="http://www.w3.org/1999/xlink" viewBox="0 0 498.05 61.78"><defs><style>.cls-1{fill:url(#linear-gradient);}.cls-2{fill:url(#linear-gradient-2);}.cls-3{fill:url(#linear-gradient-3);}.cls-4{fill:url(#linear-gradient-4);}.cls-5{fill:url(#linear-gradient-5);}</style><linearGradient id="linear-gradient" x1="520.53" y1="-95.13" x2="629.69" y2="-95.13" gradientTransform="matrix(1, 0, 0, -1, -205.81, 31.49)" gradientUnits="userSpaceOnUse"><stop offset="0" stop-color="#f4899e"/><stop offset="0.24" stop-color="#ef8ca2"/><stop offset="0.51" stop-color="#e295ad"/><stop offset="0.61" stop-color="#db99b3"/></linearGradient><linearGradient id="linear-gradient-2" x1="496.75" y1="177.62" x2="524.36" y2="177.62" gradientTransform="matrix(1, 0, 0, -1, -176.48, 180.43)" xlink:href="#linear-gradient"/><linearGradient id="linear-gradient-3" x1="553.15" y1="148.85" x2="580.76" y2="148.85" gradientTransform="matrix(1, 0, 0, -1, -176.48, 180.43)" xlink:href="#linear-gradient"/><linearGradient id="linear-gradient-4" x1="646.92" y1="150.17" x2="674.53" y2="150.17" gradientTransform="matrix(1, 0, 0, -1, -176.48, 180.43)" xlink:href="#linear-gradient"/><linearGradient id="linear-gradient-5" x1="382.29" y1="-139.92" x2="518.02" y2="-139.92" xlink:href="#linear-gradient"/></defs><title>river-02</title><path class="cls-1" d="M420.44,129.63H398.23c-2.18,0-4-1.47-4-3.27s1.78-3.26,4-3.26h16.36a2.61,2.61,0,1,0,1-5.12,2.5,2.5,0,0,0-1,0H328.15a2.61,2.61,0,0,0-1,5.12,2.5,2.5,0,0,0,1,0h25.66c2.18,0,4,1.47,4,3.26s-1.78,3.27-4,3.27H318.17c-1.9,0-3.45,1.28-3.45,2.85s1.55,2.84,3.45,2.84H420.44c1.89,0,3.44-1.28,3.44-2.84A3.19,3.19,0,0,0,420.44,129.63Z" transform="translate(-176.48 -117.93)"/><rect class="cls-2" x="320.27" y="0.05" width="27.61" height="5.52" rx="2.52"/><rect class="cls-3" x="376.67" y="28.82" width="27.61" height="5.52" rx="2.52"/><rect class="cls-4" x="470.44" y="27.5" width="27.61" height="5.52" rx="2.52"/><path class="cls-5" d="M309.88,179.71H184.12a7.63,7.63,0,0,1-7.63-7.12c-.25-4.48,3.37-9.43,20.59-9.43h97.86c1.17-.09,6.38-.32,6.38,3.18,0,0,.37,2.26-5.81,1.62a7.55,7.55,0,0,0-.83-.05H268.26s-3.89-.39-3.89,3.55c0,3.33,3.05,3.28,4,3.19h40.16a6,6,0,0,0,.85-.05c.76-.09,2.83-.08,2.83,2.81a2.29,2.29,0,0,1-2.28,2.3Z" transform="translate(-176.48 -117.93)"/></svg>