<svg id="Layer_1" data-name="Layer 1" xmlns="http://www.w3.org/2000/svg" xmlns:xlink="http://www.w3.org/1999/xlink" viewBox="0 0 595.28 340.16"><defs><style>.cls-1,.cls-3{fill:#fff;}.cls-1,.cls-7{opacity:0.57;}.cls-2{fill:#aebdd1;opacity:0.79;}.cls-4{fill:#807097;}.cls-5{fill:#9d83a0;}.cls-6{fill:url(#linear-gradient);}</style><linearGradient id="linear-gradient" x1="-13472.25" y1="9851.47" x2="-12877.63" y2="9851.47" gradientTransform="translate(-12876.84 10188.17) rotate(180)" gradientUnits="userSpaceOnUse"><stop offset="0" stop-color="#f4889d"/><stop offset="0.29" stop-color="#f48ca0"/><stop offset="0.57" stop-color="#f298a8"/><stop offset="0.85" stop-color="#f0acb5"/><stop offset="1" stop-color="#efb9be"/></linearGradient></defs><title>river-03</title><path class="cls-1" d="M2.71,335.93a3.09,3.09,0,0,1-3.07-3.11L-.45,24a3.11,3.11,0,0,1,1.63-2.74A13.71,13.71,0,0,1,7.42,20c4,0,10.44,1.27,18.63,7.33,9,6.67,18.3,17.75,27.63,32.92,7.66,12.46,13,27.39,16.39,45.63,3,16,4.05,32.42,5.12,48.34,1.63,24.21,3.17,47.09,11,64.46,20.76,46.14,42.21,70,63.76,70.82l.91,0c5.92,0,10.19-2.33,16.1-5.55,9.38-5.11,22.23-12.11,49.21-12.11,21.57,0,48.59,4.31,82.61,13.16,35,9.1,63.12,13.53,86.08,13.53,29,0,44.9-7,60.23-13.84,9-4,17.58-7.8,28.31-10a81.9,81.9,0,0,1,16.11-1.45c17.95,0,41,4.29,68.43,12.77,20.38,6.29,35.75,12.67,35.9,12.73a3.14,3.14,0,0,1,1.91,2.91l-.31,31.13a3.09,3.09,0,0,1-3.08,3.08Z"/><path class="cls-2" d="M-.45,27.91s19.11-10.15,49,37.89,14,117.05,32.64,158.08,41,71.61,67.13,72.63,24.37-36.86,149.72-4.57,136.13-1.86,177.83-10.25,119.91,23.88,119.91,23.88l-.32,31.13H-.36Z"/><circle class="cls-3" cx="157.05" cy="263.35" r="1.45"/><circle class="cls-3" cx="245" cy="296.75" r="1.45"/><circle class="cls-3" cx="159.23" cy="259.28" r="0.73"/><circle class="cls-3" cx="243.55" cy="292.6" r="0.73"/><circle class="cls-3" cx="157.05" cy="255.96" r="0.73"/><circle class="cls-3" cx="67.21" cy="296.71" r="1.45"/><circle class="cls-3" cx="65.03" cy="292.63" r="0.73"/><circle class="cls-3" cx="67.21" cy="289.31" r="0.73"/><circle class="cls-3" cx="287.23" cy="265.95" r="0.73"/><circle class="cls-3" cx="288.68" cy="263.1" r="0.73"/><circle class="cls-3" cx="562.53" cy="237.59" r="0.73"/><circle class="cls-3" cx="563.98" cy="234.74" r="0.73"/><circle class="cls-3" cx="488.11" cy="296.21" r="0.73"/><circle class="cls-3" cx="486.65" cy="293.37" r="0.73"/><circle class="cls-3" cx="245" cy="289.16" r="0.73"/><path class="cls-4" d="M73.32,293.23a1.48,1.48,0,0,1,1.28-2.13c2.07-.4,7-.62,9.43,1.15a3.74,3.74,0,0,0,2,.85s-1.3,1.94-2.49,1.16C83.57,294.26,81.54,291.69,73.32,293.23Z"/><path class="cls-4" d="M81.85,300.16a2.53,2.53,0,0,0,2.53,1.76,6.22,6.22,0,0,0,3.07-.62s-1.24-.51-1-1.37-1.62-.59-1.62-.59l-.68,0Z"/><path class="cls-4" d="M88,295.93s1-2.17,1.67-2.11,1.56,1.59,1.56,3.62c0,1.87-.54,3.53-1.07,3.55s-2.1-1.75-2.1-1.75Z"/><path class="cls-5" d="M69.39,296.81c2.63-2.1,1-4.5,8.84-4.18,6.11.25,5.62,2.67,8,3.89a.71.71,0,0,0,.73,0,8.27,8.27,0,0,1,1-.59,2.34,2.34,0,0,1,.06,3.41l-.93-.56a1.18,1.18,0,0,0-.69-.09,8.58,8.58,0,0,0-2.42.74,18.63,18.63,0,0,1-6.23,1.51C76.14,301,71.05,301.05,69.39,296.81Z"/><path class="cls-4" d="M73.2,300.34a3.06,3.06,0,0,0,2.3,2.73s-.25-1.22.4-1.53-1.37-.59-1.51-.87Z"/><path class="cls-4" d="M494.68,292.3a1.48,1.48,0,0,1,1.28-2.13c2.07-.41,7-.63,9.43,1.15a3.74,3.74,0,0,0,2,.85s-1.29,1.94-2.48,1.16C504.93,293.33,502.9,290.76,494.68,292.3Z"/><path class="cls-4" d="M503.21,299.23a2.52,2.52,0,0,0,2.53,1.75,6.35,6.35,0,0,0,3.07-.61s-1.24-.51-1-1.37-1.62-.59-1.62-.59l-.69-.05Z"/><path class="cls-4" d="M509.32,295s1-2.17,1.66-2.11,1.57,1.59,1.57,3.62c0,1.86-.55,3.53-1.07,3.55s-2.1-1.75-2.1-1.75Z"/><path class="cls-5" d="M490.75,295.88c2.63-2.11,1.05-4.51,8.84-4.18,6.11.25,5.61,2.67,8,3.89a.71.71,0,0,0,.73,0,6.48,6.48,0,0,1,1-.59,2.34,2.34,0,0,1,.06,3.41l-.94-.56a1.14,1.14,0,0,0-.68-.09,8.85,8.85,0,0,0-2.42.73,18.16,18.16,0,0,1-6.23,1.51C497.5,300,492.4,300.12,490.75,295.88Z"/><path class="cls-4" d="M494.56,299.41a3.06,3.06,0,0,0,2.29,2.73s-.24-1.22.41-1.53-1.37-.59-1.51-.88Z"/><path class="cls-4" d="M281.5,262.21a1.51,1.51,0,0,0-1.24-2.22c-2.1-.48-7.11-.86-9.67.88a3.83,3.83,0,0,1-2.1.8s1.26,2,2.51,1.26C271,262.93,273.15,260.38,281.5,262.21Z"/><path class="cls-4" d="M272.56,269a2.56,2.56,0,0,1-2.63,1.71,6.55,6.55,0,0,1-3.12-.72s1.29-.49,1.07-1.38,1.67-.55,1.67-.55l.7,0Z"/><path class="cls-4" d="M266.46,264.5s-.91-2.24-1.64-2.2-1.64,1.57-1.71,3.64c-.06,1.91.45,3.62,1,3.67s2.2-1.73,2.2-1.73Z"/><path class="cls-5" d="M285.4,266c-2.62-2.23-.93-4.63-8.9-4.55-6.25.06-5.82,2.55-8.31,3.72a.75.75,0,0,1-.75-.07,7.54,7.54,0,0,0-1-.64,2.39,2.39,0,0,0-.17,3.48l1-.54a1.19,1.19,0,0,1,.7-.07,8.7,8.7,0,0,1,2.45.83,19.07,19.07,0,0,0,6.31,1.74C278.37,270,283.58,270.27,285.4,266Z"/><path class="cls-4" d="M281.4,269.47a3.13,3.13,0,0,1-2.43,2.72s.28-1.24-.36-1.58,1.41-.56,1.56-.84Z"/><path class="cls-4" d="M556.61,233.93a1.51,1.51,0,0,0-1.24-2.22c-2.1-.48-7.12-.86-9.67.87a3.82,3.82,0,0,1-2.1.81s1.26,2,2.51,1.26C546.11,234.65,548.26,232.1,556.61,233.93Z"/><path class="cls-4" d="M547.67,240.73a2.56,2.56,0,0,1-2.63,1.72,6.47,6.47,0,0,1-3.12-.73s1.29-.48,1.07-1.37,1.67-.55,1.67-.55l.7,0Z"/><path class="cls-4" d="M541.57,236.22s-.91-2.24-1.64-2.2-1.65,1.57-1.71,3.64c-.06,1.9.45,3.62,1,3.66s2.2-1.72,2.2-1.72Z"/><path class="cls-5" d="M560.51,237.71c-2.62-2.24-.93-4.64-8.9-4.55-6.25.06-5.82,2.55-8.31,3.72a.73.73,0,0,1-.75-.08,7.1,7.1,0,0,0-1-.63,2.39,2.39,0,0,0-.17,3.48l1-.54a1.19,1.19,0,0,1,.7-.07,8.25,8.25,0,0,1,2.44.83,19.2,19.2,0,0,0,6.32,1.74C553.48,241.73,558.69,242,560.51,237.71Z"/><path class="cls-4" d="M556.51,241.19a3.13,3.13,0,0,1-2.43,2.72s.28-1.24-.37-1.58,1.42-.56,1.57-.84Z"/><path class="cls-4" d="M152.24,263.73a1.21,1.21,0,0,0-1.13-1.7c-1.72-.26-5.76-.26-7.71,1.29a3.09,3.09,0,0,1-1.63.77s1.13,1.55,2.08.86C143.85,265,145.43,262.77,152.24,263.73Z"/><path class="cls-4" d="M145.47,269.74a2.06,2.06,0,0,1-2,1.54,5.3,5.3,0,0,1-2.55-.39s1-.47.77-1.17,1.31-.55,1.31-.55l.56-.05Z"/><path class="cls-4" d="M140.3,266.49s-.86-1.75-1.44-1.67-1.23,1.36-1.16,3,.58,2.88,1,2.88,1.66-1.51,1.66-1.51Z"/><path class="cls-5" d="M155.6,266.53c-2.24-1.64-1-3.67-7.42-3.11-5,.43-4.52,2.4-6.45,3.49a.59.59,0,0,1-.6,0,5.87,5.87,0,0,0-.83-.45,1.93,1.93,0,0,0,.07,2.8l.75-.49a1,1,0,0,1,.56-.1,7.24,7.24,0,0,1,2,.51,15.15,15.15,0,0,0,5.17,1C150.2,270.19,154.39,270.07,155.6,266.53Z"/><path class="cls-4" d="M152.59,269.57a2.51,2.51,0,0,1-1.78,2.33s.15-1-.39-1.25,1.1-.53,1.21-.77Z"/><path class="cls-4" d="M234.43,291.43s1.23-3.14-2.45-3.69-12.49-.56-16.71,2.8c0,0-1.85,1.68-3.54,1.68,0,0,2.45,3.35,4.52,1.86C216.25,294.08,219.66,289.35,234.43,291.43Z"/><path class="cls-4" d="M219.77,304.46a4.49,4.49,0,0,1-4.36,3.33,11.29,11.29,0,0,1-5.53-.84s2.18-1,1.68-2.53,2.85-1.19,2.85-1.19l1.21-.12Z"/><path class="cls-4" d="M208.56,297.41s-1.89-3.78-3.14-3.62-2.66,3-2.51,6.57c.15,3.32,1.26,6.25,2.2,6.25s3.6-3.29,3.6-3.29Z"/><path class="cls-5" d="M241.71,297.49c-4.85-3.53-2.22-7.94-16.08-6.74-10.87.94-9.79,5.21-14,7.58a1.28,1.28,0,0,1-1.31,0,10.72,10.72,0,0,0-1.8-1s-3,3.21.17,6.07l1.63-1.07a2.1,2.1,0,0,1,1.21-.21,15.16,15.16,0,0,1,4.37,1.11,32.86,32.86,0,0,0,11.22,2.2C230,305.43,239.1,305.18,241.71,297.49Z"/><path class="cls-4" d="M235.2,304.09a5.45,5.45,0,0,1-3.87,5.05s.33-2.19-.84-2.7,2.39-1.16,2.62-1.68Z"/><polygon class="cls-6" points="508.18 340.16 595.41 340.16 595.41 333.25 0.79 333.25 0.79 340.16 508.18 340.16"/><g class="cls-7"><circle class="cls-3" cx="368.91" cy="213.9" r="3.71"/><path class="cls-3" d="M83.35,66.79a25.94,25.94,0,0,1-14.7,9.31c-2.53.57-1.46,4.47,1.08,3.89A29.39,29.39,0,0,0,86.21,69.65C87.81,67.63,85,64.75,83.35,66.79Z"/><path class="cls-3" d="M238.28,251.4c-2.6,0-2.61,4,0,4S240.88,251.4,238.28,251.4Z"/><path class="cls-3" d="M509,262.24c-2.27,2.16-5.23,4-8.48,3.88a6.29,6.29,0,0,1-6-4.53c-.61-2.53-4.51-1.46-3.89,1.07a10.26,10.26,0,0,0,8.94,7.42c4.64.55,9-1.88,12.26-5C513.69,263.29,510.83,260.44,509,262.24Z"/><path class="cls-3" d="M89.1,60c-2.6,0-2.6,4,0,4S91.7,60,89.1,60Z"/><path class="cls-3" d="M491.26,252c-2.6,0-2.61,4,0,4S493.86,252,491.26,252Z"/><path class="cls-3" d="M295.22,46.77A27.15,27.15,0,0,0,277.94,36c-2.54-.44-3.63,3.46-1.07,3.89A22.68,22.68,0,0,1,295.71,67c-.51,2.54,3.38,3.63,3.9,1.08A27.14,27.14,0,0,0,295.22,46.77Z"/><path class="cls-3" d="M296.71,73c-2.6,0-2.61,4,0,4S299.31,73,296.71,73Z"/><path class="cls-3" d="M548.08,199.47a37.16,37.16,0,0,0-26.92,26.42c-.65,2.52,3.25,3.59,3.9,1.07a33.1,33.1,0,0,1,24.1-23.6C551.68,202.76,550.61,198.86,548.08,199.47Z"/></g></svg>