<svg id="Layer_1" data-name="Layer 1" xmlns="http://www.w3.org/2000/svg" xmlns:xlink="http://www.w3.org/1999/xlink" viewBox="0 0 134.57 52.45"><defs><style>.cls-1{fill:#f59362;}.cls-2{fill:url(#linear-gradient);}</style><linearGradient id="linear-gradient" x1="353.81" y1="85.41" x2="478.21" y2="85.41" gradientTransform="matrix(1, 0, 0, -1, 0, 298.36)" gradientUnits="userSpaceOnUse"><stop offset="0" stop-color="#f4899e"/><stop offset="0.16" stop-color="#f48d9f"/><stop offset="0.36" stop-color="#f69ba5"/><stop offset="0.57" stop-color="#f8b3ae"/><stop offset="0.61" stop-color="#f9bab2"/><stop offset="1" stop-color="#feddc0"/></linearGradient></defs><title>sun</title><ellipse class="cls-1" cx="112.07" cy="22.66" rx="22.5" ry="22.66"/><path class="cls-2" d="M376,234.39H478.21S477.75,212,450.45,219c0,0,3.71-5.59-2.77-6.52,0,0,4.16-7.92-3.24-15.84s-21.28-4.65-24.05,4.66c0,0-3.7-12.57-16.66-9.31s-17.58,10.71-15.26,21c0,0-12,0-9.26,10.71,0,0-6-4.19-7.4,1.87,0,0-16.65-1.87-18,8.85Z" transform="translate(-353.81 -181.98)"/></svg>