<svg id="Layer_1" data-name="Layer 1" xmlns="http://www.w3.org/2000/svg" viewBox="0 0 595.28 595.28"><defs><style>.cls-1{fill:#b3d059;}.cls-2{fill:#7b9fba;}</style></defs><title>world</title><circle class="cls-1" cx="297.64" cy="293.39" r="273.38"/><path class="cls-2" d="M90.05,148.56c23.82-34,53.12-59.88,88.58-78.76C218.39,48.62,260.94,39.18,306,39.93c9.94.16,14.83,2.84,14.38,13.9-.83,20.54,5.92,38.88,19.18,54.63,8.62,10.25,17.67,20.14,26.28,30.4,13.13,15.63,29.46,21.22,49.85,19.23,25-2.45,25.87-1.3,16.8,22.1-6.05,15.63-15.31,30-22.2,45.34-3.37,7.51-6.4,16-6.48,24-.3,27.9,6.73,54.34,18.46,79.67,7.92,17.09,20.93,25,39.56,24,10.21-.55,20.41-1.45,30.63-1.73C509.88,351,527.71,364,532,380.7a20.66,20.66,0,0,1-1.19,12.17,235.83,235.83,0,0,1-47.57,73.23c-2.82,3-8.73,4.92-12.83,4.39a443.17,443.17,0,0,1-108.2-28c-7.65-3.08-14.79-8.21-21.1-13.64-13.89-12-27-24.82-40.61-37.15s-28-21-47.76-14.39c-22.06,7.43-38.32,20.34-46.44,42.69-4.09,11.24-1,21.48,3.27,31.74C216,467,224,481.81,228,497.66c2.95,11.7.58,24.75.58,37.27C177.72,533.26,88.81,458.08,69.67,402c9.44-1.43,18.88-2,27.85-4.39,16.28-4.31,32.72-8.62,48.26-15,13.07-5.32,15.21-12.22,12.75-26.37-6.18-35.4-.39-42.84,35.31-42.91,19.86,0,35.43-6.56,46.86-23.39,10.3-15.16,22-29.38,32.53-44.38,8.44-12,9.36-29.06-.74-39.2-16.83-16.89-35.41-32.1-54.07-47-3-2.41-11.23-1.2-15.31,1.23-7.14,4.26-13.4,10.34-19.18,16.47-5.51,5.83-11.62,7.75-19,5.87C138.31,176.26,114,164.62,90.05,148.56ZM288.93,335.32c.19,14.55,13.21,28.18,26.38,27.64,13.77-.58,26.91-14.66,27-29,.13-15.34-11.41-26.88-26.59-26.57C300.29,307.73,288.72,319.77,288.93,335.32Z"/><path class="cls-1" d="M79.23,166.41c24.68,11,47.45,22.05,71,31.26,18.66,7.32,36.69,6.23,50.49-11.46,3-3.78,7.15-6.58,12.25-11.17,14.88,13.31,29.75,25.68,43.4,39.26,6.36,6.32,7.16,14.9.9,23.07-10.71,14-21.51,28-31.42,42.51-7.59,11.14-17.93,15.21-30.6,15.42-3.17.05-6.35.05-9.52.08-35.28.39-52.19,19.51-46.65,54.24,2.26,14.18,6.19,16.42-13.66,22-17.88,5-36.37,7.81-54.61,11.44-6.93,1.38-11.13-1.36-13.37-8.42C34.82,303.34,41.13,234.92,77.12,169.32a15.34,15.34,0,0,1,1.75-2.62C79.3,166.19,80,165.88,79.23,166.41Z"/><path class="cls-1" d="M541.44,359.74C524,334.25,500.08,331.38,473.73,334c-27.7,2.79-32,.37-40.6-26.41a283.14,283.14,0,0,1-11-52.53c-.9-7.53,2.48-16.57,6.44-23.49,12.17-21.26,23.06-42.87,26.72-67.38,2.48-16.59-3.36-24.08-20-25.16a217.84,217.84,0,0,0-28.56.41c-9.44.64-17.37-1.61-23.64-9-11.21-13.13-23-25.78-33.59-39.42C339,77.64,337.09,61.7,338.89,45,485.65,63.33,582.93,220.43,541.44,359.74Z"/><path class="cls-1" d="M460,488.72c-64.65,50.63-135.41,68.12-215.49,52.83,1-6.53,2.19-11.95,2.74-17.42,2-20.46-.71-40-10.88-58.29-3.59-6.45-6.19-13.45-9.67-20-7.51-14.05-3.7-26.34,7-36.16,6.55-6,14.94-10.28,23.06-14.19,8.63-4.16,17.1-2.67,24.48,4,8.91,8,19,14.93,26.81,23.9,24.48,28.28,56.3,42.55,91.68,50.83C419.23,478.77,438.61,483.55,460,488.72Z"/><path class="cls-1" d="M318.8,324.76c1.57,3.21,5.13,7.17,4.26,9.47-1.43,3.82-5.7,6.57-8.78,9.77-2.44-3-7.1-6.33-6.8-9.06.41-3.72,4.61-7,7.19-10.5Z"/></svg>