<svg xmlns="http://www.w3.org/2000/svg" xmlns:xlink="http://www.w3.org/1999/xlink" viewBox="0 0 1920 4353.2"><defs><style>.cls-1,.cls-18,.cls-24,.cls-27,.cls-28,.cls-29,.cls-33,.cls-34{fill:none;}.cls-2{isolation:isolate;}.cls-3{fill:url(#linear-gradient);}.cls-4{clip-path:url(#clip-path);}.cls-5{fill:#bbce95;}.cls-6{fill:url(#linear-gradient-2);}.cls-7{fill:url(#linear-gradient-3);}.cls-8{fill:#fff;}.cls-9{fill:url(#linear-gradient-4);}.cls-10{fill:url(#linear-gradient-5);}.cls-11{fill:url(#linear-gradient-6);}.cls-12{fill:#b58d76;}.cls-13{fill:#525b52;}.cls-14,.cls-19{fill:#e8e8d6;}.cls-15{fill:#c97378;}.cls-16,.cls-37{fill:#6874d6;opacity:0.18;}.cls-16{mix-blend-mode:multiply;}.cls-17{fill:#ffeb99;}.cls-18,.cls-19,.cls-28{stroke:#c97378;}.cls-18,.cls-24,.cls-34{stroke-linecap:round;}.cls-18,.cls-24{stroke-linejoin:round;stroke-width:7.33px;}.cls-19,.cls-27,.cls-28,.cls-29,.cls-33,.cls-34{stroke-miterlimit:10;}.cls-19,.cls-28{stroke-width:2.75px;}.cls-20{fill:#f7eac4;}.cls-21{fill:#ffcfcf;}.cls-22{opacity:0.81;}.cls-23{opacity:0.74;}.cls-24{stroke:#6b7f6e;}.cls-25{fill:#c2ccb0;}.cls-26{fill:#a2b286;}.cls-27,.cls-29{stroke:#fff;}.cls-27{stroke-width:0.92px;}.cls-29{stroke-width:1.83px;}.cls-30{fill:#e9f2d1;}.cls-31{fill:#6b7f6e;}.cls-32{fill:#e2eff7;}.cls-33,.cls-34{stroke:#c69254;stroke-width:3.66px;}.cls-35{fill:#7a523f;}.cls-36{fill:#9aca98;}.cls-38{fill:#6b5a39;}.cls-39{fill:url(#linear-gradient-7);}</style><linearGradient id="linear-gradient" x1="931.96" y1="490.78" x2="1005.47" y2="6253.81" gradientUnits="userSpaceOnUse"><stop offset="0" stop-color="#9ac69b"/><stop offset="1" stop-color="#9cc899"/></linearGradient><clipPath id="clip-path"><rect class="cls-1" x="-0.25" y="1.08" width="1926.5" height="1079"/></clipPath><linearGradient id="linear-gradient-2" x1="959.49" y1="1161.96" x2="959.49" y2="822.96" gradientUnits="userSpaceOnUse"><stop offset="0" stop-color="#b4d68e"/><stop offset="1" stop-color="#67a3b9"/></linearGradient><linearGradient id="linear-gradient-3" x1="453.79" y1="292.57" x2="453.79" y2="-93.95" gradientUnits="userSpaceOnUse"><stop offset="0" stop-color="#9cca7d"/><stop offset="0.22" stop-color="#c8d286"/><stop offset="0.44" stop-color="#f0d98e"/><stop offset="0.56" stop-color="#ffdc91"/><stop offset="0.72" stop-color="#ffe298"/><stop offset="0.95" stop-color="#fff4ad"/><stop offset="1" stop-color="#fff9b2"/></linearGradient><linearGradient id="linear-gradient-4" x1="1136.62" y1="785.6" x2="1136.62" y2="381.95" xlink:href="#linear-gradient-3"/><linearGradient id="linear-gradient-5" x1="1215.85" y1="514.28" x2="1419.85" y2="514.28" gradientUnits="userSpaceOnUse"><stop offset="0" stop-color="#9cca7d"/><stop offset="0.26" stop-color="#9fca7c"/><stop offset="0.45" stop-color="#a8cb7b"/><stop offset="0.62" stop-color="#b8cb77"/><stop offset="0.77" stop-color="#cfcd73"/><stop offset="0.92" stop-color="#ebce6d"/><stop offset="1" stop-color="#ffcf69"/></linearGradient><linearGradient id="linear-gradient-6" x1="1213.86" y1="640.68" x2="1213.86" y2="390.95" xlink:href="#linear-gradient-3"/><linearGradient id="linear-gradient-7" x1="1121.7" y1="341.57" x2="1121.7" y2="-44.95" xlink:href="#linear-gradient-3"/></defs><title>BG</title><g class="cls-2"><g id="Layer_1" data-name="Layer 1"><rect class="cls-3" x="-1.01" y="851.05" width="1920.18" height="3530.48"/><g class="cls-4"><rect class="cls-5" x="-3.26" y="-2.92" width="1925.5" height="770"/><rect class="cls-6" x="-3.26" y="744.08" width="1925.5" height="339"/><path class="cls-7" d="M657.48,167.17a67.37,67.37,0,0,0-103.15-56.79A27,27,0,0,0,544,108.1a47.59,47.59,0,0,0-66.17-36,47.59,47.59,0,0,0-91.43,5.21,46.79,46.79,0,0,0-52.59,10A18.63,18.63,0,0,0,304,102.09c0,.23,0,.45,0,.67a60.63,60.63,0,0,0-53.87,60.18c0,1.66.07,3.31.2,4.94-.07.07-.14.13-.2.2H657.47c0-.29,0-.57,0-.86Z"/><path class="cls-8" d="M928.35,593c0-19.11-16.91-34.6-37.75-34.6a40.13,40.13,0,0,0-20.09,5.31,16.23,16.23,0,0,0-5.78-1.17c-2-11.69-13-20.63-26.34-20.63A28.58,28.58,0,0,0,827.62,544c-3.59-9.61-7.76-18.21-22.53-21.6-17.9-4.1-30.59,7.64-33.22,18.62-3.28-1.36-2.43,3.55-6.26,3.55a27.33,27.33,0,0,0-18.75,7.25,11,11,0,0,0-6.31-1.95c-5.77,0-10.45,4.29-10.45,9.58,0,.11,0,.23,0,.34-17,1.75-30.21,15-30.21,31,0,.86,0,1.71.11,2.55l-.11.1H928.35V593Z"/><path class="cls-8" d="M439,130.11a16.54,16.54,0,0,0-25.33-14,6.68,6.68,0,0,0-2.53-.56,11.68,11.68,0,0,0-11.54-9.83,11.8,11.8,0,0,0-4.72,1c-1.57-4.57-3.4-8.67-9.86-10.28a11.79,11.79,0,0,0-14.55,8.87c-1.44-.65-1.07,1.69-2.75,1.69a11.44,11.44,0,0,0-8.21,3.45,4.58,4.58,0,0,0-7.34,3.63v.17a14.89,14.89,0,0,0-13.23,14.78c0,.41,0,.81.05,1.21l-.05.05H439v-.21Z"/><path class="cls-8" d="M1334.74,639.71c0-8-7.07-14.44-15.77-14.44a16.8,16.8,0,0,0-8.4,2.21,6.81,6.81,0,0,0-2.41-.49c-.84-4.88-5.45-8.62-11-8.62a12.06,12.06,0,0,0-4.5.87c-1.5-4-3.24-7.6-9.41-9-7.48-1.71-12.78,3.19-13.88,7.78-1.37-.57-1,1.48-2.61,1.48a11.41,11.41,0,0,0-7.84,3,4.58,4.58,0,0,0-2.63-.81,4.2,4.2,0,0,0-4.37,4s0,.09,0,.14c-7.1.73-12.62,6.26-12.62,13a9.47,9.47,0,0,0,0,1.07l0,0h95.42c0-.06,0-.12,0-.18Z"/><path class="cls-9" d="M916.55,745.26s-2.77-30.89,32-30.89c0,0-11.91-44.93,31.75-45.87,0,0-11.91-26.21,10.92-29s20.84,10.3,20.84,10.3-3-58,61.52-73.95,83.36,50.55,77.4,63.65c0,0,19.85-35.57,50.61-18.72s23.82,46.8,21.84,47.74,17.86-13.1,26.79,0c0,0,7.94,9.36,0,20.59,0,0,24.81-19.65,45.65-7.48s21.83,37.44,21.83,37.44,15.88-12.17,33.74,1.87c0,0,5.32,7.37,5.32,24.22Z"/><path class="cls-10" d="M1215.88,554s-1.28-14.26,14.75-14.26c0,0-5.49-20.75,14.66-21.18,0,0-5.49-12.1,5-13.4s9.63,4.76,9.63,4.76-1.38-26.8,28.4-34.15,38.49,23.34,35.74,29.39c0,0,9.16-16.42,23.37-8.64s11,21.61,10.07,22,8.25-6,12.38,0a7.79,7.79,0,0,1,0,9.51s11.45-9.08,21.07-3.46,10.08,17.29,10.08,17.29,7.33-5.62,15.58.86c0,0,3.2,2.6,3.2,10.38Z"/><path class="cls-11" d="M1350,555c0-22.78-20.17-41.24-45-41.24a47.9,47.9,0,0,0-24,6.32,19.5,19.5,0,0,0-6.89-1.4c-2.38-13.93-15.53-24.59-31.4-24.59a34.09,34.09,0,0,0-12.83,2.48c-4.29-11.46-9.26-21.71-26.86-25.74-21.35-4.9-36.48,9.1-39.61,22.19-3.91-1.62-2.9,4.23-7.47,4.23a32.57,32.57,0,0,0-22.35,8.65,13.1,13.1,0,0,0-7.52-2.33c-6.88,0-12.45,5.11-12.45,11.42,0,.14,0,.27,0,.41-20.27,2.09-36,17.85-36,37,0,1,0,2,.13,3l-.13.12H1350c0-.17,0-.35,0-.52Z"/><rect class="cls-12" x="505.54" y="573.26" width="229.54" height="171.88"/><polygon class="cls-13" points="525.7 498.73 499.8 573.26 738.9 573.26 716.98 497.85 525.7 498.73"/><rect class="cls-14" x="543.73" y="589.11" width="26.52" height="35.59"/><path class="cls-15" d="M568.88,590.48v32.84H545.11V590.48h23.77m2.75-2.75H542.36v38.34h29.27V587.73Z"/><rect class="cls-14" x="542.36" y="612.27" width="29.27" height="2.3"/><polygon class="cls-15" points="571.63 612.27 542.36 612.27 542.36 614.57 571.63 614.57 571.63 612.27 571.63 612.27"/><rect class="cls-14" x="555.74" y="587.73" width="2.51" height="38.34"/><polygon class="cls-15" points="558.25 587.73 555.74 587.73 555.74 626.07 558.25 626.07 558.25 587.73 558.25 587.73"/><rect class="cls-14" x="542.36" y="599.23" width="29.27" height="2.3"/><polygon class="cls-15" points="571.63 599.24 542.36 599.24 542.36 601.53 571.63 601.53 571.63 599.24 571.63 599.24"/><rect class="cls-14" x="606.45" y="589.11" width="26.52" height="35.59"/><path class="cls-15" d="M631.6,590.48v32.84H607.82V590.48H631.6m2.75-2.75H605.08v38.34h29.27V587.73Z"/><rect class="cls-14" x="605.08" y="612.27" width="29.27" height="2.3"/><polygon class="cls-15" points="634.35 612.27 605.08 612.27 605.08 614.57 634.35 614.57 634.35 612.27 634.35 612.27"/><rect class="cls-14" x="618.46" y="587.73" width="2.51" height="38.34"/><polygon class="cls-15" points="620.97 587.73 618.46 587.73 618.46 626.07 620.97 626.07 620.97 587.73 620.97 587.73"/><rect class="cls-14" x="605.08" y="599.23" width="29.27" height="2.3"/><polygon class="cls-15" points="634.35 599.24 605.08 599.24 605.08 601.53 634.35 601.53 634.35 599.24 634.35 599.24"/><rect class="cls-14" x="669.17" y="589.11" width="26.52" height="35.59"/><path class="cls-15" d="M694.32,590.48v32.84H670.54V590.48h23.78m2.74-2.75H667.79v38.34h29.27V587.73Z"/><rect class="cls-14" x="667.79" y="612.27" width="29.27" height="2.3"/><polygon class="cls-15" points="697.06 612.27 667.79 612.27 667.79 614.57 697.06 614.57 697.06 612.27 697.06 612.27"/><rect class="cls-14" x="681.17" y="587.73" width="2.51" height="38.34"/><polygon class="cls-15" points="683.68 587.73 681.17 587.73 681.17 626.07 683.68 626.07 683.68 587.73 683.68 587.73"/><rect class="cls-14" x="667.79" y="599.23" width="29.27" height="2.3"/><polygon class="cls-15" points="697.06 599.24 667.79 599.24 667.79 601.53 697.06 601.53 697.06 599.24 697.06 599.24"/><rect class="cls-14" x="544.15" y="644.7" width="26.52" height="35.59"/><path class="cls-15" d="M569.3,646.07v32.84H545.52V646.07H569.3m2.75-2.75H542.78v38.34h29.27V643.32Z"/><rect class="cls-14" x="542.78" y="667.86" width="29.27" height="2.3"/><polygon class="cls-15" points="572.05 667.86 542.78 667.86 542.78 670.16 572.05 670.16 572.05 667.86 572.05 667.86"/><rect class="cls-14" x="556.16" y="643.32" width="2.51" height="38.34"/><polygon class="cls-15" points="558.67 643.32 556.16 643.32 556.16 681.66 558.67 681.66 558.67 643.32 558.67 643.32"/><rect class="cls-14" x="542.78" y="654.82" width="29.27" height="2.3"/><polygon class="cls-15" points="572.05 654.82 542.78 654.82 542.78 657.12 572.05 657.12 572.05 654.82 572.05 654.82"/><rect class="cls-14" x="605.91" y="644.7" width="26.52" height="35.59"/><path class="cls-15" d="M631.06,646.07v32.84H607.29V646.07h23.77m2.75-2.75H604.54v38.34h29.27V643.32Z"/><rect class="cls-14" x="604.54" y="667.86" width="29.27" height="2.3"/><polygon class="cls-15" points="633.81 667.86 604.54 667.86 604.54 670.16 633.81 670.16 633.81 667.86 633.81 667.86"/><rect class="cls-14" x="617.92" y="643.32" width="2.51" height="38.34"/><polygon class="cls-15" points="620.43 643.32 617.92 643.32 617.92 681.66 620.43 681.66 620.43 643.32 620.43 643.32"/><rect class="cls-14" x="604.54" y="654.82" width="29.27" height="2.3"/><polygon class="cls-15" points="633.81 654.82 604.54 654.82 604.54 657.12 633.81 657.12 633.81 654.82 633.81 654.82"/><rect class="cls-14" x="668.63" y="644.7" width="26.52" height="35.59"/><path class="cls-15" d="M693.78,646.07v32.84H670V646.07h23.78m2.74-2.75H667.26v38.34h29.26V643.32Z"/><rect class="cls-14" x="667.26" y="667.86" width="29.27" height="2.3"/><polygon class="cls-15" points="696.52 667.86 667.26 667.86 667.26 670.16 696.52 670.16 696.52 667.86 696.52 667.86"/><rect class="cls-14" x="680.64" y="643.32" width="2.51" height="38.34"/><polygon class="cls-15" points="683.14 643.32 680.64 643.32 680.64 681.66 683.14 681.66 683.14 643.32 683.14 643.32"/><rect class="cls-14" x="667.26" y="654.82" width="29.27" height="2.3"/><polygon class="cls-15" points="696.52 654.82 667.26 654.82 667.26 657.12 696.52 657.12 696.52 654.82 696.52 654.82"/><rect class="cls-14" x="544.57" y="700.29" width="26.52" height="35.59"/><path class="cls-15" d="M569.72,701.66V734.5H545.94V701.66h23.78m2.74-2.75H543.2v38.34h29.26V698.91Z"/><rect class="cls-14" x="543.2" y="723.45" width="29.27" height="2.3"/><polygon class="cls-15" points="572.46 723.45 543.2 723.45 543.2 725.75 572.46 725.75 572.46 723.45 572.46 723.45"/><rect class="cls-14" x="556.58" y="698.91" width="2.51" height="38.34"/><polygon class="cls-15" points="559.08 698.91 556.58 698.91 556.58 737.25 559.08 737.25 559.08 698.91 559.08 698.91"/><rect class="cls-14" x="543.2" y="710.41" width="29.27" height="2.3"/><polygon class="cls-15" points="572.46 710.41 543.2 710.41 543.2 712.71 572.46 712.71 572.46 710.41 572.46 710.41"/><rect class="cls-14" x="669.05" y="700.29" width="26.52" height="35.59"/><path class="cls-15" d="M694.2,701.66V734.5H670.42V701.66H694.2m2.74-2.75H667.67v38.34h29.27V698.91Z"/><rect class="cls-14" x="667.67" y="723.45" width="29.27" height="2.3"/><polygon class="cls-15" points="696.94 723.45 667.67 723.45 667.67 725.75 696.94 725.75 696.94 723.45 696.94 723.45"/><rect class="cls-14" x="681.05" y="698.91" width="2.51" height="38.34"/><polygon class="cls-15" points="683.56 698.91 681.05 698.91 681.05 737.25 683.56 737.25 683.56 698.91 683.56 698.91"/><rect class="cls-14" x="667.67" y="710.41" width="29.27" height="2.3"/><polygon class="cls-15" points="696.94 710.41 667.67 710.41 667.67 712.71 696.94 712.71 696.94 710.41 696.94 710.41"/><path class="cls-13" d="M619.45,699.1h1.72a18.75,18.75,0,0,1,18.75,18.75V744.7a0,0,0,0,1,0,0H600.7a0,0,0,0,1,0,0V717.85A18.75,18.75,0,0,1,619.45,699.1Z"/><polygon class="cls-16" points="551.92 498.61 579.51 573.26 600.7 573.26 656.18 745.14 734.6 745.14 735.07 573.26 738.42 572.83 717.38 497.41 551.92 498.61"/><polygon class="cls-17" points="800.11 514.51 735.07 601.33 735.07 745.14 861.32 745.14 861.32 601.33 800.11 514.51"/><rect class="cls-14" x="759.49" y="607.87" width="26.52" height="35.59"/><path class="cls-15" d="M784.64,609.24v32.84H760.86V609.24h23.78m2.74-2.75H758.11v38.34h29.27V606.49Z"/><rect class="cls-14" x="758.11" y="631.03" width="29.27" height="2.3"/><polygon class="cls-15" points="787.38 631.03 758.11 631.03 758.11 633.33 787.38 633.33 787.38 631.03 787.38 631.03"/><rect class="cls-14" x="771.49" y="606.49" width="2.51" height="38.34"/><polygon class="cls-15" points="774 606.49 771.49 606.49 771.49 644.83 774 644.83 774 606.49 774 606.49"/><rect class="cls-14" x="758.11" y="617.99" width="29.27" height="2.3"/><polygon class="cls-15" points="787.38 617.99 758.11 617.99 758.11 620.29 787.38 620.29 787.38 617.99 787.38 617.99"/><rect class="cls-14" x="811.13" y="607.87" width="26.52" height="35.59"/><path class="cls-15" d="M836.28,609.24v32.84H812.51V609.24h23.77m2.75-2.75H809.76v38.34H839V606.49Z"/><rect class="cls-14" x="809.76" y="631.03" width="29.27" height="2.3"/><polygon class="cls-15" points="839.03 631.03 809.76 631.03 809.76 633.33 839.03 633.33 839.03 631.03 839.03 631.03"/><rect class="cls-14" x="823.14" y="606.49" width="2.51" height="38.34"/><polygon class="cls-15" points="825.65 606.49 823.14 606.49 823.14 644.83 825.65 644.83 825.65 606.49 825.65 606.49"/><rect class="cls-14" x="809.76" y="617.99" width="29.27" height="2.3"/><polygon class="cls-15" points="839.03 617.99 809.76 617.99 809.76 620.29 839.03 620.29 839.03 617.99 839.03 617.99"/><rect class="cls-14" x="759.49" y="660.48" width="26.52" height="35.59"/><path class="cls-15" d="M784.64,661.85V694.7H760.86V661.85h23.78m2.74-2.74H758.11v38.33h29.27V659.11Z"/><rect class="cls-14" x="758.11" y="683.64" width="29.27" height="2.3"/><polygon class="cls-15" points="787.38 683.64 758.11 683.64 758.11 685.94 787.38 685.94 787.38 683.64 787.38 683.64"/><rect class="cls-14" x="771.49" y="659.11" width="2.51" height="38.34"/><polygon class="cls-15" points="774 659.11 771.49 659.11 771.49 697.45 774 697.45 774 659.11 774 659.11"/><rect class="cls-14" x="758.11" y="670.61" width="29.27" height="2.3"/><polygon class="cls-15" points="787.38 670.61 758.11 670.61 758.11 672.91 787.38 672.91 787.38 670.61 787.38 670.61"/><rect class="cls-14" x="811.13" y="660.48" width="26.52" height="35.59"/><path class="cls-15" d="M836.28,661.85V694.7H812.51V661.85h23.77m2.75-2.74H809.76v38.33H839V659.11Z"/><rect class="cls-14" x="809.76" y="683.64" width="29.27" height="2.3"/><polygon class="cls-15" points="839.03 683.64 809.76 683.64 809.76 685.94 839.03 685.94 839.03 683.64 839.03 683.64"/><rect class="cls-14" x="823.14" y="659.11" width="2.51" height="38.34"/><polygon class="cls-15" points="825.65 659.11 823.14 659.11 823.14 697.45 825.65 697.45 825.65 659.11 825.65 659.11"/><rect class="cls-14" x="809.76" y="670.61" width="29.27" height="2.3"/><polygon class="cls-15" points="839.03 670.61 809.76 670.61 809.76 672.91 839.03 672.91 839.03 670.61 839.03 670.61"/><polyline class="cls-18" points="864.19 601.33 800.11 511 732.2 601.33"/><polygon class="cls-16" points="765.2 564.28 809.67 744.26 861.32 744.26 861.32 603.08 800.35 517.58 765.2 564.28"/><rect class="cls-19" x="791.02" y="571.95" width="14.35" height="21.05"/><rect class="cls-20" x="403.2" y="489.08" width="28.69" height="21.05"/><rect class="cls-12" x="419.95" y="444.08" width="36.1" height="9"/><rect class="cls-20" x="422.96" y="424.08" width="30.09" height="20"/><rect class="cls-12" x="419.95" y="421.08" width="36.1" height="3"/><rect class="cls-21" x="1110.98" y="559.78" width="246.23" height="184.38"/><rect class="cls-15" x="1357.21" y="589.88" width="135.43" height="154.27"/><polygon class="cls-15" points="1132.61 479.82 1104.83 559.78 1361.32 559.78 1337.81 478.88 1132.61 479.82"/><polygon class="cls-15" points="1426.98 496.76 1357.21 589.88 1492.64 589.88 1426.98 496.76"/><g class="cls-22"><rect class="cls-14" x="1151.86" y="576.68" width="28.65" height="38.38"/><path class="cls-13" d="M1179.13,578.05v35.63h-25.9V578.05h25.9m2.75-2.75h-31.4v41.13h31.4V575.3Z"/><rect class="cls-14" x="1150.48" y="601.62" width="31.4" height="2.47"/><polygon class="cls-13" points="1181.88 601.62 1150.48 601.62 1150.48 604.09 1181.88 604.09 1181.88 601.62 1181.88 601.62"/><rect class="cls-14" x="1164.84" y="575.3" width="2.69" height="41.13"/><polygon class="cls-13" points="1167.53 575.3 1164.84 575.3 1164.84 616.43 1167.53 616.43 1167.53 575.3 1167.53 575.3"/><rect class="cls-14" x="1150.48" y="587.64" width="31.4" height="2.47"/><polygon class="cls-13" points="1181.88 587.64 1150.48 587.64 1150.48 590.11 1181.88 590.11 1181.88 587.64 1181.88 587.64"/></g><g class="cls-22"><rect class="cls-14" x="1219.14" y="576.68" width="28.65" height="38.38"/><path class="cls-13" d="M1246.41,578.05v35.63h-25.9V578.05h25.9m2.75-2.75h-31.4v41.13h31.4V575.3Z"/><rect class="cls-14" x="1217.76" y="601.62" width="31.4" height="2.47"/><polygon class="cls-13" points="1249.16 601.62 1217.76 601.62 1217.76 604.09 1249.16 604.09 1249.16 601.62 1249.16 601.62"/><rect class="cls-14" x="1232.11" y="575.3" width="2.69" height="41.13"/><polygon class="cls-13" points="1234.81 575.3 1232.11 575.3 1232.11 616.43 1234.81 616.43 1234.81 575.3 1234.81 575.3"/><rect class="cls-14" x="1217.76" y="587.64" width="31.4" height="2.47"/><polygon class="cls-13" points="1249.16 587.64 1217.76 587.64 1217.76 590.11 1249.16 590.11 1249.16 587.64 1249.16 587.64"/></g><g class="cls-22"><rect class="cls-14" x="1286.41" y="576.68" width="28.65" height="38.38"/><path class="cls-13" d="M1313.69,578.05v35.63h-25.9V578.05h25.9m2.75-2.75H1285v41.13h31.4V575.3Z"/><rect class="cls-14" x="1285.04" y="601.62" width="31.4" height="2.47"/><polygon class="cls-13" points="1316.44 601.62 1285.04 601.62 1285.04 604.09 1316.44 604.09 1316.44 601.62 1316.44 601.62"/><rect class="cls-14" x="1299.39" y="575.3" width="2.69" height="41.13"/><polygon class="cls-13" points="1302.08 575.3 1299.39 575.3 1299.39 616.43 1302.08 616.43 1302.08 575.3 1302.08 575.3"/><rect class="cls-14" x="1285.04" y="587.64" width="31.4" height="2.47"/><polygon class="cls-13" points="1316.44 587.64 1285.04 587.64 1285.04 590.11 1316.44 590.11 1316.44 587.64 1316.44 587.64"/></g><g class="cls-22"><rect class="cls-14" x="1152.31" y="636.31" width="28.65" height="38.38"/><path class="cls-13" d="M1179.58,637.68v35.63h-25.9V637.68h25.9m2.75-2.74h-31.4v41.12h31.4V634.94Z"/><rect class="cls-14" x="1150.93" y="661.26" width="31.4" height="2.47"/><polygon class="cls-13" points="1182.33 661.26 1150.93 661.26 1150.93 663.72 1182.33 663.72 1182.33 661.26 1182.33 661.26"/><rect class="cls-14" x="1165.28" y="634.94" width="2.69" height="41.13"/><polygon class="cls-13" points="1167.97 634.93 1165.28 634.93 1165.28 676.06 1167.97 676.06 1167.97 634.93 1167.97 634.93"/><rect class="cls-14" x="1150.93" y="647.27" width="31.4" height="2.47"/><polygon class="cls-13" points="1182.33 647.27 1150.93 647.27 1150.93 649.74 1182.33 649.74 1182.33 647.27 1182.33 647.27"/></g><g class="cls-23"><rect class="cls-14" x="1218.56" y="636.31" width="28.65" height="38.38"/><path class="cls-13" d="M1245.83,637.68v35.63h-25.9V637.68h25.9m2.75-2.74h-31.4v41.12h31.4V634.94Z"/><rect class="cls-14" x="1217.18" y="661.26" width="31.4" height="2.47"/><polygon class="cls-13" points="1248.58 661.26 1217.18 661.26 1217.18 663.72 1248.58 663.72 1248.58 661.26 1248.58 661.26"/><rect class="cls-14" x="1231.54" y="634.94" width="2.69" height="41.13"/><polygon class="cls-13" points="1234.23 634.93 1231.54 634.93 1231.54 676.06 1234.23 676.06 1234.23 634.93 1234.23 634.93"/><rect class="cls-14" x="1217.18" y="647.27" width="31.4" height="2.47"/><polygon class="cls-13" points="1248.58 647.27 1217.18 647.27 1217.18 649.74 1248.58 649.74 1248.58 647.27 1248.58 647.27"/></g><g class="cls-22"><rect class="cls-14" x="1285.84" y="636.31" width="28.65" height="38.38"/><path class="cls-13" d="M1313.11,637.68v35.63h-25.9V637.68h25.9m2.75-2.74h-31.4v41.12h31.4V634.94Z"/><rect class="cls-14" x="1284.46" y="661.26" width="31.4" height="2.47"/><polygon class="cls-13" points="1315.86 661.26 1284.46 661.26 1284.46 663.72 1315.86 663.72 1315.86 661.26 1315.86 661.26"/><rect class="cls-14" x="1298.82" y="634.94" width="2.69" height="41.13"/><polygon class="cls-13" points="1301.51 634.93 1298.82 634.93 1298.82 676.06 1301.51 676.06 1301.51 634.93 1301.51 634.93"/><rect class="cls-14" x="1284.46" y="647.27" width="31.4" height="2.47"/><polygon class="cls-13" points="1315.86 647.27 1284.46 647.27 1284.46 649.74 1315.86 649.74 1315.86 647.27 1315.86 647.27"/></g><rect class="cls-14" x="1383.3" y="596.8" width="28.65" height="38.38"/><path class="cls-13" d="M1410.58,598.17V633.8h-25.9V598.17h25.9m2.75-2.74h-31.4v41.12h31.4V595.43Z"/><rect class="cls-14" x="1381.93" y="621.75" width="31.4" height="2.47"/><polygon class="cls-13" points="1413.33 621.75 1381.93 621.75 1381.93 624.21 1413.33 624.21 1413.33 621.75 1413.33 621.75"/><rect class="cls-14" x="1396.28" y="595.43" width="2.69" height="41.13"/><polygon class="cls-13" points="1398.97 595.43 1396.28 595.43 1396.28 636.55 1398.97 636.55 1398.97 595.43 1398.97 595.43"/><rect class="cls-14" x="1381.93" y="607.76" width="31.4" height="2.47"/><polygon class="cls-13" points="1413.33 607.76 1381.93 607.76 1381.93 610.23 1413.33 610.23 1413.33 607.76 1413.33 607.76"/><rect class="cls-14" x="1438.7" y="596.8" width="28.65" height="38.38"/><path class="cls-13" d="M1466,598.17V633.8h-25.9V598.17H1466m2.75-2.74h-31.4v41.12h31.4V595.43Z"/><rect class="cls-14" x="1437.33" y="621.75" width="31.4" height="2.47"/><polygon class="cls-13" points="1468.73 621.75 1437.33 621.75 1437.33 624.21 1468.73 624.21 1468.73 621.75 1468.73 621.75"/><rect class="cls-14" x="1451.68" y="595.43" width="2.69" height="41.13"/><polygon class="cls-13" points="1454.37 595.43 1451.68 595.43 1451.68 636.55 1454.37 636.55 1454.37 595.43 1454.37 595.43"/><rect class="cls-14" x="1437.33" y="607.76" width="31.4" height="2.47"/><polygon class="cls-13" points="1468.73 607.76 1437.33 607.76 1437.33 610.23 1468.73 610.23 1468.73 607.76 1468.73 607.76"/><rect class="cls-14" x="1383.3" y="653.24" width="28.65" height="38.38"/><path class="cls-13" d="M1410.58,654.62v35.63h-25.9V654.62h25.9m2.75-2.75h-31.4V693h31.4V651.87Z"/><rect class="cls-14" x="1381.93" y="678.19" width="31.4" height="2.47"/><polygon class="cls-13" points="1413.33 678.19 1381.93 678.19 1381.93 680.66 1413.33 680.66 1413.33 678.19 1413.33 678.19"/><rect class="cls-14" x="1396.28" y="651.87" width="2.69" height="41.13"/><polygon class="cls-13" points="1398.97 651.87 1396.28 651.87 1396.28 692.99 1398.97 692.99 1398.97 651.87 1398.97 651.87"/><rect class="cls-14" x="1381.93" y="664.21" width="31.4" height="2.47"/><polygon class="cls-13" points="1413.33 664.21 1381.93 664.21 1381.93 666.67 1413.33 666.67 1413.33 664.21 1413.33 664.21"/><rect class="cls-14" x="1438.7" y="653.24" width="28.65" height="38.38"/><path class="cls-13" d="M1466,654.62v35.63h-25.9V654.62H1466m2.75-2.75h-31.4V693h31.4V651.87Z"/><rect class="cls-14" x="1437.33" y="678.19" width="31.4" height="2.47"/><polygon class="cls-13" points="1468.73 678.19 1437.33 678.19 1437.33 680.66 1468.73 680.66 1468.73 678.19 1468.73 678.19"/><rect class="cls-14" x="1451.68" y="651.87" width="2.69" height="41.13"/><polygon class="cls-13" points="1454.37 651.87 1451.68 651.87 1451.68 692.99 1454.37 692.99 1454.37 651.87 1454.37 651.87"/><rect class="cls-14" x="1437.33" y="664.21" width="31.4" height="2.47"/><polygon class="cls-13" points="1468.73 664.21 1437.33 664.21 1437.33 666.67 1468.73 666.67 1468.73 664.21 1468.73 664.21"/><g class="cls-22"><rect class="cls-14" x="1152.75" y="695.94" width="28.65" height="38.38"/><path class="cls-13" d="M1180,697.31V733h-25.9V697.31H1180m2.75-2.74h-31.4v41.12h31.4V694.57Z"/><rect class="cls-14" x="1151.38" y="720.89" width="31.4" height="2.47"/><polygon class="cls-13" points="1182.78 720.89 1151.38 720.89 1151.38 723.36 1182.78 723.36 1182.78 720.89 1182.78 720.89"/><rect class="cls-14" x="1165.73" y="694.57" width="2.69" height="41.13"/><polygon class="cls-13" points="1168.42 694.57 1165.73 694.57 1165.73 735.69 1168.42 735.69 1168.42 694.57 1168.42 694.57"/><rect class="cls-14" x="1151.38" y="706.9" width="31.4" height="2.47"/><polygon class="cls-13" points="1182.78 706.9 1151.38 706.9 1151.38 709.37 1182.78 709.37 1182.78 706.9 1182.78 706.9"/></g><g class="cls-22"><rect class="cls-14" x="1286.29" y="695.94" width="28.65" height="38.38"/><path class="cls-13" d="M1313.56,697.31V733h-25.9V697.31h25.9m2.75-2.74h-31.4v41.12h31.4V694.57Z"/><rect class="cls-14" x="1284.91" y="720.89" width="31.4" height="2.47"/><polygon class="cls-13" points="1316.31 720.89 1284.91 720.89 1284.91 723.36 1316.31 723.36 1316.31 720.89 1316.31 720.89"/><rect class="cls-14" x="1299.26" y="694.57" width="2.69" height="41.13"/><polygon class="cls-13" points="1301.95 694.57 1299.26 694.57 1299.26 735.69 1301.95 735.69 1301.95 694.57 1301.95 694.57"/><rect class="cls-14" x="1284.91" y="706.9" width="31.4" height="2.47"/><polygon class="cls-13" points="1316.31 706.9 1284.91 706.9 1284.91 709.37 1316.31 709.37 1316.31 706.9 1316.31 706.9"/></g><path class="cls-13" d="M1233.18,694.77H1235a20.11,20.11,0,0,1,20.11,20.11v28.81a0,0,0,0,1,0,0h-42.06a0,0,0,0,1,0,0V714.88A20.11,20.11,0,0,1,1233.18,694.77Z"/><polygon class="cls-16" points="1160.74 478.41 1190.33 559.78 1213.07 559.78 1272.58 744.16 1356.7 744.16 1357.21 559.78 1360.8 559.31 1338.23 478.41 1160.74 478.41"/><polyline class="cls-24" points="1495.72 589.88 1426.98 492.99 1354.13 589.88"/><polygon class="cls-16" points="1388.06 548.71 1437.24 743.22 1492.64 743.22 1492.64 589.88 1424.92 492.99 1388.06 548.71"/><polygon class="cls-17" points="1586.07 413.25 1492.92 537.6 1492.92 743.58 1673.74 743.58 1673.74 537.6 1586.07 413.25"/><rect class="cls-14" x="1527.3" y="546.37" width="39.17" height="52.16"/><path class="cls-13" d="M1565.09,547.74v49.42h-36.42V547.74h36.42m2.75-2.75h-41.92V599.9h41.92V545Z"/><rect class="cls-14" x="1527.3" y="581.51" width="39.17" height="0.55"/><polygon class="cls-13" points="1567.84 580.14 1525.92 580.14 1525.92 583.43 1567.84 583.43 1567.84 580.14 1567.84 580.14"/><rect class="cls-14" x="1546.46" y="546.37" width="0.84" height="52.16"/><polygon class="cls-13" points="1548.68 545 1545.09 545 1545.09 599.9 1548.68 599.9 1548.68 545 1548.68 545"/><rect class="cls-14" x="1527.3" y="562.84" width="39.17" height="0.55"/><polygon class="cls-13" points="1567.84 561.47 1525.92 561.47 1525.92 564.76 1567.84 564.76 1567.84 561.47 1567.84 561.47"/><rect class="cls-14" x="1601.27" y="546.37" width="39.17" height="52.16"/><path class="cls-13" d="M1639.06,547.74v49.42h-36.42V547.74h36.42m2.75-2.75h-41.92V599.9h41.92V545Z"/><rect class="cls-14" x="1601.27" y="581.51" width="39.17" height="0.55"/><polygon class="cls-13" points="1641.81 580.14 1599.89 580.14 1599.89 583.43 1641.81 583.43 1641.81 580.14 1641.81 580.14"/><rect class="cls-14" x="1620.43" y="546.37" width="0.84" height="52.16"/><polygon class="cls-13" points="1622.65 545 1619.06 545 1619.06 599.9 1622.65 599.9 1622.65 545 1622.65 545"/><rect class="cls-14" x="1601.27" y="562.84" width="39.17" height="0.55"/><polygon class="cls-13" points="1641.81 561.47 1599.89 561.47 1599.89 564.76 1641.81 564.76 1641.81 561.47 1641.81 561.47"/><rect class="cls-14" x="1527.3" y="621.73" width="39.17" height="52.16"/><path class="cls-13" d="M1565.09,623.1v49.41h-36.42V623.1h36.42m2.75-2.75h-41.92v54.91h41.92V620.35Z"/><rect class="cls-14" x="1527.3" y="656.87" width="39.17" height="0.55"/><polygon class="cls-13" points="1567.84 655.5 1525.92 655.5 1525.92 658.79 1567.84 658.79 1567.84 655.5 1567.84 655.5"/><rect class="cls-14" x="1546.46" y="621.73" width="0.84" height="52.16"/><polygon class="cls-13" points="1548.68 620.35 1545.09 620.35 1545.09 675.26 1548.68 675.26 1548.68 620.35 1548.68 620.35"/><rect class="cls-14" x="1527.3" y="638.2" width="39.17" height="0.55"/><polygon class="cls-13" points="1567.84 636.83 1525.92 636.83 1525.92 640.12 1567.84 640.12 1567.84 636.83 1567.84 636.83"/><rect class="cls-14" x="1601.27" y="621.73" width="39.17" height="52.16"/><path class="cls-13" d="M1639.06,623.1v49.41h-36.42V623.1h36.42m2.75-2.75h-41.92v54.91h41.92V620.35Z"/><rect class="cls-14" x="1601.27" y="656.87" width="39.17" height="0.55"/><polygon class="cls-13" points="1641.81 655.5 1599.89 655.5 1599.89 658.79 1641.81 658.79 1641.81 655.5 1641.81 655.5"/><rect class="cls-14" x="1620.43" y="621.73" width="0.84" height="52.16"/><polygon class="cls-13" points="1622.65 620.35 1619.06 620.35 1619.06 675.26 1622.65 675.26 1622.65 620.35 1622.65 620.35"/><rect class="cls-14" x="1601.27" y="638.2" width="39.17" height="0.55"/><polygon class="cls-13" points="1641.81 636.83 1599.89 636.83 1599.89 640.12 1641.81 640.12 1641.81 636.83 1641.81 636.83"/><polyline class="cls-24" points="1677.85 537.6 1586.07 408.23 1488.81 537.6"/><polygon class="cls-16" points="1534.1 482.62 1599.77 742.32 1673.74 742.32 1673.74 537.6 1583.33 408.23 1534.1 482.62"/><polygon class="cls-25" points="1012.43 745.58 1038.26 608.78 1075.84 608.78 1104.25 745.58 1012.43 745.58"/><path class="cls-26" d="M1055.94,589.93h1.93a21,21,0,0,1,21,21v4.4a0,0,0,0,1,0,0h-44a0,0,0,0,1,0,0V611A21,21,0,0,1,1055.94,589.93Z"/><polygon class="cls-27" points="1146.95 702.69 1066.46 641.95 1084.7 621.64 1165.18 682.38 1146.95 702.69"/><line class="cls-27" x1="1143.94" y1="664.65" x2="1125.1" y2="685.64"/><line class="cls-27" x1="1147.63" y1="667.43" x2="1128.79" y2="688.42"/><line class="cls-27" x1="1150.72" y1="670.9" x2="1131.88" y2="691.89"/><line class="cls-27" x1="1155.02" y1="673.01" x2="1136.18" y2="694"/><line class="cls-27" x1="1158.71" y1="675.79" x2="1139.87" y2="696.78"/><line class="cls-27" x1="1161.19" y1="679.93" x2="1142.35" y2="700.92"/><line class="cls-27" x1="1081.05" y1="625.7" x2="1162.28" y2="687"/><line class="cls-27" x1="1077.64" y1="628.81" x2="1158.87" y2="690.11"/><line class="cls-27" x1="1074.97" y1="632.47" x2="1156.2" y2="693.77"/><line class="cls-27" x1="1072.3" y1="636.13" x2="1153.53" y2="697.44"/><line class="cls-27" x1="1068.89" y1="639.24" x2="1150.12" y2="700.54"/><line class="cls-27" x1="1088.26" y1="623.19" x2="1069.42" y2="644.18"/><line class="cls-27" x1="1091.65" y1="626.31" x2="1072.8" y2="647.3"/><line class="cls-27" x1="1095.64" y1="628.76" x2="1076.8" y2="649.75"/><line class="cls-27" x1="1099.64" y1="631.21" x2="1080.8" y2="652.2"/><line class="cls-27" x1="1102.72" y1="634.67" x2="1083.88" y2="655.66"/><line class="cls-27" x1="1107.02" y1="636.78" x2="1088.18" y2="657.77"/><line class="cls-27" x1="1110.71" y1="639.57" x2="1091.87" y2="660.56"/><line class="cls-27" x1="1114.41" y1="642.36" x2="1095.56" y2="663.34"/><line class="cls-27" x1="1118.1" y1="645.14" x2="1099.26" y2="666.13"/><line class="cls-27" x1="1121.79" y1="647.93" x2="1102.95" y2="668.92"/><line class="cls-27" x1="1124.87" y1="651.39" x2="1106.03" y2="672.38"/><line class="cls-27" x1="1128.57" y1="654.18" x2="1109.72" y2="675.17"/><line class="cls-27" x1="1132.87" y1="656.29" x2="1114.02" y2="677.28"/><line class="cls-27" x1="1135.95" y1="659.75" x2="1117.11" y2="680.74"/><line class="cls-27" x1="1140.25" y1="661.86" x2="1121.41" y2="682.85"/><polygon class="cls-27" points="1023.36 609.42 933.59 541.67 951.82 521.36 1041.6 589.11 1023.36 609.42"/><line class="cls-27" x1="1017.8" y1="569.45" x2="998.96" y2="590.44"/><line class="cls-27" x1="1021.92" y1="572.55" x2="1003.08" y2="593.54"/><line class="cls-27" x1="1025.43" y1="576.34" x2="1006.59" y2="597.33"/><line class="cls-27" x1="1030.15" y1="578.77" x2="1011.31" y2="599.76"/><line class="cls-27" x1="1034.27" y1="581.88" x2="1015.43" y2="602.87"/><line class="cls-27" x1="1037.18" y1="586.34" x2="1018.33" y2="607.33"/><line class="cls-27" x1="948.17" y1="525.42" x2="1038.77" y2="593.79"/><line class="cls-27" x1="944.72" y1="528.49" x2="1035.32" y2="596.87"/><line class="cls-27" x1="942.1" y1="532.19" x2="1032.7" y2="600.56"/><line class="cls-27" x1="939.47" y1="535.88" x2="1030.07" y2="604.26"/><line class="cls-27" x1="936.02" y1="538.96" x2="1026.62" y2="607.34"/><line class="cls-27" x1="955.72" y1="523.17" x2="936.88" y2="544.15"/><line class="cls-27" x1="959.54" y1="526.61" x2="940.7" y2="547.6"/><line class="cls-27" x1="963.96" y1="529.38" x2="945.12" y2="550.37"/><line class="cls-27" x1="968.38" y1="532.15" x2="949.54" y2="553.14"/><line class="cls-27" x1="971.89" y1="535.94" x2="953.05" y2="556.92"/><line class="cls-27" x1="976.62" y1="538.37" x2="957.78" y2="559.36"/><line class="cls-27" x1="980.74" y1="541.47" x2="961.89" y2="562.46"/><line class="cls-27" x1="984.85" y1="544.58" x2="966.01" y2="565.57"/><line class="cls-27" x1="988.97" y1="547.69" x2="970.13" y2="568.68"/><line class="cls-27" x1="993.09" y1="550.8" x2="974.25" y2="571.79"/><line class="cls-27" x1="996.6" y1="554.58" x2="977.76" y2="575.57"/><line class="cls-27" x1="1000.72" y1="557.69" x2="981.88" y2="578.68"/><line class="cls-27" x1="1005.45" y1="560.12" x2="986.6" y2="581.11"/><line class="cls-27" x1="1008.96" y1="563.91" x2="990.11" y2="584.9"/><line class="cls-27" x1="1013.68" y1="566.34" x2="994.84" y2="587.33"/><line class="cls-28" x1="951.41" y1="521.04" x2="1165.55" y2="682.66"/><polygon class="cls-27" points="1168.18 535.38 1094.13 602.66 1073.94 583.97 1147.99 516.7 1168.18 535.38"/><line class="cls-27" x1="1126.6" y1="534.28" x2="1147.47" y2="553.59"/><line class="cls-27" x1="1129.99" y1="531.19" x2="1150.86" y2="550.5"/><line class="cls-27" x1="1134.06" y1="528.73" x2="1154.93" y2="548.04"/><line class="cls-27" x1="1136.79" y1="525.02" x2="1157.66" y2="544.33"/><line class="cls-27" x1="1140.19" y1="521.93" x2="1161.05" y2="541.24"/><line class="cls-27" x1="1144.93" y1="520.09" x2="1165.8" y2="539.4"/><line class="cls-27" x1="1077.97" y1="587.71" x2="1152.71" y2="519.82"/><line class="cls-27" x1="1081" y1="591.13" x2="1155.73" y2="523.24"/><line class="cls-27" x1="1084.71" y1="593.94" x2="1159.44" y2="526.05"/><line class="cls-27" x1="1088.41" y1="596.74" x2="1163.14" y2="528.85"/><line class="cls-27" x1="1091.44" y1="600.17" x2="1166.17" y2="532.28"/><line class="cls-27" x1="1075.98" y1="580.88" x2="1096.85" y2="600.19"/><line class="cls-27" x1="1079.71" y1="578.11" x2="1100.58" y2="597.42"/><line class="cls-27" x1="1082.77" y1="574.71" x2="1103.64" y2="594.02"/><line class="cls-27" x1="1085.83" y1="571.31" x2="1106.7" y2="590.62"/><line class="cls-27" x1="1089.9" y1="568.85" x2="1110.77" y2="588.16"/><line class="cls-27" x1="1092.63" y1="565.14" x2="1113.5" y2="584.45"/><line class="cls-27" x1="1096.03" y1="562.05" x2="1116.89" y2="581.36"/><line class="cls-27" x1="1099.42" y1="558.97" x2="1120.29" y2="578.28"/><line class="cls-27" x1="1102.82" y1="555.88" x2="1123.69" y2="575.19"/><line class="cls-27" x1="1106.22" y1="552.79" x2="1127.08" y2="572.11"/><line class="cls-27" x1="1110.29" y1="550.33" x2="1131.15" y2="569.64"/><line class="cls-27" x1="1113.68" y1="547.25" x2="1134.55" y2="566.56"/><line class="cls-27" x1="1116.41" y1="543.54" x2="1137.27" y2="562.85"/><line class="cls-27" x1="1120.48" y1="541.07" x2="1141.34" y2="560.38"/><line class="cls-27" x1="1123.2" y1="537.36" x2="1144.07" y2="556.68"/><polygon class="cls-27" points="1054.48 638.68 971.88 713.72 951.68 695.03 1034.28 620 1054.48 638.68"/><line class="cls-27" x1="1010.54" y1="639.71" x2="1031.41" y2="659.02"/><line class="cls-27" x1="1014.33" y1="636.27" x2="1035.2" y2="655.58"/><line class="cls-27" x1="1018.79" y1="633.45" x2="1039.66" y2="652.76"/><line class="cls-27" x1="1021.91" y1="629.39" x2="1042.77" y2="648.7"/><line class="cls-27" x1="1025.7" y1="625.95" x2="1046.56" y2="645.26"/><line class="cls-27" x1="1030.83" y1="623.75" x2="1051.7" y2="643.06"/><line class="cls-27" x1="955.72" y1="698.77" x2="1039.08" y2="623.04"/><line class="cls-27" x1="958.71" y1="702.23" x2="1042.07" y2="626.5"/><line class="cls-27" x1="962.45" y1="705" x2="1045.81" y2="629.27"/><line class="cls-27" x1="966.2" y1="707.77" x2="1049.56" y2="632.04"/><line class="cls-27" x1="969.19" y1="711.23" x2="1052.54" y2="635.5"/><line class="cls-27" x1="954.04" y1="691.66" x2="974.91" y2="710.97"/><line class="cls-27" x1="958.17" y1="688.53" x2="979.04" y2="707.84"/><line class="cls-27" x1="961.62" y1="684.77" x2="982.49" y2="704.08"/><line class="cls-27" x1="965.07" y1="681.02" x2="985.94" y2="700.33"/><line class="cls-27" x1="969.53" y1="678.2" x2="990.4" y2="697.51"/><line class="cls-27" x1="972.65" y1="674.14" x2="993.52" y2="693.45"/><line class="cls-27" x1="976.44" y1="670.69" x2="997.31" y2="690"/><line class="cls-27" x1="980.23" y1="667.25" x2="1001.1" y2="686.56"/><line class="cls-27" x1="984.02" y1="663.81" x2="1004.88" y2="683.12"/><line class="cls-27" x1="987.81" y1="660.37" x2="1008.67" y2="679.68"/><line class="cls-27" x1="992.27" y1="657.55" x2="1013.14" y2="676.86"/><line class="cls-27" x1="996.06" y1="654.11" x2="1016.92" y2="673.42"/><line class="cls-27" x1="999.17" y1="650.04" x2="1020.04" y2="669.35"/><line class="cls-27" x1="1003.63" y1="647.22" x2="1024.5" y2="666.53"/><line class="cls-27" x1="1006.75" y1="643.16" x2="1027.62" y2="662.47"/><line class="cls-28" x1="951.31" y1="695.38" x2="1148.33" y2="516.39"/><path class="cls-16" d="M1054.29,591l2.35,24.33H1062l15.94,129.78,26.36.44-26.78-127.15-.15-3.07,2.06-.44s.7-12.51-6.34-18.53c0,0-5.59-7.49-18.75-6.32Z"/><line class="cls-29" x1="1458.85" y1="459.7" x2="1511.16" y2="742.81"/><line class="cls-29" x1="1463.53" y1="459.26" x2="1549.92" y2="742.81"/><line class="cls-29" x1="1448.55" y1="459.7" x2="1396.24" y2="742.81"/><line class="cls-29" x1="1443.87" y1="459.26" x2="1357.48" y2="742.81"/><polygon class="cls-30" points="1470.54 744.26 1438.03 744.26 1448.55 375.08 1460.02 375.08 1470.54 744.26"/><rect class="cls-31" x="1434.2" y="458.39" width="40.17" height="3.51"/><rect class="cls-31" x="1438.03" y="436.46" width="31.56" height="3.51"/><ellipse class="cls-31" cx="1461.09" cy="449.52" rx="4.68" ry="4.29"/><polygon class="cls-32" points="769.5 744.26 769.5 695.04 844.03 670.48 921.57 694.85 921.57 744.26 769.5 744.26"/><polyline class="cls-33" points="799.15 744.26 799.15 724.97 891.92 724.6 891.92 744.26"/><line class="cls-33" x1="829.76" y1="724.97" x2="829.76" y2="744.26"/><line class="cls-33" x1="858.45" y1="724.97" x2="858.45" y2="744.26"/><polygon class="cls-15" points="856.08 700.86 844.58 711.4 833.08 700.86 844.58 690.32 856.08 700.86"/><polygon class="cls-16" points="810.15 682.5 838.31 723.22 847.34 723.22 862.27 744.26 921.57 744.26 921.57 696.55 844.03 670.42 810.15 682.5"/><polyline class="cls-34" points="758.03 698.91 844.03 670.48 928.59 698.91"/><path class="cls-8" d="M1437,312a12.32,12.32,0,0,0-18.88-10.39,4.79,4.79,0,0,0-1.89-.42,8.69,8.69,0,0,0-8.6-7.32,8.59,8.59,0,0,0-3.51.74c-1.17-3.41-2.53-6.47-7.35-7.67a8.8,8.8,0,0,0-10.84,6.61c-1.07-.48-.8,1.26-2,1.26a8.57,8.57,0,0,0-6.12,2.57,3.41,3.41,0,0,0-5.47,2.71s0,.08,0,.12a11.1,11.1,0,0,0-9.86,11q0,.45,0,.9l0,0H1437a.92.92,0,0,0,0-.16Z"/><path class="cls-8" d="M1360.81,164.87a26.07,26.07,0,0,0-39.91-22,10.24,10.24,0,0,0-4-.88,18.42,18.42,0,0,0-25.6-13.92c-2.48-7.21-5.36-13.67-15.55-16.21-12.35-3.07-21.11,5.73-22.92,14-2.26-1-1.68,2.67-4.32,2.67a18,18,0,0,0-12.93,5.44,7.21,7.21,0,0,0-11.57,5.72c0,.09,0,.17,0,.26a23.45,23.45,0,0,0-20.84,23.28c0,.65,0,1.28.07,1.91l-.07.08h157.62v-.35Z"/><path class="cls-8" d="M347,299.2a12.31,12.31,0,0,0-18.87-10.39,4.79,4.79,0,0,0-1.89-.42,8.73,8.73,0,0,0-12.11-6.59c-1.17-3.41-2.54-6.46-7.35-7.66a8.81,8.81,0,0,0-10.85,6.61c-1.07-.48-.79,1.26-2,1.26a8.52,8.52,0,0,0-6.12,2.57,3.41,3.41,0,0,0-5.47,2.71v.12a11.1,11.1,0,0,0-9.86,11c0,.31,0,.61,0,.91l0,0H347v-.16Z"/><path class="cls-8" d="M120.49,420.81c0-12.24-15.42-22.16-34.42-22.16a49,49,0,0,0-18.31,3.4,20.56,20.56,0,0,0-5.27-.75c-1.82-7.49-11.88-13.22-24-13.22a35.73,35.73,0,0,0-9.81,1.34c-3.27-6.16-7.08-11.67-20.53-13.84-16.32-2.63-27.89,4.89-30.28,11.93-3-.87-2.22,2.27-5.71,2.27a31.34,31.34,0,0,0-17.09,4.65,13.25,13.25,0,0,0-5.76-1.25c-5.25,0-9.51,2.75-9.51,6.13v.23c-15.49,1.12-27.53,9.59-27.53,19.88a12.74,12.74,0,0,0,.1,1.63l-.1.06H120.48c0-.09,0-.18,0-.28Z"/><path class="cls-8" d="M1975,279.52c0-17.84-20.44-32.29-45.64-32.29a60,60,0,0,0-24.29,5,24.41,24.41,0,0,0-7-1.09c-2.42-10.91-15.76-19.26-31.85-19.26a43.83,43.83,0,0,0-13,1.94c-4.34-9-9.38-17-27.23-20.15-21.65-3.83-37,7.13-40.16,17.37-4-1.26-2.94,3.32-7.57,3.32-8.89,0-16.92,2.59-22.66,6.77a16.24,16.24,0,0,0-7.64-1.82c-7,0-12.62,4-12.62,8.93,0,.11,0,.22,0,.33-20.55,1.63-36.52,14-36.52,29a21,21,0,0,0,.13,2.38l-.13.09H1975c0-.14,0-.27,0-.41Z"/><rect class="cls-20" x="220.27" y="573.26" width="285.83" height="171.88"/><polygon class="cls-15" points="480.99 498.73 513.25 573.26 215.51 573.26 242.8 497.85 480.99 498.73"/><rect class="cls-14" x="410.01" y="589.11" width="26.52" height="35.59"/><path class="cls-15" d="M435.16,590.48v32.84H411.38V590.48h23.78m2.74-2.75H408.64v38.34H437.9V587.73Z"/><rect class="cls-14" x="408.64" y="612.27" width="29.27" height="2.3"/><polygon class="cls-15" points="437.9 612.27 408.64 612.27 408.64 614.57 437.9 614.57 437.9 612.27 437.9 612.27"/><rect class="cls-14" x="422.02" y="587.73" width="2.51" height="38.34"/><polygon class="cls-15" points="424.52 587.73 422.02 587.73 422.02 626.07 424.52 626.07 424.52 587.73 424.52 587.73"/><rect class="cls-14" x="408.64" y="599.23" width="29.27" height="2.3"/><polygon class="cls-15" points="437.9 599.24 408.64 599.24 408.64 601.53 437.9 601.53 437.9 599.24 437.9 599.24"/><rect class="cls-14" x="351.12" y="589.11" width="26.52" height="35.59"/><path class="cls-15" d="M376.26,590.48v32.84H352.49V590.48h23.77m2.75-2.75H349.74v38.34H379V587.73Z"/><rect class="cls-14" x="349.74" y="612.27" width="29.27" height="2.3"/><polygon class="cls-15" points="379.01 612.27 349.74 612.27 349.74 614.57 379.01 614.57 379.01 612.27 379.01 612.27"/><rect class="cls-14" x="363.12" y="587.73" width="2.51" height="38.34"/><polygon class="cls-15" points="365.63 587.73 363.12 587.73 363.12 626.07 365.63 626.07 365.63 587.73 365.63 587.73"/><rect class="cls-14" x="349.74" y="599.23" width="29.27" height="2.3"/><polygon class="cls-15" points="379.01 599.24 349.74 599.24 349.74 601.53 379.01 601.53 379.01 599.24 379.01 599.24"/><rect class="cls-14" x="296.05" y="589.11" width="26.52" height="35.59"/><path class="cls-15" d="M321.2,590.48v32.84H297.42V590.48H321.2m2.75-2.75H294.68v38.34H324V587.73Z"/><rect class="cls-14" x="294.68" y="612.27" width="29.27" height="2.3"/><polygon class="cls-15" points="323.95 612.27 294.68 612.27 294.68 614.57 323.95 614.57 323.95 612.27 323.95 612.27"/><rect class="cls-14" x="308.06" y="587.73" width="2.51" height="38.34"/><polygon class="cls-15" points="310.57 587.73 308.06 587.73 308.06 626.07 310.57 626.07 310.57 587.73 310.57 587.73"/><rect class="cls-14" x="294.68" y="599.23" width="29.27" height="2.3"/><polygon class="cls-15" points="323.95 599.24 294.68 599.24 294.68 601.53 323.95 601.53 323.95 599.24 323.95 599.24"/><rect class="cls-14" x="409.59" y="644.7" width="26.52" height="35.59"/><path class="cls-15" d="M434.74,646.07v32.84H411V646.07h23.77m2.75-2.75H408.22v38.34h29.27V643.32Z"/><rect class="cls-14" x="408.22" y="667.86" width="29.27" height="2.3"/><polygon class="cls-15" points="437.49 667.86 408.22 667.86 408.22 670.16 437.49 670.16 437.49 667.86 437.49 667.86"/><rect class="cls-14" x="421.6" y="643.32" width="2.51" height="38.34"/><polygon class="cls-15" points="424.11 643.32 421.6 643.32 421.6 681.66 424.11 681.66 424.11 643.32 424.11 643.32"/><rect class="cls-14" x="408.22" y="654.82" width="29.27" height="2.3"/><polygon class="cls-15" points="437.49 654.82 408.22 654.82 408.22 657.12 437.49 657.12 437.49 654.82 437.49 654.82"/><rect class="cls-14" x="351.66" y="644.7" width="26.52" height="35.59"/><path class="cls-15" d="M376.8,646.07v32.84H353V646.07H376.8m2.75-2.75H350.28v38.34h29.27V643.32Z"/><rect class="cls-14" x="350.28" y="667.86" width="29.27" height="2.3"/><polygon class="cls-15" points="379.55 667.86 350.28 667.86 350.28 670.16 379.55 670.16 379.55 667.86 379.55 667.86"/><rect class="cls-14" x="363.66" y="643.32" width="2.51" height="38.34"/><polygon class="cls-15" points="366.17 643.32 363.66 643.32 363.66 681.66 366.17 681.66 366.17 643.32 366.17 643.32"/><rect class="cls-14" x="350.28" y="654.82" width="29.27" height="2.3"/><polygon class="cls-15" points="379.55 654.82 350.28 654.82 350.28 657.12 379.55 657.12 379.55 654.82 379.55 654.82"/><rect class="cls-14" x="296.59" y="644.7" width="26.52" height="35.59"/><path class="cls-15" d="M321.74,646.07v32.84H298V646.07h23.78m2.74-2.75H295.22v38.34h29.26V643.32Z"/><rect class="cls-14" x="295.22" y="667.86" width="29.27" height="2.3"/><polygon class="cls-15" points="324.48 667.86 295.22 667.86 295.22 670.16 324.48 670.16 324.48 667.86 324.48 667.86"/><rect class="cls-14" x="308.6" y="643.32" width="2.51" height="38.34"/><polygon class="cls-15" points="311.1 643.32 308.6 643.32 308.6 681.66 311.1 681.66 311.1 643.32 311.1 643.32"/><rect class="cls-14" x="295.22" y="654.82" width="29.27" height="2.3"/><polygon class="cls-15" points="324.48 654.82 295.22 654.82 295.22 657.12 324.48 657.12 324.48 654.82 324.48 654.82"/><rect class="cls-14" x="409.17" y="700.29" width="26.52" height="35.59"/><path class="cls-15" d="M434.32,701.66V734.5H410.55V701.66h23.77m2.75-2.75H407.8v38.34h29.27V698.91Z"/><rect class="cls-14" x="407.8" y="723.45" width="29.27" height="2.3"/><polygon class="cls-15" points="437.07 723.45 407.8 723.45 407.8 725.75 437.07 725.75 437.07 723.45 437.07 723.45"/><rect class="cls-14" x="421.18" y="698.91" width="2.51" height="38.34"/><polygon class="cls-15" points="423.69 698.91 421.18 698.91 421.18 737.25 423.69 737.25 423.69 698.91 423.69 698.91"/><rect class="cls-14" x="407.8" y="710.41" width="29.27" height="2.3"/><polygon class="cls-15" points="437.07 710.41 407.8 710.41 407.8 712.71 437.07 712.71 437.07 710.41 437.07 710.41"/><rect class="cls-14" x="296.17" y="700.29" width="26.52" height="35.59"/><path class="cls-15" d="M321.32,701.66V734.5H297.54V701.66h23.78m2.75-2.75H294.8v38.34h29.27V698.91Z"/><rect class="cls-14" x="294.8" y="723.45" width="29.27" height="2.3"/><polygon class="cls-15" points="324.07 723.45 294.8 723.45 294.8 725.75 324.07 725.75 324.07 723.45 324.07 723.45"/><rect class="cls-14" x="308.18" y="698.91" width="2.51" height="38.34"/><polygon class="cls-15" points="310.69 698.91 308.18 698.91 308.18 737.25 310.69 737.25 310.69 698.91 310.69 698.91"/><rect class="cls-14" x="294.8" y="710.41" width="29.27" height="2.3"/><polygon class="cls-15" points="324.07 710.41 294.8 710.41 294.8 712.71 324.07 712.71 324.07 710.41 324.07 710.41"/><path class="cls-35" d="M344.18,699.1h39.21a0,0,0,0,1,0,0V726a18.75,18.75,0,0,1-18.75,18.75h-1.72A18.75,18.75,0,0,1,344.18,726V699.1A0,0,0,0,1,344.18,699.1Z" transform="translate(727.57 1443.81) rotate(-180)"/><rect class="cls-14" x="240.75" y="700.29" width="26.52" height="35.59"/><path class="cls-15" d="M265.89,701.66V734.5H242.12V701.66h23.77m2.75-2.75H239.37v38.34h29.27V698.91Z"/><rect class="cls-14" x="239.37" y="723.45" width="29.27" height="2.3"/><polygon class="cls-15" points="268.64 723.45 239.37 723.45 239.37 725.75 268.64 725.75 268.64 723.45 268.64 723.45"/><rect class="cls-14" x="252.75" y="698.91" width="2.51" height="38.34"/><polygon class="cls-15" points="255.26 698.91 252.75 698.91 252.75 737.25 255.26 737.25 255.26 698.91 255.26 698.91"/><rect class="cls-14" x="239.37" y="710.41" width="29.27" height="2.3"/><polygon class="cls-15" points="268.64 710.41 239.37 710.41 239.37 712.71 268.64 712.71 268.64 710.41 268.64 710.41"/><rect class="cls-14" x="242" y="644.7" width="26.52" height="35.59"/><path class="cls-15" d="M267.15,646.07v32.84H243.37V646.07h23.78m2.74-2.75H240.63v38.34h29.26V643.32Z"/><rect class="cls-14" x="240.63" y="667.86" width="29.27" height="2.3"/><polygon class="cls-15" points="269.89 667.86 240.63 667.86 240.63 670.16 269.89 670.16 269.89 667.86 269.89 667.86"/><rect class="cls-14" x="254.01" y="643.32" width="2.51" height="38.34"/><polygon class="cls-15" points="256.51 643.32 254 643.32 254 681.66 256.51 681.66 256.51 643.32 256.51 643.32"/><rect class="cls-14" x="240.63" y="654.82" width="29.27" height="2.3"/><polygon class="cls-15" points="269.89 654.82 240.63 654.82 240.63 657.12 269.89 657.12 269.89 654.82 269.89 654.82"/><rect class="cls-14" x="243.25" y="589.11" width="26.52" height="35.59"/><path class="cls-15" d="M268.4,590.48v32.84H244.63V590.48H268.4m2.75-2.75H241.88v38.34h29.27V587.73Z"/><rect class="cls-14" x="241.88" y="612.27" width="29.27" height="2.3"/><polygon class="cls-15" points="271.15 612.27 241.88 612.27 241.88 614.57 271.15 614.57 271.15 612.27 271.15 612.27"/><rect class="cls-14" x="255.26" y="587.73" width="2.51" height="38.34"/><polygon class="cls-15" points="257.77 587.73 255.26 587.73 255.26 626.07 257.77 626.07 257.77 587.73 257.77 587.73"/><rect class="cls-14" x="241.88" y="599.23" width="29.27" height="2.3"/><polygon class="cls-15" points="271.15 599.24 241.88 599.24 241.88 601.53 271.15 601.53 271.15 599.24 271.15 599.24"/><rect class="cls-14" x="462.01" y="700.29" width="26.52" height="35.59"/><path class="cls-15" d="M487.16,701.66V734.5H463.39V701.66h23.77m2.75-2.75H460.64v38.34h29.27V698.91Z"/><rect class="cls-14" x="460.64" y="723.45" width="29.27" height="2.3"/><polygon class="cls-15" points="489.91 723.45 460.64 723.45 460.64 725.75 489.91 725.75 489.91 723.45 489.91 723.45"/><rect class="cls-14" x="474.02" y="698.91" width="2.51" height="38.34"/><polygon class="cls-15" points="476.53 698.91 474.02 698.91 474.02 737.25 476.53 737.25 476.53 698.91 476.53 698.91"/><rect class="cls-14" x="460.64" y="710.41" width="29.27" height="2.3"/><polygon class="cls-15" points="489.91 710.41 460.64 710.41 460.64 712.71 489.91 712.71 489.91 710.41 489.91 710.41"/><rect class="cls-14" x="463.27" y="644.7" width="26.52" height="35.59"/><path class="cls-15" d="M488.41,646.07v32.84H464.64V646.07h23.77m2.75-2.75H461.89v38.34h29.27V643.32Z"/><rect class="cls-14" x="461.89" y="667.86" width="29.27" height="2.3"/><polygon class="cls-15" points="491.16 667.86 461.89 667.86 461.89 670.16 491.16 670.16 491.16 667.86 491.16 667.86"/><rect class="cls-14" x="475.27" y="643.32" width="2.51" height="38.34"/><polygon class="cls-15" points="477.78 643.32 475.27 643.32 475.27 681.66 477.78 681.66 477.78 643.32 477.78 643.32"/><rect class="cls-14" x="461.89" y="654.82" width="29.27" height="2.3"/><polygon class="cls-15" points="491.16 654.82 461.89 654.82 461.89 657.12 491.16 657.12 491.16 654.82 491.16 654.82"/><rect class="cls-14" x="464.52" y="589.11" width="26.52" height="35.59"/><path class="cls-15" d="M489.67,590.48v32.84H465.89V590.48h23.78m2.75-2.75H463.15v38.34h29.27V587.73Z"/><rect class="cls-14" x="463.15" y="612.27" width="29.27" height="2.3"/><polygon class="cls-15" points="492.42 612.27 463.15 612.27 463.15 614.57 492.42 614.57 492.42 612.27 492.42 612.27"/><rect class="cls-14" x="476.53" y="587.73" width="2.51" height="38.34"/><polygon class="cls-15" points="479.04 587.73 476.53 587.73 476.53 626.07 479.04 626.07 479.04 587.73 479.04 587.73"/><rect class="cls-14" x="463.15" y="599.23" width="29.27" height="2.3"/><polygon class="cls-15" points="492.42 599.24 463.15 599.24 463.15 601.53 492.42 601.53 492.42 599.24 492.42 599.24"/><polygon class="cls-16" points="279.71 497.99 313.86 573.26 340.26 573.26 409.34 745.14 506.1 745.14 506.1 573.26 513.25 573.26 480.99 498.73 279.71 497.99"/><rect class="cls-15" x="118.5" y="629.4" width="101.6" height="115.74"/><polygon class="cls-15" points="167.76 559.53 220.1 629.4 118.5 629.4 167.76 559.53"/><rect class="cls-14" x="179.38" y="634.93" width="20.81" height="28.11"/><path class="cls-13" d="M198.81,636.31v25.35H180.75V636.31h18.06m2.75-2.75H178v30.85h23.56V633.56Z"/><rect class="cls-14" x="178" y="653.3" width="23.55" height="1.85"/><polygon class="cls-13" points="201.56 653.3 178 653.3 178 655.15 201.56 655.15 201.56 653.3 201.56 653.3"/><rect class="cls-14" x="188.77" y="633.56" width="2.02" height="30.85"/><polygon class="cls-13" points="190.79 633.56 188.77 633.56 188.77 664.41 190.79 664.41 190.79 633.56 190.79 633.56"/><rect class="cls-14" x="178" y="642.81" width="23.55" height="1.85"/><polygon class="cls-13" points="201.56 642.81 178 642.81 178 644.66 201.56 644.66 201.56 642.81 201.56 642.81"/><rect class="cls-14" x="137.81" y="634.93" width="20.81" height="28.11"/><path class="cls-13" d="M157.25,636.31v25.35H139.19V636.31h18.06m2.75-2.75H136.44v30.85H160V633.56Z"/><rect class="cls-14" x="136.44" y="653.3" width="23.55" height="1.85"/><polygon class="cls-13" points="160 653.3 136.44 653.3 136.44 655.15 160 655.15 160 653.3 160 653.3"/><rect class="cls-14" x="147.21" y="633.56" width="2.02" height="30.85"/><polygon class="cls-13" points="149.23 633.56 147.21 633.56 147.21 664.41 149.23 664.41 149.23 633.56 149.23 633.56"/><rect class="cls-14" x="136.44" y="642.81" width="23.55" height="1.85"/><polygon class="cls-13" points="160 642.81 136.44 642.81 136.44 644.66 160 644.66 160 642.81 160 642.81"/><rect class="cls-14" x="179.38" y="677.28" width="20.81" height="28.11"/><path class="cls-13" d="M198.81,678.65V704H180.75V678.65h18.06m2.75-2.75H178v30.86h23.56V675.9Z"/><rect class="cls-14" x="178" y="695.65" width="23.55" height="1.85"/><polygon class="cls-13" points="201.56 695.65 178 695.65 178 697.5 201.56 697.5 201.56 695.65 201.56 695.65"/><rect class="cls-14" x="188.77" y="675.9" width="2.02" height="30.85"/><polygon class="cls-13" points="190.79 675.9 188.77 675.9 188.77 706.75 190.79 706.75 190.79 675.9 190.79 675.9"/><rect class="cls-14" x="178" y="685.16" width="23.55" height="1.85"/><polygon class="cls-13" points="201.56 685.16 178 685.16 178 687.01 201.56 687.01 201.56 685.16 201.56 685.16"/><rect class="cls-14" x="137.81" y="677.28" width="20.81" height="28.11"/><path class="cls-13" d="M157.25,678.65V704H139.19V678.65h18.06M160,675.9H136.44v30.86H160V675.9Z"/><rect class="cls-14" x="136.44" y="695.65" width="23.55" height="1.85"/><polygon class="cls-13" points="160 695.65 136.44 695.65 136.44 697.5 160 697.5 160 695.65 160 695.65"/><rect class="cls-14" x="147.21" y="675.9" width="2.02" height="30.85"/><polygon class="cls-13" points="149.23 675.9 147.21 675.9 147.21 706.75 149.23 706.75 149.23 675.9 149.23 675.9"/><rect class="cls-14" x="136.44" y="685.16" width="23.55" height="1.85"/><polygon class="cls-13" points="160 685.16 136.44 685.16 136.44 687.01 160 687.01 160 685.16 160 685.16"/><polygon class="cls-16" points="141.64 598.51 178.54 744.44 220.1 744.44 220.1 629.4 169.3 556.71 141.64 598.51"/><polyline class="cls-24" points="116.19 629.4 167.76 556.71 222.41 629.4"/><path class="cls-36" d="M8.05,689.27H-3.27v15.47c8.31,1.12,14.69,7.66,14.69,15.58v24.22H-3.27v.38H34.17l-26.12-65Z"/><polygon class="cls-15" points="96.99 528.88 -3.27 528.51 -3.27 528.51 96.99 528.88"/><path class="cls-13" d="M11.08,744.26V720.32c0-7.92-6-14.46-14.35-15.58v39.52Z"/><path class="cls-36" d="M-3.27,606.92H7.58v33.61H-3.27v11.25l1.56,3.87H8.05v24.29l26.12,65H119V594.23H-3.27Zm84.61,23.53V606.92H107v33.61H81.34Zm-1.1,48.73V655.65H105.9v33.62H80.24Zm-1.1,48.74V704.39h25.67V738H79.14ZM33.55,630.45V606.92H59.21v33.61H33.55Zm-.36,48.73V655.65H58.85v33.62H33.19Zm-.37,48.74V704.39H58.48V738H32.82Z"/><polygon class="cls-15" points="96.99 528.88 -3.27 528.51 -3.27 594.23 119 594.23 125.27 594.23 96.99 528.88"/><polygon class="cls-16" points="96.99 528.92 -3.27 528.51 -3.27 594.31 119 594.31 125.27 594.31 96.99 528.92"/><polygon class="cls-14" points="8.05 679.94 8.05 679.18 7.75 679.18 8.05 679.94"/><polygon class="cls-13" points="8.05 679.18 7.75 679.18 8.05 679.94 8.05 679.18 8.05 679.18"/><rect class="cls-14" x="34.52" y="607.99" width="23.42" height="31.53"/><path class="cls-13" d="M56.57,609.37v28.78H35.9V609.37H56.57m2.75-2.75H33.15V640.9H59.32V606.62Z"/><rect class="cls-14" x="33.15" y="628.56" width="26.17" height="2.06"/><polygon class="cls-13" points="59.32 628.56 33.15 628.56 33.15 630.61 59.32 630.61 59.32 628.56 59.32 628.56"/><rect class="cls-14" x="45.11" y="606.62" width="2.24" height="34.28"/><polygon class="cls-13" points="47.36 606.62 45.11 606.62 45.11 640.9 47.36 640.9 47.36 606.62 47.36 606.62"/><rect class="cls-14" x="33.15" y="616.9" width="26.17" height="2.06"/><polygon class="cls-13" points="59.32 616.9 33.15 616.9 33.15 618.96 59.32 618.96 59.32 616.9 59.32 616.9"/><rect class="cls-14" x="82.58" y="607.99" width="23.42" height="31.53"/><path class="cls-13" d="M104.63,609.37v28.78H84V609.37h20.67m2.75-2.75H81.21V640.9h26.17V606.62Z"/><rect class="cls-14" x="81.21" y="628.56" width="26.17" height="2.06"/><polygon class="cls-13" points="107.38 628.56 81.21 628.56 81.21 630.61 107.38 630.61 107.38 628.56 107.38 628.56"/><rect class="cls-14" x="93.17" y="606.62" width="2.24" height="34.28"/><polygon class="cls-13" points="95.42 606.62 93.17 606.62 93.17 640.9 95.42 640.9 95.42 606.62 95.42 606.62"/><rect class="cls-14" x="81.21" y="616.9" width="26.17" height="2.06"/><polygon class="cls-13" points="107.38 616.9 81.21 616.9 81.21 618.96 107.38 618.96 107.38 616.9 107.38 616.9"/><rect class="cls-14" x="34.52" y="656.53" width="23.42" height="31.53"/><path class="cls-13" d="M56.57,657.9v28.79H35.9V657.9H56.57m2.75-2.74H33.15v34.27H59.32V655.16Z"/><rect class="cls-14" x="33.15" y="677.09" width="26.17" height="2.06"/><polygon class="cls-13" points="59.32 677.09 33.15 677.09 33.15 679.15 59.32 679.15 59.32 677.09 59.32 677.09"/><rect class="cls-14" x="45.11" y="655.16" width="2.24" height="34.28"/><polygon class="cls-13" points="47.36 655.15 45.11 655.15 45.11 689.43 47.36 689.43 47.36 655.15 47.36 655.15"/><rect class="cls-14" x="33.15" y="665.44" width="26.17" height="2.06"/><polygon class="cls-13" points="59.32 665.44 33.15 665.44 33.15 667.5 59.32 667.5 59.32 665.44 59.32 665.44"/><rect class="cls-14" x="81.46" y="656.53" width="23.42" height="31.53"/><path class="cls-13" d="M103.51,657.9v28.79H82.83V657.9h20.68m2.75-2.74H80.09v34.27h26.17V655.16Z"/><rect class="cls-14" x="80.09" y="677.09" width="26.17" height="2.06"/><polygon class="cls-13" points="106.26 677.09 80.09 677.09 80.09 679.15 106.26 679.15 106.26 677.09 106.26 677.09"/><rect class="cls-14" x="92.05" y="655.16" width="2.24" height="34.28"/><polygon class="cls-13" points="94.29 655.15 92.05 655.15 92.05 689.43 94.29 689.43 94.29 655.15 94.29 655.15"/><rect class="cls-14" x="80.09" y="665.44" width="26.17" height="2.06"/><polygon class="cls-13" points="106.26 665.44 80.09 665.44 80.09 667.5 106.26 667.5 106.26 665.44 106.26 665.44"/><rect class="cls-14" x="34.52" y="705.24" width="23.42" height="31.53"/><path class="cls-13" d="M56.57,706.62V735.4H35.9V706.62H56.57m2.75-2.75H33.15v34.28H59.32V703.87Z"/><rect class="cls-14" x="33.15" y="725.81" width="26.17" height="2.06"/><polygon class="cls-13" points="59.32 725.81 33.15 725.81 33.15 727.86 59.32 727.86 59.32 725.81 59.32 725.81"/><rect class="cls-14" x="45.11" y="703.87" width="2.24" height="34.28"/><polygon class="cls-13" points="47.36 703.87 45.11 703.87 45.11 738.15 47.36 738.15 47.36 703.87 47.36 703.87"/><rect class="cls-14" x="33.15" y="714.15" width="26.17" height="2.06"/><polygon class="cls-13" points="59.32 714.15 33.15 714.15 33.15 716.21 59.32 716.21 59.32 714.15 59.32 714.15"/><rect class="cls-14" x="80.34" y="705.24" width="23.42" height="31.53"/><path class="cls-13" d="M102.39,706.62V735.4H81.71V706.62h20.68m2.75-2.75H79v34.28h26.17V703.87Z"/><rect class="cls-14" x="78.97" y="725.81" width="26.17" height="2.06"/><polygon class="cls-13" points="105.14 725.81 78.97 725.81 78.97 727.86 105.14 727.86 105.14 725.81 105.14 725.81"/><rect class="cls-14" x="90.93" y="703.87" width="2.24" height="34.28"/><polygon class="cls-13" points="93.17 703.87 90.93 703.87 90.93 738.15 93.17 738.15 93.17 703.87 93.17 703.87"/><rect class="cls-14" x="78.97" y="714.15" width="26.17" height="2.06"/><polygon class="cls-13" points="105.14 714.15 78.97 714.15 78.97 716.21 105.14 716.21 105.14 714.15 105.14 714.15"/><rect class="cls-14" x="-1.89" y="656.53" width="8.57" height="31.53"/><path class="cls-13" d="M5.3,657.9v28.79H-.52V657.9H5.3m2.75-2.74H-3.27v34.27H8.05V655.16Z"/><rect class="cls-14" x="-3.29" y="677.09" width="11.35" height="2.06"/><polygon class="cls-13" points="8.05 677.09 -3.29 677.09 -3.29 679.15 8.05 679.15 8.05 677.09 8.05 677.09"/><rect class="cls-14" x="-3.29" y="665.44" width="11.35" height="2.06"/><polygon class="cls-13" points="8.05 665.44 -3.29 665.44 -3.29 667.5 8.05 667.5 8.05 665.44 8.05 665.44"/><rect class="cls-14" x="-1.88" y="607.99" width="8.57" height="31.53"/><path class="cls-13" d="M5.32,609.37v28.78H-.5V609.37H5.32m2.75-2.75H-3.25V640.9H8.07V606.62Z"/><rect class="cls-14" x="-3.28" y="628.56" width="11.35" height="2.06"/><polygon class="cls-13" points="8.07 628.56 -3.28 628.56 -3.28 630.61 8.07 630.61 8.07 628.56 8.07 628.56"/><rect class="cls-14" x="-3.28" y="616.9" width="11.35" height="2.06"/><polygon class="cls-13" points="8.07 616.9 -3.28 616.9 -3.28 618.96 8.07 618.96 8.07 616.9 8.07 616.9"/><polygon class="cls-37" points="-3.42 651.78 34.17 745.14 118.2 745.14 119.15 594.31 -3.27 594.31 -3.42 651.78"/><polygon class="cls-36" points="1831.17 626.79 1833.2 621.75 1833.2 626.79 1831.17 626.79"/><polygon class="cls-15" points="1702.57 461.61 1833.2 461.13 1833.2 461.13 1702.57 461.61"/><path class="cls-13" d="M1813.89,742.51V711.05c0-10.33,9.56-18.84,19.13-20.3v51.76Z"/><path class="cls-36" d="M1819.07,591.32v-28h14.13V546.76H1673.89V743.1H1833.2v-.5h-19.13V711.05c0-10.33,8.31-18.84,19.13-20.3V670.59h-14.75v-43.8h12.72l2-5V607.08h-14.13V591.32ZM1689.52,594V563.29H1723v43.79h-33.44Zm1.43,63.5V626.79h33.44v43.8H1691Zm34.87,46v30.66h-33.43v-43.8h33.43Zm26-109.48V563.29h33.44v43.79h-33.44Zm.48,63.5V626.79h33.43v43.8h-33.43Zm18.63,76.64h-18.15v-43.8h33.43v43.8Z"/><polygon class="cls-15" points="1702.57 461.61 1833.2 461.13 1833.2 546.76 1673.89 546.76 1665.72 546.76 1702.57 461.61"/><polygon class="cls-14" points="1818.45 658.43 1818.45 657.45 1818.85 657.45 1818.45 658.43"/><polygon class="cls-13" points="1818.85 657.45 1818.45 657.45 1818.45 658.43 1818.85 657.45 1818.85 657.45"/><rect class="cls-14" x="1753.03" y="564.27" width="31.35" height="41.92"/><path class="cls-13" d="M1783,565.65v39.17h-28.6V565.65H1783m2.75-2.75h-34.1v44.66h34.1V562.9Z"/><rect class="cls-14" x="1751.65" y="591.48" width="34.1" height="2.68"/><polygon class="cls-13" points="1785.75 591.49 1751.65 591.49 1751.65 594.16 1785.75 594.16 1785.75 591.49 1785.75 591.49"/><rect class="cls-14" x="1768.61" y="564.27" width="0.17" height="41.92"/><polygon class="cls-13" points="1770.16 562.9 1767.24 562.9 1767.24 607.56 1770.16 607.56 1770.16 562.9 1770.16 562.9"/><rect class="cls-14" x="1751.65" y="576.3" width="34.1" height="2.68"/><polygon class="cls-13" points="1785.75 576.3 1751.65 576.3 1751.65 578.98 1785.75 578.98 1785.75 576.3 1785.75 576.3"/><rect class="cls-14" x="1690.41" y="564.27" width="31.35" height="41.92"/><path class="cls-13" d="M1720.38,565.65v39.17h-28.6V565.65h28.6m2.75-2.75H1689v44.66h34.1V562.9Z"/><rect class="cls-14" x="1689.03" y="591.48" width="34.1" height="2.68"/><polygon class="cls-13" points="1723.13 591.49 1689.03 591.49 1689.03 594.16 1723.13 594.16 1723.13 591.49 1723.13 591.49"/><rect class="cls-14" x="1706" y="564.27" width="0.17" height="41.92"/><polygon class="cls-13" points="1707.54 562.9 1704.62 562.9 1704.62 607.56 1707.54 607.56 1707.54 562.9 1707.54 562.9"/><rect class="cls-14" x="1689.03" y="576.3" width="34.1" height="2.68"/><polygon class="cls-13" points="1723.13 576.3 1689.03 576.3 1689.03 578.98 1723.13 578.98 1723.13 576.3 1723.13 576.3"/><rect class="cls-14" x="1753.03" y="627.51" width="31.35" height="41.92"/><path class="cls-13" d="M1783,628.89v39.17h-28.6V628.89H1783m2.75-2.75h-34.1v44.67h34.1V626.14Z"/><rect class="cls-14" x="1751.65" y="654.73" width="34.1" height="2.68"/><polygon class="cls-13" points="1785.75 654.73 1751.65 654.73 1751.65 657.41 1785.75 657.41 1785.75 654.73 1785.75 654.73"/><rect class="cls-14" x="1768.61" y="627.51" width="0.17" height="41.92"/><polygon class="cls-13" points="1770.16 626.14 1767.24 626.14 1767.24 670.8 1770.16 670.8 1770.16 626.14 1770.16 626.14"/><rect class="cls-14" x="1751.65" y="639.54" width="34.1" height="2.68"/><polygon class="cls-13" points="1785.75 639.54 1751.65 639.54 1751.65 642.22 1785.75 642.22 1785.75 639.54 1785.75 639.54"/><rect class="cls-14" x="1691.87" y="627.51" width="31.35" height="41.92"/><path class="cls-13" d="M1721.85,628.89v39.17h-28.61V628.89h28.61m2.74-2.75H1690.5v44.67h34.09V626.14Z"/><rect class="cls-14" x="1690.5" y="654.73" width="34.1" height="2.68"/><polygon class="cls-13" points="1724.59 654.73 1690.49 654.73 1690.49 657.41 1724.59 657.41 1724.59 654.73 1724.59 654.73"/><rect class="cls-14" x="1707.46" y="627.51" width="0.17" height="41.92"/><polygon class="cls-13" points="1709.01 626.14 1706.08 626.14 1706.08 670.8 1709.01 670.8 1709.01 626.14 1709.01 626.14"/><rect class="cls-14" x="1690.5" y="639.54" width="34.1" height="2.68"/><polygon class="cls-13" points="1724.59 639.54 1690.49 639.54 1690.49 642.22 1724.59 642.22 1724.59 639.54 1724.59 639.54"/><rect class="cls-14" x="1753.03" y="690.98" width="31.35" height="41.92"/><path class="cls-13" d="M1783,692.36v39.17h-28.6V692.36H1783m2.75-2.75h-34.1v44.66h34.1V689.61Z"/><rect class="cls-14" x="1751.65" y="718.2" width="34.1" height="2.68"/><polygon class="cls-13" points="1785.75 718.2 1751.65 718.2 1751.65 720.88 1785.75 720.88 1785.75 718.2 1785.75 718.2"/><rect class="cls-14" x="1768.61" y="690.98" width="0.17" height="41.92"/><polygon class="cls-13" points="1770.16 689.61 1767.24 689.61 1767.24 734.27 1770.16 734.27 1770.16 689.61 1770.16 689.61"/><rect class="cls-14" x="1751.65" y="703.01" width="34.1" height="2.68"/><polygon class="cls-13" points="1785.75 703.01 1751.65 703.01 1751.65 705.69 1785.75 705.69 1785.75 703.01 1785.75 703.01"/><rect class="cls-14" x="1693.33" y="690.98" width="31.35" height="41.92"/><path class="cls-13" d="M1723.31,692.36v39.17H1694.7V692.36h28.61m2.75-2.75H1692v44.66h34.1V689.61Z"/><rect class="cls-14" x="1691.96" y="718.2" width="34.1" height="2.68"/><polygon class="cls-13" points="1726.06 718.2 1691.96 718.2 1691.96 720.88 1726.06 720.88 1726.06 718.2 1726.06 718.2"/><rect class="cls-14" x="1708.92" y="690.98" width="0.17" height="41.92"/><polygon class="cls-13" points="1710.47 689.61 1707.54 689.61 1707.54 734.27 1710.47 734.27 1710.47 689.61 1710.47 689.61"/><rect class="cls-14" x="1691.96" y="703.01" width="34.1" height="2.68"/><polygon class="cls-13" points="1726.06 703.01 1691.96 703.01 1691.96 705.69 1726.06 705.69 1726.06 703.01 1726.06 703.01"/><rect class="cls-14" x="1819.83" y="627.51" width="12" height="41.92"/><path class="cls-13" d="M1830.45,628.89v39.17h-9.25V628.89h9.25m2.75-2.75h-14.75v44.67h14.75V626.14Z"/><rect class="cls-14" x="1818.45" y="654.73" width="14.78" height="2.68"/><polygon class="cls-13" points="1833.23 654.73 1818.45 654.73 1818.45 657.41 1833.23 657.41 1833.23 654.73 1833.23 654.73"/><rect class="cls-14" x="1818.45" y="639.54" width="14.78" height="2.68"/><polygon class="cls-13" points="1833.23 639.54 1818.45 639.54 1818.45 642.22 1833.23 642.22 1833.23 639.54 1833.23 639.54"/><rect class="cls-14" x="1819.81" y="564.27" width="12" height="41.92"/><path class="cls-13" d="M1830.43,565.65v39.17h-9.25V565.65h9.25m2.75-2.75h-14.75v44.66h14.75V562.9Z"/><rect class="cls-14" x="1818.43" y="591.48" width="14.78" height="2.68"/><polygon class="cls-13" points="1833.22 591.49 1818.43 591.49 1818.43 594.16 1833.22 594.16 1833.22 591.49 1833.22 591.49"/><rect class="cls-14" x="1818.43" y="576.3" width="14.78" height="2.68"/><polygon class="cls-13" points="1833.22 576.3 1818.43 576.3 1818.43 578.98 1833.22 578.98 1833.22 576.3 1833.22 576.3"/><polygon class="cls-16" points="1730.28 546.76 1749.81 546.76 1833.02 742.48 1833.02 742.6 1833.02 461.02 1702.57 461.61 1730.28 546.76"/><polygon class="cls-36" points="1833.26 626.79 1831.23 621.75 1831.23 626.79 1833.26 626.79"/><polygon class="cls-15" points="1961.86 461.61 1831.23 461.13 1831.23 461.13 1961.86 461.61"/><path class="cls-13" d="M1850.54,742.51V711.05c0-10.33-9.56-18.84-19.13-20.3v51.76Z"/><path class="cls-36" d="M1845.36,594v13.13h-14.13v14.67l2,5H1846v43.8h-14.75v20.16c10.82,1.46,19.14,10,19.14,20.3V742.6h-19.14v.5h159.31V546.76H1831.23v16.53h14.13V594Zm129.55,13.13h-33.43V563.29h33.43v43.79Zm-1.43,63.51H1940v-43.8h33.44v43.8Zm-34.87,19.7H1972v43.8h-33.43v-43.8Zm-26-83.21h-33.43V563.29h33.43v43.79Zm-.48,63.51h-33.43v-43.8h33.43v43.8Zm-33.91,63.5v-43.8h33.43v43.8h-33.43Z"/><polygon class="cls-15" points="1961.86 461.61 1831.23 461.13 1831.23 546.76 1990.55 546.76 1998.71 546.76 1961.86 461.61"/><polygon class="cls-14" points="1845.98 658.43 1845.98 657.45 1845.58 657.45 1845.98 658.43"/><polygon class="cls-13" points="1845.98 657.45 1845.58 657.45 1845.98 658.43 1845.98 657.45 1845.98 657.45"/><rect class="cls-14" x="1880.06" y="564.27" width="31.35" height="41.92"/><path class="cls-13" d="M1910,565.65v39.17h-28.6V565.65H1910m2.75-2.75h-34.1v44.66h34.1V562.9Z"/><rect class="cls-14" x="1878.68" y="591.48" width="34.1" height="2.68"/><polygon class="cls-13" points="1912.78 591.49 1878.68 591.49 1878.68 594.16 1912.78 594.16 1912.78 591.49 1912.78 591.49"/><rect class="cls-14" x="1895.64" y="564.27" width="0.17" height="41.92"/><polygon class="cls-13" points="1897.19 562.9 1894.27 562.9 1894.27 607.56 1897.19 607.56 1897.19 562.9 1897.19 562.9"/><rect class="cls-14" x="1878.68" y="576.3" width="34.1" height="2.68"/><polygon class="cls-13" points="1912.78 576.3 1878.68 576.3 1878.68 578.98 1912.78 578.98 1912.78 576.3 1912.78 576.3"/><rect class="cls-14" x="1880.06" y="627.51" width="31.35" height="41.92"/><path class="cls-13" d="M1910,628.89v39.17h-28.6V628.89H1910m2.75-2.75h-34.1v44.67h34.1V626.14Z"/><rect class="cls-14" x="1878.68" y="654.73" width="34.1" height="2.68"/><polygon class="cls-13" points="1912.78 654.73 1878.68 654.73 1878.68 657.41 1912.78 657.41 1912.78 654.73 1912.78 654.73"/><rect class="cls-14" x="1895.64" y="627.51" width="0.17" height="41.92"/><polygon class="cls-13" points="1897.19 626.14 1894.27 626.14 1894.27 670.8 1897.19 670.8 1897.19 626.14 1897.19 626.14"/><rect class="cls-14" x="1878.68" y="639.54" width="34.1" height="2.68"/><polygon class="cls-13" points="1912.78 639.54 1878.68 639.54 1878.68 642.22 1912.78 642.22 1912.78 639.54 1912.78 639.54"/><rect class="cls-14" x="1880.06" y="690.98" width="31.35" height="41.92"/><path class="cls-13" d="M1910,692.36v39.17h-28.6V692.36H1910m2.75-2.75h-34.1v44.66h34.1V689.61Z"/><rect class="cls-14" x="1878.68" y="718.2" width="34.1" height="2.68"/><polygon class="cls-13" points="1912.78 718.2 1878.68 718.2 1878.68 720.88 1912.78 720.88 1912.78 718.2 1912.78 718.2"/><rect class="cls-14" x="1895.64" y="690.98" width="0.17" height="41.92"/><polygon class="cls-13" points="1897.19 689.61 1894.27 689.61 1894.27 734.27 1897.19 734.27 1897.19 689.61 1897.19 689.61"/><rect class="cls-14" x="1878.68" y="703.01" width="34.1" height="2.68"/><polygon class="cls-13" points="1912.78 703.01 1878.68 703.01 1878.68 705.69 1912.78 705.69 1912.78 703.01 1912.78 703.01"/><rect class="cls-14" x="1832.61" y="627.51" width="12" height="41.92"/><path class="cls-13" d="M1843.23,628.89v39.17H1834V628.89h9.25m2.75-2.75h-14.75v44.67H1846V626.14Z"/><rect class="cls-14" x="1831.2" y="654.73" width="14.78" height="2.68"/><polygon class="cls-13" points="1845.98 654.73 1831.2 654.73 1831.2 657.41 1845.98 657.41 1845.98 654.73 1845.98 654.73"/><rect class="cls-14" x="1831.2" y="639.54" width="14.78" height="2.68"/><polygon class="cls-13" points="1845.98 639.54 1831.2 639.54 1831.2 642.22 1845.98 642.22 1845.98 639.54 1845.98 639.54"/><rect class="cls-14" x="1832.63" y="564.27" width="12" height="41.92"/><path class="cls-13" d="M1843.25,565.65v39.17H1834V565.65h9.25m2.75-2.75h-14.75v44.66H1846V562.9Z"/><rect class="cls-14" x="1831.21" y="591.48" width="14.78" height="2.68"/><polygon class="cls-13" points="1846 591.49 1831.21 591.49 1831.21 594.16 1846 594.16 1846 591.49 1846 591.49"/><rect class="cls-14" x="1831.21" y="576.3" width="14.78" height="2.68"/><polygon class="cls-13" points="1846 576.3 1831.21 576.3 1831.21 578.98 1846 578.98 1846 576.3 1846 576.3"/><polygon class="cls-16" points="1934.15 546.76 1922.24 744.08 1831.41 742.48 1832.98 744.08 1831.41 461.02 1961.86 461.61 1934.15 546.76"/><line class="cls-29" x1="181.11" y1="460.58" x2="233.41" y2="743.69"/><line class="cls-29" x1="185.78" y1="460.14" x2="272.18" y2="743.69"/><line class="cls-29" x1="170.8" y1="460.58" x2="118.49" y2="743.69"/><line class="cls-29" x1="166.12" y1="460.14" x2="79.73" y2="743.69"/><polygon class="cls-30" points="193.75 745.14 161.24 745.14 171.75 375.96 183.23 375.96 193.75 745.14"/><rect class="cls-31" x="157.41" y="459.26" width="40.17" height="3.51"/><rect class="cls-31" x="161.23" y="437.34" width="31.56" height="3.51"/><ellipse class="cls-31" cx="184.29" cy="450.4" rx="4.68" ry="4.29"/><path class="cls-38" d="M-3.26,744.08v57h1925.5v-57Zm1900.43,8h14v7h-14Zm14,41h-14v-26h14Zm-1880.37-26h14v26h-14Zm28.08,0H73v26h-14Zm29.08,0h14v26H88Zm29.08,0h14v26h-14Zm28.09,0h14v26h-14Zm28.08,0h14v26h-14Zm29.08,0h14v26h-14Zm31.09,0h14v26h-14Zm28.08,0h14v26h-14Zm28.08,0h14v26h-14Zm29.08,0h14v26h-14Zm29.08,0h14v26h-14Zm28.08,0h14v26h-14Zm28.08,0h14v26h-14Zm29.09,0h14v26H433Zm29.08,0h14v26h-14Zm28.08,0h14v26h-14Zm28.08,0h14v26h-14Zm29.08,0h14v26h-14Zm31.09,0h14v26h-14Zm28.08,0h14v26h-14Zm28.08,0h14v26h-14Zm29.09,0h14v26h-14Zm28.08,0h14v26h-14Zm28.08,0h14v26h-14Zm28.08,0h14v26h-14Zm29.08,0h14v26H777Zm29.08,0h14v26h-14Zm28.08,0h14v26h-14Zm28.08,0h14v26h-14Zm29.09,0h14v26h-14Zm31.08,0h14v26h-14Zm28.08,0h14v26h-14Zm28.08,0h14v26h-14Zm29.09,0h14v26h-14Zm29.08,0h14v26h-14Zm28.08,0h14v26h-14Zm28.08,0h14v26h-14Zm29.08,0h14v26h-14Zm29.09,0h14v26h-14Zm28.08,0h14v26h-14Zm28.08,0h14v26h-14Zm29.08,0h14v26h-14Zm31.09,0h14v26h-14Zm28.08,0h14v26h-14Zm28.08,0h14v26h-14Zm29.08,0h14v26h-14Zm29.09,0h14v26h-14Zm28.08,0h14v26h-14Zm28.08,0h14v26h-14Zm29.08,0h14v26h-14Zm29.08,0h14v26h-14Zm28.08,0h14v26h-14Zm28.08,0h14v26h-14Zm29.09,0h14v26h-14Zm31.08,0h14v26h-14Zm28.08,0h14v26h-14Zm28.08,0h14v26h-14Zm29.09,0h14v26h-14Zm29.08,0h14v26h-14Zm28.08,0h14v26h-14Zm28.08,0h14v26h-14Zm29.08,0h14v26h-14Zm29.09,0h14v26h-14Zm28.08,0h14v26h-14Zm0-15h14v7h-14Zm-28.08,0h14v7h-14Zm-29.09,0h14v7h-14Zm-29.08,0h14v7h-14Zm-28.08,0h14v7h-14Zm-28.08,0h14v7h-14Zm-29.08,0h14v7h-14Zm-29.09,0h14v7h-14Zm-28.08,0h14v7h-14Zm-28.08,0h14v7h-14Zm-31.08,0h14v7h-14Zm-29.09,0h14v7h-14Zm-28.08,0h14v7h-14Zm-28.08,0h14v7h-14Zm-29.08,0h14v7h-14Zm-29.08,0h14v7h-14Zm-28.08,0h14v7h-14Zm-28.08,0h14v7h-14Zm-29.09,0h14v7h-14Zm-29.08,0h14v7h-14Zm-28.08,0h14v7h-14Zm-28.08,0h14v7h-14Zm-31.09,0h14v7h-14Zm-29.08,0h14v7h-14Zm-28.08,0h14v7h-14Zm-28.08,0h14v7h-14Zm-29.09,0h14v7h-14Zm-29.08,0h14v7h-14Zm-28.08,0h14v7h-14Zm-28.08,0h14v7h-14Zm-29.08,0h14v7h-14Zm-29.09,0h14v7h-14Zm-28.08,0h14v7h-14Zm-28.08,0h14v7h-14Zm-31.08,0h14v7h-14Zm-29.09,0h14v7h-14Zm-28.08,0h14v7h-14Zm-28.08,0h14v7h-14Zm-29.08,0h14v7H777Zm-29.08,0h14v7h-14Zm-28.08,0h14v7h-14Zm-28.08,0h14v7h-14Zm-28.08,0h14v7h-14Zm-29.09,0h14v7h-14Zm-28.08,0h14v7h-14Zm-28.08,0h14v7h-14Zm-31.09,0h14v7h-14Zm-29.08,0h14v7h-14Zm-28.08,0h14v7h-14Zm-28.08,0h14v7h-14Zm-29.08,0h14v7H433Zm-29.09,0h14v7h-14Zm-28.08,0h14v7h-14Zm-28.08,0h14v7h-14Zm-29.08,0h14v7h-14Zm-29.08,0h14v7h-14Zm-28.08,0h14v7h-14Zm-28.08,0h14v7h-14Zm-31.09,0h14v7h-14Zm-29.08,0h14v7h-14Zm-28.08,0h14v7h-14Zm-28.09,0h14v7h-14Zm-29.08,0h14v7H88Zm-29.08,0H73v7h-14Zm-28.08,0h14v7h-14Zm-28.08,0h14v7h-14Zm0,15h14v26h-14Z"/><polygon class="cls-32" points="1543.23 744.26 1543.23 695.04 1617.75 670.48 1695.3 694.85 1695.3 744.26 1543.23 744.26"/><polyline class="cls-33" points="1572.88 744.26 1572.88 724.97 1665.65 724.6 1665.65 744.26"/><line class="cls-33" x1="1603.48" y1="724.97" x2="1603.48" y2="744.26"/><line class="cls-33" x1="1632.18" y1="724.97" x2="1632.18" y2="744.26"/><polygon class="cls-15" points="1629.8 700.86 1618.31 711.4 1606.81 700.86 1618.31 690.32 1629.8 700.86"/><polygon class="cls-16" points="1583.88 682.5 1612.04 723.22 1621.06 723.22 1636 744.26 1695.3 744.26 1695.3 696.55 1617.75 670.42 1583.88 682.5"/><polyline class="cls-34" points="1531.75 698.91 1617.75 670.48 1702.31 698.91"/><line class="cls-29" x1="550.6" y1="449.52" x2="712.12" y2="743.69"/><line class="cls-29" x1="555.27" y1="460.14" x2="641.67" y2="743.69"/><line class="cls-29" x1="536.14" y1="449.52" x2="374.62" y2="743.69"/><line class="cls-29" x1="531.47" y1="460.14" x2="445.07" y2="743.69"/><polygon class="cls-30" points="560.05 744.26 527.53 744.26 538.05 375.08 549.53 375.08 560.05 744.26"/><rect class="cls-31" x="523.71" y="458.39" width="40.17" height="3.51"/><rect class="cls-31" x="527.54" y="436.46" width="31.56" height="3.51"/><ellipse class="cls-31" cx="550.6" cy="449.52" rx="4.68" ry="4.29"/><polygon class="cls-32" points="360.17 744.26 360.17 695.04 434.69 670.48 512.23 694.85 512.23 744.26 360.17 744.26"/><polyline class="cls-33" points="389.81 744.26 389.81 724.97 482.58 724.6 482.58 744.26"/><line class="cls-33" x1="420.42" y1="724.97" x2="420.42" y2="744.26"/><line class="cls-33" x1="449.11" y1="724.97" x2="449.11" y2="744.26"/><polygon class="cls-15" points="446.74 700.86 435.24 711.4 423.75 700.86 435.24 690.32 446.74 700.86"/><polygon class="cls-16" points="400.82 682.5 428.98 723.22 438 723.22 452.94 744.26 512.23 744.26 512.23 696.55 434.69 670.42 400.82 682.5"/><polyline class="cls-34" points="348.69 698.91 434.69 670.48 519.25 698.91"/><polygon class="cls-32" points="595.44 744.26 595.44 695.04 669.96 670.48 747.51 694.85 747.51 744.26 595.44 744.26"/><polyline class="cls-33" points="625.09 744.26 625.09 724.97 717.86 724.6 717.86 744.26"/><line class="cls-33" x1="655.69" y1="724.97" x2="655.69" y2="744.26"/><line class="cls-33" x1="684.38" y1="724.97" x2="684.38" y2="744.26"/><polygon class="cls-15" points="682.01 700.86 670.52 711.4 659.02 700.86 670.52 690.32 682.01 700.86"/><polygon class="cls-16" points="636.09 682.5 664.25 723.22 673.27 723.22 688.21 744.26 747.51 744.26 747.51 696.55 669.96 670.42 636.09 682.5"/><polyline class="cls-34" points="583.96 698.91 669.96 670.48 754.52 698.91"/><path class="cls-39" d="M1325.39,216.17a67.37,67.37,0,0,0-103.15-56.79,27,27,0,0,0-10.31-2.28,47.58,47.58,0,0,0-66.16-36,47.59,47.59,0,0,0-91.43,5.21,46.79,46.79,0,0,0-52.59,10,18.64,18.64,0,0,0-29.89,14.79c0,.23,0,.45,0,.67A60.64,60.64,0,0,0,918,211.94c0,1.66.07,3.31.21,4.94l-.21.2h407.38c0-.29,0-.57,0-.86Z"/></g></g></g></svg>