<?xml version="1.0" encoding="utf-8"?>
<!-- Generator: Adobe Illustrator 21.0.0, SVG Export Plug-In . SVG Version: 6.00 Build 0)  -->
<svg version="1.1" id="Layer_1" xmlns="http://www.w3.org/2000/svg" xmlns:xlink="http://www.w3.org/1999/xlink" x="0px" y="0px"
	 viewBox="0 0 1866.5 1001.1" style="enable-background:new 0 0 1866.5 1001.1;" xml:space="preserve">
<style type="text/css">
	.st0{fill:#FFFFFF;}
	.st1{fill:url(#SVGID_1_);}
	.st2{fill:url(#SVGID_2_);}
	.st3{opacity:0.51;fill:#FFFFFF;enable-background:new    ;}
	.st4{display:none;}
</style>
<g id="background_แค่แถวบน">
</g>
<g id="Layer_1_1_">
	<g>
		<g>
			<g>
				<circle class="st0" cx="166.6" cy="963.2" r="9.8"/>
				<circle class="st0" cx="1594.4" cy="789.6" r="8.4"/>
				<circle class="st0" cx="1031.1" cy="997.2" r="3.9"/>
			</g>
			<g>
				<circle class="st0" cx="1679.2" cy="311" r="12.1"/>
				<circle class="st0" cx="99.8" cy="827.3" r="6.8"/>
				<circle class="st0" cx="748.3" cy="594.3" r="8.6"/>
				<circle class="st0" cx="45.1" cy="219.3" r="4.9"/>
			</g>
		</g>
		
			<linearGradient id="SVGID_1_" gradientUnits="userSpaceOnUse" x1="210.95" y1="278.3027" x2="477.57" y2="278.3027" gradientTransform="matrix(1 0 0 -1 0 1002)">
			<stop  offset="0" style="stop-color:#F4B07D"/>
			<stop  offset="1" style="stop-color:#A5A5DB"/>
		</linearGradient>
		<path class="st1" d="M477.6,768.8c0-24.3-19.7-44-44.1-44c-8.6,0-16.7,2.5-23.5,6.8c-2.1-0.9-4.4-1.4-6.7-1.5
			c-2.3-14.9-15.2-26.3-30.7-26.3c-4.5,0-8.7,1-12.6,2.7c-4.2-12.2-9.1-23.2-26.3-27.5c-20.9-5.2-35.7,9.7-38.8,23.7
			c-3.8-1.7-2.8,4.5-7.3,4.5c-8.6,0-16.3,3.5-21.9,9.2c-2-1.6-4.6-2.5-7.4-2.5c-6.7,0-12.2,5.5-12.2,12.2c0,0.2,0,0.3,0,0.4
			c-19.8,2.2-35.3,19-35.3,39.5c0,1.1,0.1,2.2,0.1,3.2c0,0-0.1,0.1-0.1,0.1h0.1h79.2h99.1h88.1C477.6,769.3,477.6,769.1,477.6,768.8
			C477.6,768.9,477.6,768.8,477.6,768.8z"/>
		
			<linearGradient id="SVGID_2_" gradientUnits="userSpaceOnUse" x1="-5247.813" y1="868.5078" x2="-5086.563" y2="868.5078" gradientTransform="matrix(-1 0 0 -1 -3583.543 1002)">
			<stop  offset="0" style="stop-color:#F4B07D"/>
			<stop  offset="1" style="stop-color:#A5A5DB"/>
		</linearGradient>
		<path class="st2" d="M1503,160.8c0-14.7,11.9-26.6,26.7-26.6c5.2,0,10.1,1.5,14.2,4.1c1.3-0.6,2.6-0.9,4.1-0.9
			c1.4-9,9.2-15.9,18.6-15.9c2.7,0,5.3,0.6,7.6,1.6c2.5-7.4,5.5-14,15.9-16.6c12.6-3.2,21.6,5.9,23.4,14.3c2.3-1,1.7,2.7,4.4,2.7
			c5.2,0,9.9,2.1,13.2,5.6c1.2-0.9,2.8-1.5,4.5-1.5c4.1,0,7.4,3.3,7.4,7.4c0,0.1,0,0.2,0,0.3c12,1.4,21.3,11.5,21.3,23.9
			c0,0.7,0,1.3-0.1,2c0,0,0.1,0.1,0.1,0.1h-0.1h-47.9h-60H1503C1503,161.1,1503,160.9,1503,160.8C1503,160.8,1503,160.8,1503,160.8z
			"/>
		<path class="st3" d="M332.3,36.2h-39.5h-20.5h-9.9c-6.9,0-12.4-4.6-12.4-10.1s5.6-10.1,12.4-10.1h10.3h20h21.1
			c5.4,0,9.7-3.6,9.7-7.9S319.3,0,313.9,0H42.2c-5.4,0-9.7,3.6-9.7,7.9s4.4,7.9,9.7,7.9h50.3h22.2h8.1c6.8,0,12.5,4.6,12.5,10.1
			s-5.6,10.1-12.4,10.1h-7.7H92.6H10.8c-6,0-10.8,4-10.8,8.8s4.9,8.8,10.8,8.8h321.5c6,0,10.8-4,10.8-8.8S338.3,36.2,332.3,36.2z"/>
		<g>
			<g>
				<defs>
					<rect id="SVGID_3_" x="1448.6" y="647.8" width="417.9" height="199.6"/>
				</defs>
				<clipPath id="SVGID_4_">
					<use xlink:href="#SVGID_3_"  style="overflow:visible;"/>
				</clipPath>
			</g>
		</g>
	</g>
</g>
<g id="text" class="st4">
</g>
<g id="ปุ่มซ้ายขวา" class="st4">
</g>
<g id="ชื่อประเทศ" class="st4">
</g>
<g id="Layer_5">
</g>
<g id="รถในหลวง">
</g>
<g id="Layer_6">
</g>
<path class="st3" d="M1795.3,662.8h-63h-32.6H1684c-10.9,0-19.8-10.9-19.8-24.2c0-13.3,8.9-24.2,19.8-24.2h16.4h31.9h33.7
	c8.5,0,15.5-8.5,15.5-18.9c0-10.4-7-18.9-15.5-18.9h-433.2c-8.5,0-15.5,8.5-15.5,18.9c0,10.4,7,18.9,15.5,18.9h80.2h35.4h12.9
	c10.9,0,19.8,10.9,19.8,24.2c0,13.3-8.9,24.2-19.8,24.2h-12.3H1413h-130.3c-9.5,0-17.3,9.5-17.3,21c0,11.6,7.8,21,17.3,21h512.5
	c9.5,0,17.3-9.5,17.3-21C1812.5,672.3,1804.8,662.8,1795.3,662.8z"/>
</svg>
