<?xml version="1.0" encoding="utf-8"?>
<!-- Generator: Adobe Illustrator 16.0.0, SVG Export Plug-In . SVG Version: 6.00 Build 0)  -->
<!DOCTYPE svg PUBLIC "-//W3C//DTD SVG 1.1//EN" "http://www.w3.org/Graphics/SVG/1.1/DTD/svg11.dtd">
<svg version="1.1" id="Layer_1" xmlns="http://www.w3.org/2000/svg" xmlns:xlink="http://www.w3.org/1999/xlink" x="0px" y="0px"
	 width="1800px" height="600px" viewBox="0 0 1800 600" enable-background="new 0 0 1800 600" xml:space="preserve">
<g id="background_แค่แถวบน">
</g>
<g id="Layer_1_1_">
	<g>
		<g>
			<rect id="_x33__8_" x="1023.406" y="260.855" fill="#CD3234" width="48.408" height="35.444"/>
			<polygon fill="#FFFFFF" points="1071.815,276.049 1044.168,276.049 1044.168,260.855 1038.942,260.855 1038.942,276.049 
				1023.406,276.049 1023.406,281.114 1038.942,281.114 1038.942,296.3 1044.168,296.3 1044.168,281.114 1071.815,281.114 			"/>
		</g>
		<rect x="1021.148" y="258.321" fill="#504740" width="2.249" height="107.034"/>
		<ellipse fill="#504740" cx="1022.334" cy="256.813" rx="3.134" ry="3.047"/>
	</g>
	<path fill="#F59261" d="M1599.799,2.542c99.071,0,179.396,78.065,179.396,174.364c0,96.299-80.324,174.363-179.396,174.363
		c-99.084,0-179.403-78.064-179.403-174.363C1420.396,80.608,1500.715,2.542,1599.799,2.542z"/>
	<g>
		<polygon fill="#6D3E1F" points="236.109,264.064 189.986,214.599 143.874,264.064 122.585,309.479 129.887,309.479 
			147.42,272.553 189.986,227.89 232.561,272.553 250.085,309.479 257.387,309.479 		"/>
		<polygon fill="#FFF1D0" points="233.651,266.479 189.986,219.649 146.328,266.479 126.17,309.479 133.087,309.479 149.688,274.52 
			189.986,232.234 230.292,274.52 246.884,309.479 253.801,309.479 		"/>
		<polygon fill="#6D3E1F" points="229.136,292.456 189.986,250.472 150.845,292.456 132.777,331 138.978,331 153.858,299.665 
			189.986,261.75 226.124,299.665 241.002,331 247.204,331 		"/>
		<polygon fill="#FFF1D0" points="227.047,294.514 189.986,254.754 152.925,294.514 135.827,331 141.689,331 155.778,301.338 
			189.986,265.436 224.195,301.338 238.282,331 244.154,331 		"/>
		<polygon fill="#CD3234" points="230.292,274.52 189.986,232.234 149.688,274.52 133.087,309.479 133.087,433.308 189.986,433.308 
			246.884,433.308 246.884,309.479 		"/>
		<polygon fill="#AE2227" points="230.292,274.52 189.986,232.234 149.688,274.52 133.087,309.479 133.087,328.713 153.368,282.056 
			189.986,242.479 226.604,282.056 246.884,328.713 246.884,309.479 		"/>
		<rect x="180.839" y="320.018" fill="#FFF1D0" width="17.813" height="47.469"/>
		<rect x="183.079" y="322.189" fill="#302829" width="13.333" height="43.119"/>
		<rect x="157.396" y="379.167" fill="#FFF1D0" width="65.191" height="56.735"/>
		<g>
			<g>
				<polygon fill="#AE2227" points="187.154,390.225 187.154,425.942 176.189,408.079 				"/>
				<polygon fill="#AE2227" points="161.536,425.942 161.536,390.225 172.5,408.079 				"/>
				<polygon fill="#AE2227" points="174.411,384.18 161.536,384.18 174.411,403.908 187.285,384.18 				"/>
				<polygon fill="#AE2227" points="174.411,431.466 187.285,431.466 174.411,411.738 161.536,431.466 				"/>
			</g>
		</g>
		<g>
			<g>
				<polygon fill="#AE2227" points="218.313,389.941 218.313,425.653 207.339,407.798 				"/>
				<polygon fill="#AE2227" points="192.695,425.653 192.695,389.941 203.661,407.798 				"/>
				<polygon fill="#AE2227" points="205.57,383.896 192.695,383.896 205.57,403.625 218.435,383.896 				"/>
				<polygon fill="#AE2227" points="205.57,431.183 218.435,431.183 205.57,411.454 192.695,431.183 				"/>
			</g>
		</g>
		<rect x="131.29" y="398.574" fill="#DED0B4" width="26.096" height="5.334"/>
		<rect x="222.586" y="398.574" fill="#DED0B4" width="26.095" height="5.334"/>
		<rect x="180.839" y="367.486" fill="#AE2227" width="17.813" height="2.527"/>
		<rect x="133.087" y="403.908" fill="#AE2227" width="24.298" height="2.771"/>
		<rect x="222.586" y="403.908" fill="#AE2227" width="24.297" height="2.771"/>
	</g>
	<path fill="#4E5C37" d="M-4.5,422.914c0,0,44.231-14.027,73.405-9.784c29.174,4.253,107.104,20.524,142.01,19.866
		c34.917-0.659,48.089-7.271,92.321,24.064c44.231,31.336,135.518,75.036,212.688,86.361
		c77.17,11.326,230.567,19.822,230.567,19.822l119.045,10.034H-4.5V422.914z"/>
	<g>
		<ellipse fill="#CDCCCC" cx="1724.189" cy="170.284" rx="31.198" ry="4.125"/>
		<g>
			<path fill="#010101" d="M1688.334,130.606c0,0-2.25-1.216-4.011-1.097c0,0-0.253,3.036,3.5,2.917c0,0-0.498,1.701-0.873,2.314
				c-0.378,0.604,0.123,1.702,0.123,1.702s-0.376,3.037-1.254,3.896c-0.876,0.851-0.252,3.649,1.131,3.649
				c1.373,0,2.125,0.367,2.757,0.367c0.62,0,1.254-0.486,2.004-1.336c0.754-0.851,1.748-2.68,2.759-2.433
				c1.009,0.246,2.248,1.819,3.001,4.618c0.753,2.799,1.375,4.135,1.874,4.382c0.375,0.73,1.131,4.015,1.374,4.499
				c0.244,0.486,3.376,2.434,5.881,2.314c0,0-0.255,4.382,0.121,6.814c0.039,0.266-0.498,3.403-0.999,3.896
				c-0.495,0.494-0.617,1.217-1.249,2.187c0,0,4.376,1.336,4.01-0.97c0,0,0.498-0.484,0.754-0.969l-0.378-4.619
				c0,0,2.382-4.501,2.382-5.599c0,0,1.249,2.682,0.873,5.835c0,0,1.507,2.8-0.751,6.815l-0.632,1.463c0,0,2.128,0.969,4.01-0.365
				c0,0,0.122-5.836,0-7.418c0,0,1.627-4.5,1.376-9.248c0,0,8.636,2.315,13.134,0.731c0,0,2.63,3.403,3.634,3.896
				c0,0-0.994,1.463-0.496,1.821c0.496,0.356,1.128-0.732,1.128-0.732l0.875,0.365c0,0-0.124,0.969,0.375,1.216
				c0.499,0.248,0.754-0.85,0.754-0.85s1.751,0.246,2.006,0.119l0.498,1.582l-4.621,6.146c-0.219,0.329,0.049,0.75,0.442,0.731
				l2.722-0.156c0.312-0.018,0.563-0.255,0.6-0.557c0.048-0.367,0.16-0.787,0.474-0.934c0.497-0.248,0.753-0.604,0.753-0.851
				s0.122-1.583,0.497-2.067c0.376-0.486,3.003-4.985,3.003-4.985l0.124-0.852l2.125-2.313c0,0,3.124,3.648,2.503,7.783
				c-0.632,4.135-1.13,4.866-1.13,4.866s-2.249,1.948-1.628,2.552c0.62,0.604,3.5-0.366,3.5-0.366s1.375-1.948,1.375-5.469
				c0-3.532-0.253-8.149,0.256-8.881c0.51-0.731-0.256-3.65-0.754-4.867c0,0,1.372-15.202-1.505-17.634c0,0,1.627,1.217,2.003,3.531
				c0.377,2.315,0.122,5.835,0.634,7.18c0.505,1.345,1.249,4.015,1.871,4.254c0,0-0.121,2.432,0.628,3.284
				c0.754,0.851,2.006,2.314,0.754,4.985c0,0,3.879-4.134-0.631-8.149c0,0-2.501-4.254-2.248-7.052
				c0.254-2.798,0.375-8.635-2.627-10.702c-3.002-2.067-8.76-1.949-10.764-1.216c0,0-5.129,1.216-13.771,0.972
				c-8.642-0.249-10.389-0.972-13.014-0.972c-2.626,0-5.88,1.336-7.011,1.336s-5.262-0.731-5.76-0.969l1.505-0.119
				c0,0,2.004-1.214,2.004-1.948c0-0.73-4.008-0.247-5.005,0.605c0,0-0.754-0.851-1.754-1.097c-0.996-0.247-3.632,0.119-4.007,0.365
				C1689.207,129.023,1688.201,129.992,1688.334,130.606z"/>
			<path fill="#FFFFFF" d="M1741.975,158.851l-0.074,1.071c0,0-3.378,5.469-3.378,6.2c0,0.733,0.123,1.098-0.122,1.337
				c-0.245,0.238-0.875,0.119-1.13,1.336c0,0-2.007-0.12-3.256-1.098c0,0,3.501-5.232,3.501-5.599c0-0.365-0.01-1.353-0.01-1.353
				S1741.178,158.027,1741.975,158.851z"/>
			<path fill="#F3D9CE" d="M1729.627,156.023c0,0,1.131,2.434,2.885,3.164c0,0-0.622,1.584,0,1.703
				c0.625,0.119,0.994-0.969,0.994-0.969l0.875,0.483c0,0-0.121,1.217,0.377,1.217c0.496,0,0.753-0.851,0.753-0.851
				s5.253,0.841,8.573-4.079s-5.194-8.453-6.821-8.453C1735.642,148.24,1729.627,156.023,1729.627,156.023z"/>
			<path fill="#FFFFFF" d="M1706.563,156.418c0,0-0.207,5.323,0.169,6.787c-0.255,2.8-1.372,4.382-1.372,4.382
				s0.873,0.119,1.504,0.484c0.622,0.366,1.628,1.098,2.383-0.731c0,0-0.375-4.015,0.377-5.47c0.75-1.455,2.002-5.598,2.002-5.598
				l-1.131-2.314L1706.563,156.418z"/>
			<path fill="#FFFFFF" d="M1689.527,142.112l0.556-0.805v-2.798l-0.619-0.971c0,0,0-2.432,0.255-2.917
				c0.254-0.484,0.997-0.731,1.629-0.731c0,0,1.505-1.821,1.126-2.919c0,0,0.256-0.731,0.621-1.097v-0.485c0,0-1.627,0.12-1.87,0
				c-0.245-0.119-1.506,0.969-1.506,0.969v-0.605l-0.255,0.12l-0.876,0.851c0,0,0.124,1.702-1.251,3.531
				c0,0,0.498,0.969,0.629,1.464c0.124,0.483-0.994,1.819-0.994,1.948c0,0.126-1.13,3.529-1.374,3.648
				C1685.35,141.436,1689.527,142.112,1689.527,142.112z"/>
			<path fill="#4D4B4A" d="M1685.577,141.307c0,0,0.252,0.247,0.874,0.247s2.384,0,2.756,0.119c0.377,0.12,0.5,0.604,0.377,0.851
				c-0.121,0.246-1.129,1.701-1.627,1.701c-0.5,0-2.127-0.248-2.38-0.969C1685.322,142.533,1685.198,141.436,1685.577,141.307z"/>
			<path fill="#010101" d="M1688.951,142.039c0.191-0.063-1.751,1.217-1.371,1.336c0.377,0.12,0.688-0.549,0.688-0.549
				S1688.769,142.104,1688.951,142.039z"/>
			<path fill="#FFFFFF" d="M1692.454,141.792c0,0,0-1.582,2.76-2.679c0,0,1.128-1.098,1.252-1.462
				c0.12-0.368,0.12,0.117,0.377,0.484c0.252,0.366,0.872,0.851,1.249,1.097c0.378,0.248,0.256,0.248-0.121,0.604
				c-0.379,0.366-0.876,0.97-0.997,1.335c-0.123,0.366-0.256,1.217-0.622,1.336c0,0-1.505-2.313-2.249-1.819
				C1693.356,141.179,1692.454,141.792,1692.454,141.792z"/>
			<path fill="#FFFFFF" d="M1710.486,155.54c0,0-4.01,2.315-7.764,0c0,0,0.878-2.314,0.501-3.165
				c-0.378-0.85,1.871-0.97,2.878-0.603c1.007,0.365,1.374-1.703,2.126-2.186c0.754-0.486,2.249-1.217,2.006-1.82
				c-0.248-0.604-1.874-1.218-1.874-2.187c0-0.968,1.13-1.702,1-3.283c-0.123-1.583-0.755-1.098-0.5-2.067
				c0.254-0.969,1.627-1.82,1.749-3.165c0.123-1.336-1.749-3.402-0.754-3.896c1.001-0.495,3.635,0.603,4.376,2.315
				c0.746,1.709,1.508,4.134,0.125,5.113c-1.374,0.968-2.759,1.333-2.005,3.036c0.752,1.701,0.253,0.969,2.126,2.067
				c1.873,1.097,4.885,2.186,6.38,1.949c1.495-0.238,4.753-2.681,5.506-4.253c0.753-1.574,0.998,0.247,2.505,0.119
				c1.505-0.128,1.128-1.583,1.128-3.649c0-2.068,2.248-4.381,3.5-5.115c1.25-0.73,1.751-2.679,0.999-3.767l1.873-0.248
				c0,0,2.247,0.604,2.125,2.8c-0.123,2.186,0.628,3.402,1.504,4.135c0.878,0.731,0.123,1.819,1.374,1.946
				c1.254,0.129,2.384-0.484,2.384-0.484s0.377,1.336,0.752,2.186c0.378,0.851-0.123,0.97,0.756,1.948
				c0.873,0.97,0.372,1.582,0.995,2.799c0.631,1.216,2.006,3.285,2.006,3.285s-0.125,2.313,0.121,3.036
				c0.241,0.722,1.13,2.68,0.999,3.649c-0.124,0.969-0.501,2.434-0.501,3.166c0,0.732-0.122,8.396-0.122,8.396l-1.13,4.015
				c0,0-2.879-1.463-3.499-1.335c0,0,1.87-1.216,2.004-4.747c0.122-3.531,0.498-5.113-2.128-9.001
				c-2.623-3.896-2.501-1.82-4.374-5.598c0,0-0.753-1.701-1.752-1.581c-0.995,0.118-3.753,5.597-8.265,6.686
				c-4.506,1.088-13.135-0.731-13.135-0.731s-0.123,5.716-1.13,7.18c0,0-0.375,1.463-0.254,2.679
				c0.121,1.217-0.255,5.719-0.255,5.719s-1.751,0.119-2.249-0.367c-0.498-0.483-1.873-0.483-1.873-0.483s2.128-3.402,1.131-6.934
				c0,0-0.122-0.851-0.122-2.313C1711.73,159.317,1710.486,155.54,1710.486,155.54z"/>
			<path fill="#707372" d="M1705.351,167.586l-0.878,1.7c0,0,4.256,1.336,4.029-0.869
				C1708.5,168.418,1705.979,167.22,1705.351,167.586z"/>
			<path fill="#707372" d="M1710.608,170.021v1.334c0,0,2.76,1.217,4.133-0.483C1714.74,170.87,1711.861,169.653,1710.608,170.021z"
				/>
			<path fill="#707372" d="M1733.892,167.705c0,0-1.128,1.216-0.631,1.582c0.498,0.366,3.756-0.119,3.756-0.119l0.12-0.366
				L1733.892,167.705z"/>
			<path fill="#707372" d="M1744.328,170.283c0,0-1.056,1.317-0.557,1.684c0.5,0.366,3.754-0.367,3.754-0.367
				S1745.384,170.183,1744.328,170.283z"/>
		</g>
		<g>
			<ellipse fill="#CDCCCC" cx="1731.295" cy="172.717" rx="6.512" ry="0.823"/>
			<g>
				<path fill="#CDCCCC" d="M1735.028,172.671l0.574-9.541h-11.414l0.572,9.541c-0.047,0.027,2.261,0.877,5.141,0.877
					C1732.771,173.549,1735.075,172.698,1735.028,172.671z"/>
				<ellipse fill="#B5B6B6" cx="1729.893" cy="163.132" rx="5.702" ry="0.393"/>
				<path fill="none" stroke="#B5B6B6" stroke-width="0.1064" stroke-miterlimit="10" d="M1724.436,166.972
					c0,0,6.604,0.816,10.913-0.099"/>
				<path fill="none" stroke="#B5B6B6" stroke-width="0.1064" stroke-miterlimit="10" d="M1724.436,167.558
					c0,0,6.604,0.814,10.913-0.1"/>
				<path fill="none" stroke="#B5B6B6" stroke-width="0.1064" stroke-miterlimit="10" d="M1724.537,168.144
					c0,0,6.407,0.814,10.708-0.1"/>
				<path fill="#CDCCCC" d="M1724.295,162.354c0.106,0,0.195,0.217,0.195,0.485s-0.089,0.484-0.195,0.484
					c-0.111,0-0.199-0.217-0.199-0.484C1724.096,162.57,1724.184,162.354,1724.295,162.354z"/>
				<ellipse fill="#CDCCCC" cx="1735.406" cy="162.839" rx="0.195" ry="0.485"/>
				<path fill="none" stroke="#989898" stroke-width="0.2128" stroke-miterlimit="10" d="M1724.295,162.838
					c0,0-1.104,7.976,5.804,7.692c6.908-0.293,5.309-7.692,5.309-7.692"/>
				<ellipse fill="#FFFFFF" cx="1729.741" cy="163.277" rx="4.9" ry="0.293"/>
			</g>
			<path opacity="0.56" fill="#CDCCCC" enable-background="new    " d="M1735.406,163.323c0,0-6.211,9.046-10.618,9.34
				c0,0,4.104,1.948,10.212,0C1735,172.671,1735.604,163.817,1735.406,163.323z"/>
		</g>
	</g>
	<g>
		<ellipse fill="#CDCCCC" cx="1136.082" cy="347.456" rx="27.049" ry="3.577"/>
		<path fill="#504740" d="M1104.995,313.055c0,0-1.956-1.051-3.471-0.951c0,0-0.216,2.635,3.042,2.535c0,0-0.435,1.473-0.765,2
			c-0.329,0.531,0.112,1.473,0.112,1.473s-0.332,2.637-1.084,3.377c-0.753,0.738-0.217,3.164,0.98,3.164
			c1.194,0,1.844,0.32,2.392,0.32c0.544,0,1.081-0.42,1.73-1.16c0.651-0.74,1.517-2.324,2.393-2.117
			c0.861,0.212,1.954,1.586,2.606,4.009c0.648,2.426,1.194,3.586,1.629,3.797c0.329,0.631,0.978,3.476,1.193,3.906
			c0.217,0.42,2.928,2.11,5.102,2.003c0,0-0.219,3.796,0.114,5.908c0.036,0.23-0.436,2.955-0.867,3.375
			c-0.437,0.42-0.548,1.052-1.081,1.904c0,0,3.801,1.16,3.472-0.842c0,0,0.435-0.422,0.649-0.845l-0.33-4.004
			c0,0,2.061-3.905,2.061-4.849c0,0,1.082,2.321,0.764,5.058c0,0,1.298,2.424-0.647,5.909l-0.548,1.265c0,0,1.845,0.84,3.473-0.319
			c0,0,0.113-5.062,0-6.432c0,0,1.414-3.905,1.195-8.012c0,0,7.493,2.002,11.396,0.63c0,0-0.311-2.212,0.558-1.781
			c0,0,1.298-3.021,1.732-2.709c0.432,0.319,2.061-6.501,2.061-6.501l-0.228,8.559c0,0,1.659-4.041,2.091-3.83
			c0.434,0.211,2.928-0.402,2.928-0.402s-2.194,11.837-1.977,11.734l0.435,1.373l-4.003,5.328c-0.187,0.284,0.037,0.65,0.388,0.635
			l2.361-0.139c0.274-0.021,0.489-0.22,0.527-0.486c0.036-0.308,0.143-0.684,0.405-0.813c0.432-0.211,0.647-0.527,0.647-0.736
			c0-0.211,0.11-1.373,0.433-1.798c0.33-0.421,2.609-4.325,2.609-4.325l0.111-0.738l1.846-2.004c0,0,2.71,3.164,2.175,6.75
			c-0.549,3.584-0.979,4.219-0.979,4.219s-1.96,1.683-1.412,2.214c0.546,0.528,3.041-0.32,3.041-0.32s1.193-1.685,1.193-4.747
			c0-3.053-0.218-7.068,0.217-7.701c0.434-0.631-0.217-3.166-0.649-4.217c0,0,1.194-13.182-1.297-15.295c0,0,1.409,1.055,1.73,3.057
			c0.33,2.004,0.112,5.059,0.546,6.217c0.435,1.164,1.081,3.479,1.626,3.699c0,0-0.109,2.111,0.549,2.846
			c0.647,0.74,1.731,2.001,0.647,4.326c0,0,3.359-3.586-0.546-7.071c0,0-2.174-3.697-1.957-6.119
			c0.217-2.425,0.33-7.492-2.276-9.286c-2.609-1.79-7.599-1.684-9.339-1.051c0,0-4.451,1.051-11.932,0.84
			c-7.494-0.211-9.009-0.84-11.285-0.84c-2.277,0-5.099,1.16-6.081,1.16c-0.979,0-4.553-0.633-4.987-0.84l1.3-0.11
			c0,0,1.73-1.05,1.73-1.683c0-0.631-3.473-0.211-4.338,0.529c0,0-0.648-0.74-1.515-0.951c-0.864-0.209-3.146,0.11-3.472,0.32
			C1105.75,311.684,1104.887,312.525,1104.995,313.055z"/>
		<path fill="#FFFFFF" d="M1151.507,337.55l-0.066,0.923c0,0-2.927,4.748-2.927,5.381c0,0.631,0.111,0.951-0.113,1.16
			c-0.214,0.209-0.762,0.107-0.979,1.159c0,0-1.729-0.108-2.822-0.95c0,0,3.04-4.535,3.04-4.846c0-0.32-0.009-1.182-0.009-1.182
			S1150.811,336.826,1151.507,337.55z"/>
		<path fill="#FFFFFF" d="M1120.8,335.436c0,0-0.179,4.621,0.15,5.881c-0.219,2.426-1.196,3.797-1.196,3.797
			s0.764,0.107,1.301,0.422c0.544,0.32,1.412,0.951,2.063-0.633c0,0-0.33-3.477,0.327-4.744c0.648-1.266,1.732-4.85,1.732-4.85
			l-0.979-2.002L1120.8,335.436z"/>
		<path fill="#FFFFFF" d="M1106.034,323.034l0.479-0.696v-2.422l-0.547-0.844c0,0,0-2.112,0.218-2.533
			c0.217-0.419,0.863-0.629,1.41-0.629c0,0,1.3-1.584,0.979-2.535c0,0,0.219-0.631,0.547-0.95v-0.42c0,0-1.412,0.108-1.631,0
			c-0.216-0.108-1.297,0.84-1.297,0.84v-0.528l-0.217,0.108l-0.763,0.741c0,0,0.109,1.473-1.081,3.057c0,0,0.434,0.84,0.546,1.262
			c0.112,0.418-0.866,1.582-0.866,1.684c0,0.1-0.98,3.053-1.197,3.163C1102.393,322.438,1106.034,323.034,1106.034,323.034z"/>
		<path fill="#4D4B4A" d="M1102.606,322.338c0,0,0.217,0.209,0.764,0.209s2.062,0,2.392,0.111c0.33,0.107,0.435,0.529,0.33,0.742
			c-0.113,0.209-0.979,1.471-1.411,1.471c-0.433,0-1.848-0.21-2.063-0.838C1102.402,323.4,1102.281,322.438,1102.606,322.338z"/>
		<path fill="#010101" d="M1105.534,322.969c0.16-0.056-1.513,1.055-1.191,1.165c0.329,0.108,0.592-0.478,0.592-0.478
			S1105.373,323.023,1105.534,322.969z"/>
		<path fill="#FFFFFF" d="M1108.573,322.76c0,0,0-1.371,2.391-2.32c0,0,0.979-0.951,1.083-1.265
			c0.112-0.321,0.112,0.109,0.328,0.421c0.219,0.32,0.765,0.741,1.082,0.95c0.319,0.209,0.219,0.209-0.111,0.53
			c-0.328,0.318-0.762,0.84-0.865,1.158c-0.114,0.322-0.217,1.056-0.546,1.166c0,0-1.299-2.006-1.958-1.586
			C1109.337,322.229,1108.573,322.76,1108.573,322.76z"/>
		<path fill="#FFFFFF" d="M1124.204,334.676c0,0-3.473,2.008-6.729,0c0,0,0.763-2.002,0.433-2.74
			c-0.328-0.742,1.629-0.843,2.497-0.531c0.864,0.318,1.191-1.475,1.843-1.901c0.649-0.421,1.956-1.05,1.73-1.58
			c-0.227-0.532-1.627-1.055-1.627-1.905c0-0.85,0.979-1.471,0.866-2.844c-0.112-1.374-0.648-0.953-0.434-1.792
			c0.216-0.84,1.411-1.582,1.517-2.745c0.11-1.16-1.517-2.951-0.651-3.373c0.866-0.422,3.146,0.53,3.805,2.002
			c0.647,1.475,1.298,3.584,0.11,4.426c-1.194,0.843-2.39,1.162-1.73,2.639c0.647,1.47,0.216,0.84,1.843,1.789
			c1.631,0.951,4.234,1.904,5.537,1.686c1.297-0.209,4.12-2.322,4.771-3.695c0.646-1.373,0.863,0.212,2.172,0.111
			c1.3-0.111,0.98-1.377,0.98-3.168s1.955-3.797,3.038-4.428c1.081-0.628,1.517-2.32,0.864-3.264l1.627-0.213
			c0,0,1.957,0.529,1.846,2.426c-0.113,1.9,0.547,2.953,1.3,3.586c0.765,0.632,0.114,1.581,1.195,1.682
			c1.082,0.11,2.062-0.419,2.062-0.419s0.329,1.16,0.647,1.901c0.32,0.74-0.113,0.844,0.649,1.685s0.33,1.371,0.865,2.423
			c0.545,1.053,1.73,2.846,1.73,2.846s-0.112,2.002,0.111,2.635c0.229,0.633,0.981,2.322,0.867,3.164
			c-0.115,0.842-0.436,2.111-0.436,2.742c0,0.632-0.11,7.281-0.11,7.281l-0.979,3.479c0,0-2.492-1.264-3.039-1.163
			c0,0,1.627-1.054,1.731-4.114c0.113-3.057,0.435-4.43-1.846-7.804c-2.275-3.373-2.174-1.583-3.802-4.849
			c0,0-0.648-1.474-1.515-1.371c-0.866,0.109-3.258,4.848-7.162,5.799s-11.396-0.631-11.396-0.631s-0.11,4.955-0.979,6.22
			c0,0-0.33,1.262-0.219,2.321c0.113,1.055-0.216,4.959-0.216,4.959s-1.517,0.109-1.958-0.319c-0.433-0.422-1.629-0.422-1.629-0.422
			s1.845-2.952,0.982-6.009c0,0-0.114-0.74-0.114-2.004C1125.26,337.925,1124.204,334.676,1124.204,334.676z"/>
		<path fill="#707372" d="M1119.754,345.113l-0.761,1.474c0,0,3.688,1.161,3.49-0.749
			C1122.484,345.838,1120.291,344.802,1119.754,345.113z"/>
		<path fill="#707372" d="M1124.31,347.229v1.16c0,0,2.39,1.053,3.576-0.421C1127.896,347.959,1125.393,346.906,1124.31,347.229z"/>
		<path fill="#707372" d="M1144.493,345.223c0,0-0.978,1.053-0.543,1.373c0.434,0.318,3.257-0.109,3.257-0.109l0.11-0.32
			L1144.493,345.223z"/>
		<path fill="#707372" d="M1153.539,347.455c0,0-0.914,1.146-0.479,1.454c0.434,0.319,3.258-0.316,3.258-0.316
			S1154.455,347.372,1153.539,347.455z"/>
		<path fill="#FFFFFF" d="M1147.631,339.197c0,0,0.037-2.316,0.564-3.787c0,0,0.686-4.721,0.946-5.334l4.246,4.74v0.713
			l-1.847,2.005l-0.112,0.948l-1.202,0.457l-1.886,0.631L1147.631,339.197z"/>
	</g>
	<g>
		<g>
			<g>
				<g>
					<defs>
						<rect id="SVGID_1_" x="1128.375" y="161.87" width="674.018" height="416.248"/>
					</defs>
					<clipPath id="SVGID_2_">
						<use xlink:href="#SVGID_1_"  overflow="visible"/>
					</clipPath>
					<path clip-path="url(#SVGID_2_)" fill="#3A4523" d="M1190.712,342.441c0,0,78.14-88.219,110.222-109.256
						s32.082-21.037,115.529-26.526c83.438-5.487,152.406-10.976,207.257-16.463c54.849-5.488,62.696-31.373,106.868-28.035
						c44.175,3.339,65.775,32.572,79.515,39.907c13.74,7.336,18.65,37.319,18.65,37.319v333.9l-527.819,3.227L1190.712,342.441z"/>
				</g>
			</g>
		</g>
	</g>
	<path fill="#4E5C37" d="M1242.642,336.898c-25.699,13.144-76.585,0.928-128.599,1.015c-25.432,0.047-140.265,27.388-205.461,76.239
		c-68.143,51.058-87.89,124.987-169.733,186.444l1063.554,1.063c0,0-83.071-82.54-179.23-83.062
		c-112.509-0.611-147.668-110.163-184.558-133.54c-36.891-23.373-85.019-48.17-110.014-48.17S1268.334,323.758,1242.642,336.898z"/>
	<rect x="-4.5" y="573.288" fill="#697D4B" width="1806.894" height="28.382"/>
	<g>
		<ellipse fill="#CDCCCC" cx="627.781" cy="585.371" rx="78.977" ry="10.436"/>
		<path fill="#504740" d="M718.539,484.949c0,0,5.702-3.081,10.136-2.771c0,0,0.632,7.702-8.873,7.391c0,0,1.27,4.311,2.221,5.854
			c0.95,1.544-0.319,4.306-0.319,4.306s0.95,7.702,3.172,9.853c2.221,2.156,0.631,9.237-2.853,9.237
			c-3.482,0-5.385,0.923-6.974,0.923s-3.172-1.231-5.074-3.385c-1.901-2.146-4.43-6.775-6.972-6.151
			c-2.532,0.61-5.702,4.617-7.605,11.697c-1.899,7.078-3.48,10.47-4.75,11.084c-0.953,1.848-2.853,10.163-3.483,11.396
			c-0.629,1.236-8.557,6.159-14.887,5.856c0,0,0.629,11.086-0.319,17.238c-0.104,0.681,1.269,8.627,2.528,9.852
			c1.271,1.236,1.583,3.081,3.172,5.545c0,0-11.087,3.384-10.135-2.464c0,0-1.271-1.231-1.899-2.458l0.947-11.697
			c0,0-6.021-11.396-6.021-14.168c0,0-3.171,6.779-2.222,14.78c0,0-3.802,7.079,1.901,17.24l1.58,3.695c0,0-5.381,2.46-10.135-0.923
			c0,0-0.318-14.782,0-18.779c0,0-4.122-11.397-3.48-23.397c0,0-21.859,5.854-33.268,1.85c0,0-6.655,8.623-9.186,9.85
			c0,0,2.53,3.692,1.271,4.618c-1.271,0.925-2.852-1.848-2.852-1.848l-2.223,0.921c0,0,0.319,2.464-0.949,3.085
			c-1.271,0.614-1.9-2.158-1.9-2.158s-4.433,0.613-5.075,0.313l-1.269,4.005l11.686,15.567c0.547,0.825-0.104,1.903-1.109,1.851
			l-6.897-0.394c-0.792-0.046-1.44-0.644-1.534-1.412c-0.113-0.913-0.415-1.99-1.196-2.366c-1.271-0.612-1.901-1.536-1.901-2.161
			c0-0.619-0.32-4.005-1.27-5.229c-0.952-1.236-7.604-12.622-7.604-12.622l-0.321-2.16l-5.381-5.854c0,0-7.923,9.236-6.333,19.701
			c1.583,10.473,2.852,12.321,2.852,12.321s5.703,4.929,4.122,6.465c-1.58,1.537-8.876-0.923-8.876-0.923s-3.479-4.929-3.479-13.856
			c0-8.927,0.629-20.624-0.63-22.473c-1.27-1.849,0.63-9.239,1.899-12.322c0,0-3.479-38.487,3.802-44.645
			c0,0-4.121,3.083-5.071,8.926c-0.952,5.847-0.321,14.784-1.581,18.167c-1.272,3.383-3.174,10.159-4.753,10.772
			c0,0,0.32,6.158-1.581,8.313c-1.9,2.158-5.073,5.857-1.9,12.624c0,0-9.827-10.473,1.58-20.626c0,0,6.335-10.772,5.703-17.854
			c-0.631-7.08-0.951-21.86,6.654-27.094c7.604-5.229,22.172-4.929,27.246-3.081c0,0,12.987,3.081,34.847,2.458
			c21.862-0.609,26.294-2.458,32.948-2.458c6.653,0,14.889,3.385,17.739,3.385c2.853,0,13.309-1.85,14.58-2.459l-3.804-0.312
			c0,0-5.072-3.085-5.072-4.932c0-1.849,10.136-0.612,12.678,1.537c0,0,1.899-2.16,4.432-2.774
			c2.529-0.609,9.184,0.312,10.135,0.926C716.318,480.941,718.859,483.399,718.539,484.949z"/>
		<path fill="#FFFFFF" d="M582.76,556.447l0.186,2.697c0,0,8.555,13.855,8.555,15.705c0,1.849-0.32,2.771,0.32,3.386
			c0.641,0.612,2.22,0.313,2.853,3.385c0,0,5.07-0.313,8.233-2.771c0,0-8.875-13.244-8.875-14.171c0-0.923,0.028-3.437,0.028-3.437
			S584.783,554.363,582.76,556.447z"/>
		<path fill="#F3D9CE" d="M613.995,549.295c0,0-2.853,6.156-7.286,8.002c0,0,1.581,4.007,0,4.31c-1.58,0.303-2.53-2.46-2.53-2.46
			l-2.223,1.232c0,0,0.32,3.083-0.947,3.083c-1.273,0-1.902-2.158-1.902-2.158s-13.298,2.132-21.692-10.327
			c-8.403-12.456,13.14-21.384,17.261-21.384C598.796,529.594,613.995,549.295,613.995,549.295z"/>
		<path fill="#FFFFFF" d="M672.399,550.284c0,0,0.516,13.48-0.433,17.177c0.629,7.082,3.48,11.088,3.48,11.088
			s-2.222,0.313-3.801,1.231c-1.581,0.923-4.123,2.772-6.023-1.847c0,0,0.949-10.162-0.951-13.856
			c-1.901-3.697-5.071-14.168-5.071-14.168l2.851-5.857L672.399,550.284z"/>
		<path fill="#FFFFFF" d="M715.5,514.073l-1.395-2.034v-7.078l1.583-2.458c0,0,0-6.158-0.631-7.392
			c-0.631-1.232-2.532-1.849-4.122-1.849c0,0-3.802-4.621-2.852-7.391c0,0-0.629-1.85-1.581-2.771v-1.232c0,0,4.122,0.311,4.753,0
			c0.629-0.313,3.801,2.457,3.801,2.457v-1.536l0.631,0.313l2.221,2.157c0,0-0.319,4.31,3.172,8.929c0,0-1.271,2.459-1.58,3.695
			c-0.32,1.232,2.531,4.617,2.531,4.928c0,0.313,2.851,8.927,3.48,9.236C726.144,512.352,715.5,514.073,715.5,514.073z"/>
		<path fill="#4D4B4A" d="M725.514,512.039c0,0-0.631,0.614-2.221,0.614c-1.591,0-6.023,0-6.976,0.313
			c-0.949,0.312-1.271,1.537-0.949,2.157c0.321,0.611,2.854,4.308,4.123,4.308s5.384-0.612,6.022-2.46
			C726.144,515.123,726.465,512.352,725.514,512.039z"/>
		<path fill="#010101" d="M716.957,513.889c-0.471-0.153,4.433,3.081,3.481,3.385c-0.949,0.304-1.74-1.384-1.74-1.384
			S717.43,514.045,716.957,513.889z"/>
		<path fill="#FFFFFF" d="M708.084,513.275c0,0,0-4.007-6.974-6.776c0,0-2.852-2.775-3.173-3.697
			c-0.32-0.924-0.32,0.313-0.949,1.234c-0.631,0.924-2.221,2.158-3.173,2.771c-0.948,0.614-0.629,0.614,0.32,1.538
			c0.95,0.925,2.221,2.461,2.533,3.382c0.319,0.927,0.631,3.086,1.58,3.389c0,0,3.802-5.855,5.703-4.618
			C705.871,511.728,708.084,513.275,708.084,513.275z"/>
		<path fill="#FFFFFF" d="M662.469,548.067c0,0,10.136,5.857,19.642,0c0,0-2.221-5.852-1.271-8.002
			c0.952-2.156-4.751-2.458-7.283-1.534c-2.533,0.923-3.482-4.31-5.382-5.543c-1.903-1.233-5.706-3.082-5.075-4.62
			c0.632-1.535,4.753-3.082,4.753-5.542c0-2.461-2.852-4.305-2.531-8.312c0.319-4.008,1.9-2.775,1.271-5.234
			c-0.629-2.461-4.123-4.618-4.435-8.003c-0.319-3.382,4.435-8.626,1.902-9.854c-2.532-1.229-9.187,1.539-11.087,5.856
			c-1.9,4.316-3.801,10.472-0.32,12.936c3.482,2.459,6.976,3.384,5.072,7.701c-1.902,4.31-0.629,2.458-5.383,5.23
			c-4.753,2.772-12.357,5.543-16.159,4.929c-3.801-0.611-12.036-6.775-13.938-10.773c-1.902-3.995-2.531,0.614-6.334,0.313
			c-3.803-0.313-2.852-4.006-2.852-9.24c0-5.23-5.702-11.085-8.875-12.932c-3.17-1.852-4.433-6.78-2.53-9.548l-4.753-0.614
			c0,0-5.704,1.534-5.383,7.077c0.319,5.544-1.581,8.627-3.802,10.473c-2.223,1.849-0.32,4.62-3.482,4.93
			c-3.17,0.313-6.022-1.231-6.022-1.231s-0.951,3.383-1.901,5.539c-0.952,2.161,0.32,2.464-1.901,4.932
			c-2.221,2.461-0.951,4.007-2.531,7.079c-1.583,3.083-5.074,8.313-5.074,8.313s0.32,5.857-0.32,7.703
			c-0.629,1.85-2.85,6.78-2.53,9.241c0.32,2.46,1.269,6.153,1.269,8c0,1.851,0.322,21.251,0.322,21.251l2.852,10.16
			c0,0,7.284-3.695,8.873-3.385c0,0-4.75-3.079-5.072-12.011c-0.318-8.927-1.271-12.935,5.382-22.781
			c6.655-9.854,6.334-4.618,11.087-14.171c0,0,1.902-4.31,4.434-4.008c2.529,0.305,9.504,14.173,20.912,16.936
			c11.403,2.77,33.267-1.851,33.267-1.851s0.317,14.472,2.851,18.165c0,0,0.951,3.694,0.63,6.776
			c-0.319,3.084,0.632,14.474,0.632,14.474s4.43,0.312,5.702-0.926c1.27-1.235,4.75-1.235,4.75-1.235s-5.38-8.626-2.85-17.554
			c0,0,0.32-2.158,0.32-5.852C659.298,557.61,662.469,548.067,662.469,548.067z"/>
		<path fill="#707372" d="M675.455,578.548l2.222,4.308c0,0-10.776,3.386-10.191-2.197
			C667.486,580.657,673.875,577.621,675.455,578.548z"/>
		<path fill="#707372" d="M662.149,584.702v3.385c0,0-6.972,3.083-10.454-1.232C651.695,586.862,658.979,583.788,662.149,584.702z"
			/>
		<path fill="#707372" d="M603.229,578.859c0,0,2.85,3.081,1.58,4.006c-1.271,0.923-9.507-0.313-9.507-0.313l-0.317-0.923
			L603.229,578.859z"/>
		<path fill="#707372" d="M576.803,585.377c0,0,2.663,3.331,1.393,4.255c-1.271,0.926-9.507-0.924-9.507-0.924
			S574.14,585.131,576.803,585.377z"/>
		<g>
			<ellipse fill="#CDCCCC" cx="609.788" cy="591.543" rx="16.469" ry="2.094"/>
			<g>
				<path fill="#CDCCCC" d="M600.328,591.426l-1.447-24.148h28.891l-1.449,24.148c0.112,0.082-5.724,2.212-12.997,2.212
					C606.051,593.638,600.216,591.498,600.328,591.426z"/>
				<path fill="#B5B6B6" d="M613.335,566.29c7.978,0,14.445,0.442,14.445,0.986c0,0.549-6.47,0.987-14.445,0.987
					c-7.978,0-14.446-0.439-14.446-0.987C598.891,566.732,605.358,566.29,613.335,566.29z"/>
				<path fill="none" stroke="#B5B6B6" stroke-width="0.2693" stroke-miterlimit="10" d="M627.14,577.011
					c0,0-16.722,2.05-27.621-0.248"/>
				<path fill="none" stroke="#B5B6B6" stroke-width="0.2693" stroke-miterlimit="10" d="M627.14,578.493
					c0,0-16.722,2.046-27.621-0.248"/>
				<path fill="none" stroke="#B5B6B6" stroke-width="0.2693" stroke-miterlimit="10" d="M626.886,579.965
					c0,0-16.225,2.049-27.123-0.248"/>
				<ellipse fill="#CDCCCC" cx="627.526" cy="566.538" rx="0.509" ry="1.234"/>
				<ellipse fill="#CDCCCC" cx="599.387" cy="566.538" rx="0.508" ry="1.234"/>
				<path fill="none" stroke="#989898" stroke-width="0.5386" stroke-miterlimit="10" d="M627.526,566.538
					c0,0,2.787,20.197-14.7,19.463c-17.485-0.742-13.43-19.463-13.43-19.463"/>
				<ellipse fill="#FFFFFF" cx="613.712" cy="567.652" rx="12.422" ry="0.74"/>
			</g>
			<path opacity="0.56" fill="#CDCCCC" enable-background="new    " d="M599.387,567.771c0,0,15.717,22.913,26.87,23.645
				c0,0-10.391,4.93-25.854,0C600.404,591.416,598.891,569.007,599.387,567.771z"/>
		</g>
	</g>
	<g>
		<ellipse fill="#CDCCCC" cx="442.886" cy="593.848" rx="42.78" ry="4.409"/>
		<g>
			<g>
				<path fill="#989898" d="M428.58,595.14l-8.894-6.26h-8.46v0.293c0,0.166-0.132,0.295-0.302,0.295
					c-0.169,0-0.303-0.129-0.303-0.295v-19.938c0-0.163,0.132-0.292,0.303-0.292c0.17,0,0.302,0.129,0.302,0.292v0.293h8.46
					l8.894-6.044h35.196v0.056c1.374,0.656,2.457,7.483,2.457,15.805c0,8.323-1.084,15.146-2.457,15.808v0.056H428.58V595.14z"/>
				<path fill="#CDCCCC" d="M419.687,569.519l8.894-6.046l0.563,6.32c0.575,6.412,0.565,12.871-0.019,19.281l-0.544,6.058
					l-8.894-6.26l0.471-8.305c0.047-0.858,0.047-1.727,0-2.597L419.687,569.519z"/>
				<path fill="none" stroke="#989898" stroke-width="1.2177" stroke-miterlimit="10" d="M422.293,567.663
					c-0.658-1.034-0.866-2.214-0.462-2.444c0.416-0.229,1.253,0.439,1.874,1.491c0.622,1.054,0.472,1.72,0.396,2.322"/>
				<path fill="none" stroke="#7B7A78" stroke-width="1.2177" stroke-miterlimit="10" d="M422.756,591.043
					c-0.66,1.032-0.866,2.209-0.462,2.44c0.415,0.229,1.252-0.441,1.872-1.492c0.619-1.05,0.473-1.285,0.743-1.819"/>
				<line fill="none" x1="425.172" y1="569.279" x2="424.665" y2="568.704"/>
				<polygon fill="#7B7A78" points="411.255,569.546 411.255,588.898 419.715,588.844 417.229,583.177 416.561,581.646 				"/>
				<path fill="#7B7A78" d="M428.58,563.473c0,0,2.07,18.561,0,31.667l35.196,0.056L428.58,563.473z"/>
			</g>
			<path fill="#C2C1C1" d="M419.668,569.536l8.922,25.586l-8.922-6.259C419.668,588.861,420.573,578.548,419.668,569.536z"/>
		</g>
		<g>
			<ellipse fill="#CDCCCC" cx="228.646" cy="591.151" rx="21.308" ry="4.261"/>
			<g>
				<path fill="#989898" d="M244.662,553.247l-7.358-9.879v-9.394h0.337c0.188,0,0.338-0.146,0.338-0.328
					c0-0.185-0.149-0.331-0.338-0.331h-23.441c-0.188,0-0.339,0.146-0.339,0.331c0,0.183,0.15,0.328,0.339,0.328h0.35v9.394
					l-7.106,9.879v39.084h0.066c0.771,1.527,8.799,2.728,18.577,2.728c9.779,0,17.808-1.198,18.578-2.728h0.064v-39.084H244.662z"/>
				<path fill="#CDCCCC" d="M214.55,543.368l-7.106,9.879l7.437,0.623c7.537,0.631,15.121,0.631,22.67-0.02l7.124-0.604
					l-7.358-9.879l-9.76,0.521c-1.014,0.054-2.033,0.054-3.048,0L214.55,543.368z"/>
				<path fill="none" stroke="#989898" stroke-width="1.3914" stroke-miterlimit="10" d="M212.365,546.26
					c-1.216-0.73-2.607-0.971-2.872-0.514c-0.272,0.46,0.519,1.39,1.75,2.085c1.233,0.693,2.022,0.521,2.729,0.438"/>
				<path fill="none" stroke="#7B7A78" stroke-width="1.3914" stroke-miterlimit="10" d="M239.855,546.771
					c1.213-0.731,2.606-0.971,2.868-0.513c0.264,0.457-0.518,1.391-1.75,2.082c-1.231,0.697-1.515,0.521-2.137,0.825"/>
				<line fill="none" x1="214.266" y1="549.46" x2="213.597" y2="548.892"/>
				<polygon fill="#7B7A78" points="214.577,534.003 237.342,534.003 237.276,543.396 230.603,540.633 228.806,539.893 				"/>
				<path fill="#7B7A78" d="M207.443,553.247c0,0,21.824,2.305,37.22,0l0.064,39.084L207.443,553.247z"/>
			</g>
			<path fill="#C2C1C1" d="M214.577,543.341l30.076,9.914l-7.358-9.914C237.294,543.341,225.163,544.345,214.577,543.341z"/>
		</g>
		<g>
			<ellipse fill="#CDCCCC" cx="125.624" cy="590.365" rx="21.307" ry="4.262"/>
			<g>
				<path fill="#989898" d="M141.643,552.45l-7.358-9.877v-9.396h0.338c0.188,0,0.339-0.146,0.339-0.328
					c0-0.185-0.15-0.33-0.339-0.33h-23.444c-0.186,0-0.337,0.146-0.337,0.33c0,0.185,0.151,0.328,0.337,0.328h0.339v9.396
					l-7.104,9.877v39.084h0.064c0.771,1.526,8.797,2.728,18.577,2.728c9.787,0,17.804-1.198,18.577-2.728h0.064V552.45H141.643z"/>
				<path fill="#CDCCCC" d="M111.526,542.573l-7.104,9.877l7.434,0.622c7.537,0.633,15.123,0.633,22.67-0.02l7.125-0.604
					l-7.359-9.877l-9.758,0.521c-1.015,0.057-2.033,0.057-3.052,0L111.526,542.573z"/>
				<path fill="none" stroke="#989898" stroke-width="1.3914" stroke-miterlimit="10" d="M109.344,545.473
					c-1.213-0.731-2.606-0.97-2.869-0.513c-0.272,0.457,0.517,1.392,1.75,2.085c1.232,0.695,2.024,0.522,2.73,0.438"/>
				<path fill="none" stroke="#7B7A78" stroke-width="1.3914" stroke-miterlimit="10" d="M136.823,545.985
					c1.213-0.732,2.607-0.972,2.872-0.515c0.273,0.457-0.519,1.395-1.753,2.085c-1.23,0.692-1.515,0.521-2.133,0.822"/>
				<line fill="none" x1="111.243" y1="548.663" x2="110.577" y2="548.095"/>
				<polygon fill="#7B7A78" points="111.554,533.216 134.31,533.216 134.253,542.609 127.583,539.847 125.785,539.096 				"/>
				<path fill="#7B7A78" d="M104.413,552.45c0,0,21.821,2.307,37.219,0l0.064,39.084L104.413,552.45z"/>
			</g>
			<path fill="#C2C1C1" d="M111.546,542.555l30.077,9.914l-7.361-9.914C134.272,542.555,122.133,543.56,111.546,542.555z"/>
		</g>
		<g>
			<path fill="#CDCCCC" d="M361.952,589.137c7.916,0,14.331,0.815,14.331,1.824c0,1.001-6.415,1.817-14.331,1.817
				c-7.918,0-14.333-0.815-14.333-1.817C347.619,589.951,354.033,589.137,361.952,589.137z"/>
			<g>
				<path fill="#CDCCCC" d="M370.178,590.859l1.258-21.013h-25.145l1.262,21.013c-0.104,0.071,4.977,1.928,11.312,1.928
					C365.197,592.787,370.281,590.932,370.178,590.859z"/>
				<ellipse fill="#B5B6B6" cx="358.864" cy="569.849" rx="12.572" ry="0.861"/>
				<path fill="none" stroke="#B5B6B6" stroke-width="0.2344" stroke-miterlimit="10" d="M346.838,578.317
					c0,0,14.559,1.783,24.043-0.208"/>
				<path fill="none" stroke="#B5B6B6" stroke-width="0.2344" stroke-miterlimit="10" d="M346.838,579.599
					c0,0,14.559,1.784,24.043-0.211"/>
				<path fill="none" stroke="#B5B6B6" stroke-width="0.2344" stroke-miterlimit="10" d="M347.063,580.886
					c0,0,14.116,1.787,23.603-0.209"/>
				<ellipse fill="#CDCCCC" cx="346.507" cy="569.208" rx="0.441" ry="1.07"/>
				<ellipse fill="#CDCCCC" cx="370.993" cy="569.208" rx="0.442" ry="1.07"/>
				<path fill="none" stroke="#989898" stroke-width="0.4687" stroke-miterlimit="10" d="M346.507,569.207
					c0,0-2.429,17.582,12.79,16.943c15.218-0.646,11.688-16.943,11.688-16.943"/>
				<ellipse fill="#FFFFFF" cx="358.533" cy="570.168" rx="10.804" ry="0.642"/>
			</g>
			<path opacity="0.56" fill="#CDCCCC" enable-background="new    " d="M370.993,570.278c0,0-13.673,19.938-23.375,20.581
				c0,0,9.042,4.289,22.501,0C370.111,590.859,371.436,571.347,370.993,570.278z"/>
		</g>
	</g>
	<g>
		<polygon fill="#CDCCCC" points="1384.84,585.58 1370.433,601.797 1619.823,601.34 1605.824,585.58 		"/>
		<g>
			<g>
				<polygon fill="#6D3E1F" points="1651.656,258.604 1495.336,166.488 1339.009,258.604 1266.866,343.166 1291.615,343.166 
					1351.038,274.419 1495.336,191.229 1639.632,274.419 1699.055,343.166 1723.806,343.166 				"/>
				<polygon fill="#FFF1D0" points="1643.329,263.114 1495.336,175.892 1347.339,263.114 1279.025,343.166 1302.468,343.166 
					1358.717,278.078 1495.336,199.324 1631.95,278.078 1688.201,343.166 1711.644,343.166 				"/>
				<polygon fill="#CD3234" points="1631.95,278.078 1495.336,199.324 1358.717,278.078 1302.468,343.166 1302.468,573.771 
					1495.336,573.771 1688.201,573.771 1688.201,343.166 				"/>
				<polygon fill="#AE2227" points="1631.95,278.078 1495.336,199.324 1358.717,278.078 1302.468,343.166 1302.468,379.001 
					1371.212,292.12 1495.336,218.405 1619.453,292.12 1688.201,379.001 1688.201,343.166 				"/>
				<rect x="1427.03" y="266.242" fill="#FFF1D0" width="136.608" height="102.508"/>
				<rect x="1435.998" y="279.909" fill="#302829" width="25.109" height="75.173"/>
				<rect x="1529.422" y="279.909" fill="#302829" width="25.104" height="75.173"/>
				<rect x="1472.729" y="279.909" fill="#302829" width="45.202" height="75.173"/>
				<rect x="1384.84" y="393.254" fill="#FFF1D0" width="220.984" height="192.326"/>
				<g>
					<g>
						<polygon fill="#C06536" points="1485.725,430.743 1485.725,551.802 1448.553,491.271 						"/>
						<polygon fill="#C06536" points="1398.9,551.802 1398.9,430.743 1436.063,491.271 						"/>
						<polygon fill="#C06536" points="1442.53,410.238 1398.9,410.238 1442.53,477.118 1486.157,410.238 						"/>
						<polygon fill="#C06536" points="1442.53,570.544 1486.157,570.544 1442.53,503.671 1398.9,570.544 						"/>
					</g>
				</g>
				<g>
					<g>
						<polygon fill="#C06536" points="1591.327,429.775 1591.327,550.834 1554.16,490.301 						"/>
						<polygon fill="#C06536" points="1504.51,550.834 1504.51,429.775 1541.674,490.301 						"/>
						<polygon fill="#C06536" points="1548.139,409.27 1504.51,409.27 1548.139,476.14 1591.768,409.27 						"/>
						<polygon fill="#C06536" points="1548.139,569.574 1591.768,569.574 1548.139,502.691 1504.51,569.574 						"/>
					</g>
				</g>
				<rect x="1296.379" y="459.052" fill="#DED0B4" width="88.461" height="18.067"/>
				<rect x="1605.824" y="459.052" fill="#DED0B4" width="88.465" height="18.067"/>
			</g>
			<rect x="1427.003" y="368.748" fill="#AE2227" width="136.638" height="11.7"/>
			<rect x="1302.468" y="477.118" fill="#AE2227" width="82.372" height="9.401"/>
			<rect x="1605.824" y="477.118" fill="#AE2227" width="82.377" height="9.401"/>
		</g>
	</g>
	<g>
		<path fill="#CDCCCC" d="M1124.365,576.521c44.786,0,81.094,4.804,81.094,10.727c0,5.918-36.307,10.717-81.094,10.717
			c-44.785,0-81.096-4.799-81.096-10.717C1043.271,581.325,1079.58,576.521,1124.365,576.521z"/>
		<g>
			<path fill="#010101" d="M1031.172,484.114c0,0-5.856-3.163-10.411-2.842c0,0-0.649,7.901,9.108,7.591
				c0,0-1.299,4.427-2.274,6.008c-0.979,1.582,0.328,4.429,0.328,4.429s-0.98,7.902-3.259,10.116
				c-2.274,2.21-0.647,9.484,2.931,9.484c3.576,0,5.53,0.948,7.148,0.948c1.619,0,3.257-1.259,5.207-3.475
				c1.945-2.211,4.553-6.95,7.149-6.319c2.608,0.629,5.854,4.745,7.813,12.02c1.943,7.27,3.575,10.746,4.884,11.378
				c0.979,1.895,2.929,10.437,3.575,11.699c0.648,1.264,8.78,6.319,15.291,6.007c0,0-0.647,11.381,0.33,17.708
				c0.104,0.695-1.299,8.854-2.604,10.118c-1.311,1.262-1.63,3.164-3.256,5.687c0,0,11.384,3.479,10.405-2.53
				c0,0,1.301-1.265,1.949-2.533l-0.979-12.018c0,0,6.184-11.699,6.184-14.545c0,0,3.257,6.953,2.275,15.173
				c0,0,3.905,7.273-1.945,17.71l-1.628,3.795c0,0,5.534,2.534,10.409-0.953c0,0,0.329-15.173,0-19.289
				c0,0,4.226-11.696,3.574-24.024c0,0,22.445,6.008,34.163,1.892c0,0,6.83,8.854,9.429,10.117c0,0-2.608,3.795-1.297,4.738
				c1.297,0.95,2.924-1.896,2.924-1.896l2.276,0.953c0,0-0.328,2.535,0.981,3.164c1.297,0.631,1.946-2.212,1.946-2.212
				s4.556,0.632,5.203,0.319l1.301,4.107l-12,15.988c-0.556,0.85,0.113,1.943,1.147,1.891l7.079-0.399
				c0.817-0.046,1.479-0.66,1.57-1.443c0.122-0.942,0.424-2.052,1.223-2.435c1.3-0.633,1.947-1.581,1.947-2.216
				c0-0.631,0.33-4.104,1.3-5.377s7.813-12.962,7.813-12.962l0.329-2.213l5.532-6.009c0,0,8.131,9.484,6.504,20.231
				c-1.629,10.748-2.927,12.647-2.927,12.647s-5.854,5.06-4.225,6.644c1.625,1.579,9.106-0.951,9.106-0.951
				s3.577-5.062,3.577-14.231c0-9.173-0.647-21.183,0.648-23.079c1.297-1.89-0.648-9.482-1.949-12.648
				c0,0,3.575-39.521-3.903-45.842c0,0,4.227,3.164,5.203,9.165c0.979,6.01,0.328,15.177,1.627,18.651
				c1.3,3.476,3.256,10.433,4.876,11.065c0,0-0.33,6.319,1.629,8.534c1.955,2.212,5.202,6.011,1.945,12.961
				c0,0,10.091-10.749-1.627-21.185c0,0-6.505-11.065-5.854-18.34c0.648-7.272,0.979-22.445-6.832-27.824
				c-7.813-5.376-22.776-5.055-27.979-3.164c0,0-13.334,3.164-35.781,2.533c-22.443-0.629-27-2.533-33.832-2.533
				c-6.831,0-15.291,3.474-18.219,3.474c-2.926,0-13.663-1.889-14.963-2.528l3.906-0.32c0,0,5.204-3.164,5.204-5.06
				c0-1.894-10.408-0.63-13.017,1.584c0,0-1.95-2.214-4.554-2.848c-2.607-0.63-9.43,0.321-10.408,0.95
				C1033.43,479.982,1030.842,482.542,1031.172,484.114z"/>
			<path fill="#FFFFFF" d="M1170.602,557.545l-0.196,2.771c0,0-8.78,14.234-8.78,16.126c0,1.896,0.329,2.845-0.33,3.478
				c-0.647,0.63-2.276,0.32-2.927,3.477c0,0-5.204-0.317-8.46-2.847c0,0,9.109-13.591,9.109-14.541c0-0.953-0.027-3.531-0.027-3.531
				S1168.522,555.405,1170.602,557.545z"/>
			<path fill="#F3D9CE" d="M1138.519,550.202c0,0,2.929,6.319,7.484,8.223c0,0-1.63,4.107,0,4.429
				c1.628,0.316,2.605-2.537,2.605-2.537l2.277,1.266c0,0-0.328,3.163,0.98,3.163c1.306,0,1.945-2.213,1.945-2.213
				s13.654,2.185,22.272-10.609c8.624-12.799-13.491-21.963-17.718-21.963C1154.133,529.969,1138.519,550.202,1138.519,550.202z"/>
			<path fill="#FFFFFF" d="M1078.545,551.216c0,0-0.538,13.847,0.44,17.634c-0.649,7.272-3.576,11.381-3.576,11.381
				s2.278,0.317,3.908,1.262c1.628,0.952,4.224,2.846,6.183-1.894c0,0-0.981-10.438,0.979-14.232
				c1.944-3.796,5.204-14.541,5.204-14.541l-2.93-6.01L1078.545,551.216z"/>
			<path fill="#FFFFFF" d="M1034.296,514.036l1.432-2.088v-7.271l-1.628-2.53c0,0,0-6.324,0.646-7.595
				c0.652-1.262,2.608-1.894,4.226-1.894c0,0,3.906-4.747,2.93-7.591c0,0,0.648-1.894,1.628-2.846v-1.262c0,0-4.228,0.318-4.886,0
				c-0.648-0.32-3.905,2.531-3.905,2.531v-1.58l-0.646,0.319l-2.277,2.214c0,0,0.327,4.426-3.259,9.165c0,0,1.301,2.531,1.63,3.794
				s-2.606,4.75-2.606,5.062c0,0.316-2.928,9.16-3.578,9.481C1023.359,512.261,1034.296,514.036,1034.296,514.036z"/>
			<path fill="#4D4B4A" d="M1024.007,511.938c0,0,0.648,0.635,2.277,0.635s6.185,0,7.153,0.319c0.979,0.318,1.299,1.582,0.979,2.214
				c-0.327,0.629-2.926,4.428-4.228,4.428c-1.299,0-5.534-0.633-6.184-2.535C1023.359,515.105,1023.039,512.261,1024.007,511.938z"
				/>
			<path fill="#010101" d="M1032.797,513.844c0.49-0.153-4.556,3.163-3.575,3.478c0.979,0.319,1.788-1.431,1.788-1.431
				S1032.308,514,1032.797,513.844z"/>
			<path fill="#FFFFFF" d="M1041.907,513.212c0,0,0-4.105,7.152-6.95c0,0,2.926-2.845,3.254-3.795
				c0.328-0.953,0.328,0.316,0.979,1.258c0.65,0.953,2.276,2.217,3.257,2.848c0.978,0.632,0.646,0.632-0.329,1.582
				c-0.979,0.951-2.276,2.531-2.607,3.474c-0.328,0.953-0.65,3.166-1.628,3.479c0,0-3.907-6.01-5.853-4.747
				C1044.186,511.627,1041.907,513.212,1041.907,513.212z"/>
			<path fill="#FFFFFF" d="M1088.745,548.938c0,0-10.409,6.015-20.166,0c0,0,2.276-6.01,1.296-8.223
				c-0.978-2.21,4.886-2.531,7.484-1.581c2.608,0.949,3.575-4.424,5.532-5.689c1.949-1.264,5.854-3.162,5.207-4.745
				c-0.651-1.582-4.887-3.166-4.887-5.689c0-2.535,2.927-4.425,2.607-8.533c-0.329-4.107-1.948-2.845-1.302-5.378
				c0.651-2.536,4.229-4.749,4.558-8.225c0.327-3.475-4.558-8.854-1.947-10.115c2.605-1.262,9.43,1.581,11.385,6.009
				c1.952,4.428,3.907,10.748,0.33,13.282c-3.573,2.531-7.148,3.477-5.204,7.902c1.95,4.428,0.647,2.531,5.535,5.376
				c4.886,2.849,12.685,5.689,16.591,5.06c3.905-0.632,12.367-6.952,14.313-11.065c1.95-4.108,2.61,0.631,6.505,0.319
				c3.904-0.319,2.929-4.108,2.929-9.486c0-5.377,5.853-11.378,9.107-13.28c3.257-1.894,4.554-6.954,2.606-9.805l4.885-0.632
				c0,0,5.854,1.585,5.533,7.271c-0.329,5.691,1.626,8.854,3.905,10.751c2.278,1.891,0.329,4.736,3.579,5.057
				c3.255,0.318,6.182-1.261,6.182-1.261s0.979,3.477,1.948,5.687c0.968,2.217-0.33,2.536,1.947,5.06
				c2.276,2.535,0.977,4.106,2.604,7.271c1.629,3.167,5.206,8.534,5.206,8.534s-0.331,6.012,0.33,7.901
				c0.646,1.896,2.924,6.955,2.603,9.487c-0.327,2.53-1.297,6.318-1.297,8.224c0,1.902-0.33,21.813-0.33,21.813l-2.924,10.438
				c0,0-7.482-3.796-9.109-3.475c0,0,4.885-3.166,5.202-12.332c0.328-9.166,1.3-13.28-5.534-23.397
				c-6.832-10.114-6.503-4.746-11.386-14.543c0,0-1.95-4.427-4.557-4.107c-2.607,0.319-9.758,14.544-21.467,17.391
				c-11.707,2.843-34.162-1.896-34.162-1.896s-0.326,14.866-2.927,18.651c0,0-0.978,3.797-0.647,6.952
				c0.328,3.163-0.647,14.86-0.647,14.86s-4.559,0.32-5.856-0.949c-1.299-1.261-4.885-1.261-4.885-1.261s5.535-8.854,2.93-18.022
				c0,0-0.33-2.212-0.33-6.006C1092.002,558.736,1088.745,548.938,1088.745,548.938z"/>
			<path fill="#707372" d="M1075.409,580.239l-2.274,4.424c0,0,11.053,3.479,10.463-2.256
				C1083.598,582.407,1077.039,579.286,1075.409,580.239z"/>
			<path fill="#707372" d="M1089.075,586.561v3.476c0,0,7.151,3.163,10.738-1.266
				C1099.814,588.771,1092.332,585.606,1089.075,586.561z"/>
			<path fill="#707372" d="M1149.576,580.548c0,0-2.926,3.165-1.627,4.105c1.299,0.952,9.76-0.316,9.76-0.316l0.328-0.952
				L1149.576,580.548z"/>
			<path fill="#707372" d="M1176.719,587.256c0,0-2.737,3.411-1.43,4.36c1.308,0.95,9.76-0.948,9.76-0.948
				S1179.448,586.999,1176.719,587.256z"/>
		</g>
		<g>
			<ellipse fill="#CDCCCC" cx="1142.849" cy="593.575" rx="16.912" ry="2.149"/>
			<g>
				<path fill="#CDCCCC" d="M1152.551,593.454l1.488-24.796h-29.674l1.484,24.796c-0.121,0.083,5.873,2.271,13.346,2.271
					C1146.668,595.724,1152.673,593.537,1152.551,593.454z"/>
				<ellipse fill="#B5B6B6" cx="1139.207" cy="568.668" rx="14.832" ry="1.015"/>
				<path fill="none" stroke="#B5B6B6" stroke-width="0.2765" stroke-miterlimit="10" d="M1125.025,578.658
					c0,0,17.178,2.102,28.364-0.256"/>
				<path fill="none" stroke="#B5B6B6" stroke-width="0.2765" stroke-miterlimit="10" d="M1125.025,580.175
					c0,0,17.178,2.105,28.364-0.256"/>
				<path fill="none" stroke="#B5B6B6" stroke-width="0.2765" stroke-miterlimit="10" d="M1125.279,581.693
					c0,0,16.658,2.103,27.849-0.258"/>
				<path fill="#CDCCCC" d="M1124.63,566.648c0.284,0,0.519,0.563,0.519,1.263c0,0.697-0.232,1.26-0.519,1.26
					c-0.285,0-0.521-0.563-0.521-1.26C1124.11,567.211,1124.345,566.648,1124.63,566.648z"/>
				<path fill="#CDCCCC" d="M1153.521,566.648c0.284,0,0.519,0.563,0.519,1.263c0,0.697-0.232,1.26-0.519,1.26
					s-0.519-0.563-0.519-1.26C1153.002,567.211,1153.235,566.648,1153.521,566.648z"/>
				<path fill="none" stroke="#989898" stroke-width="0.5531" stroke-miterlimit="10" d="M1124.63,567.911
					c0,0-2.864,20.741,15.096,19.983c17.956-0.759,13.795-19.983,13.795-19.983"/>
				<ellipse fill="#FFFFFF" cx="1138.811" cy="569.043" rx="12.753" ry="0.76"/>
			</g>
			<path opacity="0.56" fill="#CDCCCC" enable-background="new    " d="M1153.521,569.171c0,0-16.138,23.523-27.583,24.283
				c0,0,10.673,5.06,26.547,0C1152.479,593.454,1154.038,570.434,1153.521,569.171z"/>
		</g>
	</g>
	<g>
		<ellipse fill="#CDCCCC" cx="970.188" cy="582.075" rx="43.143" ry="5.699"/>
		<path fill="#504740" d="M1019.762,527.215c0,0,3.116-1.684,5.536-1.518c0,0,0.35,4.207-4.849,4.034c0,0,0.698,2.348,1.217,3.189
			c0.518,0.843-0.17,2.354-0.17,2.354s0.518,4.206,1.732,5.378c1.213,1.171,0.345,5.049-1.563,5.049
			c-1.903,0-2.946,0.505-3.813,0.505c-0.863,0-1.731-0.679-2.766-1.852c-1.036-1.182-2.418-3.702-3.813-3.364
			c-1.381,0.339-3.113,2.523-4.149,6.393c-1.033,3.869-1.9,5.717-2.597,6.057c-0.519,1.009-1.555,5.554-1.901,6.221
			c-0.349,0.666-4.665,3.367-8.132,3.193c0,0,0.35,6.052-0.169,9.419c-0.058,0.376,0.697,4.71,1.387,5.378
			c0.695,0.679,0.863,1.684,1.73,3.027c0,0-6.061,1.851-5.533-1.345c0,0-0.695-0.674-1.036-1.345l0.52-6.396
			c0,0-3.284-6.218-3.284-7.736c0,0-1.732,3.706-1.217,8.078c0,0-2.078,3.867,1.036,9.421l0.867,2.021c0,0-2.946,1.345-5.535-0.502
			c0,0-0.17-8.077,0-10.265c0,0-2.248-6.217-1.9-12.783c0,0-11.942,3.193-18.172,1.003c0,0,0.496-3.521-0.886-2.853
			c0,0-2.071-4.822-2.758-4.318c-0.695,0.504-3.282-10.373-3.282-10.373l0.366,13.655c0,0-2.646-6.445-3.343-6.106
			c-0.695,0.336-4.678-0.648-4.678-0.648s3.502,18.877,3.152,18.711l-0.696,2.188l6.383,8.505c0.29,0.448-0.058,1.042-0.612,1.004
			l-3.764-0.218c-0.435-0.025-0.78-0.349-0.838-0.769c-0.064-0.501-0.227-1.088-0.649-1.298c-0.696-0.34-1.033-0.845-1.033-1.182
			c0-0.339-0.169-2.186-0.697-2.863c-0.527-0.677-4.148-6.897-4.148-6.897l-0.174-1.177l-2.943-3.191c0,0-4.327,5.047-3.463,10.762
			c0.865,5.718,1.563,6.73,1.563,6.73s3.114,2.693,2.248,3.534c-0.864,0.839-4.845-0.504-4.845-0.504s-1.902-2.691-1.902-7.564
			c0-4.874,0.349-11.271-0.349-12.274c-0.693-1.005,0.349-5.049,1.036-6.732c0,0-1.901-21.027,2.078-24.385
			c0,0-2.25,1.685-2.768,4.875s-0.17,8.078-0.864,9.926c-0.697,1.847-1.729,5.549-2.599,5.888c0,0,0.169,3.366-0.867,4.537
			c-1.034,1.183-2.766,3.193-1.034,6.896c0,0-5.36-5.714,0.867-11.269c0,0,3.463-5.892,3.115-9.759
			c-0.351-3.869-0.521-11.944,3.631-14.799c4.151-2.862,12.112-2.688,14.879-1.684c0,0,7.095,1.684,19.038,1.345
			c11.942-0.339,14.36-1.345,17.993-1.345c3.634,0,8.131,1.849,9.695,1.849c1.56,0,7.265-1.008,7.961-1.344l-2.081-0.165
			c0,0-2.768-1.687-2.768-2.69c0-1.006,5.535-0.34,6.928,0.842c0,0,1.034-1.182,2.419-1.511c1.383-0.329,5.015,0.165,5.531,0.503
			C1018.56,525.027,1019.942,526.376,1019.762,527.215z"/>
		<path fill="#FFFFFF" d="M945.597,566.271l0.104,1.473c0,0,4.667,7.563,4.667,8.577c0,1.019-0.169,1.513,0.171,1.852
			c0.349,0.34,1.214,0.164,1.554,1.849c0,0,2.768-0.164,4.498-1.519c0,0-4.85-7.238-4.85-7.738c0-0.505,0.02-1.879,0.02-1.879
			S946.698,565.137,945.597,566.271z"/>
		<path fill="#FFFFFF" d="M994.561,562.907c0,0,0.281,7.362-0.233,9.383c0.349,3.869,1.901,6.057,1.901,6.057
			s-1.215,0.166-2.08,0.679c-0.865,0.501-2.249,1.507-3.285-1.009c0,0,0.52-5.553-0.519-7.563c-1.034-2.023-2.767-7.738-2.767-7.738
			l1.563-3.192L994.561,562.907z"/>
		<path fill="#FFFFFF" d="M1018.108,543.131l-0.762-1.105v-3.868l0.865-1.347c0,0,0-3.366-0.351-4.034
			c-0.348-0.679-1.382-1.005-2.251-1.005c0,0-2.079-2.524-1.552-4.032c0,0-0.349-1.006-0.864-1.509v-0.679c0,0,2.246,0.164,2.597,0
			c0.35-0.165,2.08,1.346,2.08,1.346v-0.842l0.349,0.167l1.215,1.178c0,0-0.169,2.351,1.732,4.873c0,0-0.698,1.347-0.866,2.023
			c-0.171,0.676,1.383,2.522,1.383,2.688c0,0.166,1.564,4.877,1.899,5.052C1023.923,542.189,1018.108,543.131,1018.108,543.131z"/>
		<path fill="#4D4B4A" d="M1023.574,542.015c0,0-0.347,0.339-1.214,0.339c-0.864,0-3.284,0-3.812,0.164
			c-0.529,0.166-0.697,0.843-0.521,1.181c0.171,0.336,1.553,2.352,2.249,2.352c0.699,0,2.948-0.339,3.283-1.346
			C1023.923,543.697,1024.092,542.189,1023.574,542.015z"/>
		<path fill="#010101" d="M1018.898,543.021c-0.265-0.084,2.419,1.683,1.899,1.849c-0.519,0.163-0.948-0.761-0.948-0.761
			S1019.161,543.111,1018.898,543.021z"/>
		<path fill="#FFFFFF" d="M1014.051,542.694c0,0,0-2.191-3.813-3.707c0,0-1.561-1.509-1.73-2.022
			c-0.168-0.503-0.168,0.166-0.519,0.678c-0.348,0.505-1.214,1.181-1.731,1.519c-0.519,0.338-0.349,0.338,0.169,0.842
			c0.519,0.502,1.216,1.347,1.385,1.849c0.169,0.505,0.349,1.684,0.866,1.849c0,0,2.078-3.194,3.113-2.526
			C1012.848,541.85,1014.051,542.694,1014.051,542.694z"/>
		<path fill="#FFFFFF" d="M989.132,561.698c0,0,5.532,3.19,10.727,0c0,0-1.215-3.19-0.696-4.374c0.52-1.181-2.595-1.342-3.979-0.841
			c-1.382,0.503-1.899-2.35-2.944-3.028c-1.036-0.677-3.115-1.682-2.767-2.521c0.348-0.844,2.596-1.687,2.596-3.029
			c0-1.344-1.554-2.352-1.384-4.537c0.17-2.187,1.036-1.509,0.697-2.864c-0.352-1.344-2.249-2.523-2.42-4.37
			c-0.169-1.847,2.42-4.71,1.035-5.376c-1.382-0.678-5.017,0.841-6.061,3.193c-1.036,2.348-2.078,5.714-0.17,7.059
			c1.902,1.347,3.813,1.849,2.766,4.208c-1.032,2.353-0.35,1.346-2.943,2.861c-2.599,1.52-6.747,3.029-8.827,2.693
			c-2.08-0.34-6.58-3.707-7.613-5.895c-1.036-2.183-1.387,0.34-3.466,0.165c-2.078-0.173-1.55-2.187-1.55-5.05
			c0-2.861-3.115-6.052-4.85-7.062c-1.731-1.008-2.418-3.702-1.385-5.214l-2.596-0.336c0,0-3.114,0.839-2.947,3.868
			c0.172,3.028-0.864,4.708-2.077,5.715c-1.218,1.008-0.171,2.525-1.9,2.689c-1.733,0.162-3.285-0.677-3.285-0.677
			s-0.517,1.848-1.035,3.029c-0.518,1.178,0.171,1.344-1.036,2.688c-1.212,1.346-0.518,2.187-1.381,3.867
			c-0.864,1.687-2.768,4.537-2.768,4.537s0.168,3.191-0.172,4.209c-0.35,1.008-1.552,3.702-1.382,5.05
			c0.17,1.345,0.696,3.362,0.696,4.371c0,1.006,0.17,11.605,0.17,11.605l1.562,5.552c0,0,3.98-2.021,4.85-1.849
			c0,0-2.6-1.685-2.769-6.559c-0.171-4.873-0.698-7.062,2.946-12.446c3.632-5.379,3.461-2.527,6.063-7.739
			c0,0,1.032-2.352,2.418-2.188c1.383,0.165,5.194,7.736,11.424,9.249c6.229,1.509,18.172-1.009,18.172-1.009
			s0.169,7.903,1.563,9.927c0,0,0.519,2.021,0.348,3.706c-0.169,1.682,0.351,7.901,0.351,7.901s2.421,0.165,3.116-0.503
			c0.693-0.679,2.599-0.679,2.599-0.679s-2.946-4.711-1.566-9.584c0,0,0.171-1.182,0.171-3.195
			C987.408,566.912,989.132,561.698,989.132,561.698z"/>
		<path fill="#707372" d="M996.229,578.346l1.213,2.35c0,0-5.882,1.85-5.572-1.197C991.88,579.497,995.361,577.843,996.229,578.346z
			"/>
		<path fill="#707372" d="M988.961,581.711v1.849c0,0-3.813,1.684-5.713-0.677C983.248,582.892,987.229,581.207,988.961,581.711z"/>
		<path fill="#707372" d="M956.779,578.52c0,0,1.562,1.685,0.861,2.185c-0.693,0.504-5.193-0.164-5.193-0.164l-0.17-0.502
			L956.779,578.52z"/>
		<path fill="#707372" d="M942.34,582.078c0,0,1.459,1.818,0.763,2.321c-0.695,0.502-5.195-0.503-5.195-0.503
			S940.881,581.95,942.34,582.078z"/>
		<path fill="#FFFFFF" d="M951.77,568.896c0,0-0.059-3.688-0.895-6.035c0,0-1.092-7.521-1.516-8.508l-6.773,7.556v1.137l2.941,3.191
			l0.172,1.508l1.919,0.722l3.003,1.009L951.77,568.896z"/>
	</g>
	<g>
		<path fill="#CDCCCC" d="M1734.589,584.554c23.626,0,42.781,1.979,42.781,4.411c0,2.435-19.156,4.407-42.781,4.407
			c-23.632,0-42.783-1.973-42.783-4.407C1691.806,586.531,1710.959,584.554,1734.589,584.554z"/>
		<g>
			<g>
				<g>
					<path fill="#989898" d="M1751.227,587.82l10.494-7.383h9.976v0.348c0,0.193,0.159,0.349,0.356,0.349
						c0.196,0,0.356-0.152,0.356-0.349v-23.523c0-0.19-0.159-0.348-0.356-0.348s-0.356,0.155-0.356,0.348v0.351h-9.976
						l-10.494-7.134h-41.531v0.063c-1.618,0.775-2.896,8.826-2.896,18.647c0,9.825,1.279,17.875,2.896,18.651v0.064h41.531V587.82z"
						/>
					<path fill="#CDCCCC" d="M1761.731,557.602l-10.495-7.133l-0.658,7.461c-0.667,7.575-0.667,15.185,0.021,22.748l0.648,7.153
						l10.494-7.384l-0.557-9.793c-0.057-1.017-0.057-2.041,0-3.064L1761.731,557.602z"/>
					<path fill="none" stroke="#989898" stroke-width="1.4368" stroke-miterlimit="10" d="M1758.653,555.405
						c0.771-1.226,1.023-2.617,0.546-2.882c-0.48-0.275-1.479,0.513-2.213,1.758c-0.735,1.231-0.555,2.026-0.461,2.733"/>
					<path fill="none" stroke="#7B7A78" stroke-width="1.4368" stroke-miterlimit="10" d="M1758.105,582.993
						c0.772,1.225,1.025,2.612,0.548,2.88c-0.48,0.276-1.479-0.514-2.212-1.756c-0.735-1.234-0.558-1.519-0.878-2.149"/>
					<line fill="none" x1="1755.255" y1="557.317" x2="1755.856" y2="556.638"/>
					<polygon fill="#7B7A78" points="1771.677,557.627 1771.677,580.466 1761.692,580.41 1764.627,573.708 1765.42,571.906 					"/>
					<path fill="#7B7A78" d="M1751.227,550.468c0,0-2.445,21.903,0,37.362l-41.531,0.064L1751.227,550.468z"/>
				</g>
				<path fill="#C2C1C1" d="M1761.748,557.627l-10.529,30.194l10.529-7.383C1761.748,580.43,1760.686,568.246,1761.748,557.627z"/>
			</g>
			<g>
				<ellipse fill="#CDCCCC" cx="1282.262" cy="587.538" rx="25.137" ry="5.029"/>
				<g>
					<path fill="#989898" d="M1301.157,542.813l-8.676-11.654v-11.089h0.406c0.224,0,0.403-0.172,0.403-0.391
						c0-0.221-0.182-0.394-0.403-0.394h-27.661c-0.228,0-0.404,0.173-0.404,0.394c0,0.219,0.179,0.391,0.404,0.391h0.406v11.089
						l-8.388,11.654v46.114h0.076c0.915,1.806,10.382,3.223,21.931,3.223c11.545,0,21.015-1.417,21.925-3.223h0.074v-46.114
						H1301.157z"/>
					<path fill="#CDCCCC" d="M1265.634,531.148l-8.388,11.652l8.773,0.739c8.903,0.748,17.842,0.739,26.744-0.019l8.402-0.713
						l-8.676-11.653l-11.518,0.618c-1.195,0.065-2.402,0.065-3.596,0L1265.634,531.148z"/>
					<path fill="none" stroke="#989898" stroke-width="1.6417" stroke-miterlimit="10" d="M1263.055,534.569
						c-1.441-0.858-3.068-1.145-3.388-0.604c-0.32,0.54,0.604,1.638,2.07,2.45c1.457,0.813,2.391,0.613,3.216,0.513"/>
					<path fill="none" stroke="#7B7A78" stroke-width="1.6417" stroke-miterlimit="10" d="M1295.486,535.174
						c1.439-0.859,3.067-1.146,3.387-0.604c0.319,0.539-0.604,1.636-2.069,2.45c-1.458,0.813-1.788,0.612-2.522,0.971"/>
					<line fill="none" x1="1265.293" y1="538.338" x2="1264.505" y2="537.67"/>
					<polygon fill="#7B7A78" points="1265.661,520.107 1292.52,520.107 1292.443,531.186 1284.569,527.927 1282.45,527.052 					"/>
					<path fill="#7B7A78" d="M1257.239,542.813c0,0,25.747,2.716,43.919,0l0.077,46.114L1257.239,542.813z"/>
				</g>
				<path fill="#C2C1C1" d="M1265.661,531.131l35.489,11.699l-8.688-11.699C1292.473,531.131,1278.148,532.31,1265.661,531.131z"/>
			</g>
			<g>
				<ellipse fill="#CDCCCC" cx="1340.609" cy="583.147" rx="25.137" ry="5.031"/>
				<g>
					<path fill="#989898" d="M1359.508,538.421l-8.678-11.654V515.68h0.403c0.226,0,0.406-0.173,0.406-0.394
						c0-0.218-0.181-0.395-0.406-0.395h-27.659c-0.227,0-0.402,0.177-0.402,0.395c0,0.221,0.178,0.394,0.402,0.394h0.405v11.087
						l-8.385,11.654v46.115h0.073c0.916,1.805,10.382,3.222,21.929,3.222s21.017-1.417,21.927-3.222h0.076v-46.115H1359.508
						L1359.508,538.421z"/>
					<path fill="#CDCCCC" d="M1323.98,526.767l-8.385,11.654l8.771,0.738c8.901,0.749,17.844,0.741,26.746-0.021l8.404-0.71
						l-8.677-11.653l-11.519,0.621c-1.197,0.063-2.4,0.063-3.598,0L1323.98,526.767z"/>
					<path fill="none" stroke="#989898" stroke-width="1.6417" stroke-miterlimit="10" d="M1321.401,530.18
						c-1.438-0.859-3.068-1.144-3.386-0.604c-0.32,0.54,0.604,1.637,2.069,2.45c1.457,0.813,2.39,0.611,3.217,0.513"/>
					<path fill="none" stroke="#7B7A78" stroke-width="1.6417" stroke-miterlimit="10" d="M1353.832,530.783
						c1.44-0.86,3.066-1.146,3.388-0.604s-0.603,1.637-2.067,2.449c-1.459,0.814-1.789,0.614-2.525,0.972"/>
					<line fill="none" x1="1323.643" y1="533.949" x2="1322.854" y2="533.279"/>
					<polygon fill="#7B7A78" points="1324.01,515.717 1350.866,515.717 1350.791,526.794 1342.914,523.538 1340.797,522.66 					"/>
					<path fill="#7B7A78" d="M1315.586,538.421c0,0,25.75,2.716,43.922,0l0.074,46.115L1315.586,538.421z"/>
				</g>
				<path fill="#C2C1C1" d="M1324.01,526.738l35.488,11.699l-8.688-11.699C1350.82,526.738,1336.496,527.918,1324.01,526.738z"/>
			</g>
			<g>
				<ellipse fill="#CDCCCC" cx="1667.978" cy="582.935" rx="16.91" ry="2.15"/>
				<g>
					<path fill="#CDCCCC" d="M1677.68,582.819l1.486-24.8h-29.671l1.484,24.8c-0.121,0.082,5.871,2.266,13.346,2.266
						S1677.803,582.892,1677.68,582.819z"/>
					<ellipse fill="#B5B6B6" cx="1664.336" cy="558.02" rx="14.83" ry="1.016"/>
					<path fill="none" stroke="#B5B6B6" stroke-width="0.2765" stroke-miterlimit="10" d="M1650.144,568.011
						c0,0,17.175,2.104,28.365-0.258"/>
					<path fill="none" stroke="#B5B6B6" stroke-width="0.2765" stroke-miterlimit="10" d="M1650.144,569.526
						c0,0,17.175,2.104,28.365-0.255"/>
					<path fill="none" stroke="#B5B6B6" stroke-width="0.2765" stroke-miterlimit="10" d="M1650.406,571.048
						c0,0,16.659,2.103,27.85-0.257"/>
					<path fill="#CDCCCC" d="M1649.761,556.001c0.285,0,0.516,0.564,0.516,1.261c0,0.695-0.229,1.266-0.516,1.266
						c-0.288,0-0.521-0.568-0.521-1.266S1649.473,556.001,1649.761,556.001z"/>
					<ellipse fill="#CDCCCC" cx="1678.641" cy="557.263" rx="0.517" ry="1.262"/>
					<path fill="none" stroke="#989898" stroke-width="0.5531" stroke-miterlimit="10" d="M1649.761,557.262
						c0,0-2.862,20.746,15.092,19.986c17.957-0.762,13.798-19.986,13.798-19.986"/>
					<path fill="#FFFFFF" d="M1663.938,557.637c7.043,0,12.754,0.339,12.754,0.763c0,0.417-5.711,0.758-12.754,0.758
						c-7.039,0-12.75-0.341-12.75-0.758C1651.19,557.976,1656.899,557.637,1663.938,557.637z"/>
				</g>
				<path opacity="0.56" fill="#CDCCCC" enable-background="new    " d="M1678.641,558.525c0,0-16.141,23.522-27.583,24.283
					c0,0,10.673,5.059,26.547,0C1677.604,582.81,1679.166,559.795,1678.641,558.525z"/>
			</g>
		</g>
	</g>
</g>
<g id="text" display="none">
</g>
<g id="ปุ่มซ้ายขวา" display="none">
</g>
<g id="ชื่อประเทศ" display="none">
</g>
<g id="Layer_5">
</g>
<g id="รถในหลวง">
</g>
<g id="Layer_6">
</g>
</svg>
