<?xml version="1.0" encoding="utf-8"?>
<!-- Generator: Adobe Illustrator 21.0.0, SVG Export Plug-In . SVG Version: 6.00 Build 0)  -->
<svg version="1.1" id="Layer_1" xmlns="http://www.w3.org/2000/svg" xmlns:xlink="http://www.w3.org/1999/xlink" x="0px" y="0px"
	 viewBox="0 0 1920 264.2" style="enable-background:new 0 0 1920 264.2;" xml:space="preserve">
<style type="text/css">
	.st0{opacity:0.72;fill:#FFFFFF;enable-background:new    ;}
	.st1{fill:#FFFFFF;}
	.st2{display:none;}
</style>
<g id="background_แค่แถวบน">
</g>
<g id="Layer_1_1_">
	<path class="st0" d="M1891.8,40.1h-30.4h-15.7h-7.6c-5.3,0-9.6-3.5-9.6-7.8s4.3-7.8,9.6-7.8h7.9h15.4h16.2c4.1,0,7.5-2.8,7.5-6.1
		s-3.4-6.1-7.5-6.1h-208.9c-4.1,0-7.5,2.8-7.5,6.1s3.4,6.1,7.5,6.1h38.7h17.1h6.2c5.3,0,9.6,3.5,9.6,7.8s-4.3,7.8-9.6,7.8h-5.9
		h-17.4h-62.8c-4.6,0-8.3,3-8.3,6.8s3.8,6.8,8.3,6.8h247.2c4.6,0,8.3-3,8.3-6.8C1900.1,43.1,1896.4,40.1,1891.8,40.1z"/>
	<path class="st1" d="M1274.9,110c0-18.8-15.2-33.9-34-33.9c-6.7,0-12.8,1.9-18.1,5.2c-1.6-0.7-3.3-1.1-5.2-1.2
		c-1.8-11.5-11.7-20.2-23.7-20.2c-3.4,0-6.7,0.7-9.7,2c-3.2-9.4-7-17.9-20.3-21.2c-16.1-4-27.5,7.5-29.9,18.3
		c-2.9-1.3-2.2,3.5-5.6,3.5c-6.6,0-12.6,2.7-16.9,7.1c-1.6-1.2-3.6-1.9-5.7-1.9c-5.2,0-9.4,4.2-9.4,9.4c0,0.1,0,0.2,0,0.3
		c-15.3,1.7-27.2,14.7-27.2,30.5c0,0.8,0,1.7,0.1,2.5c0,0-0.1,0.1-0.1,0.1h0.1h61.1h76.5h67.9C1274.9,110.3,1274.9,110.2,1274.9,110
		C1274.9,110,1274.9,110,1274.9,110z"/>
	<path class="st1" d="M491.3,205.8c0-15.1-12.2-27.3-27.3-27.3c-5.3,0-10.3,1.5-14.5,4.2c-1.3-0.6-2.7-0.9-4.2-0.9
		c-1.5-9.2-9.4-16.3-19-16.3c-2.8,0-5.4,0.6-7.8,1.6c-2.6-7.6-5.6-14.4-16.3-17c-13-3.2-22.1,6-24,14.7c-2.4-1.1-1.8,2.8-4.5,2.8
		c-5.3,0-10.1,2.2-13.6,5.7c-1.3-1-2.9-1.5-4.6-1.5c-4.2,0-7.5,3.4-7.5,7.6c0,0.1,0,0.2,0,0.3c-12.3,1.4-21.9,11.8-21.9,24.5
		c0,0.7,0,1.4,0.1,2c0,0-0.1,0.1-0.1,0.1h0.1h49.1h61.5h54.6C491.3,206,491.3,205.9,491.3,205.8
		C491.3,205.8,491.3,205.8,491.3,205.8z"/>
	<path class="st1" d="M1741.3,132.1c0-15.1,12.2-27.3,27.3-27.3c5.3,0,10.3,1.5,14.5,4.2c1.3-0.6,2.7-0.9,4.2-0.9
		c1.4-9.2,9.4-16.3,19.1-16.3c2.8,0,5.4,0.6,7.8,1.6c2.6-7.6,5.6-14.4,16.3-17c12.9-3.2,22.1,6,24,14.7c2.4-1.1,1.8,2.8,4.5,2.8
		c5.3,0,10.1,2.2,13.6,5.7c1.3-1,2.8-1.5,4.6-1.5c4.2,0,7.6,3.4,7.6,7.6c0,0.1,0,0.2,0,0.3c12.3,1.4,21.8,11.8,21.8,24.5
		c0,0.7,0,1.4-0.1,2c0,0,0.1,0.1,0.1,0.1h-0.1h-49.1h-61.4h-54.6C1741.3,132.3,1741.3,132.2,1741.3,132.1
		C1741.3,132.1,1741.3,132.1,1741.3,132.1z"/>
	<g>
		<g>
			<circle class="st1" cx="1637" cy="117.5" r="11"/>
			<circle class="st1" cx="1411.2" cy="154.9" r="5.5"/>
			<circle class="st1" cx="904.8" cy="58" r="3.9"/>
		</g>
	</g>
	<g>
		<g>
			<defs>
				<rect id="SVGID_1_" x="0.7" y="-60.3" width="308" height="147.1"/>
			</defs>
			<clipPath id="SVGID_2_">
				<use xlink:href="#SVGID_1_"  style="overflow:visible;"/>
			</clipPath>
		</g>
	</g>
</g>
<g id="text" class="st2">
</g>
<g id="ปุ่มซ้ายขวา" class="st2">
</g>
<g id="ชื่อประเทศ" class="st2">
</g>
<g id="Layer_5">
</g>
<g id="รถในหลวง">
</g>
<g id="Layer_6">
</g>
<path class="st0" d="M388,71.8h-42.4h-22h-10.6c-7.4,0-13.4-4.9-13.4-10.9s6-10.9,13.4-10.9h11h21.5h22.7c5.8,0,10.5-3.8,10.5-8.5
	S374,33,368.3,33H76.6c-5.8,0-10.5,3.8-10.5,8.5S70.8,50,76.6,50h54h23.8h8.7c7.4,0,13.4,4.9,13.4,10.9s-6,10.9-13.4,10.9h-8.3
	h-24.3H42.9c-6.4,0-11.6,4.3-11.6,9.5c0,5.2,5.2,9.5,11.6,9.5H388c6.4,0,11.6-4.3,11.6-9.5C399.6,76,394.4,71.8,388,71.8z"/>
</svg>
