<?xml version="1.0" encoding="utf-8"?>
<!-- Generator: Adobe Illustrator 23.0.3, SVG Export Plug-In . SVG Version: 6.00 Build 0)  -->
<svg version="1.1" id="Layer_1" xmlns="http://www.w3.org/2000/svg" xmlns:xlink="http://www.w3.org/1999/xlink" x="0px" y="0px"
	 viewBox="0 0 733.08 152.09" style="enable-background:new 0 0 733.08 152.09;" xml:space="preserve">
<style type="text/css">
	.st0{fill:#FFFFFF;}
	.st1{display:none;}
</style>
<g id="background_แค่แถวบน">
</g>
<g>
	<g>
		<path class="st0" d="M27.13,100.33c1.22-0.24,2.01-0.53,2.38-0.85c0.37-0.32,0.55-0.93,0.55-1.83V24.41c0-0.89-0.18-1.5-0.55-1.83
			c-0.37-0.32-1.16-0.61-2.38-0.85l-4.52-0.98V18.3h37.35c17.09,0,30.11,3.22,39.06,9.64c8.95,6.43,13.43,17.46,13.43,33.08
			s-4.48,26.65-13.43,33.08c-8.95,6.43-21.97,9.64-39.06,9.64H22.62v-2.44L27.13,100.33z M54.96,100.09h5
			c6.75,0,11.96-1.2,15.62-3.6s6.22-6.37,7.69-11.9c1.46-5.53,2.2-13.38,2.2-23.56c0-10.17-0.73-18.02-2.2-23.56
			c-1.46-5.53-4.03-9.5-7.69-11.9s-8.87-3.6-15.62-3.6h-5C54.96,21.97,54.96,100.09,54.96,100.09z"/>
		<path class="st0" d="M126.98,100.33c1.22-0.24,2.01-0.53,2.38-0.85s0.55-0.93,0.55-1.83V24.41c0-0.89-0.18-1.5-0.55-1.83
			c-0.37-0.32-1.16-0.61-2.38-0.85l-4.52-0.98V18.3h75.19v23.8h-3.05c-1.71-5.29-3.32-9.28-4.82-11.96c-1.51-2.69-3.6-4.72-6.29-6.1
			c-2.69-1.38-6.47-2.08-11.35-2.08h-17.33v36.25h31.49v3.66h-31.49v38.21h18.55c4.8,0,8.58-0.73,11.35-2.2
			c2.77-1.46,4.94-3.58,6.53-6.35s3.23-6.79,4.94-12.08h3.17v24.29h-76.9v-2.44L126.98,100.33z"/>
		<path class="st0" d="M217.24,22.58c-0.37-0.32-1.16-0.61-2.38-0.85l-4.52-0.98V18.3h33.81l39.3,49.56V24.29
			c0-0.89-0.18-1.48-0.55-1.77c-0.37-0.28-1.12-0.55-2.26-0.79l-4.39-0.98V18.3h18.55v2.44l-4.52,0.98
			c-1.22,0.24-2.01,0.53-2.38,0.85c-0.37,0.33-0.55,0.94-0.55,1.83v79.34h-4.39l-61.26-77.5v71.53c0,0.9,0.18,1.49,0.55,1.77
			c0.37,0.29,1.12,0.55,2.26,0.79l4.39,0.98v2.44h-18.55v-2.44l4.52-0.98c1.22-0.24,2.01-0.53,2.38-0.85
			c0.37-0.32,0.55-0.93,0.55-1.83V24.41C217.79,23.51,217.61,22.9,217.24,22.58z"/>
		<path class="st0" d="M312.51,97.77c0,0.9,0.18,1.49,0.55,1.77c0.37,0.29,1.12,0.55,2.26,0.79l4.39,0.98v2.44h-18.55v-2.44
			l4.52-0.98c1.22-0.24,2.01-0.53,2.38-0.85s0.55-0.93,0.55-1.83V24.41c0-0.89-0.18-1.5-0.55-1.83c-0.37-0.32-1.16-0.61-2.38-0.85
			l-4.52-0.98V18.3h31.25l25.15,54.32l22.46-54.32h32.22v2.44l-4.52,0.98c-1.22,0.24-2.01,0.53-2.38,0.85
			c-0.37,0.33-0.55,0.94-0.55,1.83v73.24c0,0.9,0.18,1.51,0.55,1.83c0.37,0.33,1.16,0.61,2.38,0.85l4.52,0.98v2.44h-39.55v-2.44
			l4.39-0.98c1.14-0.24,1.89-0.51,2.26-0.79s0.55-0.87,0.55-1.77V28.68l-31,75.07h-3.66l-32.71-71.9v65.92H312.51z"/>
		<path class="st0" d="M466.68,101.31l5.25-0.49c1.14-0.16,1.71-0.61,1.71-1.34c0-0.41-0.12-0.89-0.37-1.46l-8.06-17.82h-28.32
			l-7.32,17.82c-0.24,0.57-0.37,1.06-0.37,1.46c0,0.73,0.57,1.18,1.71,1.34l5.25,0.49v2.44h-18.55v-2.44l4.52-0.49
			c0.98-0.08,1.67-0.32,2.07-0.73c0.41-0.41,0.85-1.14,1.34-2.2l33.81-80.93h3.91l35.76,80.93c0.49,1.06,0.93,1.79,1.34,2.2
			c0.41,0.41,1.1,0.65,2.08,0.73l4.52,0.49v2.44h-40.28L466.68,101.31L466.68,101.31z M463.63,76.53l-13.18-29.17l-12.08,29.17
			H463.63z"/>
		<path class="st0" d="M561.58,67.19c-0.85-1.59-2.22-2.64-4.09-3.17c-1.87-0.53-4.96-0.79-9.28-0.79h-3.54v34.3
			c0,0.9,0.18,1.51,0.55,1.83c0.37,0.33,1.16,0.61,2.38,0.85l5.25,1.1v2.44h-40.52v-2.44l4.52-0.98c1.22-0.24,2.01-0.53,2.38-0.85
			s0.55-0.93,0.55-1.83V24.41c0-0.89-0.18-1.5-0.55-1.83c-0.37-0.32-1.16-0.61-2.38-0.85l-4.52-0.98V18.3h35.89
			c10.9,0,19.57,0.71,26,2.14c6.43,1.42,11.11,3.76,14.04,7.02s4.39,7.69,4.39,13.31c0,6.27-1.87,11.09-5.62,14.46
			c-3.74,3.38-9.81,5.68-18.19,6.9c4.8,0.33,8.65,1.1,11.53,2.32c2.89,1.22,5.15,3.15,6.78,5.8s2.89,6.29,3.78,10.92l1.34,7.32
			c0.65,3.5,1.12,5.86,1.4,7.08s0.69,2.16,1.22,2.81c0.53,0.65,1.36,0.98,2.5,0.98c2.03,0,3.74-1.5,5.13-4.52l2.56,2.2
			c-1.14,2.36-2.87,4.27-5.19,5.74c-2.32,1.46-6.08,2.2-11.29,2.2c-5.21,0-9.32-0.57-12.33-1.71s-5.37-3.15-7.08-6.04
			s-3.01-7.06-3.91-12.51l-1.46-9.15C563.19,71.57,562.44,68.78,561.58,67.19z M544.68,59.56h4.64c4.72,0,8.36-0.65,10.92-1.95
			s4.33-3.3,5.31-5.98c0.98-2.69,1.46-6.31,1.46-10.86c0-4.56-0.49-8.18-1.46-10.86s-2.75-4.68-5.31-5.98s-6.21-1.95-10.92-1.95
			h-4.64V59.56z"/>
		<path class="st0" d="M662.04,51.26c1.02,0.98,2.09,2.28,3.23,3.91L692,97.77c0.65,0.98,1.22,1.65,1.71,2.01
			c0.49,0.37,1.18,0.59,2.07,0.67l5.25,0.85v2.44h-25.76c-2.2,0-3.91-0.35-5.13-1.04c-1.22-0.69-2.28-1.73-3.17-3.11l-22.83-38.33
			l-2.32,2.08v34.42c0,0.9,0.18,1.49,0.55,1.77c0.37,0.29,1.12,0.55,2.26,0.79l4.39,0.98v2.44h-39.55v-2.44l4.52-0.98
			c1.22-0.24,2.01-0.53,2.38-0.85s0.55-0.93,0.55-1.83V24.41c0-0.89-0.18-1.5-0.55-1.83c-0.37-0.32-1.16-0.61-2.38-0.85l-4.52-0.98
			V18.3h39.55v2.44l-4.39,0.98c-1.14,0.16-1.89,0.41-2.26,0.73c-0.37,0.33-0.55,0.94-0.55,1.83v34.67l40.28-34.91
			c0.65-0.57,0.98-1.18,0.98-1.83c0-0.57-0.45-0.93-1.34-1.1l-5.25-0.49V18.3h21.85v2.44l-5.13,0.37c-1.39,0.08-2.46,0.35-3.23,0.79
			c-0.77,0.45-1.77,1.2-2.99,2.26l-28.56,24.78C659.82,49.51,661.02,50.29,662.04,51.26z"/>
	</g>
</g>
<g id="text" class="st1">
</g>
<g id="ปุ่มซ้ายขวา" class="st1">
</g>
<g id="ชื่อประเทศ" class="st1">
</g>
<g id="Layer_5">
</g>
<g id="รถในหลวง">
</g>
<g id="Layer_6">
</g>
</svg>
