<?xml version="1.0" encoding="utf-8"?>
<!-- Generator: Adobe Illustrator 16.0.0, SVG Export Plug-In . SVG Version: 6.00 Build 0)  -->
<!DOCTYPE svg PUBLIC "-//W3C//DTD SVG 1.1//EN" "http://www.w3.org/Graphics/SVG/1.1/DTD/svg11.dtd">
<svg version="1.1" id="Layer_1" xmlns="http://www.w3.org/2000/svg" xmlns:xlink="http://www.w3.org/1999/xlink" x="0px" y="0px"
	 width="1800px" height="300px" viewBox="0 0 1800 300" enable-background="new 0 0 1800 300" xml:space="preserve">
<g id="background_แค่แถวบน">
</g>
<g id="Layer_1_1_">
	<g>
		<polygon fill="#FFFFFF" points="1692.279,174.048 1659.482,28.464 1510.242,28.464 1477.938,174.048 		"/>
		<path fill="#6F758E" d="M1488.083,162.239c120.017-1.992,307.558-17.99,307.558-17.99
			c-18.463,74.446-85.166,148.892-116.957,148.892c-75.061,0-558.557,0-558.557,0s-102.129-91.306-116.094-176.821
			C1004.033,116.34,1200.139,167.005,1488.083,162.239z"/>
		<path fill="none" stroke="#FFFFFF" stroke-width="6.4454" stroke-miterlimit="10" d="M1023.687,171.933
			c0,0,164.15,56.414,452.095,51.65c120.017-1.992,287.986-16.266,287.986-16.266"/>
		<polygon fill="#6B7F6E" points="1508.496,97.282 1545.504,97.282 1545.504,49.637 1518.971,49.637 		"/>
		<rect x="1553.451" y="49.637" fill="#6B7F6E" width="26.473" height="47.645"/>
		<rect x="1587.871" y="49.637" fill="#6B7F6E" width="23.822" height="47.645"/>
		<polygon fill="#6B7F6E" points="1624.939,97.282 1660.345,97.282 1649.871,49.637 1624.939,49.637 		"/>
		<polygon fill="#FFFFFF" points="511.661,91.08 490.857,0 396.245,0 375.791,91.08 		"/>
		<path fill="#7C6757" d="M382.219,84.96c76.068-1.253,194.955-11.398,194.955-11.398c-11.706,47.193-53.991,94.387-74.138,94.387
			c-47.584,0-354.053,0-354.053,0S84.231,110.056,75.38,55.86C75.38,55.86,199.688,87.979,382.219,84.96z"/>
		<path fill="none" stroke="#FFFFFF" stroke-width="4.1587" stroke-miterlimit="10" d="M87.846,91.101
			c0,0,104.06,35.754,286.569,32.736c76.068-1.253,182.55-10.31,182.55-10.31"/>
		<polygon fill="#6B7F6E" points="395.157,42.696 418.486,42.696 418.486,14.232 401.79,14.232 		"/>
		<rect x="424.175" y="14.232" fill="#6B7F6E" width="17.087" height="28.464"/>
		<rect x="444.116" y="14.232" fill="#6B7F6E" width="17.087" height="28.464"/>
		<polygon fill="#6B7F6E" points="469.746,42.696 491.412,42.696 484.779,14.232 469.746,14.232 		"/>
	</g>
</g>
<g id="text" display="none">
</g>
<g id="ปุ่มซ้ายขวา" display="none">
</g>
<g id="ชื่อประเทศ" display="none">
</g>
<g id="Layer_5">
</g>
<g id="รถในหลวง">
</g>
<g id="Layer_6">
</g>
</svg>
