<?xml version="1.0" encoding="utf-8"?>
<!-- Generator: Adobe Illustrator 21.0.0, SVG Export Plug-In . SVG Version: 6.00 Build 0)  -->
<svg version="1.1" id="Layer_1" xmlns="http://www.w3.org/2000/svg" xmlns:xlink="http://www.w3.org/1999/xlink" x="0px" y="0px"
	 viewBox="0 0 1920.9 1084" style="enable-background:new 0 0 1920.9 1084;" xml:space="preserve">
<style type="text/css">
	.st0{fill:url(#SVGID_1_);}
	.st1{fill:#FFFFFF;}
	.st2{font-family:'ArialMT';}
	.st3{font-size:23.95px;}
	.st4{fill:#51695C;}
	.st5{fill:#F3F3F3;}
	.st6{fill:#CCCCCC;}
	.st7{fill:url(#SVGID_2_);}
	.st8{fill:#301727;}
	.st9{fill:url(#SVGID_3_);}
	.st10{fill:url(#SVGID_4_);}
	.st11{fill:url(#SVGID_5_);}
	.st12{fill:url(#SVGID_6_);}
	.st13{fill:url(#SVGID_7_);}
	.st14{fill:url(#SVGID_8_);}
	.st15{fill:#CD675D;}
	.st16{fill:#A05D56;}
	.st17{fill:#423B50;}
	.st18{fill:#D2AA62;}
	.st19{opacity:0.18;fill:#423B50;enable-background:new    ;}
	.st20{fill:#CA524C;}
	.st21{fill:none;}
	.st22{fill:#CD9C3C;}
	.st23{fill:#484257;}
	.st24{opacity:0.25;}
	.st25{fill:#AD4C3F;}
	.st26{fill:#C05745;}
	.st27{fill:#D2AA64;}
	.st28{opacity:0.18;}
	.st29{fill:#853B36;}
</style>
<title>ภูฏาน</title>
<g>
	<g id="Layer_1_1_">
		
			<linearGradient id="SVGID_1_" gradientUnits="userSpaceOnUse" x1="960.75" y1="293.86" x2="960.75" y2="-279.8201" gradientTransform="matrix(1 0 0 1 0 292)">
			<stop  offset="0" style="stop-color:#FCC189"/>
			<stop  offset="0.28" style="stop-color:#FAC689"/>
			<stop  offset="0.63" style="stop-color:#F6D587"/>
			<stop  offset="1" style="stop-color:#EEED85"/>
			<stop  offset="1" style="stop-color:#EEED85"/>
		</linearGradient>
		<rect x="0.5" class="st0" width="1920.5" height="786.7"/>
		<path class="st1" d="M1915.8,413.1c-1.8-2.3-3.8-4.3-11-5.1c-8.7-1-14.9,1.8-16.2,4.4c-1.6-0.3-1.2,0.8-3,0.8
			c-3.1-0.1-6.2,0.5-9.1,1.7c-1-0.3-2-0.5-3.1-0.5c-2.8,0-5.1,1-5.1,2.3c0,0,0,0,0,0.1c-8.3,0.4-14.7,3.6-14.7,7.4
			c0,0.2,0,0.3,0.1,0.5c0,0,0-0.1-0.1-0.1h67.3v-12C1919.2,412.7,1917.5,412.8,1915.8,413.1z"/>
		<path class="st1" d="M1562.3,364.8c0-4.5-18.8-8.2-41.9-8.2c-7.5,0-14.9,0.4-22.3,1.3c-2-0.2-4.1-0.3-6.4-0.3
			c-2.2-2.8-14.5-4.9-29.2-4.9c-4.3,0-8.3,0.2-11.9,0.5c-4-2.3-8.6-4.3-25-5.1c-19.9-1-34,1.8-36.9,4.4c-3.6-0.3-2.7,0.8-7,0.8
			c-7-0.1-13.9,0.5-20.8,1.7c-2.3-0.3-4.7-0.5-7-0.5c-6.4,0-11.6,1-11.6,2.3v0.1c-18.9,0.4-33.5,3.5-33.5,7.3c0,0.2,0,0.4,0.1,0.6
			h-0.1L1562.3,364.8C1562.3,364.9,1562.3,364.8,1562.3,364.8L1562.3,364.8z"/>
		<path class="st1" d="M1595.9,246.7c0-4.5-5.6-8.2-12.6-8.2c-2.3,0-4.6,0.4-6.7,1.3c-0.6-0.2-1.3-0.3-1.9-0.3
			c-0.7-2.8-4.3-4.9-8.8-4.9c-1.2,0-2.4,0.2-3.6,0.5c-1.2-2.3-2.6-4.3-7.5-5.1c-6-1-10.2,1.8-11.1,4.4c-1.1-0.3-0.8,0.8-2.1,0.8
			c-2.2,0-4.4,0.6-6.3,1.7c-0.7-0.3-1.4-0.5-2.1-0.5c-1.9,0-3.5,1-3.5,2.3v0.1c-5.7,0.4-10.1,3.6-10.1,7.4c0,0.2,0,0.4,0,0.6l0,0
			L1595.9,246.7C1595.9,246.8,1595.9,246.7,1595.9,246.7L1595.9,246.7z"/>
		<path class="st1" d="M779.5,491.6c0-4.5-5.6-8.2-12.5-8.2c-2.3,0-4.5,0.4-6.7,1.3c-0.6-0.2-1.3-0.3-1.9-0.3
			c-0.7-2.8-4.3-4.9-8.7-4.9c-1.2,0-2.4,0.2-3.6,0.5c-1.2-2.3-2.6-4.3-7.5-5.1c-5.9-1-10.1,1.8-11,4.4c-1.1-0.3-0.8,0.8-2.1,0.8
			c-2.2,0-4.4,0.6-6.2,1.7c-0.7-0.3-1.4-0.5-2.1-0.5c-1.9,0-3.5,1-3.5,2.3c0,0,0,0,0,0.1c-5.6,0.4-10,3.5-10,7.3c0,0.2,0,0.4,0,0.6
			l0,0L779.5,491.6C779.5,491.7,779.5,491.6,779.5,491.6L779.5,491.6z"/>
		<text transform="matrix(1 0 0 1 1703 726.57)" class="st1 st2 st3">DENMARK</text>
		<path class="st4" d="M1410.9,501.9c28.6-0.1,56.8,4.4,80.2,5.4c-15.7-12.5-29.8-26.7-42.2-42.5c-6-7.6-155.6,33.1-155.6,33.1
			c-71,7.5-248.7-51.9-314.3-39.9c-140.4,25.7-69.2,81.1-252.6,74.2l402,185.4c35.4-41.8,61.8-84.1,87.6-131.6
			C1270.2,486.3,1386.8,501.9,1410.9,501.9z"/>
		<path class="st4" d="M1921,678.3v-187c-43-27.3-106.2,0.7-177.1,25.9c30.9,6.3,58.6,14.3,71.6,23.8
			C1850.5,566.8,1885.6,631.3,1921,678.3z"/>
		<path class="st5" d="M1815.5,541c-12.9-9.5-40.6-17.5-71.6-23.8c-52.6-10.7-114.7-16.4-129.6-16.4c-23.7,0-57.1-14.5-81.5,0
			c-10.3,6.1-24.7,7.2-41.7,6.5c-23.4-1-51.6-5.5-80.2-5.4c-24.1,0-140.7-15.6-194.8,84.1c-25.8,47.5-52.2,89.8-87.6,131.6
			c-22.6,26.5-47.1,51.2-73.4,74l865.9,1V678.3C1885.6,631.3,1850.5,566.8,1815.5,541z"/>
		<path class="st4" d="M1,786.7L0,645.3c22.3-56.4,92.1-91.8,122-91.8c61.6,0,143,65.5,238,65.5S244,785.7,244,785.7L1,786.7z"/>
		<path class="st6" d="M117.3,605.5c0,0-60-6.5-63,44.8S50,788.9,50,788.9l58.6-35.9c0,0,78.4-137.4,47.9-145.7
			S117.3,605.5,117.3,605.5z"/>
		
			<linearGradient id="SVGID_2_" gradientUnits="userSpaceOnUse" x1="960.95" y1="813.03" x2="960.95" y2="377.32" gradientTransform="matrix(1 0 0 1 0 292)">
			<stop  offset="0" style="stop-color:#D5B671"/>
			<stop  offset="0.24" style="stop-color:#D09966"/>
			<stop  offset="0.35" style="stop-color:#CE8A61"/>
			<stop  offset="0.51" style="stop-color:#D39270"/>
			<stop  offset="0.81" style="stop-color:#DFA896"/>
			<stop  offset="1" style="stop-color:#E7B7B2"/>
		</linearGradient>
		<rect x="1" y="822.7" class="st7" width="1919.9" height="261.3"/>
		<path class="st8" d="M1266.9,787.6l1.2,0.3L1266.9,787.6z"/>
		<path class="st8" d="M1266.6,787.5l0.4,0.1L1266.6,787.5z"/>
		<path class="st8" d="M1266.5,787.5L1266.5,787.5z"/>
		
			<linearGradient id="SVGID_3_" gradientUnits="userSpaceOnUse" x1="1266.5" y1="495.5" x2="1266.5" y2="495.5" gradientTransform="matrix(1 0 0 1 0 292)">
			<stop  offset="0.64" style="stop-color:#A4554C"/>
			<stop  offset="0.83" style="stop-color:#9E4B41"/>
		</linearGradient>
		<path class="st9" d="M1266.5,787.5L1266.5,787.5z"/>
		<path class="st8" d="M1266.9,787.6L1266.9,787.6z"/>
		
			<linearGradient id="SVGID_4_" gradientUnits="userSpaceOnUse" x1="1266.9" y1="495.6" x2="1266.9" y2="495.6" gradientTransform="matrix(1 0 0 1 0 292)">
			<stop  offset="0.64" style="stop-color:#A4554C"/>
			<stop  offset="0.83" style="stop-color:#9E4B41"/>
		</linearGradient>
		<path class="st10" d="M1266.9,787.6L1266.9,787.6z"/>
		<path class="st8" d="M1268.2,787.9l0.9,0.3L1268.2,787.9z"/>
		
			<linearGradient id="SVGID_5_" gradientUnits="userSpaceOnUse" x1="505.39" y1="496.05" x2="1555.41" y2="496.05" gradientTransform="matrix(1 0 0 1 0 292)">
			<stop  offset="0.64" style="stop-color:#A4554C"/>
			<stop  offset="0.83" style="stop-color:#9E4B41"/>
		</linearGradient>
		<path class="st11" d="M1268.2,787.9l0.9,0.3L1268.2,787.9z"/>
		
			<linearGradient id="SVGID_6_" gradientUnits="userSpaceOnUse" x1="601.75" y1="495.55" x2="1790.67" y2="495.55" gradientTransform="matrix(1 0 0 1 0 292)">
			<stop  offset="0.64" style="stop-color:#A4554C"/>
			<stop  offset="0.83" style="stop-color:#9E4B41"/>
		</linearGradient>
		<path class="st12" d="M1266.6,787.5l0.4,0.1L1266.6,787.5z"/>
		
			<linearGradient id="SVGID_7_" gradientUnits="userSpaceOnUse" x1="601.75" y1="495.75" x2="1790.67" y2="495.75" gradientTransform="matrix(1 0 0 1 0 292)">
			<stop  offset="0.64" style="stop-color:#A4554C"/>
			<stop  offset="0.83" style="stop-color:#9E4B41"/>
		</linearGradient>
		<path class="st13" d="M1266.9,787.6l1.2,0.3L1266.9,787.6z"/>
		<path class="st8" d="M1495.9,788l0.2-0.3l-0.7-0.2L1495.9,788z"/>
		
			<linearGradient id="SVGID_8_" gradientUnits="userSpaceOnUse" x1="601.75" y1="495.75" x2="1790.67" y2="495.75" gradientTransform="matrix(1 0 0 1 0 292)">
			<stop  offset="0.64" style="stop-color:#A4554C"/>
			<stop  offset="0.83" style="stop-color:#9E4B41"/>
		</linearGradient>
		<path class="st14" d="M1495.9,788l0.2-0.3l-0.7-0.2L1495.9,788z"/>
		<rect x="1343.6" y="433.2" class="st1" width="74.1" height="49.8"/>
		<rect x="1343.6" y="441.7" class="st1" width="74.1" height="17.6"/>
		<polygon class="st1" points="1343.6,440 1343.6,441.7 1417.7,441.7 1417.7,439.8 1343.6,439.8 		"/>
		<polygon class="st1" points="1343.6,459.5 1343.6,461.2 1417.7,461.2 1417.7,459.3 1343.6,459.3 		"/>
		<rect x="1300.3" y="571.1" class="st1" width="160.8" height="9.5"/>
		<rect x="1352.8" y="441.7" class="st1" width="11.8" height="22.2"/>
		<rect x="1374.9" y="441.7" class="st1" width="11.8" height="22.2"/>
		<rect x="1397" y="441.7" class="st1" width="11.8" height="22.2"/>
		<polygon class="st1" points="1380.5,604.2 1300.3,604.2 1304.5,611.9 1380.5,611.9 1456.8,611.9 1461.1,604.2 		"/>
		<rect x="1300.3" y="571.1" class="st1" width="8.3" height="9.8"/>
		<rect x="1338.4" y="571.1" class="st1" width="8.3" height="9.8"/>
		<rect x="1376.5" y="571.1" class="st1" width="8.3" height="9.8"/>
		<rect x="1414.7" y="571.1" class="st1" width="8.3" height="9.8"/>
		<rect x="1452.8" y="571.1" class="st1" width="8.3" height="9.8"/>
		<rect x="1300.3" y="580.6" class="st1" width="160.8" height="23.6"/>
		<rect x="1314.3" y="538.5" class="st1" width="131.9" height="23.6"/>
		<rect x="1329" y="483" class="st1" width="103.2" height="47"/>
		<polygon class="st1" points="1314.2,562.1 1300.3,571.1 1461.1,571.1 1446.4,562.1 		"/>
		<polygon class="st1" points="1271.7,728.6 1495.4,728.6 1495.4,787.5 1266.5,787.5 1266.5,728.6 		"/>
		<polygon class="st1" points="1277.8,695.4 1489,695.4 1489,728.6 1272.9,728.6 1272.9,695.4 		"/>
		<polygon class="st1" points="1292.7,622.2 1473.4,622.2 1473.4,696.2 1288.5,696.2 1288.5,622.2 		"/>
		<rect x="1288.5" y="622.2" class="st1" width="184.9" height="8.2"/>
		<polygon class="st1" points="1288.5,653.1 1288.5,675.1 1473.4,675.1 1473.4,651.1 1288.5,651.1 		"/>
		<rect x="1288.5" y="672.1" class="st1" width="184.9" height="3"/>
		<rect x="1288.5" y="651" class="st1" width="184.9" height="3.1"/>
		<rect x="1335.8" y="651" class="st1" width="90.2" height="44.4"/>
		<rect x="1359.5" y="695.4" class="st1" width="43" height="33.2"/>
		<rect x="1302.9" y="651" class="st1" width="17.8" height="44.4"/>
		<rect x="1441.8" y="651" class="st1" width="17.8" height="44.4"/>
		<ellipse class="st1" cx="1433.9" cy="663" rx="5.6" ry="5.6"/>
		<ellipse class="st1" cx="1328.3" cy="663" rx="5.6" ry="5.6"/>
		<ellipse class="st1" cx="1322.9" cy="592.5" rx="5.6" ry="5.6"/>
		<ellipse class="st1" cx="1361.4" cy="592.8" rx="5.6" ry="5.6"/>
		<ellipse class="st1" cx="1399.9" cy="593.1" rx="5.6" ry="5.6"/>
		<ellipse class="st1" cx="1438.4" cy="593.3" rx="5.6" ry="5.6"/>
		<ellipse class="st1" cx="1348.2" cy="450.5" rx="2.4" ry="2.4"/>
		<ellipse class="st1" cx="1369.6" cy="450.5" rx="2.4" ry="2.4"/>
		<ellipse class="st1" cx="1391.7" cy="450.5" rx="2.4" ry="2.4"/>
		<ellipse class="st1" cx="1413.3" cy="450.5" rx="2.4" ry="2.4"/>
		<ellipse class="st1" cx="1295.8" cy="663" rx="5.6" ry="5.6"/>
		<ellipse class="st1" cx="1466.5" cy="663" rx="5.6" ry="5.6"/>
		<rect x="1302.9" y="695.4" class="st1" width="17.8" height="5.5"/>
		<rect x="1272.9" y="695.4" class="st1" width="15.6" height="5.5"/>
		<rect x="1335.8" y="695.4" class="st1" width="23.6" height="5.5"/>
		<rect x="1402.5" y="695.4" class="st1" width="23.6" height="5.5"/>
		<rect x="1441.8" y="695.4" class="st1" width="17.8" height="5.5"/>
		<rect x="1473.4" y="695.4" class="st1" width="15.6" height="5.5"/>
		<polygon class="st1" points="1304.5,611.9 1288.5,622.3 1473.4,622.3 1456.6,611.9 		"/>
		<path class="st1" d="M1304.5,611.9c0,0-9.9-2.6-11.1-13.3c0,0-6.6,13.3,3.1,18.5s8-2.3,8-2.3V611.9z"/>
		<path class="st1" d="M1456.4,611.9c0,0,9.9-2.6,11.1-13.3c0,0,6.6,13.3-3.1,18.5s-8-2.3-8-2.3V611.9z"/>
		<polygon class="st1" points="1272.9,720.6 1272.9,728.6 1359.5,728.6 1359.5,719.9 1272.9,719.9 		"/>
		<polygon class="st1" points="1402.5,720.6 1402.5,728.6 1489,728.6 1489,719.9 1402.5,719.9 		"/>
		<rect x="1272.9" y="719.9" class="st1" width="86.5" height="3.1"/>
		<rect x="1402.5" y="719.9" class="st1" width="86.5" height="3.1"/>
		<rect x="1329" y="487.4" class="st1" width="103.2" height="7.4"/>
		<rect x="1343.6" y="429.5" class="st1" width="74.1" height="7.1"/>
		<rect x="1314.3" y="535.3" class="st1" width="131.9" height="8.1"/>
		<polygon class="st1" points="1341,490 1324.6,490 1324.6,482.6 1436.7,482.6 1436.7,490 		"/>
		<rect x="1335.1" y="499.2" class="st1" width="16.5" height="23.6"/>
		<rect x="1360" y="499.2" class="st1" width="16.5" height="23.6"/>
		<rect x="1384.9" y="499.2" class="st1" width="16.5" height="23.6"/>
		<rect x="1409.8" y="499.2" class="st1" width="16.5" height="23.6"/>
		<polygon class="st1" points="1380.7,320.6 1343.6,433.2 1380.7,433.2 1417.7,433.2 		"/>
		<polygon class="st1" points="1394.4,362.4 1380.9,362.4 1380.4,362.4 1366.9,362.4 1357,378.2 1380.4,378.2 1380.9,378.2 
			1404.3,378.2 		"/>
		<rect x="1343.6" y="427.3" class="st1" width="74.1" height="5.8"/>
		<polygon class="st1" points="1323.8,538.5 1300.3,538.5 1300.3,529.4 1461.1,529.4 1461.1,538.5 		"/>
		<rect x="1343.6" y="433.2" class="st1" width="74.1" height="49.8"/>
		<rect x="1343.6" y="441.7" class="st15" width="74.1" height="17.6"/>
		<polygon class="st16" points="1343.6,440 1343.6,441.7 1417.7,441.7 1417.7,439.8 1343.6,439.8 		"/>
		<polygon class="st16" points="1343.6,459.5 1343.6,461.2 1417.7,461.2 1417.7,459.3 1343.6,459.3 		"/>
		<rect x="1300.3" y="571.1" class="st17" width="160.8" height="9.5"/>
		<rect x="1352.8" y="441.7" class="st17" width="11.8" height="22.2"/>
		<rect x="1374.9" y="441.7" class="st17" width="11.8" height="22.2"/>
		<rect x="1397" y="441.7" class="st17" width="11.8" height="22.2"/>
		<polygon class="st17" points="1380.5,604.2 1300.3,604.2 1304.5,611.9 1380.5,611.9 1456.8,611.9 1461.1,604.2 		"/>
		<rect x="1300.3" y="571.1" class="st16" width="8.3" height="9.8"/>
		<rect x="1338.4" y="571.1" class="st16" width="8.3" height="9.8"/>
		<rect x="1376.5" y="571.1" class="st16" width="8.3" height="9.8"/>
		<rect x="1414.7" y="571.1" class="st16" width="8.3" height="9.8"/>
		<rect x="1452.8" y="571.1" class="st16" width="8.3" height="9.8"/>
		<rect x="1300.3" y="580.6" class="st1" width="160.8" height="23.6"/>
		<rect x="1314.3" y="538.5" class="st1" width="131.9" height="23.6"/>
		<rect x="1329" y="483" class="st1" width="103.2" height="47"/>
		<polygon class="st18" points="1314.2,562.1 1300.3,571.1 1461.1,571.1 1446.4,562.1 		"/>
		<polygon class="st18" points="1271.7,728.6 1495.4,728.6 1495.4,787.5 1266.5,787.5 1266.5,728.6 		"/>
		<polygon class="st1" points="1277.8,695.4 1489,695.4 1489,728.6 1272.9,728.6 1272.9,695.4 		"/>
		<polygon class="st1" points="1292.7,622.2 1473.4,622.2 1473.4,696.2 1288.5,696.2 1288.5,622.2 		"/>
		<rect x="1288.5" y="622.2" class="st16" width="184.9" height="8.2"/>
		<polygon class="st15" points="1288.5,653.1 1288.5,675.1 1473.4,675.1 1473.4,651.1 1288.5,651.1 		"/>
		<rect x="1288.5" y="672.1" class="st16" width="184.9" height="3"/>
		<rect x="1288.5" y="651" class="st16" width="184.9" height="3.1"/>
		<rect x="1335.8" y="651" class="st17" width="90.2" height="44.4"/>
		<rect x="1359.5" y="695.4" class="st17" width="43" height="33.2"/>
		<rect x="1302.9" y="651" class="st17" width="17.8" height="44.4"/>
		<rect x="1441.8" y="651" class="st17" width="17.8" height="44.4"/>
		<ellipse class="st18" cx="1433.9" cy="663" rx="5.6" ry="5.6"/>
		<ellipse class="st18" cx="1328.3" cy="663" rx="5.6" ry="5.6"/>
		<ellipse class="st18" cx="1322.9" cy="592.5" rx="5.6" ry="5.6"/>
		<ellipse class="st18" cx="1361.4" cy="592.8" rx="5.6" ry="5.6"/>
		<ellipse class="st18" cx="1399.9" cy="593.1" rx="5.6" ry="5.6"/>
		<ellipse class="st18" cx="1438.4" cy="593.3" rx="5.6" ry="5.6"/>
		<ellipse class="st18" cx="1348.2" cy="450.5" rx="2.4" ry="2.4"/>
		<ellipse class="st18" cx="1369.6" cy="450.5" rx="2.4" ry="2.4"/>
		<ellipse class="st18" cx="1391.7" cy="450.5" rx="2.4" ry="2.4"/>
		<ellipse class="st18" cx="1413.3" cy="450.5" rx="2.4" ry="2.4"/>
		<ellipse class="st18" cx="1295.8" cy="663" rx="5.6" ry="5.6"/>
		<ellipse class="st18" cx="1466.5" cy="663" rx="5.6" ry="5.6"/>
		<rect x="1302.9" y="695.4" class="st18" width="17.8" height="5.5"/>
		<rect x="1272.9" y="695.4" class="st18" width="15.6" height="5.5"/>
		<rect x="1335.8" y="695.4" class="st18" width="23.6" height="5.5"/>
		<rect x="1402.5" y="695.4" class="st18" width="23.6" height="5.5"/>
		<rect x="1441.8" y="695.4" class="st18" width="17.8" height="5.5"/>
		<rect x="1473.4" y="695.4" class="st18" width="15.6" height="5.5"/>
		<path class="st18" d="M1473.4,622.2l-8.7-5.3c9.2-5.4,2.8-18.3,2.8-18.3c-0.7,6.2-5,11.5-11,13.4v0.2h-152c0,0-9.9-2.8-11.1-13.5
			c0,0-6.6,13.2,3.1,18.4l0,0l-8,5.1L1473.4,622.2z"/>
		<polygon class="st15" points="1272.9,720.6 1272.9,728.6 1359.5,728.6 1359.5,719.9 1272.9,719.9 		"/>
		<polygon class="st15" points="1402.5,720.6 1402.5,728.6 1489,728.6 1489,719.9 1402.5,719.9 		"/>
		<rect x="1272.9" y="719.9" class="st16" width="86.5" height="3.1"/>
		<rect x="1402.5" y="719.9" class="st16" width="86.5" height="3.1"/>
		<rect x="1329" y="487.4" class="st17" width="103.2" height="7.4"/>
		<rect x="1314.3" y="535.3" class="st17" width="131.9" height="8.1"/>
		<polygon class="st16" points="1341,490 1324.6,490 1324.6,482.6 1436.7,482.6 1436.7,490 		"/>
		<rect x="1335.1" y="499.2" class="st17" width="16.5" height="23.6"/>
		<rect x="1360" y="499.2" class="st17" width="16.5" height="23.6"/>
		<rect x="1384.9" y="499.2" class="st17" width="16.5" height="23.6"/>
		<rect x="1409.8" y="499.2" class="st17" width="16.5" height="23.6"/>
		<polygon class="st18" points="1418,429.5 1418,427.7 1415.8,427.7 1399.6,378.5 1404.3,378.5 1394.4,362.6 1380.7,320.7 
			1366.9,362.6 1366.9,362.6 1357,378.5 1361.7,378.5 1345.5,427.7 1344,427.7 1344,429.5 1344,433.2 1344,436.7 1418,436.7 		"/>
		<polygon class="st16" points="1323.8,538.5 1300.3,538.5 1300.3,529.4 1461.1,529.4 1461.1,538.5 		"/>
		<path class="st19" d="M1380.7,320.6l-13.8,41.8l-9.9,15.8h4.7l-16.2,49.1h-1.9v32l0,0v1.9l0,0v21.4h-19v7.4h4.4v39.4h-28.8v9.1h14
			v23.6h-0.1l-13.9,9v33.1l4.2,7.6c-0.1,0-9.9-2.6-11.1-13.3c0,0-6.6,13.3,3.1,18.5l-7.9,5.2h-0.1v73.1h-15.6v33.2h-6.4v58.8h114.4
			L1380.7,320.6L1380.7,320.6z"/>
		<path class="st20" d="M1266.9,787.6l-0.4-0.1L1266.9,787.6z"/>
		<path class="st21" d="M1266.6,787.5l0.4,0.1L1266.6,787.5z"/>
		<rect x="945.7" y="550.6" class="st1" width="294.9" height="235.5"/>
		<polygon class="st16" points="945.7,582.2 945.7,610.9 1240.6,610.9 1240.6,579.5 945.7,579.5 		"/>
		<rect x="1011.4" y="727.5" class="st17" width="18.7" height="35"/>
		<rect x="1000.2" y="587.3" class="st17" width="41.1" height="54.7"/>
		<rect x="1000.2" y="632.2" class="st22" width="41.1" height="9.8"/>
		<polygon class="st16" points="1256.1,551.6 1245.6,515.2 945.7,515.2 935.2,551.6 		"/>
		<polygon class="st16" points="1234,515.2 1223.5,478.9 967.8,478.9 957.3,515.2 		"/>
		<rect x="1000.2" y="641.7" class="st17" width="41.1" height="54.7"/>
		<rect x="1000.2" y="686.5" class="st22" width="41.1" height="9.8"/>
		<rect x="1149.2" y="727.1" class="st17" width="18.7" height="35"/>
		<rect x="1138" y="586.9" class="st17" width="41.1" height="54.7"/>
		<rect x="1138" y="631.8" class="st22" width="41.1" height="9.8"/>
		<rect x="1138" y="641.3" class="st17" width="41.1" height="54.7"/>
		<rect x="1138" y="686.1" class="st22" width="41.1" height="9.8"/>
		<polygon class="st19" points="967.3,479.8 956.8,515.9 945.2,515.9 934.7,552 945,552 945,580.4 945,583 945,611.8 945,786.7 
			1088,786.7 1088,479.8 		"/>
		<rect x="1500.5" y="541" class="st1" width="315" height="129.8"/>
		<polygon class="st18" points="1500.5,570.1 1500.5,611 1815.5,611 1815.5,566.4 1500.5,566.4 		"/>
		<rect x="1500.5" y="605.4" class="st16" width="315" height="5.6"/>
		<rect x="1547.3" y="636" class="st23" width="12.6" height="23.7"/>
		<rect x="1570.8" y="636" class="st23" width="12.6" height="23.7"/>
		<rect x="1594.4" y="636" class="st23" width="12.6" height="23.7"/>
		<rect x="1617.9" y="636" class="st23" width="12.6" height="23.7"/>
		<rect x="1500.5" y="566.2" class="st16" width="315" height="5.8"/>
		<rect x="1538.2" y="577.1" class="st23" width="31" height="41.3"/>
		<rect x="1608.6" y="577.1" class="st23" width="31" height="41.3"/>
		<rect x="1538.2" y="611" class="st18" width="31" height="7.4"/>
		<rect x="1608.6" y="611" class="st18" width="31" height="7.4"/>
		<polygon class="st23" points="1588.7,532.1 1495.6,532.1 1500.5,541 1588.7,541 1815.5,541 1820.4,532.1 		"/>
		<rect x="1515.7" y="532.1" class="st18" width="7.5" height="8.9"/>
		<rect x="1550.3" y="532.1" class="st18" width="7.5" height="8.9"/>
		<rect x="1584.9" y="532.1" class="st18" width="7.5" height="8.9"/>
		<rect x="1619.5" y="532.1" class="st18" width="7.5" height="8.9"/>
		<rect x="1654.1" y="532.1" class="st18" width="7.5" height="8.9"/>
		<rect x="1495.6" y="521.6" class="st16" width="324.8" height="10.5"/>
		<rect x="1687.2" y="636" class="st23" width="12.6" height="23.7"/>
		<rect x="1710.8" y="636" class="st23" width="12.6" height="23.7"/>
		<rect x="1734.3" y="636" class="st23" width="12.6" height="23.7"/>
		<rect x="1757.9" y="636" class="st23" width="12.6" height="23.7"/>
		<rect x="1678.2" y="577.1" class="st23" width="31" height="41.3"/>
		<rect x="1748.5" y="577.1" class="st23" width="31" height="41.3"/>
		<rect x="1678.2" y="611" class="st18" width="31" height="7.4"/>
		<rect x="1748.5" y="611" class="st18" width="31" height="7.4"/>
		<rect x="1690.3" y="532.1" class="st18" width="7.5" height="8.9"/>
		<rect x="1724.9" y="532.1" class="st18" width="7.5" height="8.9"/>
		<rect x="1759.5" y="532.1" class="st18" width="7.5" height="8.9"/>
		<rect x="1794.1" y="532.1" class="st18" width="7.5" height="8.9"/>
		<polygon class="st19" points="1495.6,521.9 1495.1,532.3 1500,541 1500,670.3 1650,670.3 1650,521.9 		"/>
		<rect x="1516" y="472.3" class="st1" width="79.5" height="15.8"/>
		<rect x="1524.6" y="434.8" class="st1" width="62.1" height="26.1"/>
		<polygon class="st17" points="1555.7,494.3 1555.7,494.3 1486.8,494.3 1494.2,507 1555.7,507 1555.7,507 1617.2,507 1624.7,494.3 
					"/>
		<rect x="1523.4" y="494.3" class="st16" width="6.3" height="12.7"/>
		<rect x="1552.6" y="494.3" class="st16" width="6.3" height="12.7"/>
		<rect x="1581.7" y="494.3" class="st16" width="6.3" height="12.7"/>
		<rect x="1530.4" y="472.3" class="st16" width="6.3" height="15.8"/>
		<rect x="1541.5" y="444.9" class="st16" width="6.3" height="16"/>
		<rect x="1563.7" y="444.9" class="st16" width="6.3" height="16"/>
		<rect x="1552.6" y="472.3" class="st16" width="6.3" height="15.8"/>
		<rect x="1574.8" y="472.3" class="st16" width="6.3" height="15.8"/>
		<rect x="1494.2" y="512.2" class="st1" width="122.9" height="72.9"/>
		<polygon class="st18" points="1498.7,488.1 1486.8,494.3 1624.7,494.3 1612.1,488.1 		"/>
		<rect x="1476.6" y="602.5" class="st1" width="158.6" height="116.5"/>
		<polygon class="st15" points="1476.6,628.7 1476.6,665.3 1635.2,665.3 1635.2,625.3 1476.6,625.3 		"/>
		<rect x="1476.6" y="660.3" class="st16" width="158.6" height="5"/>
		<rect x="1518.5" y="687.8" class="st17" width="11.3" height="21.2"/>
		<rect x="1539.7" y="687.8" class="st17" width="11.3" height="21.2"/>
		<rect x="1560.8" y="687.8" class="st17" width="11.3" height="21.2"/>
		<rect x="1581.9" y="687.8" class="st17" width="11.3" height="21.2"/>
		<rect x="1476.6" y="625.1" class="st16" width="158.6" height="5.2"/>
		<ellipse class="st18" cx="1491.5" cy="644.9" rx="9.6" ry="9.6"/>
		<ellipse class="st18" cx="1554.7" cy="644.9" rx="9.6" ry="9.6"/>
		<ellipse class="st18" cx="1617.8" cy="644.9" rx="9.6" ry="9.6"/>
		<rect x="1510.4" y="634.9" class="st17" width="27.8" height="37"/>
		<rect x="1573.5" y="634.9" class="st17" width="27.8" height="37"/>
		<rect x="1510.4" y="665.3" class="st18" width="27.8" height="6.7"/>
		<rect x="1573.5" y="665.3" class="st18" width="27.8" height="6.7"/>
		<polygon class="st17" points="1555.7,594.6 1472.2,594.6 1476.6,602.5 1555.7,602.5 1635.2,602.5 1639.6,594.6 		"/>
		<rect x="1490.2" y="594.6" class="st16" width="6.7" height="8"/>
		<rect x="1521.3" y="594.6" class="st16" width="6.7" height="8"/>
		<rect x="1552.3" y="594.6" class="st16" width="6.7" height="8"/>
		<rect x="1583.4" y="594.6" class="st16" width="6.7" height="8"/>
		<rect x="1614.4" y="594.6" class="st16" width="6.7" height="8"/>
		<path class="st18" d="M1639.6,594.1l-7.8-4.6c8.3-4.8,2.5-16.5,2.5-16.5c-0.7,5.6-4.5,10.3-9.9,12.1l0,0h-137.7
			c0,0-8.9-2.4-10.1-12c0,0-6,11.8,2.8,16.6l-7.3,4.5L1639.6,594.1z"/>
		<polygon class="st15" points="1494.2,532.1 1494.2,568.8 1617.2,568.8 1617.2,528.8 1494.2,528.8 		"/>
		<rect x="1494.2" y="563.8" class="st16" width="122.9" height="5"/>
		<rect x="1494.2" y="528.6" class="st16" width="122.9" height="5.2"/>
		<rect x="1494.2" y="507" class="st16" width="122.9" height="5.2"/>
		<rect x="1516" y="467.1" class="st16" width="79.5" height="5.4"/>
		<rect x="1541.8" y="538.3" class="st17" width="27.8" height="30.4"/>
		<rect x="1541.8" y="568.7" class="st18" width="27.8" height="6.7"/>
		<ellipse class="st18" cx="1507.2" cy="548.7" rx="7.6" ry="7.6"/>
		<ellipse class="st18" cx="1530.3" cy="548.7" rx="7.6" ry="7.6"/>
		<ellipse class="st18" cx="1581.1" cy="548.7" rx="7.6" ry="7.6"/>
		<ellipse class="st18" cx="1604.2" cy="548.7" rx="7.6" ry="7.6"/>
		<rect x="1513.2" y="460.9" class="st16" width="85.1" height="6.3"/>
		<rect x="1524.6" y="434.8" class="st17" width="62.1" height="5.2"/>
		<rect x="1524.6" y="440" class="st16" width="62.1" height="4.9"/>
		<path class="st18" d="M1590.1,426.1c0,5.2-8.4,6.6-8.4,6.6l0,0c-6.3-4-17.3-12.2-26-30c-8.7,17.8-19.7,26.1-26,29.7c0,0-8-1-8-6.2
			c-1.6,2.8-0.7,6.5,2.2,8.1c0.2,0.1,0.5,0.3,0.7,0.4h62.1c3.3-1.4,4.8-5.1,3.5-8.4C1590.2,426.2,1590.1,426.1,1590.1,426.1z"/>
		<g class="st24">
			<path class="st17" d="M1529.7,494.4h-42.9l7.4,12.7v5.2l0,0v72.9h-7.6c0,0-8.9-2.4-10.1-12c0,0-6,12,2.8,16.8l-7.3,4.7l4.4,8
				v116.5h79.1V494.4H1529.7L1529.7,494.4z"/>
			<polygon class="st17" points="1486.8,494.4 1555.7,494.4 1555.7,488.2 1498.7,488.2 			"/>
			<path class="st17" d="M1529.7,432.4c0,0-8-1-8-6.1c0,0-3.1,5.7,2.9,8.6V461h-11.5v6.3h2.8v20.9h39.7v-85.6l0,0
				C1547,420.3,1536,428.8,1529.7,432.4z"/>
		</g>
		<rect x="1439.6" y="640.7" class="st1" width="189.8" height="78.2"/>
		<polygon class="st18" points="1439.6,658.3 1439.6,682.8 1629.4,682.8 1629.4,656 1439.6,656 		"/>
		<rect x="1439.6" y="679.5" class="st25" width="189.8" height="3.3"/>
		<rect x="1467.7" y="698" class="st17" width="7.6" height="14.3"/>
		<rect x="1481.9" y="698" class="st17" width="7.6" height="14.3"/>
		<rect x="1496.1" y="698" class="st17" width="7.6" height="14.3"/>
		<rect x="1510.3" y="698" class="st17" width="7.6" height="14.3"/>
		<rect x="1439.6" y="655.9" class="st25" width="189.8" height="3.5"/>
		<rect x="1462.3" y="662.4" class="st17" width="18.7" height="24.9"/>
		<rect x="1504.7" y="662.4" class="st17" width="18.7" height="24.9"/>
		<rect x="1462.3" y="682.8" class="st18" width="18.7" height="4.5"/>
		<rect x="1504.7" y="682.8" class="st18" width="18.7" height="4.5"/>
		<polygon class="st17" points="1492.7,635.3 1436.6,635.3 1439.6,640.7 1492.7,640.7 1629.3,640.7 1632.3,635.3 		"/>
		<rect x="1448.7" y="635.3" class="st18" width="4.5" height="5.3"/>
		<rect x="1469.6" y="635.3" class="st18" width="4.5" height="5.3"/>
		<rect x="1490.4" y="635.3" class="st18" width="4.5" height="5.3"/>
		<rect x="1511.3" y="635.3" class="st18" width="4.5" height="5.3"/>
		<rect x="1532.1" y="635.3" class="st18" width="4.5" height="5.3"/>
		<rect x="1436.6" y="629" class="st26" width="195.7" height="6.4"/>
		<rect x="1552" y="698" class="st17" width="7.6" height="14.3"/>
		<rect x="1566.2" y="698" class="st17" width="7.6" height="14.3"/>
		<rect x="1580.4" y="698" class="st17" width="7.6" height="14.3"/>
		<rect x="1594.6" y="698" class="st17" width="7.6" height="14.3"/>
		<rect x="1546.6" y="662.4" class="st17" width="18.7" height="24.9"/>
		<rect x="1589" y="662.4" class="st17" width="18.7" height="24.9"/>
		<rect x="1546.6" y="682.8" class="st18" width="18.7" height="4.5"/>
		<rect x="1589" y="682.8" class="st18" width="18.7" height="4.5"/>
		<rect x="1553.9" y="635.3" class="st18" width="4.5" height="5.3"/>
		<rect x="1574.7" y="635.3" class="st18" width="4.5" height="5.3"/>
		<rect x="1595.6" y="635.3" class="st18" width="4.5" height="5.3"/>
		<rect x="1616.4" y="635.3" class="st18" width="4.5" height="5.3"/>
		<polygon class="st19" points="1436.8,629.2 1436.9,635.6 1440,640.9 1440,656.1 1440,656.2 1440,658.5 1440,659.6 1440,679.7 
			1440,683.1 1440,719.5 1533,719.5 1533,629.2 		"/>
		<rect x="1629" y="663.3" class="st1" width="66" height="55.2"/>
		<rect x="1629.4" y="640.7" class="st15" width="65.6" height="22.6"/>
		<rect x="1639" y="674.2" class="st23" width="16.5" height="15.6"/>
		<rect x="1669.8" y="674.2" class="st23" width="16.5" height="15.6"/>
		<rect x="1629" y="640.3" class="st19" width="33" height="78.2"/>
		<path class="st4" d="M1888,787.7h-462v-69.3l269,0.1v-50.1l121.4,1c15.2,0,55.6,76.7,55.6,76.7L1888,787.7z"/>
		<rect x="1655" y="439.7" class="st1" width="113" height="82.2"/>
		<rect x="1655" y="451.7" class="st16" width="113" height="17"/>
		<rect x="1689" y="455.8" class="st18" width="44" height="51.1"/>
		<rect x="1684" y="447.7" class="st18" width="54" height="10"/>
		<rect x="1694" y="464.8" class="st17" width="11" height="34.1"/>
		<rect x="1717" y="464.8" class="st17" width="11" height="34.1"/>
		<polygon class="st17" points="1732.7,431.4 1639.6,431.4 1644.5,440.2 1732.7,440.2 1778.4,440.2 1783.4,431.4 		"/>
		<rect x="1639.6" y="420.8" class="st16" width="143.8" height="10.5"/>
		<polygon class="st18" points="1783.4,420.8 1747.3,411.9 1673,411.9 1639.6,420.8 		"/>
		<rect x="1674" y="387.6" class="st27" width="71" height="24.1"/>
		<rect x="1667" y="375.5" class="st16" width="84" height="12"/>
		<path class="st16" d="M1762.5,362.5c0,8.1-12.5,10-12.5,10l0,0c-9.9-6-27.1-19.2-40.7-47c-13.6,27.8-30.8,40.8-40.7,46.5
			c0,0-12.5-1.7-12.5-9.8c0,0-4.8,8.5,4.5,13.2h97.2C1767.3,370.8,1762.5,362.5,1762.5,362.5z"/>
		<rect x="175" y="388.6" class="st1" width="75" height="5"/>
		<rect x="122" y="423.7" class="st1" width="361" height="362"/>
		<polygon class="st16" points="502.4,425.5 487.3,405.4 117.7,405.4 102.5,425.5 		"/>
		<rect x="122" y="561.3" class="st16" width="360.9" height="75.3"/>
		<rect x="122" y="460" class="st16" width="360.9" height="16.5"/>
		<rect x="161.3" y="468.3" class="st23" width="13.9" height="26.1"/>
		<rect x="196.1" y="468.2" class="st23" width="13.9" height="26.1"/>
		<rect x="228.1" y="468.3" class="st23" width="13.9" height="26.1"/>
		<rect x="262.9" y="468.2" class="st23" width="13.9" height="26.1"/>
		<rect x="297.3" y="468.3" class="st23" width="13.9" height="26.1"/>
		<rect x="329.1" y="468.3" class="st23" width="13.9" height="26.1"/>
		<rect x="362" y="468.4" class="st23" width="13.9" height="26.1"/>
		<rect x="395.9" y="468.3" class="st23" width="13.9" height="26.1"/>
		<rect x="431.5" y="468.4" class="st23" width="13.9" height="26.1"/>
		<rect x="152.9" y="511.8" class="st23" width="30.7" height="40.9"/>
		<rect x="152.9" y="545.3" class="st18" width="30.7" height="7.3"/>
		<rect x="219.7" y="511.8" class="st23" width="30.7" height="40.9"/>
		<rect x="219.7" y="545.3" class="st18" width="30.7" height="7.3"/>
		<rect x="287.4" y="511.8" class="st23" width="30.7" height="40.9"/>
		<rect x="287.4" y="545.3" class="st18" width="30.7" height="7.3"/>
		<rect x="354.1" y="511.8" class="st23" width="30.7" height="40.9"/>
		<rect x="354.1" y="545.3" class="st18" width="30.7" height="7.3"/>
		<rect x="423.1" y="511.8" class="st23" width="30.7" height="40.9"/>
		<rect x="423.1" y="545.3" class="st18" width="30.7" height="7.3"/>
		<rect x="175" y="394.6" class="st18" width="75" height="11"/>
		<rect x="332" y="375.5" class="st1" width="75" height="30.1"/>
		<path class="st16" d="M415.1,363.9c0,7-10.7,8.1-10.7,8.1l0,0c-8.5-4.4-23.3-16.1-35-40c-11.7,23.9-26.5,35.3-35,40.2
			c0,0-10.8-1.2-10.7-8.2c0,0-4.1,8,3.9,11.6h83.6C419.2,372,415.1,363.9,415.1,363.9z"/>
		<path class="st18" d="M258.1,376.7c0,7-10.7,7.9-10.7,7.9l0,0c-8.5-4-23.3-15.9-35-39.8c-11.7,23.9-26.5,35.4-35,40.3
			c0,0-10.8-1.2-10.7-8.1c0,0-4.1,8.1,3.9,11.6h83.6C262.2,385,258.1,376.7,258.1,376.7z"/>
		<rect x="161.3" y="652.6" class="st23" width="7" height="15.5"/>
		<rect x="180.1" y="652.6" class="st23" width="7" height="15.5"/>
		<rect x="199.1" y="652.6" class="st23" width="7" height="15.5"/>
		<rect x="218" y="652.6" class="st23" width="7" height="15.5"/>
		<rect x="237" y="652.6" class="st23" width="7" height="15.5"/>
		<rect x="255.9" y="652.6" class="st23" width="7" height="15.5"/>
		<rect x="274.9" y="652.6" class="st23" width="7" height="15.5"/>
		<rect x="293.7" y="652.6" class="st23" width="7" height="15.5"/>
		<rect x="161.3" y="686.3" class="st23" width="7" height="15.5"/>
		<rect x="180.1" y="686.3" class="st23" width="7" height="15.5"/>
		<rect x="199.1" y="686.3" class="st23" width="7" height="15.5"/>
		<rect x="218" y="686.3" class="st23" width="7" height="15.5"/>
		<rect x="237" y="686.3" class="st23" width="7" height="15.5"/>
		<rect x="255.9" y="686.3" class="st23" width="7" height="15.5"/>
		<rect x="274.9" y="686.3" class="st23" width="7" height="15.5"/>
		<path class="st19" d="M250,405.6v-17h4.2c8.1-3.5,3.9-11.9,3.9-11.9c0,7-10.7,7.9-10.7,7.9l0,0c-8.5-4-23.3-15.9-35-39.8
			c-11.7,23.9-26.5,35.4-35,40.3c0,0-10.8-1.2-10.7-8.1c0,0-4.1,8.1,3.9,11.6h4.5v17h-57.3l-15.2,20.1H122v360h172V405.6H250z"/>
		<path class="st4" d="M582.8,528.4c24.4,12.8,72.6,0.9,121.9,1c24.1,0,133,26.7,194.8,74.4c64.6,49.8,83.3,121.9,160.9,181.9
			L52,786.7c0,0,78.8-80.5,169.9-81c106.7-0.6,140-107.5,175-130.3s80.6-47,104.3-47S558.5,515.6,582.8,528.4z"/>
		<rect x="696.1" y="610.3" class="st1" width="220.4" height="176"/>
		<polygon class="st15" points="696.1,633.9 696.1,655.4 916.5,655.4 916.5,631.9 696.1,631.9 		"/>
		<rect x="745.2" y="742.5" class="st23" width="13.9" height="26.1"/>
		<rect x="736.8" y="637.8" class="st23" width="30.7" height="40.9"/>
		<rect x="736.8" y="671.3" class="st18" width="30.7" height="7.3"/>
		<polygon class="st15" points="928.1,611 920.3,583.9 696.1,583.9 688.3,611 		"/>
		<polygon class="st15" points="911.6,583.9 903.8,556.7 712.6,556.7 704.8,583.9 		"/>
		<rect x="736.8" y="678.4" class="st23" width="30.7" height="40.9"/>
		<rect x="736.8" y="711.9" class="st18" width="30.7" height="7.3"/>
		<rect x="848.2" y="742.2" class="st23" width="13.9" height="26.1"/>
		<rect x="839.8" y="637.4" class="st23" width="30.7" height="40.9"/>
		<rect x="839.8" y="671" class="st18" width="30.7" height="7.3"/>
		<rect x="839.8" y="678.1" class="st23" width="30.7" height="40.9"/>
		<rect x="839.8" y="711.6" class="st18" width="30.7" height="7.3"/>
		<polygon class="st19" points="712.6,557 704.8,584.1 696.1,584.1 688.3,611.2 696,611.2 696,631.9 696,633.9 696,655.4 696,786.7 
			808,786.7 808,557 		"/>
		<rect x="514.7" y="412.4" class="st1" width="120.8" height="24"/>
		<rect x="527.9" y="355.4" class="st1" width="94.4" height="39.7"/>
		<polygon class="st23" points="575.1,445.9 575.1,445.9 470.4,445.9 481.7,465.1 575.1,465.1 575.1,465.1 668.6,465.1 679.9,445.9 
					"/>
		<rect x="526" y="445.9" class="st16" width="9.6" height="19.2"/>
		<rect x="570.3" y="445.9" class="st16" width="9.6" height="19.2"/>
		<rect x="614.6" y="445.9" class="st16" width="9.6" height="19.2"/>
		<rect x="536.6" y="412.4" class="st16" width="9.6" height="24.1"/>
		<rect x="553.5" y="370.8" class="st16" width="9.6" height="24.3"/>
		<rect x="587.2" y="370.8" class="st16" width="9.6" height="24.3"/>
		<rect x="570.3" y="412.4" class="st16" width="9.6" height="24.1"/>
		<rect x="604" y="412.4" class="st16" width="9.6" height="24.1"/>
		<rect x="481.7" y="473" class="st1" width="186.8" height="110.8"/>
		<polygon class="st18" points="488.5,436.5 470.4,445.9 679.9,445.9 660.8,436.5 		"/>
		<rect x="454.9" y="610.3" class="st1" width="241" height="177"/>
		<polygon class="st15" points="454.9,650 454.9,705.7 695.9,705.7 695.9,645 454.9,645 		"/>
		<rect x="454.9" y="698.1" class="st16" width="241" height="7.6"/>
		<rect x="518.6" y="739.8" class="st23" width="17.2" height="32.3"/>
		<rect x="550.7" y="739.8" class="st23" width="17.2" height="32.3"/>
		<rect x="582.8" y="739.8" class="st23" width="17.2" height="32.3"/>
		<rect x="615" y="739.8" class="st23" width="17.2" height="32.3"/>
		<rect x="454.9" y="644.6" class="st16" width="241" height="7.9"/>
		<ellipse class="st18" cx="477.6" cy="674.7" rx="14.5" ry="14.5"/>
		<ellipse class="st18" cx="573.5" cy="674.7" rx="14.5" ry="14.5"/>
		<ellipse class="st18" cx="669.4" cy="674.7" rx="14.5" ry="14.5"/>
		<rect x="506.3" y="659.5" class="st23" width="42.3" height="56.3"/>
		<rect x="602.2" y="659.5" class="st23" width="42.3" height="56.3"/>
		<rect x="506.3" y="705.7" class="st18" width="42.3" height="10.1"/>
		<rect x="602.2" y="705.7" class="st18" width="42.3" height="10.1"/>
		<polygon class="st23" points="575.1,598.2 448.2,598.2 454.9,610.3 575.1,610.3 695.8,610.3 702.6,598.2 		"/>
		<rect x="475.6" y="598.2" class="st16" width="10.2" height="12.1"/>
		<rect x="522.8" y="598.2" class="st16" width="10.2" height="12.1"/>
		<rect x="570" y="598.2" class="st16" width="10.2" height="12.1"/>
		<rect x="617.2" y="598.2" class="st16" width="10.2" height="12.1"/>
		<rect x="664.3" y="598.2" class="st16" width="10.2" height="12.1"/>
		<path class="st18" d="M702.6,598.2l-11.9-7.4c12.6-7.4,3.8-25.2,3.8-25.2c-1.6,13.6-13.3,17.8-15.1,18.4v0.1H470.2
			c0,0-13.6-3.7-15.3-18.5c0,0-9.1,18.2,4.3,25.4l0,0l-11,7.1L702.6,598.2z"/>
		<polygon class="st15" points="481.7,503.3 481.7,558.9 668.5,558.9 668.5,498.2 481.7,498.2 		"/>
		<rect x="481.7" y="551.3" class="st16" width="186.8" height="7.6"/>
		<rect x="481.7" y="497.9" class="st16" width="186.8" height="7.9"/>
		<rect x="481.7" y="465.1" class="st16" width="186.8" height="7.9"/>
		<rect x="514.7" y="404.4" class="st16" width="120.8" height="8.2"/>
		<rect x="554" y="512.8" class="st23" width="42.3" height="46.2"/>
		<rect x="554" y="558.9" class="st18" width="42.3" height="10.1"/>
		<ellipse class="st18" cx="501.4" cy="528.4" rx="11.5" ry="11.5"/>
		<ellipse class="st18" cx="536.5" cy="528.4" rx="11.5" ry="11.5"/>
		<ellipse class="st18" cx="613.7" cy="528.4" rx="11.5" ry="11.5"/>
		<ellipse class="st18" cx="648.8" cy="528.4" rx="11.5" ry="11.5"/>
		<rect x="510.5" y="395.1" class="st23" width="129.3" height="9.6"/>
		<rect x="527.9" y="355.4" class="st23" width="94.4" height="7.9"/>
		<rect x="527.9" y="363.3" class="st16" width="94.4" height="7.5"/>
		<path class="st18" d="M626.7,342.3c0,7.9-12.1,9.2-12.1,9.2l0,0c-9.6-5-26.3-18.2-39.5-45.2c-13.2,27-29.9,39.9-39.5,45.4
			c0,0-12.2-1.4-12.1-9.3c0,0-4.7,9.1,4.4,13.1h94.4C631.4,351.5,626.7,342.3,626.7,342.3z"/>
		<g class="st28">
			<path class="st17" d="M535.6,446h-65.2l11.3,19.2v7.9l0,0v110.7h-11.5c0,0-13.6-3.6-15.3-18.3c0,0-9.1,18.3,4.3,25.5l-11,7.2
				l6.7,12.1v177h120.2V446H535.6z"/>
			<polygon class="st17" points="470.4,445.9 575.1,445.9 575.1,436.5 488.5,436.5 			"/>
			<path class="st17" d="M535.6,351.8c0,0-12.2-1.5-12.1-9.3c0,0-4.7,8.7,4.4,13v39.7h-17.4v9.6h4.2v31.8h60.4v-130l0,0
				C561.9,333.4,545.2,346.3,535.6,351.8z"/>
		</g>
		<rect x="915.4" y="609.8" class="st1" width="429.5" height="177"/>
		<polygon class="st18" points="915.4,649.6 915.4,705.2 1344.8,705.2 1344.8,644.5 915.4,644.5 		"/>
		<rect x="915.4" y="697.6" class="st16" width="429.5" height="7.6"/>
		<rect x="979.1" y="739.4" class="st23" width="17.2" height="32.3"/>
		<rect x="1011.2" y="739.4" class="st23" width="17.2" height="32.3"/>
		<rect x="1043.3" y="739.4" class="st23" width="17.2" height="32.3"/>
		<rect x="1075.4" y="739.4" class="st23" width="17.2" height="32.3"/>
		<rect x="915.4" y="644.2" class="st16" width="429.5" height="7.9"/>
		<rect x="966.8" y="659" class="st23" width="42.3" height="56.3"/>
		<rect x="1062.7" y="659" class="st23" width="42.3" height="56.3"/>
		<rect x="966.8" y="705.2" class="st18" width="42.3" height="10.1"/>
		<rect x="1062.7" y="705.2" class="st18" width="42.3" height="10.1"/>
		<polygon class="st23" points="1035.6,597.7 908.7,597.7 915.4,609.8 1035.6,609.8 1344.8,609.8 1351.5,597.7 		"/>
		<rect x="936.1" y="597.7" class="st18" width="10.2" height="12.1"/>
		<rect x="983.3" y="597.7" class="st18" width="10.2" height="12.1"/>
		<rect x="1030.4" y="597.7" class="st18" width="10.2" height="12.1"/>
		<rect x="1077.6" y="597.7" class="st18" width="10.2" height="12.1"/>
		<rect x="1124.8" y="597.7" class="st18" width="10.2" height="12.1"/>
		<rect x="908.7" y="583.3" class="st16" width="442.9" height="14.4"/>
		<rect x="1169.9" y="739.4" class="st23" width="17.2" height="32.3"/>
		<rect x="1202" y="739.4" class="st23" width="17.2" height="32.3"/>
		<rect x="1234.1" y="739.4" class="st23" width="17.2" height="32.3"/>
		<rect x="1266.2" y="739.4" class="st23" width="17.2" height="32.3"/>
		<rect x="1157.6" y="659" class="st23" width="42.3" height="56.3"/>
		<rect x="1253.5" y="659" class="st23" width="42.3" height="56.3"/>
		<rect x="1157.6" y="705.2" class="st18" width="42.3" height="10.1"/>
		<rect x="1253.5" y="705.2" class="st18" width="42.3" height="10.1"/>
		<rect x="1174.1" y="597.7" class="st18" width="10.2" height="12.1"/>
		<rect x="1221.2" y="597.7" class="st18" width="10.2" height="12.1"/>
		<rect x="1268.4" y="597.7" class="st18" width="10.2" height="12.1"/>
		<rect x="1315.6" y="597.7" class="st18" width="10.2" height="12.1"/>
		<polygon class="st19" points="908.7,583.1 908.5,597.6 915,609.8 915,644.2 915,644.5 915,649.6 915,652.1 915,697.6 915,705.2 
			915,786.7 1130,786.7 1130,583.1 		"/>
		<rect x="1" y="786.7" class="st29" width="1919.9" height="35.9"/>
		<path class="st19" d="M1668.7,373c0,0-12.5-1.7-12.5-9.8c0,0-4.8,8.5,4.5,13.2h6.3v12h7v24.1h-1l-33.4,9l0,0v10.9l4.9,9.2h10.5
			v81.2h54V327.2C1695.4,354.5,1678.4,367.4,1668.7,373z"/>
	</g>
</g>
</svg>
