<svg xmlns="http://www.w3.org/2000/svg" viewBox="0 0 396 296"><defs><style>.cls-1{fill:#373947;}.cls-2{fill:#4a4c57;}.cls-3{fill:#242530;}</style></defs><title>กระทะ</title><g id="กระทะ"><path class="cls-1" d="M131.11,194.95c3.5.36,11,1.69,24.25,4.39l8,4.88-5.21,11.59c-3.5-2.32-6.91-4.84-10.58-6.91a19.83,19.83,0,0,0-7.63-2.78c-25-2.12-50-4-75-6-5.34-.41-10.61-2.31-16.06-.7-.59.17-2.08-.63-2.12-1.07-.17-1.77-.42-3.8.28-5.31,1.28-2.77,5.31-3.69,8.47-3.17C58.2,190.37,117.78,193.58,131.11,194.95Zm-48.25-1.26v-.13A.73.73,0,0,0,82.86,193.69Z"/><polygon class="cls-1" points="295.43 154.02 295.64 154.04 295.49 154.19 295.43 154.02"/><polygon class="cls-1" points="315.45 189.47 315.62 189.39 315.62 189.61 315.45 189.47"/><polygon class="cls-1" points="316.53 186.81 316.44 186.72 316.46 186.86 316.53 186.81"/><path class="cls-1" d="M316.46,186.86l-.19,0h.25Z"/><path class="cls-1" d="M89.29,156.13l0-.1Z"/><path class="cls-1" d="M89.34,156a1.13,1.13,0,0,1,0,.11A1.13,1.13,0,0,1,89.34,156Z"/><path class="cls-2" d="M154.73,223.25s-14.35-43.27,87.3-67c44.71-10.43,75.73-1.72,76,20.69.2,16.95-9.94,35-35.07,49.19C255.95,241.42,172.81,263.68,154.73,223.25Z"/><path class="cls-1" d="M181.42,243.72S167,217.7,214.58,194c40.08-19.94,80.18-11.77,87.85,7.18S238.1,275.86,181.42,243.72Z"/><path class="cls-3" d="M154.73,223.25c3.46,7.36,23.71,22.14,78.74,6.78,87.44-24.41,84.1-57.59,84.1-57.59.32.17,3.38,20-15.84,44.61-9.62,12.31-42.33,39.73-89.81,38.34C171.06,254.2,154.72,223.41,154.73,223.25Z"/><path class="cls-2" d="M154.35,98.16l-1.63-1.26.29-.61,4,1.44-.12.56-2.6-.13Z"/><path class="cls-2" d="M89.18,65.17a7.32,7.32,0,0,0,3.3,7.32c6.09,3.27,12.15,6.61,18.36,9.64,8.61,4.21,17.28,8.34,26.07,12.17,4.55,2,8.77,5.22,14.32,4.37,1.34-.2,2.86,1,4.35,1.49a3.94,3.94,0,0,0,2.45.18,5.24,5.24,0,0,1,4.17.09,82.37,82.37,0,0,0,8.43,2.65,95,95,0,0,0,22.53,2.1c1.86,0,3.73-.29,5.77-.46-.83,4.49.27,8,1.75,11.5,5,11.85,17.63,29.77,30.65,40.25,3.87,2.91,8.61-.64,13.15-3.45,6.67-4.13,9-8,12.67-12,2.06-2.21,2-3.56-.11-5.67-5.91-6-11.72-12.12-17.82-17.93-5-4.76-10.2-9.35-15.6-13.65A20.57,20.57,0,0,0,208.51,99a38.1,38.1,0,0,1-6.88.49c-6.29-.47-12.65-.15-19-.14C176.7,99.39,171,98.43,166,95c-1.17-.8-2.46-1.46-2.64-3.19a2.44,2.44,0,0,0-1.18-1.64,30.74,30.74,0,0,1-8.34-5.88,1.61,1.61,0,0,0-.41-.25c-6.1-3.13-12-6.68-18.33-9.31-11.12-4.64-22.46-8.76-33.76-13a22.26,22.26,0,0,0-6.87-1.44C92,60.2,89.76,62.58,89.18,65.17Zm147,87.18c-4.59-.46-19.45-25.26-19.45-25.26C218.19,128.88,240.78,152.81,236.18,152.36Zm-14.31-29s25.34,19.71,22.8,22.59S221.88,123.31,221.88,123.31Zm29.6,15.52c-2.38,1.47-25.09-22.92-25.09-22.92S253.86,137.37,251.48,138.83Z"/><path class="cls-3" d="M166,94.81c-1.17-.8-2.46-1.46-2.64-3.19A2.44,2.44,0,0,0,162.17,90a30.74,30.74,0,0,1-8.34-5.88,1.61,1.61,0,0,0-.41-.25c-6.1-3.13-12-6.68-18.33-9.31-11.12-4.64-22.46-8.76-33.76-13a22.26,22.26,0,0,0-6.87-1.44C92,60,89.78,62.41,89.19,65a7.32,7.32,0,0,0,3.3,7.32c6.09,3.27,12.15,6.61,18.36,9.64,8.61,4.21,17.28,8.34,26.07,12.17,4.55,2,8.77,5.22,14.32,4.37,1.34-.2,2.86,1,4.35,1.49a3.94,3.94,0,0,0,2.45.18,5.24,5.24,0,0,1,4.17.09"/></g></svg>