<?xml version="1.0" encoding="utf-8"?>
<!-- Generator: Adobe Illustrator 21.0.0, SVG Export Plug-In . SVG Version: 6.00 Build 0)  -->
<svg version="1.1" id="Layer_1" xmlns="http://www.w3.org/2000/svg" xmlns:xlink="http://www.w3.org/1999/xlink" x="0px" y="0px"
	 viewBox="0 0 832 384.7" style="enable-background:new 0 0 832 384.7;" xml:space="preserve">
<style type="text/css">
	.st0{fill:#806056;}
	.st1{fill:#BF6536;}
	.st2{fill:#F2A670;}
	.st3{opacity:0.11;fill:url(#SVGID_1_);enable-background:new    ;}
	.st4{opacity:0.11;fill:url(#SVGID_2_);enable-background:new    ;}
</style>
<title>ต้นไม้</title>
<g>
	<g id="ต้นไม้">
		<path class="st0" d="M205.8,298.4c-5.4-5.4,10.8-70.2,10.8-70.2l4.7,1.5c0.4-4.2,0.7-6.9,0.7-6.9c37.8-10.8,67.5-32.4,67.5-32.4
			l-5.4-8.1c-10.8,10.8-72.9,32.4-72.9,32.4s2.7,48.6-24.3,64.8c-27,16.2-59.4-21.6-59.4-21.6l-8.1,13.5c0,0,37.8,21.6,59.4,40.5
			c21.6,18.9-0.8,72.9-0.8,72.9l21.1,0.3C205.9,367.4,210.8,303.3,205.8,298.4z"/>
		<path class="st0" d="M232.8,306.5c12.9,0,38.9-19.3,54.3-31.8l5.8-16.3l-0.6-0.6c-16.2,18.9-69.9,33.6-72.9,24.3
			c-2.1-6.3,0.7-38.3,2-52.6l-4.7-1.5c0,0-16.2,64.8-10.8,70.2c5,5,0.1,69.1-6.7,86.7l40.5,0.5C219.4,367.5,232.8,306.5,232.8,306.5
			z"/>
		<path class="st1" d="M278,222.3c0,0,13.8-1.5,21.2-5.7h28.4l-21.8-29.3c0-13-19.5-13-19.5-13s0-13-16.3-16.3s-19.5,9.8-19.5,9.8
			s3.3-26-26-26s-19.6,32.4-19.6,32.4s-3.3-9.8-19.5-6.5c-16.3,3.3-6.5,22.8-6.5,22.8c-27.7,0-20.5,23.3-19.6,25.8
			c-0.5,3.6,0.9,7.9,7.1,11.7c11.1,6.7,29.1-5.6,36.6-11.5h10.2c6.6,2.5,17.1,5.7,27.6,5.7c10.5,0,15.7-3.2,18.1-5.7h7.7L278,222.3z
			"/>
		<path class="st2" d="M322.8,206.4c3.6-3.3,3.6-9.8-2-13s-12.5,3.3-12.5,3.3s7.2-22.8-14.5-26c-21.7-3.2-25.3,16.3-25.3,16.3
			c-2.2-3.8-6.9-5.2-10.9-3.3c-7.2,3.3-3.6,9.8-3.6,9.8c-3.6-6.5-10.9-6.5-10.9-6.5c-18.1-3.3-18.1,19.5-18.1,19.5
			c-10-1.8-15.6,3.4-18.6,8.3c-2.1,1.5-3.2,4-2.8,6.6c-0.2,0.8-0.3,1.4-0.3,1.4h0.6c2.9,10.4,50.7,9,68.8,0h8.9
			c5.4,3.2,14.6,7.6,21,5.7c4.3-1.3,8.3-3.2,12.1-5.7h11.7c0,0,14.4,0,14.5-3.3C341.4,206,322.8,206.4,322.8,206.4z"/>
		<path class="st1" d="M162.7,269.6c0.3-7.1-8.6-6.9-8.6-6.9c1.7-1.8,1.5-4.7-0.3-6.4c-0.2-0.2-0.4-0.4-0.7-0.5
			c-2.7-1.7-5.9,1.7-5.9,1.7s3.4-12-6.9-13.7s-12,8.6-12,8.6s-1.7-3.4-5.2-1.7s-1.7,5.2-1.7,5.2c-1-2-2.9-3.3-5.2-3.4
			c-8.6-1.7-8.6,10.3-8.6,10.3c-6.9-1.4-9.3,4.9-10.1,7.5c-0.2,0.3-0.2,0.7-0.3,1.1c0,4.4,15.2,2.2,15.2,0c0,0,10.9,4.4,17.4,2.2
			l6.5-2.2h9.5c2.4,1.4,5.1,2.1,7.9,2.2c6.5,0,8.4-3.3,8.4-3.3C162.5,270.1,162.6,269.9,162.7,269.6z"/>
		<path class="st2" d="M335.6,269.2c0.3-8.8-10.7-8.5-10.7-8.5c2.1-2.3,1.9-5.8-0.3-7.9c-0.3-0.2-0.5-0.5-0.8-0.6
			c-3.3-2.1-7.4,2.1-7.4,2.1s4.3-14.9-8.5-17.1s-14.9,10.7-14.9,10.7s-2.1-4.3-6.4-2.1s-2.1,6.4-2.1,6.4c-1.2-2.5-3.6-4.1-6.4-4.3
			c-10.7-2.1-10.7,12.8-10.7,12.8c-10.7-2.1-12.8,10.7-12.8,10.7s0,8.1,13.5,5.4s13.7-5.4,13.7-5.4s7.9,8.1,16,5.4
			s12.1-5.4,12.1-5.4s9.5,8.1,17.6,5.4c5.8-1.9,7.5-5.3,7.9-7C335.5,269.6,335.6,269.4,335.6,269.2z"/>
		
			<linearGradient id="SVGID_1_" gradientUnits="userSpaceOnUse" x1="197.31" y1="79.375" x2="294.97" y2="79.375" gradientTransform="matrix(1 0 0 -1 0 386)">
			<stop  offset="0" style="stop-color:#747D9D"/>
			<stop  offset="0.59" style="stop-color:#9281AA"/>
			<stop  offset="1" style="stop-color:#AA84B4"/>
		</linearGradient>
		<path class="st3" d="M232.8,306.2c12.9,0,38.9-19.4,54.3-31.8l5.8-16.3l-0.6-0.6c-16.2,18.9-69.9,33.6-72.9,24.3
			c-2.1-6.3,0.7-38.3,2-52.6l-4.7-1.5c0,0-16.2,64.8-10.8,70.2c5,5,0.1,69.1-6.7,86.7l40.5,0.5C219.4,367.2,232.8,306.2,232.8,306.2
			z"/>
		<path class="st0" d="M673.6,322.7c3.9-3.9-7.8-50.8-7.8-50.8l-3.4,1.1c-0.3-3-0.5-5-0.5-5c-27.4-7.8-48.9-23.4-48.9-23.4l3.9-5.9
			c7.8,7.8,52.7,23.4,52.7,23.4s-2,35.2,17.6,46.9c19.6,11.7,43-15.6,43-15.6l5.9,9.8c0,0-27.3,15.6-43,29.3s0.6,52.7,0.6,52.7
			l-15.3,0.2C673.5,372.6,670,326.3,673.6,322.7z"/>
		<path class="st0" d="M654.1,328.6c-9.3,0-28.1-14-39.2-23l-4.2-11.8l0.4-0.4c11.7,13.7,50.5,24.3,52.7,17.6
			c1.5-4.5-0.5-27.7-1.5-38l3.4-1.1c0,0,11.7,46.9,7.8,50.8c-3.6,3.6-0.1,49.9,4.9,62.7l-29.3,0.4
			C663.8,372.7,654.1,328.6,654.1,328.6z"/>
		<path class="st1" d="M621.4,267.7c0,0-10-1.1-15.3-4.1h-20.5l15.8-21.2c0-9.4,14.1-9.4,14.1-9.4s0-9.4,11.8-11.8
			s14.1,7.1,14.1,7.1s-2.3-18.8,18.8-18.8s14.1,23.5,14.1,23.5s2.3-7.1,14.1-4.7s4.7,16.5,4.7,16.5c20,0,14.8,16.8,14.2,18.7
			c0.3,2.6-0.6,5.8-5.1,8.5c-8,4.8-21-4-26.5-8.3h-7.4c-4.8,1.8-12.4,4.1-20,4.1s-11.3-2.3-13.1-4.1h-5.6L621.4,267.7z"/>
		<path class="st2" d="M589,256.3c-2.6-2.4-2.6-7.1,1.5-9.4s9,2.4,9,2.4s-5.2-16.5,10.5-18.8s18.3,11.8,18.3,11.8
			c1.6-2.7,5-3.8,7.8-2.4c2.5,0.9,3.9,3.7,3,6.2c-0.1,0.3-0.2,0.6-0.4,0.8c1.6-2.8,4.6-4.6,7.8-4.7c13.1-2.4,13.1,14.1,13.1,14.1
			c7.2-1.3,11.3,2.4,13.4,6c1.5,1.1,2.3,2.9,2,4.7c0.2,0.6,0.3,1,0.3,1h-0.4c-2.1,7.5-36.6,6.5-49.8,0h-6.5
			c-3.9,2.3-10.6,5.5-15.2,4.1c-3.1-0.9-6-2.3-8.7-4.1h-8.4c0,0-10.4,0-10.5-2.4C575.6,256,589,256.3,589,256.3z"/>
		<path class="st1" d="M704.8,301.9c-0.2-5.1,6.2-5,6.2-5c-1.2-1.3-1.2-3.4,0.2-4.6c0.2-0.2,0.3-0.3,0.5-0.4
			c1.9-1.2,4.3,1.2,4.3,1.2s-2.5-8.7,5-9.9c7.5-1.2,8.7,6.2,8.7,6.2c0.7-1.4,2.4-1.9,3.7-1.3c1.4,0.7,1.9,2.4,1.3,3.7
			c0.7-1.4,2.1-2.4,3.7-2.5c6.2-1.2,6.2,7.5,6.2,7.5c5-1,6.8,3.6,7.3,5.4c0.1,0.2,0.2,0.5,0.2,0.8c0,3.1-11,1.6-11,0
			c0,0-7.9,3.1-12.6,1.6l-4.8-1.5h-6.9c-1.7,1-3.7,1.6-5.7,1.6c-4.7,0-6-2.4-6-2.4C704.9,302.3,704.8,302.1,704.8,301.9z"/>
		<path class="st2" d="M579.8,301.6c-0.2-6.4,7.7-6.2,7.7-6.2c-1.5-1.6-1.4-4.1,0.2-5.7c0.2-0.2,0.4-0.4,0.7-0.5
			c2.4-1.5,5.3,1.5,5.3,1.5s-3.1-10.8,6.2-12.4s10.8,7.7,10.8,7.7c0.9-1.7,2.9-2.4,4.6-1.5s2.4,2.9,1.5,4.6c0.9-1.8,2.6-3,4.6-3.1
			c7.7-1.5,7.7,9.3,7.7,9.3c7.7-1.5,9.3,7.7,9.3,7.7s0,5.9-9.8,3.9c-9.8-1.9-9.9-3.9-9.9-3.9s-5.7,5.9-11.5,3.9
			c-3.1-0.9-6-2.3-8.7-3.9c0,0-6.9,5.9-12.7,3.9c-4.2-1.4-5.4-3.8-5.7-5C579.9,302,579.8,301.8,579.8,301.6z"/>
		
			<linearGradient id="SVGID_2_" gradientUnits="userSpaceOnUse" x1="-2764.77" y1="57.39" x2="-2694.1699" y2="57.39" gradientTransform="matrix(-1 0 0 -1 -2085.03 386)">
			<stop  offset="0" style="stop-color:#747D9D"/>
			<stop  offset="0.59" style="stop-color:#9281AA"/>
			<stop  offset="1" style="stop-color:#AA84B4"/>
		</linearGradient>
		<path class="st4" d="M654.1,328.4c-9.3,0-28.1-14-39.2-23l-4.2-11.8l0.4-0.4c11.7,13.7,50.5,24.3,52.7,17.6
			c1.5-4.5-0.5-27.7-1.5-38l3.4-1.1c0,0,11.7,46.9,7.8,50.8c-3.6,3.6-0.1,49.9,4.9,62.7l-29.3,0.4
			C663.8,372.5,654.1,328.4,654.1,328.4z"/>
	</g>
</g>
</svg>
