<?xml version="1.0" encoding="utf-8"?>
<!-- Generator: Adobe Illustrator 21.0.0, SVG Export Plug-In . SVG Version: 6.00 Build 0)  -->
<svg version="1.1" id="Layer_1" xmlns="http://www.w3.org/2000/svg" xmlns:xlink="http://www.w3.org/1999/xlink" x="0px" y="0px"
	 viewBox="0 0 2232.1 511.5" style="enable-background:new 0 0 2232.1 511.5;" xml:space="preserve">
<style type="text/css">
	.st0{fill:#BF6536;}
	.st1{fill:#3E4670;}
	.st2{fill:#FDEFF5;}
	.st3{fill:#FED208;}
	.st4{fill:#4E5C37;}
	.st5{fill:none;stroke:#484257;stroke-width:3;stroke-miterlimit:10;}
</style>
<title>ธงสี</title>
<g id="ธงสี">
	<path class="st0" d="M476.9,356.3c0,0,55.1,12.2,76.5-6.4c0,0,9.3,52.2-3,75.8c0,0-61.8,21.3-64.6,4.6
		C485.4,428,488.1,377.4,476.9,356.3z"/>
	<path class="st0" d="M949.1,311.2c0,0,53.6,8.8,74.9-9.7c0,0,9.3,52.2-3,75.8c0,0-61.8,21.3-64.6,4.6
		C956.1,379.6,960.3,332.3,949.1,311.2z"/>
	<path class="st1" d="M580.1,347.9c0,0,4.6,64.5,0,75.5c0,0,55.1,6.5,59.1-3.5c2.3-5.8,10.4-71,7.5-77.5L580.1,347.9z"/>
	<path class="st1" d="M1048.5,299.2c0,0,4.6,64.5,0,75.5c0,0,55.1,6.5,59.1-3.5c2.3-5.8,11-74,8.1-80.5L1048.5,299.2z"/>
	<path class="st2" d="M681.2,339.3c0,0-1.4,73.2-10.7,86.2c0,0,80.6-6.2,84.6-9.1c4.1-2.9,8.5-85,8.5-85L681.2,339.3z"/>
	<path class="st2" d="M1143.2,287.1c0,0-19.2,69.4-10.3,83.6c0,0,88.6-6.1,84.6-9.1c-12.8-9.5,8.5-85,8.5-85L1143.2,287.1z"/>
	<path class="st3" d="M784.8,329.3c0,0-1.2,58.8-2.9,75v9.9c0,0,41.2-6.4,59.1-5.8c0,0-7.8-64.8-3.6-84.6
		C837.4,323.8,800.5,348.2,784.8,329.3z"/>
	<path class="st2" d="M1610.3,216.7c0,0-1.2,58.8-2.9,75v9.9c0,0,41.2-6.4,59.1-5.8c0,0-7.8-64.8-3.6-84.6
		C1662.9,211.1,1626,235.6,1610.3,216.7z"/>
	<path class="st4" d="M1341.4,259c0,0-1.2,58.8-2.9,75v9.9c0,0,41.2-6.4,59.1-5.8c0,0-7.4-67.1-3.2-86.9
		C1394.4,251.2,1357.1,278,1341.4,259z"/>
	<path class="st4" d="M856,321.7c0,0-6.3,70.3,13.4,88.3c0,0,55.9-12.8,68.2-13.9c0,0-19.7-73.6-13.6-82L856,321.7z"/>
	<path class="st0" d="M30.3,351.4c0,0-12.6,65.9-15.7,69.7c0,0,41,9.3,58.8,9.3c0,0,25.5-20.4,25.5-71.6L30.3,351.4z"/>
	<path class="st0" d="M1477.2,323.8c0,0,14.7-84.3,17.8-88.2c0,0-64.8,13-82.6,13c0,0-3.8,16.5-3.8,67.8L1477.2,323.8z"/>
	<path class="st4" d="M2232.1,192.2c0,0-6.4-71.9-3.3-75.8c0,0-17.5,5.7-35.3,5.7c0,0,0.9,18.8,0.9,70.1H2232.1z"/>
	<path class="st1" d="M2003.8,241.3c0,0,14.7-84.3,17.8-88.2c0,0-64.8,13-82.6,13c0,0-3.8,16.5-3.8,67.8L2003.8,241.3z"/>
	<path class="st1" d="M128.2,360.6c0,0,5.8,31.1,6.2,53.5l0.4,22.4h70.9c0,0,6.7-51.7,1.3-73.2l-62.6-1.9L128.2,360.6z"/>
	<path class="st1" d="M1503.1,233.9c0,0,5.8,34,6.2,58.5l0.4,24.5h70.9c0,0,8.8-71,3.5-94.5l-39.6,5.6L1503.1,233.9z"/>
	<path class="st2" d="M230.7,363.3c0,0-12.4,56.6-1.5,73.2l73.8-1.9c0,0-11.6-65.2-4.3-71.3L230.7,363.3z"/>
	<path class="st3" d="M313.7,362.4l6.6,74.1c0,0,43.3-12.8,58-6.2c0,0,1.2-55.2-4.6-69.7L313.7,362.4z"/>
	<path class="st4" d="M398.6,359.4c0,0,11.6,62.9,7.5,77.4c0,0,24.9,7,48.7-2.9c0,0,8.7-5.2,12.2-10.4l-6.4-67.3L398.6,359.4z"/>
	<path class="st3" d="M1247.2,274.1c0,0,11.8,64.6,7.7,79.1c0,0,24.9,7,48.7-2.9c0,0,8.7-5.2,12.2-10.4l-4.3-75.6L1247.2,274.1z"/>
	<path class="st3" d="M1676,208.2c0,0,11.8,64.6,7.7,79.1c0,0,24.9,7,48.7-2.9c0,0,8.7-5.2,12.2-10.4l-4.3-75.6L1676,208.2z"/>
	<path class="st3" d="M2115.9,134.9c0,0,11.8,64.6,7.7,79.1c0,0,24.9,7,48.7-2.9c0,0,8.7-5.2,12.2-10.4l-4.3-75.6L2115.9,134.9z"/>
	<path class="st4" d="M1762.3,194.3c0,0-1.4,73.2-10.7,86.2c0,0,80.6-6.2,84.6-9.1c4.1-2.9,9.5-90.6,9.5-90.6L1762.3,194.3z"/>
	<path class="st0" d="M1916.6,170.7c0,0,1.3,70.8,3,87v9.9c0,0-41.2-6.4-59.1-5.8c0,0,7.8-64.8,3.6-84.6
		C1864.1,177.2,1900.9,189.7,1916.6,170.7z"/>
	<path class="st2" d="M2099.5,138c0,0,8.8,90.4-10.9,108.4c0,0-55.9-12.8-68.2-13.9c0,0,19.7-73.6,13.6-82L2099.5,138z"/>
	<path class="st5" d="M2226.9,116.4c0,0-1741.5,323.7-2226.9,229.8"/>
</g>
</svg>
