<svg xmlns="http://www.w3.org/2000/svg" xmlns:xlink="http://www.w3.org/1999/xlink" viewBox="0 0 1540 332"><defs><style>.cls-1{fill:url(#linear-gradient);}.cls-2{fill:url(#linear-gradient-2);}.cls-3{fill:url(#linear-gradient-3);}.cls-4{fill:#51695c;}</style><linearGradient id="linear-gradient" x1="-3828.54" y1="388.34" x2="-3828.54" y2="77.33" gradientTransform="matrix(-1, 0, 0, 1, -2820.97, 0)" gradientUnits="userSpaceOnUse"><stop offset="0" stop-color="#d5b671"/><stop offset="0.24" stop-color="#d09966"/><stop offset="0.35" stop-color="#ce8a61"/><stop offset="0.51" stop-color="#d39270"/><stop offset="0.81" stop-color="#dfa896"/><stop offset="1" stop-color="#e7b7b2"/></linearGradient><linearGradient id="linear-gradient-2" x1="547.74" y1="187.84" x2="547.74" y2="-62.29" gradientTransform="matrix(1, 0, 0, 1, 0, 0)" xlink:href="#linear-gradient"/><linearGradient id="linear-gradient-3" x1="261.4" y1="299.88" x2="261.4" y2="-11.13" gradientTransform="matrix(1, 0, 0, 1, 0, 0)" xlink:href="#linear-gradient"/></defs><title>น้ำขยับ</title><g id="น้ำขยับ"><path class="cls-1" d="M857.41,291.38h288.16a17.46,17.46,0,0,0,17.48-16.3c.59-10.28-7.7-21.62-47.18-21.62H893c-.44,0-.88,0-1.32-.05-2.68-.22-14.62-.74-14.62,7.27,0,0-.85,5.19,13.31,3.72a18.46,18.46,0,0,1,1.9-.11h130.06s8.91-.9,8.91,8.13c0,7.62-7,7.52-9.16,7.31-.52-.05-1-.08-1.55-.08h-160a15.79,15.79,0,0,1-2-.11c-1.75-.22-6.49-.2-6.49,6.43C852.06,291.38,857.41,291.38,857.41,291.38Z"/><path class="cls-2" d="M664.91,135.67H614c-5,0-9.07-3.37-9.07-7.49s4.08-7.49,9.07-7.49H651.5c3.91,0,7.1-2.64,7.1-5.86s-3.2-5.86-7.1-5.86H453.45c-3.91,0-7.1,2.64-7.1,5.86s3.2,5.86,7.1,5.86h58.78c5,0,9.07,3.37,9.07,7.49s-4.08,7.49-9.07,7.49H430.56c-4.34,0-7.89,2.93-7.89,6.51s3.55,6.51,7.89,6.51H664.91c4.34,0,7.89-2.93,7.89-6.51S669.25,135.67,664.91,135.67Z"/><path class="cls-3" d="M411.56,250.41H123.41a17.46,17.46,0,0,1-17.48-16.3c-.59-10.28,7.7-21.62,47.18-21.62H376c.44,0,.88,0,1.32-.05,2.68-.22,14.62-.74,14.62,7.27,0,0,.85,5.19-13.31,3.72a18.46,18.46,0,0,0-1.9-.11H316.2s-8.91-.9-8.91,8.13c0,7.62,7,7.52,9.16,7.31.52-.05,1-.08,1.55-.08h90.47a15.79,15.79,0,0,0,2-.11c1.75-.22,6.49-.2,6.49,6.43C416.91,250.41,411.56,250.41,411.56,250.41Z"/><path class="cls-4" d="M1447.25,194.88s-9.82-15.63-28-9.82-23.32,17.24-39.11,7C1380.12,192.09,1415.41,228.59,1447.25,194.88Z"/><path class="cls-4" d="M1128.24,140.73s4.38-5.72,13.61-4.77c5.32.55,11,4.88,19,1.24C1160.85,137.21,1143.16,159.18,1128.24,140.73Z"/><path class="cls-4" d="M206.39,177.31s32.4,36.86,54.35,14.36S206.39,177.31,206.39,177.31Z"/></g></svg>