<svg xmlns="http://www.w3.org/2000/svg" viewBox="0 0 152 153.44"><defs><style>.cls-1{fill:#8bb0c1;stroke:#fff;stroke-miterlimit:10;}.cls-2{fill:#7b9fba;}.cls-3{fill:#b3d059;}</style></defs><title>ปุ่มโฮม</title><g id="ปุ่มโฮม"><circle class="cls-1" cx="67.69" cy="84.29" r="35.14"/><path class="cls-2" d="M41,65.68A32.13,32.13,0,0,1,52.39,55.55a33.05,33.05,0,0,1,16.36-3.84c1.28,0,1.91.37,1.85,1.79a10,10,0,0,0,2.46,7c1.11,1.32,2.27,2.59,3.38,3.91a6.88,6.88,0,0,0,6.41,2.47c3.21-.31,3.33-.17,2.16,2.84-.78,2-2,3.85-2.85,5.83a8.09,8.09,0,0,0-.83,3.09A23.59,23.59,0,0,0,83.7,88.9,4.87,4.87,0,0,0,88.78,92c1.31-.07,2.62-.19,3.94-.22a5.32,5.32,0,0,1,5.09,3.75,2.66,2.66,0,0,1-.15,1.56,30.29,30.29,0,0,1-6.11,9.41,2.21,2.21,0,0,1-1.65.56A57,57,0,0,1,76,103.46a10.05,10.05,0,0,1-2.71-1.75c-1.79-1.54-3.47-3.19-5.22-4.77s-3.6-2.7-6.14-1.85a8.84,8.84,0,0,0-6,5.49,5.38,5.38,0,0,0,.42,4.08,43.32,43.32,0,0,1,2.36,5.9,20.17,20.17,0,0,1,.07,4.79c-6.54-.21-18-9.88-20.42-17.09A33.6,33.6,0,0,0,42,97.69a51.13,51.13,0,0,0,6.2-1.92c1.68-.68,2-1.57,1.64-3.39-.79-4.55,0-5.51,4.54-5.51a6.71,6.71,0,0,0,6-3c1.32-1.95,2.82-3.78,4.18-5.7a4,4,0,0,0-.1-5,81.29,81.29,0,0,0-6.95-6,2.23,2.23,0,0,0-2,.16,12,12,0,0,0-2.47,2.12,2.34,2.34,0,0,1-2.45.76A30.53,30.53,0,0,1,41,65.68Zm25.56,24A3.63,3.63,0,0,0,70,93.23a3.94,3.94,0,0,0,3.48-3.72A3.29,3.29,0,0,0,70,86.09,3.47,3.47,0,0,0,66.57,89.68Z"/><path class="cls-3" d="M39.62,68c3.17,1.41,6.1,2.83,9.12,4,2.4.94,4.72.8,6.49-1.47a13.63,13.63,0,0,1,1.58-1.44c1.91,1.71,3.82,3.3,5.58,5a2.1,2.1,0,0,1,.12,3c-1.38,1.8-2.76,3.59-4,5.46a4.46,4.46,0,0,1-3.93,2H53.3c-4.53,0-6.71,2.51-6,7,.29,1.82.8,2.11-1.75,2.82-2.3.64-4.67,1-7,1.47a1.34,1.34,0,0,1-1.72-1.08,32.38,32.38,0,0,1,2.54-26.38,2,2,0,0,1,.22-.34C39.63,67.94,39.71,67.9,39.62,68Z"/><path class="cls-3" d="M99,92.82c-2.24-3.28-5.32-3.65-8.7-3.3-3.56.36-4.12,0-5.22-3.39a36.42,36.42,0,0,1-1.42-6.75,5.36,5.36,0,0,1,.83-3,24.93,24.93,0,0,0,3.43-8.66c.32-2.13-.43-3.1-2.57-3.23a28,28,0,0,0-3.67.05,3.39,3.39,0,0,1-3-1.15c-1.44-1.69-3-3.31-4.32-5.07A7.88,7.88,0,0,1,73,52.37C91.85,54.72,104.35,74.91,99,92.82Z"/><path class="cls-3" d="M88.56,109.4c-8.31,6.51-17.4,8.75-27.7,6.79.13-.84.28-1.54.35-2.24a12.44,12.44,0,0,0-1.4-7.49c-.46-.83-.8-1.73-1.24-2.57a3.56,3.56,0,0,1,.9-4.65,12.13,12.13,0,0,1,3-1.82,2.69,2.69,0,0,1,3.15.51A37.47,37.47,0,0,1,69,101c3.15,3.63,7.24,5.47,11.78,6.53C83.32,108.12,85.81,108.73,88.56,109.4Z"/><path class="cls-3" d="M70.41,88.32c.2.41.66.92.55,1.22-.18.49-.73.84-1.13,1.26-.31-.39-.91-.81-.87-1.16s.59-.9.92-1.35Z"/></g></svg>