<?xml version="1.0" encoding="utf-8"?>
<!-- Generator: Adobe Illustrator 21.0.0, SVG Export Plug-In . SVG Version: 6.00 Build 0)  -->
<svg version="1.1" id="Layer_1" xmlns="http://www.w3.org/2000/svg" xmlns:xlink="http://www.w3.org/1999/xlink" x="0px" y="0px"
	 viewBox="0 0 439.8 321" style="enable-background:new 0 0 439.8 321;" xml:space="preserve">
<style type="text/css">
	.st0{fill:#C3973F;}
	.st1{fill:#A09181;}
	.st2{fill:#6F5447;}
	.st3{fill:#A6613F;}
	.st4{fill:#F6E2D6;}
	.st5{fill:#DDD3C7;}
	.st6{fill:#EAE1D8;}
	.st7{fill:#926F59;}
	.st8{fill:#A98373;}
	.st9{fill:#FFFFFF;}
	.st10{fill:#B34830;}
	.st11{fill:#49497D;}
	.st12{fill:#A88037;}
</style>
<title>ป้ายสถานีเกษตร</title>
<g id="ป้ายสถานีเกษตร">
	<path class="st0" d="M71.9,285.8c0,0-1.8-18.7,19.7-26.9c21.5-8.2,40.6,8.1,40.6,8.1s-7.8-11.3,14.9-19.4s47.1-3.9,45.9,11.9
		c0,0-0.8-13.4,28.8-8.7c29.6,4.8,22.9,19.2,22.9,19.2s2.9-12.4,23.6-3c20.7,9.4,8.8,18.9,8.8,18.9L71.9,285.8z"/>
	
		<rect x="102.5" y="154.5" transform="matrix(1 -1.919857e-03 1.919857e-03 1 -0.3242 0.2002)" class="st1" width="3.3" height="28.9"/>
	
		<rect x="276.2" y="154.2" transform="matrix(1 -1.919857e-03 1.919857e-03 1 -0.3233 0.5336)" class="st1" width="3.3" height="28.9"/>
	
		<rect x="293.2" y="63.6" transform="matrix(1 -1.919857e-03 1.919857e-03 1 -0.1676 0.5649)" class="st2" width="1.9" height="48"/>
	<path class="st3" d="M102.4,183.1h177.1c8.4,0,15.2,6.8,15.2,15.2v19.1c0,8.4-6.8,15.2-15.2,15.2H102.4c-8.4,0-15.2-6.8-15.2-15.2
		v-19.1C87.2,189.9,94,183.1,102.4,183.1z"/>
	<path class="st4" d="M136.8,200.7c0,0.2-0.1,0.3-0.2,0.5c-0.1,0.1-0.3,0.3-0.4,0.3c0.1,0.2,0.2,0.3,0.2,0.5
		c0.1,0.2,0.1,0.4,0.1,0.6v4.1c0,0.1,0,0.2-0.1,0.3c-0.1,0.2-0.2,0.3-0.4,0.4c-0.2,0.1-0.4,0.1-0.7,0c-0.2-0.1-0.4-0.2-0.4-0.4
		c0-0.1-0.1-0.2-0.1-0.3v-2.4c-0.2,0.1-0.4,0.2-0.6,0.3l-0.5,0.1l-0.6,0.1c-0.2,0-0.4,0.1-0.5,0.1c-0.1,0-0.3,0.1-0.4,0.2
		c-0.1,0.1-0.1,0.2-0.1,0.3c0,0.1,0,0.3,0.1,0.4c0.1,0.1,0.1,0.2,0.2,0.2c0.1,0.1,0.2,0.1,0.3,0.1c0.1,0,0.2,0,0.4,0h0.3
		c0.1,0,0.2,0,0.3,0c0.1,0,0.2,0,0.2,0.1c0.1,0,0.1,0.1,0.2,0.2c0,0.1,0.1,0.2,0.1,0.2c0,0.2,0,0.3-0.1,0.5c0,0.1-0.1,0.1-0.2,0.2
		c-0.1,0-0.1,0.1-0.2,0.1l-0.4,0.1h-0.4c-0.3,0-0.6,0-0.9-0.1c-0.3-0.1-0.5-0.2-0.8-0.3c-0.2-0.2-0.4-0.4-0.5-0.6
		c-0.1-0.3-0.2-0.6-0.2-0.9c0-0.2,0-0.4,0.1-0.6c0.1-0.2,0.2-0.3,0.3-0.5c0.1-0.1,0.3-0.3,0.5-0.4c0.2-0.1,0.4-0.2,0.6-0.3
		c0.2-0.1,0.5-0.2,0.8-0.2l0.9-0.2l0.5-0.1c0.1,0,0.3-0.1,0.4-0.1c0.1,0,0.2-0.1,0.3-0.2c0.1-0.1,0.1-0.2,0.1-0.3
		c0-0.1,0-0.3-0.1-0.4c-0.1-0.1-0.2-0.2-0.3-0.2c-0.1-0.1-0.2-0.1-0.4-0.1h-0.4h-0.4c-0.1,0-0.2,0.1-0.3,0.1
		c-0.1,0.1-0.2,0.1-0.3,0.2c-0.1,0.1-0.2,0.2-0.2,0.3c0,0.1-0.1,0.2-0.2,0.3c-0.1,0.1-0.2,0.1-0.3,0.2c-0.1,0-0.2,0.1-0.3,0.1
		c-0.1,0-0.2,0-0.4,0c-0.1,0-0.2-0.1-0.3-0.2c-0.1-0.1-0.1-0.2-0.2-0.3c0-0.1-0.1-0.2-0.1-0.3c0-0.1,0-0.2,0.1-0.3
		c0.1-0.3,0.3-0.5,0.5-0.7c0.2-0.2,0.4-0.4,0.7-0.5c0.3-0.1,0.5-0.2,0.8-0.3c0.5-0.1,1.1-0.1,1.6,0c0.2,0,0.4,0.1,0.6,0.1l0.2-0.1
		c0-0.1,0.1-0.1,0.1-0.2c0.1-0.1,0.2-0.3,0.3-0.3c0.1-0.1,0.3-0.1,0.4-0.1c0.1,0,0.2,0,0.3,0.1c0.1,0,0.2,0.1,0.3,0.2
		c0.1,0.1,0.1,0.2,0.2,0.3C136.8,200.6,136.8,200.6,136.8,200.7z"/>
	<path class="st4" d="M137.8,203.9c0-0.1,0-0.2,0-0.3c0-0.1-0.1-0.2-0.2-0.3l-0.2-0.2c0-0.1-0.1-0.1-0.1-0.2c0-0.1,0-0.1,0-0.2
		c0-0.1,0-0.2,0.1-0.2c0.1-0.2,0.2-0.5,0.4-0.7c0.2-0.2,0.4-0.4,0.6-0.6c0.3-0.2,0.6-0.3,0.9-0.4c0.4-0.1,0.8-0.2,1.2-0.2
		c0.4,0,0.7,0,1.1,0.1c0.3,0.1,0.6,0.2,0.8,0.3c0.2,0.1,0.4,0.3,0.6,0.5c0.2,0.2,0.3,0.4,0.4,0.6c0.1,0.2,0.2,0.4,0.2,0.7
		c0,0.2,0.1,0.5,0.1,0.7v3.3c0,0.1,0,0.2-0.1,0.3c0,0.1-0.1,0.2-0.2,0.3c-0.1,0.1-0.2,0.1-0.3,0.2c-0.2,0.1-0.5,0.1-0.7,0
		c-0.1,0-0.2-0.1-0.3-0.2c-0.1-0.1-0.1-0.2-0.2-0.3c0-0.1-0.1-0.2-0.1-0.3v-3.4c0-0.2,0-0.3-0.1-0.5c-0.1-0.2-0.1-0.3-0.3-0.4
		c-0.1-0.1-0.3-0.2-0.5-0.3c-0.2-0.1-0.5-0.1-0.7-0.1c-0.2,0-0.4,0-0.6,0c-0.1,0-0.3,0.1-0.4,0.2c-0.1,0.1-0.2,0.1-0.3,0.2
		c-0.1,0.1-0.1,0.1-0.2,0.2c0.1,0.1,0.2,0.3,0.3,0.5c0.1,0.2,0.1,0.4,0.1,0.7v2.4h0.2c0.1,0,0.2,0,0.3,0c0.1,0,0.1,0.1,0.2,0.1
		c0.1,0.1,0.1,0.1,0.1,0.2c0.1,0.2,0.1,0.3,0,0.5c0,0.1-0.1,0.1-0.1,0.2c-0.1,0.1-0.1,0.1-0.2,0.1c-0.1,0-0.2,0-0.3,0h-1.2
		c-0.1,0-0.2,0-0.3,0c-0.1,0-0.1-0.1-0.2-0.1c-0.1-0.1-0.1-0.1-0.1-0.2c0-0.1,0-0.2,0-0.3L137.8,203.9z"/>
	<path class="st4" d="M148,203.1c0-0.3-0.1-0.6-0.2-0.8c-0.2-0.2-0.4-0.3-0.6-0.3c-0.2,0-0.4,0-0.5,0.2c-0.2,0.1-0.3,0.3-0.3,0.5
		c0,0.1-0.1,0.2-0.2,0.3c-0.1,0.1-0.2,0.1-0.3,0.2c-0.1,0-0.2,0.1-0.3,0.1c-0.4,0-0.7-0.2-0.8-0.5c0-0.1-0.1-0.2-0.1-0.3
		c0-0.1,0-0.2,0-0.3c0.1-0.2,0.2-0.5,0.4-0.7c0.2-0.2,0.4-0.3,0.6-0.5c0.2-0.1,0.4-0.2,0.7-0.3c0.2-0.1,0.5-0.1,0.8-0.1
		c0.3,0,0.7,0,1,0.1c0.3,0.1,0.6,0.2,0.8,0.4c0.2,0.2,0.4,0.4,0.5,0.7c0.1,0.3,0.2,0.7,0.2,1.1v3.9c0,0.1,0,0.2-0.1,0.3
		c0,0.1-0.1,0.2-0.2,0.3c-0.1,0.1-0.2,0.1-0.3,0.2c-0.2,0.1-0.4,0.1-0.7,0c-0.1,0-0.2-0.1-0.3-0.2c-0.1-0.1-0.1-0.2-0.2-0.3
		c0-0.1-0.1-0.2-0.1-0.3L148,203.1z"/>
	<path class="st4" d="M151,201.4c0-0.1,0-0.2,0-0.3c0-0.1,0.1-0.2,0.2-0.3c0.1-0.1,0.2-0.1,0.3-0.2c0.2-0.1,0.4-0.1,0.7,0
		c0.1,0,0.2,0.1,0.3,0.2c0.1,0.1,0.1,0.2,0.2,0.3c0,0.1,0.1,0.2,0.1,0.3v3.7c0,0.1,0,0.3,0.1,0.4c0,0.1,0.1,0.2,0.2,0.3
		c0.1,0.1,0.2,0.2,0.3,0.2c0.1,0,0.3,0.1,0.4,0.1c0.2,0,0.5,0,0.7-0.1c0.2-0.1,0.4-0.2,0.5-0.3c0.1-0.2,0.2-0.3,0.3-0.5
		c0.1-0.2,0.1-0.4,0.1-0.7v-3c0-0.1,0-0.2,0.1-0.3c0-0.1,0.1-0.2,0.2-0.3c0.1-0.1,0.2-0.1,0.3-0.2c0.2-0.1,0.4-0.1,0.7,0
		c0.1,0,0.2,0.1,0.3,0.2c0.1,0.1,0.1,0.2,0.2,0.3c0,0.1,0.1,0.2,0.1,0.3v5.4c0,0.1,0,0.2-0.1,0.3c0,0.1-0.1,0.2-0.2,0.3
		c-0.1,0.1-0.2,0.1-0.3,0.2c-0.2,0.1-0.4,0.1-0.6,0c-0.2-0.1-0.3-0.2-0.4-0.4c0-0.1-0.1-0.2-0.1-0.3v-0.1c-0.3,0.3-0.6,0.5-0.9,0.6
		c-0.3,0.1-0.6,0.2-1,0.2c-0.4,0-0.8,0-1.2-0.2c-0.3-0.1-0.6-0.3-0.8-0.5c-0.2-0.2-0.4-0.5-0.4-0.8c-0.1-0.3-0.1-0.7-0.1-1.1
		L151,201.4z"/>
	<path class="st4" d="M151.5,199.7c-0.1,0-0.2,0-0.3,0c-0.1,0-0.1-0.1-0.2-0.1c-0.1-0.1-0.1-0.1-0.1-0.2c-0.1-0.2-0.1-0.3,0-0.5
		c0-0.1,0.1-0.1,0.1-0.2c0.1-0.1,0.1-0.1,0.2-0.1c0.1,0,0.2,0,0.3,0h3.9v-0.4c0-0.1,0-0.2,0.1-0.3c0-0.1,0.1-0.2,0.2-0.2
		c0.1-0.1,0.2-0.1,0.3-0.2c0.2-0.1,0.4-0.1,0.6,0c0.1,0,0.2,0.1,0.3,0.2c0.1,0.1,0.1,0.1,0.2,0.2c0,0.1,0.1,0.2,0.1,0.3v0.9
		c0,0.1,0,0.2-0.1,0.3c0,0.1-0.1,0.2-0.2,0.2c-0.1,0.1-0.2,0.1-0.3,0.2c-0.1,0-0.2,0-0.3,0L151.5,199.7z"/>
	<path class="st4" d="M160,206.8c0,0.1,0,0.2-0.1,0.3c0,0.1-0.1,0.2-0.2,0.3c-0.1,0.1-0.2,0.1-0.3,0.2c-0.2,0.1-0.5,0.1-0.7,0
		c-0.1,0-0.2-0.1-0.3-0.2c-0.1-0.1-0.1-0.2-0.2-0.3c0-0.1-0.1-0.2-0.1-0.3v-5.3c0-0.2,0.1-0.4,0.3-0.6c0.1-0.1,0.2-0.1,0.3-0.2
		c0.2-0.1,0.5-0.1,0.7,0c0.1,0,0.2,0.1,0.3,0.2c0.2,0.2,0.3,0.4,0.3,0.6L160,206.8z"/>
	<path class="st4" d="M165.7,203.3c0-0.2,0-0.3-0.1-0.5c-0.1-0.2-0.1-0.3-0.3-0.4c-0.1-0.1-0.3-0.2-0.5-0.3
		c-0.2-0.1-0.5-0.1-0.7-0.1c-0.2,0-0.4,0-0.6,0c-0.1,0-0.3,0.1-0.4,0.2c-0.1,0.1-0.2,0.1-0.3,0.2c-0.1,0.1-0.1,0.1-0.2,0.2
		c0.1,0.1,0.3,0.3,0.3,0.5c0.1,0.2,0.1,0.4,0.1,0.7v2.9c0,0.1,0,0.2-0.1,0.3c0,0.1-0.1,0.2-0.2,0.3c-0.1,0.1-0.2,0.1-0.3,0.2
		c-0.2,0.1-0.4,0.1-0.7,0c-0.1,0-0.2-0.1-0.3-0.2c-0.1-0.1-0.1-0.2-0.2-0.3c0-0.1-0.1-0.2-0.1-0.3v-2.9c0-0.1,0-0.2,0-0.3
		c0-0.1-0.1-0.2-0.2-0.3l-0.2-0.2c0-0.1-0.1-0.1-0.1-0.2c0-0.1,0-0.1,0-0.2c0-0.1,0-0.2,0.1-0.2c0.1-0.2,0.2-0.5,0.4-0.7
		c0.2-0.2,0.4-0.4,0.6-0.6c0.3-0.2,0.6-0.3,0.9-0.4c0.4-0.1,0.8-0.2,1.2-0.2c0.4,0,0.7,0,1.1,0.1c0.3,0.1,0.6,0.2,0.8,0.3
		c0.2,0.1,0.4,0.3,0.6,0.5c0.2,0.2,0.3,0.4,0.4,0.6c0.1,0.2,0.2,0.4,0.2,0.7c0,0.2,0.1,0.5,0.1,0.7v3.3c0,0.2-0.1,0.4-0.3,0.6
		c-0.1,0.1-0.2,0.1-0.3,0.2c-0.2,0.1-0.5,0.1-0.7,0c-0.1,0-0.2-0.1-0.3-0.2c-0.2-0.2-0.3-0.4-0.3-0.6L165.7,203.3z"/>
	<path class="st4" d="M171.9,204.4c-0.1,0-0.2,0-0.3,0c-0.1,0-0.2-0.1-0.2-0.1c-0.1-0.1-0.1-0.1-0.2-0.2c0-0.1,0-0.2,0-0.3v-0.5
		c0-0.1,0-0.2,0-0.3c0-0.1,0.1-0.2,0.2-0.2c0.1-0.1,0.2-0.1,0.2-0.1c0.1,0,0.2,0,0.3,0c0.1,0,0.2,0,0.3,0c0.1,0,0.2,0.1,0.2,0.1
		c0.1,0.1,0.1,0.1,0.2,0.2c0,0.1,0.1,0.2,0.1,0.3h0.6v-1.7c0-0.1,0-0.2,0.1-0.3c0-0.1,0.1-0.2,0.2-0.3c0.1-0.1,0.2-0.1,0.3-0.2
		c0.2-0.1,0.4-0.1,0.7,0c0.1,0,0.2,0.1,0.3,0.2c0.1,0.1,0.1,0.2,0.2,0.3c0,0.1,0.1,0.2,0.1,0.3v1.7h0.1c0.1,0,0.2,0,0.2,0
		c0.1,0.1,0.3,0.2,0.3,0.3c0.1,0.2,0.1,0.3,0,0.5c0,0.1-0.1,0.1-0.1,0.2c-0.1,0.1-0.1,0.1-0.2,0.1c-0.1,0-0.2,0-0.2,0h-0.1v0.3
		c0,0.2,0,0.5-0.1,0.7c0,0.2-0.1,0.5-0.2,0.7c-0.1,0.2-0.2,0.4-0.4,0.6c-0.2,0.2-0.4,0.4-0.6,0.5c-0.3,0.1-0.5,0.2-0.8,0.3
		c-0.4,0.1-0.7,0.1-1.1,0.1c-0.4,0-0.7,0-1.1-0.1c-0.3-0.1-0.6-0.2-0.8-0.3c-0.2-0.1-0.4-0.3-0.6-0.5c-0.2-0.2-0.3-0.4-0.4-0.6
		c-0.1-0.2-0.2-0.5-0.2-0.7c0-0.2,0-0.5,0-0.7v-3.3c0-0.1,0-0.2,0.1-0.3c0-0.1,0.1-0.2,0.2-0.3c0.1-0.1,0.2-0.1,0.3-0.2
		c0.2-0.1,0.4-0.1,0.7,0c0.1,0,0.2,0.1,0.3,0.2c0.1,0.1,0.1,0.2,0.2,0.3c0,0.1,0.1,0.2,0.1,0.3v3.4c0,0.2,0,0.3,0.1,0.5
		c0,0.2,0.1,0.3,0.2,0.4c0.1,0.1,0.3,0.2,0.5,0.3c0.2,0.1,0.5,0.1,0.7,0.1c0.2,0,0.5,0,0.7-0.1c0.2-0.1,0.3-0.2,0.4-0.3
		c0.1-0.1,0.2-0.3,0.2-0.4c0-0.2,0.1-0.3,0.1-0.5v-0.4L171.9,204.4z"/>
	<path class="st4" d="M182.8,206.8c0,0.1,0,0.2-0.1,0.3c0,0.1-0.1,0.2-0.2,0.3c-0.1,0.1-0.2,0.1-0.3,0.2c-0.2,0.1-0.4,0.1-0.7,0
		c-0.1,0-0.2-0.1-0.3-0.2c-0.1-0.1-0.1-0.2-0.2-0.3c0-0.1-0.1-0.2-0.1-0.3v-3.6c0-0.1,0-0.2,0-0.3c0-0.2-0.1-0.4-0.2-0.5
		c-0.1-0.1-0.1-0.2-0.2-0.2l-0.7,0.5c-0.1,0.1-0.2,0.1-0.3,0.1c-0.1,0-0.3,0-0.4-0.1l-0.7-0.5c-0.1,0.1-0.2,0.1-0.2,0.2
		c-0.1,0.2-0.2,0.3-0.3,0.5c0,0.1,0,0.2,0,0.3v2.2l1-0.9h-0.1c-0.1,0-0.1,0-0.2,0c-0.1,0-0.1-0.1-0.2-0.1c-0.1-0.1-0.2-0.2-0.2-0.4
		c0-0.2,0.1-0.4,0.3-0.5c0.1,0,0.1,0,0.2,0h1.4c0.1,0,0.2,0,0.2,0c0.1,0,0.1,0.1,0.2,0.1c0.1,0.1,0.1,0.1,0.1,0.2c0,0.1,0,0.2,0,0.2
		c0,0.1,0,0.2,0,0.2c0,0.1-0.1,0.2-0.1,0.2l-2.8,2.9c-0.1,0.1-0.2,0.2-0.3,0.2c-0.1,0.1-0.3,0.1-0.4,0.1c-0.1,0-0.3,0-0.4-0.1
		c-0.1,0-0.2-0.1-0.3-0.2c-0.1-0.1-0.2-0.2-0.2-0.3c0-0.1-0.1-0.2-0.1-0.4v-3.4c0-0.3,0-0.5,0.1-0.8c0.1-0.3,0.1-0.5,0.3-0.7
		c0.1-0.2,0.3-0.5,0.5-0.6c0.2-0.2,0.5-0.4,0.8-0.5l0.2-0.1h0.2h0.3c0.1,0,0.2,0.1,0.3,0.1l0.7,0.5l0.8-0.5c0.1,0,0.2-0.1,0.2-0.1
		h0.2h0.2h0.2c0.3,0.1,0.5,0.3,0.8,0.5c0.2,0.2,0.4,0.4,0.5,0.6c0.1,0.2,0.2,0.5,0.3,0.7c0.1,0.3,0.1,0.5,0.1,0.8L182.8,206.8z"/>
	<path class="st4" d="M188.9,202.1c0,0.1,0,0.2,0,0.3c0,0.2-0.1,0.4-0.3,0.5c-0.2,0.1-0.4,0.2-0.6,0.2c-0.1,0-0.2,0-0.3-0.1
		c-0.1,0-0.2-0.1-0.3-0.2c-0.1-0.1-0.1-0.2-0.2-0.3c0-0.1-0.1-0.2-0.1-0.3c-0.1-0.1-0.3-0.3-0.5-0.3h-0.3h-0.3
		c-0.1,0-0.2,0.1-0.3,0.1c-0.1,0-0.1,0.1-0.2,0.2c0,0.1-0.1,0.2-0.1,0.2c0,0.1,0,0.1,0.1,0.2c0.1,0.1,0.1,0.1,0.2,0.2
		c0.1,0.1,0.2,0.1,0.4,0.2l0.6,0.2c0.4,0.1,0.8,0.3,1.2,0.5c0.3,0.1,0.5,0.3,0.7,0.5c0.2,0.2,0.3,0.3,0.4,0.6
		c0.1,0.2,0.1,0.4,0.1,0.6c0,0.3-0.1,0.7-0.2,1c-0.1,0.3-0.3,0.5-0.6,0.7c-0.3,0.2-0.6,0.3-0.9,0.4c-0.4,0.1-0.7,0.1-1.1,0.1
		c-0.3,0-0.6,0-0.9-0.1c-0.3-0.1-0.5-0.2-0.7-0.3c-0.2-0.1-0.4-0.3-0.6-0.5c-0.2-0.2-0.3-0.5-0.4-0.7c0-0.1,0-0.2,0-0.3
		c0-0.2,0.1-0.4,0.3-0.6c0.1-0.1,0.2-0.1,0.3-0.2c0.1,0,0.2,0,0.3,0c0.1,0,0.2,0,0.3,0.1c0.1,0,0.2,0.1,0.2,0.2
		c0.1,0.1,0.1,0.2,0.2,0.3c0.1,0.2,0.2,0.4,0.4,0.6c0.2,0.1,0.5,0.2,0.7,0.2h0.3c0.1,0,0.2-0.1,0.3-0.1c0.1,0,0.2-0.1,0.2-0.2
		c0.1-0.1,0.1-0.2,0.1-0.3c0-0.1,0-0.2-0.1-0.3c-0.1-0.1-0.1-0.2-0.2-0.2c-0.1-0.1-0.3-0.1-0.4-0.2l-0.6-0.2l-0.9-0.4
		c-0.3-0.1-0.5-0.3-0.7-0.4c-0.2-0.1-0.4-0.3-0.5-0.5c-0.1-0.2-0.2-0.5-0.2-0.8c0-0.2,0-0.4,0.1-0.6c0.1-0.2,0.2-0.4,0.3-0.5
		c0.1-0.1,0.3-0.3,0.4-0.4c0.2-0.1,0.3-0.2,0.5-0.3c0.2-0.1,0.4-0.1,0.6-0.1c0.2,0,0.4,0,0.6,0c0.3,0,0.6,0,0.9,0.1
		c0.3,0,0.5,0.1,0.7,0.3c0.2,0.1,0.4,0.3,0.6,0.5C188.7,201.7,188.8,201.9,188.9,202.1z"/>
	<path class="st4" d="M196.1,206.8c0,0.2-0.1,0.4-0.3,0.6c-0.1,0.1-0.2,0.1-0.3,0.2c-0.2,0.1-0.4,0.1-0.7,0c-0.1,0-0.2-0.1-0.3-0.2
		c-0.1-0.1-0.1-0.2-0.2-0.3c0-0.1-0.1-0.2-0.1-0.3v-2.5c0-0.1,0-0.2,0-0.3c0-0.1,0-0.2-0.1-0.3c0-0.1-0.1-0.2-0.1-0.2
		c-0.1-0.1-0.1-0.1-0.2-0.2l-2.1,1.4v2.1c0,0.1,0,0.2-0.1,0.3c0,0.1-0.1,0.2-0.2,0.3c-0.1,0.1-0.2,0.1-0.3,0.2
		c-0.2,0.1-0.4,0.1-0.7,0c-0.2-0.1-0.4-0.2-0.5-0.4c0-0.1-0.1-0.2-0.1-0.3v-5.4c0-0.1,0-0.2,0.1-0.3c0-0.1,0.1-0.2,0.2-0.3
		c0.1-0.1,0.2-0.1,0.3-0.2c0.2-0.1,0.4-0.1,0.7,0c0.1,0,0.2,0.1,0.3,0.2c0.1,0.1,0.1,0.2,0.2,0.3c0,0.1,0.1,0.2,0.1,0.3v1.3l3.2-2
		c0.1-0.1,0.2-0.1,0.3-0.1c0.1,0,0.2,0,0.3,0c0.1,0,0.2,0.1,0.3,0.1c0.1,0.1,0.2,0.1,0.2,0.2c0.2,0.3,0.2,0.6,0,0.9
		c-0.1,0.1-0.1,0.2-0.2,0.2l-0.5,0.3c0.1,0.1,0.3,0.2,0.3,0.4c0.1,0.1,0.2,0.3,0.2,0.5c0.1,0.2,0.1,0.4,0.1,0.5c0,0.2,0,0.4,0,0.6
		L196.1,206.8z"/>
	<path class="st4" d="M201.6,204.4c-0.2,0.1-0.4,0.2-0.6,0.3l-0.5,0.1l-0.6,0.1c-0.2,0-0.4,0.1-0.5,0.1c-0.1,0-0.3,0.1-0.4,0.2
		c-0.1,0.1-0.1,0.2-0.1,0.3c0,0.1,0,0.3,0.1,0.4c0.1,0.1,0.1,0.2,0.2,0.2c0.1,0.1,0.2,0.1,0.3,0.1c0.1,0,0.2,0,0.4,0h0.3
		c0.1,0,0.2,0,0.3,0c0.1,0,0.2,0,0.2,0.1c0.1,0,0.1,0.1,0.2,0.2c0,0.1,0.1,0.2,0.1,0.2c0,0.2,0,0.3-0.1,0.5c0,0.1-0.1,0.1-0.2,0.2
		c-0.1,0-0.1,0.1-0.2,0.1l-0.4,0.1h-0.4c-0.3,0-0.6,0-0.9-0.1c-0.3-0.1-0.5-0.2-0.8-0.3c-0.2-0.2-0.4-0.4-0.5-0.6
		c-0.1-0.3-0.2-0.6-0.2-0.9c0-0.2,0-0.4,0.1-0.6c0.1-0.2,0.2-0.3,0.3-0.5c0.1-0.1,0.3-0.3,0.5-0.4c0.2-0.1,0.4-0.2,0.6-0.3
		c0.2-0.1,0.5-0.2,0.8-0.2l0.9-0.2l0.5-0.1c0.1,0,0.3-0.1,0.4-0.1c0.1,0,0.2-0.1,0.3-0.2c0.1-0.1,0.1-0.2,0.1-0.3
		c0-0.1,0-0.3-0.1-0.4c-0.1-0.1-0.2-0.2-0.3-0.2c-0.1-0.1-0.2-0.1-0.4-0.1h-0.4H200c-0.1,0-0.2,0.1-0.3,0.1
		c-0.1,0.1-0.2,0.1-0.3,0.2c-0.1,0.1-0.2,0.2-0.2,0.3c0,0.1-0.1,0.2-0.2,0.3c-0.1,0.1-0.2,0.1-0.3,0.2c-0.1,0-0.2,0.1-0.3,0.1
		c-0.1,0-0.2,0-0.4,0c-0.1,0-0.2-0.1-0.3-0.2c-0.1-0.1-0.1-0.2-0.2-0.3c0-0.1-0.1-0.2-0.1-0.3c0-0.1,0-0.2,0.1-0.3
		c0.1-0.3,0.3-0.5,0.5-0.7c0.2-0.2,0.4-0.4,0.7-0.5c0.3-0.1,0.5-0.2,0.8-0.3c0.5-0.1,1.1-0.1,1.6,0c0.2,0,0.4,0.1,0.6,0.1
		c0.2,0.1,0.4,0.1,0.6,0.3c0.2,0.1,0.3,0.2,0.5,0.4c0.1,0.2,0.2,0.4,0.3,0.6c0.1,0.2,0.1,0.5,0.1,0.7v4.1c0,0.1,0,0.2-0.1,0.3
		c-0.1,0.2-0.2,0.3-0.4,0.4c-0.2,0.1-0.4,0.1-0.7,0c-0.1,0-0.2-0.1-0.3-0.2c-0.1-0.1-0.1-0.2-0.2-0.3c0-0.1-0.1-0.2-0.1-0.3
		L201.6,204.4z"/>
	<path class="st4" d="M207,207.7c-0.3,0-0.6,0-0.9-0.1c-0.3-0.1-0.5-0.2-0.7-0.3c-0.2-0.1-0.4-0.3-0.6-0.5c-0.2-0.2-0.3-0.4-0.4-0.7
		c0-0.1,0-0.2,0-0.3c0-0.1,0-0.2,0.1-0.3c0-0.1,0.1-0.2,0.2-0.3c0.1-0.1,0.2-0.1,0.3-0.2c0.2-0.1,0.4-0.1,0.6,0
		c0.1,0,0.2,0.1,0.3,0.2c0.1,0.1,0.1,0.2,0.2,0.3c0,0.1,0.1,0.2,0.2,0.3c0.1,0.1,0.1,0.2,0.2,0.2c0.1,0.1,0.2,0.1,0.3,0.1
		c0.1,0,0.2,0,0.3,0c0.4,0,0.7-0.2,0.9-0.5c0.1-0.2,0.2-0.4,0.2-0.7c0.1-0.6,0.1-1.3,0-1.9c0-0.2-0.1-0.5-0.2-0.7
		c-0.1-0.2-0.2-0.3-0.4-0.4c-0.2-0.1-0.3-0.1-0.5-0.1c-0.1,0-0.2,0-0.3,0c-0.1,0-0.2,0.1-0.3,0.1c-0.1,0.1-0.2,0.1-0.2,0.2
		c-0.1,0.1-0.1,0.2-0.2,0.3c0,0.1-0.1,0.2-0.2,0.3c-0.1,0.1-0.2,0.1-0.3,0.2c-0.1,0-0.2,0.1-0.3,0.1c-0.1,0-0.2,0-0.3,0
		c-0.1,0-0.2-0.1-0.3-0.2c-0.1-0.1-0.1-0.2-0.2-0.3c0-0.1-0.1-0.2-0.1-0.3c0-0.1,0-0.2,0-0.3c0.1-0.2,0.2-0.5,0.4-0.7
		c0.2-0.2,0.4-0.4,0.6-0.5c0.2-0.1,0.5-0.3,0.7-0.3c0.3-0.1,0.6-0.1,0.8-0.1c0.5,0,0.9,0.1,1.3,0.3c0.4,0.2,0.7,0.4,0.9,0.7
		c0.3,0.3,0.4,0.7,0.5,1.1c0.2,1,0.2,2,0,2.9c-0.1,0.4-0.3,0.8-0.5,1.1c-0.2,0.3-0.6,0.6-0.9,0.7C207.9,207.6,207.5,207.7,207,207.7
		z"/>
	<path class="st4" d="M215.3,205.9c0,0.3,0,0.6-0.1,0.8c-0.1,0.2-0.2,0.4-0.4,0.6c-0.2,0.1-0.4,0.3-0.6,0.3
		c-0.2,0.1-0.5,0.1-0.7,0.1c-0.2,0-0.5,0-0.7-0.1c-0.2-0.1-0.4-0.1-0.5-0.3c-0.1-0.1-0.3-0.3-0.4-0.4c-0.1-0.2-0.2-0.4-0.3-0.6
		l-0.8-2.1c0-0.1,0-0.2,0-0.3c0-0.1,0-0.2,0.1-0.3c0-0.1,0.1-0.2,0.2-0.2c0.1-0.1,0.2-0.1,0.3-0.2c0.1,0,0.2,0,0.3,0
		c0.1,0,0.2,0,0.3,0.1c0.1,0,0.2,0.1,0.3,0.2c0.1,0.1,0.1,0.2,0.2,0.3l0.8,2.4c0,0.1,0,0.1,0.1,0.1c0,0,0.1,0,0.1,0c0,0,0.1,0,0.1,0
		c0,0,0-0.1,0-0.1v-4h-0.3c-0.2,0-0.3-0.1-0.5-0.2c-0.1-0.1-0.1-0.1-0.1-0.2c-0.1-0.2-0.1-0.4,0-0.5c0-0.1,0.1-0.2,0.1-0.2
		c0.1-0.1,0.3-0.2,0.5-0.2h1.4c0.1,0,0.2,0,0.3,0c0.1,0,0.1,0.1,0.2,0.1c0.1,0.1,0.1,0.1,0.1,0.2c0,0.1,0,0.2,0,0.3L215.3,205.9z"/>
	<path class="st4" d="M218.9,203.6c0.1,0,0.2,0,0.3,0c0.1,0,0.1,0.1,0.2,0.1c0.1,0.1,0.1,0.1,0.1,0.2c0.1,0.2,0.1,0.4,0,0.5
		c0,0.1-0.1,0.2-0.1,0.2c-0.1,0.1-0.1,0.1-0.2,0.1c-0.1,0-0.2,0-0.3,0h-0.8c0,0.2,0.1,0.3,0.2,0.5c0.1,0.1,0.2,0.3,0.3,0.4
		c0.2,0.2,0.5,0.3,0.9,0.3c0.4,0,0.8-0.2,1.1-0.5c0.1-0.2,0.2-0.4,0.3-0.7c0.1-0.3,0.1-0.6,0.1-0.9c0-0.5-0.1-1.1-0.4-1.6
		c-0.2-0.4-0.7-0.6-1.1-0.5c-0.1,0-0.3,0-0.4,0c-0.1,0-0.3,0.1-0.4,0.1c-0.1,0.1-0.2,0.1-0.3,0.2c-0.1,0.1-0.2,0.2-0.2,0.3
		c-0.1,0.1-0.1,0.2-0.2,0.3c-0.1,0.1-0.2,0.1-0.3,0.2c-0.1,0-0.2,0.1-0.3,0.1c-0.1,0-0.2,0-0.3,0c-0.1,0-0.2-0.1-0.3-0.2
		c-0.2-0.2-0.3-0.4-0.3-0.6c0-0.1,0-0.2,0.1-0.3c0.1-0.2,0.3-0.5,0.5-0.7c0.2-0.2,0.4-0.4,0.7-0.5c0.3-0.1,0.5-0.2,0.8-0.3
		c0.3-0.1,0.6-0.1,1-0.1c0.5,0,1,0.1,1.5,0.3c0.4,0.2,0.7,0.4,1,0.8c0.3,0.4,0.5,0.8,0.5,1.2c0.1,0.5,0.2,0.9,0.2,1.4
		c0,0.3,0,0.6-0.1,0.9c0,0.3-0.1,0.6-0.2,0.8c-0.1,0.3-0.2,0.5-0.4,0.7c-0.2,0.2-0.4,0.4-0.6,0.6c-0.2,0.2-0.5,0.3-0.8,0.4
		c-0.3,0.1-0.7,0.1-1,0.1c-0.3,0-0.7,0-1-0.1c-0.3-0.1-0.5-0.2-0.8-0.3c-0.2-0.1-0.4-0.3-0.6-0.5c-0.2-0.2-0.3-0.4-0.4-0.7
		c-0.1-0.3-0.2-0.5-0.3-0.8c-0.1-0.3-0.1-0.6-0.1-0.9c0-0.1,0-0.2,0-0.3c0-0.1,0.1-0.2,0.1-0.2c0.1-0.1,0.1-0.1,0.2-0.1
		c0.1,0,0.2,0,0.3,0L218.9,203.6z"/>
	<path class="st4" d="M222.3,199.1c0,0.1,0,0.2-0.1,0.3c0,0.1-0.1,0.2-0.2,0.3c-0.1,0.1-0.2,0.1-0.3,0.2c-0.2,0.1-0.4,0.1-0.6,0
		c-0.1,0-0.2-0.1-0.3-0.2c-0.1-0.1-0.1-0.2-0.2-0.3c0-0.1-0.1-0.2-0.1-0.3v-1.2c0-0.1,0-0.2,0.1-0.3c0-0.1,0.1-0.2,0.2-0.3
		c0.1-0.1,0.2-0.1,0.3-0.2c0.2-0.1,0.4-0.1,0.6,0c0.1,0,0.2,0.1,0.3,0.2c0.1,0.1,0.1,0.2,0.2,0.3c0,0.1,0.1,0.2,0.1,0.3V199.1z"/>
	<path class="st4" d="M226.5,203.1c0-0.3,0-0.6-0.2-0.8c-0.2-0.2-0.4-0.3-0.6-0.3c-0.2,0-0.4,0-0.5,0.2c-0.2,0.1-0.3,0.3-0.3,0.5
		c0,0.1-0.1,0.2-0.2,0.3c-0.1,0.1-0.2,0.1-0.3,0.2c-0.1,0-0.2,0.1-0.3,0.1c-0.2,0-0.5-0.1-0.6-0.2c-0.2-0.2-0.3-0.4-0.3-0.6
		c0-0.1,0-0.2,0-0.3c0.1-0.2,0.2-0.5,0.4-0.7c0.2-0.2,0.4-0.3,0.6-0.5c0.2-0.1,0.4-0.2,0.7-0.3c0.2-0.1,0.5-0.1,0.8-0.1
		c0.3,0,0.7,0,1,0.1c0.3,0.1,0.6,0.2,0.8,0.4c0.2,0.2,0.4,0.4,0.5,0.7c0.1,0.3,0.2,0.7,0.2,1.1v3.9c0,0.2-0.1,0.4-0.3,0.6
		c-0.1,0.1-0.2,0.1-0.3,0.2c-0.2,0.1-0.4,0.1-0.7,0c-0.1,0-0.2-0.1-0.3-0.2c-0.2-0.1-0.3-0.4-0.3-0.6L226.5,203.1z"/>
	<path class="st4" d="M233.7,205.9c0,0.3,0,0.6-0.1,0.8c-0.1,0.2-0.2,0.4-0.4,0.6c-0.2,0.1-0.4,0.3-0.6,0.3
		c-0.2,0.1-0.5,0.1-0.7,0.1c-0.2,0-0.5,0-0.7-0.1c-0.2-0.1-0.4-0.1-0.5-0.3c-0.1-0.1-0.3-0.3-0.4-0.4c-0.1-0.2-0.2-0.4-0.3-0.6
		l-0.8-2.1c0-0.1,0-0.2,0-0.3c0-0.1,0-0.2,0.1-0.3c0-0.1,0.1-0.2,0.2-0.2c0.1-0.1,0.2-0.1,0.3-0.2c0.1,0,0.2,0,0.3,0
		c0.1,0,0.2,0,0.3,0.1c0.1,0,0.2,0.1,0.3,0.2c0.1,0.1,0.1,0.2,0.2,0.3l0.8,2.4c0,0.1,0,0.1,0.1,0.1c0,0,0.1,0,0.1,0c0,0,0.1,0,0.1,0
		c0,0,0-0.1,0-0.1v-4h-0.3c-0.2,0-0.3-0.1-0.5-0.2c-0.1-0.1-0.1-0.1-0.1-0.2c-0.1-0.2-0.1-0.4,0-0.5c0-0.1,0.1-0.2,0.1-0.2
		c0.1-0.1,0.3-0.2,0.5-0.2h1.4c0.1,0,0.2,0,0.3,0c0.1,0,0.1,0.1,0.2,0.1c0.1,0.1,0.1,0.1,0.1,0.2c0,0.1,0,0.2,0,0.3L233.7,205.9z"/>
	<path class="st4" d="M237.7,204.8l0.8-3.6c0-0.1,0.1-0.2,0.1-0.3c0.1-0.1,0.1-0.2,0.2-0.2c0.1-0.1,0.2-0.1,0.3-0.1
		c0.1,0,0.2,0,0.3,0c0.1,0,0.2,0.1,0.3,0.1c0.1,0.1,0.2,0.1,0.2,0.2c0.1,0.1,0.1,0.2,0.1,0.3c0,0.1,0,0.2,0,0.3l-1.3,4.8
		c0,0.2-0.1,0.3-0.2,0.5c-0.1,0.1-0.2,0.3-0.3,0.4c-0.1,0.1-0.2,0.2-0.4,0.3c-0.1,0.1-0.3,0.1-0.5,0.1c-0.2,0-0.3,0-0.4-0.1
		c-0.1-0.1-0.3-0.2-0.4-0.3c-0.1-0.1-0.2-0.3-0.3-0.4c-0.1-0.2-0.1-0.3-0.2-0.5l-1.2-4.3H235c-0.4,0-0.6-0.4-0.6-0.8
		c0-0.1,0-0.1,0-0.2c0.1-0.2,0.2-0.3,0.4-0.4c0.1,0,0.2,0,0.3,0h1.2c0.1,0,0.2,0,0.3,0c0.1,0,0.1,0.1,0.2,0.1
		c0.1,0.1,0.1,0.1,0.1,0.2c0,0.1,0.1,0.2,0.1,0.3L237.7,204.8z"/>
	<path class="st4" d="M244.1,203.1c0-0.3,0-0.6-0.2-0.8c-0.2-0.2-0.4-0.3-0.6-0.3c-0.2,0-0.4,0-0.5,0.2c-0.2,0.1-0.3,0.3-0.3,0.5
		c0,0.1-0.1,0.2-0.2,0.3c-0.1,0.1-0.2,0.1-0.3,0.2c-0.1,0-0.2,0.1-0.3,0.1c-0.2,0-0.5-0.1-0.6-0.2c-0.2-0.2-0.3-0.4-0.3-0.6
		c0-0.1,0-0.2,0-0.3c0.1-0.2,0.2-0.5,0.4-0.7c0.2-0.2,0.4-0.3,0.6-0.5c0.2-0.1,0.4-0.2,0.7-0.3c0.2-0.1,0.5-0.1,0.8-0.1
		c0.3,0,0.7,0,1,0.1c0.3,0.1,0.6,0.2,0.8,0.4c0.2,0.2,0.4,0.4,0.5,0.7c0.1,0.3,0.2,0.7,0.2,1.1v3.9c0,0.2-0.1,0.4-0.3,0.6
		c-0.1,0.1-0.2,0.1-0.3,0.2c-0.2,0.1-0.4,0.1-0.7,0c-0.1,0-0.2-0.1-0.3-0.2c-0.2-0.1-0.3-0.4-0.3-0.6L244.1,203.1z"/>
	<path class="st4" d="M251.3,205.9c0,0.3,0,0.6-0.1,0.8c-0.1,0.2-0.2,0.4-0.4,0.6c-0.2,0.1-0.4,0.3-0.6,0.3
		c-0.2,0.1-0.5,0.1-0.7,0.1c-0.2,0-0.5,0-0.7-0.1c-0.2-0.1-0.4-0.1-0.5-0.3c-0.1-0.1-0.3-0.3-0.4-0.4c-0.1-0.2-0.2-0.4-0.3-0.6
		l-0.8-2.1c0-0.1,0-0.2,0-0.3c0-0.1,0-0.2,0.1-0.3c0-0.1,0.1-0.2,0.2-0.2c0.1-0.1,0.2-0.1,0.3-0.2c0.1,0,0.2,0,0.3,0
		c0.1,0,0.2,0,0.3,0.1c0.1,0,0.2,0.1,0.3,0.2c0.1,0.1,0.1,0.2,0.2,0.3l0.8,2.4c0,0.1,0,0.1,0.1,0.1c0,0,0.1,0,0.1,0c0,0,0.1,0,0.1,0
		c0,0,0-0.1,0-0.1v-4h-0.3c-0.2,0-0.3-0.1-0.5-0.2c-0.1-0.1-0.1-0.1-0.1-0.2c-0.1-0.2-0.1-0.4,0-0.5c0-0.1,0.1-0.2,0.1-0.2
		c0.1-0.1,0.3-0.2,0.5-0.2h1.4c0.1,0,0.2,0,0.3,0c0.1,0,0.1,0.1,0.2,0.1c0.1,0.1,0.1,0.1,0.1,0.2c0,0.1,0,0.2,0,0.3L251.3,205.9z"/>
	<path class="st4" d="M92.1,212.7c0-0.1,0-0.3,0.1-0.4c0-0.1,0.1-0.2,0.2-0.3c0.1-0.1,0.2-0.1,0.3-0.1c0.1,0,0.2,0,0.3,0h2.4
		c0.3,0,0.5,0,0.8,0.1c0.2,0,0.4,0.1,0.6,0.2c0.3,0.2,0.5,0.4,0.7,0.7c0.1,0.1,0.1,0.3,0.1,0.4c0,0.1,0,0.3,0,0.4
		c0,0.2,0,0.3-0.1,0.5c0,0.2-0.1,0.3-0.2,0.5c-0.1,0.1-0.2,0.3-0.3,0.4c-0.1,0.1-0.3,0.2-0.5,0.2l0,0c0.2,0,0.3,0.1,0.5,0.2
		c0.1,0.1,0.2,0.2,0.3,0.3c0.1,0.1,0.1,0.3,0.1,0.5c0,0.2,0,0.4,0,0.5c0,0.1,0,0.2,0,0.4c0,0.1,0,0.2,0.1,0.3l0.1,0.3
		c0,0.1,0,0.1,0,0.2c0,0.1,0,0.2,0,0.2c0,0.1-0.1,0.1-0.2,0.2c-0.1,0.1-0.3,0.2-0.5,0.2c-0.1,0-0.2,0-0.3,0
		c-0.2-0.1-0.3-0.2-0.4-0.4c0-0.1-0.1-0.2-0.1-0.2c0-0.1,0-0.1,0-0.2c0-0.1,0-0.1,0-0.2c0-0.2,0-0.5,0-0.7c0-0.2-0.1-0.3-0.2-0.5
		c-0.1-0.1-0.2-0.2-0.3-0.3c-0.2-0.1-0.3-0.1-0.5-0.1h-1.4v1.9c0,0.1,0,0.2,0,0.3c0,0.1-0.1,0.2-0.1,0.2c-0.1,0.1-0.1,0.1-0.2,0.2
		c-0.1,0-0.2,0-0.3,0c-0.1,0-0.2,0-0.3,0c-0.1,0-0.2-0.1-0.2-0.2c-0.1-0.1-0.1-0.1-0.1-0.2c0-0.1,0-0.2,0-0.3L92.1,212.7z
		 M93.6,214.7H95c0.1,0,0.3,0,0.4,0c0.1,0,0.2-0.1,0.3-0.1c0.1-0.1,0.2-0.2,0.3-0.3c0.1-0.1,0.1-0.3,0.1-0.4c0-0.1,0-0.3-0.1-0.4
		c0-0.1-0.1-0.2-0.2-0.3c-0.1-0.1-0.2-0.1-0.3-0.1c-0.1,0-0.3,0-0.4,0h-1.5L93.6,214.7z"/>
	<path class="st4" d="M98.1,215.1c0-0.3,0-0.6,0.1-0.9c0.1-0.3,0.1-0.6,0.3-0.8c0.1-0.2,0.3-0.5,0.5-0.7c0.2-0.2,0.4-0.4,0.6-0.5
		c0.3-0.2,0.5-0.3,0.8-0.4c0.3-0.1,0.7-0.1,1-0.1c0.3,0,0.7,0,1,0.1c0.3,0.1,0.6,0.2,0.8,0.4c0.2,0.2,0.4,0.3,0.6,0.5
		c0.2,0.2,0.3,0.4,0.5,0.7c0.1,0.3,0.2,0.5,0.3,0.8c0.1,0.3,0.1,0.6,0.1,0.9c0,0.3,0,0.6-0.1,0.9c-0.1,0.3-0.2,0.5-0.3,0.8
		c-0.1,0.2-0.3,0.5-0.5,0.7c-0.2,0.2-0.4,0.4-0.6,0.5c-0.3,0.2-0.5,0.3-0.8,0.4c-0.3,0.1-0.7,0.1-1,0.1c-0.3,0-0.7,0-1-0.1
		c-0.3-0.1-0.6-0.2-0.8-0.4c-0.2-0.1-0.5-0.3-0.6-0.5c-0.2-0.2-0.3-0.4-0.5-0.7c-0.1-0.3-0.2-0.5-0.3-0.8
		C98.2,215.7,98.1,215.4,98.1,215.1z M99.6,215.1c0,0.2,0,0.4,0,0.5c0,0.2,0.1,0.3,0.1,0.5c0.1,0.2,0.1,0.3,0.2,0.4
		c0.1,0.1,0.2,0.3,0.3,0.4c0.1,0.1,0.3,0.2,0.5,0.2c0.2,0.1,0.4,0.1,0.6,0.1c0.2,0,0.4,0,0.6-0.1c0.2-0.1,0.3-0.1,0.5-0.2
		c0.1-0.1,0.3-0.2,0.4-0.4c0.1-0.1,0.2-0.3,0.2-0.4c0.1-0.2,0.1-0.3,0.1-0.5c0-0.2,0-0.4,0-0.5c0-0.2,0-0.4,0-0.5
		c0-0.2-0.1-0.3-0.1-0.5c-0.1-0.2-0.1-0.3-0.2-0.5c-0.1-0.1-0.2-0.3-0.4-0.4c-0.1-0.1-0.3-0.2-0.5-0.2c-0.2-0.1-0.4-0.1-0.6-0.1
		c-0.2,0-0.4,0-0.6,0.1c-0.2,0.1-0.3,0.1-0.5,0.2c-0.1,0.1-0.3,0.2-0.3,0.4c-0.1,0.1-0.2,0.3-0.2,0.5c-0.1,0.2-0.1,0.3-0.1,0.5
		C99.5,214.8,99.5,215,99.6,215.1z"/>
	<path class="st4" d="M106.8,215.8l-1.8-2.9c-0.1-0.1-0.1-0.2-0.1-0.4c0-0.1,0-0.2,0.1-0.3c0.1-0.1,0.1-0.2,0.3-0.3
		c0.1-0.1,0.3-0.1,0.4-0.1h0.2l0.2,0.1c0.1,0,0.1,0.1,0.1,0.1l0.1,0.2l1.3,2.3l1.3-2.3c0-0.1,0.1-0.1,0.1-0.2c0.1,0,0.1-0.1,0.2-0.1
		l0.2-0.1h0.2c0.1,0,0.3,0,0.4,0.1c0.2,0.1,0.3,0.3,0.3,0.6c0,0.1,0,0.3-0.1,0.4l-1.8,2.9v2c0,0.1,0,0.2,0,0.3
		c0,0.1-0.1,0.2-0.1,0.2c-0.1,0.1-0.1,0.1-0.2,0.1c-0.1,0-0.2,0-0.3,0c-0.1,0-0.2,0-0.3,0c-0.1,0-0.2-0.1-0.2-0.1
		c-0.1-0.1-0.1-0.1-0.1-0.2c0-0.1,0-0.2,0-0.3L106.8,215.8z"/>
	<path class="st4" d="M112.1,212.3c0-0.1,0.1-0.3,0.3-0.3c0.1-0.1,0.3-0.1,0.4-0.1h0.3h0.2c0.1,0,0.1,0,0.2,0.1
		c0.1,0,0.1,0.1,0.2,0.2c0.1,0.1,0.1,0.2,0.1,0.3l1.8,4.9v0.1v0.1v0.2c0,0,0,0.1,0,0.1c0,0.1,0,0.2,0,0.3c0,0.1-0.1,0.1-0.1,0.2
		c-0.1,0.1-0.1,0.1-0.2,0.1c-0.1,0-0.2,0-0.3,0c-0.1,0-0.3,0-0.4-0.1c-0.1-0.1-0.2-0.2-0.3-0.3l-0.4-1.1h-2.4l-0.4,1.1
		c0,0.1-0.1,0.2-0.2,0.3c-0.1,0.1-0.3,0.1-0.4,0.1c-0.1,0-0.2,0-0.3,0c-0.1,0-0.2-0.1-0.2-0.1c-0.1-0.1-0.1-0.1-0.1-0.2
		c0-0.1,0-0.2,0-0.3c0,0,0-0.1,0-0.1v-0.2v-0.1v-0.1L112.1,212.3z M113,213.4L113,213.4l-0.9,2.6h1.7L113,213.4z"/>
	<path class="st4" d="M116.8,212.5c0-0.1,0-0.2,0-0.3c0-0.1,0.1-0.2,0.1-0.2c0.1-0.1,0.1-0.1,0.2-0.1c0.2-0.1,0.4-0.1,0.6,0
		c0.1,0,0.2,0.1,0.2,0.1c0.1,0.1,0.1,0.1,0.1,0.2c0,0.1,0,0.2,0,0.3v4.7h2.4c0.1,0,0.2,0,0.3,0c0.1,0,0.2,0.1,0.2,0.1
		c0.1,0.1,0.1,0.1,0.2,0.2c0.1,0.2,0.1,0.4,0,0.5c0,0.1-0.1,0.1-0.2,0.2c-0.1,0.1-0.2,0.1-0.2,0.1c-0.1,0-0.2,0-0.3,0h-3
		c-0.1,0-0.2,0-0.3,0c-0.1,0-0.2-0.1-0.3-0.1c-0.1-0.1-0.1-0.2-0.2-0.3c0-0.1-0.1-0.3-0.1-0.4L116.8,212.5z"/>
	<path class="st4" d="M126,212.3c0-0.1,0.1-0.3,0.3-0.3c0.1-0.1,0.3-0.1,0.4-0.1h0.4h0.2c0.1,0,0.1,0,0.2,0.1c0.1,0,0.1,0.1,0.2,0.2
		c0.1,0.1,0.1,0.2,0.1,0.3l1.8,4.9v0.1v0.1v0.2c0,0,0,0.1,0,0.1c0,0.1,0,0.2,0,0.3c0,0.1-0.1,0.1-0.1,0.2c-0.1,0.1-0.1,0.1-0.2,0.1
		c-0.1,0-0.2,0-0.3,0c-0.1,0-0.3,0-0.4-0.1c-0.1-0.1-0.2-0.2-0.3-0.3l-0.4-1.1h-2.4l-0.4,1.1c0,0.1-0.1,0.2-0.2,0.3
		c-0.1,0.1-0.3,0.1-0.4,0.1c-0.1,0-0.2,0-0.3,0c-0.1,0-0.2-0.1-0.2-0.1c-0.1-0.1-0.1-0.1-0.1-0.2c0-0.1,0-0.2,0-0.3c0,0,0-0.1,0-0.1
		v-0.2v-0.1v-0.1L126,212.3z M126.9,213.4L126.9,213.4L126,216h1.7L126.9,213.4z"/>
	<path class="st4" d="M136.3,218c0,0.1,0,0.1,0,0.2c0,0.1-0.1,0.1-0.1,0.2c0,0-0.1,0.1-0.2,0.1c-0.1,0-0.1,0-0.2,0
		c-0.1,0-0.2,0-0.3,0c-0.1,0-0.1-0.1-0.2-0.2c-0.1-0.1-0.1-0.2-0.1-0.3c0-0.1-0.1-0.2-0.1-0.4c-0.1,0.1-0.2,0.3-0.3,0.4
		c-0.1,0.1-0.3,0.2-0.4,0.3c-0.2,0.1-0.3,0.1-0.5,0.2c-0.2,0-0.4,0.1-0.6,0.1c-0.3,0-0.7,0-1-0.1c-0.3-0.1-0.5-0.2-0.8-0.3
		c-0.2-0.1-0.4-0.3-0.6-0.5c-0.2-0.2-0.3-0.4-0.4-0.7c-0.1-0.3-0.2-0.5-0.2-0.8c0-0.3-0.1-0.6-0.1-0.9c0-0.5,0.1-1,0.2-1.5
		c0.1-0.4,0.4-0.8,0.7-1.1c0.3-0.3,0.6-0.5,1-0.7c0.4-0.2,0.9-0.2,1.3-0.2c0.2,0,0.5,0,0.7,0.1c0.2,0,0.4,0.1,0.6,0.2
		c0.2,0.1,0.3,0.2,0.5,0.3c0.1,0.1,0.2,0.2,0.3,0.3c0.1,0.1,0.2,0.2,0.2,0.3c0,0.1,0.1,0.2,0.1,0.3c0,0.1,0,0.2-0.1,0.3
		c0,0.1-0.1,0.1-0.2,0.2c-0.1,0.1-0.1,0.1-0.2,0.1h-0.2c-0.1,0-0.2,0-0.2,0c-0.1,0-0.1-0.1-0.2-0.1l-0.1-0.2l-0.1-0.2l-0.2-0.2
		c-0.1-0.1-0.2-0.1-0.2-0.2c-0.1-0.1-0.2-0.1-0.3-0.1c-0.2,0-0.3,0-0.5,0c-0.2,0-0.5,0-0.7,0.1c-0.2,0.1-0.4,0.2-0.6,0.4
		c-0.2,0.2-0.3,0.5-0.4,0.7c-0.1,0.3-0.1,0.7-0.1,1.1c0,0.3,0,0.6,0.1,0.9c0.1,0.2,0.2,0.5,0.3,0.7c0.2,0.2,0.3,0.3,0.6,0.4
		c0.2,0.1,0.5,0.2,0.8,0.2c0.2,0,0.4,0,0.6-0.1c0.2-0.1,0.3-0.2,0.5-0.3c0.1-0.1,0.2-0.3,0.3-0.4c0.1-0.2,0.1-0.4,0.1-0.6h-0.9h-0.2
		c-0.1,0-0.2,0-0.2-0.1c-0.1,0-0.1-0.1-0.2-0.2c0-0.1,0-0.2,0-0.3c0-0.2,0-0.3,0.1-0.4c0.1-0.1,0.3-0.2,0.4-0.2h1.8
		c0.2,0,0.3,0,0.5,0.2c0.1,0.1,0.1,0.3,0.1,0.5L136.3,218z"/>
	<path class="st4" d="M137.6,212.7c0-0.1,0-0.3,0.1-0.4c0-0.1,0.1-0.2,0.2-0.3c0.1-0.1,0.2-0.1,0.3-0.1c0.1,0,0.2,0,0.3,0h2.4
		c0.3,0,0.5,0,0.8,0.1c0.2,0,0.4,0.1,0.6,0.2c0.3,0.2,0.5,0.4,0.7,0.7c0.1,0.1,0.1,0.3,0.1,0.4c0,0.1,0,0.3,0,0.4
		c0,0.2,0,0.3-0.1,0.5c0,0.2-0.1,0.3-0.2,0.5c-0.1,0.1-0.2,0.3-0.3,0.4c-0.1,0.1-0.3,0.2-0.5,0.2l0,0c0.2,0,0.3,0.1,0.5,0.2
		c0.1,0.1,0.2,0.2,0.3,0.3c0.1,0.1,0.1,0.3,0.1,0.5c0,0.2,0,0.4,0,0.5c0,0.1,0,0.2,0,0.4c0,0.1,0,0.2,0.1,0.3l0.1,0.3
		c0,0.1,0,0.1,0,0.2c0,0.1,0,0.2,0,0.2c0,0.1-0.1,0.1-0.2,0.2c-0.1,0.1-0.3,0.2-0.5,0.2c-0.1,0-0.2,0-0.3,0
		c-0.2-0.1-0.3-0.2-0.4-0.4c0-0.1-0.1-0.2-0.1-0.2c0-0.1,0-0.1,0-0.2c0-0.1,0-0.1,0-0.2c0-0.2,0-0.5,0-0.7c0-0.2-0.1-0.3-0.2-0.5
		c-0.1-0.1-0.2-0.2-0.3-0.3c-0.2-0.1-0.3-0.1-0.5-0.1H139v1.9c0,0.1,0,0.2,0,0.3c0,0.1-0.1,0.2-0.1,0.2c-0.1,0.1-0.1,0.1-0.2,0.2
		c-0.1,0-0.2,0-0.3,0c-0.1,0-0.2,0-0.3,0c-0.1,0-0.2-0.1-0.2-0.2c-0.1-0.1-0.1-0.1-0.1-0.2c0-0.1,0-0.2,0-0.3L137.6,212.7z
		 M139,214.7h1.4c0.1,0,0.3,0,0.4,0c0.1,0,0.2-0.1,0.3-0.1c0.1-0.1,0.2-0.2,0.2-0.3c0.1-0.1,0.1-0.3,0.1-0.4c0-0.1,0-0.3-0.1-0.4
		c0-0.1-0.1-0.2-0.2-0.3c-0.1-0.1-0.2-0.1-0.3-0.1c-0.1,0-0.3,0-0.4,0H139L139,214.7z"/>
	<path class="st4" d="M145.4,217.8c0,0.1,0,0.2,0,0.3c0,0.1-0.1,0.2-0.2,0.2c-0.1,0.1-0.1,0.1-0.2,0.1c-0.2,0.1-0.4,0.1-0.5,0
		c-0.1,0-0.2-0.1-0.2-0.1c-0.1-0.1-0.1-0.1-0.2-0.2c0-0.1,0-0.2,0-0.3v-5.3c0-0.2,0.1-0.4,0.2-0.5c0.1-0.1,0.1-0.1,0.2-0.1
		c0.2-0.1,0.4-0.1,0.5,0c0.1,0,0.2,0.1,0.2,0.1c0.1,0.1,0.1,0.1,0.2,0.2c0,0.1,0,0.2,0,0.3L145.4,217.8z"/>
	<path class="st4" d="M146.5,215.1c0-0.3,0-0.6,0.1-0.9c0.1-0.3,0.2-0.6,0.3-0.8c0.1-0.2,0.3-0.5,0.5-0.7c0.2-0.2,0.4-0.4,0.6-0.5
		c0.2-0.2,0.5-0.3,0.8-0.3c0.3-0.1,0.6-0.1,1-0.1c0.3,0,0.5,0,0.8,0.1c0.2,0,0.4,0.1,0.7,0.2c0.2,0.1,0.4,0.2,0.5,0.3
		c0.1,0.1,0.3,0.2,0.4,0.4c0.1,0.1,0.2,0.2,0.2,0.4c0,0.1,0.1,0.2,0.1,0.4c0,0.2,0,0.4-0.2,0.5c-0.1,0.1-0.3,0.2-0.5,0.2
		c-0.1,0-0.2,0-0.3,0c-0.1,0-0.1-0.1-0.2-0.1l-0.2-0.2l-0.2-0.2l-0.2-0.2c-0.1-0.1-0.2-0.1-0.2-0.2c-0.1-0.1-0.2-0.1-0.3-0.1
		c-0.1,0-0.3,0-0.4,0c-0.2,0-0.5,0-0.7,0.1c-0.2,0.1-0.4,0.2-0.6,0.4c-0.2,0.2-0.3,0.4-0.4,0.7c-0.1,0.3-0.1,0.6-0.1,0.9
		c0,0.3,0,0.6,0.1,0.8c0.1,0.3,0.2,0.5,0.3,0.7c0.1,0.2,0.3,0.4,0.6,0.5c0.3,0.1,0.5,0.2,0.8,0.2c0.2,0,0.3,0,0.5-0.1
		c0.1-0.1,0.3-0.1,0.4-0.2c0.1-0.1,0.2-0.2,0.3-0.3l0.2-0.3c0.1-0.1,0.2-0.2,0.2-0.2c0.1-0.1,0.2-0.1,0.3-0.1c0.1,0,0.2,0,0.3,0
		c0.1,0,0.2,0.1,0.2,0.1c0.1,0.1,0.1,0.1,0.1,0.2c0,0.1,0.1,0.2,0.1,0.2c0,0.2,0,0.3,0,0.5c-0.1,0.2-0.1,0.3-0.3,0.4
		c-0.1,0.1-0.3,0.3-0.4,0.4c-0.2,0.1-0.3,0.2-0.5,0.3c-0.2,0.1-0.4,0.2-0.6,0.2c-0.2,0-0.5,0.1-0.7,0.1c-0.5,0-0.9-0.1-1.4-0.2
		c-0.4-0.1-0.7-0.4-1-0.6c-0.3-0.3-0.5-0.7-0.6-1.1C146.6,216.2,146.5,215.6,146.5,215.1z"/>
	<path class="st4" d="M158.7,216c0,0.4-0.1,0.8-0.2,1.1c-0.1,0.3-0.3,0.6-0.5,0.8c-0.2,0.2-0.5,0.4-0.9,0.5
		c-0.4,0.1-0.8,0.2-1.2,0.2c-0.4,0-0.8,0-1.2-0.1c-0.3-0.1-0.6-0.2-0.9-0.5c-0.2-0.2-0.4-0.5-0.5-0.8c-0.1-0.4-0.2-0.8-0.2-1.2v-3.5
		c0-0.1,0-0.2,0-0.3c0-0.1,0.1-0.2,0.2-0.2c0.1-0.1,0.1-0.1,0.2-0.1c0.2-0.1,0.4-0.1,0.5,0c0.1,0,0.2,0.1,0.2,0.1
		c0.1,0.1,0.1,0.1,0.2,0.2c0,0.1,0,0.2,0,0.3v3.5c0,0.4,0.1,0.7,0.4,1c0.3,0.3,0.7,0.4,1.1,0.4c0.4,0,0.7-0.1,1-0.4
		c0.2-0.3,0.4-0.7,0.3-1v-3.5c0-0.1,0-0.2,0-0.3c0-0.1,0.1-0.2,0.2-0.2c0.1-0.1,0.1-0.1,0.2-0.1c0.2-0.1,0.4-0.1,0.5,0
		c0.1,0,0.2,0.1,0.2,0.1c0.1,0.1,0.1,0.1,0.2,0.2c0,0.1,0,0.2,0,0.3L158.7,216z"/>
	<path class="st4" d="M160,212.5c0-0.1,0-0.2,0-0.3c0-0.1,0.1-0.2,0.1-0.2c0.1-0.1,0.1-0.1,0.2-0.1c0.2-0.1,0.4-0.1,0.6,0
		c0.1,0,0.2,0.1,0.2,0.1c0.1,0.1,0.1,0.1,0.1,0.2c0,0.1,0,0.2,0,0.3v4.7h2.4c0.1,0,0.2,0,0.3,0c0.1,0,0.2,0.1,0.2,0.1
		c0.1,0.1,0.1,0.1,0.2,0.2c0.1,0.2,0.1,0.4,0,0.5c0,0.1-0.1,0.1-0.2,0.2c-0.1,0.1-0.2,0.1-0.2,0.1c-0.1,0-0.2,0-0.3,0h-3
		c-0.1,0-0.2,0-0.3,0c-0.1,0-0.2-0.1-0.3-0.1c-0.1-0.1-0.1-0.2-0.2-0.3c0-0.1-0.1-0.3-0.1-0.4L160,212.5z"/>
	<path class="st4" d="M165.8,213.1h-1.3c-0.1,0-0.2,0-0.2,0c-0.1,0-0.1-0.1-0.2-0.1c-0.1-0.1-0.1-0.1-0.1-0.2
		c-0.1-0.2-0.1-0.3,0-0.5c0-0.1,0.1-0.1,0.1-0.2c0.1-0.1,0.3-0.2,0.4-0.2h4.1c0.2,0,0.3,0.1,0.4,0.2c0.1,0.1,0.1,0.1,0.1,0.2
		c0.1,0.2,0.1,0.3,0,0.5c0,0.1-0.1,0.1-0.1,0.2c-0.1,0.1-0.1,0.1-0.2,0.1c-0.1,0-0.2,0-0.2,0h-1.3v4.7c0,0.1,0,0.2,0,0.3
		c0,0.1-0.1,0.2-0.2,0.2c-0.1,0.1-0.1,0.1-0.2,0.1c-0.2,0.1-0.4,0.1-0.5,0c-0.1,0-0.2-0.1-0.2-0.1c-0.1-0.1-0.1-0.1-0.2-0.2
		c0-0.1,0-0.2,0-0.3L165.8,213.1z"/>
	<path class="st4" d="M175.4,216c0,0.4-0.1,0.8-0.2,1.1c-0.1,0.3-0.3,0.6-0.5,0.8c-0.2,0.2-0.5,0.4-0.9,0.5
		c-0.4,0.1-0.8,0.2-1.2,0.2c-0.4,0-0.8,0-1.2-0.1c-0.3-0.1-0.6-0.2-0.9-0.5c-0.2-0.2-0.4-0.5-0.5-0.8c-0.1-0.4-0.2-0.8-0.2-1.2v-3.5
		c0-0.1,0-0.2,0-0.3c0-0.1,0.1-0.2,0.2-0.2c0.1-0.1,0.1-0.1,0.2-0.1c0.2-0.1,0.4-0.1,0.5,0c0.1,0,0.2,0.1,0.2,0.1
		c0.1,0.1,0.1,0.1,0.2,0.2c0,0.1,0,0.2,0,0.3v3.5c0,0.4,0.1,0.7,0.4,1c0.3,0.3,0.7,0.4,1.1,0.4c0.4,0,0.7-0.1,1-0.4
		c0.2-0.3,0.4-0.7,0.3-1v-3.5c0-0.1,0-0.2,0-0.3c0-0.1,0.1-0.2,0.2-0.2c0.1-0.1,0.1-0.1,0.2-0.1c0.2-0.1,0.4-0.1,0.5,0
		c0.1,0,0.2,0.1,0.2,0.1c0.1,0.1,0.1,0.1,0.2,0.2c0,0.1,0,0.2,0,0.3L175.4,216z"/>
	<path class="st4" d="M176.6,212.7c0-0.1,0-0.3,0.1-0.4c0-0.1,0.1-0.2,0.2-0.3c0.1-0.1,0.2-0.1,0.3-0.1c0.1,0,0.2,0,0.3,0h2.4
		c0.3,0,0.5,0,0.8,0.1c0.2,0,0.4,0.1,0.6,0.2c0.3,0.2,0.5,0.4,0.7,0.7c0.1,0.1,0.1,0.3,0.1,0.4c0,0.1,0,0.3,0,0.4
		c0,0.2,0,0.3-0.1,0.5c0,0.2-0.1,0.3-0.2,0.5c-0.1,0.1-0.2,0.3-0.3,0.4c-0.1,0.1-0.3,0.2-0.5,0.2l0,0c0.2,0,0.3,0.1,0.5,0.2
		c0.1,0.1,0.2,0.2,0.3,0.3c0.1,0.1,0.1,0.3,0.1,0.5c0,0.2,0,0.4,0,0.5c0,0.1,0,0.2,0,0.4c0,0.1,0,0.2,0.1,0.3l0.1,0.3
		c0,0.1,0,0.1,0,0.2c0,0.1,0,0.2,0,0.2c0,0.1-0.1,0.1-0.2,0.2c-0.1,0.1-0.3,0.2-0.5,0.2c-0.1,0-0.2,0-0.3,0
		c-0.2-0.1-0.3-0.2-0.4-0.4c0-0.1-0.1-0.2-0.1-0.2c0-0.1,0-0.1,0-0.2c0-0.1,0-0.1,0-0.2c0-0.2,0-0.5,0-0.7c0-0.2-0.1-0.3-0.2-0.5
		c-0.1-0.1-0.2-0.2-0.3-0.3c-0.2-0.1-0.3-0.1-0.5-0.1h-1.4v1.9c0,0.1,0,0.2,0,0.3c0,0.1-0.1,0.2-0.1,0.2c-0.1,0.1-0.1,0.1-0.2,0.2
		c-0.1,0-0.2,0-0.3,0c-0.1,0-0.2,0-0.3,0c-0.1,0-0.2-0.1-0.2-0.2c-0.1-0.1-0.1-0.1-0.1-0.2c0-0.1,0-0.2,0-0.3L176.6,212.7z
		 M178.1,214.7h1.4c0.1,0,0.3,0,0.4,0c0.1,0,0.2-0.1,0.3-0.1c0.1-0.1,0.2-0.2,0.3-0.3c0.1-0.1,0.1-0.3,0.1-0.4c0-0.1,0-0.3-0.1-0.4
		c0-0.1-0.1-0.2-0.2-0.3c-0.1-0.1-0.2-0.1-0.3-0.1c-0.1,0-0.3,0-0.4,0h-1.5L178.1,214.7z"/>
	<path class="st4" d="M184.8,212.3c0-0.1,0.1-0.3,0.3-0.3c0.1-0.1,0.3-0.1,0.4-0.1h0.3h0.2c0.1,0,0.1,0,0.2,0.1
		c0.1,0,0.1,0.1,0.2,0.2c0.1,0.1,0.1,0.2,0.1,0.3l1.8,4.9v0.1v0.1v0.2c0,0,0,0.1,0,0.1c0,0.1,0,0.2,0,0.3c0,0.1-0.1,0.1-0.1,0.2
		c-0.1,0.1-0.1,0.1-0.2,0.1c-0.1,0-0.2,0-0.3,0c-0.1,0-0.3,0-0.4-0.1c-0.1-0.1-0.2-0.2-0.3-0.3l-0.4-1.1h-2.4L184,218
		c0,0.1-0.1,0.2-0.2,0.3c-0.1,0.1-0.3,0.1-0.4,0.1c-0.1,0-0.2,0-0.3,0c-0.1,0-0.2-0.1-0.2-0.1c-0.1-0.1-0.1-0.1-0.1-0.2
		c0-0.1,0-0.2,0-0.3c0,0,0-0.1,0-0.1v-0.2v-0.1v-0.1L184.8,212.3z M185.6,213.4L185.6,213.4l-0.9,2.6h1.7L185.6,213.4z"/>
	<path class="st4" d="M189.4,212.5c0-0.1,0-0.2,0-0.3c0-0.1,0.1-0.2,0.1-0.2c0.1-0.1,0.1-0.1,0.2-0.1c0.2-0.1,0.4-0.1,0.6,0
		c0.1,0,0.2,0.1,0.2,0.1c0.1,0.1,0.1,0.1,0.1,0.2c0,0.1,0,0.2,0,0.3v4.7h2.4c0.1,0,0.2,0,0.3,0c0.1,0,0.2,0.1,0.2,0.1
		c0.1,0.1,0.1,0.1,0.2,0.2c0.1,0.2,0.1,0.4,0,0.5c0,0.1-0.1,0.1-0.2,0.2c-0.1,0.1-0.2,0.1-0.2,0.1c-0.1,0-0.2,0-0.3,0h-2.8
		c-0.1,0-0.2,0-0.3,0c-0.1,0-0.2-0.1-0.3-0.1c-0.1-0.1-0.1-0.2-0.2-0.3c0-0.1-0.1-0.3-0.1-0.4L189.4,212.5z"/>
	<path class="st4" d="M200.4,214.6c0.3,0.1,0.6,0.2,0.8,0.3c0.2,0.1,0.4,0.3,0.5,0.5c0.1,0.2,0.2,0.3,0.3,0.5c0,0.2,0.1,0.4,0.1,0.6
		c0,0.3-0.1,0.6-0.2,0.8c-0.1,0.3-0.3,0.5-0.5,0.7c-0.2,0.2-0.5,0.3-0.8,0.4c-0.4,0.1-0.8,0.2-1.2,0.2c-0.3,0-0.6,0-0.8-0.1
		c-0.2,0-0.5-0.1-0.7-0.2c-0.2-0.1-0.4-0.2-0.5-0.3c-0.1-0.1-0.3-0.2-0.4-0.3c-0.1-0.1-0.2-0.2-0.2-0.4c0-0.1-0.1-0.2-0.1-0.4
		c0-0.1,0-0.2,0-0.3c0.1-0.1,0.2-0.3,0.3-0.3c0.1,0,0.2,0,0.3,0c0.1,0,0.2,0,0.3,0.1c0.1,0.1,0.2,0.1,0.2,0.2l0.2,0.3
		c0.1,0.1,0.2,0.2,0.3,0.3c0.1,0.1,0.3,0.2,0.4,0.2c0.2,0.1,0.4,0.1,0.6,0.1c0.2,0,0.3,0,0.5-0.1c0.1,0,0.3-0.1,0.4-0.2
		c0.1-0.1,0.2-0.2,0.2-0.3c0-0.1,0.1-0.2,0.1-0.3c0-0.1,0-0.1,0-0.2c0-0.1-0.1-0.1-0.1-0.2c-0.1-0.1-0.1-0.1-0.2-0.2
		c-0.1-0.1-0.2-0.1-0.3-0.1l-1.6-0.4c-0.2,0-0.4-0.1-0.6-0.2c-0.1-0.1-0.3-0.2-0.4-0.3c-0.1-0.1-0.2-0.2-0.3-0.3
		c-0.1-0.1-0.1-0.2-0.2-0.3c0-0.1-0.1-0.2-0.1-0.3c0-0.1,0-0.2,0-0.3c0-0.2,0-0.4,0.1-0.7c0.1-0.2,0.2-0.4,0.3-0.5
		c0.1-0.1,0.3-0.3,0.4-0.4c0.2-0.1,0.3-0.2,0.5-0.3c0.2-0.1,0.4-0.1,0.6-0.1c0.2,0,0.4,0,0.6,0c0.2,0,0.4,0,0.6,0
		c0.2,0,0.4,0.1,0.6,0.2c0.2,0.1,0.4,0.1,0.5,0.2c0.2,0.1,0.3,0.2,0.4,0.3c0.1,0.1,0.2,0.2,0.3,0.4c0.1,0.1,0.1,0.3,0.1,0.4
		c0,0.3-0.2,0.5-0.4,0.5c-0.1,0-0.2,0-0.3,0c-0.1,0-0.2,0-0.3-0.1c-0.1-0.1-0.2-0.1-0.2-0.2l-0.2-0.2c-0.1-0.1-0.2-0.2-0.3-0.2
		c-0.1-0.1-0.2-0.1-0.4-0.2c-0.2-0.1-0.4-0.1-0.6-0.1c-0.2,0-0.3,0-0.5,0c-0.1,0-0.2,0.1-0.3,0.2c-0.1,0.1-0.2,0.1-0.2,0.2
		c0,0.1-0.1,0.2-0.1,0.3c0,0.1,0,0.2,0.1,0.3c0.1,0.1,0.1,0.1,0.2,0.2c0.1,0.1,0.2,0.1,0.3,0.1l0.3,0.1L200.4,214.6z"/>
	<path class="st4" d="M204.3,213.1H203c-0.1,0-0.2,0-0.2,0c-0.1,0-0.1-0.1-0.2-0.1c-0.1-0.1-0.1-0.1-0.1-0.2c-0.1-0.2-0.1-0.3,0-0.5
		c0-0.1,0.1-0.1,0.1-0.2c0.1-0.1,0.3-0.2,0.4-0.2h4.1c0.2,0,0.3,0.1,0.4,0.2c0.1,0.1,0.1,0.1,0.1,0.2c0.1,0.2,0.1,0.3,0,0.5
		c0,0.1-0.1,0.1-0.1,0.2c-0.1,0.1-0.1,0.1-0.2,0.1c-0.1,0-0.2,0-0.2,0h-1.3v4.7c0,0.2-0.1,0.4-0.2,0.5c-0.1,0.1-0.1,0.1-0.2,0.1
		c-0.2,0.1-0.4,0.1-0.5,0c-0.1,0-0.2-0.1-0.2-0.1c-0.1-0.1-0.2-0.3-0.2-0.5L204.3,213.1z"/>
	<path class="st4" d="M209.4,212.3c0-0.1,0.1-0.3,0.3-0.3c0.1-0.1,0.3-0.1,0.4-0.1h0.3h0.2c0.1,0,0.1,0,0.2,0.1
		c0.1,0,0.1,0.1,0.2,0.2c0.1,0.1,0.1,0.2,0.1,0.3l1.8,4.9v0.1v0.1v0.2c0,0,0,0.1,0,0.1c0,0.1,0,0.2,0,0.3c0,0.1-0.1,0.1-0.1,0.2
		c-0.1,0.1-0.1,0.1-0.2,0.1c-0.1,0-0.2,0-0.3,0c-0.1,0-0.3,0-0.4-0.1c-0.1-0.1-0.2-0.2-0.3-0.3l-0.4-1.1H209l-0.4,1.1
		c0,0.1-0.1,0.2-0.2,0.3c-0.1,0.1-0.3,0.1-0.4,0.1c-0.1,0-0.2,0-0.3,0c-0.1,0-0.2-0.1-0.2-0.1c-0.1-0.1-0.1-0.1-0.1-0.2
		c0-0.1,0-0.2,0-0.3c0,0,0-0.1,0-0.1v-0.2v-0.1v-0.1L209.4,212.3z M210.3,213.4L210.3,213.4l-0.9,2.6h1.7L210.3,213.4z"/>
	<path class="st4" d="M214.9,213.1h-1.3c-0.1,0-0.2,0-0.2,0c-0.1,0-0.1-0.1-0.2-0.1c-0.1-0.1-0.1-0.1-0.1-0.2
		c-0.1-0.2-0.1-0.3,0-0.5c0-0.1,0.1-0.1,0.1-0.2c0.1-0.1,0.3-0.2,0.4-0.2h4.1c0.2,0,0.3,0.1,0.4,0.2c0.1,0.1,0.1,0.1,0.1,0.2
		c0.1,0.2,0.1,0.3,0,0.5c0,0.1-0.1,0.1-0.1,0.2c-0.1,0.1-0.1,0.1-0.2,0.1c-0.1,0-0.2,0-0.2,0h-1.3v4.7c0,0.2-0.1,0.4-0.2,0.5
		c-0.1,0.1-0.1,0.1-0.2,0.1c-0.2,0.1-0.4,0.1-0.5,0c-0.1,0-0.2-0.1-0.2-0.1c-0.1-0.1-0.2-0.3-0.2-0.5L214.9,213.1z"/>
	<path class="st4" d="M220.4,217.8c0,0.1,0,0.2,0,0.3c0,0.1-0.1,0.2-0.2,0.2c-0.1,0.1-0.1,0.1-0.2,0.1c-0.2,0.1-0.4,0.1-0.5,0
		c-0.1,0-0.2-0.1-0.2-0.1c-0.1-0.1-0.2-0.3-0.2-0.5v-5.3c0-0.2,0.1-0.4,0.2-0.5c0.1-0.1,0.1-0.1,0.2-0.1c0.2-0.1,0.4-0.1,0.5,0
		c0.1,0,0.2,0.1,0.2,0.1c0.1,0.1,0.1,0.1,0.2,0.2c0,0.1,0,0.2,0,0.3V217.8z"/>
	<path class="st4" d="M221.4,215.1c0-0.3,0-0.6,0-0.8c0.1-0.3,0.1-0.6,0.3-0.8c0.1-0.2,0.3-0.5,0.5-0.7c0.2-0.2,0.4-0.4,0.6-0.5
		c0.3-0.2,0.5-0.3,0.8-0.4c0.3-0.1,0.7-0.1,1-0.1c0.3,0,0.7,0,1,0.1c0.3,0.1,0.6,0.2,0.8,0.4c0.2,0.2,0.4,0.3,0.6,0.5
		c0.2,0.2,0.3,0.4,0.5,0.7c0.1,0.3,0.2,0.5,0.3,0.8c0.1,0.3,0.1,0.6,0.1,0.9c0,0.3,0,0.6-0.1,0.9c-0.1,0.3-0.2,0.5-0.3,0.8
		c-0.1,0.2-0.3,0.5-0.5,0.7c-0.2,0.2-0.4,0.4-0.6,0.5c-0.3,0.2-0.5,0.3-0.8,0.4c-0.3,0.1-0.7,0.1-1,0.1c-0.3,0-0.7,0-1-0.1
		c-0.3-0.1-0.6-0.2-0.8-0.4c-0.2-0.1-0.5-0.3-0.6-0.5c-0.2-0.2-0.3-0.4-0.5-0.7c-0.1-0.3-0.2-0.5-0.3-0.8
		C221.3,215.7,221.3,215.4,221.4,215.1z M222.8,215.1c0,0.2,0,0.4,0,0.5c0,0.2,0.1,0.3,0.1,0.5c0.1,0.2,0.1,0.3,0.2,0.4
		c0.1,0.1,0.2,0.3,0.3,0.4c0.1,0.1,0.3,0.2,0.5,0.2c0.2,0.1,0.4,0.1,0.6,0.1c0.2,0,0.4,0,0.6-0.1c0.2-0.1,0.3-0.1,0.5-0.2
		c0.1-0.1,0.3-0.2,0.4-0.4c0.1-0.1,0.2-0.3,0.2-0.4c0.1-0.2,0.1-0.3,0.1-0.5c0-0.2,0-0.4,0-0.5c0-0.2,0-0.4,0-0.5
		c0-0.2-0.1-0.3-0.1-0.5c-0.1-0.2-0.1-0.3-0.2-0.5c-0.1-0.1-0.2-0.3-0.4-0.4c-0.1-0.1-0.3-0.2-0.5-0.2c-0.2-0.1-0.4-0.1-0.6-0.1
		c-0.2,0-0.4,0-0.6,0.1c-0.2,0.1-0.3,0.1-0.5,0.2c-0.1,0.1-0.2,0.2-0.3,0.4c-0.1,0.1-0.2,0.3-0.2,0.5c-0.1,0.2-0.1,0.3-0.1,0.5
		C222.7,214.8,222.7,214.9,222.8,215.1L222.8,215.1z"/>
	<path class="st4" d="M228.7,212.7c0-0.2,0.1-0.5,0.2-0.7c0.2-0.2,0.4-0.2,0.7-0.2c0.1,0,0.3,0,0.4,0.1c0.1,0.1,0.2,0.2,0.3,0.3
		l2.5,4.1l0,0v-3.8c0-0.2,0-0.4,0.2-0.5c0.1-0.1,0.3-0.2,0.5-0.2c0.2,0,0.4,0.1,0.5,0.2c0.1,0.1,0.2,0.3,0.2,0.5v5
		c0,0.2-0.1,0.5-0.2,0.7c-0.2,0.2-0.4,0.3-0.6,0.2h-0.3c-0.1,0-0.1,0-0.2-0.1c-0.1,0-0.1-0.1-0.2-0.1c0-0.1-0.1-0.1-0.1-0.2l-2.5-4
		l0,0v3.7c0,0.2,0,0.4-0.2,0.5c-0.1,0.1-0.3,0.2-0.5,0.2c-0.3,0-0.6-0.2-0.7-0.6c0-0.1,0-0.1,0-0.2L228.7,212.7z"/>
	<path class="st4" d="M239.5,212.3c0-0.1,0.1-0.3,0.3-0.3c0.1-0.1,0.3-0.1,0.4-0.1h0.3h0.2c0.1,0,0.1,0,0.2,0.1
		c0.1,0,0.1,0.1,0.2,0.2c0.1,0.1,0.1,0.2,0.1,0.3l1.8,4.9v0.1v0.1v0.2c0,0,0,0.1,0,0.1c0,0.1,0,0.2,0,0.3c0,0.1-0.1,0.1-0.1,0.2
		c-0.1,0.1-0.1,0.1-0.2,0.1c-0.1,0-0.2,0-0.3,0c-0.1,0-0.3,0-0.4-0.1c-0.1-0.1-0.2-0.2-0.3-0.3l-0.4-1.1h-2.4l-0.4,1.1
		c0,0.1-0.1,0.2-0.2,0.3c-0.1,0.1-0.3,0.1-0.4,0.1c-0.1,0-0.2,0-0.3,0c-0.1,0-0.2-0.1-0.2-0.1c-0.1-0.1-0.1-0.1-0.1-0.2
		c0-0.1,0-0.2,0-0.3c0,0,0-0.1,0-0.1v-0.2v-0.1v-0.1L239.5,212.3z M240.4,213.4L240.4,213.4l-0.9,2.6h1.7L240.4,213.4z"/>
	<path class="st4" d="M244.2,212.7c0-0.2,0.1-0.5,0.2-0.7c0.2-0.2,0.4-0.2,0.7-0.2c0.1,0,0.3,0,0.4,0.1c0.1,0.1,0.2,0.2,0.3,0.3
		l2.5,4.1l0,0v-3.8c0-0.2,0-0.4,0.2-0.5c0.1-0.1,0.3-0.2,0.5-0.2c0.2,0,0.4,0.1,0.5,0.2c0.1,0.1,0.2,0.3,0.2,0.5v5
		c0,0.2-0.1,0.5-0.2,0.7c-0.2,0.2-0.4,0.3-0.6,0.2h-0.3c-0.1,0-0.1,0-0.2-0.1c-0.1,0-0.1-0.1-0.2-0.1c0-0.1-0.1-0.1-0.1-0.2l-2.5-4
		l0,0v3.7c0,0.2,0,0.4-0.2,0.5c-0.1,0.1-0.3,0.2-0.5,0.2c-0.3,0-0.6-0.2-0.7-0.6c0-0.1,0-0.1,0-0.2L244.2,212.7z"/>
	<path class="st4" d="M256.7,218c0,0.1,0,0.1,0,0.2c0,0.1-0.1,0.1-0.1,0.2c0,0-0.1,0.1-0.2,0.1c-0.1,0-0.1,0-0.2,0
		c-0.1,0-0.2,0-0.3,0c-0.1,0-0.1-0.1-0.2-0.2c-0.1-0.1-0.1-0.2-0.1-0.3c0-0.1,0-0.2-0.1-0.4c-0.1,0.1-0.2,0.3-0.3,0.4
		c-0.1,0.1-0.3,0.2-0.4,0.3c-0.2,0.1-0.3,0.1-0.5,0.2c-0.2,0-0.4,0.1-0.6,0.1c-0.3,0-0.7,0-1-0.1c-0.3-0.1-0.5-0.2-0.8-0.3
		c-0.2-0.1-0.4-0.3-0.6-0.5c-0.2-0.2-0.3-0.4-0.4-0.7c-0.1-0.3-0.2-0.5-0.2-0.8c0-0.3-0.1-0.6-0.1-0.9c0-0.5,0.1-1,0.2-1.5
		c0.1-0.4,0.4-0.8,0.7-1.1c0.3-0.3,0.6-0.5,1-0.7c0.4-0.2,0.9-0.2,1.3-0.2c0.2,0,0.5,0,0.7,0.1c0.2,0,0.4,0.1,0.6,0.2
		c0.2,0.1,0.3,0.2,0.5,0.3c0.1,0.1,0.2,0.2,0.3,0.3c0.1,0.1,0.2,0.2,0.2,0.3c0,0.1,0.1,0.2,0.1,0.3c0,0.1,0,0.2-0.1,0.3
		c0,0.1-0.1,0.1-0.2,0.2c-0.1,0-0.1,0.1-0.2,0.1h-0.2c-0.1,0-0.2,0-0.2,0c-0.1,0-0.1-0.1-0.2-0.1l-0.1-0.2l-0.1-0.2l-0.2-0.2
		c-0.1-0.1-0.2-0.1-0.2-0.2c-0.1-0.1-0.2-0.1-0.3-0.1c-0.2,0-0.3,0-0.5,0c-0.2,0-0.5,0-0.7,0.1c-0.2,0.1-0.4,0.2-0.6,0.4
		c-0.2,0.2-0.3,0.5-0.4,0.7c-0.1,0.3-0.1,0.7-0.1,1.1c0,0.3,0,0.6,0.1,0.9c0.1,0.2,0.2,0.5,0.3,0.7c0.2,0.2,0.3,0.3,0.6,0.4
		c0.2,0.1,0.5,0.2,0.8,0.2c0.2,0,0.4,0,0.6-0.1c0.4-0.1,0.6-0.4,0.8-0.7c0.1-0.2,0.1-0.4,0.1-0.6h-0.9h-0.2c-0.1,0-0.1-0.1-0.2-0.1
		c-0.1,0-0.1-0.1-0.2-0.2c-0.1-0.2-0.1-0.5,0.1-0.7c0.1-0.1,0.3-0.2,0.4-0.2h1.8c0.2,0,0.3,0,0.5,0.2c0.1,0.1,0.1,0.3,0.1,0.5
		L256.7,218z"/>
	<path class="st4" d="M257.9,212.5c0-0.1,0-0.2,0-0.3c0-0.1,0.1-0.2,0.1-0.2c0.1-0.1,0.2-0.1,0.3-0.1c0.1,0,0.2,0,0.3,0
		c0.1,0,0.2,0,0.3,0c0.1,0,0.2,0.1,0.2,0.1c0.1,0.1,0.1,0.1,0.1,0.2c0,0.1,0,0.2,0,0.3v2.2l2.4-2.6c0.1-0.1,0.1-0.2,0.2-0.2
		c0.1-0.1,0.2-0.1,0.3-0.1c0.1,0,0.2,0,0.3,0c0.1,0,0.2,0.1,0.3,0.2c0.1,0.1,0.1,0.1,0.2,0.2c0,0.1,0,0.2,0,0.2c0,0.1,0,0.2-0.1,0.2
		c0,0.1-0.1,0.2-0.2,0.2l-1.6,1.6l1.8,2.7c0.1,0.1,0.1,0.2,0.2,0.3c0,0.1,0.1,0.2,0.1,0.3c0,0.1,0,0.2,0,0.3c0,0.1-0.1,0.2-0.2,0.3
		c-0.1,0.1-0.2,0.1-0.3,0.1c-0.1,0-0.2,0-0.3,0c-0.1,0-0.2-0.1-0.3-0.1c-0.1-0.1-0.2-0.2-0.2-0.3l-1.6-2.6l-0.8,0.8v1.4
		c0,0.1,0,0.2,0,0.3c0,0.1-0.1,0.2-0.1,0.2c-0.1,0.1-0.1,0.1-0.2,0.1c-0.1,0-0.2,0-0.3,0c-0.1,0-0.2,0-0.3,0c-0.1,0-0.2-0.1-0.2-0.1
		c-0.1-0.1-0.1-0.1-0.1-0.2c0-0.1,0-0.2,0-0.3L257.9,212.5z"/>
	<path class="st4" d="M265.5,215.6v2.2c0,0.1,0,0.2,0,0.3c0,0.1-0.1,0.2-0.2,0.2c-0.1,0.1-0.1,0.1-0.2,0.1c-0.2,0.1-0.4,0.1-0.5,0
		c-0.1,0-0.2-0.1-0.2-0.1c-0.1-0.1-0.1-0.1-0.2-0.2c0-0.1,0-0.2,0-0.3v-5.3c0-0.1,0-0.2,0-0.3c0-0.1,0.1-0.2,0.2-0.2
		c0.1-0.1,0.1-0.1,0.2-0.1c0.2-0.1,0.4-0.1,0.5,0c0.1,0,0.2,0.1,0.2,0.1c0.1,0.1,0.1,0.1,0.2,0.2c0,0.1,0,0.2,0,0.3v2h2.7v-2
		c0-0.1,0-0.2,0-0.3c0-0.1,0.1-0.2,0.2-0.2c0.1-0.1,0.1-0.1,0.2-0.1c0.2-0.1,0.4-0.1,0.5,0c0.1,0,0.2,0.1,0.2,0.1
		c0.1,0.1,0.2,0.3,0.2,0.5v5.3c0,0.2-0.1,0.4-0.2,0.5c-0.1,0.1-0.1,0.1-0.2,0.1c-0.2,0.1-0.4,0.1-0.5,0c-0.1,0-0.2-0.1-0.2-0.1
		c-0.1-0.1-0.1-0.1-0.2-0.2c0-0.1,0-0.2,0-0.3v-2.2L265.5,215.6z"/>
	<path class="st4" d="M272.6,212.3c0-0.1,0.1-0.3,0.3-0.3c0.1-0.1,0.3-0.1,0.4-0.1h0.3h0.2c0.1,0,0.1,0,0.2,0.1
		c0.1,0,0.1,0.1,0.2,0.2c0.1,0.1,0.1,0.2,0.1,0.3l1.8,4.9v0.1v0.1v0.2c0,0,0,0.1,0,0.1c0,0.1,0,0.2,0,0.3c0,0.1-0.1,0.1-0.1,0.2
		c-0.1,0.1-0.1,0.1-0.2,0.1c-0.1,0-0.2,0-0.3,0c-0.1,0-0.3,0-0.4-0.1c-0.1-0.1-0.2-0.2-0.3-0.3l-0.4-1.1h-2.4l-0.4,1.1
		c0,0.1-0.1,0.2-0.2,0.3c-0.1,0.1-0.3,0.1-0.4,0.1c-0.1,0-0.2,0-0.3,0c-0.1,0-0.2-0.1-0.2-0.1c-0.1-0.1-0.1-0.1-0.1-0.2
		c0-0.1,0-0.2,0-0.3c0,0,0-0.1,0-0.1v-0.2v-0.1v-0.1L272.6,212.3z M273.5,213.4L273.5,213.4l-0.9,2.6h1.7L273.5,213.4z"/>
	<path class="st4" d="M277.3,212.7c0-0.2,0.1-0.5,0.2-0.7c0.2-0.2,0.4-0.2,0.7-0.2c0.1,0,0.3,0,0.4,0.1c0.1,0.1,0.2,0.2,0.3,0.3
		l2.5,4.1l0,0v-3.8c0-0.2,0-0.4,0.2-0.5c0.1-0.1,0.3-0.2,0.5-0.2c0.2,0,0.4,0.1,0.5,0.2c0.1,0.1,0.2,0.3,0.2,0.5v5
		c0,0.2-0.1,0.5-0.2,0.7c-0.2,0.2-0.4,0.3-0.6,0.2h-0.3c-0.1,0-0.1,0-0.2-0.1c-0.1,0-0.1-0.1-0.2-0.1c0-0.1-0.1-0.1-0.1-0.2l-2.5-4
		l0,0v3.7c0,0.2-0.1,0.4-0.2,0.5c-0.1,0.1-0.3,0.2-0.5,0.2c-0.3,0-0.6-0.2-0.7-0.6c0-0.1,0-0.1,0-0.2L277.3,212.7z"/>
	<path class="st4" d="M289.8,218c0,0.1,0,0.1,0,0.2c0,0.1-0.1,0.1-0.1,0.2c0,0-0.1,0.1-0.2,0.1c-0.1,0-0.1,0-0.2,0
		c-0.1,0-0.2,0-0.3,0c-0.1,0-0.1-0.1-0.2-0.2c-0.1-0.1-0.1-0.2-0.1-0.3c0-0.1,0-0.2-0.1-0.4c-0.1,0.1-0.2,0.3-0.3,0.4
		c-0.1,0.1-0.3,0.2-0.4,0.3c-0.2,0.1-0.3,0.1-0.5,0.2c-0.2,0-0.4,0.1-0.6,0.1c-0.3,0-0.7,0-1-0.1c-0.3-0.1-0.5-0.2-0.8-0.3
		c-0.2-0.1-0.4-0.3-0.6-0.5c-0.2-0.2-0.3-0.4-0.4-0.7c-0.1-0.3-0.2-0.5-0.2-0.8c0-0.3-0.1-0.6-0.1-0.9c0-0.5,0.1-1,0.2-1.5
		c0.1-0.4,0.4-0.8,0.7-1.1c0.3-0.3,0.6-0.5,1-0.7c0.4-0.2,0.9-0.2,1.3-0.2c0.2,0,0.5,0,0.7,0.1c0.2,0,0.4,0.1,0.6,0.2
		c0.2,0.1,0.3,0.2,0.5,0.3c0.1,0.1,0.2,0.2,0.3,0.3c0.1,0.1,0.2,0.2,0.2,0.3c0,0.1,0.1,0.2,0.1,0.3c0,0.1,0,0.2-0.1,0.3
		c0,0.1-0.1,0.1-0.2,0.2c-0.1,0-0.1,0.1-0.2,0.1h-0.2c-0.1,0-0.2,0-0.2,0c-0.1,0-0.1-0.1-0.2-0.1l-0.1-0.2l-0.1-0.2l-0.2-0.2
		c-0.1-0.1-0.2-0.1-0.2-0.2c-0.1-0.1-0.2-0.1-0.3-0.1c-0.2,0-0.3,0-0.5,0c-0.2,0-0.5,0-0.7,0.1c-0.2,0.1-0.4,0.2-0.6,0.4
		c-0.2,0.2-0.3,0.5-0.4,0.7c-0.1,0.3-0.1,0.7-0.1,1.1c0,0.3,0,0.6,0.1,0.9c0.1,0.2,0.2,0.5,0.3,0.7c0.2,0.2,0.3,0.3,0.6,0.4
		c0.2,0.1,0.5,0.2,0.8,0.2c0.2,0,0.4,0,0.6-0.1c0.4-0.1,0.6-0.4,0.8-0.7c0.1-0.2,0.1-0.4,0.1-0.6h-0.9h-0.2c-0.1,0-0.1-0.1-0.2-0.1
		c-0.1,0-0.1-0.1-0.2-0.2c-0.1-0.2-0.1-0.5,0.1-0.7c0.1-0.1,0.3-0.2,0.4-0.2h1.8c0.2,0,0.3,0,0.5,0.2c0.1,0.1,0.1,0.3,0.1,0.5
		L289.8,218z"/>
	<polygon class="st5" points="310.8,150.5 310.8,252.8 310.8,263 310.8,274.8 71.1,274.8 71.1,263 71.1,252.8 71.1,150.5 
		34.5,150.5 34.5,252.8 34.5,263 34.5,324 347.4,324 347.4,263 347.4,252.8 347.4,150.5 	"/>
	<polygon class="st6" points="34.1,324 26.4,324 26.4,264.6 79.3,264.6 79.3,324 	"/>
	<polygon class="st1" points="34.1,274.8 26.4,274.8 26.4,264.6 79.3,264.6 79.3,274.8 	"/>
	<polygon class="st1" points="39.9,168.2 34.5,168.2 34.5,158 71.1,158 71.1,168.2 	"/>
	<polygon class="st1" points="316.1,168.2 310.8,168.2 310.8,158 347.4,158 347.4,168.2 	"/>
	<polygon class="st7" points="329.1,117.6 329.1,109 191,109 52.8,109 52.8,117.6 0,154.2 191,154.2 381.9,154.2 	"/>
	<polygon class="st2" points="376.5,154.2 371,154.2 365.6,154.2 360.1,154.2 354.6,154.2 349.2,154.2 343.7,154.2 338.3,154.2 
		332.8,154.2 327.4,154.2 321.9,154.2 316.4,154.2 311,154.2 305.5,154.2 300.1,154.2 294.6,154.2 289.2,154.2 283.7,154.2 
		278.3,154.2 272.8,154.2 267.3,154.2 261.9,154.2 256.4,154.2 251,154.2 245.5,154.2 240.1,154.2 234.6,154.2 229.2,154.2 
		223.7,154.2 218.2,154.2 212.8,154.2 207.3,154.2 201.9,154.2 196.4,154.2 191,154.2 185.5,154.2 180,154.2 174.6,154.2 
		169.1,154.2 163.7,154.2 158.2,154.2 152.8,154.2 147.3,154.2 141.9,154.2 136.4,154.2 130.9,154.2 125.5,154.2 120,154.2 
		114.6,154.2 109.1,154.2 103.7,154.2 98.2,154.2 92.8,154.2 87.3,154.2 81.8,154.2 76.4,154.2 70.9,154.2 65.5,154.2 60,154.2 
		54.6,154.2 49.1,154.2 43.6,154.2 38.2,154.2 32.7,154.2 27.3,154.2 21.8,154.2 16.4,154.2 10.9,154.2 5.5,154.2 0,154.2 0,161.2 
		2.7,164.3 5.5,161.2 8.2,164.3 10.9,161.2 13.6,164.3 16.4,161.2 19.1,164.3 21.8,161.2 24.5,164.3 27.3,161.2 30,164.3 
		32.7,161.2 35.5,164.3 38.2,161.2 40.9,164.3 43.6,161.2 46.4,164.3 49.1,161.2 51.8,164.3 54.6,161.2 57.3,164.3 60,161.2 
		62.7,164.3 65.5,161.2 68.2,164.3 70.9,161.2 73.7,164.3 76.4,161.2 79.1,164.3 81.8,161.2 84.6,164.3 87.3,161.2 90,164.3 
		92.8,161.2 95.5,164.3 98.2,161.2 100.9,164.3 103.7,161.2 106.4,164.3 109.1,161.2 111.8,164.3 114.6,161.2 117.3,164.3 
		120,161.2 122.8,164.3 125.5,161.2 128.2,164.3 130.9,161.2 133.7,164.3 136.4,161.2 139.1,164.3 141.9,161.2 144.6,164.3 
		147.3,161.2 150,164.3 152.8,161.2 155.5,164.3 158.2,161.2 161,164.3 163.7,161.2 166.4,164.3 169.1,161.2 171.9,164.3 
		174.6,161.2 177.3,164.3 180,161.2 182.8,164.3 185.5,161.2 188.2,164.3 191,161.2 193.7,164.3 196.4,161.2 199.1,164.3 
		201.9,161.2 204.6,164.3 207.3,161.2 210.1,164.3 212.8,161.2 215.5,164.3 218.2,161.2 221,164.3 223.7,161.2 226.4,164.3 
		229.2,161.2 231.9,164.3 234.6,161.2 237.3,164.3 240.1,161.2 242.8,164.3 245.5,161.2 248.2,164.3 251,161.2 253.7,164.3 
		256.4,161.2 259.2,164.3 261.9,161.2 264.6,164.3 267.3,161.2 270.1,164.3 272.8,161.2 275.5,164.3 278.3,161.2 281,164.3 
		283.7,161.2 286.4,164.3 289.2,161.2 291.9,164.3 294.6,161.2 297.4,164.3 300.1,161.2 302.8,164.3 305.5,161.2 308.3,164.3 
		311,161.2 313.7,164.3 316.4,161.2 319.2,164.3 321.9,161.2 324.6,164.3 327.4,161.2 330.1,164.3 332.8,161.2 335.5,164.3 
		338.3,161.2 341,164.3 343.7,161.2 346.5,164.3 349.2,161.2 351.9,164.3 354.6,161.2 357.4,164.3 360.1,161.2 362.8,164.3 
		365.6,161.2 368.3,164.3 371,161.2 373.7,164.3 376.5,161.2 379.2,164.3 381.9,161.2 381.9,154.2 	"/>
	<rect x="52.8" y="109" class="st2" width="276.2" height="8.5"/>
	<polygon class="st8" points="269.6,97.4 269.6,91.3 191,91.3 112.3,91.3 112.3,97.4 82.2,123.4 191,123.4 299.7,123.4 	"/>
	<polygon class="st2" points="293.7,123.1 288.3,123.1 282.9,123.1 277.5,123.1 272,123.1 266.6,123.1 261.2,123.1 255.8,123.1 
		250.3,123.1 244.9,123.1 239.5,123.1 234.1,123.1 228.6,123.1 223.2,123.1 217.8,123.1 212.4,123.1 206.9,123.1 201.5,123.1 
		196.1,123.1 190.7,123.1 185.2,123.1 179.8,123.1 174.4,123.1 169,123.1 163.5,123.1 158.1,123.1 152.7,123.1 147.3,123.1 
		141.9,123.1 136.4,123.1 131,123.1 125.6,123.1 120.1,123.1 114.7,123.1 109.3,123.1 103.9,123.1 98.5,123.1 93,123.1 87.6,123.1 
		82.2,123.1 82.2,130.1 84.9,133.1 87.6,130.1 90.3,133.1 93,130.1 95.7,133.1 98.5,130.1 101.2,133.1 103.9,130.1 106.6,133.1 
		109.3,130.1 112,133.1 114.7,130.1 117.4,133.1 120.1,130.1 122.9,133.1 125.6,130.1 128.3,133.1 131,130.1 133.7,133.1 
		136.4,130.1 139.1,133.1 141.9,130.1 144.6,133.1 147.3,130.1 150,133.1 152.7,130.1 155.4,133.1 158.1,130.1 160.8,133.1 
		163.5,130.1 166.3,133.1 169,130.1 171.7,133.1 174.4,130.1 177.1,133.1 179.8,130.1 182.5,133.1 185.2,130.1 188,133.1 
		190.7,130.1 193.4,133.1 196.1,130.1 198.8,133.1 201.5,130.1 204.2,133.1 206.9,130.1 209.7,133.1 212.4,130.1 215.1,133.1 
		217.8,130.1 220.5,133.1 223.2,130.1 225.9,133.1 228.6,130.1 231.3,133.1 234.1,130.1 236.8,133.1 239.5,130.1 242.2,133.1 
		244.9,130.1 247.6,133.1 250.3,130.1 253.1,133.1 255.8,130.1 258.5,133.1 261.2,130.1 263.9,133.1 266.6,130.1 269.3,133.1 
		272,130.1 274.7,133.1 277.5,130.1 280.2,133.1 282.9,130.1 285.6,133.1 288.3,130.1 291,133.1 293.7,130.1 296.4,133.1 
		299.2,130.1 299.2,123.1 	"/>
	<rect x="112.3" y="91.3" class="st2" width="157.4" height="6.1"/>
	<rect x="295.1" y="63.6" class="st9" width="33.3" height="23.7"/>
	<rect x="295.1" y="63.6" class="st10" width="33.3" height="4.7"/>
	<rect x="295.1" y="82.5" class="st10" width="33.3" height="4.7"/>
	<rect x="295.1" y="72.1" class="st11" width="33.3" height="6.7"/>
	<polygon class="st6" points="309.5,324 301.8,324 301.8,273.2 354.7,273.2 354.7,324 	"/>
	<polygon class="st1" points="309.5,274.8 301.8,274.8 301.8,264.6 354.7,264.6 354.7,274.8 	"/>
	<path class="st12" d="M245.8,302.4c0,0,13.6-10.7-8.4-16.6c-22-5.8-9.5,14.3-9.5,14.3s-7.9-13.7-17.1-13.3
		c-9.2,0.4-8.6,12.2-3.3,13.3c0,0-18.3-14.6-24.6-5.7c-6.3,8.9,2.9,10.1,2.9,10.1s-10.4-11.3-17,2.8c-6.5,14,8,9.5,8,9.5
		s-7.6-1.9-6.8,4.5h69.2l6.7-14.8L245.8,302.4z"/>
	<path class="st0" d="M439.7,321.2c0,0,1.8-18.7-19.7-26.9c-21.5-8.2-40.6,8.1-40.6,8.1s7.8-11.3-14.9-19.4s-47.1-3.9-45.9,11.9
		c0,0,0.8-13.4-28.8-8.7c-29.6,4.8-22.9,19.2-22.9,19.2s-2.9-12.4-23.6-3c-20.7,9.4-8.8,18.9-8.8,18.9L439.7,321.2z"/>
</g>
</svg>
