<?xml version="1.0" encoding="utf-8"?>
<!-- Generator: Adobe Illustrator 21.0.0, SVG Export Plug-In . SVG Version: 6.00 Build 0)  -->
<svg version="1.1" id="Layer_1" xmlns="http://www.w3.org/2000/svg" xmlns:xlink="http://www.w3.org/1999/xlink" x="0px" y="0px"
	 viewBox="0 0 1920.9 1084" style="enable-background:new 0 0 1920.9 1084;" xml:space="preserve">
<style type="text/css">
	.st0{fill:url(#SVGID_1_);}
	.st1{fill:#FFFFFF;}
	.st2{fill:url(#SVGID_2_);}
	.st3{fill:url(#SVGID_3_);}
	.st4{fill:url(#SVGID_4_);}
</style>
<title>ภูฏาน</title>
<linearGradient id="SVGID_1_" gradientUnits="userSpaceOnUse" x1="2518.8899" y1="372.69" x2="2518.8899" y2="789.9" gradientTransform="matrix(-1 0 0 -1 3143.79 1084)">
	<stop  offset="0" style="stop-color:#FCC189"/>
	<stop  offset="0.18" style="stop-color:#F7C089"/>
	<stop  offset="0.39" style="stop-color:#E8BB8B"/>
	<stop  offset="0.62" style="stop-color:#D0B48D"/>
	<stop  offset="0.87" style="stop-color:#AEAA8F"/>
	<stop  offset="1" style="stop-color:#99A491"/>
</linearGradient>
<path class="st0" d="M764.4,533.5H420.3c0,0,16.7-112.4,128.6-100.5c0,0,8.3-88.5,83.5-59.6c0,0,35.1,13.6,28.4,59.6
	c0,0,10-18.7,35.1-10.2c0,0,18.4,8.5,15,27.3c0,0,33.4-11.9,35.1,20.4c0,0,78.5,6.8,83.5,63H764.4z"/>
<path class="st1" d="M1562.3,364.8c0-4.5-18.8-8.2-41.9-8.2c-7.5,0-14.9,0.4-22.3,1.3c-2-0.2-4.1-0.3-6.4-0.3
	c-2.2-2.8-14.5-4.9-29.2-4.9c-4.3,0-8.3,0.2-11.9,0.5c-4-2.3-8.6-4.3-25-5.1c-19.9-1-34,1.8-36.9,4.4c-3.6-0.3-2.7,0.8-7,0.8
	c-7-0.1-13.9,0.5-20.8,1.7c-2.3-0.3-4.7-0.5-7-0.5c-6.4,0-11.6,1-11.6,2.3c0,0,0,0.1,0,0.1c-18.9,0.4-33.5,3.5-33.5,7.3
	c0,0.2,0,0.4,0.1,0.6h-0.1L1562.3,364.8C1562.3,364.9,1562.3,364.8,1562.3,364.8L1562.3,364.8z"/>
<path class="st1" d="M176.8,315.4c0-9-8.2-16.3-18.3-16.3c-3.4,0-6.8,0.9-9.7,2.5c-0.9-0.4-1.8-0.6-2.8-0.6c-1-5.5-6.3-9.7-12.7-9.7
	c-1.8,0-3.6,0.3-5.2,1c-1.7-4.5-3.8-8.6-10.9-10.2c-8.7-1.9-14.8,3.6-16.1,8.8c-1.6-0.6-1.2,1.7-3,1.7c-3.4,0-6.6,1.2-9.1,3.5
	c-0.9-0.6-2-0.9-3.1-0.9c-2.6-0.1-4.9,1.9-5.1,4.5c0,0,0,0.1,0,0.2c-8.2,0.8-14.6,7.1-14.6,14.7c0,0.4,0,0.8,0.1,1.2h-0.1h110.5
	C176.8,315.5,176.8,315.5,176.8,315.4L176.8,315.4z"/>
<linearGradient id="SVGID_2_" gradientUnits="userSpaceOnUse" x1="236.005" y1="525.48" x2="236.005" y2="942.69" gradientTransform="matrix(1 0 0 -1 0 1084)">
	<stop  offset="0" style="stop-color:#FCC189"/>
	<stop  offset="0.18" style="stop-color:#F7C089"/>
	<stop  offset="0.39" style="stop-color:#E8BB8B"/>
	<stop  offset="0.62" style="stop-color:#D0B48D"/>
	<stop  offset="0.87" style="stop-color:#AEAA8F"/>
	<stop  offset="1" style="stop-color:#99A491"/>
</linearGradient>
<path class="st2" d="M96.5,450.6h344.1c0,0-16.7-112.4-128.6-100.5c0,0-8.4-88.5-83.5-59.6c0,0-35.1,13.6-28.4,59.6
	c0,0-10-18.7-35.1-10.2c0,0-18.4,8.5-15,27.3c0,0-33.4-11.9-35.1,20.4c0,0-78.5,6.8-83.5,63H96.5z"/>
<linearGradient id="SVGID_3_" gradientUnits="userSpaceOnUse" x1="1740.67" y1="725.9" x2="1740.67" y2="926.21" gradientTransform="matrix(1 0 0 -1 0 1084)">
	<stop  offset="0" style="stop-color:#FCC189"/>
	<stop  offset="0.18" style="stop-color:#F7C089"/>
	<stop  offset="0.39" style="stop-color:#E8BB8B"/>
	<stop  offset="0.62" style="stop-color:#D0B48D"/>
	<stop  offset="0.87" style="stop-color:#AEAA8F"/>
	<stop  offset="1" style="stop-color:#99A491"/>
</linearGradient>
<path class="st3" d="M1649,306.3h226.1c0,0-11-54-84.5-48.2c0,0-5.5-42.5-54.9-28.6c0,0-23,6.5-18.7,28.6c0,0-6.6-9-23-4.9
	c0,0-12.1,4.1-9.9,13.1c0,0-21.9-5.7-23,9.8c0,0-51.6,3.3-54.9,30.3L1649,306.3z"/>
<linearGradient id="SVGID_4_" gradientUnits="userSpaceOnUse" x1="2371.3401" y1="764.06" x2="2371.3401" y2="878.01" gradientTransform="matrix(-1 0 0 -1 3724.8201 1084)">
	<stop  offset="0" style="stop-color:#FCC189"/>
	<stop  offset="0.18" style="stop-color:#F7C089"/>
	<stop  offset="0.39" style="stop-color:#E8BB8B"/>
	<stop  offset="0.62" style="stop-color:#D0B48D"/>
	<stop  offset="0.87" style="stop-color:#AEAA8F"/>
	<stop  offset="1" style="stop-color:#99A491"/>
</linearGradient>
<path class="st4" d="M1444.6,290.5h-224.9c0,0,10.9-30.7,84.1-27.4c0,0,5.5-24.2,54.6-16.3c0,0,22.9,3.7,18.6,16.3
	c0,0,6.6-5.1,22.9-2.8c0,0,12,2.3,9.8,7.4c0,0,21.8-3.3,22.9,5.6c0,0,51.3,1.9,54.6,17.2L1444.6,290.5z"/>
<path class="st1" d="M1595.9,246.7c0-4.5-5.6-8.2-12.6-8.2c-2.3,0-4.6,0.4-6.7,1.3c-0.6-0.2-1.3-0.3-1.9-0.3
	c-0.7-2.8-4.3-4.9-8.8-4.9c-1.2,0-2.4,0.2-3.6,0.5c-1.2-2.3-2.6-4.3-7.5-5.1c-6-1-10.2,1.8-11.1,4.4c-1.1-0.3-0.8,0.8-2.1,0.8
	c-2.2,0-4.4,0.6-6.3,1.7c-0.7-0.3-1.4-0.5-2.1-0.5c-1.9,0-3.5,1-3.5,2.3c0,0,0,0.1,0,0.1c-5.7,0.4-10.1,3.6-10.1,7.4
	c0,0.2,0,0.4,0,0.6l0,0L1595.9,246.7C1595.9,246.8,1595.9,246.7,1595.9,246.7L1595.9,246.7z"/>
<path class="st1" d="M779.5,491.6c0-4.5-5.6-8.2-12.5-8.2c-2.3,0-4.5,0.4-6.7,1.3c-0.6-0.2-1.3-0.3-1.9-0.3
	c-0.7-2.8-4.3-4.9-8.7-4.9c-1.2,0-2.4,0.2-3.6,0.5c-1.2-2.3-2.6-4.3-7.5-5.1c-5.9-1-10.1,1.8-11,4.4c-1.1-0.3-0.8,0.8-2.1,0.8
	c-2.2,0-4.4,0.6-6.2,1.7c-0.7-0.3-1.4-0.5-2.1-0.5c-1.9,0-3.5,1-3.5,2.3c0,0,0,0,0,0.1c-5.6,0.4-10,3.5-10,7.3c0,0.2,0,0.4,0,0.6
	l0,0L779.5,491.6C779.5,491.7,779.5,491.6,779.5,491.6L779.5,491.6z"/>
</svg>
