<?xml version="1.0" encoding="utf-8"?>
<!-- Generator: Adobe Illustrator 21.0.0, SVG Export Plug-In . SVG Version: 6.00 Build 0)  -->
<svg version="1.1" id="Layer_1" xmlns="http://www.w3.org/2000/svg" xmlns:xlink="http://www.w3.org/1999/xlink" x="0px" y="0px"
	 viewBox="0 0 560.8 288" style="enable-background:new 0 0 560.8 288;" xml:space="preserve">
<style type="text/css">
	.st0{fill:#B34830;}
	.st1{fill:#262826;}
	.st2{fill:#8E4420;}
	.st3{fill:#3F4140;}
	.st4{fill:#BEBDBF;}
	.st5{fill:#444345;}
	.st6{fill:#A2D7F2;}
	.st7{fill:#80C6DD;}
</style>
<title>รถ tractor</title>
<g id="รถ_tractor">
	<path class="st0" d="M553.8,146h-255v86.5h262.1V146H553.8z M305.8,151.6h248v6.9h-248V151.6z M305.8,164.1h248v6.9h-248V164.1z
		 M305.8,184.8v-8.1h248v8.1H305.8z"/>
	<rect x="298.7" y="229.3" class="st1" width="262.1" height="17.2"/>
	<path class="st0" d="M149.9,231.9H31.6v-46c0-10.8,8.8-19.6,19.6-19.6h0h189.9v65.6L149.9,231.9z"/>
	<path class="st2" d="M41.7,179.8h54.9c0.6,0,1,0.5,1,1v10.4c0,0.6-0.5,1-1,1H41.7c-0.6,0-1-0.5-1-1v-10.4
		C40.7,180.2,41.1,179.8,41.7,179.8z"/>
	<path class="st2" d="M41.5,195.1h55c0.6,0,1,0.5,1,1v2.8c0,0.6-0.5,1-1,1h-55c-0.6,0-1-0.5-1-1v-2.8
		C40.5,195.6,41,195.1,41.5,195.1z"/>
	<path class="st2" d="M41.5,201.9h55c0.6,0,1,0.5,1,1v2.8c0,0.6-0.5,1-1,1h-55c-0.6,0-1-0.5-1-1v-2.8
		C40.5,202.4,41,201.9,41.5,201.9z"/>
	<path class="st2" d="M41.5,208.7h55c0.6,0,1,0.5,1,1v2.8c0,0.6-0.5,1-1,1h-55c-0.6,0-1-0.5-1-1v-2.8
		C40.5,209.1,41,208.7,41.5,208.7z"/>
	<path class="st2" d="M41.5,215.4h55c0.6,0,1,0.5,1,1v2.8c0,0.6-0.5,1-1,1h-55c-0.6,0-1-0.5-1-1v-2.8
		C40.5,215.9,41,215.4,41.5,215.4z"/>
	<path class="st1" d="M46.2,198.6c-25.3-0.2-46,20.2-46.2,45.5c0,2.5,0.2,4.9,0.5,7.3h91.3c3.9-25-13.3-48.5-38.3-52.3
		C51.1,198.8,48.7,198.6,46.2,198.6z"/>
	<polygon class="st0" points="115.8,166 132.7,98.1 241.1,98.1 241.1,170.4 115.8,170.4 	"/>
	<path class="st1" d="M265.9,222.7h10.2c-2.3-36.9-34-64.9-70.9-62.6c-35.4,2.2-62.9,31.6-62.8,67.1c0,0.9,0,1.9,0.1,2.8h133.7
		c0-0.9,0.1-1.8,0.1-2.8h-10.3V222.7z"/>
	<polygon class="st1" points="86.2,229.3 148.7,229.3 156.9,246.5 82.4,246.5 	"/>
	<rect x="263" y="226.9" class="st1" width="28.3" height="10"/>
	<circle class="st3" cx="209.3" cy="226.9" r="60.8"/>
	<circle class="st1" cx="209.3" cy="226.9" r="31.7"/>
	<circle class="st3" cx="46.2" cy="244.8" r="42.9"/>
	<circle class="st1" cx="46.2" cy="244.8" r="22.1"/>
	<circle class="st4" cx="209.3" cy="226.9" r="26.9"/>
	<circle class="st4" cx="46.2" cy="244.8" r="18.1"/>
	<circle class="st5" cx="46.2" cy="244.8" r="7.9"/>
	<circle class="st5" cx="209.3" cy="226.9" r="10.6"/>
	<rect x="291.3" y="222.7" class="st3" width="7.4" height="17.9"/>
	<rect x="50.5" y="137.2" class="st3" width="14.2" height="29.1"/>
	<polygon class="st2" points="132.7,98.1 131.8,101.6 241.1,101.6 241.1,98.1 	"/>
	<rect x="127.7" y="92.7" class="st4" width="117.5" height="5.4"/>
	<path class="st6" d="M158.5,175.8c6.5-6.7,14.8-11.3,23.9-13.5v-58.6h-40l-17,72.1H158.5z"/>
	<rect x="190.4" y="103.7" class="st6" width="44.5" height="53.5"/>
	<rect x="305.8" y="191.6" class="st2" width="248" height="9.2"/>
	<rect x="305.8" y="204" class="st2" width="248" height="9.2"/>
	<rect x="305.8" y="216.6" class="st2" width="248" height="9.2"/>
	<polygon class="st7" points="190.4,157.2 234.8,103.7 190.4,103.7 	"/>
	<polygon class="st7" points="125.5,175.8 142.4,103.7 182.4,103.7 	"/>
	<path class="st4" d="M54.1,137.2v-20.5c0-0.8,0.4-1.5,1.1-1.9l6.6-4.1l2.5,4.2l-4.5,2.9c-0.6,0.4-1,1.1-1,1.9v17.6L54.1,137.2z"/>
	<path class="st1" d="M125.5,178.6h9.3l0,0v3.2c0,0.3-0.2,0.5-0.5,0.5l0,0H126c-0.3,0-0.5-0.2-0.5-0.5l0,0L125.5,178.6L125.5,178.6
		L125.5,178.6z"/>
	<circle class="st3" cx="338.8" cy="256.2" r="31.1"/>
	<circle class="st1" cx="338.8" cy="256.2" r="16"/>
	<circle class="st4" cx="338.8" cy="256.2" r="13.1"/>
	<circle class="st5" cx="338.8" cy="256.2" r="5.8"/>
	<circle class="st3" cx="523" cy="256.2" r="31.1"/>
	<circle class="st1" cx="523" cy="256.2" r="16"/>
	<circle class="st4" cx="523" cy="256.2" r="13.1"/>
	<circle class="st5" cx="523" cy="256.2" r="5.8"/>
</g>
</svg>
