<?xml version="1.0" encoding="utf-8"?>
<!-- Generator: Adobe Illustrator 21.0.0, SVG Export Plug-In . SVG Version: 6.00 Build 0)  -->
<svg version="1.1" id="Layer_1" xmlns="http://www.w3.org/2000/svg" xmlns:xlink="http://www.w3.org/1999/xlink" x="0px" y="0px"
	 viewBox="0 0 668 557.9" style="enable-background:new 0 0 668 557.9;" xml:space="preserve">
<style type="text/css">
	.st0{fill:#FFFFFF;}
	.st1{fill:#423B50;}
	.st2{fill:#A05D56;}
	.st3{fill:#D2AA62;}
	.st4{fill:#CD675D;}
	.st5{opacity:0.25;}
	.st6{fill:#484257;}
	.st7{opacity:0.18;fill:#423B50;enable-background:new    ;}
	.st8{fill:#D2AA64;}
</style>
<title>วัด</title>
<g>
	<g id="วัด">
		<rect x="113.1" y="321.3" class="st0" width="75.6" height="15.1"/>
		<rect x="121.4" y="285.6" class="st0" width="59.1" height="24.8"/>
		<polygon class="st1" points="150.9,342.3 150.9,342.3 85.3,342.3 92.4,354.3 150.9,354.3 150.9,354.3 209.4,354.3 216.5,342.3 		
			"/>
		<rect x="120.2" y="342.3" class="st2" width="6" height="12"/>
		<rect x="147.9" y="342.3" class="st2" width="6" height="12"/>
		<rect x="175.6" y="342.3" class="st2" width="6" height="12"/>
		<rect x="126.8" y="321.3" class="st2" width="6" height="15.1"/>
		<rect x="137.4" y="295.2" class="st2" width="6" height="15.2"/>
		<rect x="158.5" y="295.2" class="st2" width="6" height="15.2"/>
		<rect x="147.9" y="321.3" class="st2" width="6" height="15.1"/>
		<rect x="169" y="321.3" class="st2" width="6" height="15.1"/>
		<rect x="92.4" y="359.3" class="st0" width="117" height="69.3"/>
		<polygon class="st3" points="96.7,336.4 85.3,342.3 216.5,342.3 204.5,336.4 		"/>
		<rect x="75.7" y="445.2" class="st0" width="150.9" height="110.8"/>
		<polygon class="st4" points="75.7,470 75.7,504.9 226.5,504.9 226.5,466.9 75.7,466.9 		"/>
		<rect x="75.7" y="500.1" class="st2" width="150.9" height="4.8"/>
		<rect x="115.5" y="526.3" class="st1" width="10.8" height="20.2"/>
		<rect x="135.6" y="526.3" class="st1" width="10.8" height="20.2"/>
		<rect x="155.7" y="526.3" class="st1" width="10.8" height="20.2"/>
		<rect x="175.9" y="526.3" class="st1" width="10.8" height="20.2"/>
		<rect x="75.7" y="466.7" class="st2" width="150.9" height="5"/>
		<ellipse class="st3" cx="89.9" cy="485.5" rx="9.1" ry="9.1"/>
		<ellipse class="st3" cx="149.9" cy="485.5" rx="9.1" ry="9.1"/>
		<ellipse class="st3" cx="209.9" cy="485.5" rx="9.1" ry="9.1"/>
		<rect x="107.8" y="476" class="st1" width="26.5" height="35.2"/>
		<rect x="167.9" y="476" class="st1" width="26.5" height="35.2"/>
		<rect x="107.8" y="504.9" class="st3" width="26.5" height="6.3"/>
		<rect x="167.9" y="504.9" class="st3" width="26.5" height="6.3"/>
		<polygon class="st1" points="150.9,437.6 71.4,437.6 75.7,445.2 150.9,445.2 226.5,445.2 230.7,437.6 		"/>
		<rect x="88.6" y="437.6" class="st2" width="6.4" height="7.6"/>
		<rect x="118.2" y="437.6" class="st2" width="6.4" height="7.6"/>
		<rect x="147.7" y="437.6" class="st2" width="6.4" height="7.6"/>
		<rect x="177.2" y="437.6" class="st2" width="6.4" height="7.6"/>
		<rect x="206.8" y="437.6" class="st2" width="6.4" height="7.6"/>
		<path class="st3" d="M230.7,437.2l-7.4-4.4c7.9-4.6,2.4-15.7,2.4-15.7c-0.6,5.3-4.3,9.8-9.4,11.5l0,0h-131
			c-5.2-1.6-9-6.1-9.6-11.5c0,0-5.7,11.3,2.7,15.8l-6.9,4.3L230.7,437.2z"/>
		<polygon class="st4" points="92.4,378.2 92.4,413 209.4,413 209.4,375 92.4,375 		"/>
		<rect x="92.4" y="408.3" class="st2" width="117" height="4.8"/>
		<rect x="92.4" y="374.8" class="st2" width="117" height="5"/>
		<rect x="92.4" y="354.3" class="st2" width="116.9" height="5"/>
		<rect x="113.1" y="316.3" class="st2" width="75.6" height="5.1"/>
		<rect x="137.7" y="384.1" class="st1" width="26.5" height="28.9"/>
		<rect x="137.7" y="413" class="st3" width="26.5" height="6.3"/>
		<ellipse class="st3" cx="104.7" cy="393.9" rx="7.2" ry="7.2"/>
		<ellipse class="st3" cx="126.7" cy="393.9" rx="7.2" ry="7.2"/>
		<ellipse class="st3" cx="175" cy="393.9" rx="7.2" ry="7.2"/>
		<ellipse class="st3" cx="197.1" cy="393.9" rx="7.2" ry="7.2"/>
		<rect x="110.4" y="310.5" class="st2" width="80.9" height="6"/>
		<rect x="121.4" y="285.6" class="st1" width="59.1" height="4.9"/>
		<rect x="121.4" y="290.5" class="st2" width="59.1" height="4.7"/>
		<path class="st3" d="M183.6,277.3c0,4.9-8,6.3-8,6.3l0,0c-6-3.8-16.5-11.6-24.7-28.5c-8.3,16.9-18.7,24.8-24.7,28.3
			c0,0-7.6-1-7.6-5.9c-1.6,2.7-0.6,6.2,2.1,7.7c0.2,0.1,0.5,0.2,0.7,0.3h59.1c3.1-1.3,4.6-4.9,3.2-8
			C183.7,277.5,183.6,277.4,183.6,277.3z"/>
		<g class="st5">
			<path class="st1" d="M126.2,342.3H85.3l7.1,12v5l0,0v69.3h-7.2c-5.2-1.6-8.9-6.1-9.6-11.5c0,0-5.7,11.5,2.7,16l-6.9,4.5l4.2,7.6
				V556h75.2V342.3H126.2z"/>
			<polygon class="st1" points="85.3,342.3 150.9,342.3 150.9,336.4 96.7,336.4 			"/>
			<path class="st1" d="M126.2,283.4c0,0-7.6-0.9-7.6-5.8c0,0-2.9,5.5,2.8,8.1v24.8h-10.9v6h2.7v19.9h37.8v-81.4l0,0
				C142.6,271.9,132.2,279.9,126.2,283.4z"/>
		</g>
		<rect x="236.3" y="394.4" class="st0" width="396.7" height="163.5"/>
		<polygon class="st3" points="633,431.1 633,482.6 236.3,482.6 236.3,426.5 633,426.5 		"/>
		<rect x="236.3" y="475.5" class="st2" width="396.7" height="7"/>
		<rect x="558.3" y="514.1" class="st6" width="15.9" height="29.8"/>
		<rect x="528.6" y="514.1" class="st6" width="15.9" height="29.8"/>
		<rect x="498.9" y="514.1" class="st6" width="15.9" height="29.8"/>
		<rect x="469.3" y="514.1" class="st6" width="15.9" height="29.8"/>
		<rect x="236.3" y="426.2" class="st2" width="396.7" height="7.3"/>
		<rect x="546.5" y="439.9" class="st6" width="39" height="52"/>
		<rect x="457.9" y="439.9" class="st6" width="39" height="52"/>
		<rect x="546.5" y="482.6" class="st3" width="39" height="9.4"/>
		<rect x="457.9" y="482.6" class="st3" width="39" height="9.4"/>
		<polygon class="st6" points="522,383.3 639.2,383.3 633,394.4 522,394.4 236.4,394.4 230.1,383.3 		"/>
		<rect x="604.4" y="383.3" class="st3" width="9.5" height="11.2"/>
		<rect x="560.8" y="383.3" class="st3" width="9.5" height="11.2"/>
		<rect x="517.3" y="383.3" class="st3" width="9.5" height="11.2"/>
		<rect x="473.7" y="383.3" class="st3" width="9.5" height="11.2"/>
		<rect x="430.1" y="383.3" class="st3" width="9.5" height="11.2"/>
		<rect x="230.1" y="370" class="st2" width="409.1" height="13.3"/>
		<rect x="382" y="514.1" class="st6" width="15.9" height="29.8"/>
		<rect x="352.4" y="514.1" class="st6" width="15.9" height="29.8"/>
		<rect x="322.7" y="514.1" class="st6" width="15.9" height="29.8"/>
		<rect x="293" y="514.1" class="st6" width="15.9" height="29.8"/>
		<rect x="370.2" y="439.9" class="st6" width="39" height="52"/>
		<rect x="281.7" y="439.9" class="st6" width="39" height="52"/>
		<rect x="370.3" y="482.6" class="st3" width="39" height="9.4"/>
		<rect x="281.7" y="482.6" class="st3" width="39" height="9.4"/>
		<rect x="384.6" y="383.3" class="st3" width="9.5" height="11.2"/>
		<rect x="341" y="383.3" class="st3" width="9.5" height="11.2"/>
		<rect x="297.5" y="383.3" class="st3" width="9.5" height="11.2"/>
		<rect x="253.9" y="383.3" class="st3" width="9.5" height="11.2"/>
		<polygon class="st7" points="639.2,370.4 639.9,383.5 633.7,394.4 633.7,557.3 444.8,557.3 444.8,370.4 		"/>
		<rect x="296.2" y="266.9" class="st0" width="142.3" height="103.6"/>
		<rect x="296.2" y="282" class="st2" width="142.3" height="21.5"/>
		<rect x="340.3" y="287.1" class="st3" width="55.4" height="64.4"/>
		<rect x="334" y="277" class="st3" width="68" height="12.6"/>
		<rect x="375.5" y="298.5" class="st1" width="13.9" height="42.9"/>
		<rect x="346.6" y="298.5" class="st1" width="13.9" height="42.9"/>
		<polygon class="st1" points="340.6,256.4 457.9,256.4 451.7,267.5 340.6,267.5 283,267.5 276.8,256.4 		"/>
		<rect x="276.8" y="243.1" class="st2" width="181.1" height="13.3"/>
		<polygon class="st3" points="276.8,243.1 322.2,231.9 415.8,231.9 457.9,243.1 		"/>
		<rect x="325.1" y="201.2" class="st8" width="89.4" height="30.3"/>
		<rect x="317.6" y="186.1" class="st2" width="105.8" height="15.1"/>
		<path class="st2" d="M303.1,169.7c-0.1,10.2,15.7,12.6,15.7,12.6l0,0c12.4-7.6,34.1-24.2,51.2-59.2c17.1,35,38.8,51.4,51.2,58.5
			c0,0,15.8-2.1,15.7-12.3c0,0,6.1,10.8-5.7,16.7H308.9C297.1,180.1,303.1,169.7,303.1,169.7z"/>
		<polygon class="st8" points="322.2,231.9 325.1,231.5 414.6,231.5 415.8,231.9 389.4,237.5 340.3,238.9 		"/>
	</g>
</g>
</svg>
