<svg xmlns="http://www.w3.org/2000/svg" xmlns:xlink="http://www.w3.org/1999/xlink" viewBox="0 0 1920 1080"><defs><style>.cls-1,.cls-43,.cls-44{fill:none;}.cls-2{isolation:isolate;}.cls-3{font-size:23.93px;font-family:MyriadPro-Regular, Myriad Pro;}.cls-3,.cls-4{fill:#fff;}.cls-5{fill:#db474f;}.cls-6{fill:url(#linear-gradient);}.cls-7{fill:url(#linear-gradient-2);}.cls-8{fill:url(#linear-gradient-3);}.cls-9{fill:url(#linear-gradient-4);}.cls-10{clip-path:url(#clip-path);}.cls-11{fill:#51695c;}.cls-12{fill:#f3f3f3;}.cls-13{fill:#ccc;}.cls-14{fill:#301727;}.cls-15{fill:url(#linear-gradient-5);}.cls-16{fill:url(#linear-gradient-6);}.cls-17{fill:url(#linear-gradient-7);}.cls-18{fill:url(#linear-gradient-8);}.cls-19{fill:url(#linear-gradient-9);}.cls-20{fill:url(#linear-gradient-10);}.cls-21{fill:#cd675d;}.cls-22{fill:#a05d56;}.cls-23,.cls-25,.cls-29{fill:#423b50;}.cls-24{fill:#d2aa62;}.cls-25,.cls-29,.cls-33,.cls-40{opacity:0.18;}.cls-25,.cls-30,.cls-33,.cls-40{mix-blend-mode:multiply;}.cls-26{fill:#ca524c;}.cls-27{fill:#cd9c3c;}.cls-28{fill:#484257;}.cls-30{opacity:0.25;}.cls-31{fill:#ad4c3f;}.cls-32{fill:#c05745;}.cls-34{fill:#d2aa64;}.cls-35{fill:url(#linear-gradient-11);}.cls-36{fill:url(#linear-gradient-12);}.cls-37{fill:url(#linear-gradient-13);}.cls-38{fill:url(#linear-gradient-14);}.cls-39{fill:#c87378;}.cls-40{fill:#6972b6;}.cls-41{fill:#e8e8d6;}.cls-42{fill:#525c53;}.cls-43{stroke:#6b7f6f;stroke-linecap:round;stroke-linejoin:round;stroke-width:12.11px;}.cls-44{stroke:#fff;stroke-miterlimit:10;stroke-width:1.83px;}.cls-45{fill:#e9f2d2;}.cls-46{fill:#6b7f6f;}.cls-47{fill:#853b36;}</style><linearGradient id="linear-gradient" x1="1742.59" y1="376.94" x2="1742.59" y2="176.81" gradientUnits="userSpaceOnUse"><stop offset="0" stop-color="#fcc189"/><stop offset="0.18" stop-color="#f7c089"/><stop offset="0.39" stop-color="#e8bb8b"/><stop offset="0.62" stop-color="#d0b48d"/><stop offset="0.87" stop-color="#aeaa8f"/><stop offset="1" stop-color="#99a491"/></linearGradient><linearGradient id="linear-gradient-2" x1="1308.24" y1="730.74" x2="1308.24" y2="311.78" gradientTransform="matrix(-1, 0, 0, 1, 1936.07, 0)" xlink:href="#linear-gradient"/><linearGradient id="linear-gradient-3" x1="236.19" y1="577.31" x2="236.19" y2="158.35" xlink:href="#linear-gradient"/><linearGradient id="linear-gradient-4" x1="960.58" y1="1116" x2="960.58" y2="363.3" gradientUnits="userSpaceOnUse"><stop offset="0" stop-color="#d5b671"/><stop offset="0.24" stop-color="#d09966"/><stop offset="0.35" stop-color="#ce8a61"/><stop offset="0.51" stop-color="#d39270"/><stop offset="0.81" stop-color="#dfa896"/><stop offset="1" stop-color="#e7b7b2"/></linearGradient><clipPath id="clip-path"><rect class="cls-1" x="-8.92" y="-5.36" width="1933.21" height="865.8"/></clipPath><linearGradient id="linear-gradient-5" x1="1196.91" y1="804.77" x2="1662.47" y2="804.77" gradientUnits="userSpaceOnUse"><stop offset="0.64" stop-color="#a4554c"/><stop offset="0.83" stop-color="#9e4b41"/></linearGradient><linearGradient id="linear-gradient-6" x1="1418.6" y1="804.91" x2="1441.81" y2="804.91" xlink:href="#linear-gradient-5"/><linearGradient id="linear-gradient-7" x1="531.81" y1="805.47" x2="1770.52" y2="805.47" xlink:href="#linear-gradient-5"/><linearGradient id="linear-gradient-8" x1="645.49" y1="804.85" x2="2048.06" y2="804.85" xlink:href="#linear-gradient-5"/><linearGradient id="linear-gradient-9" x1="645.49" y1="805.12" x2="2048.06" y2="805.12" xlink:href="#linear-gradient-5"/><linearGradient id="linear-gradient-10" x1="645.49" y1="805.07" x2="2048.06" y2="805.07" xlink:href="#linear-gradient-5"/><linearGradient id="linear-gradient-11" x1="1206.36" y1="842.05" x2="1206.36" y2="905.33" xlink:href="#linear-gradient-4"/><linearGradient id="linear-gradient-12" x1="298.82" y1="1071.53" x2="298.82" y2="1022.52" xlink:href="#linear-gradient-4"/><linearGradient id="linear-gradient-13" x1="1335.59" y1="969.46" x2="1335.59" y2="906.19" xlink:href="#linear-gradient-4"/><linearGradient id="linear-gradient-14" x1="1550.47" y1="968.94" x2="1550.47" y2="905.67" xlink:href="#linear-gradient-4"/></defs><title>หน้าแรกยั่วๆ</title><g class="cls-2"><g id="หน้าแรก"><text class="cls-3" transform="translate(1704.9 745.08)">DENMARK</text><path class="cls-4" d="M176.57,333.2c0-9.06-8.24-16.41-18.39-16.41a19.94,19.94,0,0,0-9.79,2.52,8.07,8.07,0,0,0-2.81-.56c-1-5.54-6.35-9.79-12.83-9.79a14.27,14.27,0,0,0-5.24,1c-1.75-4.56-3.78-8.64-11-10.24-8.72-1.95-14.9,3.62-16.18,8.83-1.6-.64-1.19,1.68-3.05,1.68a13.5,13.5,0,0,0-9.13,3.44,5.47,5.47,0,0,0-3.08-.93A4.84,4.84,0,0,0,80,317.28c0,.06,0,.11,0,.16-8.28.83-14.71,7.1-14.71,14.72,0,.41,0,.81.06,1.21l-.06,0H176.56c0-.07,0-.14,0-.21Z"/><path class="cls-4" d="M783.44,510.11c0-4.54-5.65-8.22-12.6-8.22a17.75,17.75,0,0,0-6.71,1.26,7.34,7.34,0,0,0-1.93-.28c-.67-2.78-4.35-4.9-8.79-4.9a13,13,0,0,0-3.59.49c-1.2-2.28-2.59-4.33-7.52-5.13-6-1-10.21,1.81-11.09,4.42-1.09-.32-.81.84-2.09.84a11.39,11.39,0,0,0-6.26,1.72,4.78,4.78,0,0,0-2.11-.46c-1.93,0-3.49,1-3.49,2.27,0,0,0,.05,0,.08-5.67.42-10.09,3.56-10.09,7.37a4.93,4.93,0,0,0,0,.61l0,0h76.26s0-.07,0-.1Z"/><polygon class="cls-5" points="1097.08 505.67 1113.08 535.67 1129.08 505.67 1097.08 505.67"/><path class="cls-4" d="M1571.78,382.75c0-4.54-18.91-8.22-42.2-8.22a188,188,0,0,0-22.46,1.26c-2-.17-4.16-.27-6.46-.28-2.24-2.78-14.57-4.9-29.45-4.9-4.28,0-8.35.18-12,.49-4-2.28-8.68-4.33-25.19-5.13-20-1-34.2,1.81-37.13,4.42-3.67-.32-2.72.84-7,.84a112.75,112.75,0,0,0-21,1.72,49.55,49.55,0,0,0-7.06-.46c-6.45,0-11.67,1-11.67,2.27a.46.46,0,0,0,0,.08c-19,.42-33.77,3.56-33.77,7.37a1.57,1.57,0,0,0,.13.61l-.13,0h255.37s0-.07,0-.1Z"/><path class="cls-6" d="M1650.79,325.16h226.48s-11-53.91-84.66-48.19c0,0-5.5-42.48-55-28.59,0,0-23.09,6.53-18.69,28.59,0,0-6.6-9-23.09-4.9,0,0-12.09,4.08-9.89,13.07,0,0-22-5.72-23.09,9.8,0,0-51.67,3.27-55,30.22Z"/><path class="cls-4" d="M1597.59,265.64c0-4.54-5.65-8.22-12.6-8.22a17.75,17.75,0,0,0-6.71,1.26,7.34,7.34,0,0,0-1.93-.28c-.67-2.78-4.35-4.9-8.79-4.9a13,13,0,0,0-3.59.49c-1.2-2.28-2.59-4.33-7.52-5.13-6-1-10.21,1.81-11.09,4.42-1.09-.32-.81.84-2.09.84a11.39,11.39,0,0,0-6.26,1.72,4.78,4.78,0,0,0-2.11-.46c-1.93,0-3.49,1-3.49,2.27,0,0,0,.05,0,.08-5.67.42-10.09,3.56-10.09,7.37a4.93,4.93,0,0,0,0,.61l0,0h76.26s0-.07,0-.1Z"/><path class="cls-7" d="M768.29,552.21H421.78S438.6,439.34,551.3,451.31c0,0,8.41-88.92,84.1-59.85,0,0,35.32,13.68,28.6,59.85,0,0,10.09-18.81,35.32-10.26,0,0,18.5,8.55,15.14,27.36,0,0,33.64-12,35.32,20.52,0,0,79.06,6.84,84.1,63.27Z"/><path class="cls-4" d="M1914.85,432c-1.75-2.28-3.78-4.33-11-5.13-8.72-1-14.9,1.81-16.18,4.42-1.6-.32-1.19.84-3.05.84a22.59,22.59,0,0,0-9.13,1.72,9.73,9.73,0,0,0-3.08-.46c-2.81,0-5.09,1-5.09,2.27,0,0,0,.05,0,.08-8.28.42-14.71,3.56-14.71,7.37a2.16,2.16,0,0,0,.06.48s0-.1-.06-.1h67.44v-12A27.2,27.2,0,0,0,1914.85,432Z"/><path class="cls-8" d="M95.73,468.91H442.24S425.42,356.05,312.72,368c0,0-8.41-88.92-84.1-59.85,0,0-35.32,13.68-28.6,59.85,0,0-10.09-18.81-35.32-10.26,0,0-18.5,8.55-15.14,27.36,0,0-33.64-12-35.32,20.52,0,0-79.06,6.84-84.1,63.27Z"/><rect class="cls-9" x="1.08" y="628.29" width="1919" height="451.38"/><g class="cls-10"><path class="cls-11" d="M1590.59,475.88c33.71-.07,67,5.22,94.62,6.36-16.94-13.24-33.56-29.73-49.72-50-7.11-8.92-183.5,39-183.5,39-83.8,8.86-293.37-61-370.77-46.88-165.59,30.24-81.61,95.47-298,87.26l474.27,218c41.73-49.16,72.84-99,103.28-154.84C1424.65,457.55,1562.14,475.94,1590.59,475.88Z"/><path class="cls-12" d="M2069,514.82c-15.29-11.22-48-20.62-84.55-28-62.17-12.57-135.46-19.31-153.09-19.31-28,0-67.47-17.05-96.24,0-12.1,7.17-29.2,8.51-49.28,7.68-27.66-1.15-61-6.44-94.73-6.36-28.48.06-166.12-18.33-230.08,98.9-30.47,55.85-61.62,105.68-103.4,154.84-24.55,28.88-52.76,57.53-86.68,87l1022.64,1.19V676.37C2151.79,621.05,2110.26,545.14,2069,514.82Z"/><path class="cls-11" d="M-72.21,803.67V637.57c26.21-66.4,108.32-108,143.4-108,72.4,0,168.13,77,279.74,77S214.61,802.67,214.61,802.67Z"/><path class="cls-13" d="M64.53,590.73s-70.74-7.63-74.28,52.73-5,163.06-5,163.06l69.15-42.19s92.39-161.6,56.48-171.4S64.53,590.73,64.53,590.73Z"/><path class="cls-14" d="M1430.21,804.91l1.44.41Z"/><path class="cls-14" d="M1429.75,804.78l.45.13Z"/><path class="cls-14" d="M1429.69,804.77l.06,0Z"/><path class="cls-15" d="M1429.69,804.77l.06,0Z"/><path class="cls-14" d="M1430.2,804.91h0Z"/><path class="cls-16" d="M1430.2,804.91h0Z"/><path class="cls-14" d="M1431.64,805.32l1,.29Z"/><path class="cls-17" d="M1431.64,805.32l1,.29Z"/><path class="cls-18" d="M1429.75,804.78l.45.13Z"/><path class="cls-19" d="M1430.21,804.91l1.44.41Z"/><path class="cls-14" d="M1700.35,805.37l.25-.4-.84-.21Z"/><path class="cls-20" d="M1700.35,805.37l.25-.4-.84-.21Z"/><rect class="cls-4" x="1520.63" y="387.96" width="87.45" height="58.57"/><rect class="cls-4" x="1520.63" y="398.03" width="87.45" height="20.71"/><polygon class="cls-4" points="1520.63 396.01 1520.63 398.03 1608.08 398.03 1608.08 395.82 1520.63 395.82 1520.63 396.01"/><polygon class="cls-4" points="1520.63 418.93 1520.63 420.95 1608.08 420.95 1608.08 418.74 1520.63 418.74 1520.63 418.93"/><rect class="cls-4" x="1469.53" y="550.26" width="189.69" height="11.19"/><rect class="cls-4" x="1531.48" y="398.03" width="13.97" height="26.12"/><rect class="cls-4" x="1557.55" y="398.03" width="13.97" height="26.12"/><rect class="cls-4" x="1583.62" y="398.03" width="13.97" height="26.12"/><polygon class="cls-4" points="1564.16 589.22 1469.53 589.22 1474.54 598.2 1564.16 598.2 1654.19 598.2 1659.22 589.22 1564.16 589.22"/><rect class="cls-4" x="1469.53" y="550.26" width="9.76" height="11.49"/><rect class="cls-4" x="1514.51" y="550.26" width="9.76" height="11.49"/><rect class="cls-4" x="1559.5" y="550.26" width="9.76" height="11.49"/><rect class="cls-4" x="1604.48" y="550.26" width="9.76" height="11.49"/><rect class="cls-4" x="1649.46" y="550.26" width="9.76" height="11.49"/><rect class="cls-4" x="1469.53" y="561.44" width="189.69" height="27.78"/><rect class="cls-4" x="1486.02" y="511.87" width="155.67" height="27.78"/><rect class="cls-4" x="1503.46" y="446.54" width="121.79" height="55.26"/><polygon class="cls-4" points="1485.96 539.65 1469.53 550.25 1659.22 550.25 1641.92 539.65 1485.96 539.65"/><polygon class="cls-4" points="1435.8 735.55 1699.76 735.55 1699.76 804.77 1429.69 804.77 1429.69 735.55 1435.8 735.55"/><polygon class="cls-4" points="1443.04 696.45 1692.18 696.45 1692.18 735.55 1437.27 735.55 1437.27 696.45 1443.04 696.45"/><polygon class="cls-4" points="1460.59 610.41 1673.8 610.41 1673.8 697.38 1455.65 697.38 1455.65 610.41 1460.59 610.41"/><rect class="cls-4" x="1455.65" y="610.41" width="218.14" height="9.6"/><polygon class="cls-4" points="1455.65 646.72 1455.65 672.59 1673.8 672.59 1673.8 644.37 1455.65 644.37 1455.65 646.72"/><rect class="cls-4" x="1455.65" y="669.07" width="218.14" height="3.53"/><rect class="cls-4" x="1455.65" y="644.22" width="218.14" height="3.68"/><rect class="cls-4" x="1511.5" y="644.22" width="106.46" height="52.22"/><rect class="cls-4" x="1539.36" y="696.45" width="50.72" height="39.1"/><rect class="cls-4" x="1472.68" y="644.22" width="20.94" height="52.22"/><rect class="cls-4" x="1636.51" y="644.22" width="20.94" height="52.22"/><circle class="cls-4" cx="1627.23" cy="658.39" r="6.61"/><circle class="cls-4" cx="1502.56" cy="658.39" r="6.61"/><circle class="cls-4" cx="1496.21" cy="575.48" r="6.61"/><circle class="cls-4" cx="1541.65" cy="575.78" r="6.61"/><circle class="cls-4" cx="1587.1" cy="576.08" r="6.61"/><circle class="cls-4" cx="1632.54" cy="576.38" r="6.61"/><circle class="cls-4" cx="1526.05" cy="408.39" r="2.8"/><circle class="cls-4" cx="1551.35" cy="408.39" r="2.8"/><circle class="cls-4" cx="1577.42" cy="408.39" r="2.8"/><circle class="cls-4" cx="1602.84" cy="408.39" r="2.8"/><circle class="cls-4" cx="1464.23" cy="658.39" r="6.61"/><circle class="cls-4" cx="1665.65" cy="658.39" r="6.61"/><rect class="cls-4" x="1472.68" y="696.45" width="20.94" height="6.53"/><rect class="cls-4" x="1437.27" y="696.45" width="18.39" height="6.53"/><rect class="cls-4" x="1511.5" y="696.45" width="27.87" height="6.53"/><rect class="cls-4" x="1590.08" y="696.45" width="27.87" height="6.53"/><rect class="cls-4" x="1636.51" y="696.45" width="20.94" height="6.53"/><rect class="cls-4" x="1673.8" y="696.45" width="18.39" height="6.53"/><polygon class="cls-4" points="1474.55 598.2 1455.65 610.5 1673.8 610.5 1653.9 598.2 1474.55 598.2"/><path class="cls-4" d="M1474.55,598.2s-11.65-3.06-13.13-15.66c0,0-7.78,15.66,3.68,21.81s9.45-2.66,9.45-2.66Z"/><path class="cls-4" d="M1653.73,598.28s11.65-3.06,13.13-15.66c0,0,7.78,15.66-3.68,21.81s-9.45-2.66-9.45-2.66Z"/><polygon class="cls-4" points="1437.27 726.16 1437.27 735.55 1539.37 735.55 1539.37 725.3 1437.27 725.3 1437.27 726.16"/><polygon class="cls-4" points="1590.09 726.16 1590.09 735.55 1692.18 735.55 1692.18 725.3 1590.09 725.3 1590.09 726.16"/><rect class="cls-4" x="1437.27" y="725.3" width="102.1" height="3.68"/><rect class="cls-4" x="1590.08" y="725.3" width="102.1" height="3.68"/><rect class="cls-4" x="1503.46" y="451.72" width="121.79" height="8.72"/><rect class="cls-4" x="1520.63" y="383.6" width="87.45" height="8.37"/><rect class="cls-4" x="1486.02" y="508.13" width="155.67" height="9.55"/><polygon class="cls-4" points="1517.59 454.82 1498.27 454.82 1498.27 446.14 1630.44 446.14 1630.44 454.82 1517.59 454.82"/><rect class="cls-4" x="1510.6" y="465.62" width="19.42" height="27.7"/><rect class="cls-4" x="1539.98" y="465.62" width="19.42" height="27.7"/><rect class="cls-4" x="1569.35" y="465.62" width="19.42" height="27.7"/><rect class="cls-4" x="1598.73" y="465.62" width="19.42" height="27.7"/><polygon class="cls-4" points="1564.36 255.56 1520.63 387.96 1564.36 387.96 1608.08 387.96 1564.36 255.56"/><polygon class="cls-4" points="1580.61 304.77 1564.71 304.77 1564.04 304.77 1548.1 304.77 1536.48 323.35 1564.04 323.35 1564.71 323.35 1592.26 323.35 1580.61 304.77"/><rect class="cls-4" x="1520.63" y="381.09" width="87.45" height="6.87"/><polygon class="cls-4" points="1497.25 511.87 1469.53 511.87 1469.53 501.2 1659.22 501.2 1659.22 511.87 1497.25 511.87"/><rect class="cls-4" x="1520.63" y="387.96" width="87.45" height="58.57"/><rect class="cls-21" x="1520.63" y="398.03" width="87.45" height="20.71"/><polygon class="cls-22" points="1520.63 396.01 1520.63 398.03 1608.08 398.03 1608.08 395.82 1520.63 395.82 1520.63 396.01"/><polygon class="cls-22" points="1520.63 418.93 1520.63 420.95 1608.08 420.95 1608.08 418.74 1520.63 418.74 1520.63 418.93"/><rect class="cls-23" x="1469.53" y="550.26" width="189.69" height="11.19"/><rect class="cls-23" x="1531.48" y="398.03" width="13.97" height="26.12"/><rect class="cls-23" x="1557.55" y="398.03" width="13.97" height="26.12"/><rect class="cls-23" x="1583.62" y="398.03" width="13.97" height="26.12"/><polygon class="cls-23" points="1564.16 589.22 1469.53 589.22 1474.54 598.2 1564.16 598.2 1654.19 598.2 1659.22 589.22 1564.16 589.22"/><rect class="cls-22" x="1469.53" y="550.26" width="9.76" height="11.49"/><rect class="cls-22" x="1514.51" y="550.26" width="9.76" height="11.49"/><rect class="cls-22" x="1559.5" y="550.26" width="9.76" height="11.49"/><rect class="cls-22" x="1604.48" y="550.26" width="9.76" height="11.49"/><rect class="cls-22" x="1649.46" y="550.26" width="9.76" height="11.49"/><rect class="cls-4" x="1469.53" y="561.44" width="189.69" height="27.78"/><rect class="cls-4" x="1486.02" y="511.87" width="155.67" height="27.78"/><rect class="cls-4" x="1503.46" y="446.54" width="121.79" height="55.26"/><polygon class="cls-24" points="1485.96 539.65 1469.53 550.25 1659.22 550.25 1641.92 539.65 1485.96 539.65"/><polygon class="cls-24" points="1435.8 735.55 1699.76 735.55 1699.76 804.77 1429.69 804.77 1429.69 735.55 1435.8 735.55"/><polygon class="cls-4" points="1443.04 696.45 1692.18 696.45 1692.18 735.55 1437.27 735.55 1437.27 696.45 1443.04 696.45"/><polygon class="cls-4" points="1460.59 610.41 1673.8 610.41 1673.8 697.38 1455.65 697.38 1455.65 610.41 1460.59 610.41"/><rect class="cls-22" x="1455.65" y="610.41" width="218.14" height="9.6"/><polygon class="cls-21" points="1455.65 646.72 1455.65 672.59 1673.8 672.59 1673.8 644.37 1455.65 644.37 1455.65 646.72"/><rect class="cls-22" x="1455.65" y="669.07" width="218.14" height="3.53"/><rect class="cls-22" x="1455.65" y="644.22" width="218.14" height="3.68"/><rect class="cls-23" x="1511.5" y="644.22" width="106.46" height="52.22"/><rect class="cls-23" x="1539.36" y="696.45" width="50.72" height="39.1"/><rect class="cls-23" x="1472.68" y="644.22" width="20.94" height="52.22"/><rect class="cls-23" x="1636.51" y="644.22" width="20.94" height="52.22"/><circle class="cls-24" cx="1627.23" cy="658.39" r="6.61"/><circle class="cls-24" cx="1502.56" cy="658.39" r="6.61"/><circle class="cls-24" cx="1496.21" cy="575.48" r="6.61"/><circle class="cls-24" cx="1541.65" cy="575.78" r="6.61"/><circle class="cls-24" cx="1587.1" cy="576.08" r="6.61"/><circle class="cls-24" cx="1632.54" cy="576.38" r="6.61"/><circle class="cls-24" cx="1526.05" cy="408.39" r="2.8"/><circle class="cls-24" cx="1551.35" cy="408.39" r="2.8"/><circle class="cls-24" cx="1577.42" cy="408.39" r="2.8"/><circle class="cls-24" cx="1602.84" cy="408.39" r="2.8"/><circle class="cls-24" cx="1464.23" cy="658.39" r="6.61"/><circle class="cls-24" cx="1665.65" cy="658.39" r="6.61"/><rect class="cls-24" x="1472.68" y="696.45" width="20.94" height="6.53"/><rect class="cls-24" x="1437.27" y="696.45" width="18.39" height="6.53"/><rect class="cls-24" x="1511.5" y="696.45" width="27.87" height="6.53"/><rect class="cls-24" x="1590.08" y="696.45" width="27.87" height="6.53"/><rect class="cls-24" x="1636.51" y="696.45" width="20.94" height="6.53"/><rect class="cls-24" x="1673.8" y="696.45" width="18.39" height="6.53"/><path class="cls-24" d="M1673.8,610.38l-10.21-6.25c10.84-6.31,3.27-21.53,3.27-21.53-1.36,11.62-11.38,15.33-12.93,15.8l0,.18H1474.55s-11.65-3.25-13.13-15.85c0,0-7.78,15.5,3.68,21.65h0l-9.45,6Z"/><polygon class="cls-21" points="1437.27 726.16 1437.27 735.55 1539.37 735.55 1539.37 725.3 1437.27 725.3 1437.27 726.16"/><polygon class="cls-21" points="1590.09 726.16 1590.09 735.55 1692.18 735.55 1692.18 725.3 1590.09 725.3 1590.09 726.16"/><rect class="cls-22" x="1437.27" y="725.3" width="102.1" height="3.68"/><rect class="cls-22" x="1590.08" y="725.3" width="102.1" height="3.68"/><rect class="cls-23" x="1503.46" y="451.72" width="121.79" height="8.72"/><rect class="cls-23" x="1486.02" y="508.13" width="155.67" height="9.55"/><polygon class="cls-22" points="1517.59 454.82 1498.27 454.82 1498.27 446.14 1630.44 446.14 1630.44 454.82 1517.59 454.82"/><rect class="cls-23" x="1510.6" y="465.62" width="19.42" height="27.7"/><rect class="cls-23" x="1539.98" y="465.62" width="19.42" height="27.7"/><rect class="cls-23" x="1569.35" y="465.62" width="19.42" height="27.7"/><rect class="cls-23" x="1598.73" y="465.62" width="19.42" height="27.7"/><polygon class="cls-24" points="1608.41 383.6 1608.41 381.51 1605.81 381.51 1586.74 323.71 1592.26 323.71 1580.61 304.95 1564.36 255.65 1548.1 304.99 1548.1 304.99 1536.48 323.71 1541.97 323.71 1522.9 381.51 1521.11 381.51 1521.11 383.6 1521.11 387.96 1521.11 392.13 1608.41 392.13 1608.41 383.6 1608.41 383.6"/><polygon class="cls-22" points="1497.25 511.87 1469.53 511.87 1469.53 501.2 1659.22 501.2 1659.22 511.87 1497.25 511.87"/><path class="cls-25" d="M1564.35,255.56l-16.25,49.21-11.62,18.58H1542l-19.07,57.75h-2.27v37.65h0v2.21h0v25.2h-22.36v8.68h5.19V501.2h-33.93v10.67H1486v27.78H1486l-16.43,10.61v39l5,9c-.07,0-11.65-3.1-13.12-15.65,0,0-7.78,15.66,3.68,21.81l-9.31,6.06h-.14v86h-18.39v39.1h-7.57v69.22h135l-.35-549.21Z"/><path class="cls-26" d="M1430.2,804.91l-.45-.13Z"/><path class="cls-1" d="M1429.75,804.78l.45.13Z"/><rect class="cls-4" x="1297.73" y="425.91" width="191.65" height="152.61"/><polygon class="cls-22" points="1297.73 446.34 1297.73 464.99 1489.38 464.99 1489.38 444.64 1297.73 444.64 1297.73 446.34"/><rect class="cls-23" x="1340.44" y="540.55" width="12.12" height="22.66"/><rect class="cls-23" x="1333.16" y="449.69" width="26.68" height="35.44"/><rect class="cls-27" x="1333.16" y="478.76" width="26.68" height="6.37"/><polygon class="cls-22" points="1499.46 426.51 1492.67 402.96 1297.77 402.96 1290.94 426.51 1499.46 426.51"/><polygon class="cls-22" points="1485.11 402.96 1478.32 379.41 1312.11 379.41 1305.29 402.96 1485.11 402.96"/><rect class="cls-23" x="1333.16" y="484.92" width="26.68" height="35.44"/><rect class="cls-27" x="1333.16" y="514" width="26.68" height="6.37"/><rect class="cls-23" x="1430" y="540.27" width="12.12" height="22.66"/><rect class="cls-23" x="1422.71" y="449.41" width="26.68" height="35.44"/><rect class="cls-27" x="1422.71" y="478.48" width="26.68" height="6.37"/><rect class="cls-23" x="1422.71" y="484.65" width="26.68" height="35.44"/><rect class="cls-27" x="1422.71" y="513.72" width="26.68" height="6.37"/><polygon class="cls-25" points="1311.79 380.02 1304.97 403.41 1297.45 403.41 1290.62 426.81 1297.3 426.81 1297.3 445.19 1297.3 446.89 1297.3 465.55 1297.3 578.88 1390.23 578.88 1390.23 380.02 1311.79 380.02"/><rect class="cls-4" x="1705.77" y="514.82" width="371.6" height="152.74"/><polygon class="cls-24" points="1705.77 549.11 1705.77 597.15 2077.38 597.15 2077.38 544.75 1705.77 544.75 1705.77 549.11"/><rect class="cls-22" x="1705.77" y="590.6" width="371.6" height="6.55"/><rect class="cls-28" x="1760.9" y="626.62" width="14.89" height="27.84"/><rect class="cls-28" x="1788.69" y="626.62" width="14.89" height="27.84"/><rect class="cls-28" x="1816.48" y="626.62" width="14.89" height="27.84"/><rect class="cls-28" x="1844.27" y="626.62" width="14.89" height="27.84"/><rect class="cls-22" x="1705.77" y="544.47" width="371.6" height="6.82"/><rect class="cls-28" x="1750.26" y="557.3" width="36.57" height="48.58"/><rect class="cls-28" x="1833.23" y="557.3" width="36.57" height="48.58"/><rect class="cls-24" x="1750.26" y="597.15" width="36.57" height="8.73"/><rect class="cls-24" x="1833.23" y="597.15" width="36.57" height="8.73"/><polygon class="cls-28" points="1809.78 504.4 1699.96 504.4 1705.77 514.82 1809.78 514.82 2077.35 514.82 2083.19 504.4 1809.78 504.4"/><rect class="cls-24" x="1723.71" y="504.4" width="8.85" height="10.42"/><rect class="cls-24" x="1764.53" y="504.4" width="8.85" height="10.42"/><rect class="cls-24" x="1805.35" y="504.4" width="8.85" height="10.42"/><rect class="cls-24" x="1846.17" y="504.4" width="8.85" height="10.42"/><rect class="cls-24" x="1886.99" y="504.4" width="8.85" height="10.42"/><rect class="cls-22" x="1699.96" y="491.98" width="383.23" height="12.42"/><rect class="cls-28" x="1915.35" y="557.3" width="36.57" height="48.58"/><rect class="cls-24" x="1915.35" y="597.15" width="36.57" height="8.73"/><polygon class="cls-29" points="1699.96 492.41 1699.33 504.61 1705.15 514.82 1705.15 667 1882.1 667 1882.1 492.41 1699.96 492.41"/><rect class="cls-4" x="1723.99" y="434" width="93.8" height="18.62"/><rect class="cls-4" x="1734.22" y="389.87" width="73.29" height="30.72"/><polygon class="cls-23" points="1770.89 459.94 1770.88 459.94 1689.56 459.94 1698.34 474.84 1770.88 474.84 1770.89 474.84 1843.43 474.84 1852.21 459.94 1770.89 459.94"/><rect class="cls-22" x="1732.74" y="459.94" width="7.46" height="14.9"/><rect class="cls-22" x="1767.16" y="459.94" width="7.46" height="14.9"/><rect class="cls-22" x="1801.53" y="459.94" width="7.46" height="14.9"/><rect class="cls-22" x="1740.98" y="433.99" width="7.46" height="18.63"/><rect class="cls-22" x="1754.13" y="401.78" width="7.46" height="18.82"/><rect class="cls-22" x="1780.29" y="401.78" width="7.46" height="18.82"/><rect class="cls-22" x="1767.18" y="433.99" width="7.46" height="18.63"/><rect class="cls-22" x="1793.34" y="433.99" width="7.46" height="18.63"/><rect class="cls-4" x="1698.36" y="480.96" width="145.05" height="85.76"/><polygon class="cls-24" points="1703.65 452.64 1689.56 459.92 1852.21 459.92 1837.37 452.64 1703.65 452.64"/><rect class="cls-4" x="1677.55" y="587.21" width="187.09" height="137.05"/><polygon class="cls-21" points="1677.55 617.98 1677.55 661.08 1864.64 661.08 1864.64 614.06 1677.55 614.06 1677.55 617.98"/><rect class="cls-22" x="1677.55" y="655.2" width="187.09" height="5.88"/><rect class="cls-23" x="1727.01" y="687.53" width="13.36" height="24.98"/><rect class="cls-23" x="1751.95" y="687.53" width="13.36" height="24.98"/><rect class="cls-23" x="1776.88" y="687.53" width="13.36" height="24.98"/><rect class="cls-23" x="1801.81" y="687.53" width="13.36" height="24.98"/><rect class="cls-22" x="1677.55" y="613.82" width="187.09" height="6.12"/><circle class="cls-24" cx="1695.18" cy="637.08" r="11.26"/><circle class="cls-24" cx="1769.62" cy="637.08" r="11.26"/><circle class="cls-24" cx="1844.07" cy="637.08" r="11.26"/><rect class="cls-23" x="1717.46" y="625.33" width="32.81" height="43.59"/><rect class="cls-23" x="1791.91" y="625.33" width="32.81" height="43.59"/><rect class="cls-24" x="1717.46" y="661.08" width="32.81" height="7.84"/><rect class="cls-24" x="1791.91" y="661.08" width="32.81" height="7.84"/><polygon class="cls-23" points="1770.86 577.86 1672.33 577.86 1677.55 587.21 1770.86 587.21 1864.61 587.21 1869.85 577.86 1770.86 577.86"/><rect class="cls-22" x="1693.64" y="577.86" width="7.94" height="9.35"/><rect class="cls-22" x="1730.27" y="577.86" width="7.94" height="9.35"/><rect class="cls-22" x="1766.89" y="577.86" width="7.94" height="9.35"/><rect class="cls-22" x="1803.52" y="577.86" width="7.94" height="9.35"/><rect class="cls-22" x="1840.14" y="577.86" width="7.94" height="9.35"/><path class="cls-24" d="M1869.85,577.35l-9.24-5.46c9.82-5.71,3-19.4,3-19.4-1.24,10.55-10.34,13.78-11.7,14.19l0,0h-162.4s-10.55-2.78-11.89-14.18c0,0-7,13.92,3.34,19.49l-8.55,5.31Z"/><polygon class="cls-21" points="1698.36 504.37 1698.36 547.47 1843.41 547.47 1843.41 500.45 1698.36 500.45 1698.36 504.37"/><rect class="cls-22" x="1698.36" y="541.59" width="145.05" height="5.88"/><rect class="cls-22" x="1698.36" y="500.21" width="145.05" height="6.12"/><rect class="cls-22" x="1698.34" y="474.84" width="145.05" height="6.12"/><rect class="cls-22" x="1723.99" y="427.85" width="93.8" height="6.32"/><rect class="cls-23" x="1754.46" y="511.72" width="32.81" height="35.75"/><rect class="cls-24" x="1754.46" y="547.47" width="32.81" height="7.84"/><circle class="cls-24" cx="1713.61" cy="523.84" r="8.9"/><circle class="cls-24" cx="1740.92" cy="523.84" r="8.9"/><circle class="cls-24" cx="1800.81" cy="523.84" r="8.9"/><circle class="cls-24" cx="1828.12" cy="523.84" r="8.9"/><rect class="cls-22" x="1720.68" y="420.6" width="100.36" height="7.44"/><rect class="cls-23" x="1734.22" y="389.87" width="73.29" height="6.09"/><rect class="cls-22" x="1734.22" y="395.96" width="73.29" height="5.82"/><path class="cls-24" d="M1811.46,379.63c0,6.09-9.91,7.78-9.91,7.78h0c-7.44-4.72-20.42-14.4-30.66-35.28-10.25,20.88-23.22,30.71-30.66,35,0,0-9.44-1.24-9.4-7.32,0,0-3.64,6.43,3.42,10h73.31A7.54,7.54,0,0,0,1811.46,379.63Z"/><g class="cls-30"><path class="cls-23" d="M1740.2,460h-50.64l8.78,14.9V481h0v85.76h-8.93s-10.55-2.77-11.89-14.18c0,0-7,14.18,3.34,19.75l-8.55,5.57,5.22,9.35v137h93.32V460H1740.2Z"/><polygon class="cls-23" points="1689.56 459.97 1770.86 459.97 1770.86 452.69 1703.65 452.69 1689.56 459.97"/><path class="cls-23" d="M1740.2,387.08s-9.44-1.14-9.4-7.22c0,0-3.64,6.76,3.42,10.07v30.72h-13.54v7.44h3.3v24.59h46.88V352h0C1760.61,372.87,1747.64,382.8,1740.2,387.08Z"/></g><rect class="cls-4" x="1624.44" y="632.11" width="223.91" height="92.03"/><polygon class="cls-24" points="1624.44 652.77 1624.44 681.72 1848.34 681.72 1848.34 650.14 1624.44 650.14 1624.44 652.77"/><rect class="cls-31" x="1624.44" y="677.77" width="223.91" height="3.95"/><rect class="cls-23" x="1657.66" y="699.48" width="8.97" height="16.77"/><rect class="cls-23" x="1674.4" y="699.48" width="8.97" height="16.77"/><rect class="cls-23" x="1691.14" y="699.48" width="8.97" height="16.77"/><rect class="cls-23" x="1707.89" y="699.48" width="8.97" height="16.77"/><rect class="cls-31" x="1624.44" y="649.98" width="223.91" height="4.11"/><rect class="cls-23" x="1651.24" y="657.7" width="22.04" height="29.27"/><rect class="cls-23" x="1701.23" y="657.7" width="22.04" height="29.27"/><rect class="cls-24" x="1651.24" y="681.71" width="22.04" height="5.26"/><rect class="cls-24" x="1701.23" y="681.71" width="22.04" height="5.26"/><polygon class="cls-23" points="1687.1 625.83 1620.93 625.83 1624.44 632.11 1687.1 632.11 1848.33 632.11 1851.85 625.83 1687.1 625.83"/><rect class="cls-24" x="1635.24" y="625.83" width="5.33" height="6.28"/><rect class="cls-24" x="1659.84" y="625.83" width="5.33" height="6.28"/><rect class="cls-24" x="1684.44" y="625.83" width="5.33" height="6.28"/><rect class="cls-24" x="1709.03" y="625.83" width="5.33" height="6.28"/><rect class="cls-24" x="1733.63" y="625.83" width="5.33" height="6.28"/><rect class="cls-32" x="1620.93" y="618.35" width="230.91" height="7.48"/><rect class="cls-23" x="1757.13" y="699.48" width="8.97" height="16.77"/><rect class="cls-23" x="1773.88" y="699.48" width="8.97" height="16.77"/><rect class="cls-23" x="1790.62" y="699.48" width="8.97" height="16.77"/><rect class="cls-23" x="1807.36" y="699.48" width="8.97" height="16.77"/><rect class="cls-23" x="1750.72" y="657.7" width="22.04" height="29.27"/><rect class="cls-23" x="1800.71" y="657.7" width="22.04" height="29.27"/><rect class="cls-24" x="1750.72" y="681.71" width="22.04" height="5.26"/><rect class="cls-24" x="1800.71" y="681.71" width="22.04" height="5.26"/><rect class="cls-24" x="1759.32" y="625.83" width="5.33" height="6.28"/><rect class="cls-24" x="1783.91" y="625.83" width="5.33" height="6.28"/><rect class="cls-24" x="1808.51" y="625.83" width="5.33" height="6.28"/><rect class="cls-24" x="1833.1" y="625.83" width="5.33" height="6.28"/><polygon class="cls-29" points="1621.13 618.64 1621.28 626.1 1624.94 632.36 1624.94 650.23 1624.94 650.39 1624.94 653.02 1624.94 654.34 1624.94 678.02 1624.94 681.97 1624.94 724.81 1734.66 724.81 1734.66 618.64 1621.13 618.64"/><rect class="cls-4" x="1857.33" y="658.75" width="77.86" height="64.88"/><rect class="cls-21" x="1857.76" y="632.11" width="77.43" height="26.59"/><rect class="cls-28" x="1869.17" y="671.55" width="19.46" height="18.33"/><rect class="cls-28" x="1905.49" y="671.55" width="19.46" height="18.33"/><rect class="cls-29" x="1857.33" y="631.61" width="38.93" height="92.02"/><path class="cls-11" d="M2162.87,805h-545V723.52l317.34.11v-59l143.24,1.18c18,0,65.62,90.23,65.62,90.23Z"/><rect class="cls-4" x="132.62" y="335.51" width="88.48" height="5.9"/><rect class="cls-4" x="70.09" y="376.8" width="425.87" height="425.87"/><polygon class="cls-22" points="518.87 378.98 501.05 355.35 64.97 355.35 47.07 378.98 518.87 378.98"/><rect class="cls-22" x="70.09" y="538.72" width="425.75" height="88.57"/><rect class="cls-22" x="70.09" y="419.57" width="425.75" height="19.37"/><rect class="cls-28" x="116.43" y="429.27" width="16.44" height="30.75"/><rect class="cls-28" x="157.54" y="429.19" width="16.44" height="30.75"/><rect class="cls-28" x="195.21" y="429.3" width="16.44" height="30.75"/><rect class="cls-28" x="236.32" y="429.23" width="16.44" height="30.75"/><rect class="cls-28" x="276.87" y="429.32" width="16.44" height="30.75"/><rect class="cls-28" x="314.44" y="429.25" width="16.44" height="30.75"/><rect class="cls-28" x="353.3" y="429.36" width="16.44" height="30.75"/><rect class="cls-28" x="393.22" y="429.29" width="16.44" height="30.75"/><rect class="cls-28" x="435.23" y="429.4" width="16.44" height="30.75"/><rect class="cls-28" x="106.55" y="480.46" width="36.2" height="48.09"/><rect class="cls-24" x="106.55" y="519.9" width="36.2" height="8.65"/><rect class="cls-28" x="185.33" y="480.46" width="36.2" height="48.09"/><rect class="cls-24" x="185.33" y="519.9" width="36.2" height="8.65"/><rect class="cls-28" x="265.16" y="480.46" width="36.2" height="48.09"/><rect class="cls-24" x="265.16" y="519.9" width="36.2" height="8.65"/><rect class="cls-28" x="343.95" y="480.46" width="36.2" height="48.09"/><rect class="cls-24" x="343.95" y="519.9" width="36.2" height="8.65"/><rect class="cls-28" x="425.35" y="480.46" width="36.2" height="48.09"/><rect class="cls-24" x="425.35" y="519.9" width="36.2" height="8.65"/><rect class="cls-24" x="132.62" y="342.58" width="88.48" height="12.98"/><rect class="cls-4" x="317.83" y="320.17" width="88.48" height="35.39"/><path class="cls-22" d="M415.84,306.45c0,8.19-12.65,9.54-12.65,9.54h0c-10-5.22-27.46-19-41.25-47.07-13.79,28.09-31.24,41.51-41.25,47.26-.05,0-12.69-1.46-12.65-9.64,0,0-4.9,9.44,4.61,13.62h98.62C420.74,316,415.84,306.45,415.84,306.45Z"/><path class="cls-24" d="M230.62,321.52c0,8.19-12.65,9.27-12.65,9.27h0c-10-4.72-27.46-18.71-41.25-46.8-13.79,28.09-31.24,41.64-41.25,47.4-.05,0-12.69-1.39-12.65-9.57,0,0-4.9,9.51,4.61,13.69H226C235.52,331.33,230.62,321.52,230.62,321.52Z"/><rect class="cls-28" x="116.43" y="646.17" width="8.22" height="18.23"/><rect class="cls-28" x="138.64" y="646.17" width="8.22" height="18.23"/><rect class="cls-28" x="161.12" y="646.17" width="8.22" height="18.23"/><rect class="cls-28" x="183.33" y="646.17" width="8.22" height="18.23"/><rect class="cls-28" x="205.8" y="646.17" width="8.22" height="18.23"/><rect class="cls-28" x="228.01" y="646.17" width="8.22" height="18.23"/><rect class="cls-28" x="250.49" y="646.17" width="8.22" height="18.23"/><rect class="cls-28" x="272.71" y="646.17" width="8.22" height="18.23"/><rect class="cls-28" x="116.43" y="685.81" width="8.22" height="18.23"/><rect class="cls-28" x="138.64" y="685.81" width="8.22" height="18.23"/><rect class="cls-28" x="161.12" y="685.81" width="8.22" height="18.23"/><rect class="cls-28" x="183.33" y="685.81" width="8.22" height="18.23"/><rect class="cls-28" x="205.8" y="685.81" width="8.22" height="18.23"/><rect class="cls-28" x="228.01" y="685.81" width="8.22" height="18.23"/><rect class="cls-28" x="250.49" y="685.81" width="8.22" height="18.23"/><path class="cls-25" d="M221.1,355.56V335.51H226c9.51-4.18,4.61-14,4.61-14,0,8.19-12.65,9.27-12.65,9.27h0c-10-4.72-27.46-18.71-41.25-46.8-13.79,28.09-31.24,41.64-41.25,47.4-.05,0-12.69-1.39-12.65-9.57,0,0-4.9,9.51,4.61,13.69h5.22v20.05H65L47.07,379.16h23V802.67H273V355.56Z"/><path class="cls-11" d="M613.77,500c28.74,15.09,85.66,1.06,143.84,1.16,28.45.05,156.88,31.43,229.81,87.49,76.22,58.59,98.3,143.45,189.86,214L-12.33,803.89s92.91-94.73,200.48-95.33c125.84-.7,165.17-126.43,206.43-153.26S489.68,500,517.63,500,585,484.94,613.77,500Z"/><rect class="cls-4" x="747.36" y="596.4" width="260.03" height="207.06"/><polygon class="cls-21" points="747.36 624.12 747.36 649.43 1007.39 649.43 1007.39 621.82 747.36 621.82 747.36 624.12"/><rect class="cls-28" x="805.3" y="751.94" width="16.44" height="30.75"/><rect class="cls-28" x="795.42" y="628.66" width="36.2" height="48.09"/><rect class="cls-24" x="795.42" y="668.11" width="36.2" height="8.65"/><polygon class="cls-21" points="1021.06 597.21 1011.85 565.26 747.4 565.26 738.14 597.21 1021.06 597.21"/><polygon class="cls-21" points="1001.6 565.26 992.38 533.31 766.87 533.31 757.61 565.26 1001.6 565.26"/><rect class="cls-28" x="795.42" y="676.47" width="36.2" height="48.09"/><rect class="cls-24" x="795.42" y="715.92" width="36.2" height="8.65"/><rect class="cls-28" x="926.81" y="751.57" width="16.44" height="30.75"/><rect class="cls-28" x="916.93" y="628.29" width="36.2" height="48.09"/><rect class="cls-24" x="916.93" y="667.73" width="36.2" height="8.65"/><rect class="cls-28" x="916.93" y="676.1" width="36.2" height="48.09"/><rect class="cls-24" x="916.93" y="715.54" width="36.2" height="8.65"/><polygon class="cls-25" points="766.87 533.7 757.61 565.55 747.4 565.55 738.14 597.4 747.24 597.4 747.24 621.82 747.24 624.12 747.24 649.43 747.24 803.85 879.37 803.85 879.37 533.7 766.87 533.7"/><rect class="cls-4" x="533.4" y="363.52" width="142.52" height="28.29"/><rect class="cls-4" x="548.95" y="296.48" width="111.36" height="46.68"/><polygon class="cls-28" points="604.66 402.94 604.65 402.94 481.09 402.94 494.43 425.57 604.65 425.57 604.66 425.57 714.88 425.57 728.23 402.94 604.66 402.94"/><rect class="cls-22" x="546.7" y="402.94" width="11.33" height="22.64"/><rect class="cls-22" x="598.99" y="402.94" width="11.33" height="22.64"/><rect class="cls-22" x="651.22" y="402.94" width="11.33" height="22.64"/><rect class="cls-22" x="559.21" y="363.51" width="11.33" height="28.31"/><rect class="cls-22" x="579.2" y="314.56" width="11.33" height="28.59"/><rect class="cls-22" x="618.94" y="314.56" width="11.33" height="28.59"/><rect class="cls-22" x="599.03" y="363.51" width="11.33" height="28.31"/><rect class="cls-22" x="638.77" y="363.51" width="11.33" height="28.31"/><rect class="cls-4" x="494.46" y="434.88" width="220.39" height="130.31"/><polygon class="cls-24" points="502.49 391.85 481.09 402.91 728.23 402.91 705.68 391.85 502.49 391.85"/><rect class="cls-4" x="462.83" y="596.33" width="284.28" height="208.24"/><polygon class="cls-21" points="462.83 643.08 462.83 708.56 747.11 708.56 747.11 637.12 462.83 637.12 462.83 643.08"/><rect class="cls-22" x="462.83" y="699.63" width="284.28" height="8.93"/><rect class="cls-28" x="538" y="748.75" width="20.3" height="37.95"/><rect class="cls-28" x="575.88" y="748.75" width="20.3" height="37.95"/><rect class="cls-28" x="613.77" y="748.75" width="20.3" height="37.95"/><rect class="cls-28" x="651.65" y="748.75" width="20.3" height="37.95"/><rect class="cls-22" x="462.83" y="636.75" width="284.28" height="9.3"/><circle class="cls-24" cx="489.62" cy="672.1" r="17.12"/><circle class="cls-24" cx="602.74" cy="672.1" r="17.12"/><circle class="cls-24" cx="715.86" cy="672.1" r="17.12"/><rect class="cls-28" x="523.49" y="654.24" width="49.86" height="66.23"/><rect class="cls-28" x="636.6" y="654.24" width="49.86" height="66.23"/><rect class="cls-24" x="523.49" y="708.56" width="49.86" height="11.91"/><rect class="cls-24" x="636.6" y="708.56" width="49.86" height="11.91"/><polygon class="cls-28" points="604.63 582.12 454.91 582.12 462.83 596.33 604.63 596.33 747.07 596.33 755.04 582.12 604.63 582.12"/><rect class="cls-22" x="487.29" y="582.12" width="12.07" height="14.21"/><rect class="cls-22" x="542.94" y="582.12" width="12.07" height="14.21"/><rect class="cls-22" x="598.59" y="582.12" width="12.07" height="14.21"/><rect class="cls-22" x="654.24" y="582.12" width="12.07" height="14.21"/><rect class="cls-22" x="709.89" y="582.12" width="12.07" height="14.21"/><path class="cls-24" d="M755,582.06l-14-8.66c14.91-8.68,4.5-29.66,4.5-29.66-1.88,16-15.66,21-17.78,21.65l-.06.15H480.9s-16-4.39-18.07-21.72c0,0-10.7,21.43,5.07,29.89h0l-13,8.35Z"/><polygon class="cls-21" points="494.46 470.45 494.46 535.94 714.86 535.94 714.86 464.5 494.46 464.5 494.46 470.45"/><rect class="cls-22" x="494.46" y="527.01" width="220.39" height="8.93"/><rect class="cls-22" x="494.46" y="464.13" width="220.39" height="9.3"/><rect class="cls-22" x="494.43" y="425.57" width="220.39" height="9.3"/><rect class="cls-22" x="533.4" y="354.17" width="142.52" height="9.6"/><rect class="cls-28" x="579.7" y="481.61" width="49.86" height="54.33"/><rect class="cls-24" x="579.7" y="535.94" width="49.86" height="11.91"/><circle class="cls-24" cx="517.63" cy="500.03" r="13.53"/><circle class="cls-24" cx="559.12" cy="500.03" r="13.53"/><circle class="cls-24" cx="650.13" cy="500.03" r="13.53"/><circle class="cls-24" cx="691.62" cy="500.03" r="13.53"/><rect class="cls-28" x="528.38" y="343.16" width="152.49" height="11.31"/><rect class="cls-28" x="548.95" y="296.48" width="111.36" height="9.25"/><rect class="cls-22" x="548.95" y="305.73" width="111.36" height="8.84"/><path class="cls-24" d="M665.54,281.08c.05,9.25-14.29,10.78-14.29,10.78h0c-11.3-5.9-31-21.44-46.59-53.17-15.57,31.73-35.29,46.88-46.59,53.38-.06,0-14.34-1.65-14.29-10.89,0,0-5.54,10.67,5.2,15.39H660.34C671.08,291.86,665.54,281.08,665.54,281.08Z"/><g class="cls-33"><path class="cls-23" d="M558,403H481.09l13.34,22.64V435h0V565.26H480.9s-16-4.21-18.07-21.54c0,0-10.7,21.54,5.07,30l-13,8.46,7.93,14.21V804.64H604.63V403H558Z"/><polygon class="cls-23" points="481.09 402.98 604.63 402.98 604.63 391.92 502.49 391.92 481.09 402.98"/><path class="cls-23" d="M558,292.22c-.06,0-14.34-1.74-14.29-11,0,0-5.54,10.26,5.2,15.3v46.68H528.38v11.31h5v37.36h71.23v-153h0C589.05,270.64,569.34,285.72,558,292.22Z"/></g><rect class="cls-4" x="1006.05" y="595.8" width="506.62" height="208.24"/><polygon class="cls-24" points="1006.05 642.55 1006.05 708.03 1512.67 708.03 1512.67 636.59 1006.05 636.59 1006.05 642.55"/><rect class="cls-22" x="1006.05" y="699.1" width="506.62" height="8.93"/><rect class="cls-28" x="1081.21" y="748.22" width="20.3" height="37.95"/><rect class="cls-28" x="1119.1" y="748.22" width="20.3" height="37.95"/><rect class="cls-28" x="1156.98" y="748.22" width="20.3" height="37.95"/><rect class="cls-28" x="1194.87" y="748.22" width="20.3" height="37.95"/><rect class="cls-22" x="1006.05" y="636.22" width="506.62" height="9.3"/><rect class="cls-28" x="1066.7" y="653.71" width="49.86" height="66.23"/><rect class="cls-28" x="1179.82" y="653.71" width="49.86" height="66.23"/><rect class="cls-24" x="1066.7" y="708.03" width="49.86" height="11.91"/><rect class="cls-24" x="1179.82" y="708.03" width="49.86" height="11.91"/><polygon class="cls-28" points="1147.84 581.59 998.12 581.59 1006.05 595.79 1147.84 595.79 1512.63 595.79 1520.59 581.59 1147.84 581.59"/><rect class="cls-24" x="1030.5" y="581.59" width="12.07" height="14.21"/><rect class="cls-24" x="1086.15" y="581.59" width="12.07" height="14.21"/><rect class="cls-24" x="1141.81" y="581.59" width="12.07" height="14.21"/><rect class="cls-24" x="1197.46" y="581.59" width="12.07" height="14.21"/><rect class="cls-24" x="1253.11" y="581.59" width="12.07" height="14.21"/><rect class="cls-22" x="998.12" y="564.66" width="522.47" height="16.93"/><rect class="cls-28" x="1306.29" y="748.22" width="20.3" height="37.95"/><rect class="cls-28" x="1344.18" y="748.22" width="20.3" height="37.95"/><rect class="cls-28" x="1382.06" y="748.22" width="20.3" height="37.95"/><rect class="cls-28" x="1419.95" y="748.22" width="20.3" height="37.95"/><rect class="cls-28" x="1291.78" y="653.71" width="49.86" height="66.23"/><rect class="cls-28" x="1404.89" y="653.71" width="49.86" height="66.23"/><rect class="cls-24" x="1291.78" y="708.03" width="49.86" height="11.91"/><rect class="cls-24" x="1404.89" y="708.03" width="49.86" height="11.91"/><rect class="cls-24" x="1311.23" y="581.59" width="12.07" height="14.21"/><rect class="cls-24" x="1366.88" y="581.59" width="12.07" height="14.21"/><rect class="cls-24" x="1422.54" y="581.59" width="12.07" height="14.21"/><rect class="cls-24" x="1478.19" y="581.59" width="12.07" height="14.21"/><polygon class="cls-25" points="998.13 564.37 997.9 581.44 1005.6 595.79 1005.6 636.22 1005.6 636.59 1005.6 642.55 1005.6 645.52 1005.6 699.1 1005.6 708.03 1005.6 803.85 1259.24 803.85 1259.24 564.37 998.13 564.37"/><rect class="cls-4" x="1888" y="395.67" width="133.31" height="96.74"/><rect class="cls-22" x="1888" y="409.83" width="133.31" height="20.05"/><polygon class="cls-23" points="1979.66 385.84 1869.84 385.84 1875.66 396.26 1979.66 396.26 2033.63 396.26 2039.47 385.84 1979.66 385.84"/><rect class="cls-22" x="1869.84" y="373.42" width="169.62" height="12.42"/><polygon class="cls-24" points="2039.47 373.42 1996.93 363 1909.24 363 1869.84 373.42 2039.47 373.42"/><rect class="cls-34" x="1910.42" y="334.33" width="83.76" height="28.31"/><rect class="cls-22" x="1902.16" y="320.17" width="99.1" height="14.16"/><path class="cls-22" d="M2014.79,304.88c.05,9.53-14.71,11.75-14.71,11.75h0c-11.64-7.08-31.93-22.6-48-55.26-16,32.66-36.33,48-48,54.69,0,0-14.76-2-14.71-11.47,0,0-5.7,10,5.36,15.57h114.67C2020.49,314.63,2014.79,304.88,2014.79,304.88Z"/><path class="cls-29" d="M1904.12,317.24s-14.76-2-14.71-11.47c0,0-5.7,10,5.36,15.57h7.39v14.16h8.26v28.31h-1.18l-39.39,10.62h0v12.79l5.81,10.8H1888v95.56h63.7V263.3C1935.73,295.44,1915.66,310.6,1904.12,317.24Z"/></g><rect class="cls-35" x="1174.72" y="877.73" width="63.28" height="12.64" rx="5.78" ry="5.78"/><rect class="cls-36" x="274.32" y="1045.21" width="49.02" height="12.64" rx="5.78" ry="5.78"/><rect class="cls-37" x="1303.95" y="943.64" width="63.28" height="12.64" rx="5.78" ry="5.78"/><rect class="cls-38" x="1518.84" y="940.62" width="63.28" height="12.64" rx="5.78" ry="5.78"/><path class="cls-11" d="M996.41,976.06s21.52-18.25,32.11-3.61S996.41,976.06,996.41,976.06Z"/><path class="cls-11" d="M413.21,933.06s-21.52-18.25-32.11-3.61S413.21,933.06,413.21,933.06Z"/><path class="cls-11" d="M842.41,1001.62s7.65,6.49,11.42,1.28S842.41,1001.62,842.41,1001.62Z"/><path class="cls-11" d="M1190.85,945s12.05,10.22,18,2S1190.85,945,1190.85,945Z"/><path class="cls-11" d="M1621.78,1021s-12.05,10.22-18,2S1621.78,1021,1621.78,1021Z"/><polygon class="cls-39" points="1.08 581.19 113.08 581.62 113.08 549.67 1.45 387.5 1.08 581.19"/><polygon class="cls-39" points="1.08 721.21 1.08 804.82 113.27 804.82 113.27 803.26 21.78 803.26 1.08 721.21"/><polygon class="cls-40" points="113.27 549.67 1.45 389.13 1.08 389.55 1.08 549.67 113.27 549.67"/><polygon class="cls-39" points="1.08 549.4 1.08 721.21 21.78 803.26 113.27 803.26 113.27 549.4 1.08 549.4"/><polygon class="cls-40" points="1.08 549.67 1.08 721.21 21.78 803.67 113.08 803.67 113.08 549.67 1.08 549.67"/><rect class="cls-41" x="18.78" y="563.04" width="47.31" height="63.54"/><path class="cls-42" d="M63.82,565.31v59H21.05v-59H63.82m4.54-4.54H16.51v68.09H68.36V560.76Z"/><rect class="cls-41" x="16.51" y="604.34" width="51.85" height="4.09"/><polygon class="cls-42" points="68.36 604.34 16.51 604.34 16.51 608.42 68.36 608.42 68.36 604.34 68.36 604.34"/><rect class="cls-41" x="40.21" y="560.76" width="4.44" height="68.09"/><polygon class="cls-42" points="44.66 560.76 40.21 560.76 40.21 628.85 44.66 628.85 44.66 560.76 44.66 560.76"/><rect class="cls-41" x="16.51" y="581.19" width="51.85" height="4.09"/><polygon class="cls-42" points="68.36 581.19 16.51 581.19 16.51 585.28 68.36 585.28 68.36 581.19 68.36 581.19"/><rect class="cls-41" x="18.78" y="656.48" width="47.31" height="63.54"/><path class="cls-42" d="M63.82,658.75v59H21.05v-59H63.82m4.54-4.54H16.51v68.09H68.36V654.21Z"/><rect class="cls-41" x="16.51" y="697.78" width="51.85" height="4.09"/><polygon class="cls-42" points="68.36 697.78 16.51 697.78 16.51 701.87 68.36 701.87 68.36 697.78 68.36 697.78"/><rect class="cls-41" x="40.21" y="654.21" width="4.44" height="68.09"/><polygon class="cls-42" points="44.66 654.21 40.21 654.21 40.21 722.29 44.66 722.29 44.66 654.21 44.66 654.21"/><rect class="cls-41" x="16.51" y="674.63" width="51.85" height="4.09"/><polygon class="cls-42" points="68.36 674.63 16.51 674.63 16.51 678.72 68.36 678.72 68.36 674.63 68.36 674.63"/><line class="cls-43" x1="118.35" y1="549.41" x2="4.83" y2="388.99"/><line class="cls-44" x1="56.52" y1="332.88" x2="142.79" y2="799.83"/><line class="cls-44" x1="64.23" y1="332.15" x2="206.73" y2="799.83"/><line class="cls-44" x1="39.52" y1="332.88" x2="-46.75" y2="799.83"/><line class="cls-44" x1="31.81" y1="332.15" x2="-110.69" y2="799.83"/><polygon class="cls-45" points="75.8 802.23 22.17 802.23 39.52 193.3 58.45 193.3 75.8 802.23"/><rect class="cls-46" x="15.86" y="330.71" width="66.25" height="5.79"/><rect class="cls-46" x="22.17" y="294.55" width="52.06" height="5.79"/><ellipse class="cls-46" cx="60.2" cy="316.08" rx="7.71" ry="7.07"/><rect class="cls-47" x="0.08" y="803.88" width="1924.21" height="56.57"/></g></g></svg>