<svg xmlns="http://www.w3.org/2000/svg" xmlns:xlink="http://www.w3.org/1999/xlink" viewBox="0 0 2367.79 965"><defs><style>.cls-1{fill:none;}.cls-2,.cls-3,.cls-4{fill:#fff;}.cls-2{opacity:0.72;}.cls-3{opacity:0.76;}.cls-4{opacity:0.5;}.cls-5{clip-path:url(#clip-path);}</style><clipPath id="clip-path"><rect id="SVGID" class="cls-1" x="160.8" y="528.79" width="230.35" height="110"/></clipPath></defs><title>เมฆล่าง</title><g id="เมฆกลาง"><path class="cls-2" d="M1964,863.14h-77.63c-7.61,0-13.84-5.07-13.84-11.27s6.23-11.27,13.84-11.27h57.17c6,0,10.83-4,10.83-8.82s-4.87-8.82-10.83-8.82H1641.45c-6,0-10.83,4-10.83,8.82s4.87,8.82,10.83,8.82h89.66c7.61,0,13.84,5.07,13.84,11.27s-6.23,11.27-13.84,11.27H1606.55c-6.62,0-12,4.41-12,9.8s5.42,9.8,12,9.8H1964c6.62,0,12-4.41,12-9.8S1970.62,863.14,1964,863.14Z"/><path class="cls-2" d="M2212.08,638.84h-77.63c-7.61,0-13.84-5.07-13.84-11.27s6.23-11.27,13.84-11.27h57.17c6,0,10.83-4,10.83-8.82s-4.87-8.82-10.83-8.82H1889.53c-6,0-10.83,4-10.83,8.82s4.87,8.82,10.83,8.82h89.66c7.61,0,13.84,5.07,13.84,11.27s-6.23,11.27-13.84,11.27H1854.63c-6.62,0-12,4.41-12,9.8s5.42,9.8,12,9.8h357.45c6.62,0,12-4.41,12-9.8S2218.7,638.84,2212.08,638.84Z"/><path class="cls-2" d="M1626.59,337.75h-53.69c-5.27,0-9.57-3.51-9.57-7.8s4.31-7.8,9.57-7.8h39.54c4.12,0,7.49-2.75,7.49-6.1s-3.37-6.1-7.49-6.1h-209c-4.12,0-7.49,2.75-7.49,6.1s3.37,6.1,7.49,6.1h62c5.27,0,9.57,3.51,9.57,7.8s-4.31,7.8-9.57,7.8h-86.16c-4.58,0-8.32,3.05-8.32,6.78s3.75,6.78,8.32,6.78h247.24c4.58,0,8.32-3.05,8.32-6.78S1631.16,337.75,1626.59,337.75Z"/><path class="cls-3" d="M1037.52,551H691.66s16.79-113,129.28-101c0,0,8.39-89,83.95-59.91,0,0,35.26,13.69,28.54,59.91,0,0,10.07-18.83,35.26-10.27,0,0,18.47,8.56,15.11,27.39,0,0,33.58-12,35.26,20.54,0,0,78.91,6.85,83.95,63.33Z"/><path class="cls-4" d="M331.22,464.95H677.09S660.3,352,547.81,364c0,0-8.39-89-83.95-59.91,0,0-35.26,13.69-28.54,59.91,0,0-10.07-18.83-35.26-10.27,0,0-18.47,8.56-15.11,27.39,0,0-33.58-12-35.26,20.54,0,0-78.91,6.85-83.95,63.33Z"/><path class="cls-4" d="M1807.66,523.84h226.06s-11-54-84.5-48.24c0,0-5.49-42.51-54.87-28.62,0,0-23,6.54-18.66,28.62,0,0-6.58-9-23-4.91,0,0-12.07,4.09-9.88,13.08,0,0-21.95-5.72-23,9.81,0,0-51.58,3.27-54.87,30.25Z"/><g class="cls-5"><path class="cls-2" d="M328.68,607.22H262.14c-6.53,0-11.86-4.35-11.86-9.66s5.34-9.66,11.86-9.66h49c5.11,0,9.29-3.4,9.29-7.56s-4.18-7.56-9.29-7.56h-259c-5.11,0-9.29,3.4-9.29,7.56s4.18,7.56,9.29,7.56h76.86c6.53,0,11.86,4.35,11.86,9.66s-5.34,9.66-11.86,9.66H22.27C16.6,607.22,12,611,12,615.62S16.6,624,22.27,624H328.68c5.67,0,10.32-3.78,10.32-8.4S334.36,607.22,328.68,607.22Z"/></g></g></svg>