<?xml version="1.0" encoding="utf-8"?>
<!-- Generator: Adobe Illustrator 21.0.0, SVG Export Plug-In . SVG Version: 6.00 Build 0)  -->
<svg version="1.1" id="Layer_1" xmlns="http://www.w3.org/2000/svg" xmlns:xlink="http://www.w3.org/1999/xlink" x="0px" y="0px"
	 viewBox="0 0 2201.9 1195.5" style="enable-background:new 0 0 2201.9 1195.5;" xml:space="preserve">
<style type="text/css">
	.st0{fill:url(#SVGID_1_);}
	.st1{opacity:0.76;fill:#FFFFFF;enable-background:new    ;}
	.st2{opacity:0.5;fill:#FFFFFF;enable-background:new    ;}
	.st3{opacity:0.72;fill:#FFFFFF;enable-background:new    ;}
	.st4{fill:#FFFFFF;}
	.st5{fill:url(#SVGID_2_);}
	.st6{fill:url(#SVGID_3_);}
	.st7{fill:url(#SVGID_4_);}
</style>
<title>เมฆบน</title>
<g id="เมฆบน">
	
		<linearGradient id="SVGID_1_" gradientUnits="userSpaceOnUse" x1="842.48" y1="236.2071" x2="1485.9702" y2="236.2071" gradientTransform="matrix(1 0 0 -1 0 1196)">
		<stop  offset="0" style="stop-color:#D5B671"/>
		<stop  offset="0.24" style="stop-color:#D09966"/>
		<stop  offset="0.35" style="stop-color:#CE8A61"/>
		<stop  offset="0.51" style="stop-color:#D39270"/>
		<stop  offset="0.81" style="stop-color:#DFA896"/>
		<stop  offset="1" style="stop-color:#E7B7B2"/>
	</linearGradient>
	<path class="st0" d="M1383.5,1090.2h-541c0,0,26.3-176.7,202.2-158c0,0,13.1-139.2,131.3-93.7c0,0,55.2,21.4,44.7,93.7
		c0,0,15.8-29.5,55.2-16.1c0,0,28.9,13.4,23.6,42.8c0,0,52.5-18.7,55.2,32.1c0,0,123.4,10.7,131.3,99.1L1383.5,1090.2z"/>
	<path class="st1" d="M1425.2,1083.7h646.7c0,0-31.4-211.2-241.7-188.8c0,0-15.7-166.4-157-112c0,0-65.9,25.6-53.4,112
		c0,0-18.8-35.2-65.9-19.2c0,0-34.5,16-28.3,51.2c0,0-62.8-22.4-65.9,38.4c0,0-147.6,12.8-157,118.4L1425.2,1083.7z"/>
	<path class="st2" d="M431.4,994.1h345.9c0,0-16.8-113-129.3-101c0,0-8.4-89-84-59.9c0,0-35.3,13.7-28.5,59.9
		c0,0-10.1-18.8-35.3-10.3c0,0-18.5,8.6-15.1,27.4c0,0-33.6-12-35.3,20.5c0,0-78.9,6.8-84,63.3L431.4,994.1z"/>
	<path class="st2" d="M596,548.6c0-4.5-18.9-8.2-42.2-8.2c-7.5,0-15,0.4-22.5,1.3c-2-0.2-4.2-0.3-6.5-0.3
		c-2.2-2.8-14.6-4.9-29.5-4.9c-4.3,0-8.4,0.2-12,0.5c-4-2.3-8.7-4.3-25.2-5.1c-20-1-34.2,1.8-37.1,4.4c-3.7-0.3-2.7,0.8-7,0.8
		c-7-0.1-14.1,0.5-21,1.7c-2.3-0.3-4.7-0.5-7.1-0.5c-6.5,0-11.7,1-11.7,2.3c0,0,0,0.1,0,0.1c-19,0.4-33.8,3.6-33.8,7.4
		c0,0.2,0,0.4,0.1,0.6h-0.1L596,548.6C596,548.6,596,548.6,596,548.6L596,548.6z"/>
	<path class="st3" d="M1206,545.9h-67.3c-6.6,0-12-4.4-12-9.8s5.4-9.8,12-9.8h49.6c5.2,0,9.4-3.4,9.4-7.7s-4.2-7.6-9.4-7.6h-262
		c-5.2,0-9.4,3.4-9.4,7.6s4.2,7.7,9.4,7.7h77.8c6.6,0,12,4.4,12,9.8s-5.4,9.8-12,9.8H896c-5.7,0-10.4,3.8-10.4,8.5s4.7,8.5,10.4,8.5
		h310c5.7,0,10.4-3.8,10.4-8.5S1211.8,545.9,1206,545.9z"/>
	<path class="st4" d="M267.7,482.7c0-9.1-8.2-16.4-18.4-16.4c-3.4,0-6.8,0.9-9.8,2.5c-0.9-0.4-1.8-0.5-2.8-0.6
		c-1-5.5-6.4-9.8-12.8-9.8c-1.8,0-3.6,0.3-5.2,1c-1.8-4.6-3.8-8.6-11-10.2c-8.7-2-14.9,3.6-16.2,8.8c-1.6-0.6-1.2,1.7-3.1,1.7
		c-3.4,0-6.6,1.2-9.1,3.4c-0.9-0.6-2-0.9-3.1-0.9c-2.7-0.1-4.9,1.9-5.1,4.5c0,0.1,0,0.1,0,0.2c-8.3,0.8-14.7,7.1-14.7,14.7
		c0,0.4,0,0.8,0.1,1.2h-0.1h111.3C267.7,482.8,267.7,482.7,267.7,482.7L267.7,482.7z"/>
	
		<linearGradient id="SVGID_2_" gradientUnits="userSpaceOnUse" x1="440.56" y1="703.68" x2="440.56" y2="959.61" gradientTransform="matrix(1 0 0 -1 0 1196)">
		<stop  offset="0" style="stop-color:#D5B671"/>
		<stop  offset="0.24" style="stop-color:#D09966"/>
		<stop  offset="0.35" style="stop-color:#CE8A61"/>
		<stop  offset="0.51" style="stop-color:#D39270"/>
		<stop  offset="0.81" style="stop-color:#DFA896"/>
		<stop  offset="1" style="stop-color:#E7B7B2"/>
	</linearGradient>
	<path class="st5" d="M354.8,426.1h211.7c0,0-10.3-68.9-79.1-61.6c0,0-5.1-54.3-51.4-36.6c0,0-21.6,8.4-17.5,36.6
		c0,0-6.2-11.5-21.6-6.3c0,0-11.3,5.2-9.3,16.7c0,0-20.5-7.3-21.6,12.5c0,0-48.3,4.2-51.4,38.6H354.8z"/>
	
		<linearGradient id="SVGID_3_" gradientUnits="userSpaceOnUse" x1="800.63" y1="985.57" x2="800.63" y2="1185.6899" gradientTransform="matrix(1 0 0 -1 0 1196)">
		<stop  offset="0" style="stop-color:#D5B671"/>
		<stop  offset="0.24" style="stop-color:#D09966"/>
		<stop  offset="0.35" style="stop-color:#CE8A61"/>
		<stop  offset="0.51" style="stop-color:#D39270"/>
		<stop  offset="0.81" style="stop-color:#DFA896"/>
		<stop  offset="1" style="stop-color:#E7B7B2"/>
	</linearGradient>
	<path class="st6" d="M708.9,158.7h226.5c0,0-11-53.9-84.7-48.2c0,0-5.5-42.5-55-28.6c0,0-23.1,6.5-18.7,28.6c0,0-6.6-9-23.1-4.9
		c0,0-12.1,4.1-9.9,13.1c0,0-22-5.7-23.1,9.8c0,0-51.7,3.3-55,30.2H708.9z"/>
	
		<linearGradient id="SVGID_4_" gradientUnits="userSpaceOnUse" x1="1880.4301" y1="920.44" x2="1880.4301" y2="1120.5699" gradientTransform="matrix(1 0 0 -1 0 1196)">
		<stop  offset="0" style="stop-color:#D5B671"/>
		<stop  offset="0.24" style="stop-color:#D09966"/>
		<stop  offset="0.35" style="stop-color:#CE8A61"/>
		<stop  offset="0.51" style="stop-color:#D39270"/>
		<stop  offset="0.81" style="stop-color:#DFA896"/>
		<stop  offset="1" style="stop-color:#E7B7B2"/>
	</linearGradient>
	<path class="st7" d="M1788.7,223.8h226.5c0,0-11-53.9-84.7-48.2c0,0-5.5-42.5-55-28.6c0,0-23.1,6.5-18.7,28.6c0,0-6.6-9-23.1-4.9
		c0,0-12.1,4.1-9.9,13.1c0,0-22-5.7-23.1,9.8c0,0-51.7,3.3-55,30.2L1788.7,223.8z"/>
	<path class="st3" d="M1352.9,158h-226.5c0,0,11-30.8,84.7-27.6c0,0,5.5-24.3,55-16.3c0,0,23.1,3.7,18.7,16.3c0,0,6.6-5.1,23.1-2.8
		c0,0,12.1,2.3,9.9,7.5c0,0,22-3.3,23.1,5.6c0,0,51.7,1.9,55,17.3L1352.9,158z"/>
	<g>
		<defs>
			<rect id="SVGID_5_" x="136.6" y="137.1" width="230.3" height="110"/>
		</defs>
		<clipPath id="SVGID_6_">
			<use xlink:href="#SVGID_5_"  style="overflow:visible;"/>
		</clipPath>
	</g>
</g>
</svg>
