<?xml version="1.0" encoding="utf-8"?>
<!-- Generator: Adobe Illustrator 21.0.0, SVG Export Plug-In . SVG Version: 6.00 Build 0)  -->
<svg version="1.1" id="Layer_1" xmlns="http://www.w3.org/2000/svg" xmlns:xlink="http://www.w3.org/1999/xlink" x="0px" y="0px"
	 viewBox="0 0 2438.9 1360" style="enable-background:new 0 0 2438.9 1360;" xml:space="preserve">
<style type="text/css">
	.st0{opacity:0.85;fill:url(#SVGID_1_);enable-background:new    ;}
	.st1{opacity:0.5;fill:#C3973F;enable-background:new    ;}
	.st2{opacity:0.5;fill:#FFFFFF;enable-background:new    ;}
	.st3{fill:#FBECB2;}
	.st4{clip-path:url(#SVGID_3_);}
	.st5{opacity:0.72;fill:#FFFFFF;enable-background:new    ;}
	.st6{fill:#FFFFFF;}
</style>
<title>เมฆกลาง</title>
<g id="เมฆล่าง">
	
		<linearGradient id="SVGID_1_" gradientUnits="userSpaceOnUse" x1="567.3" y1="589.3171" x2="1210.79" y2="589.3171" gradientTransform="matrix(1 0 0 -1 0 1360)">
		<stop  offset="0" style="stop-color:#D5B671"/>
		<stop  offset="0.24" style="stop-color:#D09966"/>
		<stop  offset="0.35" style="stop-color:#CE8A61"/>
		<stop  offset="0.51" style="stop-color:#D39270"/>
		<stop  offset="0.81" style="stop-color:#DFA896"/>
		<stop  offset="1" style="stop-color:#E7B7B2"/>
	</linearGradient>
	<path class="st0" d="M1108.3,901.1h-541c0,0,26.3-176.7,202.2-158c0,0,13.1-139.2,131.3-93.7c0,0,55.2,21.4,44.7,93.7
		c0,0,15.8-29.5,55.2-16.1c0,0,28.9,13.4,23.6,42.8c0,0,52.5-18.7,55.2,32.1c0,0,123.4,10.7,131.3,99.1L1108.3,901.1z"/>
	<path class="st1" d="M809.6,355.1h345.9c0,0-16.8-113-129.3-101c0,0-8.4-89-84-59.9c0,0-35.3,13.7-28.5,59.9
		c0,0-10.1-18.8-35.3-10.3c0,0-18.5,8.6-15.1,27.4c0,0-33.6-12-35.3,20.5c0,0-78.9,6.9-84,63.3L809.6,355.1z"/>
	<path class="st1" d="M1972.4,889.3h345.9c0,0-16.8-113-129.3-101c0,0-8.4-89-83.9-59.9c0,0-35.3,13.7-28.5,59.9
		c0,0-10.1-18.8-35.3-10.3c0,0-18.5,8.6-15.1,27.4c0,0-33.6-12-35.3,20.5c0,0-78.9,6.8-83.9,63.3L1972.4,889.3z"/>
	<path class="st1" d="M926,1243h345.9c0,0-16.8-113-129.3-101c0,0-8.4-89-83.9-59.9c0,0-35.3,13.7-28.5,59.9
		c0,0-10.1-18.8-35.3-10.3c0,0-18.5,8.6-15.1,27.4c0,0-33.6-12-35.3,20.5c0,0-78.9,6.8-84,63.3L926,1243z"/>
	<path class="st2" d="M297.3,1090.3h345.9c0,0-16.8-113-129.3-101c0,0-8.4-89-84-59.9c0,0-35.3,13.7-28.5,59.9
		c0,0-10.1-18.8-35.3-10.3c0,0-18.5,8.6-15.1,27.4c0,0-33.6-12-35.3,20.5c0,0-78.9,6.8-83.9,63.3L297.3,1090.3z"/>
	<path class="st3" d="M479.5,214.3h-53.7c-5.3,0-9.6-3.5-9.6-7.8s4.3-7.8,9.6-7.8h39.5c4.1,0,7.5-2.8,7.5-6.1s-3.4-6.1-7.5-6.1h-209
		c-4.1,0-7.5,2.8-7.5,6.1s3.4,6.1,7.5,6.1h62c5.3,0,9.6,3.5,9.6,7.8s-4.3,7.8-9.6,7.8h-86.1c-4.6,0-8.3,3.1-8.3,6.8s3.8,6.8,8.3,6.8
		h247.2c4.6,0,8.3-3.1,8.3-6.8S484.1,214.3,479.5,214.3z"/>
	<path class="st2" d="M1518.8,210.5h226.1c0,0-11-54-84.5-48.2c0,0-5.5-42.5-54.9-28.6c0,0-23,6.5-18.7,28.6c0,0-6.6-9-23-4.9
		c0,0-12.1,4.1-9.9,13.1c0,0-21.9-5.7-23,9.8c0,0-51.6,3.3-54.9,30.3L1518.8,210.5z"/>
	<g>
		<defs>
			<polygon id="SVGID_2_" points="11,488 487.8,488 487.8,634.6 11,640.9 			"/>
		</defs>
		<clipPath id="SVGID_3_">
			<use xlink:href="#SVGID_2_"  style="overflow:visible;"/>
		</clipPath>
		<g class="st4">
			<path class="st5" d="M449,592.9h-89c-8.7,0-15.9-5.8-15.9-12.9s7.1-12.9,15.9-12.9h65.5c6.8,0,12.4-4.5,12.4-10.1
				s-5.6-10.1-12.4-10.1H79.3c-6.8,0-12.4,4.5-12.4,10.1s5.6,10.1,12.4,10.1h102.8c8.7,0,15.9,5.8,15.9,12.9s-7.1,12.9-15.9,12.9
				H39.3c-7.6,0-13.8,5.1-13.8,11.2s6.2,11.2,13.8,11.2H449c7.6,0,13.8-5.1,13.8-11.2S456.6,592.9,449,592.9z"/>
		</g>
	</g>
	<path class="st3" d="M2036.2,1031.2c0-19.7-44.5-35.6-99.4-35.6c-17.8-0.1-35.5,1.7-52.9,5.5c-5-0.8-10.1-1.2-15.2-1.2
		c-5.3-12-34.3-21.3-69.4-21.3c-9.5,0-19,0.7-28.3,2.1c-9.5-9.9-20.4-18.8-59.3-22.2c-47.2-4.2-80.6,7.9-87.5,19.2
		c-8.6-1.4-6.4,3.7-16.5,3.7c-19.4,0-36.8,2.9-49.4,7.5c-5.4-1.4-11-2.1-16.6-2c-15.2,0-27.5,4.4-27.5,9.9c0,0.1,0,0.2,0,0.4
		c-44.8,1.8-79.6,15.4-79.6,32c0,0.9,0.1,1.8,0.3,2.6l-0.3,0.1h601.6C2036.2,1031.5,2036.2,1031.4,2036.2,1031.2L2036.2,1031.2z"/>
	<circle class="st6" cx="304.8" cy="340.6" r="12.1"/>
	<circle class="st6" cx="1819.9" cy="227" r="10.4"/>
	<circle class="st6" cx="1975.6" cy="1095.8" r="13.6"/>
	<circle class="st6" cx="1206.7" cy="956.8" r="6.8"/>
	<path class="st6" d="M333.6,738.5c4.7,0-72.3,3.8-72.3,8.6s-3.8,8.6-8.6,8.6s-8.6-3.8-8.6-8.6S328.8,738.5,333.6,738.5z"/>
	<circle class="st6" cx="649.9" cy="1013.8" r="4.9"/>
	<circle class="st6" cx="1293.2" cy="193.2" r="4.9"/>
	<circle class="st6" cx="676.7" cy="410.6" r="4.9"/>
</g>
</svg>
