<?xml version="1.0" encoding="utf-8"?>
<!-- Generator: Adobe Illustrator 21.0.0, SVG Export Plug-In . SVG Version: 6.00 Build 0)  -->
<svg version="1.1" id="Layer_1" xmlns="http://www.w3.org/2000/svg" xmlns:xlink="http://www.w3.org/1999/xlink" x="0px" y="0px"
	 viewBox="0 0 2100.3 741.1" style="enable-background:new 0 0 2100.3 741.1;" xml:space="preserve">
<style type="text/css">
	.st0{fill:#806056;}
	.st1{fill:#3A4523;}
	.st2{fill:#697D4B;}
	.st3{fill:#4E5C37;}
	.st4{opacity:0.11;fill:url(#SVGID_1_);enable-background:new    ;}
	.st5{opacity:0.11;fill:url(#SVGID_2_);enable-background:new    ;}
	.st6{fill:#B28C49;}
	.st7{fill:#B34830;}
	.st8{fill:#234042;}
</style>
<title>เกษตรขั้นบันได</title>
<g>
	<g id="เกษตรขั้นบันได">
		<path class="st0" d="M219.2,203.4c-3.8-3.8,7.6-49.1,7.6-49.1l3.3,1c0.3-2.9,0.5-4.8,0.5-4.8c26.4-7.6,47.2-22.7,47.2-22.7
			l-3.8-5.7c-7.6,7.6-51,22.7-51,22.7s1.9,34-17,45.3c-18.9,11.3-41.5-15.1-41.5-15.1l-5.7,9.4c0,0,26.4,15.1,41.5,28.3
			s-0.6,51-0.6,51l14.8,0.2C219.2,251.7,222.7,206.9,219.2,203.4z"/>
		<path class="st0" d="M238.1,209.1c9,0,27.2-13.5,37.9-22.2l4-11.4l-0.4-0.4c-11.3,13.2-48.8,23.5-51,17
			c-1.5-4.4,0.5-26.8,1.4-36.7l-3.3-1c0,0-11.3,45.3-7.6,49.1c3.5,3.5,0.1,48.3-4.7,60.6l28.3,0.4
			C228.7,251.7,238.1,209.1,238.1,209.1z"/>
		<path class="st1" d="M269.7,150.2c0,0,9.6-1.1,14.8-4h19.8L289,125.8c0-9.1-13.7-9.1-13.7-9.1s0-9.1-11.4-11.4s-13.6,6.8-13.6,6.8
			s2.3-18.2-18.2-18.2s-13.7,22.8-13.7,22.8s-2.3-6.8-13.7-4.5c-11.4,2.3-4.5,16-4.5,16c-19.4,0-14.3,16.3-13.7,18
			c-0.3,2.5,0.6,5.6,5,8.2c7.8,4.7,20.3-3.9,25.6-8h7.2c4.6,1.7,12,4,19.3,4c7.4,0,10.9-2.3,12.7-4h5.4L269.7,150.2z"/>
		<path class="st2" d="M300.9,139.2c2.5-2.3,2.5-6.8-1.4-9.1s-8.7,2.3-8.7,2.3s5.1-15.9-10.1-18.2c-15.2-2.3-17.7,11.4-17.7,11.4
			c-1.5-2.7-4.9-3.7-7.6-2.3c-2.5,0.9-3.8,3.6-2.9,6c0.1,0.3,0.2,0.5,0.4,0.8c-1.6-2.7-4.4-4.4-7.6-4.5
			c-12.7-2.3-12.7,13.7-12.7,13.7c-7-1.3-10.9,2.4-13,5.8c-1.5,1-2.3,2.8-2,4.6c-0.2,0.6-0.2,1-0.2,1h0.4c2,7.3,35.4,6.3,48.1,0h6.2
			c3.8,2.2,10.2,5.3,14.7,4c3-0.9,5.8-2.3,8.4-4h8.1c0,0,10,0,10.1-2.3C314,138.9,300.9,139.2,300.9,139.2z"/>
		<path class="st2" d="M189,183.3c0.2-5-6-4.8-6-4.8c1.2-1.3,1.1-3.3-0.2-4.4c-0.1-0.1-0.3-0.2-0.5-0.4c-1.9-1.2-4.1,1.2-4.1,1.2
			s2.4-8.4-4.8-9.6s-8.4,6-8.4,6c-0.6-1.4-2.2-2-3.5-1.4s-2,2.2-1.4,3.5c0,0.1,0.1,0.2,0.2,0.3c-0.7-1.4-2.1-2.3-3.6-2.4
			c-6-1.2-6,7.2-6,7.2c-4.8-1-6.6,3.5-7,5.3c-0.1,0.2-0.2,0.5-0.2,0.7c0,3,10.6,1.5,10.6,0c0,0,7.7,3,12.2,1.5l4.6-1.5h6.6
			c1.7,1,3.5,1.5,5.5,1.5c4.6,0,5.8-2.3,5.8-2.3C188.8,183.7,189,183.5,189,183.3z"/>
		<path class="st3" d="M309.9,183c0.2-6.1-7.5-6-7.5-6c1.5-1.6,1.4-4.1-0.2-5.5c-0.2-0.2-0.4-0.3-0.6-0.5c-2.3-1.5-5.1,1.5-5.1,1.5
			s3-10.4-6-11.9c-9-1.5-10.4,7.5-10.4,7.5c-0.8-1.6-2.8-2.3-4.5-1.5c-1.6,0.8-2.3,2.8-1.5,4.5l0,0c-0.8-1.7-2.5-2.9-4.5-3
			c-7.5-1.5-7.5,9-7.5,9c-7.5-1.5-9,7.5-9,7.5s0,5.7,9.4,3.8c9.4-1.9,9.6-3.8,9.6-3.8s5.5,5.7,11.2,3.8c3-0.9,5.8-2.2,8.5-3.8
			c0,0,6.7,5.7,12.3,3.8c4.1-1.4,5.2-3.7,5.5-4.9C309.8,183.3,309.9,183.2,309.9,183z"/>
		
			<linearGradient id="SVGID_1_" gradientUnits="userSpaceOnUse" x1="213.2246" y1="534.8433" x2="281.4932" y2="534.8433" gradientTransform="matrix(1 0 0 -1 0 744)">
			<stop  offset="0" style="stop-color:#747D9D"/>
			<stop  offset="0.59" style="stop-color:#9281AA"/>
			<stop  offset="1" style="stop-color:#AA84B4"/>
		</linearGradient>
		<path class="st4" d="M238.1,208.9c9,0,27.2-13.5,37.9-22.2l4-11.4l-0.4-0.4c-11.3,13.2-48.8,23.5-51,17
			c-1.5-4.4,0.5-26.8,1.4-36.7l-3.3-1c0,0-11.3,45.3-7.6,49.1c3.5,3.5,0.1,48.3-4.7,60.6l28.3,0.4
			C228.7,251.5,238.1,208.9,238.1,208.9z"/>
		<path class="st0" d="M70.3,189c2.4-1.7,0-27.3,0-27.3l-1.9,0.3c0.1-1.6,0.1-2.6,0.1-2.6c-8.7-4.2-16.7-9.7-23.7-16.3l2.5-2.8
			c3.5,4.7,25.8,16.6,25.8,16.6s-3.9,18.3,5.4,26c9.3,7.7,23.8-4.7,23.8-4.7l2.3,5.6c0,0-15.6,6-24.9,11.9s-4,27.7-4,27.7l-8-1.1
			C66.1,215.2,68.1,190.6,70.3,189z"/>
		<path class="st0" d="M59.5,190.5c-4.9-0.8-13.6-9.6-18.7-15.2l-1.2-6.6l0.3-0.2c5,8.1,24.5,16.8,26.2,13.5
			c1.2-2.3,2-14.6,2.3-20.1l1.9-0.3c0,0,2.3,25.6,0,27.3c-2.2,1.6-4.1,26.2-2.6,33.3l-15.4-2.2C61,214.4,59.5,190.5,59.5,190.5z"/>
		<path class="st1" d="M47.3,155.9c0,0-5.1-1.4-7.7-3.4l-10.8-1.7l10-9.8c0.8-4.9,8.2-3.8,8.2-3.8s0.8-4.9,7.1-5.2
			c6.4-0.3,6.8,4.9,6.8,4.9s0.3-10.1,11.4-8.4c11.1,1.7,5.5,13.5,5.5,13.5s1.8-3.5,7.8-1.3c6,2.2,1.1,9,1.1,9
			c10.5,1.6,6.4,10,5.9,10.9c0,1.4-0.8,3-3.4,4c-4.6,1.9-10.7-3.8-13.2-6.6l-3.9-0.6c-3.5,0.8-7.2,1-10.8,0.5
			c-4-0.6-5.8-2.2-6.6-3.3l-2.9-0.4L47.3,155.9z"/>
		<path class="st2" d="M31.3,147.2c-1-1.4-0.8-3.3,0.6-4.3c0.3-0.2,0.6-0.4,1-0.5c2.3-0.9,4.5,2,4.5,2s-1.4-9.1,7-9S53,143,53,143
			c1.1-1.3,2.9-1.6,4.3-0.6c1.3,0.7,1.7,2.2,1.1,3.5c-0.1,0.1-0.2,0.3-0.3,0.4c1.1-1.3,2.8-2,4.5-1.8c7.1-0.2,5.7,8.5,5.7,8.5
			c2.9-0.2,5.6,1.5,6.6,4.3c0.7,0.7,1,1.7,0.7,2.7c0,0.3,0,0.5,0,0.5h-0.2c-1.7,3.8-19.8,0.4-26.1-4.1l-3.4-0.5
			c-2.2,0.9-6,2-8.3,0.9c-1.5-0.8-3-1.7-4.2-2.9l-4.4-0.7c0,0-5.5-0.8-5.3-2.1C24.3,146,31.3,147.2,31.3,147.2z"/>
		<path class="st2" d="M88.3,180.6c0.3-2.7,3.7-2.1,3.7-2.1c-0.5-0.8-0.3-1.9,0.5-2.4c0.1-0.1,0.2-0.1,0.3-0.2c1.1-0.5,2.2,1,2.2,1
			s-0.6-4.8,3.4-4.8c4,0,4.1,4,4.1,4c0.4-0.7,1.4-0.9,2-0.4c0.7,0.4,0.9,1.4,0.4,2c0,0-0.1,0.1-0.1,0.1c0.5-0.7,1.3-1.1,2.2-1
			c3.4-0.1,2.7,4.4,2.7,4.4c2.7-0.1,3.3,2.4,3.4,3.4c0,0.1,0,0.3,0,0.4c-0.3,1.7-5.9-0.1-5.8-0.9c0,0-4.4,1-6.7-0.2l-2.4-1.2
			l-3.6-0.6c-1,0.4-2.1,0.5-3.1,0.4c-2.5-0.4-3-1.7-3-1.7C88.4,180.8,88.3,180.7,88.3,180.6z"/>
		<path class="st3" d="M22.7,170.3c0.4-3.4,4.5-2.6,4.5-2.6c-0.6-1-0.3-2.4,0.7-3c0.1-0.1,0.2-0.1,0.3-0.2c1.4-0.6,2.7,1.2,2.7,1.2
			s-0.7-5.9,4.2-6s5,4.9,5,4.9c0.5-0.9,1.6-1.2,2.5-0.6c0.9,0.5,1.2,1.6,0.6,2.5c-0.1,0.1-0.1,0.2-0.2,0.2c0.6-0.9,1.6-1.3,2.7-1.2
			c4.2-0.2,3.3,5.5,3.3,5.5c4.2-0.2,4.2,4.8,4.2,4.8s-0.5,3.1-5.5,1.3c-5-1.8-4.9-2.9-4.9-2.9s-3.5,2.6-6.4,1.1
			c-1.5-0.7-3-1.7-4.3-2.8c0,0-4.1,2.5-7,1c-2.1-1.1-2.5-2.4-2.6-3.1C22.7,170.4,22.7,170.3,22.7,170.3z"/>
		
			<linearGradient id="SVGID_2_" gradientUnits="userSpaceOnUse" x1="-2101.8416" y1="708.1744" x2="-2064.3398" y2="708.1744" gradientTransform="matrix(-0.99 -0.15 0.15 -0.99 -2109.25 579.1)">
			<stop  offset="0" style="stop-color:#747D9D"/>
			<stop  offset="0.59" style="stop-color:#9281AA"/>
			<stop  offset="1" style="stop-color:#AA84B4"/>
		</linearGradient>
		<path class="st5" d="M59.5,190.4c-4.9-0.8-13.6-9.6-18.7-15.2l-1.2-6.6l0.3-0.2c5,8.1,24.5,16.8,26.2,13.5
			c1.2-2.3,2-14.6,2.3-20.1l1.9-0.3c0,0,2.3,25.6,0,27.3c-2.2,1.6-4.1,26.2-2.6,33.3L52.3,220C61.1,214.3,59.5,190.4,59.5,190.4z"/>
		<path class="st3" d="M0,208.1c0,0,234.5,42.3,248.2,56.4c13.7,14.2,71.1,72.8,71.1,72.8s44.5,147.1,75.1,164.5
			c30.6,17.5,147.4,85.6,147.4,85.6s-14.2,36.8,25.7,44c67.7,12.2,205.8-1.8,213.3,4.2c12,9.4,72.9,56.8,72.9,56.8
			s146.6,32.4,149.3,33.1c2.7,0.8,27.2,9.5,27.2,9.5H0V208.1z"/>
		<path class="st1" d="M0,361.2h332.4c0.5,0,24.6,63.4,24.6,63.4H0V361.2z"/>
		<path class="st1" d="M357,424.6h12c0,0,10.4,21.9,19.1,35c8.7,13.1,20.2,27.9,20.2,27.9l6.4,26.2H0v-89H357z"/>
		<path class="st6" d="M0,580.3c0,0,241.6,15.7,294.8,18.5c53.2,2.7,156.7,3.1,164,0c7.3-3.1,70.7-8.1,70.7-8.1l12.2-3.2l25.7,43.9
			L357,675.1H181.9l-86.7-21.9L0,656.2V580.3z"/>
		<path class="st6" d="M408.4,487.5l-124.6,8.7L142.1,499L0,493.2v32c0,0,120.3,8.2,123,7.1c2.7-1.1,104.4,0.1,104.4,0.1l98.9-11.2
			l88.4-7.6L408.4,487.5z"/>
		<polygon class="st6" points="357,424.6 345.7,395 211,392.9 126.3,392.9 56.9,392.9 0,388.5 0,409.9 55.2,424.6 144.9,420.8 
			261.3,424.6 330.2,423.5 		"/>
		<polygon class="st1" points="326.9,361.2 239.8,342.4 145.1,340.7 83.5,340.7 0,340.7 0,366.9 173.5,378.5 298.1,374.5 		"/>
		<polygon class="st6" points="319.2,337.4 248.7,333.1 186.4,324.6 109.3,331 36.1,331 0,320.2 0,344.3 60.1,349.2 159.6,357.4 
			253.7,351.9 326.9,361.2 		"/>
		<path class="st3" d="M196.3,444c0,0,1.6-17.1-18-24.7s-37.2,7.4-37.2,7.4s7.1-10.4-13.7-17.8s-43.2-3.6-42.1,10.9
			c0,0,0.7-12.3-26.4-7.9s-21,17.6-21,17.6s-2.7-11.4-21.6-2.7C-2.7,435.4,8.1,444,8.1,444L196.3,444z"/>
		<path class="st3" d="M373.3,444c0,0,1.6-17.1-18-24.7s-37.2,7.4-37.2,7.4s7.1-10.4-13.7-17.8c-20.8-7.4-43.2-3.6-42.1,10.9
			c0,0,0.7-12.3-26.4-7.9s-21,17.6-21,17.6s-2.7-11.4-21.6-2.7c-18.9,8.6-8.1,17.3-8.1,17.3L373.3,444z"/>
		<path class="st2" d="M200.3,477.6c0,0,1.6-18-18-26c-19.7-7.9-37.2,7.8-37.2,7.8s7.1-10.9-13.7-18.8s-43.2-3.8-42.1,11.4
			c0,0,0.7-13-26.4-8.4c-27.1,4.6-21,18.6-21,18.6s-2.7-12-21.6-2.9s-8.1,18.2-8.1,18.2L200.3,477.6z"/>
		<path class="st2" d="M377.3,477.6c0,0,1.6-18-18-26c-19.7-7.9-37.2,7.8-37.2,7.8s7.1-10.9-13.7-18.8s-43.2-3.8-42.1,11.4
			c0,0,0.7-13-26.4-8.4c-27.1,4.6-21,18.6-21,18.6s-2.7-12-21.6-2.9s-8.1,18.2-8.1,18.2L377.3,477.6z"/>
		<circle class="st7" cx="56.7" cy="460.3" r="3.1"/>
		<circle class="st7" cx="119.5" cy="451.3" r="3.2"/>
		<circle class="st7" cx="160.2" cy="467.1" r="2"/>
		<circle class="st7" cx="224.9" cy="469.3" r="2.2"/>
		<circle class="st7" cx="254.6" cy="454.9" r="3.6"/>
		<circle class="st7" cx="299.2" cy="456.7" r="1.8"/>
		<circle class="st7" cx="345.1" cy="468.5" r="5.1"/>
		<circle class="st7" cx="94.2" cy="467.1" r="2"/>
		<circle class="st7" cx="24.8" cy="469.3" r="2.2"/>
		<circle class="st7" cx="56.3" cy="425.3" r="3.1"/>
		<circle class="st7" cx="119.1" cy="416.3" r="3.2"/>
		<circle class="st7" cx="159.8" cy="432.1" r="2"/>
		<circle class="st7" cx="224.6" cy="434.3" r="2.2"/>
		<circle class="st7" cx="254.3" cy="419.9" r="3.6"/>
		<circle class="st7" cx="298.9" cy="421.7" r="1.8"/>
		<circle class="st7" cx="344.8" cy="433.5" r="5.1"/>
		<circle class="st7" cx="93.9" cy="432.1" r="2"/>
		<circle class="st7" cx="24.5" cy="434.3" r="2.2"/>
		<path class="st8" d="M506.8,580.3c-1.6-2.1-86.2-54.6-92-56.8c-5.8-2.2-32.8,6.8-69.6,8.8c-36.8,2.1-147.2,20.6-175.7,13.3
			C141,538.3,0,532.4,0,532.4v36.5c0,0,75.9-2.7,96.2-1.1s128.7,12.5,128.7,12.5H506.8z"/>
		<polygon class="st2" points="2100.3,727.9 773.5,727.9 773.5,727.8 0,727.8 0,742.2 773.5,742.2 773.5,742.1 2100.3,742.1 		"/>
	</g>
</g>
</svg>
