<svg xmlns="http://www.w3.org/2000/svg" xmlns:xlink="http://www.w3.org/1999/xlink" viewBox="0 0 2068 341.57"><defs><style>.cls-1,.cls-2{fill:#fff;}.cls-2{opacity:0.64;}.cls-3{fill:url(#linear-gradient);}</style><linearGradient id="linear-gradient" x1="-3648.61" y1="308.21" x2="-3648.61" y2="193.79" gradientTransform="matrix(-1, 0, 0, 1, -2164.9, 0)" gradientUnits="userSpaceOnUse"><stop offset="0" stop-color="#fcc189"/><stop offset="0.18" stop-color="#f7c089"/><stop offset="0.39" stop-color="#e8bb8b"/><stop offset="0.62" stop-color="#d0b48d"/><stop offset="0.87" stop-color="#aeaa8f"/><stop offset="1" stop-color="#99a491"/></linearGradient></defs><title>เมฆขยับ</title><g id="เมฆขยับ"><path class="cls-1" d="M554.3,159.08H832.41s-13.5-66.2-104-59.18c0,0-6.75-52.16-67.5-35.11,0,0-28.35,8-23,35.11,0,0-8.1-11-28.35-6,0,0-14.85,5-12.15,16,0,0-27-7-28.35,12,0,0-63.45,4-67.5,37.11Z"/><path class="cls-2" d="M1316.77,161.4H1145.68s8.3-40.72,63.95-36.41c0,0,4.15-32.09,41.52-21.6,0,0,17.44,4.94,14.12,21.6,0,0,5-6.79,17.44-3.7,0,0,9.14,3.09,7.47,9.87,0,0,16.61-4.32,17.44,7.4,0,0,39,2.47,41.52,22.83Z"/><path class="cls-1" d="M1884,90.21H1719.83s8-39.09,61.38-34.94c0,0,4-30.8,39.86-20.73,0,0,16.74,4.74,13.55,20.73,0,0,4.78-6.51,16.74-3.55,0,0,8.77,3,7.17,9.48,0,0,15.94-4.15,16.74,7.11,0,0,37.47,2.37,39.86,21.91Z"/><path class="cls-3" d="M1575.52,278.61H1349s11-30.82,84.66-27.56c0,0,5.5-24.29,55-16.35,0,0,23.09,3.74,18.69,16.35,0,0,6.6-5.14,23.09-2.8,0,0,12.09,2.34,9.89,7.47,0,0,22-3.27,23.09,5.6,0,0,51.67,1.87,55,17.28Z"/><path class="cls-1" d="M213.6,131.07a20.35,20.35,0,0,0-31.18-17.21,8.11,8.11,0,0,0-3.12-.69,14.38,14.38,0,0,0-20-10.9c-1.94-5.65-4.19-10.7-12.14-12.69a14.53,14.53,0,0,0-17.9,10.94c-1.77-.8-1.31,2.09-3.38,2.09a14.07,14.07,0,0,0-10.1,4.26,5.63,5.63,0,0,0-9,4.48c0,.07,0,.14,0,.2a18.35,18.35,0,0,0-16.28,18.23q0,.76.06,1.5l-.06.06H213.59c0-.09,0-.17,0-.26Z"/></g></svg>