<svg xmlns="http://www.w3.org/2000/svg" viewBox="0 0 1450.56 945.41"><defs><style>.cls-1{fill:#fbecb2;opacity:0.47;}.cls-2{fill:#bf6536;}.cls-3{fill:#fff;}</style></defs><title>แผนที่โลก</title><g id="แผนที่โลก"><ellipse class="cls-1" cx="705.19" cy="467.5" rx="488.46" ry="325.76"/><path class="cls-2" d="M284.77,316.91c9.89-3.81,21.55-4.68,25.94-17.29.69-2,5.41-3.1,8.45-3.67,17.28-3.23,34.64-9.15,51.68,1.43,2,1.23,5.58.87,8.07.09,13.08-4.14,26.27-2.62,39.47-1.26,2.19.23,4.66,1.69,6-1,1.11-2.2.61-4.49-2.07-5.59-2.47-1-5.92-1.62-3.24-5.38a6.73,6.73,0,0,1,7.41-2.54c8.21,2.5,15.86,6.26,25.08,5.5,4.55-.37,4.44,2.36-2.22,8.6,10.51,5.62,10.55,5.67,19.45-2.71,1.65-1.55,3.64-4.55,5.37-2.82a33.58,33.58,0,0,1,7.16,11.17c.79,2-2.43,3.23-4.5,4.17-7.84,3.54-15.7,7-23.42,10.82-4.1,2-8.53,4.34-8.73,9.67-.23,6.11,5,6.83,9.31,8.25,1.3.43,2.8,1.79,3.77,1.46,5.75-2,1.35,21.34,12.8,5,3.6-5.13,11.5-5.3,12.79-14.41,1.51-10.73,12.17-12.71,20.78-5.36,1,.86,2,3.22,2.39,3.09,11.69-4,10.31,7,14.9,11.85,10.36,10.92.53,12-5.83,13.78-7,2-14.41,2.12-22.24,3.77,6.93,1.3,3.36,12.26,12.69,11.55-12.59,5-26,4.87-36.48,14.8C458.71,390.16,449,401.79,436,409.82c-6.76,4.18,4.32,13.4-4,18.78-4.48-5.47-4.1-16.18-14.78-15-26.22,3-30.17,5.94-34.84,23.46-1.54,5.76-.75,10,4.19,13s9.53,2.53,13.54-1.9c1.77-2,3.38-5.06,6.57-3.74s2.43,4.81,1.46,7.14c-2.29,5.52-.56,6.71,4.9,9.3,8.18,3.89,2.74,12.53,4.16,23.14-11.35-16.66-25-21.63-40.43-24.41-8.58-1.54-15.07-6.22-19.33-16.56-5.33-13-10.65-26.9-22.46-36.87-11.51-9.72-11.59-19.93-2.52-32.52,6.54-9.08,13.59-16.59,11.81-30.33-2.39-18.5-10.4-26.07-29.58-22.27-9.86,2-19.08,9.56-30,4.09Z"/><path class="cls-2" d="M551.8,256.34c.83,8.19,7.4,5.25,11.57,5.34,21.47.43,43,.32,64.44.41,4.46,0,9.05-.95,14.58,2.13-5.7,6.45-13.34,12.15-16.44,17.5-11.16,19.22-32.69,14.11-46.93,24.43a30.35,30.35,0,0,0-6.4,6.91c-2.39,3.18-4.49,7.79-9.56,6-5.83-2.05-7.15-7.71-8.83-13-1.38-4.35-2.39-7.48,3.89-8.95,5.8-1.36,4.09-5.95,2.42-10-4.84-11.71-22.33-19.14-34-14.39-3,1.2-5.87,2.49-8.88,3.51-6.72,2.28-14.92.78-16.3-4.95-1.45-6.05,7.49-4.15,11.68-5.57,10.89-3.7,22.15-6.33,33.27-9.39Z"/><path class="cls-2" d="M736.23,322.32c-5.3-4.13-16.65.84-12.15-11.26.86-2.31-3.23-2.38-5.25-1.4-4.46,2.18-7.64,5.6-6.19,10.91,1.49,5.47-1.18,9-5,11.67-4.65,3.32-7-2-10.43-3.31-18-6.65-8.93-13-.78-20.74,19.37-18.42,35.37-20.84,60.5-8.09,1.28,6.24-11-.7-7.16,7,2.68,5.39,6.7,3.49,11.32.48,14.46-9.42,30-14.43,47.43-8.38,3,1.05,6.83,2.12,7-3.06.08-3.07-5.21-7.42.87-8.8,5.76-1.31,7.37,3.91,8.26,8.71.22,1.22,1.07,2.32,2,4.24,1.78-1.07,3.75-1.59,4.59-2.86,14-21.2,35.65-18.92,56.92-19.69,8.15-.3,4.42,9.43,13.17,9.55,16.94.23,34.78,4.24,51,3.35,27.8-1.54,54.23,5.05,81.29,5.69,10.35.24,20.58.94,30.88,1.37,11.63.49,12.14,9,14.72,16.05,1,2.84-3.5,5.08-5.32,5.3-11.12,1.38-16.38,4.25-5.55,14.13,1,.95.88,3.5.82,5.29-.09,2.61.9,6-2,7.4-3.15,1.54-5.23-1.43-6.66-3.44-4.17-5.84-13.48-9.62-8.17-19.59,1.1-2.07.36-5.21-2.19-5.6-3.93-.6-10.05-2.21-11.6,1.25-4.36,9.74-10.9,5.54-17.3,4.38a14.63,14.63,0,0,0-5.47-.14c-6,1.27-9.89,4.75-9.82,11.3.07,6.21,4.47,7.64,9.44,7.31,8.35-.56,13.86,3.76,15,11.08s3.72,15.9-7.55,20.69c-7.21,3.07-8,10.59-.57,16.54,3,2.41,5.66,5.88,1.49,9.05-3.66,2.77-5.41-.86-7.16-3.65-3.75-6-10.46-8.15-15.83-12.06-6.06-4.41-6.9,1-9,3.92-2.48,3.38-1.11,4.66,2.66,6.84,20,11.62,20.45,33.09,1.26,45.45-4,2.6-6,6.82-8.55,10.94-4.84-.69-3.29-13.1-11-6.44-5.64,4.85-2.48,9.48,1.76,14a34.76,34.76,0,0,1,7.41,11.37c1.95,5.34-3.11,8.08-6.32,11.08-4,3.76-7.18,1.27-10.64-1.69-11.74-10-24.88-18.55-33-32.35a10.37,10.37,0,0,0-10.5-5.24c-9.21,1-25.72,19.85-24.57,29.49.76,6.37.27,12.22-6,13.14-5.54.81-5.3-6.27-6.92-10.25-3.26-8-4.58-18-8.86-24-6.44-9-17-17.62-29-18.88-16.26-1.7-30.81-6.6-44.3-15.61.74,17.61,2.78,19.71,18.17,16.44,5.86-1.25,6.69,3.64,9.61,5.92,3.63,2.83,2.86,6.05.39,9.58-8.34,11.92-21,17.46-33.67,22.74-5.2,2.16-7.16-1.72-8.58-6.1-4.31-13.27-14.9-23-20.37-35.68-1.17-2.71-3.36-5.58-9.78-5.5,5.35,12.61,9.82,24.47,17.44,35,2.42,3.33,5.85,6.24,7.26,9.94,3.09,8.12,8.19,11.12,16.74,9.88,3.25-.47,7.93-2.05,10,1.86,2.22,4.18-.91,8.06-3.29,11.26-6.54,8.81-13,17.74-20.39,25.84s-10.75,16.53-7,27.5c3.41,9.91,2,18.95-7.46,25.45-10.69,7.34-5.53,22.79-15.51,30.68-2,1.61-2.88,4.67-4.71,6.66-8.17,8.9-17.67,19.83-29.94,15.46-10.38-3.7-12.35-17.63-15.11-28.26-1.5-5.78-2.78-11.61-5.51-16.86-3.38-6.51-4.24-12.79-1.5-19.76,3.16-8,2.25-16.11-.7-24.11-3.51-9.54-9.23-17.71-10-29-.55-7.77-12-12.15-21.7-11.76-3.15.13-6.26,1.31-9.38,2.06-21.29,5.15-39.44-2.12-43.32-22.72-2.93-15.56-2.27-33.93,11.28-47.33A57.89,57.89,0,0,0,639,410c3.23-6,8.58-10.31,16.28-10.9a183.9,183.9,0,0,0,23-3.24c8-1.65,14-4.6,18.72,7.41,2.4,6.07,14.44,13.87,25.6,7,6.43-4,12,1.62,18.09,1.86,8.85.35,18.64,4.24,23.92-7.2,3-6.48,2.28-10.55-6.13-10.73s-17.75,2.07-20.23-10.84c-.88-4.58-6-1.48-6.92,1.27-4.63,13.26-9.1,3.57-10.48-.71-3.12-9.67-12-11.31-17.63-17.53-4.21,5.19,1.92,6.53.75,9.93-.36.19-1.32,1.09-1.8.89-19.57-8.28-19.46-8.2-36.58,11.3-5,5.65-11.74,7.42-18.76,4.24-6-2.72-4.06-8.67-3.75-13.44.37-5.6,3.54-8.17,9.41-6.48,8.92,2.57,15.08,2.41,8.56-9.28-1.63-2.93-1.09-6.2,1.56-7.08,14.51-4.82,23.5-22,43-16.63C718.68,343.36,724.5,327.93,736.23,322.32Z"/><path class="cls-2" d="M460.58,588.45c6.11-12.59-1.82-19.06-12.07-25-12.69-7.4-16.84-21.46-22.83-33.47-2.86-5.73-1.59-14.09,3.18-20.76,4.17-5.83,7.52-12,7.5-20.09,0-10.19,6-11.81,16.94-10.6,4.71.52,10.24-2,15.81-.2,18.23,5.79,35.24,12.45,45.19,31,4,7.5,14.07,9,22.26,11,3.95,1,8.05,1.05,11.86,2.92,9.41,4.61,15.67,9.89,6.6,20.55-4.32,5.08-5.2,11.81-5.67,18-1,13.24-3.87,24.5-19.26,27.46-2.85.55-4.41,2.7-5.31,5.65-3.44,11.31-2.87,25.49-19.24,27.92,4.93,16.48-27.09,21.63-12.64,41.72,2.37,3.3.07,12.15-4.32,14.22s-9.66-2.77-11.48-7.59c-4.73-12.57-10.35-25.14-12.55-38.22C462.13,618.68,463.85,603.76,460.58,588.45Z"/><path class="cls-2" d="M1084.91,552.34c7.24,12.54,7.73,27.85,19.17,37.84,2,1.72,1,8.06-.12,11.85-4.6,16.1-16.5,26.36-30.79,33-6.63,3.06-15.91,5.1-18.68-8-2-9.32-17.71-14.74-28.8-11.66-8.37,2.32-16.72,4.71-25,7.32-5.44,1.72-8.84,1.6-8.3-5.67.61-8.18.19-16.33,1.65-24.59,1.35-7.61,5.19-11.53,11.77-13.32,7.36-2,14-5.25,18.18-11.5,7.69-11.46,23.37-6.38,32-16.11,1.34-1.52,7-1.19,7.47,3.24.71,6.59,2.76,12.64,10,12.24S1079.55,557.63,1084.91,552.34Z"/><path class="cls-2" d="M505.07,283.94c7.4,1.25,16.33,1.61,20.25,11.5,1.94,4.89-4.11,19.52-9,20-2.77.24-5.93-1.84-8.61-3.41-2.49-1.45-1.83-3.43-.26-5.67,6.92-9.86,2.41-13.64-7.82-14.83-3.16-.37-8.78,2.85-9.17-2.45-.44-6,5.58-4.27,9.35-4.73C501.2,284.14,502.57,284.11,505.07,283.94Z"/><path class="cls-2" d="M1107.59,547.61c-8.25-14.61-30.48.74-36.93-18.09-.79-2.29-7.13-1.74-3.69-6.21,2.5-3.26,5.54-4.06,10.45-3.31C1093.32,522.44,1100,534.91,1107.59,547.61Z"/><path class="cls-2" d="M1014.23,505.18c-2.2,7.6-1.84,17.73-14.71,17.87-6.7.07-10.21-3.12-10.1-9.8.09-5.42,15.27-20.42,20.24-19.77C1017.07,494.46,1012.84,500.49,1014.23,505.18Z"/><path class="cls-2" d="M810,556.07c3,12.84-6.1,22.16-8.24,33.22-.64,3.29-4.31,5.09-7.63,4.08-4-1.2-3.43-5.34-2.9-8.23C793.37,573.3,794.38,560.55,810,556.07Z"/><path class="cls-2" d="M954.29,505.22c9.89.54,23.39,13.38,23.5,21.3,0,2-.52,3.62-2.47,4.34-2.61,1-4.32-.71-5.86-2.4a24.82,24.82,0,0,1-2.31-3.38C963,518.64,958.81,512.2,954.29,505.22Z"/><path class="cls-3" d="M905.28,439.94h0a1.57,1.57,0,0,0,1.18.86h0a1.57,1.57,0,0,1,.87,2.68h0a1.57,1.57,0,0,0-.45,1.39h0a1.57,1.57,0,0,1-2.28,1.65h0a1.57,1.57,0,0,0-1.46,0h0a1.57,1.57,0,0,1-2.28-1.65h0a1.57,1.57,0,0,0-.45-1.39h0a1.57,1.57,0,0,1,.87-2.68h0a1.57,1.57,0,0,0,1.18-.86h0A1.57,1.57,0,0,1,905.28,439.94Z"/><path class="cls-3" d="M951.77,447.58h0a1.57,1.57,0,0,0,1.18.86h0a1.57,1.57,0,0,1,.87,2.68h0a1.57,1.57,0,0,0-.45,1.39h0a1.57,1.57,0,0,1-2.28,1.65h0a1.57,1.57,0,0,0-1.46,0h0a1.57,1.57,0,0,1-2.28-1.65h0a1.57,1.57,0,0,0-.45-1.39h0a1.57,1.57,0,0,1,.87-2.68h0a1.57,1.57,0,0,0,1.18-.86h0A1.57,1.57,0,0,1,951.77,447.58Z"/><circle class="cls-3" cx="1027.17" cy="223.97" r="12.13"/><circle class="cls-3" cx="800.69" cy="788.6" r="13.6"/><circle class="cls-3" cx="216.73" cy="450.21" r="6.8"/><circle class="cls-3" cx="1068.12" cy="250.11" r="8.57"/><circle class="cls-3" cx="766.5" cy="792.42" r="4.87"/></g></svg>