<?xml version="1.0" encoding="utf-8"?>
<!-- Generator: Adobe Illustrator 21.0.0, SVG Export Plug-In . SVG Version: 6.00 Build 0)  -->
<svg version="1.1" id="Layer_1" xmlns="http://www.w3.org/2000/svg" xmlns:xlink="http://www.w3.org/1999/xlink" x="0px" y="0px"
	 viewBox="0 0 1450.6 945.4" style="enable-background:new 0 0 1450.6 945.4;" xml:space="preserve">
<style type="text/css">
	.st0{opacity:0.47;fill:#FBECB2;enable-background:new    ;}
	.st1{fill:#BF6536;}
	.st2{fill:#FFFFFF;}
</style>
<title>แผนที่โลก</title>
<g id="แผนที่โลก">
	<ellipse class="st0" cx="749.1" cy="466.4" rx="694.2" ry="463"/>
	<path class="st1" d="M151.6,252.3c14.1-5.4,30.6-6.7,36.9-24.6c1-2.9,7.7-4.4,12-5.2c24.6-4.6,49.2-13,73.5,2.1
		c2.9,1.8,8,1.3,11.5,0.1c18.6-5.9,37.4-3.7,56.1-1.8c3.1,0.3,6.6,2.4,8.6-1.4c1.6-3.1,0.9-6.4-3-8c-3.5-1.4-8.5-2.3-4.6-7.7
		c2.4-3.3,6.6-4.8,10.5-3.6c11.7,3.5,22.5,8.9,35.6,7.8c6.5-0.5,6.3,3.3-3.1,12.2c15,8,15,8.1,27.6-3.8c2.4-2.2,5.2-6.5,7.7-4
		c4.4,4.5,7.9,9.9,10.1,15.8c1.1,2.9-3.4,4.6-6.4,5.9c-11.1,5-22.3,9.9-33.2,15.3c-5.8,2.9-12.1,6.2-12.4,13.8
		c-0.3,8.7,7.1,9.7,13.3,11.7c1.9,0.6,3.9,2.6,5.3,2.1c8.2-2.9,2,30.3,18.2,7.1c5.1-7.3,16.3-7.6,18.2-20.5
		c2.2-15.2,17.3-18.1,29.5-7.6c1.4,1.2,2.9,4.6,3.4,4.4c16.6-5.7,14.7,9.9,21.1,16.8c14.8,15.5,0.8,17-8.3,19.6
		c-9.9,2.9-20.5,3-31.6,5.3c9.8,1.9,4.8,17.4,18,16.4c-17.9,7.1-37,6.9-51.8,21c-15.4,14.7-29.2,31.2-47.7,42.6
		c-9.6,5.9,6.1,19.1-5.7,26.7c-6.4-7.8-5.8-23-21-21.3c-37.3,4.2-42.9,8.5-49.5,33.3c-2.2,8.2-1.1,14.2,6,18.5s13.6,3.6,19.3-2.7
		c2.6-2.9,4.8-7.2,9.3-5.3c4.5,1.9,3.4,6.8,2.1,10.1c-3.2,7.9-0.8,9.5,7,13.2c11.6,5.5,3.9,17.8,5.9,32.9
		c-16.1-23.7-35.5-30.8-57.4-34.7c-12.2-2.2-21.4-8.9-27.4-23.5c-7.6-18.5-15.1-38.3-32-52.4c-16.3-13.8-16.4-28.3-3.5-46.2
		c9.2-12.9,19.3-23.6,16.8-43.1c-3.4-26.3-14.8-37.1-42-31.7c-14,2.9-27.1,13.6-42.6,5.8L151.6,252.3z"/>
	<path class="st1" d="M531.2,166.3c1.2,11.6,10.5,7.5,16.4,7.6c30.5,0.6,61.1,0.5,91.6,0.6c6.3,0,12.9-1.4,20.8,3
		c-8.1,9.1-19,17.3-23.4,24.9c-15.8,27.3-46.4,20.1-66.7,34.7c-3.5,2.8-6.6,6.1-9,9.8c-3.4,4.5-6.4,11.1-13.6,8.6
		c-8.3-3-10.1-10.9-12.6-18.5c-2-6.2-3.4-10.6,5.5-12.7c8.3-2,5.8-8.5,3.4-14.2c-6.9-16.6-31.8-27.2-48.3-20.5
		c-4.2,1.7-8.4,3.5-12.6,5c-9.5,3.2-21.2,1.1-23.2-7.1c-2.1-8.6,10.6-5.9,16.6-7.9c15.4-5.2,31.5-9,47.3-13.4L531.2,166.3z"/>
	<path class="st1" d="M793.2,260c-7.6-5.9-23.7,1.2-17.3-16c1.2-3.2-4.6-3.3-7.5-2c-6.3,3-10.8,8-8.8,15.5
		c2.2,7.8-1.7,12.8-7.1,16.6c-6.6,4.7-9.9-2.9-14.9-4.7c-25.6-9.4-12.7-18.5-1.1-29.5c27.5-26.2,50.3-29.6,86-11.5
		c1.8,8.9-15.6-1-10.1,9.9c3.8,7.7,9.5,4.9,16.1,0.7c20.6-13.4,42.6-20.5,67.4-11.9c4.2,1.5,9.7,3,9.9-4.3
		c0.1-4.3-7.4-10.5,1.3-12.5c8.2-1.9,10.4,5.5,11.7,12.4c0.3,1.8,1.5,3.3,2.9,6c2.6-1.5,5.3-2.3,6.5-4
		c19.9-30.1,50.7-26.9,80.9-27.9c11.6-0.4,6.3,13.4,18.7,13.6c24.1,0.3,49.5,6,72.5,4.7c39.5-2.2,77.1,7.2,115.6,8.1
		c14.8,0.3,29.2,1.4,43.9,2c16.5,0.7,17.2,12.8,21,22.8c1.4,4-5,7.2-7.6,7.6c-15.8,2-23.3,6-7.9,20.1c1.4,1.4,1.3,5,1.2,7.5
		c-0.1,3.7,1.3,8.6-2.9,10.5c-4.5,2.2-7.5-2.1-9.4-4.9c-5.9-8.3-19.2-13.7-11.6-27.8c1.6-3,0.5-7.4-3.1-8
		c-5.6-0.9-14.3-3.1-16.5,1.8c-6.2,13.9-15.4,7.9-24.6,6.2c-2.6-0.6-5.2-0.6-7.8-0.2c-8.6,1.8-14.1,6.8-14,16
		c0.1,8.9,6.4,10.8,13.4,10.4c11.9-0.8,19.7,5.3,21.3,15.7c1.7,10.4,5.3,22.6-10.7,29.4c-10.2,4.3-11.4,15-0.8,23.5
		c4.2,3.4,8.1,8.4,2.2,12.9c-5.2,3.9-7.7-1.2-10.1-5.2c-5.3-8.6-14.9-11.6-22.5-17.1c-8.7-6.3-9.8,1.4-12.8,5.6
		c-3.5,4.8-1.6,6.6,3.7,9.7c28.4,16.5,29,47,1.8,64.6c-5.7,3.7-8.6,9.7-12.2,15.5c-6.9-1-4.7-18.6-15.6-9.1
		c-8,6.9-3.5,13.5,2.5,19.9c4.5,4.6,8.2,10.1,10.5,16.1c2.8,7.6-4.4,11.5-9,15.7c-5.7,5.3-10.2,1.8-15.1-2.4
		c-16.7-14.2-35.3-26.4-46.9-45.9c-3-5.3-8.9-8.3-15-7.5c-13.1,1.4-36.6,28.2-34.9,41.9c1.1,9,0.4,17.4-8.6,18.7
		c-7.9,1.2-7.6-9-9.8-14.6c-4.6-11.4-6.5-25.6-12.6-34.1c-9.1-12.8-24.2-25.1-41.2-26.9c-23.1-2.5-43.8-9.3-62.9-22.2
		c1.1,25,3.9,28,25.9,23.4c8.4-1.8,9.5,5.2,13.7,8.5c5.1,4,4,8.6,0.6,13.6c-11.9,16.9-29.8,24.8-47.8,32.4c-7.4,3-10.1-2.5-12.2-8.7
		c-6.1-18.9-21.1-32.7-28.9-50.8c-1.7-3.8-4.8-8-13.9-7.8c7.6,17.9,14,34.8,24.8,49.8c3.4,4.7,8.4,8.9,10.3,14.2
		c4.4,11.5,11.6,15.8,23.8,14.1c4.6-0.7,11.3-3,14.2,2.7c3.1,5.9-1.3,11.4-4.7,16c-9.2,12.5-18.5,25.2-29,36.7s-15.2,23.5-9.9,39
		c4.8,14.1,2.9,27-10.6,36.2c-15.1,10.4-7.9,32.4-22,43.6c-2.9,2.3-4.1,6.6-6.7,9.4c-11.6,12.7-25.1,28.2-42.6,21.9
		c-14.8-5.2-17.5-25.1-21.4-40.1c-2.2-8.3-3.9-16.5-7.9-24c-4.8-9.2-6-18.2-2.2-28.1c4.5-11.4,3.2-22.9-1-34.2
		c-5-13.6-13.1-25.2-14.2-41.2c-0.8-11-17-17.3-30.9-16.7c-4.5,0.2-8.9,1.9-13.4,3c-30.3,7.3-56.1-3-61.6-32.3
		c-4.1-22.1-3.2-48.2,16-67.3c6.1-5.8,11.3-12.5,15.3-19.9c4.6-8.6,12.2-14.7,23.1-15.4c11-0.9,21.9-2.4,32.7-4.6
		c11.4-2.4,19.9-6.5,26.6,10.5c3.4,8.7,20.6,19.7,36.4,9.9c9.1-5.7,17,2.3,25.7,2.7c12.6,0.5,26.5,6,34-10.2
		c4.2-9.2,3.2-15-8.8-15.2c-12-0.3-25.2,3-28.7-15.4c-1.3-6.5-8.6-2.1-9.8,1.8c-6.6,18.9-12.9,5.1-14.9-1c-4.4-13.8-17-16-25.1-24.9
		c-6,7.4,2.8,9.2,1.1,14.1c-0.5,0.3-1.9,1.6-2.6,1.3c-27.8-11.8-27.6-11.6-52,16c-7.1,8.1-16.7,10.5-26.7,6
		c-8.6-3.8-5.8-12.3-5.3-19.1c0.5-8,5-11.6,13.4-9.2c12.7,3.6,21.4,3.4,12.2-13.2c-2.4-4.1-1.6-8.9,2.3-10
		c20.7-6.9,33.4-31.3,61.1-23.6C768.3,289.9,776.6,268,793.2,260z"/>
	<path class="st1" d="M401.5,638.2c8.7-17.9-2.6-27-17.1-35.5c-18-10.5-23.9-30.5-32.5-47.6c-4-8.2-2.3-20.1,4.5-29.5
		c5.9-8.3,10.7-17,10.6-28.5c0-14.5,8.6-16.8,24.1-15c6.7,0.8,14.6-2.9,22.4-0.3c25.9,8.3,50.1,17.7,64.2,44.1
		c5.7,10.6,20,12.8,31.7,15.6c5.6,1.4,11.4,1.5,16.8,4.1c13.4,6.6,22.2,14.1,9.3,29.2c-6.1,7.2-7.4,16.8-8.1,25.6
		c-1.4,18.8-5.5,34.8-27.3,39c-4,0.8-6.3,3.8-7.6,8.1c-4.9,16-4,36.2-27.3,39.6c7,23.4-38.5,30.8-18,59.3c3.3,4.7,0.1,17.3-6.1,20.2
		c-6.2,3-13.8-3.9-16.3-10.8c-6.7-17.9-14.8-35.7-17.8-54.3C403.7,681.2,406.2,659.9,401.5,638.2z"/>
	<path class="st1" d="M1288.7,586.9c10.3,17.8,11,39.5,27.2,53.8c2.9,2.5,1.4,11.4-0.2,16.8c-6.5,22.9-23.4,37.5-43.8,46.9
		c-9.4,4.3-22.6,7.3-26.6-11.4c-2.9-13.3-25.2-21-40.9-16.5c-11.9,3.3-23.8,6.7-35.5,10.4c-7.8,2.5-12.6,2.3-11.8-8.1
		c0.9-11.6,0.3-23.2,2.4-34.9c2-10.8,7.4-16.4,16.7-18.9c10.4-2.9,19.9-7.5,25.9-16.3c10.9-16.3,33.2-9,45.4-22.9
		c1.9-2.2,9.9-1.7,10.6,4.6c1,9.3,3.9,18,14.2,17.4C1282.7,607.1,1281.1,594.4,1288.7,586.9z"/>
	<path class="st1" d="M464.7,205.5c10.5,1.8,23.2,2.3,28.8,16.3c2.8,7-5.8,27.7-12.8,28.4c-3.9,0.3-8.5-2.7-12.2-4.8
		c-3.5-2.1-2.6-4.9-0.4-8.1c9.8-14,3.4-19.4-11.1-21c-4.5-0.5-12.5,4-13-3.4c-0.6-8.6,8-6.1,13.3-6.7
		C459.2,205.7,461.1,205.7,464.7,205.5z"/>
	<path class="st1" d="M1321,580.2c-11.7-20.8-43.3,1.1-52.5-25.7c-1.1-3.2-10.1-2.5-5.2-8.9c3.5-4.6,7.9-5.8,14.9-4.7
		C1300.7,544.5,1310.2,562.2,1321,580.2z"/>
	<path class="st1" d="M1188.3,519.9c-3.1,10.8-2.7,25.2-21,25.4c-9.5,0.1-14.6-4.4-14.4-14c0.1-7.7,21.7-29,28.7-28.1
		C1192.3,504.6,1186.3,513.2,1188.3,519.9z"/>
	<path class="st1" d="M898,592.2c4.2,18.3-8.7,31.5-11.7,47.2c-0.9,4.7-6.1,7.3-10.8,5.8c-5.7-1.7-4.9-7.6-4.1-11.7
		C874.4,616.6,875.8,598.5,898,592.2z"/>
	<path class="st1" d="M1103.1,520c14.1,0.8,33.2,19,33.4,30.3c0,2.9-0.8,5.1-3.5,6.2c-3.7,1.4-6.1-1-8.4-3.4
		c-1.2-1.5-2.4-3.1-3.2-4.8C1115.5,539,1109.5,529.9,1103.1,520z"/>
	<path class="st2" d="M1033.5,427.2L1033.5,427.2c0.3,0.7,1,1.1,1.7,1.2l0,0c1.2,0.2,2.1,1.3,1.9,2.6c-0.1,0.5-0.3,1-0.7,1.3l0,0
		c-0.5,0.5-0.8,1.3-0.7,2l0,0c0.2,1.2-0.6,2.4-1.9,2.6c-0.5,0.1-1,0-1.4-0.2l0,0c-0.7-0.3-1.4-0.3-2.1,0l0,0c-1.1,0.6-2.5,0.2-3-0.9
		c-0.2-0.4-0.3-0.9-0.2-1.4l0,0c0.1-0.7-0.1-1.5-0.7-2l0,0c-0.9-0.9-0.9-2.3,0-3.1c0.3-0.4,0.8-0.6,1.3-0.7l0,0
		c0.7-0.1,1.4-0.6,1.7-1.2l0,0c0.6-1.1,1.9-1.6,3-1C1032.9,426.3,1033.3,426.7,1033.5,427.2z"/>
	<path class="st2" d="M1099.6,438L1099.6,438c0.3,0.7,1,1.1,1.7,1.2l0,0c1.2,0.2,2.1,1.3,1.9,2.6c-0.1,0.5-0.3,1-0.7,1.3l0,0
		c-0.5,0.5-0.8,1.3-0.7,2l0,0c0.2,1.2-0.6,2.4-1.9,2.6c-0.5,0.1-1,0-1.4-0.2l0,0c-0.7-0.3-1.4-0.3-2.1,0l0,0c-1.1,0.6-2.5,0.2-3-0.9
		c-0.2-0.4-0.3-0.9-0.2-1.4l0,0c0.1-0.7-0.1-1.5-0.7-2l0,0c-0.9-0.9-0.9-2.3,0-3.1c0.3-0.4,0.8-0.6,1.3-0.7l0,0
		c0.7-0.1,1.4-0.6,1.7-1.2l0,0c0.6-1.1,1.9-1.6,3-1C1099,437.2,1099.3,437.5,1099.6,438z"/>
	<circle class="st2" cx="1206.7" cy="120.2" r="17.2"/>
	<circle class="st2" cx="884.9" cy="922.6" r="19.4"/>
	<circle class="st2" cx="54.9" cy="441.8" r="9.6"/>
	<circle class="st2" cx="1264.9" cy="157.4" r="12.2"/>
	<circle class="st2" cx="836.3" cy="928" r="6.9"/>
</g>
</svg>
