<?xml version="1.0" encoding="utf-8"?>
<!-- Generator: Adobe Illustrator 21.0.0, SVG Export Plug-In . SVG Version: 6.00 Build 0)  -->
<svg version="1.1" id="Layer_1" xmlns="http://www.w3.org/2000/svg" xmlns:xlink="http://www.w3.org/1999/xlink" x="0px" y="0px"
	 viewBox="0 0 1450.6 945.4" style="enable-background:new 0 0 1450.6 945.4;" xml:space="preserve">
<style type="text/css">
	.st0{opacity:0.47;fill:#FBECB2;enable-background:new    ;}
	.st1{fill:#BF6536;}
	.st2{fill:#FFFFFF;}
</style>
<title>แผนที่โลก</title>
<g id="แผนที่โลก">
	<ellipse class="st0" cx="741.6" cy="471.5" rx="705.8" ry="470.7"/>
	<path class="st1" d="M134.1,253.9c14.3-5.5,31.1-6.8,37.5-25c1-2.9,7.8-4.5,12.2-5.3c25-4.7,50-13.2,74.7,2.1
		c2.9,1.8,8.1,1.3,11.7,0.1c18.9-6,38-3.8,57-1.8c3.2,0.3,6.7,2.4,8.7-1.4c1.6-3.2,0.9-6.5-3-8.1c-3.6-1.4-8.6-2.3-4.7-7.8
		c2.4-3.4,6.7-4.9,10.7-3.7c11.9,3.6,22.9,9,36.2,7.9c6.6-0.5,6.4,3.4-3.2,12.4c15.2,8.1,15.2,8.2,28.1-3.9c2.4-2.2,5.3-6.6,7.8-4.1
		c4.5,4.6,8,10.1,10.3,16.1c1.1,2.9-3.5,4.7-6.5,6c-11.3,5.1-22.7,10.1-33.8,15.6c-5.9,2.9-12.3,6.3-12.6,14
		c-0.3,8.8,7.2,9.9,13.5,11.9c1.9,0.6,4,2.6,5.4,2.1c8.3-2.9,2,30.8,18.5,7.2c5.2-7.4,16.6-7.7,18.5-20.8c2.2-15.5,17.6-18.4,30-7.7
		c1.4,1.2,2.9,4.7,3.5,4.5c16.9-5.8,14.9,10.1,21.5,17.1c15,15.8,0.8,17.3-8.4,19.9c-10.1,2.9-20.8,3.1-32.1,5.4
		c10,1.9,4.9,17.7,18.3,16.7c-18.2,7.2-37.6,7-52.7,21.4c-15.7,14.9-29.7,31.7-48.5,43.3c-9.8,6,6.2,19.4-5.8,27.1
		c-6.5-7.9-5.9-23.4-21.4-21.7c-37.9,4.3-43.6,8.6-50.3,33.9c-2.2,8.3-1.1,14.4,6.1,18.8s13.8,3.7,19.6-2.7c2.6-2.9,4.9-7.3,9.5-5.4
		s3.5,6.9,2.1,10.3c-3.3,8-0.8,9.7,7.1,13.4c11.8,5.6,4,18.1,6,33.4c-16.4-24.1-36.1-31.3-58.4-35.3c-12.4-2.2-21.8-9-27.9-23.9
		c-7.7-18.8-15.4-38.9-32.5-53.3c-16.6-14-16.7-28.8-3.6-47c9.4-13.1,19.6-24,17.1-43.8c-3.5-26.7-15-37.7-42.7-32.2
		c-14.2,2.9-27.6,13.8-43.3,5.9L134.1,253.9z"/>
	<path class="st1" d="M520,166.4c1.2,11.8,10.7,7.6,16.7,7.7c31,0.6,62.1,0.5,93.1,0.6c6.4,0,13.1-1.4,21.1,3.1
		c-8.2,9.3-19.3,17.6-23.8,25.3c-16.1,27.8-47.2,20.4-67.8,35.3c-3.6,2.8-6.7,6.2-9.2,10c-3.5,4.6-6.5,11.3-13.8,8.7
		c-8.4-3-10.3-11.1-12.8-18.8c-2-6.3-3.5-10.8,5.6-12.9c8.4-2,5.9-8.6,3.5-14.4c-7-16.9-32.3-27.7-49.1-20.8
		c-4.3,1.7-8.5,3.6-12.8,5.1c-9.7,3.3-21.6,1.1-23.6-7.2c-2.1-8.7,10.8-6,16.9-8c15.7-5.3,32-9.1,48.1-13.6L520,166.4z"/>
	<path class="st1" d="M786.4,261.7c-7.7-6-24.1,1.2-17.6-16.3c1.2-3.3-4.7-3.4-7.6-2c-6.4,3.1-11,8.1-8.9,15.8
		c2.2,7.9-1.7,13-7.2,16.9c-6.7,4.8-10.1-2.9-15.1-4.8c-26-9.6-12.9-18.8-1.1-30c28-26.6,51.1-30.1,87.4-11.7
		c1.8,9-15.9-1-10.3,10.1c3.9,7.8,9.7,5,16.4,0.7c20.9-13.6,43.3-20.8,68.5-12.1c4.3,1.5,9.9,3.1,10.1-4.4
		c0.1-4.4-7.5-10.7,1.3-12.7c8.3-1.9,10.6,5.6,11.9,12.6c0.3,1.8,1.5,3.4,2.9,6.1c2.6-1.5,5.4-2.3,6.6-4.1
		c20.2-30.6,51.5-27.3,82.2-28.4c11.8-0.4,6.4,13.6,19,13.8c24.5,0.3,50.3,6.1,73.7,4.8c40.2-2.2,78.4,7.3,117.5,8.2
		c15,0.3,29.7,1.4,44.6,2c16.8,0.7,17.5,13,21.3,23.2c1.4,4.1-5.1,7.3-7.7,7.7c-16.1,2-23.7,6.1-8,20.4c1.4,1.4,1.3,5.1,1.2,7.6
		c-0.1,3.8,1.3,8.7-2.9,10.7c-4.6,2.2-7.6-2.1-9.6-5c-6-8.4-19.5-13.9-11.8-28.3c1.6-3,0.5-7.5-3.2-8.1c-5.7-0.9-14.5-3.2-16.8,1.8
		c-6.3,14.1-15.7,8-25,6.3c-2.6-0.6-5.3-0.6-7.9-0.2c-8.7,1.8-14.3,6.9-14.2,16.3c0.1,9,6.5,11,13.6,10.6c12.1-0.8,20,5.4,21.7,16
		s5.4,23-10.9,29.9c-10.4,4.4-11.6,15.3-0.8,23.9c4.3,3.5,8.2,8.5,2.2,13.1c-5.3,4-7.8-1.2-10.3-5.3c-5.4-8.7-15.1-11.8-22.9-17.4
		c-8.8-6.4-10,1.4-13,5.7c-3.6,4.9-1.6,6.7,3.8,9.9c28.9,16.8,29.5,47.8,1.8,65.7c-5.8,3.8-8.7,9.9-12.4,15.8
		c-7-1-4.8-18.9-15.9-9.3c-8.1,7-3.6,13.7,2.5,20.2c4.6,4.7,8.3,10.3,10.7,16.4c2.8,7.7-4.5,11.7-9.1,16c-5.8,5.4-10.4,1.8-15.4-2.4
		c-17-14.4-35.9-26.8-47.7-46.7c-3-5.4-9-8.4-15.2-7.6c-13.3,1.4-37.2,28.7-35.5,42.6c1.1,9.2,0.4,17.7-8.7,19
		c-8,1.2-7.7-9.1-10-14.8c-4.7-11.6-6.6-26-12.8-34.7c-9.3-13-24.6-25.5-41.9-27.3c-23.5-2.5-44.5-9.5-64-22.6
		c1.1,25.4,4,28.5,26.3,23.8c8.5-1.8,9.7,5.3,13.9,8.6c5.2,4.1,4.1,8.7,0.6,13.8c-12.1,17.2-30.3,25.2-48.6,32.9
		c-7.5,3.1-10.3-2.5-12.4-8.8c-6.2-19.2-21.5-33.2-29.4-51.6c-1.7-3.9-4.9-8.1-14.1-7.9c7.7,18.2,14.2,35.4,25.2,50.6
		c3.5,4.8,8.5,9,10.5,14.4c4.5,11.7,11.8,16.1,24.2,14.3c4.7-0.7,11.5-3,14.4,2.7c3.2,6-1.3,11.6-4.8,16.3
		c-9.4,12.7-18.8,25.6-29.5,37.3c-10.7,11.7-15.5,23.9-10.1,39.7c4.9,14.3,2.9,27.4-10.8,36.8c-15.4,10.6-8,32.9-22.4,44.3
		c-2.9,2.3-4.2,6.7-6.8,9.6c-11.8,12.9-25.5,28.7-43.3,22.3c-15-5.3-17.8-25.5-21.8-40.8c-2.2-8.4-4-16.8-8-24.4
		c-4.9-9.4-6.1-18.5-2.2-28.6c4.6-11.6,3.3-23.3-1-34.8c-5.1-13.8-13.3-25.6-14.4-41.9c-0.8-11.2-17.3-17.6-31.4-17
		c-4.6,0.2-9,1.9-13.6,3c-30.8,7.4-57-3.1-62.6-32.8c-4.2-22.5-3.3-49,16.3-68.4c6.2-5.9,11.5-12.7,15.6-20.2
		c4.7-8.7,12.4-14.9,23.5-15.7c11.2-0.9,22.3-2.4,33.2-4.7c11.6-2.4,20.2-6.6,27,10.7c3.5,8.8,20.9,20,37,10.1
		c9.3-5.8,17.3,2.3,26.1,2.7c12.8,0.5,26.9,6.1,34.6-10.4c4.3-9.4,3.3-15.2-8.9-15.5c-12.2-0.3-25.6,3-29.2-15.7
		c-1.3-6.6-8.7-2.1-10,1.8c-6.7,19.2-13.1,5.2-15.1-1c-4.5-14-17.3-16.3-25.5-25.3c-6.1,7.5,2.8,9.4,1.1,14.3
		c-0.5,0.3-1.9,1.6-2.6,1.3c-28.3-12-28.1-11.8-52.9,16.3c-7.2,8.2-17,10.7-27.1,6.1c-8.7-3.9-5.9-12.5-5.4-19.4
		c0.5-8.1,5.1-11.8,13.6-9.4c12.9,3.7,21.8,3.5,12.4-13.4c-2.4-4.2-1.6-9,2.3-10.2c21-7,34-31.8,62.1-24
		C761.1,292.1,769.5,269.8,786.4,261.7z"/>
	<path class="st1" d="M388.2,646.2c8.8-18.2-2.6-27.5-17.4-36.1c-18.3-10.7-24.3-31-33-48.4c-4.1-8.3-2.3-20.4,4.6-30
		c6-8.4,10.9-17.3,10.8-29c0-14.7,8.7-17.1,24.5-15.3c6.8,0.8,14.8-2.9,22.8-0.3c26.3,8.4,50.9,18,65.3,44.8
		c5.8,10.8,20.3,13,32.2,15.9c5.7,1.4,11.6,1.5,17.1,4.2c13.6,6.7,22.6,14.3,9.5,29.7c-6.2,7.3-7.5,17.1-8.2,26
		c-1.4,19.1-5.6,35.4-27.8,39.7c-4.1,0.8-6.4,3.9-7.7,8.2c-5,16.3-4.1,36.8-27.8,40.3c7.1,23.8-39.1,31.3-18.3,60.3
		c3.4,4.8,0.1,17.6-6.2,20.5c-6.3,3-14-4-16.6-11c-6.8-18.2-15-36.3-18.1-55.2C390.4,689.9,392.9,668.3,388.2,646.2z"/>
	<path class="st1" d="M1290.2,594.1c10.5,18.1,11.2,40.2,27.7,54.7c2.9,2.5,1.4,11.6-0.2,17.1c-6.6,23.3-23.8,38.1-44.5,47.7
		c-9.6,4.4-23,7.4-27-11.6c-2.9-13.5-25.6-21.3-41.6-16.8c-12.1,3.4-24.2,6.8-36.1,10.6c-7.9,2.5-12.8,2.3-12-8.2
		c0.9-11.8,0.3-23.6,2.4-35.5c2-11,7.5-16.7,17-19.2c10.6-2.9,20.2-7.6,26.3-16.6c11.1-16.6,33.8-9.2,46.2-23.3
		c1.9-2.2,10.1-1.7,10.8,4.7c1,9.5,4,18.3,14.4,17.7C1284.1,614.6,1282.5,601.7,1290.2,594.1z"/>
	<path class="st1" d="M452.4,206.3c10.7,1.8,23.6,2.3,29.3,16.6c2.8,7.1-5.9,28.2-13,28.9c-4,0.3-8.6-2.7-12.4-4.9
		c-3.6-2.1-2.6-5-0.4-8.2c10-14.2,3.5-19.7-11.3-21.4c-4.6-0.5-12.7,4.1-13.2-3.5c-0.6-8.7,8.1-6.2,13.5-6.8
		C446.8,206.5,448.8,206.5,452.4,206.3z"/>
	<path class="st1" d="M1323,587.2c-11.9-21.1-44,1.1-53.4-26.1c-1.1-3.3-10.3-2.5-5.3-9c3.6-4.7,8-5.9,15.1-4.8
		C1302.4,550.9,1312,568.9,1323,587.2z"/>
	<path class="st1" d="M1188.1,525.9c-3.2,11-2.7,25.6-21.3,25.8c-9.7,0.1-14.8-4.5-14.6-14.2c0.1-7.8,22.1-29.5,29.2-28.6
		C1192.2,510.4,1186.1,519.1,1188.1,525.9z"/>
	<path class="st1" d="M893,599.4c4.3,18.6-8.8,32-11.9,48c-0.9,4.8-6.2,7.4-11,5.9c-5.8-1.7-5-7.7-4.2-11.9
		C869,624.3,870.4,605.9,893,599.4z"/>
	<path class="st1" d="M1101.5,526c14.3,0.8,33.8,19.3,34,30.8c0,2.9-0.8,5.2-3.6,6.3c-3.8,1.4-6.2-1-8.5-3.5
		c-1.2-1.5-2.4-3.2-3.3-4.9C1114.1,545.4,1108,536.1,1101.5,526z"/>
	<path class="st2" d="M1030.7,431.7L1030.7,431.7c0.3,0.7,1,1.1,1.7,1.2l0,0c1.2,0.2,2.1,1.3,1.9,2.6c-0.1,0.5-0.3,1-0.7,1.3l0,0
		c-0.5,0.5-0.8,1.3-0.7,2l0,0c0.2,1.2-0.6,2.4-1.9,2.6c-0.5,0.1-1,0-1.4-0.2l0,0c-0.7-0.3-1.4-0.3-2.1,0l0,0
		c-1.1,0.6-2.5,0.2-3.1-0.9c-0.2-0.4-0.3-0.9-0.2-1.4l0,0c0.1-0.7-0.1-1.5-0.7-2l0,0c-0.9-0.9-0.9-2.3,0-3.2
		c0.3-0.4,0.8-0.6,1.3-0.7l0,0c0.7-0.1,1.4-0.6,1.7-1.2l0,0c0.6-1.1,1.9-1.6,3-1C1030.1,430.8,1030.5,431.2,1030.7,431.7z"/>
	<path class="st2" d="M1097.9,442.7L1097.9,442.7c0.3,0.7,1,1.1,1.7,1.2l0,0c1.2,0.2,2.1,1.3,1.9,2.6c-0.1,0.5-0.3,1-0.7,1.3l0,0
		c-0.5,0.5-0.8,1.3-0.7,2l0,0c0.2,1.2-0.6,2.4-1.9,2.6c-0.5,0.1-1,0-1.4-0.2l0,0c-0.7-0.3-1.4-0.3-2.1,0l0,0
		c-1.1,0.6-2.5,0.2-3.1-0.9c-0.2-0.4-0.3-0.9-0.2-1.4l0,0c0.1-0.7-0.1-1.5-0.7-2l0,0c-0.9-0.9-0.9-2.3,0-3.2
		c0.3-0.4,0.8-0.6,1.3-0.7l0,0c0.7-0.1,1.4-0.6,1.7-1.2l0,0c0.6-1.1,1.9-1.6,3-1C1097.3,441.9,1097.6,442.2,1097.9,442.7z"/>
	<circle class="st2" cx="1206.8" cy="119.6" r="17.5"/>
	<circle class="st2" cx="879.6" cy="935.4" r="19.7"/>
	<circle class="st2" cx="35.8" cy="446.5" r="9.8"/>
	<circle class="st2" cx="1266" cy="157.4" r="12.4"/>
	<circle class="st2" cx="830.2" cy="940.9" r="7"/>
</g>
</svg>
