<?xml version="1.0" encoding="utf-8"?>
<!-- Generator: Adobe Illustrator 21.0.0, SVG Export Plug-In . SVG Version: 6.00 Build 0)  -->
<svg version="1.1" id="Layer_1" xmlns="http://www.w3.org/2000/svg" xmlns:xlink="http://www.w3.org/1999/xlink" x="0px" y="0px"
	 viewBox="0 0 870.7 608.3" style="enable-background:new 0 0 870.7 608.3;" xml:space="preserve">
<style type="text/css">
	.st0{fill:#A09181;}
	.st1{fill:#E8D9D1;}
	.st2{fill:#4C453D;}
	.st3{fill:#BB6E4C;}
	.st4{fill:#595B4F;}
	.st5{fill:#CFB47C;}
	.st6{fill:#B36E4D;}
	.st7{fill:#313B68;}
	.st8{fill:#1C1C1C;}
	.st9{fill:#807056;}
	.st10{opacity:0.3;fill:#807056;enable-background:new    ;}
	.st11{fill:#AD9363;}
	.st12{fill:#917D5E;}
	.st13{fill:#9A5D45;}
	.st14{fill:#933D38;}
	.st15{fill:#E4DEDB;}
	.st16{fill:#E23F29;}
	.st17{fill:#FFD10A;}
	.st18{fill:#FFFFFF;stroke:#010101;stroke-width:7.000000e-02;stroke-miterlimit:10;}
	.st19{fill:#FFFFFF;stroke:#231F20;stroke-width:7.000000e-02;stroke-linejoin:round;}
	.st20{fill:#FFFFFF;stroke:#231F20;stroke-width:7.000000e-02;stroke-miterlimit:10;}
	.st21{fill:none;stroke:#231F20;stroke-width:7.000000e-02;stroke-miterlimit:10;}
	.st22{fill:#231F20;}
	.st23{fill:none;stroke:#010101;stroke-width:7.000000e-02;stroke-miterlimit:10;}
	.st24{fill:none;stroke:#231F20;stroke-width:7.000000e-02;stroke-linejoin:round;}
</style>
<title>โรงเรียน</title>
<g>
	<g id="โรงเรียน">
		<rect x="155.4" y="299.8" class="st0" width="612.2" height="308"/>
		<rect x="132.2" y="284" class="st1" width="658.7" height="15.8"/>
		<rect x="116.8" y="276" class="st2" width="689.4" height="7.9"/>
		<rect x="599.6" y="314" class="st3" width="143.3" height="116.8"/>
		<rect x="599.6" y="314" class="st4" width="26.5" height="116.8"/>
		<rect x="716.3" y="314.1" class="st4" width="26.5" height="116.8"/>
		<rect x="591.2" y="299.8" class="st5" width="158.8" height="32.9"/>
		<rect x="599.8" y="438.3" class="st5" width="143.1" height="2.7"/>
		<path class="st1" d="M610.7,317.9L610.7,317.9c2.2,0,4,1.8,4,4v3.6c0,2.2-1.8,4-4,4h0c-2.2,0-4-1.8-4-4v-3.6
			C606.7,319.7,608.5,317.9,610.7,317.9z"/>
		<path class="st1" d="M628,317.9L628,317.9c2.2,0,4,1.8,4,4v3.6c0,2.2-1.8,4-4,4h0c-2.2,0-4-1.8-4-4v-3.6
			C624,319.7,625.8,317.9,628,317.9z"/>
		<path class="st1" d="M645.3,317.9L645.3,317.9c2.2,0,4,1.8,4,4v3.6c0,2.2-1.8,4-4,4h0c-2.2,0-4-1.8-4-4v-3.6
			C641.3,319.7,643.1,317.9,645.3,317.9z"/>
		<path class="st1" d="M662.6,317.9L662.6,317.9c2.2,0,4,1.8,4,4v3.6c0,2.2-1.8,4-4,4h0c-2.2,0-4-1.8-4-4v-3.6
			C658.5,319.7,660.3,317.9,662.6,317.9z"/>
		<path class="st1" d="M679.9,317.9L679.9,317.9c2.2,0,4,1.8,4,4v3.6c0,2.2-1.8,4-4,4h0c-2.2,0-4-1.8-4-4v-3.6
			C675.8,319.7,677.6,317.9,679.9,317.9z"/>
		<path class="st1" d="M697.2,317.9L697.2,317.9c2.2,0,4,1.8,4,4v3.6c0,2.2-1.8,4-4,4h0c-2.2,0-4-1.8-4-4v-3.6
			C693.1,319.7,694.9,317.9,697.2,317.9z"/>
		<path class="st1" d="M714.4,317.9L714.4,317.9c2.2,0,4,1.8,4,4v3.6c0,2.2-1.8,4-4,4h0c-2.2,0-4-1.8-4-4v-3.6
			C710.4,319.7,712.2,317.9,714.4,317.9z"/>
		<path class="st1" d="M731.7,317.9L731.7,317.9c2.2,0,4,1.8,4,4v3.6c0,2.2-1.8,4-4,4h0c-2.2,0-4-1.8-4-4v-3.6
			C727.7,319.7,729.5,317.9,731.7,317.9z"/>
		<rect x="591.2" y="307.3" class="st6" width="158.8" height="4.6"/>
		<rect x="591.2" y="299.8" class="st7" width="158.8" height="7.5"/>
		<rect x="599.8" y="430.8" class="st7" width="143.1" height="7.5"/>
		<path class="st8" d="M668.1,404.5h-37v-46.4c0-10.2,8.3-18.5,18.5-18.5l0,0l0,0c10.2,0,18.5,8.3,18.5,18.5c0,0,0,0,0,0
			L668.1,404.5z"/>
		<path class="st8" d="M711.4,404.5h-37v-46.4c0-10.2,8.3-18.5,18.5-18.5l0,0l0,0c10.2,0,18.5,8.3,18.5,18.5c0,0,0,0,0,0
			L711.4,404.5z"/>
		<polygon class="st4" points="631.2,404.5 599.8,404.5 599.8,430.8 742.9,430.8 742.9,404.5 		"/>
		<rect x="626.1" y="404.5" class="st3" width="5" height="26.3"/>
		<rect x="668.1" y="404.5" class="st3" width="6.3" height="26.3"/>
		<rect x="711.4" y="404.5" class="st3" width="5" height="26.3"/>
		<rect x="599.6" y="426" class="st4" width="143.3" height="4.8"/>
		<rect x="602.4" y="339.5" class="st1" width="20.8" height="32.9"/>
		<rect x="602.4" y="377.2" class="st1" width="20.8" height="22.2"/>
		<rect x="719" y="339.6" class="st1" width="20.8" height="32.9"/>
		<rect x="719" y="377.3" class="st1" width="20.8" height="22.2"/>
		<rect x="631.1" y="377.2" class="st9" width="37" height="6.7"/>
		<rect x="674.4" y="377.2" class="st9" width="37" height="6.7"/>
		<rect x="631.1" y="404.5" class="st1" width="37" height="4.9"/>
		<rect x="674.4" y="404.5" class="st1" width="37" height="4.9"/>
		<rect x="632.7" y="411.3" class="st3" width="33.8" height="14.8"/>
		<rect x="675.9" y="411.3" class="st3" width="33.8" height="14.8"/>
		<rect x="623.2" y="409.4" class="st4" width="100.1" height="5.8"/>
		<rect x="602.4" y="401.4" class="st3" width="20.8" height="8"/>
		<rect x="719" y="401.4" class="st3" width="20.8" height="8"/>
		<rect x="599.6" y="332.6" class="st10" width="143.3" height="2.3"/>
		<rect x="602.4" y="401.4" class="st10" width="20.8" height="2.3"/>
		<rect x="719" y="401.4" class="st10" width="20.8" height="2.3"/>
		<rect x="632.7" y="415.2" class="st10" width="33.8" height="2.3"/>
		<rect x="675.9" y="415.2" class="st10" width="33.8" height="2.3"/>
		<rect x="668.1" y="415.2" class="st10" width="6.3" height="2.3"/>
		<rect x="626.1" y="415.2" class="st10" width="5" height="2.3"/>
		<rect x="711.4" y="415.2" class="st10" width="5" height="2.3"/>
		<rect x="610.7" y="339.5" class="st9" width="4" height="32.9"/>
		<rect x="602.5" y="353.9" class="st9" width="20.8" height="4"/>
		<rect x="727.3" y="339.6" class="st9" width="4" height="32.9"/>
		<rect x="719" y="353.9" class="st9" width="20.8" height="4"/>
		<rect x="610.7" y="377.2" class="st9" width="4" height="22.2"/>
		<rect x="602.4" y="386.4" class="st9" width="20.8" height="4"/>
		<rect x="727.3" y="377.3" class="st9" width="4" height="22.2"/>
		<rect x="719" y="386.6" class="st9" width="20.8" height="4"/>
		<rect x="181.5" y="314" class="st3" width="143.3" height="116.8"/>
		<rect x="181.5" y="314" class="st4" width="26.5" height="116.8"/>
		<rect x="298.3" y="314.1" class="st4" width="26.5" height="116.8"/>
		<rect x="173.1" y="299.8" class="st5" width="158.8" height="32.9"/>
		<rect x="181.7" y="438.3" class="st5" width="143.1" height="2.7"/>
		<path class="st1" d="M192.6,317.9L192.6,317.9c2.2,0,4,1.8,4,4v3.6c0,2.2-1.8,4-4,4l0,0c-2.2,0-4-1.8-4-4v-3.6
			C188.6,319.7,190.4,317.9,192.6,317.9z"/>
		<path class="st1" d="M209.9,317.9L209.9,317.9c2.2,0,4,1.8,4,4v3.6c0,2.2-1.8,4-4,4l0,0c-2.2,0-4-1.8-4-4v-3.6
			C205.9,319.7,207.7,317.9,209.9,317.9z"/>
		<path class="st1" d="M227.2,317.9L227.2,317.9c2.2,0,4,1.8,4,4v3.6c0,2.2-1.8,4-4,4l0,0c-2.2,0-4-1.8-4-4v-3.6
			C223.2,319.7,225,317.9,227.2,317.9z"/>
		<path class="st1" d="M244.5,317.9L244.5,317.9c2.2,0,4,1.8,4,4v3.6c0,2.2-1.8,4-4,4h0c-2.2,0-4-1.8-4-4v-3.6
			C240.4,319.7,242.2,317.9,244.5,317.9z"/>
		<path class="st1" d="M261.8,317.9L261.8,317.9c2.2,0,4,1.8,4,4v3.6c0,2.2-1.8,4-4,4l0,0c-2.2,0-4-1.8-4-4v-3.6
			C257.7,319.7,259.5,317.9,261.8,317.9z"/>
		<path class="st1" d="M279.1,317.9L279.1,317.9c2.2,0,4,1.8,4,4v3.6c0,2.2-1.8,4-4,4l0,0c-2.2,0-4-1.8-4-4v-3.6
			C275,319.7,276.8,317.9,279.1,317.9z"/>
		<path class="st1" d="M296.3,317.9L296.3,317.9c2.2,0,4,1.8,4,4v3.6c0,2.2-1.8,4-4,4l0,0c-2.2,0-4-1.8-4-4v-3.6
			C292.3,319.7,294.1,317.9,296.3,317.9z"/>
		<path class="st1" d="M313.6,317.9L313.6,317.9c2.2,0,4,1.8,4,4v3.6c0,2.2-1.8,4-4,4l0,0c-2.2,0-4-1.8-4-4v-3.6
			C309.6,319.7,311.4,317.9,313.6,317.9z"/>
		<rect x="173.1" y="307.3" class="st6" width="158.8" height="4.6"/>
		<rect x="173.1" y="299.8" class="st7" width="158.8" height="7.5"/>
		<rect x="181.7" y="430.8" class="st7" width="143.1" height="7.5"/>
		<path class="st8" d="M250,404.5h-37v-46.4c0-10.2,8.3-18.5,18.5-18.5l0,0l0,0c10.2,0,18.5,8.3,18.5,18.5l0,0L250,404.5z"/>
		<path class="st8" d="M293.3,404.5h-37v-46.4c0-10.2,8.3-18.5,18.5-18.5c0,0,0,0,0,0l0,0c10.2,0,18.5,8.3,18.5,18.5c0,0,0,0,0,0
			L293.3,404.5z"/>
		<polygon class="st4" points="213.1,404.5 181.7,404.5 181.7,430.8 324.8,430.8 324.8,404.5 		"/>
		<rect x="208" y="404.5" class="st3" width="5" height="26.3"/>
		<rect x="250" y="404.5" class="st3" width="6.3" height="26.3"/>
		<rect x="293.3" y="404.5" class="st3" width="5" height="26.3"/>
		<rect x="181.5" y="426" class="st4" width="143.3" height="4.8"/>
		<rect x="184.4" y="339.5" class="st1" width="20.8" height="32.9"/>
		<rect x="184.4" y="377.2" class="st1" width="20.8" height="22.2"/>
		<rect x="300.9" y="339.6" class="st1" width="20.8" height="32.9"/>
		<rect x="300.9" y="377.3" class="st1" width="20.8" height="22.2"/>
		<rect x="213" y="377.2" class="st9" width="37" height="6.7"/>
		<rect x="256.3" y="377.2" class="st9" width="37" height="6.7"/>
		<rect x="213" y="404.5" class="st1" width="37" height="4.9"/>
		<rect x="256.3" y="404.5" class="st1" width="37" height="4.9"/>
		<rect x="214.6" y="411.3" class="st3" width="33.8" height="14.8"/>
		<rect x="257.9" y="411.3" class="st3" width="33.8" height="14.8"/>
		<rect x="205.1" y="409.4" class="st4" width="100.1" height="5.8"/>
		<rect x="184.4" y="401.4" class="st3" width="20.8" height="8"/>
		<rect x="300.9" y="401.4" class="st3" width="20.8" height="8"/>
		<rect x="181.5" y="332.6" class="st10" width="143.3" height="2.3"/>
		<rect x="184.4" y="401.4" class="st10" width="20.8" height="2.3"/>
		<rect x="300.9" y="401.4" class="st10" width="20.8" height="2.3"/>
		<rect x="214.6" y="415.2" class="st10" width="33.8" height="2.3"/>
		<rect x="257.9" y="415.2" class="st10" width="33.8" height="2.3"/>
		<rect x="250" y="415.2" class="st10" width="6.3" height="2.3"/>
		<rect x="208" y="415.2" class="st10" width="5" height="2.3"/>
		<rect x="293.3" y="415.2" class="st10" width="5" height="2.3"/>
		<rect x="192.6" y="339.5" class="st9" width="4" height="32.9"/>
		<rect x="184.4" y="353.9" class="st9" width="20.8" height="4"/>
		<rect x="309.2" y="339.6" class="st9" width="4" height="32.9"/>
		<rect x="300.9" y="353.9" class="st9" width="20.8" height="4"/>
		<rect x="192.6" y="377.2" class="st9" width="4" height="22.2"/>
		<rect x="184.4" y="386.4" class="st9" width="20.8" height="4"/>
		<rect x="309.2" y="377.3" class="st9" width="4" height="22.2"/>
		<rect x="300.9" y="386.6" class="st9" width="20.8" height="4"/>
		<rect x="390.5" y="314" class="st3" width="143.3" height="116.8"/>
		<rect x="390.5" y="314" class="st4" width="26.5" height="116.8"/>
		<rect x="507.3" y="314.1" class="st4" width="26.5" height="116.8"/>
		<rect x="382.2" y="299.8" class="st5" width="158.8" height="32.9"/>
		<rect x="390.7" y="438.3" class="st5" width="143.1" height="2.7"/>
		<path class="st1" d="M401.7,317.9L401.7,317.9c2.2,0,4,1.8,4,4v3.6c0,2.2-1.8,4-4,4l0,0c-2.2,0-4-1.8-4-4v-3.6
			C397.6,319.7,399.4,317.9,401.7,317.9z"/>
		<path class="st1" d="M418.9,317.9L418.9,317.9c2.2,0,4,1.8,4,4v3.6c0,2.2-1.8,4-4,4l0,0c-2.2,0-4-1.8-4-4v-3.6
			C414.9,319.7,416.7,317.9,418.9,317.9z"/>
		<path class="st1" d="M436.2,317.9L436.2,317.9c2.2,0,4,1.8,4,4v3.6c0,2.2-1.8,4-4,4l0,0c-2.2,0-4-1.8-4-4v-3.6
			C432.2,319.7,434,317.9,436.2,317.9z"/>
		<path class="st1" d="M453.5,317.9L453.5,317.9c2.2,0,4,1.8,4,4v3.6c0,2.2-1.8,4-4,4l0,0c-2.2,0-4-1.8-4-4v-3.6
			C449.5,319.7,451.3,317.9,453.5,317.9z"/>
		<path class="st1" d="M470.8,317.9L470.8,317.9c2.2,0,4,1.8,4,4v3.6c0,2.2-1.8,4-4,4l0,0c-2.2,0-4-1.8-4-4v-3.6
			C466.8,319.7,468.6,317.9,470.8,317.9z"/>
		<path class="st1" d="M488.1,317.9L488.1,317.9c2.2,0,4,1.8,4,4v3.6c0,2.2-1.8,4-4,4l0,0c-2.2,0-4-1.8-4-4v-3.6
			C484.1,319.7,485.9,317.9,488.1,317.9z"/>
		<path class="st1" d="M505.4,317.9L505.4,317.9c2.2,0,4,1.8,4,4v3.6c0,2.2-1.8,4-4,4l0,0c-2.2,0-4-1.8-4-4v-3.6
			C501.4,319.7,503.2,317.9,505.4,317.9z"/>
		<path class="st1" d="M522.7,317.9L522.7,317.9c2.2,0,4,1.8,4,4v3.6c0,2.2-1.8,4-4,4h0c-2.2,0-4-1.8-4-4v-3.6
			C518.7,319.7,520.5,317.9,522.7,317.9z"/>
		<rect x="382.2" y="307.3" class="st6" width="158.8" height="4.6"/>
		<rect x="382.2" y="299.8" class="st7" width="158.8" height="7.5"/>
		<rect x="390.7" y="430.8" class="st7" width="143.1" height="7.5"/>
		<path class="st8" d="M459,404.5h-37v-46.4c0-10.2,8.3-18.5,18.5-18.5c0,0,0,0,0,0l0,0c10.2,0,18.5,8.3,18.5,18.5c0,0,0,0,0,0
			L459,404.5z"/>
		<path class="st8" d="M502.3,404.5h-37v-46.4c0-10.2,8.3-18.5,18.5-18.5c0,0,0,0,0,0l0,0c10.2,0,18.5,8.3,18.5,18.5c0,0,0,0,0,0
			L502.3,404.5z"/>
		<polygon class="st4" points="422.2,404.5 390.7,404.5 390.7,430.8 533.8,430.8 533.8,404.5 		"/>
		<rect x="417" y="404.5" class="st3" width="5" height="26.3"/>
		<rect x="459" y="404.5" class="st3" width="6.3" height="26.3"/>
		<rect x="502.3" y="404.5" class="st3" width="5" height="26.3"/>
		<rect x="390.5" y="426" class="st4" width="143.3" height="4.8"/>
		<rect x="393.4" y="339.5" class="st1" width="20.8" height="32.9"/>
		<rect x="393.4" y="377.2" class="st1" width="20.8" height="22.2"/>
		<rect x="510" y="339.6" class="st1" width="20.8" height="32.9"/>
		<rect x="510" y="377.3" class="st1" width="20.8" height="22.2"/>
		<rect x="422" y="377.2" class="st9" width="37" height="6.7"/>
		<rect x="465.3" y="377.2" class="st9" width="37" height="6.7"/>
		<rect x="422" y="404.5" class="st1" width="37" height="4.9"/>
		<rect x="465.3" y="404.5" class="st1" width="37" height="4.9"/>
		<rect x="423.6" y="411.3" class="st3" width="33.8" height="14.8"/>
		<rect x="466.9" y="411.3" class="st3" width="33.8" height="14.8"/>
		<rect x="414.2" y="409.4" class="st4" width="100.1" height="5.8"/>
		<rect x="393.4" y="401.4" class="st3" width="20.8" height="8"/>
		<rect x="510" y="401.4" class="st3" width="20.8" height="8"/>
		<rect x="390.5" y="332.6" class="st10" width="143.3" height="2.3"/>
		<rect x="393.4" y="401.4" class="st10" width="20.8" height="2.3"/>
		<rect x="510" y="401.4" class="st10" width="20.8" height="2.3"/>
		<rect x="423.6" y="415.2" class="st10" width="33.8" height="2.3"/>
		<rect x="466.9" y="415.2" class="st10" width="33.8" height="2.3"/>
		<rect x="459" y="415.2" class="st10" width="6.3" height="2.3"/>
		<rect x="417" y="415.2" class="st10" width="5" height="2.3"/>
		<rect x="502.3" y="415.2" class="st10" width="5" height="2.3"/>
		<rect x="401.7" y="339.5" class="st9" width="4" height="32.9"/>
		<rect x="393.4" y="353.9" class="st9" width="20.8" height="4"/>
		<rect x="518.3" y="339.6" class="st9" width="4" height="32.9"/>
		<rect x="510" y="353.9" class="st9" width="20.8" height="4"/>
		<rect x="401.7" y="377.2" class="st9" width="4" height="22.2"/>
		<rect x="393.4" y="386.4" class="st9" width="20.8" height="4"/>
		<rect x="518.3" y="377.3" class="st9" width="4" height="22.2"/>
		<rect x="510" y="386.6" class="st9" width="20.8" height="4"/>
		<rect x="192.6" y="471.9" class="st3" width="121" height="73.8"/>
		<polygon class="st4" points="219.2,464.8 192.6,464.8 192.6,471.9 313.6,471.9 313.6,464.8 		"/>
		<polygon class="st4" points="192.6,482.6 192.6,464.8 186.9,464.8 186.9,545.7 192.6,545.7 		"/>
		<polygon class="st4" points="319.4,482.6 319.4,464.8 313.6,464.8 313.6,545.7 319.4,545.7 		"/>
		<rect x="186.9" y="559" class="st10" width="132.5" height="3.8"/>
		<rect x="192.6" y="471.9" class="st10" width="121" height="2.3"/>
		<rect x="186.9" y="545.7" class="st5" width="132.5" height="13.3"/>
		<rect x="187" y="460.3" class="st5" width="132.5" height="4.5"/>
		<path class="st8" d="M213.6,479.3L213.6,479.3c7.7,0,13.9,6.2,13.9,13.9v45.1l0,0h-27.7l0,0v-45.1
			C199.7,485.5,205.9,479.3,213.6,479.3z"/>
		<path class="st8" d="M253.1,479.3L253.1,479.3c7.7,0,13.9,6.2,13.9,13.9v45.1l0,0h-27.7l0,0v-45.1
			C239.3,485.5,245.5,479.3,253.1,479.3L253.1,479.3z"/>
		<path class="st8" d="M292.7,479.3L292.7,479.3c7.7,0,13.9,6.2,13.9,13.9v45.1l0,0h-27.7l0,0v-45.1
			C278.8,485.5,285,479.3,292.7,479.3z"/>
		<rect x="199.7" y="533.4" class="st1" width="27.7" height="4.9"/>
		<rect x="239.3" y="533.4" class="st1" width="27.7" height="4.9"/>
		<rect x="278.8" y="533.4" class="st1" width="27.7" height="4.9"/>
		<rect x="610.8" y="471.9" class="st3" width="121" height="73.8"/>
		<polygon class="st4" points="637.4,464.8 610.8,464.8 610.8,471.9 731.8,471.9 731.8,464.8 		"/>
		<polygon class="st4" points="610.8,482.6 610.8,464.8 605,464.8 605,545.7 610.8,545.7 		"/>
		<polygon class="st4" points="737.5,482.6 737.5,464.8 731.8,464.8 731.8,545.7 737.5,545.7 		"/>
		<rect x="605" y="559" class="st10" width="132.5" height="3.8"/>
		<rect x="610.8" y="471.9" class="st10" width="121" height="2.3"/>
		<rect x="605" y="545.7" class="st5" width="132.5" height="13.3"/>
		<rect x="605.1" y="460.3" class="st5" width="132.5" height="4.5"/>
		<path class="st8" d="M631.7,479.3L631.7,479.3c7.7,0,13.9,6.2,13.9,13.9v45.1l0,0h-27.7l0,0v-45.1
			C617.9,485.6,624.1,479.4,631.7,479.3z"/>
		<path class="st8" d="M671.3,479.3L671.3,479.3c7.7,0,13.9,6.2,13.9,13.9v45.1l0,0h-27.7l0,0v-45.1
			C657.4,485.5,663.6,479.3,671.3,479.3z"/>
		<path class="st8" d="M710.8,479.3L710.8,479.3c7.7,0,13.9,6.2,13.9,13.9v45.1l0,0H697l0,0v-45.1
			C697,485.5,703.2,479.3,710.8,479.3L710.8,479.3z"/>
		<rect x="617.8" y="533.4" class="st1" width="27.7" height="4.9"/>
		<rect x="657.4" y="533.4" class="st1" width="27.7" height="4.9"/>
		<rect x="697" y="533.4" class="st1" width="27.7" height="4.9"/>
		<rect x="155.4" y="596.1" class="st11" width="612.2" height="11.6"/>
		<rect x="155.4" y="584.5" class="st12" width="612.2" height="11.6"/>
		<rect x="361.5" y="460.3" class="st8" width="200" height="124.2"/>
		<rect x="367.9" y="460.3" class="st3" width="52.3" height="13.3"/>
		<rect x="387.3" y="486.6" class="st3" width="13.3" height="97.9"/>
		<rect x="371.2" y="473.6" class="st13" width="45.5" height="13"/>
		<rect x="502.9" y="460.3" class="st3" width="52.3" height="13.3"/>
		<rect x="522.4" y="486.6" class="st3" width="13.3" height="97.9"/>
		<rect x="506.3" y="473.6" class="st13" width="45.5" height="13"/>
		<rect x="522.4" y="486.6" class="st3" width="13.3" height="97.9"/>
		<rect x="433.2" y="442.7" class="st14" width="58" height="16"/>
		<path class="st15" d="M444.9,452.4c0.5,0.3,1.1,0.4,1.7,0.4c0.7,0,1-0.3,1-0.7s-0.3-0.6-1.1-0.9c-1.1-0.4-1.8-1-1.8-2
			c0-1.1,0.9-2,2.5-2c0.6,0,1.2,0.1,1.7,0.3l-0.3,1.2c-0.4-0.2-0.9-0.3-1.4-0.3c-0.6,0-1,0.3-1,0.6s0.4,0.6,1.2,0.9
			c1.2,0.4,1.7,1,1.7,2c0,1.1-0.9,2-2.7,2c-0.6,0-1.3-0.1-1.9-0.4L444.9,452.4z"/>
		<path class="st15" d="M455,453.8c-0.5,0.2-1.1,0.3-1.7,0.3c-1.7,0.2-3.3-1.1-3.5-2.8c0-0.2,0-0.3,0-0.5c-0.1-1.9,1.4-3.4,3.2-3.5
			c0.1,0,0.3,0,0.4,0c0.6,0,1.1,0.1,1.6,0.3l-0.3,1.2c-0.4-0.2-0.8-0.3-1.3-0.3c-1.2,0.1-2.1,1.1-2,2.3c0.1,1.1,0.9,2,2,2
			c0.4,0,0.8-0.1,1.3-0.2L455,453.8z"/>
		<path class="st15" d="M457.5,447.3v2.5h2.4v-2.5h1.5v6.6h-1.5v-2.8h-2.5v2.8h-1.5v-6.6H457.5z"/>
		<path class="st15" d="M468.8,450.6c0.2,1.7-1.1,3.3-2.8,3.5c-0.1,0-0.3,0-0.4,0c-1.7,0-3.1-1.4-3.1-3.1c0-0.1,0-0.2,0-0.3
			c-0.1-1.8,1.2-3.3,2.9-3.5c0.1,0,0.2,0,0.3,0c1.7,0,3.1,1.3,3.2,3C468.8,450.4,468.8,450.5,468.8,450.6z M464,450.7
			c0,1.3,0.6,2.2,1.6,2.2s1.6-1,1.6-2.3s-0.6-2.2-1.6-2.2S464,449.4,464,450.7L464,450.7z"/>
		<path class="st15" d="M475.8,450.6c0.2,1.7-1.1,3.3-2.8,3.5c-0.1,0-0.3,0-0.4,0c-1.7,0-3.1-1.4-3.1-3.1c0-0.1,0-0.2,0-0.3
			c-0.1-1.8,1.2-3.3,2.9-3.5c0.1,0,0.2,0,0.3,0c1.7,0,3.1,1.3,3.2,3C475.8,450.4,475.8,450.5,475.8,450.6z M471,450.7
			c0,1.3,0.6,2.2,1.6,2.2s1.6-1,1.6-2.3s-0.6-2.2-1.6-2.2S471,449.4,471,450.7L471,450.7z"/>
		<path class="st15" d="M476.8,447.3h1.5v5.4h2.6v1.3h-4.1L476.8,447.3z"/>
		<polygon class="st16" points="425.4,197.5 342.6,197.5 425.4,142.3 		"/>
		<polygon class="st17" points="342.6,142.4 425.4,142.4 342.6,197.6 		"/>
		<path class="st18" d="M394.1,160.3c0.5,0.6,1.1,1.1,1.7,1.6c0.7,0.5,1.3,1,1.8,1.6c-0.8,0.1-1.4-1.1-2-1.4s-2.4-1.2-2.1-1.9
			S394.1,160.3,394.1,160.3z"/>
		<path class="st19" d="M406,158.2c0,0,0.6,0.5,0,1.6c-0.2,0.5-0.3,1.1-0.3,1.6c-0.8-0.3-0.4-2-0.4-2c-1,1-0.9,3.5-0.9,3.5
			c-0.3,0.1-0.4-2.1-0.2-2.7c-0.6,0.2-1.2,0.6-1.7,1c-0.6,0.6-0.5-0.4,0.8-1.2c0.9-0.5,0.6-0.8,1-1"/>
		<path class="st20" d="M399.7,168.6L399.7,168.6C399.7,168.6,399.7,168.6,399.7,168.6z"/>
		<path class="st19" d="M409.4,160.5c0-0.4,0.1-0.5-0.3-0.9c-0.3-0.2-0.6-0.3-0.9-0.3c0.1,0.1,0.3,0.3,0.4,0.4
			c0.1,0.2,0.3,0.7,0,0.9c-0.2-0.1-0.5,0-0.6,0.2c0-0.8-0.3-1.2-1.1-1.2c0.3,0.2,0.5,0.6,0.4,1c-0.3,0.3-0.7,0.4-1.1,0.4
			c-0.7,0-1.4-0.1-2-0.5c-0.6-0.4-1.1-0.7-1.7-1c-0.5-0.3-1-0.4-1.6-0.5h-0.5c0-0.9,0.8-1.2,1.6-1.1c0,0.3,0.3,0.6,0.2,0.9
			c0.3-0.2,0.4-0.5,0.5-0.8c0,0,0.6,0.2,1,0.3c-0.1,0.2-0.2,0.4-0.4,0.6c0.4,0.2,0.6-0.2,1-0.3c0.3,0.1,0.6,0.1,0.9,0.1
			c0.4-0.1,0.8-0.4,1-0.7c0.2-0.3,0.3-0.7,0.2-1c0.6-0.1,1.1-0.2,1.7-0.3c0.7-0.3,1.4-0.6,2.1-0.9c0.4-0.1,0.8-0.1,1.3-0.1
			c0.7,0,1.3-0.2,1.9-0.5c-0.5,0-1,0-1.6,0c-0.5-0.1-1.1-0.1-1.7,0c-0.5,0.1-1.1,0.4-1.6,0.6c-0.3,0.1-0.7,0.1-1,0.1
			c0.9-0.2,1.1-0.9,1.8-1.3s1.6-0.3,1.9-1.1c-0.7,0.4-1.6,0.2-2.5,0.4c-0.4,0.2-0.8,0.4-1.1,0.8c0.1-0.6,0.3-1.1,0.6-1.6
			c0.2-0.5,0.3-1.1,0.4-1.6c0.1-0.6,1.5-1.7,1.1-2.2c-0.1,0.3-0.3,0.6-0.6,0.9c-0.4,0.3-1,0.5-1,1.1c-0.1,1.5-1,1.4-1.3,2.5
			c-0.1,0.4-0.1,0.9-0.1,1.3c-1.1,0.5-0.9-0.2-1.3,0c-0.3,0.1-0.5,0.2-0.8,0.1c-0.4-0.4-1-0.6-1.6-0.5c-0.1-0.6-0.6-1-1.2-0.9
			c-0.2,0-0.3,0.1-0.5,0.2c-0.6-0.7-1.7-0.8-2.5-0.4c-0.6-1-2-0.7-3.2-1.8c-1-1-2.4-1.4-3.8-1c0,0,1.8-0.1,2.4,0.8
			c0,0-1-0.6-1.8-0.1c0,0,0.9,0.1,1.1,0.3c0.2,0.2,0.3,0.6,0.1,0.8c-0.8-0.1-1.6-1.6-3.4-0.8c1.2,0,2.2,0.6,2.8,1.6
			c-0.7-0.6-1.5-1-2.4-1.3c-0.9-0.3-1.8-0.2-2.6,0.3c0.7-0.2,2.2-0.5,2.7,0.3c-0.1,0-0.2,0.1-0.3,0.2c-0.5-0.1-1.1,0-1.5,0.3
			c0.2,0.1,1-0.2,1.3,0.1c-0.1,0.3-0.1,0.7-0.1,1c-1.1-0.6-2.4-0.8-3.6-0.5c-1.5,0.5-1.4,2.2,0,1.9c0,0-0.8-0.8,0.1-1.1
			c0.5-0.2,1-0.2,1.5-0.1c0.7,0,1.3,0.1,1.9,0.4c0.4,0.3,0.8,0.4,1.2,0.5c-1.3,0.2-2.8,0.1-3.1-0.5c-0.2,0.2-0.2,0.5,0,0.7
			c0.1,0.1,0.1,0.1,0.2,0.1c-1.6-0.1-1.8,0.7-2.8,0.9c-0.8,0.2-2.2-0.2-2.7,1c0.3-0.3,0.7-0.5,1.2-0.5c0.6-0.1,1.9,0.3,3.5,0.1
			c-0.2,0.1-0.3,0.4-0.2,0.6c-0.5,0.2-0.7,0.8-0.5,1.3c0,0,0,0.1,0.1,0.1c-0.5,0.1-0.2,0.9-0.2,0.9c-0.4,0.1-0.8,0.3-1.1,0.6
			c-0.4,0.3-0.6,0.7-0.8,1.2c0.4-0.5,1-0.8,1.6-0.9c0,0-1.4,2-0.8,2.9c-0.1-0.7,0.4-1.3,1.1-1.5c0.1,0,0.2,0,0.2,0
			c0.6,0,0.8-0.1,0.9-0.4c-0.7,1-0.1,1.8,0.9,1.7c-0.2,0.3-0.3,0.7-0.2,1c0.2,0.3,0.4,0.5,0.7,0.6c0,0-0.2,0.6-1.9,0.6
			c0.6,0.7,1.6,1,2.5,0.9c-0.2,0.4-0.1,0.9,0.2,1.2c-0.7,0-1.4-0.1-2-0.4c0.1,0.6,1.1,0.5,1.1,1.3c-0.1-0.1-0.3-0.2-0.4-0.3
			c-0.1-0.1-0.7-0.2-0.7,0.2c0.1-0.6-1.1-1.6-1.8-0.8c0.1-0.4-0.1-0.8-0.6-0.9c-0.3-0.1-0.6,0-0.8,0.3c0.1-1-0.3-0.7-0.7-1.3
			c-0.2-0.3,0-0.5-0.4-0.8c-0.4-0.3-0.6,0-0.7-0.5c-0.1,0.8,0.7,0.7,0.5,1.9c-0.1-0.4-0.4-0.7-0.8-0.6c-0.2,0-0.4,0.1-0.5,0.3
			c0-0.7-1-0.8-1.2-0.1c0-0.4-0.3-0.7-0.6-0.7s-0.7,0.3-0.7,0.6l0,0c-0.1-1.6-1.6-0.8-2.1-1.7c0.1,1,1,0.8,0.9,1.8
			c-0.5-0.5-1.8-0.1-1.6,0.9c-0.8-0.5-1.8,0.3-1.5,0.9c-0.6-0.3-1.2-0.3-1.8-0.1c-0.5,0.1-0.9,0.4-1.4,0.7c0.4-0.1,0.8-0.1,1.3,0
			c0.4,0.1,0.5,0.3,0.9,0.3c-0.4,0.2-0.4,0.1-0.6,0.5c-0.4,0.5,0.3,0.9,0.3,0.9c-0.5,0-0.9,0.2-1.1,0.6c-0.3,0.4-0.2,1,0.2,1.3
			c-1.4-0.1-1.9,1.6-3.3,1.3c1.3,1,1.2-0.1,3.1,0c0,0-1,0.4-1.1,1c0,0.4,0.2,0.7,0.4,0.9c-0.5,0-0.8,0.4-0.8,0.9
			c0,0.1,0,0.3,0.1,0.4c-0.7-0.1-1.5,0.8-2,0.8c0.4,0.4,0.9,0.5,1.5,0.4c-0.6,0.3-0.9,0.9-1.6,0.5c0.1,0.5,0.3,0.7,0.6,0.8
			c-0.6,0.4-1,0.1-1.7,0.1c0,0.3,0.4,0.8,0.4,0.8c-1-0.1-1.4-0.4-2.6,0.1c0.4,0,0.7,0.2,0.9,0.5h-0.4c-0.6-0.3-1.2,0.1-1.9,0
			c-0.7-0.1-0.9-0.5-1.3-0.5c-0.4-0.1-0.8-0.1-1.2,0c-0.4,0.1-0.4,0-0.7-0.2c-0.3-0.2-1.3-0.4-1.6,0.3c0.3-0.1,0.6-0.2,0.9-0.1
			c0.5,0.4,1.2,0.5,1.8,0.5c1,0.2,2,0.5,2.9,0.9c-1.2,0.3-2.1-0.3-3.4,0.6c-0.8,0.5-2.2-0.1-2.4,0.9c0.2-0.3,0.5-0.4,0.8-0.3
			c0.9,0.2,1.9,0.1,2.7-0.4c0.2,0.4,0,0.8-0.4,1c0,0-0.1,0-0.1,0c-1.1,0.3-2.1,0.3-3,1.1c-0.7,0.5-1.1-0.3-1.9,0.8
			c-0.4,0.4-1,0.7-1.5,0.8c0,0,0.8,0.5,1.9-0.4c0.8-0.6,1.8-0.3,3-1c-0.1,0.5-0.5,0.8-0.9,0.9c-0.7,0.2-1.2-0.1-3.3,1.9
			c-0.6,0.5-1.3,0.9-2,1.1c1.6,0.1,2.7-1,3.2-1c2.3-0.3,1.7-0.1,3.4-1.7l0.2,0.1c0-0.1,0.8-0.4,1-0.6c0.4-0.4,0.3-0.6,0.9-0.7
			c0.5-0.1,1-0.3,1.3-0.7c0.3-0.3,0.9-0.6,1.3-0.3c-0.5-0.1-1,0.5-1.3,0.9c-0.2,0.4-0.6,0.7-1,0.9c0.9,0.5,2-1.7,3.3-1.5
			c-0.2,0.4-0.5,0.8-0.9,1c-0.5,0.1-0.9,0.5-1.1,1c0.8-0.8,1.8-0.4,2.3-0.9c0.6-0.6,1.2-1.2,1.9-1.7c0.6-0.4,1.1-1,1.6-1.5
			c0.4-0.7,1.1-0.7,1.5-1.1c0.4-0.5,1.4-0.4,2.2-0.4c0,0,0,0.5,0,1.2c-0.5-0.3-1.1-0.1-1.4,0.3c0.3,0,0.7,0.2,0.8,0.5
			c-0.8-0.1-0.5,1-1.3,1c0.5,0.4,1,0.3,1.5-0.3c-0.1,0.7,0.1,0.9,0.5,1c-0.1-0.2-0.1-0.4,0-0.6c0.1-0.3,0.5-0.2,0.5-0.5
			c-0.1,0.7,0.4,0.6,0.6,1.1c0.2,0.5,0.2,1.1,0,1.6c-1.5,0-2.1,2.3-1.1,3c0.4,0.3,0.1,0.3,0.2,0.8c0.1,0.4,0.3,0.8,0.6,1.1
			c0.5,0.5,1.1,0.7,1.8,0.6c0.6,0,1.1-0.2,1.6-0.6c0.3-0.5,0.5-1.1,0.5-1.7c0.7-0.9,0.6-2.2-0.3-3c0.5,0,0.9,0,1.3,0.1
			c0.9,0.4,1,2,1,2c0.2-1,0.5-1.7-0.1-2.9c-0.3-0.4-0.7-0.7-1.3-0.6c-0.4-0.1-0.8,0-1.1,0.2c-0.2-0.3-0.4,0-0.7-0.1
			c-0.2-0.1-0.1-0.5-0.2-0.8s-0.6-0.5-0.6-0.5c-0.1-0.3,0.1-0.5-0.2-0.7s-0.4,0-0.5-0.3c-0.1-0.3,0-0.7,0-1c-0.1-0.6,0-1.1,0.1-1.7
			c0.3,0.2,0.4,0,0.8,0.1s0.5,0.1,0.8,0.4c0.6,0.5,1.3,0.8,2,0.8c0.4-0.1,0.7-0.1,1.1-0.1c0.4,0,0.7,0,1.1-0.2c0.6-0.3,1-1,0.8-1.7
			c-0.2-0.7-0.5-1.3-1.1-1.8c0.6-0.6-0.9-1.1-1.3-1.1c-0.6,0.1-1.1,0.3-1.6,0.6c0-0.5-0.4-0.9,0.1-1.3c0.4-0.3,0.9-0.5,1.4-0.4
			c-0.2-0.3-0.6-0.6-1-0.6c-0.5-0.1-0.9,0-1.4,0.3c-0.7,0.5-0.9,1.4-0.7,2.2c-0.4,0-0.7,0.2-1.1-0.1c-0.3-0.3-0.4-0.7-0.4-1.1
			c0-0.7,0.1-1.5,0.4-2.1c0.3-1.4,1.6-2.3,3-2.2c0.9,0,1.8,0.1,2.6,0.3c0.7,0.2,1.4,0.4,2.1,0.7c0.8,0.2,1.5,0.3,2.3,0.4
			c0.9,0.1,1.8,0.4,2.7,0.4c0.2,0,0.9,0.1,0.8,0.4c0,0.3-0.2,0.3-0.2,0.6c0,0.2,0.1,0.5,0.1,0.7c-0.3,0-0.7-0.1-1-0.2
			c-0.4-0.2-0.5-0.4-1-0.2c0.4,0.6,0.9,0.6,1.6,0.8c-0.4,0.1-0.8,0.3-1.1,0.6c-0.3,0.3-0.5,0.5-0.9,0.7c0.9,0.2,1.3-0.6,2.1-0.5
			c0,0.4-0.1,0.9,0,1.4c0.5-0.2,0.6-0.9,0.7-1.3c0.4,0.3,0.8,0.6,1.2,0.9c0.4,0.4,0.9,0.6,1.4,0.7c0.1,0.4,0.6,0.4,0.9,0.5
			c0.3,0,0.7,0.1,1,0.2c0.4,0.1,0.8,0,1.1-0.1c0.4,0,0.7,0,1.1,0l0.1,0.1l0,0c-0.1,0.6,0.5,0.3,0.9,0.3c-0.7,0.2-1.3,1.2-0.6,1.6
			c0.1,0.4-0.1,0.6,0.1,0.9c0.2,0.3,0.8,0.4,0.8,0.4c0.2,0.4,0.4,1.3,1.9,0.9c1.4,0.4,2.8,0.3,3.5-1.2c0.3-0.7,0.4-1.4,0.2-2.2
			c-0.1-0.2-0.3-0.5-0.5-0.7c0-0.4,0.2-0.5,0.1-0.9l-0.2-0.4c-0.5-1.2-2.1-1.1-2.8-0.8c0.4-0.6,0.3-0.8,0.9-1.1
			c0.1-0.1,0.2-0.2,0.4-0.3c0.1-0.1,0.1-0.3,0.2-0.3c0.3-0.2,0.4-0.1,0.7,0c-0.2-0.3-0.6-0.5-1.1-0.5c-0.4,0.1-0.7,0.2-1,0.4
			c-0.4-0.2-0.8,0-1,0.4c-0.1,0.2-0.1,0.4,0,0.6c-0.4-0.3-0.9,0.1-1,0.7c-0.4,0-0.8,0.2-1,0.5c-0.2-0.6-1.1-0.5-1.1-0.5
			s-0.2-0.4-0.6-0.4c-0.2-0.1-0.5-0.1-0.7,0c-0.3,0-0.8-0.2-1.1,0c0-0.6-0.5-0.6-1-0.6c0.1-0.4,0.1-0.7,0-1.1
			c2.1-1.7,2.6-4.4,2.7-6.9c0.5,0,0.6-0.3,1-0.4s0.8,0.4,1.2,0.3c0,0.2-0.1,0.4-0.1,0.6c-0.1,0.3-0.1,0.5-0.5,0.7
			c0.5,0.2,0.7-0.1,1.1-0.5c-0.1,0.8-0.1,1.5,0.6,2c-0.1-0.5,0-1,0.3-1.3c0.4,0.3,1,0.6,1,1.2c0.4-0.8-0.4-2.1-0.7-2.1
			c0.7,0,1.4-0.1,2-0.4c0.4-0.2,0.8-0.4,1.1-0.7c0.4-0.4,0.4-0.5,0.9-0.5c0.5,0.1,0.8,0.5,1.3,0.8c0.4,0.3,0.9,0.4,1.4,0.3
			c0.4,0,0.7-0.2,1-0.4c0.4-0.2,0.6-0.1,1-0.2c0.4-0.1,0.7-0.4,0.9-0.7c0.1-0.2,1.3-1.5,0.4-1.5c0-0.8-0.3-1.5-1.2-1.5
			c0-1-1.8-1.8-2.6-1.5c-0.6,0.2-1,0.7-1.3,1.3c-0.2,0.5-0.7,0.8-0.9,1.4c-0.7,0-1.4,0.1-2.1,0.3c-0.7,0.2-1.5,0.2-2.2,0.1
			c-0.8-0.2-1.6-0.5-2.3-1c-0.7-0.4-1.5-0.7-2.2-1.1c-0.7-0.4-2.6-2.3-2.2-3c0.6-0.2,1.2,0.1,1.8,0.1c0.5-0.1,1-0.2,1.4-0.3
			c-0.5,0.9-1.4,1.5-2.4,1.6c1.3,0.5,2-0.5,2.5-0.8c0,0,0.7,0,1.6,0c0.5,0,0.9-0.1,1.3-0.2c0.4,0.3,1.4,0.8,1.7,1.1
			c0.1,0.1,0.8,0.8,0.8,0.8c-0.4,0.2-0.7,0.7-1.2,0.9c0.5,0.3,1.2,0.1,1.5-0.4c-0.2,0.4-0.2,0.9,0.1,1.3c0,0,0.1-0.8,0.6-1
			c0.3,0.3,0.5,0.6,0.7,1c0.2-0.3,0.4-0.6,0.3-1c0-0.2-0.1-0.4-0.3-0.4c0-0.3,0.3-0.7-0.1-1.4c-0.2-0.3-0.4-0.3-0.7-0.4
			c-0.4-0.1-0.8-0.3-1.2-0.6c-0.3-0.2-0.6-0.4-0.9-0.7c0.6-0.1,1.3,0,1.9,0.3c0.6,0.3,1.2,0.6,2.5,1.1c0.7,0.2,1.4,0.3,2,0.2
			c1-0.3,2.1-0.5,3.2-0.4c0.7,0,1.2,0.5,1.3,1.1C411.7,161,410.4,160.4,409.4,160.5z M407.9,165.5c0.3-0.3,0.5-0.7,0.7-1
			c0,0.3,0.1,0.6,0.3,0.9c-0.5,0.1-0.9,0.7-0.9,0.7S407.8,165.5,407.9,165.5L407.9,165.5z M391.7,154.8c0,0-1.3-0.6-1.1-1
			c0.2-0.4,1.6,0.7,1.6,0.7C392,154.5,391.8,154.6,391.7,154.8L391.7,154.8z M392.5,154.2c-0.9-0.8-2.3-0.8-1.6-1
			c0.7-0.2,1.9,0.8,1.9,0.8S392.6,154.3,392.5,154.2L392.5,154.2z M393.8,159.9c0,0-0.6-0.4-0.6-0.8l1.7,0.4L393.8,159.9z
			 M393.9,153.5c0-0.4,0-0.9,0-1.3c0.5,0.5,0.9,1,1.5,1.4L393.9,153.5z M395.9,153.5c-0.4-0.6-1-1.1-1.6-1.5
			c0.4,0.1,0.8,0.3,1.1,0.5c0.5,0.4,1.4,1,1.4,1L395.9,153.5z"/>
		<path class="st21" d="M401.5,156.2c0-0.2-0.1-0.3-0.3-0.4c-0.1-0.1-0.4-0.2-0.5,0.1c-0.1,0.2-0.1,0.4,0,0.6
			C400.9,156.7,401.3,156.3,401.5,156.2c0-0.3-0.4-0.5-0.6-0.7c-0.3-0.2-0.7-0.2-1,0c-0.3,0.2-0.5,0.5-0.5,0.8
			c0,0.2,0.1,0.7,0.3,0.9c0.4,0.3,0.8-0.1,1.1-0.3c0.3-0.2,0.6-0.4,0.9-0.6c0-0.1-0.1-0.2-0.1-0.3"/>
		<path class="st22" d="M401.5,156.2c0-0.2-0.1-0.3-0.3-0.4s-0.4-0.2-0.5,0.1c-0.1,0.2-0.1,0.4,0,0.6
			C400.9,156.7,401.3,156.3,401.5,156.2L401.5,156.2z"/>
		<path class="st21" d="M405.2,155c0.8,0.9-0.4,1.1-0.5,1.9c0.5-0.1,0.4,1-0.4,1s-0.8-0.7-0.5-1.1"/>
		<path class="st21" d="M403.2,156.7c-0.6-0.1-0.7,0.5-0.3,0.7"/>
		<path class="st21" d="M404.3,155.2c-0.2,0.5-1,0.6-1.5,0.4c-0.2-0.1-0.5-0.2-0.5-0.4c-0.1-0.4,0.3-0.4,0.4-0.6"/>
		<path class="st21" d="M401,153.9c-0.2,0.1-0.4,0.4-0.5,0.6c-0.1,0.5,0.1,0.3,0.4,0.4s1,0.7,1.3,0.3"/>
		<path class="st21" d="M400.6,154.6c-0.6,0.3-1-0.5-1.3-0.6l-0.8-0.5"/>
		<path class="st21" d="M399.9,155.5c-0.5-0.5-1.2-0.5-1.7,0c-0.2,0.2-0.3,0.4-0.3,0.7"/>
		<path class="st21" d="M397.4,155.2c-0.6-0.1-0.1-0.7,0.4-0.4"/>
		<path class="st21" d="M396.4,155c-0.1,0-0.4-0.1-0.6,0c-0.3,0.2,0.1,0.3,0.2,0.3"/>
		<path class="st21" d="M397.2,154c-0.2-0.1-0.5-0.1-0.7,0c-0.2,0.1-0.3,0.4,0.1,0.5"/>
		<path class="st21" d="M395.4,154c-0.5-0.1-0.6,0.5-0.2,0.6"/>
		<path class="st21" d="M394.1,154c-0.4-0.3-0.6,0.6,0,0.7"/>
		<path class="st21" d="M394.1,155.2c-0.2,0-0.5-0.1-0.5,0.2c-0.1,0.2,0.2,0.4,0.3,0.3"/>
		<path class="st21" d="M395.2,155c-0.6-0.4-0.3,1,0.2,0.4"/>
		<path class="st21" d="M396,156.9c-0.3-0.2,0.1-0.7,0.6-0.6"/>
		<path class="st21" d="M398.8,156.3c-0.3-0.2-0.7-0.3-1.1-0.1c-0.3,0.2-0.4,0.5-0.3,0.9"/>
		<path class="st21" d="M398.4,158.5c-0.6,0-1,1.3-0.4,1.2"/>
		<path class="st21" d="M398.7,159c-0.3,0.1-0.3,0.6-0.1,0.7"/>
		<path class="st21" d="M396.2,158c0,0.2,0.2,0.4,0.5,0.4c0.1,0,0.3-0.1,0.3-0.2"/>
		<path class="st21" d="M397.1,157.6c0.2-0.3,0.6-0.3,0.9-0.1c0,0,0.1,0.1,0.1,0.1"/>
		<path class="st21" d="M396.1,157.5c-0.1-0.6-0.7-1.1-1.3-1.1c-0.5,0-1,0.4-1.8,0.1c-0.4-0.1-0.7-0.6-0.6-1c0-0.1,0-0.1,0.1-0.2
			c-0.6,0.1-1.7-0.3-1.2-0.9"/>
		<path class="st21" d="M393,154.7c-0.1-0.3-0.7-0.2-0.8-0.3"/>
		<path class="st21" d="M393.1,153.9c0-0.2,0.4-0.2,0.5-0.1"/>
		<path class="st21" d="M392,155.5c-0.7,0.6-1.6,0.9-2.5,0.9c-0.6,0.1-1.3,0.2-1.9,0.4c-0.4,0.1-2,0.5-2.2,0"/>
		<path class="st21" d="M390.3,157.5c-0.2,0.3-0.8,1.5-1.7,0.6"/>
		<path class="st21" d="M389.5,159.5c-0.3,0.2-1.2,0.5-1.3-0.3"/>
		<path class="st21" d="M390.8,157.7c-0.4,0-0.6,0.7-0.8,1.1c-0.3,0.5-0.7,0.8-1.1,1.2c-0.8,0.3-1.7,0.5-2.6,0.5"/>
		<path class="st21" d="M386,161.5c0.4-0.1,0.7-0.1,1.1-0.2c0.4,0,0.8-0.1,1.3-0.1c0.6,0,1.1-0.2,1.6-0.6c0.8-0.7,0.9-2.4,2.4-2
			c0.3,0.1,0.6,0.4,0.9,0.5c-0.2,0.2-0.4,0.5-0.5,0.8c-0.1,0.5-0.7,0.6-0.7,0.3"/>
		<path class="st21" d="M395.6,158.5c-0.6-0.1-1,0.4-2.2,0.1c-0.8-0.4-1.7-0.7-2.6-0.8"/>
		<path class="st21" d="M395,158.5c-0.4,0.2-0.6-0.5-0.9-0.6c-0.3-0.2-0.6-0.3-0.9-0.4c-0.3-0.1-0.7,0-1,0.2l-0.3,0.1
			c-2.5-0.3-3.8-0.4-4.8-0.2"/>
		<path class="st21" d="M389.6,156.4c-0.3,0.2-0.1,0.6,0.1,0.8c0.2,0.2,0.5,0.2,0.7,0.3c0.5,0,0.9,0,1.3-0.3
			c0.5-0.2,1.1-0.3,1.6-0.1c0.8,0.3,1.5,0.9,2.4,0.9"/>
		<path class="st21" d="M387.9,156c1.9,0.5,3-0.2,3.5-0.1"/>
		<path class="st21" d="M387.3,157.5c-0.5,0.4-0.2,1.3,0.7,1.2c0.7,0,1-1.1,0.8-1.2"/>
		<path class="st21" d="M387.2,158.2c-0.4,0.2-0.6,0.6-0.5,1c0.1,0.3,0.2,0.5,0.5,0.6c0.7,0.3,1.1-0.5,1.1-1.1"/>
		<path class="st21" d="M391.1,159c0,0.2,0.4,0.4,0.5,0.4c0.4,0,0.4-0.5,0.5-0.7"/>
		<path class="st21" d="M390.7,159.5c-0.1,0.4,0.4,0.7,0.7,0.7s0.9-0.4,0.7-1.2"/>
		<path class="st21" d="M390.4,160c-0.2,1.4,1.8,1.5,1.5-0.1"/>
		<path class="st21" d="M389.2,161.1c0,0.3,0.3,0.6,0.6,0.6c0.4,0,0.8-0.3,0.8-0.7c0,0,0-0.1,0-0.1"/>
		<path class="st21" d="M386.8,161.4c0,0.2,0.2,0.7,0.9,0.6c0.6,0,0.8-0.4,0.8-0.8"/>
		<path class="st21" d="M389.9,161.7c0,0.3-0.2,0.7-0.8,0.7s-0.8-0.4-0.7-0.7"/>
		<path class="st21" d="M390.6,161.3c0,0.3,0.3,0.6,0.6,0.6c0,0,0,0,0,0c0.4,0,0.7-0.3,0.8-0.7"/>
		<path class="st21" d="M389.9,162c0,0.7,1.4,0.9,1.5-0.1"/>
		<path class="st21" d="M389.9,162.3c-0.3,0.1-0.5,0.5-0.3,0.8c0.1,0.2,0.3,0.4,0.5,0.4c0.5,0.2,1-0.1,1.2-0.6
			c0.1-0.2,0.1-0.4,0-0.6"/>
		<path class="st21" d="M387.8,162.7c-0.1,0.5,0.2,1,0.6,1.1c0.5,0.2,1.1,0,1.4-0.5"/>
		<path class="st21" d="M389.2,163.9c0.2,0.5,0.8,0.7,1.3,0.5c0.4-0.1,0.6-0.5,0.6-0.9"/>
		<path class="st21" d="M388.3,163.8c-0.1,1.4,1.6,1.8,1.7,0.5"/>
		<path class="st21" d="M392.8,160.5c-0.1,0.8,0.2,1.7,0.8,2.3c0.4,0.5,0.7,1.1,1.1,1.7c0.7,1.1,1.2,2.4,1.4,3.7"/>
		<path class="st21" d="M392.2,160.4c-0.2,0.8-0.1,1.6,0.3,2.3c0.5,1,1.1,1.9,1.7,2.8c0.5,0.8,0.7,1.8,0.9,2.7
			c0.1,0.5,0.1,1,0.1,1.5c0,0.4-0.2,0.9-0.2,1.3c0.1,1.5-0.5,3-1.5,4.1"/>
		<path class="st21" d="M404.7,164.1c0,0.3,0,0.6,0.2,0.9c0.2,0.3,0.5,0.5,0.9,0.7c0.5,0.2,1.5,0.3,1.9-0.2"/>
		<path class="st21" d="M406.6,165.7c0-0.1,0.2-0.7,0.1-0.9s-0.3-0.5-0.5-0.4c0.3,0,0.7,0,1,0.2c0.2,0.2,0.2,0.4,0.3,0.6"/>
		<path class="st21" d="M405.8,163.2c0.1,0,0.3,0.4,0.4,0.5s0.8,0.3,1,0.1"/>
		<path class="st21" d="M407.3,163.4c-0.1,0-0.4-0.2-0.5-0.3c-0.1-0.1-0.2-0.3-0.1-0.5c0.1,0.2,0.3,0.4,0.6,0.4"/>
		<path class="st21" d="M407.9,166.2c-0.1,0.1-0.3,0.3-0.3,0.5"/>
		<path class="st21" d="M404.5,165.4c0.5,0,1.3,0.3,1.3,0.8"/>
		<path class="st21" d="M402.4,165.2c-0.3,0.4,1.3,0.8,1.2,0"/>
		<path class="st21" d="M401.3,165.6c0,0.6,1.2,0.8,1.3,0.2"/>
		<path class="st21" d="M400.4,165.7c-0.3,0.4,0.7,0.4,0.9,0.1"/>
		<path class="st21" d="M399,165.5c0.1,0.3,0.4,0.5,0.8,0.5c0.1,0,0.2-0.1,0.3-0.2"/>
		<path class="st21" d="M397.9,164.9c-0.1,0.1-0.1,0.3,0,0.4c0.1,0.1,0.4,0.1,0.5,0.1"/>
		<path class="st21" d="M396.5,164.3c0.1,0.5,0.7,0.6,1.1,0.5"/>
		<path class="st21" d="M395.5,163.8c-0.1,0.1-0.1,0.3-0.1,0.4c0.1,0.3,0.6,0.3,0.8,0.1"/>
		<path class="st21" d="M394.9,163.1c-0.2,0.1-0.4,0.4-0.3,0.6c0.2,0.6,0.8,0.2,0.8,0.2"/>
		<path class="st21" d="M395.6,164.6c-0.2,0.2-0.2,0.4-0.2,0.7c0.1,0.4,0.7,0.3,0.9,0"/>
		<path class="st21" d="M396.6,165.4c-0.2,0-0.4,0.5-0.2,0.7s1.1,0.2,1.1-0.3"/>
		<path class="st21" d="M400,166.7c0,0.4-0.7,0.8-1,0.4c-0.1-0.1-0.2-0.7,0-0.8"/>
		<path class="st21" d="M402.9,166c0,0.3-0.3,0.7-0.6,0.7c-0.2-0.1-0.4-0.2-0.5-0.5"/>
		<path class="st21" d="M400.7,166.9c-0.2,0.2,0.1,0.6,0.3,0.7c0.5,0.1,1.1-0.2,1.2-0.8c0,0,0,0,0-0.1"/>
		<path class="st21" d="M401.5,167.7c0,0.4-0.7,1-1.1,0.8c-0.2-0.1-0.3-0.4-0.2-0.6c0,0,0,0,0-0.1"/>
		<path class="st21" d="M401.8,167.4C401.8,167.4,401.8,167.4,401.8,167.4c0.1,0.7,1,0.2,0.7-0.4"/>
		<path class="st21" d="M402.8,166.7c-0.1,0.2,0,0.3,0.2,0.3c0.3-0.1,0.5-0.3,0.5-0.5"/>
		<path class="st21" d="M389.9,164.8c0.4,0.3,0.9,0.4,1.4,0.2c0.3-0.1,0.8-1,0.4-1.2"/>
		<path class="st21" d="M391,163.3c0,0.2,0.6,0.5,0.8,0.5c0.4,0,0.8-0.2,1-0.5"/>
		<path class="st21" d="M391.7,164.4c0.3,0.9,1.8,0.5,1.7-0.2"/>
		<path class="st21" d="M394,165.2c0,0.4-0.3,0.8-1,0.8c-0.4,0-0.8-0.3-0.7-0.6"/>
		<path class="st21" d="M391,165.9c-0.2,0.4-0.1,0.9,0.3,1.1c0.1,0.1,0.2,0.1,0.3,0.1c0.9,0.1,1.1-0.6,1.2-1.1"/>
		<path class="st21" d="M392.7,166.3c0,0.4,0.3,0.7,0.7,0.8c0.7,0.2,1.2-0.2,1.1-0.6"/>
		<path class="st21" d="M394.9,167.9c0,0.3-0.6,0.6-1.1,0.5c-0.5-0.2-0.8-0.8-0.6-1.4"/>
		<path class="st21" d="M390.4,167.1c-0.2,0.2-0.4,0.6,0,1.2c0.4,0.6,1.5,0.5,1.5-0.3"/>
		<path class="st21" d="M389.9,166c-0.2,0.6,0.7,1.7,1.5,1.1"/>
		<path class="st21" d="M392.5,169.9c0.1,0.3-0.5,0.9-1.1,0.6c-0.4-0.3-0.5-0.8-0.2-1.2"/>
		<path class="st21" d="M392.7,169.3c-0.1,0.3-0.3,0.8,0.2,1c1,0.5,1.1-0.9,1.1-0.9"/>
		<path class="st21" d="M394,169.3c-0.1,0.3,0,0.7,0.2,1c0.2,0.2,0.4,0.3,0.6,0.2"/>
		<path class="st21" d="M393.5,170.4c-0.2,0.2-0.1,0.6,0.1,0.8c0.2,0.2,1.1,0.2,1.2-0.2"/>
		<path class="st21" d="M394.3,171.8c-0.1,0.3-0.3,0.5-0.6,0.5c-0.3,0.1-0.7,0-0.9,0.2c-0.4,0.4,0.5,1.2,0.9,0.5"/>
		<path class="st21" d="M392.1,171.2c-0.3,0.1-0.4,0.5-0.3,0.8c0.2,0.8,1.1,0.5,1.1,0.5"/>
		<path class="st21" d="M391.3,167.1c0.1,0.5,0.5,0.9,1,0.9c0.4,0,0.8-0.3,0.9-0.7"/>
		<path class="st21" d="M391.8,168.4c0,0.5,0.4,0.9,0.9,0.8c0.1,0,0.1,0,0.2,0c0.7-0.1,0.6-0.8,0.6-1.1"/>
		<path class="st21" d="M395,168.6c0.1,0.9-1.6,1-1.6,0.4"/>
		<path class="st21" d="M389,169.6c-0.2,0.3,0,0.8,0.3,0.9c0.1,0,0.1,0,0.2,0.1c0.2,0,0.4,0,0.6-0.2c0.2-0.2,0.4-0.5,0.2-0.8"/>
		<path class="st21" d="M389.6,170.6c-0.2,0.3-0.3,0.6-0.2,0.9c0.1,0.2,0.3,0.4,0.6,0.4c0.3,0,0.6-0.1,0.7-0.4
			c0.1-0.2,0.3-0.6,0.1-0.8"/>
		<path class="st21" d="M390.2,171.9c-0.4,0.2-0.5,0.7-0.3,1c0,0,0,0,0,0.1c0.3,0.2,0.6,0.3,0.9,0.1c0.5-0.2,0.7-1,0.1-1.2"/>
		<path class="st21" d="M388.2,169.5c-0.2,0.2-0.2,0.5-0.1,0.7c0.3,0.9,1.3,0.4,1.3,0.4"/>
		<path class="st21" d="M387,169.1c0,0-0.4,0.1-0.2,0.8c0.2,0.5,0.7,0.8,1.2,0.7c0,0,0.1,0,0.1-0.1"/>
		<path class="st21" d="M386.1,168.7c-0.2,0.2-0.3,0.4-0.3,0.7c0,0.5,0.4,0.8,0.9,0.8c0.1,0,0.2,0,0.3-0.1"/>
		<path class="st21" d="M384.8,168.1c-0.3,0.2-0.3,0.5-0.2,0.8c0.4,0.7,1.1,0.3,1.1,0.3"/>
		<path class="st21" d="M383.7,167.7c-0.2,0.2-0.2,0.5-0.1,0.8c0.2,0.4,0.7,0.6,1.2,0.5"/>
		<path class="st21" d="M382.4,167.4c-0.1,0.3-0.2,0.6-0.1,0.9c0.3,0.9,1.3,0.3,1.3,0.3"/>
		<path class="st21" d="M381.3,167.2c0,0.2,0,0.4,0.1,0.5c0.1,0.2,0.7,0.3,0.9,0.1"/>
		<path class="st21" d="M381.4,168.1c0,0-0.1,0.5,0.3,0.7c0.3,0.2,0.7,0.2,0.9-0.1"/>
		<path class="st21" d="M380.6,167.1c-0.3,0.2-0.5,0.6-0.3,0.9c0,0,0,0,0,0.1c0.2,0.3,0.5,0.4,0.8,0.2c0.2-0.1,0.3-0.3,0.3-0.5"/>
		<path class="st21" d="M378.7,167c-0.1,0.4,0.1,0.8,0.5,0.9c0.3,0.1,0.9,0.1,1-0.2"/>
		<path class="st21" d="M379.4,167.9c-0.3,0.2-0.3,0.7-0.1,0.9c0.2,0.3,0.7,0.3,0.9,0.1c0.2-0.2,0.3-0.6,0.1-0.8"/>
		<path class="st21" d="M380.3,168.8c-0.1,0.3,0,0.6,0.3,0.7c0.1,0,0.2,0,0.2,0c0.4-0.1,0.8-0.4,0.8-0.8"/>
		<path class="st21" d="M382.8,169.8c-0.4,1-1.6,0.1-1.4-0.5"/>
		<path class="st21" d="M382.5,168.8c0,0-0.4,0.8,0.3,1s1.1-0.9,1.1-0.9"/>
		<path class="st21" d="M383.6,169.5c0,0.4,0.3,0.7,0.7,0.7c0,0,0,0,0.1,0c0.7,0,0.9-1,0.9-1"/>
		<path class="st21" d="M385.6,170.7c0,0-0.3,0.2-0.5,0.1c-0.3-0.1-0.5-0.4-0.4-0.7c0,0,0,0,0,0"/>
		<path class="st21" d="M385.9,169.9c0,0-0.8,1,0,1.5c0.4,0.2,0.9,0.1,1.2-0.3c0,0,0,0,0,0"/>
		<path class="st21" d="M387.3,170.5c0,0-0.6,1.2,0.4,1.4c0.3,0.1,0.6-0.1,0.8-0.3"/>
		<path class="st21" d="M388.6,170.7c-0.2,0.3-0.2,0.6-0.1,0.9c0.2,0.3,0.6,0.5,0.9,0.3c0.1,0,0.2-0.1,0.2-0.2"/>
		<path class="st21" d="M388.9,172c-0.1,0.3,0,0.7,0.3,0.9c0,0,0.1,0,0.1,0"/>
		<path class="st21" d="M387.7,172.1c0,0-0.1,0.6,0.4,0.6"/>
		<path class="st21" d="M386.4,171.6c0,0-0.3,0.5,0.1,0.7c0.4,0.3,1,0.2,1.2-0.2c0,0,0-0.1,0.1-0.1"/>
		<path class="st21" d="M385.2,170.9c0,0-0.6,0.7,0.1,1.1c0.4,0.2,0.8,0.1,1.1-0.2"/>
		<path class="st21" d="M384.1,170.2c-0.3,0.2-0.5,0.6-0.4,1c0.2,0.4,0.6,0.6,1,0.5c0.1,0,0.1-0.1,0.2-0.1"/>
		<path class="st21" d="M382.7,170c-0.2,0.7,0.6,1,1,0.8"/>
		<path class="st21" d="M383,170.8c-0.1,0.2-0.1,0.5,0.1,0.6c0,0,0.1,0,0.1,0.1"/>
		<path class="st21" d="M381.9,170.2c-0.1,0.1-0.1,0.3-0.1,0.4c0,0.2,0.2,0.4,0.4,0.5"/>
		<path class="st21" d="M380.9,169.6c-0.2,0.2-0.3,0.6-0.2,0.9c0,0.2,0.2,0.3,0.3,0.4"/>
		<path class="st21" d="M381.2,170.9c0,0.6,0.3,1.1,0.8,1.4"/>
		<path class="st21" d="M382.2,171.1c0.1,0.5,0.4,1,0.8,1.4"/>
		<path class="st21" d="M383.8,171.7c0,0,0.1,1.1,0.8,1.4"/>
		<path class="st21" d="M385.9,172.3c-0.2,0.4-0.1,0.9,0.3,1.1"/>
		<path class="st21" d="M387.7,172.7c0,0.2,0,0.3,0,0.5c0.1,0.2,0.2,0.4,0.4,0.5"/>
		<path class="st21" d="M388.8,172.9c-0.2,0.2,0,0.9,0.4,1"/>
		<path class="st21" d="M380.3,170.8c-0.4,0.5-0.2,1.2,0.2,1.3"/>
		<path class="st21" d="M378.7,171.1c-0.1,0.4,0,0.8,0.3,1"/>
		<path class="st21" d="M377.2,171.7c-0.1,0.3,0.3,0.7,0.7,0.8"/>
		<path class="st21" d="M376.3,172.7c0.3,0.2,0.7,0.3,1.1,0.3"/>
		<path class="st21" d="M375.9,173.6c0.3,0.2,0.7,0.2,1,0.1"/>
		<path class="st21" d="M375.7,174.6c0.2,0.1,0.6,0.2,0.8,0"/>
		<path class="st21" d="M375.6,175.5c0,0.3,0.6,0.3,0.6,0.2"/>
		<path class="st21" d="M375.8,176.3c0.3,0.2,0.4,0,0.5,0"/>
		<path class="st21" d="M376.8,177.5c-0.4-0.1-0.7-0.4-0.8-0.7c-0.2-0.3-0.3-0.6-0.3-1c-0.1-0.7,0-1.5,0.2-2.1
			c0.1-0.4,0.3-0.8,0.5-1.1c0.4-0.5,0.9-1,1.5-1.2c0.8-0.3,1.6-0.5,2.4-0.5c1.1,0.1,2.2,0.4,3.3,0.8c2,0.7,4.1,1.1,6.3,1.2
			c0.1,0-0.3,0.5,0,1"/>
		<path class="st21" d="M387.1,161.9c-0.3,1,1.5,1.1,1.6,0.3"/>
		<path class="st21" d="M389.3,165.1c0,0.5,0.9,0.6,1.3,0"/>
		<path class="st21" d="M390.5,165.2c0.1,0.7,0.8,0.7,1.1,0.7c0.5,0,0.8-0.4,0.8-0.9c0,0,0-0.1,0-0.1"/>
		<path class="st21" d="M389.7,168.6c0.3,0.3,0.7,0.3,1,0c0,0,0.1-0.1,0.1-0.1"/>
		<path class="st21" d="M391.9,170.6c-0.1,0.3,0.1,0.7,0.5,0.8c0,0,0,0,0,0c0.6,0.2,1-0.1,1.1-0.4"/>
		<path class="st21" d="M391.6,172.4c0,0.7,0.5,1.1,1.1,0.7"/>
		<path class="st21" d="M392,173.5c0,0.3,0.2,0.5,0.5,0.5c0.1,0,0.3-0.1,0.4-0.2"/>
		<path class="st21" d="M391.2,173.3c-0.2,0-0.2,0.4-0.1,0.6c0.2,0.2,0.5,0.2,0.7,0c0,0,0,0,0,0"/>
		<path class="st21" d="M393.2,175.4c-0.3,0.3-1-0.3-0.7-0.5"/>
		<path class="st21" d="M390,173.3c0.1,0.2,0,0.4,0.3,0.6c0.2,0.1,0.4,0.1,0.6,0"/>
		<path class="st21" d="M390.9,174.1c-0.3,0.4,0.6,0.5,0.8,0.3"/>
		<path class="st21" d="M391.9,175c-0.1,0.2-0.3,0.3-0.5,0.2c-0.1,0-0.2-0.2-0.3-0.3"/>
		<path class="st21" d="M392,175.4c-0.1,0.1,0,0.3,0.1,0.4c0.1,0.1,0.3,0,0.4-0.1l0,0"/>
		<path class="st21" d="M390.2,175c0.1,0.4,0.7,0.2,0.7-0.1"/>
		<path class="st21" d="M391.7,175.7c-0.1,0.4-0.8,0.3-0.7,0.1"/>
		<path class="st21" d="M391.7,176.1c0.1,0.2,0.4,0.4,0.6,0.1"/>
		<path class="st21" d="M392.5,176.5c-0.1,0.1,0,0.2,0.1,0.2c0.2,0.1,0.4,0,0.5-0.2"/>
		<path class="st21" d="M393.3,176.9c-0.2,0.4,0.4,0.5,0.6,0.2"/>
		<path class="st21" d="M393.4,176.3c0,0.3,0.4,0.4,0.6,0.3"/>
		<path class="st21" d="M394.3,176.9c0,0.4,0.6,0.3,0.8,0.2"/>
		<path class="st21" d="M395.5,177.2c-0.1,0.1,0.1,0.2,0.2,0.3c0.2,0.1,0.4,0,0.5-0.1"/>
		<path class="st21" d="M396.6,177.6c0,0.2,0.5,0.2,0.6,0.1"/>
		<path class="st21" d="M396.1,177.7c0,0.3,0.6,0.7,0.8,0.4"/>
		<path class="st21" d="M395.6,177.9c-0.2,0-0.4-0.2-0.3-0.4"/>
		<path class="st21" d="M394.1,177.6c0.2,0.2,0.5,0.2,0.8,0"/>
		<path class="st21" d="M390.9,176.2c-0.2,0.4,0.5,0.5,0.7,0.4"/>
		<path class="st21" d="M393.3,177.6c-0.2,0.1-0.9-0.1-0.8-0.4"/>
		<path class="st21" d="M391.8,176.9c-0.1,0.2,0.3,0.3,0.4,0.2"/>
		<path class="st21" d="M393.6,177.7c0,0.4,0.8,0.5,1,0.3"/>
		<path class="st21" d="M395,178.2c0,0.2,0.3,0.1,0.4,0"/>
		<path class="st21" d="M395.9,178.3c0,0.1,0.2,0.1,0.3,0.1"/>
		<path class="st21" d="M390.3,176.7c-0.1-0.2-0.1-0.4,0.1-0.5c0,0,0.1,0,0.1-0.1"/>
		<path class="st21" d="M389.9,175.7c0,0.2,0.1,0.4,0.4,0.4"/>
		<path class="st21" d="M403.8,179.3c-0.3-0.2-0.7-0.7-1.1-0.8c-0.5-0.1-1-0.1-1.5,0c-0.9,0.2-1.6,0.9-1.8,1.8
			c-0.1,0.6-0.1,1.2,0.1,1.8c0.2,0.7,0.8,1.2,1.4,1.3"/>
		<path class="st21" d="M402.8,180.3c-0.5,0-0.8,0.1-1,0.5c-0.2,0.4,0.1,0.7,0.3,1c0-0.6,0.5-1.3,1.2-1.1"/>
		<path class="st21" d="M402.9,181.4c-0.3,0.1-0.2,0.3,0,0.4s0.3-0.1,0.4-0.3"/>
		<path class="st21" d="M403.2,178.8c-0.1-0.2-0.4-0.6-0.3-0.9c0.1-0.3,0.7,0,0.8,0.2"/>
		<path class="st21" d="M398.9,177.1c0,0.2,0.1,1,0.5,0.8"/>
		<path class="st21" d="M399.7,167.4c0.3,0.1,0.6,0.6,0.9,0"/>
		<path class="st21" d="M398.7,167.3c-0.3,0.8,1,1.4,1.2,0.6"/>
		<path class="st21" d="M398.1,165.6c0,0.2,0,0.3,0.2,0.5c0.2,0.2,0.5,0.2,0.6,0"/>
		<path class="st21" d="M399.2,166.2c-0.1,0.3,0.6,0.3,0.8,0.1"/>
		<path class="st21" d="M400.3,166.4c0.1,0.5,0.9,0.2,1-0.1"/>
		<path class="st21" d="M397.2,165.1c-0.1,0.1-0.1,0.3,0,0.5c0.1,0.1,0.6,0.5,0.7,0.2"/>
		<path class="st21" d="M396.4,164.7c-0.1,0.3,0,0.6,0.4,0.5"/>
		<path class="st21" d="M396.3,166.9c0.2-0.4,0.5-0.3,0.8-0.2c0.4,0.2,0.8,0.2,1.2,0"/>
		<path class="st21" d="M393.5,164.5c0,0.1,0.1-0.3,0.2-0.6c0.1-0.3,0.1-0.6,0-0.9"/>
		<path class="st21" d="M394.2,165.7c0.3-0.4,0.4-0.9,0.3-1.3"/>
		<path class="st21" d="M394.7,167.1c0.3-0.3,0.6-0.8,0.6-1.2"/>
		<path class="st21" d="M395,168.7c0.8-0.4,0.8-1.7,0.8-1.7"/>
		<path class="st21" d="M394.9,170.4c0.5-0.2,0.9-0.6,1.1-1.1"/>
		<path class="st21" d="M394.8,171.8c0.4-0.3,0.8-0.6,1-1.1"/>
		<path class="st21" d="M377.4,167.2c-0.8,0.8,1.3,1.4,1.4,0.1"/>
		<path class="st21" d="M376.3,167.7c-0.1,0.3-0.1,0.6,0.2,0.8c0.7,0.5,1.2-0.5,1.2-0.5"/>
		<path class="st21" d="M375.2,168.6c0,0.2,0.3,0.4,0.4,0.4c0.4,0.1,0.7-0.1,0.9-0.5"/>
		<path class="st21" d="M374.3,169.5c0,0.3,0.2,0.6,0.5,0.6c0,0,0,0,0,0c0.9,0,1.1-1,1.1-1"/>
		<path class="st21" d="M373.7,170.6c0,0.4,1.1,0.1,1.2-0.3"/>
		<path class="st21" d="M380.6,169.9c-0.2-0.2-0.8,0-0.9,0.2c-0.3,0.4,0,0.7,0,0.7"/>
		<path class="st21" d="M379.5,169c-0.3,0.1-0.5,0.4-0.4,0.7c0.1,0.3,0.4,0.5,0.7,0.4"/>
		<path class="st21" d="M378.1,168.1c-0.2,0.3-0.1,0.6,0.1,0.8c0.3,0.2,0.7,0.2,1-0.1"/>
		<path class="st21" d="M378.9,169c-0.5,0.1-0.7,1.3,0.6,1"/>
		<path class="st21" d="M379,170.1c-0.5,0.1-0.4,0.9,0,0.8"/>
		<path class="st21" d="M378.4,169c0,0-1,0.2-0.7,1c0.2,0.5,1.1,0.4,1.1,0.4"/>
		<path class="st21" d="M377.1,168.7c-0.1,0.2-0.1,0.5,0,0.7c0.1,0.2,0.6,0.2,0.6,0.2"/>
		<path class="st21" d="M375.9,169c0,0.4,0.3,0.6,0.6,0.6c0.2,0,0.4-0.1,0.5-0.3"/>
		<path class="st21" d="M377.2,171.1c0,0-0.8,0.6-1.1-0.1s0.6-0.8,0.6-0.8"/>
		<path class="st21" d="M375.3,169.9c-0.1,0.2-0.1,0.5,0.1,0.6c0,0,0,0,0,0c0.2,0.2,0.5,0.2,0.7,0"/>
		<path class="st21" d="M376.7,169.6c-0.1,0.3-0.1,0.7,0.2,0.9c0.3,0.2,0.7,0.2,1-0.1"/>
		<path class="st21" d="M377.9,170.5c-0.2,0.2-0.2,0.4,0,0.6c0.1,0.1,0.2,0.1,0.3,0.1"/>
		<path class="st21" d="M377.4,170.7c-0.2,0.1-0.3,0.3-0.2,0.5c0.1,0.2,0.2,0.3,0.4,0.2"/>
		<path class="st21" d="M376,171.9c-0.1,0.1-0.3,0.1-0.5,0c-0.1-0.1-0.1-0.3,0-0.4"/>
		<path class="st21" d="M376.7,171.3c-0.9,0.1-0.9,1.5-0.5,1.4"/>
		<path class="st21" d="M374.6,170.7c0,0-0.3,0.5,0.1,0.8c0.8,0.5,1.4-0.7,1.4-0.7"/>
		<path class="st21" d="M374.6,171.4c-0.3,0.3-0.2,0.8,0.1,1.1c0,0,0,0,0,0c0.4,0.3,0.9,0.2,1.2-0.1"/>
		<path class="st21" d="M373.4,171.3c-0.1,0.5,0.6,0.8,1.1,0.4"/>
		<path class="st21" d="M375,172.9c-0.3,0.5-1.1,0.5-0.8-0.2l0,0"/>
		<path class="st21" d="M375.4,173c0,0.2,0,0.5,0.3,0.4"/>
		<path class="st21" d="M373,172.4c0,0.2,0.1,0.3,0.2,0.4c0.3,0.2,0.5,0,0.7-0.2"/>
		<path class="st21" d="M375.1,173.6c-0.1,0-0.1,0.3-0.1,0.4c0,0.1,0.3,0.2,0.5,0.2"/>
		<path class="st21" d="M373.6,173.4c-0.1,0.6,0.5,0.8,0.9,0.4"/>
		<path class="st21" d="M374,174.6c-0.2,0.2-0.6,0.2-0.9,0.1c-0.2-0.1-0.1-0.4-0.1-0.6"/>
		<path class="st21" d="M374.4,174.3c-0.3,0.3,0.3,0.6,0.5,0.4"/>
		<path class="st21" d="M372.6,173.5c-0.1,0.1,0,0.2,0.1,0.2s0.3-0.2,0.4-0.3"/>
		<path class="st21" d="M373.8,175.1c-0.1,0.5,0.9,0.8,1.1,0.3"/>
		<path class="st21" d="M373.2,175.4c-0.1,0.2-0.2,0.4-0.1,0.7c0.1,0.2,0.7,0.2,0.8-0.1"/>
		<path class="st21" d="M372.5,174.6c-0.1,0.3,0.3,0.4,0.6,0.4"/>
		<path class="st21" d="M372.1,175.3c0,0.4,0.1,0.5,0.5,0.4"/>
		<path class="st21" d="M371.9,176.4c-0.1,0.2-0.1,0.4,0,0.5c0.2,0.3,0.6,0,0.8-0.2"/>
		<path class="st21" d="M373.4,176.5c-0.3,0.4,0.3,0.8,0.6,0.4"/>
		<path class="st21" d="M374.2,176.2c0,0.5,0.6,0.4,0.8,0.2"/>
		<path class="st21" d="M374.5,176.9c0,0.2,0,0.4,0.2,0.6c0.2,0.1,0.6,0,0.7-0.2c0,0,0,0,0-0.1"/>
		<path class="st21" d="M373.7,177.3c-0.1,0.2-0.2,0.4-0.1,0.6c0.2,0.4,0.8,0.4,1,0.1"/>
		<path class="st21" d="M373.1,178.3c-0.3,0.1-0.5-0.1-0.3-0.4"/>
		<path class="st21" d="M372.3,177.3c0,0.1,0,0.2,0.1,0.3c0.1,0.1,0.4,0,0.5,0"/>
		<path class="st21" d="M371.2,177.7c0.3,0.1,0.6,0.1,0.9-0.1"/>
		<path class="st21" d="M371.6,178.2c-0.2,0.3,0.4,0.5,0.6,0.2"/>
		<path class="st21" d="M371.6,178.8c0,0.2,0,0.6,0.3,0.3"/>
		<path class="st21" d="M370.7,178.7c0.1,0.3,0.4,0,0.5-0.1"/>
		<path class="st21" d="M372.3,178.8c-0.1,0.4,0.7,0.3,0.8,0.1"/>
		<path class="st21" d="M373.7,178.6c-0.2,0.1,0,0.5,0.1,0.6c0.3,0.2,0.7,0.1,0.9-0.2"/>
		<path class="st21" d="M374.8,178.4c-0.2,0.4,0.5,0.6,0.6,0.1"/>
		<path class="st21" d="M375.3,177.9c0,0.4,0.5,0.3,0.7,0.1"/>
		<path class="st21" d="M375.9,177.3c-0.2,0.2,0.3,0.4,0.5,0.4"/>
		<path class="st21" d="M376.4,178.2c-0.1,0.2,0.3,0.4,0.4,0.3"/>
		<path class="st21" d="M379.2,175.1c-0.2,0.1-0.2,0.3-0.1,0.5c0,0,0.1,0.1,0.1,0.1c0.2,0.1,0.5,0.1,0.8,0"/>
		<path class="st21" d="M381.1,176.7c-0.2,0-0.5,0.2-0.3,0.5c0.2,0.2,0.4,0.3,0.6,0.4"/>
		<path class="st21" d="M382.2,177.6c-0.5,0-1,0-1.5,0.1c-0.4,0.2-0.8,0.4-1.1,0.8c-0.3,0.3-0.4,0.7-0.4,1.1c0,0.4,0.3,0.8,0.6,1
			c0.1,0.1,0.3,0.3,0.4,0.4c0.1,0.1,0.3,0.3,0.4,0.4"/>
		<path class="st21" d="M379.1,181.2c-0.1-0.1,0-0.4,0.1-0.5s1,0.2,1,0.2"/>
		<path class="st21" d="M381.5,178.8c-0.3,0.2-0.6,0.9-0.1,1"/>
		<path class="st21" d="M382,179c-0.2,0.2,0,0.7,0.1,0.9c-0.1-0.2,0-0.5,0.2-0.6c0,0.2,0,0.4,0.2,0.5"/>
		<path class="st21" d="M372.2,179.3c0,0.2,0.4,0.2,0.5,0.1"/>
		<path class="st21" d="M370.6,179c0,0.4,0.4,0.4,0.7,0.2"/>
		<path class="st21" d="M370,179.5c-0.1-0.1-0.3,0.3-0.3,0.4c0,0.3,0.6,0.3,0.8,0.1"/>
		<path class="st21" d="M370.9,179.7c-0.2,0.2-0.1,0.5,0.3,0.4"/>
		<path class="st21" d="M371.6,179.6c-0.3,0.2,0,0.4,0.2,0.4"/>
		<path class="st21" d="M369.4,180.3c-0.1,0.1-0.1,0.2,0.1,0.3s0.4-0.1,0.5-0.2"/>
		<path class="st21" d="M370.4,180.4c-0.3,0.2,0,0.6,0.3,0.3"/>
		<path class="st21" d="M371,180.5c0,0.1,0.1,0.3,0.2,0.2"/>
		<path class="st21" d="M370.5,181c-0.1,0.1-0.1,0.3,0.1,0.3"/>
		<path class="st21" d="M369.9,180.7c0,0.2,0.2,0.4,0.3,0.2"/>
		<path class="st21" d="M369.9,181.7c-0.1,0.2-0.4,0-0.2-0.1"/>
		<path class="st21" d="M368.8,180.6c-0.2,0.2,0.3,0.3,0.5,0.2"/>
		<path class="st21" d="M369.6,181c-0.1,0.1-0.2,0.2-0.1,0.3c0.1,0,0.2,0,0.3-0.1"/>
		<path class="st21" d="M368.5,180.8c-0.1,0.1-0.1,0.2-0.1,0.3c0.1,0.1,0.3,0.1,0.4,0"/>
		<path class="st21" d="M369.4,182c-0.2,0.3-0.3-0.1-0.3-0.3"/>
		<path class="st21" d="M367.9,181.2c-0.2,0.3,0.4,0,0.5,0"/>
		<path class="st21" d="M368.8,182.2c-0.1,0.1-0.3,0-0.2-0.2"/>
		<path class="st21" d="M368.3,182.4c-0.1,0.2-0.4,0-0.2-0.1"/>
		<path class="st21" d="M368.3,181.5c-0.2,0.1,0.2,0.2,0.3,0.1"/>
		<path class="st21" d="M368.9,181.3c-0.1,0.2,0.1,0.3,0.2,0.1"/>
		<path class="st21" d="M367.3,181.5c0,0.2,0.2,0.6,0.4,0.3"/>
		<path class="st21" d="M367.5,182.3c0,0.1,0,0.2,0,0.3c0.1,0,0.1,0,0.2,0"/>
		<path class="st21" d="M367.1,182.6c-0.1,0-0.2,0-0.2,0c0-0.1,0-0.2,0.1-0.3"/>
		<path class="st21" d="M366.2,182c0,0.2,0.1,0.3,0.2,0.2"/>
		<path class="st21" d="M366.3,182.6c-0.1,0-0.1,0.1-0.1,0.2c0,0.1,0.3,0,0.3-0.2"/>
		<path class="st21" d="M366.7,181.8c-0.1,0.1,0.1,0.2,0.2,0.1"/>
		<path class="st21" d="M365.7,182.4c-0.1,0.1,0.1,0.2,0.2,0.1"/>
		<path class="st21" d="M365.6,182.9c0,0.1,0.1,0.1,0.2,0.1"/>
		<path class="st21" d="M365,183.2c-0.1,0.1-0.2-0.1-0.2-0.2"/>
		<path class="st21" d="M364.4,182.9c-0.1,0.1-0.1,0.1,0,0.2"/>
		<path class="st21" d="M364.3,183.6c-0.1,0-0.2,0-0.2,0"/>
		<path class="st21" d="M365.2,182.5c-0.1,0.1,0.1,0.1,0.2,0.1"/>
		<path class="st21" d="M364,183.1c0,0.1,0.1,0.1,0.2,0.1"/>
		<path class="st21" d="M363.6,183.5c0,0.1,0.1,0.2,0.3,0.2"/>
		<path class="st21" d="M363.1,184C363.1,184,363.1,184,363.1,184c0,0.1,0.1,0.1,0.1,0.1"/>
		<path class="st21" d="M366.8,184.6c0.3,0,0.9-0.8,1.1-1c0.3-0.4,0.6-0.7,1-1c0.4-0.3,0.9-0.6,1.4-0.9c0.4-0.3,0.7-0.6,1-0.9
			c0.4-0.3,0.8-0.7,1.1-1.1c0.2-0.3,0.6-0.7,1-0.6c0,0.4-0.2,0.8-0.4,1.1c-0.1,0.1-0.3,0.2-0.4,0.4s-0.2,0.4-0.3,0.5"/>
		<path class="st21" d="M374.5,179.4c-0.3,0.4,0.4,0.6,0.6,0.4"/>
		<path class="st21" d="M375.5,178.9c0,0.3,0.2,0.8,0.6,0.5"/>
		<path class="st21" d="M373.9,179.6c0,0.2-0.1,0.4,0,0.5c0.1,0.2,0.4,0.3,0.6,0.1c0,0,0,0,0,0"/>
		<path class="st21" d="M375.9,181.1c-0.4,0.4-1.1-0.2-0.7-0.7"/>
		<path class="st21" d="M375.3,181.7c-0.4-0.2-0.7,1.2,0.1,0.7"/>
		<path class="st21" d="M373.9,182c0.6,0.5,0.7,1.3,0.8,1.7"/>
		<path class="st21" d="M375.4,182.7c-0.3,0-0.2,1.1,0.4,0.6"/>
		<path class="st21" d="M375.6,181.7c-0.1,0.2-0.1,0.3-0.1,0.5c0,0.1,0.2,0.2,0.3,0.2c0.1,0,0.1-0.1,0.2-0.2"/>
		<path class="st21" d="M375.9,181.4c0.1,0,0,0.2,0,0.3c0,0.1,0.1,0.2,0.2,0.2c0.1,0,0.1-0.1,0.2-0.2"/>
		<path class="st21" d="M376,180c-0.4,0-0.1,1.2,0.3,0.7"/>
		<path class="st21" d="M376.6,179c-0.2,0.1-0.4,0.3-0.5,0.6c0,0.3,0.3,0.6,0.5,0.4"/>
		<path class="st21" d="M377.5,177.7c0.2,0.2,0.4,0.4,0.4,0.7"/>
		<path class="st21" d="M378.1,180.5c-0.3-0.4-0.1-0.9,0.2-1.2c0.3-0.2,0.7-0.2,1,0"/>
		<path class="st21" d="M379.7,177.8c-0.1,0.1,0.3,0.2,0.4,0.2"/>
		<path class="st21" d="M379.2,178.4c0,0.1,0.2,0.1,0.3,0"/>
		<path class="st21" d="M379,189.5c0-0.6-0.3-1.5-1-1.5c-0.3,0-0.6-0.1-0.9-0.3c-0.3-0.2-0.7-0.5-1-0.3c-0.2,0.1-0.2,0.3-0.4,0.4
			s-0.3,0.1-0.5,0.2c-0.4,0.3-0.7,0.8-0.8,1.4"/>
		<path class="st21" d="M376.5,189.9c-0.3-0.2,0.7-0.9,1.1-0.6"/>
		<path class="st21" d="M376.7,190.5c0.2-0.3,0.9-0.8,1.2-0.6c-0.1,0.2-0.5,0.1-0.6,0.4c0,0.1,0,0.6,0.2,0.4"/>
		<path class="st21" d="M375.9,185.5c0.1,0.3,0.5,0,0.6-0.2"/>
		<path class="st21" d="M376.9,183.3c0,0.3-0.3,0.1-0.4,0"/>
		<path class="st21" d="M375.8,183.6c0,0.3,0.6,0.3,0.6-0.1"/>
		<path class="st21" d="M375.3,184.2c0.2,0.2,0.3-0.1,0.3-0.3"/>
		<path class="st21" d="M377.1,184c-0.1,0.1-0.2,0.1-0.3,0.1c-0.1,0-0.1-0.1-0.1-0.2"/>
		<path class="st21" d="M376,184.2c0,0.3,0.5,0.3,0.6-0.1"/>
		<path class="st21" d="M375.7,184.7c0.1,0.1,0.3,0,0.3-0.1c0,0,0,0,0,0"/>
		<path class="st21" d="M377.6,185c-0.1,0.1-0.3,0.1-0.4,0"/>
		<path class="st21" d="M376.7,185.4c0.1,0.1,0.2,0.1,0.3,0c0,0,0-0.1,0-0.1"/>
		<path class="st21" d="M376.5,184.6c0,0.2,0.3,0.6,0.4,0.3"/>
		<path class="st21" d="M380.4,186.8c-0.2-0.7,0.7-0.5,1-0.1"/>
		<path class="st21" d="M378.3,188.1c0-0.2-0.1-0.8,0.3-0.7c0.3,0.1,0.6,0.3,0.9,0.6"/>
		<path class="st21" d="M373.9,188.1C373.9,188.1,373.8,188.1,373.9,188.1c0.2-0.2,0.4-0.3,0.7-0.4c0,0.1,0.1,0.8,0.5,0.6"/>
		<path class="st21" d="M397.5,159.8c-0.1,0-0.7-0.3-0.7-0.5s0.3-0.2,0.4-0.3c0.1-0.1,0.2-0.3,0.3-0.4c0.2-0.3,0.5-0.6,0.8-0.2
			c0.3,0.4,0.1,0.8,0.6,0.7s0.2-1.2-0.4-1.6c0,0-1.5-0.8-2.5,0.1c-0.3,0.3-0.5,0.7-0.4,1.1c0.1,0.4,0.3,0.7,0.6,1
			C396.6,160,397.5,159.8,397.5,159.8z"/>
		<path class="st21" d="M389.5,165.4c0,0,0.2,1.1,1.2,0.3"/>
		<path class="st21" d="M390,166.5c0,0,0.3,0.6-0.5,0.9"/>
		<path class="st18" d="M386.9,159.5c-0.3,0.2-0.4,0.6-0.2,0.9c0,0,0,0.1,0.1,0.1"/>
		<path class="st23" d="M387.8,159.7c0.1,0.3,0.4,0.6,0.8,0.5c0,0,0,0,0.1,0"/>
		<path class="st23" d="M390.1,168.8c0,0-0.2,1.5-1.3,0.6"/>
		<path class="st21" d="M390.9,168.6c0,0-0.3,1.3,1.5,0.7"/>
		<path class="st21" d="M390,169.3c0.2,0.5,0.6,0.7,1.1,0.6"/>
		<path class="st21" d="M389.5,165.6c-0.2,0.2-0.4,0.3-0.7,0.3"/>
		<path class="st23" d="M389,169.6c0,0-0.9,0.2-4-1.4c-1.9-0.8-3.9-1.2-6-1.2c-2.3,0.2-4.3,1.5-5.3,3.6c-0.6,1.4-1,2.9-1.4,4.4
			c-0.4,1.5-1.1,2.9-2.1,4.1c-1.2,1.5-4.5,3.3-5.5,3.7c-1,0.5-2,1.2-2.9,1.9c-0.2,0.3,2.8-1.3,4.2-1.5c1-0.1,2.1-0.3,3-0.8"/>
		<path class="st23" d="M390.2,170.2c0,0,0.3,0.8,1.2,0.3"/>
		<path class="st23" d="M393,171.4c-0.2,0.2-0.2,0.6,0,0.8c0.1,0.1,0.2,0.1,0.3,0.2"/>
		<path class="st23" d="M394.3,171.3c-0.1,0.3,0.1,0.6,0.4,0.7"/>
		<path class="st23" d="M377,177.6c-0.2,0.4-0.2,0.9,0,1.4c0.3,0.6-0.6,0.5,0,1.4"/>
		<path class="st21" d="M395.8,157.7c-0.5-0.5-1.2-0.9-2-1.1"/>
		<path class="st21" d="M401.6,156.5c0,0-0.2,0.6,0.1,0.9"/>
		<path class="st21" d="M401.6,157.1c-0.5,0.1-0.9,0.3-1.2,0.6"/>
		<path class="st24" d="M400.2,159.1c-0.2,0.6-0.6,1.2-1.1,1.6"/>
		<path class="st24" d="M401.6,162.6c0.5,0.4,1.2,0.4,1.8,0.2"/>
		<path class="st24" d="M403.2,161.4c0,0-1.3-0.4-1.1,0.7"/>
		<path class="st24" d="M402.4,161.4c-0.7-0.5-1.4-0.9-2.2-1.2"/>
		<path class="st24" d="M406.4,155c0,0,0.7,0.3,0.5,0.8c-0.2,0.6-0.9,0.6-0.7,1.3"/>
		<path class="st21" d="M403.8,165c0,0-0.3,0.7,0,1.1c0.3,0.4,0,0.6,0,0.9"/>
		<path class="st21" d="M397.8,177.6c0,0-0.6,0.1-0.3,0.6c0.2,0.5,0.1,0.9-0.2,0.7"/>
		<rect x="339.2" y="135.6" class="st1" width="3.3" height="140.4"/>
		<circle class="st1" cx="340.9" cy="134.1" r="4.8"/>
	</g>
</g>
</svg>
