<?xml version="1.0" encoding="utf-8"?>
<!-- Generator: Adobe Illustrator 17.0.0, SVG Export Plug-In . SVG Version: 6.00 Build 0)  -->
<!DOCTYPE svg PUBLIC "-//W3C//DTD SVG 1.1//EN" "http://www.w3.org/Graphics/SVG/1.1/DTD/svg11.dtd">
<svg version="1.1" id="Layer_1" xmlns="http://www.w3.org/2000/svg" xmlns:xlink="http://www.w3.org/1999/xlink" x="0px" y="0px"
	 width="500px" height="500px" viewBox="0 0 500 500" enable-background="new 0 0 500 500" xml:space="preserve">
<g id="Layer_1_1_">
</g>
<g>
	<g>
		<g id="Layer_3">
			<defs>
				<circle id="SVGID_1_" cx="250.752" cy="250.752" r="250.752"/>
			</defs>
			<clipPath id="SVGID_2_">
				<use xlink:href="#SVGID_1_"  overflow="visible"/>
			</clipPath>
			<g clip-path="url(#SVGID_2_)">
				<g>
					<defs>
						<rect id="SVGID_3_" x="-424.373" y="-116.015" width="1196.69" height="678.134"/>
					</defs>
					<clipPath id="SVGID_4_">
						<use xlink:href="#SVGID_3_"  overflow="visible"/>
					</clipPath>
					<g clip-path="url(#SVGID_4_)">
						<rect x="-428.552" y="-115.747" fill="#B2B1D8" width="1207.289" height="482.146"/>
						<rect x="-420.629" y="-96.59" fill="none" width="1197.325" height="677.499"/>
						<rect x="-420.629" y="-96.59" fill="none" width="1197.325" height="677.499"/>
						<rect x="-423.738" y="-96.59" fill="none" width="1200.435" height="677.499"/>
						
							<linearGradient id="SVGID_5_" gradientUnits="userSpaceOnUse" x1="93.1926" y1="329.6784" x2="148.5666" y2="329.6784" gradientTransform="matrix(2.2523 0 0 -2.2523 -48.8523 968.5536)">
							<stop  offset="0" style="stop-color:#F3B07D"/>
							<stop  offset="0.1729" style="stop-color:#EEB085"/>
							<stop  offset="0.4337" style="stop-color:#DCAE99"/>
							<stop  offset="0.7482" style="stop-color:#C1AABB"/>
							<stop  offset="1" style="stop-color:#A6A5D2"/>
						</linearGradient>
						<path fill="url(#SVGID_5_)" d="M161.05,243.999l124.707,0.602c0,0-0.535-12.003-8.124-12.003c0,0,8.158-24.54-17.887-25.109
							c-26.045-0.568-22.768,10.899-22.768,10.899s-14.076-12.003-25.476-3.277c-11.401,8.726-6.52,14.176-6.52,14.176
							s-16.249-7.656-20.595-0.568c0,0-2.173,3.811,0,7.623C184.386,236.376,160.515,236.376,161.05,243.999z"/>
						
							<linearGradient id="SVGID_6_" gradientUnits="userSpaceOnUse" x1="228.3698" y1="334.2169" x2="228.6862" y2="316.817" gradientTransform="matrix(2.2523 0 0 -2.2523 -48.8523 968.5536)">
							<stop  offset="0" style="stop-color:#F3B07D"/>
							<stop  offset="0.1729" style="stop-color:#EEB085"/>
							<stop  offset="0.4337" style="stop-color:#DCAE99"/>
							<stop  offset="0.7482" style="stop-color:#C1AABB"/>
							<stop  offset="1" style="stop-color:#A6A5D2"/>
						</linearGradient>
						<path fill="url(#SVGID_6_)" d="M404.881,311.133l124.707,0.602c0,0-0.535-12.003-8.124-12.003c0,0,8.158-24.54-17.887-25.109
							c-26.045-0.568-22.768,10.899-22.768,10.899s-14.076-12.003-25.476-3.276c-11.401,8.726-6.52,14.176-6.52,14.176
							s-16.249-7.656-20.595-0.568c0,0-2.173,3.811,0,7.623C428.218,303.511,404.346,303.477,404.881,311.133z"/>
						
							<linearGradient id="SVGID_7_" gradientUnits="userSpaceOnUse" x1="169.1211" y1="354.9593" x2="169.1211" y2="318.531" gradientTransform="matrix(2.2523 0 0 -2.2523 -48.8523 968.5536)">
							<stop  offset="0" style="stop-color:#F3B07D"/>
							<stop  offset="1" style="stop-color:#A6A5D2"/>
						</linearGradient>
						<path fill="url(#SVGID_7_)" d="M217.987,250.284h229.488c0,0-2.508-38.281-43.664-33.868c0,0,18.088-40.789-24.306-37.011
							c-42.394,3.778-29.923,38.281-29.923,38.281s21.197-47.041-24.306-45.169c-45.503,1.872-28.686,47.041-28.686,47.041
							s-7.489-45.804-33.668-35.139c-26.179,10.665-23.704,41.391-6.854,42.026C256.035,226.446,208.024,220.796,217.987,250.284z"
							/>
						
							<linearGradient id="SVGID_8_" gradientUnits="userSpaceOnUse" x1="182.6091" y1="283.1944" x2="288.6248" y2="283.1944" gradientTransform="matrix(2.2523 0 0 -2.2523 -48.8523 968.5536)">
							<stop  offset="0" style="stop-color:#6498A7"/>
							<stop  offset="0.2288" style="stop-color:#92A099"/>
							<stop  offset="0.47" style="stop-color:#BDA88C"/>
							<stop  offset="0.6877" style="stop-color:#DCAD81"/>
							<stop  offset="0.8717" style="stop-color:#EFAF7B"/>
							<stop  offset="1" style="stop-color:#F5B079"/>
						</linearGradient>
						<path fill="url(#SVGID_8_)" d="M365.496,365.697l235.707-2.508c0,0-0.635-46.406-46.138-45.169
							c0,0-0.635-27.616-52.992-21.331c-52.357,6.286-41.157,25.109-41.157,25.109s-36.777-36.376-56.737-5.015
							c0,0-5.617,23.203,6.854,26.346C411,343.129,348.011,333.701,365.496,365.697z"/>
						
							<linearGradient id="SVGID_9_" gradientUnits="userSpaceOnUse" x1="-64.9193" y1="283.1944" x2="41.0922" y2="283.1944" gradientTransform="matrix(2.2523 0 0 -2.2523 -48.8523 968.5536)">
							<stop  offset="0" style="stop-color:#6498A7"/>
							<stop  offset="0.1268" style="stop-color:#6C98A5"/>
							<stop  offset="0.3181" style="stop-color:#809D9F"/>
							<stop  offset="0.5501" style="stop-color:#A1A294"/>
							<stop  offset="0.8118" style="stop-color:#D0AB86"/>
							<stop  offset="1" style="stop-color:#F5B079"/>
						</linearGradient>
						<path fill="url(#SVGID_9_)" d="M-192.009,365.697l235.707-2.508c0,0-0.635-46.406-46.138-45.169
							c0,0-0.635-27.616-52.992-21.331c-52.357,6.286-41.157,25.109-41.157,25.109s-36.777-36.376-56.737-5.015
							c0,0-5.617,23.203,6.854,26.346C-146.506,343.129-209.462,333.701-192.009,365.697z"/>
						<g>
							<g>
								<path fill="#F8DABB" d="M-115.045,313.273c0,0,2.875-7.121,11.234-7.121s11.234,7.121,11.234,7.121H-115.045z"/>
								<path fill="#F04B51" d="M-103.778,307.456c-6.219,0-11.167,3.778-11.167,10.03v46.205h22.501v-46.205
									C-92.444,311.2-97.559,307.456-103.778,307.456z"/>
								<rect x="-114.945" y="313.273" fill="#F04B51" width="22.501" height="4.213"/>
								<rect x="-112.772" y="313.273" fill="#F8DABB" width="17.987" height="3.544"/>
								<rect x="-115.246" y="317.452" fill="#F04B51" width="23.136" height="46.205"/>
								<rect x="-115.346" y="317.452" fill="#F8DABB" width="23.437" height="0.635"/>
								<rect x="-113.039" y="318.756" fill="#DE4752" width="18.623" height="42.661"/>
								<g>
									<rect x="-110.899" y="321.03" fill="#F8DABB" width="4.112" height="7.422"/>
									<rect x="-105.717" y="321.03" fill="#F8DABB" width="4.112" height="7.422"/>
									<rect x="-100.568" y="321.03" fill="#F8DABB" width="4.112" height="7.422"/>
									<rect x="-110.899" y="329.488" fill="#F8DABB" width="4.112" height="7.422"/>
									<rect x="-105.717" y="329.488" fill="#F8DABB" width="4.112" height="7.422"/>
									<rect x="-100.568" y="329.488" fill="#F8DABB" width="4.112" height="7.422"/>
									<rect x="-110.899" y="337.981" fill="#F8DABB" width="4.112" height="7.422"/>
									<rect x="-105.717" y="337.981" fill="#F8DABB" width="4.112" height="7.422"/>
									<rect x="-100.568" y="337.981" fill="#F8DABB" width="4.112" height="7.422"/>
									<rect x="-110.899" y="346.707" fill="#F8DABB" width="4.112" height="7.422"/>
									<rect x="-105.717" y="346.707" fill="#F8DABB" width="4.112" height="7.422"/>
									<rect x="-100.568" y="346.707" fill="#F8DABB" width="4.112" height="7.422"/>
								</g>
								<rect x="-113.039" y="318.756" fill="#C1282D" width="18.623" height="0.635"/>
							</g>
							<polygon fill="#E6AE88" points="-92.277,313.206 -113.942,362.721 -92.11,362.721 							"/>
						</g>
						<g>
							<g>
								<path fill="#F8DABB" d="M328.352,313.273c0,0,2.875-7.121,11.234-7.121s11.234,7.121,11.234,7.121H328.352z"/>
								<path fill="#F04B51" d="M339.585,307.456c-6.219,0-11.167,3.778-11.167,10.03v46.205h22.501v-46.205
									C350.919,311.2,345.804,307.456,339.585,307.456z"/>
								<rect x="328.419" y="313.273" fill="#F04B51" width="22.501" height="4.213"/>
								<rect x="330.592" y="313.273" fill="#F8DABB" width="17.987" height="3.544"/>
								<rect x="328.151" y="317.452" fill="#F04B51" width="23.136" height="46.205"/>
								<rect x="328.017" y="317.452" fill="#F8DABB" width="23.437" height="0.635"/>
								<rect x="330.324" y="318.756" fill="#DE4752" width="18.623" height="42.661"/>
								<g>
									<rect x="332.497" y="321.03" fill="#F8DABB" width="4.112" height="7.422"/>
									<rect x="337.646" y="321.03" fill="#F8DABB" width="4.112" height="7.422"/>
									<rect x="342.795" y="321.03" fill="#F8DABB" width="4.112" height="7.422"/>
									<rect x="332.497" y="329.488" fill="#F8DABB" width="4.112" height="7.422"/>
									<rect x="337.646" y="329.488" fill="#F8DABB" width="4.112" height="7.422"/>
									<rect x="342.795" y="329.488" fill="#F8DABB" width="4.112" height="7.422"/>
									<rect x="332.497" y="337.981" fill="#F8DABB" width="4.112" height="7.422"/>
									<rect x="337.646" y="337.981" fill="#F8DABB" width="4.112" height="7.422"/>
									<rect x="342.795" y="337.981" fill="#F8DABB" width="4.112" height="7.422"/>
									<rect x="332.497" y="346.707" fill="#F8DABB" width="4.112" height="7.422"/>
									<rect x="337.646" y="346.707" fill="#F8DABB" width="4.112" height="7.422"/>
									<rect x="342.795" y="346.707" fill="#F8DABB" width="4.112" height="7.422"/>
								</g>
								<rect x="330.324" y="318.756" fill="#C1282D" width="18.623" height="0.635"/>
							</g>
							<polygon fill="#E6AE88" points="351.12,313.206 329.422,362.721 351.254,362.721 							"/>
						</g>
						
							<linearGradient id="SVGID_10_" gradientUnits="userSpaceOnUse" x1="99.639" y1="164.8522" x2="99.639" y2="274.5426" gradientTransform="matrix(2.2523 0 0 -2.2523 -48.8523 968.5536)">
							<stop  offset="0" style="stop-color:#F3B07D"/>
							<stop  offset="1" style="stop-color:#A6A5D2"/>
						</linearGradient>
						<rect x="-423.103" y="365.162" fill="url(#SVGID_10_)" width="1197.325" height="231.127"/>
						<rect x="-451.789" y="361.384" fill="#6498A7" width="1236.61" height="5.617"/>
						<path opacity="0.62" fill="#FFFFFF" enable-background="new    " d="M151.354,110.866l124.707,0.535
							c0,0-0.535-12.003-8.124-12.003c0,0,8.124-24.54-17.887-25.109c-26.045-0.535-22.768,10.899-22.768,10.899
							s-14.109-12.003-25.476-3.276c-11.367,8.726-6.52,14.176-6.52,14.176s-16.282-7.623-20.595-0.535c0,0-2.173,3.811,0,7.623
							C174.657,103.243,150.819,103.243,151.354,110.866z"/>
						<path fill="#9797C6" d="M184.32,411.501h-23.27c0.134-0.401,0.167-0.802,0.167-1.271c0-2.441-1.939-4.38-4.38-4.38H79.572
							c-2.407,0-4.38,1.973-4.38,4.38s1.939,4.38,4.38,4.38h23.27c-0.134,0.401-0.167,0.802-0.167,1.271
							c0,0.669,0.167,1.304,0.435,1.872H52.123c-2.407,0-4.38,1.973-4.38,4.38s1.939,4.38,4.38,4.38h77.332
							c2.407,0,4.38-1.973,4.38-4.38c0-0.669-0.167-1.304-0.435-1.872h50.953c2.407,0,4.38-1.973,4.38-4.38
							C188.699,413.474,186.76,411.501,184.32,411.501z"/>
						<path fill="#9797C6" d="M170.913,493.848h-37.847c0.201-0.635,0.301-1.337,0.301-2.039c0-3.945-3.176-7.155-7.121-7.155H0.334
							c-3.912,0-7.121,3.21-7.121,7.155c0,3.945,3.176,7.155,7.121,7.155h37.88c-0.201,0.635-0.301,1.337-0.301,2.039
							c0,1.103,0.267,2.14,0.702,3.076h-82.949c-3.912,0-7.121,3.21-7.121,7.155c0,3.945,3.176,7.155,7.121,7.155H81.578
							c3.912,0,7.121-3.21,7.121-7.155c0-1.103-0.267-2.14-0.702-3.076h82.949c3.912,0,7.121-3.21,7.121-7.155
							C178.034,497.058,174.858,493.848,170.913,493.848z"/>
						<path fill="#9797C6" d="M465.898,462.487h-37.88c0.201-0.635,0.301-1.337,0.301-2.039c0-3.945-3.176-7.155-7.121-7.155
							H295.286c-3.912,0-7.121,3.21-7.121,7.155c0,3.945,3.176,7.155,7.121,7.155h37.88c-0.201,0.635-0.301,1.337-0.301,2.039
							c0,1.103,0.267,2.14,0.702,3.076h-82.949c-3.912,0-7.121,3.21-7.121,7.155c0,3.945,3.176,7.155,7.121,7.155H376.53
							c3.912,0,7.121-3.21,7.121-7.155c0-1.103-0.267-2.14-0.702-3.076h82.949c3.912,0,7.121-3.21,7.121-7.155
							C472.986,465.697,469.809,462.487,465.898,462.487z"/>
						<path fill="#9797C6" d="M316.449,410.866h-11.167c0-0.1,0-0.201,0-0.301c0-2.24-1.805-4.079-4.046-4.079H240.12
							c-2.24,0-4.045,1.839-4.045,4.079s1.805,4.079,4.045,4.079h18.388c0,0.033,0,0.067,0,0.1v0.435
							c0,0.736,0.201,1.404,0.535,1.973h-10.532c-1.705,0-3.109,1.404-3.109,3.109v1.906c0,1.739,1.404,3.109,3.109,3.109h34.336
							c1.705,0,3.109-1.404,3.109-3.109v-1.906c0-0.435-0.1-0.869-0.267-1.237h30.725c2.106,0,3.811-1.739,3.811-3.845v-0.468
							C320.294,412.604,318.556,410.866,316.449,410.866z"/>
						
							<linearGradient id="SVGID_11_" gradientUnits="userSpaceOnUse" x1="-32.8846" y1="383.5906" x2="-32.1692" y2="340.6691" gradientTransform="matrix(2.2523 0 0 -2.2523 -48.8523 968.5536)">
							<stop  offset="0" style="stop-color:#F3B07D"/>
							<stop  offset="0.1729" style="stop-color:#EEB085"/>
							<stop  offset="0.4337" style="stop-color:#DCAE99"/>
							<stop  offset="0.7482" style="stop-color:#C1AABB"/>
							<stop  offset="1" style="stop-color:#A6A5D2"/>
						</linearGradient>
						<path fill="url(#SVGID_11_)" d="M-233.4,192.678l225.109,1.27c0,0-13.708-23.838-49.883-28.853
							c0,0-3.109-35.139-48.011-35.741s-40.053,30.759-40.053,30.759s-9.228-13.842-33.534-10.064
							c-24.306,3.778-22.434,19.458-22.434,19.458S-242.126,179.505-233.4,192.678z"/>
						
							<linearGradient id="SVGID_12_" gradientUnits="userSpaceOnUse" x1="178.5827" y1="438.7146" x2="180.0124" y2="425.1329" gradientTransform="matrix(2.2523 0 0 -2.2523 -48.8523 968.5536)">
							<stop  offset="0" style="stop-color:#F3B07D"/>
							<stop  offset="0.1729" style="stop-color:#EEB085"/>
							<stop  offset="0.4337" style="stop-color:#DCAE99"/>
							<stop  offset="0.7482" style="stop-color:#C1AABB"/>
							<stop  offset="1" style="stop-color:#A6A5D2"/>
						</linearGradient>
						<path fill="url(#SVGID_12_)" d="M297.727,50.15l126.513,0.702c0,0-7.723-13.407-28.051-16.215c0,0-1.739-19.726-26.981-20.094
							c-25.242-0.368-22.501,17.285-22.501,17.285s-5.182-7.757-18.857-5.65c-13.674,2.106-12.604,10.933-12.604,10.933
							S292.812,42.762,297.727,50.15z"/>
						
							<linearGradient id="SVGID_13_" gradientUnits="userSpaceOnUse" x1="63.433" y1="425.3752" x2="64.8627" y2="411.7935" gradientTransform="matrix(2.2523 0 0 -2.2523 -48.8523 968.5536)">
							<stop  offset="0" style="stop-color:#F3B07D"/>
							<stop  offset="0.1729" style="stop-color:#EEB085"/>
							<stop  offset="0.4337" style="stop-color:#DCAE99"/>
							<stop  offset="0.7482" style="stop-color:#C1AABB"/>
							<stop  offset="1" style="stop-color:#A6A5D2"/>
						</linearGradient>
						<path fill="url(#SVGID_13_)" d="M38.382,80.207l126.513,0.702c0,0-7.723-13.407-28.051-16.215c0,0-1.739-19.726-26.981-20.094
							C84.62,44.233,87.362,61.886,87.362,61.886s-5.182-7.757-18.857-5.65c-13.674,2.106-12.604,10.933-12.604,10.933
							S33.467,72.818,38.382,80.207z"/>
						
							<linearGradient id="SVGID_14_" gradientUnits="userSpaceOnUse" x1="16.6746" y1="348.7305" x2="18.1043" y2="335.1488" gradientTransform="matrix(2.2523 0 0 -2.2523 -48.8523 968.5536)">
							<stop  offset="0" style="stop-color:#F3B07D"/>
							<stop  offset="0.1729" style="stop-color:#EEB085"/>
							<stop  offset="0.4337" style="stop-color:#DCAE99"/>
							<stop  offset="0.7482" style="stop-color:#C1AABB"/>
							<stop  offset="1" style="stop-color:#A6A5D2"/>
						</linearGradient>
						<path fill="url(#SVGID_14_)" d="M-66.934,252.825l126.513,0.702c0,0-7.723-13.407-28.051-16.215
							c0,0-1.739-19.726-26.981-20.094s-22.501,17.285-22.501,17.285s-5.182-7.757-18.857-5.65s-12.604,10.933-12.604,10.933
							S-71.815,245.436-66.934,252.825z"/>
						<path opacity="0.62" fill="#FFFFFF" enable-background="new    " d="M540.221,104.781h58.609c0,0-4.38-16.316-18.088-16.316
							c-13.708,0-11.835,7.523-11.835,7.523s3.109-15.68-12.471-15.045C540.856,81.578,533.367,92.879,540.221,104.781z"/>
						
							<linearGradient id="SVGID_15_" gradientUnits="userSpaceOnUse" x1="213.4201" y1="428.0807" x2="213.4201" y2="403.5277" gradientTransform="matrix(2.2523 0 0 -2.2523 -48.8523 968.5536)">
							<stop  offset="0" style="stop-color:#F3B07D"/>
							<stop  offset="0.1729" style="stop-color:#EEB085"/>
							<stop  offset="0.4337" style="stop-color:#DCAE99"/>
							<stop  offset="0.7482" style="stop-color:#C1AABB"/>
							<stop  offset="1" style="stop-color:#A6A5D2"/>
						</linearGradient>
						<path fill="url(#SVGID_15_)" d="M355.466,64.259l152.725,0.669c0,0-0.669-14.711-9.963-14.711c0,0,9.963-30.057-21.899-30.726
							c-31.862-0.669-27.884,13.373-27.884,13.373s-17.252-14.711-31.194-4.012c-13.942,10.699-7.957,17.352-7.957,17.352
							s-19.926-9.361-25.242-0.669c0,0-2.641,4.681,0,9.361C384.019,54.898,354.831,54.898,355.466,64.259z"/>
						<path opacity="0.71" fill="#FFFFFF" enable-background="new    " d="M342.06,121.097l52.992-0.635
							c0,0-6.854-15.68-18.088-13.173c0,0,1.872-5.015-6.252-5.015c-8.124,0-13.106,2.508-11.234,6.887c0,0-0.635-6.286-8.726-5.65
							S339.552,111.668,342.06,121.097z"/>
						<rect x="411.267" y="239.652" fill="#EAC28C" width="154.664" height="121.698"/>
						<rect x="411.267" y="239.017" fill="#6498A7" width="152.156" height="33.868"/>
						<rect x="443.698" y="218.322" fill="#EAC28C" width="51.12" height="142.394"/>
						<rect x="563.424" y="218.322" fill="#EAC28C" width="51.12" height="142.394"/>
						<g>
							<g>
								<g>
									<rect x="375.125" y="101.404" fill="#F9D395" width="21.932" height="10.197"/>
									<rect x="359.445" y="196.924" fill="#EAC28C" width="52.324" height="164.694"/>
									<rect x="359.813" y="137.479" fill="#F9D395" width="51.555" height="11.535"/>
									<polygon fill="#6498A7" points="411.367,137.479 359.813,137.479 375.092,111.301 396.958,111.301 									"/>
									<rect x="358.509" y="149.014" fill="#E6AE88" width="54.129" height="48.713"/>
									<ellipse fill="#FFF3E5" cx="385.59" cy="165.229" rx="15.112" ry="15.179"/>
									<path fill="#6498A7" d="M375.226,101.404h21.866c0,0-9.061-5.316-11.133-50.886
										C384.42,96.623,375.226,101.404,375.226,101.404z"/>
									<path fill="#FFF3E5" d="M369.977,231.494h-3.644v-29.622c0-1.003,0.802-1.805,1.805-1.805l0,0
										c1.003,0,1.805,0.802,1.805,1.805v29.622H369.977z"/>
									<rect x="372.584" y="206.887" fill="#FFF3E5" width="3.644" height="24.607"/>
									<rect x="378.837" y="206.887" fill="#FFF3E5" width="3.644" height="24.607"/>
									<rect x="389.234" y="206.887" fill="#FFF3E5" width="3.644" height="24.607"/>
									<rect x="395.486" y="206.887" fill="#FFF3E5" width="3.644" height="24.607"/>
									<path fill="#FFF3E5" d="M405.383,231.494h-3.644v-29.622c0-1.003,0.802-1.805,1.805-1.805l0,0
										c1.003,0,1.805,0.802,1.805,1.805v29.622H405.383z"/>
									<path fill="#FFF3E5" d="M369.977,268.673h-3.644v-29.589c0-1.003,0.802-1.805,1.805-1.805l0,0
										c1.003,0,1.805,0.802,1.805,1.805v29.589H369.977z"/>
									<rect x="372.584" y="244.066" fill="#FFF3E5" width="3.644" height="24.607"/>
									<rect x="378.837" y="244.066" fill="#FFF3E5" width="3.644" height="24.607"/>
									<rect x="389.234" y="244.066" fill="#FFF3E5" width="3.644" height="24.607"/>
									<rect x="395.486" y="244.066" fill="#FFF3E5" width="3.644" height="24.607"/>
									<path fill="#FFF3E5" d="M405.383,268.673h-3.644v-29.589c0-1.003,0.802-1.805,1.805-1.805l0,0
										c1.003,0,1.805,0.802,1.805,1.805v29.589H405.383z"/>
									<path fill="#FFF3E5" d="M369.977,305.851h-3.644v-29.589c0-1.003,0.802-1.805,1.805-1.805l0,0
										c1.003,0,1.805,0.802,1.805,1.805v29.589H369.977z"/>
									<rect x="372.584" y="281.244" fill="#FFF3E5" width="3.644" height="24.607"/>
									<rect x="378.837" y="281.244" fill="#FFF3E5" width="3.644" height="24.607"/>
									<rect x="389.234" y="281.244" fill="#FFF3E5" width="3.644" height="24.607"/>
									<rect x="395.486" y="281.244" fill="#FFF3E5" width="3.644" height="24.607"/>
									<path fill="#FFF3E5" d="M405.383,305.851h-3.644v-29.589c0-1.003,0.802-1.805,1.805-1.805l0,0
										c1.003,0,1.805,0.802,1.805,1.805v29.589H405.383z"/>
									<path fill="#FFF3E5" d="M369.977,343.029h-3.644V313.44c0-1.003,0.802-1.805,1.805-1.805l0,0
										c1.003,0,1.805,0.802,1.805,1.805v29.589H369.977z"/>
									<rect x="372.584" y="318.422" fill="#FFF3E5" width="3.644" height="24.607"/>
									<rect x="378.837" y="318.422" fill="#FFF3E5" width="3.644" height="24.607"/>
									<rect x="389.234" y="318.422" fill="#FFF3E5" width="3.644" height="24.607"/>
									<rect x="395.486" y="318.422" fill="#FFF3E5" width="3.644" height="24.607"/>
									<path fill="#FFF3E5" d="M405.383,343.029h-3.644V313.44c0-1.003,0.802-1.805,1.805-1.805l0,0
										c1.003,0,1.805,0.802,1.805,1.805v29.589H405.383z"/>
									<rect x="359.579" y="197.459" fill="#CB9D7D" width="52.056" height="2.608"/>
									<rect x="362.153" y="138.282" fill="#F3B07D" width="2.608" height="11"/>
									<rect x="368.405" y="138.282" fill="#F3B07D" width="2.608" height="11"/>
									<rect x="374.657" y="138.282" fill="#F3B07D" width="2.608" height="11"/>
									<rect x="380.909" y="138.282" fill="#F3B07D" width="2.608" height="11"/>
									<rect x="387.161" y="138.282" fill="#F3B07D" width="2.608" height="11"/>
									<rect x="393.414" y="138.282" fill="#F3B07D" width="2.608" height="11"/>
									<rect x="399.666" y="138.282" fill="#F3B07D" width="2.608" height="11"/>
									<rect x="405.884" y="138.282" fill="#F3B07D" width="2.608" height="11"/>
									<rect x="376.73" y="102.14" fill="#FFF3E5" width="1.036" height="6.82"/>
									<rect x="380.742" y="102.14" fill="#FFF3E5" width="1.036" height="6.82"/>
									<rect x="383.885" y="102.14" fill="#FFF3E5" width="1.036" height="6.82"/>
									<rect x="387.864" y="102.14" fill="#FFF3E5" width="1.036" height="6.82"/>
									<rect x="391.006" y="102.14" fill="#FFF3E5" width="1.036" height="6.82"/>
									<rect x="394.116" y="102.14" fill="#FFF3E5" width="1.036" height="6.82"/>
									<path fill="#F9C293" d="M385.59,166.031L385.59,166.031c-0.301,0-0.535-0.234-0.535-0.535v-14.142
										c0-0.301,0.234-0.535,0.535-0.535l0,0c0.301,0,0.535,0.234,0.535,0.535v14.142
										C386.125,165.797,385.891,166.031,385.59,166.031z"/>
									<path fill="#F9C293" d="M393.146,166.031h-7.289c-0.435,0-0.769-0.368-0.769-0.769l0,0c0-0.435,0.368-0.769,0.769-0.769
										h7.289c0.435,0,0.769,0.368,0.769,0.769l0,0C393.915,165.664,393.581,166.031,393.146,166.031z"/>
								</g>
								<rect x="360.013" y="137.245" fill="#F3B07D" width="51.02" height="0.869"/>
								<polygon fill="#FFF3E5" points="412.504,149.281 411.869,149.281 411.869,136.744 401.27,136.744 401.27,361.317 
									411.869,361.317 411.869,197.593 412.504,197.593 								"/>
							</g>
							<path fill="#FFF3E5" d="M411.869,136.744l-14.978-25.71v-9.395c0,0-9.963-10.03-11.234-50.819v60.548l15.58,25.376H411.869z"
								/>
						</g>
						<path fill="#EAC28C" d="M451.187,227.75h-7.489v-15.714c0-2.073,1.672-3.745,3.745-3.745l0,0c2.073,0,3.745,1.672,3.745,3.745
							L451.187,227.75L451.187,227.75z"/>
						<path fill="#EAC28C" d="M494.818,227.75h-7.489v-15.714c0-2.073,1.672-3.745,3.745-3.745l0,0c2.073,0,3.745,1.672,3.745,3.745
							L494.818,227.75L494.818,227.75z"/>
						<path fill="#EAC28C" d="M570.913,227.75h-7.489v-15.714c0-2.073,1.672-3.745,3.745-3.745l0,0c2.073,0,3.745,1.672,3.745,3.745
							L570.913,227.75L570.913,227.75z"/>
						<rect x="451.187" y="218.322" fill="#6498A7" width="36.175" height="16.951"/>
						<rect x="570.913" y="218.322" fill="#6498A7" width="36.175" height="16.951"/>
						<path fill="#FFF3E5" d="M475.995,274.156h-16.215v-16.984c0-4.48,3.644-8.091,8.091-8.091l0,0c4.48,0,8.091,3.644,8.091,8.091
							v16.984H475.995z"/>
						<path fill="#FFF3E5" d="M598.295,274.156H582.08v-16.984c0-4.48,3.644-8.091,8.091-8.091l0,0c4.48,0,8.091,3.644,8.091,8.091
							v16.984H598.295z"/>
						<g>
							<rect x="460.448" y="287.496" fill="#FFF3E5" width="3.644" height="24.607"/>
							<rect x="466.065" y="287.496" fill="#FFF3E5" width="3.644" height="24.607"/>
							<rect x="471.682" y="287.496" fill="#FFF3E5" width="3.644" height="24.607"/>
						</g>
						<g>
							<rect x="420.796" y="287.496" fill="#FFF3E5" width="3.644" height="24.607"/>
							<rect x="426.379" y="287.496" fill="#FFF3E5" width="3.644" height="24.607"/>
							<rect x="431.996" y="287.496" fill="#FFF3E5" width="3.644" height="24.607"/>
						</g>
						<g>
							<rect x="582.748" y="287.496" fill="#FFF3E5" width="3.644" height="24.607"/>
							<rect x="588.365" y="287.496" fill="#FFF3E5" width="3.644" height="24.607"/>
							<rect x="593.982" y="287.496" fill="#FFF3E5" width="3.644" height="24.607"/>
						</g>
						<g>
							<rect x="495.453" y="287.496" fill="#FFF3E5" width="3.644" height="24.607"/>
							<rect x="501.036" y="287.496" fill="#FFF3E5" width="3.644" height="24.607"/>
						</g>
						<g>
							<rect x="552.023" y="287.496" fill="#FFF3E5" width="3.644" height="24.607"/>
							<rect x="557.64" y="287.496" fill="#FFF3E5" width="3.644" height="24.607"/>
						</g>
						<g>
							<rect x="495.453" y="323.905" fill="#FFF3E5" width="3.644" height="24.607"/>
							<rect x="501.036" y="323.905" fill="#FFF3E5" width="3.644" height="24.607"/>
						</g>
						<g>
							<rect x="521.632" y="323.905" fill="#FFF3E5" width="3.644" height="24.607"/>
							<rect x="527.248" y="323.905" fill="#FFF3E5" width="3.644" height="24.607"/>
							<rect x="532.865" y="323.905" fill="#FFF3E5" width="3.644" height="24.607"/>
						</g>
						<g>
							<rect x="521.632" y="287.496" fill="#FFF3E5" width="3.644" height="24.607"/>
							<rect x="527.248" y="287.496" fill="#FFF3E5" width="3.644" height="24.607"/>
							<rect x="532.865" y="287.496" fill="#FFF3E5" width="3.644" height="24.607"/>
						</g>
						<g>
							<rect x="552.19" y="323.905" fill="#FFF3E5" width="3.644" height="24.607"/>
							<rect x="557.807" y="323.905" fill="#FFF3E5" width="3.644" height="24.607"/>
						</g>
						<g>
							<rect x="460.448" y="324.507" fill="#FFF3E5" width="3.644" height="24.607"/>
							<rect x="466.065" y="324.507" fill="#FFF3E5" width="3.644" height="24.607"/>
							<rect x="471.682" y="324.507" fill="#FFF3E5" width="3.644" height="24.607"/>
						</g>
						<g>
							<rect x="421.164" y="324.507" fill="#FFF3E5" width="3.644" height="24.607"/>
							<rect x="426.78" y="324.507" fill="#FFF3E5" width="3.644" height="24.607"/>
							<rect x="432.397" y="324.507" fill="#FFF3E5" width="3.644" height="24.607"/>
						</g>
						<g>
							<rect x="582.748" y="324.507" fill="#FFF3E5" width="3.644" height="24.607"/>
							<rect x="588.365" y="324.507" fill="#FFF3E5" width="3.644" height="24.607"/>
							<rect x="593.982" y="324.507" fill="#FFF3E5" width="3.644" height="24.607"/>
						</g>
						<polygon fill="#FFF3E5" points="494.784,272.183 494.784,360.716 565.931,360.716 						"/>
						<rect x="559.044" y="272.919" fill="#FFF3E5" width="4.38" height="89.702"/>
						<polygon fill="#FFF3E5" points="411.902,272.919 443.698,361.351 411.267,361.351 						"/>
						<rect x="441.825" y="272.919" fill="#FFF3E5" width="1.872" height="88.465"/>
						<g>
							<polygon fill="#F04B51" points="418.522,332.297 418.154,332.431 418.154,333.099 419.759,333.634 419.759,332.865 							
								"/>
							<polygon fill="#F04B51" points="421.03,332.297 421.364,332.431 421.364,333.099 419.759,333.634 419.759,332.865 							"/>
							<rect x="418.522" y="330.525" fill="#F9CE96" width="2.541" height="1.939"/>
							<ellipse fill="#F9CE96" cx="419.793" cy="327.783" rx="3.21" ry="3.343"/>
							<path fill="#010101" d="M419.793,328.92L419.793,328.92c-1.772,0-3.21-1.438-3.21-3.21v-4.413c0-1.772,1.438-3.21,3.21-3.21
								l0,0c1.772,0,3.21,1.438,3.21,3.21v4.413C423.002,327.482,421.565,328.92,419.793,328.92z"/>
							<path fill="#F04B51" d="M417.352,321.498c0,0-0.802,0.401-1.438,0.134c-0.635-0.267-0.936-1.103-0.936-1.103
								s0.802-0.401,1.438-0.134C417.051,320.662,417.352,321.498,417.352,321.498z"/>
							<path fill="#010101" d="M422.601,325.644v2.708c0,1.538-1.237,2.775-2.775,2.775h-0.167c-1.538,0-2.775-1.237-2.775-2.775
								v-2.708H422.601 M422.969,325.276h-0.368h-5.684h-0.368v0.368v2.708c0,1.739,1.404,3.143,3.143,3.143h0.167
								c1.739,0,3.143-1.404,3.143-3.143v-2.708v-0.368H422.969z"/>
							<polygon fill="#F9CE96" points="418.455,332.464 419.759,332.865 420.963,332.464 							"/>
							<polygon fill="#F04B51" points="418.154,333.066 414.042,334.37 416.349,342.762 416.349,349.382 419.759,349.382 
								419.759,333.567 							"/>
							<polygon fill="#F04B51" points="421.364,333.032 425.51,334.336 423.236,342.762 423.236,349.348 419.759,349.348 
								419.759,333.567 							"/>
							<path fill="#F04B51" d="M414.042,334.303l-0.769,0.201v13.708h2.14v-13.106C415.413,335.139,414.042,334.269,414.042,334.303
								z"/>
							<path fill="#F04B51" d="M425.51,334.303l0.769,0.201v13.708h-2.14v-13.106C424.106,335.139,425.51,334.269,425.51,334.303z"
								/>
							<rect x="413.273" y="347.509" fill="#010101" width="2.14" height="1.705"/>
							<rect x="424.106" y="347.509" fill="#010101" width="2.14" height="1.705"/>
							<path fill="#F9CE96" d="M413.273,349.214h2.14v0.201c0,0.602-0.468,1.07-1.07,1.07l0,0c-0.602,0-1.07-0.468-1.07-1.07
								L413.273,349.214L413.273,349.214z"/>
							<path fill="#F9CE96" d="M424.106,349.214h2.14v0.201c0,0.602-0.468,1.07-1.07,1.07l0,0c-0.602,0-1.07-0.468-1.07-1.07
								L424.106,349.214L424.106,349.214z"/>
							<polygon fill="#F8DABB" points="423.236,344.3 420.361,344.3 419.726,343.664 419.157,344.3 416.349,344.3 416.349,342.828 
								419.157,342.828 419.759,343.497 420.361,342.828 423.236,342.828 							"/>
							<rect x="416.349" y="347.844" fill="#010101" width="3.41" height="14.911"/>
							<rect x="419.759" y="347.844" fill="#010101" width="3.477" height="14.911"/>
							<path fill="#010101" d="M419.759,363.223h-3.176c-0.468,0-0.869-0.401-0.869-0.869l0,0c0-0.468,0.401-0.869,0.869-0.869
								h3.176V363.223z"/>
							<path fill="#010101" d="M419.726,363.223h3.176c0.468,0,0.869-0.401,0.869-0.869l0,0c0-0.468-0.401-0.869-0.869-0.869h-3.176
								V363.223z"/>
							<circle fill="#F9CE96" cx="420.194" cy="334.236" r="0.234"/>
							<circle fill="#F9CE96" cx="420.194" cy="334.704" r="0.234"/>
							<circle fill="#F9CE96" cx="420.194" cy="336.51" r="0.234"/>
							<circle fill="#F9CE96" cx="420.194" cy="336.978" r="0.234"/>
							<circle fill="#F9CE96" cx="420.194" cy="338.783" r="0.234"/>
							<circle fill="#F9CE96" cx="420.194" cy="339.251" r="0.234"/>
							<circle fill="#F9CE96" cx="420.194" cy="341.057" r="0.234"/>
							<circle fill="#F9CE96" cx="420.194" cy="341.525" r="0.234"/>
							<rect x="414.243" y="347.877" fill="#F9CE96" width="1.17" height="0.234"/>
							<rect x="414.243" y="348.211" fill="#F9CE96" width="1.17" height="0.234"/>
							<rect x="414.243" y="348.546" fill="#F9CE96" width="1.17" height="0.234"/>
							<rect x="424.106" y="347.877" fill="#F9CE96" width="1.17" height="0.234"/>
							<rect x="424.106" y="348.211" fill="#F9CE96" width="1.17" height="0.234"/>
							<rect x="424.106" y="348.546" fill="#F9CE96" width="1.17" height="0.234"/>
							<circle fill="#F9CE96" cx="419.759" cy="343.564" r="0.602"/>
							<rect x="418.89" y="342.828" fill="#F9CE96" width="0.267" height="1.438"/>
							<rect x="420.361" y="342.828" fill="#F9CE96" width="0.267" height="1.438"/>
						</g>
						<g>
							<polygon fill="#F04B51" points="401.036,332.297 400.702,332.431 400.702,333.099 402.307,333.634 402.307,332.865 							
								"/>
							<polygon fill="#F04B51" points="403.577,332.297 403.912,332.431 403.912,333.099 402.307,333.634 402.307,332.865 							
								"/>
							<rect x="401.036" y="330.525" fill="#F9CE96" width="2.541" height="1.939"/>
							<ellipse fill="#F9CE96" cx="402.307" cy="327.783" rx="3.21" ry="3.343"/>
							<path fill="#010101" d="M402.307,328.92L402.307,328.92c-1.772,0-3.21-1.438-3.21-3.21v-4.413c0-1.772,1.438-3.21,3.21-3.21
								l0,0c1.772,0,3.21,1.438,3.21,3.21v4.413C405.55,327.482,404.112,328.92,402.307,328.92z"/>
							<path fill="#F04B51" d="M399.9,321.498c0,0-0.802,0.401-1.438,0.134c-0.635-0.267-0.936-1.103-0.936-1.103
								s0.802-0.401,1.438-0.134C399.599,320.662,399.9,321.498,399.9,321.498z"/>
							<path fill="#010101" d="M405.149,325.644v2.708c0,1.538-1.237,2.775-2.775,2.775h-0.167c-1.538,0-2.775-1.237-2.775-2.775
								v-2.708H405.149 M405.517,325.276h-0.368h-5.684h-0.368v0.368v2.708c0,1.739,1.404,3.143,3.143,3.143h0.167
								c1.739,0,3.143-1.404,3.143-3.143v-2.708v-0.368H405.517z"/>
							<polygon fill="#F9CE96" points="400.97,332.464 402.307,332.865 403.511,332.464 							"/>
							<polygon fill="#F04B51" points="400.702,333.066 396.59,334.37 398.897,342.762 398.897,349.382 402.307,349.382 
								402.307,333.567 							"/>
							<polygon fill="#F04B51" points="403.912,333.032 408.024,334.336 405.784,342.762 405.784,349.348 402.307,349.348 
								402.307,333.567 							"/>
							<path fill="#F04B51" d="M396.59,334.303l-0.769,0.201v13.708h2.14v-13.106C397.961,335.139,396.59,334.269,396.59,334.303z"
								/>
							<path fill="#F04B51" d="M408.024,334.303l0.769,0.201v13.708h-2.14v-13.106C406.653,335.139,408.024,334.269,408.024,334.303
								z"/>
							<rect x="395.787" y="347.509" fill="#010101" width="2.14" height="1.705"/>
							<rect x="406.653" y="347.509" fill="#010101" width="2.14" height="1.705"/>
							<path fill="#F9CE96" d="M395.787,349.214h2.14v0.201c0,0.602-0.468,1.07-1.07,1.07l0,0c-0.602,0-1.07-0.468-1.07-1.07
								L395.787,349.214L395.787,349.214z"/>
							<path fill="#F9CE96" d="M406.653,349.214h2.14v0.201c0,0.602-0.468,1.07-1.07,1.07l0,0c-0.602,0-1.07-0.468-1.07-1.07
								L406.653,349.214L406.653,349.214z"/>
							<polygon fill="#F8DABB" points="405.784,344.3 402.909,344.3 402.24,343.664 401.705,344.3 398.897,344.3 398.897,342.828 
								401.705,342.828 402.307,343.497 402.909,342.828 405.784,342.828 							"/>
							<rect x="398.897" y="347.844" fill="#010101" width="3.41" height="14.911"/>
							<rect x="402.307" y="347.844" fill="#010101" width="3.477" height="14.911"/>
							<path fill="#010101" d="M402.307,363.223h-3.176c-0.468,0-0.869-0.401-0.869-0.869l0,0c0-0.468,0.401-0.869,0.869-0.869
								h3.176V363.223z"/>
							<path fill="#010101" d="M402.24,363.223h3.176c0.468,0,0.869-0.401,0.869-0.869l0,0c0-0.468-0.401-0.869-0.869-0.869h-3.176
								V363.223z"/>
							<circle fill="#F9CE96" cx="402.742" cy="334.236" r="0.234"/>
							<circle fill="#F9CE96" cx="402.742" cy="334.704" r="0.234"/>
							<circle fill="#F9CE96" cx="402.742" cy="336.51" r="0.234"/>
							<circle fill="#F9CE96" cx="402.742" cy="336.978" r="0.234"/>
							<circle fill="#F9CE96" cx="402.742" cy="338.783" r="0.234"/>
							<circle fill="#F9CE96" cx="402.742" cy="339.251" r="0.234"/>
							<circle fill="#F9CE96" cx="402.742" cy="341.057" r="0.234"/>
							<circle fill="#F9CE96" cx="402.742" cy="341.525" r="0.234"/>
							<rect x="396.79" y="347.877" fill="#F9CE96" width="1.17" height="0.234"/>
							<rect x="396.79" y="348.211" fill="#F9CE96" width="1.17" height="0.234"/>
							<rect x="396.79" y="348.546" fill="#F9CE96" width="1.17" height="0.234"/>
							<rect x="406.653" y="347.877" fill="#F9CE96" width="1.17" height="0.234"/>
							<rect x="406.653" y="348.211" fill="#F9CE96" width="1.17" height="0.234"/>
							<rect x="406.653" y="348.546" fill="#F9CE96" width="1.17" height="0.234"/>
							<circle fill="#F9CE96" cx="402.273" cy="343.564" r="0.602"/>
							<rect x="401.438" y="342.828" fill="#F9CE96" width="0.267" height="1.438"/>
							<rect x="402.909" y="342.828" fill="#F9CE96" width="0.267" height="1.438"/>
						</g>
						<g>
							<g>
								<path fill="#EAC28C" d="M173.253,361.986l-6.72,0.1l-50.786-148.613c-0.535-1.571,0.301-3.277,1.839-3.811l0,0
									c1.571-0.535,3.243,0.301,3.811,1.872L173.253,361.986z"/>
							</g>
							<g>
								<path fill="#FFF3E5" d="M118.556,299.231c-47.777,0-86.627-39.084-86.627-87.128s38.85-87.128,86.627-87.128
									s86.627,39.084,86.627,87.128S166.299,299.231,118.556,299.231z M118.556,126.479c-46.941,0-85.122,38.415-85.122,85.624
									s38.181,85.624,85.122,85.624s85.122-38.415,85.122-85.624S165.496,126.479,118.556,126.479z"/>
							</g>
							<g>
								<path fill="#FFF3E5" d="M118.422,292.544c-44.166,0-80.107-36.142-80.107-80.575s35.941-80.575,80.107-80.575
									s80.107,36.142,80.107,80.575S162.588,292.544,118.422,292.544z M118.422,132.899c-43.33,0-78.602,35.473-78.602,79.071
									s35.272,79.071,78.602,79.071s78.602-35.473,78.602-79.071C197.024,168.372,161.752,132.899,118.422,132.899z"/>
							</g>
							<g>
								<path fill="#FFF3E5" d="M118.422,285.256c-40.154,0-72.852-32.865-72.852-73.287s32.698-73.287,72.852-73.287
									s72.852,32.865,72.852,73.287S158.609,285.256,118.422,285.256z M118.422,140.187c-39.351,0-71.347,32.197-71.347,71.782
									s31.996,71.782,71.347,71.782s71.347-32.197,71.347-71.782S157.773,140.187,118.422,140.187z"/>
							</g>
							<g>
								<ellipse fill="#6498A7" cx="27.416" cy="211.969" rx="5.383" ry="4.547"/>
							</g>
							<g>
								
									<ellipse transform="matrix(-0.5128 -0.8585 0.8585 -0.5128 -161.4523 423.979)" fill="#6498A7" cx="39.576" cy="257.801" rx="4.514" ry="5.383"/>
							</g>
							<g>
								
									<ellipse transform="matrix(-0.5128 -0.8585 0.8585 -0.5128 -139.9229 503.4061)" fill="#6498A7" cx="72.878" cy="291.406" rx="4.514" ry="5.383"/>
							</g>
							<g>
								<ellipse fill="#6498A7" cx="118.422" cy="303.243" rx="5.383" ry="4.547"/>
							</g>
							<g>
								
									<ellipse transform="matrix(-0.9979 -0.0642 0.0642 -0.9979 308.9146 593.0277)" fill="#6498A7" cx="163.986" cy="291.55" rx="5.383" ry="4.547"/>
							</g>
							<g>
								<ellipse fill="#6498A7" cx="197.392" cy="258.041" rx="5.383" ry="4.547"/>
							</g>
							<g>
								<ellipse fill="#6498A7" cx="209.662" cy="212.203" rx="5.383" ry="4.547"/>
							</g>
							<g>
								<ellipse fill="#6498A7" cx="197.526" cy="166.366" rx="5.383" ry="4.547"/>
							</g>
							<g>
								
									<ellipse transform="matrix(-0.0819 -0.9966 0.9966 -0.0819 45.3799 307.2826)" fill="#6498A7" cx="164.223" cy="132.74" rx="4.547" ry="5.383"/>
							</g>
							<g>
								<ellipse fill="#6498A7" cx="118.689" cy="120.929" rx="5.383" ry="4.547"/>
							</g>
							<g>
								
									<ellipse transform="matrix(-0.9889 -0.1484 0.1484 -0.9889 125.5694 275.6728)" fill="#6498A7" cx="73.069" cy="133.152" rx="5.383" ry="4.547"/>
							</g>
							<g>
								
									<ellipse transform="matrix(-0.9957 -0.0928 0.0928 -0.9957 63.763 335.2494)" fill="#6498A7" cx="39.676" cy="166.142" rx="5.383" ry="4.547"/>
							</g>
							<g>
								<polygon fill="#FFF3E5" points="118.79,213.34 81.578,150.05 82.213,149.649 118.054,210.565 118.054,139.452 
									118.79,139.452 								"/>
							</g>
							<g>
								<polygon fill="#FFF3E5" points="119.86,212.337 46.339,212.337 46.339,211.601 116.984,211.601 54.764,176.998 
									55.132,176.362 								"/>
							</g>
							<g>
								<polygon fill="#FFF3E5" points="83.718,275.66 83.049,275.293 117.419,212.972 56.135,249.147 55.734,248.512 
									119.425,210.933 								"/>
							</g>
							<g>
								<polygon fill="#FFF3E5" points="118.79,284.487 118.054,284.487 118.054,210.665 157.472,272.551 156.837,272.952 
									118.79,213.24 								"/>
							</g>
							<g>
								<polygon fill="#FFF3E5" points="181.478,246.941 116.951,211.601 190.505,211.601 190.505,212.337 119.893,212.337 
									181.846,246.272 								"/>
							</g>
							<g>
								<polygon fill="#FFF3E5" points="117.352,213.039 154.631,149.281 155.266,149.682 119.492,210.899 180.007,174.791 
									180.374,175.426 								"/>
							</g>
							<g>
								<path fill="#FFF3E5" d="M63.49,361.986l6.687,0.1l50.752-148.646c0.535-1.571-0.301-3.277-1.839-3.811l0,0
									c-1.571-0.535-3.243,0.301-3.811,1.872L63.49,361.986z"/>
							</g>
						</g>
						<g>
							<polygon fill="#6498A7" points="142.795,379.739 142.394,377.566 197.793,366.767 253.193,377.131 252.792,379.305 
								197.793,369.007 							"/>
						</g>
						<g>
							<polygon fill="#6498A7" points="149.783,377.332 148.178,376.596 153.494,365.028 161.986,372.685 167.202,364.794 
								174.724,370.144 178.636,364.895 185.055,368.673 187.897,365.463 189.201,366.633 185.423,370.946 179.104,367.202 
								175.125,372.584 167.67,367.302 162.32,375.359 154.096,367.937 							"/>
						</g>
						<g>
							<path fill="#F04B51" d="M238.516,357.472h-81.377v-20.06c0-19.191-4.714-25.008,25.008-25.008h39.117
								c18.088,0,17.252,5.784,17.252,17.252V357.472z"/>
							<path fill="#F04B51" d="M238.148,357.472L238.148,357.472c-1.839,0-3.343-1.505-3.343-3.343v-8.292
								c0-1.839,1.505-3.343,3.343-3.343l0,0c1.839,0,3.343,1.505,3.343,3.343v8.292
								C241.491,355.968,239.987,357.472,238.148,357.472z"/>
							<rect x="228.051" y="329.689" fill="#FFF3E5" width="8.96" height="12.772"/>
							<rect x="218.355" y="329.689" fill="#FFF3E5" width="8.96" height="12.772"/>
							<rect x="207.155" y="337.947" fill="#FFF3E5" width="10.465" height="4.514"/>
							<rect x="195.954" y="337.947" fill="#FFF3E5" width="10.465" height="4.514"/>
							<rect x="184.754" y="337.947" fill="#FFF3E5" width="10.465" height="4.514"/>
							<rect x="173.587" y="337.947" fill="#FFF3E5" width="10.465" height="4.514"/>
							<path fill="#FFF3E5" d="M170.578,322.534h-11.936l0,0c0-2.909,2.34-5.249,5.249-5.249h6.687V322.534z"/>
							<rect x="172.083" y="317.285" fill="#FFF3E5" width="11.936" height="5.249"/>
							<rect x="185.523" y="317.285" fill="#FFF3E5" width="11.936" height="5.249"/>
							<rect x="198.964" y="317.285" fill="#FFF3E5" width="11.936" height="5.249"/>
							<rect x="212.404" y="317.285" fill="#FFF3E5" width="11.936" height="5.249"/>
							<path fill="#FFF3E5" d="M237.78,322.534h-11.936v-5.249h6.687C235.406,317.285,237.78,319.626,237.78,322.534L237.78,322.534
								z"/>
							<rect x="157.138" y="327.449" fill="#DE4752" width="81.344" height="1.505"/>
							<g>
								<ellipse fill="#DE4752" cx="228.419" cy="357.105" rx="4.848" ry="4.881"/>
								<path fill="#DE4752" d="M228.419,363.49c-3.511,0-6.352-2.875-6.352-6.386c0-3.511,2.842-6.386,6.352-6.386
									s6.352,2.875,6.352,6.386C234.771,360.615,231.929,363.49,228.419,363.49z M228.419,353.728
									c-1.839,0-3.343,1.504-3.343,3.377s1.505,3.377,3.343,3.377c1.839,0,3.343-1.504,3.343-3.377
									C231.795,355.232,230.291,353.728,228.419,353.728z"/>
							</g>
							<path fill="#DE4752" d="M237.747,357.472h-80.575v-3.745h84.353l0,0C241.491,355.801,239.819,357.472,237.747,357.472z"/>
							<g>
								<ellipse fill="#FFF3E5" cx="228.419" cy="357.84" rx="4.848" ry="4.881"/>
								<path fill="#6666AF" d="M228.419,363.892c-3.31,0-5.985-2.708-5.985-6.018c0-3.31,2.675-6.018,5.985-6.018
									s5.985,2.708,5.985,6.018C234.437,361.184,231.729,363.892,228.419,363.892z M228.419,354.129
									c-2.039,0-3.711,1.672-3.711,3.745s1.672,3.745,3.711,3.745s3.711-1.672,3.711-3.745
									C232.13,355.801,230.491,354.129,228.419,354.129z"/>
							</g>
							<g>
								<ellipse fill="#DE4752" cx="178.068" cy="356.737" rx="4.848" ry="4.881"/>
								<path fill="#DE4752" d="M178.068,363.089c-3.511,0-6.352-2.875-6.352-6.386c0-3.511,2.842-6.386,6.352-6.386
									s6.352,2.875,6.352,6.386C184.386,360.247,181.545,363.089,178.068,363.089z M178.068,353.327
									c-1.839,0-3.343,1.504-3.343,3.377s1.505,3.377,3.343,3.377c1.839,0,3.343-1.504,3.343-3.377
									C181.411,354.865,179.906,353.327,178.068,353.327z"/>
							</g>
							<g>
								<ellipse fill="#FFF3E5" cx="178.068" cy="357.606" rx="4.848" ry="4.881"/>
								<path fill="#6666AF" d="M178.068,363.624c-3.31,0-5.985-2.708-5.985-6.018c0-3.31,2.675-6.018,5.985-6.018
									s5.985,2.708,5.985,6.018C184.052,360.916,181.344,363.624,178.068,363.624z M178.068,353.862
									c-2.039,0-3.711,1.672-3.711,3.745s1.672,3.745,3.711,3.745c2.039,0,3.711-1.672,3.711-3.745
									C181.745,355.533,180.107,353.862,178.068,353.862z"/>
							</g>
						</g>
						<g>
							<polygon fill="#6498A7" points="246.038,377.399 241.825,368.271 233.4,375.426 228.285,367.603 220.896,372.885 
								216.884,367.503 210.532,371.214 206.653,366.767 208.325,365.329 211,368.405 217.452,364.594 221.364,369.843 
								228.887,364.493 233.868,372.15 242.628,364.694 248.044,376.496 							"/>
						</g>
						<g>
							<g>
								<g>
									<path fill="#6498A7" d="M-27.248,366.834l-1.17-3.343c0.201-0.067,21.23-7.422,47.476-21.732
										c24.139-13.173,57.773-35.105,80.843-64.794l2.775,2.173c-23.47,30.191-57.539,52.424-82.013,65.764
										C-5.784,359.311-27.048,366.767-27.248,366.834z"/>
								</g>
								<g>
									<rect x="86.894" y="292.177" fill="#6498A7" width="3.544" height="72.685"/>
								</g>
								<g>
									<rect x="71.949" y="305.884" fill="#6498A7" width="3.544" height="58.977"/>
								</g>
								<g>
									<rect x="57.004" y="317.82" fill="#6498A7" width="3.544" height="47.008"/>
								</g>
								<g>
									<rect x="42.059" y="327.984" fill="#6498A7" width="3.544" height="36.844"/>
								</g>
								<g>
									<rect x="27.081" y="336.844" fill="#6498A7" width="3.544" height="27.984"/>
								</g>
								<g>
									<rect x="12.136" y="345.269" fill="#6498A7" width="3.544" height="19.592"/>
								</g>
								<g>
									
										<rect x="-6.609" y="357.486" transform="matrix(-0.0043 1 -1 -0.0043 358.2245 361.8332)" fill="#6498A7" width="11.167" height="3.544"/>
								</g>
								<g>
									<path fill="#6498A7" d="M-4.38,367.268l-1.137-3.343c66.834-22.568,105.216-71.046,105.617-71.515l2.775,2.173
										c-0.401,0.502-9.896,12.604-27.917,27.683C58.342,336.209,31.093,355.299-4.38,367.268z"/>
								</g>
							</g>
							<g>
								<path fill="#6498A7" d="M258.542,283.818H138.783v-12.939h119.726v12.939H258.542z M142.427,280.174h112.471v-5.65H142.427
									V280.174z"/>
							</g>
							<g>
								<g>
									<path fill="#6498A7" d="M422.2,366.834c-0.201-0.067-21.464-7.489-47.944-21.932
										c-24.473-13.34-58.542-35.573-82.013-65.764l2.775-2.173c23.069,29.689,56.703,51.622,80.843,64.794
										c26.212,14.31,47.242,21.665,47.476,21.732L422.2,366.834z"/>
								</g>
								<g>
									<rect x="304.514" y="292.177" fill="#6498A7" width="3.544" height="72.685"/>
								</g>
								<g>
									<rect x="319.458" y="305.884" fill="#6498A7" width="3.544" height="58.977"/>
								</g>
								<g>
									<rect x="334.437" y="317.82" fill="#6498A7" width="3.544" height="47.008"/>
								</g>
								<g>
									<rect x="349.381" y="327.984" fill="#6498A7" width="3.544" height="36.844"/>
								</g>
								<g>
									<rect x="364.326" y="336.844" fill="#6498A7" width="3.544" height="27.984"/>
								</g>
								<g>
									<rect x="379.271" y="345.269" fill="#6498A7" width="3.544" height="19.592"/>
								</g>
								<g>
									
										<rect x="394.221" y="353.665" transform="matrix(-1 0.0042 -0.0042 -1 793.5077 716.8118)" fill="#6498A7" width="3.544" height="11.167"/>
								</g>
								<g>
									<path fill="#6498A7" d="M398.195,367.268c-35.473-11.969-62.721-31.093-79.338-45.002
										c-18.021-15.112-27.516-27.182-27.917-27.683l2.775-2.173c0.368,0.502,38.75,48.98,105.617,71.515L398.195,367.268z"/>
								</g>
							</g>
							<g>
								<polygon fill="#6498A7" points="232.23,283.149 223.303,274.156 215.346,282.146 207.088,273.855 198.295,282.681 
									188.967,273.487 179.137,282.949 169.743,273.487 160.381,282.882 151.688,274.156 143.43,282.447 142.16,281.21 
									151.688,271.648 160.381,280.408 169.743,270.98 179.171,280.475 189,271.013 198.295,280.174 207.088,271.347 
									215.346,279.639 223.303,271.648 232.163,280.575 240.455,271.381 247.877,279.873 254.33,273.387 255.6,274.657 
									247.81,282.481 240.421,274.022 								"/>
							</g>
							<g>
								<rect x="252.758" y="261.184" fill="#EAC28C" width="43.096" height="141.123"/>
							</g>
							<g>
								<rect x="100.167" y="261.184" fill="#EAC28C" width="43.096" height="141.558"/>
							</g>
							<g>
								<polygon fill="#6498A7" points="101.471,261.852 121.698,241.491 142.16,262.086 								"/>
							</g>
							<g>
								<polygon fill="#6498A7" points="254.53,261.852 274.758,241.491 295.186,262.086 								"/>
							</g>
							<g>
								<polygon fill="#F9D395" points="103.243,262.086 100.167,262.086 101.672,254.998 								"/>
							</g>
							<g>
								<polygon fill="#F9D395" points="143.263,262.086 140.187,262.086 141.692,254.998 								"/>
							</g>
							<g>
								<polygon fill="#F9D395" points="255.834,262.086 252.758,262.086 254.263,254.998 								"/>
							</g>
							<g>
								<polygon fill="#F9D395" points="295.854,262.086 292.778,262.086 294.283,254.998 								"/>
							</g>
							<g>
								<polygon fill="#FFF3E5" points="117.753,262.086 118.188,257.205 121.264,252.357 124.34,257.205 124.774,262.086 								
									"/>
							</g>
							<g>
								<polygon fill="#6498A7" points="193.815,273.153 194.283,268.271 197.359,263.39 200.435,268.271 200.869,273.153 								
									"/>
							</g>
							<g>
								<polygon fill="#FFF3E5" points="271.247,262.086 271.682,257.205 274.758,252.357 277.833,257.205 278.268,262.086 								
									"/>
							</g>
							<g>
								<g>
									<rect x="109.763" y="273.587" fill="#FFF3E5" width="1.872" height="8.86"/>
								</g>
								<g>
									<rect x="118.556" y="273.587" fill="#FFF3E5" width="1.872" height="8.86"/>
								</g>
								<g>
									<rect x="122.334" y="273.587" fill="#FFF3E5" width="1.872" height="8.86"/>
								</g>
								<g>
									<rect x="131.762" y="273.587" fill="#FFF3E5" width="1.872" height="8.86"/>
								</g>
							</g>
							<g>
								<g>
									<rect x="109.763" y="295.687" fill="#FFF3E5" width="1.872" height="8.86"/>
								</g>
								<g>
									<rect x="118.556" y="295.687" fill="#FFF3E5" width="1.872" height="8.86"/>
								</g>
								<g>
									<rect x="122.334" y="295.687" fill="#FFF3E5" width="1.872" height="8.86"/>
								</g>
								<g>
									<rect x="131.762" y="295.687" fill="#FFF3E5" width="1.872" height="8.86"/>
								</g>
							</g>
							<g>
								<g>
									<rect x="109.763" y="317.82" fill="#FFF3E5" width="1.872" height="8.86"/>
								</g>
								<g>
									<rect x="118.556" y="317.82" fill="#FFF3E5" width="1.872" height="8.86"/>
								</g>
								<g>
									<rect x="122.334" y="317.82" fill="#FFF3E5" width="1.872" height="8.86"/>
								</g>
								<g>
									<rect x="131.762" y="317.82" fill="#FFF3E5" width="1.872" height="8.86"/>
								</g>
							</g>
							<g>
								<g>
									<rect x="109.763" y="339.953" fill="#FFF3E5" width="1.872" height="8.86"/>
								</g>
								<g>
									<rect x="118.556" y="339.953" fill="#FFF3E5" width="1.872" height="8.86"/>
								</g>
								<g>
									<rect x="122.334" y="339.953" fill="#FFF3E5" width="1.872" height="8.86"/>
								</g>
								<g>
									<rect x="131.762" y="339.953" fill="#FFF3E5" width="1.872" height="8.86"/>
								</g>
							</g>
							<g>
								<g>
									<rect x="262.822" y="273.587" fill="#FFF3E5" width="1.872" height="8.86"/>
								</g>
								<g>
									<rect x="271.615" y="273.587" fill="#FFF3E5" width="1.872" height="8.86"/>
								</g>
								<g>
									<rect x="275.393" y="273.587" fill="#FFF3E5" width="1.872" height="8.86"/>
								</g>
								<g>
									<rect x="284.788" y="273.587" fill="#FFF3E5" width="1.872" height="8.86"/>
								</g>
							</g>
							<g>
								<g>
									<rect x="262.822" y="295.687" fill="#FFF3E5" width="1.872" height="8.86"/>
								</g>
								<g>
									<rect x="271.615" y="295.687" fill="#FFF3E5" width="1.872" height="8.86"/>
								</g>
								<g>
									<rect x="275.393" y="295.687" fill="#FFF3E5" width="1.872" height="8.86"/>
								</g>
								<g>
									<rect x="284.788" y="295.687" fill="#FFF3E5" width="1.872" height="8.86"/>
								</g>
							</g>
							<g>
								<g>
									<rect x="262.822" y="317.82" fill="#FFF3E5" width="1.872" height="8.86"/>
								</g>
								<g>
									<rect x="271.615" y="317.82" fill="#FFF3E5" width="1.872" height="8.86"/>
								</g>
								<g>
									<rect x="275.393" y="317.82" fill="#FFF3E5" width="1.872" height="8.86"/>
								</g>
								<g>
									<rect x="284.788" y="317.82" fill="#FFF3E5" width="1.872" height="8.86"/>
								</g>
							</g>
							<g>
								<g>
									<rect x="262.822" y="339.953" fill="#FFF3E5" width="1.872" height="8.86"/>
								</g>
								<g>
									<rect x="271.615" y="339.953" fill="#FFF3E5" width="1.872" height="8.86"/>
								</g>
								<g>
									<rect x="275.393" y="339.953" fill="#FFF3E5" width="1.872" height="8.86"/>
								</g>
								<g>
									<rect x="284.788" y="339.953" fill="#FFF3E5" width="1.872" height="8.86"/>
								</g>
							</g>
							<g>
								<rect x="100.167" y="261.652" fill="#E0A982" width="43.096" height="1.337"/>
							</g>
							<g>
								<rect x="252.758" y="261.652" fill="#E0A982" width="43.096" height="1.337"/>
							</g>
							<g>
								<rect x="100.167" y="284.721" fill="#E0A982" width="43.096" height="1.337"/>
							</g>
							<g>
								<rect x="252.758" y="284.721" fill="#E0A982" width="43.096" height="1.337"/>
							</g>
							<g>
								<rect x="100.167" y="306.419" fill="#E0A982" width="43.096" height="1.337"/>
							</g>
							<g>
								<rect x="252.758" y="306.419" fill="#E0A982" width="43.096" height="1.337"/>
							</g>
							<g>
								<rect x="100.167" y="328.084" fill="#E0A982" width="43.096" height="1.337"/>
							</g>
							<g>
								<rect x="252.758" y="328.084" fill="#E0A982" width="43.096" height="1.337"/>
							</g>
							<g>
								<rect x="100.167" y="366.031" fill="#E0A982" width="43.096" height="1.337"/>
							</g>
							<g>
								<rect x="252.758" y="366.031" fill="#E0A982" width="43.096" height="1.337"/>
							</g>
							<g>
								<rect x="108.96" y="266.5" fill="#FFF3E5" width="24.641" height="2.207"/>
							</g>
							<g>
								<rect x="108.96" y="291.274" fill="#FFF3E5" width="24.641" height="2.207"/>
							</g>
							<g>
								<rect x="108.96" y="313.407" fill="#FFF3E5" width="24.641" height="2.207"/>
							</g>
							<g>
								<rect x="108.96" y="335.975" fill="#FFF3E5" width="24.641" height="2.207"/>
							</g>
							<g>
								<rect x="261.551" y="266.5" fill="#FFF3E5" width="24.641" height="2.207"/>
							</g>
							<g>
								<rect x="261.551" y="291.274" fill="#FFF3E5" width="24.641" height="2.207"/>
							</g>
							<g>
								<rect x="261.551" y="313.407" fill="#FFF3E5" width="24.641" height="2.207"/>
							</g>
							<g>
								<rect x="261.551" y="335.975" fill="#FFF3E5" width="24.641" height="2.207"/>
							</g>
							<g>
								<path fill="#EAC28C" d="M149.181,409.194H95.085v-19.559c0-12.404,10.064-22.467,22.467-22.467h9.161
									c12.404,0,22.467,10.063,22.467,22.467V409.194z"/>
							</g>
							<g>
								<path fill="#EAC28C" d="M300.702,409.395h-54.096v-17.586c0-13.507,10.933-24.44,24.44-24.44h5.216
									c13.507,0,24.44,10.933,24.44,24.44V409.395z"/>
							</g>
							<g>
								<path fill="#FBEBDE" d="M149.281,408.024v-36.543c0-2.34-1.872-4.213-4.213-4.213h-1.839l-0.033-0.869V262.855h-3.042
									l-0.033-0.736l-0.301,0.736h-1.505v3.878L98.93,367.001v42.427h50.518L149.281,408.024z"/>
							</g>
							<g>
								<path fill="#FBEBDE" d="M301.471,408.024v-36.543c0-2.34-1.872-4.213-4.213-4.213h-1.839l-0.033-0.869V262.855h-3.042
									l-0.033-0.736l-0.301,0.736h-1.505v3.878L251.12,367.001v42.427h50.518L301.471,408.024z"/>
							</g>
							<g>
								<polygon fill="#FFF3E5" points="121.431,241.424 138.315,262.855 143.129,262.889 								"/>
							</g>
							<g>
								<polygon fill="#FFF3E5" points="274.223,241.424 291.107,262.855 295.921,262.889 								"/>
							</g>
						</g>
					</g>
				</g>
			</g>
		</g>
		<g id="Layer_2" display="none">
		</g>
	</g>
</g>
</svg>
