<?xml version="1.0" encoding="utf-8"?>
<!-- Generator: Adobe Illustrator 17.0.0, SVG Export Plug-In . SVG Version: 6.00 Build 0)  -->
<!DOCTYPE svg PUBLIC "-//W3C//DTD SVG 1.1//EN" "http://www.w3.org/Graphics/SVG/1.1/DTD/svg11.dtd">
<svg version="1.1" id="Layer_1" xmlns="http://www.w3.org/2000/svg" xmlns:xlink="http://www.w3.org/1999/xlink" x="0px" y="0px"
	 width="500px" height="500px" viewBox="0 0 500 500" enable-background="new 0 0 500 500" xml:space="preserve">
<g id="Layer_1_1_">
</g>
<g id="Layer_2">
	<g>
		<g>
			<g>
				<defs>
					<ellipse id="SVGID_1_" cx="250" cy="250.461" rx="250" ry="250.461"/>
				</defs>
				<clipPath id="SVGID_2_">
					<use xlink:href="#SVGID_1_"  overflow="visible"/>
				</clipPath>
				<g clip-path="url(#SVGID_2_)">
					<g>
						
							<linearGradient id="SVGID_3_" gradientUnits="userSpaceOnUse" x1="3.3389" y1="-21.7898" x2="3.3389" y2="-194.6921" gradientTransform="matrix(3.825 0 0 3.825 170.7625 452.1176)">
							<stop  offset="4.101825e-007" style="stop-color:#9DCA7E"/>
							<stop  offset="0.2434" style="stop-color:#C8D593"/>
							<stop  offset="0.4934" style="stop-color:#F0DFA7"/>
							<stop  offset="0.6237" style="stop-color:#FFE3AF"/>
						</linearGradient>
						<rect x="-330.132" y="-38.871" fill="url(#SVGID_3_)" width="1027.332" height="328.604"/>
					</g>
					
						<linearGradient id="SVGID_4_" gradientUnits="userSpaceOnUse" x1="3.3389" y1="38.9736" x2="3.3389" y2="-29.7015" gradientTransform="matrix(3.825 0 0 3.825 170.7625 452.1176)">
						<stop  offset="4.102398e-007" style="stop-color:#B5D66B"/>
						<stop  offset="1" style="stop-color:#67A3B9"/>
					</linearGradient>
					<rect x="-330.132" y="277.41" fill="url(#SVGID_4_)" width="1027.332" height="262.682"/>
					<g>
						
							<linearGradient id="SVGID_5_" gradientUnits="userSpaceOnUse" x1="-39.7806" y1="-69.431" x2="-39.7806" y2="-123.601" gradientTransform="matrix(3.825 0 0 3.825 170.7625 452.1176)">
							<stop  offset="4.101825e-007" style="stop-color:#9DCA7E"/>
							<stop  offset="0.2182" style="stop-color:#C8D185"/>
							<stop  offset="0.4424" style="stop-color:#F0D98E"/>
							<stop  offset="0.5591" style="stop-color:#FFDC92"/>
							<stop  offset="0.716" style="stop-color:#FEE298"/>
							<stop  offset="0.9504" style="stop-color:#FEF4AE"/>
							<stop  offset="1" style="stop-color:#FDF7B4"/>
						</linearGradient>
						<path fill="url(#SVGID_5_)" d="M127.267,119.319c0-19.87-16.1-35.966-35.934-35.966c-7.033,0-13.566,2.037-19.1,5.51
							c-1.7-0.735-3.533-1.169-5.499-1.236c-1.9-12.155-12.4-21.439-25.067-21.439c-3.633,0-7.101,0.768-10.233,2.17
							c-3.434-9.985-12.866-17.165-24-17.165c-12.133,0-22.3,8.549-24.767,19.97c-3.134-1.402-6.566-2.204-10.233-2.204
							c-7,0-13.3,2.905-17.833,7.548c-1.667-1.269-3.766-2.037-6-2.037c-5.499,0-9.933,4.442-9.933,9.951c0,0.133,0,0.233,0,0.367
							c-16.167,1.836-28.733,15.562-28.733,32.259c0,0.902,0.034,1.77,0.1,2.638c-0.034,0.034-0.067,0.067-0.1,0.1h0.133h64.534
							h80.833h71.834C127.267,119.653,127.267,119.486,127.267,119.319C127.267,119.353,127.267,119.319,127.267,119.319z"/>
					</g>
					<path fill="#FFFFFF" d="M191.066,184.907c0-11.688-9.466-21.139-21.134-21.139c-4.134,0-7.999,1.202-11.233,3.239
						c-1-0.434-2.1-0.701-3.233-0.701c-1.133-7.146-7.3-12.623-14.733-12.623c-2.133,0-4.167,0.468-6.034,1.269
						c-2-5.878-4.333-11.12-12.6-13.191c-10-2.505-17.133,4.675-18.6,11.387c-1.833-0.835-1.367,2.17-3.5,2.17
						c-4.1,0-7.834,1.703-10.5,4.442c-0.966-0.735-2.2-1.202-3.533-1.202c-3.233,0-5.833,2.604-5.833,5.844c0,0.067,0,0.133,0,0.201
						c-9.5,1.069-16.9,9.151-16.9,18.968c0,0.534,0.034,1.035,0.067,1.569c-0.034,0.034-0.034,0.034-0.067,0.067h0.067h37.967
						h47.534h42.234C191.066,185.107,191.066,185.041,191.066,184.907C191.066,184.94,191.066,184.94,191.066,184.907z"/>
					<path fill="#FFFFFF" d="M10.7,99.45c0-4.876-3.967-8.816-8.834-8.816c-1.733,0-3.333,0.501-4.7,1.37
						c-0.4-0.167-0.867-0.301-1.367-0.301c-0.433-3.006-3.001-5.31-6.1-5.31c-0.9,0-1.733,0.201-2.5,0.534
						c-0.833-2.437-1.8-4.641-5.267-5.51c-4.2-1.035-7.167,1.937-7.767,4.742c-0.767-0.334-0.567,0.902-1.467,0.902
						c-1.733,0-3.267,0.701-4.366,1.836c-0.4-0.301-0.934-0.501-1.467-0.501c-1.333,0-2.433,1.101-2.433,2.437
						c0,0.034,0,0.067,0,0.1c-3.967,0.434-7.067,3.841-7.067,7.914c0,0.233,0,0.434,0.034,0.635l-0.034,0.034h0.034h15.867h19.866
						h17.634C10.7,99.55,10.7,99.484,10.7,99.45L10.7,99.45z"/>
					<path fill="#FFFFFF" d="M418.433,213.493c0-4.876-3.967-8.816-8.834-8.816c-1.733,0-3.333,0.501-4.7,1.37
						c-0.4-0.167-0.867-0.301-1.367-0.301c-0.467-2.972-3.033-5.276-6.167-5.276c-0.9,0-1.733,0.201-2.5,0.534
						c-0.833-2.437-1.8-4.641-5.267-5.51c-4.2-1.035-7.167,1.937-7.767,4.742c-0.767-0.334-0.566,0.902-1.467,0.902
						c-1.733,0-3.267,0.701-4.366,1.836c-0.4-0.301-0.934-0.501-1.467-0.501c-1.333,0-2.433,1.101-2.433,2.437
						c0,0.034,0,0.067,0,0.1c-3.967,0.434-7.067,3.841-7.067,7.914c0,0.233,0,0.434,0.034,0.635l-0.034,0.034h0.034h15.867h19.866
						h17.634C418.433,213.593,418.433,213.527,418.433,213.493L418.433,213.493z"/>
					
						<linearGradient id="SVGID_6_" gradientUnits="userSpaceOnUse" x1="33.0644" y1="-16.8997" x2="33.0644" y2="-49.2733" gradientTransform="matrix(3.825 0 0 3.825 170.7625 452.1176)">
						<stop  offset="4.102398e-007" style="stop-color:#B5D66B"/>
						<stop  offset="1" style="stop-color:#67A3B9"/>
					</linearGradient>
					<path fill="url(#SVGID_6_)" d="M354.5,322.894h-68.499c-2.5,0-4.533,2.037-4.533,4.542c0,2.505,2.033,4.542,4.533,4.542
						h-47.367c-1.767,0-3.2,1.436-3.2,3.206v2.137c0,1.77,1.433,3.206,3.2,3.206h78.134c1.767,0,3.2-1.436,3.2-3.206v-2.137
						c0-1.77-1.433-3.206-3.2-3.206H354.5c2.5,0,4.533-2.037,4.533-4.542C359.033,324.931,357,322.894,354.5,322.894z"/>
					
						<linearGradient id="SVGID_7_" gradientUnits="userSpaceOnUse" x1="33.5829" y1="6.2833" x2="33.5829" y2="-9.1327" gradientTransform="matrix(3.825 0 0 3.825 170.7625 452.1176)">
						<stop  offset="4.102398e-007" style="stop-color:#B5D66B"/>
						<stop  offset="1" style="stop-color:#67A3B9"/>
					</linearGradient>
					<path fill="url(#SVGID_7_)" d="M273.8,459.812h50.833c2.2,0,4-1.804,4-4.008l0,0c0-2.204-1.8-4.008-4-4.008H273.8
						c-2.2,0-4,1.804-4,4.008l0,0C269.8,458.009,271.6,459.812,273.8,459.812z"/>
					
						<linearGradient id="SVGID_8_" gradientUnits="userSpaceOnUse" x1="-20.025" y1="5.0569" x2="-20.025" y2="-8.1168" gradientTransform="matrix(3.825 0 0 3.825 170.7625 452.1176)">
						<stop  offset="4.102398e-007" style="stop-color:#B5D66B"/>
						<stop  offset="1" style="stop-color:#67A3B9"/>
					</linearGradient>
					<path fill="url(#SVGID_8_)" d="M115.033,454.302H73.3c-2.367,0-4.267-1.937-4.267-4.275l0,0c0-2.371,1.934-4.275,4.267-4.275
						h41.733c2.367,0,4.267,1.937,4.267,4.275l0,0C119.334,452.364,117.4,454.302,115.033,454.302z"/>
					
						<linearGradient id="SVGID_9_" gradientUnits="userSpaceOnUse" x1="24.3449" y1="12.3795" x2="24.3449" y2="-14.8086" gradientTransform="matrix(3.825 0 0 3.825 170.7625 452.1176)">
						<stop  offset="4.102398e-007" style="stop-color:#B5D66B"/>
						<stop  offset="1" style="stop-color:#67A3B9"/>
					</linearGradient>
					<path fill="url(#SVGID_9_)" d="M311.766,468.661h-65.267c-2.2,0-4,1.804-4,4.008s1.8,4.008,4,4.008h-30.234
						c-2.367,0-4.267,1.937-4.267,4.275c0,2.371,1.934,4.275,4.267,4.275h52.433c2.367,0,4.267-1.937,4.267-4.275
						c0-2.371-1.934-4.275-4.267-4.275h43.067c2.2,0,4-1.804,4-4.008C315.766,470.465,313.966,468.661,311.766,468.661z"/>
					
						<linearGradient id="SVGID_10_" gradientUnits="userSpaceOnUse" x1="-44.7789" y1="-18.4874" x2="-44.7789" y2="-37.4421" gradientTransform="matrix(3.825 0 0 3.825 170.7625 452.1176)">
						<stop  offset="4.102398e-007" style="stop-color:#B5D66B"/>
						<stop  offset="1" style="stop-color:#67A3B9"/>
					</linearGradient>
					<path fill="url(#SVGID_10_)" d="M-30.3,353.35h59.566c3.533,0,6.4-2.805,6.4-6.278l0,0c0-3.44-2.9-6.278-6.4-6.278H-30.3
						c-3.533,0-6.4,2.805-6.4,6.278l0,0C-36.699,350.544-33.833,353.35-30.3,353.35z"/>
					
						<linearGradient id="SVGID_11_" gradientUnits="userSpaceOnUse" x1="35.762" y1="-39.0699" x2="35.762" y2="-103.5793" gradientTransform="matrix(3.825 0 0 3.825 170.7625 452.1176)">
						<stop  offset="4.101825e-007" style="stop-color:#9DCA7E"/>
						<stop  offset="0.2182" style="stop-color:#C8D185"/>
						<stop  offset="0.4424" style="stop-color:#F0D98E"/>
						<stop  offset="0.5591" style="stop-color:#FFDC92"/>
						<stop  offset="0.716" style="stop-color:#FEE298"/>
						<stop  offset="0.9504" style="stop-color:#FEF4AE"/>
						<stop  offset="1" style="stop-color:#FDF7B4"/>
					</linearGradient>
					<path fill="url(#SVGID_11_)" d="M184.466,278.011c0,0-1.534-18.867,17.867-18.867c0,0-6.667-27.45,17.767-28.052
						c0,0-6.667-16.03,6.1-17.732s11.666,6.278,11.666,6.278s-1.667-35.465,34.433-45.216c36.1-9.752,46.634,30.891,43.299,38.905
						c0,0,11.1-21.74,28.3-11.454c17.2,10.286,13.333,28.619,12.2,29.187c-1.101,0.568,10-8.014,15,0c0,0,4.434,5.71,0,12.59
						c0,0,13.866-12.022,25.534-4.575c11.666,7.447,12.2,22.875,12.2,22.875s8.866-7.447,18.866,1.135c0,0,2.967,4.508,2.967,14.794
						L184.466,278.011z"/>
					
						<linearGradient id="SVGID_12_" gradientUnits="userSpaceOnUse" x1="47.3615" y1="-82.4337" x2="77.2038" y2="-82.4337" gradientTransform="matrix(3.825 0 0 3.825 170.7625 452.1176)">
						<stop  offset="4.101825e-007" style="stop-color:#9DCA7E"/>
						<stop  offset="0.2614" style="stop-color:#9FCA7C"/>
						<stop  offset="0.4516" style="stop-color:#A8CB7B"/>
						<stop  offset="0.6194" style="stop-color:#B8CB77"/>
						<stop  offset="0.774" style="stop-color:#CECD73"/>
						<stop  offset="0.9184" style="stop-color:#ECCE6E"/>
						<stop  offset="1" style="stop-color:#FFD06B"/>
					</linearGradient>
					<path fill="url(#SVGID_12_)" d="M351.933,161.063c0,0-0.7-8.716,8.267-8.716c0,0-3.067-12.691,8.2-12.957
						c0,0-3.067-7.413,2.834-8.181c5.9-0.802,5.366,2.905,5.366,2.905s-0.767-16.364,15.899-20.872
						c16.666-4.475,21.533,14.26,19.999,17.967c0,0,5.133-10.051,13.067-5.276s6.167,13.224,5.634,13.458
						c-0.5,0.267,4.6-3.707,6.934,0c0,0,2.067,2.638,0,5.81c0,0,6.4-5.543,11.799-2.104c5.4,3.44,5.634,10.553,5.634,10.553
						s4.1-3.44,8.7,0.534c0,0,1.8,1.569,1.8,6.345L351.933,161.063z"/>
					<g>
						
							<linearGradient id="SVGID_13_" gradientUnits="userSpaceOnUse" x1="47.073" y1="-62.2296" x2="47.073" y2="-102.1397" gradientTransform="matrix(3.825 0 0 3.825 170.7625 452.1176)">
							<stop  offset="4.101825e-007" style="stop-color:#9DCA7E"/>
							<stop  offset="0.2182" style="stop-color:#C8D185"/>
							<stop  offset="0.4424" style="stop-color:#F0D98E"/>
							<stop  offset="0.5591" style="stop-color:#FFDC92"/>
							<stop  offset="0.716" style="stop-color:#FEE298"/>
							<stop  offset="0.9504" style="stop-color:#FEF4AE"/>
							<stop  offset="1" style="stop-color:#FDF7B4"/>
						</linearGradient>
						<path fill="url(#SVGID_13_)" d="M427,161.698c0-13.925-11.267-25.213-25.166-25.213c-4.933,0-9.533,1.402-13.401,3.874
							c-1.167-0.534-2.5-0.835-3.867-0.868c-1.333-8.516-8.7-15.028-17.566-15.028c-2.566,0-4.967,0.534-7.167,1.503
							c-2.4-7.013-5.167-13.258-15.033-15.729c-11.934-3.006-20.4,5.577-22.167,13.559c-2.2-1.002-1.633,2.571-4.167,2.571
							c-4.901,0-9.333,2.037-12.5,5.276c-1.167-0.902-2.633-1.436-4.2-1.436c-3.834,0-6.966,3.14-6.966,6.979c0,0.1,0,0.167,0,0.267
							c-11.334,1.269-20.166,10.921-20.166,22.608c0,0.635,0.034,1.236,0.067,1.87c-0.034,0.034-0.067,0.067-0.067,0.067h0.067
							h45.267h56.666H427C427,161.931,427,161.798,427,161.698L427,161.698z"/>
					</g>
					<g>
						<g>
							<rect x="-58.799" y="172.885" fill="#B58D76" width="128.433" height="105.059"/>
						</g>
						<g>
							<polygon fill="#525C53" points="-47.533,127.301 -61.999,172.885 71.768,172.885 59.5,126.767 							"/>
						</g>
						<g>
							<g>
								<rect x="-37.399" y="182.536" fill="#E8E8D6" width="14.766" height="21.84"/>
								<path fill="#C87378" d="M-23.433,183.337v20.203H-36.6v-20.203H-23.433 M-21.833,181.734H-38.2v23.443h16.366V181.734
									L-21.833,181.734z"/>
							</g>
							<g>
								<rect x="-38.2" y="196.729" fill="#E8E8D6" width="16.366" height="1.402"/>
								<polygon fill="#C87378" points="-21.833,196.729 -38.2,196.729 -38.2,198.132 -21.833,198.132 								"/>
							</g>
							<g>
								<rect x="-38.2" y="188.747" fill="#E8E8D6" width="16.366" height="1.402"/>
								<polygon fill="#C87378" points="-21.833,188.747 -38.2,188.747 -38.2,190.15 -21.833,190.15 								"/>
							</g>
						</g>
						<g>
							<g>
								<rect x="-2.3" y="182.536" fill="#E8E8D6" width="14.766" height="21.84"/>
								<path fill="#C87378" d="M11.667,183.337v20.203H-1.499v-20.203H11.667 M13.267,181.734H-3.099v23.443h16.366V181.734
									L13.267,181.734z"/>
							</g>
							<g>
								<rect x="-3.099" y="196.729" fill="#E8E8D6" width="16.366" height="1.402"/>
								<polygon fill="#C87378" points="13.267,196.729 -3.099,196.729 -3.099,198.132 13.267,198.132 								"/>
							</g>
							<g>
								<rect x="4.368" y="181.734" fill="#E8E8D6" width="1.399" height="23.443"/>
								<polygon fill="#C87378" points="5.767,181.734 4.368,181.734 4.368,205.144 5.767,205.144 								"/>
							</g>
							<g>
								<rect x="-3.099" y="188.747" fill="#E8E8D6" width="16.366" height="1.402"/>
								<polygon fill="#C87378" points="13.267,188.747 -3.099,188.747 -3.099,190.15 13.267,190.15 								"/>
							</g>
						</g>
						<g>
							<g>
								<rect x="32.767" y="182.536" fill="#E8E8D6" width="14.766" height="21.84"/>
								<path fill="#C87378" d="M46.733,183.337v20.203H33.567v-20.203H46.733 M48.334,181.734H31.967v23.443h16.366v-23.443H48.334
									z"/>
							</g>
							<g>
								<rect x="31.967" y="196.729" fill="#E8E8D6" width="16.366" height="1.402"/>
								<polygon fill="#C87378" points="48.334,196.729 31.967,196.729 31.967,198.132 48.334,198.132 								"/>
							</g>
							<g>
								<rect x="39.467" y="181.734" fill="#E8E8D6" width="1.399" height="23.443"/>
								<polygon fill="#C87378" points="40.867,181.734 39.467,181.734 39.467,205.144 40.867,205.144 								"/>
							</g>
							<g>
								<rect x="31.967" y="188.747" fill="#E8E8D6" width="16.366" height="1.402"/>
								<polygon fill="#C87378" points="48.334,188.747 31.967,188.747 31.967,190.15 48.334,190.15 								"/>
							</g>
						</g>
						<g>
							<g>
								<rect x="-37.166" y="216.498" fill="#E8E8D6" width="14.766" height="21.84"/>
								<path fill="#C87378" d="M-23.199,217.3v20.203h-13.166V217.3H-23.199 M-21.599,215.697h-16.366v23.443h16.366V215.697
									L-21.599,215.697z"/>
							</g>
							<g>
								<rect x="-37.966" y="230.691" fill="#E8E8D6" width="16.366" height="1.402"/>
								<polygon fill="#C87378" points="-21.599,230.691 -37.966,230.691 -37.966,232.093 -21.599,232.093 								"/>
							</g>
							<g>
								<rect x="-37.966" y="222.743" fill="#E8E8D6" width="16.366" height="1.402"/>
								<polygon fill="#C87378" points="-21.599,222.743 -37.966,222.743 -37.966,224.145 -21.599,224.145 								"/>
							</g>
						</g>
						<g>
							<g>
								<rect x="-2.6" y="216.498" fill="#E8E8D6" width="14.766" height="21.84"/>
								<path fill="#C87378" d="M11.367,217.3v20.203H-1.799V217.3H11.367 M12.967,215.697h-16.4v23.443h16.366v-23.443H12.967z"/>
							</g>
							<g>
								<rect x="-3.433" y="230.691" fill="#E8E8D6" width="16.366" height="1.402"/>
								<polygon fill="#C87378" points="12.967,230.691 -3.433,230.691 -3.433,232.093 12.967,232.093 								"/>
							</g>
							<g>
								<rect x="4.068" y="215.697" fill="#E8E8D6" width="1.399" height="23.443"/>
								<polygon fill="#C87378" points="5.467,215.697 4.068,215.697 4.068,239.14 5.467,239.14 								"/>
							</g>
							<g>
								<rect x="-3.433" y="222.743" fill="#E8E8D6" width="16.366" height="1.402"/>
								<polygon fill="#C87378" points="12.967,222.743 -3.433,222.743 -3.433,224.145 12.967,224.145 								"/>
							</g>
						</g>
						<g>
							<g>
								<rect x="32.467" y="216.498" fill="#E8E8D6" width="14.766" height="21.84"/>
								<path fill="#C87378" d="M46.433,217.3v20.203H33.267V217.3H46.433 M48.034,215.697H31.667v23.443h16.366v-23.443H48.034z"/>
							</g>
							<g>
								<rect x="31.667" y="230.691" fill="#E8E8D6" width="16.366" height="1.402"/>
								<polygon fill="#C87378" points="48.034,230.691 31.667,230.691 31.667,232.093 48.034,232.093 								"/>
							</g>
							<g>
								<rect x="39.167" y="215.697" fill="#E8E8D6" width="1.399" height="23.443"/>
								<polygon fill="#C87378" points="40.568,215.697 39.167,215.697 39.167,239.14 40.568,239.14 								"/>
							</g>
							<g>
								<rect x="31.667" y="222.743" fill="#E8E8D6" width="16.366" height="1.402"/>
								<polygon fill="#C87378" points="48.034,222.743 31.667,222.743 31.667,224.145 48.034,224.145 								"/>
							</g>
						</g>
						<g>
							<g>
								<rect x="-36.932" y="250.494" fill="#E8E8D6" width="14.766" height="21.84"/>
								<path fill="#C87378" d="M-22.966,251.295v20.203h-13.166v-20.203H-22.966 M-21.366,249.692h-16.366v23.443h16.366V249.692
									L-21.366,249.692z"/>
							</g>
							<g>
								<rect x="-37.733" y="264.687" fill="#E8E8D6" width="16.366" height="1.402"/>
								<polygon fill="#C87378" points="-21.366,264.687 -37.733,264.687 -37.733,266.09 -21.366,266.09 								"/>
							</g>
							<g>
								<rect x="-37.733" y="256.705" fill="#E8E8D6" width="16.366" height="1.402"/>
								<polygon fill="#C87378" points="-21.366,256.705 -37.733,256.705 -37.733,258.108 -21.366,258.108 								"/>
							</g>
						</g>
						<g>
							<g>
								<rect x="32.7" y="250.494" fill="#E8E8D6" width="14.766" height="21.84"/>
								<path fill="#C87378" d="M46.667,251.295v20.203H33.501v-20.203H46.667 M48.267,249.692H31.901v23.443h16.366V249.692
									L48.267,249.692z"/>
							</g>
							<g>
								<rect x="31.901" y="264.687" fill="#E8E8D6" width="16.366" height="1.402"/>
								<polygon fill="#C87378" points="48.267,264.687 31.901,264.687 31.901,266.09 48.267,266.09 								"/>
							</g>
							<g>
								<rect x="39.4" y="249.692" fill="#E8E8D6" width="1.399" height="23.443"/>
								<polygon fill="#C87378" points="40.801,249.692 39.4,249.692 39.4,273.136 40.801,273.136 								"/>
							</g>
							<g>
								<rect x="31.901" y="256.705" fill="#E8E8D6" width="16.366" height="1.402"/>
								<polygon fill="#C87378" points="48.267,256.705 31.901,256.705 31.901,258.108 48.267,258.108 								"/>
							</g>
						</g>
						<path fill="#525C53" d="M16.368,277.678H-5.567V260.78c0-6.078,4.901-10.987,10.966-10.987l0,0
							c6.067,0,10.966,4.91,10.966,10.987v16.898H16.368z"/>
						<polygon opacity="0.18" fill="#6972B6" enable-background="new    " points="-32.866,127.235 -17.433,172.885 -5.567,172.885 
							25.468,277.945 69.334,277.945 69.6,172.885 71.5,172.617 59.7,126.5 						"/>
						<g>
							<polygon fill="#FEEA99" points="106,136.952 69.6,190.017 69.6,277.945 140.233,277.945 140.233,190.017 							"/>
						</g>
						<g>
							<g>
								<rect x="83.301" y="193.991" fill="#E8E8D6" width="14.766" height="21.84"/>
								<path fill="#C87378" d="M97.268,194.791v20.203H84.101v-20.203H97.268 M98.867,193.189H82.501v23.443h16.366V193.189
									L98.867,193.189z"/>
							</g>
							<g>
								<rect x="82.5" y="208.183" fill="#E8E8D6" width="16.366" height="1.402"/>
								<polygon fill="#C87378" points="98.867,208.183 82.5,208.183 82.5,209.586 98.867,209.586 								"/>
							</g>
							<g>
								<rect x="90" y="193.189" fill="#E8E8D6" width="1.399" height="23.443"/>
								<polygon fill="#C87378" points="91.401,193.189 90,193.189 90,216.631 91.401,216.631 								"/>
							</g>
							<g>
								<rect x="82.5" y="200.235" fill="#E8E8D6" width="16.366" height="1.402"/>
								<polygon fill="#C87378" points="98.867,200.235 82.5,200.235 82.5,201.638 98.867,201.638 								"/>
							</g>
						</g>
						<g>
							<g>
								<rect x="112.201" y="193.991" fill="#E8E8D6" width="14.766" height="21.84"/>
								<path fill="#C87378" d="M126.167,194.791v20.203H113v-20.203H126.167 M127.767,193.189H111.4v23.443h16.366V193.189
									L127.767,193.189z"/>
							</g>
							<g>
								<rect x="111.4" y="208.183" fill="#E8E8D6" width="16.366" height="1.402"/>
								<polygon fill="#C87378" points="127.767,208.183 111.4,208.183 111.4,209.586 127.767,209.586 								"/>
							</g>
							<g>
								<rect x="118.867" y="193.189" fill="#E8E8D6" width="1.399" height="23.443"/>
								<polygon fill="#C87378" points="120.3,193.189 118.867,193.189 118.867,216.631 120.3,216.631 								"/>
							</g>
							<g>
								<rect x="111.4" y="200.235" fill="#E8E8D6" width="16.366" height="1.402"/>
								<polygon fill="#C87378" points="127.767,200.235 111.4,200.235 111.4,201.638 127.767,201.638 								"/>
							</g>
						</g>
						<g>
							<g>
								<rect x="83.301" y="226.15" fill="#E8E8D6" width="14.766" height="21.84"/>
								<path fill="#C87378" d="M97.268,226.951v20.203H84.101v-20.203H97.268 M98.867,225.348H82.501v23.443h16.366V225.348
									L98.867,225.348z"/>
							</g>
							<g>
								<rect x="82.5" y="240.342" fill="#E8E8D6" width="16.366" height="1.402"/>
								<polygon fill="#C87378" points="98.867,240.342 82.5,240.342 82.5,241.744 98.867,241.744 								"/>
							</g>
							<g>
								<rect x="90" y="225.348" fill="#E8E8D6" width="1.399" height="23.443"/>
								<polygon fill="#C87378" points="91.401,225.348 90,225.348 90,248.79 91.401,248.79 								"/>
							</g>
							<g>
								<rect x="82.5" y="232.394" fill="#E8E8D6" width="16.366" height="1.402"/>
								<polygon fill="#C87378" points="98.867,232.394 82.5,232.394 82.5,233.797 98.867,233.797 								"/>
							</g>
						</g>
						<g>
							<g>
								<rect x="112.201" y="226.15" fill="#E8E8D6" width="14.766" height="21.84"/>
								<path fill="#C87378" d="M126.167,226.951v20.203H113v-20.203H126.167 M127.767,225.348H111.4v23.443h16.366V225.348
									L127.767,225.348z"/>
							</g>
							<g>
								<rect x="111.4" y="240.342" fill="#E8E8D6" width="16.366" height="1.402"/>
								<polygon fill="#C87378" points="127.767,240.342 111.4,240.342 111.4,241.744 127.767,241.744 								"/>
							</g>
							<g>
								<rect x="118.867" y="225.348" fill="#E8E8D6" width="1.399" height="23.443"/>
								<polygon fill="#C87378" points="120.3,225.348 118.867,225.348 118.867,248.79 120.3,248.79 								"/>
							</g>
							<g>
								<rect x="111.4" y="232.394" fill="#E8E8D6" width="16.366" height="1.402"/>
								<polygon fill="#C87378" points="127.767,232.394 111.4,232.394 111.4,233.797 127.767,233.797 								"/>
							</g>
						</g>
						
							<polyline fill="none" stroke="#C87378" stroke-width="1.2842" stroke-linecap="round" stroke-linejoin="round" stroke-miterlimit="10" points="
							141.833,190.017 106,134.815 68,190.017 						"/>
						<polygon opacity="0.18" fill="#6972B6" enable-background="new    " points="86.467,167.375 111.333,277.41 140.233,277.41 
							140.233,191.118 106.134,138.823 						"/>
					</g>
					
						<rect x="114.234" y="172.083" fill="#E8E8D6" stroke="#C87378" stroke-width="0.4816" stroke-miterlimit="10" width="8.033" height="12.856"/>
					<g>
						<g>
							<rect x="313.266" y="164.637" fill="#FBCECF" width="137.767" height="112.707"/>
						</g>
						<g>
							<rect x="451" y="183.036" fill="#C87378" width="75.767" height="94.306"/>
						</g>
						<g>
							<polygon fill="#C87378" points="325.367,115.747 309.8,164.637 453.299,164.637 440.166,115.179 							"/>
						</g>
						<g>
							<polygon fill="#C87378" points="490.033,126.099 451,183.036 526.766,183.036 							"/>
						</g>
						<g opacity="0.81">
							<g>
								<rect x="336.167" y="174.922" fill="#E8E8D6" width="15.967" height="23.544"/>
								<path fill="#525C53" d="M351.3,175.723v21.941h-14.367v-21.941H351.3 M352.933,174.12h-17.566v25.147h17.566V174.12
									L352.933,174.12z"/>
							</g>
							<g>
								<rect x="335.366" y="190.216" fill="#E8E8D6" width="17.566" height="1.503"/>
								<polygon fill="#525C53" points="352.933,190.216 335.366,190.216 335.366,191.719 352.933,191.719 								"/>
							</g>
							<g>
								<rect x="343.367" y="174.12" fill="#E8E8D6" width="1.5" height="25.147"/>
								<polygon fill="#525C53" points="344.9,174.12 343.367,174.12 343.367,199.267 344.9,199.267 								"/>
							</g>
							<g>
								<rect x="335.366" y="181.668" fill="#E8E8D6" width="17.566" height="1.503"/>
								<polygon fill="#525C53" points="352.933,181.668 335.366,181.668 335.366,183.17 352.933,183.17 								"/>
							</g>
						</g>
						<g opacity="0.81">
							<g>
								<rect x="373.8" y="174.922" fill="#E8E8D6" width="15.967" height="23.544"/>
								<path fill="#525C53" d="M388.966,175.723v21.941h-14.367v-21.941H388.966 M390.567,174.12h-17.568v25.147h17.566V174.12
									H390.567z"/>
							</g>
							<g>
								<rect x="372.999" y="190.216" fill="#E8E8D6" width="17.566" height="1.503"/>
								<polygon fill="#525C53" points="390.567,190.216 372.999,190.216 372.999,191.719 390.567,191.719 								"/>
							</g>
							<g>
								<rect x="381.034" y="174.12" fill="#E8E8D6" width="1.5" height="25.147"/>
								<polygon fill="#525C53" points="382.533,174.12 381.034,174.12 381.034,199.267 382.533,199.267 								"/>
							</g>
							<g>
								<rect x="372.999" y="181.668" fill="#E8E8D6" width="17.566" height="1.503"/>
								<polygon fill="#525C53" points="390.567,181.668 372.999,181.668 372.999,183.17 390.567,183.17 								"/>
							</g>
						</g>
						<g opacity="0.81">
							<g>
								<rect x="411.433" y="174.922" fill="#E8E8D6" width="15.967" height="23.544"/>
								<path fill="#525C53" d="M426.6,175.723v21.941h-14.367v-21.941H426.6 M428.2,174.12h-17.566v25.147H428.2V174.12
									L428.2,174.12z"/>
							</g>
							<g>
								<rect x="410.634" y="190.216" fill="#E8E8D6" width="17.566" height="1.503"/>
								<polygon fill="#525C53" points="428.2,190.216 410.634,190.216 410.634,191.719 428.2,191.719 								"/>
							</g>
							<g>
								<rect x="418.667" y="174.12" fill="#E8E8D6" width="1.5" height="25.147"/>
								<polygon fill="#525C53" points="420.167,174.12 418.667,174.12 418.667,199.267 420.167,199.267 								"/>
							</g>
							<g>
								<rect x="410.634" y="181.668" fill="#E8E8D6" width="17.566" height="1.503"/>
								<polygon fill="#525C53" points="428.2,181.668 410.634,181.668 410.634,183.17 428.2,183.17 								"/>
							</g>
						</g>
						<g opacity="0.81">
							<g>
								<rect x="336.4" y="211.389" fill="#E8E8D6" width="15.967" height="23.544"/>
								<path fill="#525C53" d="M351.567,212.191v21.941H337.2v-21.941H351.567 M353.167,210.588H335.6v25.147h17.566V210.588
									L353.167,210.588z"/>
							</g>
							<g>
								<rect x="335.6" y="226.65" fill="#E8E8D6" width="17.566" height="1.503"/>
								<polygon fill="#525C53" points="353.167,226.65 335.6,226.65 335.6,228.187 353.167,228.187 								"/>
							</g>
							<g>
								<rect x="343.633" y="210.588" fill="#E8E8D6" width="1.5" height="25.147"/>
								<polygon fill="#525C53" points="345.134,210.588 343.633,210.588 343.633,235.701 345.134,235.701 								"/>
							</g>
							<g>
								<rect x="335.6" y="218.134" fill="#E8E8D6" width="17.566" height="1.503"/>
								<polygon fill="#525C53" points="353.167,218.134 335.6,218.134 335.6,219.637 353.167,219.637 								"/>
							</g>
						</g>
						<g opacity="0.74">
							<g>
								<rect x="373.466" y="211.389" fill="#E8E8D6" width="15.967" height="23.544"/>
								<path fill="#525C53" d="M388.633,212.191v21.941h-14.367v-21.941H388.633 M390.233,210.588h-17.566v25.147h17.566V210.588
									L390.233,210.588z"/>
							</g>
							<g>
								<rect x="372.667" y="226.65" fill="#E8E8D6" width="17.566" height="1.503"/>
								<polygon fill="#525C53" points="390.233,226.65 372.667,226.65 372.667,228.187 390.233,228.187 								"/>
							</g>
							<g>
								<rect x="380.7" y="210.588" fill="#E8E8D6" width="1.5" height="25.147"/>
								<polygon fill="#525C53" points="382.2,210.588 380.7,210.588 380.7,235.701 382.2,235.701 								"/>
							</g>
							<g>
								<rect x="372.667" y="218.134" fill="#E8E8D6" width="17.566" height="1.503"/>
								<polygon fill="#525C53" points="390.233,218.134 372.667,218.134 372.667,219.637 390.233,219.637 								"/>
							</g>
						</g>
						<g opacity="0.81">
							<g>
								<rect x="411.099" y="211.389" fill="#E8E8D6" width="15.967" height="23.544"/>
								<path fill="#525C53" d="M426.266,212.191v21.941H411.9v-21.941H426.266 M427.866,210.588H410.3v25.147h17.566V210.588
									L427.866,210.588z"/>
							</g>
							<g>
								<rect x="410.3" y="226.65" fill="#E8E8D6" width="17.566" height="1.503"/>
								<polygon fill="#525C53" points="427.866,226.65 410.3,226.65 410.3,228.187 427.866,228.187 								"/>
							</g>
							<g>
								<rect x="418.333" y="210.588" fill="#E8E8D6" width="1.5" height="25.147"/>
								<polygon fill="#525C53" points="419.833,210.588 418.333,210.588 418.333,235.701 419.833,235.701 								"/>
							</g>
							<g>
								<rect x="410.3" y="218.134" fill="#E8E8D6" width="17.566" height="1.503"/>
								<polygon fill="#525C53" points="427.866,218.134 410.3,218.134 410.3,219.637 427.866,219.637 								"/>
							</g>
						</g>
						<g>
							<g>
								<rect x="465.633" y="187.245" fill="#E8E8D6" width="15.967" height="23.544"/>
								<path fill="#525C53" d="M480.8,188.046v21.941h-14.367v-21.941H480.8 M482.4,186.409h-17.566v25.147H482.4V186.409
									L482.4,186.409z"/>
							</g>
							<g>
								<rect x="464.833" y="202.506" fill="#E8E8D6" width="17.566" height="1.503"/>
								<polygon fill="#525C53" points="482.4,202.506 464.833,202.506 464.833,204.008 482.4,204.008 								"/>
							</g>
							<g>
								<rect x="472.866" y="186.409" fill="#E8E8D6" width="1.5" height="25.147"/>
								<polygon fill="#525C53" points="474.367,186.409 472.866,186.409 472.866,211.556 474.367,211.556 								"/>
							</g>
							<g>
								<rect x="464.833" y="193.957" fill="#E8E8D6" width="17.566" height="1.503"/>
								<polygon fill="#525C53" points="482.4,193.957 464.833,193.957 464.833,195.46 482.4,195.46 								"/>
							</g>
						</g>
						<g>
							<g>
								<rect x="496.633" y="187.245" fill="#E8E8D6" width="15.967" height="23.544"/>
								<path fill="#525C53" d="M511.799,188.046v21.941h-14.367v-21.941H511.799 M513.399,186.409h-17.567v25.147h17.567V186.409
									L513.399,186.409z"/>
							</g>
							<g>
								<rect x="495.833" y="202.506" fill="#E8E8D6" width="17.567" height="1.503"/>
								<polygon fill="#525C53" points="513.399,202.506 495.833,202.506 495.833,204.008 513.399,204.008 								"/>
							</g>
							<g>
								<rect x="503.866" y="186.409" fill="#E8E8D6" width="1.5" height="25.147"/>
								<polygon fill="#525C53" points="505.366,186.409 503.866,186.409 503.866,211.556 505.366,211.556 								"/>
							</g>
							<g>
								<rect x="495.833" y="193.957" fill="#E8E8D6" width="17.567" height="1.503"/>
								<polygon fill="#525C53" points="513.399,193.957 495.833,193.957 495.833,195.46 513.399,195.46 								"/>
							</g>
						</g>
						<g>
							<g>
								<rect x="465.633" y="221.742" fill="#E8E8D6" width="15.967" height="23.51"/>
								<path fill="#525C53" d="M480.8,222.542v21.941h-14.367v-21.941H480.8 M482.4,220.94h-17.566v25.147H482.4V220.94
									L482.4,220.94z"/>
							</g>
							<g>
								<rect x="464.833" y="237.003" fill="#E8E8D6" width="17.566" height="1.503"/>
								<polygon fill="#525C53" points="482.4,237.003 464.833,237.003 464.833,238.538 482.4,238.538 								"/>
							</g>
							<g>
								<rect x="472.866" y="220.94" fill="#E8E8D6" width="1.5" height="25.147"/>
								<polygon fill="#525C53" points="474.367,220.94 472.866,220.94 472.866,246.053 474.367,246.053 								"/>
							</g>
							<g>
								<rect x="464.833" y="228.454" fill="#E8E8D6" width="17.566" height="1.503"/>
								<polygon fill="#525C53" points="482.4,228.454 464.833,228.454 464.833,229.989 482.4,229.989 								"/>
							</g>
						</g>
						<g>
							<g>
								<rect x="496.633" y="221.742" fill="#E8E8D6" width="15.967" height="23.51"/>
								<path fill="#525C53" d="M511.799,222.542v21.941h-14.367v-21.941H511.799 M513.399,220.94h-17.567v25.147h17.567V220.94
									L513.399,220.94z"/>
							</g>
							<g>
								<rect x="495.833" y="237.003" fill="#E8E8D6" width="17.567" height="1.503"/>
								<polygon fill="#525C53" points="513.399,237.003 495.833,237.003 495.833,238.538 513.399,238.538 								"/>
							</g>
							<g>
								<rect x="503.866" y="220.94" fill="#E8E8D6" width="1.5" height="25.147"/>
								<polygon fill="#525C53" points="505.366,220.94 503.866,220.94 503.866,246.053 505.366,246.053 								"/>
							</g>
							<g>
								<rect x="495.833" y="228.454" fill="#E8E8D6" width="17.567" height="1.503"/>
								<polygon fill="#525C53" points="513.399,228.454 495.833,228.454 495.833,229.989 513.399,229.989 								"/>
							</g>
						</g>
						<g opacity="0.81">
							<g>
								<rect x="336.666" y="247.823" fill="#E8E8D6" width="15.967" height="23.544"/>
								<path fill="#525C53" d="M351.8,248.625v21.907h-14.367v-21.907H351.8 M353.433,247.021h-17.566v25.147h17.566V247.021
									L353.433,247.021z"/>
							</g>
							<g>
								<rect x="335.867" y="263.118" fill="#E8E8D6" width="17.566" height="1.503"/>
								<polygon fill="#525C53" points="353.433,263.118 335.867,263.118 335.867,264.621 353.433,264.621 								"/>
							</g>
							<g>
								<rect x="343.9" y="247.021" fill="#E8E8D6" width="1.5" height="25.147"/>
								<polygon fill="#525C53" points="345.4,247.021 343.9,247.021 343.9,272.167 345.4,272.167 								"/>
							</g>
							<g>
								<rect x="335.867" y="254.568" fill="#E8E8D6" width="17.566" height="1.503"/>
								<polygon fill="#525C53" points="353.433,254.568 335.867,254.568 335.867,256.071 353.433,256.071 								"/>
							</g>
						</g>
						<g opacity="0.81">
							<g>
								<rect x="411.367" y="247.823" fill="#E8E8D6" width="15.967" height="23.544"/>
								<path fill="#525C53" d="M426.533,248.625v21.907h-14.367v-21.907H426.533 M428.133,247.021h-17.566v25.147h17.566V247.021
									L428.133,247.021z"/>
							</g>
							<g>
								<rect x="410.566" y="263.118" fill="#E8E8D6" width="17.566" height="1.503"/>
								<polygon fill="#525C53" points="428.133,263.118 410.566,263.118 410.566,264.621 428.133,264.621 								"/>
							</g>
							<g>
								<rect x="418.599" y="247.021" fill="#E8E8D6" width="1.5" height="25.147"/>
								<polygon fill="#525C53" points="420.1,247.021 418.599,247.021 418.599,272.167 420.1,272.167 								"/>
							</g>
							<g>
								<rect x="410.566" y="254.568" fill="#E8E8D6" width="17.566" height="1.503"/>
								<polygon fill="#525C53" points="428.133,254.568 410.566,254.568 410.566,256.071 428.133,256.071 								"/>
							</g>
						</g>
						<path fill="#525C53" d="M393.9,277.043h-23.533v-18.1c0-6.512,5.267-11.789,11.767-11.789l0,0
							c6.5,0,11.767,5.276,11.767,11.789v18.1H393.9z"/>
						<polygon opacity="0.18" fill="#6972B6" enable-background="new    " points="341.1,114.912 357.633,164.637 370.366,164.637 
							403.666,277.344 450.733,277.344 451,164.637 453.033,164.336 440.399,114.912 						"/>
						
							<polyline fill="none" stroke="#6B7F6F" stroke-width="1.2842" stroke-linecap="round" stroke-linejoin="round" stroke-miterlimit="10" points="
							528.499,183.036 490.033,123.795 449.3,183.036 						"/>
						<polygon opacity="0.18" fill="#6972B6" enable-background="new    " points="468.266,157.857 495.767,276.776 
							526.766,276.776 526.766,183.036 488.899,123.795 						"/>
					</g>
					<g>
						
							<line fill="none" stroke="#FFFFFF" stroke-width="0.321" stroke-miterlimit="10" x1="414.533" y1="103.458" x2="443.799" y2="276.509"/>
						
							<line fill="none" stroke="#FFFFFF" stroke-width="0.321" stroke-miterlimit="10" x1="417.166" y1="103.19" x2="465.499" y2="276.509"/>
						
							<line fill="none" stroke="#FFFFFF" stroke-width="0.321" stroke-miterlimit="10" x1="408.766" y1="103.458" x2="379.5" y2="276.509"/>
						
							<line fill="none" stroke="#FFFFFF" stroke-width="0.321" stroke-miterlimit="10" x1="406.166" y1="103.19" x2="357.833" y2="276.509"/>
						<g>
							<polygon fill="#E9F2D2" points="421.066,277.41 402.899,277.41 408.766,51.729 415.199,51.729 							"/>
							<rect x="400.733" y="102.656" fill="#6B7F6F" width="22.467" height="2.137"/>
							<rect x="402.899" y="89.264" fill="#6B7F6F" width="17.666" height="2.137"/>
							<circle fill="#6B7F6F" cx="415.799" cy="97.246" r="2.604"/>
						</g>
					</g>
					<g>
						<polygon fill="#E2EFF6" points="88.867,277.41 88.867,247.321 130.567,232.294 173.967,247.188 173.967,277.41 						"/>
						<polyline fill="none" stroke="#C69253" stroke-width="0.6421" stroke-miterlimit="10" points="105.468,277.41 
							105.468,265.622 157.367,265.388 157.367,277.41 						"/>
						
							<line fill="none" stroke="#C69253" stroke-width="0.6421" stroke-miterlimit="10" x1="122.601" y1="265.622" x2="122.601" y2="277.41"/>
						
							<line fill="none" stroke="#C69253" stroke-width="0.6421" stroke-miterlimit="10" x1="138.633" y1="265.622" x2="138.633" y2="277.41"/>
						<polygon fill="#C87378" points="137.322,250.874 130.887,257.321 124.452,250.874 130.887,244.427 						"/>
						<polygon opacity="0.18" fill="#6972B6" enable-background="new    " points="111.633,239.641 127.367,264.553 
							132.433,264.553 140.767,277.41 173.967,277.41 173.967,248.257 130.567,232.261 						"/>
						<polyline fill="none" stroke="#C69253" stroke-width="0.6421" stroke-linecap="round" stroke-miterlimit="10" points="
							82.468,249.692 130.567,232.294 177.866,249.692 						"/>
					</g>
					
						<linearGradient id="SVGID_14_" gradientUnits="userSpaceOnUse" x1="-18.5481" y1="-9.1025" x2="-18.5481" y2="-34.679" gradientTransform="matrix(3.825 0 0 3.825 170.7625 452.1176)">
						<stop  offset="4.102398e-007" style="stop-color:#B5D66B"/>
						<stop  offset="1" style="stop-color:#67A3B9"/>
					</linearGradient>
					<path fill="url(#SVGID_14_)" d="M59.633,372.117h80.366c4.766,0,8.633-2.805,8.633-6.278l0,0c0-3.44-3.9-6.278-8.633-6.278
						H59.633c-4.766,0-8.633,2.805-8.633,6.278l0,0C50.968,369.278,54.867,372.117,59.633,372.117z"/>
					
						<linearGradient id="SVGID_15_" gradientUnits="userSpaceOnUse" x1="-45.7723" y1="16.1285" x2="-45.7723" y2="-9.4481" gradientTransform="matrix(3.825 0 0 3.825 170.7625 452.1176)">
						<stop  offset="4.102398e-007" style="stop-color:#B5D66B"/>
						<stop  offset="1" style="stop-color:#67A3B9"/>
					</linearGradient>
					<path fill="url(#SVGID_15_)" d="M-44.5,496.479h80.366c4.766,0,8.633-2.805,8.633-6.278l0,0c0-3.44-3.9-6.278-8.633-6.278
						H-44.5c-4.766,0-8.633,2.805-8.633,6.278l0,0C-53.133,493.674-49.266,496.479-44.5,496.479z"/>
					
						<linearGradient id="SVGID_16_" gradientUnits="userSpaceOnUse" x1="-1405.6042" y1="10.6978" x2="-1405.6042" y2="-14.2738" gradientTransform="matrix(-3.825 0 0 3.825 -4931.603 452.1176)">
						<stop  offset="4.102398e-007" style="stop-color:#B5D66B"/>
						<stop  offset="1" style="stop-color:#67A3B9"/>
					</linearGradient>
					<path fill="url(#SVGID_16_)" d="M400.667,452.966H453.5c1.934,0,3.5,1.569,3.5,3.506s-1.566,3.506-3.5,3.506h36.534
						c1.367,0,2.466,1.103,2.466,2.471v1.67c0,1.37-1.099,2.471-2.466,2.471h-60.267c-1.367,0-2.466-1.103-2.466-2.471v-1.669
						c0-1.37,1.101-2.471,2.466-2.471h-29.099c-1.934,0-3.5-1.569-3.5-3.506C397.167,454.536,398.733,452.966,400.667,452.966z"/>
					<path fill="#FFFFFF" d="M485,45.784c0-3.64-2.933-6.579-6.566-6.579c-1.3,0-2.5,0.367-3.5,1.002
						c-0.3-0.133-0.634-0.201-1-0.233c-0.334-2.238-2.266-3.94-4.6-3.94c-0.666,0-1.3,0.133-1.866,0.4
						c-0.634-1.836-1.367-3.473-3.933-4.108c-3.134-0.768-5.334,1.436-5.799,3.54c-0.566-0.267-0.433,0.667-1.101,0.667
						c-1.266,0-2.433,0.534-3.267,1.37c-0.3-0.233-0.7-0.367-1.099-0.367c-1,0-1.833,0.802-1.833,1.836c0,0.034,0,0.034,0,0.067
						c-2.967,0.334-5.267,2.839-5.267,5.911c0,0.167,0,0.334,0.034,0.501c0,0,0,0-0.034,0.034h0.034h11.833h14.8h13.133
						C485,45.818,485,45.818,485,45.784L485,45.784z"/>
					<g>
						<polygon fill="#FFFFFF" points="205.334,418.403 215.4,373.353 261.133,373.353 271.033,418.403 						"/>
						<path fill="#7D6858" d="M267.934,415.163c-36.8-0.601-94.267-5.543-94.267-5.543c5.666,22.875,26.1,45.75,35.833,45.75
							c23,0,171.233,0,171.233,0s31.3-28.052,35.6-54.333C416.3,401.071,356.2,416.633,267.934,415.163z"/>
						<path fill="none" stroke="#FFFFFF" stroke-width="0.4816" stroke-miterlimit="10" d="M410.3,418.136
							c0,0-50.333,17.332-138.6,15.863c-36.8-0.601-88.267-5.009-88.267-5.009"/>
						<polygon fill="#6B7F6F" points="261.666,395.327 250.966,395.327 250.966,380.332 258.466,380.332 						"/>
						<rect x="240.266" y="380.332" fill="#6B7F6F" width="7.5" height="14.994"/>
						<rect x="229.566" y="380.332" fill="#6B7F6F" width="7.5" height="14.994"/>
						<polygon fill="#6B7F6F" points="225.833,395.327 215.133,395.327 218.333,380.332 225.833,380.332 						"/>
					</g>
					<path fill="#AEC671" d="M-330.132,277.41v8.048v4.275v13.925v4.275l0,0H697.2v-30.556H-330.132L-330.132,277.41
						L-330.132,277.41z M683.833,281.684h7.5v3.741h-7.5V281.684z M691.333,303.691h-7.5v-13.925h7.5V303.691z M-311.932,289.732
						h7.5v13.925h-7.5V289.732z M-296.966,289.732h7.5v13.925h-7.5V289.732z M-281.433,289.732h7.5v13.925h-7.5V289.732z
						 M-265.932,289.732h7.5v13.925h-7.5V289.732z M-250.933,289.732h7.5v13.925h-7.5V289.732z M-235.966,289.732h7.5v13.925h-7.5
						V289.732z M-220.432,289.732h7.5v13.925h-7.5V289.732z M-203.866,289.732h7.5v13.925h-7.5V289.732z M-188.865,289.732h7.5
						v13.925h-7.5V289.732z M-173.9,289.732h7.5v13.925h-7.5V289.732z M-158.366,289.732h7.5v13.925h-7.5V289.732z
						 M-142.865,289.732h7.5v13.925h-7.5V289.732z M-127.866,289.732h7.5v13.925h-7.5V289.732z M-112.899,289.732h7.5v13.925h-7.5
						V289.732z M-97.366,289.732h7.5v13.925h-7.5V289.732z M-81.866,289.732h7.5v13.925h-7.5
						C-81.866,303.658-81.866,289.732-81.866,289.732z M-66.866,289.732h7.5v13.925h-7.5V289.732z M-51.899,289.732h7.5v13.925h-7.5
						V289.732z M-36.366,289.732h7.5v13.925h-7.5V289.732z M-19.799,289.732h7.5v13.925h-7.5V289.732z M-4.8,289.732h7.5v13.925
						h-7.5V289.732z M10.167,289.732h7.5v13.925h-7.5V289.732z M25.7,289.732h7.5v13.925h-7.5V289.732z M40.667,289.732h7.5v13.925
						h-7.5V289.732z M55.667,289.732h7.5v13.925h-7.5V289.732z M70.633,289.732h7.5v13.925h-7.5V289.732z M86.167,289.732h7.5
						v13.925h-7.5V289.732z M101.666,289.732h7.5v13.925h-7.5V289.732z M116.667,289.732h7.5v13.925h-7.5V289.732z M131.634,289.732
						h7.5v13.925h-7.5V289.732z M147.167,289.732h7.5v13.925h-7.5V289.732z M163.734,289.732h7.5v13.925h-7.5V289.732z
						 M178.733,289.732h7.5v13.925h-7.5V289.732z M193.7,289.732h7.5v13.925h-7.5V289.732z M209.233,289.732h7.5v13.925h-7.5
						V289.732z M224.733,289.732h7.5v13.925h-7.5V289.732z M239.733,289.732h7.5v13.925h-7.5V289.732z M254.7,289.732h7.5v13.925
						h-7.5V289.732z M270.233,289.732h7.5v13.925h-7.5V289.732z M285.733,289.732h7.5v13.925h-7.5V289.732z M300.734,289.732h7.5
						v13.925h-7.5V289.732z M315.7,289.732h7.5v13.925h-7.5V289.732z M331.234,289.732h7.5v13.925h-7.5V289.732z M347.799,289.732
						h7.5v13.925h-7.5V289.732z M362.8,289.732h7.5v13.925h-7.5V289.732z M377.767,289.732h7.5v13.925h-7.5V289.732z M393.3,289.732
						h7.5v13.925h-7.5V289.732z M408.8,289.732h7.5v13.925h-7.5V289.732z M423.8,289.732h7.5v13.925h-7.5V289.732z M438.767,289.732
						h7.5v13.925h-7.5V289.732z M454.3,289.732h7.5v13.925h-7.5V289.732z M469.8,289.732h7.5v13.925h-7.5V289.732z M484.767,289.732
						h7.5v13.925h-7.5V289.732z M499.766,289.732h7.5v13.925h-7.5V289.732z M515.266,289.732h7.5v13.925h-7.5V289.732z
						 M531.866,289.732h7.5v13.925h-7.5V289.732z M546.866,289.732h7.5v13.925h-7.5V289.732z M561.833,289.732h7.5v13.925h-7.5
						V289.732z M577.367,289.732h7.5v13.925h-7.5V289.732z M592.866,289.732h7.5v13.925h-7.5V289.732z M607.833,289.732h7.5v13.925
						h-7.5V289.732z M622.832,289.732h7.5v13.925h-7.5V289.732z M638.332,289.732h7.5v13.925h-7.5V289.732z M653.865,289.732h7.5
						v13.925h-7.5V289.732z M668.832,289.732h7.5v13.925h-7.5V289.732z M668.832,281.684h7.5v3.741h-7.5V281.684z M653.865,281.684
						h7.5v3.741h-7.5V281.684z M638.332,281.684h7.5v3.741h-7.5V281.684z M622.832,281.684h7.5v3.741h-7.5V281.684z
						 M607.833,281.684h7.5v3.741h-7.5V281.684z M592.866,281.684h7.5v3.741h-7.5V281.684z M577.367,281.684h7.5v3.741h-7.5V281.684
						z M561.833,281.684h7.5v3.741h-7.5V281.684z M546.866,281.684h7.5v3.741h-7.5V281.684z M531.866,281.684h7.5v3.741h-7.5
						V281.684z M515.266,281.684h7.5v3.741h-7.5V281.684z M499.766,281.684h7.5v3.741h-7.5V281.684z M484.767,281.684h7.5v3.741
						h-7.5V281.684z M469.8,281.684h7.5v3.741h-7.5V281.684z M454.3,281.684h7.5v3.741h-7.5V281.684z M438.767,281.684h7.5v3.741
						h-7.5V281.684z M423.8,281.684h7.5v3.741h-7.5V281.684z M408.8,281.684h7.5v3.741h-7.5V281.684z M393.3,281.684h7.5v3.741h-7.5
						V281.684z M377.767,281.684h7.5v3.741h-7.5V281.684z M362.8,281.684h7.5v3.741h-7.5V281.684z M347.799,281.684h7.5v3.741h-7.5
						V281.684z M331.234,281.684h7.5v3.741h-7.5V281.684z M315.7,281.684h7.5v3.741h-7.5V281.684z M300.734,281.684h7.5v3.741h-7.5
						V281.684z M285.733,281.684h7.5v3.741h-7.5V281.684z M270.233,281.684h7.5v3.741h-7.5V281.684z M254.7,281.684h7.5v3.741h-7.5
						V281.684z M239.733,281.684h7.5v3.741h-7.5V281.684z M224.733,281.684h7.5v3.741h-7.5V281.684z M209.233,281.684h7.5v3.741
						h-7.5V281.684z M193.7,281.684h7.5v3.741h-7.5V281.684z M178.733,281.684h7.5v3.741h-7.5V281.684z M163.734,281.684h7.5v3.741
						h-7.5V281.684z M147.167,281.684h7.5v3.741h-7.5V281.684z M131.634,281.684h7.5v3.741h-7.5V281.684z M116.667,281.684h7.5
						v3.741h-7.5V281.684z M101.666,281.684h7.5v3.741h-7.5V281.684z M86.167,281.684h7.5v3.741h-7.5V281.684z M70.633,281.684h7.5
						v3.741h-7.5V281.684z M55.667,281.684h7.5v3.741h-7.5V281.684z M40.667,281.684h7.5v3.741h-7.5V281.684z M25.7,281.684h7.5
						v3.741h-7.5V281.684z M10.167,281.684h7.5v3.741h-7.5V281.684z M-4.8,281.684h7.5v3.741h-7.5V281.684z M-19.799,281.684h7.5
						v3.741h-7.5V281.684z M-36.366,281.684h7.5v3.741h-7.5V281.684z M-51.899,281.684h7.5v3.741h-7.5V281.684z M-66.866,281.684
						h7.5v3.741h-7.5V281.684z M-81.866,281.684h7.5v3.741h-7.5C-81.866,285.425-81.866,281.684-81.866,281.684z M-97.366,281.684
						h7.5v3.741h-7.5V281.684z M-112.899,281.684h7.5v3.741h-7.5V281.684z M-127.866,281.684h7.5v3.741h-7.5V281.684z
						 M-142.865,281.684h7.5v3.741h-7.5V281.684z M-158.366,281.684h7.5v3.741h-7.5V281.684z M-173.9,281.684h7.5v3.741h-7.5
						V281.684z M-188.865,281.684h7.5v3.741h-7.5V281.684z M-203.866,281.684h7.5v3.741h-7.5V281.684z M-220.432,281.684h7.5v3.741
						h-7.5V281.684z M-235.966,281.684h7.5v3.741h-7.5V281.684z M-250.933,281.684h7.5v3.741h-7.5V281.684z M-265.932,281.684h7.5
						v3.741h-7.5V281.684z M-281.433,281.684h7.5v3.741h-7.5V281.684z M-296.966,281.684h7.5v3.741h-7.5V281.684z M-311.932,281.684
						h7.5v3.741h-7.5V281.684z M-326.932,281.684h7.5v3.741h-7.5V281.684z M-326.932,289.732h7.5v13.925h-7.5V289.732z"/>
					<g>
						<polygon fill="#FFFFFF" points="211.767,321.358 205.167,291.87 175,291.87 168.467,321.358 						"/>
						<path fill="#6F768E" d="M170.501,318.986c24.266-0.4,62.133-3.64,62.133-3.64c-3.734,15.061-17.2,30.156-23.634,30.156
							c-15.166,0-112.867,0-112.867,0S75.5,327.002,72.667,309.704C72.7,309.67,112.334,319.956,170.501,318.986z"/>
						<path fill="none" stroke="#FFFFFF" stroke-width="0.8026" stroke-miterlimit="10" d="M76.667,320.924
							c0,0,33.167,11.421,91.366,10.453c24.266-0.4,58.2-3.305,58.2-3.305"/>
						<polygon fill="#6B7F6F" points="174.633,305.829 182.133,305.829 182.133,296.179 176.767,296.179 						"/>
						<rect x="183.733" y="296.179" fill="#6B7F6F" width="5.366" height="9.651"/>
						<rect x="190.667" y="296.179" fill="#6B7F6F" width="4.8" height="9.651"/>
						<polygon fill="#6B7F6F" points="198.167,305.829 205.334,305.829 203.2,296.179 198.167,296.179 						"/>
					</g>
					<g>
						
							<line fill="none" stroke="#FFFFFF" stroke-width="0.321" stroke-miterlimit="10" x1="-100.266" y1="97.246" x2="-9.899" y2="277.043"/>
					</g>
					<g>
						<polygon fill="#E2EFF6" points="4.833,277.41 4.833,247.321 46.534,232.294 89.901,247.188 89.901,277.41 						"/>
						<polyline fill="none" stroke="#C69253" stroke-width="0.6421" stroke-miterlimit="10" points="21.4,277.41 21.4,265.622 
							73.3,265.388 73.3,277.41 						"/>
						
							<line fill="none" stroke="#C69253" stroke-width="0.6421" stroke-miterlimit="10" x1="38.533" y1="265.622" x2="38.533" y2="277.41"/>
						
							<line fill="none" stroke="#C69253" stroke-width="0.6421" stroke-miterlimit="10" x1="54.601" y1="265.622" x2="54.601" y2="277.41"/>
						<polygon fill="#C87378" points="53.26,250.886 46.826,257.332 40.391,250.886 46.826,244.439 						"/>
						<polygon opacity="0.18" fill="#6972B6" enable-background="new    " points="27.567,239.641 43.334,264.553 48.367,264.553 
							56.734,277.41 89.901,277.41 89.901,248.257 46.534,232.261 						"/>
						<polyline fill="none" stroke="#C69253" stroke-width="0.6421" stroke-linecap="round" stroke-miterlimit="10" points="
							-1.6,249.692 46.534,232.294 93.834,249.692 						"/>
					</g>
					<g>
						<polygon fill="#C2CBB0" points="218.134,278.212 232.567,194.592 253.599,194.592 269.5,278.212 						"/>
						<path fill="#A3B287" d="M255.3,198.598h-24.6v-3.206c0-6.813,5.499-12.323,12.3-12.323l0,0c6.8,0,12.3,5.51,12.3,12.323
							V198.598L255.3,198.598z"/>
						<g>
							<g>
								<g>
									<polygon fill="none" stroke="#FFFFFF" stroke-width="0.1605" stroke-miterlimit="10" points="293.389,252.004 
										248.35,214.865 258.56,202.437 303.599,239.577 									"/>
									
										<line fill="none" stroke="#FFFFFF" stroke-width="0.1605" stroke-miterlimit="10" x1="291.699" y1="228.754" x2="281.166" y2="241.578"/>
									
										<line fill="none" stroke="#FFFFFF" stroke-width="0.1605" stroke-miterlimit="10" x1="293.766" y1="230.457" x2="283.233" y2="243.281"/>
									
										<line fill="none" stroke="#FFFFFF" stroke-width="0.1605" stroke-miterlimit="10" x1="295.499" y1="232.561" x2="284.934" y2="245.385"/>
									
										<line fill="none" stroke="#FFFFFF" stroke-width="0.1605" stroke-miterlimit="10" x1="297.9" y1="233.863" x2="287.333" y2="246.687"/>
									
										<line fill="none" stroke="#FFFFFF" stroke-width="0.1605" stroke-miterlimit="10" x1="299.967" y1="235.566" x2="289.4" y2="248.39"/>
									
										<line fill="none" stroke="#FFFFFF" stroke-width="0.1605" stroke-miterlimit="10" x1="301.334" y1="238.071" x2="290.8" y2="250.928"/>
									
										<line fill="none" stroke="#FFFFFF" stroke-width="0.1605" stroke-miterlimit="10" x1="256.5" y1="204.944" x2="301.934" y2="242.413"/>
									
										<line fill="none" stroke="#FFFFFF" stroke-width="0.1605" stroke-miterlimit="10" x1="254.6" y1="206.813" x2="300.033" y2="244.316"/>
									
										<line fill="none" stroke="#FFFFFF" stroke-width="0.1605" stroke-miterlimit="10" x1="253.1" y1="209.085" x2="298.534" y2="246.554"/>
									
										<line fill="none" stroke="#FFFFFF" stroke-width="0.1605" stroke-miterlimit="10" x1="251.6" y1="211.322" x2="297.067" y2="248.79"/>
									
										<line fill="none" stroke="#FFFFFF" stroke-width="0.1605" stroke-miterlimit="10" x1="249.7" y1="213.192" x2="295.133" y2="250.694"/>
								</g>
								
									<line fill="none" stroke="#FFFFFF" stroke-width="0.1605" stroke-miterlimit="10" x1="260.533" y1="203.408" x2="250" y2="216.231"/>
								
									<line fill="none" stroke="#FFFFFF" stroke-width="0.1605" stroke-miterlimit="10" x1="262.433" y1="205.312" x2="251.9" y2="218.134"/>
								
									<line fill="none" stroke="#FFFFFF" stroke-width="0.1605" stroke-miterlimit="10" x1="264.667" y1="206.813" x2="254.134" y2="219.637"/>
								
									<line fill="none" stroke="#FFFFFF" stroke-width="0.1605" stroke-miterlimit="10" x1="266.9" y1="208.283" x2="256.367" y2="221.14"/>
								
									<line fill="none" stroke="#FFFFFF" stroke-width="0.1605" stroke-miterlimit="10" x1="268.634" y1="210.421" x2="258.1" y2="223.243"/>
								
									<line fill="none" stroke="#FFFFFF" stroke-width="0.1605" stroke-miterlimit="10" x1="271.033" y1="211.689" x2="260.5" y2="224.547"/>
								
									<line fill="none" stroke="#FFFFFF" stroke-width="0.1605" stroke-miterlimit="10" x1="273.1" y1="213.426" x2="262.566" y2="226.25"/>
								
									<line fill="none" stroke="#FFFFFF" stroke-width="0.1605" stroke-miterlimit="10" x1="275.166" y1="215.129" x2="264.633" y2="227.952"/>
								
									<line fill="none" stroke="#FFFFFF" stroke-width="0.1605" stroke-miterlimit="10" x1="277.233" y1="216.832" x2="266.7" y2="229.656"/>
								
									<line fill="none" stroke="#FFFFFF" stroke-width="0.1605" stroke-miterlimit="10" x1="279.3" y1="218.536" x2="268.767" y2="231.359"/>
								
									<line fill="none" stroke="#FFFFFF" stroke-width="0.1605" stroke-miterlimit="10" x1="281.033" y1="220.639" x2="270.5" y2="233.463"/>
								
									<line fill="none" stroke="#FFFFFF" stroke-width="0.1605" stroke-miterlimit="10" x1="283.1" y1="222.343" x2="272.533" y2="235.166"/>
								
									<line fill="none" stroke="#FFFFFF" stroke-width="0.1605" stroke-miterlimit="10" x1="285.5" y1="223.645" x2="274.967" y2="236.468"/>
								
									<line fill="none" stroke="#FFFFFF" stroke-width="0.1605" stroke-miterlimit="10" x1="287.233" y1="225.748" x2="276.667" y2="238.572"/>
								
									<line fill="none" stroke="#FFFFFF" stroke-width="0.1605" stroke-miterlimit="10" x1="289.634" y1="227.05" x2="279.099" y2="239.874"/>
							</g>
							<g>
								<g>
									<polygon fill="none" stroke="#FFFFFF" stroke-width="0.1605" stroke-miterlimit="10" points="224.241,195.007 
										174.003,153.581 184.213,141.153 234.451,182.579 									"/>
									
										<line fill="none" stroke="#FFFFFF" stroke-width="0.1605" stroke-miterlimit="10" x1="221.133" y1="170.547" x2="210.567" y2="183.371"/>
									
										<line fill="none" stroke="#FFFFFF" stroke-width="0.1605" stroke-miterlimit="10" x1="223.433" y1="172.45" x2="212.866" y2="185.274"/>
									
										<line fill="none" stroke="#FFFFFF" stroke-width="0.1605" stroke-miterlimit="10" x1="225.4" y1="174.755" x2="214.833" y2="187.578"/>
									
										<line fill="none" stroke="#FFFFFF" stroke-width="0.1605" stroke-miterlimit="10" x1="228.033" y1="176.258" x2="217.5" y2="189.081"/>
									
										<line fill="none" stroke="#FFFFFF" stroke-width="0.1605" stroke-miterlimit="10" x1="230.333" y1="178.128" x2="219.8" y2="190.984"/>
									
										<line fill="none" stroke="#FFFFFF" stroke-width="0.1605" stroke-miterlimit="10" x1="231.967" y1="180.866" x2="221.433" y2="193.69"/>
									
										<line fill="none" stroke="#FFFFFF" stroke-width="0.1605" stroke-miterlimit="10" x1="182.167" y1="143.631" x2="232.867" y2="185.441"/>
									
										<line fill="none" stroke="#FFFFFF" stroke-width="0.1605" stroke-miterlimit="10" x1="180.233" y1="145.501" x2="230.933" y2="187.311"/>
									
										<line fill="none" stroke="#FFFFFF" stroke-width="0.1605" stroke-miterlimit="10" x1="178.767" y1="147.772" x2="229.467" y2="189.582"/>
									
										<line fill="none" stroke="#FFFFFF" stroke-width="0.1605" stroke-miterlimit="10" x1="177.3" y1="150.043" x2="228" y2="191.82"/>
									
										<line fill="none" stroke="#FFFFFF" stroke-width="0.1605" stroke-miterlimit="10" x1="175.366" y1="151.912" x2="226.066" y2="193.69"/>
								</g>
								
									<line fill="none" stroke="#FFFFFF" stroke-width="0.1605" stroke-miterlimit="10" x1="186.4" y1="142.262" x2="175.833" y2="155.086"/>
								
									<line fill="none" stroke="#FFFFFF" stroke-width="0.1605" stroke-miterlimit="10" x1="188.534" y1="144.366" x2="178" y2="157.189"/>
								
									<line fill="none" stroke="#FFFFFF" stroke-width="0.1605" stroke-miterlimit="10" x1="191" y1="146.035" x2="180.467" y2="158.893"/>
								
									<line fill="none" stroke="#FFFFFF" stroke-width="0.1605" stroke-miterlimit="10" x1="193.467" y1="147.739" x2="182.934" y2="160.562"/>
								
									<line fill="none" stroke="#FFFFFF" stroke-width="0.1605" stroke-miterlimit="10" x1="195.433" y1="150.043" x2="184.9" y2="162.9"/>
								
									<line fill="none" stroke="#FFFFFF" stroke-width="0.1605" stroke-miterlimit="10" x1="198.066" y1="151.546" x2="187.533" y2="164.37"/>
								
									<line fill="none" stroke="#FFFFFF" stroke-width="0.1605" stroke-miterlimit="10" x1="200.401" y1="153.449" x2="189.834" y2="166.273"/>
								
									<line fill="none" stroke="#FFFFFF" stroke-width="0.1605" stroke-miterlimit="10" x1="202.7" y1="155.353" x2="192.133" y2="168.177"/>
								
									<line fill="none" stroke="#FFFFFF" stroke-width="0.1605" stroke-miterlimit="10" x1="205" y1="157.256" x2="194.467" y2="170.08"/>
								
									<line fill="none" stroke="#FFFFFF" stroke-width="0.1605" stroke-miterlimit="10" x1="207.3" y1="159.16" x2="196.766" y2="171.984"/>
								
									<line fill="none" stroke="#FFFFFF" stroke-width="0.1605" stroke-miterlimit="10" x1="209.267" y1="161.463" x2="198.734" y2="174.287"/>
								
									<line fill="none" stroke="#FFFFFF" stroke-width="0.1605" stroke-miterlimit="10" x1="211.566" y1="163.367" x2="201.033" y2="176.191"/>
								
									<line fill="none" stroke="#FFFFFF" stroke-width="0.1605" stroke-miterlimit="10" x1="214.2" y1="164.836" x2="203.666" y2="177.66"/>
								
									<line fill="none" stroke="#FFFFFF" stroke-width="0.1605" stroke-miterlimit="10" x1="216.167" y1="167.174" x2="205.634" y2="179.998"/>
								
									<line fill="none" stroke="#FFFFFF" stroke-width="0.1605" stroke-miterlimit="10" x1="218.834" y1="168.643" x2="208.267" y2="181.467"/>
							</g>
							
								<line fill="none" stroke="#C87378" stroke-width="0.4816" stroke-miterlimit="10" x1="183.967" y1="140.959" x2="303.767" y2="239.741"/>
						</g>
						<g>
							<g>
								<g>
									<polygon fill="none" stroke="#FFFFFF" stroke-width="0.1605" stroke-miterlimit="10" points="305.273,149.733 
										263.833,190.864 252.526,179.429 293.966,138.299 									"/>
									
										<line fill="none" stroke="#FFFFFF" stroke-width="0.1605" stroke-miterlimit="10" x1="282" y1="149.041" x2="293.667" y2="160.862"/>
									
										<line fill="none" stroke="#FFFFFF" stroke-width="0.1605" stroke-miterlimit="10" x1="283.9" y1="147.171" x2="295.567" y2="158.959"/>
									
										<line fill="none" stroke="#FFFFFF" stroke-width="0.1605" stroke-miterlimit="10" x1="286.166" y1="145.668" x2="297.834" y2="157.457"/>
									
										<line fill="none" stroke="#FFFFFF" stroke-width="0.1605" stroke-miterlimit="10" x1="287.7" y1="143.397" x2="299.367" y2="155.186"/>
									
										<line fill="none" stroke="#FFFFFF" stroke-width="0.1605" stroke-miterlimit="10" x1="289.6" y1="141.493" x2="301.266" y2="153.316"/>
									
										<line fill="none" stroke="#FFFFFF" stroke-width="0.1605" stroke-miterlimit="10" x1="292.234" y1="140.358" x2="303.933" y2="152.181"/>
									
										<line fill="none" stroke="#FFFFFF" stroke-width="0.1605" stroke-miterlimit="10" x1="254.8" y1="181.7" x2="296.6" y2="140.191"/>
									
										<line fill="none" stroke="#FFFFFF" stroke-width="0.1605" stroke-miterlimit="10" x1="256.467" y1="183.805" x2="298.3" y2="142.295"/>
									
										<line fill="none" stroke="#FFFFFF" stroke-width="0.1605" stroke-miterlimit="10" x1="258.567" y1="185.509" x2="300.366" y2="143.998"/>
									
										<line fill="none" stroke="#FFFFFF" stroke-width="0.1605" stroke-miterlimit="10" x1="260.633" y1="187.245" x2="302.433" y2="145.734"/>
									
										<line fill="none" stroke="#FFFFFF" stroke-width="0.1605" stroke-miterlimit="10" x1="262.334" y1="189.315" x2="304.134" y2="147.805"/>
								</g>
								
									<line fill="none" stroke="#FFFFFF" stroke-width="0.1605" stroke-miterlimit="10" x1="253.667" y1="177.527" x2="265.333" y2="189.348"/>
								
									<line fill="none" stroke="#FFFFFF" stroke-width="0.1605" stroke-miterlimit="10" x1="255.767" y1="175.823" x2="267.433" y2="187.645"/>
								
									<line fill="none" stroke="#FFFFFF" stroke-width="0.1605" stroke-miterlimit="10" x1="257.467" y1="173.754" x2="269.133" y2="185.575"/>
								
									<line fill="none" stroke="#FFFFFF" stroke-width="0.1605" stroke-miterlimit="10" x1="259.166" y1="171.683" x2="270.867" y2="183.504"/>
								
									<line fill="none" stroke="#FFFFFF" stroke-width="0.1605" stroke-miterlimit="10" x1="261.467" y1="170.18" x2="273.133" y2="181.969"/>
								
									<line fill="none" stroke="#FFFFFF" stroke-width="0.1605" stroke-miterlimit="10" x1="263" y1="167.908" x2="274.667" y2="179.731"/>
								
									<line fill="none" stroke="#FFFFFF" stroke-width="0.1605" stroke-miterlimit="10" x1="264.9" y1="166.039" x2="276.567" y2="177.827"/>
								
									<line fill="none" stroke="#FFFFFF" stroke-width="0.1605" stroke-miterlimit="10" x1="266.8" y1="164.135" x2="278.467" y2="175.958"/>
								
									<line fill="none" stroke="#FFFFFF" stroke-width="0.1605" stroke-miterlimit="10" x1="268.7" y1="162.265" x2="280.367" y2="174.054"/>
								
									<line fill="none" stroke="#FFFFFF" stroke-width="0.1605" stroke-miterlimit="10" x1="270.599" y1="160.362" x2="282.267" y2="172.183"/>
								
									<line fill="none" stroke="#FFFFFF" stroke-width="0.1605" stroke-miterlimit="10" x1="272.867" y1="158.859" x2="284.533" y2="170.648"/>
								
									<line fill="none" stroke="#FFFFFF" stroke-width="0.1605" stroke-miterlimit="10" x1="274.767" y1="156.989" x2="286.433" y2="168.778"/>
								
									<line fill="none" stroke="#FFFFFF" stroke-width="0.1605" stroke-miterlimit="10" x1="276.301" y1="154.718" x2="287.967" y2="166.506"/>
								
									<line fill="none" stroke="#FFFFFF" stroke-width="0.1605" stroke-miterlimit="10" x1="278.567" y1="153.216" x2="290.233" y2="165.003"/>
								
									<line fill="none" stroke="#FFFFFF" stroke-width="0.1605" stroke-miterlimit="10" x1="280.1" y1="150.944" x2="291.767" y2="162.733"/>
							</g>
							<g>
								<g>
									<polygon fill="none" stroke="#FFFFFF" stroke-width="0.1605" stroke-miterlimit="10" points="241.66,212.875 
										195.437,258.753 184.129,247.319 230.353,201.44 									"/>
									
										<line fill="none" stroke="#FFFFFF" stroke-width="0.1605" stroke-miterlimit="10" x1="217.067" y1="213.493" x2="228.733" y2="225.314"/>
									
										<line fill="none" stroke="#FFFFFF" stroke-width="0.1605" stroke-miterlimit="10" x1="219.166" y1="211.389" x2="230.867" y2="223.211"/>
									
										<line fill="none" stroke="#FFFFFF" stroke-width="0.1605" stroke-miterlimit="10" x1="221.666" y1="209.686" x2="233.334" y2="221.473"/>
									
										<line fill="none" stroke="#FFFFFF" stroke-width="0.1605" stroke-miterlimit="10" x1="223.433" y1="207.181" x2="235.1" y2="219.003"/>
									
										<line fill="none" stroke="#FFFFFF" stroke-width="0.1605" stroke-miterlimit="10" x1="225.533" y1="205.077" x2="237.2" y2="216.899"/>
									
										<line fill="none" stroke="#FFFFFF" stroke-width="0.1605" stroke-miterlimit="10" x1="228.4" y1="203.741" x2="240.101" y2="215.53"/>
									
										<line fill="none" stroke="#FFFFFF" stroke-width="0.1605" stroke-miterlimit="10" x1="186.4" y1="249.593" x2="233.034" y2="203.307"/>
									
										<line fill="none" stroke="#FFFFFF" stroke-width="0.1605" stroke-miterlimit="10" x1="188.067" y1="251.729" x2="234.7" y2="205.411"/>
									
										<line fill="none" stroke="#FFFFFF" stroke-width="0.1605" stroke-miterlimit="10" x1="190.166" y1="253.399" x2="236.8" y2="207.114"/>
									
										<line fill="none" stroke="#FFFFFF" stroke-width="0.1605" stroke-miterlimit="10" x1="192.267" y1="255.102" x2="238.9" y2="208.818"/>
									
										<line fill="none" stroke="#FFFFFF" stroke-width="0.1605" stroke-miterlimit="10" x1="193.934" y1="257.206" x2="240.566" y2="210.921"/>
								</g>
								
									<line fill="none" stroke="#FFFFFF" stroke-width="0.1605" stroke-miterlimit="10" x1="185.466" y1="245.252" x2="197.134" y2="257.039"/>
								
									<line fill="none" stroke="#FFFFFF" stroke-width="0.1605" stroke-miterlimit="10" x1="187.767" y1="243.347" x2="199.433" y2="255.136"/>
								
									<line fill="none" stroke="#FFFFFF" stroke-width="0.1605" stroke-miterlimit="10" x1="189.701" y1="241.043" x2="201.367" y2="252.832"/>
								
									<line fill="none" stroke="#FFFFFF" stroke-width="0.1605" stroke-miterlimit="10" x1="191.633" y1="238.739" x2="203.3" y2="250.56"/>
								
									<line fill="none" stroke="#FFFFFF" stroke-width="0.1605" stroke-miterlimit="10" x1="194.133" y1="237.035" x2="205.8" y2="248.824"/>
								
									<line fill="none" stroke="#FFFFFF" stroke-width="0.1605" stroke-miterlimit="10" x1="195.866" y1="234.532" x2="207.534" y2="246.353"/>
								
									<line fill="none" stroke="#FFFFFF" stroke-width="0.1605" stroke-miterlimit="10" x1="197.967" y1="232.428" x2="209.666" y2="244.249"/>
								
									<line fill="none" stroke="#FFFFFF" stroke-width="0.1605" stroke-miterlimit="10" x1="200.101" y1="230.323" x2="211.767" y2="242.146"/>
								
									<line fill="none" stroke="#FFFFFF" stroke-width="0.1605" stroke-miterlimit="10" x1="202.233" y1="228.22" x2="213.9" y2="240.042"/>
								
									<line fill="none" stroke="#FFFFFF" stroke-width="0.1605" stroke-miterlimit="10" x1="204.334" y1="226.116" x2="216" y2="237.937"/>
								
									<line fill="none" stroke="#FFFFFF" stroke-width="0.1605" stroke-miterlimit="10" x1="206.834" y1="224.412" x2="218.5" y2="236.201"/>
								
									<line fill="none" stroke="#FFFFFF" stroke-width="0.1605" stroke-miterlimit="10" x1="208.967" y1="222.309" x2="220.633" y2="234.097"/>
								
									<line fill="none" stroke="#FFFFFF" stroke-width="0.1605" stroke-miterlimit="10" x1="210.7" y1="219.805" x2="222.367" y2="231.626"/>
								
									<line fill="none" stroke="#FFFFFF" stroke-width="0.1605" stroke-miterlimit="10" x1="213.2" y1="218.101" x2="224.867" y2="229.889"/>
								
									<line fill="none" stroke="#FFFFFF" stroke-width="0.1605" stroke-miterlimit="10" x1="214.933" y1="215.597" x2="226.6" y2="227.418"/>
							</g>
							
								<line fill="none" stroke="#C87378" stroke-width="0.4816" stroke-miterlimit="10" x1="183.934" y1="247.522" x2="294.134" y2="138.12"/>
						</g>
						<path opacity="0.18" fill="#6972B6" enable-background="new    " d="M241.534,183.739l1.3,14.861h2.967l8.9,79.345
							l14.733,0.267l-14.967-77.742l-0.1-1.87l1.167-0.267c0,0,0.4-7.647-3.533-11.321c0,0-3.134-4.575-10.5-3.874v0.601
							L241.534,183.739L241.534,183.739z"/>
					</g>
				</g>
			</g>
		</g>
	</g>
</g>
</svg>
