<svg xmlns="http://www.w3.org/2000/svg" xmlns:xlink="http://www.w3.org/1999/xlink" viewBox="0 0 183.91 183.91"><defs><style>.cls-1{fill:none;}.cls-2{isolation:isolate;}.cls-3{clip-path:url(#clip-path);}.cls-4{clip-path:url(#clip-path-2);}.cls-5{fill:url(#linear-gradient);}.cls-6,.cls-9{fill:#efe6df;}.cls-7{fill:url(#linear-gradient-2);}.cls-8{fill:url(#linear-gradient-3);}.cls-9{opacity:0.5;}.cls-10{fill:#18522a;}.cls-11{fill:#b3721b;}.cls-12{fill:#15381e;}.cls-13{fill:#ddd0c4;}.cls-14{fill:#1d2a2d;}.cls-15{fill:#551721;}.cls-16{fill:#2d515d;}.cls-17{fill:#cf9f68;}.cls-18{fill:#376235;}.cls-19{fill:#d49f6a;}.cls-20{fill:#b6d39e;}.cls-21{fill:#a7bca3;}.cls-22{fill:#100906;}.cls-23{fill:#9e9e8a;}.cls-24{fill:#353631;}.cls-25{fill:#c7dcc9;}.cls-26{fill:#dbc3a2;}.cls-27{fill:#f0f0f0;}.cls-28{fill:#2f3029;}.cls-29{fill:#0074bf;}.cls-30{fill:#e5e5e5;}.cls-31,.cls-37,.cls-67,.cls-84{opacity:0.25;}.cls-31,.cls-37,.cls-46,.cls-47,.cls-48,.cls-49,.cls-50,.cls-51,.cls-52,.cls-53,.cls-54{mix-blend-mode:multiply;}.cls-32{fill:url(#linear-gradient-4);}.cls-33{fill:url(#linear-gradient-5);}.cls-34{fill:url(#linear-gradient-6);}.cls-35{fill:url(#linear-gradient-7);}.cls-36{fill:url(#linear-gradient-8);}.cls-37{fill:url(#linear-gradient-9);}.cls-38{fill:#68666d;}.cls-39{fill:#7f5f55;}.cls-40{fill:#9ebc53;}.cls-41,.cls-42,.cls-43,.cls-55,.cls-71{fill:#fff;}.cls-41{opacity:0.21;}.cls-42{opacity:0.34;}.cls-43{opacity:0.48;}.cls-44{fill:#50685c;}.cls-45{fill:#b3d159;}.cls-46,.cls-47,.cls-48,.cls-49,.cls-50,.cls-51,.cls-52,.cls-53,.cls-54{opacity:0.11;}.cls-46{fill:url(#linear-gradient-10);}.cls-47{fill:url(#linear-gradient-11);}.cls-48{fill:url(#linear-gradient-12);}.cls-49{fill:url(#linear-gradient-13);}.cls-50{fill:url(#linear-gradient-14);}.cls-51{fill:url(#linear-gradient-15);}.cls-52{fill:url(#linear-gradient-16);}.cls-53{fill:url(#linear-gradient-17);}.cls-54{fill:url(#linear-gradient-18);}.cls-56{fill:#b8aaa1;}.cls-57{fill:#1b4e22;}.cls-58{fill:#3f2e26;}.cls-59{fill:#ebe2d9;}.cls-60{fill:#b20300;}.cls-61{fill:#a4c284;}.cls-62{fill:#67995c;}.cls-63{fill:#772b29;}.cls-64{fill:#2a341f;}.cls-65{fill:#cd9c3b;}.cls-66{fill:#88765f;}.cls-67{fill:url(#linear-gradient-19);}.cls-68{clip-path:url(#clip-path-3);}.cls-69{clip-path:url(#clip-path-4);}.cls-70{fill:url(#linear-gradient-20);}.cls-71{font-size:3.34px;font-family:MyriadPro-Regular, Myriad Pro;}.cls-72{fill:url(#linear-gradient-21);}.cls-73{fill:url(#linear-gradient-22);}.cls-74{clip-path:url(#clip-path-5);}.cls-75{fill:#f2f2f2;}.cls-76{fill:#311527;}.cls-77{fill:url(#linear-gradient-23);}.cls-78{fill:#cc665c;}.cls-79{fill:#a05c55;}.cls-80,.cls-82{fill:#413a4f;}.cls-81{fill:#d3aa62;}.cls-82{opacity:0.18;}.cls-83{fill:#474156;}.cls-85{fill:#ac4b3e;}.cls-86{fill:#bf5645;}.cls-87{fill:#d3aa63;}.cls-88{fill:#843a35;}</style><clipPath id="clip-path"><circle class="cls-1" cx="91.96" cy="91.96" r="75.03"/></clipPath><clipPath id="clip-path-2"><rect id="SVGID" class="cls-1" x="16.17" y="15.82" width="270.71" height="152.28"/></clipPath><linearGradient id="linear-gradient" x1="16.17" y1="91.99" x2="1640.88" y2="91.99" gradientUnits="userSpaceOnUse"><stop offset="0" stop-color="#ffc06e"/><stop offset="0.14" stop-color="#efacb8"/><stop offset="0.37" stop-color="#b1b1e5"/><stop offset="0.6" stop-color="#99cdc6"/><stop offset="0.67" stop-color="#aacdae"/><stop offset="0.75" stop-color="#bbce95"/><stop offset="0.79" stop-color="#c6cb92"/><stop offset="0.93" stop-color="#e7c289"/><stop offset="1" stop-color="#f4be86"/></linearGradient><linearGradient id="linear-gradient-2" x1="73.35" y1="93.83" x2="193.73" y2="93.83" gradientUnits="userSpaceOnUse"><stop offset="0" stop-color="#ffd192"/><stop offset="1" stop-color="#fa9266"/></linearGradient><linearGradient id="linear-gradient-3" x1="60.13" y1="39.39" x2="114.83" y2="39.39" xlink:href="#linear-gradient-2"/><linearGradient id="linear-gradient-4" x1="125.09" y1="110.05" x2="125.43" y2="110.05" gradientUnits="userSpaceOnUse"><stop offset="0" stop-color="#ffcc7d"/><stop offset="1" stop-color="#f66"/></linearGradient><linearGradient id="linear-gradient-5" x1="121.9" y1="90.77" x2="121.9" y2="90.77" xlink:href="#linear-gradient-4"/><linearGradient id="linear-gradient-6" x1="118.37" y1="110.03" x2="118.71" y2="110.03" xlink:href="#linear-gradient-4"/><linearGradient id="linear-gradient-7" x1="116.21" y1="108.14" x2="118.52" y2="108.14" xlink:href="#linear-gradient-4"/><linearGradient id="linear-gradient-8" x1="111.58" y1="110.17" x2="121.9" y2="110.17" xlink:href="#linear-gradient-4"/><linearGradient id="linear-gradient-9" x1="140.42" y1="116.59" x2="144.32" y2="116.59" xlink:href="#linear-gradient-4"/><linearGradient id="linear-gradient-10" x1="-376.95" y1="116.87" x2="-367.18" y2="116.87" gradientTransform="matrix(-1, 0, 0, 1, -349.36, 0)" gradientUnits="userSpaceOnUse"><stop offset="0" stop-color="#747c9d"/><stop offset="0.59" stop-color="#9280aa"/><stop offset="1" stop-color="#aa84b4"/></linearGradient><linearGradient id="linear-gradient-11" x1="-376.95" y1="127.14" x2="-367.18" y2="127.14" xlink:href="#linear-gradient-10"/><linearGradient id="linear-gradient-12" x1="-376.95" y1="114.73" x2="-367.18" y2="114.73" xlink:href="#linear-gradient-10"/><linearGradient id="linear-gradient-13" x1="-376.95" y1="125.16" x2="-367.18" y2="125.16" xlink:href="#linear-gradient-10"/><linearGradient id="linear-gradient-14" x1="-376.95" y1="120.18" x2="-367.18" y2="120.18" xlink:href="#linear-gradient-10"/><linearGradient id="linear-gradient-15" x1="-376.95" y1="110.95" x2="-367.18" y2="110.95" xlink:href="#linear-gradient-10"/><linearGradient id="linear-gradient-16" x1="-376.95" y1="110.97" x2="-367.18" y2="110.97" xlink:href="#linear-gradient-10"/><linearGradient id="linear-gradient-17" x1="-376.95" y1="115.5" x2="-367.18" y2="115.5" xlink:href="#linear-gradient-10"/><linearGradient id="linear-gradient-18" x1="-376.95" y1="115.52" x2="-367.18" y2="115.52" xlink:href="#linear-gradient-10"/><linearGradient id="linear-gradient-19" x1="41.61" y1="87.35" x2="75.24" y2="87.35" xlink:href="#linear-gradient-4"/><clipPath id="clip-path-3"><circle class="cls-1" cx="-136.04" cy="91.96" r="75.03"/></clipPath><clipPath id="clip-path-4"><rect id="SVGID-2" data-name="SVGID" class="cls-1" x="-215.63" y="17.17" width="268.44" height="150.69"/></clipPath><linearGradient id="linear-gradient-20" x1="-1558.55" y1="92.55" x2="52.53" y2="92.55" xlink:href="#linear-gradient"/><linearGradient id="linear-gradient-21" x1="-81.62" y1="170.96" x2="-81.62" y2="106.79" gradientUnits="userSpaceOnUse"><stop offset="0" stop-color="#d5b670"/><stop offset="0.25" stop-color="#d19966"/><stop offset="0.35" stop-color="#cf8b61"/><stop offset="0.51" stop-color="#d39370"/><stop offset="0.81" stop-color="#dfa896"/><stop offset="1" stop-color="#e7b7b2"/></linearGradient><linearGradient id="linear-gradient-22" x1="0.69" y1="152.41" x2="0.69" y2="143.58" xlink:href="#linear-gradient-21"/><clipPath id="clip-path-5"><rect class="cls-1" x="-211.86" y="17.03" width="268.47" height="120.24"/></clipPath><linearGradient id="linear-gradient-23" x1="-120.98" y1="129.58" x2="73.8" y2="129.58" gradientUnits="userSpaceOnUse"><stop offset="0.64" stop-color="#a2544b"/><stop offset="0.83" stop-color="#9d4a40"/></linearGradient></defs><title>ปุ่มไทย</title><g class="cls-2"><g id="Layer_1" data-name="Layer 1"><g class="cls-3"><g class="cls-4"><rect class="cls-5" x="16.17" y="15.88" width="1624.71" height="152.22"/></g><path class="cls-6" d="M95,47.08H34.32S37.26,28.94,57,30.86c0,0,1.47-14.3,14.73-9.62,0,0,6.19,2.2,5,9.62,0,0,1.77-3,6.19-1.65,0,0,3.24,1.37,2.65,4.4,0,0,5.89-1.92,6.19,3.3,0,0,13.85,1.1,14.73,10.17Z"/><path class="cls-7" d="M174.57,117.76H73.35s4.91-32.43,37.83-29c0,0,2.46-25.55,24.57-17.2,0,0,10.32,3.93,8.35,17.2,0,0,2.95-5.4,10.32-2.95,0,0,5.4,2.46,4.42,7.86,0,0,9.83-3.44,10.32,5.9,0,0,23.09,2,24.57,18.18Z"/><path class="cls-6" d="M155.53,23.88a2.59,2.59,0,0,0-4-2.19,1,1,0,0,0-.4-.09,1.83,1.83,0,0,0-2.54-1.39,2.06,2.06,0,0,0-1.54-1.61A1.85,1.85,0,0,0,144.81,20c-.22-.1-.17.27-.43.27a1.79,1.79,0,0,0-1.28.54.72.72,0,0,0-1.15.57v0a2.33,2.33,0,0,0-2.07,2.32q0,.1,0,.19h15.64v0Z"/><path class="cls-6" d="M189.94,41.24h31.86S220.25,31,209.89,32.11c0,0-.77-8-7.73-5.41,0,0-3.25,1.24-2.63,5.41a2.57,2.57,0,0,0-3.25-.93,2.39,2.39,0,0,0-1.39,2.47s-3.09-1.08-3.25,1.86c0,0-7.27.62-7.73,5.72Z"/><path class="cls-8" d="M68.84,50.26h46S112.6,35.53,97.64,37.09c0,0-1.12-11.61-11.16-7.81,0,0-4.69,1.79-3.8,7.81,0,0-1.34-2.46-4.69-1.34,0,0-2.46,1.12-2,3.57,0,0-4.46-1.56-4.69,2.68,0,0-10.49.89-11.16,8.26Z"/><path class="cls-6" d="M89.64,77.26a4,4,0,0,1,6.15-3.4,1.6,1.6,0,0,1,.61-.14,2.84,2.84,0,0,1,3.94-2.15,3.19,3.19,0,0,1,2.4-2.5,2.87,2.87,0,0,1,3.53,2.16c.35-.16.26.41.67.41a2.77,2.77,0,0,1,2,.84,1.11,1.11,0,0,1,1.78.88v0a3.62,3.62,0,0,1,3.21,3.6q0,.15,0,.3H89.64s0,0,0-.05Z"/><path class="cls-9" d="M180.57,102.45l-27.31,0s-2-1.93,4.13-2.22c4.52-.21,4.15-.7,6.68-1.16s6.41-1.11,9.21,1.33c.57.5.47-1.13,3.06-1.13C179.56,99.22,182.07,101,180.57,102.45Z"/><path class="cls-6" d="M285.47,109.55h0a1.73,1.73,0,0,0-2.82,0h0l-1.41,2.18-1.41-2.18h0a1.73,1.73,0,0,0-2.82,0h0l-1.41,2.18-1.41-2.18h0a1.73,1.73,0,0,0-2.82,0h0L270,111.73l-1.41-2.18h0a1.73,1.73,0,0,0-2.82,0h0l-1.41,2.18-1.41-2.18h0a1.73,1.73,0,0,0-2.82,0h0l-1.41,2.18-1.41-2.18h0a1.73,1.73,0,0,0-2.82,0h0l-1.41,2.18-1.41-2.18h0a1.73,1.73,0,0,0-2.82,0h0l-1.41,2.18L246,109.55h0a1.73,1.73,0,0,0-2.82,0h0l-1.41,2.18-1.41-2.18h0a1.73,1.73,0,0,0-2.82,0h0l-1.41,2.18-1.41-2.18h0a1.73,1.73,0,0,0-2.82,0h0l-1.41,2.18-1.41-2.18h0a1.73,1.73,0,0,0-2.82,0h0l-1.41,2.18-1.41-2.18h0a1.73,1.73,0,0,0-2.82,0h0l-1.41,2.18-1.41-2.18h0a1.73,1.73,0,0,0-2.82,0h0l-1.41,2.18-1.41-2.18h0a1.73,1.73,0,0,0-2.82,0h0L208,111.73l-1.41-2.18h0a1.73,1.73,0,0,0-2.82,0h0l-1.41,2.18-1.41-2.18h0a1.73,1.73,0,0,0-2.82,0h0l-1.41,2.18-1.41-2.18h0a1.73,1.73,0,0,0-2.82,0h0l-1.41,2.18-1.41-2.18h0a1.73,1.73,0,0,0-2.82,0h0l-1.41,2.18L184,109.55h0a1.73,1.73,0,0,0-2.82,0h0l-1.41,2.18-1.41-2.18h0a1.73,1.73,0,0,0-2.82,0h0l-1.41,2.18-1.41-2.18h0a1.73,1.73,0,0,0-2.82,0h0l-1.41,2.18-1.41-2.18h0a1.73,1.73,0,0,0-2.82,0h0l-1.41,2.18-1.41-2.18h0a1.73,1.73,0,0,0-2.82,0h0l-1.41,2.18-1.41-2.18h0a1.73,1.73,0,0,0-2.82,0h0l-1.41,2.18-1.41-2.18h0a1.73,1.73,0,0,0-2.82,0h0L146,111.73l-1.41-2.18h0a1.73,1.73,0,0,0-2.82,0h0l-1.41,2.18-1.41-2.18h0a1.73,1.73,0,0,0-2.82,0h0l-1.41,2.18-1.41-2.18h0a1.73,1.73,0,0,0-2.82,0h0L129,111.73l-1.41-2.18h0a1.73,1.73,0,0,0-2.82,0h0l-1.41,2.18L122,109.55h0a1.73,1.73,0,0,0-2.82,0h0l-1.41,2.18-1.41-2.18h0a1.73,1.73,0,0,0-2.82,0h0l-1.41,2.18-1.41-2.18h0a1.73,1.73,0,0,0-2.82,0h0l-1.41,2.18-1.41-2.18h0a1.73,1.73,0,0,0-2.82,0h0l-1.41,2.18-1.41-2.18h0a1.73,1.73,0,0,0-2.82,0h0l-1.41,2.18-1.41-2.18h0a1.73,1.73,0,0,0-2.82,0h0l-1.41,2.18-1.41-2.18h0a1.73,1.73,0,0,0-2.82,0h0L84,111.73l-1.41-2.18h0a1.73,1.73,0,0,0-2.82,0h0l-1.41,2.18-1.41-2.18h0a1.73,1.73,0,0,0-2.82,0h0l-1.41,2.18-1.41-2.18h0a1.73,1.73,0,0,0-2.82,0h0L67,111.73l-1.41-2.18h0a1.73,1.73,0,0,0-2.82,0h0l-1.41,2.18L60,109.55h0a1.73,1.73,0,0,0-2.82,0h0l-1.41,2.18-1.41-2.18h0a1.73,1.73,0,0,0-2.82,0h0l-1.41,2.18-1.41-2.18h0a1.73,1.73,0,0,0-2.82,0h0l-1.41,2.18-1.41-2.18h0a1.73,1.73,0,0,0-2.82,0h0l-1.41,2.18-1.41-2.18h0a1.73,1.73,0,0,0-2.82,0h0l-1.41,2.18-1.41-2.18h0a1.73,1.73,0,0,0-2.82,0h0l-1.41,2.18-1.41-2.18h0a1.73,1.73,0,0,0-2.82,0h0l-1.41,2.18-1.41-2.18h0a1.73,1.73,0,0,0-2.82,0h0l-1.41,2.18v17.79H286.88V111.73Z"/><polygon class="cls-10" points="127.58 107.95 128.28 112.39 125.41 110.56 125.08 109.42 125.27 108.25 127.58 107.95"/><polygon class="cls-11" points="127.58 107.95 125.2 108.26 125.16 108.52 127.61 108.18 127.58 107.95"/><polygon class="cls-11" points="127.66 108.44 125.12 108.8 125.08 109.05 127.7 108.72 127.66 108.44"/><polygon class="cls-11" points="127.75 109.01 125.03 109.32 125.12 109.56 127.79 109.28 127.75 109.01"/><polygon class="cls-12" points="118.23 113.07 117.76 114.52 121.88 114.52 121.88 110.86 119.53 110.86 118.23 113.07"/><polygon class="cls-12" points="125.54 113.07 126.01 114.52 121.88 114.52 121.88 110.86 124.24 110.86 125.54 113.07"/><polygon class="cls-11" points="118.09 113.49 125.67 113.49 125.62 113.33 118.15 113.33 118.09 113.49"/><polygon class="cls-13" points="118.69 109.42 118.69 110.56 125.08 110.56 125.08 109.42 123.49 108.87 120.28 108.87 118.69 109.42"/><polygon class="cls-11" points="125.08 109.86 123.49 109.3 122.47 109.3 122.7 109.47 123.49 109.47 125.08 110.03 125.08 109.86"/><polygon class="cls-11" points="125.08 110.22 123.49 109.67 122.47 109.67 122.7 109.84 123.49 109.84 125.08 110.4 125.08 110.22"/><polygon class="cls-14" points="121.89 121.23 121.88 117.56 119.17 120.65 118.94 122.24 119.75 123.09 120.42 122.66 121 122.06 121.89 121.23"/><polygon class="cls-15" points="121.89 117.69 121.89 121.23 121.1 122.06 119.67 123.31 119.61 122.95 120.44 122.45 121.17 121.67 121.65 120.91 121.89 117.69"/><polygon class="cls-14" points="121.88 121.23 121.89 117.56 124.6 120.65 124.83 122.24 124.02 123.09 123.35 122.66 122.77 122.06 121.88 121.23"/><polygon class="cls-15" points="121.88 117.69 121.88 121.23 122.67 122.06 124.1 123.31 124.16 122.95 123.33 122.45 122.6 121.67 122.12 120.91 121.88 117.69"/><polygon class="cls-13" points="115.95 126.86 115.23 126.44 114.81 126.44 114.63 126.99 115.29 128.03 116.81 128.32 119.51 128.24 120.81 127.57 120.64 126.9 118.87 127.19 115.95 126.86"/><polygon class="cls-15" points="120.44 126.63 120.64 126.9 120.38 127.14 118.39 127.44 116.7 127.32 115.95 126.86 116.55 126.87 120.44 126.63"/><polygon class="cls-10" points="119.7 123.38 120.23 125.71 117.29 125.99 116.32 123.84 116.77 123.23 119.7 123.38"/><polygon class="cls-16" points="119.45 121.48 119.61 122.61 118.28 123.3 117.09 123.5 115.26 122.65 114.4 121.3 114.4 120.06 118.8 120.32 119.45 121.48"/><polygon class="cls-11" points="113.7 118.83 112.85 119.27 112.53 119.05 111.56 119.05 112.77 120.18 113.94 120.18 114.68 120.54 119.45 121.48 119.51 121.3 114.34 119.25 113.7 118.83"/><polygon class="cls-16" points="121.89 114.86 121.89 117.82 120.41 119.9 115.26 118.83 117.76 114.52 121.89 114.86"/><polygon class="cls-15" points="115.26 118.83 115.02 119.05 120.23 120.18 120.41 119.9 115.26 118.83"/><polygon class="cls-13" points="120.23 120.18 119.51 121.3 115.02 120.44 113.7 118.83 115.02 119.05 120.23 120.18"/><polygon class="cls-11" points="113.94 120.18 114.28 120.7 113.7 120.54 112.99 120.82 112.36 120.82 111.94 120.92 112.61 121.63 113.61 121.99 115.16 123.42 116.61 123.94 118.37 123.86 119.82 123.34 119.61 122.61 118 123.03 116.67 123.03 115.53 122.65 114.68 120.54 113.94 120.18"/><polygon class="cls-11" points="117.29 125.99 117.08 126.22 117.29 126.44 120.4 126.12 120.5 125.85 120.23 125.71 117.29 125.99"/><polygon class="cls-10" points="117.29 126.44 116.55 126.87 117.22 127.09 119.82 126.89 120.44 126.63 120.4 126.12 117.29 126.44"/><polygon class="cls-13" points="127.82 126.86 128.53 126.44 128.96 126.44 129.14 126.99 128.48 128.03 126.95 128.32 124.26 128.24 122.96 127.57 123.12 126.9 124.89 127.19 127.82 126.86"/><polygon class="cls-15" points="123.32 126.63 123.12 126.9 123.38 127.14 125.38 127.44 127.07 127.32 127.82 126.86 127.22 126.87 123.32 126.63"/><polygon class="cls-10" points="124.07 123.38 123.53 125.71 126.47 125.99 127.44 123.84 127 123.23 124.07 123.38"/><polygon class="cls-16" points="124.32 121.48 124.16 122.61 125.49 123.3 126.68 123.5 128.5 122.65 129.37 121.3 129.37 120.06 124.96 120.32 124.32 121.48"/><polygon class="cls-11" points="130.07 118.83 130.92 119.27 131.24 119.05 132.21 119.05 131 120.18 129.83 120.18 129.09 120.54 124.32 121.48 124.26 121.3 129.43 119.25 130.07 118.83"/><polygon class="cls-16" points="121.88 114.86 121.88 117.82 123.35 119.9 128.5 118.83 126.01 114.52 121.88 114.86"/><polygon class="cls-15" points="128.5 118.83 128.75 119.05 123.53 120.18 123.35 119.9 128.5 118.83"/><polygon class="cls-13" points="123.53 120.18 124.26 121.3 128.75 120.44 130.07 118.83 128.75 119.05 123.53 120.18"/><polygon class="cls-11" points="129.83 120.18 129.49 120.7 130.07 120.54 130.78 120.82 131.4 120.82 131.82 120.92 131.16 121.63 130.15 121.99 128.6 123.42 127.16 123.94 125.4 123.86 123.95 123.34 124.16 122.61 125.77 123.03 127.1 123.03 128.23 122.65 129.09 120.54 129.83 120.18"/><polygon class="cls-11" points="126.47 125.99 126.68 126.22 126.47 126.44 123.36 126.12 123.26 125.85 123.53 125.71 126.47 125.99"/><polygon class="cls-10" points="126.47 126.44 127.22 126.87 126.54 127.09 123.95 126.89 123.32 126.63 123.36 126.12 126.47 126.44"/><polygon class="cls-11" points="121.88 107.05 121.88 108.87 120.28 108.87 118.23 107.33 118.09 106.49 119.2 106.85 121.88 107.05"/><polygon class="cls-11" points="121.88 107.05 121.88 108.87 123.49 108.87 125.54 107.33 125.67 106.49 124.57 106.85 121.88 107.05"/><polygon class="cls-16" points="117.09 104.71 116.36 106.11 118.23 106.11 118.23 106.69 120.62 108.38 121.88 107.05 121.88 106.37 120.25 104.71 117.09 104.71"/><polygon class="cls-16" points="126.68 104.71 127.41 106.11 125.54 106.11 125.54 106.69 123.15 108.38 121.88 107.05 121.88 106.37 123.52 104.71 126.68 104.71"/><polygon class="cls-17" points="121.88 98.22 121.88 96.85 121.28 96.85 119.54 98.61 119.37 99.03 121.57 98.56 121.88 98.22"/><polygon class="cls-17" points="121.88 98.22 121.88 96.85 122.48 96.85 124.23 98.61 124.4 99.03 122.19 98.56 121.88 98.22"/><rect class="cls-12" x="121.75" y="102.89" width="0.42" height="1.45"/><polygon class="cls-11" points="119.62 99.67 119.58 99.98 119.32 99.83 118.94 98.88 118.61 98.79 118.7 99.03 118.76 99.91 118.99 100.42 118.86 100.38 119.08 101.19 119.58 101.41 119.94 101.21 119.94 99.91 119.62 99.67"/><polygon class="cls-11" points="124.15 99.69 124.19 99.99 124.45 99.84 124.83 98.9 125.16 98.81 125.07 99.04 125.01 99.92 124.78 100.43 124.91 100.39 124.69 101.2 124.19 101.42 123.83 101.22 123.83 99.92 124.15 99.69"/><polygon class="cls-11" points="119.58 99.43 119.37 99.03 119.69 98.57 120.97 98.22 121.88 98.22 121.88 98.7 121.88 98.95 119.58 99.43"/><polygon class="cls-11" points="124.18 99.43 124.4 99.03 124.07 98.57 122.8 98.22 121.88 98.22 121.88 98.7 121.88 98.95 124.18 99.43"/><polygon class="cls-12" points="121.88 103 121.88 104.34 120.44 104.34 120.44 102.96 121.9 102.96 121.88 103"/><polygon class="cls-12" points="121.9 103 121.9 104.34 123.34 104.34 123.34 102.96 121.88 102.96 121.9 103"/><polygon class="cls-18" points="121.88 100.59 121.83 100.73 121.89 100.72 121.94 100.73 121.94 100.58 121.88 100.59"/><polygon class="cls-18" points="121.84 98.7 121.96 98.7 121.96 99.35 121.75 99.07 121.84 98.7"/><path class="cls-18" d="M119.84,101l-.25-1.6s.31-.72,2.3-.72V101Z"/><path class="cls-18" d="M123.94,101l.25-1.6s-.31-.72-2.3-.72V101Z"/><path class="cls-19" d="M119.76,101.56l-.44,0a2.79,2.79,0,0,0,.77,1.47c.61.52.31.34,1.79,0v-1.35Z"/><path class="cls-19" d="M124,101.56l.44,0a2.79,2.79,0,0,1-.77,1.47c-.61.52-.31.34-1.79,0v-1.35Z"/><path class="cls-20" d="M119.78,101.73s-.2-1.26.54-1.31l.61.54-.23.38s-.81.39-.81.39Z"/><path class="cls-20" d="M124,101.73s.2-1.26-.54-1.31l-.61.54.23.38s.81.39.81.39Z"/><polygon class="cls-19" points="121.89 99.2 121.84 99.89 121.86 99.91 121.96 99.89 121.94 99.66 121.89 99.2"/><polygon class="cls-19" points="121.88 99.85 121.9 99.2 121.71 99.2 121.77 99.94 121.88 99.85"/><polygon class="cls-19" points="121.9 99.85 121.89 99.2 122.07 99.2 122.01 99.94 121.9 99.85"/><path class="cls-18" d="M120.1,101.73h-.55s.43,1.23,1,1.41.32-.35,1.31-.33l0-1.11Z"/><path class="cls-18" d="M123.69,101.73h.55s-.43,1.23-1,1.41-.32-.35-1.31-.33l0-1.11Z"/><path class="cls-21" d="M121.8,99.77a.41.41,0,0,1-.39-.21c-.16-.25-.41-.64-.66-.67s-.22.09-.22.09a.64.64,0,0,0-.42.43c-.09.34-.13.45-.27.29s-.4-.51-.46-.21a1.31,1.31,0,0,1,.4.36c.1.18.4,0,.43-.11s.14-.55.45-.59S121.3,100.05,121.8,99.77Z"/><path class="cls-21" d="M122,99.77a.41.41,0,0,0,.39-.21c.16-.25.41-.64.66-.67s.22.09.22.09a.64.64,0,0,1,.42.43c.09.34.13.45.27.29s.4-.51.46-.21a1.31,1.31,0,0,0-.4.36c-.1.18-.4,0-.43-.11s-.14-.55-.45-.59S122.48,100.05,122,99.77Z"/><path class="cls-22" d="M121.5,100.18s-.67-1-.84-.3l.31.12Z"/><path class="cls-23" d="M121.5,100.18s-.6-.79-.88-.24.15.77.15.77A3.29,3.29,0,0,1,121.5,100.18Z"/><ellipse class="cls-24" cx="120.97" cy="100.2" rx="0.23" ry="0.26"/><path class="cls-22" d="M122.27,100.18s.67-1,.84-.3l-.31.12Z"/><path class="cls-23" d="M122.27,100.18s.6-.79.88-.24-.15.77-.15.77A3.29,3.29,0,0,0,122.27,100.18Z"/><ellipse class="cls-24" cx="122.8" cy="100.2" rx="0.23" ry="0.26"/><path class="cls-25" d="M121.88,102v.14s-.23-.38-.61,0-.89.45-1.19.06-.5-1.48.5-1.19a2.15,2.15,0,0,1,1.27.74Z"/><path class="cls-25" d="M121.89,102v.14s.23-.38.61,0,.89.45,1.19.06.5-1.48-.5-1.19a2.15,2.15,0,0,0-1.27.74Z"/><path class="cls-12" d="M121.89,102v-1s-1.22-.07-1.43-.1-.64,0-.48.69.72.68,1.2.36S121.89,102,121.89,102Z"/><path class="cls-12" d="M121.89,102v-1s1.22-.07,1.43-.1.64,0,.48.69-.72.68-1.2.36S121.89,102,121.89,102Z"/><path class="cls-15" d="M121.89,100.72v.36l-1-.18s0-.32.21-.27A1.87,1.87,0,0,0,121.89,100.72Z"/><path class="cls-15" d="M121.89,101.45v-.33s-.91,0-.94,0-.23.09-.36.09-.3.2-.23.48.43.31.64.14.14-.44.24-.46A5.26,5.26,0,0,1,121.89,101.45Z"/><path class="cls-15" d="M121.89,100.72v.36l1-.18s0-.32-.21-.27A1.87,1.87,0,0,1,121.89,100.72Z"/><path class="cls-15" d="M121.89,101.45v-.33s.91,0,.94,0,.23.09.36.09.3.2.23.48-.43.31-.64.14-.14-.44-.24-.46A5.26,5.26,0,0,0,121.89,101.45Z"/><path class="cls-22" d="M123,101.23l-.26-.11H121l-.26.11c-.34,0-.38.13-.36.38s.4.25.55.18.18-.4.33-.45a3.4,3.4,0,0,0,1.2,0c.15.05.18.38.33.45s.54.07.55-.18S123.34,101.23,123,101.23Z"/><rect class="cls-26" x="121.41" y="100.96" width="0.96" height="0.22"/><polygon class="cls-19" points="121.41 100.97 121 100.79 120.88 101.08 121.14 101.27 121.41 101.19 121.41 100.97"/><path class="cls-26" d="M120.67,99.77s-.93.58.2,1.31l.12-.28S120.35,100.62,120.67,99.77Z"/><polygon class="cls-19" points="122.36 100.97 122.78 100.79 122.9 101.08 122.63 101.27 122.36 101.19 122.36 100.97"/><path class="cls-26" d="M123.1,99.77s.93.58-.2,1.31l-.12-.28S123.42,100.62,123.1,99.77Z"/><polygon class="cls-25" points="121.89 101.99 121.88 101.98 121.89 102.11 121.89 102.11 121.89 102.11 121.9 102.05 121.89 101.98 121.89 101.99"/><circle class="cls-10" cx="121.88" cy="100.24" r="0.39"/><rect class="cls-12" x="121.28" y="96.26" width="0.6" height="0.59"/><rect class="cls-12" x="121.88" y="96.26" width="0.6" height="0.59"/><polygon class="cls-17" points="121.88 94.55 121.88 94.01 121.65 94.01 120.95 94.71 120.89 94.87 121.76 94.69 121.88 94.55"/><polygon class="cls-17" points="121.88 94.55 121.88 94.01 122.12 94.01 122.81 94.71 122.88 94.87 122.01 94.69 121.88 94.55"/><polygon class="cls-11" points="120.99 95.13 120.97 95.25 120.87 95.19 120.72 94.81 120.59 94.78 120.62 94.87 120.65 95.22 120.74 95.42 120.68 95.41 120.77 95.73 120.97 95.81 121.11 95.74 121.11 95.22 120.99 95.13"/><polygon class="cls-11" points="122.78 95.13 122.8 95.25 122.9 95.19 123.05 94.82 123.18 94.78 123.14 94.88 123.12 95.22 123.03 95.43 123.08 95.41 123 95.73 122.8 95.82 122.65 95.74 122.65 95.22 122.78 95.13"/><polygon class="cls-11" points="120.97 95.03 120.89 94.87 121.02 94.69 121.52 94.55 121.88 94.55 121.88 94.74 121.88 94.84 120.97 95.03"/><polygon class="cls-11" points="122.79 95.03 122.88 94.87 122.75 94.69 122.25 94.55 121.88 94.55 121.88 94.74 121.88 94.84 122.79 95.03"/><polygon class="cls-18" points="121.88 95.49 121.86 95.55 121.88 95.54 121.91 95.55 121.91 95.48 121.88 95.49"/><polygon class="cls-18" points="121.87 94.74 121.91 94.74 121.91 95 121.83 94.89 121.87 94.74"/><path class="cls-18" d="M121.07,95.66,121,95s.12-.29.91-.29v.92Z"/><path class="cls-18" d="M122.7,95.66l.1-.63s-.12-.29-.91-.29v.92Z"/><path class="cls-19" d="M121,95.87h-.17a1.1,1.1,0,0,0,.31.58c.24.21.12.14.71,0v-.53Z"/><path class="cls-19" d="M122.73,95.87h.17a1.1,1.1,0,0,1-.31.58c-.24.21-.12.14-.71,0v-.53Z"/><path class="cls-20" d="M121,95.94s-.08-.5.21-.52l.24.22-.09.15-.32.15Z"/><path class="cls-20" d="M122.72,95.94s.08-.5-.21-.52l-.24.22.09.15.32.15Z"/><polygon class="cls-19" points="121.88 94.94 121.87 95.21 121.88 95.22 121.91 95.21 121.91 95.12 121.88 94.94"/><polygon class="cls-19" points="121.88 95.2 121.89 94.94 121.81 94.94 121.84 95.23 121.88 95.2"/><polygon class="cls-19" points="121.89 95.2 121.88 94.94 121.96 94.94 121.93 95.23 121.89 95.2"/><path class="cls-18" d="M121.18,95.94H121s.17.49.41.56.13-.14.52-.13v-.44Z"/><path class="cls-18" d="M122.6,95.94h.22s-.17.49-.41.56-.13-.14-.52-.13v-.44Z"/><path class="cls-21" d="M121.85,95.16a.16.16,0,0,1-.16-.08c-.06-.1-.16-.25-.26-.26s-.09,0-.09,0a.25.25,0,0,0-.17.17c0,.13-.05.18-.11.12s-.16-.2-.18-.08a.52.52,0,0,1,.16.14c0,.07.16,0,.17,0s.06-.22.18-.24S121.65,95.28,121.85,95.16Z"/><path class="cls-21" d="M121.92,95.16a.16.16,0,0,0,.16-.08c.06-.1.16-.25.26-.26s.09,0,.09,0a.25.25,0,0,1,.17.17c0,.13.05.18.11.12s.16-.2.18-.08a.52.52,0,0,0-.16.14c0,.07-.16,0-.17,0s-.06-.22-.18-.24S122.12,95.28,121.92,95.16Z"/><path class="cls-22" d="M121.73,95.33s-.27-.39-.33-.12l.12,0Z"/><path class="cls-23" d="M121.73,95.33s-.24-.31-.35-.09.06.31.06.31A1.3,1.3,0,0,1,121.73,95.33Z"/><ellipse class="cls-24" cx="121.52" cy="95.33" rx="0.09" ry="0.1"/><path class="cls-22" d="M122,95.33s.27-.39.33-.12l-.12,0Z"/><path class="cls-23" d="M122,95.33s.24-.31.35-.09-.06.31-.06.31A1.3,1.3,0,0,0,122,95.33Z"/><ellipse class="cls-24" cx="122.24" cy="95.34" rx="0.09" ry="0.1"/><path class="cls-25" d="M121.88,96v.06s-.09-.15-.24,0-.35.18-.47,0-.2-.58.2-.47a.85.85,0,0,1,.5.29Z"/><path class="cls-25" d="M121.89,96v.06s.09-.15.24,0,.35.18.47,0,.2-.58-.2-.47a.85.85,0,0,0-.5.29Z"/><path class="cls-12" d="M121.88,96v-.38l-.57,0c-.08,0-.25,0-.19.27s.29.27.47.14S121.88,96,121.88,96Z"/><path class="cls-12" d="M121.88,96v-.38l.57,0c.08,0,.25,0,.19.27s-.29.27-.47.14S121.88,96,121.88,96Z"/><path class="cls-15" d="M121.88,95.54v.14l-.39-.07s0-.13.08-.11A.74.74,0,0,0,121.88,95.54Z"/><path class="cls-15" d="M121.88,95.83V95.7h-.37s-.09,0-.14,0-.12.08-.09.19.17.12.25.06.06-.18.09-.18A2.08,2.08,0,0,1,121.88,95.83Z"/><path class="cls-15" d="M121.88,95.54v.14l.39-.07s0-.13-.08-.11A.74.74,0,0,1,121.88,95.54Z"/><path class="cls-15" d="M121.88,95.83V95.7h.37s.09,0,.14,0,.12.08.09.19-.17.12-.25.06-.06-.18-.09-.18A2.08,2.08,0,0,0,121.88,95.83Z"/><path class="cls-22" d="M122.33,95.74l-.1,0h-.68l-.1,0c-.13,0-.15.05-.14.15s.16.1.22.07.07-.16.13-.18a1.35,1.35,0,0,0,.48,0c.06,0,.07.15.13.18s.21,0,.22-.07S122.46,95.74,122.33,95.74Z"/><rect class="cls-26" x="121.69" y="95.64" width="0.38" height="0.09"/><polygon class="cls-19" points="121.69 95.64 121.53 95.57 121.48 95.68 121.59 95.76 121.69 95.73 121.69 95.64"/><path class="cls-26" d="M121.4,95.16s-.37.23.08.52l0-.11S121.28,95.5,121.4,95.16Z"/><polygon class="cls-19" points="122.07 95.64 122.24 95.57 122.28 95.68 122.18 95.76 122.07 95.73 122.07 95.64"/><path class="cls-26" d="M122.36,95.16s.37.23-.08.52l0-.11S122.49,95.5,122.36,95.16Z"/><polygon class="cls-25" points="121.88 96.04 121.88 96.04 121.88 96.09 121.88 96.09 121.88 96.09 121.89 96.07 121.89 96.04 121.88 96.04"/><circle class="cls-10" cx="121.88" cy="95.35" r="0.15"/><rect class="cls-12" x="121.65" y="93.64" width="0.47" height="0.37"/><polygon class="cls-17" points="121.89 92.9 121.89 92.68 121.79 92.68 121.5 92.97 121.48 93.03 121.83 92.96 121.89 92.9"/><polygon class="cls-17" points="121.89 92.9 121.89 92.68 121.98 92.68 122.27 92.97 122.3 93.03 121.94 92.96 121.89 92.9"/><polygon class="cls-11" points="121.52 93.14 121.51 93.19 121.47 93.16 121.41 93.01 121.35 93 121.37 93.03 121.38 93.18 121.41 93.26 121.39 93.25 121.43 93.39 121.51 93.42 121.57 93.39 121.57 93.18 121.52 93.14"/><polygon class="cls-11" points="122.25 93.14 122.26 93.19 122.31 93.17 122.37 93.01 122.42 93 122.41 93.04 122.39 93.18 122.36 93.26 122.38 93.26 122.34 93.39 122.26 93.42 122.2 93.39 122.2 93.18 122.25 93.14"/><polygon class="cls-11" points="121.51 93.1 121.48 93.03 121.53 92.96 121.74 92.9 121.89 92.9 121.89 92.98 121.89 93.02 121.51 93.1"/><polygon class="cls-11" points="122.26 93.1 122.3 93.03 122.24 92.96 122.03 92.9 121.89 92.9 121.89 92.98 121.89 93.02 122.26 93.1"/><polygon class="cls-18" points="121.89 93.29 121.88 93.31 121.89 93.31 121.89 93.31 121.89 93.29 121.89 93.29"/><polygon class="cls-18" points="121.88 92.98 121.9 92.98 121.9 93.09 121.86 93.04 121.88 92.98"/><path class="cls-18" d="M121.55,93.36l0-.26s.05-.12.38-.12v.38Z"/><path class="cls-18" d="M122.22,93.36l0-.26s-.05-.12-.38-.12v.38Z"/><path class="cls-19" d="M121.54,93.45h-.07a.45.45,0,0,0,.13.24c.1.09.05.06.29,0v-.22Z"/><path class="cls-19" d="M122.23,93.45h.07a.45.45,0,0,1-.13.24c-.1.09-.05.06-.29,0v-.22Z"/><path class="cls-20" d="M121.54,93.47s0-.21.09-.21l.1.09,0,.06-.13.06Z"/><path class="cls-20" d="M122.23,93.47s0-.21-.09-.21l-.1.09,0,.06.13.06Z"/><polygon class="cls-19" points="121.89 93.06 121.88 93.17 121.88 93.18 121.9 93.17 121.9 93.14 121.89 93.06"/><polygon class="cls-19" points="121.89 93.17 121.89 93.06 121.86 93.06 121.87 93.18 121.89 93.17"/><polygon class="cls-19" points="121.89 93.17 121.89 93.06 121.92 93.06 121.91 93.18 121.89 93.17"/><path class="cls-18" d="M121.6,93.47h-.09s.07.2.17.23.05-.06.21-.05v-.18Z"/><path class="cls-18" d="M122.18,93.47h.09s-.07.2-.17.23-.05-.06-.21-.05v-.18Z"/><path class="cls-21" d="M121.87,93.15a.07.07,0,0,1-.06,0s-.07-.1-.11-.11,0,0,0,0a.1.1,0,0,0-.07.07c0,.05,0,.07,0,0s-.07-.08-.08,0a.21.21,0,0,1,.07.06s.07,0,.07,0,0-.09.07-.1S121.79,93.2,121.87,93.15Z"/><path class="cls-21" d="M121.9,93.15a.07.07,0,0,0,.06,0s.07-.1.11-.11,0,0,0,0a.1.1,0,0,1,.07.07c0,.05,0,.07,0,0s.07-.08.08,0a.21.21,0,0,0-.07.06s-.07,0-.07,0,0-.09-.07-.1S122,93.2,121.9,93.15Z"/><path class="cls-22" d="M121.82,93.22s-.11-.16-.14,0l.05,0Z"/><path class="cls-23" d="M121.82,93.22s-.1-.13-.14,0,0,.13,0,.13A.54.54,0,0,1,121.82,93.22Z"/><ellipse class="cls-24" cx="121.74" cy="93.22" rx="0.04" ry="0.04"/><path class="cls-22" d="M121.95,93.22s.11-.16.14,0l-.05,0Z"/><path class="cls-23" d="M121.95,93.22s.1-.13.14,0,0,.13,0,.13A.54.54,0,0,0,121.95,93.22Z"/><ellipse class="cls-24" cx="122.03" cy="93.23" rx="0.04" ry="0.04"/><path class="cls-25" d="M121.89,93.51v0s0-.06-.1,0-.14.07-.19,0-.08-.24.08-.19a.35.35,0,0,1,.21.12Z"/><path class="cls-25" d="M121.89,93.51v0s0-.06.1,0,.14.07.19,0,.08-.24-.08-.19a.35.35,0,0,0-.21.12Z"/><path class="cls-12" d="M121.89,93.52v-.16l-.23,0s-.1,0-.08.11.12.11.2.06S121.89,93.52,121.89,93.52Z"/><path class="cls-12" d="M121.89,93.52v-.16l.23,0s.1,0,.08.11-.12.11-.2.06S121.89,93.52,121.89,93.52Z"/><path class="cls-15" d="M121.89,93.31v.06l-.16,0s0-.05,0,0A.3.3,0,0,0,121.89,93.31Z"/><path class="cls-15" d="M121.89,93.43v-.05h-.21s0,0,0,.08.07.05.1,0,0-.07,0-.07Z"/><path class="cls-15" d="M121.89,93.31v.06l.16,0s0-.05,0,0A.3.3,0,0,1,121.89,93.31Z"/><path class="cls-15" d="M121.89,93.43v-.05h.21s0,0,0,.08-.07.05-.1,0,0-.07,0-.07Z"/><path class="cls-22" d="M122.07,93.39l0,0h-.28l0,0c-.05,0-.06,0-.06.06s.07,0,.09,0,0-.06.05-.07a.55.55,0,0,0,.2,0s0,.06.05.07.09,0,.09,0S122.12,93.39,122.07,93.39Z"/><rect class="cls-26" x="121.81" y="93.35" width="0.16" height="0.04"/><polygon class="cls-19" points="121.81 93.35 121.74 93.32 121.72 93.37 121.77 93.4 121.81 93.39 121.81 93.35"/><path class="cls-26" d="M121.69,93.15s-.15.1,0,.21l0,0S121.64,93.29,121.69,93.15Z"/><polygon class="cls-19" points="121.96 93.35 122.03 93.32 122.05 93.37 122.01 93.4 121.96 93.39 121.96 93.35"/><path class="cls-26" d="M122.08,93.15s.15.1,0,.21l0,0S122.14,93.29,122.08,93.15Z"/><polygon class="cls-25" points="121.89 93.52 121.89 93.52 121.89 93.54 121.89 93.54 121.89 93.54 121.89 93.53 121.89 93.52 121.89 93.52"/><circle class="cls-10" cx="121.89" cy="93.23" r="0.06"/><polygon class="cls-11" points="121.89 92.68 121.89 90.72 121.79 92.68 121.89 92.68"/><polygon class="cls-11" points="121.89 92.68 121.89 90.72 121.98 92.68 121.89 92.68"/><polygon class="cls-11" points="121.79 92.68 121.98 92.68 121.89 90.72 121.79 92.68"/><polygon class="cls-11" points="126.76 102.57 125.38 104.34 121.89 104.34 121.88 104.34 118.39 104.34 117 102.57 116.71 102.43 116.95 103.51 117.08 104.71 118.39 105.56 119.06 106.49 120.43 105.93 121.88 106.75 121.88 106.75 121.89 106.75 121.89 106.75 123.33 105.93 124.71 106.49 125.38 105.56 126.68 104.71 126.82 103.51 127.06 102.43 126.76 102.57"/><polygon class="cls-13" points="118.23 106.11 118.23 106.69 118.5 108.25 115.7 107.89 116.15 107.46 116.36 106.11 118.23 106.11"/><polygon class="cls-11" points="116.36 106.11 116.33 106.31 118.23 106.31 118.23 106.11 116.36 106.11"/><polygon class="cls-13" points="125.54 106.11 125.54 106.69 125.27 108.25 128.07 107.88 127.61 107.45 127.41 106.11 125.54 106.11"/><polygon class="cls-11" points="127.41 106.11 127.44 106.31 125.54 106.31 125.54 106.11 127.41 106.11"/><polygon class="cls-12" points="120.28 108.87 118.69 109.42 118.5 108.25 118.36 107.43 120.28 108.87"/><polygon class="cls-12" points="123.49 108.87 125.08 109.42 125.27 108.25 125.41 107.43 123.49 108.87"/><polygon class="cls-10" points="116.19 107.95 115.48 112.39 118.36 110.56 118.69 109.42 118.5 108.25 116.19 107.95"/><polygon class="cls-18" points="121.26 111.89 117.09 113.52 116.21 113.52 115.48 112.97 115.48 112.39 116.45 111.32 118.36 110.56 120.53 109.86 121.26 111.89"/><polygon class="cls-18" points="122.51 111.89 126.68 113.52 127.56 113.52 128.28 112.97 128.28 112.39 127.32 111.31 125.41 110.56 123.24 109.86 122.51 111.89"/><polygon class="cls-11" points="121.88 114.52 117.76 114.52 120.53 114.89 119.55 116.98 117.76 117.3 116.71 117.52 116.11 118.03 117.1 117.86 118.5 118.24 119.99 117.76 120.91 116.6 121.37 114.86 121.88 114.86 121.88 114.52"/><polygon class="cls-11" points="121.89 114.52 126.01 114.52 123.24 114.89 124.22 116.98 126.01 117.3 127.06 117.52 127.66 118.03 126.67 117.86 125.27 118.24 123.78 117.76 122.86 116.6 122.4 114.86 121.89 114.86 121.89 114.52"/><polyline class="cls-13" points="121.33 108.45 121.21 108.19 121.41 107.81 121.89 107.81 121.89 108.45 121.33 108.45"/><polyline class="cls-13" points="122.45 108.45 122.56 108.19 122.37 107.81 121.89 107.81 121.89 108.45 122.45 108.45"/><polygon class="cls-27" points="121.41 107.81 121.89 107.68 121.89 107.81 121.41 107.81"/><polygon class="cls-27" points="122.37 107.81 121.89 107.68 121.89 107.81 122.37 107.81"/><polygon class="cls-27" points="121.33 108.97 121.33 108.45 122.45 108.45 122.45 128.03 121.58 128.03 121.33 108.97"/><polygon class="cls-10" points="122.59 111.65 121.82 111.35 121.49 110.97 123 110.53 122.59 111.65"/><polygon class="cls-18" points="123 110.53 122.51 111.89 122.87 112.03 123.18 111.04 123 110.53"/><polygon class="cls-10" points="121.45 111.42 123.15 110.49 123.29 110.38 122.56 110.22 121.26 110.56 121.15 111.32 121.45 111.42"/><polygon class="cls-15" points="118.69 109.42 120.28 108.87 121.33 108.87 121.33 109.01 120.28 109.02 118.69 109.59 118.69 109.42"/><polygon class="cls-15" points="125.08 109.42 123.49 108.87 122.45 108.87 122.45 109.01 123.49 109.02 125.08 109.59 125.08 109.42"/><polygon class="cls-15" points="115.7 107.89 116.15 107.46 118.4 107.68 118.5 108.25 115.7 107.89"/><polygon class="cls-15" points="128.07 107.88 127.61 107.45 125.36 107.68 125.27 108.25 128.07 107.88"/><polygon class="cls-10" points="118.23 106.69 116.27 106.69 116.23 106.92 118.27 106.92 118.23 106.69"/><polygon class="cls-10" points="125.54 106.69 127.5 106.69 127.53 106.92 125.5 106.92 125.54 106.69"/><polygon class="cls-13" points="121.9 104.34 118.39 104.34 117 102.57 116.87 102.51 117.1 103.49 117.25 104.71 118.44 105.45 119.08 106.32 120.44 105.8 121.89 106.6 121.9 104.34"/><polygon class="cls-13" points="121.87 104.34 125.38 104.34 126.76 102.57 126.89 102.51 126.67 103.49 126.52 104.71 125.33 105.45 124.69 106.32 123.32 105.8 121.87 106.6 121.87 104.34"/><polygon class="cls-11" points="118.69 109.86 120.28 109.3 121.3 109.3 121.06 109.47 120.28 109.47 118.69 110.03 118.69 109.86"/><polygon class="cls-11" points="118.69 110.22 120.28 109.67 121.3 109.67 121.06 109.84 120.28 109.84 118.69 110.4 118.69 110.22"/><polygon class="cls-10" points="120.53 109.86 121.75 108.97 122.83 108.93 123.34 109.27 123.31 109.51 123.49 109.69 123.44 109.86 123.36 109.89 123.36 110.1 123.3 110.17 123.29 110.38 123.15 110.49 122.03 110.82 121.42 110.99 121.41 111.32 121.45 111.42 121.19 111.69 120.53 109.86"/><polygon class="cls-11" points="116.16 108.13 118.53 108.45 118.57 108.7 116.12 108.36 116.16 108.13"/><polygon class="cls-11" points="116.08 108.63 118.62 108.99 118.66 109.23 116.04 108.91 116.08 108.63"/><polygon class="cls-11" points="115.99 109.19 118.67 109.5 118.6 109.74 115.95 109.47 115.99 109.19"/><rect class="cls-11" x="111.66" y="128" width="20.45" height="1.53"/><rect class="cls-28" x="144.14" y="108.08" width="0.37" height="16.16"/><polygon class="cls-28" points="144.32 129.51 144.32 122.11 143.88 122.11 143.43 129.51 144.32 129.51"/><polygon class="cls-28" points="144.3 129.51 144.3 122.11 144.75 122.11 145.2 129.51 144.3 129.51"/><rect class="cls-28" x="140.42" y="105.42" width="7.8" height="2.67"/><rect class="cls-29" x="140.62" y="105.58" width="7.4" height="2.34"/><rect class="cls-28" x="140.42" y="104.97" width="0.2" height="3.55"/><rect class="cls-28" x="148.03" y="105.06" width="0.2" height="3.55"/><polygon class="cls-28" points="144.32 105.42 144.32 104.7 144.14 104.7 143.59 105.42 144.32 105.42"/><polygon class="cls-28" points="144.32 105.42 144.32 104.7 144.51 104.7 145.06 105.42 144.32 105.42"/><polygon class="cls-28" points="144.14 104.7 144.32 103.67 144.32 104.7 144.14 104.7"/><polygon class="cls-28" points="144.51 104.7 144.32 103.67 144.32 104.7 144.51 104.7"/><path class="cls-30" d="M141.59,107.13h-.23l-.05,0a.05.05,0,0,1,0,0,0,0,0,0,1,0,0l0,0,0,0a.81.81,0,0,0,0-.1q0-.12,0-.3a.27.27,0,0,0,0-.09l0,0a0,0,0,0,1,0,0,0,0,0,0,1,0,0l.06,0h.5l.08,0a.15.15,0,0,1,.05.12.18.18,0,0,1,0,.07l0,.06,0,0,0,0a.21.21,0,0,1,.08.06.17.17,0,0,1,0,.11.22.22,0,0,1-.06.15.29.29,0,0,1-.23.09h-.19Zm0-.6v.11a.08.08,0,0,0,0,0h0a.07.07,0,0,0,.06,0,.13.13,0,0,0,0-.08.14.14,0,0,0,0-.08.07.07,0,0,0-.06,0h0A.07.07,0,0,0,141.63,106.53Zm0,.32v.05a.28.28,0,0,0,0,.1,0,0,0,0,0,0,0q.08,0,.08-.1t-.09-.12h0A.06.06,0,0,0,141.63,106.85Z"/><path class="cls-30" d="M142.81,106.75l.1.22,0,0h0s0,0,0,0,0,0,0,.06l-.16,0h-.19l0,0a0,0,0,0,1,0,0,0,0,0,0,1,0,0l0,0s0,0,0,0,0,0,0,0h-.22l0,0v0h0a0,0,0,0,1,0,0s-.05.07-.16.07h-.13a0,0,0,0,1,0-.05,0,0,0,0,1,0,0l0,0,.05,0,.05-.1.08-.17.06-.14a.32.32,0,0,0,0-.09.29.29,0,0,1,0-.07l0,0a.13.13,0,0,1,.1,0,.16.16,0,0,1,.11,0A1.24,1.24,0,0,1,142.81,106.75Zm-.39.07h.14a.29.29,0,0,0,0-.09l0,0h0s0,0,0,0l0,0,0,.07Z"/><path class="cls-30" d="M143.34,106.4l.28.24.06,0s0,0,0-.06a.36.36,0,0,0,0-.1.06.06,0,0,0,0,0l0,0a0,0,0,0,1,0,0s0-.05.06-.06h.21s.05,0,.05.06a.06.06,0,0,1,0,.05h0v0a.43.43,0,0,0,0,.14v.18s0,.07,0,.11a.56.56,0,0,1,0,.14s0,.05-.05.05h0l0,0-.33-.29-.06,0s0,0,0,.09a.43.43,0,0,0,0,.11.07.07,0,0,0,0,0,.05.05,0,0,1,0,0q0,.08-.17.08l-.12,0a.06.06,0,0,1,0-.06,0,0,0,0,1,0,0l0,0a.07.07,0,0,0,0-.05,1.69,1.69,0,0,0,0-.21.93.93,0,0,0,0-.21l0,0,0,0,0,0a0,0,0,0,1,0,0s0-.06.09-.07h.17Z"/><path class="cls-30" d="M144.38,106.36l.14,0h.11a.08.08,0,0,1,.06,0,.21.21,0,0,1,0,.13.12.12,0,0,1,0,.08.08.08,0,0,1-.06,0l-.06,0,0-.05a.18.18,0,0,0-.14-.07.14.14,0,0,0-.11.05.22.22,0,0,0,0,.14.37.37,0,0,0,.07.23l.06.05.07,0,0,0a.07.07,0,0,0,0,0,0,0,0,0,0,0,0h0l0,0a.05.05,0,0,1,0,0s0-.05.06-.07l.15,0,.16,0s.06,0,.06.07a0,0,0,0,1,0,0l0,0h0v0a.29.29,0,0,1-.09.15l-.11.06-.14,0a.45.45,0,0,1-.22-.06.39.39,0,0,1-.2-.34.36.36,0,0,1,.05-.19.39.39,0,0,1,.16-.15A.44.44,0,0,1,144.38,106.36Z"/><path class="cls-30" d="M145.5,106.52l-.06.06a.08.08,0,0,0,0,.06v0l0,0,.21.24,0,0,0,0,0,0a.06.06,0,0,1,0,0s0,.06-.08.06h-.24l0,0-.11-.14,0,0h0s0,0,0,.06a.09.09,0,0,0,0,.07h0a.06.06,0,0,1,0,0s0,0,0,.05l-.16,0h-.15l0,0a0,0,0,0,1,0,0,.06.06,0,0,1,0-.05l0,0v0a1.23,1.23,0,0,0,0-.19,1.42,1.42,0,0,0,0-.22v0l0,0a.05.05,0,0,1,0,0,.05.05,0,0,1,0,0l.06,0h.14l.13,0a.06.06,0,0,1,0,.06,0,0,0,0,1,0,0l0,0,0,0a.23.23,0,0,0,0,.06s0,0,0,0h0l0-.06a.16.16,0,0,0,0-.07v-.06a.06.06,0,0,1,0-.06l.15,0h.13a.06.06,0,0,1,.05.06.06.06,0,0,1,0,0l0,0h-.1Z"/><path class="cls-30" d="M146.18,106.36a.4.4,0,0,1,.25.08.42.42,0,0,1,.12.15.4.4,0,0,1,0,.18.35.35,0,0,1-.09.23.4.4,0,0,1-.19.13l-.15,0a.44.44,0,0,1-.18,0,.37.37,0,0,1-.17-.15.39.39,0,0,1-.06-.21.38.38,0,0,1,.25-.36A.47.47,0,0,1,146.18,106.36Zm-.05.16a.08.08,0,0,0-.07,0,.13.13,0,0,0,0,.07.5.5,0,0,0,0,.14.65.65,0,0,0,.06.15l0,0,.05,0a.08.08,0,0,0,.07,0,.13.13,0,0,0,0-.08.54.54,0,0,0,0-.14.5.5,0,0,0-.06-.13l0-.05Z"/><path class="cls-30" d="M147.28,106.52l-.06.06a.08.08,0,0,0,0,.06v0l0,0,.21.24,0,0,0,0,0,0a.06.06,0,0,1,0,0s0,.06-.08.06h-.24l0,0-.11-.14,0,0h0s0,0,0,.06a.09.09,0,0,0,0,.07h0a.06.06,0,0,1,0,0s0,0,0,.05l-.16,0h-.15l0,0a0,0,0,0,1,0,0,.06.06,0,0,1,0-.05l0,0v0a1.23,1.23,0,0,0,0-.19,1.42,1.42,0,0,0,0-.22v0l0,0a.05.05,0,0,1,0,0,.05.05,0,0,1,0,0l.06,0h.14l.13,0a.06.06,0,0,1,0,.06,0,0,0,0,1,0,0l0,0,0,0a.23.23,0,0,0,0,.06s0,0,0,0h0l0-.06a.16.16,0,0,0,0-.07v-.06a.06.06,0,0,1,0-.06l.15,0h.13a.06.06,0,0,1,.05.06.06.06,0,0,1,0,0l0,0h-.1Z"/><g class="cls-31"><polygon class="cls-32" points="125.09 109.49 125.09 109.63 125.09 109.9 125.09 110.08 125.09 110.27 125.09 110.45 125.09 110.49 125.43 110.6 125.14 109.6 125.09 109.49"/><polygon class="cls-33" points="121.9 90.77 121.9 90.77 121.9 90.77 121.9 90.77"/><polygon class="cls-34" points="118.63 109.71 118.37 110.6 118.7 110.5 118.7 110.45 118.7 110.27 118.7 110.08 118.7 109.9 118.7 109.63 118.7 109.46 118.68 109.54 118.63 109.71"/><polygon class="cls-35" points="116.21 107.99 116.21 107.99 118.52 108.29 116.21 107.99"/><path class="cls-36" d="M121.9,90.77h0l-.1,2-.28.29,0,.07,0,.07h0s0,0,0,0l0,0v0l0,0-.06-.15h-.05l0,0v.14l0,.08h0l0,.13.08,0h0s0,0,0,0h-.07a.45.45,0,0,0,.13.24l.05,0v.28l-.69.7-.07.16.08.16h0s-.07,0-.08,0l.1.07,0,.12-.11-.06-.15-.37-.13,0,0,.09,0,.35.09.2-.05,0,.09.32.2.09.07,0s0,.07,0,.1h-.18a1.1,1.1,0,0,0,.31.58l.11.09v.31l-1.74,1.76-.17.41.21.4c-.1-.08-.18-.09-.21.06a1.84,1.84,0,0,1,.25.18l0,.31-.27-.15-.37-.94-.34-.09.09.23.06.88.23.52-.13,0,.22.8.51.22.17-.09c0,.09,0,.18,0,.24l-.44,0a2.79,2.79,0,0,0,.77,1.47,2.94,2.94,0,0,0,.35.28v1.06H118.4L117,102.62l-.13-.06-.17-.08.24,1.08.13,1.19h0l-.73,1.41,0,.19-.06.38,0,.2-.08.56-.46.43.49.06h0l2.31.3-2.31-.3,0,.25,0,.17-.64,4V113l.72.54h.88l1.14-.45-.47,1.45-2.49,4.31-.24.22-1.32-.22-.85.44-.32-.22h-1l1.21,1.13H114l.34.52-.58-.16-.71.28h-.62l-.42.1.66.7,1,.36,1.55,1.43,1.16.42,1,2.16-.21.23.21.22-.74.42H116l-.71-.41h-.42l-.18.54.64,1h-3.61v1.53H121.9V90.77Zm-3.53,16.69,0,.26Zm2.53,3.43-.11-.3Zm-2.2-1.27v.86l-.33.11.26-.9,0-.16,0-.08ZM120,128l.84-.43-.16-.67-.2-.27,0-.5.1-.27-.27-.14-.54-2.33.12,0,0-.13.63-.55h0l.69-.6.39-.41.09,6.36Z"/></g><polygon class="cls-37" points="144.14 104.7 143.59 105.42 140.62 105.42 140.62 104.97 140.42 104.97 140.42 105.42 140.42 108.08 140.42 108.53 140.62 108.53 140.62 108.08 144.14 108.08 144.14 122.11 143.88 122.11 143.43 129.51 144.3 129.51 144.32 129.51 144.32 103.67 144.14 104.7"/><rect class="cls-38" x="16.17" y="129.32" width="270.72" height="7.89"/><path class="cls-9" d="M36.81,103.81H20.88c5.56-3.38,4.29-8.32,3.18-10.43a4.45,4.45,0,0,0-.78-.95l0,0a7.06,7.06,0,0,0-2.89-2,2.17,2.17,0,0,0-.42-.1A8,8,0,0,0,17.46,90H16.31v12h1.15c.18,0,.36-.15.54-.16a11.93,11.93,0,0,1-1.69,1v9H36.81a4,4,0,1,0,0-8Z"/><path class="cls-39" d="M187.26,119.15c-.54-.64,1.08-8.26,1.08-8.26l.47.17c0-.49.07-.81.07-.81a23,23,0,0,0,6.76-3.81l-.54-1c-1.08,1.27-7.3,3.81-7.3,3.81s.27,5.72-2.43,7.63-5.95-2.54-5.95-2.54l-.81,1.59a46,46,0,0,1,5.95,4.77c2.16,2.23-.08,8.58-.08,8.58l2.11,0C187.27,127.27,187.76,119.73,187.26,119.15Z"/><path class="cls-40" d="M194.48,110.2a6.23,6.23,0,0,0,2.12-.67h2.84l-2.18-3.45c0-1.53-2-1.53-2-1.53a2,2,0,0,0-1.63-1.92,1.53,1.53,0,0,0-2,1.15s.33-3.06-2.61-3.06-2,3.83-2,3.83-.33-1.15-2-.77-.65,2.68-.65,2.68c-2.77,0-2,2.74-2,3a1.44,1.44,0,0,0,.71,1.38c1.11.78,2.91-.66,3.66-1.35h1a7.13,7.13,0,0,0,2.77.67,2.2,2.2,0,0,0,1.81-.67h.77Z"/><path class="cls-40" d="M182.94,115.77c0-.83-.86-.81-.86-.81a.59.59,0,0,0-.1-.81c-.27-.2-.59.2-.59.2s.34-1.42-.69-1.62-1.2,1-1.2,1-.17-.4-.52-.2a.49.49,0,0,0-.17.61.6.6,0,0,0-.52-.4c-.86-.2-.86,1.21-.86,1.21-.69-.16-.93.58-1,.89a.36.36,0,0,0,0,.13c0,.51,1.52.26,1.52,0a2.84,2.84,0,0,0,1.74.26l.65-.26h1a1.42,1.42,0,0,0,.79.26.87.87,0,0,0,.84-.38A.1.1,0,0,0,182.94,115.77Z"/><path class="cls-39" d="M23.38,129.38l0,0,4.05-.06v0Z"/><path class="cls-41" d="M55.08,69.71H36.43s-1.09.42-1.09,1.25,1.34.92,1.34.92h10.7s1.34.25,1.51,1.17-1.42,1.09-1.42,1.09H30A1.77,1.77,0,0,0,28.32,76c0,1.76,2,1.59,2,1.59h9.45s1.25,0,1.25,1.17-1.25.92-1.25.92H31.16s-1.17.33-1,1.42a1.16,1.16,0,0,0,1.09,1.09H70S72,82.5,72,81.25s-2.09-1-2.09-1H60.6s-1.34.08-1.34-.92,1.34-.92,1.34-.92h8.53a1.47,1.47,0,0,0,1.25-1.51c0-1.34-1.59-1.42-1.59-1.42H60.51s-.92.17-.92-1,1.67-.84,1.67-.84h4.85a2.17,2.17,0,0,0,2.34-2.34s.17-1.59-2.59-1.59Z"/><path class="cls-42" d="M198.69,63.64H188.33a1.54,1.54,0,1,1,0-3H196a1.2,1.2,0,1,0,0-2.36H155.63a1.2,1.2,0,1,0,0,2.36h12a1.54,1.54,0,1,1,0,3H151a1.34,1.34,0,1,0,0,2.62h47.72a1.34,1.34,0,1,0,0-2.62Z"/><path class="cls-43" d="M123.22,157.52H82.58a2.46,2.46,0,0,1-2.47-2.28c-.08-1.44,1.09-3,6.66-3H118.4c.38,0,2.06-.1,2.06,1,0,0,.12.73-1.88.52h-8.81a1.1,1.1,0,0,0-1.26,1.14,1,1,0,0,0,1.29,1h13l.28,0c.25,0,.92,0,.92.9A.74.74,0,0,1,123.22,157.52Z"/><rect class="cls-43" x="146.31" y="155.12" width="14.24" height="2.54" rx="1.21" ry="1.21"/><rect class="cls-43" x="113.59" y="144.69" width="14.24" height="2.54" rx="1.21" ry="1.21"/><path class="cls-44" d="M16.31,87.57s5.78,3.93,8.88,15.33c3.53,13,9.59,25.72,11.14,26.42h-20Z"/><path class="cls-1" d="M20,110.25h-.89c-.54.37-1.46.9-2.1.67a4,4,0,0,1-.72-.34V112l.21-.06c1.28-.25,1.49,1.26,1.49,1.26s.21-.5.64-.25a.61.61,0,0,1,.21.75.75.75,0,0,1,.64-.5c1.07-.25,1.07,1.51,1.07,1.51,1.07-.25,1.28,1.26,1.28,1.26a.71.71,0,0,1-.58.67c1.92.86,3.91,1.22,4.09.57a4.79,4.79,0,0,0,.08-1c0-1.45-.18-3.87-.28-5.12A10,10,0,0,1,20,110.25Z"/><path class="cls-39" d="M34.32,116.23l-.65-.26H33.1c-1.19,1-2.92,2-4.47,1-1.81-1.27-2.28-4.25-2.4-6.09a3.62,3.62,0,0,1-.54.15,57.64,57.64,0,0,1,1.16,7.5,1.23,1.23,0,0,1-.11.66,4.68,4.68,0,0,0-.2,1.86,38.78,38.78,0,0,0,.88,8.31h0v0l2.11,0s-2.24-6.36-.08-8.58a42.89,42.89,0,0,1,5.48-4.45A1.34,1.34,0,0,1,34.32,116.23Z"/><path class="cls-39" d="M18.67,116.39h0c1.54,1.46,4.11,3.69,5.38,3.69a29.3,29.3,0,0,1,.44,4.8,29.24,29.24,0,0,0-.44-4.84C22.76,120.07,20.21,117.85,18.67,116.39Z"/><path class="cls-39" d="M26.53,121a4.68,4.68,0,0,1,.2-1.86,1.23,1.23,0,0,0,.11-.66,1.17,1.17,0,0,1-.11.63A4.78,4.78,0,0,0,26.53,121Z"/><path class="cls-39" d="M25.46,116.17c0-1.44-.17-3.85-.28-5.12h0C25.28,112.31,25.46,114.72,25.46,116.17Z"/><path class="cls-40" d="M20.46,106a.78.78,0,0,1,1.09-.38.87.87,0,0,1,.36,1.15A1.28,1.28,0,0,1,23,106c1.81-.38,1.81,2.3,1.81,2.3a1.61,1.61,0,0,1,1.86,1,.87.87,0,0,1,.17.21H27c.75.69,2.55,2.13,3.66,1.35a1.44,1.44,0,0,0,.71-1.38c.09-.3.81-3-2-3,0,0,1-2.3-.65-2.68s-2,.77-2,.77,1-3.83-2-3.83-2.61,3.06-2.61,3.06a1.53,1.53,0,0,0-2-1.15,2,2,0,0,0-1.56,1.48C20.2,104.35,20.46,106,20.46,106Z"/><path class="cls-40" d="M16.48,107.18a3.89,3.89,0,0,1-.09-.56l-.07.1v.3Z"/><path class="cls-45" d="M26.22,110.84c.38-.14.64-.33.7-.59H27s0-.06,0-.16a.88.88,0,0,0-.11-.56h-.65C26.18,109.78,26.18,110.25,26.22,110.84Z"/><path class="cls-45" d="M18.69,104.54a1.9,1.9,0,0,1,.07-.44,2.41,2.41,0,0,0-.83,0,2,2,0,0,0-1.54,2.51l.35-.55C16.74,104.54,18.69,104.54,18.69,104.54Z"/><path class="cls-45" d="M19.14,110.25H20a10,10,0,0,0,5.14.81h0c0-.49-.07-.81-.07-.81l-.6-.21a5.57,5.57,0,0,1-1.28.16,2.2,2.2,0,0,1-1.81-.67h-.77l-1.15.67a6.23,6.23,0,0,1-2.12-.67H16.32v1.06a4,4,0,0,0,.72.34C17.68,111.15,18.6,110.62,19.14,110.25Z"/><path class="cls-45" d="M26.19,109.52H26a8.57,8.57,0,0,1-1.49.51l.6.21s0,.31.07.81h0v0l.47-.17,0,.13a3.62,3.62,0,0,0,.54-.15C26.18,110.25,26.18,109.78,26.19,109.52Z"/><circle class="cls-45" cx="25.18" cy="111.06" transform="translate(-86.51 133.23) rotate(-88.45)"/><path class="cls-45" d="M16.32,107v2.49h1.07a6.23,6.23,0,0,0,2.12.67l1.15-.67h.77a2.2,2.2,0,0,0,1.81.67,5.57,5.57,0,0,0,1.28-.16,23.33,23.33,0,0,1-6.16-3.6l.54-1c1.08,1.27,7.3,3.81,7.3,3.81s0,.08,0,.23h.65a.87.87,0,0,0-.17-.21,1.61,1.61,0,0,0-1.86-1s0-2.68-1.81-2.3a1.28,1.28,0,0,0-1.09.77.87.87,0,0,0-.36-1.15.78.78,0,0,0-1.09.38s-.27-1.68-1.71-1.93a1.9,1.9,0,0,0-.07.44s-2,0-2,1.53l-.35.55a3.89,3.89,0,0,0,.09.56Z"/><path class="cls-45" d="M26.19,109.52c0-.15,0-.23,0-.23s-6.22-2.54-7.3-3.81l-.54,1a23.33,23.33,0,0,0,6.16,3.6,8.57,8.57,0,0,0,1.49-.51Z"/><path class="cls-40" d="M37.56,115.84c-.07-.3-.32-1-1-.89,0,0,0-1.42-.86-1.21a.6.6,0,0,0-.52.4.49.49,0,0,0-.17-.61c-.34-.2-.52.2-.52.2s-.17-1.21-1.2-1-.69,1.62-.69,1.62-.33-.4-.59-.2a.59.59,0,0,0-.1.81s-.88,0-.86.81a.1.1,0,0,0,0,.07.87.87,0,0,0,.84.38,1.42,1.42,0,0,0,.79-.26h.38a11.1,11.1,0,0,0,1.48-1.59l.81,1.59-.46.32a3.93,3.93,0,0,0,1.14-.32c0,.26,1.52.51,1.52,0A.36.36,0,0,0,37.56,115.84Z"/><path class="cls-40" d="M34.57,114.38A11.1,11.1,0,0,1,33.1,116h.57l.65.26a1.34,1.34,0,0,0,.6.06l.46-.32Z"/><path class="cls-40" d="M18,114.45h0v0l.06-.07a8.34,8.34,0,0,0,3.21,2.29.71.71,0,0,0,.58-.67s-.21-1.51-1.28-1.26c0,0,0-1.76-1.07-1.51a.75.75,0,0,0-.64.5.61.61,0,0,0-.21-.75c-.43-.25-.64.25-.64.25s-.21-1.51-1.49-1.26l-.21.06v4h0a5.06,5.06,0,0,0,1.21.64,1.2,1.2,0,0,0,1.1-.2l0,0Z"/><path class="cls-40" d="M18.6,116.33l-.57-1.9h0l.58,1.92,0,0h0Z"/><path class="cls-46" d="M21.29,116.64h-.05c1.93.88,4,1.25,4.14.59a4.94,4.94,0,0,0,.08-1.07,4.79,4.79,0,0,1-.08,1C25.2,117.86,23.21,117.51,21.29,116.64Z"/><path class="cls-47" d="M23.35,129.38h0c.84-.92,1.08-2.71,1.09-4.47C24.46,126.68,24.21,128.48,23.35,129.38Z"/><path class="cls-39" d="M26.84,118.48a57.64,57.64,0,0,0-1.16-7.5h0A58.9,58.9,0,0,1,26.84,118.48Z"/><path class="cls-48" d="M26.84,118.48a57.64,57.64,0,0,0-1.16-7.5h0A58.9,58.9,0,0,1,26.84,118.48Z"/><path class="cls-39" d="M27.41,129.32a38.78,38.78,0,0,1-.88-8.31,39.2,39.2,0,0,0,.87,8.31Z"/><path class="cls-49" d="M27.41,129.32a38.78,38.78,0,0,1-.88-8.31,39.2,39.2,0,0,0,.87,8.31Z"/><path class="cls-39" d="M26.53,121a4.78,4.78,0,0,1,.2-1.89,1.17,1.17,0,0,0,.11-.63,58.9,58.9,0,0,0-1.17-7.5l-.49.07c.1,1.27.28,3.68.28,5.12a4.94,4.94,0,0,1-.08,1.07c-.19.66-2.21.29-4.14-.59a1.79,1.79,0,0,1-.72,0c-1.35-.32-1.37-.64-1.37-.64a2.55,2.55,0,0,1-.48.42c1.54,1.46,4.1,3.68,5.37,3.68a29.24,29.24,0,0,1,.44,4.84c0,1.77-.25,3.56-1.09,4.47l4-.06A39.2,39.2,0,0,1,26.53,121Z"/><path class="cls-50" d="M26.53,121a4.78,4.78,0,0,1,.2-1.89,1.17,1.17,0,0,0,.11-.63,58.9,58.9,0,0,0-1.17-7.5l-.49.07c.1,1.27.28,3.68.28,5.12a4.94,4.94,0,0,1-.08,1.07c-.19.66-2.21.29-4.14-.59a1.79,1.79,0,0,1-.72,0c-1.35-.32-1.37-.64-1.37-.64a2.55,2.55,0,0,1-.48.42c1.54,1.46,4.1,3.68,5.37,3.68a29.24,29.24,0,0,1,.44,4.84c0,1.77-.25,3.56-1.09,4.47l4-.06A39.2,39.2,0,0,1,26.53,121Z"/><path class="cls-45" d="M25.18,111v0l.47-.17,0,.1h0l0-.13Z"/><path class="cls-51" d="M25.18,111v0l.47-.17,0,.1h0l0-.13Z"/><path class="cls-45" d="M25.18,111.05h0l.49-.07,0-.1Z"/><path class="cls-52" d="M25.18,111.05h0l.49-.07,0-.1Z"/><path class="cls-40" d="M18.09,114.35l-.06.07v0l.05-.06a8.28,8.28,0,0,0,3.16,2.27h.05A8.34,8.34,0,0,1,18.09,114.35Z"/><path class="cls-53" d="M18.09,114.35l-.06.07v0l.05-.06a8.28,8.28,0,0,0,3.16,2.27h.05A8.34,8.34,0,0,1,18.09,114.35Z"/><path class="cls-40" d="M18.09,114.38l-.05.06.57,1.9.06.06a2.55,2.55,0,0,0,.48-.42s0,.32,1.37.64a1.79,1.79,0,0,0,.72,0A8.28,8.28,0,0,1,18.09,114.38Z"/><path class="cls-54" d="M18.09,114.38l-.05.06.57,1.9.06.06a2.55,2.55,0,0,0,.48-.42s0,.32,1.37.64a1.79,1.79,0,0,0,.72,0A8.28,8.28,0,0,1,18.09,114.38Z"/><path class="cls-55" d="M16.9,76.87c.25-.32.53-.61,1.55-.72,1.23-.14,2.1.26,2.28.62.23,0,.17.12.43.12a3.19,3.19,0,0,1,1.29.24,1.37,1.37,0,0,1,.43-.07c.4,0,.72.14.72.32h0c1.17.06,2.07.5,2.07,1a.3.3,0,0,1,0,.07h-9.5V76.81A3.84,3.84,0,0,1,16.9,76.87Z"/><polygon class="cls-56" points="53.24 107.81 52.82 107.15 67.08 107.15 67.08 107.81 53.24 107.81"/><polygon class="cls-56" points="97.18 107.81 97.61 107.15 83.34 107.15 83.34 107.81 97.18 107.81"/><rect class="cls-57" x="52.82" y="105.59" width="28.53" height="1.11"/><rect class="cls-57" x="69.08" y="105.59" width="28.53" height="1.11"/><rect class="cls-58" x="69.08" y="105.13" width="28.53" height="0.45"/><rect class="cls-58" x="69.08" y="106.7" width="28.53" height="0.45"/><rect class="cls-58" x="52.82" y="105.13" width="28.53" height="0.45"/><rect class="cls-58" x="52.82" y="106.7" width="28.53" height="0.45"/><polygon class="cls-59" points="63.47 87.51 57.02 87.51 54.91 85.35 56.36 88.6 63.47 88.6 64.34 88.6 64.34 88.46 64.34 87.51 63.47 87.51"/><polygon class="cls-59" points="86.95 87.51 93.41 87.51 95.51 85.35 94.06 88.6 86.95 88.6 86.08 88.6 86.08 88.46 86.08 87.51 86.95 87.51"/><polygon class="cls-59" points="71.15 84.1 64.05 84.1 62.6 80.85 64.7 83.01 71.15 83.01 71.15 84.1"/><polygon class="cls-59" points="79.21 84.1 86.32 84.1 87.77 80.85 85.67 83.01 79.21 83.01 79.21 84.1"/><polygon class="cls-60" points="63.21 88.6 56.36 88.6 52.82 105.13 64.11 105.13 64.11 88.6 63.21 88.6"/><polygon class="cls-60" points="87.21 88.6 94.06 88.6 97.61 105.13 86.31 105.13 86.31 88.6 87.21 88.6"/><polygon class="cls-60" points="69.66 84.1 64.05 84.1 61.96 101.03 71.15 101.03 71.15 84.1 69.66 84.1"/><polygon class="cls-60" points="80.71 84.1 86.32 84.1 88.41 101.03 79.21 101.03 79.21 84.1 80.71 84.1"/><polygon class="cls-61" points="86.31 91.61 78.67 81.38 75.18 81.38 75.17 81.38 71.69 81.38 64.05 91.61 75.18 91.61 75.18 89.05 75.18 91.61 86.31 91.61"/><polygon class="cls-62" points="75.18 91.61 64.05 91.61 66.95 94.53 75.18 94.53 83.4 94.53 86.31 91.61 75.18 91.61"/><polygon class="cls-60" points="76.25 107.79 62.4 107.79 48.56 107.79 41.49 114.37 62.4 114.37 83.31 114.37 76.25 107.79"/><polygon class="cls-59" points="48.56 107.79 76.25 107.79 76.66 108.18 48.14 108.18 48.56 107.79"/><polygon class="cls-60" points="101.83 107.79 87.98 107.79 74.14 107.79 67.07 114.37 87.98 114.37 108.9 114.37 101.83 107.79"/><polygon class="cls-59" points="74.15 107.79 101.83 107.79 102.24 108.18 73.72 108.18 74.15 107.79"/><rect class="cls-59" x="67.07" y="114.37" width="41.83" height="0.56"/><rect class="cls-59" x="41.49" y="114.37" width="41.83" height="0.56"/><polygon class="cls-63" points="107.5 116.16 108.9 114.92 87.98 114.92 87.98 116.16 107.5 116.16"/><polygon class="cls-63" points="42.89 116.16 41.49 114.92 62.4 114.92 62.4 116.16 42.89 116.16"/><rect class="cls-6" x="65.44" y="114.61" width="19.48" height="16.39"/><rect class="cls-6" x="55.67" y="114.61" width="9.77" height="16.39"/><rect class="cls-6" x="42.87" y="116.16" width="12.8" height="13.54"/><rect class="cls-6" x="94.69" y="116.16" width="12.8" height="13.54"/><rect class="cls-6" x="84.92" y="114.61" width="9.77" height="16.39"/><path class="cls-64" d="M80.52,118.69s.63-2.77-1.5-1.7c0,0,0-.92-1.64-.81a3.4,3.4,0,0,1-2.19-.32,3.4,3.4,0,0,1-2.19.32c-1.64-.12-1.64.81-1.64.81-2.13-1.07-1.5,1.7-1.5,1.7l-.72,1.07V130H81.24V119.76Z"/><path class="cls-64" d="M60.56,117.1a2.5,2.5,0,0,0-1.32,1.32v10.35h2.64V118.42A2.5,2.5,0,0,0,60.56,117.1Z"/><path class="cls-64" d="M49.3,117.62a2.27,2.27,0,0,0-1.2,1.2v9.42h2.4v-9.42A2.27,2.27,0,0,0,49.3,117.62Z"/><path class="cls-64" d="M101.13,117.62a2.27,2.27,0,0,0-1.2,1.2v9.42h2.4v-9.42A2.27,2.27,0,0,0,101.13,117.62Z"/><path class="cls-64" d="M89.83,117.1a2.5,2.5,0,0,0-1.32,1.32v10.35h2.64V118.42A2.5,2.5,0,0,0,89.83,117.1Z"/><polygon class="cls-56" points="64.79 114.61 66.95 114.61 66.95 131 64.05 131 64.05 114.61 64.79 114.61"/><polygon class="cls-56" points="43.61 116.16 45.78 116.16 45.78 129.71 42.87 129.71 42.87 116.16 43.61 116.16"/><polygon class="cls-56" points="53.56 116.16 55.72 116.16 55.72 129.71 52.82 129.71 52.82 116.16 53.56 116.16"/><polygon class="cls-56" points="95.43 116.16 97.59 116.16 97.59 129.71 94.68 129.71 94.68 116.16 95.43 116.16"/><polygon class="cls-56" points="105.33 116.16 107.5 116.16 107.5 129.71 104.59 129.71 104.59 116.16 105.33 116.16"/><polygon class="cls-56" points="84.21 114.61 86.38 114.61 86.38 131 83.47 131 83.47 114.61 84.21 114.61"/><polygon class="cls-63" points="75.18 113.38 54.27 113.38 55.67 114.61 75.18 114.61 94.69 114.61 96.1 113.38 75.18 113.38"/><rect class="cls-59" x="54.27" y="112.82" width="41.83" height="0.56"/><polygon class="cls-60" points="89.03 106.25 75.18 106.25 61.34 106.25 54.27 112.82 75.18 112.82 96.1 112.82 89.03 106.25"/><polygon class="cls-59" points="61.34 106.25 54.27 112.82 55.05 112.82 61.96 106.25 61.34 106.25"/><polygon class="cls-59" points="48.56 107.79 41.49 114.37 42.27 114.37 49.18 107.79 48.56 107.79"/><polygon class="cls-59" points="89.03 106.25 96.1 112.82 95.31 112.82 88.41 106.25 89.03 106.25"/><polygon class="cls-59" points="101.83 107.79 108.9 114.37 108.11 114.37 101.21 107.79 101.83 107.79"/><polygon class="cls-59" points="61.34 106.25 89.03 106.25 89.44 106.64 60.92 106.64 61.34 106.25"/><polygon class="cls-56" points="61.34 106.25 60.92 105.59 75.18 105.59 75.18 106.25 61.34 106.25"/><polygon class="cls-56" points="89.03 106.25 89.45 105.59 75.18 105.59 75.18 106.25 89.03 106.25"/><rect class="cls-63" x="60.92" y="105.13" width="28.53" height="0.45"/><rect class="cls-63" x="60.92" y="103.57" width="28.53" height="0.45"/><rect class="cls-57" x="60.92" y="104.02" width="28.53" height="1.11"/><polygon class="cls-59" points="75.18 86.69 60.92 103.56 75.18 103.56 89.45 103.56 75.18 86.69"/><polygon class="cls-58" points="75.18 87.71 61.78 103.56 75.18 103.56 88.58 103.56 75.18 87.71"/><polygon class="cls-65" points="75.18 89.46 63.26 103.56 75.18 103.56 87.1 103.56 75.18 89.46"/><polygon class="cls-62" points="75.17 79.08 70.41 79.08 71.69 81.38 75.17 81.38 78.66 81.38 79.94 79.08 75.17 79.08"/><polygon class="cls-62" points="75.17 64.07 74.29 64.07 74.7 65.02 75.17 65.02 75.64 65.02 76.06 64.07 75.17 64.07"/><polygon class="cls-61" points="75.64 63.12 75.17 63.12 74.7 63.12 74.29 64.07 75.17 64.07 76.06 64.07 75.64 63.12"/><polygon class="cls-62" points="75.17 62.17 74.29 62.17 74.7 63.12 75.17 63.12 75.64 63.12 76.06 62.17 75.17 62.17"/><polygon class="cls-61" points="75.64 61.22 75.17 61.22 74.7 61.22 74.29 62.17 75.17 62.17 76.06 62.17 75.64 61.22"/><polygon class="cls-61" points="75.64 65.02 75.17 65.02 74.7 65.02 70.41 79.08 75.17 79.08 79.93 79.08 75.64 65.02"/><polygon class="cls-62" points="75.17 43.56 74.7 61.22 75.17 61.22 75.64 61.22 75.17 43.56"/><polygon class="cls-59" points="64.05 84.1 61.96 101.03 62.6 101.03 64.72 83.4 64.05 84.1"/><polygon class="cls-59" points="86.32 84.1 88.41 101.02 87.77 101.02 85.64 83.4 86.32 84.1"/><polygon class="cls-66" points="60.92 103.56 59.01 101.94 60.92 102.25 75.18 85.49 75.18 86.69 60.92 103.56"/><polygon class="cls-66" points="89.44 103.56 91.35 101.94 89.44 102.25 75.18 85.49 75.18 86.69 89.44 103.56"/><polygon class="cls-59" points="56.36 88.6 52.82 105.13 53.38 105.13 56.88 88.55 56.36 88.6"/><polygon class="cls-59" points="94.06 88.6 97.61 105.13 97.04 105.13 93.54 88.55 94.06 88.6"/><polygon class="cls-59" points="52.82 105.13 60.92 105.13 60.92 104.58 53.26 104.58 52.82 105.13"/><polygon class="cls-59" points="97.55 105.13 89.45 105.13 89.45 104.58 97.11 104.58 97.55 105.13"/><rect class="cls-56" x="69.13" y="130" width="12.11" height="1.01"/><polygon class="cls-67" points="74.77 61.33 74.36 62.28 74.77 63.23 74.36 64.17 74.77 65.12 70.49 79.16 71.77 81.47 70.55 83.09 64.79 83.09 62.69 80.93 64.14 84.17 63.72 87.59 63.56 87.59 57.11 87.59 55.02 85.42 56.46 88.67 56.46 88.67 52.92 105.18 52.92 105.63 52.92 106.74 52.92 107.2 53.33 107.83 49.29 107.83 48.67 107.83 48.67 107.83 41.61 114.4 41.61 114.96 43.01 116.19 42.99 116.19 42.99 129.72 45.89 129.72 52.92 129.72 55.77 129.72 55.77 131.01 64.14 131.01 65.53 131.01 67.04 131.01 69.21 131.01 75.24 131.01 75.24 43.69 74.77 61.33"/></g><g class="cls-68"><g class="cls-69"><rect class="cls-70" x="-1558.55" y="17.23" width="1611.08" height="150.62"/></g><text class="cls-71" transform="translate(22.23 121.18)">DENMARK</text><path class="cls-55" d="M51.53,77.49c-.24-.32-.53-.6-1.53-.72-1.22-.14-2.08.25-2.26.62-.22,0-.17.12-.43.12a3.15,3.15,0,0,0-1.27.24,1.36,1.36,0,0,0-.43-.06c-.39,0-.71.14-.71.32h0c-1.16.06-2.05.5-2.05,1a.3.3,0,0,0,0,.07h9.4V77.42A3.8,3.8,0,0,0,51.53,77.49Z"/><rect class="cls-72" x="-215.49" y="129.38" width="267.75" height="38.48"/><rect class="cls-73" x="-3.73" y="148.46" width="8.83" height="1.76" rx="0.85" ry="0.85"/><path class="cls-44" d="M33,151.67a3.43,3.43,0,0,0-3.91-1.37c-2.54.81-3.25,2.41-5.46,1C23.65,151.28,28.58,156.37,33,151.67Z"/><path class="cls-44" d="M10.64,159.67S9,161.1,8.13,160,10.64,159.67,10.64,159.67Z"/><g class="cls-74"><path class="cls-44" d="M10.27,83.87c4.68,0,9.3.72,13.14.88A41.75,41.75,0,0,1,16.5,77.8C15.52,76.56-9,83.21-9,83.21c-11.64,1.23-40.74-8.47-51.49-6.51-23,4.2-11.33,13.26-41.38,12.12L-36,119.1A122.62,122.62,0,0,0-21.65,97.6C-12.78,81.32,6.32,83.87,10.27,83.87Z"/><path class="cls-44" d="M94,111.71V81.15c-7.08-4.46-17.5.11-29.17,4.23,5.1,1,9.66,2.33,11.79,3.89C82.39,93.48,88.18,104,94,111.71Z"/><path class="cls-75" d="M76.7,89.27C74.58,87.71,70,86.41,65,85.38A152.19,152.19,0,0,0,43.7,82.7c-3.89,0-9.37-2.37-13.37,0-1.68,1-4.06,1.18-6.84,1.07-3.84-.16-8.47-.89-13.16-.88-4,0-23.07-2.55-32,13.73A122.61,122.61,0,0,1-36,118.12a112.59,112.59,0,0,1-12,12.09l142,.16V111.71C88.2,104,82.44,93.48,76.7,89.27Z"/><path class="cls-76" d="M25.51,129.62l0-.06-.12,0Z"/><path class="cls-77" d="M25.51,129.62l0-.06-.12,0Z"/><rect class="cls-55" x="0.55" y="71.66" width="12.14" height="8.13"/><rect class="cls-55" x="0.55" y="73.05" width="12.14" height="2.88"/><polygon class="cls-55" points="0.55 72.77 0.55 73.05 12.7 73.05 12.7 72.75 0.55 72.75 0.55 72.77"/><polygon class="cls-55" points="0.55 75.96 0.55 76.24 12.7 76.24 12.7 75.93 0.55 75.93 0.55 75.96"/><rect class="cls-55" x="-6.54" y="94.19" width="26.34" height="1.55"/><rect class="cls-55" x="2.06" y="73.05" width="1.94" height="3.63"/><rect class="cls-55" x="5.68" y="73.05" width="1.94" height="3.63"/><rect class="cls-55" x="9.3" y="73.05" width="1.94" height="3.63"/><polygon class="cls-55" points="6.6 99.61 -6.54 99.61 -5.85 100.85 6.6 100.85 19.1 100.85 19.8 99.61 6.6 99.61"/><rect class="cls-55" x="-0.3" y="94.19" width="1.35" height="1.6"/><rect class="cls-55" x="5.95" y="94.19" width="1.35" height="1.6"/><rect class="cls-55" x="12.2" y="94.19" width="1.35" height="1.6"/><rect class="cls-55" x="18.44" y="94.19" width="1.35" height="1.6"/><rect class="cls-55" x="-6.54" y="95.75" width="26.34" height="3.86"/><rect class="cls-55" x="-4.25" y="88.86" width="21.62" height="3.86"/><rect class="cls-55" x="-1.83" y="79.79" width="16.91" height="7.67"/><polygon class="cls-55" points="-4.26 92.72 -6.54 94.19 19.8 94.19 17.4 92.72 -4.26 92.72"/><polygon class="cls-55" points="-11.23 119.93 25.43 119.93 25.43 129.54 -12.08 129.54 -12.08 119.93 -11.23 119.93"/><polygon class="cls-55" points="-10.22 114.5 24.38 114.5 24.38 119.93 -11.03 119.93 -11.03 114.5 -10.22 114.5"/><polygon class="cls-55" points="-7.79 102.55 21.82 102.55 21.82 114.63 -8.47 114.63 -8.47 102.55 -7.79 102.55"/><rect class="cls-55" x="-8.47" y="102.55" width="30.29" height="1.33"/><polygon class="cls-55" points="-8.47 107.59 -8.47 111.18 21.82 111.18 21.82 107.26 -8.47 107.26 -8.47 107.59"/><rect class="cls-55" x="-8.47" y="110.69" width="30.29" height="0.49"/><rect class="cls-55" x="-8.47" y="107.24" width="30.29" height="0.51"/><rect class="cls-55" x="-0.72" y="107.24" width="14.78" height="7.25"/><rect class="cls-55" x="3.15" y="114.5" width="7.04" height="5.43"/><rect class="cls-55" x="16.65" y="107.24" width="2.91" height="7.25"/><circle class="cls-55" cx="15.36" cy="109.21" r="0.92"/><circle class="cls-55" cx="3.47" cy="97.74" r="0.92"/><circle class="cls-55" cx="9.78" cy="97.78" r="0.92"/><circle class="cls-55" cx="16.09" cy="97.82" r="0.92"/><circle class="cls-55" cx="1.3" cy="74.49" r="0.39"/><circle class="cls-55" cx="4.82" cy="74.49" r="0.39"/><circle class="cls-55" cx="8.44" cy="74.49" r="0.39"/><circle class="cls-55" cx="11.97" cy="74.49" r="0.39"/><circle class="cls-55" cx="20.69" cy="109.21" r="0.92"/><rect class="cls-55" x="-0.72" y="114.5" width="3.87" height="0.91"/><rect class="cls-55" x="10.2" y="114.5" width="3.87" height="0.91"/><rect class="cls-55" x="16.65" y="114.5" width="2.91" height="0.91"/><rect class="cls-55" x="21.82" y="114.5" width="2.55" height="0.91"/><polygon class="cls-55" points="-5.85 100.85 -8.47 102.56 21.82 102.56 19.06 100.85 -5.85 100.85"/><path class="cls-55" d="M19,100.86a2.6,2.6,0,0,0,1.82-2.17s1.08,2.17-.51,3-1.31-.37-1.31-.37Z"/><polygon class="cls-55" points="-11.03 118.62 -11.03 119.93 3.15 119.93 3.15 118.5 -11.03 118.5 -11.03 118.62"/><polygon class="cls-55" points="10.2 118.62 10.2 119.93 24.38 119.93 24.38 118.5 10.2 118.5 10.2 118.62"/><rect class="cls-55" x="-11.02" y="118.5" width="14.18" height="0.51"/><rect class="cls-55" x="10.2" y="118.5" width="14.18" height="0.51"/><rect class="cls-55" x="-1.83" y="80.51" width="16.91" height="1.21"/><rect class="cls-55" x="0.55" y="71.05" width="12.14" height="1.16"/><rect class="cls-55" x="-4.25" y="88.34" width="21.62" height="1.33"/><polygon class="cls-55" points="0.13 80.94 -2.55 80.94 -2.55 79.74 15.8 79.74 15.8 80.94 0.13 80.94"/><rect class="cls-55" x="-0.84" y="82.44" width="2.7" height="3.85"/><rect class="cls-55" x="3.24" y="82.44" width="2.7" height="3.85"/><rect class="cls-55" x="7.32" y="82.44" width="2.7" height="3.85"/><rect class="cls-55" x="11.4" y="82.44" width="2.7" height="3.85"/><polygon class="cls-55" points="6.63 53.27 0.55 71.66 6.63 71.66 12.7 71.66 6.63 53.27"/><polygon class="cls-55" points="8.88 60.1 6.67 60.1 6.58 60.1 4.37 60.1 2.75 62.68 6.58 62.68 6.67 62.68 10.5 62.68 8.88 60.1"/><rect class="cls-55" x="0.55" y="70.7" width="12.14" height="0.95"/><polygon class="cls-55" points="-2.69 88.86 -6.54 88.86 -6.54 87.38 19.8 87.38 19.8 88.86 -2.69 88.86"/><rect class="cls-55" x="0.55" y="71.66" width="12.14" height="8.13"/><rect class="cls-78" x="0.55" y="73.05" width="12.14" height="2.88"/><polygon class="cls-79" points="0.55 72.77 0.55 73.05 12.7 73.05 12.7 72.75 0.55 72.75 0.55 72.77"/><polygon class="cls-79" points="0.55 75.96 0.55 76.24 12.7 76.24 12.7 75.93 0.55 75.93 0.55 75.96"/><rect class="cls-80" x="-6.54" y="94.19" width="26.34" height="1.55"/><rect class="cls-80" x="2.06" y="73.05" width="1.94" height="3.63"/><rect class="cls-80" x="5.68" y="73.05" width="1.94" height="3.63"/><rect class="cls-80" x="9.3" y="73.05" width="1.94" height="3.63"/><polygon class="cls-80" points="6.6 99.61 -6.54 99.61 -5.85 100.85 6.6 100.85 19.1 100.85 19.8 99.61 6.6 99.61"/><rect class="cls-79" x="-0.3" y="94.19" width="1.35" height="1.6"/><rect class="cls-79" x="5.95" y="94.19" width="1.35" height="1.6"/><rect class="cls-79" x="12.2" y="94.19" width="1.35" height="1.6"/><rect class="cls-79" x="18.44" y="94.19" width="1.35" height="1.6"/><rect class="cls-55" x="-6.54" y="95.75" width="26.34" height="3.86"/><rect class="cls-55" x="-4.25" y="88.86" width="21.62" height="3.86"/><rect class="cls-55" x="-1.83" y="79.79" width="16.91" height="7.67"/><polygon class="cls-81" points="-4.26 92.72 -6.54 94.19 19.8 94.19 17.4 92.72 -4.26 92.72"/><polygon class="cls-81" points="-11.23 119.93 25.43 119.93 25.43 129.54 -12.08 129.54 -12.08 119.93 -11.23 119.93"/><polygon class="cls-55" points="-10.22 114.5 24.38 114.5 24.38 119.93 -11.03 119.93 -11.03 114.5 -10.22 114.5"/><polygon class="cls-55" points="-7.79 102.55 21.82 102.55 21.82 114.63 -8.47 114.63 -8.47 102.55 -7.79 102.55"/><rect class="cls-79" x="-8.47" y="102.55" width="30.29" height="1.33"/><polygon class="cls-78" points="-8.47 107.59 -8.47 111.18 21.82 111.18 21.82 107.26 -8.47 107.26 -8.47 107.59"/><rect class="cls-79" x="-8.47" y="110.69" width="30.29" height="0.49"/><rect class="cls-79" x="-8.47" y="107.24" width="30.29" height="0.51"/><rect class="cls-80" x="-0.72" y="107.24" width="14.78" height="7.25"/><rect class="cls-80" x="3.15" y="114.5" width="7.04" height="5.43"/><rect class="cls-80" x="16.65" y="107.24" width="2.91" height="7.25"/><circle class="cls-81" cx="15.36" cy="109.21" r="0.92"/><circle class="cls-81" cx="3.47" cy="97.74" r="0.92"/><circle class="cls-81" cx="9.78" cy="97.78" r="0.92"/><circle class="cls-81" cx="16.09" cy="97.82" r="0.92"/><circle class="cls-81" cx="1.3" cy="74.49" r="0.39"/><circle class="cls-81" cx="4.82" cy="74.49" r="0.39"/><circle class="cls-81" cx="8.44" cy="74.49" r="0.39"/><circle class="cls-81" cx="11.97" cy="74.49" r="0.39"/><circle class="cls-81" cx="20.69" cy="109.21" r="0.92"/><rect class="cls-81" x="-0.72" y="114.5" width="3.87" height="0.91"/><rect class="cls-81" x="10.2" y="114.5" width="3.87" height="0.91"/><rect class="cls-81" x="16.65" y="114.5" width="2.91" height="0.91"/><rect class="cls-81" x="21.82" y="114.5" width="2.55" height="0.91"/><path class="cls-81" d="M21.82,102.54l-1.42-.87c1.51-.88.45-3,.45-3a2.64,2.64,0,0,1-1.79,2.19v0H-5.85a2.65,2.65,0,0,1-1.82-2.2s-1.08,2.15.51,3h0l-1.31.83Z"/><polygon class="cls-78" points="-11.03 118.62 -11.03 119.93 3.15 119.93 3.15 118.5 -11.03 118.5 -11.03 118.62"/><polygon class="cls-78" points="10.2 118.62 10.2 119.93 24.38 119.93 24.38 118.5 10.2 118.5 10.2 118.62"/><rect class="cls-79" x="-11.02" y="118.5" width="14.18" height="0.51"/><rect class="cls-79" x="10.2" y="118.5" width="14.18" height="0.51"/><rect class="cls-80" x="-1.83" y="80.51" width="16.91" height="1.21"/><rect class="cls-80" x="-4.25" y="88.34" width="21.62" height="1.33"/><polygon class="cls-79" points="0.13 80.94 -2.55 80.94 -2.55 79.74 15.8 79.74 15.8 80.94 0.13 80.94"/><rect class="cls-80" x="-0.84" y="82.44" width="2.7" height="3.85"/><rect class="cls-80" x="3.24" y="82.44" width="2.7" height="3.85"/><rect class="cls-80" x="7.32" y="82.44" width="2.7" height="3.85"/><rect class="cls-80" x="11.4" y="82.44" width="2.7" height="3.85"/><polygon class="cls-81" points="12.74 71.05 12.74 70.76 12.38 70.76 9.73 62.73 10.5 62.73 8.88 60.13 6.63 53.28 4.37 60.13 4.37 60.13 2.75 62.73 3.52 62.73 0.87 70.76 0.62 70.76 0.62 71.05 0.62 71.66 0.62 72.23 12.74 72.23 12.74 71.05 12.74 71.05"/><polygon class="cls-79" points="-2.69 88.86 -6.54 88.86 -6.54 87.38 19.8 87.38 19.8 88.86 -2.69 88.86"/><path class="cls-82" d="M6.62,53.27,4.37,60.1,2.75,62.68h.76l-2.65,8H.55v5.23h0v.31h0v3.5H-2.55v1.21h.72v6.44H-6.54v1.48h2.29v3.86h0l-2.28,1.47v5.41l.7,1.25a2.6,2.6,0,0,1-1.82-2.17s-1.08,2.17.51,3l-1.29.84h0V114.5H-11v5.43h-1.05v9.61H6.67l0-76.27Z"/><rect class="cls-55" x="26.26" y="89.27" width="51.61" height="21.21"/><polygon class="cls-81" points="26.26 94.03 26.26 100.71 77.87 100.71 77.87 93.43 26.26 93.43 26.26 94.03"/><rect class="cls-79" x="26.26" y="99.8" width="51.61" height="0.91"/><rect class="cls-83" x="33.92" y="104.8" width="2.07" height="3.87"/><rect class="cls-83" x="37.78" y="104.8" width="2.07" height="3.87"/><rect class="cls-83" x="41.64" y="104.8" width="2.07" height="3.87"/><rect class="cls-83" x="45.5" y="104.8" width="2.07" height="3.87"/><rect class="cls-79" x="26.26" y="93.39" width="51.61" height="0.95"/><rect class="cls-83" x="32.44" y="95.17" width="5.08" height="6.75"/><rect class="cls-83" x="43.96" y="95.17" width="5.08" height="6.75"/><rect class="cls-81" x="32.44" y="100.71" width="5.08" height="1.21"/><rect class="cls-81" x="43.96" y="100.71" width="5.08" height="1.21"/><polygon class="cls-83" points="40.71 87.83 25.46 87.83 26.26 89.27 40.71 89.27 77.87 89.27 78.68 87.83 40.71 87.83"/><rect class="cls-81" x="28.75" y="87.83" width="1.23" height="1.45"/><rect class="cls-81" x="34.42" y="87.83" width="1.23" height="1.45"/><rect class="cls-81" x="40.09" y="87.83" width="1.23" height="1.45"/><rect class="cls-81" x="45.76" y="87.83" width="1.23" height="1.45"/><rect class="cls-81" x="51.43" y="87.83" width="1.23" height="1.45"/><rect class="cls-79" x="25.46" y="86.1" width="53.22" height="1.72"/><rect class="cls-83" x="56.85" y="104.8" width="2.07" height="3.87"/><rect class="cls-83" x="60.71" y="104.8" width="2.07" height="3.87"/><rect class="cls-83" x="64.57" y="104.8" width="2.07" height="3.87"/><rect class="cls-83" x="68.43" y="104.8" width="2.07" height="3.87"/><rect class="cls-83" x="55.37" y="95.17" width="5.08" height="6.75"/><rect class="cls-83" x="66.89" y="95.17" width="5.08" height="6.75"/><rect class="cls-81" x="55.37" y="100.71" width="5.08" height="1.21"/><rect class="cls-81" x="66.89" y="100.71" width="5.08" height="1.21"/><rect class="cls-81" x="57.35" y="87.83" width="1.23" height="1.45"/><rect class="cls-81" x="63.02" y="87.83" width="1.23" height="1.45"/><rect class="cls-81" x="68.69" y="87.83" width="1.23" height="1.45"/><rect class="cls-81" x="74.36" y="87.83" width="1.23" height="1.45"/><polygon class="cls-82" points="25.46 86.16 25.37 87.86 26.18 89.27 26.18 110.41 50.75 110.41 50.75 86.16 25.46 86.16"/><rect class="cls-55" x="28.79" y="78.05" width="13.03" height="2.59"/><rect class="cls-55" x="30.21" y="71.92" width="10.18" height="4.27"/><polygon class="cls-80" points="35.31 81.65 35.31 81.65 24.01 81.65 25.23 83.72 35.31 83.72 35.31 83.72 45.38 83.72 46.6 81.65 35.31 81.65"/><rect class="cls-79" x="30.01" y="81.65" width="1.04" height="2.07"/><rect class="cls-79" x="34.79" y="81.65" width="1.04" height="2.07"/><rect class="cls-79" x="39.56" y="81.65" width="1.04" height="2.07"/><rect class="cls-79" x="31.15" y="78.05" width="1.04" height="2.59"/><rect class="cls-79" x="32.98" y="73.57" width="1.04" height="2.61"/><rect class="cls-79" x="36.61" y="73.57" width="1.04" height="2.61"/><rect class="cls-79" x="34.79" y="78.05" width="1.04" height="2.59"/><rect class="cls-79" x="38.42" y="78.05" width="1.04" height="2.59"/><rect class="cls-55" x="25.23" y="84.57" width="20.14" height="11.91"/><polygon class="cls-81" points="25.97 80.64 24.01 81.65 46.6 81.65 44.54 80.64 25.97 80.64"/><rect class="cls-55" x="22.34" y="99.33" width="25.98" height="19.03"/><polygon class="cls-78" points="22.34 103.6 22.34 109.58 48.33 109.58 48.33 103.06 22.34 103.06 22.34 103.6"/><rect class="cls-79" x="22.34" y="108.77" width="25.98" height="0.82"/><rect class="cls-80" x="29.21" y="113.26" width="1.85" height="3.47"/><rect class="cls-80" x="32.68" y="113.26" width="1.85" height="3.47"/><rect class="cls-80" x="36.14" y="113.26" width="1.85" height="3.47"/><rect class="cls-80" x="39.6" y="113.26" width="1.85" height="3.47"/><rect class="cls-79" x="22.34" y="103.02" width="25.98" height="0.85"/><circle class="cls-81" cx="24.79" cy="106.25" r="1.56"/><circle class="cls-81" cx="35.13" cy="106.25" r="1.56"/><circle class="cls-81" cx="45.47" cy="106.25" r="1.56"/><rect class="cls-80" x="27.89" y="104.62" width="4.56" height="6.05"/><rect class="cls-80" x="38.23" y="104.62" width="4.56" height="6.05"/><rect class="cls-81" x="27.89" y="109.58" width="4.56" height="1.09"/><rect class="cls-81" x="38.23" y="109.58" width="4.56" height="1.09"/><polygon class="cls-80" points="35.3 98.03 21.62 98.03 22.34 99.33 35.3 99.33 48.32 99.33 49.05 98.03 35.3 98.03"/><rect class="cls-79" x="24.58" y="98.03" width="1.1" height="1.3"/><rect class="cls-79" x="29.67" y="98.03" width="1.1" height="1.3"/><rect class="cls-79" x="34.75" y="98.03" width="1.1" height="1.3"/><rect class="cls-79" x="39.84" y="98.03" width="1.1" height="1.3"/><rect class="cls-79" x="44.92" y="98.03" width="1.1" height="1.3"/><path class="cls-81" d="M49.05,98l-1.28-.76c1.36-.79.41-2.69.41-2.69a2.36,2.36,0,0,1-1.63,2H24a2.35,2.35,0,0,1-1.65-2s-1,1.93.46,2.71L21.62,98Z"/><polygon class="cls-78" points="25.23 87.82 25.23 93.81 45.38 93.81 45.38 87.28 25.23 87.28 25.23 87.82"/><rect class="cls-79" x="25.23" y="92.99" width="20.14" height="0.82"/><rect class="cls-79" x="25.23" y="87.24" width="20.14" height="0.85"/><rect class="cls-79" x="25.23" y="83.72" width="20.14" height="0.85"/><rect class="cls-79" x="28.79" y="77.19" width="13.03" height="0.88"/><rect class="cls-80" x="33.02" y="88.84" width="4.56" height="4.97"/><rect class="cls-81" x="33.02" y="93.81" width="4.56" height="1.09"/><circle class="cls-81" cx="27.35" cy="90.53" r="1.24"/><circle class="cls-81" cx="31.14" cy="90.53" r="1.24"/><circle class="cls-81" cx="39.46" cy="90.53" r="1.24"/><circle class="cls-81" cx="43.25" cy="90.53" r="1.24"/><rect class="cls-79" x="28.33" y="76.19" width="13.94" height="1.03"/><rect class="cls-80" x="30.21" y="71.92" width="10.18" height="0.85"/><rect class="cls-79" x="30.21" y="72.77" width="10.18" height="0.81"/><path class="cls-81" d="M40.94,70.5c0,.85-1.38,1.08-1.38,1.08h0a11.56,11.56,0,0,1-4.26-4.9A11,11,0,0,1,31,71.54s-1.31-.17-1.31-1a1,1,0,0,0,.48,1.38H40.4A1,1,0,0,0,40.94,70.5Z"/><g class="cls-84"><path class="cls-80" d="M31,81.66H24l1.22,2.07v.85h0V96.49H24a2.35,2.35,0,0,1-1.65-2s-1,2,.46,2.74L21.62,98l.72,1.3v19h13V81.66H31Z"/><polygon class="cls-80" points="24.01 81.66 35.3 81.66 35.3 80.64 25.97 80.64 24.01 81.66"/><path class="cls-80" d="M31,71.53s-1.31-.16-1.31-1a1,1,0,0,0,.48,1.4v4.27H28.33v1h.46v3.41H35.3v-14h0A11.05,11.05,0,0,1,31,71.53Z"/></g><path class="cls-1" d="M122,40.35v0h0Z"/><rect class="cls-55" x="14.97" y="105.56" width="31.09" height="12.78"/><polygon class="cls-81" points="14.97 108.43 14.97 112.45 46.06 112.45 46.06 108.06 14.97 108.06 14.97 108.43"/><rect class="cls-85" x="14.97" y="111.9" width="31.09" height="0.55"/><rect class="cls-80" x="19.58" y="114.92" width="1.25" height="2.33"/><rect class="cls-80" x="21.91" y="114.92" width="1.25" height="2.33"/><rect class="cls-80" x="24.23" y="114.92" width="1.25" height="2.33"/><rect class="cls-80" x="26.56" y="114.92" width="1.25" height="2.33"/><rect class="cls-85" x="14.97" y="108.04" width="31.09" height="0.57"/><rect class="cls-80" x="18.69" y="109.12" width="3.06" height="4.07"/><rect class="cls-80" x="25.63" y="109.12" width="3.06" height="4.07"/><rect class="cls-81" x="18.69" y="112.45" width="3.06" height="0.73"/><rect class="cls-81" x="25.63" y="112.45" width="3.06" height="0.73"/><polygon class="cls-80" points="23.67 104.69 14.48 104.69 14.97 105.56 23.67 105.56 46.06 105.56 46.55 104.69 23.67 104.69"/><rect class="cls-81" x="16.47" y="104.69" width="0.74" height="0.87"/><rect class="cls-81" x="19.89" y="104.69" width="0.74" height="0.87"/><rect class="cls-81" x="23.3" y="104.69" width="0.74" height="0.87"/><rect class="cls-81" x="26.72" y="104.69" width="0.74" height="0.87"/><rect class="cls-81" x="30.13" y="104.69" width="0.74" height="0.87"/><rect class="cls-86" x="14.48" y="103.65" width="32.07" height="1.04"/><rect class="cls-80" x="33.4" y="114.92" width="1.25" height="2.33"/><rect class="cls-80" x="35.72" y="114.92" width="1.25" height="2.33"/><rect class="cls-80" x="38.05" y="114.92" width="1.25" height="2.33"/><rect class="cls-80" x="40.37" y="114.92" width="1.25" height="2.33"/><rect class="cls-80" x="32.51" y="109.12" width="3.06" height="4.07"/><rect class="cls-80" x="39.45" y="109.12" width="3.06" height="4.07"/><rect class="cls-81" x="32.51" y="112.45" width="3.06" height="0.73"/><rect class="cls-81" x="39.45" y="112.45" width="3.06" height="0.73"/><rect class="cls-81" x="33.7" y="104.69" width="0.74" height="0.87"/><rect class="cls-81" x="37.12" y="104.69" width="0.74" height="0.87"/><rect class="cls-81" x="40.53" y="104.69" width="0.74" height="0.87"/><rect class="cls-81" x="43.95" y="104.69" width="0.74" height="0.87"/><polygon class="cls-82" points="14.51 103.69 14.53 104.73 15.04 105.6 15.04 108.08 15.04 108.1 15.04 108.47 15.04 108.65 15.04 111.94 15.04 112.49 15.04 118.44 30.27 118.44 30.27 103.69 14.51 103.69"/><rect class="cls-55" x="47.31" y="109.26" width="10.81" height="9.01"/><rect class="cls-78" x="47.37" y="105.56" width="10.75" height="3.69"/><rect class="cls-83" x="48.96" y="111.04" width="2.7" height="2.55"/><rect class="cls-83" x="54" y="111.04" width="2.7" height="2.55"/><rect class="cls-82" x="47.31" y="105.49" width="5.41" height="12.78"/><path class="cls-44" d="M89.74,129.58H14.05V118.26H58.12v-8.19l19.89.16c2.5,0,9.11,12.53,9.11,12.53Z"/><polygon class="cls-83" points="-51.22 98.55 -72.01 98.55 -70.91 100.52 -51.22 100.52 -0.56 100.52 0.55 98.55 -51.22 98.55"/><rect class="cls-79" x="-72.01" y="96.19" width="72.56" height="2.35"/><rect class="cls-55" x="51.57" y="72.73" width="18.51" height="13.43"/><rect class="cls-79" x="51.57" y="74.69" width="18.51" height="2.79"/><rect class="cls-81" x="57.14" y="75.35" width="7.21" height="8.36"/><rect class="cls-81" x="56.32" y="74.04" width="8.85" height="1.64"/><rect class="cls-80" x="57.96" y="76.82" width="1.8" height="5.57"/><rect class="cls-80" x="61.73" y="76.82" width="1.8" height="5.57"/><polygon class="cls-80" points="64.3 71.36 49.05 71.36 49.86 72.81 64.3 72.81 71.79 72.81 72.61 71.36 64.3 71.36"/><rect class="cls-79" x="49.05" y="69.64" width="23.56" height="1.72"/><polygon class="cls-81" points="72.61 69.64 66.7 68.19 54.52 68.19 49.05 69.64 72.61 69.64"/><rect class="cls-87" x="54.68" y="64.21" width="11.63" height="3.93"/><rect class="cls-79" x="53.54" y="62.24" width="13.76" height="1.97"/><path class="cls-79" d="M69.18,60.12c0,1.32-2,1.63-2,1.63h0a17.86,17.86,0,0,1-6.66-7.67,17.18,17.18,0,0,1-6.66,7.6s-2-.27-2-1.59a1.51,1.51,0,0,0,.74,2.16H68.43A1.47,1.47,0,0,0,69.18,60.12Z"/><path class="cls-82" d="M53.81,61.83s-2-.27-2-1.59a1.51,1.51,0,0,0,.74,2.16h1v2h1.15V68.3h-.16L49,69.78h0v1.78l.81,1.5h1.71V86.32h8.85v-32A17.13,17.13,0,0,1,53.81,61.83Z"/><path class="cls-45" d="M92.3,103.22a1.2,1.2,0,0,0-.23,1.78s-2.16,0-2.1,1.8c0,.44,1.68.47,1.68.47H93c.09,0,.2.11.32.19v-4.14A.9.9,0,0,0,92.3,103.22Z"/><path class="cls-40" d="M92.81,111.52s-.47-.58-.85-.29a.85.85,0,0,0-.14,1.17s-1.27,0-1.24,1.17a.13.13,0,0,0,0,.08,1.37,1.37,0,0,0,.92,1,2,2,0,0,0,1.78-.51v-4.69C92.44,110,92.81,111.52,92.81,111.52Z"/></g><rect class="cls-88" x="-215.63" y="129.38" width="268.47" height="7.89"/></g></g></g></svg>