<svg id="Layer_1" data-name="Layer 1" xmlns="http://www.w3.org/2000/svg" xmlns:xlink="http://www.w3.org/1999/xlink" viewBox="0 0 183.91 183.91"><defs><style>.cls-1{fill:none;}.cls-2{clip-path:url(#clip-path);}.cls-3{clip-path:url(#clip-path-2);}.cls-4{fill:url(#linear-gradient);}.cls-5{fill:url(#linear-gradient-2);}.cls-6{fill:#fff;}.cls-7{fill:url(#linear-gradient-3);}.cls-8{fill:url(#linear-gradient-4);}.cls-9{fill:url(#linear-gradient-5);}.cls-10{fill:url(#linear-gradient-6);}.cls-11{fill:url(#linear-gradient-7);}.cls-12{fill:url(#linear-gradient-8);}.cls-13{fill:url(#linear-gradient-9);}.cls-14{fill:url(#linear-gradient-10);}.cls-15{fill:url(#linear-gradient-11);}.cls-16{fill:#50685c;}.cls-17{fill:#db464e;}.cls-18{clip-path:url(#clip-path-3);}.cls-19{fill:#f2f2f2;}.cls-20{fill:#ccc;}.cls-21{fill:#a05c55;}.cls-22{fill:#474156;}.cls-23{fill:#d3aa62;}.cls-24,.cls-27{fill:#413a4f;}.cls-24,.cls-26{opacity:0.18;}.cls-25{fill:#cc665c;}.cls-28{fill:#843a35;}</style><clipPath id="clip-path"><circle class="cls-1" cx="91.96" cy="91.96" r="75.03"/></clipPath><clipPath id="clip-path-2"><rect id="SVGID" class="cls-1" x="12.37" y="17.17" width="268.44" height="150.69"/></clipPath><linearGradient id="linear-gradient" x1="-1330.55" y1="92.55" x2="280.53" y2="92.55" gradientUnits="userSpaceOnUse"><stop offset="0" stop-color="#ffc06e"/><stop offset="0.14" stop-color="#efacb8"/><stop offset="0.37" stop-color="#b1b1e5"/><stop offset="0.6" stop-color="#99cdc6"/><stop offset="0.67" stop-color="#aacdae"/><stop offset="0.75" stop-color="#bbce95"/><stop offset="0.79" stop-color="#c6cb92"/><stop offset="0.93" stop-color="#e7c289"/><stop offset="1" stop-color="#f4be86"/></linearGradient><linearGradient id="linear-gradient-2" x1="785.94" y1="119.17" x2="785.94" y2="60.72" gradientTransform="matrix(-1, 0, 0, 1, 885.9, 0)" gradientUnits="userSpaceOnUse"><stop offset="0" stop-color="#fcc089"/><stop offset="0.18" stop-color="#f7bf89"/><stop offset="0.39" stop-color="#e8ba8b"/><stop offset="0.62" stop-color="#d0b48d"/><stop offset="0.87" stop-color="#aeaa8f"/><stop offset="1" stop-color="#99a491"/></linearGradient><linearGradient id="linear-gradient-3" x1="45.31" y1="97.77" x2="45.31" y2="39.31" gradientTransform="matrix(1, 0, 0, 1, 0, 0)" xlink:href="#linear-gradient-2"/><linearGradient id="linear-gradient-4" x1="135.51" y1="69.81" x2="135.51" y2="41.89" gradientTransform="matrix(1, 0, 0, 1, 0, 0)" xlink:href="#linear-gradient-2"/><linearGradient id="linear-gradient-5" x1="1264.61" y1="64.34" x2="1264.61" y2="48.38" gradientTransform="matrix(-1, 0, 0, 1, 1466.93, 0)" xlink:href="#linear-gradient-2"/><linearGradient id="linear-gradient-6" x1="146.38" y1="170.96" x2="146.38" y2="106.79" gradientUnits="userSpaceOnUse"><stop offset="0" stop-color="#d5b670"/><stop offset="0.25" stop-color="#d19966"/><stop offset="0.35" stop-color="#cf8b61"/><stop offset="0.51" stop-color="#d39370"/><stop offset="0.81" stop-color="#dfa896"/><stop offset="1" stop-color="#e7b7b2"/></linearGradient><linearGradient id="linear-gradient-7" x1="275.18" y1="178.66" x2="275.18" y2="135.27" gradientTransform="matrix(-1, 0, 0, 1, 474.86, 0)" xlink:href="#linear-gradient-6"/><linearGradient id="linear-gradient-8" x1="135.51" y1="150.69" x2="135.51" y2="115.79" xlink:href="#linear-gradient-6"/><linearGradient id="linear-gradient-9" x1="180.67" y1="134.7" x2="180.67" y2="143.53" xlink:href="#linear-gradient-6"/><linearGradient id="linear-gradient-10" x1="54.05" y1="166.72" x2="54.05" y2="159.88" xlink:href="#linear-gradient-6"/><linearGradient id="linear-gradient-11" x1="95.56" y1="166.32" x2="95.56" y2="122.93" xlink:href="#linear-gradient-6"/><clipPath id="clip-path-3"><rect class="cls-1" x="16.14" y="17.03" width="268.47" height="120.24"/></clipPath></defs><title>ปุ่มภู</title><g class="cls-2"><g class="cls-3"><rect class="cls-4" x="-1330.55" y="17.23" width="1611.08" height="150.62"/></g><path class="cls-5" d="M119.55,94.26H71.21s2.35-15.75,18.07-14.08c0,0,1.17-12.41,11.73-8.35,0,0,4.93,1.91,4,8.35,0,0,1.41-2.62,4.93-1.43,0,0,2.58,1.19,2.11,3.82,0,0,4.69-1.67,4.93,2.86,0,0,11,1,11.73,8.83Z"/><path class="cls-6" d="M146.52,77.93c0-.63-2.64-1.15-5.89-1.15a26.23,26.23,0,0,0-3.13.18c-.28,0-.58,0-.9,0-.31-.39-2-.68-4.11-.68-.6,0-1.17,0-1.68.07-.56-.32-1.21-.6-3.51-.72-2.79-.14-4.77.25-5.18.62-.51,0-.38.12-1,.12a15.73,15.73,0,0,0-2.92.24,6.91,6.91,0,0,0-1-.06c-.9,0-1.63.14-1.63.32h0c-2.65.06-4.71.5-4.71,1a.22.22,0,0,0,0,.08h35.61Z"/><path class="cls-6" d="M37,63.71a2.44,2.44,0,0,0-2.57-2.29,2.78,2.78,0,0,0-1.37.35,1.13,1.13,0,0,0-.39-.08,1.76,1.76,0,0,0-1.79-1.37,2,2,0,0,0-.73.14A1.92,1.92,0,0,0,28.62,59a1.84,1.84,0,0,0-2.26,1.23c-.22-.09-.17.23-.43.23a1.88,1.88,0,0,0-1.27.48.76.76,0,0,0-.43-.13.67.67,0,0,0-.71.63v0a2.17,2.17,0,0,0-2.05,2.05c0,.06,0,.11,0,.17H37v0Z"/><path class="cls-7" d="M25.72,82.64H74.06S71.71,66.9,56,68.57c0,0-1.17-12.41-11.73-8.35,0,0-4.93,1.91-4,8.35,0,0-1.41-2.62-4.93-1.43,0,0-2.58,1.19-2.11,3.82,0,0-4.69-1.67-4.93,2.86,0,0-11,1-11.73,8.83Z"/><path class="cls-8" d="M122.71,62.59h31.6s-1.53-7.52-11.81-6.72c0,0-.77-5.93-7.67-4,0,0-3.22.91-2.61,4,0,0-.92-1.25-3.22-.68,0,0-1.69.57-1.38,1.82,0,0-3.07-.8-3.22,1.37,0,0-7.21.46-7.67,4.22Z"/><path class="cls-9" d="M215.12,60.21h-31.6s1.53-4.3,11.81-3.84c0,0,.77-3.39,7.67-2.28,0,0,3.22.52,2.61,2.28,0,0,.92-.72,3.22-.39,0,0,1.69.33,1.38,1,0,0,3.07-.46,3.22.78,0,0,7.21.26,7.67,2.41Z"/><path class="cls-6" d="M95.56,51.47c0-.63-.79-1.15-1.76-1.15a2.48,2.48,0,0,0-.94.18,1,1,0,0,0-.27,0,1.2,1.2,0,0,0-1.23-.68,1.81,1.81,0,0,0-.5.07,1.21,1.21,0,0,0-1-.72,1.36,1.36,0,0,0-1.55.62c-.15,0-.11.12-.29.12a1.59,1.59,0,0,0-.87.24.67.67,0,0,0-.29-.06c-.27,0-.49.14-.49.32h0c-.79.06-1.41.5-1.41,1a.69.69,0,0,0,0,.08H95.56Z"/><path class="cls-6" d="M121.67,88.39c0-.63-.79-1.15-1.76-1.15a2.48,2.48,0,0,0-.94.18,1,1,0,0,0-.27,0,1.2,1.2,0,0,0-1.23-.68,1.81,1.81,0,0,0-.5.07,1.21,1.21,0,0,0-1-.72,1.36,1.36,0,0,0-1.55.62c-.15,0-.11.12-.29.12a1.59,1.59,0,0,0-.87.24.67.67,0,0,0-.29-.06c-.27,0-.49.14-.49.32h0c-.79.06-1.41.5-1.41,1a.69.69,0,0,0,0,.08h10.63Z"/><rect class="cls-10" x="12.51" y="129.38" width="267.75" height="38.48"/><path class="cls-11" d="M178.72,165.13h40.21a2.44,2.44,0,0,0,2.44-2.27c.08-1.43-1.07-3-6.58-3H183.5c-.37,0-2-.1-2,1,0,0-.12.72,1.86.52h18.41a1.09,1.09,0,0,1,1.24,1.13,1,1,0,0,1-1.28,1H179.15l-.27,0c-.24,0-.91,0-.91.9A.73.73,0,0,0,178.72,165.13Z"/><path class="cls-12" d="M151.86,143.41h-7.1a1.06,1.06,0,1,1,0-2.09H150a.83.83,0,1,0,0-1.64H122.36a.83.83,0,1,0,0,1.64h8.2a1.06,1.06,0,1,1,0,2.09H119.17a.93.93,0,1,0,0,1.82h32.7a.93.93,0,1,0,0-1.82Z"/><rect class="cls-13" x="176.26" y="139.68" width="8.83" height="1.76" rx="0.85" ry="0.85"/><rect class="cls-14" x="50.63" y="163.05" width="6.84" height="1.76" rx="0.85" ry="0.85"/><path class="cls-15" d="M116.52,159.42H76.31a2.44,2.44,0,0,1-2.44-2.27c-.08-1.43,1.07-3,6.58-3h31.29c.37,0,2-.1,2,1,0,0,.12.72-1.86.52h-8.71a1.09,1.09,0,0,0-1.24,1.13,1,1,0,0,0,1.28,1h12.84l.27,0c.24,0,.91,0,.91.9A.73.73,0,0,1,116.52,159.42Z"/><path class="cls-16" d="M151.38,153.4s3-2.55,4.48-.5S151.38,153.4,151.38,153.4Z"/><path class="cls-16" d="M87.89,149.22s4.52,5.14,7.58,2S87.89,149.22,87.89,149.22Z"/><path class="cls-16" d="M70,147.4s-3-2.55-4.48-.5S70,147.4,70,147.4Z"/><path class="cls-16" d="M129.89,157s1.07.91,1.59.18S129.89,157,129.89,157Z"/><path class="cls-16" d="M178.51,149.07s1.68,1.43,2.51.28S178.51,149.07,178.51,149.07Z"/><polygon class="cls-17" points="165.43 87.77 167.66 91.96 169.89 87.77 165.43 87.77"/><path class="cls-6" d="M87.19,36.68a2.84,2.84,0,0,0-4.35-2.4,1.13,1.13,0,0,0-.43-.1,2,2,0,0,0-2.79-1.52,2.26,2.26,0,0,0-1.69-1.77,2,2,0,0,0-2.5,1.53c-.25-.11-.18.29-.47.29a2,2,0,0,0-1.41.59.79.79,0,0,0-1.26.63v0A2.56,2.56,0,0,0,70,36.5q0,.11,0,.21H87.19v0Z"/><g class="cls-18"><path class="cls-16" d="M238.27,83.87c4.68,0,9.3.72,13.14.88a41.75,41.75,0,0,1-6.91-6.95c-1-1.24-25.48,5.41-25.48,5.41-11.64,1.23-40.74-8.47-51.49-6.51-23,4.2-11.33,13.26-41.38,12.12L192,119.1a122.62,122.62,0,0,0,14.34-21.5C215.22,81.32,234.32,83.87,238.27,83.87Z"/><path class="cls-19" d="M304.7,89.27c-2.12-1.56-6.67-2.86-11.74-3.89A152.19,152.19,0,0,0,271.7,82.7c-3.89,0-9.37-2.37-13.37,0-1.68,1-4.06,1.18-6.84,1.07-3.84-.16-8.47-.89-13.16-.88-4,0-23.07-2.55-32,13.73A122.61,122.61,0,0,1,192,118.12a112.59,112.59,0,0,1-12,12.09l142,.16V111.71C316.2,104,310.44,93.48,304.7,89.27Z"/><path class="cls-16" d="M7.35,129.39V106.32c3.64-9.22,15-15,19.92-15,10.05,0,23.35,10.7,38.85,10.7s-18.93,27.23-18.93,27.23Z"/><path class="cls-20" d="M26.34,99.81S16.51,98.75,16,107.14s-.7,22.64-.7,22.64l9.6-5.86s12.83-22.44,7.84-23.8S26.34,99.81,26.34,99.81Z"/><rect class="cls-6" x="35.79" y="64.37" width="12.29" height="0.82"/><rect class="cls-6" x="27.11" y="70.1" width="59.14" height="59.14"/><polygon class="cls-21" points="89.43 70.41 86.96 67.13 26.4 67.13 23.91 70.41 89.43 70.41"/><rect class="cls-21" x="27.11" y="92.59" width="59.13" height="12.3"/><rect class="cls-21" x="27.11" y="76.04" width="59.13" height="2.69"/><rect class="cls-22" x="33.54" y="77.39" width="2.28" height="4.27"/><rect class="cls-22" x="39.25" y="77.38" width="2.28" height="4.27"/><rect class="cls-22" x="44.49" y="77.4" width="2.28" height="4.27"/><rect class="cls-22" x="50.19" y="77.39" width="2.28" height="4.27"/><rect class="cls-22" x="55.83" y="77.4" width="2.28" height="4.27"/><rect class="cls-22" x="61.04" y="77.39" width="2.28" height="4.27"/><rect class="cls-22" x="66.44" y="77.4" width="2.28" height="4.27"/><rect class="cls-22" x="71.98" y="77.39" width="2.28" height="4.27"/><rect class="cls-22" x="77.82" y="77.41" width="2.28" height="4.27"/><rect class="cls-22" x="32.17" y="84.5" width="5.03" height="6.68"/><rect class="cls-23" x="32.17" y="89.98" width="5.03" height="1.2"/><rect class="cls-22" x="43.11" y="84.5" width="5.03" height="6.68"/><rect class="cls-23" x="43.11" y="89.98" width="5.03" height="1.2"/><rect class="cls-22" x="54.2" y="84.5" width="5.03" height="6.68"/><rect class="cls-23" x="54.2" y="89.98" width="5.03" height="1.2"/><rect class="cls-22" x="65.14" y="84.5" width="5.03" height="6.68"/><rect class="cls-23" x="65.14" y="89.98" width="5.03" height="1.2"/><rect class="cls-22" x="76.45" y="84.5" width="5.03" height="6.68"/><rect class="cls-23" x="76.45" y="89.98" width="5.03" height="1.2"/><rect class="cls-23" x="35.79" y="65.35" width="12.29" height="1.8"/><rect class="cls-6" x="61.51" y="62.24" width="12.29" height="4.91"/><path class="cls-21" d="M75.12,60.34c0,1.14-1.76,1.32-1.76,1.32h0a14.36,14.36,0,0,1-5.73-6.54,14.91,14.91,0,0,1-5.73,6.56s-1.76-.2-1.76-1.34a1.33,1.33,0,0,0,.64,1.89h13.7A1.35,1.35,0,0,0,75.12,60.34Z"/><path class="cls-23" d="M49.4,62.43c0,1.14-1.76,1.29-1.76,1.29h0c-1.39-.66-3.81-2.6-5.73-6.5a15,15,0,0,1-5.73,6.58s-1.76-.19-1.76-1.33a1.34,1.34,0,0,0,.64,1.9h13.7A1.39,1.39,0,0,0,49.4,62.43Z"/><rect class="cls-22" x="33.54" y="107.51" width="1.14" height="2.53"/><rect class="cls-22" x="36.63" y="107.51" width="1.14" height="2.53"/><rect class="cls-22" x="39.75" y="107.51" width="1.14" height="2.53"/><rect class="cls-22" x="42.84" y="107.51" width="1.14" height="2.53"/><rect class="cls-22" x="45.96" y="107.51" width="1.14" height="2.53"/><rect class="cls-22" x="49.04" y="107.51" width="1.14" height="2.53"/><rect class="cls-22" x="52.16" y="107.51" width="1.14" height="2.53"/><rect class="cls-22" x="55.25" y="107.51" width="1.14" height="2.53"/><rect class="cls-22" x="33.54" y="113.02" width="1.14" height="2.53"/><rect class="cls-22" x="36.63" y="113.02" width="1.14" height="2.53"/><rect class="cls-22" x="39.75" y="113.02" width="1.14" height="2.53"/><rect class="cls-22" x="42.84" y="113.02" width="1.14" height="2.53"/><rect class="cls-22" x="45.96" y="113.02" width="1.14" height="2.53"/><rect class="cls-22" x="49.04" y="113.02" width="1.14" height="2.53"/><rect class="cls-22" x="52.16" y="113.02" width="1.14" height="2.53"/><path class="cls-24" d="M48.08,67.16V64.37h.68a1.39,1.39,0,0,0,.64-1.94c0,1.14-1.76,1.29-1.76,1.29h0c-1.39-.66-3.81-2.6-5.73-6.5a15,15,0,0,1-5.73,6.58s-1.76-.19-1.76-1.33a1.34,1.34,0,0,0,.64,1.9h.73v2.79H26.4l-2.49,3.28h3.2v58.82H55.29V67.16Z"/><path class="cls-16" d="M102.61,87.22c4,2.1,11.9.15,20,.16,4,0,21.79,4.36,31.92,12.15,10.58,8.14,13.65,19.92,26.37,29.72l-165.21.17s12.9-13.16,27.84-13.24C61,116.08,66.44,98.62,72.17,94.9s13.21-7.68,17.09-7.68S98.62,85.12,102.61,87.22Z"/><rect class="cls-6" x="121.17" y="100.6" width="36.11" height="28.76"/><polygon class="cls-25" points="121.17 104.45 121.17 107.97 157.28 107.97 157.28 104.13 121.17 104.13 121.17 104.45"/><rect class="cls-22" x="129.21" y="122.2" width="2.28" height="4.27"/><rect class="cls-22" x="127.84" y="105.08" width="5.03" height="6.68"/><rect class="cls-23" x="127.84" y="110.56" width="5.03" height="1.2"/><polygon class="cls-25" points="159.18 100.72 157.9 96.28 121.17 96.28 119.89 100.72 159.18 100.72"/><polygon class="cls-25" points="156.47 96.28 155.19 91.84 123.87 91.84 122.59 96.28 156.47 96.28"/><rect class="cls-22" x="127.84" y="111.72" width="5.03" height="6.68"/><rect class="cls-23" x="127.84" y="117.2" width="5.03" height="1.2"/><rect class="cls-22" x="146.09" y="122.15" width="2.28" height="4.27"/><rect class="cls-22" x="144.71" y="105.03" width="5.03" height="6.68"/><rect class="cls-23" x="144.71" y="110.51" width="5.03" height="1.2"/><rect class="cls-22" x="144.71" y="111.67" width="5.03" height="6.68"/><rect class="cls-23" x="144.71" y="117.15" width="5.03" height="1.2"/><polygon class="cls-24" points="123.87 91.89 122.59 96.32 121.17 96.32 119.89 100.74 121.15 100.74 121.15 104.13 121.15 104.45 121.15 107.97 121.15 129.41 139.5 129.41 139.5 91.89 123.87 91.89"/><rect class="cls-6" x="91.45" y="68.26" width="19.79" height="3.93"/><rect class="cls-6" x="93.61" y="58.95" width="15.46" height="6.48"/><polygon class="cls-22" points="101.35 73.73 101.35 73.73 84.19 73.73 86.04 76.88 101.35 76.88 101.35 76.88 116.66 76.88 118.51 73.73 101.35 73.73"/><rect class="cls-21" x="93.3" y="73.74" width="1.57" height="3.14"/><rect class="cls-21" x="100.56" y="73.74" width="1.57" height="3.14"/><rect class="cls-21" x="107.81" y="73.74" width="1.57" height="3.14"/><rect class="cls-21" x="95.04" y="68.26" width="1.57" height="3.93"/><rect class="cls-21" x="97.81" y="61.46" width="1.57" height="3.97"/><rect class="cls-21" x="103.33" y="61.46" width="1.57" height="3.97"/><rect class="cls-21" x="100.57" y="68.26" width="1.57" height="3.93"/><rect class="cls-21" x="106.08" y="68.26" width="1.57" height="3.93"/><rect class="cls-6" x="86.04" y="78.17" width="30.61" height="18.1"/><polygon class="cls-23" points="87.16 72.19 84.19 73.73 118.51 73.73 115.38 72.19 87.16 72.19"/><rect class="cls-6" x="81.65" y="100.59" width="39.48" height="28.92"/><polygon class="cls-25" points="81.65 107.08 81.65 116.18 121.13 116.18 121.13 106.26 81.65 106.26 81.65 107.08"/><rect class="cls-21" x="81.65" y="114.94" width="39.48" height="1.24"/><rect class="cls-22" x="92.09" y="121.76" width="2.82" height="5.27"/><rect class="cls-22" x="97.35" y="121.76" width="2.82" height="5.27"/><rect class="cls-22" x="102.61" y="121.76" width="2.82" height="5.27"/><rect class="cls-22" x="107.87" y="121.76" width="2.82" height="5.27"/><rect class="cls-21" x="81.65" y="106.21" width="39.48" height="1.29"/><circle class="cls-23" cx="85.37" cy="111.11" r="2.38"/><circle class="cls-23" cx="101.08" cy="111.11" r="2.38"/><circle class="cls-23" cx="116.79" cy="111.11" r="2.38"/><rect class="cls-22" x="90.07" y="108.63" width="6.92" height="9.2"/><rect class="cls-22" x="105.78" y="108.63" width="6.92" height="9.2"/><rect class="cls-23" x="90.07" y="116.18" width="6.92" height="1.65"/><rect class="cls-23" x="105.78" y="116.18" width="6.92" height="1.65"/><polygon class="cls-22" points="101.34 98.62 80.55 98.62 81.65 100.59 101.34 100.59 121.13 100.59 122.23 98.62 101.34 98.62"/><rect class="cls-21" x="85.05" y="98.62" width="1.68" height="1.97"/><rect class="cls-21" x="92.78" y="98.62" width="1.68" height="1.97"/><rect class="cls-21" x="100.5" y="98.62" width="1.68" height="1.97"/><rect class="cls-21" x="108.23" y="98.62" width="1.68" height="1.97"/><rect class="cls-21" x="115.96" y="98.62" width="1.68" height="1.97"/><path class="cls-23" d="M122.23,98.61l-2-1.2c2.07-1.21.63-4.12.63-4.12a3.61,3.61,0,0,1-2.47,3v0H84.16a3.63,3.63,0,0,1-2.51-3s-1.49,3,.7,4.15h0l-1.8,1.16Z"/><polygon class="cls-25" points="86.04 83.11 86.04 92.21 116.65 92.21 116.65 82.28 86.04 82.28 86.04 83.11"/><rect class="cls-21" x="86.04" y="90.97" width="30.61" height="1.24"/><rect class="cls-21" x="86.04" y="82.23" width="30.61" height="1.29"/><rect class="cls-21" x="86.04" y="76.88" width="30.61" height="1.29"/><rect class="cls-21" x="91.45" y="66.96" width="19.79" height="1.33"/><rect class="cls-22" x="97.88" y="84.66" width="6.92" height="7.54"/><rect class="cls-23" x="97.88" y="92.21" width="6.92" height="1.65"/><circle class="cls-23" cx="89.26" cy="87.22" r="1.88"/><circle class="cls-23" cx="95.02" cy="87.22" r="1.88"/><circle class="cls-23" cx="107.66" cy="87.22" r="1.88"/><circle class="cls-23" cx="113.42" cy="87.22" r="1.88"/><rect class="cls-22" x="90.75" y="65.43" width="21.18" height="1.57"/><rect class="cls-22" x="93.61" y="58.95" width="15.46" height="1.28"/><rect class="cls-21" x="93.61" y="60.24" width="15.46" height="1.23"/><path class="cls-23" d="M109.8,56.81c0,1.29-2,1.5-2,1.5h0c-1.57-.82-4.31-3-6.47-7.38a16.84,16.84,0,0,1-6.47,7.41s-2-.23-2-1.51A1.5,1.5,0,0,0,93.61,59h15.47A1.52,1.52,0,0,0,109.8,56.81Z"/><g class="cls-26"><path class="cls-27" d="M94.87,73.75H84.19L86,76.89v1.29h0v18.1H84.16a3.57,3.57,0,0,1-2.51-3s-1.49,3,.7,4.17l-1.8,1.18,1.1,2v28.92h19.69V73.75H94.87Z"/><polygon class="cls-27" points="84.19 73.74 101.34 73.74 101.34 72.21 87.16 72.21 84.19 73.74"/><path class="cls-27" d="M94.87,58.36s-2-.24-2-1.52A1.49,1.49,0,0,0,93.61,59v6.48H90.75V67h.7V72.2h9.89V51h0A16.8,16.8,0,0,1,94.87,58.36Z"/></g><rect class="cls-6" x="157.09" y="100.52" width="70.36" height="28.92"/><polygon class="cls-23" points="157.09 107.01 157.09 116.11 227.45 116.11 227.45 106.18 157.09 106.18 157.09 107.01"/><rect class="cls-21" x="157.09" y="114.87" width="70.36" height="1.24"/><rect class="cls-22" x="167.53" y="121.69" width="2.82" height="5.27"/><rect class="cls-22" x="172.79" y="121.69" width="2.82" height="5.27"/><rect class="cls-22" x="178.05" y="121.69" width="2.82" height="5.27"/><rect class="cls-22" x="183.31" y="121.69" width="2.82" height="5.27"/><rect class="cls-21" x="157.09" y="106.13" width="70.36" height="1.29"/><rect class="cls-22" x="165.51" y="108.56" width="6.92" height="9.2"/><rect class="cls-22" x="181.22" y="108.56" width="6.92" height="9.2"/><rect class="cls-23" x="165.51" y="116.11" width="6.92" height="1.65"/><rect class="cls-23" x="181.22" y="116.11" width="6.92" height="1.65"/><polygon class="cls-22" points="176.78 98.55 155.99 98.55 157.09 100.52 176.78 100.52 227.44 100.52 228.55 98.55 176.78 98.55"/><rect class="cls-23" x="160.49" y="98.54" width="1.68" height="1.97"/><rect class="cls-23" x="168.21" y="98.54" width="1.68" height="1.97"/><rect class="cls-23" x="175.94" y="98.54" width="1.68" height="1.97"/><rect class="cls-23" x="183.67" y="98.54" width="1.68" height="1.97"/><rect class="cls-21" x="155.99" y="96.19" width="72.56" height="2.35"/><polygon class="cls-24" points="155.99 96.15 155.96 98.53 157.03 100.52 157.03 106.13 157.03 106.18 157.03 107.01 157.03 107.42 157.03 114.86 157.03 116.11 157.03 129.41 192.25 129.41 192.25 96.15 155.99 96.15"/></g><rect class="cls-28" x="12.37" y="129.38" width="268.47" height="7.89"/></g></svg>