<svg id="Layer_1" data-name="Layer 1" xmlns="http://www.w3.org/2000/svg" xmlns:xlink="http://www.w3.org/1999/xlink" viewBox="0 0 546.05 561.06"><defs><style>.cls-1{fill:none;}.cls-2{clip-path:url(#clip-path);}.cls-3{clip-path:url(#clip-path-2);}.cls-4{fill:url(#linear-gradient);}.cls-5{fill:url(#linear-gradient-2);}.cls-28,.cls-32,.cls-6{fill:#fff;}.cls-7{fill:url(#linear-gradient-3);}.cls-8{fill:url(#linear-gradient-4);}.cls-9{fill:url(#linear-gradient-5);}.cls-10{fill:url(#linear-gradient-6);}.cls-11{fill:url(#linear-gradient-7);}.cls-12{fill:url(#linear-gradient-8);}.cls-13{fill:url(#linear-gradient-9);}.cls-14{fill:#51695c;}.cls-15{fill:#db474f;}.cls-16{fill:#ccc;}.cls-17{fill:#a05d56;}.cls-18{fill:#484257;}.cls-19{fill:#d2aa62;}.cls-20,.cls-23{fill:#423b50;}.cls-20,.cls-22{opacity:0.18;}.cls-21{fill:#cd675d;}.cls-24{fill:#853b36;}.cls-25{clip-path:url(#clip-path-3);}.cls-26{clip-path:url(#clip-path-4);}.cls-27{fill:url(#linear-gradient-10);}.cls-28{opacity:0.34;}.cls-29,.cls-30{fill:#efe6de;}.cls-29{opacity:0.5;}.cls-31{fill:#69676e;}.cls-32{opacity:0.48;}.cls-33{fill:#da6458;}.cls-34{fill:#b01f24;}.cls-35{fill:#b31f24;}.cls-36{fill:#b11f24;}.cls-37{opacity:0.25;}.cls-38{fill:url(#linear-gradient-11);}.cls-39{fill:url(#linear-gradient-12);}.cls-40{fill:url(#linear-gradient-13);}.cls-41{fill:#fbd01f;}.cls-42{fill:#e2ba25;}</style><clipPath id="clip-path"><circle class="cls-1" cx="269.07" cy="282.21" r="250"/></clipPath><clipPath id="clip-path-2"><rect id="SVGID" class="cls-1" x="-0.12" y="30.21" width="894.31" height="502"/></clipPath><linearGradient id="linear-gradient" x1="-4473.99" y1="281.31" x2="893.26" y2="281.31" gradientUnits="userSpaceOnUse"><stop offset="0" stop-color="#fdc06e"/><stop offset="0.14" stop-color="#efadb8"/><stop offset="0.37" stop-color="#b2b1d8"/><stop offset="0.6" stop-color="#99cdc6"/><stop offset="0.67" stop-color="#aacdae"/><stop offset="0.75" stop-color="#bbcd95"/><stop offset="0.79" stop-color="#c5ca92"/><stop offset="0.92" stop-color="#e6c189"/><stop offset="1" stop-color="#f3be86"/></linearGradient><linearGradient id="linear-gradient-2" x1="-1175.33" y1="370.02" x2="-1175.33" y2="175.28" gradientTransform="matrix(-1, 0, 0, 1, -883.66, 0)" gradientUnits="userSpaceOnUse"><stop offset="0" stop-color="#fcc189"/><stop offset="0.18" stop-color="#f7c089"/><stop offset="0.39" stop-color="#e8bb8b"/><stop offset="0.62" stop-color="#d0b48d"/><stop offset="0.87" stop-color="#aeaa8f"/><stop offset="1" stop-color="#99a491"/></linearGradient><linearGradient id="linear-gradient-3" x1="109.62" y1="298.71" x2="109.62" y2="103.97" gradientTransform="matrix(1, 0, 0, 1, 0, 0)" xlink:href="#linear-gradient-2"/><linearGradient id="linear-gradient-4" x1="413.34" y1="211.06" x2="413.34" y2="118.03" gradientTransform="matrix(1, 0, 0, 1, 0, 0)" xlink:href="#linear-gradient-2"/><linearGradient id="linear-gradient-5" x1="446.34" y1="542.53" x2="446.34" y2="328.76" gradientUnits="userSpaceOnUse"><stop offset="0" stop-color="#d5b671"/><stop offset="0.24" stop-color="#d09966"/><stop offset="0.35" stop-color="#ce8a61"/><stop offset="0.51" stop-color="#d39270"/><stop offset="0.81" stop-color="#dfa896"/><stop offset="1" stop-color="#e7b7b2"/></linearGradient><linearGradient id="linear-gradient-6" x1="410.13" y1="475" x2="410.13" y2="358.74" xlink:href="#linear-gradient-5"/><linearGradient id="linear-gradient-7" x1="560.58" y1="421.76" x2="560.58" y2="451.17" xlink:href="#linear-gradient-5"/><linearGradient id="linear-gradient-8" x1="138.74" y1="528.43" x2="138.74" y2="505.64" xlink:href="#linear-gradient-5"/><linearGradient id="linear-gradient-9" x1="277.04" y1="527.08" x2="277.04" y2="382.52" xlink:href="#linear-gradient-5"/><clipPath id="clip-path-3"><circle class="cls-1" cx="-449.86" cy="282.21" r="250.43"/></clipPath><clipPath id="clip-path-4"><rect id="SVGID-2" data-name="SVGID" class="cls-1" x="-706.41" y="32.71" width="889.42" height="500.3"/></clipPath><linearGradient id="linear-gradient-10" x1="-706.41" y1="282.96" x2="4631.51" y2="282.96" xlink:href="#linear-gradient"/><linearGradient id="linear-gradient-11" x1="-0.92" y1="279.09" x2="73.74" y2="279.09" gradientUnits="userSpaceOnUse"><stop offset="0" stop-color="#ffcc7e"/><stop offset="1" stop-color="#f26767"/></linearGradient><linearGradient id="linear-gradient-12" x1="31.49" y1="200.16" x2="32.12" y2="200.16" xlink:href="#linear-gradient-11"/><linearGradient id="linear-gradient-13" x1="-13244.34" y1="118.7" x2="-13125.77" y2="118.7" gradientTransform="matrix(-1, 0, 0, 1, -12996.84, 0)" gradientUnits="userSpaceOnUse"><stop offset="0" stop-color="#f4889e"/><stop offset="0.94" stop-color="#ffd193"/></linearGradient></defs><title>ปุ่มภูแก้</title><g class="cls-2"><g class="cls-3"><rect class="cls-4" x="-4473.99" y="30.41" width="5367.25" height="501.8"/></g><path class="cls-5" d="M357,287H195.89s7.82-52.46,60.2-46.9c0,0,3.91-41.33,39.09-27.82,0,0,16.42,6.36,13.29,27.82,0,0,4.69-8.74,16.42-4.77,0,0,8.6,4,7,12.72,0,0,15.64-5.56,16.42,9.54,0,0,36.75,3.18,39.09,29.41Z"/><path class="cls-6" d="M460.66,233.47c0-2.11-8.79-3.82-19.62-3.82a87.37,87.37,0,0,0-10.44.59c-.92-.08-1.94-.13-3-.13-1-1.29-6.77-2.28-13.69-2.28-2,0-3.88.08-5.59.23-1.87-1.06-4-2-11.71-2.38-9.3-.45-15.9.84-17.26,2.06-1.7-.15-1.27.39-3.26.39a52.41,52.41,0,0,0-9.74.8,23,23,0,0,0-3.28-.22c-3,0-5.43.47-5.43,1.06a.21.21,0,0,0,0,0c-8.83.19-15.7,1.65-15.7,3.43a.73.73,0,0,0,.06.28H460.66s0,0,0,0Z"/><path class="cls-6" d="M81.91,185.24c0-4.21-3.83-7.63-8.55-7.63a9.27,9.27,0,0,0-4.55,1.17,3.75,3.75,0,0,0-1.31-.26,5.87,5.87,0,0,0-6-4.55,6.63,6.63,0,0,0-2.44.46c-.81-2.12-1.76-4-5.1-4.76a6.14,6.14,0,0,0-7.52,4.1c-.74-.3-.55.78-1.42.78a6.27,6.27,0,0,0-4.24,1.6,2.54,2.54,0,0,0-1.43-.43A2.25,2.25,0,0,0,37,177.84s0,.05,0,.08c-3.85.39-6.84,3.3-6.84,6.84,0,.19,0,.38,0,.56l0,0H81.91s0-.06,0-.1Z"/><path class="cls-7" d="M44.34,248.32H205.4s-7.82-52.46-60.2-46.9c0,0-3.91-41.33-39.09-27.82,0,0-16.42,6.36-13.29,27.82,0,0-4.69-8.74-16.42-4.77,0,0-8.6,4-7,12.72,0,0-15.64-5.56-16.42,9.54,0,0-36.75,3.18-39.09,29.41Z"/><path class="cls-8" d="M370.67,187H475.95s-5.11-25.06-39.35-22.4c0,0-2.56-19.74-25.55-13.29,0,0-10.73,3-8.69,13.29,0,0-3.07-4.18-10.73-2.28,0,0-5.62,1.9-4.6,6.08,0,0-10.22-2.66-10.73,4.56,0,0-24,1.52-25.55,14Z"/><path class="cls-6" d="M283.18,136c0-2.11-2.62-3.82-5.86-3.82a8.25,8.25,0,0,0-3.12.59,3.41,3.41,0,0,0-.9-.13c-.31-1.29-2-2.28-4.09-2.28a6,6,0,0,0-1.67.23,4,4,0,0,0-3.5-2.38c-2.78-.45-4.75.84-5.15,2.06-.51-.15-.38.39-1,.39a5.29,5.29,0,0,0-2.91.8,2.22,2.22,0,0,0-1-.22c-.89,0-1.62.47-1.62,1.06v0c-2.64.19-4.69,1.65-4.69,3.43a2.29,2.29,0,0,0,0,.28h35.43v0Z"/><path class="cls-6" d="M364,267.47c0-2.11-2.62-3.82-5.86-3.82a8.25,8.25,0,0,0-3.12.59,3.41,3.41,0,0,0-.9-.13c-.31-1.29-2-2.28-4.09-2.28a6,6,0,0,0-1.67.23,4,4,0,0,0-3.5-2.38c-2.78-.45-4.75.84-5.15,2.06-.51-.15-.38.39-1,.39a5.29,5.29,0,0,0-2.91.8,2.22,2.22,0,0,0-1-.22c-.89,0-1.62.47-1.62,1.06v0c-2.64.19-4.69,1.65-4.69,3.43a2.29,2.29,0,0,0,0,.28H364v0Z"/><rect class="cls-9" x="0.34" y="404.02" width="891.98" height="128.19"/><path class="cls-10" d="M464.59,450.76H440.94c-2.32,0-4.22-1.57-4.22-3.48s1.9-3.48,4.22-3.48h17.42a2.77,2.77,0,1,0,0-5.45H366.3a2.77,2.77,0,1,0,0,5.45h27.32c2.32,0,4.22,1.57,4.22,3.48s-1.9,3.48-4.22,3.48h-38c-2,0-3.67,1.36-3.67,3s1.65,3,3.67,3H464.59c2,0,3.67-1.36,3.67-3S466.61,450.76,464.59,450.76Z"/><rect class="cls-11" x="545.87" y="438.34" width="29.41" height="5.88" rx="2.27" ry="2.27"/><rect class="cls-12" x="127.35" y="516.19" width="22.78" height="5.88" rx="2.27" ry="2.27"/><path class="cls-13" d="M346.83,504.09H212.89a8.12,8.12,0,0,1-8.13-7.58c-.27-4.78,3.58-10,21.93-10H330.31l.61,0c1.25-.1,6.8-.35,6.8,3.38,0,0,.4,2.41-6.19,1.73a8.58,8.58,0,0,0-.88,0H302.51s-4.14-.42-4.14,3.78c0,3.54,3.24,3.5,4.26,3.4.24,0,.48,0,.72,0h42a7.34,7.34,0,0,0,.91-.05c.81-.1,3-.09,3,3A2.44,2.44,0,0,1,346.83,504.09Z"/><path class="cls-14" d="M463,484.05s10-8.48,14.93-1.68S463,484.05,463,484.05Z"/><path class="cls-14" d="M251.47,470.11s15.06,17.14,25.26,6.67S251.47,470.11,251.47,470.11Z"/><path class="cls-14" d="M191.91,464.07s-10-8.48-14.93-1.68S191.91,464.07,191.91,464.07Z"/><path class="cls-14" d="M391.41,495.93s3.56,3,5.31.6S391.41,495.93,391.41,495.93Z"/><polygon class="cls-15" points="509.78 265.4 517.22 279.35 524.66 265.4 509.78 265.4"/><path class="cls-6" d="M227.1,92.5a9.46,9.46,0,0,0-14.49-8,3.77,3.77,0,0,0-1.45-.32,6.68,6.68,0,0,0-9.3-5.07c-.9-2.62-1.95-5-5.64-5.9a6.76,6.76,0,0,0-8.32,5.08c-.82-.37-.61,1-1.57,1a6.54,6.54,0,0,0-4.7,2,2.62,2.62,0,0,0-4.2,2.08s0,.06,0,.09a8.53,8.53,0,0,0-7.57,8.48q0,.35,0,.7l0,0H227.1s0-.08,0-.12Z"/><path class="cls-14" d="M752.45,252.39c15.6,0,31,2.41,43.78,2.94a139.08,139.08,0,0,1-23-23.14c-3.29-4.13-84.9,18-84.9,18-38.77,4.1-135.73-28.23-171.54-21.69-76.61,14-37.76,44.17-137.86,40.37L598.34,369.78C617.65,347,632,324,646.12,298.15,675.68,243.91,739.28,252.42,752.45,252.39Z"/><path class="cls-14" d="M-16.85,404V327.2c12.13-30.72,50.11-50,66.35-50,33.5,0,77.79,35.63,129.42,35.63s-63.07,90.71-63.07,90.71Z"/><path class="cls-16" d="M46.41,305.53S13.68,302,12,329.92s-2.33,75.44-2.33,75.44l32-19.52s42.74-74.77,26.13-79.3S46.41,305.53,46.41,305.53Z"/><rect class="cls-6" x="77.91" y="187.45" width="40.93" height="2.73"/><rect class="cls-6" x="48.98" y="206.55" width="197.03" height="197.03"/><polygon class="cls-17" points="256.61 207.56 248.37 196.63 46.61 196.63 38.33 207.56 256.61 207.56"/><rect class="cls-17" x="48.98" y="281.46" width="196.98" height="40.98"/><rect class="cls-17" x="48.98" y="226.34" width="196.98" height="8.96"/><rect class="cls-18" x="70.42" y="230.83" width="7.61" height="14.23"/><rect class="cls-18" x="89.44" y="230.79" width="7.61" height="14.23"/><rect class="cls-18" x="106.87" y="230.84" width="7.61" height="14.23"/><rect class="cls-18" x="125.89" y="230.81" width="7.61" height="14.23"/><rect class="cls-18" x="144.65" y="230.85" width="7.61" height="14.23"/><rect class="cls-18" x="162.03" y="230.82" width="7.61" height="14.23"/><rect class="cls-18" x="180.01" y="230.87" width="7.61" height="14.23"/><rect class="cls-18" x="198.48" y="230.83" width="7.61" height="14.23"/><rect class="cls-18" x="217.92" y="230.88" width="7.61" height="14.23"/><rect class="cls-18" x="65.85" y="254.51" width="16.75" height="22.25"/><rect class="cls-19" x="65.85" y="272.76" width="16.75" height="4"/><rect class="cls-18" x="102.3" y="254.51" width="16.75" height="22.25"/><rect class="cls-19" x="102.3" y="272.76" width="16.75" height="4"/><rect class="cls-18" x="139.23" y="254.51" width="16.75" height="22.25"/><rect class="cls-19" x="139.23" y="272.76" width="16.75" height="4"/><rect class="cls-18" x="175.68" y="254.51" width="16.75" height="22.25"/><rect class="cls-19" x="175.68" y="272.76" width="16.75" height="4"/><rect class="cls-18" x="213.35" y="254.51" width="16.75" height="22.25"/><rect class="cls-19" x="213.35" y="272.76" width="16.75" height="4"/><rect class="cls-19" x="77.91" y="190.72" width="40.93" height="6"/><rect class="cls-6" x="163.6" y="180.35" width="40.93" height="16.37"/><path class="cls-17" d="M208.94,174c0,3.79-5.85,4.41-5.85,4.41h0c-4.63-2.42-12.71-8.78-19.09-21.78-6.38,13-14.45,19.2-19.09,21.87,0,0-5.87-.68-5.85-4.46,0,0-2.27,4.37,2.13,6.3h45.63C211.21,178.42,208.94,174,208.94,174Z"/><path class="cls-19" d="M123.25,181c0,3.79-5.85,4.29-5.85,4.29h0c-4.63-2.18-12.71-8.66-19.09-21.65-6.38,13-14.45,19.27-19.09,21.93,0,0-5.87-.64-5.85-4.43,0,0-2.27,4.4,2.13,6.33h45.63C125.52,185.51,123.25,181,123.25,181Z"/><rect class="cls-18" x="70.42" y="331.17" width="3.8" height="8.44"/><rect class="cls-18" x="80.7" y="331.17" width="3.8" height="8.44"/><rect class="cls-18" x="91.1" y="331.17" width="3.8" height="8.44"/><rect class="cls-18" x="101.38" y="331.17" width="3.8" height="8.44"/><rect class="cls-18" x="111.77" y="331.17" width="3.8" height="8.44"/><rect class="cls-18" x="122.05" y="331.17" width="3.8" height="8.44"/><rect class="cls-18" x="132.45" y="331.17" width="3.8" height="8.44"/><rect class="cls-18" x="142.72" y="331.17" width="3.8" height="8.44"/><rect class="cls-18" x="70.42" y="349.52" width="3.8" height="8.44"/><rect class="cls-18" x="80.7" y="349.52" width="3.8" height="8.44"/><rect class="cls-18" x="91.1" y="349.52" width="3.8" height="8.44"/><rect class="cls-18" x="101.38" y="349.52" width="3.8" height="8.44"/><rect class="cls-18" x="111.77" y="349.52" width="3.8" height="8.44"/><rect class="cls-18" x="122.05" y="349.52" width="3.8" height="8.44"/><rect class="cls-18" x="132.45" y="349.52" width="3.8" height="8.44"/><path class="cls-20" d="M118.85,196.73v-9.28h2.28c4.4-1.93,2.13-6.47,2.13-6.47,0,3.79-5.85,4.29-5.85,4.29h0c-4.63-2.18-12.71-8.66-19.09-21.65-6.38,13-14.45,19.27-19.09,21.93,0,0-5.87-.64-5.85-4.43,0,0-2.27,4.4,2.13,6.33h2.42v9.28H46.61l-8.28,10.92H49V403.58h93.88V196.73Z"/><path class="cls-14" d="M300.52,263.57c13.3,7,39.63.49,66.55.54,13.16,0,72.58,14.54,106.32,40.48,35.26,27.11,45.48,66.37,87.84,99l-550.37.57s43-43.83,92.75-44.1c58.22-.32,76.42-58.49,95.51-70.9s44-25.57,56.93-25.57S287.22,256.58,300.52,263.57Z"/><rect class="cls-6" x="362.32" y="308.15" width="120.3" height="95.8"/><polygon class="cls-21" points="362.32 320.98 362.32 332.69 482.63 332.69 482.63 319.91 362.32 319.91 362.32 320.98"/><rect class="cls-18" x="389.13" y="380.11" width="7.61" height="14.23"/><rect class="cls-18" x="384.56" y="323.08" width="16.75" height="22.25"/><rect class="cls-19" x="384.56" y="341.33" width="16.75" height="4"/><polygon class="cls-21" points="488.95 308.53 484.69 293.74 362.34 293.74 358.06 308.53 488.95 308.53"/><polygon class="cls-21" points="479.95 293.74 475.68 278.96 371.35 278.96 367.07 293.74 479.95 293.74"/><rect class="cls-18" x="384.56" y="345.2" width="16.75" height="22.25"/><rect class="cls-19" x="384.56" y="363.45" width="16.75" height="4"/><rect class="cls-18" x="445.35" y="379.94" width="7.61" height="14.23"/><rect class="cls-18" x="440.78" y="322.9" width="16.75" height="22.25"/><rect class="cls-19" x="440.78" y="341.15" width="16.75" height="4"/><rect class="cls-18" x="440.78" y="345.02" width="16.75" height="22.25"/><rect class="cls-19" x="440.78" y="363.27" width="16.75" height="4"/><polygon class="cls-20" points="371.35 279.14 367.07 293.88 362.34 293.88 358.06 308.61 362.27 308.61 362.27 319.91 362.27 320.98 362.27 332.69 362.27 404.13 423.4 404.13 423.4 279.14 371.35 279.14"/><rect class="cls-6" x="263.33" y="200.41" width="65.94" height="13.09"/><rect class="cls-6" x="270.53" y="169.39" width="51.52" height="21.6"/><polygon class="cls-18" points="296.3 218.64 296.3 218.64 239.13 218.64 245.3 229.12 296.3 229.12 296.3 229.12 347.3 229.12 353.47 218.64 296.3 218.64"/><rect class="cls-17" x="269.49" y="218.64" width="5.24" height="10.47"/><rect class="cls-17" x="293.68" y="218.64" width="5.24" height="10.47"/><rect class="cls-17" x="317.84" y="218.64" width="5.24" height="10.47"/><rect class="cls-17" x="275.28" y="200.4" width="5.24" height="13.1"/><rect class="cls-17" x="284.53" y="177.76" width="5.24" height="13.23"/><rect class="cls-17" x="302.91" y="177.76" width="5.24" height="13.23"/><rect class="cls-17" x="293.7" y="200.4" width="5.24" height="13.1"/><rect class="cls-17" x="312.09" y="200.4" width="5.24" height="13.1"/><rect class="cls-6" x="245.32" y="233.42" width="101.97" height="60.29"/><polygon class="cls-19" points="249.03 213.51 239.13 218.63 353.47 218.63 343.04 213.51 249.03 213.51"/><rect class="cls-6" x="230.69" y="308.12" width="131.52" height="96.34"/><polygon class="cls-21" points="230.69 329.75 230.69 360.04 362.21 360.04 362.21 326.99 230.69 326.99 230.69 329.75"/><rect class="cls-17" x="230.69" y="355.91" width="131.52" height="4.13"/><rect class="cls-18" x="265.46" y="378.64" width="9.39" height="17.56"/><rect class="cls-18" x="282.99" y="378.64" width="9.39" height="17.56"/><rect class="cls-18" x="300.52" y="378.64" width="9.39" height="17.56"/><rect class="cls-18" x="318.05" y="378.64" width="9.39" height="17.56"/><rect class="cls-17" x="230.69" y="326.82" width="131.52" height="4.3"/><circle class="cls-19" cx="243.08" cy="343.17" r="7.92"/><circle class="cls-19" cx="295.42" cy="343.17" r="7.92"/><circle class="cls-19" cx="347.75" cy="343.17" r="7.92"/><rect class="cls-18" x="258.75" y="334.91" width="23.07" height="30.64"/><rect class="cls-18" x="311.08" y="334.91" width="23.07" height="30.64"/><rect class="cls-19" x="258.75" y="360.04" width="23.07" height="5.51"/><rect class="cls-19" x="311.08" y="360.04" width="23.07" height="5.51"/><polygon class="cls-18" points="296.29 301.54 227.02 301.54 230.69 308.12 296.29 308.12 362.19 308.12 365.88 301.54 296.29 301.54"/><rect class="cls-17" x="242" y="301.54" width="5.58" height="6.57"/><rect class="cls-17" x="267.75" y="301.54" width="5.58" height="6.57"/><rect class="cls-17" x="293.5" y="301.54" width="5.58" height="6.57"/><rect class="cls-17" x="319.24" y="301.54" width="5.58" height="6.57"/><rect class="cls-17" x="344.99" y="301.54" width="5.58" height="6.57"/><path class="cls-19" d="M365.88,301.52l-6.5-4c6.9-4,2.08-13.72,2.08-13.72a12,12,0,0,1-8.23,10l0,.07H239a12.08,12.08,0,0,1-8.36-10s-5,9.91,2.35,13.83h0l-6,3.86Z"/><polygon class="cls-21" points="245.32 249.88 245.32 280.18 347.29 280.18 347.29 247.13 245.32 247.13 245.32 249.88"/><rect class="cls-17" x="245.32" y="276.05" width="101.97" height="4.13"/><rect class="cls-17" x="245.32" y="246.95" width="101.97" height="4.3"/><rect class="cls-17" x="245.3" y="229.12" width="101.97" height="4.3"/><rect class="cls-17" x="263.33" y="196.08" width="65.94" height="4.44"/><rect class="cls-18" x="284.75" y="255.04" width="23.07" height="25.13"/><rect class="cls-19" x="284.75" y="280.18" width="23.07" height="5.51"/><circle class="cls-19" cx="256.04" cy="263.57" r="6.26"/><circle class="cls-19" cx="275.23" cy="263.57" r="6.26"/><circle class="cls-19" cx="317.34" cy="263.57" r="6.26"/><circle class="cls-19" cx="336.53" cy="263.57" r="6.26"/><rect class="cls-18" x="261.01" y="190.99" width="70.55" height="5.23"/><rect class="cls-18" x="270.53" y="169.39" width="51.52" height="4.28"/><rect class="cls-17" x="270.53" y="173.67" width="51.52" height="4.09"/><path class="cls-19" d="M324.47,162.27c0,4.28-6.61,5-6.61,5h0c-5.23-2.73-14.35-9.92-21.56-24.6-7.21,14.68-16.33,21.69-21.56,24.7,0,0-6.63-.76-6.61-5,0,0-2.56,4.93,2.41,7.12h51.53C327,167.25,324.47,162.27,324.47,162.27Z"/><g class="cls-22"><path class="cls-23" d="M274.73,218.68h-35.6l6.17,10.47v4.3h0v60.29H239a11.9,11.9,0,0,1-8.36-10s-4.95,10,2.35,13.88l-6,3.92,3.67,6.57v96.34h65.6V218.68H274.73Z"/><polygon class="cls-23" points="239.13 218.66 296.29 218.66 296.29 213.55 249.03 213.55 239.13 218.66"/><path class="cls-23" d="M274.73,167.42s-6.63-.8-6.61-5.08c0,0-2.56,4.75,2.41,7.08V191H261v5.23h2.32v17.28h33V142.76h0C289.08,157.44,280,164.41,274.73,167.42Z"/></g><rect class="cls-6" x="482.01" y="307.87" width="234.39" height="96.34"/><polygon class="cls-19" points="482.01 329.5 482.01 359.8 716.4 359.8 716.4 326.75 482.01 326.75 482.01 329.5"/><rect class="cls-17" x="482.01" y="355.67" width="234.39" height="4.13"/><rect class="cls-18" x="516.78" y="378.39" width="9.39" height="17.56"/><rect class="cls-18" x="534.31" y="378.39" width="9.39" height="17.56"/><rect class="cls-17" x="482.01" y="326.57" width="234.39" height="4.3"/><rect class="cls-18" x="510.07" y="334.66" width="23.07" height="30.64"/><rect class="cls-19" x="510.07" y="359.8" width="23.07" height="5.51"/><polygon class="cls-18" points="547.61 301.3 478.34 301.3 482.01 307.87 547.61 307.87 716.38 307.87 720.06 301.3 547.61 301.3"/><rect class="cls-19" x="493.32" y="301.3" width="5.58" height="6.57"/><rect class="cls-19" x="519.07" y="301.3" width="5.58" height="6.57"/><rect class="cls-19" x="544.82" y="301.3" width="5.58" height="6.57"/><rect class="cls-17" x="478.34" y="293.46" width="241.72" height="7.83"/><polygon class="cls-20" points="478.34 293.33 478.24 301.23 481.8 307.87 481.8 326.57 481.8 326.75 481.8 329.5 481.8 330.88 481.8 355.67 481.8 359.8 481.8 404.13 599.14 404.13 599.14 293.33 478.34 293.33"/><rect class="cls-1" x="12.43" y="29.74" width="894.4" height="400.57"/><rect class="cls-24" x="-0.12" y="404.02" width="894.4" height="26.29"/></g><g class="cls-25"><g class="cls-26"><rect class="cls-27" x="-706.41" y="32.92" width="5337.92" height="500.1"/></g><path class="cls-28" d="M135.23,305.77h-34c-3.34,0-6.07-2.23-6.07-4.95s2.73-4.95,6.07-4.95h25.07c2.61,0,4.75-1.74,4.75-3.87s-2.14-3.87-4.75-3.87H-6.24c-2.61,0-4.75,1.74-4.75,3.87s2.14,3.87,4.75,3.87H33.09c3.34,0,6.07,2.23,6.07,4.95s-2.73,4.95-6.07,4.95H-21.55c-2.9,0-5.28,1.94-5.28,4.3s2.38,4.3,5.28,4.3H135.23c2.9,0,5.28-1.94,5.28-4.3S138.14,305.77,135.23,305.77Z"/><path class="cls-29" d="M197.83,185.43c-3.49-2.63-6.15-7.51-8.76-10.93,0,0,14.63-10.17,18.84-17.49,6.61-11.47,2.17-20.32-5.91-27-2.18-1.8-10.87-3.49-15.56-4.87a7.13,7.13,0,0,0-1.39-.33,26.39,26.39,0,0,0-8.13-.93H47.68c-13,0-23.5,8.51-23.5,19.68s10.52,19.68,23.5,19.68H176.92c.59,0,1.18-.48,1.76-.52a62.05,62.05,0,0,1-12,5.39L161,169.27c-8,0-14.45,6.39-14.45,13.2s6.47,13.2,14.45,13.2h58.33S211.42,195.66,197.83,185.43Z"/><path class="cls-30" d="M-69.3,253.68H35.37s-5.08-33.53-39.12-30c0,0-2.54-26.42-25.4-17.78,0,0-10.67,4.06-8.64,17.78,0,0-3-5.59-10.67-3,0,0-5.59,2.54-4.57,8.13,0,0-10.16-3.56-10.67,6.1,0,0-23.88,2-25.4,18.8Z"/><path class="cls-30" d="M123.72,106.73a8.5,8.5,0,0,0-13-7.19,3.38,3.38,0,0,0-1.3-.29A6,6,0,0,0,101,94.7c-.81-2.36-1.75-4.47-5.07-5.3A6.07,6.07,0,0,0,88.5,94c-.74-.33-.55.87-1.41.87a5.88,5.88,0,0,0-4.22,1.78,2.35,2.35,0,0,0-3.77,1.87s0,.06,0,.09a7.67,7.67,0,0,0-6.8,7.62q0,.32,0,.63l0,0h51.42s0-.07,0-.11Z"/><path class="cls-30" d="M178.39,340.65h0a5.68,5.68,0,0,0-9.26,0h0l-4.63,7.17-4.63-7.17h0a5.68,5.68,0,0,0-9.26,0h0L146,347.83l-4.63-7.17h0a5.68,5.68,0,0,0-9.26,0h0l-4.63,7.17-4.63-7.17h0a5.68,5.68,0,0,0-9.26,0h0l-4.63,7.17-4.63-7.17h0a5.68,5.68,0,0,0-9.26,0h0l-4.63,7.17-4.63-7.17h0a5.68,5.68,0,0,0-9.26,0h0l-4.63,7.17-4.63-7.17h0a5.68,5.68,0,0,0-9.26,0h0l-4.63,7.17-4.63-7.17h0a5.68,5.68,0,0,0-9.26,0h0l-4.63,7.17-4.63-7.17h0a5.68,5.68,0,0,0-9.26,0h0l-4.63,7.17-4.63-7.17h0a5.68,5.68,0,0,0-9.26,0h0l-4.63,7.17-4.63-7.17h0a5.68,5.68,0,0,0-9.26,0h0l-4.63,7.17-4.63-7.17h0a5.68,5.68,0,0,0-9.26,0h0l-4.63,7.17-4.63-7.17h0a5.68,5.68,0,0,0-9.26,0h0l-4.63,7.17-4.63-7.17h0a5.68,5.68,0,0,0-9.26,0h0l-4.63,7.17-4.63-7.17h0a5.68,5.68,0,0,0-9.26,0h0l-4.63,7.17-4.63-7.17h0a5.68,5.68,0,0,0-9.26,0h0l-4.63,7.17-4.63-7.17h0a5.68,5.68,0,0,0-9.26,0h0l-4.63,7.17-4.63-7.17h0a5.68,5.68,0,0,0-9.26,0h0l-4.63,7.17-4.63-7.17h0a5.68,5.68,0,0,0-9.26,0h0l-4.63,7.17-4.63-7.17h0a5.68,5.68,0,0,0-9.26,0h0l-4.63,7.17-4.63-7.17h0a5.68,5.68,0,0,0-9.26,0h0l-4.63,7.17-4.63-7.17h0a5.68,5.68,0,0,0-9.26,0h0l-4.63,7.17-4.63-7.17h0a5.68,5.68,0,0,0-9.26,0h0l-4.63,7.17-4.63-7.17h0a5.68,5.68,0,0,0-9.26,0h0l-4.63,7.17-4.63-7.17h0a5.68,5.68,0,0,0-9.26,0h0l-4.63,7.17-4.63-7.17h0a5.68,5.68,0,0,0-9.26,0h0l-4.63,7.17-4.63-7.17h0a5.68,5.68,0,0,0-9.26,0h0l-4.63,7.17-4.63-7.17h0a5.68,5.68,0,0,0-9.26,0h0l-4.63,7.17-4.63-7.17h0a5.68,5.68,0,0,0-9.26,0h0l-4.63,7.17-4.63-7.17h0a5.68,5.68,0,0,0-9.26,0h0l-4.63,7.17-4.63-7.17h0a5.68,5.68,0,0,0-9.26,0h0l-4.63,7.17-4.63-7.17h0a5.68,5.68,0,0,0-9.26,0h0l-4.63,7.17-4.63-7.17h0a5.68,5.68,0,0,0-9.26,0h0l-4.63,7.17-4.63-7.17h0a5.68,5.68,0,0,0-9.26,0h0l-4.63,7.17-4.63-7.17h0a5.68,5.68,0,0,0-9.26,0h0l-4.63,7.17-4.63-7.17h0a5.68,5.68,0,0,0-9.26,0h0l-4.63,7.17-4.63-7.17h0a5.68,5.68,0,0,0-9.26,0h0l-4.63,7.17-4.63-7.17h0a5.68,5.68,0,0,0-9.26,0h0l-4.63,7.17-4.63-7.17h0a5.68,5.68,0,0,0-9.26,0h0l-4.63,7.17-4.63-7.17h0a5.68,5.68,0,0,0-9.26,0h0l-4.63,7.17-4.63-7.17h0a5.68,5.68,0,0,0-9.26,0h0l-4.63,7.17-4.63-7.17h0a5.68,5.68,0,0,0-9.26,0h0l-4.63,7.17-4.63-7.17h0a5.68,5.68,0,0,0-9.26,0h0l-4.63,7.17-4.63-7.17h0a5.68,5.68,0,0,0-9.26,0h0l-4.63,7.17-4.63-7.17h0a5.68,5.68,0,0,0-9.26,0h0l-4.63,7.17-4.63-7.17h0a5.68,5.68,0,0,0-9.26,0h0l-4.63,7.17-4.63-7.17h0a5.68,5.68,0,0,0-9.26,0h0l-4.63,7.17-4.63-7.17h0a5.68,5.68,0,0,0-9.26,0h0l-4.63,7.17v58.46H183V347.83Z"/><rect class="cls-31" x="-706.41" y="405.61" width="889.43" height="25.93"/><rect class="cls-32" x="-25.45" y="455.19" width="46.79" height="8.34" rx="4.04" ry="4.04"/><polygon class="cls-33" points="37.08 406.29 37.08 182.09 32.12 182.09 28.22 406.29 37.08 406.29"/><polygon class="cls-33" points="110.41 406.29 110.41 182.09 115.37 182.09 119.27 406.29 110.41 406.29"/><rect class="cls-33" x="37.08" y="202.64" width="73.33" height="5.31"/><rect class="cls-34" x="14.14" y="176.78" width="119.2" height="5.31"/><polygon class="cls-35" points="31.49 218.23 32.12 182.09 16.89 182.09 31.49 218.23"/><polygon class="cls-35" points="115.93 218.23 115.3 182.09 130.53 182.09 115.93 218.23"/><polygon class="cls-36" points="38.5 406.29 38.5 343.81 28.38 343.81 27.16 406.29 38.5 406.29"/><polygon class="cls-36" points="109.17 406.29 109.17 343.81 119.29 343.81 120.51 406.29 109.17 406.29"/><path class="cls-34" d="M126.63,164.33H113.47l-8.61-6.7-8.38,6.7H86.19a43.65,43.65,0,0,1-12.44-12.44A43.65,43.65,0,0,1,61.3,164.33H51l-8.38-6.7L34,164.33H20.86C12.72,154.52-.92,151.89-.92,151.89L14.4,176.78h118.7l15.32-24.89S134.77,154.52,126.63,164.33Z"/><rect class="cls-33" x="37.08" y="202.64" width="73.33" height="1.38"/><path class="cls-33" d="M14.14,182.09h119.2v-3.58H14.14Z"/><g class="cls-37"><path class="cls-38" d="M37.08,202.64V182.09H73.74v-30.2A43.65,43.65,0,0,1,61.3,164.33H51l-8.38-6.7L34,164.33H20.86C12.72,154.52-.92,151.89-.92,151.89L14.4,176.78h-.25v5.31h2.75l14.6,36.14.63-36.14-.63,36.14h0L29.31,343.81h-.93l-1.21,62.48H38.5V343.81H37.08V207.95H73.74v-5.31Z"/><polygon class="cls-39" points="32.12 182.09 31.49 218.23 31.49 218.23 32.12 182.09"/></g><path class="cls-40" d="M228.63,142.27H128.94s4.84-31.94,37.26-28.55c0,0,2.42-25.16,24.2-16.94,0,0,10.16,3.87,8.23,16.94,0,0,2.9-5.32,10.16-2.9,0,0,5.32,2.42,4.36,7.74,0,0,9.68-3.39,10.16,5.81,0,0,22.75,1.94,24.2,17.91Z"/><path class="cls-41" d="M-9.78,334C-11.15,297.77-29,288.14-29,288.14H-68.51S-86.4,297.77-87.78,334s-11.47,45.88-22.48,45.88v5h123v-5C1.7,379.91-8.4,370.27-9.78,334Z"/><rect class="cls-42" x="-117.03" y="384.95" width="138.51" height="21.34"/></g></svg>