<svg xmlns="http://www.w3.org/2000/svg" xmlns:xlink="http://www.w3.org/1999/xlink" viewBox="0 0 570.06 561.06"><defs><style>.cls-1{fill:none;}.cls-2{isolation:isolate;}.cls-3{clip-path:url(#clip-path);}.cls-4{clip-path:url(#clip-path-2);}.cls-5{fill:url(#linear-gradient);}.cls-6{clip-path:url(#clip-path-3);}.cls-7{clip-path:url(#clip-path-4);}.cls-8{fill:url(#linear-gradient-2);}.cls-12,.cls-9{fill:#efe6de;}.cls-10{fill:url(#linear-gradient-3);}.cls-11{fill:url(#linear-gradient-4);}.cls-12{opacity:0.5;}.cls-13{fill:#1a532b;}.cls-14{fill:#b3732a;}.cls-15{fill:#183820;}.cls-16{fill:#ddd1c5;}.cls-17{fill:#1e2b2d;}.cls-18{fill:#551721;}.cls-19{fill:#2f525e;}.cls-20{fill:#d0a069;}.cls-21{fill:#396335;}.cls-22{fill:#d4a06b;}.cls-23{fill:#b5d29d;}.cls-24{fill:#a7bca3;}.cls-25{fill:#130f0d;}.cls-26{fill:#9e9e8a;}.cls-27{fill:#363732;}.cls-28{fill:#c8dcc9;}.cls-29{fill:#dbc3a2;}.cls-30{fill:#f1f0f0;}.cls-31{fill:#303129;}.cls-32{fill:#1074bc;}.cls-33{fill:#e5e5e5;}.cls-34,.cls-40,.cls-70{opacity:0.25;}.cls-35{fill:url(#linear-gradient-5);}.cls-36{fill:url(#linear-gradient-6);}.cls-37{fill:url(#linear-gradient-7);}.cls-38{fill:url(#linear-gradient-8);}.cls-39{fill:url(#linear-gradient-9);}.cls-40{fill:url(#linear-gradient-10);}.cls-41{fill:#69676e;}.cls-42{fill:#806056;}.cls-43,.cls-44,.cls-45,.cls-58{fill:#fff;}.cls-43{opacity:0.21;}.cls-44{opacity:0.34;}.cls-45{opacity:0.48;}.cls-46{fill:#51695c;}.cls-47{fill:#9ebc52;}.cls-48{fill:#b3d059;}.cls-49,.cls-50,.cls-51,.cls-52,.cls-53,.cls-54,.cls-55,.cls-56,.cls-57{opacity:0.11;}.cls-49,.cls-50,.cls-51,.cls-52,.cls-54,.cls-55,.cls-56,.cls-57{mix-blend-mode:multiply;}.cls-49{fill:url(#linear-gradient-11);}.cls-50{fill:url(#linear-gradient-12);}.cls-51{fill:url(#linear-gradient-13);}.cls-52{fill:url(#linear-gradient-14);}.cls-53{fill:url(#linear-gradient-15);}.cls-54{fill:url(#linear-gradient-16);}.cls-55{fill:url(#linear-gradient-17);}.cls-56{fill:url(#linear-gradient-18);}.cls-57{fill:url(#linear-gradient-19);}.cls-59{fill:#b9aaa2;}.cls-60{fill:#1f4f26;}.cls-61{fill:#3f2e26;}.cls-62{fill:#eae1d9;}.cls-63{fill:#b11f24;}.cls-64{fill:#a5c384;}.cls-65{fill:#67995c;}.cls-66{fill:#782c2a;}.cls-67{fill:#2a3420;}.cls-68{fill:#cd9c3c;}.cls-69{fill:#897660;}.cls-70{fill:url(#linear-gradient-20);}</style><clipPath id="clip-path"><circle class="cls-1" cx="1004.14" cy="282.21" r="250"/></clipPath><clipPath id="clip-path-2"><rect id="SVGID" class="cls-1" x="734.95" y="30.21" width="894.31" height="502"/></clipPath><linearGradient id="linear-gradient" x1="-3738.92" y1="281.31" x2="1628.33" y2="281.31" gradientUnits="userSpaceOnUse"><stop offset="0" stop-color="#fdc06e"/><stop offset="0.14" stop-color="#efadb8"/><stop offset="0.37" stop-color="#b2b1d8"/><stop offset="0.6" stop-color="#99cdc6"/><stop offset="0.67" stop-color="#aacdae"/><stop offset="0.75" stop-color="#bbcd95"/><stop offset="0.79" stop-color="#c5ca92"/><stop offset="0.92" stop-color="#e6c189"/><stop offset="1" stop-color="#f3be86"/></linearGradient><clipPath id="clip-path-3"><circle class="cls-1" cx="285.21" cy="282.21" r="250.43"/></clipPath><clipPath id="clip-path-4"><rect id="SVGID-2" data-name="SVGID" class="cls-1" x="28.66" y="32.71" width="889.42" height="500.3"/></clipPath><linearGradient id="linear-gradient-2" x1="28.66" y1="282.96" x2="5366.59" y2="282.96" xlink:href="#linear-gradient"/><linearGradient id="linear-gradient-3" x1="216.55" y1="289.02" x2="612.05" y2="289.02" gradientUnits="userSpaceOnUse"><stop offset="0" stop-color="#ffd193"/><stop offset="1" stop-color="#f69268"/></linearGradient><linearGradient id="linear-gradient-4" x1="173.12" y1="110.14" x2="352.81" y2="110.14" xlink:href="#linear-gradient-3"/><linearGradient id="linear-gradient-5" x1="386.54" y1="342.29" x2="387.63" y2="342.29" gradientUnits="userSpaceOnUse"><stop offset="0" stop-color="#ffcc7e"/><stop offset="1" stop-color="#f26767"/></linearGradient><linearGradient id="linear-gradient-6" x1="376.06" y1="278.96" x2="376.06" y2="278.96" xlink:href="#linear-gradient-5"/><linearGradient id="linear-gradient-7" x1="364.46" y1="342.25" x2="365.55" y2="342.25" xlink:href="#linear-gradient-5"/><linearGradient id="linear-gradient-8" x1="357.34" y1="336.03" x2="364.94" y2="336.03" xlink:href="#linear-gradient-5"/><linearGradient id="linear-gradient-9" x1="342.13" y1="342.7" x2="376.06" y2="342.7" xlink:href="#linear-gradient-5"/><linearGradient id="linear-gradient-10" x1="436.9" y1="363.8" x2="449.72" y2="363.8" xlink:href="#linear-gradient-5"/><linearGradient id="linear-gradient-11" x1="-258.95" y1="364.73" x2="-226.86" y2="364.73" gradientTransform="matrix(-1, 0, 0, 1, -192.77, 0)" gradientUnits="userSpaceOnUse"><stop offset="0" stop-color="#747d9d"/><stop offset="0.59" stop-color="#9281aa"/><stop offset="1" stop-color="#aa84b4"/></linearGradient><linearGradient id="linear-gradient-12" x1="-258.95" y1="398.47" x2="-226.86" y2="398.47" xlink:href="#linear-gradient-11"/><linearGradient id="linear-gradient-13" x1="-258.95" y1="357.69" x2="-226.86" y2="357.69" xlink:href="#linear-gradient-11"/><linearGradient id="linear-gradient-14" x1="-258.95" y1="391.97" x2="-226.86" y2="391.97" xlink:href="#linear-gradient-11"/><linearGradient id="linear-gradient-15" x1="-258.95" y1="375.59" x2="-226.86" y2="375.59" xlink:href="#linear-gradient-11"/><linearGradient id="linear-gradient-16" x1="-258.95" y1="345.27" x2="-226.86" y2="345.27" xlink:href="#linear-gradient-11"/><linearGradient id="linear-gradient-17" x1="-258.95" y1="345.33" x2="-226.86" y2="345.33" xlink:href="#linear-gradient-11"/><linearGradient id="linear-gradient-18" x1="-258.95" y1="360.21" x2="-226.86" y2="360.21" xlink:href="#linear-gradient-11"/><linearGradient id="linear-gradient-19" x1="-258.95" y1="360.29" x2="-226.86" y2="360.29" xlink:href="#linear-gradient-11"/><linearGradient id="linear-gradient-20" x1="112.26" y1="267.73" x2="222.76" y2="267.73" xlink:href="#linear-gradient-5"/></defs><title>ปุ่มไทยแก้</title><g class="cls-2"><g id="Layer_1" data-name="Layer 1"><g class="cls-3"><g class="cls-4"><rect class="cls-5" x="-3738.92" y="30.41" width="5367.25" height="501.8"/></g></g><g class="cls-6"><g class="cls-7"><rect class="cls-8" x="28.66" y="32.92" width="5337.92" height="500.1"/></g><path class="cls-9" d="M287.7,135.42H88.3S98,75.81,162.83,82.13c0,0,4.84-47,48.4-31.61,0,0,20.33,7.23,16.46,31.61,0,0,5.81-9.94,20.33-5.42,0,0,10.65,4.52,8.71,14.45,0,0,19.36-6.32,20.33,10.84,0,0,45.49,3.61,48.4,33.42Z"/><path class="cls-10" d="M549.09,367.65H216.55s16.14-106.54,124.3-95.24c0,0,8.07-83.94,80.71-56.5,0,0,33.9,12.91,27.44,56.5,0,0,9.69-17.76,33.9-9.69,0,0,17.76,8.07,14.53,25.83,0,0,32.29-11.3,33.9,19.37,0,0,75.87,6.46,80.71,59.73Z"/><path class="cls-9" d="M486.55,59.21a8.5,8.5,0,0,0-13-7.19,3.38,3.38,0,0,0-1.3-.29,6,6,0,0,0-8.35-4.55c-.81-2.36-1.75-4.47-5.07-5.3a6.07,6.07,0,0,0-7.48,4.57c-.74-.33-.55.87-1.41.87a5.88,5.88,0,0,0-4.22,1.78A2.35,2.35,0,0,0,441.93,51s0,.06,0,.09a7.67,7.67,0,0,0-6.8,7.62q0,.32,0,.63l0,0h51.42s0-.07,0-.11Z"/><path class="cls-11" d="M201.72,145.87H352.81s-7.33-48.41-56.48-43.27c0,0-3.67-38.14-36.67-25.67,0,0-15.4,5.87-12.47,25.67,0,0-4.4-8.07-15.4-4.4,0,0-8.07,3.67-6.6,11.74,0,0-14.67-5.13-15.4,8.8,0,0-34.47,2.93-36.67,27.14Z"/><path class="cls-9" d="M270.06,234.59a13.19,13.19,0,0,1,20.2-11.15,5.25,5.25,0,0,1,2-.45,9.31,9.31,0,0,1,13-7.07c1.26-3.66,2.71-6.94,7.87-8.22a9.42,9.42,0,0,1,11.6,7.09c1.15-.52.85,1.35,2.19,1.35a9.12,9.12,0,0,1,6.55,2.76,3.65,3.65,0,0,1,5.85,2.9s0,.09,0,.13a11.9,11.9,0,0,1,10.55,11.82q0,.49,0,1l0,0H270.06c0-.06,0-.11,0-.17Z"/><path class="cls-12" d="M568.81,317.34l-89.72-.16s-6.61-6.34,13.55-7.29c14.86-.7,13.64-2.3,22-3.8s21.06-3.65,30.26,4.36c1.87,1.63,1.55-3.72,10.06-3.72C565.49,306.72,573.74,312.42,568.81,317.34Z"/><path class="cls-9" d="M913.46,340.65h0a5.68,5.68,0,0,0-9.26,0h0l-4.63,7.17-4.63-7.17h0a5.68,5.68,0,0,0-9.26,0h0l-4.63,7.17-4.63-7.17h0a5.68,5.68,0,0,0-9.26,0h0l-4.63,7.17-4.63-7.17h0a5.68,5.68,0,0,0-9.26,0h0L844,347.83l-4.63-7.17h0a5.68,5.68,0,0,0-9.26,0h0l-4.63,7.17-4.63-7.17h0a5.68,5.68,0,0,0-9.26,0h0L807,347.83l-4.63-7.17h0a5.68,5.68,0,0,0-9.26,0h0l-4.63,7.17-4.63-7.17h0a5.68,5.68,0,0,0-9.26,0h0l-4.63,7.17-4.63-7.17h0a5.68,5.68,0,0,0-9.26,0h0l-4.63,7.17-4.63-7.17h0a5.68,5.68,0,0,0-9.26,0h0l-4.63,7.17-4.63-7.17h0a5.68,5.68,0,0,0-9.26,0h0l-4.63,7.17-4.63-7.17h0a5.68,5.68,0,0,0-9.26,0h0l-4.63,7.17-4.63-7.17h0a5.68,5.68,0,0,0-9.26,0h0l-4.63,7.17-4.63-7.17h0a5.68,5.68,0,0,0-9.26,0h0l-4.63,7.17-4.63-7.17h0a5.68,5.68,0,0,0-9.26,0h0l-4.63,7.17-4.63-7.17h0a5.68,5.68,0,0,0-9.26,0h0l-4.63,7.17-4.63-7.17h0a5.68,5.68,0,0,0-9.26,0h0l-4.63,7.17-4.63-7.17h0a5.68,5.68,0,0,0-9.26,0h0l-4.63,7.17-4.63-7.17h0a5.68,5.68,0,0,0-9.26,0h0l-4.63,7.17-4.63-7.17h0a5.68,5.68,0,0,0-9.26,0h0l-4.63,7.17-4.63-7.17h0a5.68,5.68,0,0,0-9.26,0h0l-4.63,7.17-4.63-7.17h0a5.68,5.68,0,0,0-9.26,0h0l-4.63,7.17L506,340.65h0a5.68,5.68,0,0,0-9.26,0h0l-4.63,7.17-4.63-7.17h0a5.68,5.68,0,0,0-9.26,0h0l-4.63,7.17L469,340.65h0a5.68,5.68,0,0,0-9.26,0h0l-4.63,7.17-4.63-7.17h0a5.68,5.68,0,0,0-9.26,0h0l-4.63,7.17-4.63-7.17h0a5.68,5.68,0,0,0-9.26,0h0L418,347.83l-4.63-7.17h0a5.68,5.68,0,0,0-9.26,0h0l-4.63,7.17-4.63-7.17h0a5.68,5.68,0,0,0-9.26,0h0L381,347.83l-4.63-7.17h0a5.68,5.68,0,0,0-9.26,0h0l-4.63,7.17-4.63-7.17h0a5.68,5.68,0,0,0-9.26,0h0L344,347.83l-4.63-7.17h0a5.68,5.68,0,0,0-9.26,0h0l-4.63,7.17-4.63-7.17h0a5.68,5.68,0,0,0-9.26,0h0l-4.63,7.17-4.63-7.17h0a5.68,5.68,0,0,0-9.26,0h0l-4.63,7.17-4.63-7.17h0a5.68,5.68,0,0,0-9.26,0h0l-4.63,7.17-4.63-7.17h0a5.68,5.68,0,0,0-9.26,0h0l-4.63,7.17-4.63-7.17h0a5.68,5.68,0,0,0-9.26,0h0l-4.63,7.17-4.63-7.17h0a5.68,5.68,0,0,0-9.26,0h0l-4.63,7.17-4.63-7.17h0a5.68,5.68,0,0,0-9.26,0h0l-4.63,7.17-4.63-7.17h0a5.68,5.68,0,0,0-9.26,0h0l-4.63,7.17-4.63-7.17h0a5.68,5.68,0,0,0-9.26,0h0l-4.63,7.17-4.63-7.17h0a5.68,5.68,0,0,0-9.26,0h0l-4.63,7.17-4.63-7.17h0a5.68,5.68,0,0,0-9.26,0h0l-4.63,7.17-4.63-7.17h0a5.68,5.68,0,0,0-9.26,0h0l-4.63,7.17-4.63-7.17h0a5.68,5.68,0,0,0-9.26,0h0l-4.63,7.17-4.63-7.17h0a5.68,5.68,0,0,0-9.26,0h0l-4.63,7.17-4.63-7.17h0a5.68,5.68,0,0,0-9.26,0h0l-4.63,7.17L43,340.65h0a5.68,5.68,0,0,0-9.26,0h0l-4.63,7.17v58.46h889V347.83Z"/><polygon class="cls-13" points="394.7 335.4 397.02 350 387.58 343.98 386.49 340.23 387.11 336.38 394.7 335.4"/><polygon class="cls-14" points="394.7 335.4 386.9 336.44 386.77 337.27 394.82 336.16 394.7 335.4"/><polygon class="cls-14" points="394.96 337.03 386.62 338.21 386.49 339.01 395.1 337.94 394.96 337.03"/><polygon class="cls-14" points="395.25 338.88 386.34 339.92 386.62 340.7 395.4 339.78 395.25 338.88"/><polygon class="cls-15" points="363.99 352.24 362.44 357.01 375.99 357.01 375.99 344.96 368.25 344.96 363.99 352.24"/><polygon class="cls-15" points="388 352.24 389.55 357.01 375.99 357.01 375.99 344.96 383.73 344.96 388 352.24"/><polygon class="cls-14" points="363.54 353.61 388.45 353.61 388.27 353.07 363.71 353.07 363.54 353.61"/><polygon class="cls-16" points="365.5 340.24 365.5 343.99 386.49 343.99 386.49 340.24 381.27 338.43 370.72 338.43 365.5 340.24"/><polygon class="cls-14" points="386.49 341.67 381.27 339.83 377.91 339.83 378.68 340.39 381.27 340.39 386.49 342.26 386.49 341.67"/><polygon class="cls-14" points="386.49 342.88 381.27 341.04 377.91 341.04 378.68 341.6 381.27 341.6 386.49 343.47 386.49 342.88"/><polygon class="cls-17" points="376 379.04 375.99 366.96 367.09 377.14 366.34 382.34 368.98 385.15 371.17 383.73 373.08 381.76 376 379.04"/><polygon class="cls-18" points="376 367.41 376 379.04 373.43 381.76 368.72 385.87 368.52 384.68 371.26 383.05 373.65 380.49 375.24 377.98 376 367.41"/><polygon class="cls-17" points="375.99 379.04 376.01 366.96 384.91 377.14 385.66 382.34 383.02 385.15 380.83 383.73 378.92 381.76 375.99 379.04"/><polygon class="cls-18" points="375.99 367.41 375.99 379.04 378.57 381.76 383.28 385.87 383.48 384.68 380.74 383.05 378.35 380.49 376.76 377.98 375.99 367.41"/><polygon class="cls-16" points="356.49 397.52 354.14 396.17 352.75 396.17 352.16 397.95 354.32 401.38 359.33 402.35 368.19 402.05 372.45 399.87 371.92 397.66 366.11 398.62 356.49 397.52"/><polygon class="cls-18" points="371.26 396.76 371.92 397.66 371.06 398.45 364.52 399.44 358.97 399.04 356.49 397.52 358.47 397.56 371.26 396.76"/><polygon class="cls-13" points="368.81 386.11 370.57 393.76 360.92 394.68 357.73 387.6 359.2 385.63 368.81 386.11"/><polygon class="cls-19" points="367.99 379.88 368.52 383.58 364.16 385.82 360.23 386.49 354.24 383.71 351.4 379.26 351.4 375.2 365.88 376.04 367.99 379.88"/><polygon class="cls-14" points="349.11 371.15 346.31 372.61 345.25 371.88 342.08 371.88 346.05 375.58 349.88 375.58 352.32 376.77 367.99 379.88 368.19 379.26 351.2 372.54 349.11 371.15"/><polygon class="cls-19" points="376 358.11 376 367.85 371.16 374.65 354.24 371.15 362.44 357.01 376 358.11"/><polygon class="cls-18" points="354.24 371.15 353.45 371.88 370.57 375.58 371.16 374.65 354.24 371.15"/><polygon class="cls-16" points="370.57 375.58 368.19 379.26 353.45 376.44 349.11 371.15 353.45 371.88 370.57 375.58"/><polygon class="cls-14" points="349.88 375.58 351 377.3 349.11 376.77 346.77 377.69 344.72 377.69 343.33 378.02 345.52 380.34 348.82 381.53 353.91 386.22 358.67 387.94 364.45 387.68 369.22 385.96 368.52 383.58 363.23 384.97 358.87 384.97 355.13 383.71 352.32 376.77 349.88 375.58"/><polygon class="cls-14" points="360.92 394.68 360.22 395.44 360.92 396.17 371.13 395.11 371.46 394.22 370.57 393.76 360.92 394.68"/><polygon class="cls-13" points="360.92 396.17 358.47 397.56 360.69 398.28 369.22 397.62 371.26 396.76 371.13 395.11 360.92 396.17"/><polygon class="cls-16" points="395.5 397.52 397.85 396.17 399.24 396.17 399.83 397.95 397.67 401.38 392.66 402.35 383.8 402.05 379.54 399.87 380.07 397.66 385.88 398.62 395.5 397.52"/><polygon class="cls-18" points="380.73 396.76 380.07 397.66 380.93 398.45 387.47 399.44 393.02 399.04 395.5 397.52 393.52 397.56 380.73 396.76"/><polygon class="cls-13" points="383.18 386.11 381.42 393.76 391.07 394.68 394.26 387.6 392.79 385.63 383.18 386.11"/><polygon class="cls-19" points="384 379.88 383.47 383.58 387.83 385.82 391.75 386.49 397.75 383.71 400.59 379.26 400.59 375.2 386.12 376.04 384 379.88"/><polygon class="cls-14" points="402.88 371.15 405.68 372.61 406.74 371.88 409.91 371.88 405.94 375.58 402.11 375.58 399.66 376.77 384 379.88 383.8 379.26 400.79 372.54 402.88 371.15"/><polygon class="cls-19" points="375.99 358.11 375.99 367.85 380.83 374.65 397.75 371.15 389.55 357.01 375.99 358.11"/><polygon class="cls-18" points="397.75 371.15 398.54 371.88 381.42 375.58 380.83 374.65 397.75 371.15"/><polygon class="cls-16" points="381.42 375.58 383.8 379.26 398.54 376.44 402.88 371.15 398.54 371.88 381.42 375.58"/><polygon class="cls-14" points="402.11 375.58 400.99 377.3 402.88 376.77 405.22 377.69 407.27 377.69 408.65 378.02 406.47 380.34 403.17 381.53 398.08 386.22 393.32 387.94 387.54 387.68 382.77 385.96 383.47 383.58 388.76 384.97 393.12 384.97 396.86 383.71 399.66 376.77 402.11 375.58"/><polygon class="cls-14" points="391.07 394.68 391.77 395.44 391.07 396.17 380.86 395.11 380.53 394.22 381.42 393.76 391.07 394.68"/><polygon class="cls-13" points="391.07 396.17 393.52 397.56 391.3 398.28 382.77 397.62 380.73 396.76 380.86 395.11 391.07 396.17"/><polygon class="cls-14" points="375.99 332.46 375.99 338.43 370.72 338.43 363.99 333.37 363.54 330.61 367.17 331.8 375.99 332.46"/><polygon class="cls-14" points="375.99 332.46 375.99 338.43 381.27 338.43 388 333.37 388.45 330.61 384.81 331.8 375.99 332.46"/><polygon class="cls-19" points="360.24 324.75 357.83 329.38 363.99 329.38 363.99 331.27 371.84 336.82 375.99 332.46 375.99 330.21 370.62 324.75 360.24 324.75"/><polygon class="cls-19" points="391.75 324.75 394.16 329.38 388 329.38 388 331.27 380.15 336.82 375.99 332.46 375.99 330.21 381.36 324.75 391.75 324.75"/><polygon class="cls-20" points="376 303.42 376 298.93 374.03 298.93 368.3 304.72 367.74 306.09 374.97 304.57 376 303.42"/><polygon class="cls-20" points="376 303.42 376 298.93 377.97 298.93 383.69 304.72 384.25 306.09 377.02 304.57 376 303.42"/><rect class="cls-15" x="375.56" y="318.78" width="1.39" height="4.76"/><polygon class="cls-14" points="368.57 308.21 368.44 309.22 367.56 308.72 366.34 305.62 365.24 305.32 365.54 306.09 365.74 308.98 366.49 310.67 366.05 310.54 366.78 313.18 368.44 313.91 369.62 313.27 369.62 308.98 368.57 308.21"/><polygon class="cls-14" points="383.44 308.25 383.56 309.26 384.44 308.76 385.67 305.66 386.77 305.36 386.46 306.13 386.26 309.02 385.51 310.71 385.95 310.58 385.23 313.23 383.56 313.95 382.39 313.31 382.39 309.02 383.44 308.25"/><polygon class="cls-14" points="368.44 307.4 367.74 306.09 368.81 304.59 373 303.42 376 303.42 376 305.03 376 305.85 368.44 307.4"/><polygon class="cls-14" points="383.55 307.4 384.25 306.09 383.19 304.59 379 303.42 376 303.42 376 305.03 376 305.85 383.55 307.4"/><polygon class="cls-15" points="376 319.13 376 323.55 371.26 323.55 371.26 319.02 376.04 319.02 376 319.13"/><polygon class="cls-15" points="376.04 319.13 376.04 323.55 380.77 323.55 380.77 319.02 376 319.02 376.04 319.13"/><polygon class="cls-21" points="375.97 311.24 375.82 311.68 376 311.65 376.18 311.68 376.18 311.18 375.97 311.24"/><polygon class="cls-21" points="375.86 305.03 376.25 305.03 376.25 307.14 375.56 306.22 375.86 305.03"/><path class="cls-21" d="M369.26,312.67l-.82-5.27s1-2.37,7.56-2.37v7.64Z"/><path class="cls-21" d="M382.74,312.67l.82-5.27s-1-2.37-7.56-2.37v7.64Z"/><path class="cls-22" d="M369,314.42l-1.45-.1a9.16,9.16,0,0,0,2.54,4.81c2,1.72,1,1.12,5.89,0V314.7Z"/><path class="cls-22" d="M383,314.42l1.45-.1a9.16,9.16,0,0,1-2.54,4.81c-2,1.72-1,1.12-5.89,0V314.7Z"/><path class="cls-23" d="M369.07,315s-.65-4.14,1.78-4.3l2,1.78-.75,1.23c-.07.11-2.66,1.28-2.66,1.28Z"/><path class="cls-23" d="M382.94,315s.65-4.14-1.78-4.3l-2,1.78.75,1.23c.07.11,2.66,1.28,2.66,1.28Z"/><polygon class="cls-22" points="376 306.67 375.86 308.93 375.93 309 376.25 308.94 376.19 308.17 376 306.67"/><polygon class="cls-22" points="376 308.79 376.04 306.67 375.43 306.67 375.62 309.09 376 308.79"/><polygon class="cls-22" points="376.04 308.79 376 306.67 376.61 306.67 376.42 309.09 376.04 308.79"/><path class="cls-21" d="M370.14,315h-1.82s1.41,4,3.42,4.63,1-1.16,4.3-1.09l.1-3.66Z"/><path class="cls-21" d="M381.91,315h1.82s-1.41,4-3.42,4.63-1-1.16-4.3-1.09l-.1-3.66Z"/><path class="cls-24" d="M375.73,308.52a1.35,1.35,0,0,1-1.3-.69c-.53-.83-1.34-2.12-2.18-2.2s-.72.28-.72.28a2.11,2.11,0,0,0-1.38,1.42c-.28,1.11-.44,1.49-.89,1s-1.32-1.69-1.52-.68a4.3,4.3,0,0,1,1.32,1.17c.33.6,1.32.07,1.42-.35s.46-1.8,1.48-1.95S374.07,309.47,375.73,308.52Z"/><path class="cls-24" d="M376.31,308.52a1.35,1.35,0,0,0,1.3-.69c.53-.83,1.34-2.12,2.18-2.2s.72.28.72.28a2.11,2.11,0,0,1,1.38,1.42c.28,1.11.44,1.49.89,1s1.32-1.69,1.52-.68a4.3,4.3,0,0,0-1.32,1.17c-.33.6-1.32.07-1.42-.35s-.46-1.8-1.48-1.95S378,309.47,376.31,308.52Z"/><path class="cls-25" d="M374.72,309.86s-2.21-3.21-2.76-1l1,.39Z"/><path class="cls-26" d="M374.72,309.86s-2-2.6-2.88-.78.49,2.53.49,2.53A10.8,10.8,0,0,1,374.72,309.86Z"/><ellipse class="cls-27" cx="373" cy="309.94" rx="0.74" ry="0.85"/><path class="cls-25" d="M377.27,309.87s2.21-3.21,2.76-1l-1,.39Z"/><path class="cls-26" d="M377.27,309.87s2-2.6,2.88-.78-.49,2.53-.49,2.53A10.8,10.8,0,0,0,377.27,309.87Z"/><ellipse class="cls-27" cx="379" cy="309.95" rx="0.74" ry="0.85"/><path class="cls-28" d="M376,315.77v.46s-.74-1.23-2-.11-2.91,1.48-3.92.2-1.65-4.85,1.63-3.9,4.16,2.42,4.16,2.42Z"/><path class="cls-28" d="M376,315.77v.46s.74-1.23,2-.11,2.91,1.48,3.92.2,1.65-4.85-1.63-3.9-4.16,2.42-4.16,2.42Z"/><path class="cls-15" d="M376,315.81v-3.14s-4-.23-4.69-.33-2.1-.07-1.59,2.28,2.38,2.23,3.93,1.19S376,315.81,376,315.81Z"/><path class="cls-15" d="M376,315.81v-3.14s4-.23,4.69-.33,2.1-.07,1.59,2.28-2.38,2.23-3.93,1.19S376,315.81,376,315.81Z"/><path class="cls-18" d="M376,311.65v1.17l-3.22-.59s0-1,.69-.88A6.13,6.13,0,0,0,376,311.65Z"/><path class="cls-18" d="M376,314.06V313s-3,.07-3.09,0-.74.28-1.19.28-1,.64-.76,1.59,1.4,1,2.12.47.46-1.46.78-1.51A17.29,17.29,0,0,1,376,314.06Z"/><path class="cls-18" d="M376,311.65v1.17l3.22-.59s0-1-.69-.88A6.13,6.13,0,0,1,376,311.65Z"/><path class="cls-18" d="M376,314.06V313s3,.07,3.09,0,.74.28,1.19.28,1,.64.76,1.59-1.4,1-2.12.47-.46-1.46-.78-1.51A17.29,17.29,0,0,0,376,314.06Z"/><path class="cls-25" d="M379.68,313.34l-.86-.35h-5.63l-.86.35c-1.11,0-1.23.44-1.19,1.26s1.32.84,1.81.59.59-1.3,1.08-1.48a11.18,11.18,0,0,0,4,0c.48.18.59,1.23,1.08,1.48s1.76.22,1.81-.59S380.78,313.32,379.68,313.34Z"/><rect class="cls-29" x="374.43" y="312.46" width="3.14" height="0.73"/><polygon class="cls-22" points="374.43 312.46 373.08 311.9 372.68 312.82 373.56 313.45 374.43 313.18 374.43 312.46"/><path class="cls-29" d="M372,308.52s-3,1.92.66,4.3l.4-.93S371,311.33,372,308.52Z"/><polygon class="cls-22" points="377.57 312.46 378.93 311.9 379.32 312.82 378.45 313.45 377.57 313.18 377.57 312.46"/><path class="cls-29" d="M380,308.52s3,1.92-.66,4.3l-.4-.93S381,311.33,380,308.52Z"/><polygon class="cls-28" points="376 315.81 376 315.8 376 316.22 376 316.23 376.01 316.23 376.04 316.03 376.02 315.79 376 315.81"/><circle class="cls-13" cx="376" cy="310.06" r="1.27"/><rect class="cls-15" x="374.03" y="296.99" width="1.97" height="1.94"/><rect class="cls-15" x="376" y="296.99" width="1.97" height="1.94"/><polygon class="cls-20" points="375.99 291.38 375.99 289.6 375.21 289.6 372.94 291.9 372.73 292.44 375.59 291.83 375.99 291.38"/><polygon class="cls-20" points="375.99 291.38 375.99 289.6 376.77 289.6 379.04 291.9 379.26 292.44 376.4 291.83 375.99 291.38"/><polygon class="cls-14" points="373.05 293.28 373 293.68 372.65 293.48 372.17 292.25 371.73 292.13 371.86 292.44 371.93 293.58 372.23 294.25 372.06 294.2 372.34 295.25 373 295.53 373.47 295.28 373.47 293.58 373.05 293.28"/><polygon class="cls-14" points="378.94 293.29 378.99 293.69 379.34 293.49 379.82 292.27 380.26 292.15 380.14 292.45 380.06 293.6 379.76 294.27 379.94 294.22 379.65 295.26 378.99 295.55 378.52 295.3 378.52 293.6 378.94 293.29"/><polygon class="cls-14" points="373 292.96 372.73 292.44 373.15 291.84 374.81 291.38 375.99 291.38 375.99 292.02 375.99 292.34 373 292.96"/><polygon class="cls-14" points="378.99 292.96 379.26 292.44 378.84 291.84 377.18 291.38 375.99 291.38 375.99 292.02 375.99 292.34 378.99 292.96"/><polygon class="cls-21" points="375.98 294.48 375.93 294.65 376 294.64 376.07 294.65 376.07 294.45 375.98 294.48"/><polygon class="cls-21" points="375.94 292.02 376.09 292.02 376.09 292.85 375.82 292.49 375.94 292.02"/><path class="cls-21" d="M373.33,295,373,293s.4-.94,3-.94v3Z"/><path class="cls-21" d="M378.67,295,379,293s-.4-.94-3-.94v3Z"/><path class="cls-22" d="M373.23,295.73l-.57,0a3.63,3.63,0,0,0,1,1.91c.8.68.4.44,2.33,0v-1.76Z"/><path class="cls-22" d="M378.76,295.73l.57,0a3.63,3.63,0,0,1-1,1.91c-.8.68-.4.44-2.33,0v-1.76Z"/><path class="cls-23" d="M373.25,296s-.26-1.64.7-1.7l.79.71-.3.49s-1.05.51-1.05.51Z"/><path class="cls-23" d="M378.75,296s.26-1.64-.7-1.7l-.79.71.3.49s1.05.51,1.05.51Z"/><polygon class="cls-22" points="376 292.67 375.94 293.56 375.97 293.59 376.09 293.56 376.07 293.26 376 292.67"/><polygon class="cls-22" points="375.99 293.5 376.01 292.67 375.77 292.67 375.85 293.63 375.99 293.5"/><polygon class="cls-22" points="376.01 293.5 376 292.67 376.24 292.67 376.16 293.63 376.01 293.5"/><path class="cls-21" d="M373.67,296H373s.56,1.6,1.35,1.83.41-.46,1.7-.43l0-1.45Z"/><path class="cls-21" d="M378.34,296h.72s-.56,1.6-1.35,1.83-.41-.46-1.7-.43l0-1.45Z"/><path class="cls-24" d="M375.89,293.4a.53.53,0,0,1-.51-.27c-.21-.33-.53-.84-.86-.87s-.28.11-.28.11a.84.84,0,0,0-.55.56c-.11.44-.17.59-.35.38s-.52-.67-.6-.27a1.7,1.7,0,0,1,.52.46c.13.24.52,0,.56-.14s.18-.71.59-.77S375.23,293.77,375.89,293.4Z"/><path class="cls-24" d="M376.12,293.4a.53.53,0,0,0,.51-.27c.21-.33.53-.84.86-.87s.28.11.28.11a.84.84,0,0,1,.55.56c.11.44.17.59.35.38s.52-.67.6-.27a1.7,1.7,0,0,0-.52.46c-.13.24-.52,0-.56-.14s-.18-.71-.59-.77S376.78,293.77,376.12,293.4Z"/><path class="cls-25" d="M375.49,293.93s-.87-1.27-1.09-.39l.41.15Z"/><path class="cls-26" d="M375.49,293.93s-.78-1-1.14-.31.19,1,.19,1A4.28,4.28,0,0,1,375.49,293.93Z"/><ellipse class="cls-27" cx="374.81" cy="293.96" rx="0.29" ry="0.34"/><path class="cls-25" d="M376.5,293.93s.87-1.27,1.09-.39l-.41.15Z"/><path class="cls-26" d="M376.5,293.93s.78-1,1.14-.31-.19,1-.19,1A4.28,4.28,0,0,0,376.5,293.93Z"/><ellipse class="cls-27" cx="377.18" cy="293.96" rx="0.29" ry="0.34"/><path class="cls-28" d="M376,296.27v.18s-.29-.49-.79,0-1.15.58-1.55.08-.65-1.92.65-1.54a2.79,2.79,0,0,1,1.65,1Z"/><path class="cls-28" d="M376,296.27v.18s.29-.49.79,0,1.15.58,1.55.08.65-1.92-.65-1.54a2.79,2.79,0,0,0-1.65,1Z"/><path class="cls-15" d="M376,296.29V295s-1.59-.09-1.86-.13-.83,0-.63.9.94.88,1.56.47S376,296.29,376,296.29Z"/><path class="cls-15" d="M376,296.29V295s1.59-.09,1.86-.13.83,0,.63.9-.94.88-1.56.47S376,296.29,376,296.29Z"/><path class="cls-18" d="M376,294.64v.46l-1.28-.23s0-.42.27-.35A2.43,2.43,0,0,0,376,294.64Z"/><path class="cls-18" d="M376,295.59v-.43s-1.19,0-1.22,0-.29.11-.47.11-.39.26-.3.63.56.4.84.19.18-.58.31-.6A6.85,6.85,0,0,1,376,295.59Z"/><path class="cls-18" d="M376,294.64v.46l1.28-.23s0-.42-.27-.35A2.43,2.43,0,0,1,376,294.64Z"/><path class="cls-18" d="M376,295.59v-.43s1.19,0,1.22,0,.29.11.47.11.39.26.3.63-.56.4-.84.19-.18-.58-.31-.6A6.85,6.85,0,0,0,376,295.59Z"/><path class="cls-25" d="M377.45,295.31l-.34-.14h-2.23l-.34.14c-.44,0-.49.17-.47.5s.52.33.72.24.24-.51.43-.58a4.43,4.43,0,0,0,1.57,0c.19.07.24.49.43.58s.7.09.72-.24S377.89,295.3,377.45,295.31Z"/><rect class="cls-29" x="375.38" y="294.96" width="1.24" height="0.29"/><polygon class="cls-22" points="375.38 294.96 374.84 294.74 374.68 295.1 375.03 295.35 375.38 295.25 375.38 294.96"/><path class="cls-29" d="M374.42,293.4s-1.2.76.26,1.7l.16-.37S374,294.51,374.42,293.4Z"/><polygon class="cls-22" points="376.62 294.96 377.15 294.74 377.31 295.1 376.97 295.35 376.62 295.25 376.62 294.96"/><path class="cls-29" d="M377.57,293.4s1.2.76-.26,1.7l-.16-.37S378,294.51,377.57,293.4Z"/><polygon class="cls-28" points="376 296.29 375.99 296.28 376 296.45 376 296.45 376 296.45 376.01 296.37 376 296.28 376 296.29"/><circle class="cls-13" cx="375.99" cy="294.01" r="0.5"/><rect class="cls-15" x="375.21" y="288.38" width="1.56" height="1.23"/><polygon class="cls-20" points="376 285.97 376 285.23 375.68 285.23 374.75 286.18 374.66 286.4 375.84 286.15 376 285.97"/><polygon class="cls-20" points="376 285.97 376 285.23 376.32 285.23 377.26 286.18 377.35 286.4 376.17 286.15 376 285.97"/><polygon class="cls-14" points="374.79 286.75 374.77 286.91 374.63 286.83 374.43 286.32 374.25 286.27 374.3 286.4 374.33 286.87 374.45 287.15 374.38 287.13 374.5 287.56 374.77 287.68 374.96 287.57 374.96 286.87 374.79 286.75"/><polygon class="cls-14" points="377.22 286.75 377.24 286.92 377.38 286.83 377.58 286.33 377.76 286.28 377.71 286.41 377.68 286.88 377.56 287.15 377.63 287.13 377.51 287.56 377.24 287.68 377.05 287.58 377.05 286.88 377.22 286.75"/><polygon class="cls-14" points="374.77 286.62 374.66 286.4 374.83 286.16 375.51 285.97 376 285.97 376 286.23 376 286.36 374.77 286.62"/><polygon class="cls-14" points="377.24 286.62 377.35 286.4 377.18 286.16 376.49 285.97 376 285.97 376 286.23 376 286.36 377.24 286.62"/><polygon class="cls-21" points="376 287.24 375.98 287.31 376 287.31 376.03 287.31 376.03 287.23 376 287.24"/><polygon class="cls-21" points="375.98 286.23 376.04 286.23 376.04 286.57 375.93 286.42 375.98 286.23"/><path class="cls-21" d="M374.91,287.47l-.13-.86s.17-.39,1.23-.39v1.25Z"/><path class="cls-21" d="M377.1,287.47l.13-.86s-.17-.39-1.23-.39v1.25Z"/><path class="cls-22" d="M374.86,287.76l-.24,0a1.49,1.49,0,0,0,.41.78c.33.28.16.18,1,0v-.72Z"/><path class="cls-22" d="M377.14,287.76l.24,0a1.49,1.49,0,0,1-.41.78c-.33.28-.16.18-1,0v-.72Z"/><path class="cls-23" d="M374.87,287.85s-.11-.68.29-.7l.32.29-.12.2s-.43.21-.43.21Z"/><path class="cls-23" d="M377.14,287.85s.11-.68-.29-.7l-.32.29.12.2s.43.21.43.21Z"/><polygon class="cls-22" points="376 286.5 375.98 286.86 375.99 286.88 376.04 286.87 376.04 286.74 376 286.5"/><polygon class="cls-22" points="376 286.84 376.01 286.5 375.91 286.5 375.94 286.89 376 286.84"/><polygon class="cls-22" points="376.01 286.84 376 286.5 376.1 286.5 376.07 286.89 376.01 286.84"/><path class="cls-21" d="M375,287.85h-.3s.23.66.56.75.17-.19.7-.18l0-.6Z"/><path class="cls-21" d="M377,287.85h.3s-.23.66-.56.75-.17-.19-.7-.18l0-.6Z"/><path class="cls-24" d="M376,286.8a.22.22,0,0,1-.21-.11c-.09-.13-.22-.34-.36-.36s-.12,0-.12,0a.34.34,0,0,0-.22.23c0,.18-.07.24-.15.16s-.22-.27-.25-.11a.7.7,0,0,1,.22.19c.05.1.22,0,.23-.06s.08-.29.24-.32S375.69,287,376,286.8Z"/><path class="cls-24" d="M376.05,286.8a.22.22,0,0,0,.21-.11c.09-.13.22-.34.36-.36s.12,0,.12,0a.34.34,0,0,1,.22.23c0,.18.07.24.15.16s.22-.27.25-.11a.7.7,0,0,0-.22.19c-.05.1-.22,0-.23-.06s-.08-.29-.24-.32S376.32,287,376.05,286.8Z"/><path class="cls-25" d="M375.8,287s-.36-.52-.45-.16l.17.06Z"/><path class="cls-26" d="M375.8,287s-.32-.42-.47-.13.08.41.08.41A1.76,1.76,0,0,1,375.8,287Z"/><ellipse class="cls-27" cx="375.51" cy="287.03" rx="0.12" ry="0.14"/><path class="cls-25" d="M376.21,287s.36-.52.45-.16l-.17.06Z"/><path class="cls-26" d="M376.21,287s.32-.42.47-.13-.08.41-.08.41A1.76,1.76,0,0,0,376.21,287Z"/><ellipse class="cls-27" cx="376.49" cy="287.03" rx="0.12" ry="0.14"/><path class="cls-28" d="M376,288v.07s-.12-.2-.33,0-.47.24-.64,0-.27-.79.27-.64a1.15,1.15,0,0,1,.68.4Z"/><path class="cls-28" d="M376,288v.07s.12-.2.33,0,.47.24.64,0,.27-.79-.27-.64a1.15,1.15,0,0,0-.68.4Z"/><path class="cls-15" d="M376,288v-.51l-.77-.05c-.11,0-.34,0-.26.37s.39.36.64.19S376,288,376,288Z"/><path class="cls-15" d="M376,288v-.51l.77-.05c.11,0,.34,0,.26.37s-.39.36-.64.19S376,288,376,288Z"/><path class="cls-18" d="M376,287.31v.19l-.53-.1s0-.17.11-.14A1,1,0,0,0,376,287.31Z"/><path class="cls-18" d="M376,287.7v-.18s-.49,0-.5,0-.12,0-.19,0-.16.11-.12.26.23.16.34.08.08-.24.13-.25A2.82,2.82,0,0,1,376,287.7Z"/><path class="cls-18" d="M376,287.31v.19l.53-.1s0-.17-.11-.14A1,1,0,0,1,376,287.31Z"/><path class="cls-18" d="M376,287.7v-.18s.49,0,.5,0,.12,0,.19,0,.16.11.12.26-.23.16-.34.08-.08-.24-.13-.25A2.82,2.82,0,0,0,376,287.7Z"/><path class="cls-25" d="M376.6,287.58l-.14-.06h-.92l-.14.06c-.18,0-.2.07-.19.2s.22.14.29.1.1-.21.18-.24a1.82,1.82,0,0,0,.64,0c.08,0,.1.2.18.24s.29,0,.29-.1S376.78,287.58,376.6,287.58Z"/><rect class="cls-29" x="375.75" y="287.44" width="0.51" height="0.12"/><polygon class="cls-22" points="375.75 287.44 375.53 287.35 375.46 287.5 375.61 287.6 375.75 287.56 375.75 287.44"/><path class="cls-29" d="M375.35,286.8s-.5.31.11.7l.06-.15S375.18,287.26,375.35,286.8Z"/><polygon class="cls-22" points="376.26 287.44 376.48 287.35 376.55 287.5 376.4 287.6 376.26 287.56 376.26 287.44"/><path class="cls-29" d="M376.65,286.8s.5.31-.11.7l-.06-.15S376.83,287.26,376.65,286.8Z"/><polygon class="cls-28" points="376 287.99 376 287.98 376 288.05 376 288.05 376 288.05 376.01 288.02 376.01 287.98 376 287.99"/><circle class="cls-13" cx="376" cy="287.05" r="0.21"/><polygon class="cls-14" points="376 285.23 376 278.81 375.68 285.23 376 285.23"/><polygon class="cls-14" points="376 285.23 376 278.81 376.32 285.23 376 285.23"/><polygon class="cls-14" points="375.68 285.23 376.32 285.23 376 278.81 375.68 285.23"/><polygon class="cls-14" points="392.03 317.75 387.49 323.55 376 323.55 375.99 323.55 364.5 323.55 359.96 317.75 358.99 317.26 359.79 320.83 360.23 324.75 364.5 327.57 366.7 330.61 371.23 328.76 375.96 331.45 375.99 331.45 376 331.45 376.02 331.45 380.76 328.76 385.29 330.61 387.49 327.57 391.76 324.75 392.2 320.83 393 317.26 392.03 317.75"/><polygon class="cls-16" points="363.99 329.38 363.99 331.27 364.88 336.38 355.67 335.19 357.17 333.79 357.83 329.38 363.99 329.38"/><polygon class="cls-14" points="357.83 329.38 357.74 330.01 363.99 330.01 363.99 329.38 357.83 329.38"/><polygon class="cls-16" points="388 329.37 388 331.27 387.1 336.38 396.31 335.19 394.81 333.78 394.15 329.37 388 329.37"/><polygon class="cls-14" points="394.15 329.37 394.25 330.01 388 330.01 388 329.37 394.15 329.37"/><polygon class="cls-15" points="370.72 338.43 365.5 340.24 364.88 336.38 364.41 333.69 370.72 338.43"/><polygon class="cls-15" points="381.27 338.43 386.49 340.24 387.11 336.38 387.58 333.68 381.27 338.43"/><polygon class="cls-13" points="357.29 335.4 354.97 350 364.41 343.99 365.5 340.24 364.88 336.38 357.29 335.4"/><polygon class="cls-21" points="373.94 348.35 360.23 353.7 357.35 353.7 354.97 351.92 354.97 350 358.14 346.47 364.41 343.99 371.53 341.67 373.94 348.35"/><polygon class="cls-21" points="378.05 348.34 391.75 353.7 394.64 353.7 397.02 351.91 397.02 350 393.85 346.46 387.58 343.98 380.45 341.67 378.05 348.34"/><polygon class="cls-14" points="375.99 357.01 362.44 357.01 371.53 358.2 368.32 365.07 362.44 366.13 358.99 366.83 357.04 368.51 360.28 367.98 364.88 369.21 369.77 367.63 372.81 363.84 374.31 358.11 375.99 358.11 375.99 357.01"/><polygon class="cls-14" points="376 357.01 389.56 357.01 380.46 358.2 383.68 365.07 389.56 366.13 393.01 366.83 394.96 368.51 391.72 367.98 387.12 369.21 382.23 367.63 379.19 363.84 377.69 358.11 376 358.11 376 357.01"/><polyline class="cls-16" points="374.16 337.05 373.8 336.19 374.42 334.96 376 334.96 376 337.05 374.16 337.05"/><polyline class="cls-16" points="377.85 337.05 378.21 336.19 377.58 334.96 376 334.96 376 337.05 377.85 337.05"/><polygon class="cls-30" points="374.42 334.96 376 334.52 376 334.96 374.42 334.96"/><polygon class="cls-30" points="377.58 334.96 376 334.52 376 334.96 377.58 334.96"/><polygon class="cls-30" points="374.16 338.76 374.16 337.05 377.85 337.05 377.85 401.38 375 401.38 374.16 338.76"/><polygon class="cls-13" points="378.33 347.56 375.79 346.58 374.7 345.33 379.65 343.89 378.33 347.56"/><polygon class="cls-21" points="379.65 343.89 378.05 348.34 379.25 348.81 380.25 345.57 379.65 343.89"/><polygon class="cls-13" points="374.58 346.81 380.15 343.74 380.61 343.39 378.21 342.86 373.94 343.99 373.57 346.47 374.58 346.81"/><polygon class="cls-18" points="365.5 340.24 370.72 338.43 374.16 338.43 374.16 338.88 370.72 338.93 365.5 340.8 365.5 340.24"/><polygon class="cls-18" points="386.49 340.24 381.29 338.43 377.85 338.43 377.85 338.89 381.29 338.93 386.49 340.8 386.49 340.24"/><polygon class="cls-18" points="355.67 335.19 357.17 333.79 364.56 334.52 364.88 336.38 355.67 335.19"/><polygon class="cls-18" points="396.31 335.19 394.81 333.78 387.43 334.52 387.1 336.38 396.31 335.19"/><polygon class="cls-13" points="363.99 331.27 357.55 331.27 357.43 332.04 364.12 332.04 363.99 331.27"/><polygon class="cls-13" points="388 331.27 394.44 331.27 394.55 332.04 387.87 332.04 388 331.27"/><polygon class="cls-16" points="376.04 323.55 364.5 323.55 359.96 317.75 359.54 317.54 360.28 320.75 360.78 324.75 364.67 327.19 366.77 330.06 371.26 328.34 376.03 330.98 376.04 323.55"/><polygon class="cls-16" points="375.95 323.55 387.49 323.55 392.03 317.75 392.45 317.54 391.71 320.75 391.21 324.75 387.32 327.19 385.21 330.06 380.73 328.34 375.96 330.98 375.95 323.55"/><polygon class="cls-14" points="365.5 341.67 370.72 339.83 374.08 339.83 373.3 340.39 370.72 340.39 365.5 342.26 365.5 341.67"/><polygon class="cls-14" points="365.5 342.88 370.72 341.04 374.08 341.04 373.3 341.6 370.72 341.6 365.5 343.47 365.5 342.88"/><polygon class="cls-13" points="371.53 341.67 375.56 338.76 379.09 338.63 380.79 339.73 380.68 340.53 381.27 341.12 381.12 341.67 380.86 341.8 380.86 342.46 380.64 342.7 380.61 343.39 380.15 343.74 376.49 344.82 374.47 345.4 374.44 346.47 374.58 346.81 373.7 347.69 371.53 341.67"/><polygon class="cls-14" points="357.19 336 364.99 337.05 365.12 337.88 357.07 336.76 357.19 336"/><polygon class="cls-14" points="356.93 337.64 365.27 338.82 365.4 339.62 356.79 338.55 356.93 337.64"/><polygon class="cls-14" points="356.64 339.48 365.42 340.51 365.19 341.3 356.5 340.39 356.64 339.48"/><rect class="cls-14" x="342.4" y="401.28" width="67.2" height="5.02"/><rect class="cls-31" x="449.11" y="335.85" width="1.23" height="53.08"/><polygon class="cls-31" points="449.72 406.25 449.72 381.92 448.25 381.92 446.77 406.25 449.72 406.25"/><polygon class="cls-31" points="449.64 406.25 449.64 381.92 451.11 381.92 452.59 406.25 449.64 406.25"/><rect class="cls-31" x="436.9" y="327.08" width="25.64" height="8.76"/><rect class="cls-32" x="437.56" y="327.62" width="24.33" height="7.68"/><rect class="cls-31" x="436.9" y="325.63" width="0.66" height="11.67"/><rect class="cls-31" x="461.88" y="325.91" width="0.66" height="11.67"/><polygon class="cls-31" points="449.72 327.08 449.72 324.75 449.11 324.75 447.31 327.08 449.72 327.08"/><polygon class="cls-31" points="449.72 327.08 449.72 324.75 450.33 324.75 452.14 327.08 449.72 327.08"/><polygon class="cls-31" points="449.11 324.75 449.72 321.35 449.72 324.75 449.11 324.75"/><polygon class="cls-31" points="450.33 324.75 449.72 321.35 449.72 324.75 450.33 324.75"/><path class="cls-33" d="M440.73,332.71H440a.26.26,0,0,1-.18-.06.17.17,0,0,1-.06-.13.12.12,0,0,1,0-.08l.11-.09a.19.19,0,0,0,.07-.11,2.67,2.67,0,0,0,0-.33q0-.4,0-1a.89.89,0,0,0,0-.28.23.23,0,0,0-.13-.12.16.16,0,0,1-.12-.15.15.15,0,0,1,.07-.13.31.31,0,0,1,.18-.05h1.27a1.59,1.59,0,0,1,.39,0,.65.65,0,0,1,.26.13.5.5,0,0,1,.18.4.59.59,0,0,1-.05.24.49.49,0,0,1-.14.19s-.06.07-.06.09,0,.06.08.08a.7.7,0,0,1,.27.2.55.55,0,0,1,.13.37.71.71,0,0,1-.19.48,1,1,0,0,1-.75.29h-.63Zm.13-2v.37a.26.26,0,0,0,0,.13.09.09,0,0,0,.08,0,.23.23,0,0,0,.2-.08.43.43,0,0,0,.06-.26.46.46,0,0,0-.07-.26.21.21,0,0,0-.19-.09.1.1,0,0,0-.09,0A.24.24,0,0,0,440.86,330.74Zm0,1V332a.93.93,0,0,0,0,.32.14.14,0,0,0,.14.08q.28,0,.28-.32t-.31-.4a.15.15,0,0,0-.11,0A.19.19,0,0,0,440.86,331.78Z"/><path class="cls-33" d="M444.74,331.45l.34.74a.51.51,0,0,0,.08.13.18.18,0,0,0,.1,0q.13,0,.13.13t-.16.19a1.69,1.69,0,0,1-.52.06,3.89,3.89,0,0,1-.61,0,.28.28,0,0,1-.14-.07.16.16,0,0,1-.05-.12.12.12,0,0,1,0-.08.26.26,0,0,1,.1-.06c.06,0,.09-.05.09-.1s0-.13-.15-.14l-.45,0a.79.79,0,0,0-.29,0,.15.15,0,0,0-.05.07.21.21,0,0,0,0,.09s0,0,0,.05l.1,0a.13.13,0,0,1,.11.13q0,.22-.52.22a1.7,1.7,0,0,1-.43,0,.16.16,0,0,1-.13-.17.13.13,0,0,1,0-.09.25.25,0,0,1,.1-.06.39.39,0,0,0,.18-.12,1.79,1.79,0,0,0,.17-.32l.26-.56a4.41,4.41,0,0,0,.19-.46,1.06,1.06,0,0,0,.05-.3,1,1,0,0,1,0-.22.27.27,0,0,1,.08-.12.43.43,0,0,1,.32-.13.53.53,0,0,1,.35.14A4.07,4.07,0,0,1,444.74,331.45Zm-1.27.23h.36c.07,0,.1,0,.1,0a.94.94,0,0,0-.14-.29l-.1-.14a.09.09,0,0,0-.07,0s-.08,0-.11.12l-.05.13a1,1,0,0,0-.08.22S443.42,331.68,443.48,331.68Z"/><path class="cls-33" d="M446.47,330.31l.91.79a.37.37,0,0,0,.18.11q.09,0,.09-.2a1.18,1.18,0,0,0,0-.31.21.21,0,0,0-.11-.13.27.27,0,0,1-.1-.07.16.16,0,0,1,0-.1q0-.15.21-.2l.3,0a1.48,1.48,0,0,1,.38,0c.11,0,.17.1.17.19a.19.19,0,0,1-.14.18l-.07,0,0,.05a1.41,1.41,0,0,0-.05.45v.59q0,.14,0,.37a1.85,1.85,0,0,1,0,.46q0,.18-.18.18l-.1,0-.14-.11-1.08-1a.32.32,0,0,0-.19-.1q-.11,0-.11.31a1.4,1.4,0,0,0,0,.35.22.22,0,0,0,.12.14.18.18,0,0,1,.12.16q0,.25-.54.25a.9.9,0,0,1-.38-.06.2.2,0,0,1-.14-.18.14.14,0,0,1,0-.09l.11-.08a.23.23,0,0,0,.1-.18,5.54,5.54,0,0,0,0-.68,3.05,3.05,0,0,0-.05-.68.31.31,0,0,0-.05-.12.3.3,0,0,0-.1-.07.35.35,0,0,1-.11-.08.14.14,0,0,1,0-.09q0-.17.3-.22h.36a.71.71,0,0,1,.21,0A.51.51,0,0,1,446.47,330.31Z"/><path class="cls-33" d="M449.92,330.18a1.47,1.47,0,0,1,.45.07l.13,0,.15,0h.08a.25.25,0,0,1,.19.12.68.68,0,0,1,.15.42.39.39,0,0,1-.08.25.26.26,0,0,1-.21.1.34.34,0,0,1-.21-.08l-.15-.17a.59.59,0,0,0-.46-.25.46.46,0,0,0-.38.17.72.72,0,0,0-.14.47,1.23,1.23,0,0,0,.22.74.65.65,0,0,0,.2.18.46.46,0,0,0,.23.07.21.21,0,0,0,.16-.06.22.22,0,0,0,.06-.16.14.14,0,0,0-.05-.12l0,0h-.1a.18.18,0,0,1-.13,0,.17.17,0,0,1-.05-.13q0-.15.2-.21a1.7,1.7,0,0,1,.51-.07,1.79,1.79,0,0,1,.52.06q.2.06.2.22a.16.16,0,0,1,0,.11.19.19,0,0,1-.12.06l-.08,0a.23.23,0,0,0,0,.09,1,1,0,0,1-.31.48,1.13,1.13,0,0,1-.38.21,1.45,1.45,0,0,1-.47.07,1.49,1.49,0,0,1-.73-.18,1.28,1.28,0,0,1-.67-1.13,1.2,1.2,0,0,1,.18-.63,1.27,1.27,0,0,1,.53-.49A1.46,1.46,0,0,1,449.92,330.18Z"/><path class="cls-33" d="M453.58,330.72l-.19.19a.28.28,0,0,0-.11.19.19.19,0,0,0,0,.09l.09.12.68.79.13.13.1.06a.36.36,0,0,1,.14.09.2.2,0,0,1,0,.13q0,.19-.27.19h-.69a.18.18,0,0,1-.11,0,.85.85,0,0,1-.13-.15,5.27,5.27,0,0,0-.37-.45l-.14-.14a.12.12,0,0,0-.08,0q-.11,0-.11.2a.29.29,0,0,0,.07.22l.06,0a.19.19,0,0,1,.1.16c0,.08-.05.14-.16.17a2,2,0,0,1-.54.05,2.16,2.16,0,0,1-.49,0,.21.21,0,0,1-.11-.07.16.16,0,0,1,0-.11.2.2,0,0,1,.11-.17.21.21,0,0,0,.07-.07.52.52,0,0,0,0-.13,4,4,0,0,0,0-.63,4.68,4.68,0,0,0,0-.72.33.33,0,0,0,0-.13.26.26,0,0,0-.09-.07.18.18,0,0,1-.1-.16.17.17,0,0,1,.06-.14.46.46,0,0,1,.2-.08,2.48,2.48,0,0,1,.47,0,1.22,1.22,0,0,1,.42.05.18.18,0,0,1,.12.18.16.16,0,0,1,0,.08l-.1.09a.26.26,0,0,0-.05.12.77.77,0,0,0,0,.19q0,.15.07.15a.12.12,0,0,0,.08,0l.16-.18a.53.53,0,0,0,.14-.23.24.24,0,0,0,0-.1.18.18,0,0,1,0-.08.2.2,0,0,1,.15-.19,1.55,1.55,0,0,1,.5-.06,1.73,1.73,0,0,1,.41,0,.19.19,0,0,1,.17.19.19.19,0,0,1,0,.11.15.15,0,0,1-.09.06h-.18l-.14,0A.48.48,0,0,0,453.58,330.72Z"/><path class="cls-33" d="M455.82,330.18a1.3,1.3,0,0,1,.82.27,1.37,1.37,0,0,1,.38.48,1.3,1.3,0,0,1,.14.58,1.16,1.16,0,0,1-.28.77,1.33,1.33,0,0,1-.63.41,1.55,1.55,0,0,1-.48.08,1.43,1.43,0,0,1-.6-.13,1.21,1.21,0,0,1-.54-.48,1.28,1.28,0,0,1-.19-.68,1.25,1.25,0,0,1,.83-1.2A1.53,1.53,0,0,1,455.82,330.18Zm-.17.52a.28.28,0,0,0-.24.14.42.42,0,0,0-.07.24,1.64,1.64,0,0,0,.08.48,2.12,2.12,0,0,0,.21.48.45.45,0,0,0,.14.14.31.31,0,0,0,.17.05.27.27,0,0,0,.22-.1.42.42,0,0,0,.08-.27,1.77,1.77,0,0,0-.07-.47,1.65,1.65,0,0,0-.18-.43.6.6,0,0,0-.16-.17A.34.34,0,0,0,455.65,330.7Z"/><path class="cls-33" d="M459.43,330.72l-.19.19a.28.28,0,0,0-.11.19.19.19,0,0,0,0,.09l.09.12.68.79.13.13.1.06a.36.36,0,0,1,.14.09.2.2,0,0,1,0,.13q0,.19-.27.19h-.69a.18.18,0,0,1-.11,0,.85.85,0,0,1-.13-.15,5.27,5.27,0,0,0-.37-.45l-.14-.14a.12.12,0,0,0-.08,0q-.11,0-.11.2a.29.29,0,0,0,.07.22l.06,0a.19.19,0,0,1,.1.16c0,.08-.05.14-.16.17a2,2,0,0,1-.54.05,2.16,2.16,0,0,1-.49,0,.21.21,0,0,1-.11-.07.16.16,0,0,1,0-.11.2.2,0,0,1,.11-.17.21.21,0,0,0,.07-.07.52.52,0,0,0,0-.13,4,4,0,0,0,0-.63,4.68,4.68,0,0,0,0-.72.33.33,0,0,0,0-.13.26.26,0,0,0-.09-.07.18.18,0,0,1-.1-.16.17.17,0,0,1,.06-.14.46.46,0,0,1,.2-.08,2.48,2.48,0,0,1,.47,0,1.22,1.22,0,0,1,.42.05.18.18,0,0,1,.12.18.16.16,0,0,1,0,.08l-.1.09a.26.26,0,0,0-.05.12.77.77,0,0,0,0,.19q0,.15.07.15a.12.12,0,0,0,.08,0l.16-.18a.53.53,0,0,0,.14-.23.24.24,0,0,0,0-.1.18.18,0,0,1,0-.08.2.2,0,0,1,.15-.19,1.55,1.55,0,0,1,.5-.06,1.73,1.73,0,0,1,.41,0,.19.19,0,0,1,.17.19.19.19,0,0,1,0,.11.15.15,0,0,1-.09.06h-.18l-.14,0A.48.48,0,0,0,459.43,330.72Z"/><g class="cls-34"><polygon class="cls-35" points="386.54 340.47 386.54 340.93 386.54 341.81 386.54 342.39 386.54 343.02 386.54 343.61 386.54 343.76 387.63 344.12 386.68 340.83 386.54 340.47"/><polygon class="cls-36" points="376.06 278.95 376.06 278.95 376.06 278.98 376.06 278.95"/><polygon class="cls-37" points="365.32 341.18 364.46 344.12 365.55 343.77 365.55 343.61 365.55 343.02 365.55 342.39 365.55 341.81 365.55 340.94 365.55 340.38 365.48 340.64 365.32 341.18"/><polygon class="cls-38" points="357.34 335.54 357.34 335.54 364.94 336.52 357.34 335.54"/><path class="cls-39" d="M376.06,279v0h0l-.32,6.42-.93.94-.09.22.11.21h0c-.05,0-.1-.05-.11,0l.13.1,0,.16-.14-.08-.2-.5-.18,0,.05.13,0,.47.12.28-.07,0,.12.43.27.12.09,0c0,.05,0,.09,0,.13h0l-.24,0a1.49,1.49,0,0,0,.41.78l.17.14v.93L373,292l-.22.54.28.52h0c-.12-.1-.24-.12-.28.08a2.39,2.39,0,0,1,.33.24l0,.4-.35-.2-.48-1.23-.44-.12.12.3.08,1.15.3.67-.17-.05.29,1,.66.29.22-.12c0,.12,0,.23,0,.32h0l-.57,0a3.63,3.63,0,0,0,1,1.91l.37.3v1l-5.73,5.79-.56,1.36.7,1.32c-.31-.25-.6-.31-.7.21a6,6,0,0,1,.82.6l-.13,1-.88-.5-1.22-3.1-1.1-.3.31.77.2,2.89.75,1.69-.44-.13.73,2.64,1.66.73.55-.3c0,.3,0,.58,0,.8l-1.45-.1a9.16,9.16,0,0,0,2.54,4.81,9.65,9.65,0,0,0,1.16.93v3.49h-6.76l-4.54-5.8-.42-.21-.55-.27.79,3.56.44,3.92h0l-2.4,4.62-.1.63-.19,1.26-.1.67-.28,1.84-1.5,1.41,1.62.21h0l7.59,1-7.59-1-.13.82-.09.54L355,350.14v1.92l2.38,1.78h2.89l3.75-1.47-1.55,4.77-8.2,14.14-.79.73-4.34-.73-2.8,1.45-1.06-.73h-3.17l4,3.7h3.83l1.12,1.72-1.89-.53-2.34.93h-2l-1.39.33,2.18,2.31,3.3,1.19,5.09,4.69,3.81,1.38,3.19,7.08-.69.76.69.73-2.45,1.39-2,0-2.35-1.35h-1.39l-.59,1.78,2.1,3.33H342.45v5h33.61V279Zm-11.59,54.85.15.84Zm8.31,11.28-.35-1Zm-7.22-4.16v2.83l-1.09.35.86-2.94.16-.54.08-.27Zm4.2,60.48L372.5,400l-.53-2.21-.66-.89-.13-1.65.33-.89-.89-.46-1.76-7.65.41-.15-.12-.42,2.08-1.81h0l2.26-2,1.29-1.36.28,20.88Z"/></g><polygon class="cls-40" points="449.11 324.75 447.31 327.08 437.56 327.08 437.56 325.63 436.9 325.63 436.9 327.08 436.9 335.85 436.9 337.3 437.56 337.3 437.56 335.85 449.11 335.85 449.11 381.92 448.25 381.92 446.77 406.25 449.64 406.25 449.72 406.25 449.72 321.35 449.11 324.75"/><rect class="cls-41" x="28.66" y="405.61" width="889.43" height="25.93"/><path class="cls-12" d="M96.5,321.81H44.16c18.28-11.11,14.1-27.34,10.44-34.27-.68-1.42-1.55-1.87-2.57-3.11-.08-.1-.12-.11-.13-.11a23.21,23.21,0,0,0-9.48-6.61,7.13,7.13,0,0,0-1.39-.33,26.39,26.39,0,0,0-8.13-.93H29.13v39.36H32.9c.59,0,1.18-.48,1.76-.52a39.19,39.19,0,0,1-5.54,3.4V348.2H96.5c8,0,14.45-6.39,14.45-13.2S104.48,321.81,96.5,321.81Z"/><path class="cls-42" d="M52.37,405.82l-.09.1,13.32-.2,0-.1Z"/><path class="cls-43" d="M156.51,209.76H95.24s-3.57,1.37-3.57,4.12,4.4,3,4.4,3h35.17s4.4.82,4.95,3.85-4.67,3.57-4.67,3.57H74.09a5.8,5.8,0,0,0-5.49,6c0,5.77,6.59,5.22,6.59,5.22h31s4.12,0,4.12,3.85-4.12,3-4.12,3H77.93s-3.85,1.1-3.3,4.67a3.8,3.8,0,0,0,3.57,3.57H205.69s6.32,1.1,6.32-3-6.87-3.3-6.87-3.3h-30.5s-4.4.27-4.4-3,4.4-3,4.4-3h28a4.84,4.84,0,0,0,4.12-4.95c0-4.4-5.22-4.67-5.22-4.67h-27.2s-3,.55-3-3.3,5.49-2.75,5.49-2.75h15.94s7.69.55,7.69-7.69c0,0,.55-5.22-8.52-5.22Z"/><path class="cls-44" d="M628.34,189.84h-34c-3.34,0-6.07-2.23-6.07-4.95s2.73-4.95,6.07-4.95h25.07c2.61,0,4.75-1.74,4.75-3.87s-2.14-3.87-4.75-3.87H486.86c-2.61,0-4.75,1.74-4.75,3.87s2.14,3.87,4.75,3.87h39.33c3.34,0,6.07,2.23,6.07,4.95s-2.73,4.95-6.07,4.95H471.56c-2.9,0-5.28,1.94-5.28,4.3s2.38,4.3,5.28,4.3H628.34c2.9,0,5.28-1.94,5.28-4.3S631.24,189.84,628.34,189.84Z"/><path class="cls-45" d="M380.4,498.26H246.85a8.07,8.07,0,0,1-8.1-7.5c-.27-4.73,3.57-10,21.87-10H363.92l.61,0c1.24-.1,6.78-.34,6.78,3.35,0,0,.4,2.39-6.17,1.71a8.62,8.62,0,0,0-.88,0H336.2s-4.13-.42-4.13,3.74c0,3.51,3.23,3.46,4.25,3.36.24,0,.48,0,.72,0H379a7.37,7.37,0,0,0,.9-.05c.81-.1,3-.09,3,3A2.43,2.43,0,0,1,380.4,498.26Z"/><rect class="cls-45" x="456.23" y="490.39" width="46.79" height="8.34" rx="4.04" ry="4.04"/><rect class="cls-45" x="348.76" y="456.11" width="46.79" height="8.34" rx="4.04" ry="4.04"/><path class="cls-46" d="M29.13,268.45s19,12.91,29.18,50.36c11.59,42.65,31.5,84.5,36.6,86.81H29.13Z"/><path class="cls-1" d="M41.38,343H38.45c-1.78,1.23-4.8,3-6.9,2.22A13.27,13.27,0,0,1,29.17,344v4.7a4.11,4.11,0,0,1,.69-.2c4.21-.83,4.91,4.13,4.91,4.13s.7-1.65,2.1-.83a2,2,0,0,1,.7,2.48,2.45,2.45,0,0,1,2.1-1.65c3.51-.83,3.51,5,3.51,5,3.51-.83,4.21,4.13,4.21,4.13A2.34,2.34,0,0,1,45.5,364c6.3,2.84,12.84,4,13.44,1.87a15.74,15.74,0,0,0,.25-3.4c0-4.77-.58-12.7-.91-16.82C52.91,346.2,45.18,345.17,41.38,343Z"/><path class="cls-42" d="M88.31,362.6l-2.14-.84H84.28c-3.92,3.45-9.59,6.73-14.69,3.13-5.93-4.19-7.5-14-7.89-20a11.88,11.88,0,0,1-1.78.48c.59,2.81,3.86,18.73,3.82,24.65a4,4,0,0,1-.36,2.18c-.46.54-.66,2.88-.67,6.11,0,8.31,1.27,22.42,2.88,27.31h0l0,.1,6.93-.1s-7.37-20.89-.26-28.2c5.59-5.75,14.48-12.15,18-14.62A4.42,4.42,0,0,1,88.31,362.6Z"/><path class="cls-42" d="M36.88,363.15l-.06,0c5.07,4.8,13.51,12.14,17.69,12.14a96.25,96.25,0,0,1,1.44,15.79,96.07,96.07,0,0,0-1.44-15.89C50.34,375.23,42,367.95,36.88,363.15Z"/><path class="cls-42" d="M62.71,378.31c0-3.23.21-5.57.67-6.11a4,4,0,0,0,.36-2.18,3.85,3.85,0,0,1-.36,2.08C62.92,372.64,62.72,375,62.71,378.31Z"/><path class="cls-42" d="M59.19,362.43c0-4.72-.57-12.65-.9-16.82h0C58.61,349.72,59.2,357.66,59.19,362.43Z"/><path class="cls-47" d="M42.78,329.11s1.19-2.52,3.57-1.26a2.85,2.85,0,0,1,1.19,3.78,4.19,4.19,0,0,1,3.57-2.52c5.95-1.26,5.95,7.55,5.95,7.55,3.29-.7,5.11,1.3,6.1,3.22a2.84,2.84,0,0,1,.57.69h.62c2.47,2.26,8.38,7,12,4.43a4.72,4.72,0,0,0,2.34-4.52c.29-1,2.66-10-6.45-10,0,0,3.21-7.55-2.14-8.81s-6.42,2.52-6.42,2.52,3.21-12.59-6.42-12.59-8.56,10.07-8.56,10.07a5,5,0,0,0-6.42-3.78,6.54,6.54,0,0,0-5.13,4.86C41.9,323.58,42.78,329.11,42.78,329.11Z"/><path class="cls-47" d="M29.7,332.89a12.76,12.76,0,0,1-.31-1.83l-.22.34v1A6.21,6.21,0,0,1,29.7,332.89Z"/><path class="cls-48" d="M61.7,344.89C63,344.43,63.8,343.79,64,343h.19s0-.21-.11-.53a2.91,2.91,0,0,0-.36-1.85H61.59C61.58,341.43,61.58,343,61.7,344.89Z"/><path class="cls-48" d="M37,324.21a6.25,6.25,0,0,1,.22-1.43,7.93,7.93,0,0,0-2.72,0c-5.06.89-5.34,5.59-5.07,8.24l1.15-1.81C30.53,324.21,37,324.21,37,324.21Z"/><path class="cls-48" d="M38.45,343h2.93c3.8,2.21,11.53,3.24,16.9,2.66h0c-.13-1.62-.22-2.66-.22-2.66-.66-.22-1.31-.46-2-.7a18.3,18.3,0,0,1-4.2.53c-3.46,0-5.15-1.25-5.95-2.22H43.42l-3.77,2.22s-4.52-.6-7-2.22H29.17V344a13.27,13.27,0,0,0,2.38,1.13C33.64,345.91,36.66,344.19,38.45,343Z"/><path class="cls-48" d="M61.59,340.57H61a28.16,28.16,0,0,1-4.88,1.68c.65.24,1.3.48,2,.7,0,0,.09,1,.22,2.66h0v-.1l1.55-.57.09.43a11.88,11.88,0,0,0,1.78-.48C61.58,343,61.58,341.43,61.59,340.57Z"/><circle class="cls-48" cx="58.28" cy="345.61" transform="translate(-288.78 394.54) rotate(-88.45)"/><path class="cls-48" d="M29.17,332.39v8.18h3.52c2.44,1.62,7,2.22,7,2.22l3.77-2.22h2.53c.79,1,2.48,2.22,5.95,2.22a18.3,18.3,0,0,0,4.2-.53,76.66,76.66,0,0,1-20.24-11.83l1.78-3.13c3.55,4.18,24,12.53,24,12.53s0,.27,0,.75h2.13a2.84,2.84,0,0,0-.57-.69c-1-1.92-2.81-3.92-6.1-3.22,0,0,0-8.81-5.95-7.55a4.19,4.19,0,0,0-3.57,2.52,2.85,2.85,0,0,0-1.19-3.78c-2.38-1.26-3.57,1.26-3.57,1.26s-.88-5.53-5.61-6.33a6.25,6.25,0,0,0-.22,1.43s-6.42,0-6.42,5l-1.15,1.81a12.76,12.76,0,0,0,.31,1.83A6.21,6.21,0,0,0,29.17,332.39Z"/><path class="cls-48" d="M61.59,340.57c0-.48,0-.75,0-.75s-20.42-8.36-24-12.53l-1.78,3.13A76.66,76.66,0,0,0,56.1,342.25,28.16,28.16,0,0,0,61,340.57Z"/><path class="cls-47" d="M98.94,361.34c-.24-1-1-3.44-3.31-2.91,0,0,0-4.65-2.82-4a2,2,0,0,0-1.69,1.33,1.6,1.6,0,0,0-.56-2c-1.13-.66-1.69.66-1.69.66s-.56-4-4-3.32-2.26,5.31-2.26,5.31-1.07-1.33-1.95-.66a1.93,1.93,0,0,0-.31,2.66s-2.91-.08-2.82,2.66a.34.34,0,0,0,.13.24s.6,1.26,2.74,1.26a4.67,4.67,0,0,0,2.59-.84h1.25a36.48,36.48,0,0,0,4.85-5.22l2.66,5.22-1.52,1a12.91,12.91,0,0,0,3.75-1c0,.84,5,1.68,5,0A1.2,1.2,0,0,0,98.94,361.34Z"/><path class="cls-47" d="M89.13,356.53a36.48,36.48,0,0,1-4.85,5.22h1.88l2.14.84a4.42,4.42,0,0,0,2,.21l1.52-1Z"/><path class="cls-47" d="M34.78,356.75l0,0,0-.08.19-.22c2.15,2.94,6.29,5.62,10.53,7.53a2.34,2.34,0,0,0,1.9-2.21s-.7-5-4.21-4.13c0,0,0-5.78-3.51-5a2.45,2.45,0,0,0-2.1,1.65,2,2,0,0,0-.7-2.48c-1.4-.83-2.1.83-2.1.83s-.7-5-4.91-4.13a4.11,4.11,0,0,0-.69.2V361.8l0,0a16.64,16.64,0,0,0,4,2.09,3.93,3.93,0,0,0,3.62-.65l-.15-.14Z"/><path class="cls-47" d="M36.67,363l-1.87-6.23,0,0,1.89,6.3.15.14.06,0Z"/><path class="cls-49" d="M45.5,364l-.17,0c6.35,2.89,13,4.1,13.61,1.94a16.22,16.22,0,0,0,.25-3.5,15.74,15.74,0,0,1-.25,3.4C58.34,368,51.8,366.8,45.5,364Z"/><path class="cls-50" d="M52.28,405.82h.09c2.74-3,3.56-8.89,3.57-14.7C55.92,397,55.08,402.86,52.28,405.82Z"/><path class="cls-42" d="M63.75,370c0-5.92-3.24-21.84-3.82-24.65h0C60.42,347.85,63.74,363.94,63.75,370Z"/><path class="cls-51" d="M63.75,370c0-5.92-3.24-21.84-3.82-24.65h0C60.42,347.85,63.74,363.94,63.75,370Z"/><path class="cls-42" d="M65.6,405.62c-1.61-4.89-2.89-19-2.88-27.31,0,8.24,1.25,22.31,2.85,27.31Z"/><path class="cls-52" d="M65.6,405.62c-1.61-4.89-2.89-19-2.88-27.31,0,8.24,1.25,22.31,2.85,27.31Z"/><path class="cls-42" d="M62.71,378.31c0-3.29.21-5.67.67-6.22a3.85,3.85,0,0,0,.36-2.08c0-6.07-3.32-22.16-3.84-24.65-.51.1-1,.18-1.61.24.34,4.17.92,12.09.9,16.82a16.22,16.22,0,0,1-.25,3.5c-.61,2.15-7.26.95-13.61-1.94a5.88,5.88,0,0,1-2.38-.14c-4.44-1-4.52-2.09-4.52-2.09a8.37,8.37,0,0,1-1.57,1.4c5.08,4.8,13.46,12.08,17.63,12.08a96.07,96.07,0,0,1,1.44,15.89c0,5.81-.83,11.69-3.57,14.7l13.19-.2C64,400.62,62.7,386.55,62.71,378.31Z"/><path class="cls-53" d="M62.71,378.31c0-3.29.21-5.67.67-6.22a3.85,3.85,0,0,0,.36-2.08c0-6.07-3.32-22.16-3.84-24.65-.51.1-1,.18-1.61.24.34,4.17.92,12.09.9,16.82a16.22,16.22,0,0,1-.25,3.5c-.61,2.15-7.26.95-13.61-1.94a5.88,5.88,0,0,1-2.38-.14c-4.44-1-4.52-2.09-4.52-2.09a8.37,8.37,0,0,1-1.57,1.4c5.08,4.8,13.46,12.08,17.63,12.08a96.07,96.07,0,0,1,1.44,15.89c0,5.81-.83,11.69-3.57,14.7l13.19-.2C64,400.62,62.7,386.55,62.71,378.31Z"/><path class="cls-48" d="M58.28,345.51v.1l1.54-.56.07.33h0l-.09-.43Z"/><path class="cls-54" d="M58.28,345.51v.1l1.54-.56.07.33h0l-.09-.43Z"/><path class="cls-48" d="M58.29,345.61h0c.57-.06,1.11-.14,1.61-.24l-.07-.33Z"/><path class="cls-55" d="M58.29,345.61h0c.57-.06,1.11-.14,1.61-.24l-.07-.33Z"/><path class="cls-47" d="M35,356.43l-.19.22,0,.08.17-.2c2.12,2.91,6.18,5.55,10.37,7.46l.17,0C41.26,362,37.12,359.37,35,356.43Z"/><path class="cls-56" d="M35,356.43l-.19.22,0,.08.17-.2c2.12,2.91,6.18,5.55,10.37,7.46l.17,0C41.26,362,37.12,359.37,35,356.43Z"/><path class="cls-47" d="M35,356.53l-.17.2L36.67,363l.21.2a8.37,8.37,0,0,0,1.57-1.4s.08,1,4.52,2.09a5.88,5.88,0,0,0,2.38.14C41.15,362.08,37.09,359.44,35,356.53Z"/><path class="cls-57" d="M35,356.53l-.17.2L36.67,363l.21.2a8.37,8.37,0,0,0,1.57-1.4s.08,1,4.52,2.09a5.88,5.88,0,0,0,2.38.14C41.15,362.08,37.09,359.44,35,356.53Z"/><path class="cls-58" d="M31.09,233.31c.81-1.06,1.75-2,5.08-2.38,4-.45,6.9.84,7.49,2,.74-.15.55.39,1.41.39a10.46,10.46,0,0,1,4.23.8,4.51,4.51,0,0,1,1.42-.21c1.3,0,2.36.47,2.36,1.05,0,0,0,0,0,0,3.84.19,6.82,1.65,6.82,3.42a1,1,0,0,1,0,.22s0,0,0,0H28.66v-5.56A12.6,12.6,0,0,1,31.09,233.31Z"/><polygon class="cls-59" points="150.46 334.95 149.08 332.79 195.94 332.79 195.94 334.95 150.46 334.95"/><polygon class="cls-59" points="294.84 334.95 296.23 332.79 249.36 332.79 249.36 334.95 294.84 334.95"/><rect class="cls-60" x="149.08" y="327.64" width="93.73" height="3.66"/><rect class="cls-60" x="202.5" y="327.64" width="93.73" height="3.66"/><rect class="cls-61" x="202.5" y="326.15" width="93.73" height="1.49"/><rect class="cls-61" x="202.5" y="331.3" width="93.73" height="1.49"/><rect class="cls-61" x="149.08" y="326.15" width="93.73" height="1.49"/><rect class="cls-61" x="149.08" y="331.3" width="93.73" height="1.49"/><polygon class="cls-62" points="184.07 268.27 162.88 268.27 155.97 261.15 160.73 271.83 184.07 271.83 186.95 271.83 186.95 271.38 186.95 268.27 184.07 268.27"/><polygon class="cls-62" points="261.24 268.27 282.44 268.27 289.35 261.15 284.58 271.83 261.24 271.83 258.36 271.83 258.36 271.38 258.36 268.27 261.24 268.27"/><polygon class="cls-62" points="209.32 257.04 185.98 257.04 181.21 246.36 188.12 253.48 209.32 253.48 209.32 257.04"/><polygon class="cls-62" points="235.8 257.04 259.14 257.04 263.91 246.36 257 253.48 235.8 253.48 235.8 257.04"/><polygon class="cls-63" points="183.24 271.83 160.72 271.83 149.08 326.15 186.19 326.15 186.19 271.83 183.24 271.83"/><polygon class="cls-63" points="262.07 271.83 284.58 271.83 296.23 326.15 259.12 326.15 259.12 271.83 262.07 271.83"/><polygon class="cls-63" points="204.42 257.04 185.98 257.04 179.11 312.65 209.32 312.65 209.32 257.04 204.42 257.04"/><polygon class="cls-63" points="240.71 257.04 259.14 257.04 266.01 312.65 235.8 312.65 235.8 257.04 240.71 257.04"/><polygon class="cls-64" points="259.12 281.72 234.02 248.12 222.57 248.12 222.54 248.12 211.08 248.12 185.98 281.72 222.55 281.72 222.55 273.31 222.56 281.72 259.12 281.72"/><polygon class="cls-65" points="222.55 281.72 185.98 281.72 195.53 291.3 222.55 291.3 249.56 291.3 259.12 281.72 222.55 281.72"/><polygon class="cls-63" points="226.05 334.89 180.57 334.89 135.09 334.89 111.86 356.49 180.57 356.49 249.28 356.49 226.05 334.89"/><polygon class="cls-62" points="135.1 334.89 226.06 334.89 227.42 336.17 133.72 336.17 135.1 334.89"/><polygon class="cls-63" points="310.1 334.89 264.62 334.89 219.14 334.89 195.91 356.49 264.62 356.49 333.33 356.49 310.1 334.89"/><polygon class="cls-62" points="219.16 334.89 310.12 334.89 311.47 336.17 217.77 336.17 219.16 334.89"/><rect class="cls-62" x="195.91" y="356.49" width="137.42" height="1.83"/><rect class="cls-62" x="111.86" y="356.49" width="137.42" height="1.83"/><polygon class="cls-66" points="328.73 362.38 333.33 358.32 264.62 358.32 264.62 362.38 328.73 362.38"/><polygon class="cls-66" points="116.46 362.38 111.86 358.32 180.57 358.32 180.57 362.38 116.46 362.38"/><rect class="cls-9" x="190.56" y="357.3" width="64" height="53.84"/><rect class="cls-9" x="158.46" y="357.3" width="32.1" height="53.84"/><rect class="cls-9" x="116.4" y="362.38" width="42.06" height="44.5"/><rect class="cls-9" x="286.67" y="362.38" width="42.06" height="44.5"/><rect class="cls-9" x="254.56" y="357.3" width="32.1" height="53.84"/><path class="cls-67" d="M240.09,370.71s2.08-9.1-4.93-5.59c0,0,0-3-5.4-2.65s-7.2-1-7.2-1-1.8,1.42-7.2,1-5.4,2.65-5.4,2.65c-7-3.51-4.93,5.59-4.93,5.59l-2.37,3.51v33.63h39.79V374.21Z"/><path class="cls-67" d="M174.51,365.47a8.2,8.2,0,0,0-4.33,4.33v34h8.67v-34A8.2,8.2,0,0,0,174.51,365.47Z"/><path class="cls-67" d="M137.53,367.19a7.46,7.46,0,0,0-3.95,3.95v30.95h7.89V371.13A7.46,7.46,0,0,0,137.53,367.19Z"/><path class="cls-67" d="M307.8,367.19a7.46,7.46,0,0,0-3.95,3.95v30.95h7.89V371.13A7.46,7.46,0,0,0,307.8,367.19Z"/><path class="cls-67" d="M270.68,365.47a8.2,8.2,0,0,0-4.33,4.33v34H275v-34A8.2,8.2,0,0,0,270.68,365.47Z"/><polygon class="cls-59" points="188.42 357.3 195.53 357.3 195.53 411.15 185.98 411.15 185.98 357.3 188.42 357.3"/><polygon class="cls-59" points="118.83 362.38 125.95 362.38 125.95 406.88 116.4 406.88 116.4 362.38 118.83 362.38"/><polygon class="cls-59" points="151.51 362.38 158.63 362.38 158.63 406.88 149.08 406.88 149.08 362.38 151.51 362.38"/><polygon class="cls-59" points="289.07 362.38 296.18 362.38 296.18 406.88 286.63 406.88 286.63 362.38 289.07 362.38"/><polygon class="cls-59" points="321.62 362.38 328.73 362.38 328.73 406.88 319.18 406.88 319.18 362.38 321.62 362.38"/><polygon class="cls-59" points="252.23 357.3 259.34 357.3 259.34 411.15 249.79 411.15 249.79 357.3 252.23 357.3"/><polygon class="cls-66" points="222.56 353.24 153.85 353.24 158.46 357.3 222.56 357.3 286.67 357.3 291.27 353.24 222.56 353.24"/><rect class="cls-62" x="153.85" y="351.41" width="137.42" height="1.83"/><polygon class="cls-63" points="268.04 329.81 222.56 329.81 177.08 329.81 153.85 351.41 222.56 351.41 291.27 351.41 268.04 329.81"/><polygon class="cls-62" points="177.08 329.81 153.85 351.41 156.42 351.41 179.11 329.81 177.08 329.81"/><polygon class="cls-62" points="135.09 334.89 111.86 356.49 114.43 356.49 137.12 334.89 135.09 334.89"/><polygon class="cls-62" points="268.04 329.81 291.27 351.41 288.7 351.41 266.01 329.81 268.04 329.81"/><polygon class="cls-62" points="310.1 334.89 333.33 356.49 330.76 356.49 308.07 334.89 310.1 334.89"/><polygon class="cls-62" points="177.08 329.81 268.04 329.81 269.4 331.09 175.7 331.09 177.08 329.81"/><polygon class="cls-59" points="177.08 329.81 175.7 327.64 222.56 327.64 222.56 329.81 177.08 329.81"/><polygon class="cls-59" points="268.05 329.81 269.43 327.64 222.57 327.64 222.57 329.81 268.05 329.81"/><rect class="cls-66" x="175.7" y="326.15" width="93.73" height="1.49"/><rect class="cls-66" x="175.7" y="321" width="93.73" height="1.49"/><rect class="cls-60" x="175.7" y="322.49" width="93.73" height="3.66"/><polygon class="cls-62" points="222.56 265.56 175.7 321 222.56 321 269.42 321 222.56 265.56"/><polygon class="cls-61" points="222.57 268.92 178.54 321 222.57 321 266.59 321 222.57 268.92"/><polygon class="cls-68" points="222.55 274.67 183.39 321 222.55 321 261.71 321 222.55 274.67"/><polygon class="cls-65" points="222.54 240.54 206.88 240.54 211.08 248.12 222.54 248.12 233.99 248.12 238.19 240.54 222.54 240.54"/><polygon class="cls-65" points="222.52 191.23 219.62 191.23 220.97 194.35 222.52 194.35 224.08 194.35 225.43 191.23 222.52 191.23"/><polygon class="cls-64" points="224.08 188.12 222.52 188.12 220.97 188.12 219.62 191.23 222.52 191.23 225.43 191.23 224.08 188.12"/><polygon class="cls-65" points="222.52 185 219.62 185 220.97 188.12 222.52 188.12 224.08 188.12 225.43 185 222.52 185"/><polygon class="cls-64" points="224.08 181.89 222.52 181.89 220.97 181.89 219.62 185 222.52 185 225.43 185 224.08 181.89"/><polygon class="cls-64" points="224.08 194.35 222.52 194.35 220.97 194.35 206.88 240.54 222.52 240.54 238.16 240.54 224.08 194.35"/><polygon class="cls-65" points="222.52 123.84 220.97 181.89 222.52 181.89 224.08 181.89 222.52 123.84"/><polygon class="cls-62" points="185.98 257.04 179.11 312.65 181.21 312.65 188.19 254.76 185.98 257.04"/><polygon class="cls-62" points="259.14 257.03 266.01 312.65 263.91 312.65 256.93 254.75 259.14 257.03"/><polygon class="cls-69" points="175.7 321 169.43 315.65 175.7 316.67 222.55 261.6 222.56 265.56 175.7 321"/><polygon class="cls-69" points="269.41 321 275.68 315.65 269.41 316.67 222.56 261.6 222.55 265.56 269.41 321"/><polygon class="cls-62" points="160.72 271.83 149.08 326.15 150.94 326.15 162.42 271.66 160.72 271.83"/><polygon class="cls-62" points="284.58 271.83 296.23 326.15 294.37 326.15 282.89 271.66 284.58 271.83"/><polygon class="cls-62" points="149.08 326.15 175.7 326.15 175.7 324.32 150.53 324.32 149.08 326.15"/><polygon class="cls-62" points="296.06 326.15 269.43 326.15 269.43 324.32 294.6 324.32 296.06 326.15"/><rect class="cls-59" x="202.67" y="407.84" width="39.79" height="3.3"/><polygon class="cls-70" points="221.21 182.25 219.86 185.36 221.21 188.47 219.86 191.58 221.21 194.69 207.14 240.82 211.34 248.39 207.34 253.73 188.41 253.73 181.51 246.63 186.27 257.3 184.89 268.5 184.37 268.5 163.2 268.5 156.3 261.4 161.06 272.06 161.05 272.07 149.42 326.3 149.42 327.79 149.42 331.44 149.42 332.93 150.76 335.03 137.48 335.03 135.47 335.03 135.45 335.03 112.25 356.6 112.25 358.43 116.85 362.49 116.79 362.49 116.79 406.92 126.32 406.92 149.42 406.92 158.79 406.92 158.79 411.18 186.27 411.18 190.84 411.18 195.81 411.18 202.93 411.18 222.76 411.18 222.76 124.29 221.21 182.25"/></g></g></g></svg>