<?xml version="1.0" encoding="utf-8"?>
<!-- Generator: Adobe Illustrator 17.0.0, SVG Export Plug-In . SVG Version: 6.00 Build 0)  -->
<!DOCTYPE svg PUBLIC "-//W3C//DTD SVG 1.1//EN" "http://www.w3.org/Graphics/SVG/1.1/DTD/svg11.dtd">
<svg version="1.1" id="Layer_1" xmlns="http://www.w3.org/2000/svg" xmlns:xlink="http://www.w3.org/1999/xlink" x="0px" y="0px"
	 width="800px" height="800px" viewBox="0 0 800 800" enable-background="new 0 0 800 800" xml:space="preserve">
<g id="Layer_1_1_">
	<g>
		<circle fill="#B3D059" cx="400.972" cy="401.542" r="397.028"/>
		<path fill="#7B9FBA" d="M99.529,191.277c34.573-49.374,77.168-86.998,128.576-114.34c57.735-30.732,119.538-44.403,184.843-43.386
			c14.462,0.226,21.58,4.18,20.902,20.224c-1.243,29.828,8.587,56.492,27.794,79.315c12.541,14.914,25.647,29.263,38.189,44.177
			c19.094,22.71,42.821,30.845,72.423,27.907c36.268-3.503,37.624-1.921,24.405,32.088c-8.813,22.71-22.258,43.499-32.201,65.87
			c-4.858,10.96-9.265,23.162-9.378,34.912c-0.452,40.561,9.83,78.863,26.777,115.696c11.524,24.857,30.393,36.268,57.396,34.799
			c14.801-0.791,29.602-2.147,44.516-2.486c25.422-0.678,51.295,18.078,57.509,42.369c1.356,5.423,0.452,12.428-1.695,17.626
			c-16.383,39.771-39.545,75.248-69.034,106.318c-4.067,4.293-12.654,7.118-18.642,6.327
			c-54.007-7.118-106.544-20.337-157.162-40.674c-11.073-4.519-21.467-11.976-30.619-19.772
			c-20.224-17.4-39.206-36.042-58.978-53.894c-19.772-17.852-40.674-30.506-69.373-20.902
			c-32.088,10.734-55.701,29.489-67.452,62.029c-5.988,16.383-1.469,31.184,4.745,46.098c9.265,22.145,20.902,43.612,26.664,66.661
			c4.293,16.948,0.791,35.929,0.791,54.12c-73.892-2.373-202.92-111.629-230.714-193.091c13.671-2.034,27.455-2.938,40.449-6.327
			c23.614-6.214,47.454-12.541,70.05-21.693c18.981-7.683,22.032-17.739,18.529-38.302c-8.926-51.408-0.565-62.255,51.295-62.255
			c28.811-0.113,51.408-9.491,68.017-34.008c14.914-22.032,31.862-42.708,47.228-64.401c12.315-17.4,13.558-42.256-1.13-56.944
			c-24.405-24.518-51.408-46.55-78.524-68.243c-4.406-3.503-16.27-1.695-22.258,1.808c-10.395,6.214-19.433,15.027-27.907,23.953
			c-8.022,8.474-16.835,11.298-27.681,8.587C169.58,231.5,134.216,214.552,99.529,191.277z M388.318,462.44
			c0.339,21.128,19.207,40.9,38.302,40.11c19.998-0.791,39.093-21.241,39.319-42.03c0.226-22.258-16.609-39.093-38.641-38.528
			C404.814,422.331,387.979,439.843,388.318,462.44z"/>
		<path fill="#B3D059" d="M83.824,217.151c35.816,15.931,68.921,31.975,103.042,45.42c27.116,10.621,53.329,9.039,73.327-16.609
			c4.293-5.536,10.395-9.604,17.852-16.27c21.58,19.32,43.16,37.285,63.045,57.057c9.265,9.152,10.395,21.58,1.356,33.556
			c-15.592,20.337-31.184,40.561-45.646,61.69c-11.073,16.157-25.986,22.032-44.403,22.371c-4.858,0-9.378,0-14.01,0.113
			c-51.182,0.565-75.813,28.359-67.791,78.75c3.277,20.563,9.039,23.84-19.772,31.862c-25.986,7.231-52.764,11.298-79.315,16.609
			c-10.056,2.034-16.157-1.921-19.433-12.202C19.31,416.004,28.462,316.69,80.774,221.444c0.678-1.356,1.582-2.599,2.486-3.841
			C83.937,216.812,84.954,216.36,83.824,217.151z"/>
		<path fill="#B3D059" d="M754.953,497.918c-25.309-37.059-60.108-41.239-98.297-37.285c-40.222,4.067-46.55,0.565-58.978-38.302
			c-7.909-24.631-12.88-50.504-16.044-76.265c-1.356-10.96,3.615-24.066,9.378-34.121c17.626-30.845,33.443-62.255,38.754-97.845
			c3.615-24.066-4.858-35.025-29.037-36.494c-13.784-0.904-27.681-0.339-41.465,0.565c-13.671,0.904-25.196-2.373-34.347-12.993
			c-16.27-19.094-33.443-37.398-48.809-57.283c-15.14-19.546-17.964-42.708-15.366-66.887
			C673.943,67.446,815.287,295.562,754.953,497.918z"/>
		<path fill="#B3D059" d="M636.771,685.246c-93.89,73.553-196.593,98.862-312.967,76.717c1.469-9.491,3.164-17.4,3.954-25.309
			c2.938-29.715-1.017-58.074-15.818-84.625c-5.197-9.378-9.039-19.546-14.01-29.037c-10.96-20.45-5.423-38.302,10.169-52.538
			c9.491-8.7,21.693-14.914,33.443-20.563c12.541-5.988,24.857-3.841,35.59,5.762c12.993,11.637,27.681,21.693,38.98,34.686
			c35.59,41.013,81.801,61.803,133.096,73.779C577.567,670.784,605.7,677.676,636.771,685.246z"/>
		<path fill="#B3D059" d="M431.704,447.075c2.26,4.632,7.457,10.395,6.214,13.784c-2.034,5.536-8.248,9.491-12.767,14.236
			c-3.503-4.406-10.282-9.152-9.83-13.106c0.565-5.423,6.666-10.169,10.395-15.253C427.637,446.849,429.67,446.962,431.704,447.075z
			"/>
	</g>
</g>
<g id="Layer_6">
</g>
</svg>
