<?xml version="1.0" encoding="utf-8"?>
<!-- Generator: Adobe Illustrator 21.0.0, SVG Export Plug-In . SVG Version: 6.00 Build 0)  -->
<svg version="1.1" id="Layer_1" xmlns="http://www.w3.org/2000/svg" xmlns:xlink="http://www.w3.org/1999/xlink" x="0px" y="0px"
	 viewBox="0 0 1960 1000" style="enable-background:new 0 0 1960 1000;" xml:space="preserve">
<style type="text/css">
	.st0{opacity:0.5;fill:#EFE6DE;enable-background:new    ;}
	.st1{fill:#EFE6DE;}
	.st2{fill:url(#SVGID_1_);}
	.st3{fill:url(#SVGID_2_);}
	.st4{fill:url(#SVGID_3_);}
	.st5{fill:#1A532B;}
	.st6{fill:#B3732A;}
	.st7{fill:#183820;}
	.st8{fill:#DDD1C5;}
	.st9{fill:#1E2B2D;}
	.st10{fill:#551721;}
	.st11{fill:#2F525E;}
	.st12{fill:#CE9F68;}
	.st13{fill:#396335;}
	.st14{fill:#D4A06B;}
	.st15{fill:#B6D39D;}
	.st16{fill:#A7BDA4;}
	.st17{fill:#130F0D;}
	.st18{fill:#9E9E8A;}
	.st19{fill:#363732;}
	.st20{fill:#C8DCC9;}
	.st21{fill:#DBC3A2;}
	.st22{fill:#F1F0F0;}
	.st23{fill:#2F3029;}
	.st24{fill:#1074BC;}
	.st25{fill:#E5E5E5;}
	.st26{opacity:0.25;}
	.st27{fill:url(#SVGID_4_);}
	.st28{fill:url(#SVGID_5_);}
	.st29{fill:url(#SVGID_6_);}
	.st30{fill:url(#SVGID_7_);}
	.st31{fill:url(#SVGID_8_);}
	.st32{opacity:0.25;fill:url(#SVGID_9_);enable-background:new    ;}
	.st33{fill:#69676E;}
	.st34{fill:#806056;}
	.st35{fill:#9EBC52;}
	.st36{fill:#B3D059;}
	.st37{opacity:0.11;fill:url(#SVGID_10_);enable-background:new    ;}
	.st38{fill:#9E8592;}
	.st39{fill:url(#SVGID_11_);}
	.st40{opacity:0.11;fill:url(#SVGID_12_);enable-background:new    ;}
	.st41{fill:#DA6559;}
	.st42{fill:#B01F24;}
	.st43{fill:#B31F24;}
	.st44{fill:#B11F24;}
	.st45{fill:url(#SVGID_13_);}
	.st46{fill:url(#SVGID_14_);}
	.st47{fill:#51695D;}
	.st48{fill:none;}
	.st49{opacity:0.11;fill:url(#SVGID_15_);enable-background:new    ;}
	.st50{opacity:0.11;fill:url(#SVGID_16_);enable-background:new    ;}
	.st51{opacity:0.11;fill:url(#SVGID_17_);enable-background:new    ;}
	.st52{opacity:0.11;fill:url(#SVGID_18_);enable-background:new    ;}
	.st53{opacity:0.11;fill:url(#SVGID_19_);enable-background:new    ;}
	.st54{opacity:0.11;fill:url(#SVGID_20_);enable-background:new    ;}
	.st55{opacity:0.11;fill:url(#SVGID_21_);enable-background:new    ;}
	.st56{opacity:0.11;fill:url(#SVGID_22_);enable-background:new    ;}
	.st57{opacity:0.11;fill:url(#SVGID_23_);enable-background:new    ;}
	.st58{fill:url(#SVGID_24_);}
	.st59{fill:#FFFFFF;}
	.st60{fill:#B9AAA2;}
	.st61{fill:#1F4F26;}
	.st62{fill:#3F2E26;}
	.st63{fill:#EBE2D9;}
	.st64{fill:#A4C384;}
	.st65{fill:#67995C;}
	.st66{fill:#782C2A;}
	.st67{fill:#2A3520;}
	.st68{fill:#CD9C3C;}
	.st69{fill:#897660;}
	.st70{opacity:0.25;fill:url(#SVGID_25_);enable-background:new    ;}
	.st71{fill:#FBD021;}
	.st72{fill:#E2BA25;}
	.st73{opacity:0.25;fill:url(#SVGID_26_);enable-background:new    ;}
</style>
<g id="Layer_1_1_">
	<path class="st0" d="M2319,293.4c-2.8-0.1-5.7-0.2-8.6-0.2h-392.3c-39.4,0-71.3,19.5-71.3,45.2s31.9,45.2,71.3,45.2h392.3
		c1.8,0,3.6-1.1,5.3-1.2c-22.2,9.4-36.5,12.4-36.5,12.4l-17.1,2.6c-24.2,0-43.9,14.7-43.9,30.3s19.6,30.3,43.9,30.3h56.8V293.4z"/>
	<path class="st1" d="M415.3,319.7H-190c0,0,29.4-137,226.3-122.4c0,0,14.7-107.9,146.9-72.6c0,0,61.7,16.6,49.9,72.6
		c0,0,17.6-22.8,61.7-12.5c0,0,32.3,10.4,26.5,33.2c0,0,58.8-14.5,61.7,24.9c0,0,138.1,8.3,146.9,76.8L415.3,319.7L415.3,319.7
		L415.3,319.7L415.3,319.7z"/>
	
		<linearGradient id="SVGID_1_" gradientUnits="userSpaceOnUse" x1="-3409.8577" y1="910.0344" x2="357.3246" y2="910.0344" gradientTransform="matrix(0.3187 0 0 -0.3187 1286.0396 962.6828)">
		<stop  offset="0" style="stop-color:#FFD193"/>
		<stop  offset="1" style="stop-color:#F69268"/>
	</linearGradient>
	<path class="st2" d="M1208.8,853.3H199.3c0,0,49-244.8,377.3-218.8c0,0,24.5-192.9,245-129.8c0,0,102.9,29.7,83.3,129.8
		c0,0,29.4-40.8,102.9-22.3c0,0,53.9,18.5,44.1,59.4c0,0,98-26,102.9,44.5c0,0,230.3,14.8,245,137.2L1208.8,853.3L1208.8,853.3
		L1208.8,853.3z"/>
	<path class="st1" d="M1362.1,275.6h317.7c0,0-15.4-77.1-118.8-68.9c0,0-7.7-60.7-77.1-40.9c0,0-32.4,9.3-26.2,40.9
		c0,0-9.3-12.8-32.4-7c0,0-17,5.8-13.9,18.7c0,0-30.9-8.2-32.4,14c0,0-72.5,4.7-77.1,43.2L1362.1,275.6L1362.1,275.6z"/>
	
		<linearGradient id="SVGID_2_" gradientUnits="userSpaceOnUse" x1="239.4308" y1="2367.6492" x2="1425.0784" y2="2367.6492" gradientTransform="matrix(0.3187 0 0 -0.3187 1286.0396 962.6828)">
		<stop  offset="0" style="stop-color:#FFD193"/>
		<stop  offset="1" style="stop-color:#F69268"/>
	</linearGradient>
	<path class="st3" d="M1422.5,265h317.7c0,0-15.4-77.1-118.8-68.9c0,0-7.7-60.7-77.1-40.9c0,0-32.4,9.3-26.2,40.9
		c0,0-9.3-12.8-32.4-7c0,0-17,5.8-13.9,18.7c0,0-30.9-8.2-32.4,14c0,0-72.5,4.7-77.1,43.2L1422.5,265L1422.5,265z"/>
	
		<linearGradient id="SVGID_3_" gradientUnits="userSpaceOnUse" x1="-3823.4819" y1="2199.7029" x2="-2111.9067" y2="2199.7029" gradientTransform="matrix(0.3187 0 0 -0.3187 1286.0396 962.6828)">
		<stop  offset="0" style="stop-color:#FFD193"/>
		<stop  offset="1" style="stop-color:#F69268"/>
	</linearGradient>
	<path class="st4" d="M154.3,343.7H613c0,0-22.3-111.2-171.4-99.4c0,0-11.1-87.6-111.3-59c0,0-46.8,13.5-37.9,59
		c0,0-13.4-18.5-46.8-10.1c0,0-24.5,8.4-20,27c0,0-44.5-11.8-46.8,20.2c0,0-104.7,6.7-111.3,62.4L154.3,343.7L154.3,343.7
		L154.3,343.7z"/>
	<path class="st0" d="M1268.7,737.7l-272.4-0.4c0,0-20.1-14.6,41.1-16.8c45.1-1.6,41.4-5.3,66.6-8.7c25.3-3.5,63.9-8.4,91.9,10
		c5.7,3.7,4.7-8.6,30.5-8.6C1258.6,713.3,1283.6,726.4,1268.7,737.7z"/>
	<path class="st1" d="M2319,796.1l-4.1-4.8c-6.2-7.3-21.9-7.3-28.1,0l-14,16.5l-14-16.5c-6.2-7.3-21.9-7.3-28.1,0l-14,16.5l-14-16.5
		c-6.2-7.3-21.9-7.3-28.1,0l-14,16.5l-14-16.5c-6.2-7.3-21.9-7.3-28.1,0l-14,16.5l-14-16.5c-6.2-7.3-21.9-7.3-28.1,0l-14,16.5
		l-14-16.5c-6.2-7.3-21.9-7.3-28.1,0l-14,16.5l-14-16.5c-6.2-7.3-21.9-7.3-28.1,0l-14,16.5l-14-16.5c-6.2-7.3-21.9-7.3-28.1,0
		l-14,16.5l-14-16.5c-6.2-7.3-21.9-7.3-28.1,0l-14,16.5l-14-16.5c-6.2-7.3-21.9-7.3-28.1,0l-14,16.5l-14-16.5
		c-6.2-7.3-21.9-7.3-28.1,0l-14,16.5l-14-16.5c-6.2-7.3-21.9-7.3-28.1,0l-14,16.5l-14-16.5c-6.2-7.3-21.9-7.3-28.1,0l-14,16.5
		l-14-16.5c-6.2-7.3-21.9-7.3-28.1,0l-14,16.5l-14-16.5c-6.2-7.3-21.9-7.3-28.1,0l-14,16.5l-14-16.5c-6.2-7.3-21.9-7.3-28.1,0
		l-14,16.5l-14-16.5c-6.2-7.3-21.9-7.3-28.1,0l-14,16.5l-14-16.5c-6.2-7.3-21.9-7.3-28.1,0l-14,16.5l-14-16.5
		c-6.2-7.3-21.9-7.3-28.1,0l-14,16.5l-14-16.5c-6.2-7.3-21.9-7.3-28.1,0l-14,16.5l-14-16.5c-6.2-7.3-21.9-7.3-28.1,0l-14,16.5
		l-14-16.5c-6.2-7.3-21.9-7.3-28.1,0l-14,16.5l-14-16.5c-6.2-7.3-21.9-7.3-28.1,0l-14,16.5l-14-16.5c-6.2-7.3-21.9-7.3-28.1,0
		l-14,16.5l-14-16.5c-6.2-7.3-21.9-7.3-28.1,0l-14,16.5l-14-16.5c-6.2-7.3-21.9-7.3-28.1,0l-14,16.5l-14-16.5
		c-6.2-7.3-21.9-7.3-28.1,0l-14,16.5l-14-16.5c-6.2-7.3-21.9-7.3-28.1,0l-14,16.5l-14-16.5c-6.2-7.3-21.9-7.3-28.1,0l-14,16.5
		l-14-16.5c-6.2-7.3-21.9-7.3-28.1,0l-14,16.5l-14-16.5c-6.2-7.3-21.9-7.3-28.1,0l-14.1,16.5l-14-16.5c-6.2-7.3-21.9-7.3-28.1,0
		l-14,16.5l-14-16.5c-6.2-7.3-21.9-7.3-28.1,0l-14,16.5l-14-16.5c-6.2-7.3-21.9-7.3-28.1,0l-14,16.5l-14-16.5
		c-6.2-7.3-21.9-7.3-28.1,0l-14,16.5l-14-16.5c-6.2-7.3-21.9-7.3-28.1,0l-14,16.5l-14-16.5c-6.2-7.3-21.9-7.3-28.1,0l-14,16.5
		l-14-16.5c-6.2-7.3-21.9-7.3-28.1,0l-14,16.5l-14-16.5c-6.2-7.3-21.9-7.3-28.1,0l-14,16.5l-14-16.5c-6.2-7.3-21.9-7.3-28.1,0
		l-14,16.5l-14-16.5c-6.2-7.3-21.9-7.3-28.1,0l-14,16.5l-14-16.5c-6.2-7.3-21.9-7.3-28.1,0l-14,16.5l-14-16.5
		c-6.2-7.3-21.9-7.3-28.1,0l-14,16.5l-14-16.5c-6.2-7.3-21.9-7.3-28.1,0l-14,16.5l-14-16.5c-6.2-7.3-21.9-7.3-28.1,0l-14,16.5
		l-14-16.5c-6.2-7.3-21.9-7.3-28.1,0l-14,16.5l-14-16.5c-6.2-7.3-21.9-7.3-28.1,0l-14,16.5l-14-16.5c-6.2-7.3-21.9-7.3-28.1,0
		l-14.7,16.5v134.3H2319L2319,796.1L2319,796.1z"/>
	<g>
		<g>
			<polygon class="st5" points="740.1,779.2 747.2,812.8 718.5,798.9 715.2,790.3 717.1,781.5 			"/>
			<polygon class="st6" points="740.1,779.2 716.5,781.6 716.1,783.5 740.5,781 			"/>
			<polygon class="st6" points="740.9,783 715.6,785.7 715.2,787.5 741.3,785.1 			"/>
			<polygon class="st6" points="741.8,787.2 714.7,789.6 715.6,791.4 742.2,789.3 			"/>
			<polygon class="st7" points="646.9,817.9 642.2,828.9 683.3,828.9 683.3,801.2 659.8,801.2 			"/>
			<polygon class="st7" points="719.8,817.9 724.5,828.9 683.3,828.9 683.3,801.2 706.8,801.2 			"/>
			<polygon class="st6" points="645.5,821.1 721.1,821.1 720.6,819.8 646.1,819.8 			"/>
			<polygon class="st8" points="651.5,790.3 651.5,799 715.2,799 715.2,790.3 699.3,786.2 667.3,786.2 			"/>
			<polygon class="st6" points="715.2,793.6 699.3,789.4 689.2,789.4 691.5,790.7 699.3,790.7 715.2,795 			"/>
			<polygon class="st6" points="715.2,796.4 699.3,792.2 689.2,792.2 691.5,793.5 699.3,793.5 715.2,797.8 			"/>
			<polygon class="st9" points="683.4,879.5 683.3,851.8 656.3,875.2 654,887.1 662,893.5 668.7,890.3 674.5,885.8 			"/>
			<polygon class="st10" points="683.4,852.8 683.4,879.5 675.6,885.8 661.3,895.2 660.6,892.5 669,888.7 676.2,882.8 681.1,877.1 
							"/>
			<g>
				<polygon class="st9" points="683.3,879.5 683.4,851.8 710.4,875.2 712.7,887.1 704.7,893.5 698,890.3 692.2,885.8 				"/>
				<polygon class="st10" points="683.3,852.8 683.3,879.5 691.1,885.8 705.5,895.2 706.1,892.5 697.7,888.7 690.5,882.8 
					685.7,877.1 				"/>
			</g>
			<g>
				<polygon class="st8" points="624.1,922 617,918.9 612.8,918.9 611,923 617.6,930.8 632.8,933.1 659.6,932.4 672.6,927.4 
					671,922.3 653.3,924.5 				"/>
				<polygon class="st10" points="669,920.2 671,922.3 668.4,924.1 648.5,926.4 631.7,925.5 624.1,922 630.1,922.1 				"/>
				<polygon class="st5" points="661.5,895.7 666.9,913.3 637.6,915.4 627.9,899.2 632.4,894.6 				"/>
				<polygon class="st11" points="659,881.4 660.6,889.9 647.4,895.1 635.5,896.6 617.3,890.2 608.7,880 608.7,870.7 652.6,872.6 
									"/>
				<polygon class="st6" points="601.7,861.4 593.2,864.7 590,863 580.4,863 592.4,871.6 604.1,871.6 611.5,874.3 659,881.4 
					659.6,880 608.1,864.6 				"/>
				<polygon class="st11" points="683.4,831.4 683.4,853.8 668.7,869.4 617.3,861.4 642.2,828.9 				"/>
				<polygon class="st10" points="617.3,861.4 614.9,863 666.9,871.6 668.7,869.4 				"/>
				<polygon class="st8" points="666.9,871.6 659.6,880 614.9,873.5 601.7,861.4 614.9,863 				"/>
				<polygon class="st6" points="604.1,871.6 607.5,875.5 601.7,874.3 594.6,876.4 588.4,876.4 584.2,877.2 590.8,882.5 
					600.9,885.2 616.3,896 630.8,900 648.3,899.3 662.8,895.4 660.6,889.9 644.6,893.1 631.4,893.1 620,890.2 611.5,874.3 				"/>
				<polygon class="st6" points="637.6,915.4 635.5,917.2 637.6,918.9 668.6,916.4 669.6,914.4 666.9,913.3 				"/>
				<polygon class="st5" points="637.6,918.9 630.1,922.1 636.9,923.7 662.8,922.2 669,920.2 668.6,916.4 				"/>
			</g>
			<g>
				<polygon class="st8" points="742.5,922 749.7,918.9 753.9,918.9 755.7,923 749.1,930.8 733.9,933.1 707,932.4 694.1,927.4 
					695.7,922.3 713.4,924.5 				"/>
				<polygon class="st10" points="697.7,920.2 695.7,922.3 698.3,924.1 718.2,926.4 735,925.5 742.5,922 736.5,922.1 				"/>
				<polygon class="st5" points="705.2,895.7 699.8,913.3 729.1,915.4 738.8,899.2 734.3,894.6 				"/>
				<polygon class="st11" points="707.6,881.4 706,889.9 719.3,895.1 731.2,896.6 749.4,890.2 758,880 758,870.7 714.1,872.6 				
					"/>
				<polygon class="st6" points="765,861.4 773.5,864.7 776.7,863 786.3,863 774.3,871.6 762.6,871.6 755.2,874.3 707.6,881.4 
					707,880 758.6,864.6 				"/>
				<polygon class="st11" points="683.3,831.4 683.3,853.8 698,869.4 749.4,861.4 724.5,828.9 				"/>
				<polygon class="st10" points="749.4,861.4 751.8,863 699.8,871.6 698,869.4 				"/>
				<polygon class="st8" points="699.8,871.6 707,880 751.8,873.5 765,861.4 751.8,863 				"/>
				<polygon class="st6" points="762.6,871.6 759.2,875.5 765,874.3 772,876.4 778.3,876.4 782.5,877.2 775.9,882.5 765.8,885.2 
					750.4,896 735.9,900 718.4,899.3 703.9,895.4 706,889.9 722.1,893.1 735.3,893.1 746.7,890.2 755.2,874.3 				"/>
				<polygon class="st6" points="729.1,915.4 731.2,917.2 729.1,918.9 698.1,916.4 697.1,914.4 699.8,913.3 				"/>
				<polygon class="st5" points="729.1,918.9 736.5,922.1 729.8,923.7 703.9,922.2 697.7,920.2 698.1,916.4 				"/>
			</g>
			<polygon class="st6" points="683.3,772.5 683.3,786.2 667.3,786.2 646.9,774.6 645.5,768.2 656.6,771 			"/>
			<polygon class="st6" points="683.3,772.5 683.3,786.2 699.3,786.2 719.8,774.6 721.1,768.2 710.1,771 			"/>
			<polygon class="st11" points="635.5,754.8 628.2,765.4 646.9,765.4 646.9,769.7 670.7,782.5 683.3,772.5 683.3,767.3 667,754.8 
							"/>
			<polygon class="st11" points="731.2,754.8 738.5,765.4 719.8,765.4 719.8,769.7 695.9,782.5 683.3,772.5 683.3,767.3 
				699.6,754.8 			"/>
			<polygon class="st12" points="683.3,705.8 683.3,695.4 677.4,695.4 660,708.7 658.3,711.9 680.2,708.4 			"/>
			<polygon class="st12" points="683.3,705.8 683.3,695.4 689.3,695.4 706.7,708.7 708.4,711.9 686.5,708.4 			"/>
			<rect x="682" y="741" class="st7" width="4.2" height="11"/>
			<polygon class="st6" points="660.8,716.8 660.4,719.1 657.7,717.9 654,710.8 650.7,710.1 651.6,711.9 652.2,718.5 654.5,722.4 
				653.2,722.1 655.4,728.2 660.4,729.8 664,728.4 664,718.5 			"/>
			<polygon class="st6" points="705.9,716.8 706.3,719.2 709,718 712.7,710.9 716,710.2 715.1,712 714.5,718.6 712.2,722.5 
				713.6,722.2 711.4,728.3 706.3,729.9 702.7,728.5 702.7,718.6 			"/>
			<polygon class="st6" points="660.4,714.9 658.3,711.9 661.5,708.4 674.2,705.8 683.3,705.8 683.3,709.5 683.3,711.3 			"/>
			<polygon class="st6" points="706.3,714.9 708.4,711.9 705.2,708.4 692.5,705.8 683.3,705.8 683.3,709.5 683.3,711.3 			"/>
			<polygon class="st7" points="683.3,741.9 683.3,752 669,752 669,741.6 683.5,741.6 			"/>
			<polygon class="st7" points="683.5,741.9 683.5,752 697.8,752 697.8,741.6 683.3,741.6 			"/>
			<polygon class="st13" points="683.3,723.7 682.8,724.7 683.4,724.7 683.9,724.7 683.9,723.6 			"/>
			<polygon class="st13" points="682.9,709.5 684.1,709.5 684.1,714.3 682,712.2 			"/>
			<path class="st13" d="M662.9,727l-2.5-12.1c0,0,3.1-5.5,22.9-5.5l0,17.6L662.9,727L662.9,727z"/>
			<path class="st13" d="M703.8,727l2.5-12.1c0,0-3.1-5.5-22.9-5.5l0,17.6L703.8,727L703.8,727z"/>
			<path class="st14" d="M662.1,731l-4.4-0.2c0,0,1.6,7.1,7.7,11.1s3.1,2.6,17.9,0v-10.2L662.1,731z"/>
			<path class="st14" d="M704.5,731l4.4-0.2c0,0-1.6,7.1-7.7,11.1s-3.1,2.6-17.9,0v-10.2L704.5,731z"/>
			<path class="st15" d="M662.3,732.3c0,0-2-9.5,5.4-9.9l6,4.1c0,0-2.1,2.6-2.3,2.8c-0.2,0.3-8.1,2.9-8.1,2.9L662.3,732.3
				L662.3,732.3z"/>
			<path class="st15" d="M704.4,732.3c0,0,2-9.5-5.4-9.9l-6,4.1c0,0,2.1,2.6,2.3,2.8c0.2,0.3,8.1,2.9,8.1,2.9L704.4,732.3
				L704.4,732.3z"/>
			<polygon class="st14" points="683.4,713.2 682.9,718.4 683.1,718.6 684.1,718.4 683.9,716.6 			"/>
			<polygon class="st14" points="683.3,718.1 683.5,713.2 681.6,713.2 682.2,718.8 			"/>
			<polygon class="st14" points="683.5,718.1 683.4,713.2 685.2,713.2 684.6,718.8 			"/>
			<path class="st13" d="M665.6,732.3H660c0,0,4.3,9.3,10.4,10.6s3.2-2.7,13-2.5l0.3-8.4L665.6,732.3z"/>
			<path class="st13" d="M701.3,732.3h5.5c0,0-4.3,9.3-10.4,10.6c-6.1,1.4-3.2-2.7-13-2.5l-0.3-8.4L701.3,732.3z"/>
			<path class="st16" d="M682.5,717.5c0,0-2.3,0.3-3.9-1.6c-1.6-1.9-4.1-4.9-6.6-5c-2.6-0.2-2.2,0.6-2.2,0.6s-3.3,0.7-4.2,3.3
				c-0.9,2.5-1.3,3.4-2.7,2.2s-4-3.9-4.6-1.6c0,0,3,1.3,4,2.7c1,1.4,4,0.1,4.3-0.8c0.3-0.9,1.4-4.1,4.5-4.5
				C674.2,712.5,677.5,719.6,682.5,717.5z"/>
			<path class="st16" d="M684.3,717.5c0,0,2.3,0.3,3.9-1.6c1.6-1.9,4.1-4.9,6.6-5c2.6-0.2,2.2,0.6,2.2,0.6s3.3,0.7,4.2,3.3
				c0.9,2.5,1.3,3.4,2.7,2.2s4-3.9,4.6-1.6c0,0-3,1.3-4,2.7c-1,1.4-4,0.1-4.3-0.8c-0.3-0.9-1.4-4.1-4.5-4.5
				C692.6,712.5,689.3,719.6,684.3,717.5z"/>
			<path class="st17" d="M679.5,720.6c0,0-6.7-7.4-8.4-2.3l3.1,0.9L679.5,720.6z"/>
			<path class="st18" d="M679.5,720.6c0,0-5.9-6-8.7-1.8c-2.8,4.2,1.5,5.8,1.5,5.8S675.6,722,679.5,720.6z"/>
			<ellipse class="st19" cx="674.2" cy="720.7" rx="2.3" ry="2"/>
			<g>
				<path class="st17" d="M687.2,720.6c0,0,6.7-7.4,8.4-2.3l-3.1,0.9L687.2,720.6z"/>
				<path class="st18" d="M687.2,720.6c0,0,5.9-6,8.7-1.8c2.8,4.2-1.5,5.8-1.5,5.8S691.1,722,687.2,720.6z"/>
				<ellipse class="st19" cx="692.5" cy="720.7" rx="2.3" ry="2"/>
			</g>
			<path class="st20" d="M683.4,734.1l0,1.1c0,0-2.3-2.8-6.1-0.3c-3.8,2.6-8.8,3.4-11.9,0.5c-3.1-2.9-5-11.1,5-9
				c10,2.2,12.6,5.6,12.6,5.6L683.4,734.1z"/>
			<path class="st20" d="M683.4,734.1l0,1.1c0,0,2.3-2.8,6.1-0.3c3.8,2.6,8.8,3.4,11.9,0.5c3.1-2.9,5-11.1-5-9
				c-10,2.2-12.6,5.6-12.6,5.6L683.4,734.1z"/>
			<path class="st7" d="M683.4,734.2V727c0,0-12.2-0.5-14.2-0.8c-2.1-0.2-6.4-0.1-4.8,5.2c1.6,5.4,7.2,5.1,11.9,2.7
				C681,731.8,683.4,734.2,683.4,734.2z"/>
			<path class="st7" d="M683.4,734.2V727c0,0,12.2-0.5,14.2-0.8c2.1-0.2,6.4-0.1,4.8,5.2c-1.6,5.4-7.2,5.1-11.9,2.7
				C685.8,731.8,683.4,734.2,683.4,734.2z"/>
			<path class="st10" d="M683.4,724.7v2.7l-9.8-1.4c0,0,0.1-2.4,2.1-2C677.7,724.3,681.1,725.1,683.4,724.7z"/>
			<path class="st10" d="M683.4,730.2v-2.5c0,0-9.1,0.2-9.4,0s-2.3,0.6-3.6,0.6s-3,1.5-2.3,3.6s4.3,2.3,6.4,1.1
				c2.2-1.2,1.4-3.4,2.4-3.5C677.8,729.5,683.4,730.2,683.4,730.2z"/>
			<path class="st10" d="M683.4,724.7v2.7l9.8-1.4c0,0-0.1-2.4-2.1-2C689,724.3,685.7,725.1,683.4,724.7z"/>
			<path class="st10" d="M683.4,730.2v-2.5c0,0,9.1,0.2,9.4,0s2.3,0.6,3.6,0.6c1.3,0,3,1.5,2.3,3.6s-4.3,2.3-6.4,1.1
				c-2.2-1.2-1.4-3.4-2.4-3.5C688.9,729.5,683.4,730.2,683.4,730.2z"/>
			<path class="st17" d="M694.5,728.5l-2.6-0.8h-8.5h-8.5l-2.6,0.8c-3.4-0.1-3.7,1-3.6,2.9c0.1,1.9,4,1.9,5.5,1.4s1.8-3,3.3-3.4
				c1.5-0.4,6,0.4,6,0.4s4.5-0.8,6-0.4c1.5,0.4,1.8,2.8,3.3,3.4c1.5,0.6,5.3,0.5,5.5-1.4C698.3,729.5,697.9,728.5,694.5,728.5z"/>
			<rect x="678.6" y="726.5" class="st21" width="9.5" height="1.7"/>
			<polygon class="st14" points="678.6,726.5 674.5,725.2 673.3,727.3 675.9,728.8 678.6,728.2 			"/>
			<path class="st21" d="M671.3,717.5c0,0-9.2,4.4,2,9.9l1.2-2.1C674.5,725.2,668.1,723.9,671.3,717.5z"/>
			<polygon class="st14" points="688.1,726.5 692.2,725.2 693.5,727.3 690.8,728.8 688.1,728.2 			"/>
			<path class="st21" d="M695.5,717.5c0,0,9.2,4.4-2,9.9l-1.2-2.1C692.2,725.2,698.7,723.9,695.5,717.5z"/>
			<polygon class="st20" points="683.4,734.2 683.3,734.2 683.4,735.2 683.4,735.2 683.4,735.2 683.5,734.7 683.4,734.2 			"/>
			<ellipse class="st5" cx="683.3" cy="721" rx="3.9" ry="2.9"/>
			<rect x="677.4" y="691" class="st7" width="6" height="4.5"/>
			<rect x="683.3" y="691" class="st7" width="6" height="4.5"/>
			<g>
				<polygon class="st12" points="683.3,678.1 683.3,674 681,674 674.1,679.3 673.4,680.5 682.1,679.1 				"/>
				<polygon class="st12" points="683.3,678.1 683.3,674 685.7,674 692.6,679.3 693.3,680.5 684.6,679.1 				"/>
				<polygon class="st6" points="674.4,682.4 674.3,683.4 673.2,682.9 671.7,680.1 670.4,679.8 670.8,680.5 671,683.1 671.9,684.7 
					671.4,684.6 672.3,687 674.3,687.6 675.7,687 675.7,683.1 				"/>
				<polygon class="st6" points="692.3,682.5 692.4,683.4 693.5,682.9 695,680.1 696.3,679.8 695.9,680.5 695.7,683.2 694.8,684.7 
					695.3,684.6 694.4,687 692.4,687.7 691,687.1 691,683.2 				"/>
				<polygon class="st6" points="674.3,681.7 673.4,680.5 674.7,679.1 679.7,678.1 683.3,678.1 683.3,679.5 683.3,680.3 				"/>
				<polygon class="st6" points="692.4,681.7 693.3,680.5 692,679.1 686.9,678.1 683.3,678.1 683.3,679.5 683.3,680.3 				"/>
				<polygon class="st13" points="683.3,685.2 683.1,685.6 683.3,685.6 683.6,685.6 683.6,685.1 				"/>
				<polygon class="st13" points="683.2,679.5 683.6,679.5 683.6,681.5 682.8,680.6 				"/>
				<path class="st13" d="M675.2,686.5l-1-4.8c0,0,1.2-2.2,9.1-2.2l0,7L675.2,686.5L675.2,686.5L675.2,686.5z"/>
				<path class="st13" d="M691.4,686.5l1-4.8c0,0-1.2-2.2-9.1-2.2l0,7L691.4,686.5L691.4,686.5L691.4,686.5z"/>
				<path class="st14" d="M674.9,688.1l-1.7-0.1c0,0,0.6,2.8,3.1,4.4c2.4,1.6,1.2,1,7.1,0v-4L674.9,688.1z"/>
				<path class="st14" d="M691.7,688.1l1.7-0.1c0,0-0.6,2.8-3.1,4.4c-2.4,1.6-1.2,1-7.1,0v-4L691.7,688.1z"/>
				<path class="st15" d="M675,688.6c0,0-0.8-3.8,2.1-3.9l2.4,1.6c0,0-0.8,1-0.9,1.1c-0.1,0.1-3.2,1.2-3.2,1.2L675,688.6L675,688.6z
					"/>
				<path class="st15" d="M691.7,688.6c0,0,0.8-3.8-2.1-3.9l-2.4,1.6c0,0,0.8,1,0.9,1.1c0.1,0.1,3.2,1.2,3.2,1.2L691.7,688.6
					L691.7,688.6z"/>
				<polygon class="st14" points="683.3,681 683.2,683.1 683.3,683.2 683.6,683.1 683.6,682.4 				"/>
				<polygon class="st14" points="683.3,683 683.4,681 682.7,681 682.9,683.2 				"/>
				<polygon class="st14" points="683.4,683 683.3,681 684.1,681 683.8,683.2 				"/>
				<path class="st13" d="M676.3,688.6h-2.2c0,0,1.7,3.7,4.1,4.2s1.3-1.1,5.2-1l0.1-3.3L676.3,688.6z"/>
				<path class="st13" d="M690.5,688.6h2.2c0,0-1.7,3.7-4.1,4.2s-1.3-1.1-5.2-1l-0.1-3.3L690.5,688.6z"/>
				<path class="st16" d="M683,682.7c0,0-0.9,0.1-1.6-0.6c-0.6-0.8-1.6-1.9-2.6-2c-1-0.1-0.9,0.3-0.9,0.3s-1.3,0.3-1.7,1.3
					c-0.3,1-0.5,1.4-1.1,0.9c-0.5-0.5-1.6-1.5-1.8-0.6c0,0,1.2,0.5,1.6,1.1s1.6,0.1,1.7-0.3c0.1-0.4,0.5-1.6,1.8-1.8
					C679.7,680.7,681,683.6,683,682.7z"/>
				<path class="st16" d="M683.7,682.7c0,0,0.9,0.1,1.6-0.6c0.6-0.8,1.6-1.9,2.6-2c1-0.1,0.9,0.3,0.9,0.3s1.3,0.3,1.7,1.3
					c0.3,1,0.5,1.4,1.1,0.9s1.6-1.5,1.8-0.6c0,0-1.2,0.5-1.6,1.1s-1.6,0.1-1.7-0.3c-0.1-0.4-0.5-1.6-1.8-1.8
					C687,680.7,685.7,683.6,683.7,682.7z"/>
				<path class="st17" d="M681.8,683.9c0,0-2.7-2.9-3.3-0.9l1.2,0.4L681.8,683.9z"/>
				<path class="st18" d="M681.8,683.9c0,0-2.3-2.4-3.5-0.7c-1.1,1.7,0.6,2.3,0.6,2.3S680.3,684.5,681.8,683.9z"/>
				<ellipse class="st19" cx="679.7" cy="684" rx="0.9" ry="0.8"/>
				<g>
					<path class="st17" d="M684.9,683.9c0,0,2.7-2.9,3.3-0.9l-1.2,0.4L684.9,683.9z"/>
					<path class="st18" d="M684.9,683.9c0,0,2.3-2.4,3.5-0.7c1.1,1.7-0.6,2.3-0.6,2.3S686.4,684.5,684.9,683.9z"/>
					<ellipse class="st19" cx="686.9" cy="684" rx="0.9" ry="0.8"/>
				</g>
				<path class="st20" d="M683.3,689.3v0.4c0,0-0.9-1.1-2.4-0.1c-1.5,1-3.5,1.3-4.7,0.2c-1.2-1.2-2-4.4,2-3.5c4,0.9,5,2.2,5,2.2
					L683.3,689.3z"/>
				<path class="st20" d="M683.4,689.3v0.4c0,0,0.9-1.1,2.4-0.1c1.5,1,3.5,1.3,4.7,0.2c1.2-1.2,2-4.4-2-3.5c-4,0.9-5,2.2-5,2.2
					L683.4,689.3z"/>
				<path class="st7" d="M683.3,689.4v-2.9c0,0-4.8-0.2-5.6-0.3c-0.8-0.1-2.5-0.1-1.9,2.1c0.6,2.1,2.9,2,4.7,1.1
					C682.4,688.4,683.3,689.4,683.3,689.4z"/>
				<path class="st7" d="M683.3,689.4v-2.9c0,0,4.8-0.2,5.6-0.3c0.8-0.1,2.5-0.1,1.9,2.1c-0.6,2.1-2.9,2-4.7,1.1
					C684.3,688.4,683.3,689.4,683.3,689.4z"/>
				<path class="st10" d="M683.3,685.6v1.1l-3.9-0.5c0,0,0-1,0.8-0.8C681.1,685.4,682.4,685.7,683.3,685.6z"/>
				<path class="st10" d="M683.3,687.8v-1c0,0-3.6,0.1-3.7,0c-0.1-0.1-0.9,0.3-1.4,0.3s-1.2,0.6-0.9,1.4c0.3,0.9,1.7,0.9,2.5,0.4
					c0.9-0.5,0.5-1.3,0.9-1.4C681.2,687.5,683.3,687.8,683.3,687.8z"/>
				<path class="st10" d="M683.3,685.6v1.1l3.9-0.5c0,0,0-1-0.8-0.8C685.6,685.4,684.3,685.7,683.3,685.6z"/>
				<path class="st10" d="M683.3,687.8v-1c0,0,3.6,0.1,3.7,0c0.1-0.1,0.9,0.3,1.4,0.3s1.2,0.6,0.9,1.4c-0.3,0.9-1.7,0.9-2.5,0.4
					c-0.9-0.5-0.5-1.3-0.9-1.4C685.5,687.5,683.3,687.8,683.3,687.8z"/>
				<path class="st17" d="M687.8,687.1l-1-0.3h-3.4H680l-1,0.3c-1.3,0-1.5,0.4-1.4,1.1s1.6,0.8,2.2,0.5c0.6-0.2,0.7-1.2,1.3-1.3
					c0.6-0.2,2.4,0.2,2.4,0.2s1.8-0.3,2.4-0.2c0.6,0.2,0.7,1.1,1.3,1.3c0.6,0.2,2.1,0.2,2.2-0.5
					C689.2,687.5,689.1,687.1,687.8,687.1z"/>
				<rect x="681.5" y="686.3" class="st21" width="3.8" height="0.7"/>
				<polygon class="st14" points="681.5,686.3 679.8,685.8 679.3,686.6 680.4,687.2 681.5,687 				"/>
				<path class="st21" d="M678.6,682.7c0,0-3.7,1.7,0.8,3.9l0.5-0.8C679.8,685.8,677.3,685.3,678.6,682.7z"/>
				<polygon class="st14" points="685.2,686.3 686.9,685.8 687.3,686.6 686.3,687.2 685.2,687 				"/>
				<path class="st21" d="M688.1,682.7c0,0,3.7,1.7-0.8,3.9l-0.5-0.8C686.9,685.8,689.4,685.3,688.1,682.7z"/>
				<polygon class="st20" points="683.3,689.4 683.3,689.3 683.3,689.7 683.3,689.7 683.3,689.7 683.4,689.5 683.4,689.3 				"/>
				<ellipse class="st5" cx="683.3" cy="684.1" rx="1.5" ry="1.2"/>
			</g>
			<rect x="681" y="671.2" class="st7" width="4.7" height="2.8"/>
			<g>
				<polygon class="st12" points="683.4,665.6 683.4,664 682.4,664 679.6,666.1 679.3,666.6 682.9,666.1 				"/>
				<polygon class="st12" points="683.4,665.6 683.4,664 684.3,664 687.2,666.1 687.4,666.6 683.9,666.1 				"/>
				<polygon class="st6" points="679.7,667.4 679.6,667.8 679.2,667.6 678.6,666.5 678,666.4 678.2,666.6 678.3,667.7 678.7,668.4 
					678.4,668.3 678.8,669.3 679.6,669.6 680.2,669.3 680.2,667.7 				"/>
				<polygon class="st6" points="687,667.4 687.1,667.8 687.5,667.6 688.2,666.5 688.7,666.4 688.5,666.7 688.4,667.7 688.1,668.4 
					688.3,668.3 687.9,669.3 687.1,669.6 686.5,669.3 686.5,667.7 				"/>
				<polygon class="st6" points="679.6,667.1 679.3,666.6 679.8,666.1 681.9,665.6 683.4,665.6 683.4,666.2 683.4,666.5 				"/>
				<polygon class="st6" points="687.1,667.1 687.4,666.6 686.9,666.1 684.8,665.6 683.4,665.6 683.4,666.2 683.4,666.5 				"/>
				<polygon class="st13" points="683.4,668.6 683.3,668.7 683.4,668.7 683.5,668.7 683.5,668.5 				"/>
				<polygon class="st13" points="683.3,666.2 683.5,666.2 683.5,667 683.1,666.7 				"/>
				<path class="st13" d="M680,669.1l-0.4-2c0,0,0.5-0.9,3.7-0.9v2.9L680,669.1L680,669.1L680,669.1z"/>
				<path class="st13" d="M686.7,669.1l0.4-2c0,0-0.5-0.9-3.7-0.9v2.9L686.7,669.1L686.7,669.1L686.7,669.1z"/>
				<path class="st14" d="M679.9,669.8l-0.7,0c0,0,0.3,1.2,1.3,1.8c1,0.6,0.5,0.4,2.9,0v-1.7L679.9,669.8z"/>
				<path class="st14" d="M686.8,669.8l0.7,0c0,0-0.3,1.2-1.3,1.8c-1,0.6-0.5,0.4-2.9,0v-1.7L686.8,669.8z"/>
				<path class="st15" d="M679.9,670c0,0-0.3-1.6,0.9-1.6l1,0.7c0,0-0.3,0.4-0.4,0.5c0,0-1.3,0.5-1.3,0.5L679.9,670L679.9,670z"/>
				<path class="st15" d="M686.8,670c0,0,0.3-1.6-0.9-1.6l-1,0.7c0,0,0.3,0.4,0.4,0.5c0,0,1.3,0.5,1.3,0.5L686.8,670L686.8,670z"/>
				<polygon class="st14" points="683.4,666.9 683.3,667.7 683.3,667.7 683.5,667.7 683.5,667.4 				"/>
				<polygon class="st14" points="683.4,667.7 683.4,666.9 683.1,666.9 683.2,667.8 				"/>
				<polygon class="st14" points="683.4,667.7 683.4,666.9 683.7,666.9 683.6,667.8 				"/>
				<path class="st13" d="M680.5,670h-0.9c0,0,0.7,1.5,1.7,1.7c1,0.2,0.5-0.4,2.1-0.4l0.1-1.4L680.5,670z"/>
				<path class="st13" d="M686.3,670h0.9c0,0-0.7,1.5-1.7,1.7c-1,0.2-0.5-0.4-2.1-0.4l-0.1-1.4L686.3,670z"/>
				<path class="st16" d="M683.2,667.5c0,0-0.4,0.1-0.6-0.3c-0.3-0.3-0.7-0.8-1.1-0.8c-0.4,0-0.4,0.1-0.4,0.1s-0.5,0.1-0.7,0.5
					c-0.1,0.4-0.2,0.6-0.4,0.4c-0.2-0.2-0.7-0.6-0.8-0.3c0,0,0.5,0.2,0.7,0.4c0.2,0.2,0.7,0,0.7-0.1s0.2-0.7,0.7-0.7
					C681.9,666.7,682.4,667.9,683.2,667.5z"/>
				<path class="st16" d="M683.5,667.5c0,0,0.4,0.1,0.6-0.3c0.3-0.3,0.7-0.8,1.1-0.8c0.4,0,0.4,0.1,0.4,0.1s0.5,0.1,0.7,0.5
					c0.1,0.4,0.2,0.6,0.4,0.4c0.2-0.2,0.7-0.6,0.8-0.3c0,0-0.5,0.2-0.7,0.4c-0.2,0.2-0.7,0-0.7-0.1s-0.2-0.7-0.7-0.7
					C684.9,666.7,684.3,667.9,683.5,667.5z"/>
				<path class="st17" d="M682.7,668c0,0-1.1-1.2-1.4-0.4l0.5,0.1L682.7,668z"/>
				<path class="st18" d="M682.7,668c0,0-1-1-1.4-0.3s0.2,0.9,0.2,0.9S682.1,668.3,682.7,668z"/>
				<ellipse class="st19" cx="681.9" cy="668.1" rx="0.4" ry="0.3"/>
				<g>
					<path class="st17" d="M684,668.1c0,0,1.1-1.2,1.4-0.4l-0.5,0.1L684,668.1z"/>
					<path class="st18" d="M684,668.1c0,0,1-1,1.4-0.3s-0.2,0.9-0.2,0.9S684.6,668.3,684,668.1z"/>
					<ellipse class="st19" cx="684.8" cy="668.1" rx="0.4" ry="0.3"/>
				</g>
				<path class="st20" d="M683.4,670.3v0.2c0,0-0.4-0.5-1,0c-0.6,0.4-1.4,0.6-1.9,0.1c-0.5-0.5-0.8-1.8,0.8-1.5
					c1.6,0.4,2.1,0.9,2.1,0.9L683.4,670.3z"/>
				<path class="st20" d="M683.4,670.3v0.2c0,0,0.4-0.5,1,0c0.6,0.4,1.4,0.6,1.9,0.1c0.5-0.5,0.8-1.8-0.8-1.5
					c-1.6,0.4-2.1,0.9-2.1,0.9L683.4,670.3z"/>
				<path class="st7" d="M683.4,670.3v-1.2c0,0-2-0.1-2.3-0.1c-0.3,0-1,0-0.8,0.9c0.3,0.9,1.2,0.8,1.9,0.4
					C683,669.9,683.4,670.3,683.4,670.3z"/>
				<path class="st7" d="M683.4,670.3v-1.2c0,0,2-0.1,2.3-0.1c0.3,0,1,0,0.8,0.9c-0.3,0.9-1.2,0.8-1.9,0.4
					C683.8,669.9,683.4,670.3,683.4,670.3z"/>
				<path class="st10" d="M683.4,668.7v0.4l-1.6-0.2c0,0,0-0.4,0.3-0.3C682.4,668.7,683,668.8,683.4,668.7z"/>
				<path class="st10" d="M683.4,669.6v-0.4c0,0-1.5,0-1.5,0s-0.4,0.1-0.6,0.1c-0.2,0-0.5,0.2-0.4,0.6s0.7,0.4,1,0.2
					s0.2-0.5,0.4-0.6C682.5,669.5,683.4,669.6,683.4,669.6z"/>
				<path class="st10" d="M683.4,668.7v0.4l1.6-0.2c0,0,0-0.4-0.3-0.3C684.3,668.7,683.8,668.8,683.4,668.7z"/>
				<path class="st10" d="M683.4,669.6v-0.4c0,0,1.5,0,1.5,0c0,0,0.4,0.1,0.6,0.1s0.5,0.2,0.4,0.6s-0.7,0.4-1,0.2
					c-0.4-0.2-0.2-0.5-0.4-0.6C684.3,669.5,683.4,669.6,683.4,669.6z"/>
				<path class="st17" d="M685.2,669.4l-0.4-0.1h-1.4H682l-0.4,0.1c-0.5,0-0.6,0.2-0.6,0.5c0,0.3,0.7,0.3,0.9,0.2
					c0.2-0.1,0.3-0.5,0.5-0.6c0.2-0.1,1,0.1,1,0.1s0.7-0.1,1-0.1c0.2,0.1,0.3,0.5,0.5,0.6c0.2,0.1,0.9,0.1,0.9-0.2
					C685.8,669.5,685.7,669.3,685.2,669.4z"/>
				<rect x="682.6" y="669" class="st21" width="1.6" height="0.3"/>
				<polygon class="st14" points="682.6,669 681.9,668.8 681.7,669.2 682.2,669.4 682.6,669.3 				"/>
				<path class="st21" d="M681.4,667.5c0,0-1.5,0.7,0.3,1.6l0.2-0.4C681.9,668.8,680.9,668.6,681.4,667.5z"/>
				<polygon class="st14" points="684.1,669 684.8,668.8 685,669.2 684.6,669.4 684.1,669.3 				"/>
				<path class="st21" d="M685.3,667.5c0,0,1.5,0.7-0.3,1.6l-0.2-0.4C684.8,668.8,685.9,668.6,685.3,667.5z"/>
				<polygon class="st20" points="683.4,670.3 683.4,670.3 683.4,670.4 683.4,670.4 683.4,670.4 683.4,670.4 683.4,670.3 				"/>
				<ellipse class="st5" cx="683.4" cy="668.1" rx="0.6" ry="0.5"/>
			</g>
			<polygon class="st6" points="683.4,664 683.4,649.2 682.4,664 			"/>
			<polygon class="st6" points="683.4,664 683.4,649.2 684.3,664 			"/>
			<polygon class="st6" points="682.4,664 684.3,664 683.4,649.2 			"/>
			<polygon class="st6" points="732,738.7 718.2,752 683.4,752 683.3,752 648.4,752 634.7,738.7 631.7,737.6 634.1,745.7 
				635.5,754.8 648.4,761.2 655.1,768.2 668.9,764 683.2,770.1 683.3,770.1 683.4,770.1 683.4,770.1 697.8,764 711.5,768.2 
				718.2,761.2 731.2,754.8 732.5,745.7 735,737.6 			"/>
			<polygon class="st8" points="646.9,765.4 646.9,769.7 649.6,781.5 621.7,778.8 626.2,775.5 628.2,765.4 			"/>
			<polygon class="st6" points="628.2,765.4 627.9,766.8 646.9,766.8 646.9,765.4 			"/>
			<polygon class="st8" points="719.8,765.4 719.8,769.7 717.1,781.5 745,778.7 740.5,775.5 738.5,765.4 			"/>
			<polygon class="st6" points="738.5,765.4 738.7,766.8 719.8,766.8 719.8,765.4 			"/>
			<polygon class="st7" points="667.3,786.2 651.5,790.3 649.6,781.5 648.2,775.3 			"/>
			<polygon class="st7" points="699.3,786.2 715.2,790.3 717.1,781.5 718.5,775.3 			"/>
			<polygon class="st5" points="626.6,779.2 619.5,812.8 648.2,799 651.5,790.3 649.6,781.5 			"/>
			<polygon class="st13" points="677.1,809 635.5,821.3 626.7,821.3 619.5,817.2 619.5,812.8 629.1,804.7 648.2,799 669.8,793.6 			
				"/>
			<polygon class="st13" points="689.6,809 731.2,821.3 739.9,821.3 747.2,817.2 747.2,812.8 737.5,804.6 718.5,798.9 696.9,793.6 
							"/>
			<polygon class="st6" points="683.3,828.9 642.2,828.9 669.8,831.6 660,847.4 642.2,849.8 631.7,851.5 625.8,855.3 635.6,854.1 
				649.6,856.9 664.4,853.3 673.7,844.6 678.2,831.4 683.3,831.4 			"/>
			<polygon class="st6" points="683.4,828.9 724.5,828.9 696.9,831.6 706.7,847.4 724.5,849.8 735,851.5 740.9,855.3 731.1,854.1 
				717.1,856.9 702.3,853.3 693,844.6 688.5,831.4 683.4,831.4 			"/>
			<polyline class="st8" points="677.8,783 676.7,781 678.6,778.2 683.4,778.2 683.4,783 677.8,783 			"/>
			<polyline class="st8" points="689,783 690.1,781 688.2,778.2 683.4,778.2 683.4,783 689,783 			"/>
			<polygon class="st22" points="678.6,778.2 683.4,777.2 683.4,778.2 			"/>
			<polygon class="st22" points="688.2,778.2 683.4,777.2 683.4,778.2 			"/>
			<polygon class="st22" points="677.8,787 677.8,783 689,783 689,930.8 680.3,930.8 			"/>
			<polygon class="st5" points="690.4,807.2 682.7,804.9 679.4,802 694.5,798.7 			"/>
			<polygon class="st13" points="694.5,798.7 689.6,809 693.2,810 696.3,802.6 			"/>
			<polygon class="st5" points="679,805.4 696,798.4 697.4,797.6 690.1,796.4 677.1,799 676,804.7 			"/>
			<polygon class="st10" points="651.5,790.3 667.3,786.2 677.8,786.2 677.8,787.2 667.3,787.3 651.5,791.6 			"/>
			<polygon class="st10" points="715.2,790.3 699.4,786.2 689,786.2 689,787.2 699.4,787.3 715.2,791.6 			"/>
			<polygon class="st10" points="621.7,778.8 626.2,775.5 648.6,777.2 649.6,781.5 			"/>
			<polygon class="st10" points="745,778.7 740.5,775.5 718,777.2 717.1,781.5 			"/>
			<polygon class="st5" points="646.9,769.7 627.3,769.7 627,771.5 647.3,771.5 			"/>
			<polygon class="st5" points="719.8,769.7 739.3,769.7 739.7,771.5 719.4,771.5 			"/>
			<polygon class="st8" points="683.5,752 648.4,752 634.7,738.7 633.4,738.2 635.6,745.6 637.1,754.8 649,760.4 655.4,767 669,763 
				683.4,769.1 			"/>
			<polygon class="st8" points="683.2,752 718.2,752 732,738.7 733.3,738.2 731,745.6 729.5,754.8 717.7,760.4 711.3,767 697.7,763 
				683.2,769.1 			"/>
			<polygon class="st6" points="651.5,793.6 667.3,789.4 677.5,789.4 675.2,790.7 667.3,790.7 651.5,795 			"/>
			<polygon class="st6" points="651.5,796.4 667.3,792.2 677.5,792.2 675.2,793.5 667.3,793.5 651.5,797.8 			"/>
			<polygon class="st5" points="669.8,793.6 682,787 692.8,786.7 697.9,789.2 697.6,791 699.3,792.4 698.9,793.6 698.1,793.9 
				698.1,795.5 697.4,796 697.4,797.6 696,798.4 684.9,800.9 678.7,802.2 678.6,804.7 679,805.4 676.4,807.5 			"/>
			<polygon class="st6" points="626.3,780.6 649.9,783 650.3,784.9 625.9,782.4 			"/>
			<polygon class="st6" points="625.5,784.4 650.8,787.1 651.2,788.9 625,786.5 			"/>
			<polygon class="st6" points="624.6,788.6 651.3,791 650.5,792.8 624.2,790.7 			"/>
		</g>
		<rect x="581.3" y="930.6" class="st6" width="204" height="11.5"/>
	</g>
	<g>
		<g>
			<rect x="905.3" y="780.2" class="st23" width="3.7" height="122"/>
			<polygon class="st23" points="907.1,942 907.1,886.1 902.7,886.1 898.2,942 			"/>
			<polygon class="st23" points="906.9,942 906.9,886.1 911.4,886.1 915.8,942 			"/>
			<rect x="868.2" y="760.1" class="st23" width="77.8" height="20.1"/>
			<rect x="870.2" y="761.4" class="st24" width="73.9" height="17.6"/>
			<rect x="868.2" y="756.8" class="st23" width="2" height="26.8"/>
			<rect x="944.1" y="757.4" class="st23" width="2" height="26.8"/>
			<polygon class="st23" points="907.1,760.1 907.1,754.7 905.3,754.7 899.8,760.1 			"/>
			<polygon class="st23" points="907.1,760.1 907.1,754.7 909,754.7 914.5,760.1 			"/>
			<polygon class="st23" points="905.3,754.7 907.1,746.9 907.1,754.7 			"/>
			<polygon class="st23" points="909,754.7 907.1,746.9 907.1,754.7 			"/>
		</g>
		<g>
			<g>
				<path class="st25" d="M879.9,773h-0.7c-0.5,0-0.9,0-1.1,0c-0.2,0-0.4,0-0.5,0c-0.2,0-0.4,0-0.5-0.1c-0.1-0.1-0.2-0.2-0.2-0.3
					c0-0.1,0-0.1,0.1-0.2s0.2-0.1,0.4-0.2c0.1-0.1,0.2-0.1,0.2-0.3c0-0.1,0.1-0.4,0.1-0.8c0.1-0.6,0.1-1.4,0.1-2.2
					c0-0.3,0-0.5-0.1-0.6c-0.1-0.1-0.2-0.2-0.4-0.3c-0.2-0.1-0.4-0.2-0.4-0.3c0-0.1,0.1-0.2,0.2-0.3c0.1-0.1,0.3-0.1,0.6-0.1
					c0.1,0,0.3,0,0.5,0c0.3,0,0.7,0,1.1,0c0.3,0,0.8,0,1.6,0c0.3,0,0.5,0,0.7,0c0.5,0,0.9,0,1.2,0.1c0.3,0.1,0.6,0.2,0.8,0.3
					c0.4,0.2,0.5,0.5,0.5,0.9c0,0.2-0.1,0.4-0.2,0.6c-0.1,0.2-0.3,0.3-0.4,0.4c-0.1,0.1-0.2,0.1-0.2,0.2c0,0.1,0.1,0.1,0.2,0.2
					c0.3,0.1,0.6,0.2,0.8,0.5c0.3,0.2,0.4,0.5,0.4,0.9c0,0.4-0.2,0.8-0.6,1.1c-0.5,0.4-1.3,0.7-2.3,0.7c-0.1,0-0.5,0-1,0
					C880.3,773.1,880,773.1,879.9,773z M880.2,768.5v0.9c0,0.1,0,0.2,0.1,0.3c0,0.1,0.1,0.1,0.2,0.1c0.3,0,0.5-0.1,0.6-0.2
					c0.1-0.1,0.2-0.3,0.2-0.6s-0.1-0.5-0.2-0.6s-0.3-0.2-0.6-0.2c-0.1,0-0.2,0-0.3,0.1C880.3,768.3,880.2,768.4,880.2,768.5z
					 M880.2,770.9v0.4c0,0.4,0,0.6,0.1,0.7c0.1,0.1,0.2,0.2,0.4,0.2c0.6,0,0.8-0.2,0.8-0.7c0-0.6-0.3-0.9-0.9-0.9
					c-0.2,0-0.3,0-0.3,0.1C880.3,770.7,880.2,770.8,880.2,770.9z"/>
				<path class="st25" d="M892,770.2l1,1.7c0.1,0.2,0.2,0.3,0.3,0.3s0.2,0.1,0.3,0.1c0.3,0,0.4,0.1,0.4,0.3c0,0.2-0.2,0.4-0.5,0.4
					c-0.3,0.1-0.9,0.1-1.6,0.1c-0.8,0-1.4,0-1.9-0.1c-0.2,0-0.3-0.1-0.4-0.1c-0.1-0.1-0.2-0.2-0.2-0.3c0-0.1,0-0.1,0.1-0.2
					c0.1,0,0.2-0.1,0.3-0.1c0.2,0,0.3-0.1,0.3-0.2c0-0.2-0.2-0.3-0.5-0.3c-0.3,0-0.8-0.1-1.3-0.1c-0.5,0-0.8,0-0.9,0.1
					c-0.1,0-0.1,0.1-0.2,0.1c0,0.1-0.1,0.1-0.1,0.2c0,0.1,0,0.1,0,0.1c0,0,0.1,0.1,0.3,0.1c0.2,0.1,0.3,0.1,0.3,0.3
					c0,0.3-0.5,0.5-1.6,0.5c-0.6,0-1,0-1.3-0.1c-0.3-0.1-0.4-0.2-0.4-0.4c0-0.1,0-0.1,0.1-0.2c0.1-0.1,0.2-0.1,0.3-0.1
					c0.2-0.1,0.4-0.1,0.5-0.3s0.3-0.4,0.5-0.7l0.8-1.3c0.3-0.5,0.5-0.8,0.6-1.1c0.1-0.2,0.2-0.5,0.2-0.7c0-0.2,0-0.4,0.1-0.5
					c0-0.1,0.1-0.2,0.2-0.3c0.3-0.2,0.6-0.3,1-0.3c0.4,0,0.7,0.1,1.1,0.3C890.5,767.8,891.1,768.7,892,770.2z M888.2,770.7h1.1
					c0.2,0,0.3,0,0.3-0.1c0-0.1-0.1-0.3-0.4-0.7c-0.1-0.2-0.2-0.3-0.3-0.3c-0.1-0.1-0.1-0.1-0.2-0.1c-0.1,0-0.2,0.1-0.3,0.3
					c0,0-0.1,0.1-0.2,0.3c-0.2,0.3-0.2,0.5-0.2,0.5C887.9,770.7,888,770.7,888.2,770.7z"/>
				<path class="st25" d="M897.3,767.5l2.8,1.8c0.3,0.2,0.4,0.3,0.6,0.3c0.2,0,0.3-0.2,0.3-0.5c0-0.4,0-0.6-0.1-0.7
					c-0.1-0.1-0.2-0.2-0.4-0.3c-0.1-0.1-0.2-0.1-0.3-0.2c-0.1-0.1-0.1-0.1-0.1-0.2c0-0.2,0.2-0.4,0.6-0.4c0.2,0,0.5,0,0.9,0
					c0.5,0,0.9,0,1.2,0.1c0.3,0.1,0.5,0.2,0.5,0.4c0,0.2-0.1,0.3-0.4,0.4c-0.1,0-0.2,0.1-0.2,0.1c0,0-0.1,0.1-0.1,0.1
					c-0.1,0.2-0.2,0.5-0.2,1v1.4c0,0.2,0,0.5,0,0.9c0,0.5,0,0.8-0.1,1.1c-0.1,0.3-0.3,0.4-0.5,0.4c-0.1,0-0.2,0-0.3-0.1
					c-0.1,0-0.2-0.1-0.4-0.3l-3.3-2.2c-0.2-0.2-0.4-0.2-0.6-0.2c-0.2,0-0.3,0.2-0.3,0.7c0,0.4,0,0.6,0.1,0.8
					c0.1,0.1,0.2,0.2,0.4,0.3c0.3,0.1,0.4,0.2,0.4,0.4c0,0.4-0.5,0.6-1.6,0.6c-0.5,0-0.9-0.1-1.2-0.1c-0.3-0.1-0.4-0.2-0.4-0.4
					c0-0.1,0-0.2,0.1-0.2c0.1,0,0.2-0.1,0.4-0.2c0.2-0.1,0.3-0.2,0.3-0.4c0.1-0.4,0.1-0.9,0.1-1.6c0-0.7-0.1-1.2-0.2-1.6
					c0-0.1-0.1-0.2-0.2-0.3s-0.2-0.1-0.3-0.2c-0.2-0.1-0.3-0.1-0.4-0.2s-0.1-0.1-0.1-0.2c0-0.3,0.3-0.4,0.9-0.5c0.2,0,0.6,0,1.1,0
					c0.3,0,0.5,0,0.6,0.1C897,767.3,897.1,767.4,897.3,767.5z"/>
				<path class="st25" d="M907.8,767.2c0.5,0,0.9,0.1,1.4,0.2c0.2,0,0.3,0.1,0.4,0.1s0.2,0,0.5-0.1c0.1,0,0.2,0,0.2,0
					c0.2,0,0.4,0.1,0.6,0.3c0.3,0.3,0.5,0.6,0.5,1c0,0.2-0.1,0.4-0.2,0.6c-0.2,0.1-0.4,0.2-0.6,0.2c-0.2,0-0.4-0.1-0.6-0.2
					c-0.1,0-0.2-0.2-0.5-0.4c-0.4-0.4-0.9-0.6-1.4-0.6c-0.5,0-0.9,0.1-1.1,0.4c-0.3,0.3-0.4,0.6-0.4,1.1c0,0.7,0.2,1.2,0.7,1.7
					c0.2,0.2,0.4,0.3,0.6,0.4c0.2,0.1,0.5,0.1,0.7,0.1c0.2,0,0.4-0.1,0.5-0.1s0.2-0.2,0.2-0.4c0-0.1-0.1-0.2-0.2-0.3
					c0,0-0.1,0-0.1,0c0,0-0.1,0-0.3,0c-0.2,0-0.3,0-0.4-0.1c-0.1-0.1-0.2-0.2-0.2-0.3c0-0.2,0.2-0.4,0.6-0.5c0.5-0.1,1-0.2,1.5-0.2
					c0.6,0,1.1,0.1,1.6,0.1c0.4,0.1,0.6,0.3,0.6,0.5c0,0.1,0,0.2-0.1,0.3c-0.1,0.1-0.2,0.1-0.4,0.1c-0.1,0-0.2,0-0.3,0.1
					c0,0-0.1,0.1-0.1,0.2c-0.2,0.4-0.5,0.8-0.9,1.1c-0.3,0.2-0.7,0.4-1.1,0.5c-0.4,0.1-0.9,0.2-1.4,0.2c-0.8,0-1.5-0.1-2.2-0.4
					c-0.7-0.3-1.2-0.7-1.6-1.2c-0.3-0.4-0.5-0.9-0.5-1.4s0.2-1,0.5-1.4c0.4-0.5,0.9-0.9,1.6-1.1C906.3,767.3,907,767.2,907.8,767.2z
					"/>
				<path class="st25" d="M918.9,768.5l-0.6,0.4c-0.2,0.2-0.3,0.3-0.3,0.4c0,0.1,0,0.1,0.1,0.2c0.1,0.1,0.1,0.2,0.3,0.3l2.1,1.8
					c0.2,0.2,0.3,0.3,0.4,0.3c0.1,0,0.2,0.1,0.3,0.1c0.2,0.1,0.3,0.1,0.4,0.2s0.1,0.2,0.1,0.3c0,0.3-0.3,0.4-0.8,0.4h-2.1
					c-0.1,0-0.3,0-0.3-0.1c-0.1-0.1-0.2-0.2-0.4-0.4c-0.3-0.3-0.7-0.6-1.1-1c-0.2-0.2-0.4-0.3-0.4-0.3c-0.1-0.1-0.2-0.1-0.2-0.1
					c-0.2,0-0.3,0.2-0.3,0.5c0,0.2,0.1,0.4,0.2,0.5c0,0,0.1,0,0.2,0.1c0.2,0.1,0.3,0.2,0.3,0.4c0,0.2-0.2,0.3-0.5,0.4
					c-0.3,0.1-0.9,0.1-1.6,0.1c-0.7,0-1.2,0-1.5-0.1c-0.1,0-0.2-0.1-0.3-0.1c-0.1-0.1-0.1-0.2-0.1-0.2c0-0.1,0.1-0.3,0.3-0.4
					c0.1-0.1,0.2-0.1,0.2-0.2c0-0.1,0.1-0.2,0.1-0.3c0.1-0.3,0.1-0.8,0.1-1.5c0-0.8,0-1.3-0.1-1.7c0-0.1-0.1-0.2-0.1-0.3
					c-0.1-0.1-0.1-0.1-0.3-0.2c-0.2-0.1-0.3-0.2-0.3-0.4c0-0.1,0.1-0.2,0.2-0.3c0.1-0.1,0.3-0.1,0.6-0.2c0.4-0.1,0.8-0.1,1.4-0.1
					c0.6,0,1,0,1.3,0.1c0.3,0.1,0.4,0.2,0.4,0.4c0,0.1,0,0.2-0.1,0.2c0,0-0.1,0.1-0.3,0.2c-0.1,0-0.1,0.1-0.2,0.3s-0.1,0.3-0.1,0.4
					c0,0.2,0.1,0.4,0.2,0.4c0.1,0,0.2,0,0.3-0.1c0.1-0.1,0.2-0.2,0.5-0.4c0.3-0.3,0.4-0.4,0.4-0.5c0-0.1,0-0.1-0.1-0.2
					c0-0.1-0.1-0.1-0.1-0.2c0-0.2,0.1-0.4,0.4-0.4c0.3-0.1,0.8-0.1,1.5-0.1c0.6,0,1,0,1.3,0.1c0.3,0.1,0.5,0.2,0.5,0.4
					c0,0.1,0,0.2-0.1,0.2s-0.2,0.1-0.3,0.1c-0.1,0-0.3,0-0.5,0c-0.2,0-0.3,0-0.4,0.1C919.2,768.3,919,768.4,918.9,768.5z"/>
				<path class="st25" d="M925.7,767.2c0.9,0,1.8,0.2,2.5,0.6c0.5,0.3,0.9,0.6,1.2,1.1c0.3,0.4,0.4,0.9,0.4,1.3
					c0,0.7-0.3,1.2-0.9,1.8c-0.5,0.4-1.1,0.8-1.9,0.9c-0.5,0.1-1,0.2-1.4,0.2c-0.6,0-1.3-0.1-1.8-0.3c-0.7-0.2-1.3-0.6-1.6-1.1
					c-0.4-0.5-0.6-1-0.6-1.6c0-0.7,0.3-1.2,0.7-1.8c0.4-0.4,1-0.8,1.8-1C924.5,767.3,925.1,767.2,925.7,767.2z M925.1,768.4
					c-0.3,0-0.5,0.1-0.7,0.3c-0.1,0.2-0.2,0.3-0.2,0.6c0,0.3,0.1,0.7,0.3,1.1c0.2,0.4,0.4,0.8,0.6,1.1c0.1,0.1,0.3,0.2,0.4,0.3
					s0.3,0.1,0.5,0.1c0.3,0,0.5-0.1,0.7-0.2s0.3-0.4,0.3-0.6c0-0.3-0.1-0.7-0.2-1.1s-0.3-0.7-0.6-1c-0.1-0.2-0.3-0.3-0.5-0.4
					C925.5,768.5,925.3,768.4,925.1,768.4z"/>
				<path class="st25" d="M936.6,768.5l-0.6,0.4c-0.2,0.2-0.3,0.3-0.3,0.4c0,0.1,0,0.1,0.1,0.2c0.1,0.1,0.1,0.2,0.3,0.3l2.1,1.8
					c0.2,0.2,0.3,0.3,0.4,0.3c0.1,0,0.2,0.1,0.3,0.1c0.2,0.1,0.3,0.1,0.4,0.2s0.1,0.2,0.1,0.3c0,0.3-0.3,0.4-0.8,0.4h-2.1
					c-0.1,0-0.3,0-0.3-0.1c-0.1,0-0.2-0.2-0.4-0.4c-0.3-0.3-0.7-0.6-1.1-1c-0.2-0.2-0.4-0.3-0.4-0.3c-0.1-0.1-0.2-0.1-0.2-0.1
					c-0.2,0-0.3,0.2-0.3,0.5c0,0.2,0.1,0.4,0.2,0.5c0,0,0.1,0,0.2,0.1c0.2,0.1,0.3,0.2,0.3,0.4c0,0.2-0.2,0.3-0.5,0.4
					s-0.9,0.1-1.6,0.1c-0.7,0-1.2,0-1.5-0.1c-0.1,0-0.2-0.1-0.3-0.1c-0.1-0.1-0.1-0.2-0.1-0.2c0-0.1,0.1-0.3,0.3-0.4
					c0.1-0.1,0.2-0.1,0.2-0.2s0.1-0.2,0.1-0.3c0.1-0.3,0.1-0.8,0.1-1.5c0-0.8,0-1.3-0.1-1.7c0-0.1-0.1-0.2-0.1-0.3
					c-0.1-0.1-0.1-0.1-0.3-0.2c-0.2-0.1-0.3-0.2-0.3-0.4c0-0.1,0.1-0.2,0.2-0.3c0.1-0.1,0.3-0.1,0.6-0.2c0.4-0.1,0.8-0.1,1.4-0.1
					c0.6,0,1,0,1.3,0.1c0.3,0.1,0.4,0.2,0.4,0.4c0,0.1,0,0.2-0.1,0.2c0,0-0.1,0.1-0.3,0.2c-0.1,0-0.1,0.1-0.2,0.3s-0.1,0.3-0.1,0.4
					c0,0.2,0.1,0.4,0.2,0.4c0.1,0,0.2,0,0.3-0.1c0.1-0.1,0.2-0.2,0.5-0.4c0.3-0.3,0.4-0.4,0.4-0.5c0-0.1,0-0.1-0.1-0.2
					c0-0.1-0.1-0.1-0.1-0.2c0-0.2,0.1-0.4,0.4-0.4c0.3-0.1,0.8-0.1,1.5-0.1c0.6,0,1,0,1.3,0.1c0.3,0.1,0.5,0.2,0.5,0.4
					c0,0.1,0,0.2-0.1,0.2s-0.2,0.1-0.3,0.1c-0.1,0-0.3,0-0.5,0c-0.2,0-0.3,0-0.4,0.1C936.9,768.3,936.8,768.4,936.6,768.5z"/>
			</g>
		</g>
	</g>
	<g class="st26">
		
			<linearGradient id="SVGID_4_" gradientUnits="userSpaceOnUse" x1="-1790.8224" y1="525.9455" x2="-1780.4255" y2="525.9455" gradientTransform="matrix(0.3187 0 0 -0.3187 1286.0396 962.6828)">
			<stop  offset="0" style="stop-color:#FFCC7E"/>
			<stop  offset="1" style="stop-color:#F26768"/>
		</linearGradient>
		<polygon class="st27" points="715.4,790.9 715.4,791.9 715.4,793.9 715.4,795.3 715.4,796.7 715.4,798.1 715.4,798.5 718.7,799.3 
			715.8,791.7 		"/>
		
			<linearGradient id="SVGID_5_" gradientUnits="userSpaceOnUse" x1="-1890.5354" y1="982.5269" x2="-1890.5354" y2="982.5269" gradientTransform="matrix(0.3187 0 0 -0.3187 1286.0396 962.6828)">
			<stop  offset="0" style="stop-color:#FFCC7E"/>
			<stop  offset="1" style="stop-color:#F26768"/>
		</linearGradient>
		<polygon class="st28" points="683.5,649.5 683.5,649.5 683.5,649.6 		"/>
		
			<linearGradient id="SVGID_6_" gradientUnits="userSpaceOnUse" x1="-2001.0946" y1="526.2436" x2="-1990.7034" y2="526.2436" gradientTransform="matrix(0.3187 0 0 -0.3187 1286.0396 962.6828)">
			<stop  offset="0" style="stop-color:#FFCC7E"/>
			<stop  offset="1" style="stop-color:#F26768"/>
		</linearGradient>
		<polygon class="st29" points="650.9,792.5 648.3,799.3 651.6,798.5 651.6,798.1 651.6,796.7 651.6,795.3 651.6,793.9 651.6,792 
			651.6,790.7 651.4,791.3 		"/>
		
			<linearGradient id="SVGID_7_" gradientUnits="userSpaceOnUse" x1="-2068.9153" y1="571.0663" x2="-1996.5525" y2="571.0663" gradientTransform="matrix(0.3187 0 0 -0.3187 1286.0396 962.6828)">
			<stop  offset="0" style="stop-color:#FFCC7E"/>
			<stop  offset="1" style="stop-color:#F26768"/>
		</linearGradient>
		<polygon class="st30" points="626.7,779.6 626.7,779.6 649.8,781.8 		"/>
		
			<linearGradient id="SVGID_8_" gradientUnits="userSpaceOnUse" x1="-2213.6318" y1="522.9922" x2="-1890.4287" y2="522.9922" gradientTransform="matrix(0.3187 0 0 -0.3187 1286.0396 962.6828)">
			<stop  offset="0" style="stop-color:#FFCC7E"/>
			<stop  offset="1" style="stop-color:#F26768"/>
		</linearGradient>
		<path class="st31" d="M683.5,649.6L683.5,649.6L683.5,649.6l-1,14.7l-2.8,2.2l-0.3,0.5l0.4,0.5l0,0c-0.2-0.1-0.3-0.1-0.4,0.1
			c0,0,0.2,0.1,0.4,0.2l-0.1,0.4l-0.4-0.2l-0.6-1.2l-0.5-0.1l0.2,0.3l0.1,1.1l0.4,0.6l-0.2-0.1l0.4,1l0.8,0.3l0.3-0.1
			c0,0.1,0,0.2,0,0.3l0,0l-0.7,0c0,0,0.3,1.2,1.3,1.8c0.2,0.2,0.4,0.3,0.5,0.3v2.2l-6.9,5.3l-0.7,1.2l0.8,1.2l0,0
			c-0.4-0.2-0.7-0.3-0.8,0.2c0,0,0.5,0.2,1,0.5l-0.2,0.9l-1.1-0.5l-1.5-2.8l-1.3-0.3l0.4,0.7l0.2,2.6l0.9,1.5l-0.5-0.1l0.9,2.4
			l2,0.7l0.7-0.3c0,0.3,0,0.5,0,0.7l0,0l-1.7-0.1c0,0,0.6,2.8,3.1,4.4c0.5,0.3,0.8,0.5,1.1,0.7v2.4l-17.4,13.3l-1.7,3.1l2.1,3
			c-0.9-0.6-1.8-0.7-2.1,0.5c0,0,1.3,0.6,2.5,1.4l-0.4,2.3l-2.7-1.2l-3.7-7.1l-3.3-0.7l0.9,1.8l0.6,6.6l2.3,3.9l-1.3-0.3l2.2,6.1
			l5,1.7l1.7-0.7c0,0.7,0,1.3,0.1,1.9l-4.4-0.2c0,0,1.6,7.1,7.7,11.1c1.7,1.1,2.7,1.8,3.5,2.1v8h-20.5L634.8,739l-1.3-0.5l-1.7-0.6
			l2.4,8.2l1.3,9l0,0l-7.3,10.6l-0.3,1.5l-0.6,2.9l-0.3,1.5l-0.8,4.2l-4.5,3.2l4.9,0.5l0,0l23,2.3l-23-2.3l-0.4,1.9l-0.3,1.2
			l-6.4,30.4v4.4l7.2,4.1h8.8l11.4-3.4l-4.7,11l-24.9,32.5l-2.4,1.7l-13.2-1.7l-8.5,3.3l-3.2-1.7h-9.6l12,8.5h11.6l3.4,4l-5.8-1.2
			l-7.1,2.1h-6.2l-4.2,0.8l6.6,5.3l10,2.7l15.5,10.8l11.6,3.2l9.7,16.3l-2.1,1.7l2.1,1.7l-7.4,3.2l-6-0.1l-7.1-3.1H613l-1.8,4.1
			l6.4,7.6h-36v11.5h102L683.5,649.6L683.5,649.6z M648.3,775.6l0.5,1.9L648.3,775.6z M673.6,801.5l-1.1-2.2L673.6,801.5z
			 M651.6,792v2v1.4v1.4v1.4v0.4l-3.3,0.8l2.6-6.8l0.5-1.2l0.2-0.6L651.6,792L651.6,792z M664.4,930.9l8.4-3.2l-1.6-5.1l-2-2.1
			l-0.4-3.8l1-2.1l-2.7-1.1l-5.3-17.6l1.2-0.3l-0.4-1l6.3-4.2l0,0l0,0l6.9-4.5l3.9-3.1l0.9,48L664.4,930.9L664.4,930.9L664.4,930.9z
			"/>
	</g>
	
		<linearGradient id="SVGID_9_" gradientUnits="userSpaceOnUse" x1="-1311.2036" y1="370.8874" x2="-1189.1171" y2="370.8874" gradientTransform="matrix(0.3187 0 0 -0.3187 1286.0396 962.6828)">
		<stop  offset="0" style="stop-color:#FFCC7E"/>
		<stop  offset="1" style="stop-color:#F26768"/>
	</linearGradient>
	<polygon class="st32" points="905.3,754.7 899.8,760.1 870.2,760.1 870.2,756.8 868.2,756.8 868.2,760.1 868.2,780.2 868.2,783.6 
		870.2,783.6 870.2,780.2 905.3,780.2 905.3,886.1 902.7,886.1 898.2,942 906.9,942 907.1,942 907.1,746.9 	"/>
	<rect x="-371" y="940.4" class="st33" width="2690.1" height="59.6"/>
	<path class="st0" d="M-165.1,748H-324c55.5-25.5,42.8-62.8,31.7-78.8c-2.1-3.3-4.7-4.3-7.8-7.2c-0.2-0.2-0.4-0.3-0.4-0.3
		c-7.3-6.6-17.3-11.8-28.8-15.2c-1.5-0.5-2.9-0.5-4.2-0.8c-7.7-1.9-16-2.1-24.7-2.1h-11.5v90.4h11.5c1.8,0,3.6-1.1,5.3-1.2
		c-5.6,3.2-11.4,5.7-16.8,7.8v67.9h204.5c24.2,0,43.9-14.7,43.9-30.3C-121.2,762.7-140.9,748-165.1,748z"/>
	<g>
		<g>
			<path class="st34" d="M1335.4,863.8c-5.4-4.8,10.8-62.4,10.8-62.4l4.7,1.3c0.4-3.7,0.7-6.1,0.7-6.1c37.7-9.6,67.4-28.8,67.4-28.8
				l-5.4-7.2c-10.8,9.6-72.8,28.8-72.8,28.8s2.7,43.2-24.3,57.6c-27,14.4-59.3-19.2-59.3-19.2l-8.1,12c0,0,37.7,19.2,59.3,36
				c21.6,16.8-0.8,64.8-0.8,64.8l21,0.2C1335.5,925.1,1340.3,868.2,1335.4,863.8z"/>
			<path class="st34" d="M1362.3,871c12.8,0,38.8-17.2,54.1-28.2l5.7-14.5l-0.6-0.5c-16.2,16.8-69.7,29.8-72.8,21.6
				c-2.1-5.6,0.7-34,2-46.7l-4.7-1.3c0,0-16.2,57.6-10.8,62.4c5,4.4,0.1,61.3-6.7,77l40.4,0.5C1348.9,925.2,1362.3,871,1362.3,871z"
				/>
			<path class="st35" d="M1407.4,796.2c0,0,13.7-1.4,21.1-5.1h28.3l-21.8-26c0-11.6-19.5-11.6-19.5-11.6s0-11.6-16.2-14.5
				c-16.2-2.9-19.5,8.7-19.5,8.7s3.2-23.1-26-23.1s-19.5,28.9-19.5,28.9s-3.2-8.7-19.5-5.8s-6.5,20.2-6.5,20.2
				c-27.6,0-20.4,20.7-19.6,22.9c-0.5,3.2,0.9,7.1,7.1,10.4c11.1,5.9,29-5,36.5-10.2h10.2c6.6,2.2,17.1,5.1,27.6,5.1
				s15.7-2.9,18.1-5.1h7.7L1407.4,796.2z"/>
			<path class="st36" d="M1452.1,782.1c3.6-2.9,3.6-8.7-2-11.6s-12.4,2.9-12.4,2.9s7.2-20.2-14.4-23.1
				c-21.7-2.9-25.3,14.5-25.3,14.5s-3.6-5.8-10.8-2.9c-7.2,2.9-3.6,8.7-3.6,8.7c-3.6-5.8-10.8-5.8-10.8-5.8
				c-18.1-2.9-18.1,17.3-18.1,17.3c-10-1.6-15.5,3-18.5,7.4c-2,1.3-3.2,3.2-2.8,5.8c-0.2,0.7-0.3,1.2-0.3,1.2h0.6
				c2.9,9.3,50.5,8,68.7,0h8.9c5.4,2.8,14.6,6.8,20.9,5.1c5.1-1.4,9.3-3.4,12.1-5.1h11.6c0,0,14.3,0,14.4-2.9
				C1470.7,781.8,1452.1,782.1,1452.1,782.1z"/>
			<path class="st35" d="M1292.3,838.3c0.3-6.3-8.6-6.1-8.6-6.1c1.7-1.5,1.7-4.6-0.9-6.1c-2.7-1.5-5.9,1.5-5.9,1.5
				s3.4-10.7-6.9-12.2c-10.3-1.5-12,7.6-12,7.6s-1.7-3.1-5.1-1.5c-3.4,1.5-1.7,4.6-1.7,4.6c-1.7-3.1-5.1-3.1-5.1-3.1
				c-8.6-1.5-8.6,9.2-8.6,9.2c-6.9-1.2-9.3,4.4-10,6.7c-0.2,0.3-0.3,0.6-0.3,0.9c0,3.9,15.2,1.9,15.2,0c0,0,10.8,3.9,17.4,1.9
				l6.5-1.9h9.5c1.9,1,4.6,1.9,7.9,1.9c6.5,0,8.3-2.9,8.3-2.9C1292.2,838.7,1292.3,838.5,1292.3,838.3z"/>
			<path class="st35" d="M1464.8,837.9c0.3-7.8-10.6-7.6-10.6-7.6c2.1-1.9,2.1-5.7-1.2-7.6c-3.3-1.9-7.3,1.9-7.3,1.9
				s4.3-13.3-8.5-15.2c-12.8-1.9-14.9,9.5-14.9,9.5s-2.1-3.8-6.4-1.9c-4.3,1.9-2.1,5.7-2.1,5.7c-2.1-3.8-6.4-3.8-6.4-3.8
				c-10.6-1.9-10.6,11.4-10.6,11.4c-10.6-1.9-12.8,9.5-12.8,9.5s0,7.2,13.5,4.8c13.5-2.4,13.7-4.8,13.7-4.8s7.9,7.2,15.9,4.8
				c8.1-2.4,12.1-4.8,12.1-4.8s9.5,7.2,17.6,4.8c5.8-1.7,7.4-4.7,7.9-6.2C1464.7,838.2,1464.8,838.1,1464.8,837.9z"/>
		</g>
		
			<linearGradient id="SVGID_10_" gradientUnits="userSpaceOnUse" x1="-6356.3647" y1="287.4014" x2="-6050.6919" y2="287.4014" gradientTransform="matrix(0.3187 0 0 -0.3187 3352.9021 962.6828)">
			<stop  offset="3.409785e-07" style="stop-color:#757C9D"/>
			<stop  offset="0.5862" style="stop-color:#9281AA"/>
			<stop  offset="1" style="stop-color:#AA84B4"/>
		</linearGradient>
		<path class="st37" d="M1362.3,870.7c12.8,0,38.8-17.2,54.1-28.2l5.7-14.5l-0.6-0.5c-16.2,16.8-69.7,29.8-72.8,21.6
			c-2.1-5.6,0.7-34,2-46.7l-4.7-1.3c0,0-16.2,57.6-10.8,62.4c5,4.4,0.1,61.3-6.7,77l40.4,0.5
			C1348.9,924.9,1362.3,870.7,1362.3,870.7z"/>
	</g>
	<path class="st34" d="M-299.1,941c-0.1,0.1-0.2,0.2-0.3,0.2l40.4-0.5c0-0.1-0.1-0.2-0.1-0.2L-299.1,941z"/>
	<polygon class="st38" points="2319,924.8 2302.9,940.1 2319,940.1 	"/>
	
		<linearGradient id="SVGID_11_" gradientUnits="userSpaceOnUse" x1="3926.1179" y1="-1327.6669" x2="3060.9028" y2="170.9297" gradientTransform="matrix(0.3187 0 0 -0.3187 1286.0396 962.6828)">
		<stop  offset="1.385225e-07" style="stop-color:#F4879D"/>
		<stop  offset="0.1631" style="stop-color:#F48D9F"/>
		<stop  offset="0.3546" style="stop-color:#F59AA5"/>
		<stop  offset="0.5596" style="stop-color:#F8B2AF"/>
		<stop  offset="0.6129" style="stop-color:#F9B9B1"/>
		<stop  offset="1" style="stop-color:#FEDDC0"/>
	</linearGradient>
	<polygon class="st39" points="2319,882.7 2207.6,939.9 2319,940.2 	"/>
	<g>
		<g>
			<path class="st34" d="M2319,798.9c-19.8-5.5-56.4-16.3-64.7-22.6l-5.7,6.5c0,0,30.9,17,70.5,25.8L2319,798.9L2319,798.9z"/>
			<path class="st34" d="M2319,939.8v-81.1c-14.1,2.1-58.5-8.5-73.3-21.6l-0.6,0.5l6.1,13.1c16.3,10,44,25.5,57.7,25.5
				c0,0,14.3,49.1-7.2,63.7L2319,939.8z"/>
			<path class="st35" d="M2319,743.8c-0.4,0-0.8,0-1.2,0c-31.1,0-27.7,21-27.7,21s-3.5-10.5-20.8-7.9c-17.3,2.6-17.3,13.1-17.3,13.1
				s-20.8,0-20.8,10.5l-23.2,23.6h30.2c7.9,3.4,22.5,4.6,22.5,4.6l12.2-4.6h8.2c2.6,2,8,4.6,19.2,4.6c6.5,0,12.9-0.9,18.6-2V743.8
				L2319,743.8z"/>
			<path class="st36" d="M2319,795.7c-0.6,0-1.2,0.1-1.9,0.2c0,0,0-18.3-19.2-15.7c0,0-7.7,0-11.5,5.2c0,0,3.8-5.2-3.9-7.9
				c-7.7-2.6-11.5,2.6-11.5,2.6s-3.9-15.7-26.9-13.1c-23.1,2.6-15.4,21-15.4,21s-7.3-5.2-13.3-2.6c-6,2.6-6,7.9-2.1,10.5
				c0,0-19.8-0.3-19.2,10.5c0.1,2.6,15.4,2.6,15.4,2.6h12.4c3,1.5,7.4,3.4,12.8,4.6c6.8,1.5,16.5-2,22.3-4.6h9.5
				c11.8,4.4,35.4,6.6,52.6,5.7L2319,795.7L2319,795.7z"/>
			<path class="st35" d="M2199.7,846.3c-0.3-7.1,11.3-6.9,11.3-6.9c-2.3-1.7-2.3-5.2,1.3-6.9c3.5-1.7,7.8,1.7,7.8,1.7
				s-4.5-12,9.1-13.7s15.9,8.6,15.9,8.6s2.3-3.4,6.8-1.7c4.5,1.7,2.3,5.2,2.3,5.2c2.3-3.4,6.8-3.4,6.8-3.4
				c11.3-1.7,11.3,10.3,11.3,10.3c11.3-1.7,13.6,8.6,13.6,8.6s0,6.5-14.4,4.3s-14.6-4.3-14.6-4.3s-8.4,6.5-17,4.3
				c-8.6-2.2-12.9-4.3-12.9-4.3s-10.1,6.5-18.7,4.3c-6.2-1.6-7.9-4.2-8.4-5.6C2199.8,846.7,2199.7,846.5,2199.7,846.3z"/>
		</g>
		
			<linearGradient id="SVGID_12_" gradientUnits="userSpaceOnUse" x1="15932.4775" y1="233.1198" x2="16258.1387" y2="233.1198" gradientTransform="matrix(-0.3187 0 0 -0.3187 7424.9731 962.6828)">
			<stop  offset="3.409785e-07" style="stop-color:#757C9D"/>
			<stop  offset="0.5862" style="stop-color:#9281AA"/>
			<stop  offset="1" style="stop-color:#AA84B4"/>
		</linearGradient>
		<path class="st40" d="M2319,939.6v-81.1c-14.1,2.1-58.5-8.5-73.3-21.6l-0.6,0.5l6.1,13.1c16.3,10,44,25.5,57.7,25.5
			c0,0,14.3,49.1-7.2,63.7L2319,939.6z"/>
	</g>
	<g>
		<polygon class="st41" points="1885.9,942.1 1885.9,427 1870.9,427 1859.1,942.1 		"/>
		<polygon class="st41" points="2108.5,942.1 2108.5,427 2123.6,427 2135.4,942.1 		"/>
		<rect x="1885.9" y="474.2" class="st41" width="222.6" height="12.2"/>
		<rect x="1816.3" y="414.7" class="st42" width="361.9" height="12.2"/>
		<polygon class="st43" points="1869,510 1870.9,427 1824.6,427 		"/>
		<polygon class="st43" points="2125.3,510 2123.4,427 2169.6,427 		"/>
		<polygon class="st44" points="1890.2,942.1 1890.2,798.6 1859.5,798.6 1855.8,942.1 		"/>
		<polygon class="st44" points="2104.8,942.1 2104.8,798.6 2135.5,798.6 2139.2,942.1 		"/>
		<path class="st42" d="M2157.8,386.2h-40l-26.2-15.4l-25.4,15.4H2035c0,0-22.5-10.5-37.8-28.6c-15.3,18.1-37.8,28.6-37.8,28.6
			h-31.2l-25.4-15.4l-26.2,15.4h-40c-24.7-22.5-66.1-28.6-66.1-28.6l46.5,57.2h180.2h180.2l46.5-57.2
			C2223.9,357.5,2182.5,363.6,2157.8,386.2z"/>
		<rect x="1885.9" y="474.2" class="st41" width="222.6" height="3.2"/>
		<path class="st41" d="M1816.3,427c2.3,0,361.9,0,361.9,0v-8.2h-361.9V427z"/>
	</g>
	<g class="st26">
		
			<linearGradient id="SVGID_13_" gradientUnits="userSpaceOnUse" x1="1520.4211" y1="981.6421" x2="2231.6196" y2="981.6421" gradientTransform="matrix(0.3187 0 0 -0.3187 1286.0396 962.6828)">
			<stop  offset="0" style="stop-color:#FFCC7E"/>
			<stop  offset="1" style="stop-color:#F26768"/>
		</linearGradient>
		<path class="st45" d="M1885.9,474.2V427h111.3v-69.4c-15.3,18.1-37.8,28.6-37.8,28.6h-31.2l-25.4-15.4l-26.2,15.4h-40
			c-24.7-22.5-66.1-28.6-66.1-28.6l46.5,57.2h-0.8v4v8.2h8.3l44.3,83l1.9-83l-1.9,83l0,0l-6.6,288.6h-2.8l-3.7,143.6h3.2h26.9h4.3
			V798.6h-4.3V486.4h111.3v-12.2H1885.9z"/>
		
			<linearGradient id="SVGID_14_" gradientUnits="userSpaceOnUse" x1="1828.3788" y1="1550.6992" x2="1834.361" y2="1550.6992" gradientTransform="matrix(0.3187 0 0 -0.3187 1286.0396 962.6828)">
			<stop  offset="0" style="stop-color:#FFCC7E"/>
			<stop  offset="1" style="stop-color:#F26768"/>
		</linearGradient>
		<polygon class="st46" points="1870.9,427 1869,510 1869,510 		"/>
	</g>
	<path class="st47" d="M-369.6,625.4c0,0,57.7,29.7,88.6,115.7c35.2,98,95.6,194.2,111.1,199.5h-199.7L-369.6,625.4L-369.6,625.4z"
		/>
	<g>
		<path class="st48" d="M-332.4,796.6h-8.9c-5.4,2.8-14.6,6.8-20.9,5.1c-2.7-0.7-5.1-1.6-7.2-2.6v10.8c0.6-0.2,1.3-0.3,2.1-0.5
			c12.8-1.9,14.9,9.5,14.9,9.5s2.1-3.8,6.4-1.9c4.3,1.9,2.1,5.7,2.1,5.7c2.1-3.8,6.4-3.8,6.4-3.8c10.6-1.9,10.6,11.4,10.6,11.4
			c10.6-1.9,12.8,9.5,12.8,9.5s0,4.1-5.8,5.1c19.1,6.5,39,9.2,40.8,4.3c0.5-1.4,0.7-4.2,0.8-7.8c0-11-1.8-29.2-2.8-38.6
			C-297.4,804-320.9,801.7-332.4,796.6z"/>
		<path class="st34" d="M-190,841.7l-6.5-1.9h-5.7c-11.9,7.9-29.1,15.5-44.6,7.2c-18-9.6-22.8-32.1-24-46c-1.6,0.4-3.4,0.8-5.4,1.1
			c1.8,6.5,11.7,43,11.6,56.6c0,2.5-0.3,4.3-1.1,5c-1.4,1.2-2,6.6-2,14.1c0,19.1,3.9,51.5,8.7,62.7h-0.1c0,0.1,0.1,0.2,0.1,0.2
			l21-0.3c0,0-22.4-48-0.8-64.8c17-13.2,44-27.9,54.7-33.6C-186.1,842.3-188.2,842.2-190,841.7z"/>
		<path class="st34" d="M-346.1,843c-0.1,0-0.1,0.1-0.2,0.1c15.4,11,41,27.9,53.7,27.9c0,0,4.4,18,4.4,36.3
			c0.1-18.4-4.4-36.5-4.4-36.5C-305.2,870.7-330.7,854-346.1,843z"/>
		<path class="st34" d="M-267.7,877.8c0-7.4,0.6-12.8,2-14.1c0.8-0.7,1.1-2.5,1.1-5c0,2.4-0.4,4.1-1.1,4.8
			C-267,864.8-267.7,870.3-267.7,877.8z"/>
		<path class="st34" d="M-278.4,841.3c0-10.9-1.7-29.1-2.7-38.6c0,0,0,0,0,0C-280.1,812.1-278.3,830.4-278.4,841.3z"/>
		<path class="st35" d="M-328.2,764.8c0,0,3.6-5.8,10.8-2.9c7.2,2.9,3.6,8.7,3.6,8.7c3.6-5.8,10.8-5.8,10.8-5.8
			c18.1-2.9,18.1,17.3,18.1,17.3c10-1.6,15.5,3,18.5,7.4c0.7,0.5,1.3,1,1.7,1.6h1.9c7.5,5.2,25.5,16.1,36.5,10.2
			c6.2-3.3,7.6-7.2,7.1-10.4c0.9-2.3,8.1-22.9-19.6-22.9c0,0,9.7-17.3-6.5-20.2s-19.5,5.8-19.5,5.8s9.7-28.9-19.5-28.9
			s-26,23.1-26,23.1s-3.2-11.6-19.5-8.7c-10.6,1.9-14.3,7.5-15.6,11.2C-330.8,752.1-328.2,764.8-328.2,764.8z"/>
		<path class="st35" d="M-367.9,773.5c0,0-0.6-1.7-0.9-4.2l-0.6,0.8v2.3C-368.5,772.9-367.9,773.5-367.9,773.5z"/>
		<path class="st36" d="M-270.7,801c3.8-1.1,6.4-2.5,7-4.4h0.6c0,0-0.1-0.5-0.3-1.2c0.3-1.7-0.2-3.1-1.1-4.2h-6.5
			C-271.1,793.1-271.1,796.6-270.7,801z"/>
		<path class="st36" d="M-345.9,753.5c0,0,0-1.4,0.7-3.3c-2.4-0.3-5.1-0.3-8.3,0.1c-15.4,2.1-16.2,12.8-15.4,18.9l3.5-4.2
			C-365.4,753.5-345.9,753.5-345.9,753.5z"/>
		<path class="st36" d="M-341.3,796.6h8.9c11.5,5.1,35,7.4,51.3,6.1l0,0c-0.4-3.7-0.7-6.1-0.7-6.1c-2-0.5-4-1.1-5.9-1.6
			c-4.1,0.7-8.4,1.2-12.8,1.2c-10.5,0-15.7-2.9-18.1-5.1h-7.7l-11.4,5.1c0,0-13.7-1.4-21.1-5.1h-10.7v8c2.1,0.9,4.5,1.9,7.2,2.6
			C-355.9,803.4-346.8,799.4-341.3,796.6z"/>
		<path class="st36" d="M-271.1,791.1h-1.9c-3.9,1.3-9.1,2.8-14.8,3.9c2,0.6,3.9,1.1,5.9,1.6c0,0,0.3,2.4,0.7,6.1l0,0
			c0-0.1,0-0.2,0-0.2l4.7-1.3c0,0,0.1,0.3,0.3,1c2-0.3,3.8-0.7,5.4-1.1C-271.1,796.6-271.1,793.1-271.1,791.1z"/>
		<path class="st36" d="M-281.1,802.7L-281.1,802.7C-281.1,802.7-281.1,802.7-281.1,802.7C-281.1,802.7-281.1,802.7-281.1,802.7
			L-281.1,802.7z"/>
		<path class="st36" d="M-369.5,772.3v18.8h10.7c7.4,3.7,21.1,5.1,21.1,5.1l11.4-5.1h7.7c2.4,2.2,7.5,5.1,18.1,5.1
			c4.3,0,8.7-0.5,12.8-1.2c-34.8-10-61.4-27.2-61.4-27.2l5.4-7.2c10.8,9.6,72.8,28.8,72.8,28.8s0,0.6-0.1,1.7h6.5
			c-0.5-0.6-1.1-1.1-1.7-1.6c-3-4.4-8.5-9-18.5-7.4c0,0,0-20.2-18.1-17.3c0,0-7.2,0-10.8,5.8c0,0,3.6-5.8-3.6-8.7
			c-7.2-2.9-10.8,2.9-10.8,2.9s-2.7-12.7-17-14.6c-0.7,1.9-0.7,3.3-0.7,3.3s-19.5,0-19.5,11.6l-3.5,4.2c0.3,2.5,0.9,4.2,0.9,4.2
			S-368.5,772.9-369.5,772.3z"/>
		<path class="st36" d="M-271.1,791.1c0-1.1,0.1-1.7,0.1-1.7s-62-19.2-72.8-28.8l-5.4,7.2c0,0,26.6,17.2,61.4,27.2
			c5.8-1,11-2.6,14.8-3.9L-271.1,791.1L-271.1,791.1L-271.1,791.1z"/>
		<path class="st35" d="M-157.7,838.8c-0.7-2.3-3.2-7.9-10-6.7c0,0,0-10.7-8.6-9.2c0,0-3.4,0-5.1,3.1c0,0,1.7-3.1-1.7-4.6
			c-3.4-1.5-5.1,1.5-5.1,1.5s-1.7-9.2-12-7.6c-10.3,1.5-6.9,12.2-6.9,12.2s-3.2-3.1-5.9-1.5c-2.7,1.5-2.7,4.6-0.9,6.1
			c0,0-8.8-0.2-8.6,6.1c0,0.2,0.2,0.4,0.4,0.6c0,0,1.8,2.9,8.3,2.9c3.2,0,6-1,7.9-1.9h3.8c8.8-5.9,14.7-12,14.7-12l8.1,12
			c0,0-1.7,0.9-4.6,2.4c5.6-0.4,11.4-2.4,11.4-2.4c0,1.9,15.2,3.9,15.2,0C-157.4,839.5-157.5,839.1-157.7,838.8z"/>
		<path class="st35" d="M-187.5,827.8c0,0-5.9,6.1-14.7,12h5.7l6.5,1.9c1.8,0.5,3.9,0.6,6,0.5c2.9-1.5,4.6-2.4,4.6-2.4L-187.5,827.8
			z"/>
		<path class="st35" d="M-352.5,828.3L-352.5,828.3v-0.2l0.6-0.5c6.5,6.8,19.1,12.9,32,17.3c5.8-1,5.8-5.1,5.8-5.1
			s-2.1-11.4-12.8-9.5c0,0,0-13.3-10.6-11.4c0,0-4.3,0-6.4,3.8c0,0,2.1-3.8-2.1-5.7c-4.3-1.9-6.4,1.9-6.4,1.9s-2.1-11.4-14.9-9.5
			c-0.8,0.1-1.4,0.3-2.1,0.5v30c0.1-0.1,0.2-0.1,0.2-0.1s4,2.4,12.1,4.8c4,1.2,8,0,11-1.5c-0.1-0.1-0.3-0.2-0.4-0.3L-352.5,828.3z"
			/>
		<path class="st35" d="M-346.7,842.5l-5.7-14.3l-0.1,0.1l5.7,14.5c0.1,0.1,0.3,0.2,0.4,0.3c0.1,0,0.1-0.1,0.2-0.1
			C-346.3,842.8-346.5,842.7-346.7,842.5z"/>
		
			<linearGradient id="SVGID_15_" gradientUnits="userSpaceOnUse" x1="24101.1699" y1="364.159" x2="24406.8398" y2="364.159" gradientTransform="matrix(-0.3187 0 0 -0.3187 7424.9731 962.6828)">
			<stop  offset="3.409785e-07" style="stop-color:#757C9D"/>
			<stop  offset="0.5862" style="stop-color:#9281AA"/>
			<stop  offset="1" style="stop-color:#AA84B4"/>
		</linearGradient>
		<path class="st49" d="M-319.9,844.9c-0.2,0-0.3,0-0.5,0.1c19.3,6.7,39.5,9.4,41.3,4.5c0.5-1.4,0.7-4.3,0.8-8.1
			c0,3.6-0.2,6.4-0.8,7.8C-281,854.1-300.8,851.4-319.9,844.9z"/>
		
			<linearGradient id="SVGID_16_" gradientUnits="userSpaceOnUse" x1="24101.1699" y1="120.8936" x2="24406.8398" y2="120.8936" gradientTransform="matrix(-0.3187 0 0 -0.3187 7424.9731 962.6828)">
			<stop  offset="3.409785e-07" style="stop-color:#757C9D"/>
			<stop  offset="0.5862" style="stop-color:#9281AA"/>
			<stop  offset="1" style="stop-color:#AA84B4"/>
		</linearGradient>
		<path class="st50" d="M-299.4,941h0.3c8.3-6.9,10.8-20.4,10.9-33.8C-288.3,920.7-290.8,934.2-299.4,941z"/>
		<path class="st34" d="M-264.5,858.8c0.1-13.6-9.8-50.2-11.6-56.6c0,0,0,0-0.1,0C-274.6,807.8-264.6,844.8-264.5,858.8z"/>
		
			<linearGradient id="SVGID_17_" gradientUnits="userSpaceOnUse" x1="24101.1699" y1="414.9241" x2="24406.8398" y2="414.9241" gradientTransform="matrix(-0.3187 0 0 -0.3187 7424.9731 962.6828)">
			<stop  offset="3.409785e-07" style="stop-color:#757C9D"/>
			<stop  offset="0.5862" style="stop-color:#9281AA"/>
			<stop  offset="1" style="stop-color:#AA84B4"/>
		</linearGradient>
		<path class="st51" d="M-264.5,858.8c0.1-13.6-9.8-50.2-11.6-56.6c0,0,0,0-0.1,0C-274.6,807.8-264.6,844.8-264.5,858.8z"/>
		<path class="st34" d="M-258.9,940.6c-4.9-11.2-8.8-43.7-8.7-62.7C-267.7,896.8-263.9,929.1-258.9,940.6L-258.9,940.6z"/>
		
			<linearGradient id="SVGID_18_" gradientUnits="userSpaceOnUse" x1="24101.1699" y1="167.7889" x2="24406.8398" y2="167.7889" gradientTransform="matrix(-0.3187 0 0 -0.3187 7424.9731 962.6828)">
			<stop  offset="3.409785e-07" style="stop-color:#757C9D"/>
			<stop  offset="0.5862" style="stop-color:#9281AA"/>
			<stop  offset="1" style="stop-color:#AA84B4"/>
		</linearGradient>
		<path class="st52" d="M-258.9,940.6c-4.9-11.2-8.8-43.7-8.7-62.7C-267.7,896.8-263.9,929.1-258.9,940.6L-258.9,940.6z"/>
		<path class="st34" d="M-267.7,877.8c0-7.6,0.6-13,2-14.3c0.7-0.7,1.1-2.4,1.1-4.8c0-14-10.1-50.9-11.7-56.6
			c-1.5,0.2-3.2,0.4-4.9,0.6c1,9.6,2.8,27.8,2.7,38.6c0,3.7-0.2,6.6-0.8,8.1c-1.9,4.9-22,2.2-41.3-4.5c-1.8,0.2-4.2,0.2-7.2-0.3
			c-13.5-2.4-13.7-4.8-13.7-4.8s-1.9,1.7-4.8,3.2c15.4,11,40.9,27.7,53.5,27.7c0,0,4.5,18.1,4.4,36.5c-0.1,13.3-2.5,26.9-10.9,33.8
			l40.1-0.4C-263.9,929.1-267.7,896.8-267.7,877.8z"/>
		
			<linearGradient id="SVGID_19_" gradientUnits="userSpaceOnUse" x1="24101.1699" y1="285.8418" x2="24406.8398" y2="285.8418" gradientTransform="matrix(-0.3187 0 0 -0.3187 7424.9731 962.6828)">
			<stop  offset="3.409785e-07" style="stop-color:#757C9D"/>
			<stop  offset="0.5862" style="stop-color:#9281AA"/>
			<stop  offset="1" style="stop-color:#AA84B4"/>
		</linearGradient>
		<path class="st53" d="M-267.7,877.8c0-7.6,0.6-13,2-14.3c0.7-0.7,1.1-2.4,1.1-4.8c0-14-10.1-50.9-11.7-56.6
			c-1.5,0.2-3.2,0.4-4.9,0.6c1,9.6,2.8,27.8,2.7,38.6c0,3.7-0.2,6.6-0.8,8.1c-1.9,4.9-22,2.2-41.3-4.5c-1.8,0.2-4.2,0.2-7.2-0.3
			c-13.5-2.4-13.7-4.8-13.7-4.8s-1.9,1.7-4.8,3.2c15.4,11,40.9,27.7,53.5,27.7c0,0,4.5,18.1,4.4,36.5c-0.1,13.3-2.5,26.9-10.9,33.8
			l40.1-0.4C-263.9,929.1-267.7,896.8-267.7,877.8z"/>
		<path class="st36" d="M-281.1,802.5c0,0.1,0,0.2,0,0.2l4.7-1.3c0,0,0.1,0.3,0.2,0.8c0,0,0,0,0.1,0c-0.2-0.6-0.3-1-0.3-1
			L-281.1,802.5z"/>
		
			<linearGradient id="SVGID_20_" gradientUnits="userSpaceOnUse" x1="24101.1699" y1="504.43" x2="24406.8398" y2="504.43" gradientTransform="matrix(-0.3187 0 0 -0.3187 7424.9731 962.6828)">
			<stop  offset="3.409785e-07" style="stop-color:#757C9D"/>
			<stop  offset="0.5862" style="stop-color:#9281AA"/>
			<stop  offset="1" style="stop-color:#AA84B4"/>
		</linearGradient>
		<path class="st54" d="M-281.1,802.5c0,0.1,0,0.2,0,0.2l4.7-1.3c0,0,0.1,0.3,0.2,0.8c0,0,0,0,0.1,0c-0.2-0.6-0.3-1-0.3-1
			L-281.1,802.5z"/>
		<path class="st36" d="M-281.1,802.7L-281.1,802.7c1.7-0.1,3.4-0.3,4.9-0.5c-0.1-0.5-0.2-0.8-0.2-0.8L-281.1,802.7z"/>
		
			<linearGradient id="SVGID_21_" gradientUnits="userSpaceOnUse" x1="24101.1699" y1="504.0676" x2="24406.8398" y2="504.0676" gradientTransform="matrix(-0.3187 0 0 -0.3187 7424.9731 962.6828)">
			<stop  offset="3.409785e-07" style="stop-color:#757C9D"/>
			<stop  offset="0.5862" style="stop-color:#9281AA"/>
			<stop  offset="1" style="stop-color:#AA84B4"/>
		</linearGradient>
		<path class="st55" d="M-281.1,802.7L-281.1,802.7c1.7-0.1,3.4-0.3,4.9-0.5c-0.1-0.5-0.2-0.8-0.2-0.8L-281.1,802.7z"/>
		<path class="st35" d="M-351.9,827.6l-0.6,0.5l0.1,0.2l0.5-0.4c6.4,6.7,18.8,12.7,31.5,17.1c0.2,0,0.4,0,0.5-0.1
			C-332.8,840.5-345.4,834.3-351.9,827.6z"/>
		
			<linearGradient id="SVGID_22_" gradientUnits="userSpaceOnUse" x1="24101.1699" y1="396.7564" x2="24406.8398" y2="396.7564" gradientTransform="matrix(-0.3187 0 0 -0.3187 7424.9731 962.6828)">
			<stop  offset="3.409785e-07" style="stop-color:#757C9D"/>
			<stop  offset="0.5862" style="stop-color:#9281AA"/>
			<stop  offset="1" style="stop-color:#AA84B4"/>
		</linearGradient>
		<path class="st56" d="M-351.9,827.6l-0.6,0.5l0.1,0.2l0.5-0.4c6.4,6.7,18.8,12.7,31.5,17.1c0.2,0,0.4,0,0.5-0.1
			C-332.8,840.5-345.4,834.3-351.9,827.6z"/>
		<path class="st35" d="M-351.9,827.8l-0.5,0.4l5.7,14.3c0.2,0.1,0.4,0.3,0.6,0.4c2.9-1.5,4.8-3.2,4.8-3.2s0.2,2.4,13.7,4.8
			c3.1,0.5,5.4,0.6,7.2,0.3C-333.1,840.5-345.5,834.5-351.9,827.8z"/>
		
			<linearGradient id="SVGID_23_" gradientUnits="userSpaceOnUse" x1="24101.1699" y1="396.1722" x2="24406.8398" y2="396.1722" gradientTransform="matrix(-0.3187 0 0 -0.3187 7424.9731 962.6828)">
			<stop  offset="3.409785e-07" style="stop-color:#757C9D"/>
			<stop  offset="0.5862" style="stop-color:#9281AA"/>
			<stop  offset="1" style="stop-color:#AA84B4"/>
		</linearGradient>
		<path class="st57" d="M-351.9,827.8l-0.5,0.4l5.7,14.3c0.2,0.1,0.4,0.3,0.6,0.4c2.9-1.5,4.8-3.2,4.8-3.2s0.2,2.4,13.7,4.8
			c3.1,0.5,5.4,0.6,7.2,0.3C-333.1,840.5-345.5,834.5-351.9,827.8z"/>
	</g>
	
		<linearGradient id="SVGID_24_" gradientUnits="userSpaceOnUse" x1="4040.2129" y1="2137.1865" x2="5169.3467" y2="2137.1865" gradientTransform="matrix(-0.3187 0 0 -0.3187 3812.2861 962.6828)">
		<stop  offset="0" style="stop-color:#F4879E"/>
		<stop  offset="0.94" style="stop-color:#FFD193"/>
	</linearGradient>
	<path class="st58" d="M2319,227.7c-36.3,4.8-41.1,42.2-41.1,42.2c-98.4-7.8-113.1,65.6-113.1,65.6H2319V227.7z"/>
	<path class="st59" d="M-363.7,544.6c2.5-2.4,5.3-4.6,15.4-5.5c12.3-1,21,1.9,22.8,4.7c2.3-0.3,1.7,0.9,4.3,0.9
		c5,0,9.6,0.7,12.8,1.8c1.2-0.3,2.7-0.5,4.3-0.5c4,0,7.2,1.1,7.2,2.4c0,0,0,0.1,0,0.1c11.6,0.4,20.7,3.8,20.7,7.8
		c0,0.2,0,0.3-0.1,0.5c0,0,0.1-0.1,0.1-0.1h-0.1h-46.5H-371v-12.8C-368.4,544.1-365.9,544.3-363.7,544.6z"/>
</g>
<g id="Layer_5">
	<g>
		<g>
			<polygon class="st60" points="132.8,775 129.3,770 248.7,770 248.7,775 			"/>
			<polygon class="st60" points="500.7,775 504.3,770 384.9,770 384.9,775 			"/>
			<rect x="129.3" y="758.2" class="st61" width="238.8" height="8.4"/>
			<rect x="265.4" y="758.2" class="st61" width="238.8" height="8.4"/>
			<rect x="265.4" y="754.8" class="st62" width="238.8" height="3.4"/>
			<rect x="265.4" y="766.6" class="st62" width="238.8" height="3.4"/>
			<rect x="129.3" y="754.8" class="st62" width="238.8" height="3.4"/>
			<rect x="129.3" y="766.6" class="st62" width="238.8" height="3.4"/>
			<polygon class="st63" points="218.5,621.8 164.5,621.8 146.9,605.4 159,630 218.5,630 225.8,630 225.8,628.9 225.8,621.8 			"/>
			<polygon class="st63" points="415.1,621.8 469.1,621.8 486.7,605.4 474.6,630 415.1,630 407.8,630 407.8,628.9 407.8,621.8 			
				"/>
			<polygon class="st63" points="282.8,596 223.3,596 211.2,571.4 228.8,587.8 282.8,587.8 			"/>
			<polygon class="st63" points="350.3,596 409.8,596 421.9,571.4 404.3,587.8 350.3,587.8 			"/>
			<polygon class="st44" points="216.4,630 159,630 129.3,754.8 223.9,754.8 223.9,630 			"/>
			<polygon class="st44" points="417.2,630 474.6,630 504.3,754.8 409.7,754.8 409.7,630 			"/>
			<polygon class="st44" points="270.3,596 223.3,596 205.9,723.8 282.8,723.8 282.8,596 			"/>
			<polygon class="st44" points="362.8,596 409.8,596 427.3,723.8 350.3,723.8 350.3,596 			"/>
			<polygon class="st64" points="409.7,652.7 345.8,575.5 316.6,575.5 316.5,575.5 287.3,575.5 223.3,652.7 316.5,652.7 
				316.5,633.4 316.5,652.7 			"/>
			<polygon class="st65" points="316.5,652.7 223.3,652.7 247.7,674.7 316.5,674.7 385.4,674.7 409.7,652.7 			"/>
			<polygon class="st44" points="325.4,774.8 209.6,774.8 93.7,774.8 34.5,824.5 209.6,824.5 384.6,824.5 			"/>
			<polygon class="st63" points="93.7,774.8 325.5,774.8 328.9,777.8 90.2,777.8 			"/>
			<polygon class="st44" points="539.6,774.8 423.7,774.8 307.8,774.8 248.7,824.5 423.7,824.5 598.8,824.5 			"/>
			<polygon class="st63" points="307.9,774.8 539.7,774.8 543.1,777.8 304.4,777.8 			"/>
			<rect x="248.7" y="824.5" class="st63" width="350.1" height="4.2"/>
			<rect x="34.5" y="824.5" class="st63" width="350.1" height="4.2"/>
			<polygon class="st66" points="587.1,838 598.8,828.7 423.7,828.7 423.7,838 			"/>
			<polygon class="st66" points="46.2,838 34.5,828.7 209.6,828.7 209.6,838 			"/>
			<rect x="235" y="826.4" class="st1" width="163.1" height="123.7"/>
			<rect x="153.2" y="826.4" class="st1" width="81.8" height="123.7"/>
			<rect x="46" y="838" class="st1" width="107.2" height="102.2"/>
			<rect x="479.9" y="838" class="st1" width="107.2" height="102.2"/>
			<rect x="398.1" y="826.4" class="st1" width="81.8" height="123.7"/>
			<path class="st67" d="M361.2,857.2c0,0,5.3-20.9-12.5-12.8c0,0,0-7-13.8-6.1c-13.8,0.9-18.3-2.4-18.3-2.4s-4.6,3.3-18.3,2.4
				c-13.8-0.9-13.8,6.1-13.8,6.1c-17.9-8.1-12.5,12.8-12.5,12.8l-6,8.1v77.3h50.7h50.7v-77.3L361.2,857.2z"/>
			<path class="st67" d="M194.1,845.1c-8.3,3.1-11,10-11,10v78.1h11h11v-78.1C205.2,855.1,202.4,848.2,194.1,845.1z"/>
			<path class="st67" d="M99.9,849.1c-7.5,2.8-10.1,9.1-10.1,9.1v71.1h10.1H110v-71.1C109.9,858.1,107.4,851.9,99.9,849.1z"/>
			<path class="st67" d="M533.7,849.1c-7.5,2.8-10.1,9.1-10.1,9.1v71.1h10.1h10.1v-71.1C543.8,858.1,541.3,851.9,533.7,849.1z"/>
			<path class="st67" d="M439.2,845.1c-8.3,3.1-11,10-11,10v78.1h11h11v-78.1C450.2,855.1,447.5,848.2,439.2,845.1z"/>
			<polygon class="st60" points="229.6,826.4 247.7,826.4 247.7,950.1 223.3,950.1 223.3,826.4 			"/>
			<polygon class="st60" points="52.3,838 70.4,838 70.4,940.3 46,940.3 46,838 			"/>
			<polygon class="st60" points="135.5,838 153.6,838 153.6,940.3 129.3,940.3 129.3,838 			"/>
			<polygon class="st60" points="486,838 504.1,838 504.1,940.3 479.8,940.3 479.8,838 			"/>
			<polygon class="st60" points="568.9,838 587.1,838 587.1,940.3 562.7,940.3 562.7,838 			"/>
			<polygon class="st60" points="392.1,826.4 410.3,826.4 410.3,950.1 385.9,950.1 385.9,826.4 			"/>
			<polygon class="st66" points="316.6,817 141.5,817 153.2,826.4 316.6,826.4 479.9,826.4 491.6,817 			"/>
			<rect x="141.5" y="812.8" class="st63" width="350.1" height="4.2"/>
			<polygon class="st44" points="432.4,763.2 316.6,763.2 200.7,763.2 141.5,812.8 316.6,812.8 491.6,812.8 			"/>
			<polygon class="st63" points="200.7,763.2 141.5,812.8 148,812.8 205.9,763.2 			"/>
			<polygon class="st63" points="93.7,774.8 34.5,824.5 41,824.5 98.9,774.8 			"/>
			<polygon class="st63" points="432.4,763.2 491.6,812.8 485.1,812.8 427.3,763.2 			"/>
			<polygon class="st63" points="539.6,774.8 598.8,824.5 592.2,824.5 534.4,774.8 			"/>
			<polygon class="st63" points="200.7,763.2 432.4,763.2 435.9,766.1 197.2,766.1 			"/>
			<polygon class="st60" points="200.7,763.2 197.2,758.2 316.6,758.2 316.6,763.2 			"/>
			<polygon class="st60" points="432.5,763.2 436,758.2 316.6,758.2 316.6,763.2 			"/>
			<rect x="197.2" y="754.8" class="st66" width="238.8" height="3.4"/>
			<rect x="197.2" y="742.9" class="st66" width="238.8" height="3.4"/>
			<rect x="197.2" y="746.4" class="st61" width="238.8" height="8.4"/>
			<polygon class="st63" points="316.6,615.6 197.2,742.9 316.6,742.9 436,742.9 			"/>
			<polygon class="st62" points="316.6,623.3 204.4,742.9 316.6,742.9 428.7,742.9 			"/>
			<polygon class="st68" points="316.5,636.5 216.7,742.9 316.5,742.9 416.3,742.9 			"/>
			<polygon class="st65" points="316.5,558.1 276.6,558.1 287.3,575.5 316.5,575.5 345.7,575.5 356.4,558.1 			"/>
			<polygon class="st65" points="316.5,444.8 309,444.8 312.5,451.9 316.5,451.9 320.4,451.9 323.9,444.8 			"/>
			<polygon class="st64" points="320.4,437.6 316.5,437.6 312.5,437.6 309,444.8 316.5,444.8 323.9,444.8 			"/>
			<polygon class="st65" points="316.5,430.4 309,430.4 312.5,437.6 316.5,437.6 320.4,437.6 323.9,430.4 			"/>
			<polygon class="st64" points="320.4,423.3 316.5,423.3 312.5,423.3 309,430.4 316.5,430.4 323.9,430.4 			"/>
			<polygon class="st64" points="320.4,451.9 316.5,451.9 312.5,451.9 276.6,558.1 316.5,558.1 356.3,558.1 			"/>
			<polygon class="st65" points="316.5,289.9 312.5,423.3 316.5,423.3 320.4,423.3 			"/>
			<polygon class="st63" points="223.3,596 205.9,723.8 211.2,723.8 229,590.7 			"/>
			<polygon class="st63" points="409.8,596 427.3,723.7 421.9,723.7 404.1,590.7 			"/>
			<polygon class="st69" points="197.2,742.9 181.2,730.6 197.2,733 316.5,606.5 316.6,615.6 			"/>
			<polygon class="st69" points="435.9,742.9 451.9,730.6 435.9,733 316.6,606.5 316.5,615.6 			"/>
			<polygon class="st63" points="159,630 129.3,754.8 134.1,754.8 163.3,629.6 			"/>
			<polygon class="st63" points="474.6,630 504.3,754.8 499.5,754.8 470.3,629.6 			"/>
			<polygon class="st63" points="129.3,754.8 197.2,754.8 197.2,750.6 133,750.6 			"/>
			<polygon class="st63" points="503.8,754.8 436,754.8 436,750.6 500.1,750.6 			"/>
			<rect x="265.9" y="942.5" class="st60" width="101.4" height="7.6"/>
		</g>
		
			<linearGradient id="SVGID_25_" gradientUnits="userSpaceOnUse" x1="-3923.8928" y1="1073.5466" x2="-3040.4004" y2="1073.5466" gradientTransform="matrix(0.3187 0 0 -0.3187 1286.0396 962.6828)">
			<stop  offset="0" style="stop-color:#FFCC7E"/>
			<stop  offset="1" style="stop-color:#F26768"/>
		</linearGradient>
		<polygon class="st70" points="313.1,424.1 309.7,431.3 313.1,438.4 309.7,445.6 313.1,452.7 277.3,558.7 288,576.1 277.8,588.4 
			229.5,588.4 212,572.1 224.1,596.6 220.6,622.3 219.2,622.3 165.3,622.3 147.7,606 159.9,630.5 159.8,630.5 130.2,755.1 
			130.2,758.5 130.2,766.9 130.2,770.4 133.6,775.2 99.8,775.2 94.6,775.2 94.6,775.2 35.5,824.7 35.5,828.9 47.2,838.3 47,838.3 
			47,940.4 71.3,940.4 130.2,940.4 154.1,940.4 154.1,950.2 224.1,950.2 235.7,950.2 248.4,950.2 266.5,950.2 317.1,950.2 
			317.1,290.9 		"/>
	</g>
	<g>
		<path class="st71" d="M1597.5,772.9c-3.5-83.3-49.1-105.4-49.1-105.4h-50.3h-50.3c0,0-45.6,22.1-49.1,105.4
			s-29.2,105.4-57.3,105.4v11.6h156.7h156.7v-11.6C1626.8,878.3,1601,856.2,1597.5,772.9z"/>
		<rect x="1324.2" y="889.9" class="st72" width="352.9" height="49"/>
		<polygon class="st72" points="1498.2,647.5 1447.4,647.5 1447.4,667.4 1498.2,667.4 1548.9,667.4 1548.9,647.5 		"/>
		<polygon class="st71" points="1498.2,606.8 1453.1,606.8 1453.1,647.5 1498.2,647.5 1543.2,647.5 1543.2,606.8 		"/>
		<rect x="1486.5" y="448.5" class="st71" width="23.2" height="14.8"/>
		<rect x="1489.5" y="434" class="st72" width="17.3" height="14.4"/>
		<polygon class="st71" points="1498.2,292.6 1489.5,434 1498.2,434 1506.8,434 		"/>
		<polygon class="st72" points="1473.1,529.8 1523.2,529.8 1520.9,515.8 1475.4,515.8 		"/>
		<polygon class="st72" points="1460.2,606.8 1498.2,606.8 1536.2,606.8 1533.2,589.3 1463.1,589.3 		"/>
		<polygon class="st72" points="1512,463.3 1498.2,463.3 1484.3,463.3 1481.3,480.7 1515,480.7 		"/>
		<polygon class="st72" points="1464.9,578.8 1531.4,578.8 1529.1,564.8 1467.2,564.8 		"/>
		<polygon class="st72" points="1469,554.3 1527.3,554.3 1525,540.3 1471.3,540.3 		"/>
		<polygon class="st72" points="1479.6,491.3 1477.2,505.3 1519.1,505.3 1516.7,491.3 		"/>
		<polygon class="st71" points="1463.1,589.3 1533.2,589.3 1531.4,578.8 1464.9,578.8 		"/>
		<polygon class="st71" points="1467.2,564.8 1529.1,564.8 1527.3,554.3 1469,554.3 		"/>
		<polygon class="st71" points="1471.3,540.3 1525,540.3 1523.2,529.8 1473.1,529.8 		"/>
		<polygon class="st71" points="1475.4,515.8 1520.9,515.8 1519.1,505.3 1477.2,505.3 		"/>
		<polygon class="st71" points="1515,480.7 1481.3,480.7 1479.6,491.3 1516.7,491.3 		"/>
	</g>
	
		<linearGradient id="SVGID_26_" gradientUnits="userSpaceOnUse" x1="119.8287" y1="1090.1733" x2="665.5175" y2="1090.1733" gradientTransform="matrix(0.3187 0 0 -0.3187 1286.0396 962.6828)">
		<stop  offset="0" style="stop-color:#FFCC7E"/>
		<stop  offset="1" style="stop-color:#F26768"/>
	</linearGradient>
	<path class="st73" d="M1489.5,433.5L1489.5,433.5v14.4h-3v14.8h-2.3l-2.9,17.5l-1.8,10.5l-2.3,14l-1.8,10.5l-2.3,14l-1.8,10.5
		l-2.3,14l-1.8,10.5l-2.3,14l-1.8,10.5l-2.9,17.5h-7V647h-5.7v19.9h0.4c0,0-45.6,22.1-49.1,105.4s-29.2,105.4-57.3,105.4v11.6h-17.2
		v49h173.9V292.1L1489.5,433.5z"/>
</g>
</svg>
