<?xml version="1.0" encoding="utf-8"?>
<!-- Generator: Adobe Illustrator 17.0.0, SVG Export Plug-In . SVG Version: 6.00 Build 0)  -->
<!DOCTYPE svg PUBLIC "-//W3C//DTD SVG 1.1//EN" "http://www.w3.org/Graphics/SVG/1.1/DTD/svg11.dtd">
<svg version="1.1" id="Layer_1" xmlns="http://www.w3.org/2000/svg" xmlns:xlink="http://www.w3.org/1999/xlink" x="0px" y="0px"
	 width="1960px" height="1000px" viewBox="0 0 1960 1000" enable-background="new 0 0 1960 1000" xml:space="preserve">
<g id="Layer_1_1_">
	<path opacity="0.5" fill="#EFE6DE" enable-background="new    " d="M2319.024,293.395c-2.809-0.118-5.666-0.158-8.57-0.158
		h-392.339c-39.402,0-71.339,19.543-71.339,45.217c0,25.674,31.936,45.217,71.339,45.217h392.339c1.8,0,3.586-1.117,5.344-1.202
		c-22.233,9.367-36.549,12.39-36.549,12.39l-17.057,2.639c-24.229,0-43.875,14.668-43.875,30.326
		c0,15.658,19.645,30.325,43.875,30.325h56.832V293.395z"/>
	<path fill="#EFE6DE" d="M415.301,319.72h-605.313c0,0,29.39-136.971,226.263-122.442c0,0,14.695-107.923,146.923-72.637
		c0,0,61.706,16.605,49.949,72.637c0,0,17.634-22.832,61.706-12.454c0,0,32.329,10.378,26.452,33.211
		c0,0,58.767-14.529,61.706,24.908c0,0,138.107,8.303,146.923,76.788H415.302v-0.01H415.301z"/>
	
		<linearGradient id="SVGID_1_" gradientUnits="userSpaceOnUse" x1="-1969.0171" y1="312.2932" x2="1798.1616" y2="312.2932" gradientTransform="matrix(0.3187 0 0 0.3187 826.8434 573.1276)">
		<stop  offset="0" style="stop-color:#FFD193"/>
		<stop  offset="1" style="stop-color:#F69268"/>
	</linearGradient>
	<path fill="url(#SVGID_1_)" d="M1208.796,853.321H199.318c0,0,49.007-244.809,377.334-218.848c0,0,24.497-192.886,245.023-129.829
		c0,0,102.908,29.676,83.305,129.829c0,0,29.404-40.8,102.908-22.257c0,0,53.901,18.542,44.1,59.353
		c0,0,98.015-25.961,102.908,44.515c0,0,230.313,14.839,245.023,137.248h-191.122V853.321z"/>
	<path fill="#EFE6DE" d="M1362.061,275.621h317.724c0,0-15.427-77.055-118.756-68.88c0,0-7.706-60.704-77.117-40.863
		c0,0-32.385,9.335-26.226,40.863c0,0-9.253-12.837-32.385-7.004c0,0-16.96,5.833-13.88,18.681c0,0-30.852-8.175-32.385,14.008
		c0,0-72.491,4.673-77.117,43.194H1362.061z"/>
	
		<linearGradient id="SVGID_2_" gradientUnits="userSpaceOnUse" x1="1680.2677" y1="-1145.3245" x2="2865.9202" y2="-1145.3245" gradientTransform="matrix(0.3187 0 0 0.3187 826.8434 573.1276)">
		<stop  offset="0" style="stop-color:#FFD193"/>
		<stop  offset="1" style="stop-color:#F69268"/>
	</linearGradient>
	<path fill="url(#SVGID_2_)" d="M1422.488,264.977h317.724c0,0-15.427-77.055-118.756-68.88c0,0-7.706-60.704-77.117-40.863
		c0,0-32.385,9.335-26.226,40.863c0,0-9.253-12.837-32.385-7.004c0,0-16.96,5.833-13.88,18.681c0,0-30.853-8.175-32.385,14.008
		c0,0-72.491,4.673-77.117,43.194H1422.488z"/>
	
		<linearGradient id="SVGID_3_" gradientUnits="userSpaceOnUse" x1="-2382.6404" y1="-977.378" x2="-671.0646" y2="-977.378" gradientTransform="matrix(0.3187 0 0 0.3187 826.8434 573.1276)">
		<stop  offset="0" style="stop-color:#FFD193"/>
		<stop  offset="1" style="stop-color:#F69268"/>
	</linearGradient>
	<path fill="url(#SVGID_3_)" d="M154.318,343.724h458.657c0,0-22.26-111.233-171.434-99.429c0,0-11.138-87.635-111.318-58.991
		c0,0-46.757,13.487-37.856,58.991c0,0-13.359-18.542-46.757-10.113c0,0-24.497,8.431-20.039,26.962
		c0,0-44.536-11.793-46.757,20.224c0,0-104.652,6.738-111.318,62.354h86.822V343.724z"/>
	<path opacity="0.5" fill="#EFE6DE" enable-background="new    " d="M1268.674,737.723l-272.359-0.362
		c0,0-20.053-14.572,41.147-16.754c45.099-1.607,41.399-5.28,66.641-8.739c25.256-3.459,63.927-8.377,91.869,10.016
		c5.681,3.737,4.697-8.558,30.543-8.558C1258.563,713.316,1283.636,726.43,1268.674,737.723z"/>
	<path fill="#EFE6DE" d="M2319.024,796.123l-4.112-4.826c-6.244-7.324-21.867-7.324-28.111,0l-14.049,16.488l-14.048-16.488
		c-6.244-7.324-21.867-7.324-28.11,0l-14.049,16.488l-14.048-16.488c-6.244-7.324-21.867-7.324-28.11,0l-14.048,16.488
		l-14.048-16.488c-6.244-7.324-21.867-7.324-28.111,0l-14.048,16.488l-14.049-16.488c-6.244-7.324-21.867-7.324-28.11,0
		l-14.049,16.488l-14.049-16.488c-6.244-7.324-21.867-7.324-28.11,0l-14.049,16.488l-14.048-16.488
		c-6.244-7.324-21.867-7.324-28.11,0l-14.048,16.488l-14.048-16.488c-6.244-7.324-21.867-7.324-28.11,0l-14.048,16.488
		l-14.049-16.488c-6.244-7.324-21.867-7.324-28.11,0l-14.049,16.488l-14.049-16.488c-6.244-7.324-21.867-7.324-28.11,0
		l-14.049,16.488l-14.048-16.488c-6.244-7.324-21.867-7.324-28.11,0l-14.048,16.488l-14.048-16.488
		c-6.244-7.324-21.867-7.324-28.11,0l-14.048,16.488l-14.049-16.488c-6.244-7.324-21.867-7.324-28.11,0l-14.049,16.488
		l-14.049-16.488c-6.244-7.324-21.867-7.324-28.11,0l-14.049,16.488l-14.048-16.488c-6.244-7.324-21.867-7.324-28.11,0
		l-14.049,16.488l-14.048-16.488c-6.244-7.324-21.867-7.324-28.11,0l-14.049,16.488l-14.048-16.488
		c-6.244-7.324-21.867-7.324-28.11,0l-14.049,16.488l-14.048-16.488c-6.244-7.324-21.867-7.324-28.11,0l-14.049,16.488
		l-14.048-16.488c-6.244-7.324-21.867-7.324-28.11,0l-14.049,16.488l-14.048-16.488c-6.244-7.324-21.867-7.324-28.11,0
		l-14.049,16.488l-14.048-16.488c-6.244-7.324-21.867-7.324-28.11,0l-14.049,16.488l-14.048-16.488
		c-6.244-7.324-21.867-7.324-28.11,0l-14.049,16.488l-14.048-16.488c-6.244-7.324-21.867-7.324-28.11,0l-14.048,16.488
		l-14.049-16.488c-6.244-7.324-21.867-7.324-28.111,0l-14.048,16.488l-14.049-16.488c-6.244-7.324-21.867-7.324-28.11,0
		l-14.048,16.488l-14.049-16.488c-6.244-7.324-21.867-7.324-28.11,0l-14.048,16.488l-14.049-16.488
		c-6.244-7.324-21.867-7.324-28.11,0l-14.048,16.488l-14.049-16.488c-6.244-7.324-21.867-7.324-28.11,0l-14.049,16.488
		l-14.049-16.488c-6.244-7.324-21.867-7.324-28.111,0l-14.049,16.488l-14.049-16.488c-6.244-7.324-21.867-7.324-28.111,0
		l-14.049,16.488l-14.049-16.488c-6.244-7.324-21.867-7.324-28.111,0l-14.054,16.487l-14.049-16.488
		c-6.244-7.324-21.867-7.324-28.111,0l-14.049,16.488l-14.049-16.488c-6.244-7.324-21.867-7.324-28.111,0l-14.049,16.488
		l-14.049-16.488c-6.244-7.324-21.867-7.324-28.111,0l-14.049,16.488l-14.049-16.488c-6.244-7.324-21.867-7.324-28.111,0
		l-14.049,16.488l-14.049-16.488c-6.244-7.324-21.867-7.324-28.111,0l-14.049,16.488l-14.049-16.488
		c-6.244-7.324-21.867-7.324-28.111,0l-14.049,16.488l-14.049-16.488c-6.244-7.324-21.867-7.324-28.111,0l-14.049,16.488
		l-14.049-16.488c-6.244-7.324-21.867-7.324-28.111,0l-14.049,16.488l-14.049-16.488c-6.244-7.324-21.867-7.324-28.11,0
		l-14.049,16.488l-14.049-16.488c-6.244-7.324-21.867-7.324-28.11,0l-14.049,16.488l-14.049-16.488
		c-6.244-7.324-21.867-7.324-28.11,0l-14.049,16.488l-14.049-16.488c-6.244-7.324-21.867-7.324-28.111,0l-14.049,16.488
		l-14.049-16.488c-6.244-7.324-21.867-7.324-28.11,0l-14.036,16.488l-14.049-16.487c-6.244-7.324-21.867-7.324-28.11,0
		l-14.049,16.488l-14.049-16.488c-6.244-7.324-21.867-7.324-28.11,0l-14.049,16.488l-14.049-16.488
		c-6.244-7.324-21.867-7.324-28.111,0l-14.049,16.488l-14.049-16.488c-6.244-7.324-21.867-7.324-28.111,0l-14.697,16.488v134.331
		H2319.02V796.123H2319.024z"/>
	<g>
		<g>
			<polygon fill="#1A532B" points="740.126,779.225 747.172,812.766 718.513,798.94 715.195,790.339 717.065,781.472 			"/>
			<polygon fill="#B3732A" points="740.126,779.225 716.46,781.61 716.052,783.537 740.493,780.972 			"/>
			<polygon fill="#B3732A" points="740.914,782.984 715.602,785.687 715.209,787.528 741.35,785.07 			"/>
			<polygon fill="#B3732A" points="741.8,787.22 714.73,789.604 715.602,791.403 742.236,789.295 			"/>
			<polygon fill="#183820" points="646.88,817.918 642.183,828.871 683.342,828.871 683.342,801.206 659.845,801.206 			"/>
			<polygon fill="#183820" points="719.792,817.918 724.489,828.871 683.342,828.871 683.342,801.206 706.827,801.206 			"/>
			<polygon fill="#B3732A" points="645.53,821.069 721.142,821.069 720.622,819.834 646.064,819.834 			"/>
			<polygon fill="#DDD1C5" points="651.477,790.349 651.477,798.96 715.195,798.96 715.195,790.349 699.346,786.198 
				667.326,786.198 			"/>
			<polygon fill="#B3732A" points="715.195,793.628 699.346,789.413 689.15,789.413 691.499,790.7 699.346,790.7 715.195,794.98 			
				"/>
			<polygon fill="#B3732A" points="715.195,796.417 699.346,792.201 689.15,792.201 691.499,793.489 699.346,793.489 
				715.195,797.768 			"/>
			<polygon fill="#1E2B2D" points="683.371,879.506 683.315,851.757 656.301,875.152 654.023,887.095 662.038,893.546 
				668.69,890.279 674.484,885.754 			"/>
			<polygon fill="#551721" points="683.371,852.768 683.371,879.506 675.567,885.754 661.251,895.196 660.646,892.46 
				668.972,888.714 676.227,882.838 681.051,877.069 			"/>
			<g>
				<polygon fill="#1E2B2D" points="683.342,879.506 683.385,851.757 710.413,875.152 712.677,887.095 704.662,893.546 
					698.01,890.279 692.216,885.754 				"/>
				<polygon fill="#551721" points="683.342,852.768 683.342,879.506 691.147,885.754 705.463,895.196 706.054,892.46 
					697.728,888.714 690.472,882.838 685.664,877.069 				"/>
			</g>
			<g>
				<polygon fill="#DDD1C5" points="624.127,921.978 617.01,918.859 612.792,918.859 610.978,922.967 617.559,930.833 
					632.76,933.068 659.648,932.377 672.585,927.363 670.982,922.276 653.319,924.479 				"/>
				<polygon fill="#551721" points="668.972,920.231 670.982,922.276 668.367,924.106 648.51,926.384 631.65,925.468 
					624.127,921.978 630.145,922.051 				"/>
				<polygon fill="#1A532B" points="661.518,895.739 666.862,913.324 637.57,915.442 627.882,899.166 632.353,894.643 				"/>
				<polygon fill="#2F525E" points="659.043,881.422 660.646,889.927 647.4,895.09 635.503,896.612 617.306,890.236 
					608.672,880.006 608.672,870.693 652.617,872.619 				"/>
				<polygon fill="#B3732A" points="601.725,861.379 593.231,864.721 590.011,863.05 580.392,863.05 592.43,871.555 604.06,871.555 
					611.484,874.291 659.043,881.422 659.648,880.006 608.081,864.573 				"/>
				<polygon fill="#2F525E" points="683.371,831.405 683.371,853.779 668.676,869.426 617.306,861.379 642.183,828.871 				"/>
				<polygon fill="#551721" points="617.306,861.379 614.902,863.05 666.862,871.555 668.676,869.426 				"/>
				<polygon fill="#DDD1C5" points="666.862,871.555 659.648,880.006 614.902,873.524 601.725,861.379 614.902,863.05 				"/>
				<polygon fill="#B3732A" points="604.06,871.555 607.476,875.503 601.725,874.291 594.637,876.409 588.408,876.409 
					584.203,877.175 590.812,882.487 600.853,885.222 616.308,896.005 630.75,899.954 648.3,899.347 662.756,895.398 
					660.646,889.927 644.588,893.12 631.354,893.12 620.02,890.236 611.484,874.291 				"/>
				<polygon fill="#B3732A" points="637.57,915.442 635.461,917.187 637.57,918.859 668.563,916.431 669.576,914.388 
					666.862,913.324 				"/>
				<polygon fill="#1A532B" points="637.57,918.859 630.145,922.051 636.867,923.723 662.756,922.201 668.972,920.231 
					668.563,916.431 				"/>
			</g>
			<g>
				<polygon fill="#DDD1C5" points="742.545,921.978 749.674,918.859 753.894,918.859 755.694,922.967 749.127,930.833 
					733.925,933.068 707.038,932.377 694.101,927.363 695.704,922.276 713.352,924.479 				"/>
				<polygon fill="#551721" points="697.714,920.231 695.704,922.276 698.305,924.106 718.175,926.384 735.022,925.468 
					742.545,921.978 736.527,922.051 				"/>
				<polygon fill="#1A532B" points="705.154,895.739 699.81,913.324 729.116,915.442 738.805,899.166 734.319,894.643 				"/>
				<polygon fill="#2F525E" points="707.643,881.422 706.04,889.927 719.272,895.09 731.183,896.612 749.38,890.236 758,880.006 
					758,870.693 714.055,872.619 				"/>
				<polygon fill="#B3732A" points="764.96,861.379 773.455,864.721 776.661,863.05 786.294,863.05 774.256,871.555 
					762.612,871.555 755.188,874.291 707.643,881.422 707.038,880.006 758.605,864.573 				"/>
				<polygon fill="#2F525E" points="683.315,831.405 683.315,853.779 698.01,869.426 749.38,861.379 724.489,828.871 				"/>
				<polygon fill="#551721" points="749.38,861.379 751.784,863.05 699.81,871.555 698.01,869.426 				"/>
				<polygon fill="#DDD1C5" points="699.81,871.555 707.038,880.006 751.784,873.524 764.96,861.379 751.784,863.05 				"/>
				<polygon fill="#B3732A" points="762.612,871.555 759.209,875.503 764.96,874.291 772.049,876.409 778.264,876.409 
					782.483,877.175 775.86,882.487 765.833,885.222 750.378,896.005 735.936,899.954 718.372,899.347 703.916,895.398 
					706.04,889.927 722.084,893.12 735.332,893.12 746.666,890.236 755.188,874.291 				"/>
				<polygon fill="#B3732A" points="729.116,915.442 731.211,917.187 729.116,918.859 698.108,916.431 697.11,914.388 
					699.81,913.324 				"/>
				<polygon fill="#1A532B" points="729.116,918.859 736.527,922.051 729.805,923.723 703.916,922.201 697.714,920.231 
					698.108,916.431 				"/>
			</g>
			<polygon fill="#B3732A" points="683.342,772.478 683.342,786.198 667.326,786.198 646.88,774.553 645.53,768.23 656.569,770.956 
							"/>
			<polygon fill="#B3732A" points="683.342,772.478 683.342,786.198 699.346,786.198 719.792,774.553 721.142,768.23 
				710.117,770.956 			"/>
			<polygon fill="#2F525E" points="635.503,754.755 628.205,765.389 646.88,765.389 646.88,769.742 670.729,782.504 
				683.342,772.478 683.342,767.315 667.045,754.755 			"/>
			<polygon fill="#2F525E" points="731.169,754.755 738.467,765.389 719.792,765.389 719.792,769.742 695.943,782.504 
				683.342,772.478 683.342,767.315 699.641,754.755 			"/>
			<polygon fill="#CE9F68" points="683.342,705.759 683.342,695.423 677.367,695.423 659.971,708.74 658.284,711.869 
				680.235,708.388 			"/>
			<polygon fill="#CE9F68" points="683.342,705.759 683.342,695.423 689.32,695.423 706.714,708.74 708.402,711.869 
				686.451,708.388 			"/>
			<rect x="682.007" y="741.045" fill="#183820" width="4.204" height="10.953"/>
			<polygon fill="#B3732A" points="660.787,716.754 660.407,719.064 657.735,717.915 654.023,710.804 650.676,710.112 
				651.618,711.869 652.223,718.521 654.487,722.406 653.151,722.108 655.359,728.186 660.407,729.847 663.979,728.388 
				663.979,718.521 			"/>
			<polygon fill="#B3732A" points="705.927,716.85 706.32,719.159 708.993,718.01 712.705,710.9 716.038,710.208 715.11,711.964 
				714.505,718.617 712.227,722.503 713.563,722.205 711.37,728.271 706.32,729.943 702.749,728.474 702.749,718.617 			"/>
			<polygon fill="#B3732A" points="660.407,714.903 658.284,711.869 661.518,708.44 674.245,705.759 683.342,705.759 
				683.342,709.452 683.342,711.326 			"/>
			<polygon fill="#B3732A" points="706.278,714.903 708.402,711.869 705.182,708.44 692.455,705.759 683.342,705.759 
				683.342,709.452 683.342,711.326 			"/>
			<polygon fill="#183820" points="683.342,741.854 683.342,751.987 668.972,751.987 668.972,741.588 683.455,741.588 			"/>
			<polygon fill="#183820" points="683.455,741.854 683.455,751.987 697.841,751.987 697.841,741.588 683.342,741.588 			"/>
			<polygon fill="#396335" points="683.273,723.727 682.823,724.727 683.371,724.653 683.905,724.727 683.905,723.567 			"/>
			<polygon fill="#396335" points="682.921,709.452 684.102,709.452 684.102,714.295 682.007,712.188 			"/>
			<path fill="#396335" d="M662.91,727.004l-2.503-12.103c0,0,3.094-5.45,22.936-5.45l0.028,17.553H662.91z"/>
			<path fill="#396335" d="M703.831,727.004l2.503-12.103c0,0-3.094-5.45-22.936-5.45l-0.028,17.553H703.831z"/>
			<path fill="#D4A06B" d="M662.137,731.017l-4.402-0.223c0,0,1.604,7.11,7.72,11.059s3.066,2.586,17.888,0v-10.198L662.137,731.017
				z"/>
			<path fill="#D4A06B" d="M704.549,731.017l4.402-0.223c0,0-1.604,7.11-7.72,11.059s-3.066,2.586-17.887,0v-10.198L704.549,731.017
				z"/>
			<path fill="#B6D39D" d="M662.32,732.284c0,0-1.983-9.516,5.4-9.868l6.046,4.098c0,0-2.082,2.586-2.278,2.831
				c-0.197,0.255-8.072,2.938-8.072,2.938H662.32L662.32,732.284z"/>
			<path fill="#B6D39D" d="M704.436,732.284c0,0,1.983-9.516-5.4-9.868l-6.046,4.098c0,0,2.082,2.586,2.278,2.831
				c0.197,0.255,8.072,2.938,8.072,2.938H704.436L704.436,732.284z"/>
			<polygon fill="#D4A06B" points="683.371,713.221 682.921,718.393 683.146,718.575 684.102,718.425 683.947,716.648 			"/>
			<polygon fill="#D4A06B" points="683.342,718.074 683.455,713.221 681.613,713.221 682.218,718.788 			"/>
			<polygon fill="#D4A06B" points="683.483,718.074 683.371,713.221 685.214,713.221 684.623,718.788 			"/>
			<path fill="#396335" d="M665.554,732.284h-5.512c0,0,4.289,9.26,10.364,10.634s3.164-2.661,13.05-2.501l0.309-8.409
				L665.554,732.284z"/>
			<path fill="#396335" d="M701.315,732.284h5.512c0,0-4.289,9.26-10.364,10.634c-6.089,1.362-3.164-2.661-13.05-2.501l-0.309-8.409
				L701.315,732.284z"/>
			<path fill="#A7BDA4" d="M682.541,717.479c0,0-2.334,0.308-3.938-1.597c-1.604-1.895-4.063-4.864-6.623-5.046
				c-2.56-0.181-2.179,0.649-2.179,0.649s-3.333,0.724-4.19,3.267c-0.858,2.544-1.336,3.417-2.7,2.203
				c-1.364-1.214-4.022-3.875-4.626-1.554c0,0,3.01,1.32,4.008,2.693c0.999,1.374,4.008,0.149,4.317-0.798
				c0.295-0.947,1.406-4.141,4.486-4.481C674.189,712.465,677.493,719.639,682.541,717.479z"/>
			<path fill="#A7BDA4" d="M684.299,717.479c0,0,2.334,0.308,3.938-1.597c1.604-1.895,4.063-4.864,6.623-5.046
				c2.56-0.181,2.179,0.649,2.179,0.649s3.333,0.724,4.19,3.267c0.858,2.544,1.336,3.417,2.7,2.203
				c1.364-1.214,4.022-3.875,4.626-1.554c0,0-3.01,1.32-4.008,2.693c-0.999,1.374-4.008,0.149-4.317-0.798
				c-0.295-0.947-1.406-4.141-4.486-4.481C692.638,712.465,689.334,719.639,684.299,717.479z"/>
			<path fill="#130F0D" d="M679.476,720.554c0,0-6.708-7.366-8.381-2.256l3.135,0.894L679.476,720.554z"/>
			<path fill="#9E9E8A" d="M679.476,720.554c0,0-5.948-5.982-8.733-1.799c-2.798,4.183,1.491,5.822,1.491,5.822
				S675.595,722.034,679.476,720.554z"/>
			<ellipse fill="#363732" cx="674.245" cy="720.725" rx="2.264" ry="1.958"/>
			<g>
				<path fill="#130F0D" d="M687.21,720.565c0,0,6.708-7.365,8.381-2.256l-3.135,0.894L687.21,720.565z"/>
				<path fill="#9E9E8A" d="M687.21,720.565c0,0,5.949-5.982,8.733-1.799c2.798,4.183-1.491,5.822-1.491,5.822
					S691.091,722.045,687.21,720.565z"/>
				<ellipse fill="#363732" cx="692.455" cy="720.736" rx="2.264" ry="1.958"/>
			</g>
			<path fill="#C8DCC9" d="M683.357,734.126l0.014,1.054c0,0-2.264-2.831-6.075-0.255c-3.811,2.586-8.832,3.395-11.911,0.458
				c-3.08-2.938-5.02-11.134,4.95-8.962c9.97,2.182,12.629,5.567,12.629,5.567L683.357,734.126z"/>
			<path fill="#C8DCC9" d="M683.385,734.136l-0.014,1.054c0,0,2.264-2.831,6.075-0.255c3.811,2.586,8.832,3.395,11.911,0.458
				c3.08-2.938,5.02-11.134-4.95-8.962c-9.97,2.182-12.629,5.567-12.629,5.567L683.385,734.136z"/>
			<path fill="#183820" d="M683.371,734.221v-7.217c0,0-12.192-0.533-14.245-0.756c-2.053-0.223-6.371-0.149-4.809,5.237
				c1.561,5.397,7.228,5.131,11.939,2.736C680.966,731.827,683.371,734.221,683.371,734.221z"/>
			<path fill="#183820" d="M683.371,734.221v-7.217c0,0,12.191-0.533,14.245-0.756c2.053-0.223,6.371-0.149,4.809,5.237
				c-1.561,5.386-7.228,5.131-11.939,2.736C685.775,731.827,683.371,734.221,683.371,734.221z"/>
			<path fill="#551721" d="M683.371,724.653v2.693l-9.787-1.352c0,0,0.099-2.416,2.11-2.033
				C677.704,724.343,681.065,725.067,683.371,724.653z"/>
			<path fill="#551721" d="M683.371,730.198v-2.47c0,0-9.098,0.16-9.379,0c-0.281-0.16-2.25,0.649-3.614,0.649
				s-3.01,1.479-2.306,3.64s4.261,2.31,6.427,1.086c2.152-1.234,1.406-3.353,2.377-3.47
				C677.845,729.507,683.371,730.198,683.371,730.198z"/>
			<path fill="#551721" d="M683.371,724.653v2.693l9.788-1.352c0,0-0.099-2.416-2.11-2.033
				C689.039,724.343,685.678,725.067,683.371,724.653z"/>
			<path fill="#551721" d="M683.371,730.198v-2.47c0,0,9.098,0.16,9.379,0c0.281-0.16,2.25,0.649,3.614,0.649
				c1.35,0,3.01,1.479,2.306,3.64s-4.261,2.31-6.427,1.086c-2.152-1.234-1.406-3.353-2.377-3.47
				C688.884,729.507,683.371,730.198,683.371,730.198z"/>
			<path fill="#130F0D" d="M694.522,728.538l-2.601-0.809h-8.55h-8.55l-2.602,0.809c-3.361-0.053-3.74,1.011-3.613,2.884
				c0.141,1.873,4.008,1.927,5.485,1.362s1.8-2.991,3.276-3.395c1.477-0.405,6.004,0.405,6.004,0.405s4.528-0.809,6.004-0.405
				c1.477,0.405,1.8,2.831,3.276,3.395c1.477,0.553,5.344,0.511,5.485-1.362C698.263,729.549,697.883,728.484,694.522,728.538z"/>
			<rect x="678.604" y="726.515" fill="#DBC3A2" width="9.534" height="1.672"/>
			<polygon fill="#D4A06B" points="678.604,726.515 674.484,725.217 673.289,727.345 675.946,728.793 678.604,728.186 			"/>
			<path fill="#DBC3A2" d="M671.278,717.479c0,0-9.225,4.406,2.011,9.868l1.209-2.128
				C674.484,725.217,668.071,723.928,671.278,717.479z"/>
			<polygon fill="#D4A06B" points="688.138,726.515 692.245,725.217 693.453,727.345 690.796,728.793 688.138,728.186 			"/>
			<path fill="#DBC3A2" d="M695.451,717.479c0,0,9.225,4.406-2.011,9.868l-1.209-2.128
				C692.245,725.217,698.671,723.928,695.451,717.479z"/>
			<polygon fill="#C8DCC9" points="683.371,734.221 683.342,734.201 683.357,735.169 683.371,735.18 683.371,735.18 
				683.455,734.711 683.413,734.179 			"/>
			<ellipse fill="#1A532B" cx="683.342" cy="721.001" rx="3.867" ry="2.927"/>
			<rect x="677.367" y="690.974" fill="#183820" width="5.976" height="4.46"/>
			<rect x="683.342" y="690.974" fill="#183820" width="5.976" height="4.46"/>
			<g>
				<polygon fill="#CE9F68" points="683.342,678.083 683.342,673.996 680.966,673.996 674.09,679.265 673.415,680.51 
					682.105,679.127 				"/>
				<polygon fill="#CE9F68" points="683.342,678.083 683.342,673.996 685.705,673.996 692.596,679.265 693.257,680.51 
					684.567,679.127 				"/>
				<polygon fill="#B3732A" points="674.413,682.437 674.258,683.352 673.19,682.894 671.728,680.085 670.406,679.808 
					670.772,680.51 671.01,683.139 671.91,684.683 671.376,684.556 672.262,686.961 674.258,687.62 675.665,687.046 
					675.665,683.139 				"/>
				<polygon fill="#B3732A" points="692.287,682.479 692.441,683.395 693.496,682.937 694.958,680.116 696.294,679.84 
					695.915,680.543 695.676,683.172 694.775,684.714 695.31,684.598 694.438,687.004 692.441,687.663 691.021,687.077 
					691.021,683.172 				"/>
				<polygon fill="#B3732A" points="674.258,681.702 673.415,680.51 674.695,679.147 679.729,678.083 683.342,678.083 
					683.342,679.542 683.342,680.286 				"/>
				<polygon fill="#B3732A" points="692.427,681.702 693.257,680.51 691.977,679.147 686.943,678.083 683.342,678.083 
					683.342,679.542 683.342,680.286 				"/>
				<polygon fill="#396335" points="683.315,685.194 683.132,685.598 683.342,685.566 683.568,685.598 683.568,685.14 				"/>
				<polygon fill="#396335" points="683.174,679.542 683.638,679.542 683.638,681.468 682.809,680.628 				"/>
				<path fill="#396335" d="M675.243,686.492l-0.984-4.789c0,0,1.223-2.161,9.084-2.161l0.014,6.951h-8.114V686.492z"/>
				<path fill="#396335" d="M691.442,686.492l0.984-4.789c0,0-1.223-2.161-9.084-2.161l-0.014,6.951h8.114V686.492z"/>
				<path fill="#D4A06B" d="M674.948,688.089l-1.743-0.085c0,0,0.633,2.821,3.066,4.386c2.419,1.565,1.209,1.022,7.087,0v-4.035
					L674.948,688.089z"/>
				<path fill="#D4A06B" d="M691.738,688.089l1.743-0.085c0,0-0.633,2.821-3.066,4.386c-2.419,1.565-1.209,1.022-7.087,0v-4.035
					L691.738,688.089z"/>
				<path fill="#B6D39D" d="M675.004,688.589c0,0-0.787-3.768,2.138-3.907l2.391,1.629c0,0-0.829,1.022-0.9,1.117
					c-0.085,0.096-3.192,1.161-3.192,1.161L675.004,688.589L675.004,688.589z"/>
				<path fill="#B6D39D" d="M691.696,688.589c0,0,0.787-3.768-2.138-3.907l-2.391,1.629c0,0,0.829,1.022,0.9,1.117
					c0.085,0.096,3.192,1.161,3.192,1.161L691.696,688.589L691.696,688.589z"/>
				<polygon fill="#D4A06B" points="683.342,681.042 683.174,683.086 683.259,683.161 683.638,683.097 683.582,682.394 				"/>
				<polygon fill="#D4A06B" points="683.342,682.959 683.385,681.042 682.654,681.042 682.893,683.246 				"/>
				<polygon fill="#D4A06B" points="683.399,682.959 683.342,681.042 684.074,681.042 683.835,683.246 				"/>
				<path fill="#396335" d="M676.297,688.589h-2.179c0,0,1.701,3.672,4.106,4.215c2.405,0.543,1.251-1.054,5.175-0.989l0.127-3.332
					L676.297,688.589z"/>
				<path fill="#396335" d="M690.459,688.589h2.179c0,0-1.701,3.672-4.106,4.215c-2.405,0.543-1.251-1.054-5.175-0.989l-0.127-3.332
					L690.459,688.589z"/>
				<path fill="#A7BDA4" d="M683.019,682.724c0,0-0.928,0.117-1.561-0.628c-0.633-0.756-1.604-1.927-2.616-2.001
					c-1.013-0.075-0.858,0.255-0.858,0.255s-1.322,0.288-1.66,1.288c-0.337,1.011-0.535,1.352-1.069,0.873
					c-0.535-0.479-1.589-1.532-1.828-0.618c0,0,1.195,0.521,1.589,1.064s1.589,0.064,1.701-0.32
					c0.113-0.373,0.549-1.639,1.772-1.777C679.715,680.734,681.022,683.575,683.019,682.724z"/>
				<path fill="#A7BDA4" d="M683.709,682.724c0,0,0.928,0.117,1.561-0.628c0.633-0.756,1.604-1.927,2.616-2.001
					c1.013-0.075,0.858,0.255,0.858,0.255s1.322,0.288,1.66,1.288c0.337,1.011,0.534,1.352,1.069,0.873
					c0.535-0.479,1.589-1.532,1.828-0.618c0,0-1.195,0.521-1.589,1.064s-1.589,0.064-1.701-0.32
					c-0.113-0.373-0.549-1.639-1.771-1.777C687.014,680.734,685.705,683.575,683.709,682.724z"/>
				<path fill="#130F0D" d="M681.811,683.938c0,0-2.657-2.916-3.319-0.894l1.237,0.351L681.811,683.938z"/>
				<path fill="#9E9E8A" d="M681.811,683.938c0,0-2.348-2.373-3.46-0.713c-1.111,1.66,0.591,2.31,0.591,2.31
					S680.263,684.523,681.811,683.938z"/>
				<ellipse fill="#363732" cx="679.729" cy="684.013" rx="0.9" ry="0.777"/>
				<g>
					<path fill="#130F0D" d="M684.861,683.948c0,0,2.657-2.916,3.319-0.894l-1.237,0.351L684.861,683.948z"/>
					<path fill="#9E9E8A" d="M684.861,683.948c0,0,2.348-2.373,3.46-0.713c1.111,1.66-0.591,2.31-0.591,2.31
						S686.409,684.534,684.861,683.948z"/>
					<ellipse fill="#363732" cx="686.943" cy="684.013" rx="0.9" ry="0.777"/>
				</g>
				<path fill="#C8DCC9" d="M683.342,689.324v0.415c0,0-0.9-1.117-2.405-0.096c-1.505,1.022-3.502,1.341-4.711,0.181
					c-1.223-1.16-1.983-4.406,1.955-3.545c3.952,0.862,5.006,2.203,5.006,2.203L683.342,689.324z"/>
				<path fill="#C8DCC9" d="M683.357,689.324v0.415c0,0,0.9-1.117,2.405-0.096c1.505,1.022,3.502,1.341,4.711,0.181
					c1.223-1.16,1.983-4.406-1.955-3.545c-3.952,0.862-5.006,2.203-5.006,2.203L683.357,689.324z"/>
				<path fill="#183820" d="M683.342,689.355v-2.853c0,0-4.824-0.213-5.639-0.298c-0.815-0.085-2.517-0.064-1.912,2.076
					c0.605,2.14,2.855,2.033,4.725,1.086C682.386,688.419,683.342,689.355,683.342,689.355z"/>
				<path fill="#183820" d="M683.342,689.355v-2.853c0,0,4.824-0.213,5.639-0.298c0.815-0.085,2.518-0.064,1.912,2.076
					c-0.605,2.14-2.855,2.033-4.725,1.086C684.299,688.419,683.342,689.355,683.342,689.355z"/>
				<path fill="#551721" d="M683.342,685.566v1.064l-3.867-0.533c0,0,0.042-0.958,0.829-0.809
					C681.107,685.449,682.428,685.726,683.342,685.566z"/>
				<path fill="#551721" d="M683.342,687.759v-0.979c0,0-3.599,0.064-3.712,0c-0.113-0.063-0.886,0.255-1.434,0.255
					s-1.195,0.586-0.914,1.447c0.281,0.862,1.688,0.916,2.546,0.426c0.858-0.49,0.549-1.331,0.942-1.374
					C681.163,687.493,683.342,687.759,683.342,687.759z"/>
				<path fill="#551721" d="M683.342,685.566v1.064l3.867-0.533c0,0-0.042-0.958-0.829-0.809
					C685.593,685.449,684.258,685.726,683.342,685.566z"/>
				<path fill="#551721" d="M683.342,687.759v-0.979c0,0,3.599,0.064,3.712,0c0.113-0.063,0.886,0.255,1.434,0.255
					s1.195,0.586,0.914,1.447c-0.281,0.862-1.688,0.916-2.546,0.426c-0.858-0.49-0.549-1.331-0.942-1.374
					C685.537,687.493,683.342,687.759,683.342,687.759z"/>
				<path fill="#130F0D" d="M687.758,687.099l-1.027-0.32h-3.389h-3.389l-1.027,0.32c-1.336-0.022-1.477,0.405-1.434,1.139
					s1.589,0.766,2.165,0.543c0.577-0.223,0.718-1.182,1.293-1.341c0.577-0.16,2.377,0.16,2.377,0.16s1.8-0.32,2.377-0.16
					c0.577,0.16,0.717,1.117,1.293,1.341c0.577,0.223,2.124,0.202,2.165-0.543C689.249,687.503,689.094,687.077,687.758,687.099z"/>
				<rect x="681.458" y="686.301" fill="#DBC3A2" width="3.769" height="0.66"/>
				<polygon fill="#D4A06B" points="681.458,686.301 679.828,685.79 679.35,686.631 680.404,687.205 681.458,686.961 				"/>
				<path fill="#DBC3A2" d="M678.561,682.724c0,0-3.656,1.745,0.801,3.907l0.478-0.841
					C679.828,685.79,677.282,685.279,678.561,682.724z"/>
				<polygon fill="#D4A06B" points="685.241,686.301 686.858,685.79 687.337,686.631 686.282,687.205 685.241,686.961 				"/>
				<path fill="#DBC3A2" d="M688.138,682.724c0,0,3.656,1.745-0.801,3.907l-0.478-0.841
					C686.858,685.79,689.404,685.279,688.138,682.724z"/>
				<polygon fill="#C8DCC9" points="683.342,689.355 683.342,689.345 683.342,689.728 683.342,689.738 683.342,689.738 
					683.385,689.547 683.371,689.335 				"/>
				<ellipse fill="#1A532B" cx="683.342" cy="684.118" rx="1.533" ry="1.161"/>
			</g>
			<rect x="680.966" y="671.176" fill="#183820" width="4.739" height="2.811"/>
			<g>
				<polygon fill="#CE9F68" points="683.371,665.64 683.371,663.959 682.386,663.959 679.56,666.13 679.279,666.641 
					682.864,666.066 				"/>
				<polygon fill="#CE9F68" points="683.371,665.64 683.371,663.959 684.341,663.959 687.182,666.13 687.449,666.641 
					683.877,666.066 				"/>
				<polygon fill="#B3732A" points="679.687,667.429 679.63,667.812 679.194,667.62 678.589,666.46 678.042,666.353 
					678.196,666.641 678.295,667.716 678.66,668.355 678.436,668.302 678.801,669.291 679.63,669.567 680.207,669.323 
					680.207,667.716 				"/>
				<polygon fill="#B3732A" points="687.042,667.449 687.112,667.822 687.548,667.641 688.152,666.481 688.7,666.364 
					688.547,666.651 688.448,667.737 688.083,668.365 688.293,668.323 687.927,669.312 687.112,669.579 686.535,669.344 
					686.535,667.737 				"/>
				<polygon fill="#B3732A" points="679.63,667.131 679.279,666.641 679.799,666.077 681.881,665.64 683.371,665.64 
					683.371,666.237 683.371,666.545 				"/>
				<polygon fill="#B3732A" points="687.112,667.131 687.449,666.641 686.929,666.077 684.847,665.64 683.371,665.64 
					683.371,666.237 683.371,666.545 				"/>
				<polygon fill="#396335" points="683.357,668.568 683.287,668.727 683.371,668.716 683.455,668.727 683.455,668.546 				"/>
				<polygon fill="#396335" points="683.301,666.237 683.483,666.237 683.483,667.034 683.146,666.683 				"/>
				<path fill="#396335" d="M680.038,669.099l-0.408-1.97c0,0,0.506-0.884,3.74-0.884v2.863h-3.333L680.038,669.099L680.038,669.099
					z"/>
				<path fill="#396335" d="M686.703,669.099l0.408-1.97c0,0-0.506-0.884-3.74-0.884v2.863h3.333L686.703,669.099L686.703,669.099z"
					/>
				<path fill="#D4A06B" d="M679.912,669.759l-0.718-0.032c0,0,0.267,1.161,1.265,1.799c0.998,0.639,0.506,0.426,2.911,0v-1.66
					L679.912,669.759z"/>
				<path fill="#D4A06B" d="M686.816,669.759l0.718-0.032c0,0-0.267,1.161-1.265,1.799c-0.999,0.639-0.506,0.426-2.911,0v-1.66
					L686.816,669.759z"/>
				<path fill="#B6D39D" d="M679.94,669.962c0,0-0.323-1.554,0.886-1.607l0.984,0.671c0,0-0.337,0.426-0.365,0.458
					c-0.028,0.043-1.322,0.479-1.322,0.479L679.94,669.962L679.94,669.962z"/>
				<path fill="#B6D39D" d="M686.802,669.962c0,0,0.323-1.554-0.886-1.607l-0.984,0.671c0,0,0.337,0.426,0.365,0.458
					c0.028,0.043,1.322,0.479,1.322,0.479H686.802z"/>
				<polygon fill="#D4A06B" points="683.371,666.853 683.301,667.694 683.328,667.727 683.483,667.705 683.469,667.418 				"/>
				<polygon fill="#D4A06B" points="683.371,667.652 683.385,666.853 683.076,666.853 683.174,667.759 				"/>
				<polygon fill="#D4A06B" points="683.385,667.652 683.371,666.853 683.667,666.853 683.568,667.759 				"/>
				<path fill="#396335" d="M680.46,669.962h-0.9c0,0,0.704,1.512,1.687,1.735c0.984,0.223,0.52-0.436,2.124-0.405l0.056-1.374
					L680.46,669.962z"/>
				<path fill="#396335" d="M686.296,669.962h0.9c0,0-0.704,1.512-1.687,1.735c-0.984,0.223-0.52-0.436-2.124-0.405l-0.056-1.374
					L686.296,669.962z"/>
				<path fill="#A7BDA4" d="M683.231,667.546c0,0-0.379,0.053-0.647-0.255c-0.267-0.308-0.661-0.788-1.083-0.819
					c-0.422-0.032-0.351,0.106-0.351,0.106s-0.549,0.117-0.69,0.533c-0.141,0.415-0.224,0.553-0.436,0.362
					c-0.224-0.202-0.661-0.628-0.759-0.255c0,0,0.492,0.213,0.661,0.436c0.169,0.223,0.661,0.022,0.704-0.128
					s0.226-0.671,0.731-0.734C681.867,666.736,682.414,667.907,683.231,667.546z"/>
				<path fill="#A7BDA4" d="M683.526,667.546c0,0,0.379,0.053,0.647-0.255c0.267-0.308,0.661-0.788,1.083-0.819
					c0.422-0.032,0.351,0.106,0.351,0.106s0.549,0.117,0.69,0.533c0.141,0.415,0.224,0.553,0.436,0.362
					c0.226-0.202,0.661-0.628,0.759-0.255c0,0-0.492,0.213-0.661,0.436c-0.169,0.223-0.661,0.022-0.704-0.128
					s-0.224-0.671-0.731-0.734C684.875,666.736,684.341,667.907,683.526,667.546z"/>
				<path fill="#130F0D" d="M682.739,668.045c0,0-1.097-1.202-1.364-0.373l0.506,0.149L682.739,668.045z"/>
				<path fill="#9E9E8A" d="M682.739,668.045c0,0-0.97-0.979-1.42-0.298c-0.45,0.681,0.238,0.947,0.238,0.947
					S682.105,668.29,682.739,668.045z"/>
				<ellipse fill="#363732" cx="681.881" cy="668.077" rx="0.362" ry="0.32"/>
				<g>
					<path fill="#130F0D" d="M683.99,668.057c0,0,1.097-1.203,1.364-0.373l-0.506,0.149L683.99,668.057z"/>
					<path fill="#9E9E8A" d="M683.99,668.057c0,0,0.97-0.979,1.42-0.298c0.45,0.681-0.238,0.947-0.238,0.947
						S684.623,668.29,683.99,668.057z"/>
					<ellipse fill="#363732" cx="684.847" cy="668.077" rx="0.362" ry="0.32"/>
				</g>
				<path fill="#C8DCC9" d="M683.371,670.27v0.17c0,0-0.365-0.458-0.984-0.043c-0.619,0.426-1.434,0.553-1.941,0.075
					c-0.506-0.479-0.815-1.82,0.801-1.459c1.632,0.351,2.053,0.904,2.053,0.904L683.371,670.27z"/>
				<path fill="#C8DCC9" d="M683.371,670.27v0.17c0,0,0.365-0.458,0.984-0.043c0.619,0.426,1.434,0.553,1.941,0.075
					c0.506-0.479,0.815-1.82-0.801-1.459c-1.632,0.351-2.053,0.904-2.053,0.904L683.371,670.27z"/>
				<path fill="#183820" d="M683.371,670.281v-1.182c0,0-1.983-0.085-2.32-0.128c-0.337-0.043-1.041-0.022-0.787,0.851
					c0.253,0.884,1.182,0.841,1.941,0.448C682.977,669.887,683.371,670.281,683.371,670.281z"/>
				<path fill="#183820" d="M683.371,670.281v-1.182c0,0,1.983-0.085,2.32-0.128c0.337-0.032,1.041-0.022,0.787,0.851
					c-0.253,0.884-1.182,0.841-1.941,0.448C683.765,669.887,683.371,670.281,683.371,670.281z"/>
				<path fill="#551721" d="M683.371,668.716v0.436l-1.589-0.223c0,0,0.014-0.393,0.337-0.33
					C682.443,668.663,682.991,668.791,683.371,668.716z"/>
				<path fill="#551721" d="M683.371,669.621v-0.405c0,0-1.477,0.022-1.533,0c-0.056-0.022-0.365,0.106-0.591,0.106
					c-0.224,0-0.492,0.245-0.379,0.596c0.113,0.351,0.69,0.373,1.041,0.181s0.226-0.543,0.394-0.564
					C682.471,669.514,683.371,669.621,683.371,669.621z"/>
				<path fill="#551721" d="M683.371,668.716v0.436l1.589-0.223c0,0-0.014-0.393-0.337-0.33
					C684.299,668.663,683.751,668.791,683.371,668.716z"/>
				<path fill="#551721" d="M683.371,669.621v-0.405c0,0,1.477,0.022,1.533,0c0.042-0.022,0.365,0.106,0.591,0.106
					s0.492,0.245,0.379,0.596s-0.69,0.373-1.041,0.181c-0.351-0.203-0.226-0.543-0.394-0.564
					C684.271,669.514,683.371,669.621,683.371,669.621z"/>
				<path fill="#130F0D" d="M685.186,669.354l-0.422-0.128h-1.392h-1.392l-0.422,0.128c-0.549-0.01-0.605,0.17-0.591,0.468
					c0.028,0.308,0.661,0.308,0.9,0.223c0.238-0.096,0.295-0.49,0.535-0.553c0.238-0.063,0.984,0.064,0.984,0.064
					s0.745-0.128,0.984-0.064c0.238,0.064,0.295,0.458,0.535,0.553c0.238,0.095,0.872,0.085,0.9-0.223
					C685.804,669.514,685.733,669.344,685.186,669.354z"/>
				<rect x="682.598" y="669.025" fill="#DBC3A2" width="1.561" height="0.277"/>
				<polygon fill="#D4A06B" points="682.598,669.025 681.922,668.813 681.726,669.164 682.162,669.397 682.598,669.291 				"/>
				<path fill="#DBC3A2" d="M681.402,667.546c0,0-1.505,0.713,0.323,1.607l0.197-0.351
					C681.922,668.813,680.868,668.6,681.402,667.546z"/>
				<polygon fill="#D4A06B" points="684.145,669.025 684.819,668.813 685.016,669.164 684.581,669.397 684.145,669.291 				"/>
				<path fill="#DBC3A2" d="M685.34,667.546c0,0,1.505,0.713-0.323,1.607l-0.197-0.351C684.819,668.813,685.86,668.6,685.34,667.546
					z"/>
				<polygon fill="#C8DCC9" points="683.371,670.281 683.371,670.281 683.371,670.43 683.371,670.441 683.371,670.441 
					683.385,670.355 683.371,670.27 				"/>
				<ellipse fill="#1A532B" cx="683.371" cy="668.12" rx="0.633" ry="0.479"/>
			</g>
			<polygon fill="#B3732A" points="683.371,663.959 683.371,649.205 682.386,663.959 			"/>
			<polygon fill="#B3732A" points="683.371,663.959 683.371,649.205 684.341,663.959 			"/>
			<polygon fill="#B3732A" points="682.386,663.959 684.341,663.959 683.371,649.205 			"/>
			<polygon fill="#B3732A" points="732.012,738.66 718.231,751.987 683.371,751.987 683.315,751.987 648.441,751.987 
				634.673,738.66 631.721,737.553 634.139,745.749 635.475,754.755 648.441,761.237 655.134,768.23 668.873,763.972 
				683.245,770.146 683.315,770.146 683.371,770.146 683.427,770.146 697.799,763.972 711.538,768.23 718.231,761.237 
				731.211,754.755 732.547,745.749 734.951,737.553 			"/>
			<polygon fill="#DDD1C5" points="646.88,765.389 646.88,769.742 649.607,781.493 621.652,778.757 626.193,775.51 628.205,765.389 
							"/>
			<polygon fill="#B3732A" points="628.205,765.389 627.924,766.846 646.88,766.846 646.88,765.389 			"/>
			<polygon fill="#DDD1C5" points="719.792,765.377 719.792,769.732 717.065,781.482 745.02,778.747 740.464,775.5 738.467,765.377 
							"/>
			<polygon fill="#B3732A" points="738.467,765.377 738.748,766.836 719.792,766.836 719.792,765.377 			"/>
			<polygon fill="#183820" points="667.326,786.198 651.477,790.349 649.607,781.493 648.173,775.287 			"/>
			<polygon fill="#183820" points="699.346,786.198 715.195,790.349 717.065,781.493 718.513,775.287 			"/>
			<polygon fill="#1A532B" points="626.559,779.237 619.514,812.776 648.173,798.96 651.477,790.349 649.607,781.493 			"/>
			<polygon fill="#396335" points="677.1,808.976 635.503,821.282 626.742,821.282 619.514,817.184 619.514,812.776 
				629.147,804.655 648.173,798.96 669.801,793.638 			"/>
			<polygon fill="#396335" points="689.572,808.966 731.183,821.271 739.944,821.271 747.172,817.173 747.172,812.766 
				737.539,804.645 718.513,798.94 696.885,793.628 			"/>
			<polygon fill="#B3732A" points="683.342,828.871 642.183,828.871 669.801,831.607 660.041,847.403 642.183,849.829 
				631.721,851.459 625.8,855.301 635.629,854.087 649.607,856.919 664.429,853.279 673.668,844.572 678.238,831.405 
				683.342,831.405 			"/>
			<polygon fill="#B3732A" points="683.371,828.871 724.517,828.871 696.913,831.607 706.659,847.403 724.517,849.829 
				734.98,851.459 740.9,855.301 731.07,854.087 717.093,856.919 702.271,853.279 693.032,844.572 688.476,831.405 683.371,831.405 
							"/>
			<polyline fill="#DDD1C5" points="677.76,783.005 676.663,781.035 678.575,778.225 683.371,778.225 683.371,783.005 
				677.76,783.005 			"/>
			<polyline fill="#DDD1C5" points="688.968,783.005 690.078,781.035 688.166,778.225 683.371,778.225 683.371,783.005 
				688.968,783.005 			"/>
			<polygon fill="#F1F0F0" points="678.575,778.225 683.371,777.214 683.371,778.225 			"/>
			<polygon fill="#F1F0F0" points="688.166,778.225 683.371,777.214 683.371,778.225 			"/>
			<polygon fill="#F1F0F0" points="677.76,786.954 677.76,783.005 688.968,783.005 688.968,930.833 680.32,930.833 			"/>
			<polygon fill="#1A532B" points="690.431,807.167 682.71,804.932 679.406,802.047 694.452,798.737 			"/>
			<polygon fill="#396335" points="694.452,798.737 689.572,808.966 693.215,810.042 696.266,802.601 			"/>
			<polygon fill="#1A532B" points="679.039,805.432 695.957,798.397 697.363,797.588 690.078,796.374 677.1,798.96 675.989,804.655 
							"/>
			<polygon fill="#551721" points="651.477,790.349 667.326,786.198 677.76,786.198 677.76,787.241 667.326,787.337 
				651.477,791.638 			"/>
			<polygon fill="#551721" points="715.195,790.349 699.402,786.198 688.968,786.198 688.968,787.241 699.402,787.337 
				715.195,791.626 			"/>
			<polygon fill="#551721" points="621.652,778.757 626.193,775.51 648.623,777.214 649.607,781.493 			"/>
			<polygon fill="#551721" points="745.02,778.747 740.464,775.5 718.049,777.204 717.065,781.482 			"/>
			<polygon fill="#1A532B" points="646.88,769.742 627.347,769.742 626.996,771.498 647.287,771.498 			"/>
			<polygon fill="#1A532B" points="719.778,769.742 739.325,769.742 739.676,771.498 719.371,771.498 			"/>
			<polygon fill="#DDD1C5" points="683.455,751.987 648.441,751.987 634.673,738.66 633.379,738.181 635.629,745.568 
				637.148,754.755 648.96,760.353 655.359,766.964 668.972,763.014 683.441,769.061 			"/>
			<polygon fill="#DDD1C5" points="683.217,751.987 718.231,751.987 732.012,738.66 733.293,738.181 731.043,745.568 
				729.538,754.755 717.711,760.353 711.327,766.964 697.714,763.014 683.231,769.061 			"/>
			<polygon fill="#B3732A" points="651.477,793.628 667.326,789.413 677.522,789.413 675.173,790.7 667.326,790.7 651.477,794.98 
							"/>
			<polygon fill="#B3732A" points="651.477,796.417 667.326,792.201 677.522,792.201 675.173,793.489 667.326,793.489 
				651.477,797.768 			"/>
			<polygon fill="#1A532B" points="669.801,793.638 682.007,786.954 692.751,786.656 697.898,789.189 697.56,791.01 
				699.346,792.372 698.896,793.638 698.108,793.926 698.095,795.458 697.434,796.001 697.363,797.588 695.957,798.397 
				684.861,800.876 678.702,802.197 678.632,804.655 679.039,805.432 676.368,807.466 			"/>
			<polygon fill="#B3732A" points="626.264,780.62 649.93,783.005 650.339,784.932 625.899,782.366 			"/>
			<polygon fill="#B3732A" points="625.477,784.378 650.789,787.082 651.183,788.923 625.041,786.464 			"/>
			<polygon fill="#B3732A" points="624.591,788.614 651.253,790.967 650.549,792.777 624.154,790.69 			"/>
		</g>
		<rect x="581.349" y="930.61" fill="#B3732A" width="203.989" height="11.538"/>
	</g>
	<g>
		<g>
			<rect x="905.288" y="780.248" fill="#2F3029" width="3.726" height="121.963"/>
			<polygon fill="#2F3029" points="907.144,942.02 907.144,886.116 902.673,886.116 898.201,942.02 			"/>
			<polygon fill="#2F3029" points="906.892,942.02 906.892,886.116 911.378,886.116 915.849,942.02 			"/>
			<rect x="868.234" y="760.109" fill="#2F3029" width="77.821" height="20.139"/>
			<rect x="870.217" y="761.354" fill="#1074BC" width="73.855" height="17.648"/>
			<rect x="868.235" y="756.766" fill="#2F3029" width="1.983" height="26.824"/>
			<rect x="944.073" y="757.426" fill="#2F3029" width="1.983" height="26.824"/>
			<polygon fill="#2F3029" points="907.144,760.109 907.144,754.743 905.288,754.743 899.819,760.109 			"/>
			<polygon fill="#2F3029" points="907.144,760.109 907.144,754.743 909.016,754.743 914.485,760.109 			"/>
			<polygon fill="#2F3029" points="905.288,754.743 907.144,746.942 907.144,754.743 			"/>
			<polygon fill="#2F3029" points="909.016,754.743 907.144,746.942 907.144,754.743 			"/>
		</g>
		<g>
			<g>
				<path fill="#E5E5E5" d="M879.865,773.042h-0.745c-0.52,0.01-0.9,0.01-1.139,0.022c-0.211,0.01-0.365,0.022-0.464,0.022
					c-0.226,0-0.408-0.043-0.535-0.128c-0.127-0.085-0.197-0.192-0.197-0.308c0-0.075,0.028-0.138,0.07-0.181
					s0.169-0.117,0.351-0.213c0.113-0.053,0.183-0.138,0.226-0.266c0.042-0.128,0.085-0.373,0.127-0.766
					c0.07-0.606,0.099-1.352,0.099-2.246c0-0.33-0.028-0.543-0.085-0.649c-0.056-0.106-0.183-0.192-0.394-0.266
					c-0.239-0.075-0.365-0.192-0.365-0.341c0-0.117,0.07-0.223,0.226-0.298c0.141-0.075,0.337-0.117,0.563-0.117
					c0.127,0,0.281,0,0.478,0.01c0.323,0.01,0.675,0.022,1.055,0.022c0.281,0,0.815-0.01,1.632-0.022
					c0.253-0.01,0.478-0.01,0.69-0.01c0.492,0,0.886,0.032,1.182,0.085c0.295,0.063,0.563,0.16,0.787,0.298
					c0.365,0.235,0.535,0.543,0.535,0.926c0,0.192-0.056,0.383-0.155,0.564c-0.113,0.181-0.253,0.33-0.436,0.436
					c-0.127,0.075-0.197,0.149-0.197,0.213c0,0.075,0.07,0.128,0.226,0.17c0.309,0.096,0.577,0.245,0.829,0.468
					c0.253,0.223,0.379,0.511,0.379,0.851c0,0.405-0.197,0.766-0.577,1.096c-0.506,0.436-1.265,0.66-2.264,0.66
					c-0.141,0-0.478-0.01-0.999-0.022C880.272,773.052,879.976,773.052,879.865,773.042z M880.244,768.507v0.862
					c0,0.138,0.028,0.235,0.07,0.288c0.042,0.053,0.127,0.085,0.239,0.085c0.267,0,0.478-0.064,0.605-0.192
					c0.127-0.128,0.197-0.33,0.197-0.596c0-0.266-0.07-0.468-0.197-0.606c-0.127-0.138-0.323-0.213-0.563-0.213
					c-0.127,0-0.224,0.032-0.267,0.085C880.272,768.273,880.244,768.368,880.244,768.507z M880.244,770.913v0.394
					c0,0.362,0.028,0.606,0.099,0.724c0.07,0.117,0.211,0.181,0.422,0.181c0.563,0,0.844-0.245,0.844-0.745
					c0-0.618-0.309-0.926-0.942-0.926c-0.169,0-0.281,0.022-0.337,0.075C880.272,770.668,880.244,770.774,880.244,770.913z"/>
				<path fill="#E5E5E5" d="M892.028,770.157l1.041,1.692c0.099,0.16,0.183,0.255,0.253,0.308c0.07,0.053,0.169,0.085,0.309,0.095
					c0.267,0.032,0.394,0.128,0.394,0.308c0,0.202-0.155,0.351-0.492,0.436c-0.323,0.085-0.858,0.138-1.589,0.138
					c-0.829,0-1.448-0.022-1.856-0.075c-0.183-0.022-0.337-0.075-0.436-0.149c-0.113-0.075-0.169-0.17-0.169-0.277
					c0-0.085,0.028-0.149,0.085-0.192c0.056-0.043,0.169-0.085,0.323-0.128c0.169-0.043,0.267-0.117,0.267-0.223
					c0-0.192-0.155-0.298-0.45-0.33c-0.323-0.032-0.773-0.053-1.35-0.053c-0.492,0-0.787,0.022-0.872,0.064
					c-0.056,0.032-0.113,0.075-0.155,0.149c-0.042,0.075-0.07,0.138-0.07,0.213c0,0.064,0.014,0.107,0.042,0.117
					c0.028,0.022,0.141,0.053,0.309,0.085c0.224,0.053,0.337,0.149,0.337,0.298c0,0.33-0.52,0.5-1.575,0.5
					c-0.591,0-1.041-0.032-1.322-0.096c-0.253-0.053-0.379-0.192-0.379-0.383c0-0.085,0.028-0.149,0.085-0.202
					c0.056-0.053,0.155-0.085,0.309-0.128c0.238-0.064,0.422-0.149,0.549-0.266c0.127-0.117,0.295-0.362,0.535-0.745l0.773-1.288
					c0.281-0.479,0.478-0.831,0.577-1.064c0.099-0.234,0.155-0.468,0.155-0.691c0-0.245,0.028-0.405,0.056-0.5
					c0.028-0.096,0.113-0.181,0.238-0.277c0.253-0.192,0.577-0.288,0.97-0.288c0.365,0,0.731,0.107,1.069,0.33
					C890.453,767.837,891.142,768.709,892.028,770.157z M888.189,770.689h1.083c0.197,0,0.295-0.032,0.295-0.096
					c0-0.095-0.141-0.32-0.408-0.681c-0.127-0.16-0.224-0.277-0.295-0.33c-0.07-0.053-0.141-0.085-0.211-0.085
					c-0.127,0-0.238,0.095-0.337,0.277c-0.014,0.022-0.07,0.128-0.155,0.298c-0.155,0.288-0.226,0.458-0.226,0.511
					C887.936,770.657,888.021,770.689,888.189,770.689z"/>
				<path fill="#E5E5E5" d="M897.287,767.539l2.756,1.82c0.253,0.17,0.436,0.255,0.563,0.255c0.197,0,0.281-0.16,0.281-0.468
					c0-0.351-0.028-0.596-0.085-0.724c-0.056-0.128-0.169-0.223-0.351-0.288c-0.141-0.053-0.239-0.106-0.309-0.17
					c-0.056-0.064-0.085-0.138-0.085-0.235c0-0.235,0.211-0.383,0.633-0.448c0.169-0.032,0.478-0.043,0.9-0.043
					c0.549,0,0.942,0.022,1.154,0.075c0.337,0.075,0.506,0.223,0.506,0.448c0,0.181-0.141,0.32-0.422,0.405
					c-0.113,0.032-0.183,0.064-0.226,0.095c-0.042,0.032-0.07,0.075-0.099,0.128c-0.099,0.181-0.155,0.533-0.155,1.043v1.362
					c0,0.213,0,0.49,0,0.851c0,0.49-0.028,0.841-0.113,1.064c-0.099,0.266-0.281,0.405-0.549,0.405
					c-0.113,0-0.211-0.022-0.295-0.053c-0.085-0.032-0.224-0.117-0.408-0.255l-3.276-2.225c-0.226-0.16-0.422-0.235-0.563-0.235
					c-0.224,0-0.337,0.235-0.337,0.703c0,0.383,0.028,0.649,0.085,0.798c0.056,0.149,0.169,0.245,0.351,0.308
					c0.253,0.095,0.365,0.213,0.365,0.362c0,0.383-0.549,0.586-1.646,0.586c-0.492,0-0.886-0.053-1.154-0.148
					c-0.267-0.095-0.408-0.235-0.408-0.415c0-0.096,0.028-0.17,0.07-0.213c0.056-0.043,0.169-0.107,0.351-0.192
					c0.169-0.075,0.281-0.213,0.309-0.415c0.056-0.362,0.099-0.873,0.099-1.554c0-0.724-0.056-1.245-0.169-1.575
					c-0.042-0.117-0.099-0.213-0.155-0.266c-0.056-0.053-0.169-0.117-0.309-0.17c-0.169-0.064-0.281-0.117-0.351-0.181
					c-0.07-0.064-0.099-0.128-0.099-0.213c0-0.266,0.309-0.436,0.914-0.5c0.211-0.022,0.563-0.032,1.083-0.032
					c0.295,0,0.506,0.022,0.647,0.053C896.95,767.347,897.104,767.422,897.287,767.539z"/>
				<path fill="#E5E5E5" d="M907.75,767.229c0.478,0,0.942,0.053,1.364,0.16c0.197,0.043,0.323,0.075,0.394,0.075
					s0.224-0.032,0.464-0.096c0.07-0.022,0.155-0.032,0.238-0.032c0.211,0,0.408,0.096,0.591,0.277
					c0.295,0.298,0.45,0.618,0.45,0.969c0,0.245-0.085,0.436-0.239,0.586c-0.155,0.148-0.365,0.223-0.633,0.223
					c-0.211,0-0.422-0.053-0.633-0.17c-0.056-0.032-0.211-0.17-0.464-0.394c-0.408-0.373-0.872-0.564-1.392-0.564
					c-0.478,0-0.857,0.128-1.139,0.394c-0.281,0.266-0.422,0.618-0.422,1.076c0,0.671,0.226,1.234,0.675,1.703
					c0.169,0.17,0.365,0.308,0.605,0.405c0.239,0.106,0.464,0.149,0.704,0.149c0.197,0,0.351-0.053,0.478-0.149
					c0.127-0.096,0.183-0.223,0.183-0.373c0-0.138-0.056-0.223-0.155-0.288c-0.042-0.022-0.085-0.032-0.113-0.043
					c-0.028,0-0.141-0.01-0.323-0.01c-0.155,0-0.295-0.043-0.394-0.117c-0.099-0.075-0.155-0.17-0.155-0.288
					c0-0.235,0.197-0.393,0.605-0.49c0.45-0.107,0.956-0.16,1.547-0.16c0.619,0,1.139,0.053,1.561,0.149
					c0.408,0.096,0.605,0.266,0.605,0.511c0,0.096-0.042,0.192-0.141,0.266c-0.099,0.075-0.211,0.117-0.365,0.128
					c-0.127,0.01-0.211,0.032-0.253,0.064c-0.042,0.032-0.085,0.095-0.113,0.213c-0.155,0.448-0.464,0.809-0.928,1.107
					c-0.309,0.203-0.704,0.362-1.139,0.479c-0.436,0.117-0.914,0.17-1.406,0.17c-0.801,0-1.547-0.138-2.221-0.426
					c-0.69-0.288-1.223-0.691-1.575-1.203c-0.295-0.426-0.45-0.894-0.45-1.394s0.183-0.979,0.549-1.437
					c0.379-0.49,0.914-0.862,1.604-1.129C906.301,767.347,906.991,767.229,907.75,767.229z"/>
				<path fill="#E5E5E5" d="M918.873,768.486l-0.591,0.426c-0.226,0.16-0.323,0.298-0.323,0.426c0,0.075,0.028,0.138,0.07,0.213
					c0.056,0.075,0.141,0.16,0.281,0.288l2.068,1.81c0.183,0.16,0.309,0.266,0.379,0.308c0.07,0.043,0.169,0.085,0.309,0.138
					c0.197,0.064,0.337,0.138,0.422,0.213c0.085,0.075,0.127,0.181,0.127,0.308c0,0.298-0.281,0.448-0.829,0.448h-2.096
					c-0.141,0-0.253-0.022-0.337-0.075c-0.085-0.053-0.211-0.16-0.394-0.351c-0.281-0.298-0.661-0.639-1.139-1.032
					c-0.211-0.17-0.351-0.277-0.436-0.33c-0.085-0.053-0.155-0.075-0.224-0.075c-0.211,0-0.323,0.15-0.323,0.458
					c0,0.245,0.07,0.415,0.211,0.511c0.028,0.01,0.085,0.043,0.183,0.096c0.197,0.095,0.295,0.223,0.295,0.362
					c0,0.181-0.155,0.319-0.492,0.394c-0.323,0.075-0.872,0.117-1.632,0.117c-0.675,0-1.182-0.032-1.491-0.096
					c-0.127-0.032-0.238-0.075-0.323-0.149c-0.085-0.075-0.127-0.16-0.127-0.245c0-0.149,0.113-0.277,0.337-0.383
					c0.099-0.053,0.169-0.106,0.211-0.17c0.042-0.064,0.085-0.16,0.113-0.298c0.07-0.32,0.113-0.798,0.113-1.459
					c0-0.777-0.042-1.33-0.113-1.66c-0.028-0.138-0.07-0.235-0.127-0.288c-0.056-0.053-0.141-0.117-0.267-0.17
					c-0.211-0.085-0.309-0.213-0.309-0.373c0-0.138,0.07-0.245,0.197-0.32c0.127-0.085,0.337-0.138,0.619-0.181
					c0.379-0.053,0.844-0.085,1.406-0.085c0.577,0,1.013,0.043,1.279,0.128c0.253,0.075,0.379,0.213,0.379,0.415
					c0,0.085-0.014,0.15-0.056,0.192c-0.042,0.043-0.141,0.117-0.295,0.213c-0.056,0.043-0.113,0.128-0.169,0.277
					c-0.056,0.149-0.07,0.298-0.07,0.436c0,0.235,0.07,0.351,0.211,0.351c0.085,0,0.169-0.032,0.253-0.085
					c0.085-0.053,0.238-0.192,0.478-0.415c0.281-0.255,0.408-0.436,0.408-0.533c0-0.053-0.028-0.128-0.099-0.223
					c-0.042-0.075-0.07-0.138-0.07-0.192c0-0.202,0.141-0.351,0.436-0.436c0.295-0.085,0.801-0.128,1.505-0.128
					c0.563,0,0.984,0.032,1.265,0.085c0.337,0.075,0.506,0.213,0.506,0.448c0,0.085-0.028,0.17-0.099,0.245
					s-0.155,0.128-0.254,0.149c-0.07,0.022-0.253,0.032-0.535,0.032c-0.197,0-0.337,0.022-0.436,0.053
					C919.154,768.305,919.028,768.368,918.873,768.486z"/>
				<path fill="#E5E5E5" d="M925.666,767.229c0.942,0,1.771,0.202,2.475,0.618c0.478,0.277,0.872,0.649,1.168,1.096
					c0.295,0.448,0.436,0.894,0.436,1.341c0,0.66-0.281,1.246-0.858,1.767c-0.492,0.436-1.125,0.756-1.912,0.947
					c-0.478,0.117-0.97,0.181-1.448,0.181c-0.633,0-1.251-0.096-1.828-0.298c-0.704-0.245-1.251-0.606-1.646-1.096
					c-0.379-0.479-0.577-1.001-0.577-1.565c0-0.66,0.253-1.246,0.745-1.757c0.436-0.448,1.041-0.788,1.786-1.001
					C924.512,767.294,925.06,767.229,925.666,767.229z M925.145,768.422c-0.309,0-0.549,0.107-0.731,0.308
					c-0.141,0.16-0.211,0.341-0.211,0.553c0,0.32,0.085,0.681,0.253,1.096c0.169,0.415,0.379,0.777,0.647,1.096
					c0.113,0.138,0.253,0.245,0.422,0.33c0.169,0.085,0.337,0.117,0.506,0.117c0.281,0,0.506-0.075,0.675-0.235
					c0.169-0.16,0.253-0.373,0.253-0.628c0-0.341-0.07-0.703-0.211-1.096c-0.141-0.393-0.323-0.724-0.563-1.001
					c-0.141-0.17-0.309-0.308-0.492-0.405C925.525,768.486,925.341,768.433,925.145,768.422z"/>
				<path fill="#E5E5E5" d="M936.62,768.486l-0.591,0.426c-0.226,0.16-0.323,0.298-0.323,0.426c0,0.075,0.028,0.138,0.07,0.213
					c0.056,0.075,0.141,0.16,0.281,0.288l2.068,1.81c0.183,0.16,0.309,0.266,0.379,0.308c0.07,0.043,0.169,0.085,0.309,0.138
					c0.197,0.064,0.337,0.138,0.422,0.213c0.085,0.075,0.127,0.181,0.127,0.308c0,0.298-0.281,0.448-0.829,0.448h-2.096
					c-0.141,0-0.253-0.022-0.337-0.075c-0.085-0.043-0.211-0.16-0.394-0.351c-0.281-0.298-0.661-0.639-1.139-1.032
					c-0.211-0.17-0.351-0.277-0.436-0.33c-0.085-0.053-0.155-0.075-0.224-0.075c-0.211,0-0.323,0.15-0.323,0.458
					c0,0.245,0.07,0.415,0.211,0.511c0.028,0.01,0.085,0.043,0.183,0.096c0.197,0.095,0.295,0.223,0.295,0.362
					c0,0.181-0.169,0.319-0.492,0.394c-0.323,0.075-0.872,0.117-1.632,0.117c-0.675,0-1.182-0.032-1.491-0.096
					c-0.127-0.032-0.238-0.075-0.323-0.149c-0.085-0.075-0.127-0.16-0.127-0.245c0-0.149,0.113-0.277,0.337-0.383
					c0.099-0.053,0.169-0.106,0.211-0.17s0.085-0.16,0.113-0.298c0.07-0.32,0.113-0.798,0.113-1.459c0-0.777-0.042-1.33-0.113-1.66
					c-0.028-0.138-0.07-0.235-0.127-0.288c-0.056-0.053-0.141-0.117-0.267-0.17c-0.211-0.085-0.309-0.213-0.309-0.373
					c0-0.138,0.07-0.245,0.197-0.32c0.127-0.085,0.337-0.138,0.619-0.181c0.379-0.053,0.844-0.085,1.406-0.085
					c0.577,0,1.013,0.043,1.279,0.128c0.253,0.075,0.379,0.213,0.379,0.415c0,0.085-0.014,0.15-0.056,0.192
					c-0.042,0.043-0.141,0.117-0.295,0.213c-0.056,0.043-0.113,0.128-0.169,0.277c-0.056,0.149-0.07,0.298-0.07,0.436
					c0,0.235,0.07,0.351,0.211,0.351c0.085,0,0.169-0.032,0.254-0.085c0.085-0.053,0.238-0.192,0.478-0.415
					c0.281-0.255,0.408-0.436,0.408-0.533c0-0.053-0.028-0.128-0.099-0.223c-0.042-0.075-0.07-0.138-0.07-0.192
					c0-0.202,0.141-0.351,0.436-0.436c0.295-0.085,0.801-0.128,1.505-0.128c0.563,0,0.984,0.032,1.265,0.085
					c0.337,0.075,0.506,0.213,0.506,0.448c0,0.085-0.028,0.17-0.099,0.245s-0.155,0.128-0.253,0.149
					c-0.07,0.022-0.253,0.032-0.534,0.032c-0.197,0-0.337,0.022-0.436,0.053C936.901,768.305,936.774,768.368,936.62,768.486z"/>
			</g>
		</g>
	</g>
	<g opacity="0.25">
		
			<linearGradient id="SVGID_4_" gradientUnits="userSpaceOnUse" x1="-349.9808" y1="696.3817" x2="-339.5839" y2="696.3817" gradientTransform="matrix(0.3187 0 0 0.3187 826.8434 573.1276)">
			<stop  offset="0" style="stop-color:#FFCC7E"/>
			<stop  offset="1" style="stop-color:#F26768"/>
		</linearGradient>
		<polygon fill="url(#SVGID_4_)" points="715.362,790.87 715.362,791.946 715.362,793.947 715.362,795.299 715.362,796.725 
			715.362,798.087 715.362,798.45 718.667,799.258 715.77,791.711 		"/>
		
			<linearGradient id="SVGID_5_" gradientUnits="userSpaceOnUse" x1="-449.6947" y1="239.7989" x2="-449.6947" y2="239.7989" gradientTransform="matrix(0.3187 0 0 0.3187 826.8434 573.1276)">
			<stop  offset="0" style="stop-color:#FFCC7E"/>
			<stop  offset="1" style="stop-color:#F26768"/>
		</linearGradient>
		<polygon fill="url(#SVGID_5_)" points="683.526,649.525 683.526,649.525 683.526,649.578 		"/>
		
			<linearGradient id="SVGID_6_" gradientUnits="userSpaceOnUse" x1="-560.253" y1="696.0819" x2="-549.8617" y2="696.0819" gradientTransform="matrix(0.3187 0 0 0.3187 826.8434 573.1276)">
			<stop  offset="0" style="stop-color:#FFCC7E"/>
			<stop  offset="1" style="stop-color:#F26768"/>
		</linearGradient>
		<polygon fill="url(#SVGID_6_)" points="650.929,792.521 648.328,799.269 651.647,798.46 651.647,798.087 651.647,796.725 
			651.647,795.299 651.647,793.947 651.647,791.956 651.647,790.669 651.407,791.286 		"/>
		
			<linearGradient id="SVGID_7_" gradientUnits="userSpaceOnUse" x1="-628.0736" y1="651.2599" x2="-555.7089" y2="651.2599" gradientTransform="matrix(0.3187 0 0 0.3187 826.8434 573.1276)">
			<stop  offset="0" style="stop-color:#FFCC7E"/>
			<stop  offset="1" style="stop-color:#F26768"/>
		</linearGradient>
		<polygon fill="url(#SVGID_7_)" points="626.714,779.555 626.714,779.555 649.776,781.813 		"/>
		
			<linearGradient id="SVGID_8_" gradientUnits="userSpaceOnUse" x1="-772.7672" y1="699.3315" x2="-449.5887" y2="699.3315" gradientTransform="matrix(0.3187 0 0 0.3187 826.8434 573.1276)">
			<stop  offset="0" style="stop-color:#FFCC7E"/>
			<stop  offset="1" style="stop-color:#F26768"/>
		</linearGradient>
		<path fill="url(#SVGID_8_)" d="M683.526,649.578v-0.053l0,0l-0.97,14.754l-2.841,2.171l-0.281,0.511l0.351,0.49l0,0
			c-0.155-0.096-0.295-0.117-0.351,0.075c0,0,0.211,0.096,0.408,0.223l-0.056,0.373l-0.436-0.192l-0.605-1.16l-0.549-0.117
			l0.155,0.288l0.099,1.086l0.365,0.639l-0.226-0.053l0.365,0.989l0.829,0.277l0.267-0.117c0,0.117,0,0.213,0.014,0.298l0,0
			l-0.717-0.032c0,0,0.267,1.16,1.265,1.799c0.238,0.16,0.394,0.255,0.52,0.32v2.15l-6.891,5.269l-0.676,1.245l0.844,1.203l0,0
			c-0.379-0.223-0.717-0.288-0.844,0.192c0,0,0.52,0.235,0.999,0.543l-0.155,0.916l-1.055-0.458l-1.477-2.821l-1.322-0.277
			l0.365,0.703l0.239,2.629l0.9,1.544l-0.535-0.117l0.872,2.406l1.997,0.66l0.661-0.277c-0.014,0.277,0,0.533,0.028,0.734l0,0
			l-1.743-0.085c0,0,0.633,2.821,3.066,4.386c0.492,0.319,0.829,0.543,1.111,0.703v2.353l-17.396,13.317l-1.687,3.129l2.124,3.023
			c-0.942-0.575-1.814-0.713-2.124,0.49c0,0,1.322,0.586,2.503,1.384l-0.379,2.299l-2.671-1.16l-3.712-7.11l-3.347-0.692
			l0.942,1.767l0.605,6.642l2.278,3.896l-1.336-0.308l2.207,6.078l5.048,1.672l1.673-0.691c-0.028,0.691,0.014,1.331,0.056,1.852
			l-4.402-0.223c0,0,1.604,7.11,7.72,11.059c1.673,1.075,2.657,1.757,3.516,2.128v8.015h-20.531l-13.781-13.327l-1.279-0.479
			l-1.66-0.618l2.405,8.196l1.336,9.016l0.028,0.01l-7.285,10.623l-0.295,1.459l-0.577,2.896l-0.309,1.544l-0.844,4.226
			l-4.542,3.236l4.908,0.479l0,0l23.048,2.256l-23.048-2.256l-0.394,1.884l-0.267,1.245l-6.385,30.411v4.406l7.228,4.098h8.761
			l11.39-3.364l-4.697,10.964l-24.876,32.497l-2.405,1.672l-13.176-1.672l-8.493,3.342l-3.206-1.672h-9.633l12.038,8.505h11.644
			l3.417,3.95l-5.752-1.214l-7.087,2.128h-6.216l-4.219,0.756l6.623,5.312l10.026,2.736l15.455,10.782l11.574,3.161l9.689,16.276
			l-2.11,1.745l2.11,1.672l-7.424,3.194l-6.018-0.075l-7.13-3.109h-4.219l-1.8,4.098l6.385,7.643h-36.013v11.538H683.56V649.531
			L683.526,649.578z M648.328,775.607l0.45,1.927L648.328,775.607z M673.556,801.526l-1.069-2.246L673.556,801.526z
			 M651.647,791.956v1.99v1.352v1.427v1.352v0.373l-3.319,0.809l2.602-6.759l0.478-1.234l0.238-0.618V791.956z M664.387,930.929
			l8.367-3.236l-1.604-5.089l-2.011-2.055l-0.408-3.8l0.998-2.055l-2.714-1.064l-5.344-17.585l1.237-0.341l-0.365-0.958l6.3-4.162
			l0,0l0,0l6.863-4.524l3.91-3.129l0.858,47.985h-16.087L664.387,930.929L664.387,930.929z"/>
	</g>
	
		<linearGradient id="SVGID_9_" gradientUnits="userSpaceOnUse" x1="129.638" y1="851.4384" x2="251.7276" y2="851.4384" gradientTransform="matrix(0.3187 0 0 0.3187 826.8434 573.1276)">
		<stop  offset="0" style="stop-color:#FFCC7E"/>
		<stop  offset="1" style="stop-color:#F26768"/>
	</linearGradient>
	<polygon opacity="0.25" fill="url(#SVGID_9_)" enable-background="new    " points="905.288,754.743 899.819,760.109 
		870.217,760.109 870.217,756.766 868.235,756.766 868.235,760.109 868.235,780.248 868.235,783.59 870.217,783.59 870.217,780.248 
		905.288,780.248 905.288,886.116 902.673,886.116 898.201,942.02 906.892,942.02 907.144,942.02 907.144,746.942 	"/>
	<rect x="-371.037" y="940.424" fill="#69676E" width="2690.06" height="59.576"/>
	<path opacity="0.5" fill="#EFE6DE" enable-background="new    " d="M-165.108,748.006h-158.876
		c55.49-25.536,42.805-62.834,31.697-78.758c-2.068-3.267-4.697-4.311-7.791-7.152c-0.238-0.223-0.379-0.255-0.379-0.255
		c-7.341-6.642-17.255-11.794-28.786-15.19c-1.505-0.511-2.925-0.511-4.233-0.766c-7.692-1.884-16.002-2.14-24.679-2.14h-11.475
		v90.435h11.475c1.8,0,3.585-1.117,5.344-1.203c-5.625,3.151-11.419,5.727-16.819,7.802v67.868h204.522
		c24.229,0,43.874-14.668,43.874-30.325C-121.234,762.674-140.878,748.006-165.108,748.006z"/>
	<g>
		<g>
			<path fill="#806056" d="M1335.385,863.785c-5.386-4.801,10.785-62.397,10.785-62.397l4.711,1.299
				c0.393-3.725,0.675-6.1,0.675-6.1c37.729-9.601,67.387-28.793,67.387-28.793l-5.386-7.195
				c-10.786,9.601-72.773,28.793-72.773,28.793s2.7,43.194-24.257,57.597c-26.958,14.402-59.301-19.202-59.301-19.202l-8.086,11.996
				c0,0,37.729,19.202,59.301,35.999c21.558,16.797-0.801,64.792-0.801,64.792l21.037,0.235
				C1335.484,925.128,1340.35,868.213,1335.385,863.785z"/>
			<path fill="#806056" d="M1362.343,870.98c12.825,0,38.813-17.19,54.141-28.207l5.737-14.487l-0.591-0.511
				c-16.172,16.797-69.707,29.804-72.773,21.598c-2.082-5.567,0.661-34.03,2.011-46.696l-4.711-1.299
				c0,0-16.172,57.597-10.785,62.397c4.964,4.428,0.099,61.343-6.722,77.033l40.443,0.458
				C1348.914,925.17,1362.343,870.98,1362.343,870.98z"/>
			<path fill="#9EBC52" d="M1407.427,796.204c0,0,13.724-1.374,21.122-5.088h28.322l-21.768-26.026c0-11.57-19.49-11.57-19.49-11.57
				s0-11.57-16.242-14.455c-16.242-2.896-19.49,8.676-19.49,8.676s3.248-23.141-25.988-23.141s-19.49,28.92-19.49,28.92
				s-3.248-8.676-19.49-5.78c-16.242,2.896-6.496,20.246-6.496,20.246c-27.632,0-20.447,20.66-19.575,22.928
				c-0.478,3.247,0.858,7.057,7.101,10.389c11.081,5.918,29.01-4.982,36.519-10.176h10.21c6.567,2.225,17.057,5.088,27.576,5.088
				s15.651-2.874,18.056-5.088h7.678L1407.427,796.204z"/>
			<path fill="#B3D059" d="M1452.089,782.131c3.614-2.896,3.614-8.676-1.997-11.57s-12.445,2.896-12.445,2.896
				s7.214-20.246-14.442-23.13c-21.656-2.896-25.27,14.455-25.27,14.455s-3.614-5.78-10.828-2.896
				c-7.214,2.896-3.614,8.676-3.614,8.676c-3.614-5.78-10.828-5.78-10.828-5.78c-18.056-2.896-18.056,17.35-18.056,17.35
				c-9.97-1.597-15.525,2.981-18.506,7.409c-1.969,1.309-3.192,3.182-2.812,5.823c-0.24,0.745-0.337,1.224-0.337,1.224h0.577
				c2.897,9.272,50.54,7.983,68.652,0h8.901c5.414,2.831,14.582,6.791,20.939,5.089c5.104-1.362,9.253-3.438,12.052-5.089h11.63
				c0,0,14.315,0,14.442-2.896C1470.665,781.78,1452.089,782.131,1452.089,782.131z"/>
			<path fill="#9EBC52" d="M1292.34,838.259c0.254-6.291-8.578-6.11-8.578-6.11c1.715-1.522,1.715-4.577-0.942-6.11
				c-2.657-1.522-5.907,1.522-5.907,1.522s3.432-10.687-6.863-12.209c-10.293-1.522-11.995,7.632-11.995,7.632
				s-1.715-3.055-5.146-1.522c-3.432,1.522-1.715,4.577-1.715,4.577c-1.715-3.055-5.147-3.055-5.147-3.055
				c-8.578-1.522-8.578,9.165-8.578,9.165c-6.863-1.224-9.324,4.386-10.041,6.684c-0.155,0.308-0.254,0.618-0.254,0.947
				c0,3.864,15.187,1.937,15.187,0c0,0,10.842,3.864,17.353,1.937l6.51-1.937h9.492c1.898,0.969,4.612,1.937,7.861,1.937
				c6.51,0,8.325-2.896,8.325-2.896C1292.172,838.664,1292.326,838.472,1292.34,838.259z"/>
			<path fill="#9EBC52" d="M1464.829,837.886c0.309-7.813-10.646-7.59-10.646-7.59c2.123-1.895,2.123-5.684-1.181-7.59
				c-3.305-1.895-7.341,1.895-7.341,1.895s4.261-13.273-8.522-15.168c-12.782-1.895-14.906,9.484-14.906,9.484
				s-2.124-3.79-6.385-1.895c-4.261,1.895-2.124,5.684-2.124,5.684c-2.123-3.79-6.385-3.79-6.385-3.79
				c-10.646-1.895-10.646,11.379-10.646,11.379c-10.646-1.895-12.782,9.484-12.782,9.484s0,7.195,13.472,4.801
				c13.472-2.395,13.71-4.801,13.71-4.801s7.86,7.195,15.946,4.801c8.086-2.395,12.066-4.801,12.066-4.801s9.492,7.195,17.578,4.801
				c5.794-1.714,7.424-4.662,7.888-6.195C1464.717,838.238,1464.829,838.079,1464.829,837.886z"/>
		</g>
		
			<linearGradient id="SVGID_10_" gradientUnits="userSpaceOnUse" x1="-4915.5229" y1="934.9235" x2="-4609.8501" y2="934.9235" gradientTransform="matrix(0.3187 0 0 0.3187 2893.7058 573.1276)">
			<stop  offset="3.409785e-007" style="stop-color:#757C9D"/>
			<stop  offset="0.5862" style="stop-color:#9281AA"/>
			<stop  offset="1" style="stop-color:#AA84B4"/>
		</linearGradient>
		<path opacity="0.11" fill="url(#SVGID_10_)" enable-background="new    " d="M1362.343,870.746
			c12.825,0,38.813-17.19,54.141-28.207l5.737-14.487l-0.591-0.511c-16.172,16.797-69.707,29.804-72.773,21.598
			c-2.082-5.567,0.661-34.03,2.011-46.696l-4.711-1.299c0,0-16.172,57.597-10.785,62.397c4.964,4.428,0.099,61.343-6.722,77.033
			l40.443,0.458C1348.914,924.937,1362.343,870.746,1362.343,870.746z"/>
	</g>
	<path fill="#806056" d="M-299.066,941.03c-0.099,0.075-0.183,0.16-0.281,0.245l40.443-0.458c-0.028-0.075-0.07-0.16-0.099-0.235
		L-299.066,941.03z"/>
	<polygon fill="#9E8592" points="2319.024,924.797 2302.917,940.104 2319.024,940.056 	"/>
	
		<linearGradient id="SVGID_11_" gradientUnits="userSpaceOnUse" x1="5366.959" y1="2549.9929" x2="4501.7441" y2="1051.3962" gradientTransform="matrix(0.3187 0 0 0.3187 826.8434 573.1276)">
		<stop  offset="1.385225e-007" style="stop-color:#F4879D"/>
		<stop  offset="0.1631" style="stop-color:#F48D9F"/>
		<stop  offset="0.3546" style="stop-color:#F59AA5"/>
		<stop  offset="0.5596" style="stop-color:#F8B2AF"/>
		<stop  offset="0.6129" style="stop-color:#F9B9B1"/>
		<stop  offset="1" style="stop-color:#FEDDC0"/>
	</linearGradient>
	<polygon fill="url(#SVGID_11_)" points="2319.024,882.675 2207.645,939.924 2319.024,940.185 	"/>
	<g>
		<g>
			<path fill="#806056" d="M2319.024,798.923c-19.806-5.531-56.438-16.312-64.721-22.582l-5.738,6.525
				c0,0,30.892,16.993,70.458,25.78v-9.723H2319.024z"/>
			<path fill="#806056" d="M2319.024,939.83v-81.053c-14.081,2.091-58.479-8.462-73.326-21.572l-0.632,0.458l6.117,13.114
				c16.326,9.973,44.015,25.546,57.684,25.546c0,0,14.301,49.081-7.2,63.675L2319.024,939.83z"/>
			<path fill="#9EBC52" d="M2319.024,743.757c-0.388-0.008-0.757-0.029-1.16-0.029c-31.147,0-27.689,20.959-27.689,20.959
				s-3.474-10.474-20.771-7.855c-17.297,2.618-17.297,13.092-17.297,13.092s-20.77,0-20.77,10.474l-23.188,23.578h30.178
				c7.875,3.364,22.5,4.609,22.5,4.609l12.207-4.598h8.17c2.574,2.012,8.045,4.609,19.238,4.609c6.474,0,12.921-0.877,18.582-2
				L2319.024,743.757L2319.024,743.757z"/>
			<path fill="#B3D059" d="M2319.024,795.652c-0.624,0.048-1.243,0.089-1.905,0.18c0,0,0-18.329-19.236-15.711
				c0,0-7.692,0-11.545,5.237c0,0,3.839-5.237-3.853-7.855c-7.692-2.618-11.545,2.618-11.545,2.618s-3.853-15.711-26.93-13.092
				c-23.075,2.629-15.384,20.959-15.384,20.959s-7.285-5.237-13.26-2.618c-5.977,2.618-5.977,7.855-2.123,10.474
				c0,0-19.786-0.308-19.224,10.464c0.127,2.618,15.385,2.618,15.385,2.618h12.403c2.981,1.49,7.396,3.374,12.839,4.609
				c6.778,1.544,16.538-2.043,22.302-4.609h9.492c11.796,4.425,35.352,6.577,52.585,5.664V795.652z"/>
			<path fill="#9EBC52" d="M2199.67,846.349c-0.323-7.079,11.348-6.866,11.348-6.866c-2.264-1.714-2.264-5.152,1.251-6.866
				c3.53-1.714,7.819,1.714,7.819,1.714s-4.543-12.028,9.07-13.742c13.613-1.714,15.891,8.59,15.891,8.59s2.264-3.438,6.806-1.714
				c4.542,1.714,2.264,5.152,2.264,5.152c2.264-3.438,6.807-3.438,6.807-3.438c11.348-1.714,11.348,10.304,11.348,10.304
				c11.348-1.714,13.613,8.591,13.613,8.591s0,6.525-14.358,4.343s-14.596-4.343-14.596-4.343s-8.368,6.525-16.987,4.343
				c-8.62-2.171-12.853-4.343-12.853-4.343s-10.111,6.525-18.731,4.343c-6.173-1.554-7.918-4.226-8.409-5.61
				C2199.783,846.658,2199.67,846.52,2199.67,846.349z"/>
		</g>
		
			<linearGradient id="SVGID_12_" gradientUnits="userSpaceOnUse" x1="13143.6357" y1="989.2076" x2="13469.2969" y2="989.2076" gradientTransform="matrix(-0.3187 0 0 0.3187 6536.1694 573.1276)">
			<stop  offset="3.409785e-007" style="stop-color:#757C9D"/>
			<stop  offset="0.5862" style="stop-color:#9281AA"/>
			<stop  offset="1" style="stop-color:#AA84B4"/>
		</linearGradient>
		<path opacity="0.11" fill="url(#SVGID_12_)" enable-background="new    " d="M2319.024,939.617v-81.053
			c-14.081,2.091-58.479-8.461-73.326-21.573l-0.632,0.458l6.117,13.114c16.326,9.974,44.015,25.546,57.684,25.546
			c0,0,14.301,49.071-7.2,63.675L2319.024,939.617z"/>
	</g>
	<g>
		<polygon fill="#DA6559" points="1885.939,942.117 1885.939,426.951 1870.879,426.951 1859.053,942.117 		"/>
		<polygon fill="#DA6559" points="2108.532,942.117 2108.532,426.951 2123.593,426.951 2135.42,942.117 		"/>
		<rect x="1885.939" y="474.159" fill="#DA6559" width="222.607" height="12.209"/>
		<rect x="1816.303" y="414.742" fill="#B01F24" width="361.866" height="12.209"/>
		<polygon fill="#B31F24" points="1868.981,509.999 1870.879,426.951 1824.642,426.951 		"/>
		<polygon fill="#B31F24" points="2125.295,509.999 2123.383,426.951 2169.633,426.951 		"/>
		<polygon fill="#B11F24" points="1890.244,942.117 1890.244,798.557 1859.517,798.557 1855.833,942.117 		"/>
		<polygon fill="#B11F24" points="2104.778,942.117 2104.778,798.557 2135.503,798.557 2139.189,942.117 		"/>
		<path fill="#B01F24" d="M2157.779,386.152h-39.951l-26.156-15.392l-25.425,15.392h-31.233c0,0-22.514-10.453-37.771-28.59
			c-15.258,18.149-37.772,28.59-37.772,28.59h-31.233l-25.425-15.392l-26.156,15.392h-39.951
			c-24.693-22.545-66.106-28.59-66.106-28.59l46.491,57.192h180.152h180.152l46.49-57.192
			C2223.885,357.55,2182.486,363.607,2157.779,386.152z"/>
		<rect x="1885.939" y="474.159" fill="#DA6559" width="222.607" height="3.161"/>
		<path fill="#DA6559" d="M1816.303,426.951c2.348,0,361.866,0,361.866,0v-8.228h-361.866V426.951z"/>
	</g>
	<g opacity="0.25">
		
			<linearGradient id="SVGID_13_" gradientUnits="userSpaceOnUse" x1="2961.2666" y1="240.6833" x2="3672.4653" y2="240.6833" gradientTransform="matrix(0.3187 0 0 0.3187 826.8434 573.1276)">
			<stop  offset="0" style="stop-color:#FFCC7E"/>
			<stop  offset="1" style="stop-color:#F26768"/>
		</linearGradient>
		<path fill="url(#SVGID_13_)" d="M1885.939,474.159v-47.207h111.304V357.55c-15.258,18.149-37.772,28.59-37.772,28.59h-31.233
			l-25.425-15.392l-26.156,15.392h-39.951c-24.693-22.545-66.108-28.59-66.108-28.59l46.49,57.192h-0.773v3.981v8.228h8.339
			l44.339,83.048l1.913-83.048l-1.913,83.048l0,0l-6.623,288.558h-2.84l-3.684,143.56h3.22h26.887h4.303v-143.56h-4.303V486.368
			h111.304v-12.209H1885.939z"/>
		
			<linearGradient id="SVGID_14_" gradientUnits="userSpaceOnUse" x1="3269.2205" y1="-328.3739" x2="3275.2026" y2="-328.3739" gradientTransform="matrix(0.3187 0 0 0.3187 826.8434 573.1276)">
			<stop  offset="0" style="stop-color:#FFCC7E"/>
			<stop  offset="1" style="stop-color:#F26768"/>
		</linearGradient>
		<polygon fill="url(#SVGID_14_)" points="1870.879,426.951 1868.981,509.999 1868.981,509.999 		"/>
	</g>
	<path fill="#51695D" d="M-369.631,625.384c0,0,57.684,29.666,88.592,115.725c35.198,97.992,95.624,194.153,111.092,199.475
		h-199.686v-315.2H-369.631z"/>
	<g>
		<path fill="none" d="M-332.436,796.587h-8.901c-5.414,2.831-14.582,6.791-20.939,5.089c-2.7-0.724-5.118-1.639-7.214-2.586v10.814
			c0.647-0.192,1.336-0.341,2.096-0.458c12.782-1.895,14.906,9.484,14.906,9.484s2.124-3.79,6.385-1.895
			c4.261,1.895,2.124,5.684,2.124,5.684c2.124-3.79,6.385-3.79,6.385-3.79c10.646-1.895,10.646,11.379,10.646,11.379
			c10.646-1.895,12.782,9.484,12.782,9.484s0,4.077-5.766,5.067c19.125,6.525,38.966,9.197,40.795,4.29
			c0.52-1.384,0.731-4.194,0.759-7.813c0.028-10.964-1.757-29.198-2.77-38.639C-297.434,804.037-320.904,801.674-332.436,796.587z"
			/>
		<path fill="#806056" d="M-189.985,841.719l-6.51-1.927h-5.695c-11.883,7.93-29.123,15.455-44.578,7.195
			c-18.014-9.622-22.781-32.104-23.962-45.952c-1.604,0.436-3.417,0.809-5.414,1.107c1.786,6.451,11.699,43.046,11.602,56.649
			c0,2.533-0.323,4.321-1.097,5.014c-1.392,1.245-2.011,6.611-2.025,14.051c-0.014,19.096,3.867,51.508,8.747,62.749h-0.099
			c0.028,0.075,0.07,0.16,0.099,0.235l21.037-0.255c0,0-22.359-47.995-0.801-64.792c16.973-13.22,43.959-27.931,54.674-33.594
			C-186.118,842.336-188.212,842.24-189.985,841.719z"/>
		<path fill="#806056" d="M-346.104,842.996c-0.07,0.032-0.127,0.064-0.197,0.106c15.384,11.017,41.006,27.888,53.704,27.888
			c0,0,4.444,17.957,4.374,36.276c0.113-18.394-4.374-36.51-4.374-36.51C-305.239,870.746-330.692,854.024-346.104,842.996z"/>
		<path fill="#806056" d="M-267.665,877.835c0.014-7.43,0.633-12.805,2.025-14.051c0.773-0.692,1.097-2.469,1.097-5.014
			c-0.014,2.416-0.351,4.098-1.097,4.769C-267.046,864.796-267.665,870.278-267.665,877.835z"/>
		<path fill="#806056" d="M-278.352,841.336c0.042-10.857-1.715-29.059-2.742-38.638c-0.014,0-0.014,0-0.028,0
			C-280.11,812.138-278.338,830.361-278.352,841.336z"/>
		<path fill="#9EBC52" d="M-328.189,764.781c0,0,3.614-5.78,10.828-2.896c7.214,2.896,3.614,8.676,3.614,8.676
			c3.613-5.78,10.828-5.78,10.828-5.78c18.056-2.896,18.056,17.35,18.056,17.35c9.97-1.597,15.524,2.981,18.506,7.409
			c0.675,0.458,1.265,0.979,1.729,1.575h1.884c7.509,5.205,25.453,16.094,36.519,10.176c6.23-3.332,7.565-7.152,7.101-10.389
			c0.872-2.256,8.058-22.928-19.575-22.928c0,0,9.746-17.35-6.496-20.246s-19.49,5.78-19.49,5.78s9.746-28.92-19.49-28.92
			s-25.988,23.141-25.988,23.141s-3.248-11.57-19.49-8.676c-10.646,1.895-14.315,7.525-15.581,11.177
			C-330.846,752.072-328.189,764.781-328.189,764.781z"/>
		<path fill="#9EBC52" d="M-367.901,773.457c0,0-0.605-1.714-0.942-4.205l-0.647,0.777v2.278
			C-368.505,772.946-367.901,773.457-367.901,773.457z"/>
		<path fill="#B3D059" d="M-270.73,801.026c3.797-1.054,6.357-2.512,6.96-4.439h0.577c0,0-0.113-0.479-0.337-1.224
			c0.253-1.735-0.197-3.119-1.083-4.247h-6.468C-271.125,793.085-271.11,796.619-270.73,801.026z"/>
		<path fill="#B3D059" d="M-345.865,753.52c0,0,0-1.374,0.661-3.289c-2.405-0.308-5.147-0.32-8.255,0.096
			c-15.37,2.055-16.2,12.837-15.384,18.925l3.488-4.162C-365.356,753.52-345.865,753.52-345.865,753.52z"/>
		<path fill="#B3D059" d="M-341.337,796.587h8.901c11.517,5.077,35.002,7.44,51.3,6.1l0,0c-0.394-3.725-0.675-6.1-0.675-6.1
			c-2.011-0.511-3.994-1.054-5.949-1.618c-4.063,0.734-8.409,1.224-12.768,1.224c-10.519,0-15.651-2.874-18.056-5.089h-7.678
			l-11.433,5.089c0,0-13.725-1.374-21.122-5.089h-10.674v7.983c2.11,0.947,4.529,1.873,7.214,2.586
			C-355.92,803.378-346.751,799.418-341.337,796.587z"/>
		<path fill="#B3D059" d="M-271.082,791.115h-1.856c-3.853,1.299-9.056,2.821-14.822,3.864c1.955,0.564,3.938,1.107,5.949,1.618
			c0,0,0.281,2.373,0.675,6.1l0.028-0.01c-0.014-0.075-0.014-0.16-0.028-0.235l4.711-1.299c0,0,0.099,0.341,0.267,0.979
			c1.997-0.298,3.811-0.66,5.414-1.107C-271.11,796.619-271.125,793.085-271.082,791.115z"/>
		<path fill="#B3D059" d="M-281.123,802.697L-281.123,802.697c0.014,0,0.014,0,0.028,0c0,0,0,0,0-0.01L-281.123,802.697z"/>
		<path fill="#B3D059" d="M-369.49,772.307v18.797h10.688c7.396,3.715,21.122,5.089,21.122,5.089l11.433-5.089h7.678
			c2.405,2.225,7.537,5.089,18.056,5.089c4.345,0,8.691-0.49,12.768-1.224c-34.846-9.973-61.438-27.186-61.438-27.186l5.386-7.195
			c10.785,9.601,72.773,28.793,72.773,28.793s-0.042,0.618-0.056,1.725h6.468c-0.464-0.596-1.055-1.117-1.729-1.575
			c-2.982-4.418-8.536-9.005-18.506-7.409c0,0,0-20.246-18.056-17.35c0,0-7.214,0-10.828,5.78c0,0,3.614-5.78-3.614-8.676
			c-7.214-2.896-10.828,2.896-10.828,2.896s-2.657-12.709-17.015-14.551c-0.661,1.916-0.661,3.289-0.661,3.289s-19.49,0-19.49,11.57
			l-3.488,4.162c0.337,2.491,0.942,4.205,0.942,4.205S-368.505,772.946-369.49,772.307z"/>
		<path fill="#B3D059" d="M-271.082,791.115c0.028-1.107,0.056-1.725,0.056-1.725s-61.987-19.202-72.773-28.793l-5.386,7.195
			c0,0,26.577,17.202,61.438,27.186c5.766-1.043,10.969-2.555,14.822-3.864h1.843V791.115z"/>
		<path fill="#9EBC52" d="M-157.683,838.834c-0.717-2.299-3.178-7.898-10.041-6.684c0,0,0-10.687-8.578-9.154
			c0,0-3.431,0-5.147,3.055c0,0,1.715-3.055-1.715-4.577c-3.431-1.522-5.147,1.522-5.147,1.522s-1.715-9.165-11.995-7.632
			c-10.293,1.522-6.863,12.209-6.863,12.209s-3.248-3.055-5.907-1.522c-2.657,1.522-2.657,4.577-0.942,6.11
			c0,0-8.818-0.181-8.578,6.11c0.014,0.213,0.169,0.405,0.408,0.564c0,0,1.828,2.896,8.325,2.896c3.248,0,5.963-0.969,7.861-1.927
			h3.797c8.831-5.886,14.723-11.996,14.723-11.996l8.086,11.996c0,0-1.715,0.873-4.626,2.406c5.639-0.373,11.39-2.406,11.39-2.406
			c0,1.927,15.187,3.864,15.187,0C-157.43,839.451-157.543,839.143-157.683,838.834z"/>
		<path fill="#9EBC52" d="M-187.467,827.785c0,0-5.878,6.11-14.723,11.996h5.695l6.51,1.927c1.772,0.521,3.867,0.618,5.976,0.479
			c2.897-1.532,4.626-2.406,4.626-2.406L-187.467,827.785z"/>
		<path fill="#9EBC52" d="M-352.475,828.296l0.07-0.064l-0.07-0.181l0.591-0.511c6.51,6.759,19.083,12.912,31.978,17.308
			c5.752-0.989,5.766-5.067,5.766-5.067s-2.124-11.379-12.782-9.484c0,0,0-13.273-10.646-11.379c0,0-4.261,0-6.385,3.79
			c0,0,2.124-3.79-2.124-5.684c-4.261-1.895-6.385,1.895-6.385,1.895s-2.124-11.379-14.906-9.484
			c-0.759,0.117-1.448,0.266-2.096,0.458v29.996c0.085-0.063,0.155-0.106,0.155-0.106s3.98,2.395,12.066,4.801
			c4.036,1.192,8.015,0,10.983-1.49c-0.141-0.106-0.295-0.213-0.436-0.32L-352.475,828.296z"/>
		<path fill="#9EBC52" d="M-346.737,842.539l-5.667-14.306l-0.07,0.064l5.737,14.487c0.141,0.107,0.295,0.213,0.436,0.32
			c0.07-0.032,0.127-0.064,0.197-0.106C-346.315,842.847-346.527,842.687-346.737,842.539z"/>
		
			<linearGradient id="SVGID_15_" gradientUnits="userSpaceOnUse" x1="21312.3281" y1="858.1688" x2="21617.998" y2="858.1688" gradientTransform="matrix(-0.3187 0 0 0.3187 6536.1694 573.1276)">
			<stop  offset="3.409785e-007" style="stop-color:#757C9D"/>
			<stop  offset="0.5862" style="stop-color:#9281AA"/>
			<stop  offset="1" style="stop-color:#AA84B4"/>
		</linearGradient>
		<path opacity="0.11" fill="url(#SVGID_15_)" enable-background="new    " d="M-319.906,844.859
			c-0.155,0.032-0.337,0.043-0.506,0.064c19.28,6.653,39.459,9.41,41.301,4.471c0.535-1.416,0.745-4.311,0.759-8.058
			c-0.014,3.63-0.238,6.429-0.759,7.813C-280.954,854.055-300.781,851.384-319.906,844.859z"/>
		
			<linearGradient id="SVGID_16_" gradientUnits="userSpaceOnUse" x1="21312.3281" y1="1101.4314" x2="21617.998" y2="1101.4314" gradientTransform="matrix(-0.3187 0 0 0.3187 6536.1694 573.1276)">
			<stop  offset="3.409785e-007" style="stop-color:#757C9D"/>
			<stop  offset="0.5862" style="stop-color:#9281AA"/>
			<stop  offset="1" style="stop-color:#AA84B4"/>
		</linearGradient>
		<path opacity="0.11" fill="url(#SVGID_16_)" enable-background="new    " d="M-299.361,941.041h0.281
			c8.34-6.909,10.799-20.437,10.856-33.774C-288.309,920.679-290.839,934.239-299.361,941.041z"/>
		<path fill="#806056" d="M-264.542,858.771c0.099-13.593-9.829-50.198-11.602-56.649c-0.014,0-0.042,0.01-0.056,0.01
			C-274.625,807.849-264.557,844.816-264.542,858.771z"/>
		
			<linearGradient id="SVGID_17_" gradientUnits="userSpaceOnUse" x1="21312.3281" y1="807.4014" x2="21617.998" y2="807.4014" gradientTransform="matrix(-0.3187 0 0 0.3187 6536.1694 573.1276)">
			<stop  offset="3.409785e-007" style="stop-color:#757C9D"/>
			<stop  offset="0.5862" style="stop-color:#9281AA"/>
			<stop  offset="1" style="stop-color:#AA84B4"/>
		</linearGradient>
		<path opacity="0.11" fill="url(#SVGID_17_)" enable-background="new    " d="M-264.542,858.771
			c0.099-13.593-9.829-50.198-11.602-56.649c-0.014,0-0.042,0.01-0.056,0.01C-274.625,807.849-264.557,844.816-264.542,858.771z"/>
		<path fill="#806056" d="M-258.918,940.583c-4.88-11.24-8.761-43.652-8.747-62.749c-0.056,18.937,3.797,51.252,8.648,62.749
			H-258.918z"/>
		
			<linearGradient id="SVGID_18_" gradientUnits="userSpaceOnUse" x1="21312.3281" y1="1054.5375" x2="21617.998" y2="1054.5375" gradientTransform="matrix(-0.3187 0 0 0.3187 6536.1694 573.1276)">
			<stop  offset="3.409785e-007" style="stop-color:#757C9D"/>
			<stop  offset="0.5862" style="stop-color:#9281AA"/>
			<stop  offset="1" style="stop-color:#AA84B4"/>
		</linearGradient>
		<path opacity="0.11" fill="url(#SVGID_18_)" enable-background="new    " d="M-258.918,940.583
			c-4.88-11.24-8.761-43.652-8.747-62.749c-0.056,18.937,3.797,51.252,8.648,62.749H-258.918z"/>
		<path fill="#806056" d="M-267.665,877.835c0-7.557,0.619-13.029,2.025-14.284c0.745-0.671,1.083-2.363,1.097-4.769
			c-0.014-13.955-10.097-50.933-11.672-56.639c-1.533,0.223-3.178,0.405-4.894,0.553c1.027,9.58,2.798,27.792,2.742,38.638
			c-0.014,3.737-0.226,6.642-0.759,8.058c-1.856,4.949-22.022,2.182-41.301-4.471c-1.828,0.245-4.162,0.213-7.214-0.33
			c-13.472-2.395-13.71-4.801-13.71-4.801s-1.898,1.725-4.767,3.204c15.413,11.027,40.865,27.749,53.507,27.749
			c0,0,4.486,18.116,4.374,36.51c-0.056,13.348-2.517,26.866-10.856,33.774l40.078-0.448
			C-263.868,929.088-267.721,896.771-267.665,877.835z"/>
		
			<linearGradient id="SVGID_19_" gradientUnits="userSpaceOnUse" x1="21312.3281" y1="936.4887" x2="21617.998" y2="936.4887" gradientTransform="matrix(-0.3187 0 0 0.3187 6536.1694 573.1276)">
			<stop  offset="3.409785e-007" style="stop-color:#757C9D"/>
			<stop  offset="0.5862" style="stop-color:#9281AA"/>
			<stop  offset="1" style="stop-color:#AA84B4"/>
		</linearGradient>
		<path opacity="0.11" fill="url(#SVGID_19_)" enable-background="new    " d="M-267.665,877.835c0-7.557,0.619-13.029,2.025-14.284
			c0.745-0.671,1.083-2.363,1.097-4.769c-0.014-13.955-10.097-50.933-11.672-56.639c-1.533,0.223-3.178,0.405-4.894,0.553
			c1.027,9.58,2.798,27.792,2.742,38.638c-0.014,3.737-0.226,6.642-0.759,8.058c-1.856,4.949-22.022,2.182-41.301-4.471
			c-1.828,0.245-4.162,0.213-7.214-0.33c-13.472-2.395-13.71-4.801-13.71-4.801s-1.898,1.725-4.767,3.204
			c15.413,11.027,40.865,27.749,53.507,27.749c0,0,4.486,18.116,4.374,36.51c-0.056,13.348-2.517,26.866-10.856,33.774l40.078-0.448
			C-263.868,929.088-267.721,896.771-267.665,877.835z"/>
		<path fill="#B3D059" d="M-281.123,802.452c0.014,0.075,0.014,0.16,0.028,0.235l4.683-1.299c0,0,0.07,0.266,0.211,0.756
			c0.014,0,0.042-0.01,0.056-0.01c-0.169-0.638-0.267-0.979-0.267-0.979L-281.123,802.452z"/>
		
			<linearGradient id="SVGID_20_" gradientUnits="userSpaceOnUse" x1="21312.3281" y1="717.8945" x2="21617.998" y2="717.8945" gradientTransform="matrix(-0.3187 0 0 0.3187 6536.1694 573.1276)">
			<stop  offset="3.409785e-007" style="stop-color:#757C9D"/>
			<stop  offset="0.5862" style="stop-color:#9281AA"/>
			<stop  offset="1" style="stop-color:#AA84B4"/>
		</linearGradient>
		<path opacity="0.11" fill="url(#SVGID_20_)" enable-background="new    " d="M-281.123,802.452
			c0.014,0.075,0.014,0.16,0.028,0.235l4.683-1.299c0,0,0.07,0.266,0.211,0.756c0.014,0,0.042-0.01,0.056-0.01
			c-0.169-0.638-0.267-0.979-0.267-0.979L-281.123,802.452z"/>
		<path fill="#B3D059" d="M-281.109,802.686L-281.109,802.686c1.715-0.138,3.361-0.32,4.894-0.543
			c-0.141-0.49-0.211-0.756-0.211-0.756L-281.109,802.686z"/>
		
			<linearGradient id="SVGID_21_" gradientUnits="userSpaceOnUse" x1="21312.3281" y1="718.2575" x2="21617.998" y2="718.2575" gradientTransform="matrix(-0.3187 0 0 0.3187 6536.1694 573.1276)">
			<stop  offset="3.409785e-007" style="stop-color:#757C9D"/>
			<stop  offset="0.5862" style="stop-color:#9281AA"/>
			<stop  offset="1" style="stop-color:#AA84B4"/>
		</linearGradient>
		<path opacity="0.11" fill="url(#SVGID_21_)" enable-background="new    " d="M-281.109,802.686L-281.109,802.686
			c1.715-0.138,3.361-0.32,4.894-0.543c-0.141-0.49-0.211-0.756-0.211-0.756L-281.109,802.686z"/>
		<path fill="#9EBC52" d="M-351.884,827.551l-0.591,0.511l0.07,0.181l0.52-0.448c6.427,6.674,18.76,12.741,31.471,17.127
			c0.169-0.022,0.351-0.032,0.506-0.064C-332.801,840.462-345.373,834.311-351.884,827.551z"/>
		
			<linearGradient id="SVGID_22_" gradientUnits="userSpaceOnUse" x1="21312.3281" y1="825.5685" x2="21617.998" y2="825.5685" gradientTransform="matrix(-0.3187 0 0 0.3187 6536.1694 573.1276)">
			<stop  offset="3.409785e-007" style="stop-color:#757C9D"/>
			<stop  offset="0.5862" style="stop-color:#9281AA"/>
			<stop  offset="1" style="stop-color:#AA84B4"/>
		</linearGradient>
		<path opacity="0.11" fill="url(#SVGID_22_)" enable-background="new    " d="M-351.884,827.551l-0.591,0.511l0.07,0.181
			l0.52-0.448c6.427,6.674,18.76,12.741,31.471,17.127c0.169-0.022,0.351-0.032,0.506-0.064
			C-332.801,840.462-345.373,834.311-351.884,827.551z"/>
		<path fill="#9EBC52" d="M-351.884,827.785l-0.52,0.448l5.667,14.306c0.211,0.149,0.422,0.298,0.633,0.448
			c2.883-1.479,4.767-3.204,4.767-3.204s0.226,2.395,13.71,4.801c3.052,0.543,5.386,0.575,7.214,0.33
			C-333.125,840.537-345.458,834.459-351.884,827.785z"/>
		
			<linearGradient id="SVGID_23_" gradientUnits="userSpaceOnUse" x1="21312.3281" y1="826.1534" x2="21617.998" y2="826.1534" gradientTransform="matrix(-0.3187 0 0 0.3187 6536.1694 573.1276)">
			<stop  offset="3.409785e-007" style="stop-color:#757C9D"/>
			<stop  offset="0.5862" style="stop-color:#9281AA"/>
			<stop  offset="1" style="stop-color:#AA84B4"/>
		</linearGradient>
		<path opacity="0.11" fill="url(#SVGID_23_)" enable-background="new    " d="M-351.884,827.785l-0.52,0.448l5.667,14.306
			c0.211,0.149,0.422,0.298,0.633,0.448c2.883-1.479,4.767-3.204,4.767-3.204s0.226,2.395,13.71,4.801
			c3.052,0.543,5.386,0.575,7.214,0.33C-333.125,840.537-345.458,834.459-351.884,827.785z"/>
	</g>
	
		<linearGradient id="SVGID_24_" gradientUnits="userSpaceOnUse" x1="1251.3713" y1="-914.8602" x2="2380.5051" y2="-914.8602" gradientTransform="matrix(-0.3187 0 0 0.3187 2923.4824 573.1276)">
		<stop  offset="0" style="stop-color:#F4879E"/>
		<stop  offset="0.94" style="stop-color:#FFD193"/>
	</linearGradient>
	<path fill="url(#SVGID_24_)" d="M2319.024,227.66c-36.34,4.752-41.125,42.191-41.125,42.191
		c-98.421-7.781-113.117,65.612-113.117,65.612h154.242V227.66z"/>
	<path fill="#FFFFFF" d="M-363.683,544.646c2.461-2.427,5.316-4.609,15.427-5.46c12.262-1.043,20.953,1.927,22.752,4.704
		c2.25-0.341,1.673,0.894,4.289,0.894c5.034,0,9.577,0.703,12.839,1.83c1.195-0.308,2.7-0.49,4.331-0.49
		c3.952,0,7.158,1.086,7.158,2.416c0,0.032,0,0.053,0,0.085c11.644,0.448,20.686,3.79,20.686,7.845c0,0.213-0.028,0.298-0.085,0.511
		c0.028,0.01,0.056-0.107,0.085-0.107h-0.085h-46.491h-48.262v-12.772C-368.422,544.125-365.932,544.316-363.683,544.646z"/>
</g>
<g id="Layer_5">
	<g>
		<g>
			<polygon fill="#B9AAA2" points="132.837,775.005 129.32,770.023 248.722,770.023 248.722,775.005 			"/>
			<polygon fill="#B9AAA2" points="500.735,775.005 504.265,770.023 384.85,770.023 384.85,775.005 			"/>
			<rect x="129.32" y="758.196" fill="#1F4F26" width="238.829" height="8.409"/>
			<rect x="265.436" y="758.196" fill="#1F4F26" width="238.829" height="8.409"/>
			<rect x="265.436" y="754.769" fill="#3F2E26" width="238.829" height="3.427"/>
			<rect x="265.436" y="766.595" fill="#3F2E26" width="238.829" height="3.427"/>
			<rect x="129.32" y="754.769" fill="#3F2E26" width="238.829" height="3.427"/>
			<rect x="129.32" y="766.595" fill="#3F2E26" width="238.829" height="3.427"/>
			<polygon fill="#EBE2D9" points="218.494,621.768 164.482,621.768 146.871,605.429 159.016,629.964 218.494,629.964 
				225.824,629.964 225.824,628.932 225.824,621.768 			"/>
			<polygon fill="#EBE2D9" points="415.103,621.768 469.115,621.768 486.725,605.429 474.58,629.964 415.103,629.964 
				407.772,629.964 407.772,628.932 407.772,621.768 			"/>
			<polygon fill="#EBE2D9" points="282.823,595.977 223.345,595.977 211.199,571.442 228.811,587.781 282.823,587.781 			"/>
			<polygon fill="#EBE2D9" points="350.302,595.977 409.768,595.977 421.913,571.442 404.314,587.781 350.302,587.781 			"/>
			<polygon fill="#B11F24" points="216.37,629.964 158.993,629.964 129.32,754.769 223.888,754.769 223.888,629.964 			"/>
			<polygon fill="#B11F24" points="417.215,629.964 474.58,629.964 504.265,754.769 409.696,754.769 409.696,629.964 			"/>
			<polygon fill="#B11F24" points="270.323,595.977 223.345,595.977 205.853,723.763 282.823,723.763 282.823,595.977 			"/>
			<polygon fill="#B11F24" points="362.79,595.977 409.768,595.977 427.26,723.763 350.302,723.763 350.302,595.977 			"/>
			<polygon fill="#A4C384" points="409.72,652.679 345.757,575.487 316.569,575.487 316.497,575.487 287.307,575.487 
				223.345,652.679 316.521,652.679 316.533,633.36 316.544,652.679 			"/>
			<polygon fill="#67995C" points="316.521,652.679 223.345,652.679 247.684,674.702 316.521,674.702 385.358,674.702 
				409.696,652.679 			"/>
			<polygon fill="#B11F24" points="325.444,774.845 209.559,774.845 93.686,774.845 34.492,824.49 209.559,824.49 384.638,824.49 
							"/>
			<polygon fill="#EBE2D9" points="93.72,774.845 325.48,774.845 328.938,777.804 90.192,777.804 			"/>
			<polygon fill="#B11F24" points="539.604,774.845 423.73,774.845 307.845,774.845 248.652,824.49 423.73,824.49 598.798,824.49 
							"/>
			<polygon fill="#EBE2D9" points="307.881,774.845 539.652,774.845 543.099,777.804 304.352,777.804 			"/>
			<rect x="248.652" y="824.49" fill="#EBE2D9" width="350.146" height="4.205"/>
			<rect x="34.492" y="824.49" fill="#EBE2D9" width="350.146" height="4.205"/>
			<polygon fill="#782C2A" points="587.066,838.029 598.798,828.695 423.73,828.695 423.73,838.029 			"/>
			<polygon fill="#782C2A" points="46.225,838.029 34.492,828.695 209.559,828.695 209.559,838.029 			"/>
			<rect x="235.018" y="826.363" fill="#EFE6DE" width="163.086" height="123.719"/>
			<rect x="153.222" y="826.363" fill="#EFE6DE" width="81.798" height="123.719"/>
			<rect x="46.047" y="838.029" fill="#EFE6DE" width="107.163" height="102.249"/>
			<rect x="479.902" y="838.029" fill="#EFE6DE" width="107.163" height="102.249"/>
			<rect x="398.093" y="826.363" fill="#EFE6DE" width="81.798" height="123.719"/>
			<path fill="#2A3520" d="M361.221,857.157c0,0,5.311-20.895-12.547-12.847c0,0,0-6.961-13.763-6.099
				c-13.763,0.873-18.343-2.395-18.343-2.395s-4.591,3.267-18.343,2.395c-13.763-0.873-13.763,6.099-13.763,6.099
				c-17.859-8.058-12.547,12.847-12.547,12.847l-6.032,8.058v77.278h50.695h50.695v-77.278L361.221,857.157z"/>
			<path fill="#2A3520" d="M194.12,845.107c-8.286,3.109-11.048,9.963-11.048,9.963V933.2h11.048h11.048V855.07
				C205.168,855.07,202.406,848.226,194.12,845.107z"/>
			<path fill="#2A3520" d="M99.894,849.067c-7.542,2.831-10.057,9.069-10.057,9.069v71.105h10.057h10.057v-71.105
				C109.95,858.136,107.436,851.898,99.894,849.067z"/>
			<path fill="#2A3520" d="M533.738,849.067c-7.542,2.831-10.057,9.069-10.057,9.069v71.105h10.057h10.057v-71.105
				C543.794,858.136,541.281,851.898,533.738,849.067z"/>
			<path fill="#2A3520" d="M439.169,845.107c-8.286,3.109-11.048,9.963-11.048,9.963V933.2h11.048h11.048V855.07
				C450.217,855.07,447.455,848.226,439.169,845.107z"/>
			<polygon fill="#B9AAA2" points="229.566,826.363 247.684,826.363 247.684,950.082 223.345,950.082 223.345,826.363 			"/>
			<polygon fill="#B9AAA2" points="52.268,838.029 70.386,838.029 70.386,940.278 46.047,940.278 46.047,838.029 			"/>
			<polygon fill="#B9AAA2" points="135.529,838.029 153.647,838.029 153.647,940.278 129.32,940.278 129.32,838.029 			"/>
			<polygon fill="#B9AAA2" points="486.029,838.029 504.147,838.029 504.147,940.278 479.808,940.278 479.808,838.029 			"/>
			<polygon fill="#B9AAA2" points="568.948,838.029 587.066,838.029 587.066,940.278 562.739,940.278 562.739,838.029 			"/>
			<polygon fill="#B9AAA2" points="392.145,826.363 410.263,826.363 410.263,950.082 385.937,950.082 385.937,826.363 			"/>
			<polygon fill="#782C2A" points="316.556,817.017 141.478,817.017 153.222,826.363 316.556,826.363 479.902,826.363 
				491.635,817.017 			"/>
			<rect x="141.478" y="812.824" fill="#EBE2D9" width="350.146" height="4.205"/>
			<polygon fill="#B11F24" points="432.441,763.178 316.556,763.178 200.671,763.178 141.478,812.824 316.556,812.824 
				491.635,812.824 			"/>
			<polygon fill="#EBE2D9" points="200.671,763.178 141.478,812.824 148.04,812.824 205.853,763.178 			"/>
			<polygon fill="#EBE2D9" points="93.686,774.845 34.492,824.49 41.043,824.49 98.855,774.845 			"/>
			<polygon fill="#EBE2D9" points="432.441,763.178 491.635,812.824 485.073,812.824 427.26,763.178 			"/>
			<polygon fill="#EBE2D9" points="539.604,774.845 598.798,824.49 592.248,824.49 534.434,774.845 			"/>
			<polygon fill="#EBE2D9" points="200.671,763.178 432.441,763.178 435.888,766.126 197.153,766.126 			"/>
			<polygon fill="#B9AAA2" points="200.671,763.178 197.153,758.196 316.556,758.196 316.556,763.178 			"/>
			<polygon fill="#B9AAA2" points="432.454,763.178 435.983,758.196 316.569,758.196 316.569,763.178 			"/>
			<rect x="197.153" y="754.769" fill="#782C2A" width="238.829" height="3.427"/>
			<rect x="197.153" y="742.943" fill="#782C2A" width="238.829" height="3.427"/>
			<rect x="197.153" y="746.371" fill="#1F4F26" width="238.829" height="8.409"/>
			<polygon fill="#EBE2D9" points="316.556,615.562 197.153,742.943 316.556,742.943 435.958,742.943 			"/>
			<polygon fill="#3F2E26" points="316.569,623.269 204.389,742.943 316.569,742.943 428.747,742.943 			"/>
			<polygon fill="#CD9C3C" points="316.521,636.489 216.747,742.933 316.521,742.933 416.294,742.933 			"/>
			<polygon fill="#67995C" points="316.497,558.062 276.602,558.062 287.307,575.487 316.497,575.487 345.687,575.487 
				356.381,558.062 			"/>
			<polygon fill="#67995C" points="316.461,444.763 309.049,444.763 312.508,451.916 316.461,451.916 320.416,451.916 
				323.862,444.763 			"/>
			<polygon fill="#A4C384" points="320.416,437.6 316.461,437.6 312.508,437.6 309.049,444.763 316.461,444.763 323.862,444.763 			
				"/>
			<polygon fill="#67995C" points="316.461,430.446 309.049,430.446 312.508,437.6 316.461,437.6 320.416,437.6 323.862,430.446 			
				"/>
			<polygon fill="#A4C384" points="320.416,423.284 316.461,423.284 312.508,423.284 309.049,430.446 316.461,430.446 
				323.862,430.446 			"/>
			<polygon fill="#A4C384" points="320.416,451.916 316.461,451.916 312.508,451.916 276.602,558.062 316.461,558.062 
				356.31,558.062 			"/>
			<polygon fill="#67995C" points="316.461,289.91 312.508,423.284 316.461,423.284 320.416,423.284 			"/>
			<polygon fill="#EBE2D9" points="223.345,595.977 205.853,723.763 211.199,723.763 228.975,590.74 			"/>
			<polygon fill="#EBE2D9" points="409.768,595.956 427.26,723.741 421.913,723.741 404.138,590.718 			"/>
			<polygon fill="#897660" points="197.153,742.943 181.172,730.649 197.153,732.98 316.521,606.461 316.556,615.562 			"/>
			<polygon fill="#897660" points="435.924,742.943 451.905,730.649 435.924,732.98 316.556,606.461 316.521,615.562 			"/>
			<polygon fill="#EBE2D9" points="158.993,629.964 129.32,754.769 134.064,754.769 163.313,629.57 			"/>
			<polygon fill="#EBE2D9" points="474.58,629.964 504.265,754.769 499.521,754.769 470.272,629.57 			"/>
			<polygon fill="#EBE2D9" points="129.32,754.769 197.153,754.769 197.153,750.565 133.026,750.565 			"/>
			<polygon fill="#EBE2D9" points="503.816,754.769 435.983,754.769 435.983,750.565 500.11,750.565 			"/>
			<rect x="265.861" y="942.493" fill="#B9AAA2" width="101.39" height="7.59"/>
		</g>
		
			<linearGradient id="SVGID_25_" gradientUnits="userSpaceOnUse" x1="-2483.0527" y1="148.7805" x2="-1599.5602" y2="148.7805" gradientTransform="matrix(0.3187 0 0 0.3187 826.8434 573.1276)">
			<stop  offset="0" style="stop-color:#FFCC7E"/>
			<stop  offset="1" style="stop-color:#F26768"/>
		</linearGradient>
		<polygon opacity="0.25" fill="url(#SVGID_25_)" enable-background="new    " points="313.11,424.113 309.663,431.267 
			313.11,438.409 309.663,445.561 313.11,452.715 277.275,558.69 287.956,576.093 277.782,588.377 229.53,588.377 211.956,572.059 
			224.089,596.562 220.559,622.311 219.238,622.311 165.297,622.311 147.721,605.993 159.855,630.497 159.832,630.497 
			130.194,755.12 130.194,758.548 130.194,766.935 130.194,770.352 133.605,775.175 99.776,775.175 94.641,775.175 94.606,775.175 
			35.495,824.745 35.495,828.938 47.216,838.263 47.039,838.263 47.039,940.364 71.341,940.364 130.194,940.364 154.06,940.364 
			154.06,950.156 224.089,950.156 235.739,950.156 248.38,950.156 266.546,950.156 317.064,950.156 317.064,290.931 		"/>
	</g>
	<g>
		<path fill="#FBD021" d="M1597.527,772.865c-3.506-83.292-49.102-105.432-49.102-105.432h-50.27h-50.271
			c0,0-45.596,22.141-49.102,105.432s-29.225,105.432-57.282,105.432v11.602h156.666h156.666v-11.602
			C1626.751,878.297,1601.032,856.156,1597.527,772.865z"/>
		<rect x="1324.244" y="889.888" fill="#E2BA25" width="352.932" height="49.028"/>
		<polygon fill="#E2BA25" points="1498.155,647.527 1447.435,647.527 1447.435,667.422 1498.155,667.422 1548.861,667.422 
			1548.861,647.527 		"/>
		<polygon fill="#FBD021" points="1498.155,606.802 1453.136,606.802 1453.136,647.527 1498.155,647.527 1543.161,647.527 
			1543.161,606.802 		"/>
		<rect x="1486.529" y="448.457" fill="#FBD021" width="23.24" height="14.827"/>
		<rect x="1489.491" y="434.023" fill="#E2BA25" width="17.316" height="14.434"/>
		<polygon fill="#FBD021" points="1498.155,292.613 1489.491,434.023 1498.155,434.023 1506.807,434.023 		"/>
		<polygon fill="#E2BA25" points="1473.096,529.769 1523.201,529.769 1520.864,515.804 1475.445,515.804 		"/>
		<polygon fill="#E2BA25" points="1460.159,606.802 1498.155,606.802 1536.15,606.802 1533.21,589.346 1463.087,589.346 		"/>
		<polygon fill="#E2BA25" points="1512.036,463.284 1498.155,463.284 1484.273,463.284 1481.335,480.741 1514.974,480.741 		"/>
		<polygon fill="#E2BA25" points="1464.858,578.797 1531.44,578.797 1529.091,564.831 1467.206,564.831 		"/>
		<polygon fill="#E2BA25" points="1468.977,554.283 1527.32,554.283 1524.972,540.317 1471.326,540.317 		"/>
		<polygon fill="#E2BA25" points="1479.564,491.29 1477.216,505.255 1519.082,505.255 1516.745,491.29 		"/>
		<polygon fill="#FBD021" points="1463.087,589.346 1533.21,589.346 1531.44,578.797 1464.858,578.797 		"/>
		<polygon fill="#FBD021" points="1467.206,564.831 1529.091,564.831 1527.32,554.283 1468.977,554.283 		"/>
		<polygon fill="#FBD021" points="1471.326,540.317 1524.972,540.317 1523.201,529.769 1473.096,529.769 		"/>
		<polygon fill="#FBD021" points="1475.445,515.804 1520.864,515.804 1519.082,505.255 1477.216,505.255 		"/>
		<polygon fill="#FBD021" points="1514.974,480.741 1481.335,480.741 1479.564,491.29 1516.745,491.29 		"/>
	</g>
	
		<linearGradient id="SVGID_26_" gradientUnits="userSpaceOnUse" x1="1560.6761" y1="132.1527" x2="2106.3647" y2="132.1527" gradientTransform="matrix(0.3187 0 0 0.3187 826.8434 573.1276)">
		<stop  offset="0" style="stop-color:#FFCC7E"/>
		<stop  offset="1" style="stop-color:#F26768"/>
	</linearGradient>
	<path opacity="0.25" fill="url(#SVGID_26_)" enable-background="new    " d="M1489.491,433.502L1489.491,433.502v14.434h-2.962
		v14.827h-2.267l-2.939,17.468l-1.771,10.538l-2.349,13.966l-1.771,10.549l-2.349,13.965l-1.771,10.549l-2.349,13.966l-1.771,10.538
		l-2.349,13.966l-1.771,10.538l-2.939,17.468h-7.011v40.725h-5.701v19.905h0.436c0,0-45.596,22.141-49.102,105.432
		s-29.225,105.432-57.282,105.432v11.602h-17.244v49.028h173.911V292.091L1489.491,433.502z"/>
</g>
</svg>
