<?xml version="1.0" encoding="utf-8"?>
<!-- Generator: Adobe Illustrator 16.0.0, SVG Export Plug-In . SVG Version: 6.00 Build 0)  -->
<!DOCTYPE svg PUBLIC "-//W3C//DTD SVG 1.1//EN" "http://www.w3.org/Graphics/SVG/1.1/DTD/svg11.dtd">
<svg version="1.1" id="Capa_1" xmlns="http://www.w3.org/2000/svg" xmlns:xlink="http://www.w3.org/1999/xlink" x="0px" y="0px"
	 width="800px" height="800px" viewBox="0 0 800 800" enable-background="new 0 0 800 800" xml:space="preserve">
<g>
	<path fill="#E8E8E8" d="M186.665,400.002c0,4.413,2.187,8.533,5.827,11.013l293.333,200c2.254,1.533,4.88,2.32,7.507,2.32
		c2.134,0,4.279-0.507,6.227-1.547c4.375-2.308,7.107-6.84,7.107-11.787v-400c0-4.947-2.732-9.48-7.093-11.787
		c-4.374-2.307-9.654-2-13.747,0.773l-293.333,200C188.854,391.467,186.665,395.589,186.665,400.002z M223.667,400L480,225.24
		v349.52L223.667,400z"/>
	<path fill="#E8E8E8" d="M0,400c0,220.56,179.44,400,400,400c220.561,0,400-179.44,400-400C800,179.44,620.561,0,400,0
		C179.44,0,0,179.44,0,400z M26.667,400C26.667,194.147,194.146,26.667,400,26.667S773.333,194.147,773.333,400
		c0,205.854-167.479,373.333-373.333,373.333S26.667,605.854,26.667,400z"/>
</g>
</svg>
