<?xml version="1.0" encoding="utf-8"?>
<!-- Generator: Adobe Illustrator 17.0.0, SVG Export Plug-In . SVG Version: 6.00 Build 0)  -->
<!DOCTYPE svg PUBLIC "-//W3C//DTD SVG 1.1//EN" "http://www.w3.org/Graphics/SVG/1.1/DTD/svg11.dtd">
<svg version="1.1" id="Capa_1" xmlns="http://www.w3.org/2000/svg" xmlns:xlink="http://www.w3.org/1999/xlink" x="0px" y="0px"
	 width="800px" height="800px" viewBox="0 0 800 800" enable-background="new 0 0 800 800" xml:space="preserve">
<g>
	<path fill="#E8E8E8" d="M607.507,388.987l-293.333-200c-4.093-2.773-9.373-3.08-13.747-0.773c-4.36,2.307-7.093,6.84-7.093,11.787
		v400c0,4.947,2.733,9.48,7.107,11.787c1.947,1.04,4.093,1.547,6.227,1.547c2.627,0,5.253-0.787,7.507-2.32l293.333-200
		c3.64-2.48,5.827-6.6,5.827-11.013S611.147,391.467,607.507,388.987z M320,574.76V225.24L576.333,400L320,574.76z"/>
	<path fill="#E8E8E8" d="M400,0C179.44,0,0,179.44,0,400s179.44,400,400,400s400-179.44,400-400S620.56,0,400,0z M400,773.333
		c-205.853,0-373.333-167.48-373.333-373.333S194.147,26.667,400,26.667S773.333,194.147,773.333,400S605.853,773.333,400,773.333z"
		/>
</g>
</svg>
