<?xml version="1.0" encoding="utf-8"?>
<!-- Generator: Adobe Illustrator 17.0.0, SVG Export Plug-In . SVG Version: 6.00 Build 0)  -->
<!DOCTYPE svg PUBLIC "-//W3C//DTD SVG 1.1//EN" "http://www.w3.org/Graphics/SVG/1.1/DTD/svg11.dtd">
<svg version="1.1" id="Layer_1" xmlns="http://www.w3.org/2000/svg" xmlns:xlink="http://www.w3.org/1999/xlink" x="0px" y="0px"
	 width="700px" height="375px" viewBox="0 0 700 375" enable-background="new 0 0 700 375" xml:space="preserve">
<g id="รถในหลวง">
	<g>
		
			<line fill="none" stroke="#BBBBBB" stroke-width="1.3882" stroke-linecap="round" stroke-miterlimit="10" x1="636.965" y1="168.198" x2="636.965" y2="98.14"/>
		
			<linearGradient id="SVGID_1_" gradientUnits="userSpaceOnUse" x1="124.4147" y1="462.8303" x2="395.6705" y2="462.8303" gradientTransform="matrix(1.3045 0 0 -1.3045 -5.3007 734.3344)">
			<stop  offset="3.356507e-007" style="stop-color:#FAE979"/>
			<stop  offset="0.2926" style="stop-color:#FBED83"/>
			<stop  offset="0.7805" style="stop-color:#FCF4A0"/>
			<stop  offset="1" style="stop-color:#FBF5AD"/>
		</linearGradient>
		<path fill="url(#SVGID_1_)" d="M510.835,217.39H156.993L187.64,67.146c0-12.889,9.271-23.353,20.729-23.353h256.788
			c10.565,0,19.158,9.666,19.158,21.573L510.835,217.39z"/>
		<path fill="#B298A2" d="M347.282,58.707v91.601h135.771c0,0-8.563-91.601-17.095-89.453L347.282,58.707z"/>
		
			<linearGradient id="SVGID_2_" gradientUnits="userSpaceOnUse" x1="10.5099" y1="381.164" x2="512.0309" y2="381.164" gradientTransform="matrix(1.3045 0 0 -1.3045 -5.3007 734.3344)">
			<stop  offset="2.024560e-007" style="stop-color:#FBE27C"/>
			<stop  offset="0.2891" style="stop-color:#FBE683"/>
			<stop  offset="0.7461" style="stop-color:#FDF59D"/>
			<stop  offset="0.9568" style="stop-color:#FBF5AA"/>
			<stop  offset="1" style="stop-color:#FBF5AD"/>
		</linearGradient>
		<path fill="url(#SVGID_2_)" d="M662.623,311.139H8.409v-62.326c0-47.35,38.501-85.709,86.027-85.709h470.516
			c53.933,0,97.639,43.545,97.639,97.278v50.757H662.623z"/>
		<ellipse fill="#383534" cx="137.219" cy="311.661" rx="63.604" ry="63.369"/>
		<path fill="#EDC5A4" d="M402.847,94.917l-1.078,14.914c0,0,9.61,11.723,19.251,11.723c0,0,11.766,3.191,13.891,1.074l1.078-10.648
			L402.847,94.917z"/>
		<ellipse fill="#383534" cx="535.938" cy="311.661" rx="63.604" ry="63.369"/>
		<g>
			<ellipse fill="#999393" cx="136.695" cy="311.139" rx="29.939" ry="29.828"/>
			<path fill="#716A6A" d="M131.552,334.553c0,0,0.862-7.426,5.144-7.426c4.281,0,5.144,7.426,5.144,7.426H131.552z"/>
			<path fill="#716A6A" d="M147.876,332.344c0,0-4.158-6.229-0.862-8.991c3.265-2.731,8.717,2.424,8.717,2.424L147.876,332.344z"/>
			<path fill="#716A6A" d="M158.934,320.222c0,0-7.207-2.117-6.468-6.322c0.739-4.204,8.255-3.744,8.255-3.744L158.934,320.222z"/>
			<path fill="#716A6A" d="M159.611,303.835c0,0-6.899,2.977-9.025-0.706c-2.125-3.682,3.912-8.132,3.912-8.132L159.611,303.835z"/>
			<path fill="#716A6A" d="M149.539,290.885c0,0-3.357,6.69-7.361,5.248c-4.004-1.442-2.279-8.746-2.279-8.746L149.539,290.885z"/>
			<path fill="#716A6A" d="M133.461,287.387c0,0,1.756,7.273-2.279,8.746c-4.004,1.442-7.361-5.248-7.361-5.248L133.461,287.387z"/>
			<path fill="#716A6A" d="M118.892,294.997c0,0,6.037,4.45,3.912,8.132c-2.125,3.682-9.025,0.706-9.025,0.706L118.892,294.997z"/>
			<path fill="#716A6A" d="M112.671,310.157c0,0,7.515-0.46,8.255,3.744c0.739,4.204-6.468,6.322-6.468,6.322L112.671,310.157z"/>
			<path fill="#716A6A" d="M117.66,325.777c0,0,5.452-5.155,8.717-2.424s-0.862,8.991-0.862,8.991L117.66,325.777z"/>
			
				<ellipse fill="none" stroke="#8A8384" stroke-width="0.6941" stroke-miterlimit="10" cx="136.695" cy="311.139" rx="24.056" ry="23.967"/>
		</g>
		<g>
			<polygon fill="#F2EF89" points="53.317,291.837 78.943,236.569 202.671,236.569 226.48,291.837 205.998,291.96 182.804,263.697 
				91.11,263.697 67.917,291.96 			"/>
		</g>
		<g>
			<ellipse fill="#999393" cx="536.492" cy="311.139" rx="29.939" ry="29.828"/>
			<path fill="#716A6A" d="M531.349,334.553c0,0,0.862-7.426,5.144-7.426s5.144,7.426,5.144,7.426H531.349z"/>
			<path fill="#716A6A" d="M547.642,332.344c0,0-4.158-6.229-0.862-8.991c3.296-2.762,8.717,2.424,8.717,2.424L547.642,332.344z"/>
			<path fill="#716A6A" d="M558.731,320.222c0,0-7.207-2.117-6.468-6.322c0.739-4.204,8.255-3.744,8.255-3.744L558.731,320.222z"/>
			<path fill="#716A6A" d="M559.408,303.835c0,0-6.899,2.977-9.025-0.706c-2.125-3.682,3.912-8.132,3.912-8.132L559.408,303.835z"/>
			<path fill="#716A6A" d="M549.337,290.885c0,0-3.357,6.69-7.362,5.248c-4.004-1.442-2.279-8.746-2.279-8.746L549.337,290.885z"/>
			<path fill="#716A6A" d="M533.258,287.387c0,0,1.756,7.273-2.279,8.746c-4.004,1.442-7.361-5.248-7.361-5.248L533.258,287.387z"/>
			<path fill="#716A6A" d="M518.689,294.997c0,0,6.037,4.45,3.912,8.132c-2.125,3.682-9.025,0.706-9.025,0.706L518.689,294.997z"/>
			<path fill="#716A6A" d="M512.437,310.157c0,0,7.515-0.46,8.255,3.744c0.739,4.204-6.468,6.322-6.468,6.322L512.437,310.157z"/>
			<path fill="#716A6A" d="M517.457,325.777c0,0,5.452-5.155,8.717-2.424c3.265,2.731-0.862,8.991-0.862,8.991L517.457,325.777z"/>
			
				<ellipse fill="none" stroke="#8A8384" stroke-width="0.6941" stroke-miterlimit="10" cx="536.492" cy="311.139" rx="24.056" ry="23.967"/>
		</g>
		<path fill="#F2EF89" d="M455.27,292.174c0,0,6.376-66.253,81.222-66.253c74.846,0,83.255,65.916,83.255,65.916
			s-24.487,1.166-24.487,0.092c0-40.108-55.596-46.859-55.596-46.859s-60.062,8.684-63.081,46.859L455.27,292.174z"/>
		<path fill="#999393" d="M8.409,311.139h65.206l19.405-45.018h88.399l19.405,45.018h271.511c0,0,0.308-8.5,4.189-19.272
			c4.805-13.38,15.154-30.227,37.269-38.574c16.047-6.045,33.974-5.278,49.528,1.903c12.936,5.984,25.842,16.632,32.403,36.794
			c1.817,5.616,3.142,11.937,3.85,19.118h63.081v-19.272l-56.643,0.092c-3.203-12.766-20.298-52.199-66.284-52.199
			c-42.752,0-66.284,26.636-72.69,52.199H210.494L193.4,251.452H86.49l-20.298,40.476H8.471v19.21H8.409z"/>
		<path fill="#383534" d="M653.044,187.746v100.746c0,1.903,1.571,3.468,3.481,3.468h10.103c1.91,0,3.481-1.565,3.481-3.468v-94.67
			c0-1.227-0.647-2.332-1.694-2.977l-10.103-6.045C656,183.388,653.044,185.046,653.044,187.746z"/>
		<polygon fill="#A5A0A0" points="652.982,181.21 652.982,291.96 658.896,291.837 658.896,185.138 		"/>
		<polygon fill="#A5A0A0" points="658.341,193.975 670.107,201.985 670.107,207.815 658.896,200.358 		"/>
		<polygon fill="#A5A0A0" points="658.341,208.889 670.107,216.899 670.107,222.729 658.896,215.272 		"/>
		<polygon fill="#A5A0A0" points="658.341,223.803 670.107,231.813 670.107,237.643 658.896,230.186 		"/>
		<polygon fill="#A5A0A0" points="658.341,238.717 670.107,246.727 670.107,252.557 658.896,245.1 		"/>
		<polygon fill="#A5A0A0" points="658.341,253.601 670.107,261.641 670.107,267.471 658.896,260.014 		"/>
		<polygon fill="#EAEAEA" points="332.313,58.707 332.313,151.382 205.104,151.382 217.918,64.046 226.48,58.707 		"/>
		<polygon fill="#A5A0A0" points="658.341,268.515 670.107,276.555 670.107,282.385 658.896,274.928 		"/>
		<path fill="#E0DFCE" d="M646.791,223.803h-3.665c-3.419,0-6.191-2.762-6.191-6.168V171.39c0-3.406,2.772-6.168,6.191-6.168h3.665
			c3.419,0,6.191,2.762,6.191,6.168v46.246C652.982,221.011,650.21,223.803,646.791,223.803z"/>
		<path fill="#F9F294" d="M495.866,165.222v69.169c0,0-37.392,21.573-37.423,57.569l-117.229,0.215V165.222L495.866,165.222
			L495.866,165.222z"/>
		<rect x="352.61" y="174.796" fill="#DBD8BD" width="27.783" height="5.34"/>
		
			<linearGradient id="SVGID_3_" gradientUnits="userSpaceOnUse" x1="158.0147" y1="387.7039" x2="261.2704" y2="387.7039" gradientTransform="matrix(1.3045 0 0 -1.3045 -5.3007 734.3344)">
			<stop  offset="3.356507e-007" style="stop-color:#FBDB79"/>
			<stop  offset="0.2926" style="stop-color:#FCE283"/>
			<stop  offset="0.7805" style="stop-color:#FDF59F"/>
			<stop  offset="1" style="stop-color:#FBF5AD"/>
		</linearGradient>
		<polygon opacity="0.19" fill="url(#SVGID_3_)" enable-background="new    " points="200.823,165.222 200.823,236.569 
			202.979,236.569 226.172,291.96 335.516,291.96 335.516,165.222 		"/>
		<rect x="212.589" y="174.796" fill="#DBD8BD" width="27.783" height="5.34"/>
		<g>
			<path fill="#BBBBBB" d="M457.704,59.781c6.345,0,11.643,4.542,12.598,10.802l12.043,79.725H348.329V70.429V59.781H457.704
				 M457.704,55.515H344.079v14.914v84.144h143.225l-12.782-84.635C473.258,61.653,466.112,55.515,457.704,55.515L457.704,55.515z"
				/>
		</g>
		<g>
			<path fill="#BBBBBB" d="M330.156,59.781v90.527H205.782l12.474-82.61c0.708-4.603,4.589-7.917,9.24-7.917H330.156
				 M334.438,55.515H227.497c-6.745,0-12.474,4.91-13.46,11.538l-13.214,87.489h133.615L334.438,55.515L334.438,55.515z"/>
		</g>
		<rect x="334.438" y="55.515" fill="#A3A1A2" width="9.61" height="99.058"/>
		<rect x="2.002" y="275.971" fill="#999393" width="14.969" height="35.137"/>
		<g>
			<rect x="633.762" y="100.257" fill="#2E368F" width="64.128" height="35.137"/>
			<rect x="633.762" y="100.257" fill="#D41F40" width="64.128" height="8.531"/>
			<rect x="633.762" y="126.893" fill="#D41F40" width="64.128" height="8.531"/>
			<rect x="633.762" y="123.671" fill="#FFFFFF" width="64.128" height="6.383"/>
			<rect x="633.762" y="105.566" fill="#FFFFFF" width="64.128" height="6.383"/>
		</g>
		<g>
			<path fill="#303030" d="M401.492,93.782c0,0-15.524,5.769-22.362-12.029c-5.144-13.441-1.94-9.175-5.945-14.515
				c-3.943-5.247-7.392-15.681-4.559-22.34c0,0-2.526-17.062,12.813-25.562c0,0,3.049,2.731,6.745-6.291
				c3.665-9.053,18.142-7.733,21.068-8.623c2.926-0.859,14.415-3.529,19.682-1.903c5.267,1.626,9.733,3.56,13.46,4.02
				s9.025,0.43,11.674,3.989c2.68,3.59,5.205,8.224,6.499,9.851c1.294,1.596,1.91,0.951,3.203,5.34
				c1.324,4.388-2.618,13.226-2.618,13.226L401.492,93.782z"/>
			<path fill="#FBD0B2" d="M401.707,76.444c0,0-6.129-5.462-10.503-1.105c-1.786,1.78-2.402,4.419-1.817,6.874
				c0.924,3.774,3.665,9.758,12.012,11.784c0,0,6.715,13.103,13.984,16.111c7.269,3.007,29.692,3.161,31.017,2.302
				c3.604-2.271,11.612-13.042,14.969-19.272c0.801-1.504,1.263-3.13,1.355-4.849c0.246-4.388,0.739-13.901,0.678-15.129
				c-0.062-1.565,0-22.647-0.185-24.58c-0.185-1.933-2.495-24.304-17.495-23.813c0,0-6.591,1.964-9.764,6.076
				c-3.142,4.112-13.583,5.217-13.922,4.143c0,0-6.191,4.634-12.043,2.394c0,0-10.01,2.578-16.109-3.161
				c0,0-8.47,15.65,8.162,24.611L401.707,76.444z"/>
			
				<radialGradient id="SVGID_4_" cx="876.9822" cy="2631.9731" r="6.0496" gradientTransform="matrix(1.8511 -0.5498 -0.5519 -1.8443 250.367 5426.9834)" gradientUnits="userSpaceOnUse">
				<stop  offset="6.713014e-007" style="stop-color:#F3776B;stop-opacity:0.3"/>
				<stop  offset="0.5769" style="stop-color:#F27893;stop-opacity:0.1269"/>
				<stop  offset="1" style="stop-color:#F27BAA;stop-opacity:0"/>
			</radialGradient>
			<path fill="url(#SVGID_4_)" d="M433.155,86.939c1.694,5.616-2.372,11.815-9.025,13.779c-6.684,1.995-13.46-0.982-15.154-6.598
				c-1.694-5.616,2.372-11.815,9.025-13.779C424.685,78.346,431.492,81.323,433.155,86.939z"/>
			<g>
				<path fill="#D6BB65" d="M440.978,84.238c-0.123,0.031-0.246,0.061-0.4,0.092l-21.838,2.608c-1.201,0.153-2.31-0.644-2.587-1.811
					l-3.203-13.993c-0.277-1.166,0.4-2.332,1.54-2.731c12.69-4.388,22.546-3.621,26.181-3.099c1.14,0.153,2.002,1.166,2.002,2.332
					l-0.062,14.392C442.642,83.042,441.933,83.931,440.978,84.238z M414.459,70.797l3.203,13.993
					c0.092,0.399,0.493,0.675,0.893,0.644l21.838-2.608c0.4-0.061,0.739-0.399,0.739-0.798l0.062-14.392
					c0-0.399-0.308-0.767-0.708-0.829c-3.542-0.522-13.09-1.258-25.472,3.038C414.613,69.969,414.366,70.368,414.459,70.797
					L414.459,70.797z"/>
			</g>
			<g>
				<path fill="#D6BB65" d="M469.562,82.489c-0.123,0.031-0.246,0.061-0.4,0.092h-0.092l-10.596,0.092
					c-0.462,0.031-3.604,0.246-3.973-1.381V81.2l-1.725-14.392c-0.246-1.197,0.431-2.363,1.571-2.7c0,0,0,0,0.031,0
					c9.271-2.67,13.429-1.32,16.756-0.215c1.17,0.368,1.879,1.258,1.879,2.302v0.092l-1.725,14.055
					C471.225,81.323,470.517,82.213,469.562,82.489z M469.038,81.047c0.4-0.061,0.678-0.399,0.678-0.798v-0.092l1.725-14.024
					c-0.031-0.491-0.585-0.737-0.832-0.798c-3.296-1.074-7.023-2.302-15.862,0.245l0,0c-0.37,0.123-0.585,0.522-0.493,0.951v0.092
					l1.694,14.269c0.339,0.215,1.602,0.368,2.372,0.276h0.092L469.038,81.047z"/>
			</g>
			<g>
				<path fill="#D6BB65" d="M453.545,72.209c-1.047-1.32-2.341-2.056-3.789-2.179c-3.604-0.276-7.331,3.13-7.361,3.191l-1.047-1.105
					c0.185-0.153,4.22-3.897,8.501-3.59c1.91,0.153,3.573,1.074,4.897,2.762L453.545,72.209z"/>
			</g>
			<g>
				<polygon fill="#D6BB65" points="414.336,74.357 400.752,74.633 400.29,75.4 398.966,74.603 399.89,73.099 414.305,72.853 				
					"/>
			</g>
			
				<ellipse transform="matrix(-0.1078 -0.9942 0.9942 -0.1078 405.5987 509.3286)" fill="#303030" cx="431.344" cy="72.665" rx="3.56" ry="2.495"/>
			
				<ellipse transform="matrix(-0.1078 -0.9942 0.9942 -0.1078 440.5191 533.9818)" fill="#303030" cx="459.866" cy="69.323" rx="3.376" ry="2.187"/>
			<path fill="#FEE4D2" d="M448.771,71.81c0,0,3.758,3.253,4.096,4.358c0.339,1.105-0.277,4.45-1.971,5.37"/>
			<path fill="#E5A38D" d="M449.757,91.02c0-0.153-0.062-0.276-0.185-0.368c-0.092-0.092-0.246-0.123-0.4-0.123l-0.37,0.031
				c-0.308,0.031-0.524,0.276-0.493,0.552c0,0.123,0.154,2.885-4.066,3.805s-5.359-1.596-5.39-1.718
				c-0.123-0.276-0.431-0.399-0.708-0.276l-0.339,0.153c-0.277,0.123-0.4,0.43-0.277,0.706c0.37,0.89,1.91,2.793,5.082,2.793
				c0.585,0,1.263-0.061,1.971-0.215c0.277-0.061,0.524-0.123,0.77-0.184l0,0C449.942,94.764,449.788,91.174,449.757,91.02z"/>
			<g>
				<path fill="#303030" d="M434.788,59.658c-0.154,0.031-0.308,0-0.4-0.123c-0.031-0.031-1.756-1.995-4.589-2.148
					c-2.279-0.153-4.62,0.89-6.992,3.007c-0.154,0.153-0.4,0.123-0.554-0.031c-0.154-0.153-0.123-0.399,0.031-0.552
					c2.526-2.302,5.082-3.376,7.577-3.222c3.172,0.215,5.021,2.332,5.113,2.424c0.123,0.153,0.123,0.399-0.031,0.522
					C434.88,59.627,434.818,59.658,434.788,59.658z"/>
			</g>
			<g>
				<path fill="#303030" d="M461.215,57.356c-0.031,0-0.062,0-0.062,0c-0.216,0.031-0.4-0.123-0.431-0.338
					c0-0.061-0.216-1.596-2.587-1.565c-2.433,0.031-2.834,2.148-2.864,2.24c-0.031,0.215-0.246,0.338-0.431,0.307
					c-0.216-0.031-0.339-0.246-0.308-0.43c0-0.031,0.524-2.823,3.604-2.854c3.111-0.031,3.357,2.24,3.357,2.24
					C461.492,57.142,461.4,57.326,461.215,57.356z"/>
			</g>
			<path fill="#E9BE96" d="M392.775,80.955c-0.062-0.89,0.339-1.811,1.078-2.302c0.37-0.245,0.77-0.368,1.232-0.245
				c1.324,0.399,4.867,2.915,5.298,4.388c0,0-2.064-0.184-1.786,3.314c0,0,0.554,1.811,1.386,1.964
				C400.783,88.228,393.237,88.258,392.775,80.955z"/>
			<polygon fill="#504F4B" points="383.627,19.304 393.853,34.249 393.545,34.924 381.471,19.304 			"/>
		</g>
		<polygon fill="#7B9FBA" points="394.315,113.023 372.939,133.276 366.502,150.308 440.27,150.308 446.677,150.308 
			438.145,132.202 		"/>
		<polygon fill="#96BAC6" points="393.576,113.729 419.972,143.925 434.942,143.925 431.923,150.308 441.348,150.308 
			427.457,133.276 394.315,113.023 		"/>
		<path fill="#8BAFC1" d="M438.022,121.83l17.218,12.49l5.359,15.988h-20.298l-1.078-2.117
			C439.192,148.19,434.695,122.137,438.022,121.83z"/>
		<polygon fill="#9FC3CC" points="439.438,123.18 445.629,138.585 440.27,143.925 446.153,150.308 439.438,150.308 437.067,120.48 
					"/>
		<polygon fill="#EAD8E0" points="432.785,119.436 437.067,135.394 439.192,148.19 426.379,132.202 		"/>
		<path fill="#F6E3EB" d="M402.847,100.257l-4.281,2.117l-4.281,10.648c0,0,18.173,17.031,33.142,22.371l5.359-15.988
			c0,0-22.824,0-30.647-14.392l0.739-2.67v-2.087H402.847z"/>
		<polygon fill="#E5D0D8" points="435.558,116.214 437.067,118.362 439.069,147.423 433.833,123.364 		"/>
		<polygon fill="#F6E3EB" points="437.067,118.362 440.27,130.085 438.145,132.202 		"/>
		<path fill="#8BAFC1" d="M372.939,133.276l10.688-2.117c0,0,10.688,4.266,13.891,11.723l2.895,7.457h-33.881L372.939,133.276z"/>
		
			<linearGradient id="SVGID_5_" gradientUnits="userSpaceOnUse" x1="5.5986" y1="403.2467" x2="282.8047" y2="403.2467" gradientTransform="matrix(1.3045 0 0 -1.3045 -5.3007 734.3344)">
			<stop  offset="1.331947e-007" style="stop-color:#FAF17C"/>
			<stop  offset="0.2926" style="stop-color:#FBF287"/>
			<stop  offset="0.7805" style="stop-color:#FBF4A0"/>
			<stop  offset="1" style="stop-color:#FBF5AD"/>
		</linearGradient>
		<path opacity="0.19" fill="url(#SVGID_5_)" enable-background="new    " d="M363.606,43.823L230.238,310.617h-29.939
			l-79.343,62.326c0,0-26.674-7.948-35.144-23.967c0,0-12.197-14.423-12.197-37.837H2.002v-35.137h6.376l0.123-74.416
			c0,0,0.308-18.259,16.14-29.981c0,0,8.347-7.733,21.992-8.378c13.645-0.675,121.448,0,121.448,0l20.329-102.25
			c0,0,2.495-12.95,14.661-16.387c0,0,2.279-1.32,10.965-0.767H363.606z"/>
		<rect x="139.899" y="174.796" fill="#F9F294" width="47.033" height="33.019"/>
		
			<line fill="none" stroke="#737264" stroke-width="0.3471" stroke-miterlimit="10" x1="341.214" y1="163.104" x2="341.214" y2="291.96"/>
	</g>
</g>
<g id="Layer_6">
</g>
</svg>
