<?xml version="1.0" encoding="utf-8"?>
<!-- Generator: Adobe Illustrator 21.0.0, SVG Export Plug-In . SVG Version: 6.00 Build 0)  -->
<svg version="1.1" id="Layer_1" xmlns="http://www.w3.org/2000/svg" xmlns:xlink="http://www.w3.org/1999/xlink" x="0px" y="0px"
	 viewBox="0 0 1920 1080" style="enable-background:new 0 0 1920 1080;" xml:space="preserve">
<style type="text/css">
	.st0{display:none;}
	.st1{display:inline;}
	.st2{clip-path:url(#SVGID_2_);fill:url(#SVGID_3_);}
	.st3{clip-path:url(#SVGID_5_);fill:url(#SVGID_6_);}
	.st4{clip-path:url(#SVGID_8_);fill:url(#SVGID_9_);}
	.st5{clip-path:url(#SVGID_11_);fill:url(#SVGID_12_);}
	.st6{clip-path:url(#SVGID_14_);fill:url(#SVGID_15_);}
	.st7{clip-path:url(#SVGID_17_);fill:url(#SVGID_18_);}
	.st8{display:inline;fill:#9797C6;}
	.st9{fill:#FFFFFF;}
	.st10{fill:none;stroke:#BABABA;stroke-width:1.3882;stroke-linecap:round;stroke-miterlimit:10;}
	.st11{fill:url(#SVGID_19_);}
	.st12{fill:#B298A2;}
	.st13{fill:url(#SVGID_20_);}
	.st14{fill:#383434;}
	.st15{fill:#EDC5A4;}
	.st16{fill:#999393;}
	.st17{fill:#706969;}
	.st18{fill:none;stroke:#898383;stroke-width:0.6941;stroke-miterlimit:10;}
	.st19{fill:#F4F186;}
	.st20{fill:#A5A0A0;}
	.st21{fill:#EAEAEA;}
	.st22{fill:#E0DFCE;}
	.st23{fill:#F9F193;}
	.st24{fill:#DBD8BD;}
	.st25{opacity:0.19;fill:url(#SVGID_21_);enable-background:new    ;}
	.st26{fill:#BABABA;}
	.st27{fill:#A3A2A2;}
	.st28{fill:#2E3192;}
	.st29{fill:#D3163E;}
	.st30{fill:#303030;}
	.st31{fill:#FCD0B1;}
	.st32{fill:url(#SVGID_22_);}
	.st33{fill:#D6BB65;}
	.st34{fill:#FFE5D2;}
	.st35{fill:#E5A38C;}
	.st36{fill:#EABE96;}
	.st37{fill:#4F4E4A;}
	.st38{fill:#7B9FBA;}
	.st39{fill:#95BAC6;}
	.st40{fill:#8AAFC1;}
	.st41{fill:#9EC3CC;}
	.st42{fill:#EAD8E0;}
	.st43{fill:#F7E4EB;}
	.st44{fill:#E5CFD8;}
	.st45{opacity:0.19;fill:url(#SVGID_23_);enable-background:new    ;}
	.st46{fill:none;stroke:#727163;stroke-width:0.3471;stroke-miterlimit:10;}
	.st47{fill:#F2A56F;}
	.st48{fill:#C9A172;}
	.st49{fill:url(#SVGID_24_);}
	.st50{fill:#C98557;}
	.st51{fill:#B1AA80;}
	.st52{fill:url(#SVGID_25_);}
	.st53{fill:url(#SVGID_26_);}
	.st54{fill:url(#SVGID_27_);}
	.st55{opacity:0.75;fill:url(#SVGID_28_);enable-background:new    ;}
	.st56{fill:url(#SVGID_29_);}
	.st57{fill:url(#SVGID_30_);}
	.st58{fill:url(#SVGID_31_);}
	.st59{opacity:0.62;fill:#FFFFFF;enable-background:new    ;}
	.st60{fill:url(#SVGID_32_);}
	.st61{fill:url(#SVGID_33_);}
	.st62{fill:url(#SVGID_34_);}
	.st63{fill:url(#SVGID_35_);}
	.st64{fill:url(#SVGID_36_);}
	.st65{opacity:0.71;fill:#FFFFFF;enable-background:new    ;}
	.st66{opacity:0.64;fill:#FFFFFF;enable-background:new    ;}
	.st67{opacity:0.34;fill:#FFFFFF;enable-background:new    ;}
	.st68{fill:#F9DABB;}
	.st69{fill:#F14950;}
	.st70{fill:#DD4551;}
	.st71{fill:#C1272D;}
	.st72{fill:#E5AD88;}
	.st73{fill:url(#SVGID_37_);}
	.st74{fill:#EAC38C;}
	.st75{fill:#6398A8;}
	.st76{fill:#F9D395;}
	.st77{fill:#FEF2E4;}
	.st78{fill:#CC9D7D;}
	.st79{fill:#F4B07D;}
	.st80{fill:#F9C193;}
	.st81{opacity:0.35;fill:#CC965C;enable-background:new    ;}
	.st82{opacity:0.35;fill:#4A818E;enable-background:new    ;}
	.st83{opacity:0.54;fill:#CC965C;enable-background:new    ;}
	.st84{fill:#F9CE95;}
	.st85{fill:none;stroke:#FEF2E4;stroke-width:2.7488;stroke-miterlimit:10;}
	.st86{fill:none;stroke:#FEF2E4;stroke-width:1.3744;stroke-miterlimit:10;}
	.st87{opacity:0.6;fill:#FFFFFF;enable-background:new    ;}
	.st88{fill:url(#SVGID_38_);}
	.st89{fill:#9797C6;}
	.st90{fill:url(#SVGID_39_);}
	.st91{fill:none;stroke:#6398A8;stroke-width:6.8182;stroke-miterlimit:10;}
	.st92{fill:none;stroke:#6398A8;stroke-width:8.1279;stroke-miterlimit:10;}
	.st93{fill:none;stroke:#6398A8;stroke-width:3.9468;stroke-miterlimit:10;}
	.st94{fill:#E0A882;}
</style>
<g id="background_แค่แถวบน" class="st0">
	<g class="st1">
		<g>
			<defs>
				<rect id="SVGID_1_" x="1920" width="1920" height="1080"/>
			</defs>
			<clipPath id="SVGID_2_">
				<use xlink:href="#SVGID_1_"  style="overflow:visible;"/>
			</clipPath>
			
				<linearGradient id="SVGID_3_" gradientUnits="userSpaceOnUse" x1="-3842" y1="539.78" x2="7681" y2="539.78" gradientTransform="matrix(1 0 0 -1 0 1080)">
				<stop  offset="0" style="stop-color:#FFC06E"/>
				<stop  offset="0.1403" style="stop-color:#EFACB8"/>
				<stop  offset="0.3675" style="stop-color:#B1B1E5"/>
				<stop  offset="0.5966" style="stop-color:#99CDC6"/>
				<stop  offset="0.6669" style="stop-color:#AACDAE"/>
				<stop  offset="0.7491" style="stop-color:#BBCE95"/>
				<stop  offset="0.7893" style="stop-color:#C6CB92"/>
				<stop  offset="0.9256" style="stop-color:#E7C289"/>
				<stop  offset="1" style="stop-color:#F4BE86"/>
			</linearGradient>
			<rect x="-3842" y="0.4" class="st2" width="11523" height="1079.6"/>
		</g>
	</g>
	<g class="st1">
		<g>
			<defs>
				<rect id="SVGID_4_" x="-3840" width="1920" height="1080"/>
			</defs>
			<clipPath id="SVGID_5_">
				<use xlink:href="#SVGID_4_"  style="overflow:visible;"/>
			</clipPath>
			
				<linearGradient id="SVGID_6_" gradientUnits="userSpaceOnUse" x1="-3840" y1="539.78" x2="7683" y2="539.78" gradientTransform="matrix(1 0 0 -1 0 1080)">
				<stop  offset="0" style="stop-color:#FFC06E"/>
				<stop  offset="0.1403" style="stop-color:#EFACB8"/>
				<stop  offset="0.3675" style="stop-color:#B1B1E5"/>
				<stop  offset="0.5966" style="stop-color:#99CDC6"/>
				<stop  offset="0.6669" style="stop-color:#AACDAE"/>
				<stop  offset="0.7491" style="stop-color:#BBCE95"/>
				<stop  offset="0.7893" style="stop-color:#C6CB92"/>
				<stop  offset="0.9256" style="stop-color:#E7C289"/>
				<stop  offset="1" style="stop-color:#F4BE86"/>
			</linearGradient>
			<rect x="-3840" y="0.4" class="st3" width="11523" height="1079.6"/>
		</g>
	</g>
	<g class="st1">
		<g>
			<defs>
				<rect id="SVGID_7_" x="-1920" width="1920" height="1080"/>
			</defs>
			<clipPath id="SVGID_8_">
				<use xlink:href="#SVGID_7_"  style="overflow:visible;"/>
			</clipPath>
			
				<linearGradient id="SVGID_9_" gradientUnits="userSpaceOnUse" x1="-3840" y1="539.78" x2="7683" y2="539.78" gradientTransform="matrix(1 0 0 -1 0 1080)">
				<stop  offset="0" style="stop-color:#FFC06E"/>
				<stop  offset="0.1403" style="stop-color:#EFACB8"/>
				<stop  offset="0.3675" style="stop-color:#B1B1E5"/>
				<stop  offset="0.5966" style="stop-color:#99CDC6"/>
				<stop  offset="0.6669" style="stop-color:#AACDAE"/>
				<stop  offset="0.7491" style="stop-color:#BBCE95"/>
				<stop  offset="0.7893" style="stop-color:#C6CB92"/>
				<stop  offset="0.9256" style="stop-color:#E7C289"/>
				<stop  offset="1" style="stop-color:#F4BE86"/>
			</linearGradient>
			<rect x="-3840" y="0.4" class="st4" width="11523" height="1079.6"/>
		</g>
	</g>
	<g class="st1">
		<g>
			<defs>
				<rect id="SVGID_10_" width="1920" height="1080"/>
			</defs>
			<clipPath id="SVGID_11_">
				<use xlink:href="#SVGID_10_"  style="overflow:visible;"/>
			</clipPath>
			
				<linearGradient id="SVGID_12_" gradientUnits="userSpaceOnUse" x1="-3840" y1="539.78" x2="7683" y2="539.78" gradientTransform="matrix(1 0 0 -1 0 1080)">
				<stop  offset="0" style="stop-color:#FFC06E"/>
				<stop  offset="0.1403" style="stop-color:#EFACB8"/>
				<stop  offset="0.3675" style="stop-color:#B1B1E5"/>
				<stop  offset="0.5966" style="stop-color:#99CDC6"/>
				<stop  offset="0.6669" style="stop-color:#AACDAE"/>
				<stop  offset="0.7491" style="stop-color:#BBCE95"/>
				<stop  offset="0.7893" style="stop-color:#C6CB92"/>
				<stop  offset="0.9256" style="stop-color:#E7C289"/>
				<stop  offset="1" style="stop-color:#F4BE86"/>
			</linearGradient>
			<rect x="-3840" y="0.4" class="st5" width="11523" height="1079.6"/>
		</g>
	</g>
	<g class="st1">
		<g>
			<defs>
				<rect id="SVGID_13_" x="3840" width="1920" height="1080"/>
			</defs>
			<clipPath id="SVGID_14_">
				<use xlink:href="#SVGID_13_"  style="overflow:visible;"/>
			</clipPath>
			
				<linearGradient id="SVGID_15_" gradientUnits="userSpaceOnUse" x1="-3843" y1="539.78" x2="7680" y2="539.78" gradientTransform="matrix(1 0 0 -1 0 1080)">
				<stop  offset="0" style="stop-color:#FFC06E"/>
				<stop  offset="0.1403" style="stop-color:#EFACB8"/>
				<stop  offset="0.3675" style="stop-color:#B1B1E5"/>
				<stop  offset="0.5966" style="stop-color:#99CDC6"/>
				<stop  offset="0.6669" style="stop-color:#AACDAE"/>
				<stop  offset="0.7491" style="stop-color:#BBCE95"/>
				<stop  offset="0.7893" style="stop-color:#C6CB92"/>
				<stop  offset="0.9256" style="stop-color:#E7C289"/>
				<stop  offset="1" style="stop-color:#F4BE86"/>
			</linearGradient>
			<rect x="-3843" y="0.4" class="st6" width="11523" height="1079.6"/>
		</g>
	</g>
	<g class="st1">
		<g>
			<defs>
				<rect id="SVGID_16_" x="5760" width="1924" height="1080"/>
			</defs>
			<clipPath id="SVGID_17_">
				<use xlink:href="#SVGID_16_"  style="overflow:visible;"/>
			</clipPath>
			
				<linearGradient id="SVGID_18_" gradientUnits="userSpaceOnUse" x1="-3865.01" y1="539.78" x2="7682" y2="539.78" gradientTransform="matrix(1 0 0 -1 0 1080)">
				<stop  offset="0" style="stop-color:#FFC06E"/>
				<stop  offset="0.1403" style="stop-color:#EFACB8"/>
				<stop  offset="0.3675" style="stop-color:#B1B1E5"/>
				<stop  offset="0.5966" style="stop-color:#99CDC6"/>
				<stop  offset="0.6669" style="stop-color:#AACDAE"/>
				<stop  offset="0.7491" style="stop-color:#BBCE95"/>
				<stop  offset="0.7893" style="stop-color:#C6CB92"/>
				<stop  offset="0.9256" style="stop-color:#E7C289"/>
				<stop  offset="1" style="stop-color:#F4BE86"/>
			</linearGradient>
			<rect x="-3865" y="0.4" class="st7" width="11547" height="1079.6"/>
		</g>
	</g>
</g>
<g id="clouds" class="st0">
</g>
<g id="water" class="st0">
	<path class="st8" d="M1822,963.6h-58.5c0.3-1,0.5-2,0.5-3.1c0-6.1-4.9-11-11-11h-194.4c-6.1,0-11,4.9-11,11s4.9,11,11,11h58.5
		c-0.3,1-0.5,2-0.5,3.1c0,1.7,0.4,3.3,1.1,4.7h-128c-6.1,0-11,4.9-11,11s4.9,11,11,11H1684c6.1,0,11-4.9,11-11
		c0-1.7-0.4-3.3-1.1-4.7h128c6.1,0,11-4.9,11-11C1832.9,968.5,1828,963.6,1822,963.6z"/>
	<path class="st8" d="M428.9,954.7h-28.1c0-0.2,0-0.4,0-0.6c0-4.3-4.6-7.7-10.2-7.7H236.5c-5.6,0-10.2,3.5-10.2,7.7
		s4.6,7.7,10.2,7.7h46.4c0,0.1,0,0.1,0,0.2v0.9c0,1.4,0.5,2.6,1.4,3.7h-26.6c-4.3,0-7.8,2.6-7.8,5.9v3.6c0,3.3,3.5,5.9,7.8,5.9h86.6
		c4.3,0,7.8-2.6,7.8-5.9v-3.6c0-0.8-0.2-1.6-0.6-2.3h77.5c5.3,0,9.6-3.3,9.6-7.3V962C438.5,958,434.2,954.7,428.9,954.7z"/>
	<path class="st8" d="M1108.2,1017.2h-58.5c0.3-1,0.5-2,0.5-3.1c0-6.1-4.9-11-11-11H844.9c-6.1,0-11,4.9-11,11s4.9,11,11,11h58.5
		c-0.3,1-0.5,2-0.5,3.1c0,1.7,0.4,3.3,1.1,4.7h-128c-6.1,0-11,4.9-11,11c0,6.1,4.9,11,11,11h194.4c6.1,0,11-4.9,11-11
		c0-1.7-0.4-3.3-1.1-4.7h128c6.1,0,11-4.9,11-11C1119.2,1022.1,1114.3,1017.2,1108.2,1017.2z"/>
</g>
<g id="text">
</g>
<g id="ปุ่มซ้ายขวา" class="st0">
	<g class="st1">
		<path class="st9" d="M159.6,956v67.8c0,3.3-3.7,5.3-6.5,3.5l-51.6-34.4c-2.5-1.7-2.5-5.4,0.1-7l51.6-33.3
			C155.9,950.6,159.6,952.6,159.6,956z"/>
		<path class="st9" d="M1761.1,956v67.8c0,3.3,3.7,5.3,6.5,3.5l51.6-34.4c2.5-1.7,2.5-5.4-0.1-7l-51.6-33.3
			C1764.8,950.6,1761.1,952.6,1761.1,956z"/>
	</g>
</g>
<g id="ชื่อประเทศ" class="st0">
	<g class="st1">
		<g>
			<path class="st9" d="M649.5,298.4c1.2-0.2,2-0.5,2.4-0.9s0.5-0.9,0.5-1.8v-73.2c0-0.9-0.2-1.5-0.5-1.8c-0.4-0.3-1.2-0.6-2.4-0.9
				l-4.5-1v-2.4h75.2v23.8h-3c-1.7-5.3-3.3-9.3-4.8-12c-1.5-2.7-3.6-4.7-6.3-6.1c-2.7-1.4-6.5-2.1-11.3-2.1h-17.3v36.2h31.5v3.7
				h-31.5v38.2h18.5c4.8,0,8.6-0.7,11.3-2.2c2.8-1.5,4.9-3.6,6.5-6.3s3.2-6.8,4.9-12.1h3.2v24.3H645v-2.4L649.5,298.4z"/>
			<path class="st9" d="M739.7,220.7c-0.4-0.3-1.2-0.6-2.4-0.9l-4.5-1v-2.4h33.8l39.3,49.5v-43.6c0-0.9-0.2-1.5-0.5-1.8
				c-0.4-0.3-1.1-0.6-2.3-0.8l-4.4-1v-2.4h18.5v2.4l-4.5,1c-1.2,0.2-2,0.5-2.4,0.9c-0.4,0.3-0.5,0.9-0.5,1.8v79.3h-4.4l-61.2-77.5
				v71.5c0,0.9,0.2,1.5,0.5,1.8c0.4,0.3,1.1,0.5,2.3,0.8l4.4,1v2.4h-18.5v-2.4l4.5-1c1.2-0.2,2-0.5,2.4-0.9s0.5-0.9,0.5-1.8v-73.2
				C740.3,221.6,740.1,221,739.7,220.7z"/>
			<path class="st9" d="M856.9,279.8c1.9,6.3,4.9,10.9,9.2,13.9s10,4.4,17.3,4.4h3.9v-30h-12.1v-3.7h33.3v32.1
				c-1.8,0.3-3.9,0.8-6.4,1.4c-2.5,0.6-4.4,1.1-5.7,1.4c-5.4,1.4-9.7,2.4-12.9,3s-6.2,1-9,1c-8.7,0-16.6-1.5-23.7-4.5
				c-7.1-3-12.8-7.8-17.1-14.6c-4.3-6.8-6.5-15.5-6.5-26.4c0-14.7,4.4-25.6,13.3-32.5c8.9-6.9,20.5-10.4,35-10.4
				c6,0,11.8,0.5,17.5,1.6c5.7,1.1,10.1,2.4,13.2,3.9l-1.7,21h-3.4c-2.3-6.9-5.4-12.5-9.3-16.6c-4-4.2-9.3-6.3-16.2-6.3
				c-7.7,0-13.3,3-16.6,9.1c-3.3,6.1-5,15.1-5,27.1C854.1,265.1,855,273.5,856.9,279.8z"/>
			<path class="st9" d="M926.9,220.7c-0.4-0.3-1.2-0.6-2.4-0.9l-4.5-1v-2.4h40.5v2.4l-5.3,1.1c-1.2,0.2-2,0.5-2.4,0.9
				c-0.4,0.3-0.5,0.9-0.5,1.8v75.5h15.4c4.8,0,8.5-0.7,11.2-2.2c2.7-1.5,4.8-3.5,6.3-6.2s3.2-6.8,5.1-12.2h3.4v24.3H920v-2.4l4.5-1
				c1.2-0.2,2-0.5,2.4-0.9s0.5-0.9,0.5-1.8v-73.2C927.4,221.6,927.3,221,926.9,220.7z"/>
			<path class="st9" d="M1049.6,299.4l5.3-0.5c1.1-0.2,1.7-0.6,1.7-1.3c0-0.4-0.1-0.9-0.4-1.5l-8.1-17.8h-28.3l-7.3,17.8
				c-0.2,0.6-0.4,1.1-0.4,1.5c0,0.7,0.6,1.2,1.7,1.3l5.3,0.5v2.4h-18.5v-2.4l4.5-0.5c1-0.1,1.7-0.3,2.1-0.7c0.4-0.4,0.8-1.1,1.3-2.2
				l33.8-80.9h3.9l35.8,80.9c0.5,1.1,0.9,1.8,1.3,2.2c0.4,0.4,1.1,0.6,2.1,0.7l4.5,0.5v2.4h-40.3L1049.6,299.4L1049.6,299.4z
				 M1046.5,274.6l-13.2-29.2l-12.1,29.2H1046.5z"/>
			<path class="st9" d="M1102.1,220.7c-0.4-0.3-1.2-0.6-2.4-0.9l-4.5-1v-2.4h33.8l39.3,49.5v-43.6c0-0.9-0.2-1.5-0.6-1.8
				c-0.4-0.3-1.1-0.6-2.3-0.8l-4.4-1v-2.4h18.5v2.4l-4.5,1c-1.2,0.2-2,0.5-2.4,0.9c-0.4,0.3-0.6,0.9-0.6,1.8v79.3h-4.4l-61.2-77.5
				v71.5c0,0.9,0.2,1.5,0.6,1.8c0.4,0.3,1.1,0.5,2.3,0.8l4.4,1v2.4h-18.5v-2.4l4.5-1c1.2-0.2,2-0.5,2.4-0.9s0.6-0.9,0.6-1.8v-73.2
				C1102.6,221.6,1102.4,221,1102.1,220.7z"/>
			<path class="st9" d="M1190.5,298.4c1.2-0.2,2-0.5,2.4-0.9s0.6-0.9,0.6-1.8v-73.2c0-0.9-0.2-1.5-0.6-1.8c-0.4-0.3-1.2-0.6-2.4-0.9
				l-4.5-1v-2.4h37.3c17.1,0,30.1,3.2,39,9.6c8.9,6.4,13.4,17.4,13.4,33.1c0,15.6-4.5,26.6-13.4,33.1c-8.9,6.4-22,9.6-39,9.6h-37.3
				v-2.4L1190.5,298.4z M1218.3,298.1h5c6.8,0,12-1.2,15.6-3.6s6.2-6.4,7.7-11.9c1.5-5.5,2.2-13.4,2.2-23.5c0-10.2-0.7-18-2.2-23.6
				c-1.5-5.5-4-9.5-7.7-11.9c-3.7-2.4-8.9-3.6-15.6-3.6h-5V298.1z"/>
		</g>
	</g>
</g>
<g id="Layer_5">
</g>
<g id="รถในหลวง" class="st0">
	<g class="st1">
		<line class="st10" x1="1058.9" y1="765.3" x2="1058.9" y2="742.5"/>
		
			<linearGradient id="SVGID_19_" gradientUnits="userSpaceOnUse" x1="903.07" y1="326.955" x2="1017.95" y2="326.955" gradientTransform="matrix(1 0 0 -1 0 1080)">
			<stop  offset="3.356507e-07" style="stop-color:#FBE979"/>
			<stop  offset="0.2926" style="stop-color:#FCED83"/>
			<stop  offset="0.7805" style="stop-color:#FEF99C"/>
			<stop  offset="1" style="stop-color:#FFFFAA"/>
		</linearGradient>
		<path class="st11" d="M1018,781.3H903.1l10-49c0-4.2,3-7.6,6.7-7.6h83.4c3.4,0,6.2,3.2,6.2,7L1018,781.3z"/>
		<path class="st12" d="M964.8,729.6v29.8h44.1c0,0-2.8-29.8-5.5-29.2L964.8,729.6z"/>
		
			<linearGradient id="SVGID_20_" gradientUnits="userSpaceOnUse" x1="854.83" y1="292.25" x2="1067.23" y2="292.25" gradientTransform="matrix(1 0 0 -1 0 1080)">
			<stop  offset="2.024560e-07" style="stop-color:#FBE27B"/>
			<stop  offset="0.2891" style="stop-color:#FCE783"/>
			<stop  offset="0.7461" style="stop-color:#FEF59A"/>
			<stop  offset="0.9568" style="stop-color:#FFFDA7"/>
			<stop  offset="1" style="stop-color:#FFFFAA"/>
		</linearGradient>
		<path class="st13" d="M1067.2,811.9H854.8v-20.3c0-15.4,12.5-27.9,27.9-27.9h152.8c17.5,0,31.7,14.2,31.7,31.7L1067.2,811.9
			L1067.2,811.9z"/>
		<circle class="st14" cx="896.7" cy="812" r="20.7"/>
		<path class="st15" d="M982.9,741.4l-0.3,4.9c0,0,3.1,3.8,6.3,3.8c0,0,3.8,1,4.5,0.3l0.3-3.5L982.9,741.4z"/>
		<circle class="st14" cx="1026.1" cy="812" r="20.7"/>
		<g>
			<circle class="st16" cx="896.5" cy="811.9" r="9.7"/>
			<path class="st17" d="M894.8,819.5c0,0,0.3-2.4,1.7-2.4c1.4,0,1.7,2.4,1.7,2.4H894.8z"/>
			<path class="st17" d="M900.1,818.8c0,0-1.3-2-0.3-2.9s2.8,0.8,2.8,0.8L900.1,818.8z"/>
			<path class="st17" d="M903.7,814.8c0,0-2.3-0.7-2.1-2.1c0.2-1.4,2.7-1.2,2.7-1.2L903.7,814.8z"/>
			<path class="st17" d="M903.9,809.5c0,0-2.2,1-2.9-0.2c-0.7-1.2,1.3-2.7,1.3-2.7L903.9,809.5z"/>
			<path class="st17" d="M900.7,805.3c0,0-1.1,2.2-2.4,1.7s-0.7-2.8-0.7-2.8L900.7,805.3z"/>
			<path class="st17" d="M895.4,804.1c0,0,0.6,2.4-0.7,2.8c-1.3,0.5-2.4-1.7-2.4-1.7L895.4,804.1z"/>
			<path class="st17" d="M890.7,806.6c0,0,2,1.5,1.3,2.7s-2.9,0.2-2.9,0.2L890.7,806.6z"/>
			<path class="st17" d="M888.7,811.5c0,0,2.4-0.2,2.7,1.2s-2.1,2.1-2.1,2.1L888.7,811.5z"/>
			<path class="st17" d="M890.3,816.6c0,0,1.8-1.7,2.8-0.8s-0.3,2.9-0.3,2.9L890.3,816.6z"/>
			<circle class="st18" cx="896.5" cy="811.9" r="7.8"/>
		</g>
		<g>
			<polygon class="st19" points="869.4,805.6 877.7,787.6 917.9,787.6 925.6,805.6 919,805.6 911.5,796.4 881.7,796.4 874.2,805.6 
							"/>
		</g>
		<g>
			<circle class="st16" cx="1026.3" cy="811.9" r="9.7"/>
			<path class="st17" d="M1024.6,819.5c0,0,0.3-2.4,1.7-2.4s1.7,2.4,1.7,2.4H1024.6z"/>
			<path class="st17" d="M1029.9,818.8c0,0-1.3-2-0.3-2.9c1.1-0.9,2.8,0.8,2.8,0.8L1029.9,818.8z"/>
			<path class="st17" d="M1033.5,814.8c0,0-2.3-0.7-2.1-2.1s2.7-1.2,2.7-1.2L1033.5,814.8z"/>
			<path class="st17" d="M1033.7,809.5c0,0-2.2,1-2.9-0.2c-0.7-1.2,1.3-2.7,1.3-2.7L1033.7,809.5z"/>
			<path class="st17" d="M1030.4,805.3c0,0-1.1,2.2-2.4,1.7s-0.7-2.8-0.7-2.8L1030.4,805.3z"/>
			<path class="st17" d="M1025.2,804.1c0,0,0.6,2.4-0.7,2.8c-1.3,0.5-2.4-1.7-2.4-1.7L1025.2,804.1z"/>
			<path class="st17" d="M1020.5,806.6c0,0,2,1.5,1.3,2.7s-2.9,0.2-2.9,0.2L1020.5,806.6z"/>
			<path class="st17" d="M1018.5,811.5c0,0,2.4-0.2,2.7,1.2s-2.1,2.1-2.1,2.1L1018.5,811.5z"/>
			<path class="st17" d="M1020.1,816.6c0,0,1.8-1.7,2.8-0.8s-0.3,2.9-0.3,2.9L1020.1,816.6z"/>
			<circle class="st18" cx="1026.3" cy="811.9" r="7.8"/>
		</g>
		<path class="st19" d="M999.9,805.7c0,0,2.1-21.6,26.4-21.6s27,21.5,27,21.5s-7.9,0.4-7.9,0c0-13.1-18.1-15.3-18.1-15.3
			s-19.5,2.8-20.5,15.3L999.9,805.7z"/>
		<path class="st16" d="M854.8,811.9H876l6.3-14.7H911l6.3,14.7h88.2c0,0,0.1-2.8,1.4-6.3c1.6-4.4,4.9-9.8,12.1-12.6
			c5.2-2,11-1.7,16.1,0.6c4.2,2,8.4,5.4,10.5,12c0.6,1.8,1,3.9,1.3,6.2h20.5v-6.3l-18.4,0c-1-4.2-6.6-17-21.5-17
			c-13.9,0-21.5,8.7-23.6,17h-83.3l-5.5-13.2h-34.7l-6.6,13.2h-18.7L854.8,811.9L854.8,811.9z"/>
		<path class="st14" d="M1064.1,771.7v32.8c0,0.6,0.5,1.1,1.1,1.1h3.3c0.6,0,1.1-0.5,1.1-1.1v-30.8c0-0.4-0.2-0.8-0.6-1l-3.3-2
			C1065.1,770.2,1064.1,770.8,1064.1,771.7z"/>
		<polygon class="st20" points="1064.1,769.5 1064.1,805.6 1066,805.6 1066,770.8 		"/>
		<polygon class="st20" points="1065.8,773.7 1069.7,776.3 1069.7,778.2 1066,775.8 		"/>
		<polygon class="st20" points="1065.8,778.5 1069.7,781.2 1069.7,783.1 1066,780.6 		"/>
		<polygon class="st20" points="1065.8,783.4 1069.7,786 1069.7,787.9 1066,785.5 		"/>
		<polygon class="st20" points="1065.8,788.3 1069.7,790.9 1069.7,792.8 1066,790.3 		"/>
		<polygon class="st20" points="1065.8,793.1 1069.7,795.7 1069.7,797.6 1066,795.2 		"/>
		<polygon class="st21" points="960,729.6 960,759.8 918.7,759.8 922.9,731.3 925.6,729.6 		"/>
		<polygon class="st20" points="1065.8,798 1069.7,800.6 1069.7,802.5 1066,800.1 		"/>
		<path class="st22" d="M1062.1,783.4h-1.2c-1.1,0-2-0.9-2-2v-15.1c0-1.1,0.9-2,2-2h1.2c1.1,0,2,0.9,2,2v15.1
			C1064.1,782.5,1063.2,783.4,1062.1,783.4z"/>
		<path class="st23" d="M1013.1,764.3v22.5c0,0-12.1,7-12.2,18.8l-38.1,0.1v-41.4H1013.1z"/>
		<rect x="966.6" y="767.5" class="st24" width="9" height="1.7"/>
		
			<linearGradient id="SVGID_21_" gradientUnits="userSpaceOnUse" x1="917.3" y1="295.03" x2="961.03" y2="295.03" gradientTransform="matrix(1 0 0 -1 0 1080)">
			<stop  offset="3.356507e-07" style="stop-color:#FBDB79"/>
			<stop  offset="0.2926" style="stop-color:#FCE283"/>
			<stop  offset="0.7805" style="stop-color:#FEF59C"/>
			<stop  offset="1" style="stop-color:#FFFFAA"/>
		</linearGradient>
		<polygon class="st25" points="917.3,764.3 917.3,787.6 918,787.6 925.5,805.6 961,805.6 961,764.3 		"/>
		<rect x="921.1" y="767.5" class="st24" width="9" height="1.7"/>
		<g>
			<path class="st26" d="M1000.7,730c2.1,0,3.8,1.5,4.1,3.5l3.9,26h-43.5v-26V730H1000.7 M1000.7,728.6h-36.9v4.9v27.4h46.5
				l-4.2-27.6C1005.8,730.6,1003.4,728.6,1000.7,728.6L1000.7,728.6z"/>
		</g>
		<g>
			<path class="st26" d="M959.3,730v29.5h-40.4l4-26.9c0.2-1.5,1.5-2.6,3-2.6H959.3 M960.7,728.6H926c-2.2,0-4,1.6-4.4,3.8
				l-4.3,28.5h43.4V728.6L960.7,728.6z"/>
		</g>
		<rect x="960.7" y="728.6" class="st27" width="3.1" height="32.3"/>
		<rect x="852.8" y="800.4" class="st16" width="4.9" height="11.5"/>
		<g>
			<rect x="1057.9" y="743.2" class="st28" width="20.8" height="11.5"/>
			<rect x="1057.9" y="743.2" class="st29" width="20.8" height="2.8"/>
			<rect x="1057.9" y="751.8" class="st29" width="20.8" height="2.8"/>
			<rect x="1057.9" y="750.8" class="st9" width="20.8" height="2.1"/>
			<rect x="1057.9" y="744.9" class="st9" width="20.8" height="2.1"/>
		</g>
		<g>
			<path class="st30" d="M982.5,741c0,0-5,1.9-7.3-3.9c-1.7-4.4-0.6-3-1.9-4.7c-1.3-1.7-2.4-5.1-1.5-7.3c0,0-0.8-5.6,4.2-8.3
				c0,0,1,0.9,2.2-2s5.9-2.5,6.8-2.8c1-0.3,4.7-1.2,6.4-0.6s3.2,1.2,4.4,1.3c1.2,0.2,2.9,0.1,3.8,1.3c0.9,1.2,1.7,2.7,2.1,3.2
				c0.4,0.5,0.6,0.3,1,1.7c0.4,1.4-0.8,4.3-0.8,4.3L982.5,741z"/>
			<path class="st31" d="M982.5,735.4c0,0-2-1.8-3.4-0.4c-0.6,0.6-0.8,1.4-0.6,2.2c0.3,1.2,1.2,3.2,3.9,3.8c0,0,2.2,4.3,4.5,5.3
				s9.6,1,10.1,0.8c1.2-0.7,3.8-4.3,4.9-6.3c0.3-0.5,0.4-1,0.4-1.6c0.1-1.4,0.2-4.5,0.2-4.9c0-0.5,0-7.4-0.1-8s-0.8-7.9-5.7-7.8
				c0,0-2.1,0.6-3.2,2c-1,1.3-4.4,1.7-4.5,1.3c0,0-2,1.5-3.9,0.8c0,0-3.3,0.8-5.2-1c0,0-2.8,5.1,2.7,8L982.5,735.4z"/>
			
				<radialGradient id="SVGID_22_" cx="1046.5415" cy="1178.5743" r="3.794" gradientTransform="matrix(0.9583 -0.2857 -0.2857 -0.9583 322.6224 2168.4417)" gradientUnits="userSpaceOnUse">
				<stop  offset="6.713014e-07" style="stop-color:#FF776A;stop-opacity:0.3"/>
				<stop  offset="0.5769" style="stop-color:#FF7993;stop-opacity:0.1269"/>
				<stop  offset="1" style="stop-color:#FF7BAC;stop-opacity:0"/>
			</radialGradient>
			<path class="st32" d="M992.7,738.8c0.5,1.8-0.8,3.8-2.9,4.5c-2.2,0.7-4.4-0.3-4.9-2.2s0.8-3.8,2.9-4.5
				C990,736,992.2,737,992.7,738.8z"/>
			<g>
				<path class="st33" d="M995.3,737.9c0,0-0.1,0-0.1,0l-7.1,0.8c-0.4,0-0.8-0.2-0.8-0.6l-1-4.6c-0.1-0.4,0.1-0.8,0.5-0.9
					c4.1-1.4,7.3-1.2,8.5-1c0.4,0,0.7,0.4,0.7,0.8l0,4.7C995.8,737.5,995.6,737.8,995.3,737.9z M986.7,733.5l1,4.6
					c0,0.1,0.2,0.2,0.3,0.2l7.1-0.8c0.1,0,0.2-0.1,0.2-0.3l0-4.7c0-0.1-0.1-0.3-0.2-0.3c-1.2-0.2-4.3-0.4-8.3,1
					C986.7,733.3,986.6,733.4,986.7,733.5L986.7,733.5z"/>
			</g>
			<g>
				<path class="st33" d="M1004.5,737.4c0,0-0.1,0-0.1,0h0l-3.4,0c-0.2,0-1.2,0.1-1.3-0.5v0l-0.6-4.7c-0.1-0.4,0.1-0.8,0.5-0.9
					c0,0,0,0,0,0c3-0.9,4.4-0.4,5.4-0.1c0.4,0.1,0.6,0.4,0.6,0.8v0l-0.6,4.6C1005.1,737,1004.9,737.3,1004.5,737.4z M1004.4,736.9
					c0.1,0,0.2-0.1,0.2-0.3v0l0.6-4.6c0-0.2-0.2-0.2-0.3-0.3c-1.1-0.3-2.3-0.8-5.2,0.1l0,0c-0.1,0-0.2,0.2-0.2,0.3v0l0.5,4.7
					c0.1,0.1,0.5,0.1,0.8,0.1h0L1004.4,736.9z"/>
			</g>
			<g>
				<path class="st33" d="M999.3,734c-0.3-0.4-0.8-0.7-1.2-0.7c-1.2-0.1-2.4,1-2.4,1l-0.3-0.4c0.1,0,1.4-1.3,2.8-1.2
					c0.6,0,1.2,0.3,1.6,0.9L999.3,734z"/>
			</g>
			<g>
				<polygon class="st33" points="986.6,734.7 982.2,734.8 982.1,735 981.6,734.8 981.9,734.3 986.6,734.2 				"/>
			</g>
			
				<ellipse transform="matrix(0.9942 -0.1074 0.1074 0.9942 -73.1135 110.801)" class="st30" cx="992.1" cy="734.2" rx="0.8" ry="1.2"/>
			
				<ellipse transform="matrix(0.9942 -0.1074 0.1074 0.9942 -72.9429 111.7893)" class="st30" cx="1001.4" cy="733.1" rx="0.7" ry="1.1"/>
			<path class="st34" d="M997.8,733.9c0,0,1.2,1.1,1.3,1.4c0.1,0.4-0.1,1.5-0.6,1.8"/>
			<path class="st35" d="M998.1,740.1c0,0,0-0.1-0.1-0.1c0,0-0.1,0-0.1,0l-0.1,0c-0.1,0-0.2,0.1-0.2,0.2c0,0,0,0.9-1.3,1.2
				s-1.7-0.5-1.8-0.6c0-0.1-0.1-0.1-0.2-0.1l-0.1,0c-0.1,0-0.1,0.1-0.1,0.2c0.1,0.3,0.6,0.9,1.7,0.9c0.2,0,0.4,0,0.6-0.1
				c0.1,0,0.2,0,0.3-0.1l0,0C998.2,741.4,998.1,740.2,998.1,740.1z"/>
			<g>
				<path class="st30" d="M993.3,729.9c0,0-0.1,0-0.1,0c0,0-0.6-0.7-1.5-0.7c-0.7,0-1.5,0.3-2.3,1c0,0-0.1,0-0.2,0s0-0.1,0-0.2
					c0.8-0.8,1.7-1.1,2.5-1c1,0.1,1.6,0.8,1.7,0.8C993.4,729.8,993.4,729.8,993.3,729.9C993.3,729.9,993.3,729.9,993.3,729.9z"/>
			</g>
			<g>
				<path class="st30" d="M1001.8,729.2C1001.8,729.2,1001.8,729.2,1001.8,729.2c-0.1,0-0.2,0-0.2-0.1c0,0-0.1-0.5-0.8-0.5
					c-0.8,0-0.9,0.7-0.9,0.7c0,0.1-0.1,0.1-0.1,0.1c-0.1,0-0.1-0.1-0.1-0.1c0,0,0.2-0.9,1.2-0.9c1,0,1.1,0.7,1.1,0.7
					C1001.9,729.1,1001.9,729.2,1001.8,729.2z"/>
			</g>
			<path class="st36" d="M979.6,736.9c0-0.3,0.1-0.6,0.3-0.8c0.1-0.1,0.3-0.1,0.4-0.1c0.4,0.1,1.6,1,1.7,1.4c0,0-0.7-0.1-0.6,1.1
				c0,0,0.2,0.6,0.5,0.6C982.2,739.2,979.8,739.3,979.6,736.9z"/>
			<polygon class="st37" points="976.7,716.8 980,721.7 979.9,721.9 976,716.8 			"/>
		</g>
		<polygon class="st38" points="980.1,747.3 973.2,753.9 971.1,759.5 995,759.5 997.1,759.5 994.3,753.6 		"/>
		<polygon class="st39" points="979.9,747.5 988.5,757.4 993.3,757.4 992.3,759.5 995.4,759.5 990.9,753.9 980.1,747.3 		"/>
		<path class="st40" d="M994.3,750.2l5.6,4.1l1.7,5.2H995l-0.3-0.7C994.7,758.8,993.2,750.3,994.3,750.2z"/>
		<polygon class="st41" points="994.8,750.6 996.8,755.7 995,757.4 997,759.5 994.8,759.5 994,749.8 		"/>
		<polygon class="st42" points="992.6,749.4 994,754.6 994.7,758.8 990.5,753.6 		"/>
		<path class="st43" d="M982.9,743.2l-1.4,0.7l-1.4,3.5c0,0,5.9,5.5,10.8,7.3l1.7-5.2c0,0-7.4,0-10-4.7l0.2-0.9L982.9,743.2
			L982.9,743.2z"/>
		<polygon class="st44" points="993.5,748.4 994,749 994.7,758.5 993,750.7 		"/>
		<polygon class="st43" points="994,749 995,752.9 994.3,753.6 		"/>
		<path class="st40" d="M973.2,753.9l3.5-0.7c0,0,3.5,1.4,4.5,3.8l0.9,2.4h-11L973.2,753.9z"/>
		
			<linearGradient id="SVGID_23_" gradientUnits="userSpaceOnUse" x1="852.7501" y1="301.637" x2="970.15" y2="301.637" gradientTransform="matrix(1 0 0 -1 0 1080)">
			<stop  offset="1.331947e-07" style="stop-color:#FBF179"/>
			<stop  offset="0.2926" style="stop-color:#FCF483"/>
			<stop  offset="0.7805" style="stop-color:#FEFB9C"/>
			<stop  offset="1" style="stop-color:#FFFFAA"/>
		</linearGradient>
		<path class="st45" d="M970.2,724.8l-43.3,86.9h-9.7L891.4,832c0,0-8.7-2.6-11.4-7.8c0,0-4-4.7-4-12.3h-23.3v-11.5h2.1l0-24.3
			c0,0,0.1-6,5.2-9.8c0,0,2.7-2.5,7.1-2.7c4.4-0.2,39.4,0,39.4,0l6.6-33.3c0,0,0.8-4.2,4.8-5.3c0,0,0.7-0.4,3.6-0.3L970.2,724.8
			L970.2,724.8z"/>
		<rect x="897.5" y="767.5" class="st23" width="15.3" height="10.8"/>
		<line class="st46" x1="962.9" y1="763.6" x2="962.9" y2="805.6"/>
	</g>
</g>
<g id="Layer_6">
</g>
<g id="Layer_1_1_">
	<g>
		<g>
			<path class="st47" d="M2156.4,378.9c10.7-5,8.1,42.9,8.1,42.9c7.3,0,5,36.5,5,36.5c14.1,0,5.5,32.3,8.3,35.8
				c9.2,11.6-1.3,14.3,12.3,40.1c13.6,25.8,11.9,54.4,11.9,54.4v418.6h-90.3V588.5c0,0-0.4-28.6,13.2-54.4
				c13.6-25.8,4.5-28.4,13.7-40.1c2.8-3.5-5.9-35.8,8.2-35.8c0,0-2.4-36.5,5-36.5c0,0-3.5-47.9,7.3-42.9"/>
		</g>
		<g>
			<polygon class="st48" points="2300.3,876.1 2302.6,976 2271,976 2271,959.2 2220.6,957.4 2220.6,976 2176.9,976 2178.4,925 
				2131.2,925 2128.1,811.7 2030.6,811.7 2029.1,849.5 2003.2,849.5 2001.6,873.9 1981.5,873.9 1981.5,914.9 1974.4,913.1 
				1972.8,772.9 1950.6,755.5 1948.3,729.6 1902.6,729.6 1901.1,754.3 1884.3,755.3 1884.4,804.3 1875.3,806.7 1875.3,844.8 
				1858.1,846 1854.8,821.4 1830.1,816.5 1830.1,785.8 1814.2,783.3 1814.2,763.6 1733.1,761.8 1732.5,791.3 1676.1,788.7 
				1676.1,1018.2 2371.9,1018.2 2371.9,876.1 			"/>
		</g>
		<g>
			
				<linearGradient id="SVGID_24_" gradientUnits="userSpaceOnUse" x1="2345.2205" y1="881.2763" x2="2345.2205" y2="768.5935" gradientTransform="matrix(1 0 0 -1 0 1080)">
				<stop  offset="0" style="stop-color:#F4B07D"/>
				<stop  offset="0.1729" style="stop-color:#EEAF85"/>
				<stop  offset="0.4337" style="stop-color:#DCAD99"/>
				<stop  offset="0.7482" style="stop-color:#C0A9BB"/>
				<stop  offset="1" style="stop-color:#A5A5DB"/>
			</linearGradient>
			<path class="st49" d="M2407.5,281.4c-14.1-4.5-44.7-12.3-54.6,1.1c0,0-6.5,9.5,0,19.1c0,0-71.6,0-69.9,19.1l124.6,0.5V281.4z"/>
		</g>
		<g>
			<g>
				<polygon class="st50" points="2407.5,776.1 2398,776.1 2398,787.3 2389.7,787.9 2389.7,776.9 2383,776.3 2383,748.2 2373,748.2 
					2373,719.1 2361.3,720.8 2361.3,691.2 2311.4,691.2 2311.4,1018 2407.5,1018 				"/>
				<polygon class="st47" points="2407.5,884.9 2398,883.4 2398,871.1 2347.1,869.9 2346.7,888.4 2311.4,888.2 2311.4,1030.6 
					2407.5,1030.6 				"/>
				<g>
					<g>
						<rect x="2316.4" y="1012.1" class="st51" width="91.2" height="70.7"/>
						
							<linearGradient id="SVGID_25_" gradientUnits="userSpaceOnUse" x1="2356.3359" y1="48.586" x2="5478.3906" y2="48.586" gradientTransform="matrix(1 0 0 -1 0 1080)">
							<stop  offset="0" style="stop-color:#D1E5D3"/>
							<stop  offset="0.2145" style="stop-color:#CFE2D0"/>
							<stop  offset="0.3752" style="stop-color:#C9DAC6"/>
							<stop  offset="0.5185" style="stop-color:#BECBB6"/>
							<stop  offset="0.6517" style="stop-color:#AFB69F"/>
							<stop  offset="0.7778" style="stop-color:#9B9C82"/>
							<stop  offset="0.8969" style="stop-color:#847C5E"/>
							<stop  offset="1" style="stop-color:#6B5A39"/>
						</linearGradient>
						<rect x="2356.3" y="1018.6" class="st52" width="51.2" height="25.7"/>
						
							<linearGradient id="SVGID_26_" gradientUnits="userSpaceOnUse" x1="2374.6636" y1="16.4256" x2="5488.3955" y2="16.4256" gradientTransform="matrix(1 0 0 -1 0 1080)">
							<stop  offset="0" style="stop-color:#D1E5D3"/>
							<stop  offset="0.2145" style="stop-color:#CFE2D0"/>
							<stop  offset="0.3752" style="stop-color:#C9DAC6"/>
							<stop  offset="0.5185" style="stop-color:#BECBB6"/>
							<stop  offset="0.6517" style="stop-color:#AFB69F"/>
							<stop  offset="0.7778" style="stop-color:#9B9C82"/>
							<stop  offset="0.8969" style="stop-color:#847C5E"/>
							<stop  offset="1" style="stop-color:#6B5A39"/>
						</linearGradient>
						<rect x="2374.7" y="1057.1" class="st53" width="32.9" height="12.9"/>
					</g>
				</g>
			</g>
		</g>
	</g>
	
		<linearGradient id="SVGID_27_" gradientUnits="userSpaceOnUse" x1="-345.1138" y1="3.3726" x2="-678.2222" y2="580.3331" gradientTransform="matrix(1 0 0 -1 0 1080)">
		<stop  offset="1.385225e-07" style="stop-color:#F4879C"/>
		<stop  offset="0.1631" style="stop-color:#F58C9E"/>
		<stop  offset="0.3546" style="stop-color:#F69AA4"/>
		<stop  offset="0.5596" style="stop-color:#F9B2AE"/>
		<stop  offset="0.6129" style="stop-color:#FAB9B1"/>
		<stop  offset="1" style="stop-color:#FFDDBF"/>
	</linearGradient>
	<path class="st54" d="M-403.5,896.8c-22.7,13.4-52.4,11.8-76.3,6.7v109.7l194.6-2.7L-403.5,896.8z"/>
	
		<linearGradient id="SVGID_28_" gradientUnits="userSpaceOnUse" x1="-677.2053" y1="599.2055" x2="-338.4142" y2="599.2055" gradientTransform="matrix(1 0 0 -1 0 1080)">
		<stop  offset="1.385225e-07" style="stop-color:#F4879C"/>
		<stop  offset="0.2317" style="stop-color:#EF8AA0"/>
		<stop  offset="0.5033" style="stop-color:#E192AB"/>
		<stop  offset="0.6129" style="stop-color:#D997B1"/>
	</linearGradient>
	<path class="st55" d="M-479.8,528.5h141.4c0,0-1.3-50.6-75.6-34.8c0,0,10.1-12.6-7.6-14.8c0,0,11.3-17.9-8.8-35.8
		c-13.4-11.9-34.6-12.6-49.5-5.6V528.5z"/>
	
		<linearGradient id="SVGID_29_" gradientUnits="userSpaceOnUse" x1="1095.0411" y1="532.8597" x2="1400.5941" y2="532.8597" gradientTransform="matrix(1 0 0 -1 0 1080)">
		<stop  offset="0" style="stop-color:#F4B07D"/>
		<stop  offset="0.1729" style="stop-color:#EEAF85"/>
		<stop  offset="0.4337" style="stop-color:#DCAD99"/>
		<stop  offset="0.7482" style="stop-color:#C0A9BB"/>
		<stop  offset="1" style="stop-color:#A5A5DB"/>
	</linearGradient>
	<path class="st56" d="M1095.1,583.7l305.5,1.3c0,0-1.3-24.4-19.9-24.5c0,0,20-50-43.8-51.1c-63.8-1.1-55.8,22.2-55.8,22.2
		s-34.5-24.5-62.4-6.7c-27.9,17.8-16,28.9-16,28.9s-39.8-15.6-50.5-1.1c0,0-5.3,7.8,0,15.6C1152.2,568.2,1093.7,568.1,1095.1,583.7z
		"/>
	
		<linearGradient id="SVGID_30_" gradientUnits="userSpaceOnUse" x1="1513.9514" y1="648.9357" x2="1513.9514" y2="481.7525" gradientTransform="matrix(1 0 0 -1 0 1080)">
		<stop  offset="0" style="stop-color:#F4B07D"/>
		<stop  offset="1" style="stop-color:#A5A5DB"/>
	</linearGradient>
	<path class="st57" d="M1234.5,596.5h562.2c0,0-6.1-78-106.9-69c0,0,44.3-83.1-59.6-75.4s-73.3,78-73.3,78s51.9-95.9-59.6-92
		c-111.5,3.8-70.3,95.9-70.3,95.9s-18.3-93.3-82.5-71.6c-64.2,21.7-58,84.4-16.8,85.6C1327.7,547.9,1210.1,536.4,1234.5,596.5z"/>
	
		<linearGradient id="SVGID_31_" gradientUnits="userSpaceOnUse" x1="250.2528" y1="136.9602" x2="835.2012" y2="136.9602" gradientTransform="matrix(1 0 0 -1 0 1080)">
		<stop  offset="0" style="stop-color:#6398A8"/>
		<stop  offset="0.1268" style="stop-color:#6B99A6"/>
		<stop  offset="0.3181" style="stop-color:#7F9D9F"/>
		<stop  offset="0.5501" style="stop-color:#A1A294"/>
		<stop  offset="0.8118" style="stop-color:#D0AA85"/>
		<stop  offset="1" style="stop-color:#F6B079"/>
	</linearGradient>
	<path class="st58" d="M257.7,1014.3l577.5-5.1c0,0-1.5-94.6-113-92c0,0-1.5-56.2-129.9-43.5c-128.3,12.8-100.8,51.1-100.8,51.1
		s-90.1-74.1-139-10.2c0,0-13.7,47.3,16.8,53.7C369.3,968.3,215,949.1,257.7,1014.3z"/>
	<path class="st59" d="M496.5,602.9l305.5,1.1c0,0-1.3-24.4-19.9-24.4c0,0,19.9-50-43.8-51.1s-55.8,22.2-55.8,22.2
		s-34.5-24.4-62.4-6.7c-27.9,17.8-15.9,28.9-15.9,28.9s-39.9-15.6-50.5-1.1c0,0-5.3,7.8,0,15.6C553.6,587.3,495.2,587.3,496.5,602.9
		z"/>
	
		<linearGradient id="SVGID_32_" gradientUnits="userSpaceOnUse" x1="2.1397" y1="727.0266" x2="5.4396" y2="529.0339" gradientTransform="matrix(1 0 0 -1 0 1080)">
		<stop  offset="0" style="stop-color:#F4B07D"/>
		<stop  offset="0.1729" style="stop-color:#EEAF85"/>
		<stop  offset="0.4337" style="stop-color:#DCAD99"/>
		<stop  offset="0.7482" style="stop-color:#C0A9BB"/>
		<stop  offset="1" style="stop-color:#A5A5DB"/>
	</linearGradient>
	<path class="st60" d="M-269.1,532.6l551.5,2.6c0,0-33.6-48.6-122.2-58.8c0,0-7.6-71.6-117.6-72.9c-110-1.3-98.1,62.7-98.1,62.7
		s-22.6-28.2-82.2-20.5s-55,39.6-55,39.6S-290.5,505.7-269.1,532.6z"/>
	
		<linearGradient id="SVGID_33_" gradientUnits="userSpaceOnUse" x1="1568.9202" y1="1035.3743" x2="1575.6815" y2="971.1428" gradientTransform="matrix(1 0 0 -1 0 1080)">
		<stop  offset="0" style="stop-color:#F4B07D"/>
		<stop  offset="0.1729" style="stop-color:#EEAF85"/>
		<stop  offset="0.4337" style="stop-color:#DCAD99"/>
		<stop  offset="0.7482" style="stop-color:#C0A9BB"/>
		<stop  offset="1" style="stop-color:#A5A5DB"/>
	</linearGradient>
	<path class="st61" d="M1429.8,188.7l309.9,1.4c0,0-18.9-27.3-68.7-33c0,0-4.3-40.2-66.1-41c-61.8-0.7-55.1,35.2-55.1,35.2
		s-12.7-15.8-46.2-11.5c-33.5,4.3-30.9,22.3-30.9,22.3S1417.8,173.6,1429.8,188.7z"/>
	
		<linearGradient id="SVGID_34_" gradientUnits="userSpaceOnUse" x1="346.782" y1="927.9119" x2="353.5432" y2="863.6803" gradientTransform="matrix(1 0 0 -1 0 1080)">
		<stop  offset="0" style="stop-color:#F4B07D"/>
		<stop  offset="0.1729" style="stop-color:#EEAF85"/>
		<stop  offset="0.4337" style="stop-color:#DCAD99"/>
		<stop  offset="0.7482" style="stop-color:#C0A9BB"/>
		<stop  offset="1" style="stop-color:#A5A5DB"/>
	</linearGradient>
	<path class="st62" d="M207.7,296.2l309.9,1.4c0,0-18.9-27.3-68.7-33c0,0-4.3-40.2-66.1-41s-55.1,35.2-55.1,35.2
		S315,243,281.6,247.3c-33.5,4.3-30.9,22.3-30.9,22.3S195.7,281.1,207.7,296.2z"/>
	
		<linearGradient id="SVGID_35_" gradientUnits="userSpaceOnUse" x1="334.0134" y1="622.4069" x2="340.7745" y2="558.1755" gradientTransform="matrix(1 0 0 -1 0 1080)">
		<stop  offset="0" style="stop-color:#F4B07D"/>
		<stop  offset="0.1729" style="stop-color:#EEAF85"/>
		<stop  offset="0.4337" style="stop-color:#DCAD99"/>
		<stop  offset="0.7482" style="stop-color:#C0A9BB"/>
		<stop  offset="1" style="stop-color:#A5A5DB"/>
	</linearGradient>
	<path class="st63" d="M194.9,601.7l309.9,1.4c0,0-18.9-27.3-68.7-33c0,0-4.3-40.2-66.1-41c-61.8-0.7-55.1,35.2-55.1,35.2
		s-12.7-15.8-46.2-11.5c-33.5,4.3-30.9,22.3-30.9,22.3S182.9,586.6,194.9,601.7z"/>
	<path class="st59" d="M167.8,311.5h143.6c0,0-10.7-33.2-44.3-33.2s-29,15.3-29,15.3s7.6-32-30.6-30.7
		C169.3,264.2,151,287.2,167.8,311.5z"/>
	<path class="st59" d="M1928.1,300h143.6c0,0-10.7-33.2-44.3-33.2c-33.6,0-29,15.3-29,15.3s7.6-32-30.6-30.7
		C1929.6,252.7,1911.3,275.7,1928.1,300z"/>
	<path class="st59" d="M2407.5,655.1c-6.3,2-9.1,4.9-10.2,7.5c0.2-9.1-3.1-26.1-31.2-25.1c-38.2,1.3-56.5,24.3-39.7,48.6h81.1V655.1
		z"/>
	
		<linearGradient id="SVGID_36_" gradientUnits="userSpaceOnUse" x1="1758.3826" y1="984.5161" x2="1758.3826" y2="871.8334" gradientTransform="matrix(1 0 0 -1 0 1080)">
		<stop  offset="0" style="stop-color:#F4B07D"/>
		<stop  offset="0.1729" style="stop-color:#EEAF85"/>
		<stop  offset="0.4337" style="stop-color:#DCAD99"/>
		<stop  offset="0.7482" style="stop-color:#C0A9BB"/>
		<stop  offset="1" style="stop-color:#A5A5DB"/>
	</linearGradient>
	<path class="st64" d="M1571.3,217.4l374.1,1.4c0,0-1.6-29.9-24.4-29.9c0,0,24.4-61.2-53.7-62.6c-78.1-1.4-68.3,27.2-68.3,27.2
		s-42.3-29.9-76.5-8.2s-19.5,35.4-19.5,35.4s-48.8-19.1-61.8-1.4c0,0-6.5,9.5,0,19.1C1641.3,198.4,1569.7,198.4,1571.3,217.4z"/>
	<path class="st65" d="M1538.4,333.3l129.9-1.3c0,0-16.8-32-44.3-26.8c0,0,4.6-10.2-15.3-10.2s-32.1,5.1-27.5,14.1
		c0,0-1.5-12.8-21.4-11.5C1539.9,298.7,1532.3,314.1,1538.4,333.3z"/>
	<path class="st66" d="M9.2,214.4h279.6c0,0,4.6-33.2-38.2-37.1s-47.4,12.8-47.4,12.8s4.6-49.9-32.1-49.9s-77.9,11.5-65.7,28.1
		C105.5,168.4,1.6,160.7,9.2,214.4z"/>
	<path class="st67" d="M2287,845.3h-146h-75.6H2029c-25.3,0-46-14.1-46-31.4s20.7-31.4,46-31.4h38h74h78c19.8,0,36-11,36-24.5
		c0-13.5-16.2-24.5-36-24.5H1215c-19.8,0-36,11-36,24.5c0,13.5,16.2,24.5,36,24.5h186h82h30c25.3,0,46,14.1,46,31.4
		s-20.7,31.4-46,31.4h-28.4H1401h-302c-22,0-40,12.3-40,27.3s18,27.3,40,27.3h1188c22,0,40-12.3,40-27.3S2309,845.3,2287,845.3z"/>
	<path class="st67" d="M689.8,800.6h-57.1h-29.5H589c-9.9,0-18-5.5-18-12.3s8.1-12.3,18-12.3h14.9h28.9h30.5
		c7.7,0,14.1-4.3,14.1-9.6s-6.3-9.6-14.1-9.6H270.8c-7.7,0-14.1,4.3-14.1,9.6s6.3,9.6,14.1,9.6h72.7h32h11.7c9.9,0,18,5.5,18,12.3
		s-8.1,12.3-18,12.3h-11.1h-32.7h-118c-8.6,0-15.6,4.8-15.6,10.7s7,10.7,15.6,10.7h464.3c8.6,0,15.6-4.8,15.6-10.7
		S698.4,800.6,689.8,800.6z"/>
	<path class="st67" d="M2407.5,433.1c-5.5-2.1-9.2-6.1-9.2-10.7s3.7-8.5,9.2-10.7V391h-309.3c-7.7,0-14.1,4.3-14.1,9.6
		s6.3,9.6,14.1,9.6h116.5c9.9,0,18,5.5,18,12.3c0,6.7-8.1,12.3-18,12.3h-161.8c-8.6,0-15.6,4.8-15.6,10.7c0,5.9,7,10.7,15.6,10.7
		h354.7V433.1z"/>
	<g>
		<g>
			<path class="st68" d="M140.4,896.9c0,0,7.9-16.3,30.9-16.3s30.9,16.3,30.9,16.3H140.4z"/>
			<path class="st69" d="M171.4,883.6c-17.1,0-30.7,8.6-30.7,22.9v105.7h61.8V906.5C202.5,892.3,188.4,883.6,171.4,883.6z"/>
			<rect x="140.7" y="896.9" class="st69" width="61.8" height="9.6"/>
			<rect x="146.6" y="896.9" class="st68" width="49.5" height="8.1"/>
			<rect x="139.9" y="906.5" class="st69" width="63.6" height="105.7"/>
			<rect x="139.6" y="906.5" class="st68" width="64.5" height="1.5"/>
			<rect x="145.9" y="909.5" class="st70" width="51.2" height="97.6"/>
			<g>
				<rect x="151.9" y="914.7" class="st68" width="11.3" height="17"/>
				<rect x="166" y="914.7" class="st68" width="11.3" height="17"/>
				<rect x="180.2" y="914.7" class="st68" width="11.3" height="17"/>
				<rect x="151.9" y="934.1" class="st68" width="11.3" height="17"/>
				<rect x="166" y="934.1" class="st68" width="11.3" height="17"/>
				<rect x="180.2" y="934.1" class="st68" width="11.3" height="17"/>
				<rect x="151.9" y="953.5" class="st68" width="11.3" height="17"/>
				<rect x="166" y="953.5" class="st68" width="11.3" height="17"/>
				<rect x="180.2" y="953.5" class="st68" width="11.3" height="17"/>
				<rect x="151.9" y="973.4" class="st68" width="11.3" height="17"/>
				<rect x="166" y="973.4" class="st68" width="11.3" height="17"/>
				<rect x="180.2" y="973.4" class="st68" width="11.3" height="17"/>
			</g>
			<rect x="145.9" y="909.5" class="st71" width="51.2" height="1.5"/>
		</g>
		<polygon class="st72" points="203,896.8 143.4,1010 203.5,1010 		"/>
	</g>
	<g>
		<g>
			<path class="st68" d="M2325.4,896.9c0,0,7.9-16.3,30.9-16.3c23,0,30.9,16.3,30.9,16.3H2325.4z"/>
			<path class="st69" d="M2356.3,883.6c-17.1,0-30.7,8.6-30.7,22.9v105.7h61.8V906.5C2387.4,892.3,2373.4,883.6,2356.3,883.6z"/>
			<rect x="2325.6" y="896.9" class="st69" width="61.8" height="9.6"/>
			<rect x="2331.6" y="896.9" class="st68" width="49.5" height="8.1"/>
			<rect x="2324.8" y="906.5" class="st69" width="63.6" height="105.7"/>
			<rect x="2324.5" y="906.5" class="st68" width="64.5" height="1.5"/>
			<rect x="2330.8" y="909.5" class="st70" width="51.2" height="97.6"/>
			<g>
				<rect x="2336.8" y="914.7" class="st68" width="11.3" height="17"/>
				<rect x="2350.9" y="914.7" class="st68" width="11.3" height="17"/>
				<rect x="2365.1" y="914.7" class="st68" width="11.3" height="17"/>
				<rect x="2336.8" y="934.1" class="st68" width="11.3" height="17"/>
				<rect x="2350.9" y="934.1" class="st68" width="11.3" height="17"/>
				<rect x="2365.1" y="934.1" class="st68" width="11.3" height="17"/>
				<rect x="2336.8" y="953.5" class="st68" width="11.3" height="17"/>
				<rect x="2350.9" y="953.5" class="st68" width="11.3" height="17"/>
				<rect x="2365.1" y="953.5" class="st68" width="11.3" height="17"/>
				<rect x="2336.8" y="973.4" class="st68" width="11.3" height="17"/>
				<rect x="2350.9" y="973.4" class="st68" width="11.3" height="17"/>
				<rect x="2365.1" y="973.4" class="st68" width="11.3" height="17"/>
			</g>
			<rect x="2330.8" y="909.5" class="st71" width="51.2" height="1.5"/>
		</g>
		<polygon class="st72" points="2388,896.8 2328.3,1010 2388.4,1010 		"/>
	</g>
	<g>
		<polygon class="st50" points="2404.5,776.1 2342.9,776.2 2342.4,708.3 2120.6,708.3 2120.6,1015 2404.5,1015.5 		"/>
		<polygon class="st47" points="2404.5,884.3 2392.5,884.3 2392.5,903.1 2367,903.1 2367,818.9 2317.4,818.9 2317.4,859.1 
			2285.8,859.1 2285.8,1015 2404.5,1015.5 		"/>
		
			<linearGradient id="SVGID_37_" gradientUnits="userSpaceOnUse" x1="1905.2986" y1="396.5946" x2="1906.9327" y2="306.7207" gradientTransform="matrix(1 0 0 -1 0 1080)">
			<stop  offset="0" style="stop-color:#F4B07D"/>
			<stop  offset="0.1729" style="stop-color:#EEAF85"/>
			<stop  offset="0.4337" style="stop-color:#DCAD99"/>
			<stop  offset="0.7482" style="stop-color:#C0A9BB"/>
			<stop  offset="1" style="stop-color:#A5A5DB"/>
		</linearGradient>
		<path class="st73" d="M1737.8,901.5l342.9,1.4c0,0-1.5-27.4-22.3-27.5c0,0,22.4-56.1-49.2-57.4c-71.6-1.3-62.6,24.9-62.6,24.9
			s-38.7-27.5-70.1-7.5c-31.3,19.9-17.9,32.4-17.9,32.4s-44.7-17.5-56.7-1.3c0,0-6,8.7,0,17.5C1802,884,1736.4,884,1737.8,901.5z"/>
		<rect x="1755.4" y="738" class="st74" width="425.2" height="278.3"/>
		<rect x="1755.4" y="736.6" class="st75" width="418.3" height="77.5"/>
		<rect x="1844.5" y="689.3" class="st74" width="140.6" height="325.6"/>
		<rect x="2173.7" y="689.3" class="st74" width="140.6" height="325.6"/>
		<g>
			<g>
				<g>
					<rect x="1656" y="421.9" class="st76" width="60.3" height="23.4"/>
					<rect x="1612.8" y="640.3" class="st74" width="143.8" height="376.6"/>
					<rect x="1613.9" y="504.4" class="st76" width="141.7" height="26.3"/>
					<polygon class="st75" points="1755.6,504.4 1613.9,504.4 1655.9,444.5 1716,444.5 					"/>
					<rect x="1610.3" y="530.7" class="st72" width="148.9" height="111.4"/>
					<ellipse class="st77" cx="1684.8" cy="567.9" rx="41.5" ry="34.7"/>
					<path class="st75" d="M1656.3,421.9h60.1c0,0-24.9-12.2-30.6-116.4C1681.5,410.9,1656.3,421.9,1656.3,421.9z"/>
					<path class="st77" d="M1641.8,719.4h-10v-68.8c0-1.7,1.6-3,3.6-3h2.8c2,0,3.6,1.4,3.6,3L1641.8,719.4L1641.8,719.4z"/>
					<rect x="1649" y="663.1" class="st77" width="10" height="56.3"/>
					<rect x="1666.2" y="663.1" class="st77" width="10" height="56.3"/>
					<rect x="1694.8" y="663.1" class="st77" width="10" height="56.3"/>
					<rect x="1712" y="663.1" class="st77" width="10" height="56.3"/>
					<path class="st77" d="M1739.2,719.4h-10v-68.8c0-1.7,1.6-3,3.6-3h2.8c2,0,3.6,1.4,3.6,3L1739.2,719.4L1739.2,719.4z"/>
					<path class="st77" d="M1641.8,804.4h-10v-68.8c0-1.7,1.6-3,3.6-3h2.8c2,0,3.6,1.4,3.6,3L1641.8,804.4L1641.8,804.4z"/>
					<rect x="1649" y="748.1" class="st77" width="10" height="56.3"/>
					<rect x="1666.2" y="748.1" class="st77" width="10" height="56.3"/>
					<rect x="1694.8" y="748.1" class="st77" width="10" height="56.3"/>
					<rect x="1712" y="748.1" class="st77" width="10" height="56.3"/>
					<path class="st77" d="M1739.2,804.4h-10v-68.8c0-1.7,1.6-3,3.6-3h2.8c2,0,3.6,1.4,3.6,3L1739.2,804.4L1739.2,804.4z"/>
					<path class="st77" d="M1641.8,889.4h-10v-68.8c0-1.7,1.6-3,3.6-3h2.8c2,0,3.6,1.4,3.6,3L1641.8,889.4L1641.8,889.4z"/>
					<rect x="1649" y="833.1" class="st77" width="10" height="56.3"/>
					<rect x="1666.2" y="833.1" class="st77" width="10" height="56.3"/>
					<rect x="1694.8" y="833.1" class="st77" width="10" height="56.3"/>
					<rect x="1712" y="833.1" class="st77" width="10" height="56.3"/>
					<path class="st77" d="M1739.2,889.4h-10v-68.8c0-1.7,1.6-3,3.6-3h2.8c2,0,3.6,1.4,3.6,3L1739.2,889.4L1739.2,889.4z"/>
					<path class="st77" d="M1641.8,974.4h-10v-68.8c0-1.7,1.6-3,3.6-3h2.8c2,0,3.6,1.4,3.6,3L1641.8,974.4L1641.8,974.4z"/>
					<rect x="1649" y="918.2" class="st77" width="10" height="56.3"/>
					<rect x="1666.2" y="918.2" class="st77" width="10" height="56.3"/>
					<rect x="1694.8" y="918.2" class="st77" width="10" height="56.3"/>
					<rect x="1712" y="918.2" class="st77" width="10" height="56.3"/>
					<path class="st77" d="M1739.2,974.4h-10v-68.8c0-1.7,1.6-3,3.6-3h2.8c2,0,3.6,1.4,3.6,3L1739.2,974.4L1739.2,974.4z"/>
					<rect x="1613.2" y="641.5" class="st78" width="143.1" height="6"/>
					<rect x="1620.4" y="506.2" class="st79" width="7.2" height="25.2"/>
					<rect x="1637.5" y="506.2" class="st79" width="7.2" height="25.2"/>
					<rect x="1654.7" y="506.2" class="st79" width="7.2" height="25.2"/>
					<rect x="1671.9" y="506.2" class="st79" width="7.2" height="25.2"/>
					<rect x="1689.1" y="506.2" class="st79" width="7.2" height="25.2"/>
					<rect x="1706.2" y="506.2" class="st79" width="7.2" height="25.2"/>
					<rect x="1723.4" y="506.2" class="st79" width="7.2" height="25.2"/>
					<rect x="1740.6" y="506.2" class="st79" width="7.2" height="25.2"/>
					<rect x="1660.4" y="423.6" class="st77" width="2.9" height="15.6"/>
					<rect x="1671.5" y="423.6" class="st77" width="2.9" height="15.6"/>
					<rect x="1680" y="423.6" class="st77" width="2.9" height="15.6"/>
					<rect x="1691" y="423.6" class="st77" width="2.9" height="15.6"/>
					<rect x="1699.6" y="423.6" class="st77" width="2.9" height="15.6"/>
					<rect x="1708.2" y="423.6" class="st77" width="2.9" height="15.6"/>
					<path class="st80" d="M1685.2,569.7h-0.8c-0.6,0-1-0.4-1-0.9v-33c0-0.5,0.5-0.9,1-0.9h0.8c0.6,0,1,0.4,1,0.9v33
						C1686.2,569.3,1685.8,569.7,1685.2,569.7z"/>
					<path class="st80" d="M1706.1,569.7h-21.2c-0.9,0-1.5-0.6-1.5-1.3v-1c0-0.7,0.7-1.3,1.5-1.3h21.2c0.9,0,1.5,0.6,1.5,1.3v1
						C1707.7,569.1,1707,569.7,1706.1,569.7z"/>
				</g>
				<rect x="1614.5" y="503.8" class="st79" width="140.3" height="2"/>
				<polygon class="st81" points="1758.8,531.4 1757.1,531.4 1757.1,502.7 1727.9,502.7 1727.9,1016.2 1757.1,1016.2 1757.1,641.8 
					1758.8,641.8 				"/>
			</g>
			<path class="st82" d="M1755.6,504.4l-39.7-60.5v-21.5c0,0-27.4-23-30.9-116.2v138.5l42.7,59.3L1755.6,504.4z"/>
		</g>
		<path class="st74" d="M1865.1,710.8h-20.6v-38.3c0-3.4,3.3-6.2,7.4-6.2h5.7c4.1,0,7.4,2.8,7.4,6.2L1865.1,710.8L1865.1,710.8z"/>
		<path class="st74" d="M1985.1,710.8h-20.6v-38.3c0-3.4,3.3-6.2,7.4-6.2h5.7c4.1,0,7.4,2.8,7.4,6.2L1985.1,710.8L1985.1,710.8z"/>
		<path class="st74" d="M2194.3,710.8h-20.6v-38.3c0-3.4,3.3-6.2,7.4-6.2h5.7c4.1,0,7.4,2.8,7.4,6.2L2194.3,710.8L2194.3,710.8z"/>
		<path class="st74" d="M2314.3,710.8h-20.6v-38.3c0-3.4,3.3-6.2,7.4-6.2h5.7c4.1,0,7.4,2.8,7.4,6.2L2314.3,710.8L2314.3,710.8z"/>
		<rect x="1865.1" y="689.3" class="st75" width="99.4" height="38.7"/>
		<rect x="2194.3" y="689.3" class="st75" width="99.4" height="38.7"/>
		<path class="st77" d="M1933.3,816.9h-44.6V773c0-7.4,7.2-13.4,16.1-13.4h12.4c8.9,0,16.1,6,16.1,13.4L1933.3,816.9L1933.3,816.9z"
			/>
		<path class="st77" d="M2269.5,816.9h-44.6V773c0-7.4,7.2-13.4,16.1-13.4h12.4c8.9,0,16.1,6,16.1,13.4L2269.5,816.9L2269.5,816.9z"
			/>
		<g>
			<rect x="1890.6" y="847.5" class="st77" width="10" height="56.3"/>
			<rect x="1906" y="847.5" class="st77" width="10" height="56.3"/>
			<rect x="1921.4" y="847.5" class="st77" width="10" height="56.3"/>
		</g>
		<g>
			<rect x="1781.5" y="847.5" class="st77" width="10" height="56.3"/>
			<rect x="1797" y="847.5" class="st77" width="10" height="56.3"/>
			<rect x="1812.4" y="847.5" class="st77" width="10" height="56.3"/>
		</g>
		<g>
			<rect x="2226.8" y="847.5" class="st77" width="10" height="56.3"/>
			<rect x="2242.2" y="847.5" class="st77" width="10" height="56.3"/>
			<rect x="2257.7" y="847.5" class="st77" width="10" height="56.3"/>
		</g>
		<g>
			<rect x="1986.8" y="847.5" class="st77" width="10" height="56.3"/>
			<rect x="2002.2" y="847.5" class="st77" width="10" height="56.3"/>
		</g>
		<g>
			<rect x="2142.3" y="847.5" class="st77" width="10" height="56.3"/>
			<rect x="2157.7" y="847.5" class="st77" width="10" height="56.3"/>
		</g>
		<g>
			<rect x="1986.8" y="930.7" class="st77" width="10" height="56.3"/>
			<rect x="2002.2" y="930.7" class="st77" width="10" height="56.3"/>
		</g>
		<g>
			<rect x="2058.8" y="930.7" class="st77" width="10" height="56.3"/>
			<rect x="2074.2" y="930.7" class="st77" width="10" height="56.3"/>
			<rect x="2089.6" y="930.7" class="st77" width="10" height="56.3"/>
		</g>
		<g>
			<rect x="2058.8" y="847.5" class="st77" width="10" height="56.3"/>
			<rect x="2074.2" y="847.5" class="st77" width="10" height="56.3"/>
			<rect x="2089.6" y="847.5" class="st77" width="10" height="56.3"/>
		</g>
		<g>
			<rect x="2142.8" y="930.7" class="st77" width="10" height="56.3"/>
			<rect x="2158.2" y="930.7" class="st77" width="10" height="56.3"/>
		</g>
		<g>
			<rect x="1890.6" y="932.1" class="st77" width="10" height="56.3"/>
			<rect x="1906" y="932.1" class="st77" width="10" height="56.3"/>
			<rect x="1921.4" y="932.1" class="st77" width="10" height="56.3"/>
		</g>
		<g>
			<rect x="1782.6" y="932.1" class="st77" width="10" height="56.3"/>
			<rect x="1798" y="932.1" class="st77" width="10" height="56.3"/>
			<rect x="1813.4" y="932.1" class="st77" width="10" height="56.3"/>
		</g>
		<g>
			<rect x="2226.8" y="932.1" class="st77" width="10" height="56.3"/>
			<rect x="2242.2" y="932.1" class="st77" width="10" height="56.3"/>
			<rect x="2257.7" y="932.1" class="st77" width="10" height="56.3"/>
		</g>
		<polygon class="st81" points="1985,812.4 1985,1014.9 2180.5,1014.9 		"/>
		<rect x="2161.7" y="814.1" class="st83" width="12" height="205.1"/>
		<polygon class="st81" points="1757.1,814.1 1844.5,1016.3 1755.4,1016.3 		"/>
		<rect x="1839.4" y="814.1" class="st77" width="5.1" height="202.3"/>
	</g>
	<g>
		<polygon class="st69" points="-24.4,942.2 -25.3,942.5 -25.3,944 -20.9,945.2 -20.9,943.5 		"/>
		<polygon class="st69" points="-17.5,942.2 -16.6,942.5 -16.6,944 -20.9,945.2 -20.9,943.5 		"/>
		<rect x="-24.4" y="938.2" class="st84" width="7" height="4.4"/>
		<ellipse class="st84" cx="-20.9" cy="931.8" rx="8.8" ry="7.7"/>
		<path d="M-18.4,934.5h-4.9c-3.5,0-6.4-2.4-6.4-5.3V915c0-3,2.9-5.3,6.4-5.3h4.9c3.5,0,6.4,2.4,6.4,5.3v14.1
			C-12,932.1-14.9,934.5-18.4,934.5z"/>
		<path class="st69" d="M-27.6,917.5c0,0-2.2,0.9-4,0.3c-1.8-0.6-2.6-2.5-2.6-2.5s2.2-0.9,4-0.3C-28.4,915.6-27.6,917.5-27.6,917.5z
			"/>
		<g>
			<path d="M-13.1,926.9v7.8c0,2.6-2.5,4.7-5.6,4.7h-4.3c-3.1,0-5.6-2.1-5.6-4.7v-7.8H-13.1 M-12.1,926.1h-1h-15.6h-1v0.8v7.8
				c0,3.1,3,5.6,6.6,5.6h4.3c3.7,0,6.6-2.5,6.6-5.6v-7.8L-12.1,926.1L-12.1,926.1z"/>
		</g>
		<polygon class="st84" points="-24.6,942.6 -20.9,943.5 -17.6,942.6 		"/>
		<polygon class="st69" points="-25.3,943.9 -36.7,946.9 -30.3,966.1 -30.3,981.2 -20.9,981.2 -20.9,945.1 		"/>
		<polygon class="st69" points="-16.6,943.9 -5.2,946.8 -11.4,966.1 -11.4,981.2 -20.9,981.2 -20.9,945.1 		"/>
		<path class="st69" d="M-36.7,946.8l-2.1,0.4v31.4h5.9v-30C-32.9,948.6-36.7,946.7-36.7,946.8z"/>
		<path class="st69" d="M-5.2,946.8l2.1,0.4v31.4H-9v-30C-9,948.6-5.2,946.7-5.2,946.8z"/>
		<rect x="-38.8" y="976.9" width="5.9" height="3.9"/>
		<rect x="-9" y="976.9" width="5.9" height="3.9"/>
		<path class="st84" d="M-38.8,980.9h5.9v1.1c0,1-0.9,1.8-2.1,1.8h-1.7c-1.2,0-2.1-0.8-2.1-1.8L-38.8,980.9L-38.8,980.9z"/>
		<path class="st84" d="M-9,980.9h5.9v1.1c0,1-0.9,1.8-2.1,1.8h-1.7C-8,983.8-9,983-9,982L-9,980.9L-9,980.9z"/>
		<polygon class="st68" points="-11.4,969.6 -19.3,969.6 -21.1,968.2 -22.6,969.6 -30.3,969.6 -30.3,966.3 -22.6,966.3 -20.9,967.8 
			-19.3,966.3 -11.4,966.3 		"/>
		<rect x="-30.3" y="977.7" width="9.4" height="34.1"/>
		<rect x="-20.9" y="977.7" width="9.5" height="34.1"/>
		<path d="M-20.9,1012.9h-9.4c-0.9,0-1.7-0.6-1.7-1.4v-1.1c0-0.8,0.8-1.4,1.7-1.4h9.4V1012.9z"/>
		<path d="M-21.1,1012.9h9.4c0.9,0,1.7-0.6,1.7-1.4v-1.1c0-0.8-0.8-1.4-1.7-1.4h-9.4V1012.9z"/>
		<ellipse class="st84" cx="-19.7" cy="946.7" rx="0.6" ry="0.5"/>
		<ellipse class="st84" cx="-19.7" cy="947.7" rx="0.6" ry="0.5"/>
		<ellipse class="st84" cx="-19.7" cy="951.8" rx="0.6" ry="0.5"/>
		<ellipse class="st84" cx="-19.7" cy="952.9" rx="0.6" ry="0.5"/>
		<ellipse class="st84" cx="-19.7" cy="957" rx="0.6" ry="0.5"/>
		<ellipse class="st84" cx="-19.7" cy="958.1" rx="0.6" ry="0.5"/>
		<ellipse class="st84" cx="-19.7" cy="962.2" rx="0.6" ry="0.5"/>
		<ellipse class="st84" cx="-19.7" cy="963.3" rx="0.6" ry="0.5"/>
		<rect x="-36.1" y="977.8" class="st84" width="3.2" height="0.5"/>
		<rect x="-36.1" y="978.6" class="st84" width="3.2" height="0.5"/>
		<rect x="-36.1" y="979.3" class="st84" width="3.2" height="0.5"/>
		<rect x="-9" y="977.8" class="st84" width="3.2" height="0.5"/>
		<rect x="-9" y="978.6" class="st84" width="3.2" height="0.5"/>
		<rect x="-9" y="979.3" class="st84" width="3.2" height="0.5"/>
		<ellipse class="st84" cx="-21" cy="967.9" rx="1.7" ry="1.4"/>
		<rect x="-23.4" y="966.3" class="st84" width="0.8" height="3.3"/>
		<rect x="-19.3" y="966.3" class="st84" width="0.8" height="3.3"/>
	</g>
	<g>
		<polygon class="st69" points="-81.6,942.2 -82.6,942.5 -82.6,944 -78.2,945.2 -78.2,943.5 		"/>
		<polygon class="st69" points="-74.7,942.2 -73.8,942.5 -73.8,944 -78.2,945.2 -78.2,943.5 		"/>
		<rect x="-81.6" y="938.2" class="st84" width="7" height="4.4"/>
		<ellipse class="st84" cx="-78.1" cy="931.8" rx="8.8" ry="7.7"/>
		<path d="M-75.7,934.5h-4.9c-3.5,0-6.4-2.4-6.4-5.3V915c0-3,2.9-5.3,6.4-5.3h4.9c3.5,0,6.4,2.4,6.4,5.3v14.1
			C-69.3,932.1-72.1,934.5-75.7,934.5z"/>
		<path class="st69" d="M-84.8,917.5c0,0-2.2,0.9-4,0.3c-1.8-0.6-2.6-2.5-2.6-2.5s2.2-0.9,4-0.3C-85.6,915.6-84.8,917.5-84.8,917.5z
			"/>
		<g>
			<path d="M-70.3,926.9v7.8c0,2.6-2.5,4.7-5.6,4.7h-4.3c-3.1,0-5.6-2.1-5.6-4.7v-7.8H-70.3 M-69.3,926.1h-1h-15.6h-1v0.8v7.8
				c0,3.1,3,5.6,6.6,5.6h4.3c3.7,0,6.6-2.5,6.6-5.6v-7.8L-69.3,926.1L-69.3,926.1z"/>
		</g>
		<polygon class="st84" points="-81.8,942.6 -78.2,943.5 -74.8,942.6 		"/>
		<polygon class="st69" points="-82.6,943.9 -93.9,946.9 -87.6,966.1 -87.6,981.2 -78.2,981.2 -78.2,945.1 		"/>
		<polygon class="st69" points="-73.8,943.9 -62.4,946.8 -68.6,966.1 -68.6,981.2 -78.2,981.2 -78.2,945.1 		"/>
		<path class="st69" d="M-93.9,946.8l-2.1,0.4v31.4h5.9v-30C-90.1,948.6-93.9,946.7-93.9,946.8z"/>
		<path class="st69" d="M-62.4,946.8l2.1,0.4v31.4h-5.9v-30C-66.2,948.6-62.4,946.7-62.4,946.8z"/>
		<rect x="-96" y="976.9" width="5.9" height="3.9"/>
		<rect x="-66.2" y="976.9" width="5.9" height="3.9"/>
		<path class="st84" d="M-96,980.9h5.9v1.1c0,1-0.9,1.8-2.1,1.8h-1.7c-1.2,0-2.1-0.8-2.1-1.8L-96,980.9L-96,980.9z"/>
		<path class="st84" d="M-66.2,980.9h5.9v1.1c0,1-0.9,1.8-2.1,1.8h-1.7c-1.2,0-2.1-0.8-2.1-1.8L-66.2,980.9L-66.2,980.9z"/>
		<polygon class="st68" points="-68.6,969.6 -76.5,969.6 -78.3,968.2 -79.8,969.6 -87.6,969.6 -87.6,966.3 -79.8,966.3 -78.2,967.8 
			-76.5,966.3 -68.6,966.3 		"/>
		<rect x="-87.6" y="977.7" width="9.4" height="34.1"/>
		<rect x="-78.2" y="977.7" width="9.5" height="34.1"/>
		<path d="M-78.2,1012.9h-9.4c-0.9,0-1.7-0.6-1.7-1.4v-1.1c0-0.8,0.8-1.4,1.7-1.4h9.4V1012.9z"/>
		<path d="M-78.3,1012.9h9.4c0.9,0,1.7-0.6,1.7-1.4v-1.1c0-0.8-0.8-1.4-1.7-1.4h-9.4V1012.9z"/>
		<ellipse class="st84" cx="-77" cy="946.7" rx="0.6" ry="0.5"/>
		<ellipse class="st84" cx="-77" cy="947.7" rx="0.6" ry="0.5"/>
		<ellipse class="st84" cx="-77" cy="951.8" rx="0.6" ry="0.5"/>
		<ellipse class="st84" cx="-77" cy="952.9" rx="0.6" ry="0.5"/>
		<ellipse class="st84" cx="-77" cy="957" rx="0.6" ry="0.5"/>
		<ellipse class="st84" cx="-77" cy="958.1" rx="0.6" ry="0.5"/>
		<ellipse class="st84" cx="-77" cy="962.2" rx="0.6" ry="0.5"/>
		<ellipse class="st84" cx="-77" cy="963.3" rx="0.6" ry="0.5"/>
		<rect x="-93.3" y="977.8" class="st84" width="3.2" height="0.5"/>
		<rect x="-93.3" y="978.6" class="st84" width="3.2" height="0.5"/>
		<rect x="-93.3" y="979.3" class="st84" width="3.2" height="0.5"/>
		<rect x="-66.2" y="977.8" class="st84" width="3.2" height="0.5"/>
		<rect x="-66.2" y="978.6" class="st84" width="3.2" height="0.5"/>
		<rect x="-66.2" y="979.3" class="st84" width="3.2" height="0.5"/>
		<ellipse class="st84" cx="-78.2" cy="967.9" rx="1.7" ry="1.4"/>
		<rect x="-80.6" y="966.3" class="st84" width="0.8" height="3.3"/>
		<rect x="-76.5" y="966.3" class="st84" width="0.8" height="3.3"/>
	</g>
	<g>
		<polygon class="st69" points="1978.7,941.3 1977.8,941.6 1977.8,943.1 1982.2,944.4 1982.2,942.6 		"/>
		<polygon class="st69" points="1985.6,941.3 1986.6,941.6 1986.6,943.1 1982.2,944.4 1982.2,942.6 		"/>
		<rect x="1978.7" y="937.3" class="st84" width="7" height="4.4"/>
		<ellipse class="st84" cx="1982.2" cy="931" rx="8.8" ry="7.7"/>
		<path d="M1984.7,933.6h-4.9c-3.5,0-6.4-2.4-6.4-5.3v-14.1c0-3,2.9-5.3,6.4-5.3h4.9c3.5,0,6.4,2.4,6.4,5.3v14.1
			C1991.1,931.2,1988.2,933.6,1984.7,933.6z"/>
		<path class="st69" d="M1975.5,916.6c0,0-2.2,0.9-4,0.3c-1.8-0.6-2.6-2.5-2.6-2.5s2.2-0.9,4-0.3
			C1974.8,914.7,1975.5,916.6,1975.5,916.6z"/>
		<g>
			<path d="M1990,926.1v7.8c0,2.6-2.5,4.7-5.6,4.7h-4.3c-3.1,0-5.6-2.1-5.6-4.7v-7.8H1990 M1991,925.2h-1h-15.6h-1v0.8v7.8
				c0,3.1,3,5.6,6.6,5.6h4.3c3.7,0,6.6-2.5,6.6-5.6v-7.8L1991,925.2L1991,925.2z"/>
		</g>
		<polygon class="st84" points="1978.5,941.7 1982.2,942.6 1985.5,941.7 		"/>
		<polygon class="st69" points="1977.8,943.1 1966.4,946 1972.8,965.2 1972.8,980.4 1982.2,980.4 1982.2,944.3 		"/>
		<polygon class="st69" points="1986.6,943 1997.9,946 1991.7,965.2 1991.7,980.3 1982.2,980.3 1982.2,944.2 		"/>
		<path class="st69" d="M1966.4,945.9l-2.1,0.4v31.4h5.9v-29.9C1970.2,947.8,1966.4,945.9,1966.4,945.9z"/>
		<path class="st69" d="M1997.9,945.9l2.1,0.4v31.4h-5.9v-29.9C1994.1,947.8,1997.9,945.9,1997.9,945.9z"/>
		<rect x="1964.3" y="976.1" width="5.9" height="3.9"/>
		<rect x="1994.1" y="976.1" width="5.9" height="3.9"/>
		<path class="st84" d="M1964.3,980h5.9v1.1c0,1-1,1.8-2.1,1.8h-1.7c-1.2,0-2.1-0.8-2.1-1.8L1964.3,980L1964.3,980z"/>
		<path class="st84" d="M1994.1,980h5.9v1.1c0,1-0.9,1.8-2.1,1.8h-1.7c-1.2,0-2.1-0.8-2.1-1.8L1994.1,980L1994.1,980z"/>
		<polygon class="st68" points="1991.7,968.7 1983.8,968.7 1982,967.3 1980.5,968.7 1972.8,968.7 1972.8,965.4 1980.5,965.4 
			1982.2,967 1983.8,965.4 1991.7,965.4 		"/>
		<rect x="1972.8" y="976.8" width="9.4" height="34.1"/>
		<rect x="1982.2" y="976.8" width="9.5" height="34.1"/>
		<path d="M1982.2,1012.1h-9.4c-0.9,0-1.7-0.6-1.7-1.4v-1.1c0-0.8,0.8-1.4,1.7-1.4h9.4V1012.1z"/>
		<path d="M1982,1012.1h9.4c0.9,0,1.7-0.6,1.7-1.4v-1.1c0-0.8-0.8-1.4-1.7-1.4h-9.4V1012.1z"/>
		<ellipse class="st84" cx="1983.4" cy="945.8" rx="0.6" ry="0.5"/>
		<ellipse class="st84" cx="1983.4" cy="946.8" rx="0.6" ry="0.5"/>
		<ellipse class="st84" cx="1983.4" cy="951" rx="0.6" ry="0.5"/>
		<ellipse class="st84" cx="1983.4" cy="952" rx="0.6" ry="0.5"/>
		<ellipse class="st84" cx="1983.4" cy="956.2" rx="0.6" ry="0.5"/>
		<ellipse class="st84" cx="1983.4" cy="957.2" rx="0.6" ry="0.5"/>
		<ellipse class="st84" cx="1983.4" cy="961.4" rx="0.6" ry="0.5"/>
		<ellipse class="st84" cx="1983.4" cy="962.4" rx="0.6" ry="0.5"/>
		<rect x="1967" y="977" class="st84" width="3.2" height="0.5"/>
		<rect x="1967" y="977.7" class="st84" width="3.2" height="0.5"/>
		<rect x="1967" y="978.5" class="st84" width="3.2" height="0.5"/>
		<rect x="1994.1" y="977" class="st84" width="3.2" height="0.5"/>
		<rect x="1994.1" y="977.7" class="st84" width="3.2" height="0.5"/>
		<rect x="1994.1" y="978.5" class="st84" width="3.2" height="0.5"/>
		<ellipse class="st84" cx="1982.1" cy="967.1" rx="1.7" ry="1.4"/>
		<rect x="1979.7" y="965.4" class="st84" width="0.8" height="3.3"/>
		<rect x="1983.8" y="965.4" class="st84" width="0.8" height="3.3"/>
	</g>
	<g>
		<path class="st74" d="M100.7,1011.8l-18.5,0.3L-57.3,672.2c-1.5-3.6,0.8-7.5,5.1-8.7l0,0c4.3-1.2,9,0.7,10.4,4.3L100.7,1011.8z"/>
		<ellipse class="st85" cx="-49.6" cy="669" rx="236.1" ry="197.5"/>
		<ellipse class="st85" cx="-50" cy="668.7" rx="218.2" ry="182.6"/>
		<ellipse class="st85" cx="-50" cy="668.7" rx="198.2" ry="165.8"/>
		<ellipse class="st75" cx="-300.2" cy="668.7" rx="14.8" ry="10.4"/>
		<path class="st75" d="M-273,764.6c7.1-3.4,15.6-2.2,19,2.8s0.5,11.8-6.6,15.2c-7.1,3.4-15.6,2.2-19-2.8
			C-283,774.8-280.1,768-273,764.6z"/>
		<path class="st75" d="M-181.4,841.4c7.1-3.4,15.6-2.2,19,2.8c3.4,5,0.5,11.8-6.6,15.2c-7.1,3.4-15.6,2.2-19-2.8
			C-191.5,851.6-188.5,844.8-181.4,841.4z"/>
		<ellipse class="st75" cx="-50" cy="877.5" rx="14.8" ry="10.4"/>
		<path class="st75" d="M60.6,849.9c0.4-5.7,7.4-10,15.5-9.6c8.2,0.4,14.4,5.4,14,11.1s-7.4,10-15.5,9.6
			C66.4,860.6,60.2,855.6,60.6,849.9z"/>
		<ellipse class="st75" cx="167.1" cy="774.1" rx="14.8" ry="10.4"/>
		<ellipse class="st75" cx="200.9" cy="669.3" rx="14.8" ry="10.4"/>
		<ellipse class="st75" cx="167.5" cy="564.4" rx="14.8" ry="10.4"/>
		<path class="st75" d="M74.9,477.3c8.1-0.5,15.2,3.6,15.7,9.4s-5.6,10.8-13.8,11.3s-15.2-3.6-15.7-9.4
			C60.6,482.9,66.8,477.8,74.9,477.3z"/>
		<ellipse class="st75" cx="-49.3" cy="460.5" rx="14.8" ry="10.4"/>
		<path class="st75" d="M-189.3,486.7c1-5.7,8.3-9.5,16.4-8.5c8.1,1,13.8,6.4,12.9,12c-1,5.7-8.3,9.5-16.4,8.5
			S-190.3,492.4-189.3,486.7z"/>
		<path class="st75" d="M-281.1,562.8c0.6-5.7,7.7-9.8,15.8-9.2c8.1,0.6,14.2,5.7,13.6,11.4c-0.6,5.7-7.7,9.8-15.8,9.2
			C-275.7,573.6-281.8,568.5-281.1,562.8z"/>
		<polyline class="st86" points="-50,502.9 -50,668.7 -150.4,526.7 		"/>
		<polyline class="st86" points="-248.2,668.7 -50,668.7 -224.5,588 		"/>
		<polyline class="st86" points="-221.8,753 -50,668.7 -146.3,813.9 		"/>
		<polyline class="st86" points="-50,834.6 -50,668.7 56.5,807.7 		"/>
		<polyline class="st86" points="123.9,748 -50,668.7 148.2,668.7 		"/>
		<polyline class="st86" points="119.8,584.5 -50,668.7 50.4,525.8 		"/>
		<path class="st77" d="M-201,1011.8l18.4,0.3l139.6-339.9c1.5-3.6-0.8-7.5-5.1-8.7l0,0c-4.3-1.2-9,0.7-10.4,4.3L-201,1011.8z"/>
	</g>
	<g>
		<polygon class="st69" points="2285.2,941.3 2284.3,941.6 2284.3,943.1 2288.7,944.4 2288.7,942.6 		"/>
		<polygon class="st69" points="2292.1,941.3 2293,941.6 2293,943.1 2288.7,944.4 2288.7,942.6 		"/>
		<rect x="2285.2" y="937.3" class="st84" width="7" height="4.4"/>
		<ellipse class="st84" cx="2288.7" cy="931" rx="8.8" ry="7.7"/>
		<path d="M2291.2,933.6h-4.9c-3.5,0-6.4-2.4-6.4-5.3v-14.1c0-3,2.9-5.3,6.4-5.3h4.9c3.5,0,6.4,2.4,6.4,5.3v14.1
			C2297.6,931.2,2294.7,933.6,2291.2,933.6z"/>
		<path class="st69" d="M2282,916.6c0,0-2.2,0.9-4,0.3c-1.8-0.6-2.6-2.5-2.6-2.5s2.2-0.9,4-0.3C2281.2,914.7,2282,916.6,2282,916.6z
			"/>
		<g>
			<path d="M2296.5,926.1v7.8c0,2.6-2.5,4.7-5.6,4.7h-4.3c-3.1,0-5.6-2.1-5.6-4.7v-7.8H2296.5 M2297.5,925.2h-1h-15.6h-1v0.8v7.8
				c0,3.1,3,5.6,6.6,5.6h4.3c3.7,0,6.6-2.5,6.6-5.6v-7.8L2297.5,925.2L2297.5,925.2z"/>
		</g>
		<polygon class="st84" points="2285,941.7 2288.7,942.6 2292,941.7 		"/>
		<polygon class="st69" points="2284.3,943.1 2272.9,946 2279.3,965.2 2279.3,980.4 2288.7,980.4 2288.7,944.3 		"/>
		<polygon class="st69" points="2293,943 2304.4,946 2298.2,965.2 2298.2,980.3 2288.7,980.3 2288.7,944.2 		"/>
		<path class="st69" d="M2272.9,945.9l-2.1,0.4v31.4h5.9v-29.9C2276.7,947.8,2272.9,945.9,2272.9,945.9z"/>
		<path class="st69" d="M2304.4,945.9l2.1,0.4v31.4h-5.9v-29.9C2300.6,947.8,2304.4,945.9,2304.4,945.9z"/>
		<rect x="2270.8" y="976.1" width="5.9" height="3.9"/>
		<rect x="2300.6" y="976.1" width="5.9" height="3.9"/>
		<path class="st84" d="M2270.8,980h5.9v1.1c0,1-0.9,1.8-2.1,1.8h-1.7c-1.2,0-2.1-0.8-2.1-1.8L2270.8,980L2270.8,980z"/>
		<path class="st84" d="M2300.6,980h5.9v1.1c0,1-0.9,1.8-2.1,1.8h-1.7c-1.2,0-2.1-0.8-2.1-1.8L2300.6,980L2300.6,980z"/>
		<polygon class="st68" points="2298.2,968.7 2290.3,968.7 2288.5,967.3 2287,968.7 2279.3,968.7 2279.3,965.4 2287,965.4 
			2288.7,967 2290.3,965.4 2298.2,965.4 		"/>
		<rect x="2279.3" y="976.8" width="9.4" height="34.1"/>
		<rect x="2288.7" y="976.8" width="9.5" height="34.1"/>
		<path d="M2288.7,1012.1h-9.4c-0.9,0-1.7-0.6-1.7-1.4v-1.1c0-0.8,0.8-1.4,1.7-1.4h9.4V1012.1z"/>
		<path d="M2288.5,1012.1h9.4c0.9,0,1.7-0.6,1.7-1.4v-1.1c0-0.8-0.8-1.4-1.7-1.4h-9.4V1012.1z"/>
		<ellipse class="st84" cx="2289.9" cy="945.8" rx="0.6" ry="0.5"/>
		<ellipse class="st84" cx="2289.9" cy="946.8" rx="0.6" ry="0.5"/>
		<ellipse class="st84" cx="2289.9" cy="951" rx="0.6" ry="0.5"/>
		<ellipse class="st84" cx="2289.9" cy="952" rx="0.6" ry="0.5"/>
		<ellipse class="st84" cx="2289.9" cy="956.2" rx="0.6" ry="0.5"/>
		<ellipse class="st84" cx="2289.9" cy="957.2" rx="0.6" ry="0.5"/>
		<ellipse class="st84" cx="2289.9" cy="961.4" rx="0.6" ry="0.5"/>
		<ellipse class="st84" cx="2289.9" cy="962.4" rx="0.6" ry="0.5"/>
		<rect x="2273.5" y="977" class="st84" width="3.2" height="0.5"/>
		<rect x="2273.5" y="977.7" class="st84" width="3.2" height="0.5"/>
		<rect x="2273.5" y="978.5" class="st84" width="3.2" height="0.5"/>
		<rect x="2300.6" y="977" class="st84" width="3.2" height="0.5"/>
		<rect x="2300.6" y="977.7" class="st84" width="3.2" height="0.5"/>
		<rect x="2300.6" y="978.5" class="st84" width="3.2" height="0.5"/>
		<ellipse class="st84" cx="2288.6" cy="967.1" rx="1.7" ry="1.4"/>
		<rect x="2286.2" y="965.4" class="st84" width="0.8" height="3.3"/>
		<rect x="2290.3" y="965.4" class="st84" width="0.8" height="3.3"/>
	</g>
	<path class="st66" d="M-378.1,233.9c-42.8-3.8-47.4,12.8-47.4,12.8s4.6-49.9-32.1-49.9c-7.4,0-15,0.5-22.3,1.4V271h139.9
		C-339.9,271-335.3,237.8-378.1,233.9z"/>
	<path class="st87" d="M2407.5,104.1c-16.7-4.3-35.9-1.2-51,32.9c-4.3,9.6-3.5-22.1-23-22.1c-24.1,0-43,33.8-31.7,63l105.7-0.5
		V104.1z"/>
	
		<linearGradient id="SVGID_38_" gradientUnits="userSpaceOnUse" x1="2343.9136" y1="821.4233" x2="2343.9136" y2="764.2877" gradientTransform="matrix(1 0 0 -1 0 1080)">
		<stop  offset="0" style="stop-color:#F4B07D"/>
		<stop  offset="0.1729" style="stop-color:#EEAF85"/>
		<stop  offset="0.4337" style="stop-color:#DCAD99"/>
		<stop  offset="0.7482" style="stop-color:#C0A9BB"/>
		<stop  offset="1" style="stop-color:#A5A5DB"/>
	</linearGradient>
	<path class="st88" d="M2283,320.7l120.8,0.4l1.1-40.5c0,0-39-15.7-52,1.9c0,0-6.5,9.5,0,19.1C2352.9,301.6,2281.3,301.6,2283,320.7
		z"/>
	<path class="st89" d="M877.8,1197.9h-68.9c0.3-1,0.5-2,0.5-3.1c0-6-5.8-10.8-12.9-10.8H567.3c-7.2,0-12.9,4.9-12.9,10.8
		c0,6,5.8,10.8,12.9,10.8h68.9c-0.3,1-0.5,2-0.5,3.1c0,1.7,0.5,3.2,1.3,4.6H486c-7.2,0-12.9,4.8-12.9,10.8c0,6,5.8,10.8,12.9,10.8
		h229.1c7.2,0,12.9-4.9,12.9-10.8c0-1.7-0.5-3.2-1.3-4.6h150.9c7.2,0,12.9-4.9,12.9-10.8C890.7,1202.8,884.9,1197.9,877.8,1197.9z"
		/>
	<path class="st89" d="M1359.7,1201.8h-40c0-0.3,0.1-0.6,0.1-0.9c0-6.7-6.5-12.2-14.5-12.2h-219.3c-8,0-14.5,5.5-14.5,12.2
		c0,6.7,6.5,12.2,14.5,12.2h66c0,0.1,0,0.2,0,0.3v1.4c0,2.1,0.7,4.2,2,5.9H1116c-6.1,0-11.1,4.2-11.1,9.3v5.7c0,5.1,5,9.3,11.1,9.3
		h123.2c6.1,0,11.1-4.2,11.1-9.3v-5.7c0-1.3-0.3-2.6-0.9-3.7h110.3c7.6,0,13.7-5.1,13.7-11.5v-1.4
		C1373.4,1206.9,1367.3,1201.8,1359.7,1201.8z"/>
	
		<linearGradient id="SVGID_39_" gradientUnits="userSpaceOnUse" x1="-6248.4946" y1="32.6472" x2="11057.583" y2="32.6472" gradientTransform="matrix(1 0 0 -1 0 1080)">
		<stop  offset="0" style="stop-color:#68666D"/>
		<stop  offset="7.150000e-02" style="stop-color:#AC9890"/>
		<stop  offset="0.1396" style="stop-color:#E7C2AD"/>
		<stop  offset="0.172" style="stop-color:#FED3B9"/>
		<stop  offset="0.2309" style="stop-color:#CEC1B4"/>
		<stop  offset="0.3299" style="stop-color:#82A4AC"/>
		<stop  offset="0.3756" style="stop-color:#6499A9"/>
		<stop  offset="0.4357" style="stop-color:#91B8BA"/>
		<stop  offset="0.5019" style="stop-color:#BDD7CB"/>
		<stop  offset="0.5355" style="stop-color:#CEE3D1"/>
		<stop  offset="0.5637" style="stop-color:#B9C7B1"/>
		<stop  offset="0.6078" style="stop-color:#9EA087"/>
		<stop  offset="0.6506" style="stop-color:#888165"/>
		<stop  offset="0.6911" style="stop-color:#786C4D"/>
		<stop  offset="0.7285" style="stop-color:#6E5F3E"/>
		<stop  offset="0.7597" style="stop-color:#6B5A39"/>
		<stop  offset="0.8624" style="stop-color:#7D4434"/>
		<stop  offset="1" style="stop-color:#6F6B71"/>
	</linearGradient>
	<rect x="-479.8" y="1012.1" class="st90" width="2887.4" height="70.6"/>
	<g>
		<g>
			<path class="st91" d="M200.9,1080.4c0,0,283.4-81.8,435.2-244.3"/>
			<line class="st91" x1="593.5" y1="875.8" x2="593.5" y2="1079.5"/>
			<line class="st91" x1="543.1" y1="914.2" x2="543.1" y2="1079.5"/>
			<line class="st91" x1="492.7" y1="947.7" x2="492.7" y2="1079.5"/>
			<line class="st91" x1="442.3" y1="976.2" x2="442.3" y2="1079.5"/>
			<line class="st91" x1="391.9" y1="1001.1" x2="391.9" y2="1079.5"/>
			<line class="st91" x1="341.5" y1="1024.6" x2="341.5" y2="1079.5"/>
			<line class="st91" x1="291.3" y1="1048.2" x2="291.2" y2="1079.5"/>
			<path class="st91" d="M636.7,879.5c0,0-129,137.7-358.7,202.2"/>
		</g>
		<rect x="768.6" y="821.2" class="st92" width="391.3" height="26"/>
		<g>
			<path class="st91" d="M1719.6,1080.4c0,0-283.4-81.8-435.2-244.3"/>
			<line class="st91" x1="1327" y1="875.8" x2="1327" y2="1079.5"/>
			<line class="st91" x1="1377.4" y1="914.2" x2="1377.4" y2="1079.5"/>
			<line class="st91" x1="1427.8" y1="947.7" x2="1427.8" y2="1079.5"/>
			<line class="st91" x1="1478.2" y1="976.2" x2="1478.2" y2="1079.5"/>
			<line class="st91" x1="1528.6" y1="1001.1" x2="1528.6" y2="1079.5"/>
			<line class="st91" x1="1579" y1="1024.6" x2="1579" y2="1079.5"/>
			<line class="st91" x1="1629.2" y1="1048.2" x2="1629.4" y2="1079.5"/>
			<path class="st91" d="M1280,879.5c0,0,129,137.7,358.7,202.2"/>
		</g>
		<polyline class="st93" points="776,846.8 805.9,821.7 835.2,846.3 866.8,819.9 898.5,846.5 931.7,820 963,845.7 992.6,820.9 
			1020.4,844.2 1047.3,821.8 1077.3,846.9 1105.1,821.2 1130,845 1154,824.9 		"/>
		<rect x="1146.6" y="789" class="st74" width="145.3" height="395.7"/>
		<rect x="632.2" y="789" class="st74" width="145.3" height="396.9"/>
		<polygon class="st75" points="636.7,790.8 704.9,733.8 773.8,791.4 		"/>
		<polygon class="st75" points="1152.5,790.8 1220.7,733.8 1289.6,791.4 		"/>
		<polygon class="st76" points="642.6,791.4 632.2,791.4 637.4,771.6 		"/>
		<polygon class="st76" points="777.5,791.4 767.1,791.4 772.2,771.6 		"/>
		<polygon class="st76" points="1157,791.4 1146.6,791.4 1151.7,771.6 		"/>
		<polygon class="st76" points="1291.9,791.4 1281.5,791.4 1286.6,771.6 		"/>
		<polygon class="st77" points="691.5,791.4 693,777.8 703.4,764.2 713.8,777.8 715.2,791.4 		"/>
		<polygon class="st75" points="948,822.5 949.4,808.8 959.8,795.2 970.2,808.8 971.7,822.5 		"/>
		<polygon class="st77" points="1208.8,791.4 1210.3,777.8 1220.7,764.2 1231.1,777.8 1232.6,791.4 		"/>
		<g>
			<rect x="664.6" y="823.7" class="st77" width="6.4" height="24.8"/>
			<rect x="694.3" y="823.7" class="st77" width="6.4" height="24.8"/>
			<rect x="707" y="823.7" class="st77" width="6.4" height="24.8"/>
			<rect x="738.8" y="823.7" class="st77" width="6.4" height="24.8"/>
		</g>
		<g>
			<rect x="664.6" y="885.7" class="st77" width="6.4" height="24.8"/>
			<rect x="694.3" y="885.7" class="st77" width="6.4" height="24.8"/>
			<rect x="707" y="885.7" class="st77" width="6.4" height="24.8"/>
			<rect x="738.8" y="885.7" class="st77" width="6.4" height="24.8"/>
		</g>
		<g>
			<rect x="664.6" y="947.7" class="st77" width="6.4" height="24.8"/>
			<rect x="694.3" y="947.7" class="st77" width="6.4" height="24.8"/>
			<rect x="707" y="947.7" class="st77" width="6.4" height="24.8"/>
			<rect x="738.8" y="947.7" class="st77" width="6.4" height="24.8"/>
		</g>
		<g>
			<rect x="664.6" y="1009.7" class="st77" width="6.4" height="24.8"/>
			<rect x="694.3" y="1009.7" class="st77" width="6.4" height="24.8"/>
			<rect x="707" y="1009.7" class="st77" width="6.4" height="24.8"/>
			<rect x="738.8" y="1009.7" class="st77" width="6.4" height="24.8"/>
		</g>
		<g>
			<rect x="1180.5" y="823.7" class="st77" width="6.4" height="24.8"/>
			<rect x="1210.1" y="823.7" class="st77" width="6.4" height="24.8"/>
			<rect x="1222.8" y="823.7" class="st77" width="6.4" height="24.8"/>
			<rect x="1254.6" y="823.7" class="st77" width="6.4" height="24.8"/>
		</g>
		<g>
			<rect x="1180.5" y="885.7" class="st77" width="6.4" height="24.8"/>
			<rect x="1210.1" y="885.7" class="st77" width="6.4" height="24.8"/>
			<rect x="1222.8" y="885.7" class="st77" width="6.4" height="24.8"/>
			<rect x="1254.6" y="885.7" class="st77" width="6.4" height="24.8"/>
		</g>
		<g>
			<rect x="1180.5" y="947.7" class="st77" width="6.4" height="24.8"/>
			<rect x="1210.1" y="947.7" class="st77" width="6.4" height="24.8"/>
			<rect x="1222.8" y="947.7" class="st77" width="6.4" height="24.8"/>
			<rect x="1254.6" y="947.7" class="st77" width="6.4" height="24.8"/>
		</g>
		<g>
			<rect x="1180.5" y="1009.7" class="st77" width="6.4" height="24.8"/>
			<rect x="1210.1" y="1009.7" class="st77" width="6.4" height="24.8"/>
			<rect x="1222.8" y="1009.7" class="st77" width="6.4" height="24.8"/>
			<rect x="1254.6" y="1009.7" class="st77" width="6.4" height="24.8"/>
		</g>
		<rect x="632.2" y="790.2" class="st94" width="145.3" height="3.7"/>
		<rect x="1146.6" y="790.2" class="st94" width="145.3" height="3.7"/>
		<rect x="632.2" y="855" class="st94" width="145.3" height="3.7"/>
		<rect x="1146.6" y="855" class="st94" width="145.3" height="3.7"/>
		<rect x="632.2" y="915.7" class="st94" width="145.3" height="3.7"/>
		<rect x="1146.6" y="915.7" class="st94" width="145.3" height="3.7"/>
		<rect x="632.2" y="976.5" class="st94" width="145.3" height="3.7"/>
		<rect x="1146.6" y="976.5" class="st94" width="145.3" height="3.7"/>
		<rect x="632.2" y="1082.9" class="st94" width="145.3" height="3.7"/>
		<rect x="1146.6" y="1082.9" class="st94" width="145.3" height="3.7"/>
		<rect x="661.9" y="803.8" class="st77" width="83" height="6.2"/>
		<rect x="661.9" y="873.3" class="st77" width="83" height="6.2"/>
		<rect x="661.9" y="935.3" class="st77" width="83" height="6.2"/>
		<rect x="661.9" y="998.6" class="st77" width="83" height="6.2"/>
		<rect x="1176.2" y="803.8" class="st77" width="83" height="6.2"/>
		<rect x="1176.2" y="873.3" class="st77" width="83" height="6.2"/>
		<rect x="1176.2" y="935.3" class="st77" width="83" height="6.2"/>
		<rect x="1176.2" y="998.6" class="st77" width="83" height="6.2"/>
		<path class="st74" d="M797.5,1203.8H615.2v-112.1c0-3.2,3.1-5.8,6.9-5.8h168.6c3.8,0,6.9,2.6,6.9,5.8V1203.8z"/>
		<path class="st74" d="M1308.2,1204.5h-182.3v-111.6c0-3.5,3.3-6.3,7.5-6.3h167.4c4.1,0,7.5,2.8,7.5,6.3V1204.5z"/>
		<path class="st81" d="M797.9,1200.6v-102.5c0-6.5-6.3-11.9-14.2-11.9h-6.2l-0.1-2.4V793.5h-10.2l-0.1-2.1l-1,2.1H761v10.8
			l-132.7,281.1v118.9h170.2L797.9,1200.6z"/>
		<path class="st81" d="M1310.7,1200.6v-102.5c0-6.5-6.3-11.9-14.2-11.9h-6.2l-0.1-2.4V793.5H1280l-0.1-2.1l-1,2.1h-5.1v10.8
			l-132.7,281.1v118.9h170.2L1310.7,1200.6z"/>
		<polygon class="st77" points="704.3,733.7 761.2,793.8 777.4,793.8 		"/>
		<polygon class="st77" points="1220.7,733.7 1277.6,793.8 1293.8,793.8 		"/>
	</g>
</g>
</svg>
