<?xml version="1.0" encoding="utf-8"?>
<!-- Generator: Adobe Illustrator 21.0.0, SVG Export Plug-In . SVG Version: 6.00 Build 0)  -->
<svg version="1.1" id="Layer_1" xmlns="http://www.w3.org/2000/svg" xmlns:xlink="http://www.w3.org/1999/xlink" x="0px" y="0px"
	 viewBox="0 0 1920 1080" style="enable-background:new 0 0 1920 1080;" xml:space="preserve">
<style type="text/css">
	.st0{display:none;}
	.st1{display:inline;}
	.st2{clip-path:url(#SVGID_2_);fill:url(#SVGID_3_);}
	.st3{clip-path:url(#SVGID_5_);fill:url(#SVGID_6_);}
	.st4{clip-path:url(#SVGID_8_);fill:url(#SVGID_9_);}
	.st5{clip-path:url(#SVGID_11_);fill:url(#SVGID_12_);}
	.st6{clip-path:url(#SVGID_14_);fill:url(#SVGID_15_);}
	.st7{clip-path:url(#SVGID_17_);fill:url(#SVGID_18_);}
	.st8{fill:none;}
	.st9{opacity:0.34;fill:#FFFFFF;enable-background:new    ;}
	.st10{fill:#EFE6DF;}
	.st11{fill:url(#SVGID_19_);}
	.st12{fill:url(#SVGID_20_);}
	.st13{fill:url(#SVGID_21_);}
	.st14{opacity:0.5;fill:#EFE6DF;enable-background:new    ;}
	.st15{fill:#18522A;}
	.st16{fill:#B3721B;}
	.st17{fill:#15381E;}
	.st18{fill:#DDD0C4;}
	.st19{fill:#1D2A2D;}
	.st20{fill:#551721;}
	.st21{fill:#2D515D;}
	.st22{fill:#CF9F68;}
	.st23{fill:#376235;}
	.st24{fill:#D49F6A;}
	.st25{fill:#B6D39E;}
	.st26{fill:#A7BCA3;}
	.st27{fill:#100906;}
	.st28{fill:#9E9E8A;}
	.st29{fill:#353631;}
	.st30{fill:#C7DCC9;}
	.st31{fill:#DBC3A2;}
	.st32{fill:#F0F0F0;}
	.st33{fill:#2F3029;}
	.st34{fill:#0074BF;}
	.st35{fill:#E5E5E5;}
	.st36{opacity:0.25;}
	.st37{fill:url(#SVGID_22_);}
	.st38{fill:url(#SVGID_23_);}
	.st39{fill:url(#SVGID_24_);}
	.st40{fill:url(#SVGID_25_);}
	.st41{fill:url(#SVGID_26_);}
	.st42{opacity:0.25;fill:url(#SVGID_27_);enable-background:new    ;}
	.st43{fill:#7F5F55;}
	.st44{fill:#9EBC53;}
	.st45{fill:#B3D159;}
	.st46{opacity:0.11;fill:url(#SVGID_28_);enable-background:new    ;}
	.st47{opacity:0.21;fill:#FFFFFF;enable-background:new    ;}
	.st48{fill:#9E8592;}
	.st49{fill:url(#SVGID_29_);}
	.st50{opacity:0.11;fill:url(#SVGID_30_);enable-background:new    ;}
	.st51{fill:#DA6458;}
	.st52{fill:#B10701;}
	.st53{fill:#B40600;}
	.st54{fill:#B20300;}
	.st55{fill:url(#SVGID_31_);}
	.st56{fill:url(#SVGID_32_);}
	.st57{fill:#50685C;}
	.st58{opacity:0.11;fill:url(#SVGID_33_);enable-background:new    ;}
	.st59{opacity:0.11;fill:url(#SVGID_34_);enable-background:new    ;}
	.st60{opacity:0.11;fill:url(#SVGID_35_);enable-background:new    ;}
	.st61{opacity:0.11;fill:url(#SVGID_36_);enable-background:new    ;}
	.st62{opacity:0.11;fill:url(#SVGID_37_);enable-background:new    ;}
	.st63{opacity:0.11;fill:url(#SVGID_38_);enable-background:new    ;}
	.st64{opacity:0.11;fill:url(#SVGID_39_);enable-background:new    ;}
	.st65{opacity:0.11;fill:url(#SVGID_40_);enable-background:new    ;}
	.st66{opacity:0.11;fill:url(#SVGID_41_);enable-background:new    ;}
	.st67{fill:url(#SVGID_42_);}
	.st68{fill:#FFFFFF;}
	.st69{fill:url(#SVGID_43_);}
	.st70{display:inline;opacity:0.5;fill:#EFE6DF;enable-background:new    ;}
	.st71{display:inline;opacity:0.48;fill:#FFFFFF;enable-background:new    ;}
	.st72{display:inline;opacity:0.71;fill:#FFFFFF;enable-background:new    ;}
	.st73{font-family:'ArialMT';}
	.st74{font-size:124.9555px;}
	.st75{display:inline;fill:#FFFFFF;}
	.st76{font-family:'MyriadPro-Regular';}
	.st77{font-size:41.1618px;}
	.st78{fill:#B8AAA1;}
	.st79{fill:#1B4E22;}
	.st80{fill:#3F2E26;}
	.st81{fill:#EBE2D9;}
	.st82{fill:#A4C284;}
	.st83{fill:#67995C;}
	.st84{fill:#772B29;}
	.st85{fill:#2A341F;}
	.st86{fill:#CD9C3B;}
	.st87{fill:#88765F;}
	.st88{opacity:0.25;fill:url(#SVGID_44_);enable-background:new    ;}
	.st89{fill:#FBD01F;}
	.st90{fill:#E2BA25;}
	.st91{opacity:0.25;fill:url(#SVGID_45_);enable-background:new    ;}
</style>
<g id="background_แค่แถวบน" class="st0">
	<g class="st1">
		<g>
			<g>
				<defs>
					<rect id="SVGID_1_" x="5760" width="1920" height="1080"/>
				</defs>
				<clipPath id="SVGID_2_">
					<use xlink:href="#SVGID_1_"  style="overflow:visible;"/>
				</clipPath>
				
					<linearGradient id="SVGID_3_" gradientUnits="userSpaceOnUse" x1="-2" y1="340.2" x2="11521" y2="340.2" gradientTransform="matrix(1 0 0 1 0 200)">
					<stop  offset="0" style="stop-color:#FFC06E"/>
					<stop  offset="0.1403" style="stop-color:#EFACB8"/>
					<stop  offset="0.3675" style="stop-color:#B1B1E5"/>
					<stop  offset="0.5966" style="stop-color:#99CDC6"/>
					<stop  offset="0.6669" style="stop-color:#AACDAE"/>
					<stop  offset="0.7491" style="stop-color:#BBCE95"/>
					<stop  offset="0.7893" style="stop-color:#C6CB92"/>
					<stop  offset="0.9256" style="stop-color:#E7C289"/>
					<stop  offset="1" style="stop-color:#F4BE86"/>
				</linearGradient>
				<rect x="-2" y="0.4" class="st2" width="11523" height="1079.6"/>
			</g>
		</g>
	</g>
	<g class="st1">
		<g>
			<g>
				<defs>
					<rect id="SVGID_4_" width="1920" height="1080"/>
				</defs>
				<clipPath id="SVGID_5_">
					<use xlink:href="#SVGID_4_"  style="overflow:visible;"/>
				</clipPath>
				
					<linearGradient id="SVGID_6_" gradientUnits="userSpaceOnUse" x1="0" y1="340.2" x2="11523" y2="340.2" gradientTransform="matrix(1 0 0 1 0 200)">
					<stop  offset="0" style="stop-color:#FFC06E"/>
					<stop  offset="0.1403" style="stop-color:#EFACB8"/>
					<stop  offset="0.3675" style="stop-color:#B1B1E5"/>
					<stop  offset="0.5966" style="stop-color:#99CDC6"/>
					<stop  offset="0.6669" style="stop-color:#AACDAE"/>
					<stop  offset="0.7491" style="stop-color:#BBCE95"/>
					<stop  offset="0.7893" style="stop-color:#C6CB92"/>
					<stop  offset="0.9256" style="stop-color:#E7C289"/>
					<stop  offset="1" style="stop-color:#F4BE86"/>
				</linearGradient>
				<rect y="0.4" class="st3" width="11523" height="1079.6"/>
			</g>
		</g>
	</g>
	<g class="st1">
		<g>
			<g>
				<defs>
					<rect id="SVGID_7_" x="1920" width="1920" height="1080"/>
				</defs>
				<clipPath id="SVGID_8_">
					<use xlink:href="#SVGID_7_"  style="overflow:visible;"/>
				</clipPath>
				
					<linearGradient id="SVGID_9_" gradientUnits="userSpaceOnUse" x1="0" y1="340.2" x2="11523" y2="340.2" gradientTransform="matrix(1 0 0 1 0 200)">
					<stop  offset="0" style="stop-color:#FFC06E"/>
					<stop  offset="0.1403" style="stop-color:#EFACB8"/>
					<stop  offset="0.3675" style="stop-color:#B1B1E5"/>
					<stop  offset="0.5966" style="stop-color:#99CDC6"/>
					<stop  offset="0.6669" style="stop-color:#AACDAE"/>
					<stop  offset="0.7491" style="stop-color:#BBCE95"/>
					<stop  offset="0.7893" style="stop-color:#C6CB92"/>
					<stop  offset="0.9256" style="stop-color:#E7C289"/>
					<stop  offset="1" style="stop-color:#F4BE86"/>
				</linearGradient>
				<rect y="0.4" class="st4" width="11523" height="1079.6"/>
			</g>
		</g>
	</g>
	<g class="st1">
		<g>
			<g>
				<defs>
					<rect id="SVGID_10_" x="3840" width="1920" height="1080"/>
				</defs>
				<clipPath id="SVGID_11_">
					<use xlink:href="#SVGID_10_"  style="overflow:visible;"/>
				</clipPath>
				
					<linearGradient id="SVGID_12_" gradientUnits="userSpaceOnUse" x1="0" y1="340.2" x2="11523" y2="340.2" gradientTransform="matrix(1 0 0 1 0 200)">
					<stop  offset="0" style="stop-color:#FFC06E"/>
					<stop  offset="0.1403" style="stop-color:#EFACB8"/>
					<stop  offset="0.3675" style="stop-color:#B1B1E5"/>
					<stop  offset="0.5966" style="stop-color:#99CDC6"/>
					<stop  offset="0.6669" style="stop-color:#AACDAE"/>
					<stop  offset="0.7491" style="stop-color:#BBCE95"/>
					<stop  offset="0.7893" style="stop-color:#C6CB92"/>
					<stop  offset="0.9256" style="stop-color:#E7C289"/>
					<stop  offset="1" style="stop-color:#F4BE86"/>
				</linearGradient>
				<rect y="0.4" class="st5" width="11523" height="1079.6"/>
			</g>
		</g>
	</g>
	<g class="st1">
		<g>
			<g>
				<defs>
					<rect id="SVGID_13_" x="7680" width="1920" height="1080"/>
				</defs>
				<clipPath id="SVGID_14_">
					<use xlink:href="#SVGID_13_"  style="overflow:visible;"/>
				</clipPath>
				
					<linearGradient id="SVGID_15_" gradientUnits="userSpaceOnUse" x1="-3" y1="340.2" x2="11520" y2="340.2" gradientTransform="matrix(1 0 0 1 0 200)">
					<stop  offset="0" style="stop-color:#FFC06E"/>
					<stop  offset="0.1403" style="stop-color:#EFACB8"/>
					<stop  offset="0.3675" style="stop-color:#B1B1E5"/>
					<stop  offset="0.5966" style="stop-color:#99CDC6"/>
					<stop  offset="0.6669" style="stop-color:#AACDAE"/>
					<stop  offset="0.7491" style="stop-color:#BBCE95"/>
					<stop  offset="0.7893" style="stop-color:#C6CB92"/>
					<stop  offset="0.9256" style="stop-color:#E7C289"/>
					<stop  offset="1" style="stop-color:#F4BE86"/>
				</linearGradient>
				<rect x="-3" y="0.4" class="st6" width="11523" height="1079.6"/>
			</g>
		</g>
	</g>
	<g class="st1">
		<g>
			<g>
				<defs>
					<rect id="SVGID_16_" x="9600" width="1924" height="1080"/>
				</defs>
				<clipPath id="SVGID_17_">
					<use xlink:href="#SVGID_16_"  style="overflow:visible;"/>
				</clipPath>
				
					<linearGradient id="SVGID_18_" gradientUnits="userSpaceOnUse" x1="-25" y1="340.2" x2="11522" y2="340.2" gradientTransform="matrix(1 0 0 1 0 200)">
					<stop  offset="0" style="stop-color:#FFC06E"/>
					<stop  offset="0.1403" style="stop-color:#EFACB8"/>
					<stop  offset="0.3675" style="stop-color:#B1B1E5"/>
					<stop  offset="0.5966" style="stop-color:#99CDC6"/>
					<stop  offset="0.6669" style="stop-color:#AACDAE"/>
					<stop  offset="0.7491" style="stop-color:#BBCE95"/>
					<stop  offset="0.7893" style="stop-color:#C6CB92"/>
					<stop  offset="0.9256" style="stop-color:#E7C289"/>
					<stop  offset="1" style="stop-color:#F4BE86"/>
				</linearGradient>
				<rect x="-25" y="0.4" class="st7" width="11547" height="1079.6"/>
			</g>
		</g>
	</g>
</g>
<g id="Layer_1_1_">
	<path class="st8" d="M2112.5,513.8v-2.5c-1.5,0.8-3.1,1.7-4.6,2.5H2112.5z"/>
	<path class="st9" d="M1988.1,808.5h-50.2h-26h-12.4c-8.7,0-15.8-4.8-15.8-10.7s7.1-10.7,15.8-10.7h13h25.4h26.8
		c6.8,0,12.3-3.8,12.3-8.4s-5.5-8.4-12.3-8.4h-344.9c-6.8,0-12.3,3.8-12.3,8.4s5.5,8.4,12.3,8.4h63.9h28.2h10.3
		c8.7,0,15.8,4.8,15.8,10.7s-7.1,10.7-15.8,10.7h-9.8h-28.8h-103.7c-7.6,0-13.7,4.2-13.7,9.3s6.2,9.3,13.7,9.3H1988
		c7.6,0,13.7-4.2,13.7-9.3S1995.6,808.5,1988.1,808.5z"/>
	<path class="st10" d="M471.3,440.8H-47.8c0,0,25.2-128.7,194-115c0,0,12.6-101.4,126-68.2c0,0,53,15.6,42.9,68.2
		c0,0,15.1-21.4,53-11.7c0,0,27.8,9.8,22.7,31.2c0,0,50.4-13.6,53,23.4c0,0,118.5,7.8,126,72.1H471.3L471.3,440.8z"/>
	
		<linearGradient id="SVGID_19_" gradientUnits="userSpaceOnUse" x1="286.0553" y1="572.3572" x2="1315.6454" y2="572.3572" gradientTransform="matrix(1 0 0 1 0 200)">
		<stop  offset="0" style="stop-color:#FFD192"/>
		<stop  offset="1" style="stop-color:#FA9266"/>
	</linearGradient>
	<path class="st11" d="M1151.8,942.1H286.1c0,0,42-230,323.6-205.6c0,0,21-181.2,210.1-122c0,0,88.2,27.9,71.4,122
		c0,0,25.2-38.3,88.2-20.9c0,0,46.2,17.4,37.8,55.8c0,0,84.1-24.4,88.2,41.8c0,0,197.5,13.9,210.1,128.9H1151.8L1151.8,942.1z"/>
	<path class="st10" d="M989,276.3c0-10.1-9.9-18.3-22.1-18.3c-4.3,0-8.4,1-11.8,2.8c-1-0.4-2.2-0.6-3.4-0.6
		c-1.2-6.2-7.6-10.9-15.4-10.9c-2.3,0-4.3,0.4-6.3,1.1c-2.1-5.1-4.5-9.6-13.2-11.4c-10.5-2.2-18,4-19.5,9.9
		c-1.9-0.7-1.4,1.9-3.7,1.9c-4.3,0-8.2,1.5-11,3.8c-1-0.6-2.3-1-3.7-1c-3.4,0-6.1,2.3-6.1,5.1c0,0.1,0,0.1,0,0.2
		c-10,0.9-17.7,7.9-17.7,16.4c0,0.5,0,0.9,0.1,1.4c0,0,0,0-0.1,0h0.1h39.8h49.8h44.3C989,276.4,989,276.3,989,276.3L989,276.3z"/>
	<path class="st10" d="M1455.5,696H1728c0,0-13.2-72.4-101.9-64.7c0,0-6.6-57-66.1-38.4c0,0-27.8,8.8-22.5,38.4
		c0,0-7.9-12.1-27.8-6.6c0,0-14.5,5.5-11.9,17.5c0,0-26.5-7.7-27.8,13.2c0,0-62.1,4.4-66.1,40.6H1455.5L1455.5,696z"/>
	<path class="st10" d="M1283.2,399.3h272.5c0,0-13.2-72.4-101.9-64.7c0,0-6.6-57-66.1-38.4c0,0-27.8,8.8-22.5,38.4
		c0,0-7.9-12.1-27.8-6.6c0,0-14.5,5.5-11.9,17.5c0,0-26.5-7.7-27.8,13.2c0,0-62.1,4.4-66.1,40.6H1283.2z"/>
	
		<linearGradient id="SVGID_20_" gradientUnits="userSpaceOnUse" x1="1283.6344" y1="135.8847" x2="1607.5981" y2="135.8847" gradientTransform="matrix(1 0 0 1 0 200)">
		<stop  offset="0" style="stop-color:#FFD192"/>
		<stop  offset="1" style="stop-color:#FA9266"/>
	</linearGradient>
	<path class="st12" d="M1335.1,389.3h272.5c0,0-13.2-72.4-101.9-64.7c0,0-6.6-57-66.1-38.4c0,0-27.8,8.8-22.5,38.4
		c0,0-7.9-12.1-27.8-6.6c0,0-14.5,5.5-11.9,17.5c0,0-26.5-7.7-27.8,13.2c0,0-62.1,4.4-66.1,40.6H1335.1z"/>
	
		<linearGradient id="SVGID_21_" gradientUnits="userSpaceOnUse" x1="173.0286" y1="186.1987" x2="640.8445" y2="186.1987" gradientTransform="matrix(1 0 0 1 0 200)">
		<stop  offset="0" style="stop-color:#FFD192"/>
		<stop  offset="1" style="stop-color:#FA9266"/>
	</linearGradient>
	<path class="st13" d="M247.5,463.3h393.3c0,0-19.1-104.5-147-93.4c0,0-9.6-82.3-95.4-55.4c0,0-40.1,12.7-32.5,55.4
		c0,0-11.5-17.4-40.1-9.5c0,0-21,7.9-17.2,25.3c0,0-38.2-11.1-40.1,19c0,0-89.7,6.3-95.4,58.6H247.5z"/>
	<path class="st10" d="M425.4,654.8c0-15.7,15.4-28.4,34.3-28.4c6.7,0,12.9,1.6,18.3,4.4c1.6-0.6,3.4-0.9,5.2-1
		c1.8-9.6,11.9-17,23.9-17c3.5,0,6.8,0.6,9.8,1.7c3.3-7.9,7.1-15,20.5-17.8c16.3-3.4,27.9,6.3,30.2,15.3c3-1.1,2.2,2.9,5.7,2.9
		c6.7,0,12.7,2.3,17,6c1.6-1,3.6-1.6,5.7-1.6c5.2,0,9.5,3.5,9.5,7.9c0,0.1,0,0.2,0,0.3c15.4,1.4,27.5,12.3,27.5,25.5
		c0,0.7,0,1.4-0.1,2.1l0.1,0.1h-0.1h-61.7h-77.3h-68.5C425.4,655.1,425.4,655,425.4,654.8L425.4,654.8z"/>
	<path class="st10" d="M1958,378.8c0-10.1-9.9-18.3-22.1-18.3c-4.3,0-8.4,1-11.8,2.8c-1-0.4-2.2-0.6-3.4-0.6
		c-1.2-6.2-7.6-10.9-15.4-10.9c-2.3,0-4.3,0.4-6.3,1.1c-2.1-5.1-4.5-9.6-13.2-11.4c-10.5-2.2-18,4-19.5,9.9
		c-1.9-0.7-1.4,1.9-3.7,1.9c-4.3,0-8.2,1.5-11,3.8c-1-0.6-2.3-1-3.7-1c-3.4,0-6.1,2.3-6.1,5.1c0,0.1,0,0.1,0,0.2
		c-10,0.9-17.7,7.9-17.7,16.4c0,0.4,0,0.9,0.1,1.4c0,0,0,0-0.1,0h0.1h39.8h49.8h44.3C1958,379,1958,378.9,1958,378.8L1958,378.8z"/>
	<path class="st14" d="M1203.1,833.5l-233.6-0.3c0,0-17.2-13.7,35.3-15.7c38.6-1.5,35.5-5,57.1-8.2c21.6-3.3,54.8-7.9,78.7,9.4
		c4.8,3.5,4.1-8,26.2-8C1194.5,810.5,1216,822.9,1203.1,833.5z"/>
	<path class="st10" d="M2100.4,883.8L2100.4,883.8c-5.3-6.9-18.8-6.9-24.1,0l0,0l-12.1,15.5l-12.1-15.5l0,0
		c-5.3-6.9-18.8-6.9-24.1,0l0,0l-12.1,15.5l-12.1-15.5l0,0c-5.3-6.9-18.8-6.9-24.1,0l0,0l-12.1,15.5l-12.1-15.5l0,0
		c-5.3-6.9-18.8-6.9-24.1,0l0,0l-12.1,15.5l-12.1-15.5l0,0c-5.3-6.9-18.8-6.9-24.1,0l0,0l-12.1,15.5l-12.1-15.5l0,0
		c-5.3-6.9-18.8-6.9-24.1,0l0,0l-12.1,15.5l-12.1-15.5l0,0c-5.3-6.9-18.8-6.9-24.1,0l0,0l-12.1,15.5l-12.1-15.5l0,0
		c-5.3-6.9-18.8-6.9-24.1,0l0,0l-12.1,15.5l-12.1-15.5l0,0c-5.3-6.9-18.8-6.9-24.1,0l0,0l-12.1,15.5l-12.1-15.5l0,0
		c-5.3-6.9-18.8-6.9-24.1,0l0,0l-12.1,15.5l-12.1-15.5l0,0c-5.3-6.9-18.8-6.9-24.1,0l0,0l-12.1,15.5l-12.1-15.5l0,0
		c-5.3-6.9-18.8-6.9-24.1,0l0,0l-12.1,15.5l-12.1-15.5l0,0c-5.3-6.9-18.8-6.9-24.1,0l0,0l-12.1,15.5l-12.1-15.5l0,0
		c-5.3-6.9-18.8-6.9-24.1,0l0,0l-12.1,15.5l-12.1-15.5l0,0c-5.3-6.9-18.8-6.9-24.1,0l0,0l-12.1,15.5l-12.1-15.5l0,0
		c-5.3-6.9-18.8-6.9-24.1,0l0,0l-12.1,15.5l-12.1-15.5l0,0c-5.3-6.9-18.8-6.9-24.1,0l0,0l-12.1,15.5l-12.1-15.5l0,0
		c-5.3-6.9-18.8-6.9-24.1,0l0,0l-12.1,15.5l-12.1-15.5l0,0c-5.3-6.9-18.8-6.9-24.1,0l0,0l-12.1,15.5l-12.1-15.5l0,0
		c-5.3-6.9-18.8-6.9-24.1,0l0,0l-12.1,15.5l-12.1-15.5l0,0c-5.3-6.9-18.8-6.9-24.1,0l0,0l-12.1,15.5l-12.1-15.5l0,0
		c-5.3-6.9-18.8-6.9-24.1,0l0,0l-12.1,15.5l-12.1-15.5l0,0c-5.3-6.9-18.8-6.9-24.1,0l0,0l-12.1,15.5l-12.1-15.5l0,0
		c-5.3-6.9-18.8-6.9-24.1,0l0,0l-12.1,15.5l-12.1-15.5l0,0c-5.3-6.9-18.8-6.9-24.1,0l0,0l-12.1,15.5l-12.1-15.5l0,0
		c-5.3-6.9-18.8-6.9-24.1,0l0,0l-12.1,15.5l-12.1-15.5l0,0c-5.3-6.9-18.8-6.9-24.1,0l0,0l-12.1,15.5l-12.1-15.5l0,0
		c-5.3-6.9-18.8-6.9-24.1,0l0,0l-12.1,15.5l-12.1-15.5l0,0c-5.3-6.9-18.8-6.9-24.1,0l0,0l-12.1,15.5l-12.1-15.5l0,0
		c-5.3-6.9-18.8-6.9-24.1,0l0,0L666,899.3L654,883.8l0,0c-5.3-6.9-18.8-6.9-24.1,0l0,0l-12.1,15.5l-12.1-15.5l0,0
		c-5.3-6.9-18.8-6.9-24.1,0l0,0l-12.1,15.5l-12.1-15.5l0,0c-5.3-6.9-18.8-6.9-24.1,0l0,0l-12.1,15.5l-12.1-15.5l0,0
		c-5.3-6.9-18.8-6.9-24.1,0l0,0l-12.1,15.5l-12.1-15.5l0,0c-5.3-6.9-18.8-6.9-24.1,0l0,0l-11.7,15.5l-12.1-15.5l0,0
		c-5.3-6.9-18.8-6.9-24.1,0l0,0l-12.1,15.5l-12.1-15.5l0,0c-5.3-6.9-18.8-6.9-24.1,0l0,0l-12.1,15.5l-12.1-15.5l0,0
		c-5.3-6.9-18.8-6.9-24.1,0l0,0l-12.1,15.5l-12.1-15.5l0,0c-5.3-6.9-18.8-6.9-24.1,0l0,0l-12.1,15.5l-12.1-15.5l0,0
		c-5.3-6.9-18.8-6.9-24.1,0l0,0l-12.1,15.5l-12.1-15.5l0,0c-5.3-6.9-18.8-6.9-24.1,0l0,0l-12.1,15.5L124,883.8l0,0
		c-5.3-6.9-18.8-6.9-24.1,0l0,0l-12.1,15.5l-12.1-15.5l0,0c-5.3-6.9-18.8-6.9-24.1,0l0,0l-12.1,15.5l-12.1-15.5l0,0
		c-5.3-6.9-18.8-6.9-24.1,0l0,0l-12.1,15.5l-12.1-15.5l0,0c-5.3-6.9-18.8-6.9-24.1,0l0,0l-12.1,15.5l-12.1-15.5l0,0
		c-5.3-6.9-18.8-6.9-24.1,0l0,0l-12.1,15.5l-12.1-15.5l0,0c-5.3-6.9-18.8-6.9-24.1,0l0,0l-12.1,15.5l-12.1-15.5l0,0
		c-5.3-6.9-18.8-6.9-24.1,0l0,0l-12.6,15.5v126.2h2314.3V899.3L2100.4,883.8z"/>
	<g>
		<g>
			<polygon class="st15" points="749.9,872.5 755.9,904 731.3,891 728.5,882.9 730.1,874.6 			"/>
			<polygon class="st16" points="749.9,872.5 729.6,874.7 729.3,876.5 750.2,874.1 			"/>
			<polygon class="st16" points="750.5,876 728.9,878.5 728.5,880.3 750.9,877.9 			"/>
			<polygon class="st16" points="751.3,880 728.1,882.2 728.9,883.9 751.7,881.9 			"/>
			<polygon class="st17" points="669.9,908.8 665.8,919.1 701.2,919.1 701.2,893.1 681.1,893.1 			"/>
			<polygon class="st17" points="732.4,908.8 736.5,919.1 701.2,919.1 701.2,893.1 721.3,893.1 			"/>
			<polygon class="st16" points="668.7,911.8 733.6,911.8 733.1,910.6 669.2,910.6 			"/>
			<polygon class="st18" points="673.8,882.9 673.8,891 728.5,891 728.5,882.9 714.9,879 687.5,879 			"/>
			<polygon class="st16" points="728.5,886 714.9,882 706.2,882 708.1,883.2 714.9,883.2 728.5,887.3 			"/>
			<polygon class="st16" points="728.5,888.6 714.9,884.6 706.2,884.6 708.1,885.9 714.9,885.9 728.5,889.9 			"/>
			<polygon class="st19" points="701.2,966.7 701.1,940.6 678,962.6 676,973.8 682.9,979.9 688.6,976.8 693.6,972.5 			"/>
			<polygon class="st20" points="701.2,941.5 701.2,966.7 694.5,972.5 682.2,981.4 681.7,978.8 688.9,975.3 695.1,969.8 
				699.2,964.4 			"/>
			<g>
				<polygon class="st19" points="701.2,966.7 701.2,940.6 724.4,962.6 726.3,973.8 719.5,979.9 713.8,976.8 708.8,972.5 				"/>
				<polygon class="st20" points="701.2,941.5 701.2,966.7 707.8,972.5 720.2,981.4 720.7,978.8 713.5,975.3 707.2,969.8 
					703.2,964.4 				"/>
			</g>
			<g>
				<polygon class="st18" points="650.4,1006.6 644.3,1003.6 640.6,1003.6 639.1,1007.5 644.8,1014.9 657.8,1017 680.9,1016.3 
					691.9,1011.6 690.5,1006.8 675.4,1008.9 				"/>
				<polygon class="st20" points="688.9,1004.9 690.5,1006.8 688.4,1008.6 671.3,1010.7 656.9,1009.8 650.4,1006.6 655.6,1006.6 
									"/>
				<polygon class="st15" points="682.4,981.9 687.1,998.4 661.9,1000.4 653.6,985.1 657.4,980.9 				"/>
				<polygon class="st21" points="680.4,968.5 681.7,976.5 670.4,981.3 660.1,982.7 644.5,976.7 637.1,967.1 637.1,958.4 
					674.8,960.2 				"/>
				<polygon class="st16" points="631.2,949.6 623.9,952.8 621.1,951.2 612.9,951.2 623.2,959.2 633.1,959.2 639.6,961.8 
					680.4,968.5 680.9,967.1 636.6,952.6 				"/>
				<polygon class="st21" points="701.2,921.5 701.2,942.5 688.6,957.2 644.5,949.6 665.8,919.1 				"/>
				<polygon class="st20" points="644.5,949.6 642.5,951.2 687.1,959.2 688.6,957.2 				"/>
				<polygon class="st18" points="687.1,959.2 680.9,967.1 642.5,961 631.2,949.6 642.5,951.2 				"/>
				<polygon class="st16" points="633.1,959.2 636.1,962.9 631.2,961.8 625.1,963.8 619.8,963.8 616.1,964.5 621.8,969.5 630.5,972 
					643.7,982.2 656.1,985.9 671.1,985.3 683.5,981.6 681.7,976.5 667.9,979.5 656.6,979.5 646.9,976.7 639.6,961.8 				"/>
				<polygon class="st16" points="661.9,1000.4 660.1,1002.1 661.9,1003.6 688.5,1001.4 689.4,999.4 687.1,998.4 				"/>
				<polygon class="st15" points="661.9,1003.6 655.6,1006.6 661.3,1008.2 683.5,1006.8 688.9,1004.9 688.5,1001.4 				"/>
			</g>
			<g>
				<polygon class="st18" points="751.9,1006.6 758,1003.6 761.7,1003.6 763.3,1007.5 757.6,1014.9 744.6,1017 721.5,1016.3 
					710.4,1011.6 711.8,1006.8 726.9,1008.9 				"/>
				<polygon class="st20" points="713.5,1004.9 711.8,1006.8 714,1008.6 731,1010.7 745.5,1009.8 751.9,1006.6 746.8,1006.6 				"/>
				<polygon class="st15" points="719.9,981.9 715.3,998.4 740.4,1000.4 748.7,985.1 744.9,980.9 				"/>
				<polygon class="st21" points="722.1,968.5 720.7,976.5 731.9,981.3 742.2,982.7 757.8,976.7 765.2,967.1 765.2,958.4 
					727.5,960.2 				"/>
				<polygon class="st16" points="771.2,949.6 778.5,952.8 781.2,951.2 789.4,951.2 779.2,959.2 769.2,959.2 762.8,961.8 
					722.1,968.5 721.5,967.1 765.7,952.6 				"/>
				<polygon class="st21" points="701.1,921.5 701.1,942.5 713.8,957.2 757.8,949.6 736.5,919.1 				"/>
				<polygon class="st20" points="757.8,949.6 759.9,951.2 715.3,959.2 713.8,957.2 				"/>
				<polygon class="st18" points="715.3,959.2 721.5,967.1 759.9,961 771.2,949.6 759.9,951.2 				"/>
				<polygon class="st16" points="769.2,959.2 766.2,962.9 771.2,961.8 777.3,963.8 782.6,963.8 786.2,964.5 780.5,969.5 772,972 
					758.6,982.2 746.3,985.9 731.2,985.3 718.8,981.6 720.7,976.5 734.4,979.5 745.8,979.5 755.5,976.7 762.8,961.8 				"/>
				<polygon class="st16" points="740.4,1000.4 742.2,1002.1 740.4,1003.6 713.9,1001.4 713,999.4 715.3,998.4 				"/>
				<polygon class="st15" points="740.4,1003.6 746.8,1006.6 741,1008.2 718.8,1006.8 713.5,1004.9 713.9,1001.4 				"/>
			</g>
			<polygon class="st16" points="701.2,866.1 701.2,879 687.5,879 669.9,868.1 668.7,862.1 678.2,864.7 			"/>
			<polygon class="st16" points="701.2,866.1 701.2,879 714.9,879 732.4,868.1 733.6,862.1 724.1,864.7 			"/>
			<polygon class="st21" points="660.1,849.5 653.9,859.5 669.9,859.5 669.9,863.5 690.3,875.5 701.2,866.1 701.2,861.3 
				687.2,849.5 			"/>
			<polygon class="st21" points="742.2,849.5 748.4,859.5 732.4,859.5 732.4,863.5 712,875.5 701.2,866.1 701.2,861.3 715.1,849.5 
							"/>
			<polygon class="st22" points="701.2,803.4 701.2,793.7 696.1,793.7 681.2,806.2 679.7,809.2 698.5,805.9 			"/>
			<polygon class="st22" points="701.2,803.4 701.2,793.7 706.2,793.7 721.2,806.2 722.7,809.2 703.9,805.9 			"/>
			<rect x="700" y="836.6" class="st17" width="3.6" height="10.3"/>
			<polygon class="st16" points="681.8,813.8 681.5,815.9 679.2,814.9 676,808.2 673.2,807.5 673.9,809.2 674.4,815.4 676.4,819.1 
				675.3,818.8 677.2,824.5 681.5,826.1 684.6,824.7 684.6,815.4 			"/>
			<polygon class="st16" points="720.6,813.9 720.9,816 723.1,814.9 726.3,808.3 729.2,807.6 728.4,809.3 727.9,815.5 725.9,819.2 
				727.1,818.9 725.2,824.6 720.9,826.2 717.8,824.8 717.8,815.5 			"/>
			<polygon class="st16" points="681.5,812 679.7,809.2 682.4,806 693.4,803.4 701.2,803.4 701.2,806.9 701.2,808.7 			"/>
			<polygon class="st16" points="720.9,812 722.7,809.2 719.9,806 709,803.4 701.2,803.4 701.2,806.9 701.2,808.7 			"/>
			<polygon class="st17" points="701.2,837.3 701.2,846.9 688.9,846.9 688.9,837.1 701.3,837.1 			"/>
			<polygon class="st17" points="701.3,837.3 701.3,846.9 713.6,846.9 713.6,837.1 701.2,837.1 			"/>
			<polygon class="st23" points="701.1,820.3 700.7,821.3 701.2,821.2 701.6,821.3 701.6,820.2 			"/>
			<polygon class="st23" points="700.8,806.9 701.8,806.9 701.8,811.5 700,809.5 			"/>
			<path class="st23" d="M683.6,823.4l-2.2-11.4c0,0,2.7-5.1,19.7-5.1v16.5H683.6z"/>
			<path class="st23" d="M718.7,823.4l2.2-11.4c0,0-2.7-5.1-19.7-5.1v16.5H718.7z"/>
			<path class="st24" d="M683,827.2l-3.8-0.2c0,0,1.4,6.7,6.6,10.4c5.2,3.7,2.7,2.4,15.3,0v-9.6L683,827.2z"/>
			<path class="st24" d="M719.4,827.2l3.8-0.2c0,0-1.4,6.7-6.6,10.4c-5.2,3.7-2.7,2.4-15.3,0v-9.6L719.4,827.2z"/>
			<path class="st25" d="M683.1,828.4c0,0-1.7-8.9,4.6-9.3l5.1,3.8c0,0-1.8,2.4-2,2.7c-0.2,0.2-6.9,2.8-6.9,2.8H683.1L683.1,828.4z"
				/>
			<path class="st25" d="M719.3,828.4c0,0,1.7-8.9-4.6-9.3l-5.1,3.8c0,0,1.8,2.4,2,2.7c0.2,0.2,6.9,2.8,6.9,2.8H719.3L719.3,828.4z"
				/>
			<polygon class="st24" points="701.2,810.4 700.8,815.3 701,815.5 701.8,815.3 701.7,813.7 			"/>
			<polygon class="st24" points="701.2,815 701.3,810.4 699.7,810.4 700.2,815.7 			"/>
			<polygon class="st24" points="701.3,815 701.2,810.4 702.8,810.4 702.3,815.7 			"/>
			<path class="st23" d="M685.9,828.4h-4.7c0,0,3.7,8.7,8.9,10c5.2,1.3,2.7-2.5,11.2-2.3l0.3-7.9L685.9,828.4z"/>
			<path class="st23" d="M716.6,828.4h4.7c0,0-3.7,8.7-8.9,10c-5.2,1.3-2.7-2.5-11.2-2.3l-0.3-7.9L716.6,828.4z"/>
			<path class="st26" d="M700.5,814.4c0,0-2,0.3-3.4-1.5s-3.5-4.6-5.6-4.7s-1.9,0.6-1.9,0.6s-2.9,0.7-3.6,3.1s-1.2,3.2-2.3,2.1
				c-1.2-1.1-3.5-3.6-4-1.5c0,0,2.6,1.2,3.5,2.5s3.5,0.1,3.7-0.8c0.3-0.9,1.2-3.9,3.9-4.2C693.3,809.7,696.2,816.5,700.5,814.4z"/>
			<path class="st26" d="M702,814.4c0,0,2,0.3,3.4-1.5c1.4-1.8,3.5-4.6,5.6-4.7c2.2-0.1,1.9,0.6,1.9,0.6s2.9,0.7,3.6,3.1
				c0.7,2.4,1.2,3.2,2.3,2.1c1.2-1.1,3.5-3.6,4-1.5c0,0-2.6,1.2-3.5,2.5s-3.5,0.1-3.7-0.8c-0.3-0.9-1.2-3.9-3.9-4.2
				C709.1,809.7,706.3,816.5,702,814.4z"/>
			<path class="st27" d="M697.9,817.3c0,0-5.7-6.9-7.2-2.1l2.7,0.8L697.9,817.3z"/>
			<path class="st28" d="M697.9,817.3c0,0-5.1-5.6-7.5-1.7c-2.4,3.9,1.3,5.5,1.3,5.5S694.5,818.7,697.9,817.3z"/>
			<ellipse class="st29" cx="693.4" cy="817.5" rx="2" ry="1.8"/>
			<g>
				<path class="st27" d="M704.5,817.3c0,0,5.7-6.9,7.2-2.1L709,816L704.5,817.3z"/>
				<path class="st28" d="M704.5,817.3c0,0,5.1-5.6,7.5-1.7c2.4,3.9-1.3,5.5-1.3,5.5S707.8,818.7,704.5,817.3z"/>
				<ellipse class="st29" cx="709" cy="817.5" rx="2" ry="1.8"/>
			</g>
			<path class="st30" d="M701.2,830.1v1c0,0-2-2.7-5.2-0.2c-3.3,2.4-7.6,3.2-10.2,0.4c-2.7-2.8-4.3-10.5,4.2-8.4
				c8.6,2,10.9,5.2,10.9,5.2L701.2,830.1z"/>
			<path class="st30" d="M701.2,830.1v1c0,0,2-2.7,5.2-0.2c3.3,2.4,7.6,3.2,10.2,0.4c2.7-2.8,4.3-10.5-4.2-8.4
				c-8.6,2-10.9,5.2-10.9,5.2L701.2,830.1z"/>
			<path class="st17" d="M701.2,830.2v-6.8c0,0-10.5-0.5-12.3-0.7s-5.4-0.1-4.1,4.9c1.4,5.1,6.2,4.8,10.3,2.6
				C699.1,827.9,701.2,830.2,701.2,830.2z"/>
			<path class="st17" d="M701.2,830.2v-6.8c0,0,10.5-0.5,12.3-0.7s5.4-0.1,4.1,4.9c-1.4,5.1-6.2,4.8-10.3,2.6
				C703.3,827.9,701.2,830.2,701.2,830.2z"/>
			<path class="st20" d="M701.2,821.2v2.5l-8.4-1.3c0,0,0.1-2.3,1.8-1.9C696.4,820.9,699.2,821.6,701.2,821.2z"/>
			<path class="st20" d="M701.2,826.4v-2.3c0,0-7.8,0.2-8,0c-0.2-0.2-2,0.6-3.1,0.6c-1.2,0-2.6,1.4-2,3.4s3.7,2.2,5.5,1
				c1.9-1.2,1.2-3.2,2.1-3.3C696.5,825.7,701.2,826.4,701.2,826.4z"/>
			<path class="st20" d="M701.2,821.2v2.5l8.4-1.3c0,0-0.1-2.3-1.8-1.9C706.1,820.9,703.2,821.6,701.2,821.2z"/>
			<path class="st20" d="M701.2,826.4v-2.3c0,0,7.8,0.2,8,0c0.2-0.2,2,0.6,3.1,0.6c1.2,0,2.6,1.4,2,3.4s-3.7,2.2-5.5,1
				c-1.9-1.2-1.2-3.2-2.1-3.3C706,825.7,701.2,826.4,701.2,826.4z"/>
			<path class="st27" d="M710.8,824.8l-2.3-0.8h-7.3h-7.3l-2.3,0.8c-2.9,0-3.2,1-3.1,2.7c0.1,1.8,3.5,1.8,4.7,1.3s1.6-2.8,2.8-3.2
				c1.3-0.4,5.1,0.4,5.1,0.4s3.9-0.8,5.1-0.4c1.3,0.4,1.6,2.7,2.8,3.2c1.3,0.5,4.5,0.5,4.7-1.3C714,825.8,713.7,824.8,710.8,824.8z"
				/>
			<rect x="697.1" y="822.9" class="st31" width="8.2" height="1.6"/>
			<polygon class="st24" points="697.1,822.9 693.6,821.7 692.5,823.7 694.8,825.1 697.1,824.5 			"/>
			<path class="st31" d="M690.8,814.4c0,0-7.9,4.1,1.7,9.3l1-2C693.6,821.7,688.1,820.5,690.8,814.4z"/>
			<polygon class="st24" points="705.3,822.9 708.8,821.7 709.8,823.7 707.5,825.1 705.3,824.5 			"/>
			<path class="st31" d="M711.6,814.4c0,0,7.9,4.1-1.7,9.3l-1-2C708.8,821.7,714.4,820.5,711.6,814.4z"/>
			<polygon class="st30" points="701.2,830.2 701.2,830.2 701.2,831.1 701.2,831.1 701.2,831.1 701.3,830.6 701.2,830.1 			"/>
			<ellipse class="st15" cx="701.2" cy="817.8" rx="3.4" ry="2.8"/>
			<rect x="696.1" y="789.5" class="st17" width="5.1" height="4.2"/>
			<rect x="701.2" y="789.5" class="st17" width="5.1" height="4.2"/>
			<g>
				<polygon class="st22" points="701.2,777.4 701.2,773.6 699.1,773.6 693.2,778.5 692.6,779.7 700.1,778.4 				"/>
				<polygon class="st22" points="701.2,777.4 701.2,773.6 703.2,773.6 709.1,778.5 709.7,779.7 702.2,778.4 				"/>
				<polygon class="st16" points="693.5,781.5 693.4,782.4 692.4,782 691.2,779.3 690,779.1 690.3,779.7 690.6,782.2 691.3,783.6 
					690.9,783.5 691.6,785.8 693.4,786.4 694.6,785.9 694.6,782.2 				"/>
				<polygon class="st16" points="708.8,781.6 709,782.4 709.9,782 711.1,779.3 712.3,779.1 712,779.7 711.8,782.2 711,783.7 
					711.4,783.6 710.7,785.8 709,786.4 707.7,785.9 707.7,782.2 				"/>
				<polygon class="st16" points="693.4,780.8 692.6,779.7 693.8,778.4 698,777.4 701.2,777.4 701.2,778.8 701.2,779.5 				"/>
				<polygon class="st16" points="708.9,780.8 709.7,779.7 708.6,778.4 704.3,777.4 701.2,777.4 701.2,778.8 701.2,779.5 				"/>
				<polygon class="st23" points="701.1,784.1 701,784.5 701.2,784.5 701.4,784.5 701.4,784.1 				"/>
				<polygon class="st23" points="701,778.8 701.4,778.8 701.4,780.6 700.7,779.8 				"/>
				<path class="st23" d="M694.2,785.3l-0.9-4.5c0,0,1.1-2,7.8-2v6.5H694.2z"/>
				<path class="st23" d="M708.1,785.3l0.9-4.5c0,0-1.1-2-7.8-2v6.5H708.1z"/>
				<path class="st24" d="M694,786.8l-1.5-0.1c0,0,0.5,2.7,2.7,4.1c2.1,1.5,1,1,6.1,0V787L694,786.8z"/>
				<path class="st24" d="M708.3,786.8l1.5-0.1c0,0-0.5,2.7-2.7,4.1c-2.1,1.5-1,1-6.1,0V787L708.3,786.8z"/>
				<path class="st25" d="M694,787.3c0,0-0.7-3.5,1.9-3.7l2.1,1.5c0,0-0.7,1-0.8,1c-0.1,0.1-2.8,1.1-2.8,1.1L694,787.3L694,787.3z"
					/>
				<path class="st25" d="M708.3,787.3c0,0,0.7-3.5-1.9-3.7l-2.1,1.5c0,0,0.7,1,0.8,1c0.1,0.1,2.8,1.1,2.8,1.1L708.3,787.3
					L708.3,787.3z"/>
				<polygon class="st24" points="701.2,780.2 701,782.1 701.1,782.2 701.4,782.1 701.4,781.5 				"/>
				<polygon class="st24" points="701.2,782 701.2,780.2 700.6,780.2 700.8,782.3 				"/>
				<polygon class="st24" points="701.2,782 701.2,780.2 701.8,780.2 701.6,782.3 				"/>
				<path class="st23" d="M695.1,787.3h-1.9c0,0,1.5,3.5,3.6,4s1.1-1,4.4-0.9l0.1-3.1H695.1z"/>
				<path class="st23" d="M707.2,787.3h1.9c0,0-1.5,3.5-3.6,4s-1.1-1-4.4-0.9l-0.1-3.1H707.2z"/>
				<path class="st26" d="M700.9,781.8c0,0-0.8,0.1-1.4-0.6c-0.5-0.7-1.4-1.8-2.3-1.9c-0.9-0.1-0.7,0.2-0.7,0.2s-1.1,0.3-1.4,1.2
					c-0.3,1-0.5,1.3-0.9,0.8c-0.4-0.5-1.4-1.4-1.6-0.6c0,0,1,0.5,1.4,1c0.3,0.5,1.4,0.1,1.5-0.3c0.1-0.3,0.5-1.5,1.5-1.7
					C698,779.9,699.1,782.6,700.9,781.8z"/>
				<path class="st26" d="M701.5,781.8c0,0,0.8,0.1,1.4-0.6c0.5-0.7,1.4-1.8,2.3-1.9s0.7,0.2,0.7,0.2s1.1,0.3,1.4,1.2
					c0.3,1,0.5,1.3,0.9,0.8s1.4-1.4,1.6-0.6c0,0-1,0.5-1.4,1c-0.3,0.5-1.4,0.1-1.5-0.3c-0.1-0.3-0.5-1.5-1.5-1.7
					C704.3,779.9,703.2,782.6,701.5,781.8z"/>
				<path class="st27" d="M699.8,782.9c0,0-2.3-2.7-2.9-0.8l1.1,0.3L699.8,782.9z"/>
				<path class="st28" d="M699.8,782.9c0,0-2-2.2-3-0.7c-1,1.6,0.5,2.2,0.5,2.2S698.5,783.5,699.8,782.9z"/>
				<ellipse class="st29" cx="698" cy="783" rx="0.8" ry="0.7"/>
				<g>
					<path class="st27" d="M702.5,782.9c0,0,2.3-2.7,2.9-0.8l-1.1,0.3L702.5,782.9z"/>
					<path class="st28" d="M702.5,782.9c0,0,2-2.2,3-0.7s-0.5,2.2-0.5,2.2S703.8,783.5,702.5,782.9z"/>
					<ellipse class="st29" cx="704.3" cy="783" rx="0.8" ry="0.7"/>
				</g>
				<path class="st30" d="M701.2,788v0.4c0,0-0.8-1-2.1-0.1c-1.3,1-3,1.3-4.1,0.2s-1.7-4.1,1.7-3.3c3.4,0.8,4.2,2.1,4.2,2.1
					L701.2,788z"/>
				<path class="st30" d="M701.2,788v0.4c0,0,0.8-1,2.1-0.1c1.3,1,3,1.3,4.1,0.2c1.1-1.1,1.7-4.1-1.7-3.3c-3.4,0.8-4.2,2.1-4.2,2.1
					L701.2,788z"/>
				<path class="st17" d="M701.2,788v-2.7c0,0-4.1-0.2-4.8-0.3c-0.7-0.1-2.2-0.1-1.7,2c0.5,2,2.5,1.9,4.1,1
					C700.3,787.1,701.2,788,701.2,788z"/>
				<path class="st17" d="M701.2,788v-2.7c0,0,4.1-0.2,4.8-0.3s2.2-0.1,1.7,2c-0.5,2.1-2.5,1.9-4.1,1S701.2,788,701.2,788z"/>
				<path class="st20" d="M701.2,784.5v1l-3.4-0.5c0,0,0-0.9,0.7-0.8C699.2,784.4,700.4,784.6,701.2,784.5z"/>
				<path class="st20" d="M701.2,786.5v-0.9c0,0-3.1,0.1-3.2,0s-0.8,0.2-1.2,0.2c-0.5,0-1,0.5-0.8,1.4c0.2,0.8,1.5,0.9,2.2,0.4
					c0.7-0.5,0.5-1.3,0.8-1.3C699.3,786.3,701.2,786.5,701.2,786.5z"/>
				<path class="st20" d="M701.2,784.5v1l3.4-0.5c0,0,0-0.9-0.7-0.8C703.1,784.4,702,784.6,701.2,784.5z"/>
				<path class="st20" d="M701.2,786.5v-0.9c0,0,3.1,0.1,3.2,0s0.8,0.2,1.2,0.2c0.5,0,1,0.5,0.8,1.4c-0.2,0.8-1.5,0.9-2.2,0.4
					c-0.7-0.5-0.5-1.3-0.8-1.3C703.1,786.3,701.2,786.5,701.2,786.5z"/>
				<path class="st27" d="M705,785.9l-0.9-0.3h-2.9h-2.9l-0.9,0.3c-1.2,0-1.3,0.4-1.2,1.1c0,0.7,1.4,0.7,1.9,0.5
					c0.5-0.2,0.6-1.1,1.1-1.3s2.1,0.2,2.1,0.2s1.6-0.3,2.1-0.2c0.5,0.2,0.6,1,1.1,1.3c0.5,0.3,1.8,0.2,1.9-0.5
					C706.2,786.3,706.2,785.9,705,785.9z"/>
				<rect x="699.5" y="785.2" class="st31" width="3.3" height="0.6"/>
				<polygon class="st24" points="699.5,785.2 698.1,784.7 697.8,785.5 698.6,786 699.5,785.8 				"/>
				<path class="st31" d="M697.1,781.8c0,0-3.2,1.6,0.7,3.7l0.4-0.8C698.1,784.7,696,784.2,697.1,781.8z"/>
				<polygon class="st24" points="702.8,785.2 704.2,784.7 704.6,785.5 703.7,786 702.8,785.8 				"/>
				<path class="st31" d="M705.3,781.8c0,0,3.2,1.6-0.7,3.7l-0.4-0.8C704.2,784.7,706.3,784.2,705.3,781.8z"/>
				<polygon class="st30" points="701.2,788 701.2,788 701.2,788.4 701.2,788.4 701.2,788.4 701.2,788.2 				"/>
				<ellipse class="st15" cx="701.2" cy="783.1" rx="1.3" ry="1.1"/>
			</g>
			<rect x="699.1" y="770.9" class="st17" width="4.1" height="2.6"/>
			<g>
				<polygon class="st22" points="701.2,765.7 701.2,764.2 700.3,764.2 698,766.2 697.7,766.7 700.7,766.1 				"/>
				<polygon class="st22" points="701.2,765.7 701.2,764.2 702,764.2 704.5,766.2 704.7,766.7 701.6,766.1 				"/>
				<polygon class="st16" points="698,767.4 698,767.8 697.7,767.6 697.1,766.5 696.7,766.4 696.8,766.7 696.9,767.7 697.2,768.3 
					697,768.2 697.3,769.2 698,769.4 698.4,769.2 698.4,767.7 				"/>
				<polygon class="st16" points="704.4,767.4 704.4,767.8 704.8,767.6 705.3,766.5 705.8,766.4 705.7,766.7 705.6,767.7 
					705.3,768.3 705.5,768.3 705.1,769.2 704.4,769.4 703.9,769.2 703.9,767.7 				"/>
				<polygon class="st16" points="698,767.1 697.7,766.7 698.1,766.2 699.9,765.7 701.2,765.7 701.2,766.3 701.2,766.6 				"/>
				<polygon class="st16" points="704.4,767.1 704.7,766.7 704.3,766.2 702.5,765.7 701.2,765.7 701.2,766.3 701.2,766.6 				"/>
				<polygon class="st23" points="701.2,768.5 701.1,768.6 701.2,768.6 701.3,768.6 701.3,768.5 				"/>
				<polygon class="st23" points="701.1,766.3 701.3,766.3 701.3,767.1 701,766.7 				"/>
				<path class="st23" d="M698.3,769l-0.4-1.8c0,0,0.4-0.8,3.2-0.8v2.7L698.3,769L698.3,769z"/>
				<path class="st23" d="M704.1,769l0.4-1.8c0,0-0.4-0.8-3.2-0.8v2.7L704.1,769L704.1,769z"/>
				<path class="st24" d="M698.2,769.6h-0.6c0,0,0.2,1.1,1.1,1.7c0.9,0.6,0.4,0.4,2.5,0v-1.6L698.2,769.6z"/>
				<path class="st24" d="M704.2,769.6h0.6c0,0-0.2,1.1-1.1,1.7s-0.4,0.4-2.5,0v-1.6L704.2,769.6z"/>
				<path class="st25" d="M698.2,769.8c0,0-0.3-1.5,0.8-1.5l0.9,0.6l-0.3,0.4l-1.1,0.5H698.2z"/>
				<path class="st25" d="M704.2,769.8c0,0,0.3-1.5-0.8-1.5l-0.9,0.6l0.3,0.4l1.1,0.5H704.2z"/>
				<polygon class="st24" points="701.2,766.9 701.1,767.7 701.1,767.7 701.3,767.7 701.3,767.4 				"/>
				<polygon class="st24" points="701.2,767.6 701.2,766.9 700.9,766.9 701,767.7 				"/>
				<polygon class="st24" points="701.2,767.6 701.2,766.9 701.4,766.9 701.4,767.7 				"/>
				<path class="st23" d="M698.7,769.8H698c0,0,0.6,1.4,1.5,1.6s0.5-0.4,1.8-0.4v-1.3L698.7,769.8z"/>
				<path class="st23" d="M703.7,769.8h0.8c0,0-0.6,1.4-1.5,1.6c-0.9,0.2-0.5-0.4-1.8-0.4v-1.3L703.7,769.8z"/>
				<path class="st26" d="M701.1,767.5c0,0-0.3,0-0.6-0.2s-0.6-0.7-0.9-0.8s-0.3,0.1-0.3,0.1s-0.5,0.1-0.6,0.5
					c-0.1,0.4-0.2,0.5-0.4,0.3s-0.6-0.6-0.7-0.2c0,0,0.4,0.2,0.6,0.4c0.1,0.2,0.6,0,0.6-0.1s0.2-0.6,0.6-0.7
					C699.9,766.8,700.4,767.9,701.1,767.5z"/>
				<path class="st26" d="M701.3,767.5c0,0,0.3,0,0.6-0.2s0.6-0.7,0.9-0.8c0.4,0,0.3,0.1,0.3,0.1s0.5,0.1,0.6,0.5s0.2,0.5,0.4,0.3
					c0.2-0.2,0.6-0.6,0.7-0.2c0,0-0.4,0.2-0.6,0.4c-0.1,0.2-0.6,0-0.6-0.1s-0.2-0.6-0.6-0.7C702.5,766.8,702,767.9,701.3,767.5z"/>
				<path class="st27" d="M700.6,768c0,0-1-1.1-1.2-0.3l0.4,0.1L700.6,768z"/>
				<path class="st28" d="M700.6,768c0,0-0.8-0.9-1.2-0.3c-0.4,0.6,0.2,0.9,0.2,0.9S700.1,768.2,700.6,768z"/>
				<ellipse class="st29" cx="699.9" cy="768" rx="0.3" ry="0.3"/>
				<g>
					<path class="st27" d="M701.7,768c0,0,1-1.1,1.2-0.3l-0.4,0.1L701.7,768z"/>
					<path class="st28" d="M701.7,768c0,0,0.8-0.9,1.2-0.3c0.4,0.6-0.2,0.9-0.2,0.9S702.3,768.2,701.7,768z"/>
					<ellipse class="st29" cx="702.5" cy="768" rx="0.3" ry="0.3"/>
				</g>
				<path class="st30" d="M701.2,770.1v0.2c0,0-0.3-0.4-0.9,0c-0.5,0.4-1.2,0.5-1.7,0.1c-0.4-0.5-0.7-1.7,0.7-1.4
					c1.4,0.3,1.8,0.8,1.8,0.8L701.2,770.1z"/>
				<path class="st30" d="M701.2,770.1v0.2c0,0,0.3-0.4,0.9,0c0.5,0.4,1.2,0.5,1.7,0.1c0.4-0.5,0.7-1.7-0.7-1.4s-1.8,0.8-1.8,0.8
					L701.2,770.1z"/>
				<path class="st17" d="M701.2,770.1V769c0,0-1.7-0.1-2-0.1s-0.9,0-0.7,0.8c0.2,0.8,1,0.8,1.7,0.4
					C700.8,769.7,701.2,770.1,701.2,770.1z"/>
				<path class="st17" d="M701.2,770.1V769c0,0,1.7-0.1,2-0.1s0.9,0,0.7,0.8c-0.2,0.8-1,0.8-1.7,0.4
					C701.5,769.7,701.2,770.1,701.2,770.1z"/>
				<path class="st20" d="M701.2,768.6v0.4l-1.4-0.2c0,0,0-0.4,0.3-0.3C700.4,768.6,700.9,768.7,701.2,768.6z"/>
				<path class="st20" d="M701.2,769.5v-0.4h-1.3c0,0-0.3,0.1-0.5,0.1c-0.2,0-0.4,0.2-0.3,0.6c0.1,0.4,0.6,0.3,0.9,0.2
					s0.2-0.5,0.3-0.5C700.4,769.5,701.2,769.5,701.2,769.5z"/>
				<path class="st20" d="M701.2,768.6v0.4l1.4-0.2c0,0,0-0.4-0.3-0.3C702,768.6,701.5,768.7,701.2,768.6z"/>
				<path class="st20" d="M701.2,769.5v-0.4h1.3c0,0,0.3,0.1,0.5,0.1c0.2,0,0.4,0.2,0.3,0.6c-0.1,0.4-0.6,0.3-0.9,0.2
					c-0.3-0.2-0.2-0.5-0.3-0.5C702,769.5,701.2,769.5,701.2,769.5z"/>
				<path class="st27" d="M702.8,769.2l-0.4-0.1h-1.2H700l-0.4,0.1c-0.5,0-0.5,0.2-0.5,0.4c0,0.3,0.6,0.3,0.8,0.2
					c0.2-0.1,0.3-0.5,0.5-0.5c0.2-0.1,0.9,0.1,0.9,0.1s0.6-0.1,0.9-0.1c0.2,0.1,0.3,0.4,0.5,0.5c0.2,0.1,0.8,0.1,0.8-0.2
					C703.3,769.4,703.2,769.2,702.8,769.2z"/>
				<rect x="700.5" y="768.9" class="st31" width="1.4" height="0.3"/>
				<polygon class="st24" points="700.5,768.9 699.9,768.7 699.8,769.1 700.1,769.3 700.5,769.2 				"/>
				<path class="st31" d="M699.5,767.5c0,0-1.3,0.7,0.3,1.5l0.2-0.3C699.9,768.7,699,768.5,699.5,767.5z"/>
				<polygon class="st24" points="701.9,768.9 702.4,768.7 702.6,769.1 702.2,769.3 701.9,769.2 				"/>
				<path class="st31" d="M702.9,767.5c0,0,1.3,0.7-0.3,1.5l-0.2-0.3C702.4,768.7,703.3,768.5,702.9,767.5z"/>
				<polygon class="st30" points="701.2,770.1 701.2,770.1 701.2,770.2 701.2,770.3 701.2,770.3 701.2,770.2 				"/>
				<ellipse class="st15" cx="701.2" cy="768.1" rx="0.5" ry="0.5"/>
			</g>
			<polygon class="st16" points="701.2,764.2 701.2,750.3 700.3,764.2 			"/>
			<polygon class="st16" points="701.2,764.2 701.2,750.3 702,764.2 			"/>
			<polygon class="st16" points="700.3,764.2 702,764.2 701.2,750.3 			"/>
			<polygon class="st16" points="742.9,834.3 731,846.9 701.2,846.9 701.1,846.9 671.3,846.9 659.4,834.3 656.9,833.3 659,841 
				660.1,849.5 671.3,855.6 677,862.1 688.8,858.1 701.1,863.9 701.1,863.9 701.2,863.9 701.2,863.9 713.6,858.1 725.3,862.1 
				731,855.6 742.2,849.5 743.4,841 745.5,833.3 			"/>
			<polygon class="st18" points="669.9,859.5 669.9,863.5 672.3,874.6 648.3,872 652.2,869 653.9,859.5 			"/>
			<polygon class="st16" points="653.9,859.5 653.7,860.8 669.9,860.8 669.9,859.5 			"/>
			<polygon class="st18" points="732.4,859.4 732.4,863.5 730.1,874.6 754.1,872 750.1,869 748.4,859.4 			"/>
			<polygon class="st16" points="748.4,859.4 748.7,860.8 732.4,860.8 732.4,859.4 			"/>
			<polygon class="st17" points="687.5,879 673.8,882.9 672.3,874.6 671,868.8 			"/>
			<polygon class="st17" points="714.9,879 728.5,882.9 730.1,874.6 731.3,868.8 			"/>
			<polygon class="st15" points="652.5,872.5 646.5,904 671,891 673.8,882.9 672.3,874.6 			"/>
			<polygon class="st23" points="695.8,900.4 660.1,912 652.6,912 646.5,908.1 646.5,904 654.7,896.3 671,891 689.6,886 			"/>
			<polygon class="st23" points="706.5,900.4 742.2,912 749.7,912 755.9,908.1 755.9,904 747.6,896.3 731.3,891 712.8,886 			"/>
			<polygon class="st16" points="701.2,919.1 665.8,919.1 689.6,921.7 681.2,936.5 665.8,938.8 656.9,940.3 651.8,943.9 
				660.2,942.8 672.3,945.4 684.9,942 692.9,933.8 696.8,921.5 701.2,921.5 			"/>
			<polygon class="st16" points="701.2,919.1 736.5,919.1 712.8,921.7 721.2,936.5 736.5,938.8 745.5,940.3 750.5,943.9 
				742.1,942.8 730.2,945.4 717.4,942 709.5,933.8 705.6,921.5 701.2,921.5 			"/>
			<polyline class="st18" points="696.4,876 695.5,874.2 697.1,871.5 701.2,871.5 701.2,876 696.4,876 			"/>
			<polyline class="st18" points="706,876 706.9,874.2 705.3,871.5 701.2,871.5 701.2,876 706,876 			"/>
			<polygon class="st32" points="697.1,871.5 701.2,870.6 701.2,871.5 			"/>
			<polygon class="st32" points="705.3,871.5 701.2,870.6 701.2,871.5 			"/>
			<polygon class="st32" points="696.4,879.7 696.4,876 706,876 706,1014.9 698.5,1014.9 			"/>
			<polygon class="st15" points="707.2,898.7 700.6,896.6 697.8,893.9 710.7,890.8 			"/>
			<polygon class="st23" points="710.7,890.8 706.5,900.4 709.6,901.4 712.3,894.4 			"/>
			<polygon class="st15" points="697.5,897.1 712,890.5 713.2,889.7 706.9,888.6 695.8,891 694.9,896.3 			"/>
			<polygon class="st20" points="673.8,882.9 687.5,879 696.4,879 696.4,880 687.5,880.1 673.8,884.1 			"/>
			<polygon class="st20" points="728.5,882.9 714.9,879 706,879 706,880 714.9,880.1 728.5,884.1 			"/>
			<polygon class="st20" points="648.3,872 652.2,869 671.4,870.6 672.3,874.6 			"/>
			<polygon class="st20" points="754.1,872 750.1,869 730.9,870.6 730.1,874.6 			"/>
			<polygon class="st15" points="669.9,863.5 653.2,863.5 652.9,865.2 670.3,865.2 			"/>
			<polygon class="st15" points="732.4,863.5 749.2,863.5 749.5,865.2 732,865.2 			"/>
			<polygon class="st18" points="701.3,846.9 671.3,846.9 659.4,834.3 658.3,833.9 660.2,840.8 661.6,849.5 671.7,854.7 
				677.2,860.9 688.9,857.2 701.2,862.9 			"/>
			<polygon class="st18" points="701.1,846.9 731,846.9 742.9,834.3 744,833.9 742.1,840.8 740.8,849.5 730.7,854.7 725.2,860.9 
				713.5,857.2 701.1,862.9 			"/>
			<polygon class="st16" points="673.8,886 687.5,882 696.2,882 694.2,883.2 687.5,883.2 673.8,887.3 			"/>
			<polygon class="st16" points="673.8,888.6 687.5,884.6 696.2,884.6 694.2,885.9 687.5,885.9 673.8,889.9 			"/>
			<polygon class="st15" points="689.6,886 700,879.7 709.2,879.4 713.7,881.8 713.4,883.5 714.9,884.8 714.5,886 713.9,886.3 
				713.9,887.7 713.3,888.2 713.2,889.7 712,890.5 702.5,892.8 697.2,894 697.2,896.3 697.5,897.1 695.2,899 			"/>
			<polygon class="st16" points="652.2,873.8 672.6,876 672.9,877.8 651.9,875.4 			"/>
			<polygon class="st16" points="651.5,877.3 673.3,879.8 673.5,881.6 651.2,879.3 			"/>
			<polygon class="st16" points="650.8,881.3 673.6,883.5 673.1,885.2 650.4,883.2 			"/>
		</g>
		<rect x="613.7" y="1014.7" class="st16" width="175" height="10.8"/>
	</g>
	<g>
		<g>
			<rect x="891.5" y="873.4" class="st33" width="3.2" height="114.6"/>
			<polygon class="st33" points="893.1,1025.4 893.1,972.9 889.2,972.9 885.5,1025.4 			"/>
			<polygon class="st33" points="892.9,1025.4 892.9,972.9 896.7,972.9 900.6,1025.4 			"/>
			<rect x="859.8" y="854.5" class="st33" width="66.7" height="18.9"/>
			<rect x="861.5" y="855.7" class="st34" width="63.3" height="16.6"/>
			<rect x="859.8" y="851.4" class="st33" width="1.7" height="25.2"/>
			<rect x="924.8" y="852" class="st33" width="1.7" height="25.2"/>
			<polygon class="st33" points="893.1,854.5 893.1,849.5 891.5,849.5 886.9,854.5 			"/>
			<polygon class="st33" points="893.1,854.5 893.1,849.5 894.7,849.5 899.4,854.5 			"/>
			<polygon class="st33" points="891.5,849.5 893.1,842.1 893.1,849.5 			"/>
			<polygon class="st33" points="894.7,849.5 893.1,842.1 893.1,849.5 			"/>
		</g>
		<g>
			<g>
				<path class="st35" d="M869.7,866.6h-0.6c-0.5,0-0.8,0-1,0s-0.3,0-0.4,0c-0.2,0-0.4,0-0.5-0.1s-0.2-0.2-0.2-0.3s0-0.1,0.1-0.2
					c0.1-0.1,0.1-0.1,0.3-0.2c0.1,0,0.2-0.1,0.2-0.3c0-0.1,0.1-0.3,0.1-0.7c0.1-0.6,0.1-1.3,0.1-2.1c0-0.3,0-0.5-0.1-0.6
					c0-0.1-0.2-0.2-0.3-0.3c-0.2-0.1-0.3-0.2-0.3-0.3s0.1-0.2,0.2-0.3s0.3-0.1,0.5-0.1c0.1,0,0.2,0,0.4,0c0.3,0,0.6,0,0.9,0
					c0.2,0,0.7,0,1.4,0c0.2,0,0.4,0,0.6,0c0.4,0,0.8,0,1,0.1c0.3,0.1,0.5,0.2,0.7,0.3c0.3,0.2,0.5,0.5,0.5,0.9c0,0.2,0,0.4-0.1,0.5
					c-0.1,0.2-0.2,0.3-0.4,0.4c-0.1,0.1-0.2,0.1-0.2,0.2c0,0.1,0.1,0.1,0.2,0.2c0.3,0.1,0.5,0.2,0.7,0.4s0.3,0.5,0.3,0.8
					c0,0.4-0.2,0.7-0.5,1c-0.4,0.4-1.1,0.6-2,0.6c-0.1,0-0.4,0-0.9,0C870.1,866.7,869.8,866.7,869.7,866.6z M870.1,862.4v0.8
					c0,0.1,0,0.2,0.1,0.3c0,0,0.1,0.1,0.2,0.1c0.2,0,0.4-0.1,0.5-0.2c0.1-0.1,0.2-0.3,0.2-0.6s-0.1-0.4-0.2-0.6
					c-0.1-0.1-0.3-0.2-0.5-0.2c-0.1,0-0.2,0-0.2,0.1C870.1,862.2,870.1,862.3,870.1,862.4z M870.1,864.6v0.4c0,0.3,0,0.6,0.1,0.7
					s0.2,0.2,0.4,0.2c0.5,0,0.7-0.2,0.7-0.7c0-0.6-0.3-0.9-0.8-0.9c-0.1,0-0.2,0-0.3,0.1C870.1,864.4,870.1,864.5,870.1,864.6z"/>
				<path class="st35" d="M880.1,863.9l0.9,1.6c0.1,0.2,0.2,0.2,0.2,0.3s0.1,0.1,0.3,0.1s0.3,0.1,0.3,0.3s-0.1,0.3-0.4,0.4
					c-0.3,0.1-0.7,0.1-1.4,0.1s-1.3,0-1.6-0.1c-0.2,0-0.3-0.1-0.4-0.1c-0.1-0.1-0.1-0.2-0.1-0.3s0-0.1,0.1-0.2c0,0,0.1-0.1,0.3-0.1
					c0.1,0,0.2-0.1,0.2-0.2c0-0.2-0.1-0.3-0.4-0.3c-0.3,0-0.7,0-1.2,0c-0.4,0-0.7,0-0.8,0.1l-0.1,0.1c0,0.1-0.1,0.1-0.1,0.2
					c0,0.1,0,0.1,0,0.1s0.1,0,0.3,0.1c0.2,0,0.3,0.1,0.3,0.3c0,0.3-0.5,0.5-1.4,0.5c-0.5,0-0.9,0-1.1-0.1c-0.2,0-0.3-0.2-0.3-0.4
					c0-0.1,0-0.1,0.1-0.2c0,0,0.1-0.1,0.3-0.1c0.2-0.1,0.4-0.1,0.5-0.3c0.1-0.1,0.3-0.3,0.5-0.7l0.7-1.2c0.2-0.5,0.4-0.8,0.5-1
					s0.1-0.4,0.1-0.7c0-0.2,0-0.4,0-0.5s0.1-0.2,0.2-0.3c0.2-0.2,0.5-0.3,0.8-0.3s0.6,0.1,0.9,0.3
					C878.8,861.8,879.3,862.6,880.1,863.9z M876.9,864.4h0.9c0.2,0,0.3,0,0.3-0.1s-0.1-0.3-0.4-0.6c-0.1-0.2-0.2-0.3-0.3-0.3
					s-0.1-0.1-0.2-0.1c-0.1,0-0.2,0.1-0.3,0.3c0,0-0.1,0.1-0.1,0.3c-0.1,0.3-0.2,0.4-0.2,0.5C876.7,864.4,876.7,864.4,876.9,864.4z"
					/>
				<path class="st35" d="M884.7,861.5l2.4,1.7c0.2,0.2,0.4,0.2,0.5,0.2c0.2,0,0.2-0.2,0.2-0.4c0-0.3,0-0.6-0.1-0.7
					c0-0.1-0.1-0.2-0.3-0.3c-0.1,0-0.2-0.1-0.3-0.2c0-0.1-0.1-0.1-0.1-0.2c0-0.2,0.2-0.4,0.5-0.4c0.1,0,0.4,0,0.8,0
					c0.5,0,0.8,0,1,0.1c0.3,0.1,0.4,0.2,0.4,0.4s-0.1,0.3-0.4,0.4c-0.1,0-0.2,0.1-0.2,0.1l-0.1,0.1c-0.1,0.2-0.1,0.5-0.1,1v1.3
					c0,0.2,0,0.5,0,0.8c0,0.5,0,0.8-0.1,1c-0.1,0.3-0.2,0.4-0.5,0.4c-0.1,0-0.2,0-0.3,0c-0.1,0-0.2-0.1-0.4-0.2l-2.8-2.1
					c-0.2-0.2-0.4-0.2-0.5-0.2c-0.2,0-0.3,0.2-0.3,0.7c0,0.4,0,0.6,0.1,0.8c0,0.1,0.1,0.2,0.3,0.3c0.2,0.1,0.3,0.2,0.3,0.3
					c0,0.4-0.5,0.5-1.4,0.5c-0.4,0-0.8,0-1-0.1c-0.2-0.1-0.4-0.2-0.4-0.4c0-0.1,0-0.2,0.1-0.2c0,0,0.1-0.1,0.3-0.2
					c0.1-0.1,0.2-0.2,0.3-0.4c0-0.3,0.1-0.8,0.1-1.5s0-1.2-0.1-1.5c0-0.1-0.1-0.2-0.1-0.3c0,0-0.1-0.1-0.3-0.2
					c-0.1-0.1-0.2-0.1-0.3-0.2c-0.1-0.1-0.1-0.1-0.1-0.2c0-0.3,0.3-0.4,0.8-0.5c0.2,0,0.5,0,0.9,0c0.3,0,0.4,0,0.6,0
					C884.4,861.3,884.5,861.4,884.7,861.5z"/>
				<path class="st35" d="M893.6,861.2c0.4,0,0.8,0,1.2,0.2c0.2,0,0.3,0.1,0.3,0.1c0.1,0,0.2,0,0.4-0.1c0.1,0,0.1,0,0.2,0
					c0.2,0,0.4,0.1,0.5,0.3c0.3,0.3,0.4,0.6,0.4,0.9c0,0.2-0.1,0.4-0.2,0.5s-0.3,0.2-0.5,0.2c-0.2,0-0.4,0-0.5-0.2
					c0,0-0.2-0.2-0.4-0.4c-0.4-0.3-0.8-0.5-1.2-0.5c-0.4,0-0.7,0.1-1,0.4s-0.4,0.6-0.4,1c0,0.6,0.2,1.2,0.6,1.6
					c0.1,0.2,0.3,0.3,0.5,0.4c0.2,0.1,0.4,0.1,0.6,0.1c0.2,0,0.3,0,0.4-0.1c0.1-0.1,0.2-0.2,0.2-0.3s0-0.2-0.1-0.3h-0.1
					c0,0-0.1,0-0.3,0c-0.1,0-0.3,0-0.3-0.1s-0.1-0.2-0.1-0.3c0-0.2,0.2-0.4,0.5-0.5c0.4-0.1,0.8-0.2,1.3-0.2c0.5,0,1,0,1.4,0.1
					c0.4,0.1,0.5,0.3,0.5,0.5c0,0.1,0,0.2-0.1,0.3s-0.2,0.1-0.3,0.1s-0.2,0-0.2,0.1c0,0-0.1,0.1-0.1,0.2c-0.1,0.4-0.4,0.8-0.8,1
					c-0.3,0.2-0.6,0.3-1,0.5c-0.4,0.1-0.8,0.2-1.2,0.2c-0.7,0-1.3-0.1-1.9-0.4c-0.6-0.3-1.1-0.7-1.4-1.1c-0.3-0.4-0.4-0.8-0.4-1.3
					s0.2-0.9,0.5-1.3c0.3-0.5,0.8-0.8,1.4-1.1C892.4,861.3,893,861.2,893.6,861.2z"/>
				<path class="st35" d="M903.2,862.4l-0.5,0.4c-0.2,0.2-0.3,0.3-0.3,0.4c0,0.1,0,0.1,0.1,0.2c0,0.1,0.1,0.2,0.2,0.3l1.8,1.7
					c0.2,0.2,0.3,0.3,0.3,0.3c0.1,0,0.1,0.1,0.3,0.1c0.2,0.1,0.3,0.1,0.4,0.2c0.1,0.1,0.1,0.2,0.1,0.3c0,0.3-0.2,0.4-0.7,0.4h-1.8
					c-0.1,0-0.2,0-0.3-0.1c-0.1-0.1-0.2-0.2-0.3-0.3c-0.2-0.3-0.6-0.6-1-1c-0.2-0.2-0.3-0.3-0.4-0.3c-0.1,0-0.1-0.1-0.2-0.1
					c-0.2,0-0.3,0.1-0.3,0.4c0,0.2,0.1,0.4,0.2,0.5c0,0,0.1,0,0.2,0.1c0.2,0.1,0.3,0.2,0.3,0.3c0,0.2-0.1,0.3-0.4,0.4
					c-0.3,0.1-0.8,0.1-1.4,0.1c-0.6,0-1,0-1.3-0.1c-0.1,0-0.2-0.1-0.3-0.1c-0.1,0-0.1-0.2-0.1-0.2c0-0.1,0.1-0.3,0.3-0.4
					c0.1,0,0.1-0.1,0.2-0.2c0-0.1,0.1-0.2,0.1-0.3c0.1-0.3,0.1-0.8,0.1-1.4c0-0.7,0-1.3-0.1-1.6c0-0.1-0.1-0.2-0.1-0.3
					c0,0-0.1-0.1-0.2-0.2c-0.2-0.1-0.3-0.2-0.3-0.3s0.1-0.2,0.2-0.3s0.3-0.1,0.5-0.2c0.3,0,0.7-0.1,1.2-0.1s0.9,0,1.1,0.1
					s0.3,0.2,0.3,0.4c0,0.1,0,0.1,0,0.2c0,0-0.1,0.1-0.3,0.2c0,0-0.1,0.1-0.1,0.3c0,0.1-0.1,0.3-0.1,0.4c0,0.2,0.1,0.3,0.2,0.3
					c0.1,0,0.1,0,0.2-0.1c0.1-0.1,0.2-0.2,0.4-0.4c0.2-0.2,0.4-0.4,0.4-0.5c0,0,0-0.1-0.1-0.2c0-0.1-0.1-0.1-0.1-0.2
					c0-0.2,0.1-0.3,0.4-0.4c0.3-0.1,0.7-0.1,1.3-0.1c0.5,0,0.9,0,1.1,0.1c0.3,0.1,0.4,0.2,0.4,0.4c0,0.1,0,0.2-0.1,0.2
					c-0.1,0.1-0.1,0.1-0.2,0.1c-0.1,0-0.2,0-0.5,0c-0.2,0-0.3,0-0.4,0C903.4,862.2,903.3,862.3,903.2,862.4z"/>
				<path class="st35" d="M909,861.2c0.8,0,1.5,0.2,2.1,0.6c0.4,0.3,0.8,0.6,1,1c0.3,0.4,0.4,0.8,0.4,1.3c0,0.6-0.2,1.2-0.7,1.7
					c-0.4,0.4-1,0.7-1.7,0.9c-0.4,0.1-0.8,0.2-1.3,0.2c-0.5,0-1.1-0.1-1.6-0.3c-0.6-0.2-1.1-0.6-1.4-1c-0.3-0.5-0.5-0.9-0.5-1.5
					s0.2-1.2,0.6-1.7c0.4-0.4,0.9-0.7,1.6-0.9C908,861.2,908.5,861.2,909,861.2z M908.5,862.3c-0.3,0-0.5,0.1-0.6,0.3
					c-0.1,0.2-0.2,0.3-0.2,0.5c0,0.3,0.1,0.6,0.2,1c0.1,0.4,0.3,0.7,0.6,1c0.1,0.1,0.2,0.2,0.4,0.3s0.3,0.1,0.4,0.1
					c0.2,0,0.4-0.1,0.6-0.2c0.1-0.2,0.2-0.3,0.2-0.6s-0.1-0.7-0.2-1c-0.1-0.4-0.3-0.7-0.5-0.9c-0.1-0.2-0.3-0.3-0.4-0.4
					C908.9,862.4,908.7,862.3,908.5,862.3z"/>
				<path class="st35" d="M918.4,862.4l-0.5,0.4c-0.2,0.2-0.3,0.3-0.3,0.4c0,0.1,0,0.1,0.1,0.2c0,0.1,0.1,0.2,0.2,0.3l1.8,1.7
					c0.2,0.2,0.3,0.3,0.3,0.3c0.1,0,0.1,0.1,0.3,0.1c0.2,0.1,0.3,0.1,0.4,0.2c0.1,0.1,0.1,0.2,0.1,0.3c0,0.3-0.2,0.4-0.7,0.4h-1.8
					c-0.1,0-0.2,0-0.3-0.1c-0.1,0-0.2-0.2-0.3-0.3c-0.2-0.3-0.6-0.6-1-1c-0.2-0.2-0.3-0.3-0.4-0.3s-0.1-0.1-0.2-0.1
					c-0.2,0-0.3,0.1-0.3,0.4c0,0.2,0.1,0.4,0.2,0.5c0,0,0.1,0,0.2,0.1c0.2,0.1,0.3,0.2,0.3,0.3c0,0.2-0.1,0.3-0.4,0.4
					s-0.8,0.1-1.4,0.1c-0.6,0-1,0-1.3-0.1c-0.1,0-0.2-0.1-0.3-0.1c-0.1,0-0.1-0.2-0.1-0.2c0-0.1,0.1-0.3,0.3-0.4
					c0.1,0,0.1-0.1,0.2-0.2c0-0.1,0.1-0.2,0.1-0.3c0.1-0.3,0.1-0.8,0.1-1.4c0-0.7,0-1.3-0.1-1.6c0-0.1-0.1-0.2-0.1-0.3
					c0,0-0.1-0.1-0.2-0.2c-0.2-0.1-0.3-0.2-0.3-0.3s0.1-0.2,0.2-0.3c0.1-0.1,0.3-0.1,0.5-0.2c0.3,0,0.7-0.1,1.2-0.1
					c0.5,0,0.9,0,1.1,0.1c0.2,0.1,0.3,0.2,0.3,0.4c0,0.1,0,0.1,0,0.2c0,0-0.1,0.1-0.3,0.2c0,0-0.1,0.1-0.1,0.3
					c0,0.1-0.1,0.3-0.1,0.4c0,0.2,0.1,0.3,0.2,0.3c0.1,0,0.1,0,0.2-0.1c0.1-0.1,0.2-0.2,0.4-0.4s0.4-0.4,0.4-0.5c0,0,0-0.1-0.1-0.2
					c0-0.1-0.1-0.1-0.1-0.2c0-0.2,0.1-0.3,0.4-0.4s0.7-0.1,1.3-0.1c0.5,0,0.9,0,1.1,0.1c0.3,0.1,0.4,0.2,0.4,0.4
					c0,0.1,0,0.2-0.1,0.2c-0.1,0.1-0.1,0.1-0.2,0.1c-0.1,0-0.2,0-0.5,0c-0.2,0-0.3,0-0.4,0C918.7,862.2,918.5,862.3,918.4,862.4z"/>
			</g>
		</g>
	</g>
	<g class="st36">
		
			<linearGradient id="SVGID_22_" gradientUnits="userSpaceOnUse" x1="728.6269" y1="687.35" x2="731.4691" y2="687.35" gradientTransform="matrix(1 0 0 1 0 200)">
			<stop  offset="0" style="stop-color:#FFCC7D"/>
			<stop  offset="1" style="stop-color:#FF6666"/>
		</linearGradient>
		<polygon class="st37" points="728.7,883.4 728.7,884.4 728.7,886.3 728.7,887.6 728.7,888.9 728.7,890.2 728.7,890.5 731.4,891.3 
			729,884.2 		"/>
		
			<linearGradient id="SVGID_23_" gradientUnits="userSpaceOnUse" x1="701.3098" y1="550.65" x2="701.3098" y2="550.65" gradientTransform="matrix(1 0 0 1 0 200)">
			<stop  offset="0" style="stop-color:#FFCC7D"/>
			<stop  offset="1" style="stop-color:#FF6666"/>
		</linearGradient>
		<polygon class="st38" points="701.3,750.6 701.3,750.6 701.3,750.7 		"/>
		
			<linearGradient id="SVGID_24_" gradientUnits="userSpaceOnUse" x1="671.1472" y1="687.25" x2="673.9878" y2="687.25" gradientTransform="matrix(1 0 0 1 0 200)">
			<stop  offset="0" style="stop-color:#FFCC7D"/>
			<stop  offset="1" style="stop-color:#FF6666"/>
		</linearGradient>
		<polygon class="st39" points="673.3,884.9 671.2,891.3 673.9,890.5 673.9,890.2 673.9,888.9 673.9,887.6 673.9,886.3 673.9,884.4 
			673.9,883.2 673.7,883.8 		"/>
		
			<linearGradient id="SVGID_25_" gradientUnits="userSpaceOnUse" x1="652.6016" y1="673.85" x2="672.3616" y2="673.85" gradientTransform="matrix(1 0 0 1 0 200)">
			<stop  offset="0" style="stop-color:#FFCC7D"/>
			<stop  offset="1" style="stop-color:#FF6666"/>
		</linearGradient>
		<polygon class="st40" points="652.6,872.8 652.6,872.8 672.4,874.9 		"/>
		
			<linearGradient id="SVGID_26_" gradientUnits="userSpaceOnUse" x1="612.983" y1="688.2" x2="701.3098" y2="688.2" gradientTransform="matrix(1 0 0 1 0 200)">
			<stop  offset="0" style="stop-color:#FFCC7D"/>
			<stop  offset="1" style="stop-color:#FF6666"/>
		</linearGradient>
		<path class="st41" d="M701.3,750.7L701.3,750.7L701.3,750.7l-0.8,13.8l-2.5,2l-0.2,0.5l0.3,0.5l0,0c-0.1-0.1-0.3-0.1-0.3,0.1
			c0,0,0.2,0.1,0.4,0.2v0.3l-0.4-0.2l-0.5-1.1l-0.5-0.1l0.1,0.3l0.1,1l0.3,0.6h-0.2l0.3,0.9l0.7,0.3l0.2-0.1c0,0.1,0,0.2,0,0.3l0,0
			h-0.6c0,0,0.2,1.1,1.1,1.7c0.2,0.2,0.3,0.2,0.5,0.3v2l-5.9,5l-0.6,1.2l0.7,1.1l0,0c-0.3-0.2-0.6-0.3-0.7,0.2c0,0,0.5,0.2,0.9,0.5
			l-0.1,0.9l-0.9-0.4l-1.3-2.7l-1.1-0.3l0.3,0.7l0.2,2.5l0.8,1.5l-0.5-0.1l0.8,2.3l1.7,0.6l0.6-0.3c0,0.3,0,0.5,0,0.7l0,0l-1.5-0.1
			c0,0,0.5,2.7,2.7,4.1c0.4,0.3,0.7,0.5,1,0.7v2.2l-15.1,12.2l-1.5,2.9l1.8,2.8c-0.8-0.5-1.6-0.7-1.8,0.5c0,0,1.1,0.5,2.2,1.3
			l-0.3,2.2l-2.3-1.1l-3.2-6.7l-2.9-0.7l0.8,1.7l0.5,6.2l2,3.7l-1.2-0.3l1.9,5.7l4.3,1.6l1.5-0.7c0,0.7,0,1.3,0,1.7l-3.8-0.2
			c0,0,1.4,6.7,6.6,10.4c1.5,1,2.3,1.7,3.1,2v7.5h-17.7l-11.9-12.5l-1.1-0.5l-1.4-0.6l2.1,7.7l1.2,8.5l0,0l-6.2,10l-0.3,1.4
			l-0.5,2.7l-0.3,1.5l-0.7,4l-3.9,3l4.2,0.5l0,0l19.8,2.1l-19.8-2.1l-0.3,1.8l-0.2,1.2l-5.4,28.6v4.1l6.2,3.8h7.5l9.8-3.2l-4.1,10.3
			l-21.5,30.6l-2.1,1.6l-11.3-1.6L624,953l-2.8-1.6H613l10.3,8h10l3,3.7l-4.9-1.1l-6.1,2h-5.3l-3.7,0.7l5.6,5l8.6,2.6l13.2,10.1
			l9.9,3l8.3,15.3l-1.8,1.6l1.8,1.6l-6.3,3l-5.1-0.1l-6.1-2.9h-3.7l-1.6,3.8l5.4,7.2h-30.9v10.8H701L701.3,750.7L701.3,750.7z
			 M671.2,869.1l0.4,1.8L671.2,869.1z M692.8,893.4l-0.9-2.1L692.8,893.4z M673.9,884.4v1.9v1.3v1.3v1.3v0.3l-2.9,0.8l2.3-6.3
			l0.4-1.2l0.2-0.6V884.4z M684.9,1015l7.2-3l-1.4-4.8l-1.7-1.9l-0.4-3.6l0.9-1.9l-2.4-1l-4.5-16.5l1.1-0.3l-0.3-0.9l5.4-3.9l0,0
			l0,0l5.9-4.3l3.4-2.9l0.7,45.1L684.9,1015L684.9,1015z"/>
	</g>
	
		<linearGradient id="SVGID_27_" gradientUnits="userSpaceOnUse" x1="859.735" y1="733.75" x2="893.1044" y2="733.75" gradientTransform="matrix(1 0 0 1 0 200)">
		<stop  offset="0" style="stop-color:#FFCC7D"/>
		<stop  offset="1" style="stop-color:#FF6666"/>
	</linearGradient>
	<polygon class="st42" points="891.5,849.5 886.9,854.5 861.5,854.5 861.5,851.4 859.8,851.4 859.8,854.5 859.8,873.4 859.8,876.6 
		861.5,876.6 861.5,873.4 891.5,873.4 891.5,972.9 889.2,972.9 885.5,1025.4 892.9,1025.4 893.1,1025.4 893.1,842.1 	"/>
	<path class="st14" d="M-26.4,843.1h-136.2c47.6-24,36.8-59,27.2-74c-1.8-3.1-4.1-4-6.7-6.7c-0.2-0.2-0.3-0.2-0.3-0.2
		c-6.3-6.2-14.8-11.1-24.7-14.3c-1.3-0.5-2.5-0.5-3.7-0.7c-6.6-1.8-13.7-2-21.1-2h-9.9v85h9.9c1.6,0,3.1-1,4.5-1.1
		c-4.8,3-9.8,5.4-14.4,7.3v63.8h175.4c20.7,0,37.6-13.8,37.6-28.5C11.2,856.9-5.7,843.1-26.4,843.1z"/>
	<g>
		<g>
			<path class="st43" d="M1260.3,951.9c-4.6-4.5,9.3-58.6,9.3-58.6l4.1,1.2c0.3-3.5,0.6-5.7,0.6-5.7c32.3-9,57.8-27,57.8-27
				l-4.6-6.8c-9.3,9-62.4,27-62.4,27s2.3,40.6-20.8,54.1s-50.9-18-50.9-18l-6.9,11.3c0,0,32.3,18,50.9,33.8
				c18.5,15.8-0.7,60.9-0.7,60.9l18.1,0.2C1260.4,1009.5,1264.7,956.1,1260.3,951.9z"/>
			<path class="st43" d="M1283.4,958.7c11,0,33.3-16.2,46.4-26.5l4.9-13.6l-0.5-0.5c-13.8,15.8-59.8,28-62.4,20.3
				c-1.8-5.2,0.6-32,1.7-43.9l-4.1-1.2c0,0-13.8,54.1-9.3,58.6c4.2,4.2,0.1,57.6-5.7,72.4l34.7,0.4
				C1272,1009.6,1283.4,958.7,1283.4,958.7z"/>
			<path class="st44" d="M1322.2,888.4c0,0,11.8-1.3,18.1-4.8h24.3l-18.7-24.5c0-10.9-16.7-10.9-16.7-10.9s0-10.9-13.9-13.6
				c-13.9-2.7-16.7,8.2-16.7,8.2s2.8-21.7-22.3-21.7s-16.7,27.2-16.7,27.2s-2.8-8.2-16.7-5.4c-13.9,2.7-5.5,19-5.5,19
				c-23.7,0-17.5,19.4-16.8,21.5c-0.4,3,0.7,6.6,6.1,9.8c9.5,5.6,24.9-4.7,31.3-9.6h8.8c5.6,2.1,14.6,4.8,23.6,4.8
				c9,0,13.4-2.7,15.5-4.8h6.6L1322.2,888.4z"/>
			<path class="st45" d="M1360.4,875.2c3.1-2.7,3.1-8.2-1.7-10.9c-4.8-2.7-10.7,2.7-10.7,2.7s6.2-19-12.3-21.7
				c-18.6-2.7-21.6,13.6-21.6,13.6s-3.1-5.4-9.3-2.7c-6.2,2.7-3.1,8.2-3.1,8.2c-3.1-5.4-9.3-5.4-9.3-5.4
				c-15.5-2.7-15.5,16.3-15.5,16.3c-8.6-1.5-13.3,2.8-15.9,7c-1.7,1.2-2.8,3-2.4,5.5c-0.2,0.7-0.3,1.2-0.3,1.2h0.5
				c2.5,8.7,43.4,7.5,58.9,0h7.6c4.6,2.7,12.5,6.4,18,4.8c4.3-1.3,7.9-3.2,10.4-4.8h10c0,0,12.3,0,12.3-2.7
				C1376.4,874.9,1360.4,875.2,1360.4,875.2z"/>
			<path class="st44" d="M1223.5,927.9c0.2-5.9-7.3-5.7-7.3-5.7c1.5-1.4,1.5-4.3-0.8-5.7c-2.3-1.4-5,1.4-5,1.4s3-10-5.9-11.5
				c-8.8-1.4-10.3,7.2-10.3,7.2s-1.5-2.9-4.4-1.4c-3,1.4-1.5,4.3-1.5,4.3c-1.5-2.9-4.4-2.9-4.4-2.9c-7.3-1.4-7.3,8.6-7.3,8.6
				c-5.9-1.2-8,4.1-8.6,6.3c-0.1,0.3-0.2,0.6-0.2,0.9c0,3.6,13,1.8,13,0c0,0,9.3,3.6,14.9,1.8l5.6-1.8h8.1c1.6,0.9,4,1.8,6.7,1.8
				c5.6,0,7.1-2.7,7.1-2.7C1223.3,928.3,1223.5,928.1,1223.5,927.9z"/>
			<path class="st44" d="M1371.4,927.6c0.3-7.3-9.1-7.1-9.1-7.1c1.8-1.8,1.8-5.3-1-7.1c-2.9-1.8-6.3,1.8-6.3,1.8s3.7-12.5-7.3-14.3
				c-11-1.8-12.7,8.9-12.7,8.9s-1.8-3.6-5.4-1.8s-1.8,5.3-1.8,5.3c-1.8-3.6-5.4-3.6-5.4-3.6c-9.1-1.8-9.1,10.7-9.1,10.7
				c-9.1-1.8-11,8.9-11,8.9s0,6.8,11.6,4.5c11.6-2.3,11.8-4.5,11.8-4.5s6.7,6.8,13.6,4.5c6.9-2.3,10.4-4.5,10.4-4.5
				s8.1,6.8,15.1,4.5c4.9-1.6,6.3-4.4,6.7-5.8C1371.3,927.9,1371.4,927.7,1371.4,927.6z"/>
		</g>
		
			<linearGradient id="SVGID_28_" gradientUnits="userSpaceOnUse" x1="-5231.1938" y1="758.7" x2="-5147.6353" y2="758.7" gradientTransform="matrix(1 0 0 1 6484.2744 200)">
			<stop  offset="3.409785e-07" style="stop-color:#747C9D"/>
			<stop  offset="0.5862" style="stop-color:#9280AA"/>
			<stop  offset="1" style="stop-color:#AA84B4"/>
		</linearGradient>
		<path class="st46" d="M1283.4,958.4c11,0,33.3-16.2,46.4-26.5l4.9-13.6l-0.5-0.5c-13.8,15.8-59.8,28-62.4,20.3
			c-1.8-5.2,0.6-32,1.7-43.9l-4.1-1.2c0,0-13.8,54.1-9.3,58.6c4.2,4.2,0.1,57.6-5.7,72.4l34.7,0.4
			C1272,1009.3,1283.4,958.4,1283.4,958.4z"/>
	</g>
	<path class="st43" d="M-141.4,1024.5c-0.1,0.1-0.2,0.2-0.2,0.2l34.7-0.4c0-0.1-0.1-0.2-0.1-0.2L-141.4,1024.5z"/>
	<path class="st47" d="M129.8,601.2H-29.7c0,0-9.3,3-9.3,8.9s11.5,6.5,11.5,6.5h91.6c0,0,11.5,1.8,12.8,8.3
		c1.5,6.5-12.2,7.7-12.2,7.7H-84.8c0,0-14.3,0.6-14.3,13c0,12.5,17.2,11.3,17.2,11.3h80.8c0,0,10.8,0,10.8,8.3s-10.8,6.5-10.8,6.5
		h-73.7c0,0-10,2.4-8.6,10.1c1.5,7.7,9.3,7.7,9.3,7.7h279.8h52.1c0,0,16.4,2.4,16.4-6.5s-17.9-7.1-17.9-7.1h-79.4
		c0,0-11.5,0.6-11.5-6.5s11.5-6.5,11.5-6.5h46.5h26.5c0,0,10.8-1.2,10.8-10.7s-13.6-10.1-13.6-10.1h-70.8c0,0-7.9,1.2-7.9-7.1
		s14.3-5.9,14.3-5.9H224c0,0,20.1,1.2,20.1-16.6c0,0,1.5-11.3-22.1-11.3C198.4,601.2,129.8,601.2,129.8,601.2z"/>
	<path class="st9" d="M1358.1,558.2h-50.2h-26h-12.5c-8.7,0-15.8-4.8-15.8-10.7s7.1-10.7,15.8-10.7h13h25.4h26.8
		c6.8,0,12.3-3.8,12.3-8.4s-5.5-8.4-12.3-8.4h-345c-6.8,0-12.3,3.8-12.3,8.4s5.5,8.4,12.3,8.4h63.9h28.2h10.3
		c8.7,0,15.8,4.8,15.8,10.7s-7.1,10.7-15.8,10.7h-9.8h-28.5H950c-7.6,0-13.7,4.2-13.7,9.3s6.2,9.3,13.7,9.3h408.1
		c7.6,0,13.7-4.2,13.7-9.3S1365.6,558.2,1358.1,558.2z"/>
	<polygon class="st48" points="2114.8,997.9 2090.1,1023.6 2114.8,1023.5 	"/>
	
		<linearGradient id="SVGID_29_" gradientUnits="userSpaceOnUse" x1="2299.1045" y1="1207.4655" x2="2060.1362" y2="793.5604" gradientTransform="matrix(1 0 0 1 0 200)">
		<stop  offset="1.385225e-07" style="stop-color:#F4879C"/>
		<stop  offset="0.1631" style="stop-color:#F58C9E"/>
		<stop  offset="0.3546" style="stop-color:#F69AA4"/>
		<stop  offset="0.5596" style="stop-color:#F9B2AE"/>
		<stop  offset="0.6129" style="stop-color:#FAB9B1"/>
		<stop  offset="1" style="stop-color:#FFDDBF"/>
	</linearGradient>
	<path class="st49" d="M2114.8,968.9c-4.5-0.9-7-1.5-7-1.5l-99.4,56l106.4,0.3V968.9z"/>
	<g>
		<g>
			<path class="st43" d="M2114.8,894.2c-2.3-0.7-56.8-16.5-66.4-24.5l-4.9,6.1c0,0,27.1,16.3,61.6,24.5c0,0,0.3,2,0.6,5.2l4.3-1.1
				c0,0,2.4,7.8,4.8,17.4V894.2z"/>
			<path class="st43" d="M2089,1023.5l25.8-0.3V921.8c-2.5-9.6-4.8-17.3-4.8-17.3l-4.3,1.1c1.3,10.8,3.8,35,1.9,39.7
				c-2.8,7-51.8-4.1-66.5-18.4l-0.5,0.4l5.2,12.3c14,9.4,37.7,24,49.5,24C2095.2,963.7,2107.5,1009.8,2089,1023.5z"/>
			<path class="st44" d="M2114.8,841.6c-2.9-1.5-6.7-2.5-11.9-2.5c-26.7,0-23.7,19.7-23.7,19.7s-3-9.8-17.8-7.4
				c-14.8,2.5-14.8,12.3-14.8,12.3s-17.8,0-17.8,9.8l-19.9,22.2h25.9c6.7,3.2,19.3,4.3,19.3,4.3l10.5-4.3h7
				c2.2,1.9,6.9,4.3,16.5,4.3s19.2-2.4,25.2-4.3h1.7v-54.1H2114.8z"/>
			<path class="st45" d="M2114.8,890.2c-3-1.9-7-3-12.5-2.2c0,0,0-17.2-16.5-14.8c0,0-6.6,0-9.9,4.9c0,0,3.3-4.9-3.3-7.4
				c-6.6-2.5-9.9,2.5-9.9,2.5s-3.3-14.8-23.1-12.3c-19.8,2.5-13.2,19.7-13.2,19.7s-6.2-4.9-11.4-2.5c-5.1,2.5-5.1,7.4-1.8,9.8
				c0,0-17-0.3-16.5,9.8c0.1,2.5,13.2,2.5,13.2,2.5h10.7c2.6,1.4,6.3,3.2,11,4.3c5.8,1.5,14.2-1.9,19.2-4.3h8.1
				c12.9,5.3,42.6,7.2,56,3.9L2114.8,890.2L2114.8,890.2z"/>
			<path class="st44" d="M2001.6,935.5c-0.3-6.7,9.8-6.5,9.8-6.5c-2-1.6-2-4.8,1.1-6.5c3.1-1.6,6.7,1.6,6.7,1.6s-3.9-11.3,7.8-12.9
				c11.7-1.6,13.6,8.1,13.6,8.1s2-3.2,5.8-1.6c3.9,1.6,2,4.8,2,4.8c2-3.2,5.8-3.2,5.8-3.2c9.8-1.6,9.8,9.7,9.8,9.7
				c9.8-1.6,11.7,8.1,11.7,8.1s0,6.1-12.3,4.1c-12.4-2-12.5-4.1-12.5-4.1s-7.2,6.1-14.5,4.1c-7.4-2-11.1-4.1-11.1-4.1
				s-8.7,6.1-16.1,4.1c-5.3-1.5-6.8-4-7.2-5.3C2001.7,935.8,2001.6,935.7,2001.6,935.5z"/>
		</g>
		
			<linearGradient id="SVGID_30_" gradientUnits="userSpaceOnUse" x1="11637.2148" y1="763.8" x2="11726.2363" y2="763.8" gradientTransform="matrix(-1 0 0 1 13764.8086 200)">
			<stop  offset="3.409785e-07" style="stop-color:#747C9D"/>
			<stop  offset="0.5862" style="stop-color:#9280AA"/>
			<stop  offset="1" style="stop-color:#AA84B4"/>
		</linearGradient>
		<path class="st50" d="M2089,1023.3l25.8-0.3V921.6c-2.5-9.6-4.8-17.3-4.8-17.3l-4.3,1.1c1.3,10.8,3.8,35,1.9,39.7
			c-2.8,7-51.8-4.1-66.5-18.4l-0.5,0.4l5.2,12.3c14,9.4,37.7,24,49.5,24C2095.2,963.5,2107.5,1009.6,2089,1023.3z"/>
	</g>
	<g>
		<polygon class="st51" points="1732.5,1025.5 1732.5,541.5 1719.6,541.5 1709.5,1025.5 		"/>
		<polygon class="st51" points="1923.4,1025.5 1923.4,541.5 1936.3,541.5 1946.5,1025.5 		"/>
		<rect x="1732.5" y="585.9" class="st51" width="190.9" height="11.5"/>
		<rect x="1672.8" y="530" class="st52" width="310.3" height="11.5"/>
		<polygon class="st53" points="1718,619.5 1719.6,541.5 1679.9,541.5 		"/>
		<polygon class="st53" points="1937.8,619.5 1936.1,541.5 1975.8,541.5 		"/>
		<polygon class="st54" points="1736.2,1025.5 1736.2,890.6 1709.9,890.6 1706.7,1025.5 		"/>
		<polygon class="st54" points="1920.2,1025.5 1920.2,890.6 1946.6,890.6 1949.7,1025.5 		"/>
		<path class="st52" d="M1965.6,503.2h-34.3l-22.4-14.5l-21.8,14.5h-26.8c0,0-19.3-9.8-32.4-26.9c-13,17-32.4,26.9-32.4,26.9h-26.8
			l-21.8-14.5l-22.4,14.5h-34.3c-21.1-21.2-56.7-26.9-56.7-26.9l39.9,53.7h154.5h154.5l39.9-53.7
			C2022.4,476.3,1986.8,482,1965.6,503.2z"/>
		<rect x="1732.5" y="585.9" class="st51" width="190.9" height="3"/>
		<path class="st51" d="M1672.8,541.5c2,0,310.3,0,310.3,0v-7.7h-310.3V541.5z"/>
	</g>
	<g class="st36">
		
			<linearGradient id="SVGID_31_" gradientUnits="userSpaceOnUse" x1="1633.4835" y1="550.85" x2="1827.921" y2="550.85" gradientTransform="matrix(1 0 0 1 0 200)">
			<stop  offset="0" style="stop-color:#FFCC7D"/>
			<stop  offset="1" style="stop-color:#FF6666"/>
		</linearGradient>
		<path class="st55" d="M1732.5,585.9v-44.4h95.4v-65.2c-13,17-32.4,26.9-32.4,26.9h-26.8l-21.8-14.5l-22.4,14.5h-34.3
			c-21.1-21.2-56.7-26.9-56.7-26.9l39.9,53.7h-0.7v3.7v7.7h7.1l38,78l1.7-78l-1.7,78l0,0l-5.6,271.1h-2.5l-3.2,134.9h2.8h23h3.7
			V890.6h-3.7V597.3h95.4v-11.5h-95.3V585.9z"/>
		
			<linearGradient id="SVGID_32_" gradientUnits="userSpaceOnUse" x1="1717.9673" y1="380.5" x2="1719.6024" y2="380.5" gradientTransform="matrix(1 0 0 1 0 200)">
			<stop  offset="0" style="stop-color:#FFCC7D"/>
			<stop  offset="1" style="stop-color:#FF6666"/>
		</linearGradient>
		<polygon class="st56" points="1719.6,541.5 1718,619.5 1718,619.5 		"/>
	</g>
	<path class="st57" d="M-203.1,727.9c0,0,49.5,27.9,76,108.7c30.2,92.1,82,182.4,95.2,187.4h-171.2V727.9z"/>
	<g>
		<path class="st8" d="M-170,888.8h-7.6c-4.6,2.7-12.5,6.4-18,4.8c-2.3-0.7-4.3-1.5-6.2-2.4v10.2c0.6-0.2,1.2-0.3,1.8-0.4
			c11-1.8,12.7,8.9,12.7,8.9s1.8-3.6,5.4-1.8s1.8,5.3,1.8,5.3c1.8-3.6,5.4-3.6,5.4-3.6c9.1-1.8,9.1,10.7,9.1,10.7
			c9.1-1.8,11,8.9,11,8.9s0,3.8-4.9,4.8c16.4,6.1,33.4,8.6,35,4c0.5-1.3,0.6-3.9,0.7-7.3c0-10.3-1.5-27.4-2.4-36.3
			C-140,895.8-160,893.5-170,888.8z"/>
		<path class="st43" d="M-47.8,931.2l-5.6-1.8h-4.8c-10.2,7.5-25,14.5-38.2,6.8c-15.4-9-19.6-30.2-20.6-43.2c-1.4,0.4-3,0.8-4.6,1
			c1.6,6.1,10.1,40.4,10,53.2c0,2.4-0.3,4.1-1,4.7c-1.2,1.2-1.7,6.2-1.8,13.2c0,17.9,3.4,48.4,7.5,58.9h-0.1c0,0.1,0.1,0.2,0.1,0.2
			l18.1-0.2c0,0-19.2-45.1-0.7-60.9c14.5-12.4,37.7-26.2,46.9-31.6C-44.4,931.7-46.3,931.7-47.8,931.2z"/>
		<path class="st43" d="M-181.7,932.4c-0.1,0-0.1,0.1-0.2,0.1c13.2,10.3,35.2,26.2,46,26.2c0,0,3.9,16.9,3.8,34.1
			c0.1-17.3-3.8-34.3-3.8-34.3C-146.6,958.4-168.4,942.7-181.7,932.4z"/>
		<path class="st43" d="M-114.4,965.1c0-7,0.5-12,1.8-13.2c0.7-0.7,1-2.3,1-4.7c0,2.3-0.3,3.8-1,4.5
			C-113.9,952.8-114.4,958-114.4,965.1z"/>
		<path class="st43" d="M-123.6,930.8c0-10.2-1.5-27.3-2.4-36.3l0,0C-125,903.4-123.6,920.5-123.6,930.8z"/>
		<path class="st44" d="M-166.3,858.9c0,0,3.1-5.4,9.3-2.7s3.1,8.2,3.1,8.2c3.1-5.4,9.3-5.4,9.3-5.4c15.5-2.7,15.5,16.3,15.5,16.3
			c8.6-1.5,13.3,2.8,15.9,7c0.6,0.4,1.1,0.9,1.5,1.5h1.6c6.4,4.9,21.8,15.1,31.3,9.6c5.3-3.1,6.5-6.7,6.1-9.8
			c0.8-2.1,6.9-21.5-16.8-21.5c0,0,8.4-16.3-5.5-19s-16.7,5.4-16.7,5.4s8.4-27.2-16.7-27.2s-22.3,21.7-22.3,21.7s-2.8-10.9-16.7-8.2
			c-9.1,1.8-12.3,7.1-13.3,10.5C-168.6,846.9-166.3,858.9-166.3,858.9z"/>
		<path class="st44" d="M-200.3,867c0,0-0.5-1.6-0.8-4l-0.6,0.7v2.1C-200.9,866.6-200.3,867-200.3,867z"/>
		<path class="st45" d="M-117,892.9c3.3-1,5.4-2.4,5.9-4.2h0.5c0,0-0.1-0.5-0.3-1.2c0.2-1.6-0.2-2.9-0.9-4h-5.5
			C-117.3,885.5-117.3,888.8-117,892.9z"/>
		<path class="st45" d="M-181.5,848.3c0,0,0-1.3,0.6-3.1c-2.1-0.3-4.4-0.3-7.1,0.1c-13.1,1.9-13.9,12.1-13.2,17.8l3-3.9
			C-198.2,848.3-181.5,848.3-181.5,848.3z"/>
		<path class="st45" d="M-177.6,888.8h7.6c9.9,4.8,30,7,44,5.7l0,0c-0.3-3.5-0.6-5.7-0.6-5.7c-1.7-0.5-3.5-1-5.1-1.5
			c-3.5,0.7-7.2,1.2-11,1.2c-9,0-13.4-2.7-15.5-4.8h-6.6l-9.8,4.8c0,0-11.8-1.3-18.1-4.8h-9.2v7.5c1.8,0.9,3.9,1.8,6.2,2.4
			C-190.1,895.1-182.3,891.4-177.6,888.8z"/>
		<path class="st45" d="M-117.3,883.6h-1.6c-3.3,1.2-7.8,2.7-12.7,3.6c1.7,0.5,3.4,1,5.1,1.5c0,0,0.2,2.2,0.6,5.7l0,0
			c0-0.1,0-0.2,0-0.2l4.1-1.2c0,0,0.1,0.3,0.2,0.9c1.7-0.3,3.3-0.6,4.6-1C-117.3,888.8-117.3,885.5-117.3,883.6z"/>
		<path class="st45" d="M-125.9,894.5L-125.9,894.5L-125.9,894.5L-125.9,894.5L-125.9,894.5z"/>
		<path class="st45" d="M-201.7,866v17.7h9.2c6.3,3.5,18.1,4.8,18.1,4.8l9.8-4.8h6.6c2.1,2.1,6.4,4.8,15.5,4.8c3.8,0,7.4-0.5,11-1.2
			c-29.8-9.4-52.7-25.5-52.7-25.5l4.6-6.8c9.3,9,62.4,27,62.4,27s0,0.6,0,1.6h5.5c-0.4-0.6-0.9-1-1.5-1.5c-2.6-4.2-7.3-8.5-15.9-7
			c0,0,0-19-15.5-16.3c0,0-6.2,0-9.3,5.4c0,0,3.1-5.4-3.1-8.2c-6.2-2.7-9.3,2.7-9.3,2.7s-2.3-11.9-14.6-13.7
			c-0.6,1.8-0.6,3.1-0.6,3.1s-16.7,0-16.7,10.9l-3,3.9c0.3,2.3,0.8,4,0.8,4S-200.9,866.6-201.7,866z"/>
		<path class="st45" d="M-117.3,883.6c0-1,0-1.6,0-1.6s-53.2-18-62.4-27l-4.6,6.8c0,0,22.8,16.2,52.7,25.5c4.9-1,9.4-2.4,12.7-3.6
			h1.7V883.6z"/>
		<path class="st44" d="M-20.1,928.5c-0.6-2.2-2.8-7.4-8.6-6.3c0,0,0-10-7.3-8.6c0,0-3,0-4.4,2.9c0,0,1.5-2.9-1.5-4.3
			s-4.4,1.4-4.4,1.4s-1.5-8.6-10.3-7.2c-8.8,1.4-5.9,11.5-5.9,11.5s-2.8-2.9-5-1.4c-2.3,1.4-2.3,4.3-0.8,5.7c0,0-7.6-0.2-7.3,5.7
			c0,0.2,0.1,0.4,0.4,0.5c0,0,1.6,2.7,7.1,2.7c2.8,0,5.1-0.9,6.7-1.8h3.3c7.6-5.5,12.6-11.3,12.6-11.3l6.9,11.3c0,0-1.5,0.8-4,2.3
			c4.8-0.3,9.8-2.3,9.8-2.3c0,1.8,13,3.6,13,0C-19.8,929-19.9,928.7-20.1,928.5z"/>
		<path class="st44" d="M-45.6,918.1c0,0-5,5.7-12.6,11.3h4.8l5.6,1.8c1.5,0.5,3.4,0.6,5.1,0.5c2.5-1.4,4-2.3,4-2.3L-45.6,918.1z"/>
		<path class="st44" d="M-187.1,918.6L-187.1,918.6v-0.2l0.5-0.5c5.6,6.3,16.4,12.1,27.5,16.3c4.9-0.9,4.9-4.8,4.9-4.8
			s-1.8-10.7-11-8.9c0,0,0-12.5-9.1-10.7c0,0-3.7,0-5.4,3.6c0,0,1.8-3.6-1.8-5.3c-3.7-1.8-5.4,1.8-5.4,1.8s-1.8-10.7-12.7-8.9
			c-0.7,0.1-1.3,0.3-1.8,0.4v28.2c0.1-0.1,0.1-0.1,0.1-0.1s3.5,2.3,10.4,4.5c3.5,1.1,6.9,0,9.4-1.4c-0.1-0.1-0.3-0.2-0.4-0.3
			L-187.1,918.6z"/>
		<path class="st44" d="M-182.3,931.9l-4.8-13.4l-0.1,0.1l4.9,13.6c0.1,0.1,0.3,0.2,0.4,0.3c0.1,0,0.1-0.1,0.2-0.1
			C-181.9,932.2-182.1,932.1-182.3,931.9z"/>
		
			<linearGradient id="SVGID_33_" gradientUnits="userSpaceOnUse" x1="13870.1973" y1="735.7812" x2="13953.7549" y2="735.7812" gradientTransform="matrix(-1 0 0 1 13764.8086 200)">
			<stop  offset="3.409785e-07" style="stop-color:#747C9D"/>
			<stop  offset="0.5862" style="stop-color:#9280AA"/>
			<stop  offset="1" style="stop-color:#AA84B4"/>
		</linearGradient>
		<path class="st58" d="M-159.2,934.1c-0.1,0-0.3,0-0.4,0.1c16.5,6.3,33.9,8.8,35.5,4.2c0.5-1.3,0.6-4,0.7-7.6c0,3.4-0.2,6-0.7,7.3
			C-125.8,942.8-142.8,940.2-159.2,934.1z"/>
		
			<linearGradient id="SVGID_34_" gradientUnits="userSpaceOnUse" x1="13870.1973" y1="808.65" x2="13953.7549" y2="808.65" gradientTransform="matrix(-1 0 0 1 13764.8086 200)">
			<stop  offset="3.409785e-07" style="stop-color:#747C9D"/>
			<stop  offset="0.5862" style="stop-color:#9280AA"/>
			<stop  offset="1" style="stop-color:#AA84B4"/>
		</linearGradient>
		<path class="st59" d="M-141.5,1024.5h0.2c7.1-6.5,9.3-19.2,9.3-31.7C-132.1,1005.3-134.2,1018.1-141.5,1024.5z"/>
		<path class="st43" d="M-111.7,947.2c0.1-12.8-8.4-47.2-10-53.2l0,0C-120.4,899.3-111.7,934.1-111.7,947.2z"/>
		
			<linearGradient id="SVGID_35_" gradientUnits="userSpaceOnUse" x1="13870.1973" y1="720.6" x2="13953.7549" y2="720.6" gradientTransform="matrix(-1 0 0 1 13764.8086 200)">
			<stop  offset="3.409785e-07" style="stop-color:#747C9D"/>
			<stop  offset="0.5862" style="stop-color:#9280AA"/>
			<stop  offset="1" style="stop-color:#AA84B4"/>
		</linearGradient>
		<path class="st60" d="M-111.7,947.2c0.1-12.8-8.4-47.2-10-53.2l0,0C-120.4,899.3-111.7,934.1-111.7,947.2z"/>
		<path class="st43" d="M-106.9,1024c-4.1-10.6-7.5-41-7.5-59C-114.5,982.9-111.1,1013.2-106.9,1024L-106.9,1024z"/>
		
			<linearGradient id="SVGID_36_" gradientUnits="userSpaceOnUse" x1="13870.1973" y1="794.5" x2="13953.7549" y2="794.5" gradientTransform="matrix(-1 0 0 1 13764.8086 200)">
			<stop  offset="3.409785e-07" style="stop-color:#747C9D"/>
			<stop  offset="0.5862" style="stop-color:#9280AA"/>
			<stop  offset="1" style="stop-color:#AA84B4"/>
		</linearGradient>
		<path class="st61" d="M-106.9,1024c-4.1-10.6-7.5-41-7.5-59C-114.5,982.9-111.1,1013.2-106.9,1024L-106.9,1024z"/>
		<path class="st43" d="M-114.4,965.1c0-7.1,0.5-12.2,1.8-13.4c0.6-0.6,0.9-2.2,1-4.5c0-13.1-8.7-47.8-10-53.2
			c-1.3,0.2-2.8,0.4-4.1,0.5c0.9,9,2.4,26.1,2.4,36.3c0,3.5-0.2,6.2-0.7,7.6c-1.6,4.7-18.9,2-35.5-4.2c-1.6,0.2-3.6,0.2-6.2-0.3
			c-11.6-2.3-11.8-4.5-11.8-4.5s-1.6,1.6-4.1,3c13.2,10.4,35.1,26.1,45.8,26.1c0,0,3.9,17,3.8,34.3c0,12.5-2.2,25.2-9.3,31.7
			l34.4-0.4C-111.1,1013.2-114.5,982.9-114.4,965.1z"/>
		
			<linearGradient id="SVGID_37_" gradientUnits="userSpaceOnUse" x1="13870.1973" y1="759.2499" x2="13953.7549" y2="759.2499" gradientTransform="matrix(-1 0 0 1 13764.8086 200)">
			<stop  offset="3.409785e-07" style="stop-color:#747C9D"/>
			<stop  offset="0.5862" style="stop-color:#9280AA"/>
			<stop  offset="1" style="stop-color:#AA84B4"/>
		</linearGradient>
		<path class="st62" d="M-114.4,965.1c0-7.1,0.5-12.2,1.8-13.4c0.6-0.6,0.9-2.2,1-4.5c0-13.1-8.7-47.8-10-53.2
			c-1.3,0.2-2.8,0.4-4.1,0.5c0.9,9,2.4,26.1,2.4,36.3c0,3.5-0.2,6.2-0.7,7.6c-1.6,4.7-18.9,2-35.5-4.2c-1.6,0.2-3.6,0.2-6.2-0.3
			c-11.6-2.3-11.8-4.5-11.8-4.5s-1.6,1.6-4.1,3c13.2,10.4,35.1,26.1,45.8,26.1c0,0,3.9,17,3.8,34.3c0,12.5-2.2,25.2-9.3,31.7
			l34.4-0.4C-111.1,1013.2-114.5,982.9-114.4,965.1z"/>
		<path class="st45" d="M-125.9,894.3c0,0.1,0,0.2,0,0.2l4.1-1.2c0,0,0.1,0.3,0.2,0.7l0,0c-0.1-0.6-0.2-0.9-0.2-0.9L-125.9,894.3z"
			/>
		
			<linearGradient id="SVGID_38_" gradientUnits="userSpaceOnUse" x1="13870.1973" y1="693.8" x2="13953.7549" y2="693.8" gradientTransform="matrix(-1 0 0 1 13764.8086 200)">
			<stop  offset="3.409785e-07" style="stop-color:#747C9D"/>
			<stop  offset="0.5862" style="stop-color:#9280AA"/>
			<stop  offset="1" style="stop-color:#AA84B4"/>
		</linearGradient>
		<path class="st63" d="M-125.9,894.3c0,0.1,0,0.2,0,0.2l4.1-1.2c0,0,0.1,0.3,0.2,0.7l0,0c-0.1-0.6-0.2-0.9-0.2-0.9L-125.9,894.3z"
			/>
		<path class="st45" d="M-125.9,894.5L-125.9,894.5c1.5-0.1,2.9-0.3,4.1-0.5c-0.1-0.5-0.2-0.7-0.2-0.7L-125.9,894.5z"/>
		
			<linearGradient id="SVGID_39_" gradientUnits="userSpaceOnUse" x1="13870.1973" y1="693.9" x2="13953.7549" y2="693.9" gradientTransform="matrix(-1 0 0 1 13764.8086 200)">
			<stop  offset="3.409785e-07" style="stop-color:#747C9D"/>
			<stop  offset="0.5862" style="stop-color:#9280AA"/>
			<stop  offset="1" style="stop-color:#AA84B4"/>
		</linearGradient>
		<path class="st64" d="M-125.9,894.5L-125.9,894.5c1.5-0.1,2.9-0.3,4.1-0.5c-0.1-0.5-0.2-0.7-0.2-0.7L-125.9,894.5z"/>
		<path class="st44" d="M-186.6,917.9l-0.5,0.5l0.1,0.2l0.5-0.4c5.5,6.3,16.1,12,27,16.1c0.1,0,0.3,0,0.4-0.1
			C-170.3,930-181.1,924.2-186.6,917.9z"/>
		
			<linearGradient id="SVGID_40_" gradientUnits="userSpaceOnUse" x1="13870.1973" y1="726.1" x2="13953.7549" y2="726.1" gradientTransform="matrix(-1 0 0 1 13764.8086 200)">
			<stop  offset="3.409785e-07" style="stop-color:#747C9D"/>
			<stop  offset="0.5862" style="stop-color:#9280AA"/>
			<stop  offset="1" style="stop-color:#AA84B4"/>
		</linearGradient>
		<path class="st65" d="M-186.6,917.9l-0.5,0.5l0.1,0.2l0.5-0.4c5.5,6.3,16.1,12,27,16.1c0.1,0,0.3,0,0.4-0.1
			C-170.3,930-181.1,924.2-186.6,917.9z"/>
		<path class="st44" d="M-186.6,918.1l-0.5,0.4l4.8,13.4c0.2,0.1,0.4,0.3,0.5,0.4c2.5-1.4,4.1-3,4.1-3s0.2,2.3,11.8,4.5
			c2.6,0.5,4.6,0.5,6.2,0.3C-170.5,930.1-181.2,924.3-186.6,918.1z"/>
		
			<linearGradient id="SVGID_41_" gradientUnits="userSpaceOnUse" x1="13870.1973" y1="726.1625" x2="13953.7549" y2="726.1625" gradientTransform="matrix(-1 0 0 1 13764.8086 200)">
			<stop  offset="3.409785e-07" style="stop-color:#747C9D"/>
			<stop  offset="0.5862" style="stop-color:#9280AA"/>
			<stop  offset="1" style="stop-color:#AA84B4"/>
		</linearGradient>
		<path class="st66" d="M-186.6,918.1l-0.5,0.4l4.8,13.4c0.2,0.1,0.4,0.3,0.5,0.4c2.5-1.4,4.1-3,4.1-3s0.2,2.3,11.8,4.5
			c2.6,0.5,4.6,0.5,6.2,0.3C-170.5,930.1-181.2,924.3-186.6,918.1z"/>
	</g>
	
		<linearGradient id="SVGID_42_" gradientUnits="userSpaceOnUse" x1="150.5809" y1="204.7153" x2="459.2395" y2="204.7153" gradientTransform="matrix(-1 0 0 1 2430.8884 200)">
		<stop  offset="0" style="stop-color:#F4879D"/>
		<stop  offset="0.94" style="stop-color:#FFD192"/>
	</linearGradient>
	<path class="st67" d="M2114.8,354c-41.2-3.2-46.1,40-46.1,40c-84.4-7.3-97,61.6-97,61.6h143.2V354z"/>
	<path class="st68" d="M-196.8,652.1c2.1-2.3,4.5-4.3,13.2-5.1c10.5-1,18,1.8,19.5,4.4c2-0.3,1.5,0.8,3.7,0.8c4.3,0,8.2,0.7,11,1.7
		c1-0.3,2.3-0.5,3.8-0.5c3.4,0,6.1,1,6.1,2.3c0,0,0,0,0,0.1c10,0.4,17.8,3.6,17.8,7.4c0,0.2,0,0.3-0.1,0.5c0,0,0-0.1,0.1-0.1h-0.1
		h-39.9h-41.4v-12C-200.8,651.6-198.7,651.8-196.8,652.1z"/>
	
		<linearGradient id="SVGID_43_" gradientUnits="userSpaceOnUse" x1="-203.0024" y1="851.8" x2="13689.8672" y2="851.8" gradientTransform="matrix(1 0 0 1 0 200)">
		<stop  offset="0" style="stop-color:#68666D"/>
		<stop  offset="7.150000e-02" style="stop-color:#AC9890"/>
		<stop  offset="0.1396" style="stop-color:#E7C2AD"/>
		<stop  offset="0.172" style="stop-color:#FED3B9"/>
		<stop  offset="0.2309" style="stop-color:#CEC1B4"/>
		<stop  offset="0.3299" style="stop-color:#82A4AC"/>
		<stop  offset="0.3756" style="stop-color:#6499A9"/>
		<stop  offset="0.4357" style="stop-color:#91B8BA"/>
		<stop  offset="0.5019" style="stop-color:#BDD7CB"/>
		<stop  offset="0.5355" style="stop-color:#CEE3D1"/>
		<stop  offset="0.5637" style="stop-color:#B9C7B1"/>
		<stop  offset="0.6078" style="stop-color:#9EA087"/>
		<stop  offset="0.6506" style="stop-color:#888165"/>
		<stop  offset="0.6911" style="stop-color:#786C4D"/>
		<stop  offset="0.7285" style="stop-color:#6E5F3E"/>
		<stop  offset="0.7597" style="stop-color:#6B5A39"/>
		<stop  offset="0.8624" style="stop-color:#7D4434"/>
		<stop  offset="1" style="stop-color:#6F6B71"/>
	</linearGradient>
	<rect x="-203" y="1023.7" class="st69" width="2317.8" height="56.2"/>
</g>
<g id="clouds" class="st0">
	<path class="st70" d="M1952,329.7c-0.1-0.1-0.2-0.1-0.2-0.2c-12.1-9.3-12.2-27.6-0.4-37.5c8.7-7.3,18.1-16.2,22.4-23.7
		c14.3-24.8,4.7-43.9-12.8-58.2c-4.7-3.9-23.5-7.5-33.6-10.5c-1.1-0.5-2.1-0.5-3-0.7c-5.5-1.8-11.4-2-17.6-2h-279
		c-28,0-50.7,18.4-50.7,42.5s22.7,42.5,50.7,42.5h279c1.3,0,2.6-1,3.8-1.1c-15.8,8.8-26,11.6-26,11.6l-12.1,2.5
		c-17.2,0-31.2,13.8-31.2,28.5s14,28.5,31.2,28.5h125.9C1998.4,351.8,1981.3,351.8,1952,329.7z"/>
</g>
<g id="water" class="st0">
	<path class="st71" d="M1015,1006h-83c-5,0-9-4-9-9l0,0c0-5,4-9,9-9h83c5,0,9,4,9,9l0,0C1024,1002,1020,1006,1015,1006z"/>
	<path class="st71" d="M783,932h-83c-5,0-9-4-9-9l0,0c0-5,4-9,9-9h83c5,0,9,4,9,9l0,0C792,928,788,932,783,932z"/>
	<path class="st71" d="M1562,930h-83c-5,0-9-4-9-9l0,0c0-5,4-9,9-9h83c5,0,9,4,9,9l0,0C1571,926,1567,930,1562,930z"/>
	<path class="st71" d="M1502.8,965h-288.3c-9.1,0-17,7-17.5,16.2c-0.6,10.2,7.7,21.5,47.2,21.5h223c0.4,0,0.9,0,1.3,0
		c2.7,0.2,14.6,0.7,14.6-7.2c0,0,0.8-5.2-13.3-3.7c-0.6,0.1-1.3,0.1-1.9,0.1h-130.1c0,0-8.9,0.9-8.9-8.1c0-7.6,7-7.5,9.2-7.3
		c0.5,0,1,0.1,1.6,0.1h160.1c0.7,0,1.3,0,1.9,0.1c1.8,0.2,6.5,0.2,6.5-6.4C1508.1,965,1502.8,965,1502.8,965z"/>
	<path class="st71" d="M759.3,1005H471c-9.1,0-17-7-17.5-16.2c-0.6-10.2,7.7-21.5,47.2-21.5h223c0.4,0,0.9,0,1.3,0
		c2.7-0.2,14.6-0.7,14.6,7.2c0,0,0.8,5.2-13.3,3.7c-0.6-0.1-1.3-0.1-1.9-0.1h-60.6c0,0-8.9-0.9-8.9,8.1c0,7.6,7,7.5,9.2,7.3
		c0.5,0,1-0.1,1.5-0.1h90.5c0.7,0,1.3,0,2-0.1c1.8-0.2,6.5-0.2,6.5,6.4C764.6,1005,759.3,1005,759.3,1005z"/>
</g>
<g id="ลูกศร" class="st0">
	<path class="st72" d="M1123.9,358H797.1c-17.7,0-32.1,14.4-32.1,32.1v107.8c0,17.7,14.4,32.1,32.1,32.1h133.4l30,40l30-40h133.4
		c17.7,0,32.1-14.4,32.1-32.1V390.1C1156,372.4,1141.6,358,1123.9,358z"/>
</g>
<g id="text">
</g>
<g id="ปุ่มซ้ายขวา" class="st0">
	<g class="st1">
		<path class="st68" d="M160.5,956.2v67.8c0,3.3-3.7,5.3-6.5,3.5L102.4,993c-2.5-1.7-2.5-5.4,0.1-7l51.6-33.3
			C156.8,950.8,160.5,952.8,160.5,956.2z"/>
		<path class="st68" d="M1761.4,956.2v67.8c0,3.3,3.7,5.3,6.5,3.5l51.6-34.4c2.5-1.7,2.5-5.4-0.1-7l-51.6-33.3
			C1765.1,950.8,1761.4,952.8,1761.4,956.2z"/>
	</g>
</g>
<g id="ชื่อประเทศ" class="st0">
	<g class="st1">
		<text transform="matrix(1 0 0 1 297.1246 302.0864)" class="st68 st73 st74">KING’S DIPLOMACY</text>
	</g>
	<text transform="matrix(1 0 0 1 514.3695 341.8384)" class="st75 st76 st77">พระราชกรณียกิจด้านการทูตของพระบาทสมเด็จพระปรมิทรมหาภูมิพลอดุลยเดช</text>
</g>
<g id="Layer_5">
	<g>
		<g>
			<polygon class="st78" points="117.9,871.5 114.2,866.8 237.7,866.8 237.7,871.5 			"/>
			<polygon class="st78" points="498.3,871.5 502,866.8 378.5,866.8 378.5,871.5 			"/>
			<rect x="114.2" y="855.7" class="st79" width="247" height="7.9"/>
			<rect x="255" y="855.7" class="st79" width="247" height="7.9"/>
			<rect x="255" y="852.5" class="st80" width="247" height="3.2"/>
			<rect x="255" y="863.6" class="st80" width="247" height="3.2"/>
			<rect x="114.2" y="852.5" class="st80" width="247" height="3.2"/>
			<rect x="114.2" y="863.6" class="st80" width="247" height="3.2"/>
			<polygon class="st81" points="206.5,727.5 150.6,727.5 132.4,712.2 144.9,735.2 206.5,735.2 214,735.2 214,734.3 214,727.5 			
				"/>
			<polygon class="st81" points="409.8,727.5 465.6,727.5 483.8,712.2 471.3,735.2 409.8,735.2 402.2,735.2 402.2,734.3 
				402.2,727.5 			"/>
			<polygon class="st81" points="273,703.3 211.5,703.3 198.9,680.3 217.1,695.6 273,695.6 			"/>
			<polygon class="st81" points="342.8,703.3 404.3,703.3 416.8,680.3 398.6,695.6 342.8,695.6 			"/>
			<polygon class="st54" points="204.3,735.2 144.9,735.2 114.2,852.5 212,852.5 212,735.2 			"/>
			<polygon class="st54" points="412,735.2 471.3,735.2 502,852.5 404.2,852.5 404.2,735.2 			"/>
			<polygon class="st54" points="260.1,703.3 211.5,703.3 193.4,823.4 273,823.4 273,703.3 			"/>
			<polygon class="st54" points="355.7,703.3 404.3,703.3 422.3,823.4 342.8,823.4 342.8,703.3 			"/>
			<polygon class="st82" points="404.2,756.6 338.1,684.1 307.9,684.1 307.8,684.1 277.6,684.1 211.5,756.6 307.8,756.6 
				307.8,738.4 307.9,756.6 			"/>
			<polygon class="st83" points="307.8,756.6 211.5,756.6 236.6,777.3 307.8,777.3 379,777.3 404.2,756.6 			"/>
			<polygon class="st54" points="317.1,871.3 197.2,871.3 77.4,871.3 16.2,918 197.2,918 378.3,918 			"/>
			<polygon class="st81" points="77.4,871.3 317.1,871.3 320.7,874.1 73.8,874.1 			"/>
			<polygon class="st54" points="538.5,871.3 418.7,871.3 298.9,871.3 237.6,918 418.7,918 599.7,918 			"/>
			<polygon class="st81" points="298.9,871.3 538.6,871.3 542.1,874.1 295.2,874.1 			"/>
			<rect x="237.6" y="918" class="st81" width="362.1" height="4"/>
			<rect x="16.2" y="918" class="st81" width="362.1" height="4"/>
			<polygon class="st84" points="587.6,930.7 599.7,921.9 418.7,921.9 418.7,930.7 			"/>
			<polygon class="st84" points="28.3,930.7 16.2,921.9 197.2,921.9 197.2,930.7 			"/>
			<rect x="223.5" y="919.7" class="st10" width="168.7" height="116.2"/>
			<rect x="139" y="919.7" class="st10" width="84.6" height="116.2"/>
			<rect x="28.1" y="930.7" class="st10" width="110.8" height="96.1"/>
			<rect x="476.8" y="930.7" class="st10" width="110.8" height="96.1"/>
			<rect x="392.2" y="919.7" class="st10" width="84.6" height="116.2"/>
			<path class="st85" d="M354.1,948.7c0,0,5.5-19.6-13-12.1c0,0,0-6.5-14.2-5.7s-19-2.3-19-2.3s-4.7,3.1-19,2.3
				c-14.2-0.8-14.2,5.7-14.2,5.7c-18.5-7.6-13,12.1-13,12.1l-6.2,7.6v72.6h52.4h52.4v-72.6L354.1,948.7z"/>
			<path class="st85" d="M181.2,937.4c-8.6,2.9-11.4,9.4-11.4,9.4v73.4h11.4h11.4v-73.4C192.7,946.7,189.8,940.3,181.2,937.4z"/>
			<path class="st85" d="M83.8,941.1c-7.8,2.7-10.4,8.5-10.4,8.5v66.8h10.4h10.4v-66.8C94.2,949.6,91.6,943.7,83.8,941.1z"/>
			<path class="st85" d="M532.5,941.1c-7.8,2.7-10.4,8.5-10.4,8.5v66.8h10.4h10.4v-66.8C542.9,949.6,540.3,943.7,532.5,941.1z"/>
			<path class="st85" d="M434.7,937.4c-8.6,2.9-11.4,9.4-11.4,9.4v73.4h11.4h11.4v-73.4C446.1,946.7,443.2,940.3,434.7,937.4z"/>
			<polygon class="st78" points="217.9,919.7 236.6,919.7 236.6,1036 211.5,1036 211.5,919.7 			"/>
			<polygon class="st78" points="34.6,930.7 53.3,930.7 53.3,1026.8 28.1,1026.8 28.1,930.7 			"/>
			<polygon class="st78" points="120.7,930.7 139.4,930.7 139.4,1026.8 114.2,1026.8 114.2,930.7 			"/>
			<polygon class="st78" points="483.1,930.7 501.9,930.7 501.9,1026.8 476.7,1026.8 476.7,930.7 			"/>
			<polygon class="st78" points="568.9,930.7 587.6,930.7 587.6,1026.8 562.5,1026.8 562.5,930.7 			"/>
			<polygon class="st78" points="386,919.7 404.8,919.7 404.8,1036 379.6,1036 379.6,919.7 			"/>
			<polygon class="st84" points="307.9,911 126.8,911 139,919.7 307.9,919.7 476.8,919.7 488.9,911 			"/>
			<rect x="126.8" y="907" class="st81" width="362.1" height="4"/>
			<polygon class="st54" points="427.7,860.4 307.9,860.4 188,860.4 126.8,907 307.9,907 488.9,907 			"/>
			<polygon class="st81" points="188,860.4 126.8,907 133.6,907 193.4,860.4 			"/>
			<polygon class="st81" points="77.4,871.3 16.2,918 22.9,918 82.7,871.3 			"/>
			<polygon class="st81" points="427.7,860.4 488.9,907 482.1,907 422.3,860.4 			"/>
			<polygon class="st81" points="538.5,871.3 599.7,918 593,918 533.2,871.3 			"/>
			<polygon class="st81" points="188,860.4 427.7,860.4 431.3,863.2 184.4,863.2 			"/>
			<polygon class="st78" points="188,860.4 184.4,855.7 307.9,855.7 307.9,860.4 			"/>
			<polygon class="st78" points="427.7,860.4 431.4,855.7 307.9,855.7 307.9,860.4 			"/>
			<rect x="184.4" y="852.5" class="st84" width="247" height="3.2"/>
			<rect x="184.4" y="841.4" class="st84" width="247" height="3.2"/>
			<rect x="184.4" y="844.6" class="st79" width="247" height="7.9"/>
			<polygon class="st81" points="307.9,721.7 184.4,841.4 307.9,841.4 431.3,841.4 			"/>
			<polygon class="st80" points="307.9,728.9 191.9,841.4 307.9,841.4 423.9,841.4 			"/>
			<polygon class="st86" points="307.8,741.4 204.6,841.4 307.8,841.4 411,841.4 			"/>
			<polygon class="st83" points="307.8,667.7 266.5,667.7 277.6,684.1 307.8,684.1 338,684.1 349,667.7 			"/>
			<polygon class="st83" points="307.8,561.2 300.1,561.2 303.7,568 307.8,568 311.9,568 315.4,561.2 			"/>
			<polygon class="st82" points="311.9,554.5 307.8,554.5 303.7,554.5 300.1,561.2 307.8,561.2 315.4,561.2 			"/>
			<polygon class="st83" points="307.8,547.8 300.1,547.8 303.7,554.5 307.8,554.5 311.9,554.5 315.4,547.8 			"/>
			<polygon class="st82" points="311.9,541.1 307.8,541.1 303.7,541.1 300.1,547.8 307.8,547.8 315.4,547.8 			"/>
			<polygon class="st82" points="311.9,568 307.8,568 303.7,568 266.5,667.7 307.8,667.7 349,667.7 			"/>
			<polygon class="st83" points="307.8,415.8 303.7,541.1 307.8,541.1 311.9,541.1 			"/>
			<polygon class="st81" points="211.5,703.3 193.4,823.4 198.9,823.4 217.3,698.4 			"/>
			<polygon class="st81" points="404.3,703.3 422.3,823.3 416.8,823.3 398.4,698.4 			"/>
			<polygon class="st87" points="184.4,841.4 167.9,829.8 184.4,832 307.8,713.2 307.9,721.7 			"/>
			<polygon class="st87" points="431.3,841.4 447.8,829.8 431.3,832 307.9,713.2 307.8,721.7 			"/>
			<polygon class="st81" points="144.9,735.2 114.2,852.5 119.1,852.5 149.4,734.9 			"/>
			<polygon class="st81" points="471.3,735.2 502,852.5 497.1,852.5 466.8,734.9 			"/>
			<polygon class="st81" points="114.2,852.5 184.4,852.5 184.4,848.5 118.1,848.5 			"/>
			<polygon class="st81" points="501.5,852.5 431.4,852.5 431.4,848.5 497.7,848.5 			"/>
			<rect x="255.4" y="1028.8" class="st78" width="104.9" height="7.1"/>
		</g>
		
			<linearGradient id="SVGID_44_" gradientUnits="userSpaceOnUse" x1="17.2" y1="526.35" x2="308.4" y2="526.35" gradientTransform="matrix(1 0 0 1 0 200)">
			<stop  offset="0" style="stop-color:#FFCC7D"/>
			<stop  offset="1" style="stop-color:#FF6666"/>
		</linearGradient>
		<polygon class="st88" points="304.3,541.8 300.7,548.6 304.3,555.3 300.7,562 304.3,568.7 267.2,668.3 278.3,684.6 267.8,696.2 
			217.9,696.2 199.7,680.8 212.2,703.9 208.6,728 207.2,728 151.4,728 133.3,712.7 145.8,735.7 145.8,735.7 115.1,852.8 115.1,856 
			115.1,863.9 115.1,867.1 118.7,871.7 83.7,871.7 78.4,871.7 78.3,871.7 17.2,918.2 17.2,922.2 29.3,930.9 29.1,930.9 29.1,1026.8 
			54.3,1026.8 115.1,1026.8 139.8,1026.8 139.8,1036 212.2,1036 224.3,1036 237.4,1036 256.1,1036 308.4,1036 308.4,416.7 		"/>
	</g>
	<g>
		<path class="st89" d="M1632.6,869.5c-3.6-78.3-50.8-99-50.8-99h-52h-52c0,0-47.2,20.8-50.8,99s-30.2,99-59.2,99v10.9h162h162
			v-10.9C1662.8,968.5,1636.2,947.7,1632.6,869.5z"/>
		<rect x="1350" y="979.4" class="st90" width="365" height="46.1"/>
		<polygon class="st90" points="1529.8,751.7 1477.4,751.7 1477.4,770.4 1529.8,770.4 1582.2,770.4 1582.2,751.7 		"/>
		<polygon class="st89" points="1529.8,713.5 1483.2,713.5 1483.2,751.7 1529.8,751.7 1576.3,751.7 1576.3,713.5 		"/>
		<rect x="1517.8" y="564.7" class="st89" width="24" height="13.9"/>
		<rect x="1520.8" y="551.2" class="st90" width="17.9" height="13.6"/>
		<polygon class="st89" points="1529.8,418.3 1520.8,551.2 1529.8,551.2 1538.7,551.2 		"/>
		<polygon class="st90" points="1503.9,641.1 1555.7,641.1 1553.3,628 1506.3,628 		"/>
		<polygon class="st90" points="1490.5,713.5 1529.8,713.5 1569.1,713.5 1566.1,697.1 1493.5,697.1 		"/>
		<polygon class="st90" points="1544.2,578.6 1529.8,578.6 1515.4,578.6 1512.4,595 1547.2,595 		"/>
		<polygon class="st90" points="1495.4,687.2 1564.2,687.2 1561.8,674 1497.8,674 		"/>
		<polygon class="st90" points="1499.6,664.1 1560,664.1 1557.5,651 1502.1,651 		"/>
		<polygon class="st90" points="1510.6,605 1508.1,618.1 1551.4,618.1 1549,605 		"/>
		<polygon class="st89" points="1493.5,697.1 1566.1,697.1 1564.2,687.2 1495.4,687.2 		"/>
		<polygon class="st89" points="1497.8,674 1561.8,674 1560,664.1 1499.6,664.1 		"/>
		<polygon class="st89" points="1502.1,651 1557.5,651 1555.7,641.1 1503.9,641.1 		"/>
		<polygon class="st89" points="1506.3,628 1553.3,628 1551.4,618.1 1508.1,618.1 		"/>
		<polygon class="st89" points="1547.2,595 1512.4,595 1510.6,605 1549,605 		"/>
	</g>
	
		<linearGradient id="SVGID_45_" gradientUnits="userSpaceOnUse" x1="1349.9424" y1="521.3501" x2="1529.7424" y2="521.3501" gradientTransform="matrix(1 0 0 1 0 200)">
		<stop  offset="0" style="stop-color:#FFCC7D"/>
		<stop  offset="1" style="stop-color:#FF6666"/>
	</linearGradient>
	<path class="st91" d="M1520.8,550.7L1520.8,550.7v13.6h-3.1v13.9h-2.3l-3,16.4l-1.8,9.9l-2.4,13.1l-1.8,9.9l-2.4,13.1l-1.8,9.9
		l-2.4,13.1l-1.8,9.9l-2.4,13.1l-1.8,9.9l-3,16.4h-7.3v38.3h-5.9v18.7h0.5c0,0-47.2,20.8-50.8,99s-30.2,99-59.2,99v10.9h-17.8v46.1
		h179.8V417.8L1520.8,550.7z"/>
</g>
<g id="Layer_6">
</g>
</svg>
