<?xml version="1.0" encoding="utf-8"?>
<!-- Generator: Adobe Illustrator 17.0.0, SVG Export Plug-In . SVG Version: 6.00 Build 0)  -->
<!DOCTYPE svg PUBLIC "-//W3C//DTD SVG 1.1//EN" "http://www.w3.org/Graphics/SVG/1.1/DTD/svg11.dtd">
<svg version="1.1" id="Layer_1" xmlns="http://www.w3.org/2000/svg" xmlns:xlink="http://www.w3.org/1999/xlink" x="0px" y="0px"
	 width="1900.722px" height="586.542px" viewBox="0 0 1900.722 586.542" enable-background="new 0 0 1900.722 586.542"
	 xml:space="preserve">
<g>
	<linearGradient id="SVGID_2_" gradientUnits="userSpaceOnUse" x1="951.2635" y1="-961.4138" x2="951.2635" y2="1296.2515">
		<stop  offset="0.4121" style="stop-color:#FDF9D2"/>
		<stop  offset="0.497" style="stop-color:#D1E5CE"/>
		<stop  offset="0.6216" style="stop-color:#95CDCB"/>
	</linearGradient>
	<rect x="2.718" y="0" fill="url(#SVGID_2_)" width="1897.091" height="584.936"/>
	<linearGradient id="SVGID_3_" gradientUnits="userSpaceOnUse" x1="632.6461" y1="26.5791" x2="750.6609" y2="26.5791">
		<stop  offset="0" style="stop-color:#F3B07D"/>
		<stop  offset="1" style="stop-color:#A6A5D2"/>
	</linearGradient>
	<path fill="url(#SVGID_3_)" d="M750.661,46.564c-0.008-10.761-8.737-19.481-19.503-19.481c-3.815,0-7.373,1.096-10.379,2.988
		c-0.916-0.405-1.924-0.639-2.986-0.661c-1.034-6.583-6.732-11.619-13.608-11.619c-1.979,0-3.859,0.42-5.56,1.171
		c-1.857-5.411-4.012-10.255-11.639-12.161c-9.249-2.311-15.806,4.299-17.16,10.483c-1.694-0.763-1.258,2-3.237,2
		c-3.798,0-7.227,1.566-9.684,4.085c-0.906-0.689-2.036-1.099-3.262-1.099c-2.979,0-5.395,2.414-5.395,5.393
		c0,0.065,0.003,0.13,0.005,0.195c-8.781,0.987-15.607,8.434-15.607,17.476c0,0.483,0.02,0.962,0.059,1.435
		c-0.019,0.02-0.04,0.039-0.059,0.058h0.064h35.061h43.887h39c0.001-0.083,0.003-0.166,0.003-0.249
		C750.661,46.574,750.661,46.569,750.661,46.564z"/>
	<linearGradient id="SVGID_4_" gradientUnits="userSpaceOnUse" x1="1592.7334" y1="34.6383" x2="1710.7482" y2="34.6383">
		<stop  offset="0" style="stop-color:#F3B07D"/>
		<stop  offset="1" style="stop-color:#A6A5D2"/>
	</linearGradient>
	<path fill="url(#SVGID_4_)" d="M1710.748,54.624c-0.008-10.761-8.737-19.481-19.503-19.481c-3.815,0-7.373,1.096-10.379,2.988
		c-0.916-0.405-1.924-0.639-2.986-0.661c-1.034-6.583-6.732-11.619-13.608-11.619c-1.979,0-3.859,0.42-5.56,1.171
		c-1.857-5.411-4.012-10.255-11.639-12.161c-9.249-2.311-15.806,4.299-17.16,10.483c-1.694-0.763-1.258,2-3.237,2
		c-3.797,0-7.227,1.566-9.684,4.085c-0.906-0.689-2.036-1.099-3.262-1.099c-2.979,0-5.394,2.414-5.394,5.393
		c0,0.065,0.003,0.13,0.005,0.195c-8.781,0.987-15.607,8.434-15.607,17.476c0,0.483,0.02,0.962,0.059,1.435
		c-0.019,0.02-0.04,0.039-0.059,0.058h0.064h35.061h43.887h39c0.001-0.083,0.003-0.166,0.003-0.249L1710.748,54.624z"/>
	<path fill="#FFFFFF" d="M656.823,264.868c-0.013-17.829-14.476-32.278-32.314-32.278c-6.321,0-12.216,1.816-17.197,4.951
		c-1.518-0.67-3.189-1.059-4.947-1.096c-1.713-10.908-11.155-19.251-22.547-19.251c-3.279,0-6.394,0.696-9.212,1.941
		c-3.077-8.965-6.647-16.991-19.284-20.149c-15.324-3.83-26.189,7.123-28.433,17.369c-2.807-1.264-2.084,3.313-5.363,3.313
		c-6.292,0-11.975,2.595-16.046,6.769c-1.501-1.142-3.374-1.82-5.406-1.82c-4.936,0-8.938,4-8.938,8.935
		c0,0.108,0.004,0.216,0.008,0.323c-14.55,1.635-25.86,13.974-25.86,28.956c0,0.801,0.034,1.593,0.097,2.378
		c-0.032,0.032-0.066,0.064-0.097,0.097h0.106h58.093h72.716h64.619c0.002-0.137,0.005-0.275,0.005-0.412
		C656.823,264.884,656.823,264.876,656.823,264.868z"/>
	<path opacity="0.51" fill="#FFFFFF" d="M1517.359,177.014h-39.041h-20.213h-9.736c-6.765,0-12.301-4.51-12.301-10.022
		c0-5.512,5.535-10.022,12.301-10.022h10.161h19.788h20.858c5.295,0,9.627-3.529,9.627-7.843c0-4.314-4.332-7.843-9.627-7.843
		h-268.474c-5.295,0-9.627,3.529-9.627,7.843c0,4.314,4.332,7.843,9.627,7.843h49.737h21.927h8.022
		c6.765,0,12.301,4.51,12.301,10.022c0,5.512-5.535,10.022-12.301,10.022h-7.597h-22.352h-80.756
		c-5.883,0-10.696,3.921-10.696,8.714c0,4.793,4.813,8.714,10.696,8.714h317.677c5.883,0,10.696-3.921,10.696-8.714
		C1528.055,180.936,1523.242,177.014,1517.359,177.014z"/>
	<path opacity="0.51" fill="#FFFFFF" d="M1887.126,309.015h-20.161h-10.438h-5.028c-3.494,0-6.352-2.329-6.352-5.175
		s2.858-5.175,6.352-5.175h5.247h10.218h10.771c2.734,0,4.971-1.823,4.971-4.05s-2.237-4.05-4.971-4.05h-138.638
		c-2.734,0-4.971,1.823-4.971,4.05s2.237,4.05,4.971,4.05h25.684h11.323h4.143c3.494,0,6.352,2.329,6.352,5.175
		s-2.858,5.175-6.352,5.175h-3.923h-11.543h-41.702c-3.038,0-5.523,2.025-5.523,4.5s2.486,4.5,5.523,4.5h164.046
		c3.038,0,5.523-2.025,5.523-4.5S1890.164,309.015,1887.126,309.015z"/>
	<path opacity="0.51" fill="#FFFFFF" d="M1140.718,295.289h-20.161h-10.438h-5.028c-3.494,0-6.352-2.329-6.352-5.175
		c0-2.846,2.858-5.175,6.352-5.175h5.247h10.218h10.771c2.734,0,4.971-1.823,4.971-4.05s-2.237-4.05-4.971-4.05H992.689
		c-2.734,0-4.971,1.823-4.971,4.05s2.237,4.05,4.971,4.05h25.684h11.323h4.143c3.494,0,6.352,2.329,6.352,5.175
		c0,2.846-2.858,5.175-6.352,5.175h-3.923h-11.543h-41.702c-3.038,0-5.523,2.025-5.523,4.5s2.486,4.5,5.523,4.5h164.046
		c3.038,0,5.523-2.025,5.523-4.5S1143.755,295.289,1140.718,295.289z"/>
	<g>
		
			<linearGradient id="SVGID_5_" gradientUnits="userSpaceOnUse" x1="3517.3782" y1="323.4456" x2="3517.3782" y2="-50.1131" gradientTransform="matrix(-1 0 0 1 3736.9001 0)">
			<stop  offset="4.101825e-007" style="stop-color:#9DCA7E"/>
			<stop  offset="0.2349" style="stop-color:#CDD287"/>
			<stop  offset="0.4485" style="stop-color:#F0D98F"/>
			<stop  offset="0.5591" style="stop-color:#FFDC92"/>
			<stop  offset="0.7164" style="stop-color:#FEE199"/>
			<stop  offset="0.9515" style="stop-color:#FDF1AE"/>
			<stop  offset="1" style="stop-color:#FDF7B4"/>
		</linearGradient>
		<path fill="url(#SVGID_5_)" d="M23.156,202.25c0.027-35.809,29.074-64.83,64.903-64.83c12.695,0,24.536,3.647,34.539,9.945
			c3.049-1.347,6.404-2.128,9.936-2.201c3.441-21.908,22.404-38.666,45.285-38.666c6.586,0,12.842,1.399,18.502,3.898
			c6.181-18.007,23.254-30.955,43.363-30.955c21.94,0,40.27,15.41,44.776,35.991c5.637-2.54,11.886-3.965,18.47-3.965
			c12.637,0,24.051,5.212,32.228,13.595c3.015-2.293,6.776-3.656,10.857-3.656c9.915,0,17.952,8.035,17.952,17.946
			c0,0.218-0.009,0.434-0.016,0.65c29.223,3.284,51.939,28.066,51.939,58.157c0,1.608-0.068,3.2-0.195,4.775
			c0.063,0.065,0.132,0.129,0.195,0.194h-0.212H298.999H152.951H23.165c-0.004-0.276-0.011-0.551-0.011-0.828
			C23.155,202.284,23.156,202.267,23.156,202.25z"/>
	</g>
	<g>
		
			<linearGradient id="SVGID_6_" gradientUnits="userSpaceOnUse" x1="2831.5615" y1="255.3202" x2="2831.5615" y2="75.9727" gradientTransform="matrix(-1 0 0 1 3736.9001 0)">
			<stop  offset="4.101825e-007" style="stop-color:#9DCA7E"/>
			<stop  offset="0.2349" style="stop-color:#CDD287"/>
			<stop  offset="0.4485" style="stop-color:#F0D98F"/>
			<stop  offset="0.5591" style="stop-color:#FFDC92"/>
			<stop  offset="0.7164" style="stop-color:#FEE199"/>
			<stop  offset="0.9515" style="stop-color:#FDF1AE"/>
			<stop  offset="1" style="stop-color:#FDF7B4"/>
		</linearGradient>
		<path fill="url(#SVGID_6_)" d="M811.062,197.134c0.013-17.192,13.959-31.125,31.16-31.125c6.095,0,11.78,1.751,16.582,4.775
			c1.464-0.647,3.075-1.022,4.77-1.056c1.652-10.518,10.756-18.564,21.742-18.564c3.162,0,6.165,0.671,8.883,1.872
			c2.967-8.645,11.164-14.861,20.819-14.861c10.534,0,19.334,7.398,21.497,17.279c2.707-1.219,5.706-1.903,8.868-1.903
			c6.067,0,11.547,2.502,15.473,6.527c1.448-1.101,3.253-1.755,5.212-1.755c4.76,0,8.619,3.857,8.619,8.616
			c0,0.105-0.004,0.208-0.008,0.312c14.03,1.577,24.936,13.475,24.936,27.921c0,0.772-0.032,1.536-0.094,2.293
			c0.03,0.031,0.063,0.062,0.094,0.093h-0.102h-56.018h-70.118h-62.311c-0.002-0.133-0.005-0.265-0.005-0.398
			C811.062,197.15,811.062,197.142,811.062,197.134z"/>
	</g>
	<g>
		<polygon fill="#C98558" points="392.885,445.367 391.312,458.693 349.13,459.676 343.791,385.715 300.092,387.643 
			297.879,408.889 269.284,415.42 270.676,360.949 218.024,359.315 218.024,353.323 198.461,346.864 147.438,367.441 
			69.416,369.437 70.235,391.817 54.387,391.817 54.387,399.764 49.458,400.173 49.458,392.41 45.515,392.001 45.515,372.148 
			39.601,372.148 39.601,351.552 32.7,352.778 32.7,331.826 3.127,331.826 3.127,562.939 407.29,562.939 407.29,445.934 		"/>
		<polygon fill="#C98558" points="1891.183,470.002 1873.695,397.025 1829.997,398.953 1827.784,420.199 1812.983,425.032 
			1800.581,372.259 1747.928,370.625 1747.928,364.632 1728.366,358.174 1677.342,378.75 1599.32,380.747 1600.14,403.127 
			1584.292,403.127 1584.292,411.074 1579.363,411.483 1579.363,403.72 1575.42,403.311 1575.42,383.458 1569.505,383.458 
			1569.505,362.862 1562.605,364.088 1562.605,343.136 1516.274,343.136 1516.274,447.029 1467.972,447.438 1467.972,434.363 
			1463.043,432.729 1463.043,428.643 1461.071,429.46 1461.071,432.32 1459.1,432.729 1459.1,447.029 1453.185,445.803 
			1453.185,438.449 1449.242,439.266 1449.242,430.277 1444.313,431.094 1444.313,438.449 1441.356,437.632 1441.356,447.029 
			1434.456,447.438 1434.456,438.532 1431.001,438.532 1428.134,447.383 1423.612,447.383 1423.612,460.104 1413.755,458.878 
			1413.755,449.889 1408.826,450.706 1408.826,442.535 1402.911,440.9 1402.911,430.664 1387.139,430.664 1387.139,465.415 
			1387.139,574.249 1895.793,574.249 1895.793,470.002 		"/>
		<polygon fill="#C98558" points="857.784,464.923 857.784,430.172 873.556,430.172 873.556,440.409 879.471,442.043 
			879.471,450.215 884.4,449.397 884.4,458.386 894.257,459.612 894.257,446.891 898.78,446.891 901.646,438.04 905.101,438.04 
			905.101,446.946 912.001,446.537 912.001,437.14 914.958,437.957 914.958,430.603 919.887,429.786 919.887,438.774 
			923.83,437.957 923.83,445.312 929.745,446.537 929.745,432.237 931.716,431.828 931.716,428.968 933.688,428.151 
			933.688,432.237 938.617,433.871 938.617,446.946 986.919,446.537 986.919,342.644 1033.25,342.644 1033.25,363.596 
			1040.15,362.37 1040.15,382.966 1046.065,382.966 1046.065,402.819 1050.008,403.228 1050.008,410.991 1054.937,410.582 
			1054.937,402.635 1070.785,402.635 1069.966,380.256 1147.987,378.259 1199.011,357.682 1218.573,364.141 1218.573,370.133 
			1271.226,371.767 1283.628,424.54 1298.429,419.707 1300.642,398.461 1344.34,396.533 1361.828,469.511 1391.861,469.511 
			1393.435,456.185 1407.84,456.752 1407.84,573.757 857.784,573.757 		"/>
		<polygon fill="#C98558" points="1648.366,465.415 1648.366,430.664 1632.594,430.664 1632.594,440.9 1626.679,442.535 
			1626.679,450.706 1621.751,449.889 1621.751,458.878 1611.893,460.104 1611.893,447.383 1607.371,447.383 1604.504,438.532 
			1601.05,438.532 1601.05,447.438 1594.149,447.029 1594.149,437.632 1591.192,438.449 1591.192,431.094 1586.263,430.277 
			1586.263,439.266 1582.32,438.449 1582.32,445.803 1576.406,447.029 1576.406,432.729 1574.434,432.32 1574.434,429.46 
			1572.463,428.643 1572.463,432.729 1567.534,434.363 1567.534,447.438 1519.231,447.029 1519.231,343.136 1472.9,343.136 
			1472.9,364.088 1466,362.862 1466,383.458 1460.085,383.458 1460.085,403.311 1456.142,403.72 1456.142,411.483 1451.214,411.074 
			1451.214,403.127 1435.366,403.127 1436.185,380.747 1358.163,378.75 1307.14,358.174 1287.577,364.632 1287.577,370.625 
			1234.924,372.259 1222.523,425.032 1207.721,420.199 1205.508,398.953 1161.81,397.025 1144.322,470.002 1114.289,470.002 
			1112.716,456.677 1098.31,457.244 1098.31,574.249 1648.366,574.249 		"/>
		<polygon fill="#C98558" points="946.503,454.105 946.503,419.354 930.731,419.354 930.731,429.591 924.816,431.225 
			924.816,439.397 919.887,438.579 919.887,447.568 910.03,448.794 910.03,436.073 905.508,436.073 902.641,427.222 
			899.186,427.222 899.186,436.128 892.286,435.719 892.286,426.322 889.329,427.139 889.329,419.785 884.4,418.968 884.4,427.956 
			880.457,427.139 880.457,434.494 874.542,435.719 874.542,421.419 872.571,421.01 872.571,418.15 870.599,417.333 
			870.599,421.419 865.67,423.053 865.67,436.128 817.368,435.719 817.368,331.826 771.037,331.826 771.037,352.778 
			764.137,351.552 764.137,372.148 758.222,372.148 758.222,392.001 754.279,392.41 754.279,400.173 749.35,399.764 749.35,391.817 
			733.502,391.817 730.621,371.165 656.3,367.441 605.276,346.864 585.714,353.323 585.714,359.315 533.061,360.949 535.44,406.569 
			505.858,408.889 503.645,387.643 446.721,388.867 442.458,458.693 412.426,458.693 410.853,445.367 396.447,445.934 
			396.447,562.939 946.503,562.939 		"/>
		<path fill="#F2A670" d="M387.363,316.834c5.187-1.907,3.933,16.343,3.933,16.343c3.549,0,2.406,13.892,2.406,13.892
			c6.826,0,2.662,12.291,3.993,13.619c4.44,4.43-0.424,5.448,6.128,15.254c6.553,9.806,5.923,20.701,5.923,20.701v159.412h-44.359
			V396.643c0,0,0.011-10.895,6.564-20.701c6.553-9.806,2.254-10.824,6.695-15.254c1.331-1.328-2.796-13.619,4.03-13.619
			c0,0-1.125-13.892,2.425-13.892c0,0-1.655-18.25,3.533-16.343"/>
		<polygon fill="#F2A670" points="797.154,555.072 797.154,390.757 795.183,388.918 795.183,364.281 789.268,364.281 
			789.268,326.909 783.353,326.909 783.353,318.058 780.396,318.058 780.396,311.174 773.496,311.174 773.496,302.323 
			768.567,302.323 768.567,292.488 765.61,292.488 765.61,283.637 762.652,283.637 762.652,277.736 762.652,277.736 
			759.796,277.736 757.724,277.736 757.724,283.637 752.795,283.637 752.795,292.488 750.823,292.488 750.823,302.323 
			744.909,302.323 744.909,311.174 740.966,311.174 740.966,318.058 736.037,318.058 736.037,326.909 730.122,326.909 
			730.122,364.281 725.193,364.281 725.193,388.918 722.236,390.757 722.236,555.072 		"/>
		<polygon fill="#F2A670" points="323.008,558.022 323.008,407.692 319.065,406.009 319.065,383.95 308.221,383.95 308.221,349.529 
			297.378,349.529 297.378,341.661 292.449,341.661 292.449,334.777 279.634,334.777 279.634,326.909 270.762,326.909 
			270.762,318.058 264.848,318.058 264.848,309.207 259.919,309.207 259.919,304.29 259.919,304.29 254.682,304.29 251.047,304.29 
			251.047,309.207 242.175,309.207 242.175,318.058 238.232,318.058 238.232,326.909 227.389,326.909 227.389,334.777 
			220.488,334.777 220.488,341.661 211.616,341.661 211.616,349.529 200.773,349.529 200.773,383.95 190.915,383.95 
			190.915,406.009 185.987,407.692 185.987,558.022 		"/>
		<polygon fill="#F2A670" points="1894.149,524.229 1893.541,462.125 1885.318,454.448 1884.449,442.957 1867.481,442.957 
			1866.916,453.903 1860.694,454.337 1860.718,476.072 1857.348,477.106 1857.348,493.994 1850.962,494.539 1849.735,483.643 
			1840.59,481.464 1840.59,467.845 1834.676,466.756 1834.676,458.039 1804.559,457.222 1804.347,470.297 1730.432,466.211 
			1724.017,483.099 1594.259,484.188 1593.786,495.56 1536.602,495.872 1535.482,457.709 1486.559,457.709 1487.407,546.536 
			1478.075,546.823 1477.792,462.186 1449.23,442.544 1447.816,470.312 1442.726,473.006 1441.029,462.626 1438.202,462.626 
			1436.505,469.511 1427.555,469.511 1427.555,509.833 1400.969,509.833 1401.817,554.088 1390.096,554.088 1390.096,546.625 
			1371.367,545.808 1371.367,554.088 1355.156,554.088 1355.722,531.469 1338.189,531.469 1337.058,481.312 1300.86,481.312 
			1300.295,498.031 1290.68,498.031 1290.114,508.849 1282.648,508.849 1282.648,527.013 1280.018,526.196 1279.41,464.092 
			1271.188,456.415 1270.318,444.924 1253.351,444.924 1252.785,455.87 1246.564,456.304 1246.588,478.039 1243.218,479.073 
			1243.218,495.961 1236.831,496.506 1235.604,485.61 1226.46,483.431 1226.46,469.812 1220.545,468.722 1220.545,460.006 
			1190.429,459.189 1190.217,467.028 1116.302,468.178 1116.054,485.066 980.129,486.155 979.656,497.527 922.472,497.839 
			921.352,459.676 872.429,459.676 873.277,548.503 863.945,548.79 863.662,464.153 835.1,444.511 833.686,472.279 828.596,474.973 
			826.899,464.593 824.071,464.593 822.374,471.478 813.425,471.478 813.425,509.833 786.838,509.833 787.687,554.088 
			775.966,554.088 775.966,546.625 757.236,545.808 757.236,554.088 741.026,554.088 741.591,531.469 724.058,531.469 
			722.927,481.312 686.73,481.312 686.164,498.031 676.549,498.031 675.983,508.849 668.518,508.849 668.518,527.013 
			665.888,526.196 665.28,464.092 657.058,456.415 656.188,444.924 639.22,444.924 638.655,455.87 632.433,456.304 632.457,478.039 
			629.087,479.073 629.087,495.961 622.701,496.506 621.474,485.61 612.329,483.431 612.329,469.812 606.415,468.722 
			606.415,460.006 576.298,459.189 576.147,468.516 502.172,468.178 495.756,485.066 365.998,486.155 365.525,497.527 
			308.342,497.839 307.221,459.676 258.298,459.676 258.768,508.849 249.681,508.849 249.532,464.153 220.97,444.511 
			219.556,472.279 214.465,474.973 212.768,464.593 209.941,464.593 208.244,471.478 199.294,471.478 199.294,553.105 
			188.998,553.105 189.564,530.485 172.031,530.485 170.9,480.329 134.702,480.329 134.137,497.048 124.522,497.048 
			123.956,507.866 116.49,507.866 116.49,526.03 113.86,525.213 113.252,455.496 106.016,455.431 103.175,443.941 90.15,443.941 
			87.613,454.887 80.406,455.32 80.263,495.961 69.687,495.522 69.447,482.66 60.302,482.448 60.302,468.829 54.387,467.739 
			54.387,459.023 24.271,458.206 24.059,471.28 3.127,471.106 3.127,571.79 199.294,571.79 199.294,572.774 813.425,572.774 
			1427.555,572.774 1427.555,570.807 1895.793,570.807 1895.793,524.74 		"/>
		<polygon fill="#F2A670" points="905.104,369.198 905.104,575.724 962.278,575.724 962.278,369.198 949.761,369.198 
			948.942,340.678 943.209,340.678 942.757,348.065 938.62,347.894 938.62,332.81 926.79,332.81 926.79,349.529 925.803,349.529 
			925.463,342.278 916.933,340.744 916.933,369.198 		"/>
		<path fill="#F2A670" d="M1414.276,282.712c3.989-2.218,3.024,19.01,3.024,19.01c2.729,0,1.85,16.159,1.85,16.159
			c5.249,0,2.047,14.297,3.07,15.842c3.414,5.153-0.476,6.337,4.562,17.743c5.038,11.406,4.405,24.08,4.405,24.08v185.427h-33.516
			V375.546c0,0-0.138-12.674,4.9-24.08s1.66-12.59,5.074-17.743c1.024-1.545-2.187-15.842,3.062-15.842
			c0,0-0.883-16.159,1.846-16.159c0,0-1.281-21.228,2.707-19.01"/>
		<g>
			<rect x="479.251" y="386.9" fill="#C9A172" width="60.132" height="185.874"/>
			<rect x="487.137" y="394.768" fill="#FFFFFF" width="5.915" height="16.719"/>
			<rect x="498.966" y="394.768" fill="#FFFFFF" width="5.915" height="16.719"/>
			<rect x="509.81" y="394.768" fill="#FFFFFF" width="6.9" height="16.719"/>
			<rect x="487.137" y="415.42" fill="#FFFFFF" width="5.915" height="16.719"/>
			<rect x="498.966" y="415.42" fill="#FFFFFF" width="5.915" height="16.719"/>
			<rect x="509.81" y="415.42" fill="#FFFFFF" width="6.9" height="16.719"/>
			<rect x="522.625" y="415.42" fill="#FFFFFF" width="6.9" height="16.719"/>
			<rect x="498.966" y="437.056" fill="#FFFFFF" width="5.915" height="15.735"/>
			<rect x="509.81" y="475.411" fill="#FFFFFF" width="6.9" height="16.719"/>
			<rect x="522.625" y="475.411" fill="#FFFFFF" width="6.9" height="16.719"/>
			<rect x="498.966" y="510.816" fill="#FFFFFF" width="5.915" height="15.735"/>
			<rect x="487.137" y="475.411" fill="#FFFFFF" width="5.915" height="16.719"/>
			<rect x="509.81" y="454.759" fill="#FFFFFF" width="6.9" height="15.735"/>
			<rect x="509.81" y="510.816" fill="#FFFFFF" width="6.9" height="15.735"/>
			<rect x="522.625" y="510.816" fill="#FFFFFF" width="6.9" height="15.735"/>
			<rect x="487.137" y="534.419" fill="#FFFFFF" width="5.915" height="14.752"/>
			<rect x="498.966" y="534.419" fill="#FFFFFF" width="5.915" height="14.752"/>
			<rect x="509.81" y="534.419" fill="#FFFFFF" width="6.9" height="14.752"/>
			<rect x="522.625" y="534.419" fill="#FFFFFF" width="6.9" height="14.752"/>
		</g>
		<g>
			<rect x="1619.972" y="215.253" fill="#F2A670" width="79.07" height="25.356"/>
			<polygon fill="#F2A670" points="1616.101,535.019 1609.922,241.041 1659.148,223.14 1712.293,241.043 1704.322,535.019 			"/>
			<rect x="1616.442" y="535.019" fill="#F2A670" width="88.954" height="38.738"/>
			<g>
				<rect x="1651.741" y="175.811" fill="#F2A670" width="15.532" height="78.181"/>
				
					<line fill="none" stroke="#F2A670" stroke-width="6.9318" stroke-miterlimit="10" x1="1657.389" y1="185.671" x2="1657.389" y2="127.916"/>
			</g>
		</g>
		<g>
			<rect x="569.629" y="309.35" fill="#C9A172" width="43.115" height="38.145"/>
			<rect x="574.51" y="315.031" fill="#FFFFFF" width="32.54" height="26.783"/>
			<polygon fill="#C9A172" points="559.054,573.118 627.066,573.118 621.086,347.495 559.054,347.495 			"/>
			<g>
				<rect x="571.256" y="402.683" fill="#FFFFFF" width="41.488" height="159.884"/>
				<rect x="571.256" y="358.045" fill="#FFFFFF" width="41.488" height="35.71"/>
				
					<line fill="none" stroke="#C9A172" stroke-width="3.4659" stroke-miterlimit="10" x1="602.983" y1="347.495" x2="602.983" y2="565.002"/>
				
					<line fill="none" stroke="#C9A172" stroke-width="3.4659" stroke-miterlimit="10" x1="622.506" y1="367.785" x2="566.375" y2="367.785"/>
				
					<line fill="none" stroke="#C9A172" stroke-width="3.4659" stroke-miterlimit="10" x1="622.506" y1="412.422" x2="566.375" y2="412.422"/>
				
					<line fill="none" stroke="#C9A172" stroke-width="3.4659" stroke-miterlimit="10" x1="620.066" y1="422.973" x2="562.308" y2="422.973"/>
				
					<line fill="none" stroke="#C9A172" stroke-width="3.4659" stroke-miterlimit="10" x1="581.832" y1="358.046" x2="581.832" y2="565.002"/>
				
					<line fill="none" stroke="#C9A172" stroke-width="3.4659" stroke-miterlimit="10" x1="620.066" y1="378.335" x2="562.308" y2="378.335"/>
				
					<line fill="none" stroke="#C9A172" stroke-width="3.4659" stroke-miterlimit="10" x1="622.506" y1="388.074" x2="566.375" y2="388.074"/>
				
					<line fill="none" stroke="#C9A172" stroke-width="3.4659" stroke-miterlimit="10" x1="592.407" y1="315.031" x2="592.407" y2="565.002"/>
				
					<line fill="none" stroke="#C9A172" stroke-width="3.4659" stroke-miterlimit="10" x1="620.066" y1="431.089" x2="562.308" y2="431.089"/>
				
					<line fill="none" stroke="#C9A172" stroke-width="3.4659" stroke-miterlimit="10" x1="620.066" y1="461.118" x2="562.308" y2="461.118"/>
				
					<line fill="none" stroke="#C9A172" stroke-width="3.4659" stroke-miterlimit="10" x1="618.439" y1="470.857" x2="561.494" y2="470.857"/>
				
					<line fill="none" stroke="#C9A172" stroke-width="3.4659" stroke-miterlimit="10" x1="618.439" y1="440.828" x2="561.494" y2="440.828"/>
				
					<line fill="none" stroke="#C9A172" stroke-width="3.4659" stroke-miterlimit="10" x1="620.066" y1="450.567" x2="562.308" y2="450.567"/>
				
					<line fill="none" stroke="#C9A172" stroke-width="3.4659" stroke-miterlimit="10" x1="620.066" y1="479.784" x2="562.308" y2="479.784"/>
				
					<line fill="none" stroke="#C9A172" stroke-width="3.4659" stroke-miterlimit="10" x1="618.439" y1="491.147" x2="561.494" y2="491.147"/>
				
					<line fill="none" stroke="#C9A172" stroke-width="3.4659" stroke-miterlimit="10" x1="618.439" y1="500.074" x2="561.494" y2="500.074"/>
				
					<line fill="none" stroke="#C9A172" stroke-width="3.4659" stroke-miterlimit="10" x1="618.439" y1="529.292" x2="561.494" y2="529.292"/>
				
					<line fill="none" stroke="#C9A172" stroke-width="3.4659" stroke-miterlimit="10" x1="622.506" y1="538.219" x2="566.375" y2="538.219"/>
				
					<line fill="none" stroke="#C9A172" stroke-width="3.4659" stroke-miterlimit="10" x1="622.506" y1="509.813" x2="566.375" y2="509.813"/>
				
					<line fill="none" stroke="#C9A172" stroke-width="3.4659" stroke-miterlimit="10" x1="618.439" y1="519.553" x2="561.494" y2="519.553"/>
				
					<line fill="none" stroke="#C9A172" stroke-width="3.4659" stroke-miterlimit="10" x1="620.066" y1="547.147" x2="562.308" y2="547.147"/>
				
					<line fill="none" stroke="#C9A172" stroke-width="3.4659" stroke-miterlimit="10" x1="618.439" y1="557.697" x2="561.494" y2="557.697"/>
			</g>
			
				<line fill="none" stroke="#C9A172" stroke-width="3.4659" stroke-miterlimit="10" x1="609.491" y1="328.828" x2="572.883" y2="328.828"/>
			<polygon fill="#C9A172" points="620.879,573.118 691.653,573.118 691.653,377.422 620.879,347.591 			"/>
			<polygon fill="#FFFFFF" points="618.439,562.571 684.332,562.162 684.332,385.344 618.439,358.33 			"/>
			<g>
				
					<line fill="none" stroke="#C9A172" stroke-width="3.4659" stroke-miterlimit="10" x1="656.673" y1="367.785" x2="656.673" y2="562.567"/>
				
					<line fill="none" stroke="#C9A172" stroke-width="3.4659" stroke-miterlimit="10" x1="663.181" y1="369.408" x2="615.998" y2="369.408"/>
				
					<line fill="none" stroke="#C9A172" stroke-width="3.4659" stroke-miterlimit="10" x1="686.772" y1="379.959" x2="615.998" y2="379.959"/>
				
					<line fill="none" stroke="#C9A172" stroke-width="3.4659" stroke-miterlimit="10" x1="635.522" y1="357.234" x2="635.522" y2="562.567"/>
				
					<line fill="none" stroke="#C9A172" stroke-width="3.4659" stroke-miterlimit="10" x1="646.098" y1="362.103" x2="646.098" y2="562.567"/>
				
					<line fill="none" stroke="#C9A172" stroke-width="3.4659" stroke-miterlimit="10" x1="686.772" y1="388.074" x2="615.998" y2="388.074"/>
				
					<line fill="none" stroke="#C9A172" stroke-width="3.4659" stroke-miterlimit="10" x1="686.772" y1="418.103" x2="615.998" y2="418.103"/>
				
					<line fill="none" stroke="#C9A172" stroke-width="3.4659" stroke-miterlimit="10" x1="686.772" y1="427.843" x2="615.185" y2="427.843"/>
				
					<line fill="none" stroke="#C9A172" stroke-width="3.4659" stroke-miterlimit="10" x1="686.869" y1="396.515" x2="615.106" y2="397.708"/>
				
					<line fill="none" stroke="#C9A172" stroke-width="3.4659" stroke-miterlimit="10" x1="686.772" y1="407.553" x2="615.998" y2="407.553"/>
				
					<line fill="none" stroke="#C9A172" stroke-width="3.4659" stroke-miterlimit="10" x1="686.772" y1="436.77" x2="615.998" y2="436.77"/>
				
					<line fill="none" stroke="#C9A172" stroke-width="3.4659" stroke-miterlimit="10" x1="686.772" y1="448.132" x2="615.185" y2="448.132"/>
				
					<line fill="none" stroke="#C9A172" stroke-width="3.4659" stroke-miterlimit="10" x1="686.772" y1="457.06" x2="615.185" y2="457.06"/>
				
					<line fill="none" stroke="#C9A172" stroke-width="3.4659" stroke-miterlimit="10" x1="686.772" y1="486.277" x2="615.185" y2="486.277"/>
				
					<line fill="none" stroke="#C9A172" stroke-width="3.4659" stroke-miterlimit="10" x1="686.869" y1="495.556" x2="616.302" y2="496.749"/>
				
					<line fill="none" stroke="#C9A172" stroke-width="3.4659" stroke-miterlimit="10" x1="686.772" y1="466.799" x2="615.998" y2="466.799"/>
				
					<line fill="none" stroke="#C9A172" stroke-width="3.4659" stroke-miterlimit="10" x1="686.772" y1="476.538" x2="615.185" y2="476.538"/>
				
					<line fill="none" stroke="#C9A172" stroke-width="3.4659" stroke-miterlimit="10" x1="686.772" y1="504.132" x2="615.998" y2="504.132"/>
				
					<line fill="none" stroke="#C9A172" stroke-width="3.4659" stroke-miterlimit="10" x1="686.772" y1="514.683" x2="615.185" y2="514.683"/>
				
					<line fill="none" stroke="#C9A172" stroke-width="3.4659" stroke-miterlimit="10" x1="668.062" y1="375.089" x2="668.062" y2="565.813"/>
				
					<line fill="none" stroke="#C9A172" stroke-width="3.4659" stroke-miterlimit="10" x1="678.638" y1="375.089" x2="678.638" y2="565.002"/>
				
					<line fill="none" stroke="#C9A172" stroke-width="3.4659" stroke-miterlimit="10" x1="625.76" y1="355.611" x2="625.76" y2="562.567"/>
				
					<line fill="none" stroke="#C9A172" stroke-width="3.4659" stroke-miterlimit="10" x1="688.399" y1="543.089" x2="615.998" y2="543.089"/>
				
					<line fill="none" stroke="#C9A172" stroke-width="3.4659" stroke-miterlimit="10" x1="688.065" y1="552.832" x2="617.498" y2="554.025"/>
				
					<line fill="none" stroke="#C9A172" stroke-width="3.4659" stroke-miterlimit="10" x1="688.399" y1="524.422" x2="617.625" y2="524.422"/>
				
					<line fill="none" stroke="#C9A172" stroke-width="3.4659" stroke-miterlimit="10" x1="688.399" y1="533.35" x2="615.998" y2="533.35"/>
			</g>
		</g>
		<g>
			<rect x="1605.221" y="393.756" fill="#C9A172" width="29.286" height="25.971"/>
			<rect x="1609.288" y="397.814" fill="#FFFFFF" width="21.964" height="17.855"/>
			<polygon fill="#C9A172" points="1641.828,573.118 1595.459,573.118 1599.526,419.727 1641.828,419.727 			"/>
			<g>
				<rect x="1605.221" y="457.06" fill="#FFFFFF" width="28.472" height="108.753"/>
				<rect x="1605.221" y="427.031" fill="#FFFFFF" width="28.472" height="24.348"/>
				
					<line fill="none" stroke="#C9A172" stroke-width="3.4659" stroke-miterlimit="10" x1="1611.729" y1="419.727" x2="1611.729" y2="567.437"/>
				
					<line fill="none" stroke="#C9A172" stroke-width="3.4659" stroke-miterlimit="10" x1="1598.713" y1="433.524" x2="1636.947" y2="433.524"/>
				
					<line fill="none" stroke="#C9A172" stroke-width="3.4659" stroke-miterlimit="10" x1="1598.713" y1="463.553" x2="1636.947" y2="463.553"/>
				
					<line fill="none" stroke="#C9A172" stroke-width="3.4659" stroke-miterlimit="10" x1="1600.34" y1="470.857" x2="1639.387" y2="470.857"/>
				
					<line fill="none" stroke="#C9A172" stroke-width="3.4659" stroke-miterlimit="10" x1="1626.371" y1="427.031" x2="1626.371" y2="567.437"/>
				
					<line fill="none" stroke="#C9A172" stroke-width="3.4659" stroke-miterlimit="10" x1="1600.34" y1="440.828" x2="1639.387" y2="440.828"/>
				
					<line fill="none" stroke="#C9A172" stroke-width="3.4659" stroke-miterlimit="10" x1="1598.713" y1="447.321" x2="1636.947" y2="447.321"/>
				
					<line fill="none" stroke="#C9A172" stroke-width="3.4659" stroke-miterlimit="10" x1="1619.05" y1="397.814" x2="1619.05" y2="567.437"/>
				
					<line fill="none" stroke="#C9A172" stroke-width="3.4659" stroke-miterlimit="10" x1="1600.34" y1="476.538" x2="1639.387" y2="476.538"/>
				
					<line fill="none" stroke="#C9A172" stroke-width="3.4659" stroke-miterlimit="10" x1="1600.34" y1="496.828" x2="1639.387" y2="496.828"/>
				
					<line fill="none" stroke="#C9A172" stroke-width="3.4659" stroke-miterlimit="10" x1="1601.153" y1="503.321" x2="1640.201" y2="503.321"/>
				
					<line fill="none" stroke="#C9A172" stroke-width="3.4659" stroke-miterlimit="10" x1="1601.153" y1="483.031" x2="1640.201" y2="483.031"/>
				
					<line fill="none" stroke="#C9A172" stroke-width="3.4659" stroke-miterlimit="10" x1="1600.34" y1="489.524" x2="1639.387" y2="489.524"/>
				
					<line fill="none" stroke="#C9A172" stroke-width="3.4659" stroke-miterlimit="10" x1="1600.34" y1="509.813" x2="1639.387" y2="509.813"/>
				
					<line fill="none" stroke="#C9A172" stroke-width="3.4659" stroke-miterlimit="10" x1="1601.153" y1="517.118" x2="1640.201" y2="517.118"/>
				
					<line fill="none" stroke="#C9A172" stroke-width="3.4659" stroke-miterlimit="10" x1="1601.153" y1="523.611" x2="1640.201" y2="523.611"/>
				
					<line fill="none" stroke="#C9A172" stroke-width="3.4659" stroke-miterlimit="10" x1="1601.153" y1="543.089" x2="1640.201" y2="543.089"/>
				
					<line fill="none" stroke="#C9A172" stroke-width="3.4659" stroke-miterlimit="10" x1="1598.713" y1="549.581" x2="1636.947" y2="549.581"/>
				
					<line fill="none" stroke="#C9A172" stroke-width="3.4659" stroke-miterlimit="10" x1="1598.713" y1="530.103" x2="1636.947" y2="530.103"/>
				
					<line fill="none" stroke="#C9A172" stroke-width="3.4659" stroke-miterlimit="10" x1="1601.153" y1="536.596" x2="1640.201" y2="536.596"/>
				
					<line fill="none" stroke="#C9A172" stroke-width="3.4659" stroke-miterlimit="10" x1="1600.34" y1="555.263" x2="1639.387" y2="555.263"/>
				
					<line fill="none" stroke="#C9A172" stroke-width="3.4659" stroke-miterlimit="10" x1="1601.153" y1="562.567" x2="1640.201" y2="562.567"/>
			</g>
			
				<line fill="none" stroke="#C9A172" stroke-width="3.4659" stroke-miterlimit="10" x1="1607.661" y1="406.741" x2="1632.066" y2="406.741"/>
			<polygon fill="#C9A172" points="1599.526,573.118 1551.53,573.118 1551.53,440.016 1599.526,419.727 			"/>
			<polygon fill="#FFFFFF" points="1601.153,565.945 1556.411,565.666 1556.411,445.404 1601.153,427.031 			"/>
			<g>
				
					<line fill="none" stroke="#C9A172" stroke-width="3.4659" stroke-miterlimit="10" x1="1575.121" y1="433.524" x2="1575.121" y2="565.813"/>
				
					<line fill="none" stroke="#C9A172" stroke-width="3.4659" stroke-miterlimit="10" x1="1571.054" y1="434.335" x2="1602.78" y2="434.335"/>
				
					<line fill="none" stroke="#C9A172" stroke-width="3.4659" stroke-miterlimit="10" x1="1554.784" y1="441.64" x2="1602.78" y2="441.64"/>
				
					<line fill="none" stroke="#C9A172" stroke-width="3.4659" stroke-miterlimit="10" x1="1589.764" y1="426.219" x2="1589.764" y2="565.813"/>
				
					<line fill="none" stroke="#C9A172" stroke-width="3.4659" stroke-miterlimit="10" x1="1582.443" y1="429.466" x2="1582.443" y2="565.813"/>
				
					<line fill="none" stroke="#C9A172" stroke-width="3.4659" stroke-miterlimit="10" x1="1554.784" y1="447.321" x2="1602.78" y2="447.321"/>
				
					<line fill="none" stroke="#C9A172" stroke-width="3.4659" stroke-miterlimit="10" x1="1554.784" y1="467.611" x2="1602.78" y2="467.611"/>
				
					<line fill="none" stroke="#C9A172" stroke-width="3.4659" stroke-miterlimit="10" x1="1554.784" y1="474.103" x2="1603.594" y2="474.103"/>
				
					<line fill="none" stroke="#C9A172" stroke-width="3.4659" stroke-miterlimit="10" x1="1554.784" y1="453.002" x2="1603.594" y2="453.814"/>
				
					<line fill="none" stroke="#C9A172" stroke-width="3.4659" stroke-miterlimit="10" x1="1554.784" y1="460.306" x2="1602.78" y2="460.306"/>
				
					<line fill="none" stroke="#C9A172" stroke-width="3.4659" stroke-miterlimit="10" x1="1554.784" y1="480.596" x2="1602.78" y2="480.596"/>
				
					<line fill="none" stroke="#C9A172" stroke-width="3.4659" stroke-miterlimit="10" x1="1554.784" y1="487.9" x2="1603.594" y2="487.9"/>
				
					<line fill="none" stroke="#C9A172" stroke-width="3.4659" stroke-miterlimit="10" x1="1554.784" y1="494.393" x2="1603.594" y2="494.393"/>
				
					<line fill="none" stroke="#C9A172" stroke-width="3.4659" stroke-miterlimit="10" x1="1554.784" y1="513.871" x2="1603.594" y2="513.871"/>
				
					<line fill="none" stroke="#C9A172" stroke-width="3.4659" stroke-miterlimit="10" x1="1554.784" y1="520.364" x2="1602.78" y2="521.176"/>
				
					<line fill="none" stroke="#C9A172" stroke-width="3.4659" stroke-miterlimit="10" x1="1554.784" y1="500.886" x2="1602.78" y2="500.886"/>
				
					<line fill="none" stroke="#C9A172" stroke-width="3.4659" stroke-miterlimit="10" x1="1554.784" y1="507.379" x2="1603.594" y2="507.379"/>
				
					<line fill="none" stroke="#C9A172" stroke-width="3.4659" stroke-miterlimit="10" x1="1554.784" y1="526.045" x2="1602.78" y2="526.045"/>
				
					<line fill="none" stroke="#C9A172" stroke-width="3.4659" stroke-miterlimit="10" x1="1554.784" y1="533.35" x2="1603.594" y2="533.35"/>
				
					<line fill="none" stroke="#C9A172" stroke-width="3.4659" stroke-miterlimit="10" x1="1567.8" y1="438.393" x2="1567.8" y2="568.248"/>
				
					<line fill="none" stroke="#C9A172" stroke-width="3.4659" stroke-miterlimit="10" x1="1560.479" y1="438.393" x2="1560.479" y2="567.437"/>
				
					<line fill="none" stroke="#C9A172" stroke-width="3.4659" stroke-miterlimit="10" x1="1596.272" y1="425.408" x2="1596.272" y2="565.813"/>
				
					<line fill="none" stroke="#C9A172" stroke-width="3.4659" stroke-miterlimit="10" x1="1553.97" y1="552.828" x2="1602.78" y2="552.828"/>
				
					<line fill="none" stroke="#C9A172" stroke-width="3.4659" stroke-miterlimit="10" x1="1553.97" y1="559.321" x2="1601.967" y2="560.132"/>
				
					<line fill="none" stroke="#C9A172" stroke-width="3.4659" stroke-miterlimit="10" x1="1553.97" y1="539.842" x2="1601.967" y2="539.842"/>
				
					<line fill="none" stroke="#C9A172" stroke-width="3.4659" stroke-miterlimit="10" x1="1553.97" y1="546.335" x2="1602.78" y2="546.335"/>
			</g>
		</g>
		<g>
			<polygon fill="#C9A172" points="1241.659,573.929 1123.702,573.929 1123.702,314.219 1241.659,276.886 			"/>
			
				<line fill="none" stroke="#FFFFFF" stroke-width="10.3977" stroke-miterlimit="10" x1="1152.175" y1="305.292" x2="1152.175" y2="573.929"/>
			
				<line fill="none" stroke="#FFFFFF" stroke-width="10.3977" stroke-miterlimit="10" x1="1210.746" y1="289.06" x2="1210.746" y2="573.929"/>
			<rect x="1172.512" y="532.538" fill="#FFFFFF" width="17.897" height="40.58"/>
		</g>
		<g>
			<rect x="959.696" y="429.466" fill="#C9A172" width="94.365" height="143.652"/>
			<rect x="984.915" y="483.842" fill="#FFFFFF" width="14.643" height="4.87"/>
			<rect x="984.915" y="493.582" fill="#FFFFFF" width="14.643" height="4.87"/>
			<rect x="984.915" y="502.509" fill="#FFFFFF" width="14.643" height="5.681"/>
			<rect x="967.831" y="483.842" fill="#FFFFFF" width="13.829" height="4.87"/>
			<rect x="967.831" y="493.582" fill="#FFFFFF" width="13.829" height="4.87"/>
			<rect x="967.831" y="502.509" fill="#FFFFFF" width="13.829" height="5.681"/>
			<rect x="967.831" y="513.06" fill="#FFFFFF" width="13.829" height="5.681"/>
			<rect x="1032.911" y="451.379" fill="#FFFFFF" width="13.016" height="4.87"/>
			<rect x="1015.014" y="460.306" fill="#FFFFFF" width="13.829" height="5.681"/>
			<rect x="1015.014" y="470.857" fill="#FFFFFF" width="13.829" height="5.681"/>
			<rect x="984.915" y="451.379" fill="#FFFFFF" width="14.643" height="4.87"/>
			<rect x="1015.014" y="441.64" fill="#FFFFFF" width="13.829" height="4.87"/>
			<rect x="1032.911" y="460.306" fill="#FFFFFF" width="13.016" height="5.681"/>
			<rect x="984.915" y="460.306" fill="#FFFFFF" width="14.643" height="5.681"/>
			<rect x="984.915" y="470.857" fill="#FFFFFF" width="14.643" height="5.681"/>
			<rect x="967.831" y="441.64" fill="#FFFFFF" width="13.829" height="4.87"/>
			<rect x="967.831" y="451.379" fill="#FFFFFF" width="13.829" height="4.87"/>
			<rect x="967.831" y="460.306" fill="#FFFFFF" width="13.829" height="5.681"/>
			<rect x="967.831" y="470.857" fill="#FFFFFF" width="13.829" height="5.681"/>
			<rect x="985.728" y="555.263" fill="#FFFFFF" width="13.829" height="4.87"/>
			<rect x="1015.014" y="502.509" fill="#FFFFFF" width="13.829" height="4.87"/>
			<rect x="1015.014" y="542.277" fill="#FFFFFF" width="13.829" height="5.681"/>
			<rect x="1015.014" y="555.263" fill="#FFFFFF" width="13.829" height="5.681"/>
			<rect x="985.728" y="513.06" fill="#FFFFFF" width="13.829" height="4.87"/>
			<rect x="985.728" y="522.799" fill="#FFFFFF" width="13.829" height="4.87"/>
			<rect x="967.831" y="531.726" fill="#FFFFFF" width="13.829" height="5.681"/>
			<rect x="985.728" y="542.277" fill="#FFFFFF" width="13.829" height="5.681"/>
			<rect x="967.831" y="556.074" fill="#FFFFFF" width="13.829" height="4.87"/>
			<rect x="1032.097" y="532.538" fill="#FFFFFF" width="13.829" height="4.87"/>
			<rect x="1032.097" y="522.799" fill="#FFFFFF" width="13.829" height="4.87"/>
			<rect x="1015.014" y="513.871" fill="#FFFFFF" width="13.829" height="4.87"/>
		</g>
		<g>
			<rect x="1068.129" y="421.35" fill="#C9A172" width="47.996" height="153.391"/>
			<g>
				<rect x="1077.89" y="458.683" fill="#FFFFFF" width="28.472" height="108.753"/>
				<rect x="1077.89" y="428.654" fill="#FFFFFF" width="28.472" height="24.348"/>
				
					<line fill="none" stroke="#C9A172" stroke-width="3.4659" stroke-miterlimit="10" x1="1084.398" y1="421.35" x2="1084.398" y2="569.06"/>
				
					<line fill="none" stroke="#C9A172" stroke-width="3.4659" stroke-miterlimit="10" x1="1071.382" y1="435.147" x2="1109.617" y2="435.147"/>
				
					<line fill="none" stroke="#C9A172" stroke-width="3.4659" stroke-miterlimit="10" x1="1071.382" y1="465.176" x2="1109.617" y2="465.176"/>
				
					<line fill="none" stroke="#C9A172" stroke-width="3.4659" stroke-miterlimit="10" x1="1073.01" y1="472.48" x2="1112.057" y2="472.48"/>
				
					<line fill="none" stroke="#C9A172" stroke-width="3.4659" stroke-miterlimit="10" x1="1099.041" y1="428.654" x2="1099.041" y2="569.06"/>
				
					<line fill="none" stroke="#C9A172" stroke-width="3.4659" stroke-miterlimit="10" x1="1073.01" y1="442.451" x2="1112.057" y2="442.451"/>
				
					<line fill="none" stroke="#C9A172" stroke-width="3.4659" stroke-miterlimit="10" x1="1071.382" y1="448.944" x2="1109.617" y2="448.944"/>
				
					<line fill="none" stroke="#C9A172" stroke-width="3.4659" stroke-miterlimit="10" x1="1091.72" y1="428.654" x2="1091.72" y2="569.06"/>
				
					<line fill="none" stroke="#C9A172" stroke-width="3.4659" stroke-miterlimit="10" x1="1073.01" y1="478.161" x2="1112.057" y2="478.161"/>
				
					<line fill="none" stroke="#C9A172" stroke-width="3.4659" stroke-miterlimit="10" x1="1073.01" y1="498.451" x2="1112.057" y2="498.451"/>
				
					<line fill="none" stroke="#C9A172" stroke-width="3.4659" stroke-miterlimit="10" x1="1073.823" y1="504.944" x2="1112.871" y2="504.944"/>
				
					<line fill="none" stroke="#C9A172" stroke-width="3.4659" stroke-miterlimit="10" x1="1073.823" y1="484.654" x2="1112.871" y2="484.654"/>
				
					<line fill="none" stroke="#C9A172" stroke-width="3.4659" stroke-miterlimit="10" x1="1073.01" y1="491.147" x2="1112.057" y2="491.147"/>
				
					<line fill="none" stroke="#C9A172" stroke-width="3.4659" stroke-miterlimit="10" x1="1073.01" y1="511.437" x2="1112.057" y2="511.437"/>
				
					<line fill="none" stroke="#C9A172" stroke-width="3.4659" stroke-miterlimit="10" x1="1073.823" y1="518.741" x2="1112.871" y2="518.741"/>
				
					<line fill="none" stroke="#C9A172" stroke-width="3.4659" stroke-miterlimit="10" x1="1073.823" y1="525.234" x2="1112.871" y2="525.234"/>
				
					<line fill="none" stroke="#C9A172" stroke-width="3.4659" stroke-miterlimit="10" x1="1073.823" y1="544.712" x2="1112.871" y2="544.712"/>
				
					<line fill="none" stroke="#C9A172" stroke-width="3.4659" stroke-miterlimit="10" x1="1071.382" y1="551.205" x2="1109.617" y2="551.205"/>
				
					<line fill="none" stroke="#C9A172" stroke-width="3.4659" stroke-miterlimit="10" x1="1071.382" y1="531.726" x2="1109.617" y2="531.726"/>
				
					<line fill="none" stroke="#C9A172" stroke-width="3.4659" stroke-miterlimit="10" x1="1073.823" y1="538.219" x2="1112.871" y2="538.219"/>
				
					<line fill="none" stroke="#C9A172" stroke-width="3.4659" stroke-miterlimit="10" x1="1073.01" y1="556.886" x2="1112.057" y2="556.886"/>
				
					<line fill="none" stroke="#C9A172" stroke-width="3.4659" stroke-miterlimit="10" x1="1073.823" y1="564.19" x2="1112.871" y2="564.19"/>
			</g>
			
				<line fill="none" stroke="#C9A172" stroke-width="3.4659" stroke-miterlimit="10" x1="1091.72" y1="405.93" x2="1091.72" y2="381.582"/>
			<ellipse fill="#C9A172" cx="1091.089" cy="377.487" rx="3.633" ry="3.625"/>
			<polygon fill="#C9A172" points="1108.799,422.973 1074.116,422.973 1080.786,402.683 1102.129,402.683 			"/>
		</g>
		<g>
			<g>
				<rect x="498.15" y="420.538" fill="#C9A172" width="49.623" height="153.391"/>
				<rect x="504.658" y="427.031" fill="#FFFFFF" width="4.881" height="13.797"/>
				<rect x="514.42" y="427.031" fill="#FFFFFF" width="4.881" height="13.797"/>
				<rect x="523.368" y="427.031" fill="#FFFFFF" width="5.694" height="13.797"/>
				<rect x="504.658" y="444.074" fill="#FFFFFF" width="4.881" height="13.797"/>
				<rect x="514.42" y="444.074" fill="#FFFFFF" width="4.881" height="13.797"/>
				<rect x="523.368" y="444.074" fill="#FFFFFF" width="5.694" height="13.797"/>
				<rect x="533.944" y="444.074" fill="#FFFFFF" width="5.694" height="13.797"/>
				<rect x="514.42" y="461.929" fill="#FFFFFF" width="4.881" height="12.985"/>
				<rect x="523.368" y="493.582" fill="#FFFFFF" width="5.694" height="13.797"/>
				<rect x="533.944" y="493.582" fill="#FFFFFF" width="5.694" height="13.797"/>
				<rect x="514.42" y="522.799" fill="#FFFFFF" width="4.881" height="12.985"/>
				<rect x="504.658" y="493.582" fill="#FFFFFF" width="4.881" height="13.797"/>
				<rect x="523.368" y="476.538" fill="#FFFFFF" width="5.694" height="12.985"/>
				<rect x="523.368" y="522.799" fill="#FFFFFF" width="5.694" height="12.985"/>
				<rect x="533.944" y="522.799" fill="#FFFFFF" width="5.694" height="12.985"/>
				<rect x="504.658" y="542.277" fill="#FFFFFF" width="4.881" height="12.174"/>
				<rect x="514.42" y="542.277" fill="#FFFFFF" width="4.881" height="12.174"/>
				<rect x="523.368" y="542.277" fill="#FFFFFF" width="5.694" height="12.174"/>
				<rect x="533.944" y="542.277" fill="#FFFFFF" width="5.694" height="12.174"/>
			</g>
			<g>
				<rect x="451.781" y="419.727" fill="#C9A172" width="49.623" height="153.391"/>
				<rect x="490.015" y="426.219" fill="#FFFFFF" width="4.881" height="13.797"/>
				<rect x="480.253" y="426.219" fill="#FFFFFF" width="4.881" height="13.797"/>
				<rect x="470.491" y="426.219" fill="#FFFFFF" width="5.694" height="13.797"/>
				<rect x="490.015" y="443.263" fill="#FFFFFF" width="4.881" height="13.797"/>
				<rect x="480.253" y="443.263" fill="#FFFFFF" width="4.881" height="13.797"/>
				<rect x="470.491" y="443.263" fill="#FFFFFF" width="5.694" height="13.797"/>
				<rect x="459.916" y="443.263" fill="#FFFFFF" width="5.694" height="13.797"/>
				<rect x="480.253" y="461.118" fill="#FFFFFF" width="4.881" height="12.985"/>
				<rect x="470.491" y="492.77" fill="#FFFFFF" width="5.694" height="13.797"/>
				<rect x="459.916" y="492.77" fill="#FFFFFF" width="5.694" height="13.797"/>
				<rect x="480.253" y="521.987" fill="#FFFFFF" width="4.881" height="12.985"/>
				<rect x="490.015" y="492.77" fill="#FFFFFF" width="4.881" height="13.797"/>
				<rect x="470.491" y="475.727" fill="#FFFFFF" width="5.694" height="12.985"/>
				<rect x="470.491" y="521.987" fill="#FFFFFF" width="5.694" height="12.985"/>
				<rect x="459.916" y="521.987" fill="#FFFFFF" width="5.694" height="12.985"/>
				<rect x="490.015" y="541.466" fill="#FFFFFF" width="4.881" height="12.174"/>
				<rect x="480.253" y="541.466" fill="#FFFFFF" width="4.881" height="12.174"/>
				<rect x="470.491" y="541.466" fill="#FFFFFF" width="5.694" height="12.174"/>
				<rect x="459.916" y="541.466" fill="#FFFFFF" width="5.694" height="12.174"/>
			</g>
		</g>
		<g>
			<rect x="1342.856" y="421.35" fill="#C9A172" width="71.588" height="152.579"/>
			<rect x="1350.177" y="428.654" fill="#FFFFFF" width="56.131" height="4.87"/>
			<rect x="1350.177" y="437.582" fill="#FFFFFF" width="56.131" height="2.435"/>
			<rect x="1350.177" y="443.263" fill="#FFFFFF" width="56.131" height="4.058"/>
			<rect x="1350.177" y="451.379" fill="#FFFFFF" width="56.131" height="5.681"/>
			<rect x="1350.177" y="461.118" fill="#FFFFFF" width="56.131" height="0.812"/>
			<rect x="1350.177" y="465.987" fill="#FFFFFF" width="56.131" height="4.87"/>
			<rect x="1350.177" y="475.726" fill="#FFFFFF" width="56.131" height="5.681"/>
			<rect x="1350.177" y="484.654" fill="#FFFFFF" width="56.131" height="1.623"/>
			<rect x="1350.177" y="489.524" fill="#FFFFFF" width="56.131" height="4.058"/>
			<rect x="1350.177" y="507.379" fill="#FFFFFF" width="56.131" height="5.681"/>
			<rect x="1350.177" y="517.118" fill="#FFFFFF" width="56.131" height="0.812"/>
			<rect x="1350.177" y="521.987" fill="#FFFFFF" width="56.131" height="3.246"/>
			<rect x="1350.177" y="534.161" fill="#FFFFFF" width="56.131" height="4.87"/>
			<rect x="1350.177" y="543.089" fill="#FFFFFF" width="56.131" height="1.623"/>
			<rect x="1350.177" y="548.77" fill="#FFFFFF" width="56.131" height="4.058"/>
		</g>
		<g>
			<polygon fill="#C9A172" points="1316.417,363.727 1316.417,329.64 1310.107,329.64 1306.105,310.162 1290.098,310.162 
				1274.091,310.162 1270.089,329.64 1263.54,329.64 1263.54,363.727 1249.711,363.727 1249.711,573.118 1263.419,573.118 
				1276.759,573.118 1290.098,573.118 1303.438,573.118 1316.777,573.118 1330.246,573.118 1330.246,363.727 			"/>
			<polygon fill="#FFFFFF" points="1313.163,369.408 1313.163,355.611 1268.421,355.611 1268.421,369.408 1259.472,369.408 
				1259.472,553.639 1322.925,553.639 1322.925,369.408 			"/>
			<g>
				<rect x="1278.183" y="333.698" fill="#FFFFFF" width="24.405" height="17.855"/>
				<g>
					
						<line fill="none" stroke="#C9A172" stroke-width="3.4659" stroke-miterlimit="10" x1="1267.607" y1="361.292" x2="1313.163" y2="361.292"/>
					<g>
						
							<line fill="none" stroke="#C9A172" stroke-width="3.4659" stroke-miterlimit="10" x1="1289.572" y1="270.393" x2="1289.572" y2="555.263"/>
						
							<line fill="none" stroke="#C9A172" stroke-width="3.4659" stroke-miterlimit="10" x1="1278.183" y1="310.162" x2="1278.183" y2="555.263"/>
						
							<line fill="none" stroke="#C9A172" stroke-width="3.4659" stroke-miterlimit="10" x1="1302.588" y1="310.162" x2="1302.588" y2="555.263"/>
						
							<line fill="none" stroke="#C9A172" stroke-width="3.4659" stroke-miterlimit="10" x1="1267.607" y1="345.06" x2="1267.607" y2="555.263"/>
						
							<line fill="none" stroke="#C9A172" stroke-width="3.4659" stroke-miterlimit="10" x1="1313.163" y1="345.06" x2="1313.163" y2="555.263"/>
						
							<line fill="none" stroke="#C9A172" stroke-width="3.4659" stroke-miterlimit="10" x1="1259.472" y1="366.973" x2="1322.925" y2="366.973"/>
						
							<line fill="none" stroke="#C9A172" stroke-width="3.4659" stroke-miterlimit="10" x1="1259.472" y1="375.901" x2="1322.925" y2="375.901"/>
						
							<line fill="none" stroke="#C9A172" stroke-width="3.4659" stroke-miterlimit="10" x1="1259.472" y1="384.016" x2="1322.925" y2="384.016"/>
						
							<line fill="none" stroke="#C9A172" stroke-width="3.4659" stroke-miterlimit="10" x1="1259.472" y1="391.321" x2="1322.925" y2="391.321"/>
						
							<line fill="none" stroke="#C9A172" stroke-width="3.4659" stroke-miterlimit="10" x1="1259.472" y1="400.248" x2="1322.925" y2="400.248"/>
						
							<line fill="none" stroke="#C9A172" stroke-width="3.4659" stroke-miterlimit="10" x1="1259.472" y1="407.553" x2="1322.925" y2="407.553"/>
						
							<line fill="none" stroke="#C9A172" stroke-width="3.4659" stroke-miterlimit="10" x1="1259.472" y1="415.669" x2="1322.925" y2="415.669"/>
						
							<line fill="none" stroke="#C9A172" stroke-width="3.4659" stroke-miterlimit="10" x1="1259.472" y1="422.973" x2="1322.925" y2="422.973"/>
						
							<line fill="none" stroke="#C9A172" stroke-width="3.4659" stroke-miterlimit="10" x1="1259.472" y1="431.9" x2="1322.925" y2="431.9"/>
						
							<line fill="none" stroke="#C9A172" stroke-width="3.4659" stroke-miterlimit="10" x1="1259.472" y1="440.016" x2="1322.925" y2="440.016"/>
						
							<line fill="none" stroke="#C9A172" stroke-width="3.4659" stroke-miterlimit="10" x1="1259.472" y1="448.944" x2="1322.925" y2="448.944"/>
						
							<line fill="none" stroke="#C9A172" stroke-width="3.4659" stroke-miterlimit="10" x1="1259.472" y1="457.06" x2="1322.925" y2="457.06"/>
						
							<line fill="none" stroke="#C9A172" stroke-width="3.4659" stroke-miterlimit="10" x1="1259.472" y1="464.364" x2="1322.925" y2="464.364"/>
						
							<line fill="none" stroke="#C9A172" stroke-width="3.4659" stroke-miterlimit="10" x1="1259.472" y1="472.48" x2="1322.925" y2="472.48"/>
						
							<line fill="none" stroke="#C9A172" stroke-width="3.4659" stroke-miterlimit="10" x1="1259.472" y1="481.408" x2="1322.925" y2="481.408"/>
						
							<line fill="none" stroke="#C9A172" stroke-width="3.4659" stroke-miterlimit="10" x1="1259.472" y1="489.524" x2="1322.925" y2="489.524"/>
						
							<line fill="none" stroke="#C9A172" stroke-width="3.4659" stroke-miterlimit="10" x1="1259.472" y1="497.64" x2="1322.925" y2="497.64"/>
						
							<line fill="none" stroke="#C9A172" stroke-width="3.4659" stroke-miterlimit="10" x1="1259.472" y1="506.567" x2="1322.925" y2="506.567"/>
						
							<line fill="none" stroke="#C9A172" stroke-width="3.4659" stroke-miterlimit="10" x1="1259.472" y1="513.871" x2="1322.925" y2="513.871"/>
						
							<line fill="none" stroke="#C9A172" stroke-width="3.4659" stroke-miterlimit="10" x1="1259.472" y1="521.987" x2="1322.925" y2="521.987"/>
						
							<line fill="none" stroke="#C9A172" stroke-width="3.4659" stroke-miterlimit="10" x1="1259.472" y1="531.726" x2="1322.925" y2="531.726"/>
						
							<line fill="none" stroke="#C9A172" stroke-width="3.4659" stroke-miterlimit="10" x1="1259.472" y1="539.031" x2="1322.925" y2="539.031"/>
						
							<line fill="none" stroke="#C9A172" stroke-width="3.4659" stroke-miterlimit="10" x1="1259.472" y1="547.147" x2="1322.925" y2="547.147"/>
					</g>
				</g>
				
					<line fill="none" stroke="#C9A172" stroke-width="3.4659" stroke-miterlimit="10" x1="1274.929" y1="341.814" x2="1303.401" y2="341.814"/>
			</g>
		</g>
		<g>
			<g>
				<polygon fill="#C9A172" points="1529.675,380.77 1529.675,349.118 1524.202,349.118 1520.522,331.263 1505.802,331.263 
					1491.082,331.263 1487.402,349.118 1481.679,349.118 1481.679,380.77 1468.663,380.77 1468.663,573.118 1481.269,573.118 
					1493.535,573.118 1505.802,573.118 1518.069,573.118 1530.335,573.118 1542.691,573.118 1542.691,380.77 				"/>
				<path fill="#C9A172" d="M1517.188,316.654c-0.146-6.298-5.298-11.362-11.646-11.362s-11.501,5.064-11.646,11.362h-0.014v28.406
					h23.591v-28.406H1517.188z"/>
			</g>
			<ellipse fill="#FFFFFF" cx="1505.27" cy="353.582" rx="10.169" ry="10.145"/>
			
				<ellipse fill="none" stroke="#C9A172" stroke-width="3.4659" stroke-miterlimit="10" cx="1505.27" cy="353.582" rx="6.508" ry="6.493"/>
			<rect x="1480.052" y="396.19" fill="#FFFFFF" width="7.321" height="17.043"/>
			<rect x="1491.441" y="396.19" fill="#FFFFFF" width="7.321" height="17.043"/>
			<rect x="1480.052" y="421.35" fill="#FFFFFF" width="7.321" height="17.043"/>
			<rect x="1491.441" y="421.35" fill="#FFFFFF" width="7.321" height="17.043"/>
			<rect x="1480.052" y="446.509" fill="#FFFFFF" width="7.321" height="17.043"/>
			<rect x="1491.441" y="446.509" fill="#FFFFFF" width="7.321" height="17.043"/>
			<rect x="1480.052" y="471.669" fill="#FFFFFF" width="7.321" height="17.043"/>
			<rect x="1491.441" y="471.669" fill="#FFFFFF" width="7.321" height="17.043"/>
			<rect x="1480.052" y="497.639" fill="#FFFFFF" width="7.321" height="17.043"/>
			<rect x="1491.441" y="497.639" fill="#FFFFFF" width="7.321" height="17.043"/>
			<rect x="1480.052" y="522.799" fill="#FFFFFF" width="7.321" height="17.043"/>
			<rect x="1491.441" y="522.799" fill="#FFFFFF" width="7.321" height="17.043"/>
			<rect x="1480.052" y="547.958" fill="#FFFFFF" width="7.321" height="17.043"/>
			<rect x="1491.441" y="547.958" fill="#FFFFFF" width="7.321" height="17.043"/>
			<rect x="1513.405" y="396.19" fill="#FFFFFF" width="7.321" height="17.043"/>
			<rect x="1524.794" y="396.19" fill="#FFFFFF" width="7.321" height="17.043"/>
			<rect x="1513.405" y="421.35" fill="#FFFFFF" width="7.321" height="17.043"/>
			<rect x="1524.794" y="421.35" fill="#FFFFFF" width="7.321" height="17.043"/>
			<rect x="1513.405" y="446.509" fill="#FFFFFF" width="7.321" height="17.043"/>
			<rect x="1524.794" y="446.509" fill="#FFFFFF" width="7.321" height="17.043"/>
			<rect x="1513.405" y="471.669" fill="#FFFFFF" width="7.321" height="17.043"/>
			<rect x="1524.794" y="471.669" fill="#FFFFFF" width="7.321" height="17.043"/>
			<rect x="1513.405" y="497.639" fill="#FFFFFF" width="7.321" height="17.043"/>
			<rect x="1524.794" y="497.639" fill="#FFFFFF" width="7.321" height="17.043"/>
			<rect x="1513.405" y="522.799" fill="#FFFFFF" width="7.321" height="17.043"/>
			<rect x="1524.794" y="522.799" fill="#FFFFFF" width="7.321" height="17.043"/>
			<rect x="1513.405" y="547.958" fill="#FFFFFF" width="7.321" height="17.043"/>
			<rect x="1524.794" y="547.958" fill="#FFFFFF" width="7.321" height="17.043"/>
		</g>
		<g>
			<rect x="828.727" y="419.727" fill="#C9A172" width="47.996" height="153.391"/>
			<g>
				<rect x="838.489" y="457.06" fill="#FFFFFF" width="28.472" height="108.753"/>
				<rect x="838.489" y="427.031" fill="#FFFFFF" width="28.472" height="24.348"/>
				
					<line fill="none" stroke="#C9A172" stroke-width="3.4659" stroke-miterlimit="10" x1="844.997" y1="419.727" x2="844.997" y2="567.437"/>
				
					<line fill="none" stroke="#C9A172" stroke-width="3.4659" stroke-miterlimit="10" x1="831.981" y1="433.524" x2="870.215" y2="433.524"/>
				
					<line fill="none" stroke="#C9A172" stroke-width="3.4659" stroke-miterlimit="10" x1="831.981" y1="463.553" x2="870.215" y2="463.553"/>
				
					<line fill="none" stroke="#C9A172" stroke-width="3.4659" stroke-miterlimit="10" x1="833.608" y1="470.857" x2="872.656" y2="470.857"/>
				
					<line fill="none" stroke="#C9A172" stroke-width="3.4659" stroke-miterlimit="10" x1="859.64" y1="427.031" x2="859.64" y2="567.437"/>
				
					<line fill="none" stroke="#C9A172" stroke-width="3.4659" stroke-miterlimit="10" x1="833.608" y1="440.828" x2="872.656" y2="440.828"/>
				
					<line fill="none" stroke="#C9A172" stroke-width="3.4659" stroke-miterlimit="10" x1="831.981" y1="447.321" x2="870.215" y2="447.321"/>
				
					<line fill="none" stroke="#C9A172" stroke-width="3.4659" stroke-miterlimit="10" x1="852.319" y1="427.031" x2="852.319" y2="567.437"/>
				
					<line fill="none" stroke="#C9A172" stroke-width="3.4659" stroke-miterlimit="10" x1="833.608" y1="476.538" x2="872.656" y2="476.538"/>
				
					<line fill="none" stroke="#C9A172" stroke-width="3.4659" stroke-miterlimit="10" x1="833.608" y1="496.828" x2="872.656" y2="496.828"/>
				
					<line fill="none" stroke="#C9A172" stroke-width="3.4659" stroke-miterlimit="10" x1="834.422" y1="503.321" x2="873.469" y2="503.321"/>
				
					<line fill="none" stroke="#C9A172" stroke-width="3.4659" stroke-miterlimit="10" x1="834.422" y1="483.031" x2="873.469" y2="483.031"/>
				
					<line fill="none" stroke="#C9A172" stroke-width="3.4659" stroke-miterlimit="10" x1="833.608" y1="489.524" x2="872.656" y2="489.524"/>
				
					<line fill="none" stroke="#C9A172" stroke-width="3.4659" stroke-miterlimit="10" x1="833.608" y1="509.813" x2="872.656" y2="509.813"/>
				
					<line fill="none" stroke="#C9A172" stroke-width="3.4659" stroke-miterlimit="10" x1="834.422" y1="517.118" x2="873.469" y2="517.118"/>
				
					<line fill="none" stroke="#C9A172" stroke-width="3.4659" stroke-miterlimit="10" x1="834.422" y1="523.611" x2="873.469" y2="523.611"/>
				
					<line fill="none" stroke="#C9A172" stroke-width="3.4659" stroke-miterlimit="10" x1="834.422" y1="543.089" x2="873.469" y2="543.089"/>
				
					<line fill="none" stroke="#C9A172" stroke-width="3.4659" stroke-miterlimit="10" x1="831.981" y1="549.581" x2="870.215" y2="549.581"/>
				
					<line fill="none" stroke="#C9A172" stroke-width="3.4659" stroke-miterlimit="10" x1="831.981" y1="530.103" x2="870.215" y2="530.103"/>
				
					<line fill="none" stroke="#C9A172" stroke-width="3.4659" stroke-miterlimit="10" x1="834.422" y1="536.596" x2="873.469" y2="536.596"/>
				
					<line fill="none" stroke="#C9A172" stroke-width="3.4659" stroke-miterlimit="10" x1="833.608" y1="555.263" x2="872.656" y2="555.263"/>
				
					<line fill="none" stroke="#C9A172" stroke-width="3.4659" stroke-miterlimit="10" x1="834.422" y1="562.567" x2="873.469" y2="562.567"/>
			</g>
			
				<line fill="none" stroke="#C9A172" stroke-width="3.4659" stroke-miterlimit="10" x1="852.319" y1="404.306" x2="852.319" y2="379.959"/>
			<ellipse fill="#C9A172" cx="851.688" cy="375.864" rx="3.633" ry="3.625"/>
			<polygon fill="#C9A172" points="869.398,421.35 834.715,421.35 841.385,401.06 862.728,401.06 			"/>
		</g>
		<g>
			<path fill="#D1E5D3" d="M136.385,573.126c-2.203-3.932-1.564-8.232-1.59-12.437c-0.034-5.439-0.038-10.879,0.004-16.317
				c0.035-4.55,1.464-5.893,5.912-5.993c6.035-0.135,6.344,1.545,6.343-6.4c-0.006-29.514-0.003-59.028-0.003-88.542
				c0-5.443,0.891-6.463,6.285-6.557c2.539-0.044,3.597-1.145,3.502-3.579c-0.035-0.89-0.019-1.783-0.019-2.675
				c0.003-65.983,0.008-131.967,0.012-197.95c0-0.446,0.018-0.892,0.007-1.337c-0.063-2.579,1.416-3.949,3.725-4.527
				c3.872-0.969,3.886-0.929,3.884-4.802c-0.006-10.343-0.017-20.687-0.023-31.03c-0.003-4.433,1.408-5.858,5.915-6.002
				c0.625-0.02,1.252-0.138,1.872-0.101c2.179,0.131,2.992-0.824,2.947-3.019c-0.106-5.259-0.077-10.522-0.003-15.781
				c0.071-5.06,1.456-6.282,6.442-6.312c3.293-0.02,6.608,0.41,9.876-0.318c6.445,0.791,12.918,0.161,19.378,0.329
				c2.113,0.055,4.258,0.256,6.328-0.443c3.064,0.985,6.208,0.393,9.312,0.422c4.832,0.047,6.415,1.526,6.427,6.408
				c0.013,5.173,0.132,10.352-0.07,15.518c-0.103,2.648,0.872,3.584,3.37,3.296c0.352-0.041,0.714,0.013,1.072,0.019
				c5.048,0.089,6.241,1.303,6.247,6.431c0.011,9.901,0.004,19.802,0.005,29.703c0,0.535-0.001,1.07,0,1.606
				c0.006,3.999,0.006,3.999,3.889,4.072c4.649,0.088,5.973,1.505,5.973,6.476c-0.002,66.543,0.002,133.086-0.054,199.629
				c-0.002,2.651,0.139,4.412,3.588,4.205c2.491-0.149,3.838,1.715,4.039,4.142c0.155,1.862,0.114,3.743,0.114,5.616
				c0.003,29.347-0.001,58.693-0.006,88.04c-0.001,3.401,0.051,3.627,3.397,3.434c8.186-0.472,8.89,1.849,8.683,8.661
				c-0.138,4.545,0.004,9.098-0.035,13.647c-0.036,4.21,0.585,8.508-1.533,12.466C226.529,573.126,181.457,573.126,136.385,573.126z
				 M171.527,335.977c0.034,0,0.067,0,0.101,0c0-32.651-0.025-65.303,0.051-97.954c0.006-2.402-0.549-3.319-3.083-3.146
				c-4.245,0.289-4.216-0.94-4.122,4.156c0.012,0.624,0.01,1.249,0.01,1.873c-0.002,63.162-0.005,126.324-0.007,189.486
				c0,1.695-0.009,3.39,0.023,5.085c0.011,0.599-0.048,1.234,0.683,1.59c3.194,1.557,6.343-0.385,6.343-3.939
				C171.527,400.744,171.527,368.36,171.527,335.977z M236.523,336.24c0,23.909-0.009,47.818,0.005,71.727
				c0.005,8.921,0.047,17.841,0.127,26.761c0.008,0.845-0.56,1.993,0.888,2.444c3.871,1.205,5.937-0.215,5.937-4.167
				c-0.001-64.054-0.005-128.109-0.008-192.163c0-1.427,0.006-2.855-0.001-4.282c-0.003-0.535,0.031-1.34-0.457-1.439
				c-1.932-0.389-3.972-0.487-5.835,0.011c-1.204,0.322-0.629,1.885-0.63,2.885C236.524,270.759,236.528,303.499,236.523,336.24z
				 M200.374,321.526c0,27.834,0,55.669,0,83.503c0,0.714-0.008,1.428,0.015,2.141c0.017,0.528,0.012,1.291,0.613,1.325
				c1.954,0.111,4.029,0.448,5.843-0.062c1.497-0.421,0.729-2.351,0.73-3.58c0.042-55.312,0.045-110.624,0.033-165.936
				c-0.001-4.635,0.54-3.722-3.964-4.057c-2.864-0.213-3.338,0.82-3.329,3.43C200.41,266.036,200.374,293.781,200.374,321.526z
				 M183.542,321.797c0.006,0,0.013,0,0.019,0c0-10.617,0.002-21.233,0-31.85c-0.003-17.397-0.003-34.794-0.028-52.191
				c-0.001-0.857,0.435-2.144-0.405-2.493c-1.831-0.763-3.913-0.582-5.784-0.176c-1.5,0.325-0.779,1.974-0.78,3.017
				c-0.036,55.403-0.036,110.805-0.038,166.208c0,0.981-0.004,1.963,0.027,2.943c0.017,0.533,0.07,1.244,0.703,1.271
				c1.869,0.078,3.879,0.425,5.575-0.127c1.381-0.449,0.68-2.382,0.682-3.632C183.552,377.111,183.542,349.454,183.542,321.797z
				 M195.604,321.803c0-25.053,0-50.105,0-75.158c0-3.21,0.007-6.419-0.02-9.629c-0.006-0.68,0.236-1.799-0.53-1.888
				c-1.931-0.225-3.987-0.454-5.831-0.012c-1.477,0.354-0.726,2.168-0.726,3.301c-0.035,55.455-0.028,110.91-0.025,166.364
				c0,0.713,0.062,1.431,0.002,2.139c-0.108,1.274,0.436,1.799,1.703,1.723c0.89-0.054,1.802-0.11,2.677,0.016
				c2.325,0.334,2.804-0.71,2.798-2.872C195.584,377.793,195.606,349.798,195.604,321.803z M224.591,321.81
				c-0.012,0-0.023,0-0.035,0c0,28.178-0.002,56.355,0.01,84.533c0,0.76-0.308,1.982,0.596,2.108
				c1.834,0.256,3.827,0.457,5.566-0.014c1.441-0.39,0.685-2.197,0.686-3.349c0.037-55.732,0.007-111.464,0.113-167.196
				c0.006-2.947-1.213-3.079-3.46-3.039c-2.131,0.038-3.564-0.064-3.55,2.958C224.642,265.811,224.591,293.811,224.591,321.81z
				 M212.531,321.509c-0.012,0-0.023,0-0.035,0c0,24.435-0.001,48.871,0.001,73.306c0,3.835-0.007,7.67,0.023,11.504
				c0.006,0.763-0.305,2.016,0.579,2.127c1.927,0.242,4.02,0.44,5.826-0.088c1.222-0.357,0.561-2.241,0.561-3.424
				c0.029-55.292,0.034-110.584,0.014-165.875c-0.002-4.851,0.62-3.953-4.056-4.181c-2.288-0.112-2.985,0.449-2.977,2.892
				C212.568,265.682,212.531,293.596,212.531,321.509z M164.472,491.489c0,13.198,0,26.396,0,39.593c0,1.07-0.026,2.141,0.011,3.21
				c0.159,4.606-0.818,3.937,4.152,4.121c2.053,0.076,2.725-0.49,2.727-2.659c0.029-28.887,0.161-57.774,0.26-86.66
				c0.014-4.178-0.014-4.011-4.31-4.218c-2.477-0.119-2.911,0.74-2.895,3.006C164.518,462.418,164.468,476.954,164.472,491.489z
				 M255.432,491.681c-0.005,0-0.011,0-0.016,0c0-14.721-0.055-29.442,0.059-44.161c0.017-2.232-0.725-2.861-2.732-2.6
				c-0.44,0.057-0.903,0.066-1.339-0.005c-2.38-0.386-2.975,0.603-2.968,2.949c0.08,29.263,0.087,58.526-0.017,87.788
				c-0.009,2.65,1.124,2.895,3.183,2.749c1.932-0.137,3.959,0.665,3.913-2.828C255.32,520.946,255.432,506.313,255.432,491.681z
				 M236.54,491.645c0.034,0,0.069,0,0.103,0c0,14.624,0.06,29.248-0.059,43.87c-0.02,2.43,0.752,3.221,3.026,2.874
				c0.437-0.067,0.902-0.075,1.338-0.008c1.995,0.307,2.587-0.499,2.583-2.504c-0.057-29.336-0.063-58.673,0.013-88.009
				c0.006-2.304-0.525-3.309-2.951-2.946c-1.878,0.281-4.194-0.918-4.139,2.856C236.666,462.398,236.54,477.023,236.54,491.645z
				 M152.528,491.782c0,14.622-0.006,29.245,0.015,43.867c0.001,0.856-0.41,2.192,0.445,2.472c1.865,0.609,3.941,0.532,5.815,0.054
				c1.27-0.323,0.677-1.852,0.678-2.83c0.03-29.156-0.031-58.312,0.101-87.467c0.014-3.053-1.415-2.983-3.546-2.968
				c-2.129,0.014-3.627-0.042-3.591,3.005C152.619,462.536,152.523,477.159,152.528,491.782z M214.382,555.642
				c0-3.746-0.052-7.494,0.026-11.238c0.03-1.447-0.349-2.081-1.923-2.065c-5.631,0.054-11.264,0.012-16.896-0.029
				c-1.252-0.009-1.962,0.234-1.949,1.76c0.065,7.581,0.058,15.164-0.001,22.745c-0.012,1.55,0.569,1.956,2.048,1.936
				c5.542-0.073,11.088-0.11,16.628,0.014c1.756,0.039,2.107-0.646,2.084-2.151C214.343,562.957,214.381,559.299,214.382,555.642z
				 M176.603,507.409c0,9.273,0.058,18.546-0.042,27.817c-0.024,2.249,0.323,3.519,2.99,3.201c2.037-0.243,4.045,0.573,4.004-3.062
				c-0.209-18.632-0.208-37.269,0.017-55.9c0.044-3.658-1.95-2.865-4.002-3.048c-2.283-0.204-3.076,0.441-3.033,2.908
				C176.698,488.684,176.602,498.048,176.603,507.409z M231.374,507.523c0-9.535,0.008-19.069-0.015-28.604
				c-0.002-0.752,0.395-2.018-0.431-2.158c-1.805-0.307-3.766-0.488-5.516-0.085c-1.33,0.306-0.675,2.006-0.678,3.067
				c-0.041,18.178-0.043,36.356-0.029,54.535c0.004,4.913-0.386,3.867,4.153,4.116c1.979,0.109,2.583-0.525,2.561-2.535
				C231.317,526.415,231.374,516.969,231.374,507.523z M207.544,442.508c0-7.76-0.05-15.52,0.037-23.279
				c0.02-1.816-0.437-2.692-2.372-2.418c-0.613,0.087-1.265,0.1-1.873-0.003c-2.422-0.413-2.957,0.632-2.94,2.943
				c0.107,14.627,0.057,29.255,0.06,43.883c0.001,4.434,0.007,4.299,4.311,4.464c2.278,0.087,2.855-0.663,2.82-2.845
				C207.466,457.672,207.54,450.089,207.544,442.508z M219.452,535.403c0-18.712-0.059-37.425,0.07-56.136
				c0.018-2.539-0.845-3.087-3.056-2.858c-1.888,0.195-4.006-0.711-3.963,2.811c0.182,15.059,0.114,30.121,0.035,45.182
				c-0.011,2.035,0.418,3.461,2.18,4.686C216.941,530.633,218.336,532.937,219.452,535.403z M188.539,535.479
				c1.277-2.668,2.741-5.159,5.167-6.736c1.634-1.062,1.871-2.314,1.866-4.015c-0.039-14.711,0.013-29.423-0.037-44.134
				c-0.015-4.341,0.87-3.955-4.151-4.223c-2.5-0.133-2.904,0.814-2.893,3.062c0.089,17.564,0.048,35.129,0.047,52.693
				C188.538,533.244,188.539,534.361,188.539,535.479z M200.463,501.133c-0.006,0-0.011,0-0.017,0
				c0,6.596-0.007,13.191,0.002,19.787c0.007,5.026,0.015,4.948,5.056,4.835c1.711-0.039,2.061-0.693,2.056-2.231
				c-0.047-14.974-0.05-29.948-0.013-44.922c0.004-1.555-0.39-2.381-2.098-2.186c-0.705,0.081-1.437,0.084-2.141-0.003
				c-2.163-0.269-2.945,0.501-2.9,2.795C200.554,486.514,200.463,493.824,200.463,501.133z M219.478,442.538
				c-0.011,0-0.022,0-0.033,0c0-7.657-0.176-15.321,0.087-22.969c0.104-3.024-1.421-2.807-3.401-2.769
				c-1.978,0.038-3.679-0.363-3.637,2.839c0.192,14.69,0.06,29.383,0.107,44.075c0.016,4.907-0.918,4.191,4.393,4.378
				c2.033,0.072,2.559-0.603,2.53-2.581C219.412,457.854,219.478,450.195,219.478,442.538z M188.544,442.21c0.019,0,0.039,0,0.058,0
				c0,7.746-0.009,15.493,0.013,23.239c0.002,0.771-0.356,1.903,0.434,2.232c1.843,0.767,3.904,0.575,5.769,0.184
				c1.257-0.263,0.7-1.849,0.703-2.834c0.037-14.602,0.049-29.205,0.009-43.807c-0.013-4.95,0.821-4.236-4.369-4.438
				c-2.171-0.085-2.697,0.646-2.665,2.721C188.615,427.073,188.544,434.642,188.544,442.21z M200.374,209.922
				c0,4.189-0.04,8.379,0.01,12.567c0.06,4.981-0.779,4.273,4.371,4.469c2.166,0.082,2.929-0.509,2.895-2.799
				c-0.129-8.822-0.033-17.647-0.054-26.471c-0.013-5.492,0.695-4.484-4.644-4.718c-1.977-0.087-2.676,0.483-2.622,2.514
				C200.456,200.294,200.371,205.109,200.374,209.922z M195.603,210.016c0-4.011,0.03-8.023-0.007-12.034
				c-0.053-5.79,1.065-4.834-5.131-4.993c-1.767-0.045-2.023,0.706-2.015,2.225c0.052,9.984,0.052,19.968-0.008,29.951
				c-0.009,1.582,0.399,2.36,2.095,2.156c0.704-0.085,1.436-0.081,2.141,0.001c2.194,0.254,3.028-0.609,2.966-2.866
				C195.51,219.645,195.602,214.829,195.603,210.016z M219.506,209.892c0.004,0,0.008,0,0.012,0c0-4.713-0.127-9.432,0.054-14.138
				c0.089-2.311-0.739-3.059-2.891-2.753c-0.437,0.062-0.899,0.07-1.334,0.003c-2.174-0.334-2.906,0.462-2.874,2.741
				c0.126,8.891,0,17.785,0.056,26.678c0.031,4.954-0.91,4.386,4.571,4.527c1.822,0.047,2.493-0.478,2.446-2.384
				C219.425,219.677,219.506,214.783,219.506,209.892z M183.545,210.009c0.005,0,0.009,0,0.014,0c0-4.193,0.065-8.388-0.017-12.579
				c-0.099-5.037,0.665-4.254-4.424-4.456c-2.256-0.09-2.627,0.787-2.609,2.757c0.08,8.921-0.012,17.843,0.039,26.765
				c0.029,5.019-0.748,4.228,4.376,4.456c2.248,0.1,2.705-0.753,2.657-2.757C183.468,219.468,183.545,214.738,183.545,210.009z
				 M231.446,209.917c0-4.37,0.042-8.74-0.012-13.11c-0.051-4.097,0.765-3.633-3.887-3.844c-2.421-0.11-3.001,0.714-2.97,3.003
				c0.121,8.828,0.007,17.658,0.077,26.487c0.042,5.239-0.825,4.257,4.584,4.491c1.816,0.079,2.269-0.634,2.241-2.313
				C231.395,219.728,231.449,214.822,231.446,209.917z M231.456,555.729c0-2.402,0.016-4.804-0.003-7.206
				c-0.037-4.678,0.48-3.775-4.016-3.889c-0.089-0.002-0.18,0.01-0.267-0.005c-2.2-0.37-2.692,0.713-2.639,2.711
				c0.127,4.8,0.086,9.606,0.078,14.409c-0.009,5.141-0.028,5.071,5.109,4.928c1.477-0.041,1.789-0.568,1.761-1.875
				C231.414,561.779,231.458,558.753,231.456,555.729z M243.486,555.634c-0.003,0-0.006,0-0.009,0c0-2.132,0.014-4.263-0.003-6.395
				c-0.041-5.368,0.761-4.427-4.677-4.616c-2.014-0.07-2.338,0.743-2.309,2.468c0.081,4.973-0.04,9.948,0.034,14.921
				c0.082,5.452-0.949,4.451,4.908,4.636c1.703,0.054,2.125-0.677,2.08-2.222C243.426,561.498,243.486,558.565,243.486,555.634z
				 M171.607,555.819c0.003,0,0.007,0,0.01,0c0-2.23,0.05-4.461-0.01-6.69c-0.138-5.097,0.966-4.319-4.569-4.533
				c-2.023-0.078-2.65,0.635-2.608,2.591c0.103,4.815,0.038,9.633,0.042,14.449c0.005,5.254,0.004,5.195,5.158,5.032
				c1.509-0.048,2.046-0.514,2.002-2.02C171.547,561.707,171.607,558.762,171.607,555.819z M176.542,456.428
				c-0.006,0-0.012,0-0.018,0c0,2.404-0.021,4.807,0.004,7.211c0.055,5.182-0.557,4.155,4.395,4.447
				c2.277,0.135,2.686-0.817,2.656-2.762c-0.082-5.34-0.015-10.682-0.034-16.023c-0.016-4.57-0.032-4.57-4.691-4.387
				c-0.089,0.003-0.18,0.023-0.267,0.011c-1.7-0.241-2.126,0.582-2.075,2.158C176.613,450.195,176.542,453.313,176.542,456.428z
				 M231.456,456.682c-0.004,0-0.007,0-0.011,0c0-2.399-0.003-4.798,0.001-7.197c0.007-4.658,0.007-4.544-4.693-4.599
				c-1.917-0.022-2.186,0.739-2.165,2.34c0.069,5.419,0.033,10.84,0.03,16.26c-0.002,4.675-0.007,4.586,4.64,4.58
				c1.804-0.002,2.287-0.637,2.228-2.322C231.38,462.727,231.456,459.704,231.456,456.682z M147.613,555.783c0.003,0,0.006,0,0.01,0
				c0-2.23,0.031-4.46-0.006-6.69c-0.084-5.009,0.687-4.262-4.398-4.477c-2.233-0.095-2.675,0.772-2.626,2.77
				c0.119,4.814-0.029,9.633,0.05,14.449c0.09,5.456-1.223,4.678,5.047,4.826c1.59,0.038,1.984-0.604,1.946-2.048
				C147.56,561.672,147.613,558.727,147.613,555.783z M159.511,555.961c0-2.229,0-4.458,0-6.687
				c0.001-4.891,0.003-4.837-4.996-4.653c-1.485,0.055-2.019,0.499-1.997,2.025c0.074,5.081-0.036,10.164,0.03,15.246
				c0.072,5.544-1.027,4.581,4.809,4.754c1.892,0.056,2.238-0.772,2.184-2.393C159.449,561.491,159.516,558.724,159.511,555.961z
				 M183.531,555.748c0.004,0,0.007,0,0.011,0c0-2.228,0.038-4.457-0.008-6.683c-0.104-5.044,0.645-4.255-4.429-4.438
				c-1.927-0.07-2.671,0.452-2.613,2.516c0.138,4.897-0.042,9.802,0.045,14.702c0.096,5.446-1.179,4.659,5.073,4.815
				c1.617,0.04,1.961-0.699,1.937-2.09C183.495,561.63,183.531,558.688,183.531,555.748z M255.414,555.459c0.003,0,0.006,0,0.01,0
				c0-2.136,0.042-4.273-0.009-6.408c-0.114-4.771,0.98-4.271-4.396-4.434c-1.985-0.06-2.637,0.552-2.585,2.55
				c0.128,4.892-0.02,9.79,0.069,14.684c0.101,5.512-1.173,4.644,5.054,4.797c1.377,0.034,1.91-0.444,1.878-1.845
				C255.366,561.69,255.414,558.574,255.414,555.459z M267.311,555.725c0.004,0,0.008,0,0.013,0c0-2.226,0.035-4.452-0.007-6.676
				c-0.092-4.825,0.972-4.268-4.365-4.445c-1.978-0.066-2.656,0.521-2.601,2.549c0.133,4.892-0.023,9.792,0.056,14.687
				c0.088,5.441-1.217,4.694,5.042,4.815c1.398,0.027,1.906-0.479,1.88-1.85C267.273,561.779,267.311,558.751,267.311,555.725z
				 M231.373,427.124c0.005,0,0.009,0,0.014,0c0-1.96,0-3.92,0-5.881c0-4.541,0-4.435-4.529-4.469
				c-1.875-0.014-2.246,0.7-2.215,2.343c0.084,4.454,0.05,8.91,0.05,13.365c0,4.566-0.006,4.452,4.544,4.436
				c1.856-0.006,2.241-0.662,2.165-2.311C231.289,432.117,231.373,429.619,231.373,427.124z M176.601,426.827
				c0,2.401,0.194,4.823-0.052,7.199c-0.272,2.636,0.704,3.571,3.23,3.171c0.347-0.055,0.713-0.02,1.068,0.001
				c1.881,0.109,2.719-0.616,2.661-2.644c-0.123-4.355,0.019-8.716-0.05-13.073c-0.086-5.424,0.872-4.506-4.934-4.684
				c-1.585-0.049-1.987,0.586-1.946,2.025C176.656,421.488,176.601,424.158,176.601,426.827z M207.601,176.41
				c0.004,0,0.009,0,0.013,0c0-1.157,0.027-2.314-0.005-3.47c-0.149-5.518,1.273-4.899-5.161-4.996
				c-1.674-0.025-2.155,0.612-2.111,2.192c0.09,3.29-0.017,6.584,0.048,9.875c0.111,5.614-1.163,4.884,5.156,5.011
				c1.682,0.034,2.167-0.624,2.087-2.207C207.519,180.685,207.601,178.546,207.601,176.41z M219.508,176.612
				c0.005,0,0.009,0,0.014,0c0-1.338,0-2.675,0-4.013c0-4.909,0.002-4.856-4.987-4.677c-1.477,0.053-2.066,0.503-2.036,2.02
				c0.068,3.476-0.055,6.956,0.012,10.432c0.098,5.096-1.175,4.56,4.988,4.647c1.485,0.021,2.099-0.46,2.033-1.99
				C219.439,180.895,219.508,178.752,219.508,176.612z M195.607,176.405c-0.003,0-0.006,0-0.008,0c0-1.158,0-2.317,0-3.475
				c0.002-5.261,0.004-5.204-5.169-5c-1.522,0.06-2.005,0.571-1.969,2.06c0.084,3.384,0.016,6.771,0.017,10.156
				c0.001,5.271,0,5.225,5.305,4.878c1.385-0.09,1.884-0.586,1.843-1.938C195.558,180.861,195.607,178.632,195.607,176.405z"/>
			<path fill="#B1AA80" d="M217.181,159.333c-2.07,0.699-4.215,0.498-6.328,0.443c-6.46-0.168-12.934,0.462-19.378-0.329
				c0.032-12.263,0.094-24.526,0.067-36.789c-0.007-3.142,0.831-5.606,4.037-6.779c1.415-0.518,2.071-1.503,1.966-3.086
				c-0.112-1.687-0.004-3.387-0.02-5.081c-0.015-1.61,0.356-2.917,1.967-3.761c2.598-1.36,2.068-4.204,2.099-6.249
				c0.217-14.259,0.107-28.523,0.061-42.786c-0.003-0.775-0.443-1.535-0.172-2.357c0.483-1.467,1.254-2.673,3.006-2.472
				c1.713,0.197,1.645,1.615,1.645,2.878c0.002,12.127-0.006,24.254-0.007,36.381c0,3.656,0.017,7.312,0.014,10.968
				c-0.001,1.313,0.183,2.463,1.627,3.05c2.126,0.864,2.769,2.61,2.674,4.763c-0.047,1.068,0.104,2.154-0.03,3.207
				c-0.325,2.551,0.608,4.08,3.061,5.137c2.676,1.153,2.92,3.788,2.914,6.382c-0.026,10.789-0.032,21.578-0.047,32.368
				C216.335,156.651,216.277,158.09,217.181,159.333z"/>
			<path fill="#B1AA80" d="M171.527,335.977c0,32.383,0,64.767-0.001,97.15c0,3.554-3.148,5.496-6.343,3.939
				c-0.731-0.356-0.671-0.991-0.683-1.59c-0.032-1.694-0.023-3.39-0.023-5.085c0.002-63.162,0.005-126.324,0.007-189.486
				c0-0.624,0.002-1.249-0.01-1.873c-0.095-5.095-0.123-3.867,4.122-4.156c2.534-0.173,3.088,0.744,3.083,3.146
				c-0.076,32.651-0.051,65.303-0.051,97.954C171.594,335.977,171.56,335.977,171.527,335.977z"/>
			<path fill="#B1AA80" d="M236.526,336.24c0.002-32.741-0.002-65.482,0.024-98.222c0.001-1.001-0.574-2.564,0.63-2.885
				c1.864-0.498,3.904-0.4,5.835-0.011c0.488,0.098,0.454,0.904,0.457,1.439c0.007,1.427,0.001,2.855,0.001,4.282
				c0.003,64.054,0.007,128.109,0.008,192.163c0,3.952-2.066,5.372-5.937,4.167c-1.447-0.451-0.88-1.598-0.888-2.444
				c-0.08-8.92-0.121-17.841-0.127-26.761C236.514,384.058,236.523,360.149,236.526,336.24z"/>
			<path fill="#B1AA80" d="M200.374,321.526c0-27.745,0.036-55.491-0.059-83.235c-0.009-2.611,0.465-3.643,3.329-3.43
				c4.504,0.335,3.963-0.578,3.964,4.057c0.012,55.312,0.009,110.624-0.033,165.936c-0.001,1.229,0.767,3.159-0.73,3.58
				c-1.814,0.51-3.889,0.173-5.843,0.062c-0.6-0.034-0.595-0.796-0.613-1.325c-0.023-0.713-0.015-1.427-0.015-2.141
				C200.374,377.195,200.374,349.361,200.374,321.526z"/>
			<path fill="#B1AA80" d="M183.542,321.797c0,27.657,0.01,55.314-0.031,82.97c-0.002,1.25,0.699,3.183-0.682,3.632
				c-1.696,0.551-3.706,0.205-5.575,0.127c-0.632-0.026-0.686-0.738-0.703-1.271c-0.031-0.98-0.027-1.962-0.027-2.943
				c0.003-55.403,0.003-110.805,0.038-166.208c0.001-1.043-0.72-2.692,0.78-3.017c1.871-0.406,3.953-0.586,5.784,0.176
				c0.84,0.35,0.404,1.637,0.405,2.493c0.025,17.397,0.025,34.794,0.028,52.191c0.002,10.617,0,21.233,0,31.85
				C183.555,321.797,183.549,321.797,183.542,321.797z"/>
			<path fill="#B1AA80" d="M195.605,321.803c0.001,27.995-0.021,55.99,0.046,83.985c0.005,2.162-0.473,3.206-2.798,2.872
				c-0.876-0.126-1.787-0.07-2.677-0.016c-1.267,0.076-1.811-0.449-1.703-1.723c0.06-0.708-0.002-1.425-0.002-2.139
				c-0.003-55.455-0.01-110.91,0.025-166.364c0.001-1.133-0.75-2.947,0.726-3.301c1.844-0.443,3.9-0.213,5.831,0.012
				c0.766,0.089,0.525,1.208,0.53,1.888c0.027,3.209,0.02,6.419,0.02,9.629C195.604,271.697,195.604,296.75,195.605,321.803z"/>
			<path fill="#B1AA80" d="M224.591,321.81c0-28,0.051-56-0.074-83.999c-0.014-3.022,1.42-2.92,3.55-2.958
				c2.247-0.04,3.466,0.092,3.46,3.039c-0.107,55.732-0.077,111.464-0.113,167.196c-0.001,1.152,0.755,2.959-0.686,3.349
				c-1.739,0.471-3.732,0.27-5.566,0.014c-0.904-0.126-0.595-1.348-0.596-2.108c-0.012-28.178-0.01-56.355-0.01-84.533
				C224.567,321.81,224.579,321.81,224.591,321.81z"/>
			<path fill="#B1AA80" d="M212.531,321.509c0-27.913,0.037-55.827-0.065-83.74c-0.009-2.444,0.688-3.004,2.977-2.892
				c4.676,0.229,4.054-0.669,4.056,4.181c0.02,55.292,0.016,110.584-0.014,165.875c-0.001,1.184,0.66,3.067-0.561,3.424
				c-1.806,0.528-3.899,0.33-5.826,0.088c-0.884-0.111-0.573-1.364-0.579-2.127c-0.03-3.835-0.023-7.669-0.023-11.504
				c-0.001-24.435-0.001-48.871-0.001-73.306C212.508,321.509,212.519,321.509,212.531,321.509z"/>
			<path fill="#B1AA80" d="M164.47,491.489c-0.002-14.535,0.048-29.071-0.054-43.606c-0.016-2.266,0.418-3.125,2.895-3.006
				c4.297,0.207,4.325,0.039,4.31,4.218c-0.099,28.887-0.231,57.773-0.26,86.66c-0.002,2.169-0.674,2.735-2.727,2.659
				c-4.97-0.184-3.993,0.485-4.152-4.121c-0.037-1.069-0.01-2.14-0.011-3.21C164.472,517.885,164.472,504.687,164.47,491.489z"/>
			<path fill="#B1AA80" d="M255.432,491.681c0,14.631-0.112,29.264,0.082,43.893c0.046,3.493-1.981,2.691-3.913,2.828
				c-2.059,0.146-3.192-0.099-3.183-2.749c0.104-29.263,0.097-58.526,0.017-87.788c-0.006-2.346,0.589-3.335,2.968-2.949
				c0.436,0.071,0.899,0.062,1.339,0.005c2.008-0.261,2.75,0.367,2.732,2.6c-0.114,14.72-0.059,29.441-0.059,44.161
				C255.422,491.681,255.427,491.681,255.432,491.681z"/>
			<path fill="#B1AA80" d="M236.54,491.645c0-14.623,0.126-29.247-0.086-43.867c-0.055-3.774,2.261-2.575,4.139-2.856
				c2.426-0.363,2.957,0.642,2.951,2.946c-0.076,29.336-0.07,58.672-0.013,88.009c0.004,2.005-0.588,2.81-2.583,2.504
				c-0.436-0.067-0.901-0.059-1.338,0.008c-2.274,0.347-3.046-0.443-3.026-2.874c0.119-14.623,0.059-29.247,0.059-43.87
				C236.609,491.645,236.575,491.645,236.54,491.645z"/>
			<path fill="#B1AA80" d="M152.526,491.782c-0.002-14.622,0.093-29.246-0.08-43.866c-0.036-3.048,1.461-2.991,3.591-3.005
				c2.131-0.014,3.56-0.084,3.546,2.968c-0.132,29.155-0.072,58.311-0.101,87.467c-0.001,0.978,0.592,2.507-0.678,2.83
				c-1.875,0.477-3.95,0.555-5.815-0.054c-0.855-0.279-0.444-1.616-0.445-2.472C152.522,521.027,152.528,506.404,152.526,491.782z"
				/>
			<path fill="#B1AA80" d="M214.381,555.642c0,3.657-0.038,7.315,0.018,10.971c0.023,1.505-0.328,2.191-2.084,2.151
				c-5.54-0.124-11.086-0.087-16.628-0.014c-1.479,0.02-2.06-0.386-2.048-1.936c0.059-7.581,0.065-15.164,0.001-22.745
				c-0.013-1.526,0.697-1.769,1.949-1.76c5.632,0.041,11.265,0.083,16.896,0.029c1.575-0.015,1.954,0.619,1.923,2.065
				C214.329,548.148,214.382,551.896,214.381,555.642z"/>
			<path fill="#B1AA80" d="M176.603,507.409c-0.001-9.362,0.096-18.725-0.065-28.084c-0.043-2.466,0.751-3.112,3.033-2.908
				c2.052,0.183,4.046-0.61,4.002,3.048c-0.225,18.632-0.226,37.268-0.017,55.9c0.041,3.635-1.967,2.819-4.004,3.062
				c-2.667,0.318-3.014-0.952-2.99-3.201C176.661,525.955,176.603,516.682,176.603,507.409z"/>
			<path fill="#B1AA80" d="M231.374,507.523c0,9.445-0.057,18.892,0.046,28.336c0.022,2.01-0.582,2.644-2.561,2.535
				c-4.539-0.25-4.15,0.796-4.153-4.116c-0.014-18.178-0.012-36.357,0.029-54.535c0.002-1.061-0.652-2.761,0.678-3.067
				c1.75-0.403,3.71-0.222,5.516,0.085c0.826,0.14,0.429,1.406,0.431,2.158C231.382,488.454,231.374,497.989,231.374,507.523z"/>
			<path fill="#B1AA80" d="M207.542,442.508c-0.002,7.582-0.076,15.164,0.045,22.744c0.035,2.182-0.542,2.932-2.82,2.845
				c-4.304-0.165-4.31-0.029-4.311-4.464c-0.003-14.628,0.047-29.256-0.06-43.883c-0.017-2.31,0.519-3.356,2.94-2.943
				c0.608,0.104,1.26,0.09,1.873,0.003c1.935-0.274,2.392,0.602,2.372,2.418C207.494,426.987,207.544,434.748,207.542,442.508z"/>
			<path fill="#B1AA80" d="M219.452,535.403c-1.116-2.466-2.51-4.77-4.735-6.316c-1.762-1.224-2.191-2.65-2.18-4.686
				c0.08-15.06,0.148-30.123-0.035-45.182c-0.043-3.522,2.075-2.616,3.963-2.811c2.211-0.228,3.074,0.319,3.056,2.858
				C219.393,497.978,219.452,516.691,219.452,535.403z"/>
			<path fill="#B1AA80" d="M188.539,535.479c0-1.117,0-2.235,0-3.353c0.001-17.564,0.042-35.129-0.047-52.693
				c-0.011-2.248,0.392-3.195,2.893-3.062c5.021,0.268,4.137-0.118,4.151,4.223c0.05,14.711-0.002,29.423,0.037,44.134
				c0.005,1.701-0.233,2.953-1.866,4.015C191.279,530.32,189.815,532.811,188.539,535.479z"/>
			<path fill="#B1AA80" d="M200.463,501.133c0-7.309,0.091-14.619-0.053-21.925c-0.045-2.294,0.736-3.063,2.9-2.795
				c0.704,0.088,1.436,0.084,2.141,0.003c1.708-0.196,2.102,0.631,2.098,2.186c-0.037,14.974-0.034,29.948,0.013,44.922
				c0.005,1.538-0.345,2.192-2.056,2.231c-5.041,0.114-5.049,0.191-5.056-4.835c-0.01-6.596-0.002-13.191-0.002-19.787
				C200.452,501.133,200.458,501.133,200.463,501.133z"/>
			<path fill="#B1AA80" d="M219.478,442.538c0,7.658-0.066,15.316,0.045,22.972c0.029,1.979-0.497,2.653-2.53,2.581
				c-5.311-0.187-4.377,0.528-4.393-4.378c-0.046-14.692,0.085-29.385-0.107-44.075c-0.042-3.202,1.659-2.801,3.637-2.839
				c1.98-0.038,3.505-0.254,3.401,2.769c-0.263,7.648-0.087,15.312-0.087,22.969C219.456,442.538,219.467,442.538,219.478,442.538z"
				/>
			<path fill="#B1AA80" d="M188.544,442.21c0-7.568,0.071-15.137-0.046-22.703c-0.032-2.075,0.494-2.805,2.665-2.721
				c5.19,0.202,4.355-0.512,4.369,4.438c0.039,14.602,0.027,29.205-0.009,43.807c-0.002,0.985,0.554,2.571-0.703,2.834
				c-1.865,0.391-3.926,0.583-5.769-0.184c-0.79-0.329-0.432-1.461-0.434-2.232c-0.022-7.746-0.013-15.493-0.013-23.239
				C188.583,442.21,188.564,442.21,188.544,442.21z"/>
			<path fill="#B1AA80" d="M200.372,209.922c-0.001-4.813,0.084-9.628-0.042-14.438c-0.053-2.031,0.645-2.6,2.622-2.514
				c5.338,0.234,4.63-0.774,4.644,4.718c0.022,8.824-0.074,17.649,0.054,26.471c0.033,2.29-0.73,2.881-2.895,2.799
				c-5.15-0.196-4.312,0.512-4.371-4.469C200.334,218.3,200.374,214.111,200.372,209.922z"/>
			<path fill="#B1AA80" d="M195.602,210.016c0,4.814-0.093,9.63,0.04,14.44c0.062,2.257-0.772,3.12-2.966,2.866
				c-0.705-0.082-1.437-0.085-2.141-0.001c-1.696,0.204-2.104-0.573-2.095-2.156c0.06-9.984,0.06-19.968,0.008-29.951
				c-0.008-1.519,0.248-2.271,2.015-2.225c6.197,0.159,5.078-0.797,5.131,4.993C195.633,201.993,195.603,206.004,195.602,210.016z"
				/>
			<path fill="#B1AA80" d="M219.506,209.892c0,4.891-0.081,9.784,0.04,14.673c0.047,1.906-0.624,2.431-2.446,2.384
				c-5.482-0.141-4.54,0.427-4.571-4.527c-0.056-8.893,0.07-17.787-0.056-26.678c-0.032-2.279,0.699-3.075,2.874-2.741
				c0.435,0.067,0.897,0.059,1.334-0.003c2.152-0.306,2.98,0.442,2.891,2.753c-0.181,4.706-0.054,9.425-0.054,14.138
				C219.514,209.892,219.51,209.892,219.506,209.892z"/>
			<path fill="#B1AA80" d="M183.545,210.009c0,4.729-0.077,9.459,0.036,14.185c0.048,2.004-0.409,2.857-2.657,2.757
				c-5.125-0.228-4.348,0.563-4.376-4.456c-0.051-8.921,0.041-17.844-0.039-26.765c-0.018-1.97,0.353-2.846,2.609-2.757
				c5.088,0.203,4.325-0.581,4.424,4.456c0.082,4.192,0.017,8.386,0.017,12.579C183.554,210.009,183.55,210.009,183.545,210.009z"/>
			<path fill="#B1AA80" d="M231.447,209.917c0.001,4.905-0.052,9.811,0.03,14.715c0.028,1.679-0.425,2.391-2.241,2.313
				c-5.409-0.234-4.542,0.748-4.584-4.491c-0.07-8.829,0.044-17.659-0.077-26.487c-0.031-2.29,0.549-3.113,2.97-3.003
				c4.652,0.211,3.837-0.253,3.887,3.844C231.488,201.177,231.446,205.547,231.447,209.917z"/>
			<path fill="#B1AA80" d="M231.457,555.729c0.001,3.025-0.044,6.05,0.022,9.073c0.028,1.307-0.284,1.834-1.761,1.875
				c-5.137,0.143-5.118,0.213-5.109-4.928c0.008-4.803,0.05-9.609-0.078-14.409c-0.053-1.997,0.438-3.08,2.639-2.711
				c0.087,0.015,0.178,0.002,0.267,0.005c4.496,0.114,3.978-0.789,4.016,3.889C231.472,550.925,231.456,553.327,231.457,555.729z"/>
			<path fill="#B1AA80" d="M243.486,555.634c0,2.931-0.06,5.864,0.025,8.792c0.045,1.545-0.377,2.276-2.08,2.222
				c-5.857-0.185-4.826,0.816-4.908-4.636c-0.074-4.973,0.047-9.949-0.034-14.921c-0.028-1.725,0.296-2.538,2.309-2.468
				c5.438,0.189,4.636-0.752,4.677,4.616c0.016,2.132,0.003,4.263,0.003,6.395C243.48,555.634,243.483,555.634,243.486,555.634z"/>
			<path fill="#B1AA80" d="M171.607,555.819c0,2.943-0.061,5.889,0.025,8.83c0.044,1.506-0.493,1.972-2.002,2.02
				c-5.154,0.163-5.153,0.222-5.158-5.032c-0.004-4.817,0.061-9.635-0.042-14.449c-0.042-1.957,0.585-2.67,2.608-2.591
				c5.535,0.214,4.431-0.563,4.569,4.533c0.06,2.228,0.01,4.46,0.01,6.69C171.614,555.819,171.611,555.819,171.607,555.819z"/>
			<path fill="#B1AA80" d="M176.542,456.428c0-3.116,0.071-6.233-0.03-9.346c-0.051-1.576,0.374-2.398,2.075-2.158
				c0.087,0.012,0.178-0.007,0.267-0.011c4.658-0.183,4.675-0.183,4.691,4.387c0.019,5.341-0.047,10.683,0.034,16.023
				c0.03,1.945-0.379,2.897-2.656,2.762c-4.952-0.293-4.34,0.735-4.395-4.447c-0.026-2.403-0.004-4.807-0.004-7.211
				C176.53,456.428,176.536,456.428,176.542,456.428z"/>
			<path fill="#B1AA80" d="M231.456,456.682c0,3.021-0.076,6.045,0.03,9.062c0.059,1.685-0.424,2.32-2.228,2.322
				c-4.646,0.006-4.642,0.094-4.64-4.58c0.003-5.42,0.038-10.841-0.03-16.26c-0.02-1.601,0.248-2.362,2.165-2.34
				c4.699,0.055,4.699-0.059,4.693,4.599c-0.003,2.399-0.001,4.798-0.001,7.197C231.449,456.682,231.453,456.682,231.456,456.682z"
				/>
			<path fill="#B1AA80" d="M147.613,555.783c0,2.943-0.053,5.888,0.023,8.83c0.037,1.444-0.356,2.085-1.946,2.048
				c-6.27-0.148-4.957,0.63-5.047-4.826c-0.079-4.815,0.069-9.635-0.05-14.449c-0.049-1.997,0.393-2.864,2.626-2.77
				c5.085,0.216,4.314-0.532,4.398,4.477c0.037,2.229,0.006,4.46,0.006,6.69C147.619,555.783,147.616,555.783,147.613,555.783z"/>
			<path fill="#B1AA80" d="M159.513,555.961c0.002,2.764-0.064,5.53,0.028,8.291c0.054,1.621-0.292,2.45-2.184,2.393
				c-5.835-0.173-4.737,0.79-4.809-4.754c-0.066-5.081,0.045-10.165-0.03-15.246c-0.022-1.525,0.512-1.97,1.997-2.025
				c4.998-0.184,4.996-0.237,4.996,4.653C159.511,551.503,159.511,553.732,159.513,555.961z"/>
			<path fill="#B1AA80" d="M183.531,555.748c0,2.941-0.036,5.882,0.016,8.822c0.025,1.39-0.319,2.13-1.937,2.09
				c-6.252-0.156-4.977,0.63-5.073-4.815c-0.086-4.9,0.094-9.805-0.045-14.702c-0.058-2.064,0.685-2.586,2.613-2.516
				c5.073,0.183,4.325-0.607,4.429,4.438c0.046,2.227,0.008,4.456,0.008,6.683C183.539,555.748,183.535,555.748,183.531,555.748z"/>
			<path fill="#B1AA80" d="M255.414,555.459c0,3.115-0.049,6.231,0.022,9.344c0.032,1.401-0.502,1.879-1.878,1.845
				c-6.227-0.153-4.953,0.715-5.054-4.797c-0.089-4.893,0.058-9.792-0.069-14.684c-0.052-1.998,0.6-2.611,2.585-2.55
				c5.376,0.163,4.282-0.338,4.396,4.434c0.051,2.135,0.009,4.272,0.009,6.408C255.421,555.459,255.417,555.459,255.414,555.459z"/>
			<path fill="#B1AA80" d="M267.311,555.725c0,3.027-0.039,6.054,0.017,9.08c0.025,1.37-0.482,1.877-1.88,1.85
				c-6.259-0.121-4.954,0.627-5.042-4.815c-0.079-4.895,0.077-9.794-0.056-14.687c-0.055-2.029,0.623-2.615,2.601-2.549
				c5.337,0.177,4.274-0.379,4.365,4.445c0.042,2.225,0.007,4.451,0.007,6.676C267.32,555.725,267.316,555.725,267.311,555.725z"/>
			<path fill="#B1AA80" d="M231.373,427.124c0,2.495-0.084,4.994,0.03,7.483c0.076,1.649-0.309,2.305-2.165,2.311
				c-4.551,0.016-4.544,0.13-4.544-4.436c0-4.455,0.035-8.911-0.05-13.365c-0.031-1.643,0.341-2.358,2.215-2.343
				c4.528,0.034,4.529-0.072,4.529,4.469c0,1.96,0,3.92,0,5.881C231.383,427.124,231.378,427.124,231.373,427.124z"/>
			<path fill="#B1AA80" d="M176.601,426.827c0-2.668,0.054-5.338-0.022-8.004c-0.041-1.44,0.36-2.074,1.946-2.025
				c5.806,0.178,4.847-0.74,4.934,4.684c0.069,4.357-0.073,8.719,0.05,13.073c0.057,2.027-0.781,2.753-2.661,2.644
				c-0.355-0.021-0.721-0.056-1.068-0.001c-2.526,0.4-3.502-0.535-3.23-3.171C176.795,431.649,176.601,429.228,176.601,426.827z"/>
			<path fill="#B1AA80" d="M207.601,176.41c0,2.135-0.081,4.275,0.027,6.405c0.08,1.583-0.404,2.24-2.087,2.207
				c-6.319-0.126-5.045,0.603-5.156-5.011c-0.065-3.291,0.043-6.586-0.048-9.875c-0.043-1.58,0.437-2.217,2.111-2.192
				c6.434,0.098,5.012-0.522,5.161,4.996c0.031,1.156,0.005,2.313,0.005,3.47C207.61,176.41,207.605,176.41,207.601,176.41z"/>
			<path fill="#B1AA80" d="M219.508,176.612c0,2.14-0.069,4.283,0.023,6.419c0.066,1.53-0.547,2.011-2.033,1.99
				c-6.163-0.088-4.89,0.448-4.988-4.647c-0.067-3.476,0.056-6.956-0.012-10.432c-0.03-1.517,0.56-1.967,2.036-2.02
				c4.989-0.179,4.987-0.232,4.987,4.677c0,1.338,0,2.675,0,4.013C219.517,176.612,219.513,176.612,219.508,176.612z"/>
			<path fill="#B1AA80" d="M195.607,176.405c0,2.227-0.049,4.456,0.018,6.682c0.041,1.353-0.457,1.848-1.843,1.938
				c-5.306,0.346-5.305,0.392-5.305-4.878c0-3.386,0.067-6.773-0.017-10.156c-0.037-1.489,0.447-2,1.969-2.06
				c5.174-0.204,5.171-0.262,5.169,5c0,1.158,0,2.317,0,3.475C195.602,176.405,195.605,176.405,195.607,176.405z"/>
		</g>
		<g>
			<path fill="#D1E5D3" d="M935.082,346.289c0,0,4.585-2.985,4.585-4.558c0-1.573,16.053-6.64,16.053-6.64v-18.698l-6.858-0.874
				c0,0-2.378-6.116-5.531-3.32c-3.153,2.796-4.254-19.572-4.254,5.592c0,8.203-5.979-3.158-7.29-7.944
				C931.787,309.846,935.082,332.673,935.082,346.289z"/>
			<rect x="877.301" y="454.437" fill="#D1E5D3" width="66.614" height="5.047"/>
			<rect x="862.966" y="459.485" fill="#B1AA80" width="93.597" height="22.714"/>
			<rect x="867.182" y="463.691" fill="#D1E5D3" width="12.648" height="14.301"/>
			<rect x="883.203" y="463.691" fill="#D1E5D3" width="15.178" height="14.301"/>
			<rect x="902.597" y="463.691" fill="#D1E5D3" width="14.335" height="14.301"/>
			<rect x="921.991" y="463.691" fill="#D1E5D3" width="11.805" height="14.301"/>
			<rect x="937.169" y="463.691" fill="#D1E5D3" width="12.648" height="14.301"/>
			<rect x="872.241" y="527.626" fill="#B1AA80" width="76.733" height="3.365"/>
			<rect x="872.241" y="530.991" fill="#D1E5D3" width="76.733" height="1.682"/>
			<rect x="872.241" y="532.673" fill="#B1AA80" width="76.733" height="1.682"/>
			<rect x="872.241" y="534.356" fill="#D1E5D3" width="76.733" height="4.206"/>
			<rect x="863.809" y="538.562" fill="#B1AA80" width="92.754" height="10.936"/>
			<rect x="867.182" y="549.498" fill="#D1E5D3" width="87.695" height="10.936"/>
			<rect x="863.809" y="560.434" fill="#B1AA80" width="92.754" height="12.619"/>
			<path fill="#B1AA80" d="M898.507,249.73l-13.549-11.188c0,0-2.014,0.699-1.314,1.398c0.701,0.699,13.55,11.787,13.55,11.787
				L898.507,249.73z"/>
			<path fill="#B1AA80" d="M915.726,249.73l13.549-11.188c0,0,2.014,0.699,1.314,1.398c-0.701,0.699-13.55,11.787-13.55,11.787
				L915.726,249.73z"/>
			<path fill="#B1AA80" d="M907.715,242.64l-0.126-14.75c0,0-1.832-1.089-1.918-0.105c-0.086,0.985-0.333,15.137-0.333,15.137
				L907.715,242.64z"/>
			<path fill="#B1AA80" d="M902.872,245.717l-10.651-13.963c0,0-2.121,0.225-1.597,1.064c0.523,0.839,10.517,14.547,10.517,14.547
				L902.872,245.717z"/>
			<path fill="#B1AA80" d="M911.559,245.717l10.651-13.963c0,0,2.121,0.225,1.597,1.064s-10.517,14.547-10.517,14.547
				L911.559,245.717z"/>
			<rect x="874.771" y="198.699" fill="#D1E5D3" width="8.432" height="1.682"/>
			<rect x="870.555" y="190.286" fill="#D1E5D3" width="17.708" height="6.73"/>
			<rect x="871.398" y="184.397" fill="#D1E5D3" width="16.021" height="5.889"/>
			<path fill="#F2A670" d="M879.087,182.722c0,0,12.412-0.545,4.204-14.038c-1.188-1.953-4.202-7.398-4.202-7.398l0,0
				c0,0-3.014,5.445-4.202,7.398c-8.208,13.493,4.204,13.892,4.204,13.892"/>
			<path fill="#B1AA80" d="M917.172,256.404l13.323-6.397c0,0,0.208-2.118-0.722-1.776s-13.869,6.147-13.869,6.147L917.172,256.404z
				"/>
			<path fill="#B1AA80" d="M895.616,256.404l-13.322-6.397c0,0-0.208-2.118,0.722-1.776c0.93,0.342,13.869,6.147,13.869,6.147
				L895.616,256.404z"/>
			<path fill="#B1AA80" d="M911.458,285.986c0,0,18.779-0.818,22.516,31.336s4.321,119.449,8.875,129.544H878.74
				c0,0,4.12-17.705-1.752-41.82c-0.613-2.517,5.554-1.852,5.668-4.667c0.757-18.559,0.877-42.028-0.764-68.9
				C879.775,296.788,911.458,285.986,911.458,285.986z"/>
			<path fill="#D1E5D3" d="M876.989,358.332c0,0,12.472-13.107,21.581-28.659c9.108-15.552,16.676-33.008,16.676-33.008v49.085
				c0,0-13.34,44.037-32.524,54.521L876.989,358.332z"/>
			<path fill="#D1E5D3" d="M877.045,431.957c0,0,13.284-9.726,23.093-28.25s19.604-39.463,19.604-39.463l15.757,2.286L919.4,378.246
				c1.341,5.242,17.769,5.574,17.769,5.574v8.064c0,0-9.422,11.065-14.326,14.909c-4.904,3.844,3.19,22.407-3.116,40.073h-9.108
				l4.904-30.756c0,0-14.363,17.296-16.815,30.756H878.74L877.045,431.957z"/>
			<rect x="870.555" y="480.516" fill="#B1AA80" width="80.949" height="47.11"/>
			<rect x="881.517" y="480.516" fill="#D1E5D3" width="57.339" height="47.11"/>
			<rect x="887.419" y="488.087" fill="#B1AA80" width="11.805" height="31.967"/>
			<rect x="903.441" y="488.087" fill="#B1AA80" width="13.491" height="31.967"/>
			<rect x="922.835" y="488.087" fill="#B1AA80" width="11.805" height="31.967"/>
			<path fill="#B1AA80" d="M916.528,253.638c0,0,2.105-2.808-3.383-6.186l-5.021-4.167h-2.409l-5.021,4.167
				c-5.488,3.378-3.383,6.491-3.383,6.491"/>
			<path fill="#D1E5D3" d="M906.813,247.658c0,0-10.743,3.262-10.743,8.737c0,5.475-1.905,20.504,10.743,20.504V247.658z"/>
			<path fill="#B1AA80" d="M905.97,247.658c0,0,10.743,3.262,10.743,8.737c0,5.475,2.748,20.504-10.743,20.504V247.658z"/>
			<rect x="872.241" y="446.025" fill="#B1AA80" width="75.046" height="8.412"/>
			<path fill="#D1E5D3" d="M887.474,257.558c0,0-4.72-41.81-2.851-55.789l-10.669,0.222c0,0-0.399,49.034,4.705,66.806"/>
			<path fill="#B1AA80" d="M894.078,272.465c0,0-6.474-7.728-5.949-14.718c0.526-6.99-4.707,14.44-17.165,13.98
				c-4.729-0.175,11.557,38.888,11.557,38.888S893.546,299.939,894.078,272.465z"/>
			<path fill="#D1E5D3" d="M910.848,285.986c0,0-12.558-5.449-16.771-14.29c0,0-6.658,24.251-13.403,39.454v10.485
				C880.674,321.635,907.759,293.151,910.848,285.986z"/>
		</g>
		<g>
			<path fill="none" stroke="#D1E5D3" stroke-width="6.9318" stroke-miterlimit="10" d="M366.066,422.578
				c0,0,28.709,115.713,197.096,115.713s203.244-117.019,203.244-117.019"/>
			<path fill="none" stroke="#D1E5D3" stroke-width="6.9318" stroke-miterlimit="10" d="M363.508,431.944
				c0,0,31.267,115.713,199.654,115.713s203.343-111.81,203.343-111.81"/>
			<polygon fill="#B1AA80" points="359.974,421.321 359.974,403.619 337.301,403.619 337.301,421.321 329.415,421.321 
				329.415,565.89 336.651,565.89 337.433,565.89 357.775,565.89 359.34,565.89 364.903,565.89 364.903,421.321 			"/>
			<path fill="#B1AA80" d="M324.138,413.454h13.163v11.273C337.301,424.726,323.443,423.288,324.138,413.454z"/>
			<path fill="#B1AA80" d="M371.832,413.454h-11.858v11.273C359.974,424.726,372.527,423.288,371.832,413.454z"/>
			<rect x="341.244" y="417.387" fill="#D1E5D3" width="12.815" height="144.569"/>
			<rect x="332.372" y="418.371" fill="#D1E5D3" width="1.972" height="143.585"/>
			<rect x="359.974" y="418.371" fill="#D1E5D3" width="1.972" height="143.585"/>
			<g>
				<rect x="6.085" y="564.906" fill="#B1AA80" width="1894.637" height="21.636"/>
				<rect x="29.743" y="566.873" fill="#D1E5D3" width="1847.32" height="7.868"/>
				<rect x="40.587" y="578.675" fill="#D1E5D3" width="1842.391" height="3.934"/>
			</g>
			
				<line fill="none" stroke="#D1E5D3" stroke-width="6.9318" stroke-miterlimit="10" x1="387.575" y1="475.411" x2="387.575" y2="564.906"/>
			
				<line fill="none" stroke="#D1E5D3" stroke-width="6.9318" stroke-miterlimit="10" x1="433.906" y1="515.733" x2="433.906" y2="564.906"/>
			
				<line fill="none" stroke="#D1E5D3" stroke-width="6.9318" stroke-miterlimit="10" x1="477.28" y1="537.369" x2="477.28" y2="564.906"/>
			
				<line fill="none" stroke="#D1E5D3" stroke-width="6.9318" stroke-miterlimit="10" x1="715.834" y1="501.965" x2="715.834" y2="564.906"/>
			
				<line fill="none" stroke="#D1E5D3" stroke-width="6.9318" stroke-miterlimit="10" x1="671.475" y1="527.535" x2="671.475" y2="564.906"/>
			
				<line fill="none" stroke="#D1E5D3" stroke-width="6.9318" stroke-miterlimit="10" x1="603.457" y1="545.237" x2="603.457" y2="564.906"/>
			
				<line fill="none" stroke="#D1E5D3" stroke-width="6.9318" stroke-miterlimit="10" x1="539.383" y1="548.188" x2="539.383" y2="564.906"/>
			<g>
				<polygon fill="#B1AA80" points="795.681,423.288 795.681,404.602 773.009,404.602 773.009,423.288 764.137,423.288 
					764.137,566.873 772.233,566.873 773.016,566.873 793.358,566.873 794.922,566.873 800.61,566.873 800.61,423.288 				"/>
				<path fill="#B1AA80" d="M759.72,414.437h13.288v11.595C773.009,426.032,759.025,425.255,759.72,414.437z"/>
				<path fill="#B1AA80" d="M807.414,414.437h-11.733v11.595C795.681,426.032,808.109,425.255,807.414,414.437z"/>
				<rect x="776.952" y="418.371" fill="#D1E5D3" width="12.815" height="144.569"/>
				<rect x="768.08" y="419.354" fill="#D1E5D3" width="1.972" height="143.585"/>
				<rect x="795.681" y="419.354" fill="#D1E5D3" width="1.972" height="143.585"/>
			</g>
			<g>
				<polygon fill="#B1AA80" points="1720.327,422.305 1720.327,403.619 1697.654,403.619 1697.654,422.305 1688.783,422.305 
					1688.783,565.89 1696.879,565.89 1697.662,565.89 1718.003,565.89 1719.568,565.89 1725.256,565.89 1725.256,422.305 				"/>
				<path fill="#B1AA80" d="M1684.366,413.454h13.288v11.595C1697.654,425.048,1683.671,424.272,1684.366,413.454z"/>
				<path fill="#B1AA80" d="M1732.06,413.454h-11.733v11.595C1720.327,425.048,1732.755,424.272,1732.06,413.454z"/>
				<rect x="1701.597" y="417.387" fill="#D1E5D3" width="12.815" height="144.569"/>
				<rect x="1692.726" y="418.371" fill="#D1E5D3" width="1.972" height="143.585"/>
				<rect x="1720.327" y="418.371" fill="#D1E5D3" width="1.972" height="143.585"/>
			</g>
			<g>
				<polygon fill="#B1AA80" points="1811.017,422.305 1811.017,403.619 1788.345,403.619 1788.345,422.305 1779.473,422.305 
					1779.473,565.89 1787.569,565.89 1788.352,565.89 1808.694,565.89 1810.258,565.89 1815.946,565.89 1815.946,422.305 				"/>
				<path fill="#B1AA80" d="M1775.056,413.454h13.288v11.595C1788.345,425.048,1774.361,424.272,1775.056,413.454z"/>
				<path fill="#B1AA80" d="M1822.75,413.454h-11.733v11.595C1811.017,425.048,1823.445,424.272,1822.75,413.454z"/>
				<rect x="1792.288" y="417.387" fill="#D1E5D3" width="12.815" height="144.569"/>
				<rect x="1783.416" y="418.371" fill="#D1E5D3" width="1.972" height="143.585"/>
				<rect x="1811.017" y="418.371" fill="#D1E5D3" width="1.972" height="143.585"/>
			</g>
		</g>
	</g>
</g>
</svg>
