<?xml version="1.0" encoding="utf-8"?>
<!-- Generator: Adobe Illustrator 17.0.0, SVG Export Plug-In . SVG Version: 6.00 Build 0)  -->
<!DOCTYPE svg PUBLIC "-//W3C//DTD SVG 1.1//EN" "http://www.w3.org/Graphics/SVG/1.1/DTD/svg11.dtd">
<svg version="1.1" id="Layer_1" xmlns="http://www.w3.org/2000/svg" xmlns:xlink="http://www.w3.org/1999/xlink" x="0px" y="0px"
	 width="700px" height="375px" viewBox="0 0 700 375" enable-background="new 0 0 700 375" xml:space="preserve">
<g id="background_แค่แถวบน">
</g>
<g id="Layer_1_1_">
	<path fill="#D3E5DF" d="M385.152,39.828h-16.989c0.087-0.433,0.134-0.893,0.134-1.374c0-2.653-1.426-4.801-3.188-4.801h-56.487
		c-1.761,0-3.188,2.149-3.188,4.801c0,2.653,1.426,4.801,3.188,4.801h16.989c-0.087,0.433-0.134,0.893-0.134,1.374
		c0,0.74,0.113,1.435,0.311,2.057h-37.211c-1.761,0-3.188,2.149-3.188,4.801c0,2.653,1.426,4.801,3.188,4.801h56.487
		c1.761,0,3.188-2.149,3.188-4.801c0-0.74-0.113-1.435-0.311-2.057h37.208c1.761,0,3.188-2.149,3.188-4.801
		C388.34,41.978,386.913,39.828,385.152,39.828z"/>
	<path fill="#D3E5DF" d="M592.571,16.372h-16.989c0.087-0.433,0.134-0.893,0.134-1.374c0-2.653-1.426-4.801-3.188-4.801h-56.487
		c-1.761,0-3.188,2.149-3.188,4.801s1.426,4.801,3.188,4.801h16.989c-0.087,0.433-0.134,0.893-0.134,1.374
		c0,0.74,0.113,1.435,0.311,2.057h-37.208c-1.761,0-3.188,2.149-3.188,4.801s1.426,4.801,3.188,4.801h56.487
		c1.761,0,3.188-2.149,3.188-4.801c0-0.74-0.113-1.435-0.311-2.057h37.208c1.761,0,3.188-2.149,3.188-4.801
		C595.759,18.526,594.333,16.372,592.571,16.372z"/>
	<path fill="#D3E5DF" d="M187.729,12.476h-8.171c0.006-0.088,0.011-0.171,0.011-0.259c0-1.865-1.331-3.379-2.97-3.379h-44.781
		c-1.639,0-2.97,1.514-2.97,3.379s1.331,3.379,2.97,3.379h13.484c0,0.027-0.003,0.048-0.003,0.07v0.377
		c0,0.595,0.148,1.155,0.399,1.633h-7.722c-1.256,0-2.272,1.155-2.272,2.587v1.584c0,1.426,1.018,2.587,2.272,2.587h25.155
		c1.256,0,2.272-1.155,2.272-2.587v-1.584c0-0.363-0.066-0.709-0.188-1.024h22.516c1.549,0,2.804-1.426,2.804-3.19v-0.377
		C190.538,13.904,189.282,12.476,187.729,12.476z"/>
</g>
<g id="text">
</g>
<g id="ปุ่มซ้ายขวา" display="none">
</g>
<g id="ชื่อประเทศ" display="none">
</g>
<g id="Layer_5">
</g>
<g id="รถในหลวง" display="none">
</g>
<g id="Layer_6">
</g>
</svg>
