<?xml version="1.0" encoding="utf-8"?>
<!-- Generator: Adobe Illustrator 17.0.0, SVG Export Plug-In . SVG Version: 6.00 Build 0)  -->
<!DOCTYPE svg PUBLIC "-//W3C//DTD SVG 1.1//EN" "http://www.w3.org/Graphics/SVG/1.1/DTD/svg11.dtd">
<svg version="1.1" id="Layer_1" xmlns="http://www.w3.org/2000/svg" xmlns:xlink="http://www.w3.org/1999/xlink" x="0px" y="0px"
	 width="336px" height="209.138px" viewBox="0 0 336 209.138" enable-background="new 0 0 336 209.138" xml:space="preserve">
<g>
	<g>
		<g opacity="0">
			<defs>
				<rect id="SVGID_1_" x="-4186.58" y="-467.321" opacity="0" width="1913.591" height="1076.395"/>
			</defs>
			<clipPath id="SVGID_2_">
				<use xlink:href="#SVGID_1_"  overflow="visible"/>
			</clipPath>
			<linearGradient id="SVGID_3_" gradientUnits="userSpaceOnUse" x1="-9929.3467" y1="71.0944" x2="1555.1903" y2="71.0944">
				<stop  offset="0" style="stop-color:#FDC06F"/>
				<stop  offset="0.1403" style="stop-color:#EFACB8"/>
				<stop  offset="0.3675" style="stop-color:#B2B1D8"/>
				<stop  offset="0.4593" style="stop-color:#A9BED0"/>
				<stop  offset="0.5966" style="stop-color:#99CDC6"/>
				<stop  offset="0.6874" style="stop-color:#AFCDA7"/>
				<stop  offset="0.7491" style="stop-color:#BBCD95"/>
				<stop  offset="0.8122" style="stop-color:#CDCA90"/>
				<stop  offset="0.9336" style="stop-color:#E9C289"/>
				<stop  offset="1" style="stop-color:#F3BE86"/>
			</linearGradient>
			<rect x="-9929.347" y="-466.885" clip-path="url(#SVGID_2_)" fill="url(#SVGID_3_)" width="11484.537" height="1075.959"/>
		</g>
	</g>
</g>
<g>
	<g>
		<path fill="#FFFFFF" d="M108.137,139.822c-5.367,5.937-14.028,8.905-25.982,8.905c-13.012,0-22.628-2.642-28.849-7.929
			c-6.221-5.285-9.332-13.864-9.332-25.738V67.974c0-0.894-0.182-1.504-0.549-1.83c-0.366-0.324-1.159-0.61-2.379-0.854
			l-4.513-0.976v-2.44h39.522v2.44l-4.391,0.976c-1.14,0.244-1.891,0.509-2.256,0.793c-0.366,0.286-0.549,0.875-0.549,1.769v49.403
			c0,6.913,0.488,12.28,1.464,16.102c0.976,3.823,2.867,6.648,5.672,8.478s6.932,2.745,12.381,2.745
			c7.807,0,13.784-2.562,17.932-7.685c4.148-5.123,6.221-11.912,6.221-20.371V67.974c0-0.894-0.182-1.504-0.549-1.83
			c-0.366-0.324-1.159-0.61-2.379-0.854l-4.513-0.976v-2.44h18.541v2.44l-4.391,0.976c-1.14,0.244-1.891,0.509-2.257,0.793
			c-0.366,0.286-0.549,0.875-0.549,1.769v47.695C116.268,125.794,113.504,133.887,108.137,139.822z"/>
		<path fill="#FFFFFF" d="M176.812,142.383c2.927-2.032,4.391-4.959,4.391-8.783c0-3.09-0.67-5.651-2.013-7.685
			c-1.342-2.032-3.397-3.903-6.16-5.611c-2.765-1.708-6.831-3.739-12.198-6.099c-6.83-3.008-12.118-5.672-15.858-7.99
			c-3.741-2.318-6.689-5.245-8.844-8.783c-2.156-3.537-3.232-8.03-3.232-13.479c0-7.807,2.763-13.681,8.294-17.626
			c5.53-3.944,14.312-5.916,26.349-5.916c5.367,0,10.551,0.53,15.552,1.586c5.002,1.058,9.21,2.399,12.625,4.025l-2.927,18.663
			h-3.293c-1.546-4.959-3.152-8.905-4.819-11.832c-1.668-2.928-3.925-5.184-6.77-6.77c-2.847-1.586-6.629-2.379-11.344-2.379
			c-10.734,0-16.102,3.497-16.102,10.49c0,2.848,0.65,5.205,1.952,7.075c1.3,1.871,3.251,3.558,5.855,5.062
			c2.602,1.506,6.911,3.72,12.93,6.648l2.44,1.098c7.563,3.66,13.153,6.629,16.773,8.905c3.618,2.277,6.484,5.104,8.599,8.478
			c2.114,3.376,3.172,7.746,3.172,13.113c0,7.971-2.989,13.988-8.966,18.054c-5.977,4.067-15.351,6.099-28.117,6.099
			c-5.123,0-10.795-0.57-17.016-1.708c-6.221-1.138-11.039-2.52-14.455-4.147l3.294-21.469h3.172
			c1.056,6.343,2.642,11.264,4.757,14.76c2.114,3.497,4.757,5.916,7.929,7.258s7.075,2.013,11.71,2.013
			C169.778,145.433,173.885,144.417,176.812,142.383z"/>
		<path fill="#FFFFFF" d="M260.003,144.823l5.245-0.488c1.138-0.162,1.708-0.61,1.708-1.342c0-0.406-0.122-0.894-0.366-1.464
			l-8.051-17.81H230.24l-7.319,17.81c-0.244,0.57-0.366,1.058-0.366,1.464c0,0.732,0.569,1.18,1.708,1.342l5.245,0.488v2.44h-18.541
			v-2.44l4.513-0.488c0.976-0.08,1.666-0.324,2.074-0.732c0.406-0.406,0.853-1.138,1.342-2.196l33.789-80.874h3.903l35.74,80.874
			c0.489,1.058,0.934,1.79,1.342,2.196c0.406,0.408,1.098,0.652,2.074,0.732l4.513,0.488v2.44h-40.254V144.823z M256.954,120.061
			L243.78,90.907l-12.077,29.153H256.954z"/>
	</g>
</g>
</svg>
