<?xml version="1.0" encoding="utf-8"?>
<!-- Generator: Adobe Illustrator 17.0.0, SVG Export Plug-In . SVG Version: 6.00 Build 0)  -->
<!DOCTYPE svg PUBLIC "-//W3C//DTD SVG 1.1//EN" "http://www.w3.org/Graphics/SVG/1.1/DTD/svg11.dtd">
<svg version="1.1" id="Layer_1" xmlns="http://www.w3.org/2000/svg" xmlns:xlink="http://www.w3.org/1999/xlink" x="0px" y="0px"
	 width="594.539px" height="470.174px" viewBox="0 0 594.539 470.174" enable-background="new 0 0 594.539 470.174"
	 xml:space="preserve">
<g>
	<g>
		<g opacity="0">
			<defs>
				<rect id="SVGID_1_" x="-4435.465" y="-887.77" opacity="0" width="1913.591" height="1076.395"/>
			</defs>
			<clipPath id="SVGID_2_">
				<use xlink:href="#SVGID_1_"  overflow="visible"/>
			</clipPath>
			<linearGradient id="SVGID_3_" gradientUnits="userSpaceOnUse" x1="-10178.2314" y1="-349.3549" x2="1306.3054" y2="-349.3549">
				<stop  offset="0" style="stop-color:#FDC06F"/>
				<stop  offset="0.1403" style="stop-color:#EFACB8"/>
				<stop  offset="0.3675" style="stop-color:#B2B1D8"/>
				<stop  offset="0.4593" style="stop-color:#A9BED0"/>
				<stop  offset="0.5966" style="stop-color:#99CDC6"/>
				<stop  offset="0.6874" style="stop-color:#AFCDA7"/>
				<stop  offset="0.7491" style="stop-color:#BBCD95"/>
				<stop  offset="0.8122" style="stop-color:#CDCA90"/>
				<stop  offset="0.9336" style="stop-color:#E9C289"/>
				<stop  offset="1" style="stop-color:#F3BE86"/>
			</linearGradient>
			<rect x="-10178.231" y="-887.334" clip-path="url(#SVGID_2_)" fill="url(#SVGID_3_)" width="11484.537" height="1075.959"/>
		</g>
	</g>
</g>
<g>
	<path fill="#282825" d="M84.573,280.881l3.883,1.94l-2.797,3.396l-5.666,2.928l-1.039-4.132
		C78.954,285.013,81.504,281.684,84.573,280.881z"/>
	<path fill="#CB956A" d="M163.997,230.642c0,0-3.185-0.191-2.208,2.17c0.977,2.361,7.777,4.727,9.288,6.377
		c1.511,1.65,0.378,1.933,4.25,3.066c3.872,1.133,5.572,1.76,6.988,2.911c1.417,1.15,2.054,3.657,4.474,4.623
		c2.42,0.966-1.074-7.344-1.074-7.344l-4.911-5.311l-7.555-4.038L163.997,230.642z"/>
	<path fill="#282825" d="M157.62,231.774c0,0,3.711,0.425,4.169-0.661c0.458-1.086-0.871-3.151-0.871-3.151l-2.496,1.947
		l-1.287,1.658L157.62,231.774z"/>
	<path fill="#CB956A" d="M120.365,250.543c0,0-11.336-4.462-7.262-13.811l5.42,7.366L120.365,250.543z"/>
	<path fill="#E0B780" d="M157.974,231.856c0,0-0.567,5.089-0.354,7.638s0.542,14.449-0.048,15.795
		c-0.59,1.346-2.765,8.854-6.919,10.128h-27.314l-3.329-0.779l0.354-9.987l12.466-1.062l7.649-7.366l12.499-10.535l3.005-3.599
		L157.974,231.856z"/>
	<path fill="#3D331C" d="M113.286,235.147c0,0-0.854,2.789,1.129,5.693c1.983,2.904,5.95,12.678,6.516,15.086
		c0.567,2.408-0.637,3.683,3.116,2.762s8.783-1.133,12.324-1.204s6.445,0.779,8.287-3.329c1.842-4.108,6.87-21.036,12.962-22.382
		l-9.208,1.771l-10.483,3.4l-12.962,0.212l-9.42-1.771L113.286,235.147z"/>
	<path fill="#E6BA3F" d="M159.037,230.216c0,0-20.398,16.574-46.322,4.675v-3.116l15.865,2.125l13.599-0.992l16.857-7.897
		l1.98-1.594C161.017,223.416,163.711,225.683,159.037,230.216z"/>
	<path fill="#631F13" d="M112.715,231.774v-2.859l0.567-1.172l20.54,2.016l13.032-2.016l12.182-4.326c0,0,0,3.116-2.266,5.241
		C154.504,230.782,134.388,241.265,112.715,231.774z"/>
	<path fill="#282825" d="M103.966,224.266c0,0,7.899,6.375,18.381,6.375s29.606,0.283,37.68-6.375
		c8.074-6.658,6.804-11.496,6.804-11.496l-60.916,4.98L104,218.862C104,218.862,102.725,221.291,103.966,224.266z"/>
	<path fill="#343330" d="M125.889,201.601c0,0,10.483-5.525,25.073-3.258c14.591,2.266,20.115,14.449,12.466,20.398
		c-7.649,5.95-30.739,12.891-52.554,6.375S125.889,201.601,125.889,201.601z"/>
	<path fill="#CB956A" d="M155.354,237.369c0,0-5.1,5.879-4.675,9.703c0.425,3.825,2.266,5.737,3.754,6.091
		c1.487,0.354-0.85-1.912,0.142-6.941C155.566,241.194,158.328,235.953,155.354,237.369z"/>
	<path fill="#282825" d="M107.899,275.456c0,0,4.209-11.676,12.162-12.238c7.953-0.563,32.136,1.395,32.136,1.395
		s-1.423,2.576,3.015,7.392c0,0-3.777-4.587-16.621-2.718c-12.843,1.868-31.353,7.346-31.353,7.346L107.899,275.456z"/>
	<path fill="#E6BA3F" d="M81.551,287.02c0,0-0.567-5.289,3.022-6.138c0,0-4.25,0.755-5.288,2.361c0,0-3.211,0.85-4.344,2.266
		s-1.605,6.044-1.605,6.044L81.551,287.02z"/>
	<path fill="#E0B780" d="M206.302,244.24c0,0-14.543-6.809-16.621-8.552s-2.739-2.498-7.649-2.781s-18.173-3.743-19.643-4.344
		s-2.644,1.7,2.078,4.439c4.722,2.739,9.491,4.133,9.491,4.133s-1.558,0.784,0.614,2.056c2.172,1.272,5.383,0.894,5.383,0.894
		s3.966,3.177,4.911,5.083c0.944,1.906,1.039,4.267,3.211,6.061c2.172,1.794,9.349,3.116,9.349,3.116
		S196.481,245.656,206.302,244.24z"/>
	<path fill="#F2FAFE" d="M208.758,244.617c0,0-12.466-3.966-11.332,9.727l4.816-1.145l6.988-6.127L208.758,244.617z"/>
	<path fill="#343330" d="M222.64,244.084c0,0-10.955-1.338-16.338,1.298c-5.383,2.636-7.555,5.752-8.405,11.513l12.371,16.338
		l2.266,6.138c0,0-5.078-1.322-9.244-1.605c-4.166-0.283-12.854-1.133-12.854-1.133s-5.761-7.744-8.122-9.066
		s-3.116-0.661-3.116-0.661l-10.483,2.55c0,0-10.577-0.85-13.505,2.55l-3.872-3.777l-28.709,0.521l-15.393,7.884
		c0,0-19.705,5.447-25.719,9.585c0,0-7.995,1.747-10.167,7.319c-2.172,5.572-1.417,10.483-1.417,10.483s-4.061,7.649-1.889,13.505
		c0,0-1.417,6.422-1.511,10.388s-2.644,12.182-2.644,15.299s-1.511,17.24-1.511,17.24h29.842l-0.094-2.224l2.739,2.224h100.387
		c0,0-4.911-11.573-4.439-19.128c0.472-7.555,3.966-17.849,3.966-17.849l3.305-7.555c0,0,23.987-5.572,33.242-9.538
		s19.454-9.16,21.154-15.11s0.661-8.972-3.494-14.638S224.057,250.349,222.64,244.084z"/>
	<path fill="#E6BA3F" d="M228.877,253.68c0,0-16.372-1.722-22.873,13.92l2.954,3.901c0,0,3.955-9.507,9.338-11.584
		c5.383-2.078,13.645-2.589,13.645-2.589L228.877,253.68z"/>
	<path fill="#631F13" d="M207.436,267.849c0,0,3.966-8.029,9.916-10.955s11.332-1.983,11.332-1.983l1.039,1.322
		c0,0-7.272-1.133-12.371,2.172c-5.1,3.305-8.665,10.022-8.806,10.766L207.436,267.849z"/>
	<path fill="#E6BA3F" d="M168.716,265.417v6.776l10.105-0.378l0.378-6.398c0,0-3.4-0.26-5.241,0
		C172.116,265.677,168.716,265.417,168.716,265.417z"/>
</g>
<g>
	<path fill="#181717" d="M263.277,233.623l6.189,3.092l-4.458,5.413l-9.032,4.666l-1.656-6.586
		C254.321,240.208,258.385,234.902,263.277,233.623z"/>
	<path fill="#855431" d="M389.875,153.545c0,0-5.077-0.304-3.519,3.459s12.396,7.535,14.804,10.165s0.602,3.081,6.774,4.888
		c6.172,1.806,8.881,2.806,11.139,4.639c2.258,1.833,3.274,5.828,7.131,7.368c3.857,1.54-1.712-11.707-1.712-11.707l-7.827-8.466
		l-12.042-6.437L389.875,153.545z"/>
	<path fill="#282825" d="M379.71,155.348c0,0,5.916,0.677,6.646-1.054c0.73-1.731-1.388-5.022-1.388-5.022l-3.978,3.103
		l-2.051,2.642L379.71,155.348z"/>
	<path fill="#855431" d="M320.327,185.266c0,0-18.069-7.112-11.575-22.015l8.639,11.741L320.327,185.266z"/>
	<path fill="#A26536" d="M380.274,155.479c0,0-0.903,8.111-0.564,12.175c0.339,4.064,0.864,23.031-0.076,25.176
		c-0.94,2.145-4.407,14.112-11.028,16.144h-43.538l-5.306-1.242l0.564-15.918l19.87-1.693l12.193-11.741l19.922-16.792l4.79-5.737
		L380.274,155.479z"/>
	<path fill="#282825" d="M309.044,160.726c0,0-1.361,4.445,1.8,9.074s9.483,20.208,10.386,24.047s-1.016,5.871,4.967,4.403
		s13.999-1.806,19.644-1.919s10.273,1.242,13.209-5.306c2.935-6.548,10.951-33.53,20.66-35.675l-14.676,2.822l-16.709,5.419
		l-20.66,0.339l-15.015-2.822L309.044,160.726z"/>
	<path fill="#E6BA3F" d="M381.968,152.865c0,0-32.514,26.418-73.834,7.451v-4.967l25.289,3.387l21.676-1.581l26.869-12.588
		l3.156-2.54C385.124,142.027,389.419,145.639,381.968,152.865z"/>
	<path fill="#631F13" d="M308.134,155.348v-4.558l0.903-1.868l32.74,3.213l20.773-3.213l19.418-6.896c0,0,0,4.967-3.613,8.354
		C374.743,153.768,342.68,170.476,308.134,155.348z"/>
	<path fill="#181717" d="M294.189,143.382c0,0,12.59,10.161,29.299,10.161c16.709,0,47.19,0.452,60.06-10.161
		c12.87-10.612,10.844-18.324,10.844-18.324l-97.097,7.938l-3.054,1.772C294.243,134.767,292.211,138.64,294.189,143.382z"/>
	<path fill="#282825" d="M329.133,107.255c0,0,16.709-8.806,39.965-5.193c23.256,3.613,32.062,23.031,19.87,32.514
		c-12.193,9.483-48.997,20.547-83.768,10.161C270.427,134.35,329.133,107.255,329.133,107.255z"/>
	<path fill="#855431" d="M376.097,164.267c0,0-8.128,9.37-7.451,15.467c0.677,6.096,3.613,9.145,5.983,9.709
		c2.371,0.564-1.355-3.048,0.226-11.064C376.436,170.364,380.839,162.009,376.097,164.267z"/>
	<path fill="#181717" d="M300.457,224.975c0,0,6.709-18.611,19.385-19.507s51.223,2.223,51.223,2.223s-2.269,4.105,4.806,11.782
		c0,0-6.021-7.311-26.493-4.333c-20.472,2.978-49.975,11.709-49.975,11.709L300.457,224.975z"/>
	<path fill="#E6BA3F" d="M258.46,243.407c0,0-0.903-8.43,4.817-9.784c0,0-6.774,1.204-8.43,3.763c0,0-5.118,1.355-6.924,3.613
		c-1.806,2.258-2.559,9.634-2.559,9.634L258.46,243.407z"/>
	<path fill="#A26536" d="M457.307,175.218c0,0-23.181-10.854-26.493-13.631c-3.312-2.777-4.365-3.981-12.193-4.433
		c-7.827-0.452-28.966-5.966-31.31-6.924c-2.344-0.958-4.215,2.709,3.312,7.075s15.128,6.587,15.128,6.587s-2.484,1.249,0.978,3.277
		s8.58,1.426,8.58,1.426s6.322,5.064,7.827,8.101c1.505,3.038,1.656,6.801,5.118,9.661s14.902,4.967,14.902,4.967
		S441.652,177.476,457.307,175.218z"/>
	<path fill="#F2FAFE" d="M461.22,175.82c0,0-19.87-6.322-18.063,15.504l7.677-1.824l11.139-9.766L461.22,175.82z"/>
	<path fill="#282825" d="M483.348,174.969c0,0-17.461-2.133-26.041,2.068c-8.58,4.201-12.042,9.169-13.397,18.351l19.719,26.041
		l3.613,9.784c0,0-8.094-2.107-14.734-2.559c-6.64-0.452-20.489-1.806-20.489-1.806s-9.182-12.343-12.945-14.451
		c-3.763-2.107-4.967-1.054-4.967-1.054l-16.709,4.064c0,0-16.859-1.355-21.525,4.064l-6.172-6.021l-45.76,0.83l-24.536,12.567
		c0,0-31.409,8.682-40.995,15.279c0,0-12.743,2.785-16.205,11.666c-3.462,8.881-2.258,16.709-2.258,16.709
		s-6.473,12.193-3.011,21.525c0,0-2.258,10.236-2.408,16.558s-4.215,19.418-4.215,24.385c0,4.967-2.408,27.479-2.408,27.479h47.567
		l-0.151-3.545l4.365,3.545h160.01c0,0-7.827-18.447-7.075-30.489c0.753-12.042,6.322-28.45,6.322-28.45l5.268-12.042
		c0,0,38.234-8.881,52.986-15.203s31.009-14.601,33.718-24.084c2.71-9.483,1.054-14.3-5.57-23.332
		C518.722,217.817,485.606,184.957,483.348,174.969z"/>
	<path fill="#E6BA3F" d="M493.29,190.265c0,0-26.096-2.745-36.459,22.188l4.708,6.217c0,0,6.304-15.153,14.884-18.465
		s21.749-4.127,21.749-4.127L493.29,190.265z"/>
	<path fill="#631F13" d="M459.113,212.85c0,0,6.322-12.798,15.805-17.461c9.484-4.663,18.063-3.161,18.063-3.161l1.656,2.107
		c0,0-11.591-1.806-19.719,3.462c-8.128,5.268-13.811,15.975-14.037,17.16L459.113,212.85z"/>
	<path fill="#E6BA3F" d="M397.397,208.974v10.8l16.106-0.602l0.602-10.198c0,0-5.419-0.414-8.354,0
		C402.816,209.388,397.397,208.974,397.397,208.974z"/>
</g>
</svg>
