<?xml version="1.0" encoding="utf-8"?>
<!-- Generator: Adobe Illustrator 17.0.0, SVG Export Plug-In . SVG Version: 6.00 Build 0)  -->
<!DOCTYPE svg PUBLIC "-//W3C//DTD SVG 1.1//EN" "http://www.w3.org/Graphics/SVG/1.1/DTD/svg11.dtd">
<svg version="1.1" id="Layer_1" xmlns="http://www.w3.org/2000/svg" xmlns:xlink="http://www.w3.org/1999/xlink" x="0px" y="0px"
	 width="544.329px" height="813.047px" viewBox="0 0 544.329 813.047" enable-background="new 0 0 544.329 813.047"
	 xml:space="preserve">
<g>
	<g>
		<g opacity="0">
			<defs>
				<rect id="SVGID_1_" x="-3715.877" y="-916.85" opacity="0" width="1913.591" height="1076.395"/>
			</defs>
			<clipPath id="SVGID_2_">
				<use xlink:href="#SVGID_1_"  overflow="visible"/>
			</clipPath>
			<linearGradient id="SVGID_3_" gradientUnits="userSpaceOnUse" x1="-9458.6436" y1="-378.4342" x2="2025.8936" y2="-378.4342">
				<stop  offset="0" style="stop-color:#FDC06F"/>
				<stop  offset="0.1403" style="stop-color:#EFACB8"/>
				<stop  offset="0.3675" style="stop-color:#B2B1D8"/>
				<stop  offset="0.4593" style="stop-color:#A9BED0"/>
				<stop  offset="0.5966" style="stop-color:#99CDC6"/>
				<stop  offset="0.6874" style="stop-color:#AFCDA7"/>
				<stop  offset="0.7491" style="stop-color:#BBCD95"/>
				<stop  offset="0.8122" style="stop-color:#CDCA90"/>
				<stop  offset="0.9336" style="stop-color:#E9C289"/>
				<stop  offset="1" style="stop-color:#F3BE86"/>
			</linearGradient>
			<rect x="-9458.644" y="-916.414" clip-path="url(#SVGID_2_)" fill="url(#SVGID_3_)" width="11484.537" height="1075.959"/>
		</g>
	</g>
</g>
<g>
	<g>
		<rect id="_x35_9_2_" x="150.543" y="108.105" fill="#FFFFFF" width="277.651" height="146.132"/>
		<rect id="_x35_8_2_" x="150.543" y="108.105" fill="#B22435" width="277.651" height="11.241"/>
		<rect id="_x35_7_2_" x="150.543" y="130.586" fill="#B22435" width="277.651" height="11.241"/>
		<rect id="_x35_6_2_" x="150.543" y="153.068" fill="#B22435" width="277.651" height="11.241"/>
		<rect id="_x35_5_2_" x="150.543" y="175.55" fill="#B22435" width="277.651" height="11.241"/>
		<rect id="_x35_4_2_" x="150.543" y="198.032" fill="#B22435" width="277.651" height="11.241"/>
		<rect id="_x35_3_2_" x="150.543" y="220.514" fill="#B22435" width="277.651" height="11.241"/>
		<rect id="_x35_2_2_" x="150.543" y="242.996" fill="#B22435" width="277.651" height="11.241"/>
		<rect id="_x35_1_2_" x="150.543" y="108.105" fill="#273D53" width="111.06" height="78.686"/>
		<polygon id="_x35_0_2_" fill="#FFFFFF" points="155.761,114.493 158.406,116.415 157.396,119.525 160.041,117.603 
			162.687,119.525 161.676,116.415 164.322,114.493 161.052,114.493 160.041,111.382 159.031,114.493 		"/>
		<polygon id="_x34_9_2_" fill="#FFFFFF" points="174.173,114.493 176.819,116.415 175.808,119.525 178.454,117.603 
			181.099,119.525 180.089,116.415 182.734,114.493 179.464,114.493 178.454,111.382 177.443,114.493 		"/>
		<polygon id="_x34_8_2_" fill="#FFFFFF" points="192.586,114.493 195.231,116.415 194.221,119.525 196.866,117.603 
			199.512,119.525 198.501,116.415 201.147,114.493 197.877,114.493 196.866,111.382 195.856,114.493 		"/>
		<polygon id="_x34_7_2_" fill="#FFFFFF" points="210.998,114.493 213.644,116.415 212.633,119.525 215.279,117.603 
			217.925,119.525 216.914,116.415 219.56,114.493 216.29,114.493 215.279,111.382 214.269,114.493 		"/>
		<polygon id="_x34_6_2_" fill="#FFFFFF" points="229.411,114.493 232.056,116.415 231.046,119.525 233.692,117.603 
			236.337,119.525 235.327,116.415 237.972,114.493 234.702,114.493 233.691,111.382 232.681,114.493 		"/>
		<polygon id="_x34_5_2_" fill="#FFFFFF" points="247.824,114.493 250.469,116.415 249.458,119.525 252.104,117.603 254.75,119.525 
			253.739,116.415 256.385,114.493 253.115,114.493 252.104,111.382 251.094,114.493 		"/>
		<polygon id="_x34_4_2_" fill="#FFFFFF" points="164.967,122.384 167.612,124.306 166.602,127.416 169.247,125.494 
			171.893,127.416 170.882,124.306 173.528,122.384 170.258,122.384 169.247,119.274 168.237,122.384 		"/>
		<polygon id="_x34_3_2_" fill="#FFFFFF" points="183.379,122.384 186.025,124.306 185.014,127.416 187.66,125.494 190.306,127.416 
			189.295,124.306 191.941,122.384 188.671,122.384 187.66,119.274 186.649,122.384 		"/>
		<polygon id="_x34_2_2_" fill="#FFFFFF" points="201.792,122.384 204.438,124.306 203.427,127.416 206.073,125.494 
			208.718,127.416 207.708,124.306 210.353,122.384 207.083,122.384 206.073,119.274 205.062,122.384 		"/>
		<polygon id="_x34_1_2_" fill="#FFFFFF" points="220.205,122.384 222.85,124.306 221.84,127.416 224.485,125.494 227.131,127.416 
			226.12,124.306 228.766,122.384 225.496,122.384 224.485,119.274 223.475,122.384 		"/>
		<polygon id="_x34_0_2_" fill="#FFFFFF" points="238.617,122.384 241.263,124.306 240.252,127.416 242.898,125.494 
			245.543,127.416 244.533,124.306 247.178,122.384 243.908,122.384 242.898,119.274 241.887,122.384 		"/>
		<polygon id="_x33_9_2_" fill="#FFFFFF" points="155.761,130.275 158.406,132.197 157.396,135.307 160.041,133.385 
			162.687,135.307 161.676,132.197 164.322,130.275 161.052,130.275 160.041,127.165 159.031,130.275 		"/>
		<polygon id="_x33_8_2_" fill="#FFFFFF" points="174.173,130.275 176.819,132.197 175.808,135.307 178.454,133.385 
			181.099,135.307 180.089,132.197 182.734,130.275 179.464,130.275 178.454,127.165 177.443,130.275 		"/>
		<polygon id="_x33_7_2_" fill="#FFFFFF" points="192.586,130.275 195.231,132.197 194.221,135.307 196.866,133.385 
			199.512,135.307 198.501,132.197 201.147,130.275 197.877,130.275 196.866,127.165 195.856,130.275 		"/>
		<polygon id="_x33_6_2_" fill="#FFFFFF" points="210.998,130.275 213.644,132.197 212.633,135.307 215.279,133.385 
			217.925,135.307 216.914,132.197 219.56,130.275 216.29,130.275 215.279,127.165 214.269,130.275 		"/>
		<polygon id="_x33_5_2_" fill="#FFFFFF" points="229.411,130.275 232.056,132.197 231.046,135.307 233.692,133.385 
			236.337,135.307 235.327,132.197 237.972,130.275 234.702,130.275 233.691,127.165 232.681,130.275 		"/>
		<polygon id="_x33_4_2_" fill="#FFFFFF" points="247.824,130.275 250.469,132.197 249.458,135.307 252.104,133.385 254.75,135.307 
			253.739,132.197 256.385,130.275 253.115,130.275 252.104,127.165 251.094,130.275 		"/>
		<polygon id="_x33_3_2_" fill="#FFFFFF" points="165.194,138.192 167.839,140.114 166.829,143.224 169.474,141.302 172.12,143.224 
			171.109,140.114 173.755,138.192 170.485,138.192 169.474,135.082 168.464,138.192 		"/>
		<polygon id="_x33_2_2_" fill="#FFFFFF" points="183.607,138.192 186.252,140.114 185.242,143.224 187.887,141.302 
			190.533,143.224 189.522,140.114 192.168,138.192 188.898,138.192 187.887,135.082 186.877,138.192 		"/>
		<polygon id="_x33_1_2_" fill="#FFFFFF" points="202.019,138.192 204.665,140.114 203.654,143.224 206.3,141.302 208.945,143.224 
			207.935,140.114 210.58,138.192 207.31,138.192 206.3,135.082 205.289,138.192 		"/>
		<polygon id="_x33_0_2_" fill="#FFFFFF" points="220.432,138.192 223.077,140.114 222.067,143.224 224.712,141.302 
			227.358,143.224 226.347,140.114 228.993,138.192 225.723,138.192 224.712,135.082 223.702,138.192 		"/>
		<polygon id="_x32_9_2_" fill="#FFFFFF" points="238.844,138.192 241.49,140.114 240.479,143.224 243.125,141.302 245.77,143.224 
			244.76,140.114 247.405,138.192 244.135,138.192 243.125,135.082 242.114,138.192 		"/>
		<polygon id="_x32_8_2_" fill="#FFFFFF" points="156.04,146.017 158.685,147.939 157.675,151.049 160.32,149.127 162.966,151.049 
			161.956,147.939 164.601,146.017 161.331,146.017 160.32,142.907 159.31,146.017 		"/>
		<polygon id="_x32_7_2_" fill="#FFFFFF" points="174.452,146.017 177.098,147.939 176.087,151.049 178.733,149.127 
			181.379,151.049 180.368,147.939 183.014,146.017 179.744,146.017 178.733,142.907 177.723,146.017 		"/>
		<polygon id="_x32_6_2_" fill="#FFFFFF" points="192.865,146.017 195.511,147.939 194.5,151.049 197.146,149.127 199.791,151.049 
			198.781,147.939 201.426,146.017 198.156,146.017 197.146,142.907 196.135,146.017 		"/>
		<polygon id="_x32_5_2_" fill="#FFFFFF" points="211.278,146.017 213.923,147.939 212.913,151.049 215.558,149.127 
			218.204,151.049 217.193,147.939 219.839,146.017 216.569,146.017 215.558,142.907 214.548,146.017 		"/>
		<polygon id="_x32_4_2_" fill="#FFFFFF" points="229.69,146.017 232.336,147.939 231.325,151.049 233.971,149.127 236.616,151.049 
			235.606,147.939 238.251,146.017 234.981,146.017 233.971,142.907 232.96,146.017 		"/>
		<polygon id="_x32_3_2_" fill="#FFFFFF" points="248.103,146.017 250.748,147.939 249.738,151.049 252.383,149.127 
			255.029,151.049 254.018,147.939 256.664,146.017 253.394,146.017 252.383,142.907 251.373,146.017 		"/>
		<polygon id="_x32_2_2_" fill="#FFFFFF" points="156.212,161.55 158.858,163.472 157.847,166.582 160.493,164.66 163.139,166.582 
			162.128,163.472 164.774,161.55 161.504,161.55 160.493,158.44 159.482,161.55 		"/>
		<polygon id="_x32_1_2_" fill="#FFFFFF" points="174.625,161.55 177.271,163.472 176.26,166.582 178.906,164.66 181.551,166.582 
			180.541,163.472 183.186,161.55 179.916,161.55 178.906,158.44 177.895,161.55 		"/>
		<polygon id="_x32_0_2_" fill="#FFFFFF" points="193.038,161.55 195.683,163.472 194.673,166.582 197.318,164.66 199.964,166.582 
			198.953,163.472 201.599,161.55 198.329,161.55 197.318,158.44 196.308,161.55 		"/>
		<polygon id="_x31_9_2_" fill="#FFFFFF" points="211.45,161.55 214.096,163.472 213.085,166.582 215.731,164.66 218.377,166.582 
			217.366,163.472 220.012,161.55 216.742,161.55 215.731,158.44 214.72,161.55 		"/>
		<polygon id="_x31_8_2_" fill="#FFFFFF" points="229.863,161.55 232.508,163.472 231.498,166.582 234.143,164.66 236.789,166.582 
			235.778,163.472 238.424,161.55 235.154,161.55 234.143,158.44 233.133,161.55 		"/>
		<polygon id="_x31_7_2_" fill="#FFFFFF" points="248.275,161.55 250.921,163.472 249.91,166.582 252.556,164.66 255.202,166.582 
			254.191,163.472 256.837,161.55 253.566,161.55 252.556,158.44 251.545,161.55 		"/>
		<polygon id="_x31_6_2_" fill="#FFFFFF" points="155.988,177.265 158.633,179.187 157.623,182.297 160.268,180.375 
			162.914,182.297 161.903,179.187 164.549,177.265 161.279,177.265 160.268,174.155 159.258,177.265 		"/>
		<polygon id="_x31_5_2_" fill="#FFFFFF" points="174.4,177.265 177.046,179.187 176.035,182.297 178.681,180.375 181.326,182.297 
			180.316,179.187 182.961,177.265 179.691,177.265 178.681,174.155 177.67,177.265 		"/>
		<polygon id="_x31_4_2_" fill="#FFFFFF" points="192.813,177.265 195.458,179.187 194.448,182.297 197.093,180.375 
			199.739,182.297 198.728,179.187 201.374,177.265 198.104,177.265 197.093,174.155 196.083,177.265 		"/>
		<polygon id="_x31_3_2_" fill="#FFFFFF" points="211.225,177.265 213.871,179.187 212.86,182.297 215.506,180.375 218.152,182.297 
			217.141,179.187 219.787,177.265 216.517,177.265 215.506,174.155 214.496,177.265 		"/>
		<polygon id="_x31_2_2_" fill="#FFFFFF" points="229.638,177.265 232.283,179.187 231.273,182.297 233.919,180.375 
			236.564,182.297 235.554,179.187 238.199,177.265 234.929,177.265 233.919,174.155 232.908,177.265 		"/>
		<polygon id="_x31_1_2_" fill="#FFFFFF" points="248.051,177.265 250.696,179.187 249.686,182.297 252.331,180.375 
			254.977,182.297 253.966,179.187 256.612,177.265 253.342,177.265 252.331,174.155 251.321,177.265 		"/>
		<polygon id="_x31_0_2_" fill="#FFFFFF" points="165.249,153.706 167.894,155.628 166.884,158.738 169.529,156.816 
			172.175,158.738 171.164,155.628 173.81,153.706 170.54,153.706 169.529,150.595 168.519,153.706 		"/>
		<polygon id="_x39__2_" fill="#FFFFFF" points="183.661,153.706 186.307,155.628 185.296,158.738 187.942,156.816 190.587,158.738 
			189.577,155.628 192.222,153.706 188.952,153.706 187.942,150.595 186.931,153.706 		"/>
		<polygon id="_x38__2_" fill="#FFFFFF" points="202.074,153.706 204.719,155.628 203.709,158.738 206.355,156.816 209,158.738 
			207.99,155.628 210.635,153.706 207.365,153.706 206.354,150.595 205.344,153.706 		"/>
		<polygon id="_x37__2_" fill="#FFFFFF" points="220.486,153.706 223.132,155.628 222.121,158.738 224.767,156.816 227.413,158.738 
			226.402,155.628 229.048,153.706 225.777,153.706 224.767,150.595 223.756,153.706 		"/>
		<polygon id="_x36__2_" fill="#FFFFFF" points="238.899,153.706 241.544,155.628 240.534,158.738 243.18,156.816 245.825,158.738 
			244.815,155.628 247.46,153.706 244.19,153.706 243.179,150.595 242.169,153.706 		"/>
		<polygon id="_x35__2_" fill="#FFFFFF" points="165.194,169.396 167.84,171.318 166.829,174.428 169.475,172.506 172.12,174.428 
			171.11,171.318 173.755,169.396 170.485,169.396 169.475,166.286 168.464,169.396 		"/>
		<polygon id="_x34__2_" fill="#FFFFFF" points="183.607,169.396 186.252,171.318 185.242,174.428 187.887,172.506 190.533,174.428 
			189.522,171.318 192.168,169.396 188.898,169.396 187.887,166.286 186.877,169.396 		"/>
		<polygon id="_x33__2_" fill="#FFFFFF" points="202.019,169.396 204.665,171.318 203.654,174.428 206.3,172.506 208.946,174.428 
			207.935,171.318 210.581,169.396 207.311,169.396 206.3,166.286 205.289,169.396 		"/>
		<polygon id="_x32__2_" fill="#FFFFFF" points="220.432,169.396 223.077,171.318 222.067,174.428 224.712,172.506 227.358,174.428 
			226.348,171.318 228.993,169.396 225.723,169.396 224.712,166.286 223.702,169.396 		"/>
		<polygon id="_x31__2_" fill="#FFFFFF" points="238.844,169.396 241.49,171.318 240.479,174.428 243.125,172.506 245.771,174.428 
			244.76,171.318 247.406,169.396 244.136,169.396 243.125,166.286 242.114,169.396 		"/>
	</g>
	<rect x="140.708" y="102.265" fill="#E6AE88" width="9.834" height="609.108"/>
	<rect x="88.931" y="695.123" fill="#EAC28C" width="113.389" height="16.25"/>
	<rect x="94.562" y="678.873" fill="#E6AE88" width="102.126" height="16.25"/>
</g>
</svg>
