<?xml version="1.0" encoding="utf-8"?>
<!-- Generator: Adobe Illustrator 17.0.0, SVG Export Plug-In . SVG Version: 6.00 Build 0)  -->
<!DOCTYPE svg PUBLIC "-//W3C//DTD SVG 1.1//EN" "http://www.w3.org/Graphics/SVG/1.1/DTD/svg11.dtd">
<svg version="1.1" id="Layer_1" xmlns="http://www.w3.org/2000/svg" xmlns:xlink="http://www.w3.org/1999/xlink" x="0px" y="0px"
	 width="1541.169px" height="1200.325px" viewBox="0 0 1541.169 1200.325" enable-background="new 0 0 1541.169 1200.325"
	 xml:space="preserve">
<g>
	<g>
		<g opacity="0">
			<defs>
				<rect id="SVGID_1_" x="-5290.34" y="-916.85" opacity="0" width="1913.591" height="1076.395"/>
			</defs>
			<clipPath id="SVGID_2_">
				<use xlink:href="#SVGID_1_"  overflow="visible"/>
			</clipPath>
			<linearGradient id="SVGID_3_" gradientUnits="userSpaceOnUse" x1="-11033.1064" y1="-378.4342" x2="451.4303" y2="-378.4342">
				<stop  offset="0" style="stop-color:#FDC06F"/>
				<stop  offset="0.1403" style="stop-color:#EFACB8"/>
				<stop  offset="0.3675" style="stop-color:#B2B1D8"/>
				<stop  offset="0.4593" style="stop-color:#A9BED0"/>
				<stop  offset="0.5966" style="stop-color:#99CDC6"/>
				<stop  offset="0.6874" style="stop-color:#AFCDA7"/>
				<stop  offset="0.7491" style="stop-color:#BBCD95"/>
				<stop  offset="0.8122" style="stop-color:#CDCA90"/>
				<stop  offset="0.9336" style="stop-color:#E9C289"/>
				<stop  offset="1" style="stop-color:#F3BE86"/>
			</linearGradient>
			<rect x="-11033.106" y="-916.414" clip-path="url(#SVGID_2_)" fill="url(#SVGID_3_)" width="11484.537" height="1075.959"/>
		</g>
	</g>
</g>
<g>
	<path opacity="0.21" fill="#404D51" d="M1255.985,163.039l-0.138-22.557l-12.435-21.234l-12.528,22.011l-11.4,20.027L1207.84,141.4
		l-12.797-21.856l-12.529,22.011l-11.401,20.027l-11.644-19.886l-12.798-21.856l-12.528,22.011l-11.4,20.027l-11.645-19.886
		l-12.797-21.856l-12.529,22.011l-11.401,20.027l-11.644-19.886l-12.798-21.856l-12.528,22.011l-11.4,20.027l-11.645-19.886
		l-12.797-21.856L989.03,142.74l-11.401,20.027l-11.644-19.885l-12.798-21.857l-12.528,22.011l-11.4,20.027l-11.645-19.885
		l-12.797-21.857l-12.529,22.011l-11.401,20.027l-11.644-19.885l-12.798-21.857l-12.528,22.011l-11.4,20.028l-11.645-19.886
		l-12.797-21.857l-12.529,22.011l-11.401,20.028l-11.644-19.886l-12.798-21.856l-12.528,22.011l-11.4,20.027l-11.645-19.886
		l-12.797-21.856l-12.529,22.011l-11.401,20.027l-11.644-19.886l-12.798-21.856l-12.528,22.011l-11.4,20.027l-11.645-19.886
		l-12.797-21.856l-12.529,22.011l-11.401,20.027l-11.644-19.886l-12.798-21.856l-12.528,22.011l-11.4,20.028l-11.645-19.887
		l-12.797-21.856l-12.529,22.011l-11.401,20.028l-11.644-19.887l-12.798-21.855l-12.528,22.01l-11.4,20.028l-11.645-19.886
		l-12.797-21.856l-12.529,22.011l-11.401,20.027l-11.644-19.886l-12.798-21.856l-12.528,22.011L348.84,166.56h-0.067l-11.611-19.828
		l-12.797-21.856l-12.529,22.011l-11.199,19.673h-0.409l-11.437-19.532l-12.798-21.856l-12.528,22.011l-11.03,19.377h-0.751
		l-11.264-19.236l-12.797-21.856l-12.529,22.011l-10.861,19.081h-1.094l-11.09-18.94l-12.798-21.856l-12.528,22.011L156.03,166.56
		h-1.435l-10.917-18.643l-12.797-21.857l-12.529,22.011l-10.524,18.488h-1.729v848.702c0,41.943,34.002,75.945,75.945,75.945
		h997.873c41.943,0,75.945-34.002,75.945-75.945V166.56L1255.985,163.039z"/>
	<path fill="#F0EEED" d="M1118.42,1049.812H284.112c-38.59,0-69.874-31.284-69.874-69.874V223.352
		c0-30.595,24.802-55.397,55.397-55.397h848.786V1049.812z"/>
	<path fill="#FFFFFF" d="M1430.078,123.784l-0.138-22.557l-12.434-21.234l-12.528,22.011l-11.4,20.027l-11.645-19.886
		l-12.797-21.856l-12.529,22.011l-11.401,20.027l-11.644-19.886l-12.798-21.856l-12.528,22.011l-11.4,20.027l-11.645-19.886
		l-12.797-21.856l-12.529,22.011l-11.401,20.027l-11.644-19.886l-12.798-21.856l-12.528,22.011l-11.4,20.027l-11.645-19.886
		l-12.797-21.856l-12.529,22.011l-11.401,20.027l-11.644-19.885l-12.798-21.857l-12.528,22.011l-11.4,20.027l-11.645-19.885
		l-12.797-21.857l-12.529,22.011l-11.401,20.027l-11.644-19.885l-12.798-21.857l-12.528,22.011l-11.4,20.028l-11.645-19.886
		l-12.797-21.857l-12.529,22.011l-11.401,20.028l-11.644-19.886l-12.798-21.856l-12.528,22.011l-11.4,20.027l-11.645-19.886
		l-12.797-21.856l-12.529,22.011l-11.401,20.027l-11.644-19.886l-12.798-21.856l-12.528,22.011l-11.4,20.027l-11.645-19.886
		l-12.797-21.856l-12.529,22.011l-11.401,20.027l-11.644-19.886l-12.798-21.856l-12.528,22.011l-11.4,20.028l-11.645-19.887
		l-12.797-21.856l-12.529,22.011l-11.401,20.028l-11.644-19.887l-12.798-21.855l-12.528,22.01l-11.4,20.028l-11.645-19.886
		l-12.797-21.856L582.67,107.04l-11.401,20.027l-11.644-19.886l-12.798-21.856l-12.528,22.011l-11.367,19.969h-0.067l-11.611-19.828
		l-12.797-21.856l-12.529,22.011l-11.199,19.673h-0.409l-11.437-19.532l-12.798-21.856l-12.528,22.011l-11.03,19.377h-0.751
		l-11.264-19.236l-12.797-21.856l-12.529,22.011l-10.861,19.081h-1.094l-11.09-18.94l-12.798-21.856l-12.528,22.011l-10.693,18.784
		h-1.435l-10.917-18.643l-12.797-21.857l-12.529,22.011l-10.524,18.488h-1.729v904.785c0,10.969,8.892,19.862,19.862,19.862
		h1053.956c41.943,0,75.945-34.002,75.945-75.945V127.305L1430.078,123.784z"/>
</g>
</svg>
