<?xml version="1.0" encoding="utf-8"?>
<!-- Generator: Adobe Illustrator 17.0.0, SVG Export Plug-In . SVG Version: 6.00 Build 0)  -->
<!DOCTYPE svg PUBLIC "-//W3C//DTD SVG 1.1//EN" "http://www.w3.org/Graphics/SVG/1.1/DTD/svg11.dtd">
<svg version="1.1" id="Layer_1" xmlns="http://www.w3.org/2000/svg" xmlns:xlink="http://www.w3.org/1999/xlink" x="0px" y="0px"
	 width="432.131px" height="1072.22px" viewBox="0 0 432.131 1072.22" enable-background="new 0 0 432.131 1072.22"
	 xml:space="preserve">
<g>
	<g>
		<g opacity="0">
			<defs>
				<rect id="SVGID_1_" x="-2499.335" y="184.449" opacity="0" width="1913.591" height="1076.395"/>
			</defs>
			<clipPath id="SVGID_2_">
				<use xlink:href="#SVGID_1_"  overflow="visible"/>
			</clipPath>
			<linearGradient id="SVGID_3_" gradientUnits="userSpaceOnUse" x1="-8242.1016" y1="722.8648" x2="3242.4355" y2="722.8648">
				<stop  offset="0" style="stop-color:#FDC06F"/>
				<stop  offset="0.1403" style="stop-color:#EFACB8"/>
				<stop  offset="0.3675" style="stop-color:#B2B1D8"/>
				<stop  offset="0.4593" style="stop-color:#A9BED0"/>
				<stop  offset="0.5966" style="stop-color:#99CDC6"/>
				<stop  offset="0.6874" style="stop-color:#AFCDA7"/>
				<stop  offset="0.7491" style="stop-color:#BBCD95"/>
				<stop  offset="0.8122" style="stop-color:#CDCA90"/>
				<stop  offset="0.9336" style="stop-color:#E9C289"/>
				<stop  offset="1" style="stop-color:#F3BE86"/>
			</linearGradient>
			<rect x="-8242.102" y="184.885" clip-path="url(#SVGID_2_)" fill="url(#SVGID_3_)" width="11484.537" height="1075.959"/>
		</g>
	</g>
</g>
<g>
	<g>
		<g>
			<rect x="141.96" y="124.713" fill="#E4DEDB" width="10.892" height="43.872"/>
			<polygon fill="#057A70" points="270.097,128.042 270.097,168.586 152.852,168.586 152.852,126.831 			"/>
			<polygon fill="#F5F4F3" points="155.424,166.317 270.097,166.317 270.097,168.586 152.852,168.586 152.852,166.317 			"/>
			<circle fill="#54362D" cx="150.205" cy="146.12" r="1.588"/>
			<circle fill="#54362D" cx="150.205" cy="165.863" r="1.588"/>
			<circle fill="#54362D" cx="150.205" cy="127.588" r="1.588"/>
			<rect x="141.96" y="173.276" fill="#E4DEDB" width="10.892" height="43.872"/>
			<polygon fill="#057A70" points="332.578,176.604 332.578,217.148 152.852,217.148 152.852,175.394 			"/>
			<polygon fill="#F5F4F3" points="156.795,214.879 332.578,214.879 332.578,217.148 152.852,217.148 152.852,214.879 			"/>
			<circle fill="#54362D" cx="150.205" cy="194.682" r="1.588"/>
			<circle fill="#54362D" cx="150.205" cy="214.425" r="1.588"/>
			<circle fill="#54362D" cx="150.205" cy="176.15" r="1.588"/>
			<g>
				<path fill="#FFFFFF" d="M161.315,154.805c1.305,0.859,3.311,1.718,5.38,1.718c2.229,0,3.407-1.187,3.407-2.987
					c0-1.719-1.019-2.701-3.598-3.888c-3.566-1.596-5.89-4.133-5.89-8.143c0-4.706,3.056-8.308,8.119-8.308
					c2.42,0,4.203,0.655,5.476,1.391l-1.083,5.034c-0.86-0.532-2.388-1.31-4.489-1.31c-2.101,0-3.12,1.228-3.12,2.66
					c0,1.76,1.21,2.538,3.979,3.887c3.789,1.801,5.572,4.338,5.572,8.226c0,4.624-2.77,8.553-8.66,8.553
					c-2.452,0-4.872-0.818-6.082-1.678L161.315,154.805z"/>
				<path fill="#FFFFFF" d="M182.487,138.886h-5.763v-5.238h16.492v5.238h-5.859v22.344h-4.871V138.886z"/>
				<path fill="#FFFFFF" d="M195.794,134.017c1.56-0.327,3.884-0.573,6.463-0.573c3.183,0,5.412,0.613,6.94,2.169
					c1.273,1.31,1.974,3.233,1.974,5.77c0,3.52-1.942,5.934-3.789,6.794v0.123c1.497,0.778,2.324,2.619,2.866,5.156
					c0.669,3.11,1.337,6.711,1.751,7.775h-4.967c-0.35-0.778-0.859-3.028-1.496-6.425c-0.573-3.437-1.496-4.379-3.47-4.419h-1.464
					v10.844h-4.807V134.017z M200.602,145.884h1.91c2.42,0,3.852-1.555,3.852-3.97c0-2.537-1.337-3.806-3.566-3.847
					c-1.178,0-1.847,0.122-2.197,0.205V145.884z"/>
				<path fill="#FFFFFF" d="M227.44,149.567h-7.896v6.548h8.819v5.115h-13.69v-27.582h13.244v5.115h-8.374v5.73h7.896V149.567z"/>
				<path fill="#FFFFFF" d="M244.441,149.567h-7.895v6.548h8.819v5.115h-13.69v-27.582h13.244v5.115h-8.373v5.73h7.895V149.567z"/>
				<path fill="#FFFFFF" d="M252.973,138.886h-5.762v-5.238h16.492v5.238h-5.858v22.344h-4.871V138.886z"/>
			</g>
			<g>
				<path fill="#FFFFFF" d="M168.115,209.641v-27.582h5.667l4.457,10.108c1.273,2.906,2.547,6.343,3.502,9.454h0.096
					c-0.318-3.643-0.414-7.367-0.414-11.5v-8.062h4.457v27.582h-5.094l-4.585-10.64c-1.273-2.946-2.674-6.508-3.725-9.74
					l-0.096,0.041c0.128,3.641,0.191,7.53,0.191,12.031v8.308H168.115z"/>
				<path fill="#FFFFFF" d="M202.849,197.978h-7.896v6.548h8.819v5.115h-13.69v-27.582h13.244v5.115h-8.373v5.73h7.896V197.978z"/>
				<path fill="#FFFFFF" d="M210.776,209.641l-5.094-27.582h5.19l1.624,11.377c0.477,3.274,0.923,6.834,1.274,9.617h0.063
					c0.35-2.988,0.86-6.303,1.401-9.699l1.815-11.295h5.158l1.719,11.622c0.477,3.233,0.828,6.18,1.146,9.249h0.064
					c0.319-3.069,0.796-6.303,1.242-9.576l1.75-11.295h4.935l-5.54,27.582h-5.253l-1.815-11.868
					c-0.414-2.783-0.764-5.361-1.019-8.512h-0.063c-0.382,3.11-0.732,5.729-1.242,8.512l-2.038,11.868H210.776z"/>
				<path fill="#FFFFFF" d="M245.701,209.641v-11.294l-6.781-16.288h5.54l2.197,6.629c0.668,2.006,1.114,3.478,1.655,5.28h0.064
					c0.477-1.719,0.987-3.315,1.624-5.28l2.165-6.629h5.444l-7.068,16.083v11.499H245.701z"/>
				<path fill="#FFFFFF" d="M278.08,195.563c0,9.044-4.267,14.528-10.538,14.528c-6.368,0-10.093-6.179-10.093-14.036
					c0-8.267,4.107-14.446,10.443-14.446C274.483,181.609,278.08,187.952,278.08,195.563z M262.575,195.932
					c0,5.401,1.974,9.208,5.222,9.208c3.279,0,5.158-4.011,5.158-9.372c0-4.951-1.847-9.207-5.19-9.207
					C264.486,186.561,262.575,190.571,262.575,195.932z"/>
				<path fill="#FFFFFF" d="M281.263,182.428c1.56-0.327,3.884-0.573,6.463-0.573c3.183,0,5.413,0.613,6.941,2.169
					c1.273,1.31,1.974,3.233,1.974,5.77c0,3.52-1.942,5.934-3.789,6.794v0.123c1.496,0.778,2.324,2.619,2.866,5.156
					c0.668,3.11,1.337,6.711,1.751,7.775h-4.967c-0.35-0.778-0.859-3.028-1.496-6.425c-0.573-3.437-1.496-4.379-3.47-4.419h-1.464
					v10.844h-4.808V182.428z M286.071,194.295h1.91c2.419,0,3.852-1.555,3.852-3.97c0-2.537-1.337-3.806-3.566-3.847
					c-1.178,0-1.847,0.122-2.197,0.205V194.295z"/>
				<path fill="#FFFFFF" d="M300.143,182.059h4.807v12.195h0.096c0.477-1.064,0.987-2.046,1.464-3.028l4.872-9.167h5.953
					l-7.1,11.745l7.481,15.838h-5.667l-5.253-11.909l-1.847,2.906v9.003h-4.807V182.059z"/>
			</g>
			<rect x="126.813" y="81.144" fill="#343330" width="15.431" height="882.675"/>
			<g>
				<polygon fill="#282825" points="321.685,262.458 321.685,303.002 141.96,303.002 141.96,261.247 				"/>
				<polygon fill="#E4DEDB" points="145.902,300.733 321.685,300.733 321.685,303.002 141.96,303.002 141.96,300.733 				"/>
				<polygon fill="#FFFFFF" points="285.572,281.194 257.998,265.274 257.998,272.512 178.073,272.512 178.073,289.875 
					257.998,289.875 257.998,297.113 				"/>
				<g>
					<path fill="#282825" d="M196.979,281.061c0,4.172-2.187,6.701-5.402,6.701c-3.264,0-5.174-2.85-5.174-6.474
						c0-3.813,2.105-6.663,5.353-6.663C195.135,274.625,196.979,277.551,196.979,281.061z M189.03,281.231
						c0,2.492,1.012,4.247,2.677,4.247c1.681,0,2.644-1.85,2.644-4.322c0-2.284-0.947-4.247-2.66-4.247
						C190.01,276.909,189.03,278.759,189.03,281.231z"/>
					<path fill="#282825" d="M198.614,287.555v-12.722h2.905l2.285,4.662c0.653,1.34,1.306,2.926,1.795,4.36h0.049
						c-0.163-1.68-0.212-3.397-0.212-5.304v-3.719h2.285v12.722h-2.611l-2.35-4.908c-0.653-1.359-1.371-3.001-1.91-4.492
						l-0.049,0.019c0.065,1.68,0.098,3.473,0.098,5.549v3.832H198.614z"/>
					<path fill="#282825" d="M216.424,282.175h-4.048v3.02h4.521v2.359h-7.018v-12.722h6.79v2.359h-4.292v2.643h4.048V282.175z"/>
					<path fill="#282825" d="M223.07,287.555l-2.611-12.722h2.66l0.832,5.247c0.245,1.51,0.473,3.152,0.653,4.436h0.033
						c0.18-1.378,0.441-2.907,0.718-4.473l0.93-5.21h2.644l0.881,5.361c0.245,1.491,0.424,2.85,0.588,4.266h0.033
						c0.163-1.416,0.408-2.907,0.636-4.417l0.898-5.21h2.53l-2.84,12.722h-2.693l-0.93-5.474c-0.212-1.283-0.392-2.473-0.522-3.926
						h-0.033c-0.196,1.435-0.375,2.643-0.637,3.926l-1.045,5.474H223.07z"/>
					<path fill="#282825" d="M237.469,284.289l-0.783,3.265h-2.579l3.362-12.722h3.264l3.411,12.722h-2.677l-0.849-3.265H237.469z
						 M240.26,282.137l-0.686-2.699c-0.196-0.755-0.392-1.699-0.555-2.454h-0.033c-0.163,0.755-0.326,1.717-0.506,2.454
						l-0.653,2.699H240.26z"/>
					<path fill="#282825" d="M246.612,287.555v-5.21l-3.476-7.512h2.84l1.126,3.058c0.343,0.925,0.571,1.604,0.849,2.435h0.033
						c0.245-0.793,0.506-1.529,0.832-2.435l1.11-3.058h2.791l-3.623,7.418v5.304H246.612z"/>
				</g>
			</g>
		</g>
		<circle fill="#343330" cx="134.529" cy="74.553" r="15.198"/>
	</g>
	<rect x="117.457" y="963.819" fill="#343330" width="254" height="13"/>
	<rect x="98.475" y="963.819" fill="#343330" width="13" height="13"/>
	<rect x="79.808" y="963.819" fill="#343330" width="13" height="13"/>
	<g>
		<rect x="269.747" y="541.699" fill="#282825" width="1.642" height="20.333"/>
		<rect x="187.997" y="540.281" fill="#282825" width="1.642" height="20.333"/>
		
			<line fill="none" stroke="#282825" stroke-width="2" stroke-miterlimit="10" x1="289.199" y1="463.964" x2="182.639" y2="539.351"/>
		<rect x="173.365" y="538.366" fill="#282825" width="144" height="3.333"/>
		<rect x="288.161" y="377.154" fill="#343330" width="15.431" height="586.664"/>
		<circle fill="#343330" cx="295.876" cy="370.563" r="15.198"/>
		<g>
			<path fill="#282825" d="M277.473,801.604V562.032c0-0.783-0.635-1.417-1.417-1.417h-92c-0.783,0-1.417,0.635-1.417,1.417v239.572
				c0,0.783,0.635,1.417,1.417,1.417h92C276.839,803.022,277.473,802.387,277.473,801.604z"/>
			<path fill="#282825" d="M188.723,801.311h82.667c2.577,0,4.667-2.089,4.667-4.667V566.992c0-2.577-2.089-4.667-4.667-4.667
				h-82.667c-2.577,0-4.667,2.089-4.667,4.667v229.652C184.056,799.222,186.145,801.311,188.723,801.311z"/>
		</g>
		<g>
			<path fill="#FFFFFF" d="M192.129,617.373l-2.042-11.053h2.08l0.651,4.559c0.192,1.312,0.37,2.739,0.51,3.854h0.026
				c0.14-1.197,0.345-2.526,0.562-3.887l0.727-4.526h2.067l0.689,4.657c0.192,1.295,0.332,2.476,0.459,3.706h0.026
				c0.128-1.23,0.319-2.526,0.498-3.837l0.702-4.526h1.978l-2.221,11.053h-2.106l-0.727-4.756c-0.166-1.115-0.306-2.148-0.408-3.411
				h-0.026c-0.153,1.246-0.294,2.296-0.498,3.411l-0.817,4.756H192.129z"/>
			<path fill="#FFFFFF" d="M203.38,614.536l-0.613,2.837h-2.016l2.629-11.053h2.552l2.667,11.053h-2.093l-0.664-2.837H203.38z
				 M205.563,612.667l-0.536-2.345c-0.153-0.656-0.306-1.476-0.434-2.132h-0.025c-0.128,0.656-0.255,1.492-0.396,2.132l-0.51,2.345
				H205.563z"/>
			<path fill="#FFFFFF" d="M209.809,614.798c0.523,0.345,1.327,0.689,2.157,0.689c0.893,0,1.366-0.476,1.366-1.197
				c0-0.689-0.408-1.083-1.442-1.558c-1.429-0.639-2.361-1.656-2.361-3.263c0-1.886,1.225-3.329,3.254-3.329
				c0.97,0,1.684,0.262,2.195,0.557l-0.434,2.017c-0.345-0.213-0.957-0.525-1.799-0.525c-0.842,0-1.251,0.492-1.251,1.066
				c0,0.705,0.485,1.017,1.595,1.558c1.519,0.721,2.233,1.738,2.233,3.296c0,1.853-1.11,3.428-3.471,3.428
				c-0.983,0-1.953-0.328-2.437-0.672L209.809,614.798z"/>
			<path fill="#FFFFFF" d="M218.586,606.32v4.247h3.203v-4.247h1.94v11.053h-1.94v-4.625h-3.203v4.625h-1.953V606.32H218.586z"/>
			<path fill="#FFFFFF" d="M227.375,606.32v11.053h-1.953V606.32H227.375z"/>
			<path fill="#FFFFFF" d="M229.058,617.373V606.32h2.271l1.787,4.05c0.51,1.164,1.021,2.542,1.404,3.788h0.038
				c-0.128-1.459-0.166-2.952-0.166-4.608v-3.23h1.787v11.053h-2.042l-1.838-4.264c-0.51-1.181-1.072-2.607-1.493-3.903
				l-0.038,0.016c0.051,1.459,0.077,3.018,0.077,4.821v3.329H229.058z"/>
			<path fill="#FFFFFF" d="M245.044,616.865c-0.6,0.262-1.736,0.623-2.871,0.623c-1.57,0-2.706-0.509-3.497-1.492
				c-0.791-0.951-1.225-2.394-1.212-4.018c0.013-3.673,2.093-5.773,4.913-5.773c1.11,0,1.965,0.279,2.386,0.541l-0.408,2
				c-0.472-0.262-1.059-0.476-2.004-0.476c-1.621,0-2.846,1.181-2.846,3.575c0,2.28,1.11,3.624,2.705,3.624
				c0.447,0,0.804-0.066,0.957-0.164v-2.312h-1.327v-1.951h3.203V616.865z"/>
			<path fill="#FFFFFF" d="M248.218,608.419h-2.31v-2.099h6.61v2.099h-2.348v8.954h-1.952V608.419z"/>
			<path fill="#FFFFFF" d="M261.053,611.732c0,3.624-1.71,5.822-4.224,5.822c-2.552,0-4.045-2.476-4.045-5.625
				c0-3.313,1.646-5.789,4.186-5.789C259.611,606.14,261.053,608.682,261.053,611.732z M254.838,611.88
				c0,2.164,0.791,3.69,2.093,3.69c1.314,0,2.067-1.607,2.067-3.755c0-1.984-0.74-3.69-2.08-3.69
				C255.604,608.124,254.838,609.731,254.838,611.88z"/>
			<path fill="#FFFFFF" d="M262.325,617.373V606.32h2.272l1.787,4.05c0.51,1.164,1.021,2.542,1.404,3.788h0.038
				c-0.128-1.459-0.166-2.952-0.166-4.608v-3.23h1.787v11.053h-2.042l-1.838-4.264c-0.51-1.181-1.072-2.607-1.493-3.903
				l-0.038,0.016c0.051,1.459,0.077,3.018,0.077,4.821v3.329H262.325z"/>
			<path fill="#FFFFFF" d="M206.779,626.142c0.51-0.131,1.544-0.23,2.514-0.23c1.187,0,1.914,0.148,2.54,0.623
				c0.6,0.41,1.034,1.164,1.034,2.165c0,0.984-0.447,1.902-1.417,2.362v0.033c0.983,0.345,1.71,1.296,1.71,2.723
				c0,1-0.357,1.788-0.893,2.345c-0.625,0.64-1.672,1-3.382,1c-0.957,0-1.672-0.082-2.106-0.164V626.142z M208.706,630.373h0.638
				c1.021,0,1.57-0.541,1.57-1.361c0-0.836-0.498-1.279-1.378-1.279c-0.421,0-0.664,0.033-0.83,0.065V630.373z M208.706,635.277
				c0.191,0.033,0.421,0.033,0.753,0.033c0.881,0,1.659-0.426,1.659-1.591c0-1.115-0.778-1.558-1.748-1.558h-0.664V635.277z"/>
			<path fill="#FFFFFF" d="M222.357,631.406c0,3.624-1.71,5.822-4.224,5.822c-2.552,0-4.045-2.476-4.045-5.625
				c0-3.313,1.646-5.789,4.186-5.789C220.915,625.814,222.357,628.356,222.357,631.406z M216.142,631.554
				c0,2.164,0.791,3.69,2.093,3.69c1.314,0,2.067-1.607,2.067-3.755c0-1.984-0.74-3.69-2.08-3.69
				C216.908,627.798,216.142,629.406,216.142,631.554z"/>
			<path fill="#FFFFFF" d="M223.693,634.473c0.523,0.344,1.327,0.689,2.157,0.689c0.893,0,1.366-0.476,1.366-1.197
				c0-0.689-0.408-1.083-1.442-1.558c-1.429-0.639-2.361-1.656-2.361-3.263c0-1.886,1.225-3.329,3.254-3.329
				c0.97,0,1.685,0.262,2.195,0.557l-0.434,2.017c-0.345-0.213-0.957-0.525-1.799-0.525c-0.842,0-1.251,0.492-1.251,1.066
				c0,0.705,0.485,1.017,1.595,1.558c1.519,0.721,2.233,1.738,2.233,3.296c0,1.853-1.11,3.428-3.471,3.428
				c-0.983,0-1.953-0.328-2.437-0.672L223.693,634.473z"/>
			<path fill="#FFFFFF" d="M232.177,628.094h-2.31v-2.099h6.61v2.099h-2.348v8.954h-1.953V628.094z"/>
			<path fill="#FFFFFF" d="M245.012,631.406c0,3.624-1.71,5.822-4.224,5.822c-2.552,0-4.045-2.476-4.045-5.625
				c0-3.313,1.646-5.789,4.186-5.789C243.57,625.814,245.012,628.356,245.012,631.406z M238.797,631.554
				c0,2.164,0.791,3.69,2.093,3.69c1.314,0,2.067-1.607,2.067-3.755c0-1.984-0.74-3.69-2.08-3.69
				C239.563,627.798,238.797,629.406,238.797,631.554z"/>
			<path fill="#FFFFFF" d="M246.285,637.048v-11.053h2.271l1.787,4.05c0.51,1.164,1.021,2.542,1.404,3.788h0.038
				c-0.128-1.459-0.166-2.952-0.166-4.608v-3.23h1.787v11.053h-2.042l-1.838-4.264c-0.51-1.181-1.072-2.607-1.493-3.903
				l-0.038,0.016c0.051,1.46,0.077,3.018,0.077,4.821v3.329H246.285z"/>
			<path fill="#FFFFFF" d="M199.783,647.768h-2.31v-2.099h6.61v2.099h-2.348v8.954h-1.953V647.768z"/>
			<path fill="#FFFFFF" d="M210.232,652.048h-3.165v2.624h3.535v2.05h-5.487v-11.053h5.309v2.05h-3.356v2.296h3.165V652.048z"/>
			<path fill="#FFFFFF" d="M211.926,656.722v-11.053h2.271l1.787,4.05c0.51,1.164,1.021,2.542,1.404,3.788h0.038
				c-0.128-1.459-0.166-2.952-0.166-4.608v-3.23h1.787v11.053h-2.042l-1.838-4.264c-0.51-1.181-1.072-2.607-1.493-3.903
				l-0.038,0.016c0.051,1.46,0.077,3.018,0.077,4.821v3.329H211.926z"/>
			<path fill="#FFFFFF" d="M220.728,656.722v-11.053h2.271l1.787,4.05c0.51,1.164,1.021,2.542,1.404,3.788h0.038
				c-0.128-1.459-0.166-2.952-0.166-4.608v-3.23h1.787v11.053h-2.042l-1.838-4.264c-0.51-1.181-1.072-2.607-1.493-3.903
				l-0.038,0.016c0.051,1.46,0.077,3.018,0.077,4.821v3.329H220.728z"/>
			<path fill="#FFFFFF" d="M234.647,652.048h-3.165v2.624h3.535v2.05h-5.487v-11.053h5.309v2.05h-3.356v2.296h3.165V652.048z"/>
			<path fill="#FFFFFF" d="M236.405,654.147c0.523,0.344,1.327,0.689,2.157,0.689c0.893,0,1.366-0.476,1.366-1.197
				c0-0.689-0.408-1.083-1.442-1.558c-1.429-0.639-2.361-1.656-2.361-3.263c0-1.886,1.225-3.329,3.254-3.329
				c0.97,0,1.685,0.262,2.195,0.557l-0.434,2.017c-0.345-0.213-0.957-0.525-1.799-0.525c-0.842,0-1.251,0.492-1.251,1.066
				c0,0.705,0.485,1.017,1.595,1.558c1.519,0.721,2.233,1.738,2.233,3.296c0,1.853-1.11,3.428-3.471,3.428
				c-0.983,0-1.953-0.328-2.437-0.672L236.405,654.147z"/>
			<path fill="#FFFFFF" d="M243.293,654.147c0.523,0.344,1.327,0.689,2.157,0.689c0.893,0,1.366-0.476,1.366-1.197
				c0-0.689-0.408-1.083-1.442-1.558c-1.429-0.639-2.361-1.656-2.361-3.263c0-1.886,1.225-3.329,3.254-3.329
				c0.97,0,1.684,0.262,2.195,0.557l-0.434,2.017c-0.345-0.213-0.957-0.525-1.799-0.525c-0.842,0-1.251,0.492-1.251,1.066
				c0,0.705,0.485,1.017,1.595,1.558c1.519,0.721,2.233,1.738,2.233,3.296c0,1.853-1.11,3.428-3.471,3.428
				c-0.983,0-1.953-0.328-2.437-0.672L243.293,654.147z"/>
			<path fill="#FFFFFF" d="M255.235,652.048h-3.165v2.624h3.535v2.05h-5.487v-11.053h5.309v2.05h-3.356v2.296h3.165V652.048z"/>
			<path fill="#FFFFFF" d="M262.047,652.048h-3.165v2.624h3.535v2.05h-5.487v-11.053h5.309v2.05h-3.356v2.296h3.165V652.048z"/>
			<path fill="#FFFFFF" d="M204.447,676.085c-0.357,0.23-1.161,0.476-2.208,0.476c-2.973,0-4.505-2.378-4.505-5.527
				c0-3.772,2.093-5.871,4.696-5.871c1.008,0,1.774,0.262,2.118,0.492l-0.396,1.984c-0.396-0.213-0.944-0.41-1.633-0.41
				c-1.544,0-2.744,1.197-2.744,3.657c0,2.214,1.021,3.608,2.757,3.608c0.587,0,1.238-0.164,1.621-0.361L204.447,676.085z"/>
			<path fill="#FFFFFF" d="M213.211,670.755c0,3.624-1.71,5.822-4.224,5.822c-2.552,0-4.045-2.476-4.045-5.625
				c0-3.313,1.646-5.789,4.186-5.789C211.769,665.163,213.211,667.705,213.211,670.755z M206.996,670.902
				c0,2.164,0.791,3.69,2.093,3.69c1.314,0,2.067-1.607,2.067-3.755c0-1.984-0.74-3.69-2.08-3.69
				C207.762,667.147,206.996,668.754,206.996,670.902z"/>
			<path fill="#FFFFFF" d="M214.484,665.343h1.953v8.954h3.42v2.099h-5.373V665.343z"/>
			<path fill="#FFFFFF" d="M228.391,670.755c0,3.624-1.71,5.822-4.224,5.822c-2.552,0-4.045-2.476-4.045-5.625
				c0-3.313,1.646-5.789,4.186-5.789C226.949,665.163,228.391,667.705,228.391,670.755z M222.176,670.902
				c0,2.164,0.791,3.69,2.093,3.69c1.314,0,2.067-1.607,2.067-3.755c0-1.984-0.74-3.69-2.08-3.69
				C222.942,667.147,222.176,668.754,222.176,670.902z"/>
			<path fill="#FFFFFF" d="M229.663,665.491c0.625-0.131,1.557-0.23,2.591-0.23c1.276,0,2.169,0.246,2.782,0.869
				c0.51,0.525,0.791,1.295,0.791,2.312c0,1.41-0.778,2.378-1.519,2.722v0.049c0.6,0.312,0.932,1.05,1.149,2.066
				c0.268,1.247,0.536,2.69,0.702,3.116h-1.991c-0.14-0.312-0.345-1.214-0.6-2.575c-0.23-1.378-0.6-1.754-1.391-1.771h-0.587v4.346
				h-1.927V665.491z M231.59,670.246h0.766c0.97,0,1.544-0.623,1.544-1.591c0-1.017-0.536-1.525-1.429-1.541
				c-0.472,0-0.74,0.049-0.881,0.082V670.246z"/>
			<path fill="#FFFFFF" d="M239.346,673.559l-0.613,2.837h-2.016l2.629-11.053h2.552l2.667,11.053h-2.093l-0.664-2.837H239.346z
				 M241.528,671.69l-0.536-2.345c-0.153-0.656-0.306-1.476-0.434-2.132h-0.025c-0.128,0.656-0.255,1.492-0.396,2.132l-0.51,2.345
				H241.528z"/>
			<path fill="#FFFFFF" d="M245.71,665.491c0.715-0.148,1.646-0.23,2.629-0.23c1.633,0,2.693,0.377,3.522,1.181
				c0.893,0.852,1.455,2.214,1.455,4.165c0,2.116-0.6,3.575-1.429,4.477c-0.906,0.968-2.284,1.427-3.969,1.427
				c-1.008,0-1.723-0.082-2.208-0.164V665.491z M247.663,674.51c0.166,0.049,0.434,0.049,0.676,0.049
				c1.761,0.017,2.91-1.23,2.91-3.87c0.013-2.296-1.034-3.509-2.705-3.509c-0.434,0-0.715,0.049-0.881,0.098V674.51z"/>
			<path fill="#FFFFFF" d="M262.463,670.755c0,3.624-1.71,5.822-4.224,5.822c-2.552,0-4.045-2.476-4.045-5.625
				c0-3.313,1.646-5.789,4.186-5.789C261.02,665.163,262.463,667.705,262.463,670.755z M256.248,670.902
				c0,2.164,0.791,3.69,2.093,3.69c1.314,0,2.067-1.607,2.067-3.755c0-1.984-0.74-3.69-2.08-3.69
				C257.013,667.147,256.248,668.754,256.248,670.902z"/>
			<path fill="#FFFFFF" d="M192.16,685.018h1.953v8.954h3.42v2.099h-5.373V685.018z"/>
			<path fill="#FFFFFF" d="M206.068,690.429c0,3.624-1.71,5.822-4.224,5.822c-2.552,0-4.045-2.476-4.045-5.625
				c0-3.313,1.646-5.789,4.186-5.789C204.626,684.837,206.068,687.379,206.068,690.429z M199.853,690.577
				c0,2.164,0.791,3.69,2.093,3.69c1.314,0,2.067-1.607,2.067-3.755c0-1.984-0.74-3.69-2.08-3.69
				C200.619,686.821,199.853,688.429,199.853,690.577z"/>
			<path fill="#FFFFFF" d="M207.404,693.496c0.523,0.344,1.327,0.689,2.157,0.689c0.893,0,1.366-0.476,1.366-1.197
				c0-0.689-0.408-1.083-1.442-1.558c-1.429-0.639-2.361-1.656-2.361-3.263c0-1.886,1.225-3.329,3.254-3.329
				c0.97,0,1.685,0.262,2.195,0.557l-0.434,2.017c-0.345-0.213-0.957-0.525-1.799-0.525c-0.842,0-1.251,0.492-1.251,1.066
				c0,0.705,0.485,1.017,1.595,1.558c1.519,0.721,2.233,1.738,2.233,3.296c0,1.853-1.11,3.428-3.471,3.428
				c-0.983,0-1.953-0.328-2.437-0.672L207.404,693.496z"/>
			<path fill="#FFFFFF" d="M218.809,693.233l-0.613,2.837h-2.016l2.629-11.053h2.552l2.667,11.053h-2.093l-0.664-2.837H218.809z
				 M220.991,691.364l-0.536-2.345c-0.153-0.656-0.306-1.476-0.434-2.132h-0.025c-0.128,0.656-0.255,1.492-0.396,2.132l-0.51,2.345
				H220.991z"/>
			<path fill="#FFFFFF" d="M225.173,696.07v-11.053h2.271l1.787,4.05c0.51,1.164,1.021,2.542,1.404,3.788h0.038
				c-0.128-1.459-0.166-2.952-0.166-4.608v-3.23h1.787v11.053h-2.042l-1.838-4.264c-0.51-1.181-1.072-2.607-1.493-3.903
				l-0.038,0.016c0.051,1.46,0.077,3.018,0.077,4.821v3.329H225.173z"/>
			<path fill="#FFFFFF" d="M241.16,695.562c-0.6,0.262-1.736,0.623-2.871,0.623c-1.57,0-2.706-0.508-3.497-1.492
				c-0.791-0.951-1.225-2.394-1.212-4.018c0.013-3.673,2.093-5.773,4.913-5.773c1.11,0,1.965,0.279,2.386,0.541l-0.408,2.001
				c-0.472-0.262-1.059-0.476-2.004-0.476c-1.621,0-2.846,1.181-2.846,3.575c0,2.28,1.11,3.624,2.705,3.624
				c0.447,0,0.804-0.065,0.957-0.164v-2.312h-1.327v-1.951h3.203V695.562z"/>
			<path fill="#FFFFFF" d="M247.792,691.397h-3.165v2.624h3.535v2.05h-5.487v-11.053h5.309v2.05h-3.356v2.296h3.165V691.397z"/>
			<path fill="#FFFFFF" d="M249.486,685.018h1.953v8.954h3.42v2.099h-5.373V685.018z"/>
			<path fill="#FFFFFF" d="M261.122,691.397h-3.165v2.624h3.535v2.05h-5.487v-11.053h5.309v2.05h-3.356v2.296h3.165V691.397z"/>
			<path fill="#FFFFFF" d="M262.88,693.496c0.523,0.344,1.327,0.689,2.157,0.689c0.893,0,1.366-0.476,1.366-1.197
				c0-0.689-0.408-1.083-1.442-1.558c-1.429-0.639-2.361-1.656-2.361-3.263c0-1.886,1.225-3.329,3.254-3.329
				c0.97,0,1.684,0.262,2.195,0.557l-0.434,2.017c-0.345-0.213-0.957-0.525-1.799-0.525c-0.842,0-1.251,0.492-1.251,1.066
				c0,0.705,0.485,1.017,1.595,1.558c1.519,0.721,2.233,1.738,2.233,3.296c0,1.853-1.11,3.428-3.471,3.428
				c-0.983,0-1.953-0.328-2.437-0.672L262.88,693.496z"/>
			<path fill="#FFFFFF" d="M200.121,704.692v4.247h3.203v-4.247h1.94v11.053h-1.94v-4.625h-3.203v4.625h-1.953v-11.053H200.121z"/>
			<path fill="#FFFFFF" d="M214.831,710.103c0,3.624-1.71,5.822-4.224,5.822c-2.552,0-4.045-2.476-4.045-5.625
				c0-3.313,1.646-5.789,4.186-5.789C213.389,704.511,214.831,707.053,214.831,710.103z M208.616,710.251
				c0,2.164,0.791,3.69,2.093,3.69c1.314,0,2.067-1.607,2.067-3.755c0-1.984-0.74-3.69-2.08-3.69
				C209.382,706.495,208.616,708.103,208.616,710.251z"/>
			<path fill="#FFFFFF" d="M216.104,715.745v-11.053h2.272l1.787,4.05c0.51,1.164,1.021,2.542,1.404,3.788h0.038
				c-0.128-1.459-0.166-2.952-0.166-4.608v-3.23h1.787v11.053h-2.042l-1.838-4.264c-0.51-1.181-1.072-2.607-1.493-3.903
				l-0.038,0.016c0.051,1.46,0.077,3.018,0.077,4.821v3.329H216.104z"/>
			<path fill="#FFFFFF" d="M232.779,710.103c0,3.624-1.71,5.822-4.224,5.822c-2.552,0-4.045-2.476-4.045-5.625
				c0-3.313,1.646-5.789,4.186-5.789C231.337,704.511,232.779,707.053,232.779,710.103z M226.564,710.251
				c0,2.164,0.791,3.69,2.093,3.69c1.314,0,2.067-1.607,2.067-3.755c0-1.984-0.74-3.69-2.08-3.69
				C227.33,706.495,226.564,708.103,226.564,710.251z"/>
			<path fill="#FFFFFF" d="M234.051,704.692h1.953v8.954h3.42v2.099h-5.373V704.692z"/>
			<path fill="#FFFFFF" d="M242.114,704.692v6.363c0,1.902,0.561,2.87,1.557,2.87c1.021,0,1.582-0.919,1.582-2.87v-6.363h1.94v6.199
				c0,3.411-1.34,5.035-3.586,5.035c-2.17,0-3.446-1.542-3.446-5.068v-6.166H242.114z"/>
			<path fill="#FFFFFF" d="M248.874,704.692h1.953v8.954h3.42v2.099h-5.373V704.692z"/>
			<path fill="#FFFFFF" d="M256.937,704.692v6.363c0,1.902,0.561,2.87,1.557,2.87c1.021,0,1.582-0.919,1.582-2.87v-6.363h1.94v6.199
				c0,3.411-1.34,5.035-3.586,5.035c-2.169,0-3.446-1.542-3.446-5.068v-6.166H256.937z"/>
		</g>
		<g>
			<rect x="189.984" y="588.179" fill="#FFFFFF" width="79.359" height="3.25"/>
			<rect x="189.984" y="730.636" fill="#FFFFFF" width="79.359" height="3.25"/>
		</g>
	</g>
	<g>
		<path fill="#F04E4E" d="M237.221,747.382c0.286-0.302,0.534-0.605,0.824-0.862c1.009-0.891,2.067-1.718,3.406-2.057
			c1.418-0.359,2.786-0.122,4.123,0.401c1.299,0.509,2.27,1.387,2.998,2.568c0.999,1.621,1.307,3.377,1.098,5.247
			c-0.198,1.771-0.833,3.365-1.854,4.825c-1.907,2.728-4.249,5.013-7.007,6.86c-1.003,0.672-2.094,1.212-3.149,1.805
			c-0.061,0.034-0.173,0.038-0.234,0.005c-2.422-1.303-4.774-2.709-6.858-4.531c-1.951-1.707-3.492-3.72-4.594-6.056
			c-0.651-1.379-0.953-2.851-0.848-4.39c0.103-1.497,0.536-2.892,1.366-4.139c0.958-1.438,2.374-2.208,4.021-2.599
			c1.002-0.238,2.008-0.31,3.01-0.001c0.675,0.208,1.278,0.549,1.836,0.984c0.62,0.483,1.153,1.044,1.63,1.664
			C237.058,747.192,237.13,747.273,237.221,747.382z"/>
		<path fill="#FFFFFF" d="M221.861,784.315c0.017-0.03,0.03-0.042,0.03-0.053c0.016-2.314,0.029-4.629,0.049-6.943
			c0.004-0.512,0.052-1.023,0.052-1.535c0-1.089-0.014-2.178-0.031-3.267c-0.003-0.17-0.041-0.344-0.088-0.508
			c-0.113-0.395-0.391-0.624-0.791-0.669c-0.313-0.035-0.633-0.036-0.948-0.021c-0.657,0.033-1.289,0.008-1.88-0.35
			c-0.464-0.282-0.641-0.678-0.615-1.195c0.026-0.523,0.253-0.925,0.726-1.171c0.469-0.244,0.976-0.294,1.493-0.27
			c1.258,0.059,2.516,0.16,3.775,0.176c0.92,0.011,1.84-0.094,2.761-0.132c0.553-0.023,1.11-0.054,1.661-0.013
			c0.79,0.058,1.341,0.707,1.349,1.509c0.007,0.725-0.592,1.421-1.331,1.497c-0.45,0.046-0.907,0.021-1.36,0.04
			c-0.294,0.013-0.594,0.019-0.879,0.082c-0.46,0.102-0.707,0.402-0.725,0.874c-0.018,0.475,0.008,0.951,0.009,1.427
			c0.002,1.125,0.008,2.25-0.002,3.375c-0.021,2.488-0.055,4.975-0.075,7.463c-0.005,0.642,0.061,1.286,0.024,1.925
			c-0.045,0.773-0.242,1.506-0.85,2.064c-0.631,0.579-1.389,0.703-2.196,0.618c-0.98-0.103-1.675-0.63-2.138-1.493
			c-0.666-1.241-1.144-2.563-1.683-3.86c-0.633-1.522-1.306-3.028-1.953-4.545c-0.523-1.225-1.033-2.457-1.55-3.684
			c-0.375-0.889-0.751-1.778-1.131-2.665c-0.064-0.148-0.152-0.285-0.23-0.427c-0.026,0.005-0.051,0.009-0.077,0.014
			c-0.012,0.209-0.033,0.418-0.033,0.627c0.002,1.586,0.008,3.173,0.013,4.759c0.004,1.428,0.011,2.856,0.007,4.284
			c-0.002,0.685-0.029,1.37-0.036,2.055c-0.002,0.194,0.011,0.39,0.043,0.581c0.117,0.698,0.471,1.015,1.187,1.039
			c0.511,0.018,1.024-0.01,1.536,0.008c0.693,0.025,1.232,0.447,1.396,1.062c0.255,0.956-0.406,1.809-1.457,1.822
			c-0.762,0.01-1.526-0.056-2.289-0.074c-1.009-0.024-2.018-0.058-3.027-0.046c-1.001,0.012-2,0.081-3.001,0.114
			c-0.244,0.008-0.493,0.001-0.732-0.043c-0.744-0.138-1.235-1.071-0.978-1.832c0.276-0.817,1.016-1.239,1.893-1.067
			c0.476,0.093,0.947,0.094,1.413-0.034c0.563-0.155,0.792-0.414,0.81-0.995c0.032-1.008,0.035-2.018,0.044-3.027
			c0.014-1.492,0.025-2.985,0.033-4.477c0.003-0.548-0.008-1.096-0.012-1.644c-0.008-1.146-0.014-2.293-0.023-3.439
			c-0.001-0.101-0.014-0.201-0.022-0.302c-0.026-0.317-0.197-0.534-0.499-0.606c-0.25-0.059-0.511-0.085-0.769-0.092
			c-0.461-0.013-0.923-0.002-1.385,0.002c-0.887,0.006-1.284-0.606-1.411-1.383c-0.119-0.727,0.473-1.44,1.228-1.556
			c0.337-0.052,0.688-0.02,1.032-0.02c1.616,0.003,3.231,0.013,4.847,0.011c1.042-0.001,1.803,0.47,2.332,1.347
			c0.1,0.167,0.204,0.333,0.282,0.51c0.874,1.984,1.75,3.967,2.613,5.955c0.737,1.697,1.453,3.403,2.186,5.101
			c0.414,0.959,0.845,1.91,1.269,2.864C221.78,784.157,221.819,784.23,221.861,784.315z"/>
		<path fill="#FFFFFF" d="M242.051,778.319c0.193-0.289,0.368-0.527,0.519-0.78c0.667-1.121,1.332-2.244,1.986-3.372
			c0.343-0.592,0.662-1.198,0.993-1.797c0.09-0.163,0.202-0.316,0.278-0.486c0.116-0.26,0.026-0.426-0.258-0.458
			c-0.191-0.022-0.39-0.015-0.581,0.014c-0.447,0.066-0.885,0.017-1.3-0.131c-1.029-0.365-1.263-1.806-0.422-2.503
			c0.234-0.194,0.512-0.276,0.802-0.279c0.475-0.005,0.95,0.022,1.425,0.033c0.699,0.017,1.398,0.036,2.097,0.046
			c1.529,0.022,3.057-0.009,4.583-0.134c0.32-0.026,0.652-0.007,0.969,0.045c0.922,0.151,1.293,0.945,1.108,1.736
			c-0.194,0.832-0.605,1.162-1.451,1.216c-0.208,0.013-0.418,0.016-0.627,0.01c-0.585-0.019-1.165-0.02-1.745,0.096
			c-0.406,0.081-0.759,0.24-1.025,0.552c-0.209,0.246-0.409,0.506-0.577,0.781c-1.089,1.775-2.167,3.558-3.253,5.335
			c-0.556,0.91-1.129,1.81-1.674,2.727c-0.113,0.19-0.19,0.429-0.198,0.648c-0.035,0.951-0.042,1.903-0.052,2.855
			c-0.002,0.201,0.019,0.404,0.047,0.603c0.083,0.591,0.436,0.921,1.035,0.93c0.388,0.006,0.777-0.031,1.165-0.063
			c0.49-0.041,0.965-0.005,1.409,0.229c0.453,0.238,0.67,0.617,0.669,1.124c-0.003,0.7-0.439,1.377-1.045,1.506
			c-0.404,0.086-0.835,0.105-1.248,0.073c-1.612-0.125-3.223-0.234-4.84-0.121c-0.697,0.049-1.393,0.099-2.091,0.127
			c-0.416,0.017-0.843,0.044-1.25-0.023c-0.86-0.142-1.373-1.003-1.21-1.804c0.11-0.538,0.642-0.978,1.273-1.037
			c0.284-0.027,0.574,0.013,0.862,0.012c0.302-0.001,0.608,0.013,0.905-0.026c0.706-0.094,1.033-0.464,1.068-1.188
			c0.029-0.583,0.038-1.168,0.057-1.752c0.014-0.447,0.042-0.894,0.037-1.34c-0.002-0.187-0.029-0.401-0.123-0.555
			c-0.839-1.379-1.694-2.748-2.548-4.118c-0.907-1.455-1.827-2.903-2.725-4.364c-0.421-0.684-1.008-1.128-1.784-1.284
			c-0.362-0.073-0.746-0.04-1.12-0.047c-0.396-0.008-0.796,0.028-1.188-0.015c-0.955-0.104-1.441-0.785-1.273-1.732
			c0.137-0.769,0.51-1.088,1.401-1.166c0.307-0.027,0.619-0.01,0.928-0.006c1.514,0.017,3.028,0.049,4.542,0.049
			c0.879,0,1.758-0.067,2.637-0.075c0.363-0.003,0.73,0.052,1.089,0.114c0.14,0.024,0.28,0.117,0.393,0.212
			c0.408,0.342,0.605,1.142,0.427,1.675c-0.181,0.543-0.686,0.934-1.285,0.968c-0.344,0.02-0.689,0.005-1.034,0.003
			c-0.184-0.001-0.373-0.007-0.481,0.174c-0.11,0.184-0.04,0.36,0.059,0.529c1.144,1.969,2.288,3.938,3.433,5.907
			C241.896,778.088,241.961,778.18,242.051,778.319z"/>
		<path fill="#FFFFFF" d="M215.201,754.488c0-1.109,0.003-2.357-0.001-3.605c-0.002-0.757-0.012-1.514-0.024-2.271
			c-0.015-0.917-0.349-1.254-1.263-1.257c-0.54-0.002-1.083,0.058-1.621,0.03c-0.622-0.032-1.101-0.35-1.338-0.939
			c-0.411-1.023,0.212-2.009,1.309-2.03c1.016-0.02,2.033,0.02,3.049,0.061c1.632,0.066,3.259,0.004,4.884-0.132
			c0.359-0.03,0.711-0.052,1.071,0.044c0.64,0.172,1.023,0.568,1.121,1.219c0.094,0.625-0.169,1.185-0.705,1.511
			c-0.416,0.252-0.874,0.261-1.339,0.252c-0.396-0.007-0.796-0.037-1.187,0.009c-0.543,0.063-0.787,0.339-0.834,0.882
			c-0.031,0.351-0.041,0.705-0.034,1.058c0.023,1.233,0.065,2.466,0.087,3.699c0.032,1.816,0.058,3.632,0.078,5.448
			c0.008,0.699-0.015,1.399-0.003,2.098c0.004,0.242,0.053,0.487,0.112,0.724c0.12,0.483,0.415,0.738,0.913,0.782
			c0.308,0.027,0.619,0.012,0.928,0.024c0.416,0.016,0.841-0.005,1.246,0.074c0.608,0.119,0.926,0.628,0.916,1.337
			c-0.008,0.642-0.36,1.167-0.943,1.253c-0.523,0.077-1.061,0.046-1.593,0.061c-0.043,0.001-0.086-0.013-0.129-0.012
			c-1.707,0.026-3.413-0.195-5.123,0c-0.687,0.078-1.381,0.101-2.072,0.13c-1.186,0.05-1.918-0.993-1.479-2.096
			c0.13-0.326,0.355-0.537,0.701-0.65c0.571-0.187,1.15-0.164,1.734-0.146c0.258,0.008,0.521-0.002,0.773-0.048
			c0.474-0.085,0.757-0.395,0.808-0.865c0.046-0.428,0.038-0.863,0.043-1.294c0.006-0.591,0.011-1.182,0-1.772
			C215.266,756.92,215.233,755.773,215.201,754.488z"/>
	</g>
</g>
</svg>
