<?xml version="1.0" encoding="utf-8"?>
<!-- Generator: Adobe Illustrator 17.0.0, SVG Export Plug-In . SVG Version: 6.00 Build 0)  -->
<!DOCTYPE svg PUBLIC "-//W3C//DTD SVG 1.1//EN" "http://www.w3.org/Graphics/SVG/1.1/DTD/svg11.dtd">
<svg version="1.1" id="Layer_1" xmlns="http://www.w3.org/2000/svg" xmlns:xlink="http://www.w3.org/1999/xlink" x="0px" y="0px"
	 width="1900.722px" height="360.084px" viewBox="0 0 1900.722 360.084" enable-background="new 0 0 1900.722 360.084"
	 xml:space="preserve">
<g>
	<path fill="none" stroke="#D1E5D3" stroke-width="13.6985" stroke-miterlimit="10" d="M343.255,60.193
		c0,0,31.968,128.848,219.469,128.848S789.04,58.739,789.04,58.739"/>
	<path fill="none" stroke="#D1E5D3" stroke-width="13.6985" stroke-miterlimit="10" d="M340.407,70.622
		c0,0,34.816,128.848,222.317,128.848S789.15,74.968,789.15,74.968"/>
	<polygon fill="#B1AA80" points="336.472,58.794 336.472,39.082 311.226,39.082 311.226,58.794 302.444,58.794 302.444,219.773 
		310.502,219.773 311.373,219.773 334.024,219.773 335.766,219.773 341.96,219.773 341.96,58.794 	"/>
	<path fill="#B1AA80" d="M296.568,50.033h14.658v12.552C311.226,62.585,295.794,60.984,296.568,50.033z"/>
	<path fill="#B1AA80" d="M349.676,50.033h-13.204v12.552C336.472,62.585,350.45,60.984,349.676,50.033z"/>
	<polygon fill="#B1AA80" points="341.864,272.476 303.532,272.476 293.663,272.476 293.663,358.989 303.532,358.989 
		341.864,358.989 350.741,358.989 350.741,272.476 	"/>
	<rect x="315.616" y="54.413" fill="#D1E5D3" width="14.27" height="160.979"/>
	<rect x="305.737" y="55.508" fill="#D1E5D3" width="2.195" height="159.884"/>
	<rect x="336.472" y="55.508" fill="#D1E5D3" width="2.195" height="159.884"/>
	<rect x="307.933" y="279.047" fill="#D1E5D3" width="30.735" height="79.942"/>
	<rect x="298.054" y="279.047" fill="#D1E5D3" width="5.488" height="79.942"/>
	<rect x="341.96" y="279.047" fill="#D1E5D3" width="5.488" height="79.942"/>
	
		<line fill="none" stroke="#D1E5D3" stroke-width="13.6985" stroke-miterlimit="10" x1="367.206" y1="119.024" x2="367.206" y2="218.678"/>
	
		<line fill="none" stroke="#D1E5D3" stroke-width="13.6985" stroke-miterlimit="10" x1="418.796" y1="163.923" x2="418.796" y2="218.678"/>
	
		<line fill="none" stroke="#D1E5D3" stroke-width="13.6985" stroke-miterlimit="10" x1="467.094" y1="188.015" x2="467.094" y2="218.678"/>
	
		<line fill="none" stroke="#D1E5D3" stroke-width="13.6985" stroke-miterlimit="10" x1="732.728" y1="148.591" x2="732.728" y2="218.678"/>
	
		<line fill="none" stroke="#D1E5D3" stroke-width="13.6985" stroke-miterlimit="10" x1="683.333" y1="177.064" x2="683.333" y2="218.678"/>
	
		<line fill="none" stroke="#D1E5D3" stroke-width="13.6985" stroke-miterlimit="10" x1="607.594" y1="196.776" x2="607.594" y2="218.678"/>
	
		<line fill="none" stroke="#D1E5D3" stroke-width="13.6985" stroke-miterlimit="10" x1="536.246" y1="200.061" x2="536.246" y2="218.678"/>
	<g>
		<polygon fill="#B1AA80" points="821.638,60.984 821.638,40.177 796.392,40.177 796.392,60.984 786.513,60.984 786.513,220.868 
			795.529,220.868 796.4,220.868 819.051,220.868 820.794,220.868 827.127,220.868 827.127,60.984 		"/>
		<path fill="#B1AA80" d="M781.595,51.128h14.797v12.911C796.392,64.039,780.821,63.174,781.595,51.128z"/>
		<path fill="#B1AA80" d="M834.703,51.128h-13.065v12.911C821.638,64.039,835.477,63.174,834.703,51.128z"/>
		<rect x="800.783" y="55.508" fill="#D1E5D3" width="14.27" height="160.979"/>
		<rect x="790.904" y="56.603" fill="#D1E5D3" width="2.195" height="159.884"/>
		<rect x="821.638" y="56.603" fill="#D1E5D3" width="2.195" height="159.884"/>
	</g>
	<g>
		<polygon fill="#B1AA80" points="826.892,273.571 788.559,273.571 778.83,273.571 778.83,360.084 788.559,360.084 826.892,360.084 
			835.908,360.084 835.908,273.571 		"/>
		<rect x="793.099" y="281.237" fill="#D1E5D3" width="30.735" height="78.847"/>
		<rect x="782.123" y="281.237" fill="#D1E5D3" width="6.586" height="78.847"/>
		<rect x="827.127" y="281.237" fill="#D1E5D3" width="5.488" height="78.847"/>
	</g>
	<g>
		<polygon fill="#B1AA80" points="1851.245,59.99 1851.245,39.183 1825.999,39.183 1825.999,59.99 1816.12,59.99 1816.12,219.874 
			1825.136,219.874 1826.007,219.874 1848.658,219.874 1850.401,219.874 1856.734,219.874 1856.734,59.99 		"/>
		<path fill="#B1AA80" d="M1811.203,50.134h14.797v12.911C1825.999,63.045,1810.428,62.18,1811.203,50.134z"/>
		<path fill="#B1AA80" d="M1864.31,50.134h-13.065v12.911C1851.245,63.045,1865.084,62.18,1864.31,50.134z"/>
		<rect x="1830.39" y="54.514" fill="#D1E5D3" width="14.27" height="160.979"/>
		<rect x="1820.511" y="55.609" fill="#D1E5D3" width="2.195" height="159.884"/>
		<rect x="1851.245" y="55.609" fill="#D1E5D3" width="2.195" height="159.884"/>
	</g>
	<g>
		<polygon fill="#B1AA80" points="1856.499,276.127 1818.167,276.127 1808.437,276.127 1808.437,362.64 1818.167,362.64 
			1856.499,362.64 1865.515,362.64 1865.515,276.127 		"/>
		<rect x="1822.706" y="283.793" fill="#D1E5D3" width="30.735" height="78.847"/>
		<rect x="1811.73" y="283.793" fill="#D1E5D3" width="6.586" height="78.847"/>
		<rect x="1856.734" y="283.793" fill="#D1E5D3" width="5.488" height="78.847"/>
	</g>
	<g>
		<rect x="0" y="265.443" fill="#B1AA80" width="1900.895" height="10.126"/>
		<rect x="0" y="245.19" fill="#B1AA80" width="1900.895" height="10.126"/>
		<rect x="0" y="219.874" fill="#B1AA80" width="1900.895" height="5.063"/>
		<rect x="0" y="224.937" fill="#D1E5D3" width="1900.895" height="20.253"/>
		<rect x="0" y="255.317" fill="#D1E5D3" width="1900.895" height="10.126"/>
	</g>
</g>
</svg>
