<?xml version="1.0" encoding="utf-8"?>
<!-- Generator: Adobe Illustrator 17.0.0, SVG Export Plug-In . SVG Version: 6.00 Build 0)  -->
<!DOCTYPE svg PUBLIC "-//W3C//DTD SVG 1.1//EN" "http://www.w3.org/Graphics/SVG/1.1/DTD/svg11.dtd">
<svg version="1.1" id="Layer_1" xmlns="http://www.w3.org/2000/svg" xmlns:xlink="http://www.w3.org/1999/xlink" x="0px" y="0px"
	 width="1900.722px" height="1097.178px" viewBox="0 0 1900.722 1097.178" enable-background="new 0 0 1900.722 1097.178"
	 xml:space="preserve">
<linearGradient id="SVGID_2_" gradientUnits="userSpaceOnUse" x1="952.1234" y1="1096.4031" x2="952.1234" y2="789.8529">
	<stop  offset="0" style="stop-color:#FDF9D2"/>
	<stop  offset="0.195" style="stop-color:#F8F7D1"/>
	<stop  offset="0.3722" style="stop-color:#EDF2D0"/>
	<stop  offset="0.5426" style="stop-color:#DBE9CF"/>
	<stop  offset="0.7088" style="stop-color:#C1DECD"/>
	<stop  offset="0.8705" style="stop-color:#9FD1CB"/>
	<stop  offset="0.9099" style="stop-color:#95CDCB"/>
</linearGradient>
<rect x="3.525" y="789.853" fill="url(#SVGID_2_)" width="1897.197" height="306.55"/>
<g>
	<g>
		<g>
			<g>
				<rect x="1669.788" y="554.415" fill="#F6EAC4" width="229.657" height="280.913"/>
			</g>
			<g>
				<polygon fill="#C87378" points="1899.446,431.894 1710.724,432.591 1658.139,554.415 1669.789,554.415 1899.446,554.415 				"/>
			</g>
		</g>
		<g>
			<rect x="1781.964" y="579.056" fill="#E8E8D6" width="45.731" height="60.672"/>
			<path fill="#C87378" d="M1826.703,580.048v58.688h-43.746v-58.688H1826.703 M1828.688,578.063h-47.716v62.658h47.716V578.063
				L1828.688,578.063z"/>
		</g>
		<g>
			<rect x="1781.964" y="619.157" fill="#E8E8D6" width="45.731" height="1.774"/>
			<polygon fill="#C87378" points="1828.688,618.164 1780.973,618.164 1780.973,621.923 1828.688,621.923 1828.688,618.164 			"/>
		</g>
		<g>
			<rect x="1803.778" y="579.056" fill="#E8E8D6" width="2.105" height="60.672"/>
			<path fill="#C87378" d="M1804.891,580.048v58.688h-0.12v-58.688H1804.891 M1806.875,578.063h-4.09v62.658h4.09V578.063
				L1806.875,578.063z"/>
		</g>
		<g>
			<rect x="1781.964" y="597.853" fill="#E8E8D6" width="45.731" height="1.774"/>
			<polygon fill="#C87378" points="1828.688,596.86 1780.973,596.86 1780.973,600.62 1828.688,600.62 1828.688,596.86 			"/>
		</g>
		<g>
			<rect x="1782.646" y="669.909" fill="#E8E8D6" width="45.731" height="60.672"/>
			<path fill="#C87378" d="M1827.385,670.902v58.688h-43.746v-58.688H1827.385 M1829.37,668.917h-47.716v62.658h47.716V668.917
				L1829.37,668.917z"/>
		</g>
		<g>
			<rect x="1782.646" y="710.01" fill="#E8E8D6" width="45.731" height="1.774"/>
			<polygon fill="#C87378" points="1829.37,709.018 1781.654,709.018 1781.654,712.777 1829.37,712.777 1829.37,709.018 			"/>
		</g>
		<g>
			<rect x="1804.459" y="669.909" fill="#E8E8D6" width="2.105" height="60.672"/>
			<path fill="#C87378" d="M1805.572,670.902v58.688h-0.12v-58.688H1805.572 M1807.557,668.917h-4.09v62.658h4.09V668.917
				L1807.557,668.917z"/>
		</g>
		<g>
			<rect x="1782.646" y="688.706" fill="#E8E8D6" width="45.731" height="1.774"/>
			<polygon fill="#C87378" points="1829.37,687.714 1781.654,687.714 1781.654,691.473 1829.37,691.473 1829.37,687.714 			"/>
		</g>
		<g>
			<rect x="1783.328" y="760.763" fill="#E8E8D6" width="45.731" height="60.672"/>
			<path fill="#C87378" d="M1828.067,761.755v58.688h-43.746v-58.688H1828.067 M1830.052,759.77h-47.716v62.658h47.716V759.77
				L1830.052,759.77z"/>
		</g>
		<g>
			<rect x="1783.328" y="800.864" fill="#E8E8D6" width="45.731" height="1.774"/>
			<polygon fill="#C87378" points="1830.052,799.871 1782.336,799.871 1782.336,803.631 1830.052,803.631 1830.052,799.871 			"/>
		</g>
		<g>
			<rect x="1805.141" y="760.763" fill="#E8E8D6" width="2.105" height="60.672"/>
			<path fill="#C87378" d="M1806.254,761.755v58.688h-0.12v-58.688H1806.254 M1808.239,759.77h-4.09v62.658h4.09V759.77
				L1808.239,759.77z"/>
		</g>
		<g>
			<rect x="1783.328" y="779.56" fill="#E8E8D6" width="45.731" height="1.774"/>
			<polygon fill="#C87378" points="1830.052,778.568 1782.336,778.568 1782.336,782.327 1830.052,782.327 1830.052,778.568 			"/>
		</g>
		<g>
			<rect x="1697.185" y="760.763" fill="#E8E8D6" width="45.731" height="60.672"/>
			<path fill="#C87378" d="M1741.924,761.755v58.688h-43.746v-58.688H1741.924 M1743.909,759.77h-47.716v62.658h47.716V759.77
				L1743.909,759.77z"/>
		</g>
		<g>
			<rect x="1697.185" y="800.864" fill="#E8E8D6" width="45.731" height="1.774"/>
			<polygon fill="#C87378" points="1743.909,799.871 1696.193,799.871 1696.193,803.631 1743.909,803.631 1743.909,799.871 			"/>
		</g>
		<g>
			<rect x="1718.997" y="760.763" fill="#E8E8D6" width="2.105" height="60.672"/>
			<path fill="#C87378" d="M1720.111,761.755v58.688h-0.12v-58.688H1720.111 M1722.096,759.77h-4.09v62.658h4.09V759.77
				L1722.096,759.77z"/>
		</g>
		<g>
			<rect x="1697.185" y="779.56" fill="#E8E8D6" width="45.731" height="1.774"/>
			<polygon fill="#C87378" points="1743.909,778.568 1696.193,778.568 1696.193,782.327 1743.909,782.327 1743.909,778.568 			"/>
		</g>
		<g>
			<rect x="1695.14" y="669.909" fill="#E8E8D6" width="45.731" height="60.672"/>
			<path fill="#C87378" d="M1739.879,670.902v58.688h-43.746v-58.688H1739.879 M1741.864,668.917h-47.716v62.658h47.716V668.917
				L1741.864,668.917z"/>
		</g>
		<g>
			<rect x="1695.14" y="710.01" fill="#E8E8D6" width="45.731" height="1.774"/>
			<polygon fill="#C87378" points="1741.864,709.018 1694.148,709.018 1694.148,712.777 1741.864,712.777 1741.864,709.018 			"/>
		</g>
		<g>
			<rect x="1716.953" y="669.909" fill="#E8E8D6" width="2.105" height="60.672"/>
			<path fill="#C87378" d="M1718.066,670.902v58.688h-0.121v-58.688H1718.066 M1720.051,668.917h-4.09v62.658h4.09V668.917
				L1720.051,668.917z"/>
		</g>
		<g>
			<rect x="1695.14" y="688.706" fill="#E8E8D6" width="45.731" height="1.774"/>
			<polygon fill="#C87378" points="1741.864,687.714 1694.148,687.714 1694.148,691.473 1741.864,691.473 1741.864,687.714 			"/>
		</g>
		<g>
			<rect x="1693.095" y="579.056" fill="#E8E8D6" width="45.731" height="60.672"/>
			<path fill="#C87378" d="M1737.834,580.048v58.688h-43.746v-58.688H1737.834 M1739.819,578.063h-47.716v62.658h47.716V578.063
				L1739.819,578.063z"/>
		</g>
		<g>
			<rect x="1693.095" y="619.157" fill="#E8E8D6" width="45.731" height="1.774"/>
			<polygon fill="#C87378" points="1739.819,618.164 1692.103,618.164 1692.103,621.923 1739.819,621.923 1739.819,618.164 			"/>
		</g>
		<g>
			<rect x="1714.908" y="579.056" fill="#E8E8D6" width="2.105" height="60.672"/>
			<path fill="#C87378" d="M1716.021,580.048v58.688h-0.121v-58.688H1716.021 M1718.006,578.063h-4.09v62.658h4.09V578.063
				L1718.006,578.063z"/>
		</g>
		<g>
			<rect x="1693.095" y="597.853" fill="#E8E8D6" width="45.731" height="1.774"/>
			<polygon fill="#C87378" points="1739.819,596.86 1692.103,596.86 1692.103,600.62 1739.819,600.62 1739.819,596.86 			"/>
		</g>
	</g>
	<polygon fill="#FFFFFF" points="1101.09,845.076 981.499,845.076 982.951,846.063 1102.986,846.063 	"/>
	<polygon fill="#C98558" points="375.668,708.918 373.92,723.717 327.074,724.809 321.144,642.668 272.612,644.809 270.154,668.405 
		238.396,675.659 239.942,615.163 181.467,613.348 181.467,606.693 159.74,599.521 103.073,622.372 16.423,624.59 17.332,649.445 
		3.525,649.445 3.525,839.494 391.666,839.494 391.666,709.547 	"/>
	<g>
		<polygon fill="#C98558" points="1880.58,625.909 1880.58,619.254 1858.854,612.081 1802.187,634.933 1715.536,637.151 
			1716.446,662.006 1698.845,662.006 1698.845,670.832 1693.371,671.286 1693.371,662.664 1688.992,662.21 1688.992,640.161 
			1682.424,640.161 1682.424,617.287 1674.76,618.648 1674.76,595.38 1623.305,595.38 1623.305,710.763 1569.66,711.217 
			1569.66,696.697 1564.186,694.882 1564.186,690.344 1561.997,691.252 1561.997,694.428 1559.807,694.882 1559.807,710.763 
			1553.238,709.402 1553.238,701.234 1548.859,702.142 1548.859,692.159 1543.385,693.066 1543.385,701.234 1540.101,700.327 
			1540.101,710.763 1532.437,711.217 1532.437,701.326 1528.601,701.326 1525.417,711.157 1520.395,711.157 1520.395,725.284 
			1509.447,723.923 1509.447,713.94 1503.973,714.848 1503.973,705.772 1497.404,703.957 1497.404,692.588 1479.887,692.588 
			1479.887,731.183 1479.887,852.054 1899.824,852.054 1899.824,626.506 		"/>
	</g>
	<polygon fill="#C98558" points="891.985,730.637 891.985,692.042 909.502,692.042 909.502,703.411 916.071,705.226 
		916.071,714.301 921.545,713.394 921.545,723.377 932.492,724.738 932.492,710.61 937.515,710.61 940.699,700.78 944.535,700.78 
		944.535,710.671 952.199,710.217 952.199,699.781 955.483,700.688 955.483,692.521 960.957,691.613 960.957,701.596 
		965.336,700.688 965.336,708.856 971.905,710.217 971.905,694.336 974.094,693.882 974.094,690.705 976.284,689.798 
		976.284,694.336 981.758,696.151 981.758,710.671 1035.403,710.217 1035.403,594.834 1086.858,594.834 1086.858,618.102 
		1094.521,616.741 1094.521,639.615 1101.09,639.615 1101.09,661.664 1105.469,662.118 1105.469,670.74 1110.943,670.286 
		1110.943,661.46 1128.544,661.46 1127.634,636.605 1214.285,634.387 1270.952,611.535 1292.678,618.707 1292.678,625.363 
		1351.154,627.178 1364.928,685.788 1381.366,680.42 1383.824,656.824 1432.355,654.682 1451.777,735.732 1485.132,735.732 
		1486.879,720.933 1502.878,721.562 1502.878,851.508 891.985,851.508 	"/>
	<polygon fill="#C98558" points="1770.007,731.183 1770.007,692.589 1752.49,692.589 1752.49,703.957 1745.921,705.772 
		1745.921,714.847 1740.447,713.94 1740.447,723.923 1729.499,725.284 1729.499,711.156 1724.477,711.156 1721.293,701.326 
		1717.457,701.326 1717.457,711.217 1709.793,710.764 1709.793,700.327 1706.509,701.234 1706.509,693.067 1701.035,692.159 
		1701.035,702.142 1696.656,701.234 1696.656,709.402 1690.087,710.764 1690.087,694.882 1687.897,694.428 1687.897,691.252 
		1685.708,690.344 1685.708,694.882 1680.234,696.697 1680.234,711.217 1626.589,710.764 1626.589,595.38 1575.134,595.38 
		1575.134,618.649 1567.471,617.287 1567.471,640.161 1560.902,640.161 1560.902,662.21 1556.523,662.664 1556.523,671.286 
		1551.049,670.832 1551.049,662.006 1533.448,662.006 1534.358,637.151 1447.707,634.933 1391.04,612.081 1369.314,619.254 
		1369.314,625.909 1310.838,627.724 1297.064,686.334 1280.626,680.966 1278.168,657.37 1229.637,655.229 1210.214,736.278 
		1176.86,736.278 1175.113,721.479 1159.114,722.108 1159.114,852.054 1770.007,852.054 	"/>
	<polygon fill="#C98558" points="990.516,718.622 990.516,680.028 973,680.028 973,691.396 966.431,693.211 966.431,702.287 
		960.957,701.379 960.957,711.362 950.009,712.724 950.009,698.596 944.987,698.596 941.803,688.766 937.966,688.766 
		937.966,698.657 930.303,698.203 930.303,687.766 927.018,688.674 927.018,680.506 921.545,679.598 921.545,689.581 
		917.165,688.674 917.165,696.842 910.597,698.203 910.597,682.321 908.407,681.867 908.407,678.691 906.218,677.783 
		906.218,682.321 900.744,684.136 900.744,698.657 847.099,698.203 847.099,582.819 795.644,582.819 795.644,606.088 
		787.98,604.727 787.98,627.601 781.411,627.601 781.411,649.65 777.032,650.103 777.032,658.725 771.558,658.271 771.558,649.445 
		753.958,649.445 750.757,626.509 668.216,622.372 611.549,599.521 589.823,606.693 589.823,613.348 531.347,615.163 
		533.989,665.829 501.136,668.405 498.678,644.81 435.458,646.169 430.724,723.717 397.37,723.717 395.622,708.918 379.624,709.547 
		379.624,839.494 990.516,839.494 	"/>
	<path fill="#F2A670" d="M369.535,566.169c5.761-2.118,4.368,18.151,4.368,18.151c3.942,0,2.672,15.428,2.672,15.428
		c7.581,0,2.956,13.651,4.435,15.126c4.931,4.92-0.471,6.05,6.806,16.941c7.277,10.89,6.579,22.991,6.579,22.991v177.043h-49.266
		V654.805c0,0,0.013-12.1,7.29-22.991c7.277-10.89,2.504-12.021,7.435-16.941c1.478-1.475-3.105-15.126,4.476-15.126
		c0,0-1.249-15.428,2.693-15.428c0,0-1.837-20.268,3.924-18.151"/>
	<polygon fill="#F2A670" points="824.649,830.756 824.649,648.268 822.46,646.226 822.46,618.863 815.891,618.863 815.891,577.358 
		809.322,577.358 809.322,567.528 806.038,567.528 806.038,559.882 798.375,559.882 798.375,550.052 792.901,550.052 
		792.901,539.13 789.616,539.13 789.616,529.3 786.332,529.3 786.332,522.747 786.332,522.747 783.159,522.747 780.858,522.747 
		780.858,529.3 775.384,529.3 775.384,539.13 773.194,539.13 773.194,550.052 766.626,550.052 766.626,559.882 762.246,559.882 
		762.246,567.528 756.772,567.528 756.772,577.358 750.204,577.358 750.204,618.863 744.73,618.863 744.73,646.226 741.445,648.268 
		741.445,830.756 	"/>
	<polygon fill="#F2A670" points="298.062,834.033 298.062,667.075 293.683,665.207 293.683,640.708 281.64,640.708 281.64,602.479 
		269.597,602.479 269.597,593.742 264.123,593.742 264.123,586.096 249.891,586.096 249.891,577.358 240.038,577.358 
		240.038,567.528 233.469,567.528 233.469,557.698 227.995,557.698 227.995,552.237 227.995,552.237 222.179,552.237 
		218.142,552.237 218.142,557.698 208.289,557.698 208.289,567.528 203.91,567.528 203.91,577.358 191.867,577.358 191.867,586.096 
		184.204,586.096 184.204,593.742 174.351,593.742 174.351,602.479 162.308,602.479 162.308,640.708 151.36,640.708 151.36,665.207 
		145.886,667.075 145.886,834.033 	"/>
	<g>
		<polygon fill="#F2A670" points="1861.15,732.067 1854.024,750.823 1709.915,752.032 1709.39,764.662 1645.882,765.008 
			1644.638,722.625 1590.303,722.625 1591.246,821.276 1580.881,821.595 1580.567,727.597 1548.846,705.782 1547.276,736.621 
			1541.623,739.614 1539.738,728.086 1536.598,728.086 1534.713,735.732 1524.774,735.732 1524.774,780.513 1495.247,780.513 
			1496.189,829.664 1483.172,829.664 1483.172,821.375 1462.371,820.467 1462.371,829.664 1444.367,829.664 1444.995,804.542 
			1425.523,804.542 1424.267,748.839 1384.066,748.839 1383.438,767.406 1372.759,767.406 1372.131,779.421 1363.84,779.421 
			1363.84,799.594 1360.919,798.687 1360.244,729.714 1351.112,721.187 1350.146,708.426 1331.302,708.426 1330.674,720.582 
			1323.764,721.064 1323.791,745.203 1320.048,746.352 1320.048,765.108 1312.955,765.712 1311.593,753.612 1301.437,751.192 
			1301.437,736.066 1294.868,734.857 1294.868,725.176 1261.421,724.268 1261.185,732.974 1179.096,734.251 1178.82,753.007 
			1027.861,754.217 1027.336,766.847 963.828,767.193 962.584,724.809 908.249,724.809 909.192,823.46 898.827,823.779 
			898.513,729.781 866.792,707.967 865.222,738.806 859.569,741.798 857.684,730.27 854.543,730.27 852.659,737.916 842.72,737.916 
			842.72,780.513 813.193,780.513 814.135,829.664 801.118,829.664 801.118,821.375 780.317,820.467 780.317,829.664 
			762.313,829.664 762.941,804.542 743.469,804.542 742.213,748.839 702.012,748.839 701.384,767.406 690.705,767.406 
			690.077,779.421 681.786,779.421 681.786,799.594 678.865,798.687 678.19,729.714 669.058,721.187 668.092,708.426 
			649.248,708.426 648.62,720.582 641.71,721.064 641.737,745.203 637.994,746.352 637.994,765.108 630.901,765.712 
			629.539,753.612 619.383,751.192 619.383,736.066 612.814,734.857 612.814,725.176 579.366,724.268 579.199,734.627 
			497.041,734.251 489.916,753.007 345.807,754.217 345.282,766.847 281.774,767.193 280.53,724.809 226.195,724.809 
			226.717,779.421 216.625,779.421 216.459,729.781 184.738,707.967 183.168,738.806 177.514,741.798 175.63,730.27 172.489,730.27 
			170.605,737.916 160.666,737.916 160.666,828.571 149.231,828.571 149.859,803.45 130.387,803.45 129.131,747.746 88.93,747.746 
			88.301,766.314 77.623,766.314 76.995,778.329 68.703,778.329 68.703,798.501 65.782,797.594 65.107,720.167 57.07,720.095 
			53.915,707.334 39.45,707.334 36.632,719.49 28.628,719.972 28.47,765.108 16.724,764.62 16.457,750.335 6.3,750.1 6.3,734.974 
			3.708,735.079 3.525,849.324 160.666,849.324 160.666,850.416 842.72,850.416 1524.774,850.416 1524.774,848.232 
			1899.446,848.232 1899.446,734.184 		"/>
	</g>
	<polygon fill="#F2A670" points="944.538,624.324 944.538,853.693 1008.036,853.693 1008.036,624.324 994.135,624.324 
		993.225,592.649 986.858,592.649 986.356,600.854 981.761,600.664 981.761,583.912 968.624,583.912 968.624,602.479 
		967.527,602.479 967.15,594.426 957.676,592.723 957.676,624.324 	"/>
	<path fill="#F2A670" d="M1588.868,528.273c4.43-2.463,3.359,21.113,3.359,21.113c3.031,0,2.055,17.946,2.055,17.946
		c5.829,0,2.273,15.878,3.41,17.594c3.792,5.723-0.529,7.038,5.067,19.705c5.596,12.668,4.892,26.743,4.892,26.743v205.935h-37.223
		V631.374c0,0-0.154-14.075,5.442-26.743c5.596-12.668,1.844-13.982,5.636-19.705c1.137-1.716-2.428-17.594,3.401-17.594
		c0,0-0.981-17.946,2.05-17.946c0,0-1.423-23.576,3.007-21.113"/>
	<g>
		<rect x="471.586" y="643.984" fill="#C9A172" width="66.782" height="206.432"/>
		<rect x="480.344" y="652.722" fill="#FFFFFF" width="6.569" height="18.568"/>
		<rect x="493.482" y="652.722" fill="#FFFFFF" width="6.569" height="18.568"/>
		<rect x="505.524" y="652.722" fill="#FFFFFF" width="7.664" height="18.568"/>
		<rect x="480.344" y="675.659" fill="#FFFFFF" width="6.569" height="18.568"/>
		<rect x="493.482" y="675.659" fill="#FFFFFF" width="6.569" height="18.568"/>
		<rect x="505.524" y="675.659" fill="#FFFFFF" width="7.664" height="18.568"/>
		<rect x="519.757" y="675.659" fill="#FFFFFF" width="7.664" height="18.568"/>
		<rect x="493.482" y="699.688" fill="#FFFFFF" width="6.569" height="17.476"/>
		<rect x="505.524" y="742.285" fill="#FFFFFF" width="7.664" height="18.568"/>
		<rect x="519.757" y="742.285" fill="#FFFFFF" width="7.664" height="18.568"/>
		<rect x="493.482" y="781.605" fill="#FFFFFF" width="6.569" height="17.476"/>
		<rect x="480.344" y="742.285" fill="#FFFFFF" width="6.569" height="18.568"/>
		<rect x="505.524" y="719.348" fill="#FFFFFF" width="7.664" height="17.476"/>
		<rect x="505.524" y="781.605" fill="#FFFFFF" width="7.664" height="17.476"/>
		<rect x="519.757" y="781.605" fill="#FFFFFF" width="7.664" height="17.476"/>
		<rect x="480.344" y="807.819" fill="#FFFFFF" width="6.569" height="16.383"/>
		<rect x="493.482" y="807.819" fill="#FFFFFF" width="6.569" height="16.383"/>
		<rect x="505.524" y="807.819" fill="#FFFFFF" width="7.664" height="16.383"/>
		<rect x="519.757" y="807.819" fill="#FFFFFF" width="7.664" height="16.383"/>
	</g>
	<g>
		<rect x="1743.439" y="295.562" fill="#F2A670" width="122.616" height="39.32"/>
		<polygon fill="#F2A670" points="1737.436,791.435 1727.854,335.553 1804.191,307.793 1886.605,335.555 1874.243,791.435 		"/>
		<rect x="1737.965" y="791.435" fill="#F2A670" width="137.944" height="60.073"/>
		<g>
			<rect x="1792.704" y="234.397" fill="#F2A670" width="24.085" height="121.238"/>
			
				<line fill="none" stroke="#F2A670" stroke-width="1.7498" stroke-miterlimit="10" x1="1801.463" y1="249.689" x2="1801.463" y2="160.126"/>
		</g>
	</g>
	<g>
		<rect x="599.676" y="495.441" fill="#C9A172" width="58.024" height="51.335"/>
		<rect x="606.245" y="503.087" fill="#FFFFFF" width="43.792" height="36.044"/>
		<polygon fill="#C9A172" points="585.444,850.416 676.974,850.416 668.926,546.776 585.444,546.776 		"/>
		<g>
			<rect x="601.866" y="621.047" fill="#FFFFFF" width="55.834" height="215.17"/>
			<rect x="601.866" y="560.975" fill="#FFFFFF" width="55.834" height="48.058"/>
			
				<line fill="none" stroke="#C9A172" stroke-width="0.8749" stroke-miterlimit="10" x1="644.563" y1="546.776" x2="644.563" y2="839.494"/>
			
				<line fill="none" stroke="#C9A172" stroke-width="0.8749" stroke-miterlimit="10" x1="670.838" y1="574.081" x2="595.297" y2="574.081"/>
			
				<line fill="none" stroke="#C9A172" stroke-width="0.8749" stroke-miterlimit="10" x1="670.838" y1="634.154" x2="595.297" y2="634.154"/>
			
				<line fill="none" stroke="#C9A172" stroke-width="0.8749" stroke-miterlimit="10" x1="667.553" y1="648.353" x2="589.823" y2="648.353"/>
			
				<line fill="none" stroke="#C9A172" stroke-width="0.8749" stroke-miterlimit="10" x1="616.098" y1="560.975" x2="616.098" y2="839.494"/>
			
				<line fill="none" stroke="#C9A172" stroke-width="0.8749" stroke-miterlimit="10" x1="667.553" y1="588.28" x2="589.823" y2="588.28"/>
			
				<line fill="none" stroke="#C9A172" stroke-width="0.8749" stroke-miterlimit="10" x1="670.838" y1="601.387" x2="595.297" y2="601.387"/>
			
				<line fill="none" stroke="#C9A172" stroke-width="0.8749" stroke-miterlimit="10" x1="630.33" y1="503.086" x2="630.33" y2="839.494"/>
			
				<line fill="none" stroke="#C9A172" stroke-width="0.8749" stroke-miterlimit="10" x1="667.553" y1="659.276" x2="589.823" y2="659.276"/>
			
				<line fill="none" stroke="#C9A172" stroke-width="0.8749" stroke-miterlimit="10" x1="667.553" y1="699.688" x2="589.823" y2="699.688"/>
			
				<line fill="none" stroke="#C9A172" stroke-width="0.8749" stroke-miterlimit="10" x1="665.364" y1="712.795" x2="588.728" y2="712.795"/>
			
				<line fill="none" stroke="#C9A172" stroke-width="0.8749" stroke-miterlimit="10" x1="665.364" y1="672.382" x2="588.728" y2="672.382"/>
			
				<line fill="none" stroke="#C9A172" stroke-width="0.8749" stroke-miterlimit="10" x1="667.553" y1="685.489" x2="589.823" y2="685.489"/>
			
				<line fill="none" stroke="#C9A172" stroke-width="0.8749" stroke-miterlimit="10" x1="667.553" y1="724.809" x2="589.823" y2="724.809"/>
			
				<line fill="none" stroke="#C9A172" stroke-width="0.8749" stroke-miterlimit="10" x1="665.364" y1="740.101" x2="588.728" y2="740.101"/>
			
				<line fill="none" stroke="#C9A172" stroke-width="0.8749" stroke-miterlimit="10" x1="665.364" y1="752.115" x2="588.728" y2="752.115"/>
			
				<line fill="none" stroke="#C9A172" stroke-width="0.8749" stroke-miterlimit="10" x1="665.364" y1="791.435" x2="588.728" y2="791.435"/>
			
				<line fill="none" stroke="#C9A172" stroke-width="0.8749" stroke-miterlimit="10" x1="670.838" y1="803.45" x2="595.297" y2="803.45"/>
			
				<line fill="none" stroke="#C9A172" stroke-width="0.8749" stroke-miterlimit="10" x1="670.838" y1="765.222" x2="595.297" y2="765.222"/>
			
				<line fill="none" stroke="#C9A172" stroke-width="0.8749" stroke-miterlimit="10" x1="665.364" y1="778.329" x2="588.728" y2="778.329"/>
			
				<line fill="none" stroke="#C9A172" stroke-width="0.8749" stroke-miterlimit="10" x1="667.553" y1="815.465" x2="589.823" y2="815.465"/>
			
				<line fill="none" stroke="#C9A172" stroke-width="0.8749" stroke-miterlimit="10" x1="665.364" y1="829.664" x2="588.728" y2="829.664"/>
		</g>
		
			<line fill="none" stroke="#C9A172" stroke-width="0.8749" stroke-miterlimit="10" x1="653.321" y1="521.654" x2="604.055" y2="521.654"/>
		<polygon fill="#C9A172" points="668.648,850.416 763.895,850.416 763.895,587.052 668.648,546.905 		"/>
		<polygon fill="#FFFFFF" points="665.364,836.223 754.042,835.672 754.042,597.713 665.364,561.358 		"/>
		<g>
			
				<line fill="none" stroke="#C9A172" stroke-width="0.8749" stroke-miterlimit="10" x1="716.819" y1="574.081" x2="716.819" y2="836.217"/>
			
				<line fill="none" stroke="#C9A172" stroke-width="0.8749" stroke-miterlimit="10" x1="725.577" y1="576.266" x2="662.079" y2="576.266"/>
			
				<line fill="none" stroke="#C9A172" stroke-width="0.8749" stroke-miterlimit="10" x1="757.326" y1="590.465" x2="662.079" y2="590.465"/>
			
				<line fill="none" stroke="#C9A172" stroke-width="0.8749" stroke-miterlimit="10" x1="688.354" y1="559.882" x2="688.354" y2="836.217"/>
			
				<line fill="none" stroke="#C9A172" stroke-width="0.8749" stroke-miterlimit="10" x1="702.587" y1="566.436" x2="702.587" y2="836.217"/>
			
				<line fill="none" stroke="#C9A172" stroke-width="0.8749" stroke-miterlimit="10" x1="757.326" y1="601.387" x2="662.079" y2="601.387"/>
			
				<line fill="none" stroke="#C9A172" stroke-width="0.8749" stroke-miterlimit="10" x1="757.326" y1="641.8" x2="662.079" y2="641.8"/>
			
				<line fill="none" stroke="#C9A172" stroke-width="0.8749" stroke-miterlimit="10" x1="757.326" y1="654.907" x2="660.985" y2="654.907"/>
			
				<line fill="none" stroke="#C9A172" stroke-width="0.8749" stroke-miterlimit="10" x1="757.456" y1="612.746" x2="660.878" y2="614.352"/>
			
				<line fill="none" stroke="#C9A172" stroke-width="0.8749" stroke-miterlimit="10" x1="757.326" y1="627.601" x2="662.079" y2="627.601"/>
			
				<line fill="none" stroke="#C9A172" stroke-width="0.8749" stroke-miterlimit="10" x1="757.326" y1="666.921" x2="662.079" y2="666.921"/>
			
				<line fill="none" stroke="#C9A172" stroke-width="0.8749" stroke-miterlimit="10" x1="757.326" y1="682.212" x2="660.985" y2="682.212"/>
			
				<line fill="none" stroke="#C9A172" stroke-width="0.8749" stroke-miterlimit="10" x1="757.326" y1="694.227" x2="660.985" y2="694.227"/>
			
				<line fill="none" stroke="#C9A172" stroke-width="0.8749" stroke-miterlimit="10" x1="757.326" y1="733.547" x2="660.985" y2="733.547"/>
			
				<line fill="none" stroke="#C9A172" stroke-width="0.8749" stroke-miterlimit="10" x1="757.456" y1="746.034" x2="662.487" y2="747.64"/>
			
				<line fill="none" stroke="#C9A172" stroke-width="0.8749" stroke-miterlimit="10" x1="757.326" y1="707.334" x2="662.079" y2="707.334"/>
			
				<line fill="none" stroke="#C9A172" stroke-width="0.8749" stroke-miterlimit="10" x1="757.326" y1="720.44" x2="660.985" y2="720.44"/>
			
				<line fill="none" stroke="#C9A172" stroke-width="0.8749" stroke-miterlimit="10" x1="757.326" y1="757.576" x2="662.079" y2="757.576"/>
			
				<line fill="none" stroke="#C9A172" stroke-width="0.8749" stroke-miterlimit="10" x1="757.326" y1="771.775" x2="660.985" y2="771.775"/>
			
				<line fill="none" stroke="#C9A172" stroke-width="0.8749" stroke-miterlimit="10" x1="732.146" y1="583.912" x2="732.146" y2="840.586"/>
			
				<line fill="none" stroke="#C9A172" stroke-width="0.8749" stroke-miterlimit="10" x1="746.378" y1="583.912" x2="746.378" y2="839.494"/>
			
				<line fill="none" stroke="#C9A172" stroke-width="0.8749" stroke-miterlimit="10" x1="675.217" y1="557.698" x2="675.217" y2="836.217"/>
			
				<line fill="none" stroke="#C9A172" stroke-width="0.8749" stroke-miterlimit="10" x1="759.516" y1="810.003" x2="662.079" y2="810.003"/>
			
				<line fill="none" stroke="#C9A172" stroke-width="0.8749" stroke-miterlimit="10" x1="759.066" y1="823.116" x2="664.097" y2="824.722"/>
			
				<line fill="none" stroke="#C9A172" stroke-width="0.8749" stroke-miterlimit="10" x1="759.516" y1="784.882" x2="664.269" y2="784.882"/>
			
				<line fill="none" stroke="#C9A172" stroke-width="0.8749" stroke-miterlimit="10" x1="759.516" y1="796.897" x2="662.079" y2="796.897"/>
		</g>
	</g>
	<g>
		<rect x="1706.509" y="609.033" fill="#C9A172" width="39.412" height="34.951"/>
		<rect x="1711.983" y="614.494" fill="#FFFFFF" width="29.559" height="24.029"/>
		<polygon fill="#C9A172" points="1755.774,850.416 1693.371,850.416 1698.845,643.984 1755.774,643.984 		"/>
		<g>
			<rect x="1706.509" y="694.227" fill="#FFFFFF" width="38.318" height="146.359"/>
			<rect x="1706.509" y="653.814" fill="#FFFFFF" width="38.318" height="32.767"/>
			
				<line fill="none" stroke="#C9A172" stroke-width="0.8749" stroke-miterlimit="10" x1="1715.267" y1="643.984" x2="1715.267" y2="842.77"/>
			
				<line fill="none" stroke="#C9A172" stroke-width="0.8749" stroke-miterlimit="10" x1="1697.75" y1="662.552" x2="1749.206" y2="662.552"/>
			
				<line fill="none" stroke="#C9A172" stroke-width="0.8749" stroke-miterlimit="10" x1="1697.75" y1="702.965" x2="1749.206" y2="702.965"/>
			
				<line fill="none" stroke="#C9A172" stroke-width="0.8749" stroke-miterlimit="10" x1="1699.94" y1="712.795" x2="1752.49" y2="712.795"/>
			
				<line fill="none" stroke="#C9A172" stroke-width="0.8749" stroke-miterlimit="10" x1="1734.973" y1="653.814" x2="1734.973" y2="842.77"/>
			
				<line fill="none" stroke="#C9A172" stroke-width="0.8749" stroke-miterlimit="10" x1="1699.94" y1="672.382" x2="1752.49" y2="672.382"/>
			
				<line fill="none" stroke="#C9A172" stroke-width="0.8749" stroke-miterlimit="10" x1="1697.75" y1="681.12" x2="1749.206" y2="681.12"/>
			
				<line fill="none" stroke="#C9A172" stroke-width="0.8749" stroke-miterlimit="10" x1="1725.12" y1="614.494" x2="1725.12" y2="842.77"/>
			
				<line fill="none" stroke="#C9A172" stroke-width="0.8749" stroke-miterlimit="10" x1="1699.94" y1="720.44" x2="1752.49" y2="720.44"/>
			
				<line fill="none" stroke="#C9A172" stroke-width="0.8749" stroke-miterlimit="10" x1="1699.94" y1="747.746" x2="1752.49" y2="747.746"/>
			
				<line fill="none" stroke="#C9A172" stroke-width="0.8749" stroke-miterlimit="10" x1="1701.035" y1="756.484" x2="1753.585" y2="756.484"/>
			
				<line fill="none" stroke="#C9A172" stroke-width="0.8749" stroke-miterlimit="10" x1="1701.035" y1="729.178" x2="1753.585" y2="729.178"/>
			
				<line fill="none" stroke="#C9A172" stroke-width="0.8749" stroke-miterlimit="10" x1="1699.94" y1="737.916" x2="1752.49" y2="737.916"/>
			
				<line fill="none" stroke="#C9A172" stroke-width="0.8749" stroke-miterlimit="10" x1="1699.94" y1="765.222" x2="1752.49" y2="765.222"/>
			
				<line fill="none" stroke="#C9A172" stroke-width="0.8749" stroke-miterlimit="10" x1="1701.035" y1="775.052" x2="1753.585" y2="775.052"/>
			
				<line fill="none" stroke="#C9A172" stroke-width="0.8749" stroke-miterlimit="10" x1="1701.035" y1="783.79" x2="1753.585" y2="783.79"/>
			
				<line fill="none" stroke="#C9A172" stroke-width="0.8749" stroke-miterlimit="10" x1="1701.035" y1="810.003" x2="1753.585" y2="810.003"/>
			
				<line fill="none" stroke="#C9A172" stroke-width="0.8749" stroke-miterlimit="10" x1="1697.75" y1="818.741" x2="1749.206" y2="818.741"/>
			
				<line fill="none" stroke="#C9A172" stroke-width="0.8749" stroke-miterlimit="10" x1="1697.75" y1="792.528" x2="1749.206" y2="792.528"/>
			
				<line fill="none" stroke="#C9A172" stroke-width="0.8749" stroke-miterlimit="10" x1="1701.035" y1="801.266" x2="1753.585" y2="801.266"/>
			
				<line fill="none" stroke="#C9A172" stroke-width="0.8749" stroke-miterlimit="10" x1="1699.94" y1="826.387" x2="1752.49" y2="826.387"/>
			
				<line fill="none" stroke="#C9A172" stroke-width="0.8749" stroke-miterlimit="10" x1="1701.035" y1="836.217" x2="1753.585" y2="836.217"/>
		</g>
		
			<line fill="none" stroke="#C9A172" stroke-width="0.8749" stroke-miterlimit="10" x1="1709.793" y1="626.509" x2="1742.637" y2="626.509"/>
		<polygon fill="#C9A172" points="1698.845,850.416 1634.253,850.416 1634.253,671.29 1698.845,643.984 		"/>
		<polygon fill="#FFFFFF" points="1701.035,840.762 1640.821,840.388 1640.821,678.541 1701.035,653.814 		"/>
		<g>
			
				<line fill="none" stroke="#C9A172" stroke-width="0.8749" stroke-miterlimit="10" x1="1666.002" y1="662.552" x2="1666.002" y2="840.586"/>
			
				<line fill="none" stroke="#C9A172" stroke-width="0.8749" stroke-miterlimit="10" x1="1660.528" y1="663.644" x2="1703.224" y2="663.644"/>
			
				<line fill="none" stroke="#C9A172" stroke-width="0.8749" stroke-miterlimit="10" x1="1638.632" y1="673.475" x2="1703.224" y2="673.475"/>
			
				<line fill="none" stroke="#C9A172" stroke-width="0.8749" stroke-miterlimit="10" x1="1685.708" y1="652.722" x2="1685.708" y2="840.586"/>
			
				<line fill="none" stroke="#C9A172" stroke-width="0.8749" stroke-miterlimit="10" x1="1675.855" y1="657.091" x2="1675.855" y2="840.586"/>
			
				<line fill="none" stroke="#C9A172" stroke-width="0.8749" stroke-miterlimit="10" x1="1638.632" y1="681.12" x2="1703.224" y2="681.12"/>
			
				<line fill="none" stroke="#C9A172" stroke-width="0.8749" stroke-miterlimit="10" x1="1638.632" y1="708.426" x2="1703.224" y2="708.426"/>
			
				<line fill="none" stroke="#C9A172" stroke-width="0.8749" stroke-miterlimit="10" x1="1638.632" y1="717.164" x2="1704.319" y2="717.164"/>
			
				<line fill="none" stroke="#C9A172" stroke-width="0.8749" stroke-miterlimit="10" x1="1638.632" y1="688.766" x2="1704.319" y2="689.858"/>
			
				<line fill="none" stroke="#C9A172" stroke-width="0.8749" stroke-miterlimit="10" x1="1638.632" y1="698.596" x2="1703.224" y2="698.596"/>
			
				<line fill="none" stroke="#C9A172" stroke-width="0.8749" stroke-miterlimit="10" x1="1638.632" y1="725.902" x2="1703.224" y2="725.902"/>
			
				<line fill="none" stroke="#C9A172" stroke-width="0.8749" stroke-miterlimit="10" x1="1638.632" y1="735.732" x2="1704.319" y2="735.732"/>
			
				<line fill="none" stroke="#C9A172" stroke-width="0.8749" stroke-miterlimit="10" x1="1638.632" y1="744.47" x2="1704.319" y2="744.47"/>
			
				<line fill="none" stroke="#C9A172" stroke-width="0.8749" stroke-miterlimit="10" x1="1638.632" y1="770.683" x2="1704.319" y2="770.683"/>
			
				<line fill="none" stroke="#C9A172" stroke-width="0.8749" stroke-miterlimit="10" x1="1638.632" y1="779.421" x2="1703.224" y2="780.513"/>
			
				<line fill="none" stroke="#C9A172" stroke-width="0.8749" stroke-miterlimit="10" x1="1638.632" y1="753.207" x2="1703.224" y2="753.207"/>
			
				<line fill="none" stroke="#C9A172" stroke-width="0.8749" stroke-miterlimit="10" x1="1638.632" y1="761.945" x2="1704.319" y2="761.945"/>
			
				<line fill="none" stroke="#C9A172" stroke-width="0.8749" stroke-miterlimit="10" x1="1638.632" y1="787.067" x2="1703.224" y2="787.067"/>
			
				<line fill="none" stroke="#C9A172" stroke-width="0.8749" stroke-miterlimit="10" x1="1638.632" y1="796.897" x2="1704.319" y2="796.897"/>
			
				<line fill="none" stroke="#C9A172" stroke-width="0.8749" stroke-miterlimit="10" x1="1656.149" y1="669.106" x2="1656.149" y2="843.863"/>
			
				<line fill="none" stroke="#C9A172" stroke-width="0.8749" stroke-miterlimit="10" x1="1646.295" y1="669.106" x2="1646.295" y2="842.77"/>
			
				<line fill="none" stroke="#C9A172" stroke-width="0.8749" stroke-miterlimit="10" x1="1694.466" y1="651.63" x2="1694.466" y2="840.586"/>
			
				<line fill="none" stroke="#C9A172" stroke-width="0.8749" stroke-miterlimit="10" x1="1637.537" y1="823.11" x2="1703.224" y2="823.11"/>
			
				<line fill="none" stroke="#C9A172" stroke-width="0.8749" stroke-miterlimit="10" x1="1637.537" y1="831.848" x2="1702.13" y2="832.94"/>
			
				<line fill="none" stroke="#C9A172" stroke-width="0.8749" stroke-miterlimit="10" x1="1637.537" y1="805.635" x2="1702.13" y2="805.635"/>
			
				<line fill="none" stroke="#C9A172" stroke-width="0.8749" stroke-miterlimit="10" x1="1637.537" y1="814.372" x2="1703.224" y2="814.372"/>
		</g>
	</g>
	<g>
		<polygon fill="#C9A172" points="1333.186,851.508 1174.441,851.508 1174.441,501.994 1333.186,451.752 		"/>
		
			<line fill="none" stroke="#FFFFFF" stroke-width="2.6247" stroke-miterlimit="10" x1="1212.759" y1="489.98" x2="1212.759" y2="851.508"/>
		
			<line fill="none" stroke="#FFFFFF" stroke-width="2.6247" stroke-miterlimit="10" x1="1291.583" y1="468.135" x2="1291.583" y2="851.508"/>
		<rect x="1240.128" y="795.805" fill="#FFFFFF" width="24.085" height="54.612"/>
	</g>
	<g>
		<rect x="990.516" y="657.091" fill="#C9A172" width="126.996" height="193.325"/>
		<rect x="1024.455" y="730.271" fill="#FFFFFF" width="19.706" height="6.553"/>
		<rect x="1024.455" y="743.377" fill="#FFFFFF" width="19.706" height="6.553"/>
		<rect x="1024.455" y="755.392" fill="#FFFFFF" width="19.706" height="7.646"/>
		<rect x="1001.464" y="730.271" fill="#FFFFFF" width="18.611" height="6.553"/>
		<rect x="1001.464" y="743.377" fill="#FFFFFF" width="18.611" height="6.553"/>
		<rect x="1001.464" y="755.392" fill="#FFFFFF" width="18.611" height="7.646"/>
		<rect x="1001.464" y="769.591" fill="#FFFFFF" width="18.611" height="7.646"/>
		<rect x="1089.047" y="686.581" fill="#FFFFFF" width="17.517" height="6.553"/>
		<rect x="1064.962" y="698.596" fill="#FFFFFF" width="18.611" height="7.646"/>
		<rect x="1064.962" y="712.795" fill="#FFFFFF" width="18.611" height="7.646"/>
		<rect x="1024.455" y="686.581" fill="#FFFFFF" width="19.706" height="6.553"/>
		<rect x="1064.962" y="673.474" fill="#FFFFFF" width="18.611" height="6.553"/>
		<rect x="1089.047" y="698.596" fill="#FFFFFF" width="17.517" height="7.646"/>
		<rect x="1024.455" y="698.596" fill="#FFFFFF" width="19.706" height="7.646"/>
		<rect x="1024.455" y="712.795" fill="#FFFFFF" width="19.706" height="7.646"/>
		<rect x="1001.464" y="673.474" fill="#FFFFFF" width="18.611" height="6.553"/>
		<rect x="1001.464" y="686.581" fill="#FFFFFF" width="18.611" height="6.553"/>
		<rect x="1001.464" y="698.596" fill="#FFFFFF" width="18.611" height="7.646"/>
		<rect x="1001.464" y="712.795" fill="#FFFFFF" width="18.611" height="7.646"/>
		<rect x="1025.55" y="826.387" fill="#FFFFFF" width="18.611" height="6.553"/>
		<rect x="1064.962" y="755.392" fill="#FFFFFF" width="18.611" height="6.553"/>
		<rect x="1064.962" y="808.911" fill="#FFFFFF" width="18.611" height="7.646"/>
		<rect x="1064.962" y="826.387" fill="#FFFFFF" width="18.611" height="7.646"/>
		<rect x="1025.55" y="769.591" fill="#FFFFFF" width="18.611" height="6.553"/>
		<rect x="1025.55" y="782.698" fill="#FFFFFF" width="18.611" height="6.553"/>
		<rect x="1001.464" y="794.712" fill="#FFFFFF" width="18.611" height="7.646"/>
		<rect x="1025.55" y="808.911" fill="#FFFFFF" width="18.611" height="7.646"/>
		<rect x="1001.464" y="827.479" fill="#FFFFFF" width="18.611" height="6.553"/>
		<rect x="1087.953" y="795.805" fill="#FFFFFF" width="18.611" height="6.553"/>
		<rect x="1087.953" y="782.698" fill="#FFFFFF" width="18.611" height="6.553"/>
		<rect x="1064.962" y="770.683" fill="#FFFFFF" width="18.611" height="6.553"/>
	</g>
	<g>
		<rect x="1109.848" y="646.169" fill="#C9A172" width="64.593" height="206.432"/>
		<g>
			<rect x="1122.986" y="696.411" fill="#FFFFFF" width="38.318" height="146.359"/>
			<rect x="1122.986" y="655.999" fill="#FFFFFF" width="38.318" height="32.767"/>
			
				<line fill="none" stroke="#C9A172" stroke-width="0.8749" stroke-miterlimit="10" x1="1131.744" y1="646.169" x2="1131.744" y2="844.955"/>
			
				<line fill="none" stroke="#C9A172" stroke-width="0.8749" stroke-miterlimit="10" x1="1114.228" y1="664.737" x2="1165.683" y2="664.737"/>
			
				<line fill="none" stroke="#C9A172" stroke-width="0.8749" stroke-miterlimit="10" x1="1114.228" y1="705.149" x2="1165.683" y2="705.149"/>
			
				<line fill="none" stroke="#C9A172" stroke-width="0.8749" stroke-miterlimit="10" x1="1116.417" y1="714.979" x2="1168.967" y2="714.979"/>
			
				<line fill="none" stroke="#C9A172" stroke-width="0.8749" stroke-miterlimit="10" x1="1151.45" y1="655.999" x2="1151.45" y2="844.955"/>
			
				<line fill="none" stroke="#C9A172" stroke-width="0.8749" stroke-miterlimit="10" x1="1116.417" y1="674.567" x2="1168.967" y2="674.567"/>
			
				<line fill="none" stroke="#C9A172" stroke-width="0.8749" stroke-miterlimit="10" x1="1114.228" y1="683.305" x2="1165.683" y2="683.305"/>
			
				<line fill="none" stroke="#C9A172" stroke-width="0.8749" stroke-miterlimit="10" x1="1141.597" y1="655.999" x2="1141.597" y2="844.955"/>
			
				<line fill="none" stroke="#C9A172" stroke-width="0.8749" stroke-miterlimit="10" x1="1116.417" y1="722.625" x2="1168.967" y2="722.625"/>
			
				<line fill="none" stroke="#C9A172" stroke-width="0.8749" stroke-miterlimit="10" x1="1116.417" y1="749.931" x2="1168.967" y2="749.931"/>
			
				<line fill="none" stroke="#C9A172" stroke-width="0.8749" stroke-miterlimit="10" x1="1117.512" y1="758.669" x2="1170.062" y2="758.669"/>
			
				<line fill="none" stroke="#C9A172" stroke-width="0.8749" stroke-miterlimit="10" x1="1117.512" y1="731.363" x2="1170.062" y2="731.363"/>
			
				<line fill="none" stroke="#C9A172" stroke-width="0.8749" stroke-miterlimit="10" x1="1116.417" y1="740.101" x2="1168.967" y2="740.101"/>
			
				<line fill="none" stroke="#C9A172" stroke-width="0.8749" stroke-miterlimit="10" x1="1116.417" y1="767.406" x2="1168.967" y2="767.406"/>
			
				<line fill="none" stroke="#C9A172" stroke-width="0.8749" stroke-miterlimit="10" x1="1117.512" y1="777.237" x2="1170.062" y2="777.237"/>
			
				<line fill="none" stroke="#C9A172" stroke-width="0.8749" stroke-miterlimit="10" x1="1117.512" y1="785.974" x2="1170.062" y2="785.974"/>
			
				<line fill="none" stroke="#C9A172" stroke-width="0.8749" stroke-miterlimit="10" x1="1117.512" y1="812.188" x2="1170.062" y2="812.188"/>
			
				<line fill="none" stroke="#C9A172" stroke-width="0.8749" stroke-miterlimit="10" x1="1114.228" y1="820.926" x2="1165.683" y2="820.926"/>
			
				<line fill="none" stroke="#C9A172" stroke-width="0.8749" stroke-miterlimit="10" x1="1114.228" y1="794.712" x2="1165.683" y2="794.712"/>
			
				<line fill="none" stroke="#C9A172" stroke-width="0.8749" stroke-miterlimit="10" x1="1117.512" y1="803.45" x2="1170.062" y2="803.45"/>
			
				<line fill="none" stroke="#C9A172" stroke-width="0.8749" stroke-miterlimit="10" x1="1116.417" y1="828.571" x2="1168.967" y2="828.571"/>
			
				<line fill="none" stroke="#C9A172" stroke-width="0.8749" stroke-miterlimit="10" x1="1117.512" y1="838.401" x2="1170.062" y2="838.401"/>
		</g>
		
			<line fill="none" stroke="#C9A172" stroke-width="0.8749" stroke-miterlimit="10" x1="1141.597" y1="625.416" x2="1141.597" y2="592.649"/>
		<ellipse fill="#C9A172" cx="1140.748" cy="587.139" rx="4.89" ry="4.878"/>
		<polygon fill="#C9A172" points="1164.582,648.353 1117.907,648.353 1126.883,621.047 1155.606,621.047 		"/>
	</g>
	<g>
		<g>
			<rect x="503.48" y="645.077" fill="#C9A172" width="66.782" height="206.432"/>
			<rect x="512.239" y="653.814" fill="#FFFFFF" width="6.569" height="18.568"/>
			<rect x="525.376" y="653.814" fill="#FFFFFF" width="6.569" height="18.568"/>
			<rect x="537.419" y="653.814" fill="#FFFFFF" width="7.664" height="18.568"/>
			<rect x="512.239" y="676.751" fill="#FFFFFF" width="6.569" height="18.568"/>
			<rect x="525.376" y="676.751" fill="#FFFFFF" width="6.569" height="18.568"/>
			<rect x="537.419" y="676.751" fill="#FFFFFF" width="7.664" height="18.568"/>
			<rect x="551.651" y="676.751" fill="#FFFFFF" width="7.664" height="18.568"/>
			<rect x="525.376" y="700.78" fill="#FFFFFF" width="6.569" height="17.476"/>
			<rect x="537.419" y="743.377" fill="#FFFFFF" width="7.664" height="18.568"/>
			<rect x="551.651" y="743.377" fill="#FFFFFF" width="7.664" height="18.568"/>
			<rect x="525.376" y="782.698" fill="#FFFFFF" width="6.569" height="17.476"/>
			<rect x="512.239" y="743.377" fill="#FFFFFF" width="6.569" height="18.568"/>
			<rect x="537.419" y="720.441" fill="#FFFFFF" width="7.664" height="17.476"/>
			<rect x="537.419" y="782.698" fill="#FFFFFF" width="7.664" height="17.476"/>
			<rect x="551.651" y="782.698" fill="#FFFFFF" width="7.664" height="17.476"/>
			<rect x="512.239" y="808.911" fill="#FFFFFF" width="6.569" height="16.383"/>
			<rect x="525.376" y="808.911" fill="#FFFFFF" width="6.569" height="16.383"/>
			<rect x="537.419" y="808.911" fill="#FFFFFF" width="7.664" height="16.383"/>
			<rect x="551.651" y="808.911" fill="#FFFFFF" width="7.664" height="16.383"/>
		</g>
		<g>
			<rect x="441.077" y="643.984" fill="#C9A172" width="66.782" height="206.432"/>
			<rect x="492.532" y="652.722" fill="#FFFFFF" width="6.569" height="18.568"/>
			<rect x="479.395" y="652.722" fill="#FFFFFF" width="6.569" height="18.568"/>
			<rect x="466.257" y="652.722" fill="#FFFFFF" width="7.664" height="18.568"/>
			<rect x="492.532" y="675.659" fill="#FFFFFF" width="6.569" height="18.568"/>
			<rect x="479.395" y="675.659" fill="#FFFFFF" width="6.569" height="18.568"/>
			<rect x="466.257" y="675.659" fill="#FFFFFF" width="7.664" height="18.568"/>
			<rect x="452.025" y="675.659" fill="#FFFFFF" width="7.664" height="18.568"/>
			<rect x="479.395" y="699.688" fill="#FFFFFF" width="6.569" height="17.476"/>
			<rect x="466.257" y="742.285" fill="#FFFFFF" width="7.664" height="18.568"/>
			<rect x="452.025" y="742.285" fill="#FFFFFF" width="7.664" height="18.568"/>
			<rect x="479.395" y="781.605" fill="#FFFFFF" width="6.569" height="17.476"/>
			<rect x="492.532" y="742.285" fill="#FFFFFF" width="6.569" height="18.568"/>
			<rect x="466.257" y="719.348" fill="#FFFFFF" width="7.664" height="17.476"/>
			<rect x="466.257" y="781.605" fill="#FFFFFF" width="7.664" height="17.476"/>
			<rect x="452.025" y="781.605" fill="#FFFFFF" width="7.664" height="17.476"/>
			<rect x="492.532" y="807.819" fill="#FFFFFF" width="6.569" height="16.383"/>
			<rect x="479.395" y="807.819" fill="#FFFFFF" width="6.569" height="16.383"/>
			<rect x="466.257" y="807.819" fill="#FFFFFF" width="7.664" height="16.383"/>
			<rect x="452.025" y="807.819" fill="#FFFFFF" width="7.664" height="16.383"/>
		</g>
	</g>
	<g>
		<rect x="1439.38" y="646.169" fill="#C9A172" width="96.342" height="205.339"/>
		<rect x="1449.233" y="655.999" fill="#FFFFFF" width="75.54" height="6.553"/>
		<rect x="1449.233" y="668.013" fill="#FFFFFF" width="75.54" height="3.277"/>
		<rect x="1449.233" y="675.659" fill="#FFFFFF" width="75.54" height="5.461"/>
		<rect x="1449.233" y="686.581" fill="#FFFFFF" width="75.54" height="7.646"/>
		<rect x="1449.233" y="699.688" fill="#FFFFFF" width="75.54" height="1.092"/>
		<rect x="1449.233" y="706.242" fill="#FFFFFF" width="75.54" height="6.553"/>
		<rect x="1449.233" y="719.348" fill="#FFFFFF" width="75.54" height="7.646"/>
		<rect x="1449.233" y="731.363" fill="#FFFFFF" width="75.54" height="2.184"/>
		<rect x="1449.233" y="737.916" fill="#FFFFFF" width="75.54" height="5.461"/>
		<rect x="1449.233" y="761.945" fill="#FFFFFF" width="75.54" height="7.646"/>
		<rect x="1449.233" y="775.052" fill="#FFFFFF" width="75.54" height="1.092"/>
		<rect x="1449.233" y="781.606" fill="#FFFFFF" width="75.54" height="4.369"/>
		<rect x="1449.233" y="797.989" fill="#FFFFFF" width="75.54" height="6.553"/>
		<rect x="1449.233" y="810.003" fill="#FFFFFF" width="75.54" height="2.184"/>
		<rect x="1449.233" y="817.649" fill="#FFFFFF" width="75.54" height="5.461"/>
	</g>
	<g>
		<polygon fill="#C9A172" points="1420.769,568.62 1420.769,522.747 1412.277,522.747 1406.891,496.533 1385.349,496.533 
			1363.807,496.533 1358.421,522.747 1349.607,522.747 1349.607,568.62 1330.996,568.62 1330.996,850.416 1349.445,850.416 
			1367.397,850.416 1385.349,850.416 1403.301,850.416 1421.253,850.416 1439.38,850.416 1439.38,568.62 		"/>
		<polygon fill="#FFFFFF" points="1416.39,576.266 1416.39,557.698 1356.176,557.698 1356.176,576.266 1344.133,576.266 
			1344.133,824.202 1429.527,824.202 1429.527,576.266 		"/>
		<g>
			<rect x="1369.314" y="528.208" fill="#FFFFFF" width="32.844" height="24.029"/>
			<g>
				
					<line fill="none" stroke="#C9A172" stroke-width="0.8749" stroke-miterlimit="10" x1="1355.081" y1="565.344" x2="1416.39" y2="565.344"/>
				<g>
					
						<line fill="none" stroke="#C9A172" stroke-width="0.8749" stroke-miterlimit="10" x1="1384.641" y1="443.014" x2="1384.641" y2="826.387"/>
					
						<line fill="none" stroke="#C9A172" stroke-width="0.8749" stroke-miterlimit="10" x1="1369.314" y1="496.533" x2="1369.314" y2="826.387"/>
					
						<line fill="none" stroke="#C9A172" stroke-width="0.8749" stroke-miterlimit="10" x1="1402.157" y1="496.533" x2="1402.157" y2="826.387"/>
					
						<line fill="none" stroke="#C9A172" stroke-width="0.8749" stroke-miterlimit="10" x1="1355.081" y1="543.499" x2="1355.081" y2="826.387"/>
					
						<line fill="none" stroke="#C9A172" stroke-width="0.8749" stroke-miterlimit="10" x1="1416.39" y1="543.499" x2="1416.39" y2="826.387"/>
					
						<line fill="none" stroke="#C9A172" stroke-width="0.8749" stroke-miterlimit="10" x1="1344.133" y1="572.989" x2="1429.527" y2="572.989"/>
					
						<line fill="none" stroke="#C9A172" stroke-width="0.8749" stroke-miterlimit="10" x1="1344.133" y1="585.004" x2="1429.527" y2="585.004"/>
					
						<line fill="none" stroke="#C9A172" stroke-width="0.8749" stroke-miterlimit="10" x1="1344.133" y1="595.926" x2="1429.527" y2="595.926"/>
					
						<line fill="none" stroke="#C9A172" stroke-width="0.8749" stroke-miterlimit="10" x1="1344.133" y1="605.756" x2="1429.527" y2="605.756"/>
					
						<line fill="none" stroke="#C9A172" stroke-width="0.8749" stroke-miterlimit="10" x1="1344.133" y1="617.771" x2="1429.527" y2="617.771"/>
					
						<line fill="none" stroke="#C9A172" stroke-width="0.8749" stroke-miterlimit="10" x1="1344.133" y1="627.601" x2="1429.527" y2="627.601"/>
					
						<line fill="none" stroke="#C9A172" stroke-width="0.8749" stroke-miterlimit="10" x1="1344.133" y1="638.523" x2="1429.527" y2="638.523"/>
					
						<line fill="none" stroke="#C9A172" stroke-width="0.8749" stroke-miterlimit="10" x1="1344.133" y1="648.353" x2="1429.527" y2="648.353"/>
					
						<line fill="none" stroke="#C9A172" stroke-width="0.8749" stroke-miterlimit="10" x1="1344.133" y1="660.368" x2="1429.527" y2="660.368"/>
					
						<line fill="none" stroke="#C9A172" stroke-width="0.8749" stroke-miterlimit="10" x1="1344.133" y1="671.29" x2="1429.527" y2="671.29"/>
					
						<line fill="none" stroke="#C9A172" stroke-width="0.8749" stroke-miterlimit="10" x1="1344.133" y1="683.305" x2="1429.527" y2="683.305"/>
					
						<line fill="none" stroke="#C9A172" stroke-width="0.8749" stroke-miterlimit="10" x1="1344.133" y1="694.227" x2="1429.527" y2="694.227"/>
					
						<line fill="none" stroke="#C9A172" stroke-width="0.8749" stroke-miterlimit="10" x1="1344.133" y1="704.057" x2="1429.527" y2="704.057"/>
					
						<line fill="none" stroke="#C9A172" stroke-width="0.8749" stroke-miterlimit="10" x1="1344.133" y1="714.979" x2="1429.527" y2="714.979"/>
					
						<line fill="none" stroke="#C9A172" stroke-width="0.8749" stroke-miterlimit="10" x1="1344.133" y1="726.994" x2="1429.527" y2="726.994"/>
					
						<line fill="none" stroke="#C9A172" stroke-width="0.8749" stroke-miterlimit="10" x1="1344.133" y1="737.916" x2="1429.527" y2="737.916"/>
					
						<line fill="none" stroke="#C9A172" stroke-width="0.8749" stroke-miterlimit="10" x1="1344.133" y1="748.839" x2="1429.527" y2="748.839"/>
					
						<line fill="none" stroke="#C9A172" stroke-width="0.8749" stroke-miterlimit="10" x1="1344.133" y1="760.853" x2="1429.527" y2="760.853"/>
					
						<line fill="none" stroke="#C9A172" stroke-width="0.8749" stroke-miterlimit="10" x1="1344.133" y1="770.683" x2="1429.527" y2="770.683"/>
					
						<line fill="none" stroke="#C9A172" stroke-width="0.8749" stroke-miterlimit="10" x1="1344.133" y1="781.605" x2="1429.527" y2="781.605"/>
					
						<line fill="none" stroke="#C9A172" stroke-width="0.8749" stroke-miterlimit="10" x1="1344.133" y1="794.712" x2="1429.527" y2="794.712"/>
					
						<line fill="none" stroke="#C9A172" stroke-width="0.8749" stroke-miterlimit="10" x1="1344.133" y1="804.542" x2="1429.527" y2="804.542"/>
					
						<line fill="none" stroke="#C9A172" stroke-width="0.8749" stroke-miterlimit="10" x1="1344.133" y1="815.465" x2="1429.527" y2="815.465"/>
				</g>
			</g>
			
				<line fill="none" stroke="#C9A172" stroke-width="0.8749" stroke-miterlimit="10" x1="1364.934" y1="539.13" x2="1403.252" y2="539.13"/>
		</g>
	</g>
	<g>
		<g>
			<polygon fill="#C9A172" points="1617.831,591.557 1617.831,548.96 1610.465,548.96 1605.513,524.931 1585.703,524.931 
				1565.893,524.931 1560.941,548.96 1553.238,548.96 1553.238,591.557 1535.722,591.557 1535.722,850.416 1552.687,850.416 
				1569.195,850.416 1585.703,850.416 1602.211,850.416 1618.719,850.416 1635.348,850.416 1635.348,591.557 			"/>
			<path fill="#C9A172" d="M1601.026,505.271c-0.196-8.476-7.13-15.291-15.673-15.291s-15.478,6.815-15.674,15.291h-0.018v38.228
				h31.749v-38.228H1601.026z"/>
		</g>
		<ellipse fill="#FFFFFF" cx="1584.987" cy="554.967" rx="13.685" ry="13.653"/>
		
			<ellipse fill="none" stroke="#C9A172" stroke-width="0.8749" stroke-miterlimit="10" cx="1584.987" cy="554.967" rx="8.758" ry="8.738"/>
		<rect x="1551.049" y="612.31" fill="#FFFFFF" width="9.853" height="22.937"/>
		<rect x="1566.376" y="612.31" fill="#FFFFFF" width="9.853" height="22.937"/>
		<rect x="1551.049" y="646.169" fill="#FFFFFF" width="9.853" height="22.937"/>
		<rect x="1566.376" y="646.169" fill="#FFFFFF" width="9.853" height="22.937"/>
		<rect x="1551.049" y="680.028" fill="#FFFFFF" width="9.853" height="22.937"/>
		<rect x="1566.376" y="680.028" fill="#FFFFFF" width="9.853" height="22.937"/>
		<rect x="1551.049" y="713.887" fill="#FFFFFF" width="9.853" height="22.937"/>
		<rect x="1566.376" y="713.887" fill="#FFFFFF" width="9.853" height="22.937"/>
		<rect x="1551.049" y="748.838" fill="#FFFFFF" width="9.853" height="22.937"/>
		<rect x="1566.376" y="748.838" fill="#FFFFFF" width="9.853" height="22.937"/>
		<rect x="1551.049" y="782.698" fill="#FFFFFF" width="9.853" height="22.937"/>
		<rect x="1566.376" y="782.698" fill="#FFFFFF" width="9.853" height="22.937"/>
		<rect x="1551.049" y="816.557" fill="#FFFFFF" width="9.853" height="22.937"/>
		<rect x="1566.376" y="816.557" fill="#FFFFFF" width="9.853" height="22.937"/>
		<rect x="1595.935" y="612.31" fill="#FFFFFF" width="9.853" height="22.937"/>
		<rect x="1611.262" y="612.31" fill="#FFFFFF" width="9.853" height="22.937"/>
		<rect x="1595.935" y="646.169" fill="#FFFFFF" width="9.853" height="22.937"/>
		<rect x="1611.262" y="646.169" fill="#FFFFFF" width="9.853" height="22.937"/>
		<rect x="1595.935" y="680.028" fill="#FFFFFF" width="9.853" height="22.937"/>
		<rect x="1611.262" y="680.028" fill="#FFFFFF" width="9.853" height="22.937"/>
		<rect x="1595.935" y="713.887" fill="#FFFFFF" width="9.853" height="22.937"/>
		<rect x="1611.262" y="713.887" fill="#FFFFFF" width="9.853" height="22.937"/>
		<rect x="1595.935" y="748.838" fill="#FFFFFF" width="9.853" height="22.937"/>
		<rect x="1611.262" y="748.838" fill="#FFFFFF" width="9.853" height="22.937"/>
		<rect x="1595.935" y="782.698" fill="#FFFFFF" width="9.853" height="22.937"/>
		<rect x="1611.262" y="782.698" fill="#FFFFFF" width="9.853" height="22.937"/>
		<rect x="1595.935" y="816.557" fill="#FFFFFF" width="9.853" height="22.937"/>
		<rect x="1611.262" y="816.557" fill="#FFFFFF" width="9.853" height="22.937"/>
	</g>
	<g>
		<rect x="858.047" y="643.984" fill="#C9A172" width="64.593" height="206.432"/>
		<g>
			<rect x="871.184" y="694.227" fill="#FFFFFF" width="38.318" height="146.359"/>
			<rect x="871.184" y="653.814" fill="#FFFFFF" width="38.318" height="32.767"/>
			
				<line fill="none" stroke="#C9A172" stroke-width="0.8749" stroke-miterlimit="10" x1="879.943" y1="643.984" x2="879.943" y2="842.77"/>
			
				<line fill="none" stroke="#C9A172" stroke-width="0.8749" stroke-miterlimit="10" x1="862.426" y1="662.552" x2="913.881" y2="662.552"/>
			
				<line fill="none" stroke="#C9A172" stroke-width="0.8749" stroke-miterlimit="10" x1="862.426" y1="702.965" x2="913.881" y2="702.965"/>
			
				<line fill="none" stroke="#C9A172" stroke-width="0.8749" stroke-miterlimit="10" x1="864.615" y1="712.795" x2="917.165" y2="712.795"/>
			
				<line fill="none" stroke="#C9A172" stroke-width="0.8749" stroke-miterlimit="10" x1="899.649" y1="653.814" x2="899.649" y2="842.77"/>
			
				<line fill="none" stroke="#C9A172" stroke-width="0.8749" stroke-miterlimit="10" x1="864.615" y1="672.382" x2="917.165" y2="672.382"/>
			
				<line fill="none" stroke="#C9A172" stroke-width="0.8749" stroke-miterlimit="10" x1="862.426" y1="681.12" x2="913.881" y2="681.12"/>
			
				<line fill="none" stroke="#C9A172" stroke-width="0.8749" stroke-miterlimit="10" x1="889.796" y1="653.814" x2="889.796" y2="842.77"/>
			
				<line fill="none" stroke="#C9A172" stroke-width="0.8749" stroke-miterlimit="10" x1="864.615" y1="720.44" x2="917.165" y2="720.44"/>
			
				<line fill="none" stroke="#C9A172" stroke-width="0.8749" stroke-miterlimit="10" x1="864.615" y1="747.746" x2="917.165" y2="747.746"/>
			
				<line fill="none" stroke="#C9A172" stroke-width="0.8749" stroke-miterlimit="10" x1="865.71" y1="756.484" x2="918.26" y2="756.484"/>
			
				<line fill="none" stroke="#C9A172" stroke-width="0.8749" stroke-miterlimit="10" x1="865.71" y1="729.178" x2="918.26" y2="729.178"/>
			
				<line fill="none" stroke="#C9A172" stroke-width="0.8749" stroke-miterlimit="10" x1="864.615" y1="737.916" x2="917.165" y2="737.916"/>
			
				<line fill="none" stroke="#C9A172" stroke-width="0.8749" stroke-miterlimit="10" x1="864.615" y1="765.222" x2="917.165" y2="765.222"/>
			
				<line fill="none" stroke="#C9A172" stroke-width="0.8749" stroke-miterlimit="10" x1="865.71" y1="775.052" x2="918.26" y2="775.052"/>
			
				<line fill="none" stroke="#C9A172" stroke-width="0.8749" stroke-miterlimit="10" x1="865.71" y1="783.79" x2="918.26" y2="783.79"/>
			
				<line fill="none" stroke="#C9A172" stroke-width="0.8749" stroke-miterlimit="10" x1="865.71" y1="810.003" x2="918.26" y2="810.003"/>
			
				<line fill="none" stroke="#C9A172" stroke-width="0.8749" stroke-miterlimit="10" x1="862.426" y1="818.741" x2="913.881" y2="818.741"/>
			
				<line fill="none" stroke="#C9A172" stroke-width="0.8749" stroke-miterlimit="10" x1="862.426" y1="792.528" x2="913.881" y2="792.528"/>
			
				<line fill="none" stroke="#C9A172" stroke-width="0.8749" stroke-miterlimit="10" x1="865.71" y1="801.266" x2="918.26" y2="801.266"/>
			
				<line fill="none" stroke="#C9A172" stroke-width="0.8749" stroke-miterlimit="10" x1="864.615" y1="826.387" x2="917.165" y2="826.387"/>
			
				<line fill="none" stroke="#C9A172" stroke-width="0.8749" stroke-miterlimit="10" x1="865.71" y1="836.217" x2="918.26" y2="836.217"/>
		</g>
		
			<line fill="none" stroke="#C9A172" stroke-width="0.8749" stroke-miterlimit="10" x1="889.796" y1="623.232" x2="889.796" y2="590.465"/>
		<ellipse fill="#C9A172" cx="888.947" cy="584.954" rx="4.89" ry="4.878"/>
		<polygon fill="#C9A172" points="912.781,646.169 866.105,646.169 875.081,618.863 903.804,618.863 		"/>
	</g>
	<g>
		<path fill="#D1E5D3" d="M91.528,850.53c-3.416-6.098-2.425-12.765-2.465-19.287c-0.052-8.434-0.059-16.87,0.006-25.304
			c0.055-7.056,2.27-9.138,9.168-9.293c9.359-0.21,9.838,2.396,9.836-9.924c-0.01-45.769-0.005-91.537-0.005-137.306
			c0-8.44,1.382-10.022,9.746-10.168c3.937-0.069,5.578-1.775,5.431-5.551c-0.054-1.381-0.029-2.765-0.029-4.148
			c0.005-102.323,0.012-204.645,0.019-306.968c0-0.691,0.027-1.383,0.011-2.074c-0.098-3.999,2.195-6.124,5.776-7.02
			c6.004-1.502,6.027-1.441,6.024-7.447c-0.009-16.04-0.026-32.079-0.036-48.119c-0.004-6.874,2.184-9.085,9.173-9.307
			c0.969-0.031,1.942-0.214,2.903-0.157c3.378,0.202,4.639-1.279,4.57-4.682c-0.165-8.155-0.119-16.316-0.004-24.473
			c0.111-7.846,2.258-9.742,9.99-9.788c5.106-0.031,10.247,0.636,15.315-0.492c9.994,1.226,20.033,0.25,30.051,0.51
			c3.277,0.085,6.604,0.398,9.813-0.687c4.751,1.528,9.627,0.609,14.441,0.655c7.494,0.072,9.948,2.366,9.967,9.937
			c0.02,8.023,0.205,16.054-0.108,24.065c-0.16,4.107,1.352,5.558,5.226,5.111c0.545-0.063,1.107,0.02,1.662,0.03
			c7.828,0.138,9.678,2.02,9.687,9.973c0.016,15.354,0.006,30.708,0.008,46.062c0,0.83-0.001,1.66,0,2.49
			c0.01,6.201,0.01,6.201,6.03,6.315c7.21,0.136,9.263,2.334,9.263,10.042c-0.003,103.191,0.003,206.381-0.084,309.572
			c-0.003,4.112,0.215,6.841,5.564,6.521c3.863-0.231,5.951,2.66,6.264,6.424c0.24,2.888,0.177,5.805,0.177,8.709
			c0.005,45.509-0.001,91.018-0.009,136.527c-0.001,5.274,0.079,5.624,5.268,5.325c12.695-0.732,13.786,2.868,13.465,13.432
			c-0.214,7.048,0.007,14.108-0.054,21.162c-0.056,6.528,0.907,13.194-2.376,19.332C231.316,850.53,161.422,850.53,91.528,850.53z
			 M146.023,482.773c0.052,0,0.104,0,0.156,0c0-50.634-0.039-101.268,0.08-151.901c0.009-3.725-0.851-5.146-4.781-4.879
			c-6.583,0.448-6.538-1.457-6.392,6.444c0.018,0.968,0.015,1.937,0.015,2.905c-0.003,97.947-0.008,195.895-0.011,293.843
			c0,2.628-0.013,5.257,0.036,7.885c0.017,0.929-0.075,1.914,1.059,2.466c4.954,2.414,9.836-0.597,9.836-6.108
			C146.024,583.209,146.023,532.991,146.023,482.773z M246.816,483.181c0,37.076-0.014,74.153,0.007,111.229
			c0.008,13.833,0.072,27.667,0.196,41.5c0.012,1.311-0.868,3.091,1.377,3.789c6.003,1.868,9.207-0.333,9.207-6.462
			c-0.001-99.331-0.007-198.663-0.012-297.994c0-2.213,0.01-4.427-0.001-6.64c-0.004-0.829,0.048-2.079-0.708-2.231
			c-2.996-0.604-6.159-0.755-9.049,0.017c-1.867,0.499-0.975,2.922-0.976,4.474C246.816,381.637,246.823,432.409,246.816,483.181z
			 M190.757,460.364c0,43.164,0,86.328,0.001,129.492c0,1.107-0.013,2.214,0.023,3.32c0.027,0.819,0.019,2.001,0.95,2.054
			c3.03,0.172,6.249,0.695,9.061-0.096c2.321-0.653,1.13-3.646,1.132-5.552c0.065-85.774,0.07-171.549,0.051-257.323
			c-0.002-7.187,0.838-5.772-6.147-6.291c-4.441-0.33-5.177,1.271-5.163,5.32C190.813,374.313,190.757,417.339,190.757,460.364z
			 M164.656,460.785c0.01,0,0.019,0,0.029,0c0-16.464,0.002-32.927-0.001-49.391c-0.005-26.978-0.005-53.956-0.044-80.934
			c-0.002-1.329,0.674-3.324-0.629-3.867c-2.84-1.183-6.068-0.903-8.97-0.274c-2.326,0.504-1.208,3.061-1.209,4.678
			c-0.056,85.915-0.056,171.83-0.06,257.745c0,1.522-0.007,3.044,0.042,4.564c0.026,0.826,0.109,1.93,1.09,1.971
			c2.899,0.121,6.016,0.659,8.646-0.196c2.142-0.696,1.054-3.693,1.057-5.632C164.671,546.561,164.656,503.673,164.656,460.785z
			 M183.36,460.793c0-38.85,0.001-77.7-0.001-116.551c0-4.977,0.011-9.955-0.031-14.932c-0.009-1.054,0.366-2.79-0.822-2.928
			c-2.995-0.348-6.183-0.705-9.043-0.018c-2.29,0.549-1.125,3.362-1.126,5.119c-0.055,85.996-0.044,171.992-0.039,257.987
			c0,1.106,0.096,2.219,0.003,3.316c-0.167,1.976,0.676,2.79,2.64,2.672c1.381-0.083,2.794-0.17,4.152,0.025
			c3.606,0.518,4.348-1.101,4.34-4.454C183.329,547.618,183.364,504.206,183.36,460.793z M228.311,460.805c-0.018,0-0.036,0-0.054,0
			c0,43.696-0.003,87.392,0.015,131.088c0.001,1.178-0.478,3.074,0.924,3.27c2.845,0.397,5.935,0.708,8.632-0.022
			c2.235-0.605,1.063-3.407,1.064-5.193c0.057-86.426,0.01-172.852,0.175-259.277c0.009-4.57-1.881-4.775-5.366-4.713
			c-3.304,0.059-5.526-0.099-5.505,4.587C228.391,373.964,228.311,417.384,228.311,460.805z M209.61,460.337
			c-0.018,0-0.036,0-0.055,0c0,37.893-0.001,75.786,0.001,113.679c0,5.947-0.011,11.893,0.036,17.84
			c0.009,1.183-0.473,3.127,0.897,3.299c2.988,0.375,6.233,0.683,9.034-0.137c1.894-0.554,0.869-3.475,0.87-5.31
			c0.046-85.743,0.053-171.486,0.021-257.229c-0.003-7.522,0.962-6.129-6.29-6.484c-3.548-0.174-4.63,0.696-4.616,4.485
			C209.667,373.765,209.61,417.051,209.61,460.337z M135.082,723.932c0,20.466,0,40.933,0,61.399c0,1.659-0.041,3.32,0.016,4.978
			c0.246,7.143-1.269,6.105,6.438,6.391c3.184,0.118,4.226-0.759,4.229-4.123c0.044-44.796,0.25-89.591,0.403-134.387
			c0.022-6.479-0.021-6.22-6.684-6.54c-3.841-0.185-4.514,1.148-4.489,4.662C135.154,678.85,135.077,701.391,135.082,723.932z
			 M276.139,724.23c-0.008,0-0.016,0-0.025,0c0-22.828-0.085-45.656,0.091-68.483c0.027-3.462-1.124-4.437-4.237-4.031
			c-0.682,0.089-1.4,0.103-2.076-0.007c-3.69-0.599-4.613,0.936-4.603,4.573c0.123,45.379,0.135,90.758-0.026,136.137
			c-0.015,4.11,1.743,4.49,4.936,4.264c2.996-0.212,6.139,1.032,6.068-4.385C275.965,769.611,276.139,746.919,276.139,724.23z
			 M246.842,724.174c0.053,0,0.107,0,0.16,0c0,22.677,0.093,45.355-0.092,68.031c-0.031,3.769,1.166,4.995,4.692,4.456
			c0.678-0.104,1.398-0.116,2.074-0.012c3.094,0.475,4.012-0.774,4.006-3.883c-0.088-45.493-0.097-90.986,0.021-136.478
			c0.009-3.573-0.814-5.131-4.576-4.569c-2.912,0.435-6.504-1.424-6.419,4.429C247.037,678.819,246.842,701.498,246.842,724.174z
			 M116.56,724.385c0,22.676-0.009,45.351,0.023,68.027c0.002,1.328-0.635,3.4,0.69,3.833c2.892,0.945,6.111,0.825,9.018,0.084
			c1.969-0.502,1.05-2.872,1.051-4.389c0.046-45.213-0.048-90.426,0.157-135.638c0.022-4.734-2.195-4.625-5.499-4.603
			c-3.302,0.022-5.624-0.066-5.568,4.661C116.702,679.033,116.554,701.71,116.56,724.385z M212.48,823.416
			c0-5.81-0.081-11.621,0.041-17.428c0.047-2.243-0.541-3.227-2.983-3.203c-8.733,0.084-17.468,0.018-26.201-0.044
			c-1.942-0.014-3.042,0.363-3.022,2.729c0.1,11.756,0.09,23.515-0.001,35.271c-0.019,2.403,0.883,3.033,3.176,3.003
			c8.595-0.114,17.194-0.17,25.786,0.022c2.724,0.061,3.268-1.002,3.232-3.336C212.419,834.76,212.478,829.088,212.48,823.416z
			 M153.895,748.62c0,14.379,0.09,28.759-0.065,43.137c-0.038,3.488,0.501,5.456,4.637,4.964c3.158-0.376,6.272,0.888,6.209-4.748
			c-0.324-28.893-0.322-57.794,0.026-86.686c0.068-5.672-3.024-4.442-6.206-4.726c-3.54-0.316-4.77,0.685-4.704,4.509
			C154.043,719.582,153.893,734.102,153.895,748.62z M238.83,748.797c0-14.786,0.012-29.572-0.024-44.357
			c-0.003-1.167,0.613-3.129-0.668-3.347c-2.8-0.476-5.84-0.756-8.554-0.132c-2.062,0.475-1.047,3.11-1.051,4.756
			c-0.064,28.19-0.067,56.379-0.046,84.569c0.006,7.618-0.599,5.996,6.441,6.383c3.069,0.169,4.006-0.814,3.972-3.931
			C238.741,778.093,238.83,763.444,238.83,748.797z M201.876,647.974c0-12.034-0.077-24.068,0.057-36.1
			c0.031-2.816-0.678-4.175-3.678-3.75c-0.951,0.135-1.961,0.156-2.904-0.005c-3.755-0.641-4.586,0.98-4.56,4.563
			c0.166,22.683,0.089,45.367,0.093,68.051c0.001,6.877,0.01,6.667,6.685,6.922c3.532,0.135,4.427-1.028,4.374-4.412
			C201.756,671.49,201.87,659.731,201.876,647.974z M220.342,792.031c0-29.018-0.092-58.036,0.108-87.052
			c0.027-3.938-1.311-4.787-4.74-4.433c-2.928,0.302-6.212-1.103-6.146,4.359c0.283,23.352,0.177,46.71,0.054,70.065
			c-0.017,3.156,0.649,5.368,3.381,7.267C216.449,784.634,218.611,788.206,220.342,792.031z M172.404,792.148
			c1.98-4.138,4.25-8,8.013-10.445c2.533-1.646,2.901-3.589,2.894-6.226c-0.06-22.813,0.02-45.627-0.057-68.44
			c-0.023-6.731,1.348-6.134-6.438-6.549c-3.878-0.207-4.503,1.262-4.486,4.748c0.139,27.237,0.074,54.475,0.073,81.713
			C172.404,788.682,172.404,790.415,172.404,792.148z M190.896,738.887c-0.009,0-0.017,0-0.026,0
			c0,10.228-0.011,20.456,0.004,30.684c0.011,7.794,0.023,7.674,7.841,7.497c2.654-0.06,3.196-1.075,3.189-3.459
			c-0.072-23.22-0.077-46.441-0.02-69.661c0.006-2.411-0.604-3.693-3.253-3.39c-1.094,0.125-2.228,0.131-3.32-0.005
			c-3.355-0.417-4.567,0.777-4.497,4.334C191.036,716.216,190.896,727.553,190.896,738.887z M220.383,648.021
			c-0.017,0-0.034,0-0.051,0c0-11.875-0.272-23.759,0.135-35.619c0.161-4.689-2.203-4.353-5.274-4.295
			c-3.068,0.058-5.706-0.563-5.641,4.402c0.297,22.78,0.094,45.565,0.166,68.348c0.024,7.609-1.424,6.499,6.812,6.79
			c3.153,0.111,3.968-0.934,3.923-4.003C220.28,671.772,220.383,659.896,220.383,648.021z M172.413,647.513c0.03,0,0.06,0,0.091,0
			c0,12.013-0.013,24.025,0.02,36.038c0.003,1.195-0.552,2.951,0.673,3.461c2.858,1.189,6.054,0.892,8.947,0.286
			c1.949-0.408,1.086-2.867,1.09-4.395c0.057-22.644,0.075-45.289,0.015-67.934c-0.021-7.677,1.274-6.568-6.775-6.882
			c-3.366-0.131-4.183,1.001-4.133,4.219C172.523,624.039,172.413,635.777,172.413,647.513z M190.757,287.295
			c0,6.496-0.062,12.993,0.016,19.488c0.092,7.724-1.208,6.626,6.779,6.93c3.358,0.128,4.542-0.789,4.49-4.34
			c-0.199-13.68-0.051-27.366-0.084-41.049c-0.021-8.517,1.078-6.953-7.201-7.316c-3.066-0.135-4.149,0.749-4.067,3.898
			C190.885,272.364,190.753,279.831,190.757,287.295z M183.359,287.44c0-6.221,0.046-12.442-0.011-18.662
			c-0.083-8.979,1.652-7.496-7.958-7.743c-2.74-0.07-3.138,1.095-3.125,3.451c0.081,15.482,0.08,30.965-0.012,46.446
			c-0.015,2.454,0.619,3.659,3.248,3.343c1.092-0.131,2.227-0.126,3.321,0.001c3.402,0.394,4.696-0.944,4.599-4.445
			C183.214,302.374,183.357,294.905,183.359,287.44z M220.426,287.249c0.006,0,0.012,0,0.018,0c0-7.309-0.196-14.626,0.084-21.924
			c0.138-3.584-1.145-4.744-4.483-4.27c-0.678,0.096-1.394,0.108-2.069,0.004c-3.372-0.518-4.506,0.717-4.456,4.25
			c0.195,13.788-0.001,27.58,0.087,41.37c0.048,7.682-1.411,6.802,7.089,7.02c2.825,0.072,3.867-0.742,3.793-3.697
			C220.301,302.422,220.426,294.834,220.426,287.249z M164.66,287.43c0.007,0,0.015,0,0.022,0c0-6.503,0.101-13.007-0.026-19.507
			c-0.153-7.811,1.03-6.596-6.86-6.911c-3.498-0.139-4.073,1.22-4.046,4.275c0.124,13.834-0.019,27.67,0.06,41.505
			c0.044,7.783-1.16,6.556,6.787,6.91c3.487,0.155,4.195-1.167,4.121-4.275C164.54,302.099,164.66,294.763,164.66,287.43z
			 M238.942,287.288c0-6.777,0.065-13.554-0.019-20.33c-0.078-6.354,1.186-5.634-6.028-5.961c-3.755-0.17-4.654,1.107-4.605,4.658
			c0.188,13.689,0.011,27.383,0.119,41.074c0.064,8.124-1.28,6.601,7.108,6.965c2.816,0.122,3.518-0.983,3.474-3.586
			C238.863,302.502,238.946,294.894,238.942,287.288z M238.957,823.55c0-3.725,0.025-7.449-0.005-11.174
			c-0.058-7.254,0.744-5.854-6.227-6.031c-0.138-0.003-0.28,0.016-0.414-0.007c-3.412-0.573-4.174,1.106-4.092,4.203
			c0.198,7.444,0.133,14.896,0.12,22.344c-0.014,7.972-0.043,7.864,7.923,7.642c2.29-0.064,2.775-0.881,2.731-2.908
			C238.892,832.932,238.961,828.241,238.957,823.55z M257.613,823.404c-0.005,0-0.009,0-0.014,0c0-3.306,0.021-6.612-0.004-9.917
			c-0.063-8.324,1.18-6.865-7.252-7.158c-3.123-0.108-3.625,1.152-3.581,3.827c0.126,7.711-0.062,15.427,0.053,23.139
			c0.127,8.454-1.472,6.902,7.611,7.189c2.642,0.084,3.295-1.049,3.226-3.446C257.519,832.497,257.613,827.949,257.613,823.404z
			 M146.148,823.69c0.005,0,0.011,0,0.016,0c0-3.458,0.078-6.918-0.016-10.374c-0.214-7.904,1.498-6.698-7.086-7.03
			c-3.137-0.121-4.109,0.984-4.044,4.019c0.16,7.466,0.059,14.938,0.065,22.407c0.007,8.147,0.006,8.056,7.998,7.803
			c2.341-0.074,3.173-0.798,3.105-3.133C146.054,832.822,146.148,828.254,146.148,823.69z M153.8,669.562c-0.01,0-0.019,0-0.029,0
			c0,3.727-0.033,7.455,0.007,11.182c0.086,8.036-0.863,6.443,6.815,6.896c3.53,0.209,4.165-1.266,4.119-4.283
			c-0.126-8.281-0.024-16.565-0.053-24.848c-0.025-7.087-0.05-7.086-7.274-6.803c-0.138,0.005-0.28,0.036-0.414,0.017
			c-2.637-0.373-3.296,0.902-3.217,3.346C153.911,659.895,153.8,664.73,153.8,669.562z M238.958,669.956c-0.006,0-0.011,0-0.017,0
			c0-3.72-0.004-7.441,0.001-11.161c0.01-7.223,0.011-7.046-7.277-7.131c-2.973-0.035-3.389,1.146-3.358,3.629
			c0.107,8.404,0.052,16.81,0.047,25.215c-0.004,7.249-0.011,7.111,7.195,7.103c2.798-0.003,3.547-0.987,3.455-3.601
			C238.84,679.33,238.958,674.641,238.958,669.956z M108.939,823.635c0.005,0,0.01,0,0.015,0c0-3.458,0.048-6.917-0.01-10.374
			c-0.13-7.767,1.066-6.609-6.819-6.943c-3.462-0.147-4.149,1.198-4.072,4.295c0.184,7.465-0.045,14.939,0.077,22.406
			c0.139,8.461-1.897,7.254,7.826,7.484c2.466,0.058,3.076-0.936,3.018-3.176C108.856,832.766,108.939,828.2,108.939,823.635z
			 M127.39,823.91c0-3.457,0-6.913,0-10.37c0.001-7.584,0.004-7.501-7.747-7.216c-2.303,0.085-3.131,0.775-3.096,3.14
			c0.115,7.879-0.056,15.762,0.046,23.642c0.111,8.597-1.592,7.104,7.457,7.373c2.935,0.087,3.471-1.197,3.387-3.711
			C127.293,832.486,127.397,828.196,127.39,823.91z M164.639,823.58c0.006,0,0.011,0,0.017,0c0-3.455,0.059-6.911-0.012-10.364
			c-0.161-7.823,1-6.598-6.868-6.882c-2.989-0.108-4.142,0.701-4.051,3.901c0.214,7.594-0.065,15.201,0.069,22.799
			c0.149,8.445-1.828,7.226,7.867,7.467c2.508,0.063,3.041-1.085,3.003-3.241C164.583,832.701,164.639,828.14,164.639,823.58z
			 M276.11,823.132c0.005,0,0.01,0,0.015,0c0-3.312,0.066-6.626-0.013-9.937c-0.176-7.399,1.519-6.623-6.817-6.875
			c-3.079-0.093-4.089,0.857-4.008,3.955c0.198,7.586-0.031,15.182,0.108,22.77c0.156,8.547-1.819,7.201,7.837,7.439
			c2.135,0.052,2.962-0.689,2.913-2.861C276.035,832.795,276.11,827.963,276.11,823.132z M294.56,823.544c0.006,0,0.013,0,0.019,0
			c0-3.451,0.054-6.903-0.011-10.353c-0.142-7.482,1.507-6.619-6.77-6.893c-3.068-0.102-4.119,0.807-4.033,3.954
			c0.206,7.587-0.036,15.185,0.087,22.775c0.137,8.438-1.887,7.279,7.819,7.466c2.168,0.042,2.955-0.743,2.916-2.868
			C294.5,832.932,294.56,828.238,294.56,823.544z M238.829,624.118c0.007,0,0.015,0,0.022,0c0-3.04,0-6.08,0-9.119
			c0-7.042-0.001-6.877-7.023-6.93c-2.907-0.022-3.484,1.086-3.435,3.634c0.131,6.906,0.077,13.816,0.077,20.725
			c0.001,7.08-0.01,6.903,7.047,6.879c2.878-0.01,3.475-1.027,3.358-3.584C238.698,631.862,238.829,627.987,238.829,624.118z
			 M153.892,623.657c0,3.724,0.3,7.479-0.08,11.164c-0.422,4.087,1.092,5.537,5.009,4.917c0.539-0.085,1.105-0.03,1.656,0.002
			c2.916,0.169,4.216-0.956,4.127-4.1c-0.191-6.753,0.03-13.517-0.078-20.273c-0.134-8.411,1.353-6.987-7.651-7.263
			c-2.458-0.075-3.081,0.908-3.017,3.141C153.976,615.379,153.892,619.519,153.892,623.657z M201.964,235.328
			c0.007,0,0.014,0,0.021,0c0-1.794,0.041-3.589-0.007-5.381c-0.231-8.557,1.974-7.596-8.003-7.748
			c-2.596-0.039-3.341,0.949-3.274,3.399c0.14,5.101-0.027,10.211,0.074,15.314c0.172,8.706-1.803,7.574,7.996,7.77
			c2.609,0.052,3.36-0.968,3.236-3.422C201.838,241.957,201.964,238.639,201.964,235.328z M220.429,235.64c0.007,0,0.014,0,0.021,0
			c0-2.074,0-4.148,0-6.222c0-7.612,0.003-7.531-7.733-7.253c-2.29,0.082-3.204,0.78-3.158,3.133
			c0.105,5.39-0.086,10.787,0.018,16.177c0.152,7.902-1.821,7.071,7.735,7.207c2.304,0.033,3.255-0.713,3.152-3.086
			C220.322,242.282,220.429,238.959,220.429,235.64z M183.366,235.319c-0.004,0-0.009,0-0.013,0c0-1.796-0.001-3.592,0-5.389
			c0.003-8.159,0.006-8.07-8.017-7.753c-2.36,0.093-3.11,0.886-3.053,3.194c0.13,5.247,0.025,10.5,0.026,15.75
			c0.001,8.174,0,8.102,8.227,7.565c2.148-0.14,2.921-0.908,2.858-3.006C183.289,242.23,183.366,238.773,183.366,235.319z"/>
		<path fill="#B1AA80" d="M216.821,208.845c-3.209,1.084-6.536,0.772-9.813,0.687c-10.018-0.26-20.057,0.717-30.051-0.51
			c0.05-19.017,0.146-38.034,0.103-57.05c-0.011-4.872,1.288-8.694,6.26-10.513c2.194-0.803,3.212-2.331,3.049-4.785
			c-0.174-2.615-0.007-5.252-0.03-7.879c-0.023-2.497,0.552-4.523,3.051-5.832c4.028-2.11,3.207-6.519,3.255-9.691
			c0.337-22.112,0.166-44.232,0.094-66.349c-0.004-1.201-0.686-2.38-0.267-3.655c0.749-2.275,1.945-4.145,4.661-3.833
			c2.656,0.305,2.551,2.504,2.552,4.463c0.003,18.806-0.009,37.611-0.011,56.417c-0.001,5.669,0.027,11.339,0.022,17.008
			c-0.002,2.036,0.284,3.82,2.523,4.73c3.298,1.34,4.294,4.048,4.147,7.387c-0.073,1.656,0.162,3.34-0.046,4.973
			c-0.504,3.956,0.943,6.328,4.746,7.966c4.151,1.788,4.529,5.874,4.519,9.897c-0.04,16.731-0.05,33.463-0.073,50.194
			C215.509,204.685,215.419,206.917,216.821,208.845z"/>
		<path fill="#B1AA80" d="M146.023,482.773c0,50.218,0.001,100.436-0.001,150.654c0,5.512-4.882,8.522-9.836,6.108
			c-1.133-0.552-1.041-1.537-1.059-2.466c-0.049-2.628-0.036-5.257-0.036-7.885c0.003-97.948,0.007-195.895,0.011-293.843
			c0-0.968,0.003-1.937-0.015-2.905c-0.147-7.902-0.191-5.996,6.392-6.444c3.93-0.268,4.789,1.154,4.781,4.879
			c-0.119,50.634-0.08,101.268-0.08,151.901C146.127,482.773,146.075,482.773,146.023,482.773z"/>
		<path fill="#B1AA80" d="M246.819,483.181c0.004-50.772-0.003-101.545,0.037-152.317c0.001-1.552-0.891-3.975,0.976-4.474
			c2.89-0.772,6.053-0.621,9.049-0.017c0.756,0.152,0.704,1.402,0.708,2.231c0.011,2.213,0.001,4.427,0.001,6.64
			c0.005,99.331,0.01,198.663,0.012,297.994c0,6.128-3.204,8.33-9.207,6.462c-2.245-0.699-1.365-2.479-1.377-3.789
			c-0.124-13.833-0.188-27.666-0.196-41.5C246.802,557.334,246.816,520.258,246.819,483.181z"/>
		<path fill="#B1AA80" d="M190.757,460.364c0-43.026,0.056-86.051-0.091-129.076c-0.014-4.048,0.722-5.65,5.163-5.32
			c6.985,0.519,6.146-0.896,6.147,6.291c0.018,85.774,0.014,171.549-0.051,257.323c-0.001,1.906,1.19,4.899-1.132,5.552
			c-2.813,0.791-6.031,0.268-9.061,0.096c-0.931-0.053-0.923-1.235-0.95-2.054c-0.036-1.106-0.023-2.213-0.023-3.32
			C190.757,546.692,190.757,503.528,190.757,460.364z"/>
		<path fill="#B1AA80" d="M164.656,460.785c0,42.888,0.015,85.777-0.048,128.665c-0.003,1.939,1.085,4.935-1.057,5.632
			c-2.63,0.855-5.747,0.317-8.646,0.196c-0.981-0.041-1.064-1.144-1.09-1.971c-0.048-1.52-0.042-3.043-0.042-4.564
			c0.004-85.915,0.004-171.83,0.06-257.745c0.001-1.617-1.117-4.174,1.209-4.678c2.902-0.629,6.13-0.909,8.97,0.274
			c1.303,0.543,0.627,2.538,0.629,3.867c0.039,26.978,0.039,53.956,0.044,80.934c0.003,16.464,0.001,32.927,0.001,49.391
			C164.675,460.785,164.665,460.785,164.656,460.785z"/>
		<path fill="#B1AA80" d="M183.362,460.793c0.002,43.413-0.033,86.825,0.071,130.238c0.008,3.353-0.734,4.972-4.34,4.454
			c-1.358-0.195-2.771-0.108-4.152-0.025c-1.965,0.118-2.808-0.696-2.64-2.672c0.093-1.097-0.003-2.21-0.003-3.316
			c-0.005-85.996-0.016-171.992,0.039-257.987c0.001-1.757-1.163-4.57,1.126-5.119c2.86-0.686,6.048-0.33,9.043,0.018
			c1.188,0.138,0.813,1.874,0.822,2.928c0.042,4.977,0.031,9.954,0.031,14.932C183.361,383.092,183.36,421.943,183.362,460.793z"/>
		<path fill="#B1AA80" d="M228.311,460.805c0-43.42,0.08-86.841-0.115-130.26c-0.021-4.686,2.201-4.528,5.505-4.587
			c3.485-0.062,5.375,0.143,5.366,4.713c-0.165,86.425-0.119,172.851-0.175,259.277c-0.001,1.786,1.171,4.588-1.064,5.193
			c-2.697,0.73-5.787,0.418-8.632,0.022c-1.402-0.196-0.923-2.091-0.924-3.27c-0.018-43.696-0.015-87.392-0.015-131.088
			C228.275,460.805,228.293,460.805,228.311,460.805z"/>
		<path fill="#B1AA80" d="M209.61,460.337c0-43.286,0.058-86.572-0.101-129.858c-0.014-3.79,1.068-4.659,4.616-4.485
			c7.252,0.355,6.287-1.038,6.29,6.484c0.031,85.743,0.024,171.486-0.021,257.229c-0.001,1.835,1.024,4.756-0.87,5.31
			c-2.801,0.819-6.047,0.511-9.034,0.137c-1.37-0.172-0.888-2.115-0.897-3.299c-0.047-5.946-0.036-11.893-0.036-17.84
			c-0.002-37.893-0.001-75.786-0.001-113.679C209.573,460.337,209.591,460.337,209.61,460.337z"/>
		<path fill="#B1AA80" d="M135.079,723.932c-0.003-22.541,0.074-45.082-0.084-67.621c-0.025-3.514,0.648-4.847,4.489-4.662
			c6.663,0.32,6.706,0.061,6.684,6.54c-0.153,44.796-0.359,89.591-0.403,134.387c-0.003,3.364-1.045,4.241-4.229,4.123
			c-7.707-0.286-6.192,0.752-6.438-6.391c-0.057-1.658-0.016-3.319-0.016-4.978C135.082,764.865,135.082,744.398,135.079,723.932z"
			/>
		<path fill="#B1AA80" d="M276.139,724.23c0,22.69-0.174,45.381,0.127,68.067c0.072,5.417-3.072,4.173-6.068,4.385
			c-3.192,0.226-4.95-0.154-4.936-4.264c0.161-45.379,0.15-90.758,0.026-136.137c-0.01-3.637,0.913-5.172,4.603-4.573
			c0.676,0.11,1.394,0.096,2.076,0.007c3.114-0.405,4.264,0.57,4.237,4.031c-0.177,22.826-0.091,45.655-0.091,68.483
			C276.122,724.23,276.13,724.23,276.139,724.23z"/>
		<path fill="#B1AA80" d="M246.842,724.174c0-22.676,0.195-45.355-0.134-68.026c-0.085-5.853,3.507-3.994,6.419-4.429
			c3.762-0.563,4.585,0.996,4.576,4.569c-0.118,45.493-0.109,90.986-0.021,136.478c0.006,3.109-0.912,4.358-4.006,3.883
			c-0.676-0.104-1.396-0.091-2.074,0.012c-3.526,0.539-4.723-0.687-4.692-4.456c0.185-22.676,0.092-45.354,0.092-68.031
			C246.949,724.174,246.895,724.174,246.842,724.174z"/>
		<path fill="#B1AA80" d="M116.557,724.385c-0.003-22.675,0.145-45.353-0.124-68.025c-0.056-4.726,2.266-4.638,5.568-4.661
			c3.304-0.022,5.521-0.131,5.499,4.603c-0.205,45.212-0.111,90.425-0.157,135.638c-0.002,1.517,0.918,3.888-1.051,4.389
			c-2.907,0.74-6.126,0.86-9.018-0.084c-1.326-0.433-0.688-2.505-0.69-3.833C116.551,769.737,116.56,747.061,116.557,724.385z"/>
		<path fill="#B1AA80" d="M212.479,823.416c-0.001,5.671-0.059,11.343,0.028,17.013c0.036,2.335-0.508,3.398-3.232,3.336
			c-8.592-0.192-17.191-0.135-25.786-0.022c-2.293,0.03-3.195-0.599-3.176-3.003c0.092-11.757,0.101-23.515,0.001-35.271
			c-0.02-2.366,1.081-2.743,3.022-2.729c8.734,0.063,17.468,0.128,26.201,0.044c2.442-0.024,3.03,0.96,2.983,3.203
			C212.398,811.796,212.48,817.607,212.479,823.416z"/>
		<path fill="#B1AA80" d="M153.894,748.62c-0.001-14.517,0.149-29.038-0.102-43.551c-0.066-3.825,1.164-4.826,4.704-4.509
			c3.183,0.284,6.275-0.946,6.206,4.726c-0.349,28.893-0.351,57.793-0.026,86.686c0.063,5.636-3.051,4.372-6.209,4.748
			c-4.136,0.493-4.675-1.476-4.637-4.964C153.985,777.379,153.895,762.999,153.894,748.62z"/>
		<path fill="#B1AA80" d="M238.83,748.797c0,14.647-0.088,29.296,0.071,43.942c0.034,3.117-0.902,4.1-3.972,3.931
			c-7.04-0.387-6.435,1.235-6.441-6.383c-0.022-28.19-0.018-56.379,0.046-84.569c0.004-1.646-1.011-4.281,1.051-4.756
			c2.714-0.625,5.754-0.344,8.554,0.132c1.281,0.218,0.665,2.18,0.668,3.347C238.842,719.225,238.83,734.011,238.83,748.797z"/>
		<path fill="#B1AA80" d="M201.873,647.974c-0.003,11.757-0.117,23.516,0.069,35.27c0.054,3.383-0.841,4.546-4.374,4.412
			c-6.675-0.255-6.684-0.045-6.685-6.922c-0.004-22.684,0.073-45.369-0.093-68.051c-0.026-3.583,0.805-5.204,4.56-4.563
			c0.943,0.161,1.953,0.14,2.904,0.005c3-0.425,3.71,0.934,3.678,3.75C201.799,623.906,201.876,635.941,201.873,647.974z"/>
		<path fill="#B1AA80" d="M220.342,792.031c-1.731-3.824-3.893-7.397-7.343-9.795c-2.732-1.899-3.397-4.11-3.381-7.267
			c0.123-23.355,0.229-46.713-0.054-70.065c-0.066-5.462,3.218-4.057,6.146-4.359c3.428-0.354,4.767,0.495,4.74,4.433
			C220.25,733.995,220.342,763.013,220.342,792.031z"/>
		<path fill="#B1AA80" d="M172.404,792.148c0-1.733,0-3.466,0-5.199c0.002-27.238,0.066-54.476-0.073-81.713
			c-0.018-3.486,0.608-4.955,4.486-4.748c7.786,0.415,6.415-0.183,6.438,6.549c0.077,22.813-0.003,45.627,0.057,68.44
			c0.007,2.637-0.361,4.58-2.894,6.226C176.653,784.149,174.384,788.011,172.404,792.148z"/>
		<path fill="#B1AA80" d="M190.896,738.887c0-11.334,0.141-22.67-0.083-34c-0.07-3.557,1.142-4.751,4.497-4.334
			c1.092,0.136,2.226,0.13,3.32,0.005c2.649-0.303,3.259,0.978,3.253,3.39c-0.057,23.22-0.052,46.441,0.02,69.661
			c0.007,2.384-0.535,3.399-3.189,3.459c-7.817,0.177-7.829,0.297-7.841-7.497c-0.015-10.228-0.004-20.456-0.004-30.684
			C190.878,738.887,190.887,738.887,190.896,738.887z"/>
		<path fill="#B1AA80" d="M220.383,648.021c0,11.875-0.103,23.751,0.071,35.624c0.045,3.069-0.77,4.114-3.923,4.003
			c-8.236-0.29-6.788,0.819-6.812-6.79c-0.072-22.783,0.132-45.569-0.166-68.348c-0.065-4.965,2.573-4.344,5.641-4.402
			c3.071-0.058,5.435-0.394,5.274,4.295c-0.408,11.861-0.135,23.745-0.135,35.619C220.349,648.021,220.366,648.021,220.383,648.021z
			"/>
		<path fill="#B1AA80" d="M172.413,647.513c0-11.736,0.11-23.474-0.072-35.207c-0.05-3.218,0.766-4.35,4.133-4.219
			c8.049,0.314,6.754-0.795,6.775,6.882c0.061,22.644,0.042,45.289-0.015,67.934c-0.004,1.527,0.859,3.986-1.09,4.395
			c-2.893,0.606-6.088,0.904-8.947-0.286c-1.225-0.51-0.67-2.266-0.673-3.461c-0.034-12.013-0.02-24.025-0.02-36.038
			C172.473,647.513,172.443,647.513,172.413,647.513z"/>
		<path fill="#B1AA80" d="M190.755,287.295c-0.002-7.464,0.13-14.931-0.065-22.389c-0.082-3.15,1-4.033,4.067-3.898
			c8.278,0.363,7.18-1.2,7.201,7.316c0.034,13.683-0.115,27.369,0.084,41.049c0.052,3.55-1.131,4.467-4.49,4.34
			c-7.986-0.303-6.686,0.794-6.779-6.93C190.696,300.288,190.757,293.791,190.755,287.295z"/>
		<path fill="#B1AA80" d="M183.358,287.44c-0.001,7.465-0.144,14.933,0.062,22.392c0.097,3.5-1.198,4.839-4.599,4.445
			c-1.094-0.127-2.228-0.132-3.321-0.001c-2.629,0.316-3.263-0.889-3.248-3.343c0.092-15.482,0.094-30.965,0.012-46.446
			c-0.012-2.356,0.385-3.521,3.125-3.451c9.609,0.247,7.875-1.236,7.958,7.743C183.405,274.999,183.359,281.22,183.358,287.44z"/>
		<path fill="#B1AA80" d="M220.426,287.249c0,7.585-0.125,15.173,0.063,22.753c0.073,2.955-0.968,3.77-3.793,3.697
			c-8.501-0.218-7.041,0.662-7.089-7.02c-0.087-13.79,0.108-27.583-0.087-41.37c-0.05-3.534,1.084-4.768,4.456-4.25
			c0.675,0.104,1.392,0.092,2.069-0.004c3.338-0.474,4.62,0.686,4.483,4.27c-0.28,7.298-0.084,14.615-0.084,21.924
			C220.438,287.249,220.432,287.249,220.426,287.249z"/>
		<path fill="#B1AA80" d="M164.66,287.43c0,7.333-0.119,14.668,0.056,21.997c0.074,3.108-0.634,4.43-4.121,4.275
			c-7.947-0.354-6.742,0.873-6.787-6.91c-0.079-13.835,0.064-27.671-0.06-41.505c-0.027-3.055,0.548-4.414,4.046-4.275
			c7.891,0.314,6.707-0.901,6.86,6.911c0.128,6.5,0.026,13.005,0.026,19.507C164.674,287.43,164.667,287.43,164.66,287.43z"/>
		<path fill="#B1AA80" d="M238.944,287.288c0.002,7.606-0.081,15.214,0.047,22.819c0.044,2.604-0.659,3.708-3.474,3.586
			c-8.388-0.364-7.043,1.159-7.108-6.965c-0.109-13.691,0.069-27.385-0.119-41.074c-0.049-3.551,0.851-4.828,4.605-4.658
			c7.215,0.327,5.95-0.393,6.028,5.961C239.007,273.734,238.942,280.511,238.944,287.288z"/>
		<path fill="#B1AA80" d="M238.959,823.55c0.002,4.69-0.068,9.382,0.034,14.07c0.044,2.027-0.441,2.844-2.731,2.908
			c-7.967,0.222-7.937,0.33-7.923-7.642c0.013-7.449,0.077-14.9-0.12-22.344c-0.082-3.097,0.68-4.777,4.092-4.203
			c0.135,0.023,0.276,0.004,0.414,0.007c6.971,0.177,6.169-1.223,6.227,6.031C238.982,816.101,238.957,819.826,238.959,823.55z"/>
		<path fill="#B1AA80" d="M257.613,823.404c0,4.545-0.094,9.093,0.038,13.635c0.07,2.396-0.584,3.529-3.226,3.446
			c-9.083-0.287-7.484,1.265-7.611-7.189c-0.115-7.712,0.073-15.428-0.053-23.139c-0.044-2.676,0.459-3.936,3.581-3.827
			c8.432,0.292,7.189-1.166,7.252,7.158c0.025,3.306,0.004,6.611,0.004,9.917C257.604,823.404,257.608,823.404,257.613,823.404z"/>
		<path fill="#B1AA80" d="M146.148,823.69c0,4.565-0.094,9.132,0.039,13.693c0.068,2.335-0.764,3.059-3.105,3.133
			c-7.993,0.253-7.991,0.344-7.998-7.803c-0.007-7.469,0.095-14.941-0.065-22.407c-0.065-3.035,0.907-4.14,4.044-4.019
			c8.584,0.332,6.871-0.874,7.086,7.03c0.094,3.456,0.016,6.916,0.016,10.374C146.159,823.69,146.153,823.69,146.148,823.69z"/>
		<path fill="#B1AA80" d="M153.8,669.562c0-4.831,0.11-9.667-0.046-14.493c-0.079-2.444,0.58-3.719,3.217-3.346
			c0.135,0.019,0.276-0.011,0.414-0.017c7.224-0.283,7.249-0.283,7.274,6.803c0.029,8.283-0.073,16.567,0.053,24.848
			c0.046,3.017-0.588,4.492-4.119,4.283c-7.679-0.454-6.73,1.139-6.815-6.896c-0.04-3.727-0.007-7.454-0.007-11.182
			C153.781,669.562,153.791,669.562,153.8,669.562z"/>
		<path fill="#B1AA80" d="M238.958,669.956c0,4.685-0.118,9.374,0.046,14.053c0.092,2.614-0.658,3.597-3.455,3.601
			c-7.205,0.009-7.199,0.147-7.195-7.103c0.004-8.405,0.059-16.811-0.047-25.215c-0.031-2.482,0.385-3.663,3.358-3.629
			c7.288,0.085,7.287-0.092,7.277,7.131c-0.005,3.72-0.001,7.441-0.001,11.161C238.947,669.956,238.952,669.956,238.958,669.956z"/>
		<path fill="#B1AA80" d="M108.939,823.635c0,4.565-0.083,9.131,0.035,13.693c0.058,2.24-0.553,3.234-3.018,3.176
			c-9.723-0.23-7.687,0.977-7.826-7.484c-0.123-7.467,0.107-14.941-0.077-22.406c-0.076-3.097,0.61-4.442,4.072-4.295
			c7.885,0.334,6.69-0.825,6.819,6.943c0.058,3.457,0.01,6.916,0.01,10.374C108.949,823.635,108.944,823.635,108.939,823.635z"/>
		<path fill="#B1AA80" d="M127.393,823.91c0.004,4.286-0.1,8.576,0.043,12.857c0.084,2.514-0.452,3.799-3.387,3.711
			c-9.049-0.269-7.346,1.224-7.457-7.373c-0.102-7.88,0.069-15.763-0.046-23.642c-0.035-2.366,0.793-3.055,3.096-3.14
			c7.751-0.285,7.748-0.368,7.747,7.216C127.389,816.997,127.39,820.453,127.393,823.91z"/>
		<path fill="#B1AA80" d="M164.639,823.58c0,4.56-0.056,9.122,0.024,13.681c0.038,2.156-0.495,3.303-3.003,3.241
			c-9.695-0.242-7.718,0.977-7.867-7.467c-0.134-7.598,0.145-15.205-0.069-22.799c-0.09-3.2,1.063-4.009,4.051-3.901
			c7.868,0.284,6.707-0.941,6.868,6.882c0.071,3.453,0.012,6.909,0.012,10.364C164.65,823.58,164.645,823.58,164.639,823.58z"/>
		<path fill="#B1AA80" d="M276.11,823.132c0,4.83-0.075,9.663,0.034,14.491c0.049,2.172-0.778,2.913-2.913,2.861
			c-9.656-0.237-7.681,1.109-7.837-7.439c-0.139-7.588,0.091-15.184-0.108-22.77c-0.081-3.098,0.93-4.048,4.008-3.955
			c8.336,0.252,6.64-0.524,6.817,6.875c0.079,3.311,0.013,6.625,0.013,9.937C276.12,823.132,276.115,823.132,276.11,823.132z"/>
		<path fill="#B1AA80" d="M294.56,823.544c0,4.694-0.06,9.388,0.027,14.08c0.039,2.125-0.748,2.91-2.916,2.868
			c-9.706-0.187-7.682,0.972-7.819-7.466c-0.123-7.591,0.119-15.189-0.087-22.775c-0.085-3.146,0.966-4.055,4.033-3.954
			c8.277,0.275,6.627-0.588,6.77,6.893c0.066,3.45,0.011,6.902,0.011,10.353C294.573,823.544,294.566,823.544,294.56,823.544z"/>
		<path fill="#B1AA80" d="M238.829,624.118c0,3.869-0.131,7.744,0.046,11.604c0.117,2.557-0.479,3.574-3.358,3.584
			c-7.057,0.024-7.047,0.201-7.047-6.879c-0.001-6.909,0.054-13.819-0.077-20.725c-0.048-2.548,0.528-3.656,3.435-3.634
			c7.022,0.053,7.023-0.112,7.023,6.93c0,3.04,0,6.08,0,9.119C238.844,624.118,238.836,624.118,238.829,624.118z"/>
		<path fill="#B1AA80" d="M153.892,623.657c0-4.138,0.084-8.278-0.034-12.413c-0.064-2.233,0.559-3.216,3.017-3.141
			c9.004,0.276,7.517-1.148,7.651,7.263c0.108,6.757-0.113,13.52,0.078,20.273c0.089,3.144-1.211,4.269-4.127,4.1
			c-0.551-0.032-1.118-0.087-1.656-0.002c-3.918,0.62-5.431-0.83-5.009-4.917C154.192,631.136,153.892,627.381,153.892,623.657z"/>
		<path fill="#B1AA80" d="M201.964,235.328c0,3.312-0.126,6.63,0.042,9.933c0.125,2.454-0.627,3.474-3.236,3.422
			c-9.799-0.196-7.824,0.936-7.996-7.77c-0.101-5.103,0.066-10.212-0.074-15.314c-0.067-2.45,0.678-3.439,3.274-3.399
			c9.978,0.151,7.772-0.81,8.003,7.748c0.048,1.792,0.007,3.587,0.007,5.381C201.978,235.328,201.971,235.328,201.964,235.328z"/>
		<path fill="#B1AA80" d="M220.429,235.64c0,3.319-0.107,6.642,0.036,9.954c0.102,2.373-0.849,3.119-3.152,3.086
			c-9.557-0.136-7.583,0.695-7.735-7.207c-0.104-5.39,0.087-10.787-0.018-16.177c-0.046-2.353,0.868-3.05,3.158-3.133
			c7.736-0.277,7.733-0.359,7.733,7.253c0,2.074,0,4.148,0,6.222C220.443,235.64,220.436,235.64,220.429,235.64z"/>
		<path fill="#B1AA80" d="M183.366,235.319c0,3.454-0.076,6.911,0.028,10.362c0.063,2.098-0.709,2.866-2.858,3.006
			c-8.227,0.537-8.226,0.608-8.227-7.565c-0.001-5.25,0.104-10.503-0.026-15.75c-0.057-2.309,0.693-3.101,3.053-3.194
			c8.023-0.317,8.019-0.406,8.017,7.753c-0.001,1.796,0,3.592,0,5.389C183.357,235.319,183.361,235.319,183.366,235.319z"/>
	</g>
	<g>
		<path fill="#D1E5D3" d="M1562.686,498.764c0,0,7.11-4.629,7.11-7.068c0-2.439,24.895-10.298,24.895-10.298v-28.996l-10.634-1.355
			c0,0-3.687-9.485-8.577-5.149c-4.889,4.336-6.597-30.351-6.597,8.672c0,12.72-9.272-4.897-11.305-12.32
			C1557.578,442.251,1562.686,477.649,1562.686,498.764z"/>
		<rect x="1473.083" y="666.474" fill="#D1E5D3" width="103.301" height="7.827"/>
		<rect x="1450.854" y="674.302" fill="#B1AA80" width="145.144" height="35.223"/>
		<rect x="1457.392" y="680.824" fill="#D1E5D3" width="19.614" height="22.177"/>
		<rect x="1482.236" y="680.824" fill="#D1E5D3" width="23.537" height="22.177"/>
		<rect x="1512.311" y="680.824" fill="#D1E5D3" width="22.229" height="22.177"/>
		<rect x="1542.386" y="680.824" fill="#D1E5D3" width="18.307" height="22.177"/>
		<rect x="1565.923" y="680.824" fill="#D1E5D3" width="19.614" height="22.177"/>
		<rect x="1465.238" y="779.97" fill="#B1AA80" width="118.992" height="5.218"/>
		<rect x="1465.238" y="785.188" fill="#D1E5D3" width="118.992" height="2.609"/>
		<rect x="1465.238" y="787.797" fill="#B1AA80" width="118.992" height="2.609"/>
		<rect x="1465.238" y="790.406" fill="#D1E5D3" width="118.992" height="6.523"/>
		<rect x="1452.161" y="796.929" fill="#B1AA80" width="143.837" height="16.959"/>
		<rect x="1457.392" y="813.888" fill="#D1E5D3" width="135.991" height="16.959"/>
		<rect x="1452.161" y="830.848" fill="#B1AA80" width="143.837" height="19.568"/>
		<path fill="#B1AA80" d="M1505.969,349.027l-21.01-17.35c0,0-3.124,1.084-2.037,2.168s21.013,18.279,21.013,18.279
			L1505.969,349.027z"/>
		<path fill="#B1AA80" d="M1532.67,349.027l21.01-17.35c0,0,3.124,1.084,2.037,2.168c-1.086,1.084-21.013,18.279-21.013,18.279
			L1532.67,349.027z"/>
		<path fill="#B1AA80" d="M1520.248,338.032l-0.196-22.873c0,0-2.841-1.689-2.974-0.162c-0.133,1.527-0.516,23.473-0.516,23.473
			L1520.248,338.032z"/>
		<path fill="#B1AA80" d="M1512.737,342.804l-16.518-21.652c0,0-3.289,0.349-2.477,1.65c0.812,1.302,16.308,22.558,16.308,22.558
			L1512.737,342.804z"/>
		<path fill="#B1AA80" d="M1526.208,342.804l16.517-21.652c0,0,3.289,0.349,2.477,1.65c-0.812,1.302-16.309,22.558-16.309,22.558
			L1526.208,342.804z"/>
		<rect x="1469.16" y="269.891" fill="#D1E5D3" width="13.076" height="2.609"/>
		<rect x="1462.622" y="256.845" fill="#D1E5D3" width="27.46" height="10.436"/>
		<rect x="1463.93" y="247.713" fill="#D1E5D3" width="24.845" height="9.132"/>
		<path fill="#F2A670" d="M1475.853,245.114c0,0,19.248-0.845,6.519-21.769c-1.842-3.029-6.516-11.472-6.516-11.472l0,0
			c0,0-4.674,8.443-6.516,11.472c-12.729,20.924,6.519,21.544,6.519,21.544"/>
		<path fill="#B1AA80" d="M1534.914,359.376l20.66-9.92c0,0,0.322-3.284-1.12-2.754s-21.507,9.533-21.507,9.533L1534.914,359.376z"
			/>
		<path fill="#B1AA80" d="M1501.485,359.376l-20.66-9.92c0,0-0.322-3.284,1.12-2.754c1.442,0.53,21.507,9.533,21.507,9.533
			L1501.485,359.376z"/>
		<path fill="#B1AA80" d="M1526.051,405.251c0,0,29.122-1.269,34.916,48.593c5.795,49.862,6.7,185.234,13.762,200.889h-99.414
			c0,0,6.389-27.456-2.716-64.853c-0.95-3.903,8.612-2.872,8.79-7.237c1.173-28.78,1.36-65.175-1.184-106.846
			C1476.92,422.001,1526.051,405.251,1526.051,405.251z"/>
		<path fill="#D1E5D3" d="M1472.599,517.44c0,0,19.341-20.325,33.466-44.442c14.124-24.117,25.86-51.187,25.86-51.187v76.118
			c0,0-20.687,68.289-50.436,84.548L1472.599,517.44z"/>
		<path fill="#D1E5D3" d="M1472.687,631.613c0,0,20.6-15.083,35.811-43.808c15.211-28.725,30.4-61.197,30.4-61.197l24.435,3.545
			l-24.965,18.169c2.08,8.13,27.555,8.644,27.555,8.644v12.504c0,0-14.61,17.159-22.216,23.12
			c-7.605,5.962,4.947,34.747-4.832,62.143h-14.125l7.605-47.694c0,0-22.273,26.821-26.076,47.694h-30.965L1472.687,631.613z"/>
		<rect x="1462.622" y="706.915" fill="#B1AA80" width="125.53" height="73.055"/>
		<rect x="1479.621" y="706.915" fill="#D1E5D3" width="88.917" height="73.055"/>
		<rect x="1488.774" y="718.656" fill="#B1AA80" width="18.307" height="49.573"/>
		<rect x="1513.619" y="718.656" fill="#B1AA80" width="20.922" height="49.573"/>
		<rect x="1543.694" y="718.656" fill="#B1AA80" width="18.307" height="49.573"/>
		<path fill="#B1AA80" d="M1533.914,355.088c0,0,3.264-4.354-5.247-9.594l-7.786-6.462h-3.736l-7.787,6.462
			c-8.511,5.239-5.247,10.066-5.247,10.066"/>
		<path fill="#D1E5D3" d="M1518.849,345.814c0,0-16.66,5.058-16.66,13.549s-2.954,31.796,16.66,31.796V345.814z"/>
		<path fill="#B1AA80" d="M1517.542,345.814c0,0,16.66,5.058,16.66,13.549s4.262,31.796-16.66,31.796V345.814z"/>
		<rect x="1465.237" y="653.429" fill="#B1AA80" width="116.377" height="13.046"/>
		<path fill="#D1E5D3" d="M1488.858,361.166c0,0-7.319-64.836-4.422-86.515l-16.545,0.345c0,0-0.619,76.039,7.296,103.599"/>
		<path fill="#B1AA80" d="M1499.1,384.282c0,0-10.04-11.984-9.225-22.824c0.815-10.84-7.299,22.393-26.619,21.679
			c-7.334-0.271,17.922,60.305,17.922,60.305S1498.276,426.888,1499.1,384.282z"/>
		<path fill="#D1E5D3" d="M1525.106,405.251c0,0-19.474-8.45-26.007-22.161c0,0-10.324,37.607-20.785,61.183v16.259
			C1478.314,460.533,1520.315,416.362,1525.106,405.251z"/>
	</g>
	<g>
		<g>
			<polygon fill="#E2EFF6" points="1855.756,753.956 1855.756,834.41 1899.446,834.41 1899.446,739.521 			"/>
		</g>
		
			<line fill="none" stroke="#C69253" stroke-width="2.6466" stroke-linecap="round" stroke-miterlimit="10" x1="1837.045" y1="760.286" x2="1899.446" y2="739.521"/>
		<line fill="none" x1="1899.446" y1="710.897" x2="1899.446" y2="875.62"/>
	</g>
	<rect x="4.279" y="40.439" fill="none" width="1894.475" height="1057.293"/>
	<path opacity="0.26" fill="#FFFFFF" d="M612.117,963.085h-57.712c0.292-0.981,0.455-2.019,0.455-3.095
		c0-5.983-4.85-10.833-10.833-10.833h-191.89c-5.983,0-10.832,4.85-10.832,10.833c0,5.983,4.85,10.832,10.832,10.832h57.712
		c-0.292,0.981-0.454,2.019-0.454,3.095c0,1.664,0.386,3.234,1.056,4.643H284.047c-5.983,0-10.832,4.85-10.832,10.832
		c0,5.983,4.85,10.833,10.832,10.833h191.89c5.983,0,10.832-4.85,10.832-10.833c0-1.664-0.386-3.234-1.056-4.643h126.404
		c5.983,0,10.833-4.85,10.833-10.832C622.949,967.935,618.099,963.085,612.117,963.085z"/>
	<path opacity="0.26" fill="#FFFFFF" d="M1063.268,1022.317h-57.712c0.292-0.981,0.455-2.019,0.455-3.095
		c0-5.983-4.85-10.832-10.833-10.832h-191.89c-5.983,0-10.833,4.85-10.833,10.832c0,5.983,4.85,10.833,10.833,10.833H861
		c-0.292,0.981-0.455,2.019-0.455,3.095c0,1.664,0.386,3.234,1.056,4.642H735.198c-5.983,0-10.833,4.85-10.833,10.833
		c0,5.983,4.85,10.833,10.833,10.833h191.89c5.983,0,10.833-4.85,10.833-10.833c0-1.664-0.386-3.234-1.056-4.642h126.404
		c5.983,0,10.832-4.85,10.832-10.833C1074.1,1027.167,1069.25,1022.317,1063.268,1022.317z"/>
	<path opacity="0.26" fill="#FFFFFF" d="M1505.534,943.341h-57.712c0.292-0.981,0.454-2.019,0.454-3.095
		c0-5.983-4.85-10.833-10.833-10.833h-191.89c-5.983,0-10.833,4.85-10.833,10.833c0,5.983,4.85,10.832,10.833,10.832h57.712
		c-0.292,0.981-0.455,2.019-0.455,3.095c0,1.664,0.386,3.234,1.057,4.642h-126.404c-5.983,0-10.833,4.85-10.833,10.833
		c0,5.983,4.85,10.832,10.833,10.832h191.89c5.983,0,10.833-4.85,10.833-10.832c0-1.664-0.386-3.234-1.056-4.643h126.404
		c5.983,0,10.833-4.85,10.833-10.832C1516.367,948.191,1511.517,943.341,1505.534,943.341z"/>
</g>
</svg>
