<?xml version="1.0" encoding="utf-8"?>
<!-- Generator: Adobe Illustrator 17.0.0, SVG Export Plug-In . SVG Version: 6.00 Build 0)  -->
<!DOCTYPE svg PUBLIC "-//W3C//DTD SVG 1.1//EN" "http://www.w3.org/Graphics/SVG/1.1/DTD/svg11.dtd">
<svg version="1.1" id="Layer_1" xmlns="http://www.w3.org/2000/svg" xmlns:xlink="http://www.w3.org/1999/xlink" x="0px" y="0px"
	 width="1206.125px" height="908.963px" viewBox="0 0 1206.125 908.963" enable-background="new 0 0 1206.125 908.963"
	 xml:space="preserve">
<g>
</g>
<rect x="137.417" y="801.092" fill="#010101" width="807" height="13"/>
<rect x="118.25" y="801.092" fill="#010101" width="13" height="13"/>
<rect x="99.583" y="801.092" fill="#010101" width="13" height="13"/>
<text transform="matrix(1 0 0 1 225.0099 590.2595)" fill="#CBA35A" font-family="'Chonburi-Regular'" font-size="12">HONOLULU, HAWAII</text>
<g>
	<path id="rect13925_2_" sodipodi:nodetypes="cccc" inkscape:connector-curvature="0" fill="#F1C020" d="M429.314,576.396
		l46.431,101.408h-92.862L429.314,576.396z"/>
	<path id="path13928_2_" sodipodi:nodetypes="cccc" inkscape:connector-curvature="0" fill="#CBA35A" d="M429.314,582.111
		l41.198,89.979h-82.396L429.314,582.111z"/>
	<path id="path13930_2_" sodipodi:nodetypes="cccc" inkscape:connector-curvature="0" fill="#D9B75D" d="M429.314,590.056
		l40.246,87.898h-80.491L429.314,590.056z"/>
	<path id="path13932_2_" sodipodi:nodetypes="cccc" inkscape:connector-curvature="0" fill="#637580" d="M429.314,598.117
		l32.864,73.92h-65.729L429.314,598.117z"/>
	<path id="rect13934_2_" sodipodi:nodetypes="ccccc" inkscape:connector-curvature="0" fill="#F1C020" d="M381.692,678.049h97.186
		l17.959,15.971H363.734L381.692,678.049z"/>
	<path id="path13943_2_" sodipodi:nodetypes="cccscccaccccccsc" inkscape:connector-curvature="0" fill="#F1C020" d="
		M388.705,678.227l-7.101-0.109v3.937c0,0-2.906-4.027-3.933-6.777c-1.996-5.35-2.84-14.365-2.84-14.365h1.857l0.328-1.584
		c0,0-0.94-0.282-1.202-0.655c-0.422-0.604-0.328-2.185-0.328-2.185l1.311,0.109l0.218,0.983l1.202,0.437v3.823l-1.092,0.218
		c0,0,0.417,7.966,3.496,11.088C382.856,675.414,388.705,678.228,388.705,678.227L388.705,678.227z"/>
	<path id="path13945_2_" sodipodi:nodetypes="cccscccaccccccsc" inkscape:connector-curvature="0" fill="#F1C020" d="
		M471.75,678.122l7.101-0.109v3.937c0,0,2.906-4.027,3.933-6.777c1.996-5.35,2.84-14.365,2.84-14.365h-1.857l-0.328-1.584
		c0,0,0.94-0.282,1.202-0.655c0.422-0.604,0.328-2.185,0.328-2.185l-1.311,0.109l-0.218,0.983l-1.202,0.437v3.823l1.092,0.218
		c0,0-0.417,7.966-3.496,11.088C477.6,675.308,471.751,678.122,471.75,678.122L471.75,678.122z"/>
	<path id="path13937_2_" sodipodi:nodetypes="ccccc" inkscape:connector-curvature="0" fill="#CBA35A" d="M383.323,679.192h93.211
		l15.248,12.852H368.075L383.323,679.192z"/>
	<path id="path13939_2_" sodipodi:nodetypes="ccccc" inkscape:connector-curvature="0" fill="#F1C020" d="M360.259,694.09h140.051
		l25.88,15.971H334.38L360.259,694.09z"/>
	<path id="path13947_2_" sodipodi:nodetypes="cccscccaccccccsc" inkscape:connector-curvature="0" fill="#F1C020" d="
		M493.237,694.157l7.101-0.109v3.937c0,0,2.906-4.027,3.933-6.777c1.996-5.35,2.84-14.365,2.84-14.365h-1.857l-0.328-1.584
		c0,0,0.94-0.282,1.202-0.655c0.422-0.604,0.328-2.185,0.328-2.185l-1.311,0.109l-0.218,0.983l-1.202,0.437v3.823l1.092,0.218
		c0,0-0.417,7.966-3.496,11.088C499.087,691.344,493.238,694.158,493.237,694.157L493.237,694.157z"/>
	<path id="path13949_2_" sodipodi:nodetypes="cccscccaccccccsc" inkscape:connector-curvature="0" fill="#F1C020" d="
		M367.088,694.573l-7.101-0.109v3.937c0,0-2.906-4.027-3.933-6.777c-1.996-5.35-2.84-14.365-2.84-14.365h1.857l0.328-1.584
		c0,0-0.94-0.282-1.202-0.655c-0.422-0.604-0.328-2.185-0.328-2.185l1.311,0.109l0.218,0.983l1.202,0.437v3.823l-1.092,0.219
		c0,0,0.417,7.966,3.496,11.088C361.239,691.76,367.088,694.574,367.088,694.573L367.088,694.573z"/>
	<path id="path13951_2_" sodipodi:nodetypes="cccscccaccccccsc" inkscape:connector-curvature="0" fill="#F1C020" d="M517.2,709.849
		l7.101-0.109v3.937c0,0,2.906-4.027,3.933-6.777c1.996-5.35,2.84-14.365,2.84-14.365h-1.857l-0.328-1.584
		c0,0,0.94-0.282,1.202-0.655c0.422-0.604,0.328-2.185,0.328-2.185l-1.311,0.109l-0.218,0.983l-1.202,0.437v3.823l1.092,0.218
		c0,0-0.417,7.966-3.496,11.088C523.049,707.035,517.2,709.849,517.2,709.849L517.2,709.849z"/>
	<path id="path13953_2_" sodipodi:nodetypes="cccscccaccccccsc" inkscape:connector-curvature="0" fill="#F1C020" d="
		M343.205,709.849l-7.101-0.109v3.937c0,0-2.906-4.027-3.933-6.777c-1.996-5.35-2.84-14.365-2.84-14.365h1.857l0.328-1.584
		c0,0-0.94-0.282-1.202-0.655c-0.422-0.604-0.328-2.185-0.328-2.185l1.311,0.109l0.218,0.983l1.202,0.437v3.823l-1.092,0.218
		c0,0,0.417,7.966,3.496,11.088C337.356,707.035,343.205,709.849,343.205,709.849L343.205,709.849z"/>
	<path id="path13941_2_" sodipodi:nodetypes="ccccc" inkscape:connector-curvature="0" fill="#CBA35A" d="M362.609,695.232h134.324
		l21.973,12.852H340.636L362.609,695.232z"/>
	<rect id="rect17422_2_" x="459.579" y="718.411" fill="#CBA35A" width="38.453" height="66.452"/>
	<rect id="rect17420_2_" x="362.14" y="718.378" fill="#CBA35A" width="38.453" height="66.452"/>
	<path id="rect17424_2_" inkscape:connector-curvature="0" fill="#F9CC50" d="M361.019,714.986v18.917h40.725v-18.917H361.019z
		 M458.239,714.986v18.917h40.353v-18.917H458.239z"/>
	<rect id="rect13957_2_" x="335.325" y="708.96" fill="#F1C020" width="189.583" height="3.704"/>
	<rect id="rect17600_2_" x="360.151" y="719.435" fill="#CBA35A" width="139.211" height="1.32"/>
	<rect id="rect17602_4_" x="360.214" y="729.73" fill="#F9F5B8" width="42.305" height="1.32"/>
	<rect id="rect17602_1_" x="457.363" y="729.73" fill="#F9F5B8" width="42.305" height="1.32"/>
	<g id="g17371_2_" transform="matrix(1.1382384,0,0,1.4965429,-157.35216,-638.19829)">
		<rect id="rect17275_2_" x="455.451" y="906.367" fill="#F9F5B8" width="1.419" height="2.989"/>
		<rect id="rect17277_2_" x="458.06" y="906.367" fill="#F9F5B8" width="1.419" height="2.989"/>
		<rect id="rect17279_2_" x="460.67" y="906.367" fill="#F9F5B8" width="1.419" height="2.989"/>
		<rect id="rect17281_2_" x="463.279" y="906.367" fill="#F9F5B8" width="1.419" height="2.989"/>
		<rect id="rect17283_2_" x="465.889" y="906.367" fill="#F9F5B8" width="1.419" height="2.989"/>
		<rect id="rect17285_2_" x="468.499" y="906.367" fill="#F9F5B8" width="1.419" height="2.989"/>
		<rect id="rect17287_2_" x="471.108" y="906.367" fill="#F9F5B8" width="1.419" height="2.989"/>
		<rect id="rect17289_2_" x="473.717" y="906.367" fill="#F9F5B8" width="1.419" height="2.989"/>
		<rect id="rect17291_2_" x="476.327" y="906.367" fill="#F9F5B8" width="1.419" height="2.989"/>
		<rect id="rect17293_2_" x="478.937" y="906.367" fill="#F9F5B8" width="1.419" height="2.989"/>
		<rect id="rect17295_2_" x="481.546" y="906.367" fill="#F9F5B8" width="1.419" height="2.989"/>
		<rect id="rect17297_2_" x="484.156" y="906.367" fill="#F9F5B8" width="1.419" height="2.989"/>
		<rect id="rect17299_2_" x="486.765" y="906.367" fill="#F9F5B8" width="1.419" height="2.989"/>
		<rect id="rect17301_2_" x="489.375" y="906.367" fill="#F9F5B8" width="1.419" height="2.989"/>
		<rect id="rect17303_2_" x="491.985" y="906.367" fill="#F9F5B8" width="1.419" height="2.989"/>
		<rect id="rect17305_2_" x="494.594" y="906.367" fill="#F9F5B8" width="1.419" height="2.989"/>
		<rect id="rect17307_2_" x="497.204" y="906.367" fill="#F9F5B8" width="1.419" height="2.989"/>
		<rect id="rect17309_2_" x="499.813" y="906.367" fill="#F9F5B8" width="1.419" height="2.989"/>
		<rect id="rect17311_2_" x="502.423" y="906.367" fill="#F9F5B8" width="1.419" height="2.989"/>
		<rect id="rect17313_2_" x="505.032" y="906.367" fill="#F9F5B8" width="1.419" height="2.989"/>
		<rect id="rect17315_2_" x="507.642" y="906.367" fill="#F9F5B8" width="1.419" height="2.989"/>
		<rect id="rect17317_2_" x="510.251" y="906.367" fill="#F9F5B8" width="1.419" height="2.989"/>
		<rect id="rect17319_2_" x="512.861" y="906.367" fill="#F9F5B8" width="1.419" height="2.989"/>
		<rect id="rect17321_2_" x="515.471" y="906.367" fill="#F9F5B8" width="1.419" height="2.989"/>
		<rect id="rect17323_2_" x="518.08" y="906.367" fill="#F9F5B8" width="1.419" height="2.989"/>
		<rect id="rect17325_2_" x="520.69" y="906.367" fill="#F9F5B8" width="1.419" height="2.989"/>
		<rect id="rect17327_2_" x="523.299" y="906.367" fill="#F9F5B8" width="1.419" height="2.989"/>
		<rect id="rect17329_2_" x="525.909" y="906.367" fill="#F9F5B8" width="1.419" height="2.989"/>
		<rect id="rect17331_2_" x="528.518" y="906.367" fill="#F9F5B8" width="1.419" height="2.989"/>
		<rect id="rect17333_2_" x="531.128" y="906.367" fill="#F9F5B8" width="1.419" height="2.989"/>
		<rect id="rect17335_2_" x="533.737" y="906.367" fill="#F9F5B8" width="1.419" height="2.989"/>
		<rect id="rect17337_2_" x="536.347" y="906.367" fill="#F9F5B8" width="1.419" height="2.989"/>
		<rect id="rect17339_2_" x="538.957" y="906.367" fill="#F9F5B8" width="1.419" height="2.989"/>
		<rect id="rect17341_2_" x="541.566" y="906.367" fill="#F9F5B8" width="1.419" height="2.989"/>
		<rect id="rect17343_2_" x="544.176" y="906.367" fill="#F9F5B8" width="1.419" height="2.989"/>
		<rect id="rect17345_2_" x="546.785" y="906.367" fill="#F9F5B8" width="1.419" height="2.989"/>
		<rect id="rect17347_2_" x="549.395" y="906.367" fill="#F9F5B8" width="1.419" height="2.989"/>
		<rect id="rect17349_2_" x="552.004" y="906.367" fill="#F9F5B8" width="1.419" height="2.989"/>
		<rect id="rect17351_2_" x="554.614" y="906.367" fill="#F9F5B8" width="1.419" height="2.989"/>
		<rect id="rect17353_2_" x="557.224" y="906.367" fill="#F9F5B8" width="1.419" height="2.989"/>
		<rect id="rect17355_2_" x="559.833" y="906.367" fill="#F9F5B8" width="1.419" height="2.989"/>
		<rect id="rect17357_2_" x="562.443" y="906.367" fill="#F9F5B8" width="1.419" height="2.989"/>
		<rect id="rect17359_2_" x="565.052" y="906.367" fill="#F9F5B8" width="1.419" height="2.989"/>
		<rect id="rect17361_2_" x="567.662" y="906.367" fill="#F9F5B8" width="1.419" height="2.989"/>
		<rect id="rect17363_2_" x="570.271" y="906.367" fill="#F9F5B8" width="1.419" height="2.989"/>
		<rect id="rect17365_2_" x="572.881" y="906.367" fill="#F9F5B8" width="1.419" height="2.989"/>
		<rect id="rect17367_2_" x="575.491" y="906.367" fill="#F9F5B8" width="1.419" height="2.989"/>
	</g>
	<rect id="rect13959_2_" x="360.966" y="712.618" fill="#CBA35A" width="138.691" height="5.756"/>
	<rect id="rect17560_2_" x="335.018" y="780.055" fill="#CBA35A" width="11.615" height="4.752"/>
	<rect id="rect17556_2_" x="336.074" y="730.426" fill="#CBA35A" width="9.503" height="49.629"/>
	<rect id="rect17558_2_" x="334.226" y="776.623" fill="#F9CC50" width="13.199" height="4.752"/>
	<rect id="rect17562_2_" x="335.282" y="712.664" fill="#F9CC50" width="11.087" height="20.402"/>
	<rect id="rect17564_2_" x="333.566" y="717.755" fill="#F9F5B8" width="14.519" height="1.32"/>
	<rect id="rect17568_2_" x="333.566" y="728.05" fill="#F9F5B8" width="14.519" height="1.32"/>
	<rect id="rect17580_2_" x="513.734" y="780.055" fill="#CBA35A" width="11.615" height="4.752"/>
	<rect id="rect17582_2_" x="514.79" y="730.426" fill="#CBA35A" width="9.503" height="49.629"/>
	<rect id="rect17584_2_" x="512.943" y="776.623" fill="#F9CC50" width="13.199" height="4.752"/>
	<rect id="rect17586_2_" x="513.998" y="712.664" fill="#F9CC50" width="11.087" height="20.401"/>
	<rect id="rect17588_2_" x="512.283" y="719.435" fill="#F9F5B8" width="14.519" height="1.32"/>
	<rect id="rect17590_2_" x="512.283" y="729.73" fill="#F9F5B8" width="14.519" height="1.32"/>
	<g id="g17610_2_" transform="matrix(1.3735049,0,0,1.6589575,214.37926,-465.8433)">
		<rect id="rect17604_2_" x="148.273" y="747.436" fill="#F9CC50" width="17.159" height="6.468"/>
		<rect id="rect17606_2_" x="143.126" y="746.38" fill="#CBA35A" width="5.544" height="7.523"/>
		<rect id="rect17608_2_" x="164.64" y="746.38" fill="#CBA35A" width="5.544" height="7.523"/>
	</g>
	<g id="g17623_2_" transform="matrix(1.3735049,0,0,1.6589575,202.97868,-465.8433)">
		<rect id="rect17625_2_" x="121.375" y="747.436" fill="#CBA35A" width="17.159" height="6.468"/>
		<rect id="rect17627_2_" x="116.227" y="746.38" fill="#CBA35A" width="5.544" height="7.523"/>
		<rect id="rect17629_2_" x="137.742" y="746.38" fill="#CBA35A" width="5.544" height="7.523"/>
	</g>
	<g id="g17631_2_" transform="matrix(1.3735049,0,0,1.6589575,226.02194,-465.8433)">
		<rect id="rect17633_2_" x="175.743" y="747.436" fill="#CBA35A" width="17.159" height="6.468"/>
		<rect id="rect17635_2_" x="170.596" y="746.38" fill="#CBA35A" width="5.544" height="7.523"/>
		<rect id="rect17637_2_" x="192.11" y="746.38" fill="#CBA35A" width="5.544" height="7.523"/>
	</g>
	<g id="g17653_2_" transform="translate(101.34365,2.8999839)">
		<rect id="rect17639_2_" x="220.679" y="781.767" fill="#D6D7D8" width="214.354" height="2.64"/>
		<rect id="rect17641_2_" x="222.262" y="784.143" fill="#B9B9B9" width="211.186" height="3.168"/>
		<rect id="rect17643_2_" x="220.151" y="786.783" fill="#D6D7D8" width="215.41" height="3.168"/>
		<rect id="rect17645_2_" x="218.567" y="789.687" fill="#B9B9B9" width="218.578" height="3.168"/>
		<rect id="rect17647_2_" x="216.719" y="792.062" fill="#D6D7D8" width="222.274" height="3.168"/>
		<rect id="rect17649_2_" x="214.607" y="794.966" fill="#AEAEAE" width="226.497" height="3.168"/>
		<rect id="rect17651_2_" x="212.495" y="796.814" fill="#AEAEAE" width="230.721" height="1.32"/>
	</g>
	<g id="g17668_2_" transform="matrix(1,0,0,1.2095102,168.07609,-143.40815)">
		<rect id="rect17662_2_" x="223.638" y="774.97" fill="#E6E6E5" width="75.235" height="6.072"/>
		<rect id="rect17664_2_" x="227.861" y="771.132" fill="#E6E6E5" width="66.788" height="6.072"/>
		<rect id="rect17666_2_" x="231.293" y="767.172" fill="#E6E6E5" width="59.924" height="6.072"/>
	</g>
	<path id="path17673_2_" sodipodi:nodetypes="ccccc" inkscape:connector-curvature="0" fill="#D3D3D3" d="M391.992,801.45h73.574
		l-13.316-17.069h-44.912L391.992,801.45z"/>
	<path id="path17675_2_" sodipodi:nodetypes="ccccc" inkscape:connector-curvature="0" fill="#E6E6E5" d="M399.745,799.21h58.069
		l-9.157-12.496h-38.036L399.745,799.21z"/>
	<path id="path18158_2_" inkscape:connector-curvature="0" fill="#F1C020" d="M426.66,636.641l-1.218,5.375l1.391,3.984v3.644
		l1.044,1.209l0.514,2.949l-1.905-0.348l-0.522-2.601l-2.253-2.592l-0.174,1.905l1.739,5.889l2.766,3.992l-0.174,2.253l-1.383,0.348
		l-0.87-2.601l-3.462-5.201v-12.83l-1.739-4.854l-3.462,6.071l2.601,2.94l-0.696,11.968l-2.253,1.557l-3.644-2.079l-2.775,0.696
		v2.427l7.628,1.209l0.87-2.079l4.506,2.601v1.557h6.071h0.174h6.071v-1.557l4.506-2.601l0.87,2.079l7.628-1.209v-2.427
		l-2.775-0.696l-3.644,2.079l-2.253-1.557l-0.696-11.968l2.601-2.94l-3.462-6.071l-1.739,4.854v12.83l-3.462,5.201l-0.87,2.601
		l-1.383-0.348l-0.174-2.253l2.766-3.992l1.739-5.889l-0.174-1.905l-2.253,2.592l-0.522,2.601l-1.905,0.348l0.522-2.949l1.035-1.209
		V646l1.391-3.984l-1.218-5.375l-2.601,4.332l-0.083,11.529l-0.091-11.529L426.66,636.641L426.66,636.641z"/>
	<polygon fill="#F1C020" points="386.201,675.85 386.201,678.532 473.974,678.805 472.928,676.623 390.246,676.259 	"/>
	<polygon fill="#F1C020" points="475.559,677.685 480.23,676.935 479.497,678.333 477.536,678.805 474.997,678.265 	"/>
	<polygon fill="#F1C020" points="501.201,693.214 499.519,694.577 364.702,694.537 366.065,692.986 	"/>
	<polygon fill="#F1C020" points="500.519,695.232 499.658,693.211 500.883,692.986 501.201,694.109 	"/>
	<polygon fill="#7E3826" points="353.976,784.718 353.976,778.946 506.391,778.946 506.391,784.83 	"/>
	<rect x="428.887" y="550.986" fill="#F1C020" width="0.887" height="21.068"/>
	<path fill="#F1C020" d="M433.176,570.569l-3.829-2.785l0-0.025l-0.017,0.012l-0.017-0.012l0,0.025l-3.829,2.785
		c-0.589,0.429-0.798,1.212-0.5,1.877l4.329,9.665c0,0,0.007-2.778,0.012-4.899l0.011,0.01c0.005,2.122,0.012,4.89,0.012,4.89
		l4.329-9.665C433.974,571.78,433.766,570.997,433.176,570.569z"/>
</g>
<path fill="#010101" d="M382.447,635.22c-13.933-2.404-27.332-7.48-39.566-14.554c-9.726-5.623-18.453-13.22-21.669-24.341
	c-0.356-1.232,1.519-1.928,1.877-0.691c3.416,11.811,13.194,19.262,23.59,24.861c11.33,6.102,23.423,10.566,36.119,12.756
	C384.067,633.47,383.717,635.439,382.447,635.22z"/>
<g>
	<path fill="#F1D7C8" d="M795.454,172.34c-0.077,0.988-0.146,1.979-0.151,2.986l0.052,15.489h80.856v-15.289
		c0-1.076-0.078-2.132-0.161-3.187H795.454z"/>
	<polygon fill="#C5AFA5" points="813.192,186.089 813.192,172.34 795.454,172.34 795.454,190.815 	"/>
	<polygon fill="#C5AFA5" points="858.319,186.089 858.319,172.34 876.056,172.34 876.056,190.815 	"/>
	<path fill="#EEB33B" d="M835.758,135.067c-21.269,0-38.669,16.422-40.298,37.273h80.597
		C874.426,151.489,857.027,135.067,835.758,135.067z"/>
	<polygon fill="#BDB8BB" points="788.272,193.823 788.272,189.096 813.192,186.089 857.59,186.089 882.51,189.956 882.51,193.823 	
		"/>
	<polygon fill="#C5AFA5" points="788.272,193.823 813.192,190.815 813.192,269.012 788.272,269.012 	"/>
	<rect x="813.192" y="190.815" fill="#F1D7C8" width="44.398" height="78.197"/>
	<rect x="782.185" y="269.012" fill="#BDB8BB" width="106.626" height="7.635"/>
	<path fill="#DED7CF" d="M784.363,306.907c0.999-0.446,0-30.26,0-30.26h99.764v44.783h-99.764V306.907z"/>
	<polygon fill="#DC8162" points="821.445,290.696 821.445,266.434 850.071,266.434 850.071,298.456 821.445,298.456 	"/>
	<rect x="658.515" y="336.262" fill="#273D53" width="354.037" height="56.921"/>
	<polygon fill="#273D53" points="551.102,415.907 540.79,415.907 834.388,284.922 1130.278,415.907 	"/>
	<polygon fill="#DED7CF" points="561.7,415.907 551.102,415.907 834.388,292.655 1117.388,415.907 1107.077,415.907 	"/>
	<rect x="561.7" y="429.561" fill="#DC8162" width="545.377" height="371.474"/>
	<g>
		<rect x="559.695" y="429.561" fill="#BDB8BB" width="18.905" height="4.869"/>
		<rect x="561.7" y="434.43" fill="#F1967D" width="14.895" height="118.872"/>
		<rect x="561.7" y="434.43" fill="#A9978B" width="14.895" height="3.545"/>
		<rect x="559.695" y="553.248" fill="#BDB8BB" width="18.905" height="4.869"/>
		<rect x="561.7" y="549.703" fill="#A9978B" width="14.895" height="3.545"/>
		<rect x="591.776" y="429.561" fill="#BDB8BB" width="18.905" height="4.869"/>
		<rect x="593.781" y="434.43" fill="#F1967D" width="14.895" height="118.872"/>
		<rect x="593.781" y="434.43" fill="#A9978B" width="14.895" height="3.545"/>
		<rect x="591.776" y="553.248" fill="#BDB8BB" width="18.905" height="4.869"/>
		<rect x="593.781" y="549.703" fill="#A9978B" width="14.895" height="3.545"/>
		<rect x="559.695" y="576.503" fill="#BDB8BB" width="18.905" height="4.869"/>
		<rect x="561.7" y="581.372" fill="#F1967D" width="14.895" height="92.376"/>
		<rect x="561.7" y="581.372" fill="#A9978B" width="14.895" height="3.545"/>
		<rect x="559.695" y="677.293" fill="#BDB8BB" width="18.905" height="4.869"/>
		<rect x="561.7" y="673.749" fill="#A9978B" width="14.895" height="3.545"/>
		<rect x="591.776" y="576.503" fill="#BDB8BB" width="18.905" height="4.869"/>
		<rect x="593.781" y="581.372" fill="#F1967D" width="14.895" height="92.376"/>
		<rect x="593.781" y="581.372" fill="#A9978B" width="14.895" height="3.545"/>
		<rect x="591.776" y="677.293" fill="#BDB8BB" width="18.905" height="4.869"/>
		<rect x="593.781" y="673.749" fill="#A9978B" width="14.895" height="3.545"/>
		<rect x="559.695" y="695.375" fill="#BDB8BB" width="18.905" height="4.869"/>
		<rect x="561.7" y="700.244" fill="#F1967D" width="14.895" height="92.376"/>
		<rect x="561.7" y="700.244" fill="#A9978B" width="14.895" height="3.545"/>
		<rect x="559.695" y="796.165" fill="#BDB8BB" width="18.905" height="4.869"/>
		<rect x="561.7" y="792.62" fill="#A9978B" width="14.895" height="3.545"/>
		<rect x="591.776" y="695.375" fill="#BDB8BB" width="18.905" height="4.869"/>
		<rect x="593.781" y="700.244" fill="#F1967D" width="14.895" height="92.376"/>
		<rect x="593.781" y="700.244" fill="#A9978B" width="14.895" height="3.545"/>
		<rect x="591.776" y="796.165" fill="#BDB8BB" width="18.905" height="4.869"/>
		<rect x="593.781" y="792.62" fill="#A9978B" width="14.895" height="3.545"/>
	</g>
	<g>
		<rect x="991.642" y="429.587" fill="#BDB8BB" width="18.905" height="4.869"/>
		<rect x="993.647" y="434.457" fill="#F1967D" width="14.895" height="118.872"/>
		<rect x="993.647" y="434.457" fill="#A9978B" width="14.895" height="3.545"/>
		<rect x="991.642" y="553.275" fill="#BDB8BB" width="18.905" height="4.869"/>
		<rect x="993.647" y="549.73" fill="#A9978B" width="14.895" height="3.545"/>
	</g>
	<g>
		<rect x="924.616" y="429.614" fill="#BDB8BB" width="18.905" height="4.869"/>
		<rect x="926.621" y="434.484" fill="#F1967D" width="14.895" height="118.872"/>
		<rect x="926.621" y="434.484" fill="#A9978B" width="14.895" height="3.545"/>
		<rect x="924.616" y="553.302" fill="#BDB8BB" width="18.905" height="4.869"/>
		<rect x="926.621" y="549.757" fill="#A9978B" width="14.895" height="3.545"/>
	</g>
	<g>
		<rect x="857.589" y="429.641" fill="#BDB8BB" width="18.905" height="4.869"/>
		<rect x="859.594" y="434.511" fill="#F1967D" width="14.895" height="118.872"/>
		<rect x="859.594" y="434.511" fill="#A9978B" width="14.895" height="3.545"/>
		<rect x="857.589" y="553.328" fill="#BDB8BB" width="18.905" height="4.869"/>
		<rect x="859.594" y="549.784" fill="#A9978B" width="14.895" height="3.545"/>
	</g>
	<g>
		<rect x="790.563" y="429.668" fill="#BDB8BB" width="18.905" height="4.869"/>
		<rect x="792.568" y="434.538" fill="#F1967D" width="14.895" height="118.872"/>
		<rect x="792.568" y="434.537" fill="#A9978B" width="14.895" height="3.545"/>
		<rect x="790.563" y="553.355" fill="#BDB8BB" width="18.905" height="4.869"/>
		<rect x="792.568" y="549.811" fill="#A9978B" width="14.895" height="3.545"/>
	</g>
	<g>
		<rect x="723.537" y="429.695" fill="#BDB8BB" width="18.905" height="4.869"/>
		<rect x="725.542" y="434.564" fill="#F1967D" width="14.895" height="118.872"/>
		<rect x="725.542" y="434.564" fill="#A9978B" width="14.895" height="3.545"/>
		<rect x="723.537" y="553.382" fill="#BDB8BB" width="18.905" height="4.869"/>
		<rect x="725.542" y="549.837" fill="#A9978B" width="14.895" height="3.545"/>
	</g>
	<g>
		<rect x="656.511" y="429.722" fill="#BDB8BB" width="18.905" height="4.869"/>
		<rect x="658.516" y="434.591" fill="#F1967D" width="14.895" height="118.872"/>
		<rect x="658.516" y="434.591" fill="#A9978B" width="14.895" height="3.545"/>
		<rect x="656.511" y="553.409" fill="#BDB8BB" width="18.905" height="4.869"/>
		<rect x="658.516" y="549.864" fill="#A9978B" width="14.895" height="3.545"/>
	</g>
	<g>
		<rect x="656.511" y="576.503" fill="#BDB8BB" width="18.905" height="4.869"/>
		<rect x="658.516" y="581.372" fill="#F1967D" width="14.895" height="92.376"/>
		<rect x="658.516" y="581.372" fill="#A9978B" width="14.895" height="3.545"/>
		<rect x="656.511" y="677.293" fill="#BDB8BB" width="18.905" height="4.869"/>
		<rect x="658.516" y="673.749" fill="#A9978B" width="14.895" height="3.545"/>
	</g>
	<g>
		<rect x="723.537" y="576.503" fill="#BDB8BB" width="18.905" height="4.869"/>
		<rect x="725.542" y="581.372" fill="#F1967D" width="14.895" height="92.376"/>
		<rect x="725.542" y="581.372" fill="#A9978B" width="14.895" height="3.545"/>
		<rect x="723.537" y="677.293" fill="#BDB8BB" width="18.905" height="4.869"/>
		<rect x="725.542" y="673.749" fill="#A9978B" width="14.895" height="3.545"/>
	</g>
	<g>
		<rect x="790.563" y="576.503" fill="#BDB8BB" width="18.905" height="4.869"/>
		<rect x="792.568" y="581.372" fill="#F1967D" width="14.895" height="92.376"/>
		<rect x="792.568" y="581.372" fill="#A9978B" width="14.895" height="3.545"/>
		<rect x="790.563" y="677.293" fill="#BDB8BB" width="18.905" height="4.869"/>
		<rect x="792.568" y="673.749" fill="#A9978B" width="14.895" height="3.545"/>
	</g>
	<g>
		<rect x="857.589" y="576.503" fill="#BDB8BB" width="18.905" height="4.869"/>
		<rect x="859.594" y="581.372" fill="#F1967D" width="14.895" height="92.376"/>
		<rect x="859.594" y="581.372" fill="#A9978B" width="14.895" height="3.545"/>
		<rect x="857.589" y="677.293" fill="#BDB8BB" width="18.905" height="4.869"/>
		<rect x="859.594" y="673.749" fill="#A9978B" width="14.895" height="3.545"/>
	</g>
	<g>
		<rect x="924.616" y="576.503" fill="#BDB8BB" width="18.905" height="4.869"/>
		<rect x="926.621" y="581.372" fill="#F1967D" width="14.895" height="92.376"/>
		<rect x="926.621" y="581.372" fill="#A9978B" width="14.895" height="3.545"/>
		<rect x="924.616" y="677.293" fill="#BDB8BB" width="18.905" height="4.869"/>
		<rect x="926.621" y="673.749" fill="#A9978B" width="14.895" height="3.545"/>
	</g>
	<g>
		<rect x="991.642" y="576.503" fill="#BDB8BB" width="18.905" height="4.869"/>
		<rect x="993.647" y="581.372" fill="#F1967D" width="14.895" height="92.376"/>
		<rect x="993.647" y="581.372" fill="#A9978B" width="14.895" height="3.545"/>
		<rect x="991.642" y="677.293" fill="#BDB8BB" width="18.905" height="4.869"/>
		<rect x="993.647" y="673.749" fill="#A9978B" width="14.895" height="3.545"/>
	</g>
	<g>
		<rect x="656.511" y="695.375" fill="#BDB8BB" width="18.905" height="4.869"/>
		<rect x="658.516" y="700.244" fill="#F1967D" width="14.895" height="92.376"/>
		<rect x="658.516" y="700.244" fill="#A9978B" width="14.895" height="3.545"/>
		<rect x="656.511" y="796.165" fill="#BDB8BB" width="18.905" height="4.869"/>
		<rect x="658.516" y="792.62" fill="#A9978B" width="14.895" height="3.545"/>
	</g>
	<g>
		<rect x="723.537" y="695.375" fill="#BDB8BB" width="18.905" height="4.869"/>
		<rect x="725.542" y="700.244" fill="#F1967D" width="14.895" height="92.376"/>
		<rect x="725.542" y="700.244" fill="#A9978B" width="14.895" height="3.545"/>
		<rect x="723.537" y="796.165" fill="#BDB8BB" width="18.905" height="4.869"/>
		<rect x="725.542" y="792.62" fill="#A9978B" width="14.895" height="3.545"/>
	</g>
	<g>
		<rect x="790.563" y="695.375" fill="#BDB8BB" width="18.905" height="4.869"/>
		<rect x="792.568" y="700.244" fill="#F1967D" width="14.895" height="92.376"/>
		<rect x="792.568" y="700.244" fill="#A9978B" width="14.895" height="3.545"/>
		<rect x="790.563" y="796.165" fill="#BDB8BB" width="18.905" height="4.869"/>
		<rect x="792.568" y="792.62" fill="#A9978B" width="14.895" height="3.545"/>
	</g>
	<g>
		<rect x="857.589" y="695.375" fill="#BDB8BB" width="18.905" height="4.869"/>
		<rect x="859.594" y="700.244" fill="#F1967D" width="14.895" height="92.376"/>
		<rect x="859.594" y="700.244" fill="#A9978B" width="14.895" height="3.545"/>
		<rect x="857.589" y="796.165" fill="#BDB8BB" width="18.905" height="4.869"/>
		<rect x="859.594" y="792.62" fill="#A9978B" width="14.895" height="3.545"/>
	</g>
	<g>
		<rect x="924.616" y="695.375" fill="#BDB8BB" width="18.905" height="4.869"/>
		<rect x="926.621" y="700.244" fill="#F1967D" width="14.895" height="92.376"/>
		<rect x="926.621" y="700.244" fill="#A9978B" width="14.895" height="3.545"/>
		<rect x="924.616" y="796.165" fill="#BDB8BB" width="18.905" height="4.869"/>
		<rect x="926.621" y="792.62" fill="#A9978B" width="14.895" height="3.545"/>
	</g>
	<g>
		<rect x="991.642" y="695.375" fill="#BDB8BB" width="18.905" height="4.869"/>
		<rect x="993.647" y="700.244" fill="#F1967D" width="14.895" height="92.376"/>
		<rect x="993.647" y="700.244" fill="#A9978B" width="14.895" height="3.545"/>
		<rect x="991.642" y="796.165" fill="#BDB8BB" width="18.905" height="4.869"/>
		<rect x="993.647" y="792.62" fill="#A9978B" width="14.895" height="3.545"/>
	</g>
	<g>
		<rect x="1058.096" y="429.561" fill="#BDB8BB" width="18.905" height="4.869"/>
		<rect x="1060.101" y="434.43" fill="#F1967D" width="14.895" height="118.872"/>
		<rect x="1060.101" y="434.43" fill="#A9978B" width="14.895" height="3.545"/>
		<rect x="1058.096" y="553.248" fill="#BDB8BB" width="18.905" height="4.869"/>
		<rect x="1060.101" y="549.703" fill="#A9978B" width="14.895" height="3.545"/>
		<rect x="1090.177" y="429.561" fill="#BDB8BB" width="18.905" height="4.869"/>
		<rect x="1092.182" y="434.43" fill="#F1967D" width="14.895" height="118.872"/>
		<rect x="1092.182" y="434.43" fill="#A9978B" width="14.895" height="3.545"/>
		<rect x="1090.177" y="553.248" fill="#BDB8BB" width="18.905" height="4.869"/>
		<rect x="1092.182" y="549.703" fill="#A9978B" width="14.895" height="3.545"/>
		<rect x="1058.096" y="576.503" fill="#BDB8BB" width="18.905" height="4.869"/>
		<rect x="1060.101" y="581.372" fill="#F1967D" width="14.895" height="92.376"/>
		<rect x="1060.101" y="581.372" fill="#A9978B" width="14.895" height="3.545"/>
		<rect x="1058.096" y="677.293" fill="#BDB8BB" width="18.905" height="4.869"/>
		<rect x="1060.101" y="673.749" fill="#A9978B" width="14.895" height="3.545"/>
		<rect x="1090.177" y="576.503" fill="#BDB8BB" width="18.905" height="4.869"/>
		<rect x="1092.182" y="581.372" fill="#F1967D" width="14.895" height="92.376"/>
		<rect x="1092.182" y="581.372" fill="#A9978B" width="14.895" height="3.545"/>
		<rect x="1090.177" y="677.293" fill="#BDB8BB" width="18.905" height="4.869"/>
		<rect x="1092.182" y="673.749" fill="#A9978B" width="14.895" height="3.545"/>
		<rect x="1058.096" y="695.375" fill="#BDB8BB" width="18.905" height="4.869"/>
		<rect x="1060.101" y="700.244" fill="#F1967D" width="14.895" height="92.376"/>
		<rect x="1060.101" y="700.244" fill="#A9978B" width="14.895" height="3.545"/>
		<rect x="1058.096" y="796.165" fill="#BDB8BB" width="18.905" height="4.869"/>
		<rect x="1060.101" y="792.62" fill="#A9978B" width="14.895" height="3.545"/>
		<rect x="1090.177" y="695.375" fill="#BDB8BB" width="18.905" height="4.869"/>
		<rect x="1092.182" y="700.244" fill="#F1967D" width="14.895" height="92.376"/>
		<rect x="1092.182" y="700.244" fill="#A9978B" width="14.895" height="3.545"/>
		<rect x="1090.177" y="796.165" fill="#BDB8BB" width="18.905" height="4.869"/>
		<rect x="1092.182" y="792.62" fill="#A9978B" width="14.895" height="3.545"/>
	</g>
	<rect x="561.7" y="558.279" fill="#DED7CF" width="545.377" height="18.225"/>
	<rect x="561.7" y="682.163" fill="#DED7CF" width="545.377" height="13.212"/>
	<rect x="561.556" y="415.907" fill="#DED7CF" width="545.52" height="13.212"/>
	<path fill="#DC8162" d="M834.388,336.704c47.531,0,87.068,34.124,95.514,79.203h177.174L834.388,302.612L561.7,415.907h177.174
		C747.32,370.827,786.857,336.704,834.388,336.704z"/>
	<path fill="#F1D7C8" d="M834.388,336.704c-47.531,0-87.069,34.124-95.514,79.203h191.029
		C921.456,370.827,881.919,336.704,834.388,336.704z"/>
	<circle fill="#273D53" cx="699.619" cy="393.183" r="17.611"/>
	<circle fill="#273D53" cx="967.581" cy="393.183" r="17.611"/>
	<path fill="#E6D5CB" d="M614.989,549.869v-64.793c0-10.036,7.695-18.708,17.72-19.176c10.661-0.497,19.492,8.033,19.492,18.585
		v65.384c0,0.03-0.025,0.055-0.055,0.055h-37.103C615.014,549.924,614.989,549.899,614.989,549.869z"/>
	<path fill="#273D53" d="M638.158,547h-9.125c-6.141,0-11.12-4.979-11.12-11.12v-51.395c0-8.661,7.021-15.682,15.682-15.682l0,0
		c8.661,0,15.682,7.021,15.682,15.682v51.395C649.278,542.021,644.299,547,638.158,547z"/>
	<g>
		<path fill="#E6D5CB" d="M680.87,549.924v-65.439c0-10.258,8.346-18.606,18.606-18.606s18.606,8.348,18.606,18.606v65.439H680.87z"
			/>
		<path fill="#273D53" d="M704.039,547h-9.125c-6.141,0-11.12-4.979-11.12-11.12v-51.395c0-8.661,7.021-15.682,15.682-15.682l0,0
			c8.661,0,15.682,7.021,15.682,15.682v51.395C715.159,542.021,710.18,547,704.039,547z"/>
	</g>
	<g>
		<path fill="#E6D5CB" d="M747.896,549.924v-65.439c0-10.258,8.346-18.606,18.606-18.606s18.606,8.348,18.606,18.606v65.439H747.896
			z"/>
		<path fill="#273D53" d="M771.065,547h-9.125c-6.141,0-11.12-4.979-11.12-11.12v-51.395c0-8.661,7.021-15.682,15.682-15.682l0,0
			c8.661,0,15.682,7.021,15.682,15.682v51.395C782.185,542.021,777.206,547,771.065,547z"/>
	</g>
	<g>
		<path fill="#E6D5CB" d="M815.782,549.869v-64.793c0-10.036,7.695-18.708,17.72-19.176c10.661-0.497,19.492,8.033,19.492,18.585
			v65.384c0,0.03-0.025,0.055-0.055,0.055h-37.103C815.807,549.924,815.782,549.899,815.782,549.869z"/>
		<path fill="#273D53" d="M838.951,547h-9.125c-6.141,0-11.12-4.979-11.12-11.12v-51.395c0-8.661,7.021-15.682,15.682-15.682l0,0
			c8.661,0,15.682,7.021,15.682,15.682v51.395C850.071,542.021,845.092,547,838.951,547z"/>
	</g>
	<g>
		<path fill="#E6D5CB" d="M881.949,549.924v-65.439c0-10.258,8.346-18.606,18.606-18.606c10.26,0,18.606,8.348,18.606,18.606v65.439
			H881.949z"/>
		<path fill="#273D53" d="M905.118,547h-9.125c-6.141,0-11.12-4.979-11.12-11.12v-51.395c0-8.661,7.021-15.682,15.682-15.682h0
			c8.661,0,15.682,7.021,15.682,15.682v51.395C916.238,542.021,911.259,547,905.118,547z"/>
	</g>
	<g>
		<path fill="#E6D5CB" d="M948.975,549.924v-65.439c0-10.258,8.346-18.606,18.606-18.606c10.26,0,18.606,8.348,18.606,18.606v65.439
			H948.975z"/>
		<path fill="#273D53" d="M975.951,547h-16.739c-4.039,0-7.313-3.274-7.313-7.313v-59.009c0-6.559,5.317-11.876,11.876-11.876h7.614
			c6.559,0,11.876,5.317,11.876,11.876v59.009C983.264,543.726,979.99,547,975.951,547z"/>
	</g>
	<g>
		<path fill="#E6D5CB" d="M1015.715,549.924v-65.439c0-10.258,8.346-18.606,18.606-18.606c10.26,0,18.606,8.348,18.606,18.606
			v65.439H1015.715z"/>
		<path fill="#273D53" d="M1042.691,547h-16.739c-4.039,0-7.313-3.274-7.313-7.313v-59.009c0-6.559,5.317-11.876,11.876-11.876
			h7.614c6.559,0,11.876,5.317,11.876,11.876v59.009C1050.004,543.726,1046.73,547,1042.691,547z"/>
	</g>
	<g>
		<path fill="#E6D5CB" d="M681.013,671.355v-65.439c0-10.258,8.346-18.606,18.606-18.606c10.26,0,18.606,8.348,18.606,18.606v65.439
			H681.013z"/>
		<path fill="#273D53" d="M704.182,668.432h-9.125c-6.141,0-11.12-4.979-11.12-11.12v-51.395c0-8.661,7.021-15.682,15.682-15.682h0
			c8.661,0,15.682,7.021,15.682,15.682v51.395C715.302,663.453,710.323,668.432,704.182,668.432z"/>
	</g>
	<g>
		<path fill="#E6D5CB" d="M748.04,671.355v-65.439c0-10.258,8.346-18.606,18.606-18.606c10.26,0,18.606,8.348,18.606,18.606v65.439
			H748.04z"/>
		<path fill="#273D53" d="M771.208,668.432h-9.125c-6.141,0-11.12-4.979-11.12-11.12v-51.395c0-8.661,7.021-15.682,15.682-15.682h0
			c8.661,0,15.682,7.021,15.682,15.682v51.395C782.328,663.453,777.35,668.432,771.208,668.432z"/>
	</g>
	<g>
		<path fill="#E6D5CB" d="M815.925,671.355v-65.439c0-10.258,8.346-18.606,18.606-18.606c10.26,0,18.606,8.348,18.606,18.606v65.439
			H815.925z"/>
		<path fill="#273D53" d="M839.094,668.432h-9.125c-6.141,0-11.12-4.979-11.12-11.12v-51.395c0-8.661,7.021-15.682,15.682-15.682h0
			c8.661,0,15.682,7.021,15.682,15.682v51.395C850.214,663.453,845.235,668.432,839.094,668.432z"/>
	</g>
	<g>
		<path fill="#E6D5CB" d="M882.092,671.355v-65.439c0-10.258,8.346-18.606,18.606-18.606s18.606,8.348,18.606,18.606v65.439H882.092
			z"/>
		<path fill="#273D53" d="M905.261,668.432h-9.125c-6.141,0-11.12-4.979-11.12-11.12v-51.395c0-8.661,7.021-15.682,15.682-15.682
			l0,0c8.661,0,15.682,7.021,15.682,15.682v51.395C916.381,663.453,911.402,668.432,905.261,668.432z"/>
	</g>
	<g>
		<path fill="#E6D5CB" d="M949.119,671.355v-65.439c0-10.258,8.346-18.606,18.606-18.606s18.606,8.348,18.606,18.606v65.439H949.119
			z"/>
		<path fill="#273D53" d="M976.094,668.432h-16.739c-4.039,0-7.313-3.274-7.313-7.313V602.11c0-6.559,5.317-11.876,11.876-11.876
			h7.614c6.559,0,11.876,5.317,11.876,11.876v59.009C983.407,665.157,980.133,668.432,976.094,668.432z"/>
	</g>
	<g>
		<path fill="#E6D5CB" d="M948.975,794.392v-65.439c0-10.258,8.346-18.606,18.606-18.606c10.26,0,18.606,8.348,18.606,18.606v65.439
			H948.975z"/>
		<path fill="#273D53" d="M975.951,791.469h-16.739c-4.039,0-7.313-3.274-7.313-7.313v-59.009c0-6.559,5.317-11.876,11.876-11.876
			h7.614c6.559,0,11.876,5.317,11.876,11.876v59.009C983.264,788.194,979.99,791.469,975.951,791.469z"/>
	</g>
	<g>
		<path fill="#E6D5CB" d="M681.013,794.392v-65.439c0-10.258,8.346-18.606,18.606-18.606c10.26,0,18.606,8.348,18.606,18.606v65.439
			H681.013z"/>
		<path fill="#273D53" d="M704.182,791.469h-9.125c-6.141,0-11.12-4.979-11.12-11.12v-51.395c0-8.661,7.021-15.682,15.682-15.682h0
			c8.661,0,15.682,7.021,15.682,15.682v51.395C715.302,786.49,710.323,791.469,704.182,791.469z"/>
	</g>
	<g>
		<path fill="#E6D5CB" d="M815.925,794.392v-65.439c0-10.258,8.346-18.606,18.606-18.606c10.26,0,18.606,8.348,18.606,18.606v65.439
			H815.925z"/>
		<path fill="#273D53" d="M839.094,791.469h-9.125c-6.141,0-11.12-4.979-11.12-11.12v-51.395c0-8.661,7.021-15.682,15.682-15.682h0
			c8.661,0,15.682,7.021,15.682,15.682v51.395C850.214,786.49,845.235,791.469,839.094,791.469z"/>
	</g>
	<g>
		<path fill="#E6D5CB" d="M1015.859,671.355v-65.439c0-10.258,8.346-18.606,18.606-18.606c10.26,0,18.606,8.348,18.606,18.606
			v65.439H1015.859z"/>
		<path fill="#273D53" d="M1042.834,668.432h-16.739c-4.039,0-7.313-3.274-7.313-7.313V602.11c0-6.559,5.317-11.876,11.876-11.876
			h7.614c6.559,0,11.876,5.317,11.876,11.876v59.009C1050.147,665.157,1046.873,668.432,1042.834,668.432z"/>
	</g>
	<g>
		<path fill="#E6D5CB" d="M614.989,671.355v-65.439c0-10.258,8.346-18.606,18.606-18.606s18.606,8.348,18.606,18.606v65.439H614.989
			z"/>
		<path fill="#273D53" d="M638.158,668.432h-9.125c-6.141,0-11.12-4.979-11.12-11.12v-51.395c0-8.661,7.021-15.682,15.682-15.682
			l0,0c8.661,0,15.682,7.021,15.682,15.682v51.395C649.278,663.453,644.299,668.432,638.158,668.432z"/>
	</g>
	<g>
		<path fill="#E6D5CB" d="M614.989,762.603v-39.589c0-10.258,8.346-18.606,18.606-18.606s18.606,8.348,18.606,18.606v39.589H614.989
			z"/>
		<path fill="#273D53" d="M638.158,759.68h-9.125c-6.141,0-11.12-4.979-11.12-11.12v-25.544c0-8.661,7.021-15.682,15.682-15.682l0,0
			c8.661,0,15.682,7.021,15.682,15.682v25.544C649.278,754.701,644.299,759.68,638.158,759.68z"/>
	</g>
	<g>
		<path fill="#E6D5CB" d="M748.04,762.604v-39.589c0-10.258,8.346-18.606,18.606-18.606c10.26,0,18.606,8.348,18.606,18.606v39.589
			H748.04z"/>
		<path fill="#273D53" d="M771.208,759.68h-9.125c-6.141,0-11.12-4.979-11.12-11.12v-25.544c0-8.661,7.021-15.682,15.682-15.682h0
			c8.661,0,15.682,7.021,15.682,15.682v25.544C782.328,754.702,777.35,759.68,771.208,759.68z"/>
	</g>
	<path fill="#273D53" d="M840.061,259.036h-9.125c-6.141,0-11.12-4.979-11.12-11.12v-25.544c0-8.661,7.021-15.682,15.682-15.682l0,0
		c8.661,0,15.682,7.021,15.682,15.682v25.544C851.18,254.058,846.202,259.036,840.061,259.036z"/>
	<g>
		<path fill="#E6D5CB" d="M882.092,762.604v-39.589c0-10.258,8.346-18.606,18.606-18.606s18.606,8.348,18.606,18.606v39.589H882.092
			z"/>
		<path fill="#273D53" d="M905.261,759.68h-9.125c-6.141,0-11.12-4.979-11.12-11.12v-25.544c0-8.661,7.021-15.682,15.682-15.682l0,0
			c8.661,0,15.682,7.021,15.682,15.682v25.544C916.381,754.702,911.402,759.68,905.261,759.68z"/>
	</g>
	<g>
		<path fill="#E6D5CB" d="M1015.859,762.604v-39.589c0-10.258,8.346-18.606,18.606-18.606c10.26,0,18.606,8.348,18.606,18.606
			v39.589H1015.859z"/>
		<path fill="#273D53" d="M1042.834,759.68h-16.739c-4.039,0-7.313-3.274-7.313-7.313V719.21c0-6.559,5.317-11.876,11.876-11.876
			h7.614c6.559,0,11.876,5.317,11.876,11.876v33.158C1050.147,756.406,1046.873,759.68,1042.834,759.68z"/>
	</g>
	<path fill="#273D53" d="M794.931,259.036h11.816v-50.176l0,0c-6.526,0-11.816,5.29-11.816,11.816V259.036z"/>
	<polygon fill="#C5AFA5" points="882.51,193.823 857.59,190.815 857.59,269.012 882.51,269.012 	"/>
	<path fill="#273D53" d="M875.85,259.036h-11.816v-50.176l0,0c6.526,0,11.816,5.29,11.816,11.816V259.036z"/>
	<rect x="832.643" y="120.351" fill="#EEB33B" width="6.23" height="18.69"/>
</g>
<g>
	<g>
		<g>
			<path fill="#F1967D" d="M268.957,739.626c-0.844-0.877-1.66-1.776-2.88-2.172c-0.51-0.166-1.06-0.367-1.452-0.711
				c-1.255-1.099-2.702-1.751-4.276-2.253c-2.207-0.704-2.759-2.583-2.962-4.616c-0.243-2.434,0.029-4.864,0.71-7.171
				c0.969-3.281,0.684-6.386-0.421-9.551c-0.408-1.17-1.018-2.151-1.781-3.058c-0.705-0.838-0.955-1.796-1.068-2.837
				c-0.117-1.076-0.244-2.153-0.418-3.22c-0.043-0.262-0.239-0.547-0.447-0.725c-0.555-0.477-1.154-0.901-1.737-1.346
				c-1.642-1.255-2.371-2.979-2.562-4.981c-0.05-0.528,0.147-0.878,0.555-1.252c1.417-1.295,2.759-2.671,4.16-3.983
				c0.222-0.208,0.617-0.379,0.905-0.344c0.918,0.111,1.341-0.332,1.849-1.054c1.415-2.016,2.938-3.962,4.507-5.861
				c0.952-1.153,1.065-2.713-0.027-3.71c-1.78-1.626-2.845-3.644-3.612-5.895c-0.847-2.488-0.09-4.45,1.539-6.019
				c1.472,0.495,2.832,0.92,4.166,1.416c0.54,0.201,1.072,0.496,1.519,0.858c1.705,1.379,3.311,2.891,5.088,4.166
				c0.713,0.512,1.797,0.811,2.673,0.738c2.959-0.246,5.471,0.998,8.007,2.147c3.213,1.456,6.373,3.031,9.556,4.553
				c2.233,1.068,4.114,2.621,5.901,4.299c0.634,0.595,1.177,1.3,1.86,1.828c1.169,0.903,1.292,2.036,1.128,3.389
				c-0.159,1.315-0.105,2.655-0.148,3.984c-0.018,0.549,0.327,0.632,0.753,0.574c0.805-0.109,1.604-0.287,2.412-0.334
				c0.297-0.017,0.723,0.174,0.898,0.412c0.93,1.26,1.266,2.758,1.465,4.269c0.222,1.689,1.195,2.686,2.72,3.217
				c1.794,0.624,3.451,1.455,4.758,2.874c0.129,0.14,0.264,0.274,0.382,0.422c0.917,1.149,0.921,1.41-0.147,2.43
				c-3.656,3.489-7.718,6.411-12.219,8.721c-1.328,0.681-2.599,1.472-3.93,2.146c-0.427,0.216-0.969,0.326-1.448,0.3
				c-1.785-0.096-3.565-0.298-5.35-0.388c-0.332-0.017-0.747,0.23-1.008,0.477c-0.509,0.484-0.88,1.118-1.409,1.573
				c-0.71,0.611-1.488,1.154-2.284,1.649c-1.606,0.999-3.258,1.924-4.864,2.922c-1.29,0.802-2.55,1.652-3.803,2.51
				c-0.7,0.479-1.191,1.124-1.157,2.027c0.071,1.872-1.284,2.941-2.314,4.204c-0.904,1.108-1.765,2.25-2.646,3.378
				C269.719,739.626,269.338,739.626,268.957,739.626z"/>
			<path fill="#F1967D" d="M90.902,588.826c0.711,0.437,1.408,0.901,2.144,1.291c0.169,0.089,0.489-0.041,0.712-0.135
				c0.622-0.263,1.208-0.629,1.848-0.823c0.564-0.171,1.192-0.238,1.556,0.473c0.055,0.108,0.316,0.159,0.478,0.153
				c0.268-0.01,0.537-0.075,0.8-0.139c1.292-0.318,2.538-0.4,3.725,0.411c0.337,0.231,0.826,0.331,1.245,0.33
				c0.728-0.002,1.036,0.39,1.283,0.986c0.436,1.051,0.928,2.079,1.379,3.124c0.282,0.656,0.274,1.289-0.085,1.949
				c-1.247,2.291-2.206,4.712-1.96,7.354c0.115,1.236-0.447,1.676-1.307,2.16c-0.25,0.141-0.384,0.492-0.563,0.753
				c-0.439,0.638-0.782,1.376-1.333,1.893c-0.643,0.603-1.432,1.082-2.227,1.473c-0.302,0.149-0.809-0.058-1.202-0.172
				c-0.445-0.129-0.857-0.445-1.302-0.489c-2.073-0.206-4.158-0.294-6.227-0.533c-1.1-0.127-2.096-0.63-2.708-1.628
				c-1.282-2.094-3.289-2.971-5.577-3.403c-0.319-0.06-0.633-0.153-0.945-0.244c-1.728-0.503-2.439-1.902-1.789-3.592
				c0.193-0.501,0.524-0.948,0.755-1.437c0.529-1.119,0.99-2.274,1.573-3.363c0.266-0.497,0.686-0.985,1.158-1.286
				c2.174-1.384,4.395-2.694,6.588-4.047c0.518-0.319,0.995-0.705,1.49-1.061C90.576,588.826,90.739,588.826,90.902,588.826z"/>
			<path fill="#F1967D" d="M222.146,640.659c0.083-1.461,0.525-2.749,1.358-3.907c1.852-2.573,5.349-2.53,7.194,0.056
				c1.054,1.479,2.156,2.924,3.267,4.361c0.276,0.357,0.651,0.647,1.013,0.927c0.745,0.575,1.476,0.669,2.405,0.232
				c2.13-1.002,4.28-2.002,6.51-2.733c1.813-0.594,3.636-0.064,5.155,1.072c2.194,1.639,4.326,3.363,6.445,5.099
				c1.297,1.063,2.689,1.863,4.31,2.358c0.9,0.275,1.719,0.875,2.513,1.419c0.805,0.551,1.011,1.405,0.999,2.364
				c-0.01,0.859-0.258,1.585-0.988,2.016c-1.584,0.934-3.201,1.811-4.814,2.696c-1.576,0.864-3.282,1.187-5.066,1.266
				c-1.43,0.063-2.816,0.43-3.928,1.374c-1.764,1.498-3.956,1.478-6.044,1.852c-1.171,0.21-2.267,0.235-3.282-0.623
				c-0.537-0.454-1.299-0.638-1.947-0.969c-0.382-0.195-0.458-0.435-0.308-0.919c0.193-0.623,0.218-1.336,0.156-1.995
				c-0.189-1.993-0.471-3.977-0.686-5.968c-0.215-1.993-1.468-2.927-3.311-2.159c-1.61,0.671-2.786,0.441-3.958-0.81
				c-0.557-0.595-1.397-0.914-2.071-1.41c-0.844-0.62-1.681-1.258-2.458-1.957c-0.479-0.431-0.808-1.019-1.58-1.006
				c-0.133,0.002-0.348-0.258-0.394-0.432C222.446,642.136,222.305,641.395,222.146,640.659z"/>
			<path fill="#F1967D" d="M166.153,611.903c0.798-0.01,1.153,0.334,0.91,1.142c-0.183,0.609,0.013,1.092,0.423,1.539
				c0.663,0.723,1.201,1.464,1.176,2.561c-0.015,0.675,0.327,1.359,0.519,2.036c0.235,0.832,0.54,1.577,1.587,1.683
				c0.196,0.02,0.543,0.439,0.502,0.578c-0.15,0.496-0.406,0.973-0.705,1.399c-0.044,0.063-0.64-0.107-0.807-0.311
				c-0.837-1.021-1.846-1.074-2.926-0.557c-0.878,0.42-1.718,0.925-2.556,1.425c-1.102,0.658-1.446,0.749-2.409-0.1
				c-1.255-1.107-2.414-2.332-3.541-3.573c-0.712-0.783-1.038-0.788-1.717-0.015c-0.21,0.24-0.878,0.283-1.218,0.139
				c-0.279-0.118-0.463-0.632-0.535-1.001c-0.038-0.191,0.234-0.468,0.408-0.669c0.652-0.756,0.525-1.69-0.315-2.199
				c-1.119-0.678-4.282-0.479-5.231,0.413c-0.202,0.19-0.266,0.827-0.105,1.047c0.432,0.592,1.021,1.07,1.596,1.642
				c-2.123,0.525-4.313,1.066-6.564,1.622c-1.18-3.066-3.39-5.4-5.138-8.038c-0.645-0.974-1.076-2.105-1.506-3.202
				c-0.591-1.508-1.089-3.053-1.626-4.583c-0.085-0.243-0.169-0.487-0.27-0.776c1.514-0.211,2.929-0.385,4.336-0.614
				c0.666-0.109,1.322-0.3,1.97-0.493c1.282-0.383,2.3-1.114,3.171-2.16c1.368-1.644,2.848-3.196,4.302-4.767
				c0.252-0.272,0.597-0.474,0.928-0.655c1.089-0.594,1.923-0.465,2.613,0.577c0.745,1.125,1.332,2.352,2.012,3.522
				c0.389,0.67,0.763,1.364,1.252,1.958c1.205,1.465,2.482,2.871,3.703,4.324c0.13,0.154,0.144,0.479,0.093,0.697
				c-0.099,0.417-0.299,0.81-0.43,1.221c-0.414,1.296-0.112,2.293,1.098,3.061c0.521,0.331,0.866,0.947,1.268,1.451
				c0.321,0.403,0.532,0.938,0.929,1.223c0.45,0.323,1.117,0.68,1.571,0.563c0.447-0.115,0.786-0.779,1.093-1.253
				C166.155,612.54,166.111,612.2,166.153,611.903z"/>
			<path fill="#F1967D" d="M214.409,632.378c-1.439-0.43-2.959-0.822-4.436-1.338c-3.822-1.334-7.639-2.691-11.673-3.233
				c-0.686-0.092-1.47,0.048-2.122,0.304c-2.047,0.802-4.155,1.3-6.342,1.269c-1.701-0.024-3.399-0.27-5.099-0.418
				c-1.685-0.147-1.759-0.244-0.933-1.727c0.407-0.731,0.893-1.434,1.439-2.066c0.629-0.728,0.972-1.534,1.128-2.469
				c0.08-0.477,0.208-1.222,0.504-1.332c0.725-0.268,1.578-0.374,2.346-0.276c0.491,0.062,0.916,0.611,1.383,0.924
				c0.231,0.155,0.499,0.402,0.734,0.385c3.604-0.264,7.039,0.855,10.561,1.246c0.807,0.09,1.622,0.13,2.434,0.139
				c0.934,0.01,1.644-0.405,1.93-1.325c0.185-0.595,0.503-0.638,0.974-0.393c1.252,0.65,2.476,1.363,3.763,1.934
				c0.696,0.309,1.496,0.514,2.254,0.529c2.936,0.059,5.874-0.014,8.81,0.049c0.791,0.017,1.612,0.251,2.353,0.548
				c0.969,0.388,1.104,1.173,0.286,1.823c-0.906,0.72-1.912,1.331-2.929,1.89c-1.902,1.048-3.837,2.039-5.774,3.02
				C215.553,632.087,215.04,632.178,214.409,632.378z"/>
			<path fill="#F1967D" d="M196.063,642.611c0.564-1.548,1.685-2.358,3.22-2.529c0.783-0.087,1.625-0.038,2.388,0.156
				c2.499,0.637,5.011,1.166,7.589,1.347c1.242,0.088,2.294,0.635,3.198,1.458c2.47,2.25,4.104,5.104,5.688,7.987
				c0.085,0.156,0.032,0.49-0.085,0.64c-2.159,2.755-4.722,4.976-8.246,5.732c-0.921,0.198-1.947,0.169-2.878-0.003
				c-1.415-0.261-2.256-1.292-2.386-2.727c-0.127-1.402-0.221-2.813-0.22-4.22c0.001-1.352-0.451-2.436-1.541-3.221
				c-1.738-1.252-3.493-2.48-5.25-3.705C197.075,643.203,196.577,642.928,196.063,642.611z"/>
			<path fill="#F1967D" d="M67.963,608.191c-1.611,0.758-3.267,1.387-4.766,2.28c-1.906,1.136-3.186,2.917-4.262,4.838
				c-0.637,1.137-1.309,2.255-1.972,3.377c-0.53,0.898-1.295,0.895-1.764-0.056c-0.865-1.755-0.895-3.611-0.479-5.483
				c0.496-2.234,1.738-4.007,3.483-5.452c0.042-0.035,0.087-0.065,0.133-0.094c2.97-1.843,5.187-4.409,7.056-7.316
				c0.277-0.43,0.669-0.786,0.967-1.204c0.709-0.996,1.645-1.132,2.737-0.791c0.887,0.277,1.168,0.858,0.739,1.684
				c-0.184,0.355-0.431,0.708-0.732,0.966c-1.139,0.98-1.276,2.22-1.161,3.619C68.045,605.821,67.963,607.098,67.963,608.191z"/>
			<path fill="#F1967D" d="M218.062,667.131c-0.098-1.382,0.413-2.297,1.527-2.926c2.43-1.374,4.829-2.802,7.272-4.152
				c0.317-0.176,0.897-0.174,1.215,0.001c1.231,0.676,2.421,1.432,3.592,2.208c0.453,0.3,0.357,1.278-0.026,1.76
				c-0.188,0.237-0.344,0.581-0.339,0.874c0.011,0.754,0.071,1.516,0.208,2.257c0.084,0.458-0.035,0.641-0.452,0.764
				c-1.064,0.314-2.119,0.668-3.254,0.414c-0.078-0.018-0.175,0.015-0.242-0.019c-2.329-1.188-4.636-0.334-6.947,0.07
				c-0.426,0.074-0.846,0.185-1.272,0.264c-0.945,0.176-1.14,0.042-1.276-0.901C218.033,667.506,218.062,667.257,218.062,667.131z"
				/>
		</g>
	</g>
</g>
<path fill="#010101" d="M219.166,586.046c-14.139-0.078-28.221,2.568-41.506,7.385c-10.562,3.829-20.486,9.777-25.604,20.161
	c-0.567,1.15,1.157,2.165,1.727,1.009c5.435-11.029,16.369-16.648,27.586-20.335c12.225-4.019,24.913-6.292,37.797-6.22
	C220.453,588.053,220.455,586.053,219.166,586.046z"/>
</svg>
