<?xml version="1.0" encoding="utf-8"?>
<!-- Generator: Adobe Illustrator 17.0.0, SVG Export Plug-In . SVG Version: 6.00 Build 0)  -->
<!DOCTYPE svg PUBLIC "-//W3C//DTD SVG 1.1//EN" "http://www.w3.org/Graphics/SVG/1.1/DTD/svg11.dtd">
<svg version="1.1" id="Layer_1" xmlns="http://www.w3.org/2000/svg" xmlns:xlink="http://www.w3.org/1999/xlink" x="0px" y="0px"
	 width="1900.722px" height="533.408px" viewBox="0 0 1900.722 533.408" enable-background="new 0 0 1900.722 533.408"
	 xml:space="preserve">
<g>
	<linearGradient id="SVGID_2_" gradientUnits="userSpaceOnUse" x1="351.4548" y1="149.7798" x2="761.46" y2="149.7798">
		<stop  offset="0" style="stop-color:#FDC06F"/>
		<stop  offset="0.0513" style="stop-color:#F6C175"/>
		<stop  offset="0.4912" style="stop-color:#CDCDA3"/>
		<stop  offset="0.8206" style="stop-color:#AFD3C0"/>
		<stop  offset="1" style="stop-color:#A1D6CC"/>
	</linearGradient>
	<path fill="url(#SVGID_2_)" d="M424.616,220.013H761.46c0,0-1.524-73.161-91.451-50.298c0,0,12.193-18.29-9.145-21.339
		c0,0,13.718-25.911-10.669-51.822c-24.387-25.911-70.112-15.242-79.258,15.242c0,0-12.193-41.153-54.871-30.484
		s-57.919,35.056-50.298,68.588c0,0-39.629,0-30.484,35.056c0,0-19.814-13.718-24.387,6.097c0,0-54.871-6.097-59.443,28.959H424.616
		z"/>
	<linearGradient id="SVGID_3_" gradientUnits="userSpaceOnUse" x1="664.8788" y1="315.7502" x2="667.4943" y2="472.6815">
		<stop  offset="0" style="stop-color:#FDC06F"/>
		<stop  offset="0.0513" style="stop-color:#F6C175"/>
		<stop  offset="0.4912" style="stop-color:#CDCDA3"/>
		<stop  offset="0.8206" style="stop-color:#AFD3C0"/>
		<stop  offset="1" style="stop-color:#A1D6CC"/>
	</linearGradient>
	<path fill="url(#SVGID_3_)" d="M484.46,458.676l367.573,2.036c0,0-22.401-38.692-81.457-46.838c0,0-5.091-57.02-78.402-58.038
		c-73.311-1.018-65.391,49.933-65.391,49.933s-15.047-22.442-54.757-16.332c-39.71,6.109-36.656,31.564-36.656,31.564
		S470.205,437.293,484.46,458.676z"/>
	<linearGradient id="SVGID_4_" gradientUnits="userSpaceOnUse" x1="154.0507" y1="256.5507" x2="154.0507" y2="346.3088">
		<stop  offset="0" style="stop-color:#F3B07D"/>
		<stop  offset="0.1328" style="stop-color:#EFAF82"/>
		<stop  offset="0.3333" style="stop-color:#E5AE8F"/>
		<stop  offset="0.5764" style="stop-color:#D3ACA4"/>
		<stop  offset="0.8505" style="stop-color:#B8A8C0"/>
		<stop  offset="1" style="stop-color:#A6A5D2"/>
	</linearGradient>
	<path fill="url(#SVGID_4_)" d="M29.385,353.672l249.349,1.084c0,0-1.084-23.851-16.262-23.851c0,0,16.262-48.786-35.776-49.87
		c-52.038-1.084-45.533,21.683-45.533,21.683s-28.187-23.851-50.954-6.505C107.442,313.559,117.2,324.4,117.2,324.4
		s-32.524-15.178-41.197-1.084c0,0-4.337,7.589,0,15.178C76.003,338.494,28.301,338.494,29.385,353.672z"/>
	<linearGradient id="SVGID_5_" gradientUnits="userSpaceOnUse" x1="1509.9277" y1="338.9734" x2="1517.4535" y2="410.4685">
		<stop  offset="0" style="stop-color:#FDC06F"/>
		<stop  offset="0.0513" style="stop-color:#F6C175"/>
		<stop  offset="0.4912" style="stop-color:#CDCDA3"/>
		<stop  offset="0.8206" style="stop-color:#AFD3C0"/>
		<stop  offset="1" style="stop-color:#A1D6CC"/>
	</linearGradient>
	<path fill="url(#SVGID_5_)" d="M1413.657,401.192l206.571,1.144c0,0-12.589-21.744-45.777-26.322c0,0-2.861-32.044-44.061-32.616
		c-41.2-0.572-36.749,28.062-36.749,28.062s-8.456-12.612-30.773-9.179s-20.6,17.739-20.6,17.739S1405.646,389.175,1413.657,401.192
		z"/>
	
		<linearGradient id="SVGID_6_" gradientUnits="userSpaceOnUse" x1="-7760.5762" y1="150.2664" x2="-7752.4663" y2="227.3111" gradientTransform="matrix(-1 0 0 1 -5985.6538 0)">
		<stop  offset="0" style="stop-color:#FDC06F"/>
		<stop  offset="0.0513" style="stop-color:#F6C175"/>
		<stop  offset="0.4912" style="stop-color:#CDCDA3"/>
		<stop  offset="0.8206" style="stop-color:#AFD3C0"/>
		<stop  offset="1" style="stop-color:#A1D6CC"/>
	</linearGradient>
	<path fill="url(#SVGID_6_)" d="M1871.275,211.704l-206.571,1.144c0,0,12.589-21.744,45.777-26.322c0,0,2.861-32.044,44.061-32.616
		c41.2-0.572,36.749,28.062,36.749,28.062s8.456-12.612,30.773-9.178c22.317,3.433,20.6,17.739,20.6,17.739
		S1879.286,199.687,1871.275,211.704z"/>
</g>
</svg>
