<?xml version="1.0" encoding="utf-8"?>
<!-- Generator: Adobe Illustrator 17.0.0, SVG Export Plug-In . SVG Version: 6.00 Build 0)  -->
<!DOCTYPE svg PUBLIC "-//W3C//DTD SVG 1.1//EN" "http://www.w3.org/Graphics/SVG/1.1/DTD/svg11.dtd">
<svg version="1.1" id="Layer_1" xmlns="http://www.w3.org/2000/svg" xmlns:xlink="http://www.w3.org/1999/xlink" x="0px" y="0px"
	 width="1900.722px" height="533.408px" viewBox="0 0 1900.722 533.408" enable-background="new 0 0 1900.722 533.408"
	 xml:space="preserve">
<g>
	<path opacity="0.26" fill="#FFFFFF" d="M635.25,293.09h-58.46c0.296-0.994,0.46-2.045,0.46-3.135
		c0-6.06-4.913-10.973-10.973-10.973H371.9c-6.06,0-10.973,4.913-10.973,10.973c0,6.06,4.913,10.973,10.973,10.973h58.46
		c-0.296,0.994-0.46,2.045-0.46,3.135c0,1.685,0.391,3.276,1.07,4.703H302.927c-6.06,0-10.973,4.913-10.973,10.973
		c0,6.06,4.913,10.973,10.973,10.973h194.378c6.06,0,10.973-4.913,10.973-10.973c0-1.685-0.391-3.276-1.07-4.703H635.25
		c6.06,0,10.973-4.913,10.973-10.973C646.223,298.003,641.31,293.09,635.25,293.09z"/>
	<path opacity="0.26" fill="#FFFFFF" d="M1092.25,353.09h-58.46c0.296-0.994,0.46-2.045,0.46-3.135
		c0-6.06-4.913-10.973-10.973-10.973H828.9c-6.06,0-10.973,4.913-10.973,10.973c0,6.06,4.913,10.973,10.973,10.973h58.46
		c-0.296,0.994-0.46,2.045-0.46,3.135c0,1.685,0.391,3.276,1.07,4.703H759.927c-6.06,0-10.973,4.913-10.973,10.973
		c0,6.06,4.913,10.973,10.973,10.973h194.378c6.06,0,10.973-4.913,10.973-10.973c0-1.685-0.391-3.276-1.07-4.703h128.043
		c6.06,0,10.973-4.913,10.973-10.973C1103.223,358.003,1098.311,353.09,1092.25,353.09z"/>
	<path opacity="0.26" fill="#FFFFFF" d="M1540.25,273.09h-58.46c0.296-0.994,0.46-2.045,0.46-3.135
		c0-6.06-4.913-10.973-10.973-10.973H1276.9c-6.06,0-10.973,4.913-10.973,10.973c0,6.06,4.913,10.973,10.973,10.973h58.46
		c-0.296,0.994-0.46,2.045-0.46,3.135c0,1.685,0.391,3.276,1.07,4.703h-128.043c-6.06,0-10.973,4.913-10.973,10.973
		c0,6.06,4.913,10.973,10.973,10.973h194.378c6.06,0,10.973-4.913,10.973-10.973c0-1.685-0.391-3.276-1.07-4.703h128.043
		c6.06,0,10.973-4.913,10.973-10.973C1551.223,278.003,1546.311,273.09,1540.25,273.09z"/>
</g>
</svg>
