<?xml version="1.0" encoding="utf-8"?>
<!-- Generator: Adobe Illustrator 17.0.0, SVG Export Plug-In . SVG Version: 6.00 Build 0)  -->
<!DOCTYPE svg PUBLIC "-//W3C//DTD SVG 1.1//EN" "http://www.w3.org/Graphics/SVG/1.1/DTD/svg11.dtd">
<svg version="1.1" id="Layer_1" xmlns="http://www.w3.org/2000/svg" xmlns:xlink="http://www.w3.org/1999/xlink" x="0px" y="0px"
	 width="1900.722px" height="533.408px" viewBox="0 0 1900.722 533.408" enable-background="new 0 0 1900.722 533.408"
	 xml:space="preserve">
<g>
	<path opacity="0.5" fill="#FFFFFF" d="M991.27,447.819l105.345-0.314c0,0,7.758-12.546-15.914-14.428
		c-17.443-1.387-16.011-4.546-25.777-7.527c-9.766-2.982-24.725-7.214-35.534,8.625c-2.196,3.219-1.817-7.368-11.812-7.368
		C995.178,426.806,985.483,438.096,991.27,447.819z"/>
	<path opacity="0.6" fill="#FFFFFF" d="M79.502,126.675l169.578-0.929c0,0,12.489-37.169-25.618-42.745
		c-28.078-4.108-25.773-13.467-41.494-22.302s-39.801-21.372-57.2,25.552c-3.536,9.536-2.924-21.831-19.014-21.831
		C85.793,64.421,70.187,97.869,79.502,126.675z"/>
	<path opacity="0.64" fill="#FFFFFF" d="M1585.677,203.796h231.33c0,0,3.792-32.867-31.602-36.659
		c-35.395-3.792-39.187,12.641-39.187,12.641s3.792-49.3-26.546-49.3s-64.469,11.377-54.356,27.81
		C1665.315,158.288,1579.356,150.703,1585.677,203.796z"/>
	<path opacity="0.64" fill="#FFFFFF" d="M782.331,470.164H551c0,0-3.792-32.867,31.602-36.659
		c35.395-3.792,39.187,12.641,39.187,12.641s-3.792-49.3,26.546-49.3s64.469,11.377,54.356,27.81
		C702.692,424.656,788.651,417.072,782.331,470.164z"/>
</g>
</svg>
