<?xml version="1.0" encoding="utf-8"?>
<!-- Generator: Adobe Illustrator 17.0.0, SVG Export Plug-In . SVG Version: 6.00 Build 0)  -->
<!DOCTYPE svg PUBLIC "-//W3C//DTD SVG 1.1//EN" "http://www.w3.org/Graphics/SVG/1.1/DTD/svg11.dtd">
<svg version="1.1" id="Layer_1" xmlns="http://www.w3.org/2000/svg" xmlns:xlink="http://www.w3.org/1999/xlink" x="0px" y="0px"
	 width="1271.841px" height="777.181px" viewBox="0 0 1271.841 777.181" enable-background="new 0 0 1271.841 777.181"
	 xml:space="preserve">
<g>
</g>
<g>
	<rect x="80.543" y="680.991" fill="#010101" width="1113" height="13"/>
	<linearGradient id="SVGID_2_" gradientUnits="userSpaceOnUse" x1="80.5428" y1="413.2023" x2="1193.5428" y2="413.2023">
		<stop  offset="0" style="stop-color:#F3B07D"/>
		<stop  offset="1" style="stop-color:#A6A5D2"/>
	</linearGradient>
	<path opacity="0.69" fill="url(#SVGID_2_)" d="M80.543,680.991V145.413h577.423c295.791,0,535.577,239.786,535.577,535.577v0.001
		H80.543z"/>
	<path fill="#FFFFFF" d="M399.338,252.574h-12.454h-6.448h-3.106c-2.158,0-3.924-1.439-3.924-3.197s1.766-3.197,3.924-3.197h3.242
		h6.313h6.654c1.689,0,3.071-1.126,3.071-2.502c0-1.376-1.382-2.502-3.071-2.502h-85.646c-1.689,0-3.071,1.126-3.071,2.502
		c0,1.376,1.382,2.502,3.071,2.502h15.867h6.995h2.559c2.158,0,3.924,1.439,3.924,3.197s-1.766,3.197-3.924,3.197h-2.423h-7.131
		h-25.762c-1.877,0-3.412,1.251-3.412,2.78s1.535,2.78,3.412,2.78h101.342c1.877,0,3.412-1.251,3.412-2.78
		S401.215,252.574,399.338,252.574z"/>
	<path fill="#FFFFFF" d="M1057.322,567.067h-42.375h-21.939H982.44c-7.343,0-13.351-4.895-13.351-10.877
		c0-5.983,6.008-10.877,13.351-10.877h11.029h21.478h22.639c5.747,0,10.449-3.831,10.449-8.513s-4.702-8.513-10.449-8.513H746.184
		c-5.747,0-10.449,3.831-10.449,8.513s4.702,8.513,10.449,8.513h53.985h23.8h8.707c7.343,0,13.351,4.895,13.351,10.877
		c0,5.983-6.008,10.877-13.351,10.877h-8.246h-24.261h-87.652c-6.385,0-11.61,4.256-11.61,9.459s5.224,9.459,11.61,9.459h344.805
		c6.385,0,11.61-4.256,11.61-9.459S1063.707,567.067,1057.322,567.067z"/>
	<path fill="#FFFFFF" d="M381.436,372.025h-26.935h-13.945h-6.717c-4.667,0-8.486-3.111-8.486-6.914s3.819-6.914,8.486-6.914h7.01
		h13.652h14.39c3.653,0,6.641-2.435,6.641-5.411c0-2.976-2.989-5.411-6.641-5.411H183.669c-3.653,0-6.641,2.435-6.641,5.411
		c0,2.976,2.989,5.411,6.641,5.411h34.314h15.128h5.535c4.667,0,8.486,3.111,8.486,6.914s-3.819,6.914-8.486,6.914h-5.241h-15.421
		h-55.714c-4.059,0-7.379,2.705-7.379,6.012s3.321,6.012,7.379,6.012h219.167c4.059,0,7.379-2.705,7.379-6.012
		S385.494,372.025,381.436,372.025z"/>
	<path fill="#FFFFFF" d="M320.126,595.725h-26.935h-13.945h-6.717c-4.667,0-8.486-3.111-8.486-6.914s3.819-6.914,8.486-6.914h7.01
		h13.652h14.39c3.653,0,6.641-2.435,6.641-5.411s-2.989-5.411-6.641-5.411H122.359c-3.653,0-6.641,2.435-6.641,5.411
		s2.989,5.411,6.641,5.411h34.314h15.128h5.535c4.667,0,8.486,3.111,8.486,6.914s-3.819,6.914-8.486,6.914h-5.241h-15.421h-55.714
		c-4.059,0-7.379,2.705-7.379,6.012c0,3.307,3.321,6.012,7.379,6.012h219.167c4.059,0,7.379-2.705,7.379-6.012
		C327.506,598.43,324.185,595.725,320.126,595.725z"/>
	<path fill="#FFFFFF" d="M1062.417,189.468h-52.958h-27.418h-13.207c-9.177,0-16.685-6.117-16.685-13.594
		c0-7.477,7.508-13.594,16.685-13.594h13.784h26.842h28.292c7.182,0,13.058-4.787,13.058-10.639c0-5.851-5.876-10.639-13.058-10.639
		H673.576c-7.182,0-13.058,4.787-13.058,10.639c0,5.851,5.876,10.639,13.058,10.639h67.467h29.743h10.882
		c9.177,0,16.685,6.117,16.685,13.594c0,7.477-7.508,13.594-16.685,13.594h-10.305h-30.32H631.5c-7.98,0-14.509,5.319-14.509,11.821
		s6.529,11.821,14.509,11.821h430.917c7.98,0,14.509-5.319,14.509-11.821S1070.397,189.468,1062.417,189.468z"/>
	<g>
		<circle fill="#FFFFFF" cx="157.339" cy="289.495" r="5.842"/>
		<circle fill="#FFFFFF" cx="887.018" cy="234.775" r="5.012"/>
		<circle fill="#FFFFFF" cx="1001.993" cy="408.425" r="6.547"/>
		<circle fill="#FFFFFF" cx="998.719" cy="541.624" r="3.274"/>
		<circle fill="#FFFFFF" cx="132.268" cy="485.218" r="4.128"/>
		<circle fill="#FFFFFF" cx="565.547" cy="372.928" r="2.344"/>
		<circle fill="#FFFFFF" cx="672.731" cy="309.708" r="2.344"/>
	</g>
	<g>
		<rect x="334.562" y="425.985" fill="#DFDFDE" width="97.424" height="100.586"/>
		<polygon fill="#B5B6B6" points="265.594,425.985 265.594,526.571 334.562,526.571 334.562,421.044 265.594,421.044 		"/>
		<rect x="292.075" y="468.735" fill="#9B9B9B" width="84.579" height="47.625"/>
		<rect x="332.981" y="469.822" fill="#8ED6EA" width="41.301" height="46.538"/>
		<rect x="293.26" y="469.822" fill="#7EC7DE" width="41.301" height="46.538"/>
		<polygon fill="#F5F6F6" points="431.986,537.505 186.417,537.505 186.417,667.141 328.04,667.141 431.986,667.141 		"/>
		<rect x="186.417" y="656.008" fill="#DEDEDB" width="245.569" height="11.132"/>
		<polygon fill="#C2C1C1" points="752.122,336.992 752.122,319.866 644.619,319.866 644.619,484.544 752.122,484.544 		"/>
		<rect x="752.122" y="319.866" fill="#E0DCDD" width="89.322" height="167.446"/>
		<rect x="753.439" y="336.992" fill="#81C6DA" width="84.052" height="147.552"/>
		<rect x="698.107" y="336.992" fill="#73BBCA" width="55.332" height="147.552"/>
		<rect x="636.32" y="492.712" fill="#ECE3DC" width="83.789" height="174.428"/>
		<rect x="644.619" y="492.713" fill="#C3C6C6" width="164.811" height="4.084"/>
		<polygon fill="#F5F6F6" points="732.939,667.141 884.919,667.141 884.919,492.713 720.108,492.713 720.108,667.141 		"/>
		<rect x="720.108" y="492.713" fill="#DEDEDD" width="164.811" height="4.084"/>
		<rect x="677.028" y="515.109" fill="#8ED6EA" width="30.828" height="15.809"/>
		<rect x="677.028" y="549.23" fill="#8ED6EA" width="30.828" height="15.809"/>
		<rect x="734.6" y="549.23" fill="#8ED6EA" width="132.138" height="15.809"/>
		<rect x="734.6" y="514.714" fill="#8ED6EA" width="132.138" height="15.809"/>
		<rect x="205.783" y="557.135" fill="#8ED6EA" width="226.203" height="15.809"/>
		<rect x="205.783" y="589.412" fill="#8ED6EA" width="226.203" height="15.809"/>
		<rect x="677.028" y="597.317" fill="#8ED6EA" width="30.828" height="69.824"/>
		<rect x="734.6" y="597.317" fill="#8ED6EA" width="58.099" height="69.824"/>
		<rect x="802.514" y="597.317" fill="#8ED6EA" width="58.099" height="69.824"/>
		<polygon fill="#7EC7DE" points="677.028,656.008 707.856,623.402 707.856,597.317 677.028,597.317 		"/>
		<polygon fill="#7EC7DE" points="734.6,667.141 734.6,597.317 792.699,597.317 792.699,603.113 		"/>
		<polygon fill="#7EC7DE" points="860.612,597.317 860.612,605.748 802.514,667.141 802.514,597.317 		"/>
		<polygon fill="#7EC7DE" points="677.028,549.23 677.028,552.524 692.442,552.524 692.442,565.04 695.209,565.04 695.209,552.524 
			707.856,552.524 707.856,549.23 		"/>
		<polygon fill="#7EC7DE" points="677.028,515.109 677.028,518.402 692.442,518.402 692.442,530.918 695.209,530.918 
			695.209,518.402 707.856,518.402 707.856,515.109 		"/>
		<polygon fill="#7EC7DE" points="866.738,549.23 734.6,565.04 734.6,549.23 		"/>
		<polygon fill="#7EC7DE" points="866.738,514.714 734.6,530.523 734.6,514.714 		"/>
		<polygon fill="#7EC7DE" points="337.921,557.135 205.783,572.944 205.783,557.135 		"/>
		<polygon fill="#7EC7DE" points="337.921,589.412 205.783,605.221 205.783,589.412 		"/>
		<rect x="677.028" y="592.969" fill="#9B9B9B" width="30.828" height="4.348"/>
		<rect x="734.6" y="592.969" fill="#9B9B9B" width="58.099" height="4.348"/>
		<rect x="802.514" y="592.969" fill="#9B9B9B" width="58.099" height="4.348"/>
		<rect x="677.028" y="547.057" fill="#9B9B9B" width="30.828" height="2.174"/>
		<rect x="734.6" y="547.057" fill="#9B9B9B" width="132.138" height="2.174"/>
		<rect x="734.6" y="512.54" fill="#9B9B9B" width="132.138" height="2.174"/>
		<rect x="205.783" y="554.961" fill="#9B9B9B" width="226.203" height="2.174"/>
		<rect x="205.783" y="587.238" fill="#9B9B9B" width="226.203" height="2.174"/>
		<rect x="677.028" y="512.935" fill="#9B9B9B" width="30.828" height="2.174"/>
		<rect x="673.669" y="512.935" fill="#9B9B9B" width="3.359" height="17.983"/>
		<rect x="673.669" y="547.057" fill="#9B9B9B" width="3.359" height="17.983"/>
		<rect x="866.738" y="512.441" fill="#9B9B9B" width="3.359" height="17.983"/>
		<rect x="866.738" y="547.057" fill="#9B9B9B" width="3.359" height="17.983"/>
		<rect x="673.669" y="592.969" fill="#9B9B9B" width="3.359" height="74.171"/>
		<rect x="792.699" y="592.969" fill="#9B9B9B" width="3.359" height="74.171"/>
		<rect x="860.612" y="592.969" fill="#9B9B9B" width="3.359" height="74.171"/>
		<rect x="694.879" y="307.218" fill="#ACADA7" width="57.242" height="12.647"/>
		<rect x="752.122" y="307.218" fill="#C8C5C1" width="59.877" height="12.647"/>
		<rect x="698.107" y="336.992" fill="#9B9B9B" width="139.384" height="3.228"/>
		<rect x="834.264" y="337.256" fill="#9B9B9B" width="3.228" height="144.654"/>
		<rect x="792.765" y="337.256" fill="#9B9B9B" width="3.228" height="144.654"/>
		<rect x="748.894" y="338.441" fill="#9B9B9B" width="3.228" height="144.654"/>
		<rect x="698.107" y="368.347" fill="#9B9B9B" width="139.384" height="3.228"/>
		<rect x="698.107" y="401.019" fill="#9B9B9B" width="139.384" height="3.228"/>
		<rect x="698.107" y="433.692" fill="#9B9B9B" width="139.384" height="3.228"/>
		<rect x="698.107" y="466.364" fill="#9B9B9B" width="139.384" height="3.228"/>
		<g>
			<rect x="698.107" y="365.712" fill="#DFDFDE" width="139.384" height="2.635"/>
			<rect x="796.124" y="336.992" fill="#DFDFDE" width="2.635" height="147.552"/>
			<rect x="752.122" y="336.992" fill="#DFDFDE" width="2.635" height="147.552"/>
			<rect x="698.107" y="398.384" fill="#DFDFDE" width="139.384" height="2.635"/>
			<rect x="698.107" y="431.057" fill="#DFDFDE" width="139.384" height="2.635"/>
			<rect x="698.107" y="463.729" fill="#DFDFDE" width="139.384" height="2.635"/>
		</g>
		<polygon fill="#EF4963" points="644.619,481.91 880.571,481.91 888.081,492.713 644.619,492.713 		"/>
		<g>
			<rect x="454.514" y="203.866" fill="#E5E5E5" width="45.451" height="23.911"/>
			<rect x="499.965" y="203.866" fill="#F5F6F6" width="53.356" height="23.911"/>
			<polygon fill="#F5F6F6" points="431.986,667.141 431.986,237.131 645.937,237.131 645.937,560.165 663.327,560.165 
				663.327,667.141 			"/>
			<rect x="512.218" y="257.156" fill="#8ED6EA" width="120.018" height="291.943"/>
			<polygon fill="#7EC7DE" points="632.412,257.156 512.218,352.142 512.394,257.156 			"/>
			<polygon fill="#7EC7DE" points="632.236,284.822 512.218,387.055 512.044,431.847 632.236,329.615 			"/>
			<polygon fill="#7EC7DE" points="512.044,508.785 512.218,547.649 531.057,547.649 632.236,445.549 632.236,431.847 
				592.054,431.847 			"/>
			<polygon fill="#E5E5E5" points="499.965,237.131 499.965,560.297 517.356,560.297 517.356,667.141 431.986,667.141 
				431.986,237.131 			"/>
			<g>
				<g>
					<rect x="499.965" y="284.822" fill="#D6E1DD" width="155.457" height="12.647"/>
					<rect x="499.965" y="329.615" fill="#D6E1DD" width="155.457" height="12.647"/>
					<rect x="499.965" y="374.407" fill="#D6E1DD" width="155.457" height="12.647"/>
					<rect x="499.965" y="419.2" fill="#D6E1DD" width="155.457" height="12.647"/>
					<rect x="499.965" y="463.992" fill="#D6E1DD" width="155.457" height="12.647"/>
					<rect x="499.965" y="508.785" fill="#D6E1DD" width="155.457" height="12.647"/>
				</g>
			</g>
			<rect x="499.965" y="547.649" fill="#D6E1DD" width="155.457" height="12.647"/>
			<rect x="527.632" y="582.693" fill="#CDCCCC" width="63.632" height="69.956"/>
			<polygon fill="#9B9B9B" points="644.619,582.693 644.619,659.368 636.32,659.368 636.32,652.649 591.263,652.649 
				591.263,582.693 			"/>
			<polygon fill="#E4E3E1" points="652.524,582.693 652.524,667.141 543.836,667.141 543.836,659.368 644.619,659.368 
				644.619,582.693 			"/>
			<polygon fill="#C2C5CA" points="527.632,652.649 527.632,667.141 543.836,667.141 543.836,659.368 535.734,659.368 
				535.734,652.649 			"/>
			<rect x="535.734" y="652.649" fill="#B8B6BA" width="100.586" height="6.719"/>
			<rect x="538.896" y="604.628" fill="#9B9B9B" width="29.445" height="48.02"/>
			<rect x="457.874" y="659.895" fill="#A4A6AC" width="50.589" height="7.246"/>
			<rect x="466.766" y="652.649" fill="#B8B6BA" width="41.697" height="7.246"/>
			<rect x="484.156" y="604.628" fill="#9B9B9B" width="24.307" height="48.02"/>
			<polygon fill="#CDCCCC" points="457.874,659.895 457.874,582.693 508.463,582.693 508.463,604.628 484.156,604.628 
				484.156,652.649 466.766,652.649 466.766,659.895 			"/>
			<rect x="449.64" y="582.693" fill="#F9F3F8" width="8.234" height="84.447"/>
			<g>
				<text transform="matrix(1 0 0 1 547.6586 577.9597)" fill="#EA5163" font-family="'MyriadPro-Bold'" font-size="18.1754">HOSPITAL</text>
			</g>
			<rect x="428.034" y="226.591" fill="#EF4963" width="220.933" height="10.539"/>
			<rect x="553.322" y="213.746" fill="#EF4963" width="69.165" height="2.075"/>
			<rect x="620.412" y="213.746" fill="#EF4963" width="2.075" height="18.526"/>
			<rect x="606.233" y="213.746" fill="#EF4963" width="2.075" height="18.526"/>
			<rect x="592.054" y="213.746" fill="#EF4963" width="2.075" height="18.526"/>
			<rect x="577.875" y="213.746" fill="#EF4963" width="2.075" height="18.526"/>
			<rect x="563.696" y="213.746" fill="#EF4963" width="2.075" height="18.526"/>
			<rect x="431.986" y="237.131" fill="#C9C9C9" width="67.979" height="4.084"/>
			<rect x="499.965" y="237.131" fill="#DEDEDD" width="145.971" height="4.084"/>
			<rect x="512.218" y="257.156" fill="#9B9B9B" width="120.018" height="2.371"/>
			<rect x="512.131" y="297.469" fill="#9B9B9B" width="120.018" height="2.371"/>
			<rect x="512.131" y="342.262" fill="#9B9B9B" width="120.018" height="2.371"/>
			<rect x="512.131" y="387.055" fill="#9B9B9B" width="120.018" height="2.371"/>
			<rect x="512.131" y="431.847" fill="#9B9B9B" width="120.018" height="2.371"/>
			<rect x="512.306" y="476.64" fill="#9B9B9B" width="120.018" height="2.371"/>
			<rect x="512.131" y="521.433" fill="#9B9B9B" width="120.018" height="2.371"/>
			<rect x="629.777" y="521.433" fill="#9B9B9B" width="2.371" height="26.217"/>
			<rect x="629.777" y="476.64" fill="#9B9B9B" width="2.371" height="32.145"/>
			<rect x="629.777" y="431.847" fill="#9B9B9B" width="2.371" height="32.145"/>
			<rect x="629.777" y="387.055" fill="#9B9B9B" width="2.371" height="32.145"/>
			<rect x="629.777" y="342.262" fill="#9B9B9B" width="2.371" height="32.145"/>
			<rect x="629.777" y="297.469" fill="#9B9B9B" width="2.371" height="32.145"/>
			<rect x="629.777" y="257.156" fill="#9B9B9B" width="2.371" height="27.666"/>
		</g>
		<rect x="186.417" y="537.505" fill="#DEDEDD" width="245.569" height="5.863"/>
		<polygon fill="#EF4963" points="431.986,526.571 191.291,526.571 182.991,537.505 431.986,537.505 		"/>
		<rect x="290.494" y="613.323" fill="#B2B2B2" width="37.547" height="5.336"/>
		<rect x="381.199" y="613.323" fill="#B2B2B2" width="37.547" height="5.336"/>
		<g>
			<rect x="347.11" y="625.411" fill="#8ED6EA" width="30.828" height="15.809"/>
			<polygon fill="#7EC7DE" points="347.11,625.411 347.11,628.704 362.524,628.704 362.524,641.22 365.291,641.22 365.291,628.704 
				377.938,628.704 377.938,625.411 			"/>
			<rect x="347.11" y="623.237" fill="#9B9B9B" width="30.828" height="2.174"/>
			<rect x="343.751" y="623.237" fill="#9B9B9B" width="3.359" height="17.983"/>
		</g>
		<g>
			<rect x="255.812" y="625.411" fill="#8ED6EA" width="30.828" height="15.809"/>
			<polygon fill="#7EC7DE" points="255.812,625.411 255.812,628.704 271.226,628.704 271.226,641.22 273.993,641.22 
				273.993,628.704 286.64,628.704 286.64,625.411 			"/>
			<rect x="255.812" y="623.237" fill="#9B9B9B" width="30.828" height="2.174"/>
			<rect x="252.453" y="623.237" fill="#9B9B9B" width="3.359" height="17.983"/>
		</g>
		<g>
			<rect x="206.969" y="625.411" fill="#8ED6EA" width="30.828" height="15.809"/>
			<polygon fill="#7EC7DE" points="206.969,625.411 206.969,628.704 222.383,628.704 222.383,641.22 225.149,641.22 
				225.149,628.704 237.797,628.704 237.797,625.411 			"/>
			<rect x="206.969" y="623.237" fill="#9B9B9B" width="30.828" height="2.174"/>
			<rect x="203.609" y="623.237" fill="#9B9B9B" width="3.359" height="17.983"/>
		</g>
		<rect x="202.424" y="554.961" fill="#9B9B9B" width="3.359" height="17.983"/>
		<rect x="202.424" y="587.238" fill="#9B9B9B" width="3.359" height="17.983"/>
		<rect x="320.531" y="613.323" fill="#C8C7C7" width="7.509" height="5.336"/>
		<rect x="411.236" y="613.323" fill="#C8C7C7" width="7.509" height="5.336"/>
		<g>
			<rect x="302.944" y="624.917" fill="#9B9B9B" width="25.097" height="42.224"/>
			<polygon fill="#C8C7C7" points="302.944,667.141 298.794,667.141 298.794,623.237 328.041,623.237 328.041,624.917 
				302.944,624.917 			"/>
		</g>
		<g>
			<rect x="393.649" y="624.917" fill="#9B9B9B" width="25.097" height="42.224"/>
			<polygon fill="#C8C7C7" points="393.649,667.141 389.499,667.141 389.499,623.237 418.746,623.237 418.746,624.917 
				393.649,624.917 			"/>
		</g>
		<rect x="260.456" y="409.188" fill="#EF4963" width="171.53" height="11.857"/>
		<rect x="265.594" y="421.044" fill="#ACADA7" width="68.968" height="4.94"/>
		<rect x="334.562" y="421.044" fill="#C8C5C1" width="97.424" height="4.94"/>
		<rect x="352.677" y="434.219" fill="#8ED6EA" width="79.309" height="20.815"/>
		<rect x="383.274" y="468.735" fill="#8ED6EA" width="24.735" height="18.708"/>
		<rect x="414.464" y="468.735" fill="#8ED6EA" width="17.522" height="18.708"/>
		<rect x="383.274" y="468.735" fill="#9B9B9B" width="24.735" height="2.174"/>
		<rect x="292.075" y="468.735" fill="#9B9B9B" width="84.579" height="2.174"/>
		<rect x="405.835" y="468.735" fill="#9B9B9B" width="2.174" height="18.708"/>
		<rect x="429.763" y="468.735" fill="#9B9B9B" width="2.174" height="18.708"/>
		<rect x="414.464" y="468.735" fill="#9B9B9B" width="17.472" height="2.174"/>
		<rect x="383.274" y="470.909" fill="#7EC7DE" width="22.561" height="2.602"/>
		<rect x="403.233" y="470.909" fill="#7EC7DE" width="2.602" height="16.534"/>
		<rect x="427.161" y="470.909" fill="#7EC7DE" width="2.602" height="16.534"/>
		<rect x="414.464" y="470.909" fill="#7EC7DE" width="15.299" height="2.602"/>
		<g>
			<rect x="383.274" y="497.653" fill="#8ED6EA" width="24.735" height="18.708"/>
			<rect x="414.464" y="497.653" fill="#8ED6EA" width="17.522" height="18.708"/>
			<rect x="383.274" y="497.653" fill="#9B9B9B" width="24.735" height="2.174"/>
			<rect x="405.835" y="497.653" fill="#9B9B9B" width="2.174" height="18.708"/>
			<rect x="414.464" y="497.653" fill="#9B9B9B" width="17.472" height="2.174"/>
			<rect x="383.274" y="499.827" fill="#7EC7DE" width="22.561" height="2.602"/>
			<rect x="403.233" y="499.827" fill="#7EC7DE" width="2.602" height="16.534"/>
			<rect x="427.161" y="499.827" fill="#7EC7DE" width="2.602" height="16.534"/>
			<rect x="414.464" y="499.827" fill="#7EC7DE" width="15.299" height="2.602"/>
		</g>
		<rect x="292.075" y="468.735" fill="#DFDFDE" width="2.371" height="47.625"/>
		<rect x="352.677" y="434.219" fill="#AEB7B6" width="79.309" height="3.425"/>
		<polygon fill="#7EC7DE" points="352.677,455.034 352.677,437.644 431.986,437.644 431.986,442.584 		"/>
		<rect x="179.303" y="667.141" fill="#EF4963" width="712.731" height="13.701"/>
	</g>
	<g>
		<polygon fill="#EE2228" points="1116.974,663.174 1117.391,665.164 1145.4,665.164 1145.4,652.785 1108.888,652.785 
			1114.921,658.818 		"/>
		<polygon fill="#EE2228" points="987.321,663.174 987.783,665.164 1081.19,665.164 1081.818,663.174 1097.384,649.346 
			1037.675,645.47 981.719,645.47 978.03,652.847 984.276,659.6 		"/>
		<path fill="#F3F3F3" d="M1005.018,604.518l-7.336,1.667l-25.509,24.175l-23.842,6.002c0,0-3.334,1.667-3.334,4.335
			s0,15.005,0,15.005h205.405v-35.679c0,0-2.834-12.171-8.836-15.505H1005.018z"/>
		<path fill="#595A5C" d="M997.682,606.185l2.704-0.615h4.082l-26.718,26.832c0,0-7.627,0.257-6.418-1.831l0.841-0.212l5.077,0.208
			l23.758-23.55L997.682,606.185z"/>
		<path fill="#F3F3F3" d="M1141.566,604.518c0,0-2.001-11.337-5.002-11.337c-3.001,0-98.534,0-98.534,0s-11.671,3.168-14.338,5.669
			h-14.338c0,0-4.502-0.834-4.335,5.669H1141.566z"/>
		<path fill="#2AA9E1" d="M1039.938,602.528h-0.816c-1.524,0-2.76-1.236-2.76-2.76v-0.816c0-1.524,1.236-2.76,2.76-2.76h0.816
			c1.524,0,2.76,1.236,2.76,2.76v0.816C1042.698,601.292,1041.462,602.528,1039.938,602.528z"/>
		<path fill="#F15624" d="M1047.274,602.528h-0.816c-1.524,0-2.76-1.236-2.76-2.76v-0.816c0-1.524,1.236-2.76,2.76-2.76h0.816
			c1.524,0,2.76,1.236,2.76,2.76v0.816C1050.034,601.292,1048.798,602.528,1047.274,602.528z"/>
		<path fill="#2AA9E1" d="M1120.549,602.528h-0.816c-1.524,0-2.76-1.236-2.76-2.76v-0.816c0-1.524,1.236-2.76,2.76-2.76h0.816
			c1.524,0,2.76,1.236,2.76,2.76v0.816C1123.309,601.292,1122.073,602.528,1120.549,602.528z"/>
		<path fill="#F15624" d="M1127.885,602.528h-0.816c-1.524,0-2.76-1.236-2.76-2.76v-0.816c0-1.524,1.236-2.76,2.76-2.76h0.816
			c1.524,0,2.76,1.236,2.76,2.76v0.816C1130.645,601.292,1129.409,602.528,1127.885,602.528z"/>
		<g>
			<path fill="#2075BC" d="M1060.974,596.777h1.968l1.968,5.166h-1.844l-0.234-0.738h-1.746l-0.234,0.738h-1.846L1060.974,596.777z
				 M1062.487,600.098l-0.468-1.476l-0.03-0.184h-0.061l-0.031,0.184l-0.468,1.476H1062.487z"/>
			<path fill="#2075BC" d="M1065.335,596.777h1.906l1.046,2.029l1.045-2.029h1.907v5.166h-1.723v-2.829l-0.922,1.722h-0.616
				l-0.923-1.722v2.829h-1.721V596.777z"/>
			<path fill="#2075BC" d="M1072.031,596.777h2.582c1.378,0,2.029,0.584,2.029,1.415c0,0.473-0.221,0.848-0.695,1.082
				c0.634,0.246,0.941,0.689,0.941,1.316c0,1.009-0.984,1.353-1.906,1.353h-2.952V596.777z M1074.429,598.868
				c0.271,0,0.431-0.259,0.431-0.492s-0.197-0.492-0.492-0.492h-0.616v0.984H1074.429z M1074.429,600.836
				c0.32,0,0.615-0.209,0.615-0.492s-0.185-0.554-0.615-0.554h-0.677v1.046H1074.429z"/>
			<path fill="#2075BC" d="M1077.438,596.777h1.721v3.259c0,0.48,0.314,0.738,0.739,0.738c0.424,0,0.737-0.258,0.737-0.738v-3.259
				h1.723v3.444c0,1.156-0.984,1.845-2.46,1.845s-2.46-0.689-2.46-1.845V596.777z"/>
			<path fill="#2075BC" d="M1083.121,596.777h1.721v3.875h1.846v1.291h-3.566V596.777z"/>
			<path fill="#2075BC" d="M1088.835,596.777h1.968l1.968,5.166h-1.844l-0.234-0.738h-1.747l-0.233,0.738h-1.845L1088.835,596.777z
				 M1090.349,600.098l-0.467-1.476l-0.031-0.184h-0.061l-0.031,0.184l-0.467,1.476H1090.349z"/>
			<path fill="#2075BC" d="M1093.196,596.777h1.721l1.476,2.583v-2.583h1.723v5.166h-1.723l-1.476-2.399v2.399h-1.721V596.777z"/>
			<path fill="#2075BC" d="M1101.555,596.654c1.223,0,1.968,0.615,1.968,0.615l-0.677,1.23c0,0-0.413-0.369-1.046-0.369
				c-0.78,0-1.26,0.479-1.26,1.23c0,0.751,0.48,1.23,1.26,1.23c0.634,0,1.046-0.369,1.046-0.369l0.677,1.23
				c0,0-0.745,0.615-1.968,0.615c-1.833,0-2.891-1.243-2.891-2.706C1098.664,597.897,1099.722,596.654,1101.555,596.654z"/>
			<path fill="#2075BC" d="M1104.008,596.777h4.183v1.291h-2.46v0.738h2.213v1.23h-2.213v0.616h2.521v1.291h-4.244V596.777z"/>
		</g>
		<polygon fill="#B5B6B8" points="1009.853,598.849 1009.853,597.516 1008.353,596.193 1024.442,596.193 1023.069,597.565 
			1023.069,598.849 		"/>
		<path fill="#F15624" d="M1008.134,596.193L1008.134,596.193c0-1.997,1.619-3.616,3.616-3.616h8.857
			c1.997,0,3.616,1.619,3.616,3.616l0,0H1008.134z"/>
		<path fill="#E7E7E9" d="M1027.109,611.708v14.63c0,1.623,1.316,2.939,2.938,2.939h107.162c1.623,0,2.939-1.316,2.939-2.939v-14.63
			c0-1.623-1.316-2.939-2.939-2.939h-107.162C1028.425,608.769,1027.109,610.085,1027.109,611.708z"/>
		<path fill="#EE2228" d="M956.835,643.031h193.567v-8.503H974.341C974.341,634.528,956.835,636.029,956.835,643.031z"/>
		<rect x="944.997" y="641.656" fill="#7FCCEC" width="4.835" height="8.003"/>
		<path fill="#231F20" d="M944.997,655.702c0,0-8.274,5.085-2.522,12.838h9.483c0,0-0.917-9.503,4.335-13.046L944.997,655.702z"/>
		<path fill="#231F20" d="M1144.025,652.785v13.63h7.127c0,0,4.752-0.875,0.5-13.63H1144.025z"/>
		<path fill="#F15B2B" d="M1150.402,644.907c0,0-3.501-1.375-3.501,3.251s3.501,3.251,3.501,3.251V644.907z"/>
		<path fill="#7FCCEC" d="M1003.851,609.77h17.631v22.133h-30.761c0,0-4.001-2.126-1-7.628L1003.851,609.77z"/>
		<path fill="#7FCCEC" d="M972.174,630.36c-1.208,1.145,5.189,1.313,5.189,1.313l25.488-25.488h-5.168L972.174,630.36z"/>
		<polygon fill="#A1D8F3" points="1003.851,609.77 1021.482,631.903 1009.728,631.903 997.312,616.483 		"/>
		<polygon fill="#A1D8F3" points="1012.104,609.77 1021.482,619.773 1021.482,625.275 1007.227,609.77 		"/>
		<path fill="none" stroke="#595A5C" stroke-width="1.2182" stroke-miterlimit="10" d="M1003.821,609.77h17.631v22.133h-30.761
			c0,0-4.001-2.126-1-7.628L1003.821,609.77z"/>
		<g>
			<path fill="#F3F3F3" d="M1062.326,637.131h1.155l0.633,1.229l0.634-1.229h1.154v3.129h-1.042v-1.714l-0.559,1.043h-0.372
				l-0.559-1.043v1.714h-1.043V637.131z"/>
			<path fill="#F3F3F3" d="M1066.391,637.131h2.532v0.782h-1.49v0.447h1.341v0.745h-1.341v0.373h1.528v0.782h-2.57V637.131z"/>
			<path fill="#F3F3F3" d="M1069.338,637.131h1.266c1.147,0,1.751,0.678,1.751,1.565c0,0.886-0.604,1.564-1.751,1.564h-1.266
				V637.131z M1070.567,639.477c0.44,0,0.707-0.339,0.707-0.782c0-0.443-0.268-0.782-0.707-0.782h-0.187v1.565H1070.567z"/>
			<path fill="#F3F3F3" d="M1072.693,637.131h1.043v3.129h-1.043V637.131z"/>
			<path fill="#F3F3F3" d="M1075.824,637.056c0.741,0,1.192,0.373,1.192,0.373l-0.409,0.745c0,0-0.249-0.224-0.633-0.224
				c-0.473,0-0.764,0.291-0.764,0.745c0,0.454,0.291,0.744,0.764,0.744c0.384,0,0.633-0.223,0.633-0.223l0.409,0.745
				c0,0-0.45,0.372-1.192,0.372c-1.11,0-1.75-0.752-1.75-1.638C1074.075,637.809,1074.715,637.056,1075.824,637.056z"/>
			<path fill="#F3F3F3" d="M1078.324,637.131h1.192l1.192,3.129h-1.118l-0.142-0.447h-1.058l-0.141,0.447h-1.118L1078.324,637.131z
				 M1079.241,639.142l-0.283-0.894l-0.019-0.111h-0.037l-0.019,0.111l-0.283,0.894H1079.241z"/>
			<path fill="#F3F3F3" d="M1080.974,637.131h1.042v2.347h1.118v0.782h-2.16V637.131z"/>
			<path fill="#F3F3F3" d="M1085.076,639.235c0.268,0.179,0.67,0.317,0.968,0.317c0.164,0,0.298-0.026,0.298-0.149
				c0-0.108-0.104-0.164-0.186-0.186c-0.217-0.063-0.574-0.179-0.782-0.279c-0.279-0.134-0.633-0.372-0.633-0.857
				c0-0.719,0.648-1.024,1.377-1.024c0.667,0,1.192,0.298,1.304,0.373l-0.372,0.671c-0.265-0.187-0.641-0.261-0.894-0.261
				c-0.142,0-0.261,0.022-0.261,0.149c0,0.093,0.097,0.16,0.186,0.186c0.295,0.089,0.454,0.138,0.671,0.224
				c0.309,0.119,0.744,0.324,0.744,0.931c0,0.704-0.685,1.005-1.416,1.005c-0.734,0-1.285-0.275-1.415-0.372L1085.076,639.235z"/>
			<path fill="#F3F3F3" d="M1087.854,637.131h2.533v0.782h-1.49v0.447h1.34v0.745h-1.34v0.373h1.527v0.782h-2.57V637.131z"/>
			<path fill="#F3F3F3" d="M1090.8,637.131h1.639c0.83,0,1.303,0.507,1.303,1.117c0,0.399-0.19,0.753-0.559,0.95l0.745,1.061h-1.192
				l-0.559-0.894h-0.335v0.894h-1.043V637.131z M1092.253,638.621c0.302,0,0.447-0.16,0.447-0.373c0-0.212-0.16-0.372-0.447-0.372
				h-0.409v0.745H1092.253z"/>
			<path fill="#F3F3F3" d="M1095.014,637.131l0.633,2.011l0.019,0.112h0.037l0.019-0.112l0.634-2.011h1.117l-1.192,3.129h-1.192
				l-1.192-3.129H1095.014z"/>
			<path fill="#F3F3F3" d="M1097.737,637.131h1.043v3.129h-1.043V637.131z"/>
			<path fill="#F3F3F3" d="M1100.868,637.056c0.741,0,1.192,0.373,1.192,0.373l-0.409,0.745c0,0-0.25-0.224-0.634-0.224
				c-0.473,0-0.763,0.291-0.763,0.745c0,0.454,0.29,0.744,0.763,0.744c0.384,0,0.634-0.223,0.634-0.223l0.409,0.745
				c0,0-0.45,0.372-1.192,0.372c-1.11,0-1.751-0.752-1.751-1.638C1099.118,637.809,1099.758,637.056,1100.868,637.056z"/>
			<path fill="#F3F3F3" d="M1102.362,637.131h2.533v0.782h-1.49v0.447h1.34v0.745h-1.34v0.373h1.527v0.782h-2.57V637.131z"/>
		</g>
		<path fill="#5B5C5E" d="M969.743,648.231c-8.863,0-16.195,6.472-17.578,14.944h35.156
			C985.937,654.703,978.605,648.231,969.743,648.231z"/>
		<path fill="#5B5C5E" d="M1099.396,648.231c-8.863,0-16.194,6.472-17.578,14.944h35.156
			C1115.59,654.703,1108.258,648.231,1099.396,648.231z"/>
		<g>
			<circle fill="#231F20" cx="969.743" cy="666.178" r="14.533"/>
			<circle fill="#BDBDC2" cx="969.743" cy="666.178" r="10.239"/>
			<circle fill="#6E6F73" cx="969.743" cy="666.178" r="5.465"/>
		</g>
		<g>
			<circle fill="#231F20" cx="1099.775" cy="666.178" r="14.533"/>
			<circle fill="#BDBDC2" cx="1099.775" cy="666.178" r="10.239"/>
			<circle fill="#6E6F73" cx="1099.775" cy="666.178" r="5.465"/>
		</g>
		<g>
			<path fill="#2075BC" d="M1080.25,619.742l-4.001-1.243l1.749-4.388l3.534,1.63l-0.234-3.729h4.622l-0.155,3.729l3.534-1.63
				l1.709,4.388l-4.001,1.243l2.875,3.457l-3.729,2.835l-2.525-3.844l-2.524,3.844l-3.729-2.835L1080.25,619.742z"/>
		</g>
		<path fill="#F15B2B" d="M949.832,641.656v8.003h0c1.473,0,2.668-1.194,2.668-2.668v-2.668
			C952.5,642.85,951.306,641.656,949.832,641.656L949.832,641.656z"/>
		<rect x="1007.227" y="604.518" fill="#E7E7E9" width="132.921" height="0.75"/>
	</g>
</g>
</svg>
