<?xml version="1.0" encoding="utf-8"?>
<!-- Generator: Adobe Illustrator 17.0.0, SVG Export Plug-In . SVG Version: 6.00 Build 0)  -->
<!DOCTYPE svg PUBLIC "-//W3C//DTD SVG 1.1//EN" "http://www.w3.org/Graphics/SVG/1.1/DTD/svg11.dtd">
<svg version="1.1" id="Layer_1" xmlns="http://www.w3.org/2000/svg" xmlns:xlink="http://www.w3.org/1999/xlink" x="0px" y="0px"
	 width="404.549px" height="1117.565px" viewBox="0 0 404.549 1117.565" enable-background="new 0 0 404.549 1117.565"
	 xml:space="preserve">
<g>
	<g>
		<g opacity="0">
			<defs>
				<rect id="SVGID_1_" x="-3127.697" y="-205.808" opacity="0" width="1913.591" height="1076.395"/>
			</defs>
			<clipPath id="SVGID_2_">
				<use xlink:href="#SVGID_1_"  overflow="visible"/>
			</clipPath>
			<linearGradient id="SVGID_3_" gradientUnits="userSpaceOnUse" x1="-8870.4639" y1="332.6078" x2="2614.073" y2="332.6078">
				<stop  offset="0" style="stop-color:#FDC06F"/>
				<stop  offset="0.1403" style="stop-color:#EFACB8"/>
				<stop  offset="0.3675" style="stop-color:#B2B1D8"/>
				<stop  offset="0.4593" style="stop-color:#A9BED0"/>
				<stop  offset="0.5966" style="stop-color:#99CDC6"/>
				<stop  offset="0.6874" style="stop-color:#AFCDA7"/>
				<stop  offset="0.7491" style="stop-color:#BBCD95"/>
				<stop  offset="0.8122" style="stop-color:#CDCA90"/>
				<stop  offset="0.9336" style="stop-color:#E9C289"/>
				<stop  offset="1" style="stop-color:#F3BE86"/>
			</linearGradient>
			<rect x="-8870.464" y="-205.372" clip-path="url(#SVGID_2_)" fill="url(#SVGID_3_)" width="11484.537" height="1075.959"/>
		</g>
	</g>
</g>
<g>
	<defs>
		<rect id="SVGID_36_" x="50.835" y="351.16" width="233.315" height="157.492"/>
	</defs>
	<clipPath id="SVGID_4_">
		<use xlink:href="#SVGID_36_"  overflow="visible"/>
	</clipPath>
	<path opacity="0.6" clip-path="url(#SVGID_4_)" fill="#B2B1D8" d="M99.157,495.943c0.022-29.34,23.822-53.118,53.178-53.118
		c10.401,0,20.103,2.988,28.299,8.148c2.498-1.103,5.247-1.743,8.141-1.803c2.82-17.95,18.356-31.681,37.104-31.681
		c5.396,0,10.522,1.146,15.16,3.194c5.064-14.754,10.939-27.961,31.735-33.158c25.218-6.302,43.098,11.721,46.79,28.584
		c4.619-2.081,3.43,5.452,8.825,5.452c10.354,0,19.706,4.271,26.406,11.139c2.47-1.879,5.552-2.996,8.896-2.996
		c8.123,0,14.709,6.583,14.709,14.704c0,0.179-0.007,0.355-0.013,0.532c23.944,2.691,42.556,22.996,42.556,47.65
		c0,1.318-0.055,2.622-0.16,3.913c0.052,0.053,0.108,0.106,0.16,0.159h-0.174h-95.599H205.504H99.165
		c-0.003-0.226-0.009-0.452-0.009-0.679C99.156,495.97,99.157,495.957,99.157,495.943z"/>
</g>
<linearGradient id="SVGID_5_" gradientUnits="userSpaceOnUse" x1="-73.5496" y1="223.1916" x2="248.2349" y2="223.1916">
	<stop  offset="0" style="stop-color:#F3B07D"/>
	<stop  offset="1" style="stop-color:#A6A5D2"/>
</linearGradient>
<path opacity="0.69" fill="url(#SVGID_5_)" d="M248.234,277.684c-0.022-29.34-23.822-53.118-53.178-53.118
	c-10.401,0-20.103,2.988-28.299,8.148c-2.498-1.103-5.247-1.743-8.141-1.803c-2.82-17.95-18.356-31.681-37.104-31.681
	c-5.396,0-10.522,1.146-15.16,3.194c-5.064-14.754-10.939-27.961-31.735-33.158c-25.218-6.302-43.098,11.721-46.79,28.584
	c-4.619-2.081-3.43,5.452-8.825,5.452c-10.354,0-19.706,4.271-26.406,11.139c-2.47-1.879-5.552-2.996-8.896-2.996
	c-8.123,0-14.709,6.583-14.709,14.704c0,0.179,0.007,0.355,0.013,0.532c-23.944,2.691-42.556,22.996-42.556,47.65
	c0,1.318,0.055,2.622,0.16,3.913c-0.052,0.053-0.108,0.106-0.16,0.159h0.174h95.599h119.664h106.339
	c0.003-0.226,0.009-0.452,0.009-0.679C248.235,277.711,248.234,277.698,248.234,277.684z"/>
<linearGradient id="SVGID_6_" gradientUnits="userSpaceOnUse" x1="-40.4379" y1="743.8126" x2="281.3466" y2="743.8126">
	<stop  offset="0" style="stop-color:#F3B07D"/>
	<stop  offset="1" style="stop-color:#A6A5D2"/>
</linearGradient>
<path opacity="0.69" fill="url(#SVGID_6_)" d="M281.346,798.305c-0.022-29.34-23.822-53.119-53.178-53.119
	c-10.401,0-20.103,2.988-28.299,8.148c-2.498-1.103-5.247-1.743-8.141-1.803c-2.82-17.95-18.356-31.681-37.104-31.681
	c-5.396,0-10.522,1.146-15.16,3.194c-5.064-14.754-10.939-27.961-31.735-33.158c-25.218-6.302-43.098,11.721-46.79,28.584
	c-4.619-2.081-3.43,5.452-8.825,5.452c-10.354,0-19.706,4.271-26.406,11.139c-2.47-1.879-5.552-2.996-8.896-2.996
	c-8.123,0-14.709,6.583-14.709,14.704c0,0.179,0.007,0.355,0.013,0.532c-23.944,2.691-42.556,22.996-42.556,47.65
	c0,1.318,0.055,2.622,0.16,3.913c-0.052,0.053-0.108,0.106-0.16,0.159h0.174h95.599h119.664h106.339
	c0.003-0.226,0.009-0.452,0.009-0.679C281.347,798.332,281.346,798.319,281.346,798.305z"/>
<path opacity="0.6" fill="#B2B1D8" d="M340.424,128.357c-0.011-14.347-11.649-25.974-26.003-25.974
	c-5.086,0-9.83,1.461-13.838,3.984c-1.222-0.54-2.566-0.853-3.981-0.882c-1.379-8.777-8.976-15.491-18.144-15.491
	c-2.639,0-5.145,0.56-7.413,1.562c-2.476-7.214-5.349-13.673-15.518-16.214c-12.331-3.082-21.074,5.731-22.88,13.977
	c-2.259-1.017-1.677,2.666-4.315,2.666c-5.063,0-9.636,2.088-12.912,5.447c-1.208-0.919-2.715-1.465-4.35-1.465
	c-3.972,0-7.192,3.219-7.192,7.19c0,0.087,0.003,0.174,0.007,0.26c-11.708,1.316-20.809,11.245-20.809,23.3
	c0,0.644,0.027,1.282,0.078,1.913c-0.025,0.026-0.053,0.052-0.078,0.078h0.085h46.747h58.514h51.999
	c0.001-0.111,0.004-0.221,0.004-0.332C340.424,128.371,340.424,128.364,340.424,128.357z"/>
<g>
	<polygon fill="#D0C5A5" points="146.106,78.894 131.619,141.417 101.474,167.097 	"/>
	<polygon fill="#F9F4B7" points="186.328,158.165 146.106,78.894 131.619,141.417 	"/>
	<polygon fill="#FBECB2" points="131.619,141.417 186.328,158.165 220.939,1061.413 120.454,1061.413 	"/>
	<polygon fill="#938272" points="101.474,167.097 131.619,141.417 120.454,1061.413 67.979,1061.413 	"/>
</g>
<path fill="#FFFFFF" d="M371.333,338.971h-26.935h-13.945h-6.717c-4.667,0-8.486-3.111-8.486-6.914c0-3.803,3.819-6.914,8.486-6.914
	h7.01h13.652h14.39c3.653,0,6.641-2.435,6.641-5.411c0-2.976-2.989-5.411-6.641-5.411H173.566c-3.653,0-6.641,2.435-6.641,5.411
	c0,2.976,2.989,5.411,6.641,5.411h34.314h15.128h5.535c4.667,0,8.486,3.111,8.486,6.914c0,3.803-3.819,6.914-8.486,6.914h-5.241
	H207.88h-55.714c-4.059,0-7.379,2.705-7.379,6.012s3.321,6.012,7.379,6.012h219.167c4.059,0,7.379-2.705,7.379-6.012
	S375.392,338.971,371.333,338.971z"/>
<path fill="#FFFFFF" d="M138.726,530.922h-26.935H97.846h-6.717c-4.667,0-8.486-3.111-8.486-6.914s3.819-6.914,8.486-6.914h7.01
	h13.652h14.39c3.653,0,6.641-2.435,6.641-5.411s-2.989-5.411-6.641-5.411H-59.041c-3.653,0-6.641,2.435-6.641,5.411
	s2.989,5.411,6.641,5.411h34.314h15.128h5.535c4.667,0,8.486,3.111,8.486,6.914s-3.819,6.914-8.486,6.914h-5.241h-15.421h-55.714
	c-4.059,0-7.379,2.705-7.379,6.012s3.321,6.012,7.379,6.012h219.167c4.059,0,7.379-2.705,7.379-6.012
	S142.785,530.922,138.726,530.922z"/>
<g>
	<circle fill="#FFFFFF" cx="80.854" cy="999.551" r="5.842"/>
	<circle fill="#FFFFFF" cx="26.135" cy="269.872" r="5.012"/>
	<circle fill="#FFFFFF" cx="199.785" cy="154.897" r="6.547"/>
	<circle fill="#FFFFFF" cx="332.984" cy="158.171" r="3.274"/>
	<circle fill="#FFFFFF" cx="276.577" cy="1024.621" r="4.128"/>
	<circle fill="#FFFFFF" cx="164.288" cy="591.342" r="2.344"/>
	<circle fill="#FFFFFF" cx="101.068" cy="484.159" r="2.344"/>
</g>
</svg>
