<?xml version="1.0" encoding="utf-8"?>
<!-- Generator: Adobe Illustrator 17.0.0, SVG Export Plug-In . SVG Version: 6.00 Build 0)  -->
<!DOCTYPE svg PUBLIC "-//W3C//DTD SVG 1.1//EN" "http://www.w3.org/Graphics/SVG/1.1/DTD/svg11.dtd">
<svg version="1.1" id="Layer_1" xmlns="http://www.w3.org/2000/svg" xmlns:xlink="http://www.w3.org/1999/xlink" x="0px" y="0px"
	 width="700px" height="375px" viewBox="0 0 700 375" enable-background="new 0 0 700 375" xml:space="preserve">
<g id="background_แค่แถวบน">
</g>
<g id="Layer_1_1_">
	<g>
		<path fill="#7F6F96" d="M349.248,27.106c0,0-0.904-2.036,1.508-2.508c2.435-0.48,8.23-0.74,11.115,1.351
			c0,0,1.274,1.051,2.391,1.003c0,0-1.523,2.288-2.929,1.366C361.33,28.314,358.935,25.294,349.248,27.106z"/>
		<path fill="#7F6F96" d="M359.309,35.267c0,0,0.535,2.065,2.973,2.069c2.438,0.004,3.624-0.721,3.624-0.721
			s-1.468-0.604-1.179-1.618c0.289-1.014-1.915-0.696-1.915-0.696l-0.802-0.048L359.309,35.267z"/>
		<path fill="#7F6F96" d="M366.506,30.28c0,0,1.131-2.548,1.962-2.479c0.831,0.07,1.845,1.871,1.849,4.261
			c0.004,2.193-0.644,4.155-1.267,4.185c-0.622,0.029-2.475-2.061-2.475-2.061L366.506,30.28z"/>
		<path fill="#9D82A0" d="M344.613,31.32c3.105-2.479,1.234-5.305,10.423-4.924c7.205,0.297,6.619,3.149,9.453,4.584
			c0.278,0.139,0.608,0.121,0.864-0.059c0.736-0.513,0.783-0.483,1.157-0.692c0,0,2.083,2.025,0.066,4.013l-1.106-0.659
			c-0.253-0.113-0.535-0.15-0.809-0.106c-0.637,0.103-1.86,0.351-2.848,0.868c-1.409,0.732-4.803,1.666-7.348,1.779
			C352.572,36.208,346.565,36.314,344.613,31.32z"/>
		<path fill="#7F6F96" d="M349.105,35.479c0,0,0.007,2.332,2.706,3.214c0,0-0.286-1.435,0.476-1.805
			c0.758-0.37-1.611-0.696-1.779-1.029L349.105,35.479z"/>
	</g>
	<g>
		<path fill="#7F6F96" d="M86.771,4.561c0,0-0.904-2.036,1.508-2.508c2.435-0.48,8.23-0.74,11.115,1.351
			c0,0,1.274,1.051,2.391,1.003c0,0-1.523,2.288-2.929,1.366C98.853,5.77,96.459,2.749,86.771,4.561z"/>
		<path fill="#7F6F96" d="M96.832,12.722c0,0,0.535,2.065,2.973,2.069c2.438,0.004,3.624-0.721,3.624-0.721
			s-1.468-0.604-1.179-1.618c0.289-1.018-1.915-0.696-1.915-0.696l-0.802-0.048L96.832,12.722z"/>
		<path fill="#7F6F96" d="M104.03,7.736c0,0,1.131-2.548,1.962-2.479c0.831,0.07,1.845,1.871,1.849,4.261
			c0.004,2.193-0.644,4.155-1.267,4.185c-0.622,0.029-2.475-2.061-2.475-2.061L104.03,7.736z"/>
		<path fill="#9D82A0" d="M82.137,8.775C85.241,6.297,83.37,3.47,92.56,3.851c7.205,0.297,6.619,3.149,9.453,4.584
			c0.278,0.139,0.608,0.121,0.864-0.059c0.736-0.513,0.783-0.483,1.157-0.692c0,0,2.083,2.025,0.066,4.013l-1.106-0.659
			c-0.253-0.113-0.535-0.15-0.809-0.106c-0.637,0.103-1.86,0.351-2.848,0.868c-1.41,0.732-4.803,1.666-7.348,1.779
			C90.099,13.663,84.088,13.769,82.137,8.775z"/>
		<path fill="#7F6F96" d="M86.629,12.934c0,0,0.007,2.332,2.706,3.214c0,0-0.286-1.435,0.476-1.805
			c0.761-0.37-1.611-0.696-1.779-1.029L86.629,12.934z"/>
	</g>
	
		<linearGradient id="SVGID_1_" gradientUnits="userSpaceOnUse" x1="1276.2386" y1="379.8495" x2="1339.5387" y2="379.8495" gradientTransform="matrix(0.3661 0 0 -0.3661 -70.643 141.4065)">
		<stop  offset="1.385225e-007" style="stop-color:#F4879C"/>
		<stop  offset="0.2317" style="stop-color:#EF8AA0"/>
		<stop  offset="0.5033" style="stop-color:#E192AB"/>
		<stop  offset="0.6129" style="stop-color:#D997B1"/>
	</linearGradient>
	<path fill="url(#SVGID_1_)" d="M417.937,4.638h-19.506c-1.01,0-1.834-0.827-1.834-1.834V1.878c0-1.01,0.827-1.834,1.834-1.834
		h19.506c1.01,0,1.834,0.827,1.834,1.834v0.926C419.771,3.811,418.948,4.638,417.937,4.638z"/>
	
		<linearGradient id="SVGID_2_" gradientUnits="userSpaceOnUse" x1="1620.5087" y1="323.4995" x2="1683.8087" y2="323.4995" gradientTransform="matrix(0.3661 0 0 -0.3661 -70.643 141.4065)">
		<stop  offset="1.385225e-007" style="stop-color:#F4879C"/>
		<stop  offset="0.2317" style="stop-color:#EF8AA0"/>
		<stop  offset="0.5033" style="stop-color:#E192AB"/>
		<stop  offset="0.6129" style="stop-color:#D997B1"/>
	</linearGradient>
	<path fill="url(#SVGID_2_)" d="M543.977,25.268h-19.506c-1.01,0-1.834-0.827-1.834-1.834v-0.926c0-1.01,0.827-1.834,1.834-1.834
		h19.506c1.01,0,1.834,0.827,1.834,1.834v0.926C545.811,24.441,544.984,25.268,543.977,25.268z"/>
	
		<linearGradient id="SVGID_3_" gradientUnits="userSpaceOnUse" x1="542.0502" y1="286.8084" x2="853.1888" y2="286.8084" gradientTransform="matrix(0.3661 0 0 -0.3661 -70.643 141.4065)">
		<stop  offset="1.385225e-007" style="stop-color:#F4879C"/>
		<stop  offset="0.2317" style="stop-color:#EF8AA0"/>
		<stop  offset="0.5033" style="stop-color:#E192AB"/>
		<stop  offset="0.6129" style="stop-color:#D997B1"/>
	</linearGradient>
	<path fill="url(#SVGID_3_)" d="M239.76,43.328H134.219c-3.343,0-6.209-2.574-6.403-5.931c-0.216-3.738,2.823-7.864,17.28-7.864
		h81.645c0.161,0,0.322-0.004,0.483-0.018c0.981-0.081,5.356-0.271,5.356,2.647c0,0,0.311,1.885-4.877,1.351
		c-0.231-0.026-0.465-0.04-0.696-0.04h-22.175c0,0-3.266-0.329-3.266,2.954c0,2.771,2.555,2.735,3.354,2.658
		c0.19-0.018,0.381-0.029,0.567-0.029h33.136c0.238,0,0.476-0.011,0.714-0.04c0.641-0.081,2.376-0.07,2.376,2.339
		C241.719,43.328,239.76,43.328,239.76,43.328z"/>
</g>
<g id="text">
</g>
<g id="ปุ่มซ้ายขวา" display="none">
</g>
<g id="ชื่อประเทศ" display="none">
</g>
<g id="Layer_5">
</g>
<g id="รถในหลวง" display="none">
</g>
<g id="Layer_6">
</g>
</svg>
