<?xml version="1.0" encoding="utf-8"?>
<!-- Generator: Adobe Illustrator 17.0.0, SVG Export Plug-In . SVG Version: 6.00 Build 0)  -->
<!DOCTYPE svg PUBLIC "-//W3C//DTD SVG 1.1//EN" "http://www.w3.org/Graphics/SVG/1.1/DTD/svg11.dtd">
<svg version="1.1" id="Layer_1" xmlns="http://www.w3.org/2000/svg" xmlns:xlink="http://www.w3.org/1999/xlink" x="0px" y="0px"
	 width="700px" height="375px" viewBox="0 0 700 375" enable-background="new 0 0 700 375" xml:space="preserve">
<g id="background_แค่แถวบน">
</g>
<g id="Layer_1_1_">
	<g>
		<path fill="#7F6F96" d="M137.716,26.696c0,0,1.67-3.457-2.469-4.404c-4.168-0.955-14.138-1.714-19.213,1.732
			c0,0-2.252,1.743-4.168,1.6c0,0,2.499,4.021,4.972,2.506C116.837,28.126,121.127,23.055,137.716,26.696z"/>
		<path fill="#7F6F96" d="M119.959,40.211c0,0-1.032,3.527-5.23,3.402c-4.202-0.125-6.207-1.434-6.207-1.434
			s2.562-0.962,2.119-2.727c-0.442-1.765,3.336-1.095,3.336-1.095l1.386-0.041L119.959,40.211z"/>
		<path fill="#7F6F96" d="M107.822,31.24c0,0-1.813-4.452-3.251-4.371c-1.437,0.077-3.277,3.125-3.409,7.242
			c-0.118,3.778,0.892,7.194,1.961,7.275c1.069,0.081,4.375-3.417,4.375-3.417L107.822,31.24z"/>
		<path fill="#9D82A0" d="M145.474,34.2c-5.215-4.434-1.847-9.203-17.691-9.041c-12.428,0.125-11.566,5.068-16.526,7.393
			c-0.487,0.229-1.054,0.173-1.485-0.144c-1.238-0.921-1.327-0.877-1.957-1.257c0,0-3.697,3.376-0.328,6.907l1.935-1.076
			c0.442-0.181,0.929-0.232,1.397-0.14c1.095,0.21,3.184,0.708,4.861,1.647c2.388,1.338,8.186,3.125,12.561,3.457
			C131.506,42.194,141.851,42.699,145.474,34.2z"/>
		<path fill="#7F6F96" d="M137.517,41.122c0,0-0.133,4.017-4.832,5.396c0,0,0.568-2.458-0.722-3.136
			c-1.29-0.678,2.812-1.109,3.118-1.677L137.517,41.122z"/>
	</g>
	<g>
		<path fill="#7F6F96" d="M648.952-19.817c0,0,0.995-2.064-1.474-2.628c-2.488-0.571-8.44-1.021-11.47,1.036
			c0,0-1.345,1.043-2.488,0.955c0,0,1.493,2.399,2.967,1.496C636.487-18.962,639.049-21.991,648.952-19.817z"/>
		<path fill="#7F6F96" d="M638.348-11.745c0,0-0.616,2.105-3.122,2.031c-2.506-0.074-3.704-0.855-3.704-0.855
			s1.53-0.575,1.264-1.629c-0.265-1.054,1.99-0.652,1.99-0.652l0.826-0.026L638.348-11.745z"/>
		<path fill="#7F6F96" d="M631.106-17.1c0,0-1.084-2.657-1.942-2.609c-0.859,0.048-1.957,1.865-2.034,4.323
			c-0.07,2.256,0.534,4.294,1.172,4.342c0.638,0.048,2.609-2.042,2.609-2.042L631.106-17.1z"/>
		<path fill="#9D82A0" d="M653.585-15.335c-3.114-2.646-1.102-5.495-10.563-5.396c-7.419,0.077-6.907,3.026-9.866,4.412
			c-0.291,0.136-0.63,0.103-0.885-0.088c-0.741-0.549-0.792-0.523-1.168-0.748c0,0-2.208,2.016-0.195,4.124l1.157-0.641
			c0.265-0.111,0.553-0.14,0.837-0.085c0.652,0.125,1.902,0.42,2.904,0.984c1.426,0.796,4.887,1.865,7.5,2.064
			C645.244-10.562,651.421-10.26,653.585-15.335z"/>
		<path fill="#7F6F96" d="M648.834-11.203c0,0-0.081,2.399-2.882,3.221c0,0,0.339-1.467-0.431-1.872
			c-0.77-0.402,1.681-0.663,1.861-1.002L648.834-11.203z"/>
	</g>
	<g>
		<path fill="#7F6F96" d="M461.26-26.119c0,0,0.674-1.718-1.342-2.02c-2.031-0.306-6.837-0.306-9.148,1.53
			c0,0-1.017,0.918-1.939,0.918c0,0,1.342,1.835,2.473,1.021C451.306-24.671,453.178-27.262,461.26-26.119z"/>
		<path fill="#7F6F96" d="M453.237-18.995c0,0-0.369,1.729-2.385,1.821c-2.016,0.092-3.026-0.461-3.026-0.461
			s1.19-0.553,0.918-1.386c-0.276-0.829,1.559-0.645,1.559-0.645l0.663-0.07L453.237-18.995z"/>
		<path fill="#7F6F96" d="M447.096-22.854c0,0-1.028-2.068-1.717-1.976c-0.689,0.092-1.46,1.618-1.371,3.594
			c0.077,1.817,0.686,3.417,1.202,3.417c0.516,0,1.972-1.799,1.972-1.799L447.096-22.854z"/>
		<path fill="#9D82A0" d="M465.248-22.806c-2.657-1.935-1.216-4.342-8.805-3.689c-5.952,0.512-5.363,2.849-7.655,4.143
			c-0.225,0.125-0.498,0.122-0.715-0.015c-0.627-0.398-0.667-0.372-0.984-0.531c0,0-1.651,1.754,0.092,3.321l0.888-0.586
			c0.206-0.103,0.435-0.144,0.663-0.118c0.531,0.063,1.552,0.221,2.388,0.612c1.19,0.553,4.036,1.198,6.144,1.198
			C458.843-18.464,463.818-18.601,465.248-22.806z"/>
		<path fill="#7F6F96" d="M461.684-19.198c0,0,0.081,1.931-2.119,2.761c0,0,0.184-1.198-0.457-1.478
			c-0.641-0.28,1.308-0.634,1.434-0.918L461.684-19.198z"/>
	</g>
	<g>
		<path fill="#7F6F96" d="M593.457,14.585c0,0,1.463-3.723-2.908-4.382c-4.408-0.663-14.824-0.663-19.829,3.317
			c0,0-2.204,1.99-4.205,1.99c0,0,2.912,3.98,5.363,2.211C571.874,17.722,575.932,12.112,593.457,14.585z"/>
		<path fill="#7F6F96" d="M576.057,30.032c0,0-0.796,3.748-5.171,3.947c-4.375,0.199-6.56-0.999-6.56-0.999s2.584-1.202,1.987-3
			c-0.597-1.802,3.38-1.401,3.38-1.401l1.434-0.155L576.057,30.032z"/>
		<path fill="#7F6F96" d="M562.748,21.669c0,0-2.234-4.482-3.719-4.286c-1.489,0.195-3.162,3.509-2.978,7.795
			c0.169,3.936,1.489,7.404,2.606,7.404c1.117,0,4.279-3.896,4.279-3.896L562.748,21.669z"/>
		<path fill="#9D82A0" d="M602.104,21.772c-5.764-4.198-2.635-9.417-19.088-7.998c-12.904,1.113-11.625,6.181-16.596,8.986
			c-0.487,0.273-1.084,0.265-1.555-0.033c-1.356-0.859-1.448-0.803-2.134-1.15c0,0-3.579,3.8,0.199,7.202l1.928-1.272
			c0.446-0.225,0.947-0.313,1.441-0.258c1.154,0.133,3.361,0.483,5.178,1.327c2.584,1.202,8.75,2.602,13.324,2.602
			C588.209,31.178,599,30.887,602.104,21.772z"/>
		<path fill="#7F6F96" d="M594.375,29.593c0,0,0.173,4.187-4.6,5.985c0,0,0.398-2.602-0.995-3.199s2.838-1.375,3.107-1.987
			L594.375,29.593z"/>
	</g>
	
		<linearGradient id="SVGID_1_" gradientUnits="userSpaceOnUse" x1="10246.7002" y1="249.1502" x2="10557.8389" y2="249.1502" gradientTransform="matrix(-0.3686 0 0 -0.3686 4274.1938 122.6395)">
		<stop  offset="1.385225e-007" style="stop-color:#F4879C"/>
		<stop  offset="0.2317" style="stop-color:#EF8AA0"/>
		<stop  offset="0.5033" style="stop-color:#E192AB"/>
		<stop  offset="0.6129" style="stop-color:#D997B1"/>
	</linearGradient>
	<path fill="url(#SVGID_1_)" d="M384.916,37.783h106.25c3.365,0,6.251-2.591,6.446-5.971c0.217-3.763-2.842-7.917-17.396-7.917
		h-82.194c-0.162,0-0.324-0.004-0.486-0.018c-0.988-0.081-5.392-0.273-5.392,2.665c0,0-0.313,1.898,4.909,1.36
		c0.232-0.026,0.468-0.041,0.7-0.041h47.958c0,0,3.288-0.332,3.288,2.974c0,2.79-2.573,2.753-3.376,2.676
		c-0.192-0.018-0.383-0.029-0.571-0.029h-58.992c-0.24,0-0.479-0.011-0.719-0.041c-0.645-0.081-2.392-0.07-2.392,2.355
		C382.944,37.783,384.916,37.783,384.916,37.783z"/>
	
		<linearGradient id="SVGID_2_" gradientUnits="userSpaceOnUse" x1="801.1191" y1="385.5763" x2="1051.3491" y2="385.5763" gradientTransform="matrix(0.3686 0 0 -0.3686 -70.6443 122.6395)">
		<stop  offset="1.385225e-007" style="stop-color:#F4879C"/>
		<stop  offset="0.2317" style="stop-color:#EF8AA0"/>
		<stop  offset="0.5033" style="stop-color:#E192AB"/>
		<stop  offset="0.6129" style="stop-color:#D997B1"/>
	</linearGradient>
	<path fill="url(#SVGID_2_)" d="M313.938-16.968h-10.618h-5.499h-2.65c-1.839,0-3.347-1.235-3.347-2.742s1.507-2.742,3.347-2.742
		h2.764h5.381h5.672c1.441,0,2.617-0.966,2.617-2.145s-1.179-2.145-2.617-2.145h-73.02c-1.441,0-2.617,0.966-2.617,2.145
		s1.179,2.145,2.617,2.145h13.53h5.963h2.182c1.839,0,3.347,1.235,3.347,2.742s-1.507,2.742-3.347,2.742h-2.068h-6.081h-21.966
		c-1.6,0-2.908,1.073-2.908,2.385s1.308,2.385,2.908,2.385h86.41c1.6,0,2.908-1.073,2.908-2.385
		C316.849-15.895,315.541-16.968,313.938-16.968z"/>
	
		<linearGradient id="SVGID_3_" gradientUnits="userSpaceOnUse" x1="317.6091" y1="238.7813" x2="366.6391" y2="238.7813" gradientTransform="matrix(0.3686 0 0 -0.3686 -70.6443 122.6395)">
		<stop  offset="1.385225e-007" style="stop-color:#F4879C"/>
		<stop  offset="0.2317" style="stop-color:#EF8AA0"/>
		<stop  offset="0.5033" style="stop-color:#E192AB"/>
		<stop  offset="0.6129" style="stop-color:#D997B1"/>
	</linearGradient>
	<path fill="url(#SVGID_3_)" d="M62.639,36.946H48.262c-1.017,0-1.847-0.833-1.847-1.847v-0.932c0-1.017,0.833-1.847,1.847-1.847
		h14.378c1.017,0,1.847,0.833,1.847,1.847v0.932C64.486,36.113,63.653,36.946,62.639,36.946z"/>
	
		<linearGradient id="SVGID_4_" gradientUnits="userSpaceOnUse" x1="1347.679" y1="339.6913" x2="1410.979" y2="339.6913" gradientTransform="matrix(0.3686 0 0 -0.3686 -70.6443 122.6395)">
		<stop  offset="1.385225e-007" style="stop-color:#F4879C"/>
		<stop  offset="0.2317" style="stop-color:#EF8AA0"/>
		<stop  offset="0.5033" style="stop-color:#E192AB"/>
		<stop  offset="0.6129" style="stop-color:#D997B1"/>
	</linearGradient>
	<path fill="url(#SVGID_4_)" d="M447.546-0.246h-19.637c-1.017,0-1.847-0.833-1.847-1.847v-0.932c0-1.017,0.833-1.847,1.847-1.847
		h19.637c1.017,0,1.847,0.833,1.847,1.847v0.932C449.396-1.075,448.563-0.246,447.546-0.246z"/>
</g>
<g id="text">
</g>
<g id="ปุ่มซ้ายขวา" display="none">
</g>
<g id="ชื่อประเทศ" display="none">
</g>
<g id="Layer_5">
</g>
<g id="รถในหลวง" display="none">
</g>
<g id="Layer_6">
</g>
</svg>
