<svg xmlns="http://www.w3.org/2000/svg" xmlns:xlink="http://www.w3.org/1999/xlink" viewBox="0 0 1920.43 4331.31"><defs><style>.cls-1{isolation:isolate;}.cls-2{fill:#d5b671;}.cls-3{fill:url(#linear-gradient);}.cls-4{font-size:23.95px;font-family:MyriadPro-Regular, Myriad Pro;}.cls-4,.cls-9{fill:#fff;}.cls-5{fill:url(#linear-gradient-2);}.cls-6{fill:url(#linear-gradient-3);}.cls-7{fill:#51695c;}.cls-8{fill:#f3f3f3;}.cls-10{fill:#ccc;}.cls-11{fill:url(#linear-gradient-4);}.cls-12{fill:#301727;}.cls-13{fill:url(#linear-gradient-5);}.cls-14{fill:url(#linear-gradient-6);}.cls-15{fill:url(#linear-gradient-7);}.cls-16{fill:url(#linear-gradient-8);}.cls-17{fill:url(#linear-gradient-9);}.cls-18{fill:url(#linear-gradient-10);}.cls-19{fill:#cd675d;}.cls-20{fill:#a05d56;}.cls-21,.cls-23,.cls-29{fill:#423b50;}.cls-22{fill:#d2aa62;}.cls-23,.cls-29,.cls-34{opacity:0.18;}.cls-23,.cls-30,.cls-34{mix-blend-mode:multiply;}.cls-24{fill:#ca524c;}.cls-25{fill:none;}.cls-26{fill:url(#linear-gradient-11);}.cls-27{fill:#cd9c3c;}.cls-28{fill:#484257;}.cls-30{opacity:0.25;}.cls-31{fill:#ad4c3f;}.cls-32{fill:#c05745;}.cls-33{fill:#d2aa64;}.cls-35{fill:#853b36;}.cls-36{fill:url(#linear-gradient-12);}.cls-37{fill:url(#linear-gradient-13);}.cls-38{fill:url(#linear-gradient-14);}.cls-39{fill:url(#linear-gradient-15);}.cls-40{fill:url(#linear-gradient-16);}.cls-41{fill:url(#linear-gradient-17);}.cls-42{fill:url(#linear-gradient-18);}.cls-43{fill:url(#linear-gradient-19);}.cls-44{fill:url(#linear-gradient-20);}</style><linearGradient id="linear-gradient" x1="6528.28" y1="2467.95" x2="8449.28" y2="2467.95" gradientTransform="matrix(-1, 0, 0, 1, 8448.71, 0)" gradientUnits="userSpaceOnUse"><stop offset="0" stop-color="#d5b671"/><stop offset="0.24" stop-color="#d09966"/><stop offset="0.35" stop-color="#ce8a61"/><stop offset="0.51" stop-color="#d39270"/><stop offset="0.81" stop-color="#dfa896"/><stop offset="1" stop-color="#e7b7b2"/></linearGradient><linearGradient id="linear-gradient-2" x1="960.2" y1="585.86" x2="960.2" y2="12.18" gradientUnits="userSpaceOnUse"><stop offset="0" stop-color="#fcc189"/><stop offset="0.28" stop-color="#fac689"/><stop offset="0.63" stop-color="#f6d587"/><stop offset="1" stop-color="#eeed85"/><stop offset="1" stop-color="#eeed85"/></linearGradient><linearGradient id="linear-gradient-3" x1="2780.4" y1="712.22" x2="2780.4" y2="292.88" gradientTransform="matrix(-1, 0, 0, 1, 3407.78, 0)" gradientUnits="userSpaceOnUse"><stop offset="0" stop-color="#fcc189"/><stop offset="0.18" stop-color="#f7c089"/><stop offset="0.39" stop-color="#e8bb8b"/><stop offset="0.62" stop-color="#d0b48d"/><stop offset="0.87" stop-color="#aeaa8f"/><stop offset="1" stop-color="#99a491"/></linearGradient><linearGradient id="linear-gradient-4" x1="960.42" y1="1105.03" x2="960.42" y2="669.32" gradientTransform="matrix(1, 0, 0, 1, 0, 0)" xlink:href="#linear-gradient"/><linearGradient id="linear-gradient-5" x1="1068.61" y1="787.46" x2="1463.25" y2="787.46" gradientUnits="userSpaceOnUse"><stop offset="0.64" stop-color="#a4554c"/><stop offset="0.83" stop-color="#9e4b41"/></linearGradient><linearGradient id="linear-gradient-6" x1="1252.15" y1="787.57" x2="1280.57" y2="787.57" xlink:href="#linear-gradient-5"/><linearGradient id="linear-gradient-7" x1="504.82" y1="788.05" x2="1554.84" y2="788.05" xlink:href="#linear-gradient-5"/><linearGradient id="linear-gradient-8" x1="601.18" y1="787.52" x2="1790.1" y2="787.52" xlink:href="#linear-gradient-5"/><linearGradient id="linear-gradient-9" x1="601.18" y1="787.75" x2="1790.1" y2="787.75" xlink:href="#linear-gradient-5"/><linearGradient id="linear-gradient-10" x1="601.18" y1="787.71" x2="1790.1" y2="787.71" xlink:href="#linear-gradient-5"/><linearGradient id="linear-gradient-11" x1="236.46" y1="558.65" x2="236.46" y2="139.31" gradientTransform="matrix(1, 0, 0, 1, 0, 0)" xlink:href="#linear-gradient-3"/><linearGradient id="linear-gradient-12" x1="1740.05" y1="358.1" x2="1740.05" y2="157.79" gradientTransform="matrix(1, 0, 0, 1, 0, 0)" xlink:href="#linear-gradient-3"/><linearGradient id="linear-gradient-13" x1="2629.16" y1="318.85" x2="2629.16" y2="204.32" gradientTransform="matrix(-1, 0, 0, 1, 3988.81, 0)" xlink:href="#linear-gradient-3"/><linearGradient id="linear-gradient-14" x1="1656.55" y1="1138" x2="1656.55" y2="826.98" gradientTransform="matrix(-1, 0, 0, 1, 2996.73, 0)" xlink:href="#linear-gradient"/><linearGradient id="linear-gradient-15" x1="880.35" y1="937.49" x2="880.35" y2="687.36" gradientTransform="matrix(1, 0, 0, 1, 0, 0)" xlink:href="#linear-gradient"/><linearGradient id="linear-gradient-16" x1="1204.02" y1="822.95" x2="1204.02" y2="886.23" gradientTransform="matrix(1, 0, 0, 1, 0, 0)" xlink:href="#linear-gradient"/><linearGradient id="linear-gradient-17" x1="296.49" y1="1052.43" x2="296.49" y2="1003.42" gradientTransform="matrix(1, 0, 0, 1, 0, 0)" xlink:href="#linear-gradient"/><linearGradient id="linear-gradient-18" x1="1333.25" y1="950.36" x2="1333.25" y2="887.09" gradientTransform="matrix(1, 0, 0, 1, 0, 0)" xlink:href="#linear-gradient"/><linearGradient id="linear-gradient-19" x1="1548.14" y1="949.84" x2="1548.14" y2="886.57" gradientTransform="matrix(1, 0, 0, 1, 0, 0)" xlink:href="#linear-gradient"/><linearGradient id="linear-gradient-20" x1="594.02" y1="1049.54" x2="594.02" y2="738.52" gradientTransform="matrix(1, 0, 0, 1, 0, 0)" xlink:href="#linear-gradient"/></defs><title>background</title><g class="cls-1"><g id="background"><rect class="cls-2" x="-0.57" y="2155.31" width="1920" height="1094.49"/><rect class="cls-2" x="-0.57" y="1080.31" width="1920" height="1087.69"/><rect class="cls-2" x="-0.57" y="3245.31" width="1920" height="1086"/><polygon class="cls-3" points="1920.43 2155.31 -0.57 2155.31 -0.57 2636.84 175.89 2780.6 987.43 2763.45 1919.75 2636.84 1920.43 2155.31"/><text class="cls-4" transform="translate(1702.43 726.57)">DENMARK</text><rect class="cls-5" x="-0.03" width="1920.46" height="786.71"/><path class="cls-6" d="M767.57,533.52H421.7s16.79-113,129.28-101c0,0,8.39-89,83.95-59.91,0,0,35.26,13.69,28.54,59.91,0,0,10.07-18.83,35.26-10.27,0,0,18.47,8.56,15.11,27.39,0,0,33.58-12,35.26,20.54,0,0,78.91,6.85,83.95,63.33Z"/><path class="cls-7" d="M1410.3,501.89c28.58-.06,56.78,4.43,80.21,5.41a255.18,255.18,0,0,1-42.15-42.52c-6-7.58-155.55,33.12-155.55,33.12-71,7.53-248.68-51.86-314.29-39.85-140.37,25.7-69.18,81.15-252.59,74.17l402,185.35c35.38-41.79,61.75-84.14,87.55-131.62C1269.64,486.3,1386.19,501.94,1410.3,501.89Z"/><path class="cls-7" d="M1920.42,678.31v-187c-43-27.3-106.24.66-177.08,25.92,30.94,6.28,58.64,14.27,71.59,23.81C1849.9,566.76,1885.06,631.29,1920.42,678.31Z"/><path class="cls-8" d="M1814.92,541c-12.95-9.54-40.64-17.53-71.59-23.81-52.64-10.68-114.7-16.42-129.62-16.42-23.7,0-57.13-14.5-81.49,0-10.25,6.1-24.73,7.24-41.72,6.53-23.42-1-51.63-5.47-80.21-5.41-24.11.05-140.66-15.58-194.81,84.07-25.8,47.48-52.17,89.83-87.55,131.62a687.82,687.82,0,0,1-73.39,74l865.86,1V678.31C1885.06,631.29,1849.9,566.76,1814.92,541Z"/><path class="cls-9" d="M1915.2,413.15c-1.75-2.28-3.78-4.33-11-5.13-8.7-1-14.87,1.82-16.15,4.43-1.59-.32-1.18.84-3,.84a22.49,22.49,0,0,0-9.11,1.73,9.68,9.68,0,0,0-3.07-.46c-2.8,0-5.08,1-5.08,2.28,0,0,0,.05,0,.08-8.26.42-14.69,3.56-14.69,7.38a2.17,2.17,0,0,0,.06.48s0-.1-.06-.1h67.31v-12A27.08,27.08,0,0,0,1915.2,413.15Z"/><path class="cls-9" d="M1569.57,363.92c0-4.54-18.87-8.23-42.12-8.23A187.1,187.1,0,0,0,1505,357c-2-.17-4.16-.27-6.45-.28-2.23-2.78-14.54-4.91-29.39-4.91-4.27,0-8.33.18-12,.49-4-2.28-8.67-4.33-25.14-5.13-20-1-34.14,1.82-37.06,4.43-3.66-.32-2.72.84-7,.84a112.23,112.23,0,0,0-20.92,1.73,49.32,49.32,0,0,0-7-.46c-6.43,0-11.65,1-11.65,2.28a.46.46,0,0,0,0,.08c-19,.42-33.71,3.56-33.71,7.38a1.58,1.58,0,0,0,.13.61l-.13,0h254.89s0-.07,0-.11Z"/><path class="cls-7" d="M.46,786.71l-1-141.38c22.3-56.44,92.14-91.78,122-91.78,61.59,0,143,65.47,238,65.47s-116,166.65-116,166.65Z"/><path class="cls-10" d="M116.71,605.51s-60-6.49-63,44.82-4.27,138.6-4.27,138.6l58.62-35.86S186.41,615.71,156,607.39,116.71,605.51,116.71,605.51Z"/><rect class="cls-11" x="0.46" y="822.71" width="1919.92" height="261.29"/><path class="cls-12" d="M1266.37,787.58l1.22.35Z"/><path class="cls-12" d="M1266,787.46l.38.11Z"/><path class="cls-12" d="M1265.93,787.45h0Z"/><path class="cls-13" d="M1265.93,787.45h0Z"/><path class="cls-12" d="M1266.36,787.57h0Z"/><path class="cls-14" d="M1266.36,787.57h0Z"/><path class="cls-12" d="M1267.58,787.92l.87.25Z"/><path class="cls-15" d="M1267.58,787.92l.87.25Z"/><path class="cls-16" d="M1266,787.46l.38.11Z"/><path class="cls-17" d="M1266.37,787.58l1.22.35Z"/><path class="cls-12" d="M1495.36,788l.21-.34-.71-.18Z"/><path class="cls-18" d="M1495.36,788l.21-.34-.71-.18Z"/><rect class="cls-9" x="1343.02" y="433.16" width="74.13" height="49.78"/><rect class="cls-9" x="1343.02" y="441.72" width="74.13" height="17.6"/><polygon class="cls-9" points="1343.02 440 1343.02 441.72 1417.14 441.72 1417.14 439.84 1343.02 439.84 1343.02 440"/><polygon class="cls-9" points="1343.02 459.48 1343.02 461.2 1417.14 461.2 1417.14 459.32 1343.02 459.32 1343.02 459.48"/><rect class="cls-9" x="1299.7" y="571.11" width="160.79" height="9.51"/><rect class="cls-9" x="1352.21" y="441.72" width="11.84" height="22.2"/><rect class="cls-9" x="1374.31" y="441.72" width="11.84" height="22.2"/><rect class="cls-9" x="1396.41" y="441.72" width="11.84" height="22.2"/><polygon class="cls-9" points="1379.91 604.23 1299.7 604.23 1303.95 611.87 1379.91 611.87 1456.23 611.87 1460.49 604.23 1379.91 604.23"/><rect class="cls-9" x="1299.7" y="571.11" width="8.27" height="9.76"/><rect class="cls-9" x="1337.83" y="571.11" width="8.27" height="9.76"/><rect class="cls-9" x="1375.96" y="571.11" width="8.27" height="9.76"/><rect class="cls-9" x="1414.09" y="571.11" width="8.27" height="9.76"/><rect class="cls-9" x="1452.22" y="571.11" width="8.27" height="9.76"/><rect class="cls-9" x="1299.7" y="580.62" width="160.79" height="23.61"/><rect class="cls-9" x="1313.68" y="538.48" width="131.95" height="23.61"/><rect class="cls-9" x="1328.46" y="482.95" width="103.24" height="46.97"/><polygon class="cls-9" points="1313.63 562.1 1299.7 571.11 1460.49 571.11 1445.82 562.1 1313.63 562.1"/><polygon class="cls-9" points="1271.11 728.61 1494.85 728.61 1494.85 787.45 1265.93 787.45 1265.93 728.61 1271.11 728.61"/><polygon class="cls-9" points="1277.24 695.38 1488.43 695.38 1488.43 728.61 1272.35 728.61 1272.35 695.38 1277.24 695.38"/><polygon class="cls-9" points="1292.12 622.24 1472.85 622.24 1472.85 696.17 1287.93 696.17 1287.93 622.24 1292.12 622.24"/><rect class="cls-9" x="1287.93" y="622.24" width="184.91" height="8.16"/><polygon class="cls-9" points="1287.93 653.11 1287.93 675.1 1472.85 675.1 1472.85 651.11 1287.93 651.11 1287.93 653.11"/><rect class="cls-9" x="1287.93" y="672.1" width="184.91" height="3"/><rect class="cls-9" x="1287.93" y="650.98" width="184.91" height="3.12"/><rect class="cls-9" x="1335.27" y="650.98" width="90.24" height="44.39"/><rect class="cls-9" x="1358.89" y="695.38" width="42.99" height="33.24"/><rect class="cls-9" x="1302.37" y="650.98" width="17.75" height="44.39"/><rect class="cls-9" x="1441.24" y="650.98" width="17.75" height="44.39"/><ellipse class="cls-9" cx="1433.38" cy="663.02" rx="5.61" ry="5.62"/><ellipse class="cls-9" cx="1327.7" cy="663.02" rx="5.61" ry="5.62"/><ellipse class="cls-9" cx="1322.31" cy="592.55" rx="5.61" ry="5.62"/><ellipse class="cls-9" cx="1360.83" cy="592.81" rx="5.61" ry="5.62"/><ellipse class="cls-9" cx="1399.36" cy="593.06" rx="5.61" ry="5.62"/><ellipse class="cls-9" cx="1437.88" cy="593.31" rx="5.61" ry="5.62"/><ellipse class="cls-9" cx="1347.61" cy="450.52" rx="2.37" ry="2.38"/><ellipse class="cls-9" cx="1369.05" cy="450.52" rx="2.37" ry="2.38"/><ellipse class="cls-9" cx="1391.15" cy="450.52" rx="2.37" ry="2.38"/><ellipse class="cls-9" cx="1412.7" cy="450.52" rx="2.37" ry="2.38"/><ellipse class="cls-9" cx="1295.2" cy="663.02" rx="5.61" ry="5.62"/><ellipse class="cls-9" cx="1465.95" cy="663.02" rx="5.61" ry="5.62"/><rect class="cls-9" x="1302.37" y="695.38" width="17.75" height="5.55"/><rect class="cls-9" x="1272.35" y="695.38" width="15.58" height="5.55"/><rect class="cls-9" x="1335.27" y="695.38" width="23.62" height="5.55"/><rect class="cls-9" x="1401.89" y="695.38" width="23.62" height="5.55"/><rect class="cls-9" x="1441.24" y="695.38" width="17.75" height="5.55"/><rect class="cls-9" x="1472.85" y="695.38" width="15.58" height="5.55"/><polygon class="cls-9" points="1303.95 611.86 1287.93 622.32 1472.85 622.32 1455.98 611.86 1303.95 611.86"/><path class="cls-9" d="M1303.95,611.86s-9.88-2.6-11.13-13.31c0,0-6.59,13.31,3.12,18.54s8-2.26,8-2.26Z"/><path class="cls-9" d="M1455.84,611.93s9.88-2.6,11.13-13.31c0,0,6.59,13.31-3.12,18.54s-8-2.26-8-2.26Z"/><polygon class="cls-9" points="1272.35 720.63 1272.35 728.61 1358.89 728.61 1358.89 719.9 1272.35 719.9 1272.35 720.63"/><polygon class="cls-9" points="1401.89 720.63 1401.89 728.61 1488.43 728.61 1488.43 719.9 1401.89 719.9 1401.89 720.63"/><rect class="cls-9" x="1272.35" y="719.9" width="86.54" height="3.12"/><rect class="cls-9" x="1401.89" y="719.9" width="86.54" height="3.12"/><rect class="cls-9" x="1328.46" y="487.35" width="103.24" height="7.41"/><rect class="cls-9" x="1343.02" y="429.45" width="74.13" height="7.12"/><rect class="cls-9" x="1313.68" y="535.3" width="131.95" height="8.12"/><polygon class="cls-9" points="1340.43 489.99 1324.06 489.99 1324.06 482.61 1436.1 482.61 1436.1 489.99 1340.43 489.99"/><rect class="cls-9" x="1334.51" y="499.17" width="16.46" height="23.55"/><rect class="cls-9" x="1359.41" y="499.17" width="16.46" height="23.55"/><rect class="cls-9" x="1384.31" y="499.17" width="16.46" height="23.55"/><rect class="cls-9" x="1409.22" y="499.17" width="16.46" height="23.55"/><polygon class="cls-9" points="1380.08 320.61 1343.02 433.16 1380.08 433.16 1417.14 433.16 1380.08 320.61"/><polygon class="cls-9" points="1393.85 362.44 1380.38 362.44 1379.81 362.44 1366.3 362.44 1356.45 378.23 1379.81 378.23 1380.38 378.23 1403.73 378.23 1393.85 362.44"/><rect class="cls-9" x="1343.02" y="427.32" width="74.13" height="5.84"/><polygon class="cls-9" points="1323.2 538.48 1299.7 538.48 1299.7 529.41 1460.49 529.41 1460.49 538.48 1323.2 538.48"/><rect class="cls-9" x="1343.02" y="433.16" width="74.13" height="49.78"/><rect class="cls-19" x="1343.02" y="441.72" width="74.13" height="17.6"/><polygon class="cls-20" points="1343.02 440 1343.02 441.72 1417.14 441.72 1417.14 439.84 1343.02 439.84 1343.02 440"/><polygon class="cls-20" points="1343.02 459.48 1343.02 461.2 1417.14 461.2 1417.14 459.32 1343.02 459.32 1343.02 459.48"/><rect class="cls-21" x="1299.7" y="571.11" width="160.79" height="9.51"/><rect class="cls-21" x="1352.21" y="441.72" width="11.84" height="22.2"/><rect class="cls-21" x="1374.31" y="441.72" width="11.84" height="22.2"/><rect class="cls-21" x="1396.41" y="441.72" width="11.84" height="22.2"/><polygon class="cls-21" points="1379.91 604.23 1299.7 604.23 1303.95 611.87 1379.91 611.87 1456.23 611.87 1460.49 604.23 1379.91 604.23"/><rect class="cls-20" x="1299.7" y="571.11" width="8.27" height="9.76"/><rect class="cls-20" x="1337.83" y="571.11" width="8.27" height="9.76"/><rect class="cls-20" x="1375.96" y="571.11" width="8.27" height="9.76"/><rect class="cls-20" x="1414.09" y="571.11" width="8.27" height="9.76"/><rect class="cls-20" x="1452.22" y="571.11" width="8.27" height="9.76"/><rect class="cls-9" x="1299.7" y="580.62" width="160.79" height="23.61"/><rect class="cls-9" x="1313.68" y="538.48" width="131.95" height="23.61"/><rect class="cls-9" x="1328.46" y="482.95" width="103.24" height="46.97"/><polygon class="cls-22" points="1313.63 562.1 1299.7 571.11 1460.49 571.11 1445.82 562.1 1313.63 562.1"/><polygon class="cls-22" points="1271.11 728.61 1494.85 728.61 1494.85 787.45 1265.93 787.45 1265.93 728.61 1271.11 728.61"/><polygon class="cls-9" points="1277.24 695.38 1488.43 695.38 1488.43 728.61 1272.35 728.61 1272.35 695.38 1277.24 695.38"/><polygon class="cls-9" points="1292.12 622.24 1472.85 622.24 1472.85 696.17 1287.93 696.17 1287.93 622.24 1292.12 622.24"/><rect class="cls-20" x="1287.93" y="622.24" width="184.91" height="8.16"/><polygon class="cls-19" points="1287.93 653.11 1287.93 675.1 1472.85 675.1 1472.85 651.11 1287.93 651.11 1287.93 653.11"/><rect class="cls-20" x="1287.93" y="672.1" width="184.91" height="3"/><rect class="cls-20" x="1287.93" y="650.98" width="184.91" height="3.12"/><rect class="cls-21" x="1335.27" y="650.98" width="90.24" height="44.39"/><rect class="cls-21" x="1358.89" y="695.38" width="42.99" height="33.24"/><rect class="cls-21" x="1302.37" y="650.98" width="17.75" height="44.39"/><rect class="cls-21" x="1441.24" y="650.98" width="17.75" height="44.39"/><ellipse class="cls-22" cx="1433.38" cy="663.02" rx="5.61" ry="5.62"/><ellipse class="cls-22" cx="1327.7" cy="663.02" rx="5.61" ry="5.62"/><ellipse class="cls-22" cx="1322.31" cy="592.55" rx="5.61" ry="5.62"/><ellipse class="cls-22" cx="1360.83" cy="592.81" rx="5.61" ry="5.62"/><ellipse class="cls-22" cx="1399.36" cy="593.06" rx="5.61" ry="5.62"/><ellipse class="cls-22" cx="1437.88" cy="593.31" rx="5.61" ry="5.62"/><ellipse class="cls-22" cx="1347.61" cy="450.52" rx="2.37" ry="2.38"/><ellipse class="cls-22" cx="1369.05" cy="450.52" rx="2.37" ry="2.38"/><ellipse class="cls-22" cx="1391.15" cy="450.52" rx="2.37" ry="2.38"/><ellipse class="cls-22" cx="1412.7" cy="450.52" rx="2.37" ry="2.38"/><ellipse class="cls-22" cx="1295.2" cy="663.02" rx="5.61" ry="5.62"/><ellipse class="cls-22" cx="1465.95" cy="663.02" rx="5.61" ry="5.62"/><rect class="cls-22" x="1302.37" y="695.38" width="17.75" height="5.55"/><rect class="cls-22" x="1272.35" y="695.38" width="15.58" height="5.55"/><rect class="cls-22" x="1335.27" y="695.38" width="23.62" height="5.55"/><rect class="cls-22" x="1401.89" y="695.38" width="23.62" height="5.55"/><rect class="cls-22" x="1441.24" y="695.38" width="17.75" height="5.55"/><rect class="cls-22" x="1472.85" y="695.38" width="15.58" height="5.55"/><path class="cls-22" d="M1472.85,622.22l-8.65-5.31c9.19-5.36,2.77-18.3,2.77-18.3A16.17,16.17,0,0,1,1456,612l0,.15h-152s-9.88-2.77-11.13-13.47c0,0-6.59,13.17,3.12,18.4h0l-8,5.1Z"/><polygon class="cls-19" points="1272.35 720.63 1272.35 728.61 1358.89 728.61 1358.89 719.9 1272.35 719.9 1272.35 720.63"/><polygon class="cls-19" points="1401.89 720.63 1401.89 728.61 1488.43 728.61 1488.43 719.9 1401.89 719.9 1401.89 720.63"/><rect class="cls-20" x="1272.35" y="719.9" width="86.54" height="3.12"/><rect class="cls-20" x="1401.89" y="719.9" width="86.54" height="3.12"/><rect class="cls-21" x="1328.46" y="487.35" width="103.24" height="7.41"/><rect class="cls-21" x="1313.68" y="535.3" width="131.95" height="8.12"/><polygon class="cls-20" points="1340.43 489.99 1324.06 489.99 1324.06 482.61 1436.1 482.61 1436.1 489.99 1340.43 489.99"/><rect class="cls-21" x="1334.51" y="499.17" width="16.46" height="23.55"/><rect class="cls-21" x="1359.41" y="499.17" width="16.46" height="23.55"/><rect class="cls-21" x="1384.31" y="499.17" width="16.46" height="23.55"/><rect class="cls-21" x="1409.22" y="499.17" width="16.46" height="23.55"/><polygon class="cls-22" points="1417.42 429.45 1417.42 427.68 1415.22 427.68 1399.05 378.54 1403.73 378.54 1393.85 362.6 1380.08 320.69 1366.3 362.63 1366.3 362.63 1356.45 378.54 1361.1 378.54 1344.94 427.68 1343.42 427.68 1343.42 429.45 1343.42 433.16 1343.42 436.7 1417.42 436.7 1417.42 429.45 1417.42 429.45"/><polygon class="cls-20" points="1323.2 538.48 1299.7 538.48 1299.7 529.41 1460.49 529.41 1460.49 538.48 1323.2 538.48"/><path class="cls-23" d="M1380.08,320.61l-13.78,41.83-9.85,15.79h4.65l-16.16,49.09H1343v32h0v1.88h0v21.42h-19V490h4.4v39.42H1299.7v9.07h14v23.61h-.05l-13.93,9v33.12l4.24,7.63c-.06,0-9.88-2.63-11.13-13.31,0,0-6.59,13.31,3.12,18.54l-7.89,5.15h-.12v73.13h-15.58v33.24h-6.42v58.84h114.45l-.3-466.84Z"/><path class="cls-24" d="M1266.36,787.57l-.38-.11Z"/><path class="cls-25" d="M1266,787.46l.38.11Z"/><path class="cls-9" d="M177,314.32c0-9.07-8.22-16.42-18.35-16.42a19.86,19.86,0,0,0-9.77,2.52,8,8,0,0,0-2.81-.56c-1-5.55-6.34-9.79-12.81-9.79a14.21,14.21,0,0,0-5.23,1c-1.75-4.56-3.78-8.64-11-10.25-8.7-1.95-14.87,3.62-16.15,8.84-1.59-.64-1.18,1.69-3,1.69a13.45,13.45,0,0,0-9.11,3.44,5.45,5.45,0,0,0-3.07-.93,4.83,4.83,0,0,0-5.08,4.55c0,.06,0,.11,0,.16-8.26.83-14.69,7.11-14.69,14.73,0,.41,0,.81.06,1.21l-.06,0H176.95c0-.07,0-.14,0-.21Z"/><path class="cls-26" d="M96.27,450.16H442.13s-16.79-113-129.28-101c0,0-8.39-89-83.95-59.91,0,0-35.26,13.69-28.54,59.91,0,0-10.07-18.83-35.26-10.27,0,0-18.47,8.56-15.11,27.39,0,0-33.58-12-35.26,20.54,0,0-78.91,6.85-83.95,63.33Z"/><rect class="cls-9" x="945.09" y="550.63" width="294.9" height="235.48"/><polygon class="cls-20" points="945.09 582.15 945.09 610.94 1239.99 610.94 1239.99 579.54 945.09 579.54 945.09 582.15"/><rect class="cls-21" x="1010.8" y="727.52" width="18.65" height="34.97"/><rect class="cls-21" x="999.6" y="587.32" width="41.06" height="54.69"/><rect class="cls-27" x="999.6" y="632.18" width="41.06" height="9.83"/><polygon class="cls-20" points="1255.49 551.56 1245.04 515.22 945.14 515.22 934.64 551.56 1255.49 551.56"/><polygon class="cls-20" points="1233.42 515.22 1222.96 478.88 967.21 478.88 956.71 515.22 1233.42 515.22"/><rect class="cls-21" x="999.6" y="641.69" width="41.06" height="54.69"/><rect class="cls-27" x="999.6" y="686.55" width="41.06" height="9.83"/><rect class="cls-21" x="1148.61" y="727.09" width="18.65" height="34.97"/><rect class="cls-21" x="1137.4" y="586.9" width="41.06" height="54.69"/><rect class="cls-27" x="1137.4" y="631.75" width="41.06" height="9.83"/><rect class="cls-21" x="1137.4" y="641.27" width="41.06" height="54.69"/><rect class="cls-27" x="1137.4" y="686.12" width="41.06" height="9.83"/><polygon class="cls-23" points="966.73 479.82 956.22 515.92 944.65 515.92 934.15 552.02 944.42 552.02 944.42 580.39 944.42 583.01 944.42 611.79 944.42 786.67 1087.42 786.67 1087.42 479.82 966.73 479.82"/><rect class="cls-9" x="1499.95" y="540.99" width="315" height="129.83"/><polygon class="cls-22" points="1499.95 570.14 1499.95 610.97 1814.95 610.97 1814.95 566.43 1499.95 566.43 1499.95 570.14"/><rect class="cls-20" x="1499.95" y="605.4" width="315" height="5.57"/><rect class="cls-28" x="1546.69" y="636.03" width="12.62" height="23.66"/><rect class="cls-28" x="1570.24" y="636.03" width="12.62" height="23.66"/><rect class="cls-28" x="1593.8" y="636.03" width="12.62" height="23.66"/><rect class="cls-28" x="1617.35" y="636.03" width="12.62" height="23.66"/><rect class="cls-20" x="1499.95" y="566.2" width="315" height="5.8"/><rect class="cls-28" x="1537.66" y="577.1" width="31" height="41.3"/><rect class="cls-28" x="1607.99" y="577.1" width="31" height="41.3"/><rect class="cls-22" x="1537.66" y="610.97" width="31" height="7.42"/><rect class="cls-22" x="1607.99" y="610.97" width="31" height="7.42"/><polygon class="cls-28" points="1588.11 532.13 1495.02 532.13 1499.95 540.99 1588.11 540.99 1814.92 540.99 1819.88 532.13 1588.11 532.13"/><rect class="cls-22" x="1515.16" y="532.13" width="7.5" height="8.86"/><rect class="cls-22" x="1549.76" y="532.13" width="7.5" height="8.86"/><rect class="cls-22" x="1584.36" y="532.13" width="7.5" height="8.86"/><rect class="cls-22" x="1618.96" y="532.13" width="7.5" height="8.86"/><rect class="cls-22" x="1653.57" y="532.13" width="7.5" height="8.86"/><rect class="cls-20" x="1495.03" y="521.58" width="324.85" height="10.55"/><rect class="cls-28" x="1686.63" y="636.03" width="12.62" height="23.66"/><rect class="cls-28" x="1710.19" y="636.03" width="12.62" height="23.66"/><rect class="cls-28" x="1733.74" y="636.03" width="12.62" height="23.66"/><rect class="cls-28" x="1757.3" y="636.03" width="12.62" height="23.66"/><rect class="cls-28" x="1677.61" y="577.1" width="31" height="41.3"/><rect class="cls-28" x="1747.94" y="577.1" width="31" height="41.3"/><rect class="cls-22" x="1677.61" y="610.97" width="31" height="7.42"/><rect class="cls-22" x="1747.94" y="610.97" width="31" height="7.42"/><rect class="cls-22" x="1689.7" y="532.13" width="7.5" height="8.86"/><rect class="cls-22" x="1724.31" y="532.13" width="7.5" height="8.86"/><rect class="cls-22" x="1758.91" y="532.13" width="7.5" height="8.86"/><rect class="cls-22" x="1793.51" y="532.13" width="7.5" height="8.86"/><polygon class="cls-29" points="1495.03 521.94 1494.49 532.31 1499.42 540.99 1499.42 670.35 1649.42 670.35 1649.42 521.94 1495.03 521.94"/><rect class="cls-9" x="1515.39" y="472.29" width="79.51" height="15.83"/><rect class="cls-9" x="1524.07" y="434.78" width="62.12" height="26.11"/><polygon class="cls-21" points="1555.15 494.34 1555.14 494.34 1486.21 494.34 1493.65 507 1555.14 507 1555.15 507 1616.64 507 1624.08 494.34 1555.15 494.34"/><rect class="cls-20" x="1522.82" y="494.34" width="6.32" height="12.66"/><rect class="cls-20" x="1551.99" y="494.34" width="6.32" height="12.66"/><rect class="cls-20" x="1581.12" y="494.34" width="6.32" height="12.66"/><rect class="cls-20" x="1529.79" y="472.28" width="6.32" height="15.84"/><rect class="cls-20" x="1540.95" y="444.9" width="6.32" height="16"/><rect class="cls-20" x="1563.12" y="444.9" width="6.32" height="16"/><rect class="cls-20" x="1552.01" y="472.28" width="6.32" height="15.84"/><rect class="cls-20" x="1574.18" y="472.28" width="6.32" height="15.84"/><rect class="cls-9" x="1493.67" y="512.21" width="122.95" height="72.9"/><polygon class="cls-22" points="1498.15 488.14 1486.21 494.32 1624.08 494.32 1611.51 488.14 1498.15 488.14"/><rect class="cls-9" x="1476.03" y="602.53" width="158.59" height="116.49"/><polygon class="cls-19" points="1476.03 628.68 1476.03 665.32 1634.62 665.32 1634.62 625.35 1476.03 625.35 1476.03 628.68"/><rect class="cls-20" x="1476.03" y="660.32" width="158.59" height="5"/><rect class="cls-21" x="1517.96" y="687.8" width="11.32" height="21.23"/><rect class="cls-21" x="1539.09" y="687.8" width="11.32" height="21.23"/><rect class="cls-21" x="1560.23" y="687.8" width="11.32" height="21.23"/><rect class="cls-21" x="1581.37" y="687.8" width="11.32" height="21.23"/><rect class="cls-20" x="1476.03" y="625.14" width="158.59" height="5.2"/><ellipse class="cls-22" cx="1490.97" cy="644.92" rx="9.55" ry="9.58"/><ellipse class="cls-22" cx="1554.08" cy="644.92" rx="9.55" ry="9.58"/><ellipse class="cls-22" cx="1617.18" cy="644.92" rx="9.55" ry="9.58"/><rect class="cls-21" x="1509.86" y="634.92" width="27.82" height="37.05"/><rect class="cls-21" x="1572.97" y="634.92" width="27.82" height="37.05"/><rect class="cls-22" x="1509.86" y="665.31" width="27.82" height="6.66"/><rect class="cls-22" x="1572.97" y="665.31" width="27.82" height="6.66"/><polygon class="cls-21" points="1555.13 594.58 1471.61 594.58 1476.03 602.53 1555.13 602.53 1634.6 602.53 1639.04 594.58 1555.13 594.58"/><rect class="cls-20" x="1489.67" y="594.58" width="6.73" height="7.95"/><rect class="cls-20" x="1520.72" y="594.58" width="6.73" height="7.95"/><rect class="cls-20" x="1551.76" y="594.58" width="6.73" height="7.95"/><rect class="cls-20" x="1582.81" y="594.58" width="6.73" height="7.95"/><rect class="cls-20" x="1613.86" y="594.58" width="6.73" height="7.95"/><path class="cls-22" d="M1639,594.14l-7.83-4.64c8.32-4.85,2.51-16.49,2.51-16.49a14.43,14.43,0,0,1-9.92,12.06l0,0H1486.11s-8.94-2.36-10.08-12.05c0,0-6,11.83,2.83,16.56l-7.25,4.51Z"/><polygon class="cls-19" points="1493.67 532.11 1493.67 568.75 1616.62 568.75 1616.62 528.78 1493.67 528.78 1493.67 532.11"/><rect class="cls-20" x="1493.67" y="563.75" width="122.95" height="5"/><rect class="cls-20" x="1493.67" y="528.57" width="122.95" height="5.2"/><rect class="cls-20" x="1493.65" y="507" width="122.95" height="5.2"/><rect class="cls-20" x="1515.39" y="467.06" width="79.51" height="5.37"/><rect class="cls-21" x="1541.22" y="538.35" width="27.82" height="30.39"/><rect class="cls-22" x="1541.22" y="568.74" width="27.82" height="6.66"/><ellipse class="cls-22" cx="1506.6" cy="548.66" rx="7.55" ry="7.57"/><ellipse class="cls-22" cx="1529.74" cy="548.66" rx="7.55" ry="7.57"/><ellipse class="cls-22" cx="1580.52" cy="548.66" rx="7.55" ry="7.57"/><ellipse class="cls-22" cx="1603.66" cy="548.66" rx="7.55" ry="7.57"/><rect class="cls-20" x="1512.59" y="460.9" width="85.07" height="6.33"/><rect class="cls-21" x="1524.07" y="434.78" width="62.12" height="5.17"/><rect class="cls-20" x="1524.07" y="439.96" width="62.12" height="4.94"/><path class="cls-22" d="M1589.54,426.07c0,5.18-8.4,6.62-8.4,6.62h0c-6.31-4-17.31-12.24-26-30-8.69,17.75-19.69,26.1-26,29.74,0,0-8-1.05-8-6.22a5.94,5.94,0,0,0,2.9,8.47h62.14A6.42,6.42,0,0,0,1589.54,426.07Z"/><g class="cls-30"><path class="cls-21" d="M1529.14,494.38h-42.93l7.44,12.66v5.2h0v72.9h-7.57s-8.94-2.36-10.08-12.05c0,0-6,12.05,2.83,16.79l-7.25,4.73,4.42,7.95V719.06h79.1V494.38h-26Z"/><polygon class="cls-21" points="1486.21 494.37 1555.13 494.37 1555.13 488.18 1498.15 488.18 1486.21 494.37"/><path class="cls-21" d="M1529.14,432.4s-8-1-8-6.14c0,0-3.09,5.74,2.9,8.56v26.11h-11.47v6.33h2.8v20.9h39.74V402.58h0C1546.44,420.33,1535.44,428.77,1529.14,432.4Z"/></g><rect class="cls-9" x="1438.99" y="640.69" width="189.8" height="78.23"/><polygon class="cls-22" points="1438.99 658.25 1438.99 682.85 1628.79 682.85 1628.79 656.01 1438.99 656.01 1438.99 658.25"/><rect class="cls-31" x="1438.99" y="679.5" width="189.8" height="3.35"/><rect class="cls-21" x="1467.15" y="697.95" width="7.6" height="14.26"/><rect class="cls-21" x="1481.34" y="697.95" width="7.6" height="14.26"/><rect class="cls-21" x="1495.54" y="697.95" width="7.6" height="14.26"/><rect class="cls-21" x="1509.73" y="697.95" width="7.6" height="14.26"/><rect class="cls-31" x="1438.99" y="655.87" width="189.8" height="3.49"/><rect class="cls-21" x="1461.71" y="662.44" width="18.68" height="24.88"/><rect class="cls-21" x="1504.09" y="662.44" width="18.68" height="24.88"/><rect class="cls-22" x="1461.71" y="682.85" width="18.68" height="4.47"/><rect class="cls-22" x="1504.09" y="682.85" width="18.68" height="4.47"/><polygon class="cls-21" points="1492.11 635.35 1436.02 635.35 1438.99 640.69 1492.11 640.69 1628.78 640.69 1631.76 635.35 1492.11 635.35"/><rect class="cls-22" x="1448.15" y="635.35" width="4.52" height="5.34"/><rect class="cls-22" x="1469" y="635.35" width="4.52" height="5.34"/><rect class="cls-22" x="1489.85" y="635.35" width="4.52" height="5.34"/><rect class="cls-22" x="1510.7" y="635.35" width="4.52" height="5.34"/><rect class="cls-22" x="1531.55" y="635.35" width="4.52" height="5.34"/><rect class="cls-32" x="1436.02" y="628.99" width="195.74" height="6.36"/><rect class="cls-21" x="1551.47" y="697.95" width="7.6" height="14.26"/><rect class="cls-21" x="1565.67" y="697.95" width="7.6" height="14.26"/><rect class="cls-21" x="1579.86" y="697.95" width="7.6" height="14.26"/><rect class="cls-21" x="1594.05" y="697.95" width="7.6" height="14.26"/><rect class="cls-21" x="1546.04" y="662.44" width="18.68" height="24.88"/><rect class="cls-21" x="1588.42" y="662.44" width="18.68" height="24.88"/><rect class="cls-22" x="1546.04" y="682.85" width="18.68" height="4.47"/><rect class="cls-22" x="1588.42" y="682.85" width="18.68" height="4.47"/><rect class="cls-22" x="1553.33" y="635.35" width="4.52" height="5.34"/><rect class="cls-22" x="1574.18" y="635.35" width="4.52" height="5.34"/><rect class="cls-22" x="1595.02" y="635.35" width="4.52" height="5.34"/><rect class="cls-22" x="1615.87" y="635.35" width="4.52" height="5.34"/><polygon class="cls-29" points="1436.19 629.24 1436.32 635.58 1439.42 640.9 1439.42 656.09 1439.42 656.23 1439.42 658.47 1439.42 659.59 1439.42 679.72 1439.42 683.07 1439.42 719.49 1532.42 719.49 1532.42 629.24 1436.19 629.24"/><rect class="cls-9" x="1628.42" y="663.33" width="66" height="55.15"/><rect class="cls-19" x="1628.79" y="640.69" width="65.63" height="22.6"/><rect class="cls-28" x="1638.46" y="674.21" width="16.49" height="15.58"/><rect class="cls-28" x="1669.24" y="674.21" width="16.49" height="15.58"/><rect class="cls-29" x="1628.42" y="640.27" width="33" height="78.22"/><path class="cls-7" d="M1887.42,787.67h-462V718.39l269,.09V668.34l121.42,1c15.23,0,55.62,76.7,55.62,76.7Z"/><rect class="cls-9" x="1654.42" y="439.71" width="113" height="82.23"/><rect class="cls-20" x="1654.42" y="451.74" width="113" height="17.05"/><rect class="cls-22" x="1688.42" y="455.76" width="44" height="51.14"/><rect class="cls-22" x="1683.42" y="447.73" width="54" height="10.03"/><rect class="cls-21" x="1693.42" y="464.78" width="11" height="34.09"/><rect class="cls-21" x="1716.42" y="464.78" width="11" height="34.09"/><polygon class="cls-21" points="1732.12 431.35 1639.03 431.35 1643.96 440.21 1732.12 440.21 1777.86 440.21 1782.82 431.35 1732.12 431.35"/><rect class="cls-20" x="1639.03" y="420.8" width="143.78" height="10.55"/><polygon class="cls-22" points="1782.82 420.8 1746.76 411.94 1672.42 411.94 1639.03 420.8 1782.82 420.8"/><rect class="cls-33" x="1673.42" y="387.57" width="71" height="24.07"/><rect class="cls-20" x="1666.42" y="375.53" width="84" height="12.03"/><path class="cls-20" d="M1761.9,362.54c0,8.1-12.47,10-12.47,10h0c-9.86-6-27.07-19.21-40.66-47-13.59,27.76-30.79,40.8-40.66,46.49,0,0-12.51-1.66-12.47-9.75,0,0-4.83,8.53,4.54,13.24h97.2C1766.73,370.83,1761.9,362.54,1761.9,362.54Z"/><rect class="cls-9" x="174.42" y="388.57" width="75" height="5.01"/><rect class="cls-9" x="121.42" y="423.67" width="361" height="362"/><polygon class="cls-20" points="501.84 425.52 486.73 405.44 117.08 405.44 101.9 425.52 501.84 425.52"/><rect class="cls-20" x="121.42" y="561.3" width="360.9" height="75.28"/><rect class="cls-20" x="121.42" y="460.02" width="360.9" height="16.46"/><rect class="cls-28" x="160.7" y="468.27" width="13.94" height="26.14"/><rect class="cls-28" x="195.55" y="468.2" width="13.94" height="26.14"/><rect class="cls-28" x="227.48" y="468.3" width="13.94" height="26.14"/><rect class="cls-28" x="262.33" y="468.24" width="13.94" height="26.14"/><rect class="cls-28" x="296.7" y="468.31" width="13.94" height="26.14"/><rect class="cls-28" x="328.55" y="468.25" width="13.94" height="26.14"/><rect class="cls-28" x="361.48" y="468.35" width="13.94" height="26.14"/><rect class="cls-28" x="395.33" y="468.28" width="13.94" height="26.14"/><rect class="cls-28" x="430.94" y="468.38" width="13.94" height="26.14"/><rect class="cls-28" x="152.32" y="511.78" width="30.69" height="40.88"/><rect class="cls-22" x="152.32" y="545.31" width="30.69" height="7.35"/><rect class="cls-28" x="219.11" y="511.78" width="30.69" height="40.88"/><rect class="cls-22" x="219.11" y="545.31" width="30.69" height="7.35"/><rect class="cls-28" x="286.78" y="511.78" width="30.69" height="40.88"/><rect class="cls-22" x="286.78" y="545.31" width="30.69" height="7.35"/><rect class="cls-28" x="353.56" y="511.78" width="30.69" height="40.88"/><rect class="cls-22" x="353.56" y="545.31" width="30.69" height="7.35"/><rect class="cls-28" x="422.56" y="511.78" width="30.69" height="40.88"/><rect class="cls-22" x="422.56" y="545.31" width="30.69" height="7.35"/><rect class="cls-22" x="174.42" y="394.59" width="75" height="11.03"/><rect class="cls-9" x="331.42" y="375.53" width="75" height="30.08"/><path class="cls-20" d="M414.5,363.87c0,7-10.73,8.11-10.73,8.11h0c-8.48-4.44-23.28-16.13-35-40-11.69,23.88-26.48,35.28-35,40.18,0,0-10.76-1.24-10.72-8.19,0,0-4.15,8,3.91,11.58h83.6C418.65,372,414.5,363.87,414.5,363.87Z"/><path class="cls-22" d="M257.5,376.68c0,7-10.73,7.88-10.73,7.88h0c-8.48-4-23.28-15.9-35-39.78-11.69,23.88-26.48,35.4-35,40.29,0,0-10.76-1.18-10.72-8.13,0,0-4.15,8.08,3.91,11.64h83.6C261.65,385,257.5,376.68,257.5,376.68Z"/><rect class="cls-28" x="160.7" y="652.64" width="6.97" height="15.5"/><rect class="cls-28" x="179.53" y="652.64" width="6.97" height="15.5"/><rect class="cls-28" x="198.58" y="652.64" width="6.97" height="15.5"/><rect class="cls-28" x="217.41" y="652.64" width="6.97" height="15.5"/><rect class="cls-28" x="236.46" y="652.64" width="6.97" height="15.5"/><rect class="cls-28" x="255.29" y="652.64" width="6.97" height="15.5"/><rect class="cls-28" x="274.34" y="652.64" width="6.97" height="15.5"/><rect class="cls-28" x="293.17" y="652.64" width="6.97" height="15.5"/><rect class="cls-28" x="160.7" y="686.34" width="6.97" height="15.5"/><rect class="cls-28" x="179.53" y="686.34" width="6.97" height="15.5"/><rect class="cls-28" x="198.58" y="686.34" width="6.97" height="15.5"/><rect class="cls-28" x="217.41" y="686.34" width="6.97" height="15.5"/><rect class="cls-28" x="236.46" y="686.34" width="6.97" height="15.5"/><rect class="cls-28" x="255.29" y="686.34" width="6.97" height="15.5"/><rect class="cls-28" x="274.34" y="686.34" width="6.97" height="15.5"/><path class="cls-23" d="M249.42,405.62v-17h4.17c8.06-3.55,3.91-11.89,3.91-11.89,0,7-10.73,7.88-10.73,7.88h0c-8.48-4-23.28-15.9-35-39.78-11.69,23.88-26.48,35.4-35,40.29,0,0-10.76-1.19-10.72-8.13,0,0-4.15,8.08,3.91,11.64h4.43v17H117.08L101.9,425.67h19.52v360h172V405.62Z"/><path class="cls-7" d="M582.28,528.42c24.36,12.82,72.62.9,121.93,1,24.11,0,133,26.71,194.81,74.37,64.61,49.81,83.33,121.93,160.93,181.89l-1008.39,1s78.76-80.52,169.94-81c106.67-.6,140-107.47,175-130.27s80.61-47,104.3-47S557.92,515.6,582.28,528.42Z"/><rect class="cls-9" x="695.52" y="610.33" width="220.42" height="176"/><polygon class="cls-19" points="695.52 633.9 695.52 655.41 915.94 655.41 915.94 631.94 695.52 631.94 695.52 633.9"/><rect class="cls-28" x="744.64" y="742.55" width="13.94" height="26.14"/><rect class="cls-28" x="736.26" y="637.76" width="30.69" height="40.88"/><rect class="cls-22" x="736.26" y="671.29" width="30.69" height="7.35"/><polygon class="cls-19" points="927.53 611.03 919.72 583.87 695.56 583.87 687.71 611.03 927.53 611.03"/><polygon class="cls-19" points="911.03 583.87 903.22 556.71 712.06 556.71 704.21 583.87 911.03 583.87"/><rect class="cls-28" x="736.26" y="678.4" width="30.69" height="40.88"/><rect class="cls-22" x="736.26" y="711.93" width="30.69" height="7.35"/><rect class="cls-28" x="847.64" y="742.23" width="13.94" height="26.14"/><rect class="cls-28" x="839.26" y="637.44" width="30.69" height="40.88"/><rect class="cls-22" x="839.26" y="670.97" width="30.69" height="7.35"/><rect class="cls-28" x="839.26" y="678.08" width="30.69" height="40.88"/><rect class="cls-22" x="839.26" y="711.61" width="30.69" height="7.35"/><polygon class="cls-23" points="712.06 557.04 704.21 584.11 695.56 584.11 687.71 611.18 695.42 611.18 695.42 631.94 695.42 633.9 695.42 655.41 695.42 786.67 807.42 786.67 807.42 557.04 712.06 557.04"/><rect class="cls-9" x="514.15" y="412.38" width="120.81" height="24.05"/><rect class="cls-9" x="527.33" y="355.39" width="94.39" height="39.68"/><polygon class="cls-28" points="574.56 445.89 574.55 445.89 469.81 445.89 481.12 465.13 574.55 465.13 574.56 465.13 667.99 465.13 679.3 445.89 574.56 445.89"/><rect class="cls-20" x="525.43" y="445.89" width="9.61" height="19.24"/><rect class="cls-20" x="569.76" y="445.89" width="9.61" height="19.24"/><rect class="cls-20" x="614.02" y="445.89" width="9.61" height="19.24"/><rect class="cls-20" x="536.03" y="412.37" width="9.61" height="24.07"/><rect class="cls-20" x="552.98" y="370.77" width="9.61" height="24.3"/><rect class="cls-20" x="586.67" y="370.77" width="9.61" height="24.3"/><rect class="cls-20" x="569.78" y="412.37" width="9.61" height="24.07"/><rect class="cls-20" x="603.48" y="412.37" width="9.61" height="24.07"/><rect class="cls-9" x="481.15" y="473.04" width="186.82" height="110.77"/><polygon class="cls-22" points="487.95 436.46 469.81 445.86 679.3 445.86 660.19 436.46 487.95 436.46"/><rect class="cls-9" x="454.34" y="610.27" width="240.97" height="177.01"/><polygon class="cls-19" points="454.34 650.01 454.34 705.68 695.31 705.68 695.31 644.95 454.34 644.95 454.34 650.01"/><rect class="cls-20" x="454.34" y="698.09" width="240.97" height="7.59"/><rect class="cls-28" x="518.05" y="739.84" width="17.2" height="32.26"/><rect class="cls-28" x="550.17" y="739.84" width="17.2" height="32.26"/><rect class="cls-28" x="582.28" y="739.84" width="17.2" height="32.26"/><rect class="cls-28" x="614.39" y="739.84" width="17.2" height="32.26"/><rect class="cls-20" x="454.34" y="644.63" width="240.97" height="7.91"/><ellipse class="cls-22" cx="477.05" cy="674.68" rx="14.51" ry="14.55"/><ellipse class="cls-22" cx="572.93" cy="674.68" rx="14.51" ry="14.55"/><ellipse class="cls-22" cx="668.82" cy="674.68" rx="14.51" ry="14.55"/><rect class="cls-28" x="505.75" y="659.5" width="42.27" height="56.3"/><rect class="cls-28" x="601.63" y="659.5" width="42.27" height="56.3"/><rect class="cls-22" x="505.75" y="705.68" width="42.27" height="10.12"/><rect class="cls-22" x="601.63" y="705.68" width="42.27" height="10.12"/><polygon class="cls-28" points="574.53 598.19 447.62 598.19 454.34 610.27 574.53 610.27 695.28 610.27 702.03 598.19 574.53 598.19"/><rect class="cls-20" x="475.07" y="598.19" width="10.23" height="12.08"/><rect class="cls-20" x="522.24" y="598.19" width="10.23" height="12.08"/><rect class="cls-20" x="569.41" y="598.19" width="10.23" height="12.08"/><rect class="cls-20" x="616.59" y="598.19" width="10.23" height="12.08"/><rect class="cls-20" x="663.76" y="598.19" width="10.23" height="12.08"/><path class="cls-22" d="M702,598.15l-11.9-7.36c12.64-7.38,3.82-25.21,3.82-25.21-1.59,13.59-13.28,17.85-15.07,18.4l0,.13H469.65s-13.59-3.73-15.31-18.46c0,0-9.07,18.21,4.3,25.41h0l-11,7.1Z"/><polygon class="cls-19" points="481.15 503.27 481.15 558.94 667.97 558.94 667.97 498.21 481.15 498.21 481.15 503.27"/><rect class="cls-20" x="481.15" y="551.35" width="186.82" height="7.59"/><rect class="cls-20" x="481.15" y="497.9" width="186.82" height="7.91"/><rect class="cls-20" x="481.12" y="465.13" width="186.82" height="7.91"/><rect class="cls-20" x="514.15" y="404.44" width="120.81" height="8.16"/><rect class="cls-28" x="553.4" y="512.76" width="42.27" height="46.18"/><rect class="cls-22" x="553.4" y="558.94" width="42.27" height="10.12"/><ellipse class="cls-22" cx="500.79" cy="528.42" rx="11.47" ry="11.5"/><ellipse class="cls-22" cx="535.96" cy="528.42" rx="11.47" ry="11.5"/><ellipse class="cls-22" cx="613.1" cy="528.42" rx="11.47" ry="11.5"/><ellipse class="cls-22" cx="648.27" cy="528.42" rx="11.47" ry="11.5"/><rect class="cls-28" x="509.9" y="395.07" width="129.26" height="9.61"/><rect class="cls-28" x="527.33" y="355.39" width="94.39" height="7.86"/><rect class="cls-20" x="527.33" y="363.26" width="94.39" height="7.51"/><path class="cls-22" d="M626.17,342.31c0,7.87-12.11,9.16-12.11,9.16h0c-9.58-5-26.29-18.22-39.5-45.19-13.2,27-29.91,39.85-39.5,45.38,0,0-12.15-1.4-12.11-9.25,0,0-4.69,9.07,4.41,13.08h94.42C630.86,351.47,626.17,342.31,626.17,342.31Z"/><g class="cls-34"><path class="cls-21" d="M535,446H469.81l11.31,19.24v7.91h0V583.87h-11.5s-13.59-3.58-15.31-18.31c0,0-9.07,18.31,4.3,25.51l-11,7.19,6.72,12.08v177H574.53V446H535Z"/><polygon class="cls-21" points="469.81 445.93 574.53 445.93 574.53 436.52 487.95 436.52 469.81 445.93"/><path class="cls-21" d="M535,351.78c-.05,0-12.15-1.48-12.11-9.33,0,0-4.69,8.73,4.41,13v39.68H509.9v9.61h4.25V436.5h60.38v-130h0C561.33,333.43,544.62,346.25,535,351.78Z"/></g><rect class="cls-9" x="914.8" y="609.82" width="429.45" height="177.01"/><polygon class="cls-22" points="914.8 649.56 914.8 705.23 1344.25 705.23 1344.25 644.5 914.8 644.5 914.8 649.56"/><rect class="cls-20" x="914.8" y="697.64" width="429.45" height="7.59"/><rect class="cls-28" x="978.52" y="739.39" width="17.2" height="32.26"/><rect class="cls-28" x="1010.63" y="739.39" width="17.2" height="32.26"/><rect class="cls-28" x="1042.75" y="739.39" width="17.2" height="32.26"/><rect class="cls-28" x="1074.86" y="739.39" width="17.2" height="32.26"/><rect class="cls-20" x="914.8" y="644.18" width="429.45" height="7.91"/><rect class="cls-28" x="966.22" y="659.05" width="42.27" height="56.3"/><rect class="cls-28" x="1062.1" y="659.05" width="42.27" height="56.3"/><rect class="cls-22" x="966.22" y="705.23" width="42.27" height="10.12"/><rect class="cls-22" x="1062.1" y="705.23" width="42.27" height="10.12"/><polygon class="cls-28" points="1035 597.74 908.09 597.74 914.8 609.82 1035 609.82 1344.22 609.82 1350.97 597.74 1035 597.74"/><rect class="cls-22" x="935.53" y="597.74" width="10.23" height="12.08"/><rect class="cls-22" x="982.71" y="597.74" width="10.23" height="12.08"/><rect class="cls-22" x="1029.88" y="597.74" width="10.23" height="12.08"/><rect class="cls-22" x="1077.05" y="597.74" width="10.23" height="12.08"/><rect class="cls-22" x="1124.23" y="597.74" width="10.23" height="12.08"/><rect class="cls-20" x="908.09" y="583.35" width="442.88" height="14.39"/><rect class="cls-28" x="1169.31" y="739.39" width="17.2" height="32.26"/><rect class="cls-28" x="1201.42" y="739.39" width="17.2" height="32.26"/><rect class="cls-28" x="1233.54" y="739.39" width="17.2" height="32.26"/><rect class="cls-28" x="1265.65" y="739.39" width="17.2" height="32.26"/><rect class="cls-28" x="1157.01" y="659.05" width="42.27" height="56.3"/><rect class="cls-28" x="1252.89" y="659.05" width="42.27" height="56.3"/><rect class="cls-22" x="1157.01" y="705.23" width="42.27" height="10.12"/><rect class="cls-22" x="1252.89" y="705.23" width="42.27" height="10.12"/><rect class="cls-22" x="1173.5" y="597.74" width="10.23" height="12.08"/><rect class="cls-22" x="1220.67" y="597.74" width="10.23" height="12.08"/><rect class="cls-22" x="1267.85" y="597.74" width="10.23" height="12.08"/><rect class="cls-22" x="1315.02" y="597.74" width="10.23" height="12.08"/><polygon class="cls-23" points="908.09 583.11 907.89 597.62 914.42 609.82 914.42 644.18 914.42 644.5 914.42 649.56 914.42 652.09 914.42 697.63 914.42 705.23 914.42 786.67 1129.42 786.67 1129.42 583.11 908.09 583.11"/><rect class="cls-35" x="0.46" y="786.71" width="1919.92" height="35.91"/><path class="cls-36" d="M1648.42,306.27h226.06s-11-54-84.5-48.24c0,0-5.49-42.51-54.87-28.62,0,0-23,6.54-18.66,28.62,0,0-6.58-9-23-4.91,0,0-12.07,4.09-9.88,13.08,0,0-21.95-5.72-23,9.81,0,0-51.58,3.27-54.87,30.25Z"/><path class="cls-37" d="M1451.28,289.22H1225.22s11-30.85,84.5-27.58c0,0,5.49-24.31,54.87-16.36,0,0,23,3.74,18.66,16.36,0,0,6.58-5.14,23-2.8,0,0,12.07,2.34,9.88,7.48,0,0,21.95-3.27,23,5.61,0,0,51.58,1.87,54.87,17.3Z"/><path class="cls-9" d="M1595.32,246.7c0-4.54-5.63-8.23-12.58-8.23a17.68,17.68,0,0,0-6.69,1.26,7.31,7.31,0,0,0-1.93-.28c-.67-2.78-4.34-4.91-8.78-4.91a13,13,0,0,0-3.59.49c-1.2-2.28-2.59-4.33-7.51-5.13-6-1-10.19,1.82-11.07,4.43-1.09-.32-.81.84-2.09.84a11.34,11.34,0,0,0-6.25,1.73,4.76,4.76,0,0,0-2.1-.46c-1.92,0-3.48,1-3.48,2.28,0,0,0,.06,0,.08-5.66.42-10.07,3.56-10.07,7.38a4.94,4.94,0,0,0,0,.61l0,0h76.12s0-.07,0-.11Z"/><path class="cls-9" d="M782.7,491.39c0-4.54-5.63-8.23-12.58-8.23a17.68,17.68,0,0,0-6.69,1.26,7.31,7.31,0,0,0-1.93-.28c-.67-2.78-4.34-4.91-8.78-4.91a13,13,0,0,0-3.59.49c-1.2-2.28-2.59-4.33-7.51-5.13-6-1-10.19,1.82-11.07,4.43-1.09-.32-.81.84-2.09.84a11.34,11.34,0,0,0-6.25,1.73,4.76,4.76,0,0,0-2.1-.46c-1.92,0-3.48,1-3.48,2.28,0,0,0,.06,0,.08-5.66.42-10.07,3.56-10.07,7.38a4.94,4.94,0,0,0,0,.61l0,0h76.12s0-.07,0-.11Z"/><path class="cls-29" d="M1668.08,373s-12.51-1.66-12.47-9.75c0,0-4.83,8.53,4.54,13.24h6.27v12h7v24.07h-1l-33.39,9h0v10.88l4.93,9.18h10.46v81.22h54V327.19C1694.88,354.51,1677.87,367.4,1668.08,373Z"/><path class="cls-38" d="M1190,1041h288.16a17.46,17.46,0,0,0,17.48-16.3c.59-10.28-7.7-21.62-47.18-21.62H1225.57c-.44,0-.88,0-1.32-.05-2.68-.22-14.62-.74-14.62,7.27,0,0-.85,5.19,13.31,3.72a18.46,18.46,0,0,1,1.9-.11H1354.9s8.91-.9,8.91,8.13c0,7.62-7,7.52-9.16,7.31-.52-.05-1-.08-1.55-.08h-160a15.79,15.79,0,0,1-2-.11c-1.75-.22-6.49-.2-6.49,6.43C1184.68,1041,1190,1041,1190,1041Z"/><path class="cls-39" d="M997.53,885.33H946.63c-5,0-9.07-3.37-9.07-7.49s4.08-7.49,9.07-7.49h37.48c3.91,0,7.1-2.64,7.1-5.86s-3.2-5.86-7.1-5.86H786.06c-3.91,0-7.1,2.64-7.1,5.86s3.2,5.86,7.1,5.86h58.78c5,0,9.07,3.37,9.07,7.49s-4.08,7.49-9.07,7.49H763.18c-4.34,0-7.89,2.93-7.89,6.51s3.55,6.51,7.89,6.51H997.53c4.34,0,7.89-2.93,7.89-6.51S1001.87,885.33,997.53,885.33Z"/><rect class="cls-40" x="1172.38" y="858.63" width="63.28" height="12.64" rx="5.78" ry="5.78"/><rect class="cls-41" x="271.98" y="1026.11" width="49.02" height="12.64" rx="5.78" ry="5.78"/><rect class="cls-42" x="1301.61" y="924.54" width="63.28" height="12.64" rx="5.78" ry="5.78"/><rect class="cls-43" x="1516.5" y="921.52" width="63.28" height="12.64" rx="5.78" ry="5.78"/><path class="cls-44" d="M744.18,1000.07H456a17.46,17.46,0,0,1-17.48-16.3c-.59-10.28,7.7-21.62,47.18-21.62H708.63c.44,0,.88,0,1.32-.05,2.68-.22,14.62-.74,14.62,7.27,0,0,.85,5.19-13.31,3.72a18.46,18.46,0,0,0-1.9-.11H648.82s-8.91-.9-8.91,8.13c0,7.62,7,7.52,9.16,7.31.52-.05,1-.08,1.55-.08h90.47a15.79,15.79,0,0,0,2-.11c1.75-.22,6.49-.2,6.49,6.43C749.53,1000.07,744.18,1000.07,744.18,1000.07Z"/><path class="cls-7" d="M1779.86,944.54s-9.82-15.63-28-9.82-23.32,17.24-39.11,7C1712.74,941.75,1748,978.25,1779.86,944.54Z"/><path class="cls-7" d="M1460.85,890.39s4.38-5.72,13.61-4.77c5.32.55,11,4.88,19,1.24C1493.46,886.86,1475.78,908.83,1460.85,890.39Z"/><path class="cls-7" d="M994.07,957s21.52-18.25,32.11-3.61S994.07,957,994.07,957Z"/><path class="cls-7" d="M539,927s32.4,36.86,54.35,14.36S539,927,539,927Z"/><path class="cls-7" d="M410.87,914s-21.52-18.25-32.11-3.61S410.87,914,410.87,914Z"/><path class="cls-7" d="M840.07,982.52s7.65,6.49,11.42,1.28S840.07,982.52,840.07,982.52Z"/><path class="cls-7" d="M1188.51,925.88s12.05,10.22,18,2S1188.51,925.88,1188.51,925.88Z"/><path class="cls-7" d="M1619.44,1001.88s-12.05,10.22-18,2S1619.44,1001.88,1619.44,1001.88Z"/></g><g id="หน้าแรก"><circle class="cls-9" cx="1758.79" cy="1271.48" r="2.24"/><circle class="cls-9" cx="1755.83" cy="1264.16" r="4.11"/><circle class="cls-9" cx="1761.6" cy="1256.89" r="1.65"/></g></g></svg>