<svg xmlns="http://www.w3.org/2000/svg" viewBox="0 0 699.91 180.1"><defs><style>.cls-1{fill:#fff;}</style></defs><title>bhutan</title><g id="BHUTAN"><path class="cls-1" d="M155.56,56.86q8.62,2,12.47,6.24t3.85,11.61q0,9.78-5.87,14.43t-18.71,6q10.51.86,16.87,3.3a18.51,18.51,0,0,1,9.35,7.15q3,4.71,3,12.41,0,8.56-4.65,13.45t-14.37,7q-9.72,2.08-26.1,2.08H94.61V138l4.52-1a5.6,5.6,0,0,0,2.38-.86,2.4,2.4,0,0,0,.55-1.83V61a2.4,2.4,0,0,0-.55-1.83,5.62,5.62,0,0,0-2.38-.86l-4.52-1V54.9h37.54Q146.93,54.9,155.56,56.86ZM133,93.54q7.58,0,11.25-4.65t3.67-14.18q0-8.19-3.61-12.17t-11.31-4h-6v35Zm-6,43.28h5.5q18.83,0,18.83-18.83,0-11-3.91-15.9T133.49,97.2H127Z"/><path class="cls-1" d="M217.48,134.5a2.19,2.19,0,0,0,.55,1.77,6.2,6.2,0,0,0,2.26.79l4.4,1v2.45H185.08V138l4.52-1a5.6,5.6,0,0,0,2.38-.86,2.4,2.4,0,0,0,.55-1.83V61a2.4,2.4,0,0,0-.55-1.83,5.62,5.62,0,0,0-2.38-.86l-4.52-1V54.9H224.7v2.44l-4.4,1a4.66,4.66,0,0,0-2.26.73,2.41,2.41,0,0,0-.55,1.83v34h32v-34a2.41,2.41,0,0,0-.55-1.83,4.67,4.67,0,0,0-2.26-.73l-4.4-1V54.9h39.61v2.44l-4.52,1a5.62,5.62,0,0,0-2.38.86,2.4,2.4,0,0,0-.55,1.83v73.36a2.4,2.4,0,0,0,.55,1.83,5.61,5.61,0,0,0,2.38.86l4.52,1v2.45H242.3V138l4.4-1a6.21,6.21,0,0,0,2.26-.79,2.19,2.19,0,0,0,.55-1.77V98.55h-32Z"/><path class="cls-1" d="M359.31,133q-8.07,8.93-26,8.93-19.56,0-28.92-7.95T295,108.21V61a2.4,2.4,0,0,0-.55-1.83,5.62,5.62,0,0,0-2.38-.86l-4.52-1V54.9h39.61v2.44l-4.4,1a6.22,6.22,0,0,0-2.26.79,2.19,2.19,0,0,0-.55,1.77v49.52q0,10.39,1.47,16.14a13.68,13.68,0,0,0,5.69,8.5q4.22,2.75,12.41,2.75,11.74,0,18-7.7t6.24-20.42V61a2.4,2.4,0,0,0-.55-1.83,5.62,5.62,0,0,0-2.38-.86l-4.52-1V54.9h18.58v2.44l-4.4,1a6.22,6.22,0,0,0-2.26.79,2.19,2.19,0,0,0-.55,1.77V108.7Q367.38,124.1,359.31,133Z"/><path class="cls-1" d="M434.57,136.21a5.61,5.61,0,0,0,2.38.86l4.52,1v2.45H401.62V138l4.52-1a5.61,5.61,0,0,0,2.38-.86,2.4,2.4,0,0,0,.55-1.83V58.32h-2.81q-7.46,0-11.55,2.45a16.65,16.65,0,0,0-6.24,6.36,103.07,103.07,0,0,0-5.32,12.47h-2.69V54.9h82.16V79.6h-2.69a103.73,103.73,0,0,0-5.32-12.47,16.68,16.68,0,0,0-6.24-6.36q-4.1-2.45-11.55-2.45H434v76.05A2.4,2.4,0,0,0,434.57,136.21Z"/><path class="cls-1" d="M517.16,138l5.26-.49q1.71-.24,1.71-1.35a3.86,3.86,0,0,0-.37-1.47l-8.07-17.85H487.33L480,134.74a3.86,3.86,0,0,0-.37,1.47q0,1.1,1.71,1.35l5.26.49v2.45H468V138l4.52-.49a3.27,3.27,0,0,0,2.08-.73,8,8,0,0,0,1.35-2.2l33.87-81.06h3.91l35.82,81.06a8,8,0,0,0,1.35,2.2,3.27,3.27,0,0,0,2.08.73l4.52.49v2.45H517.16Zm-3.06-24.82L500.9,84l-12.1,29.22Z"/><path class="cls-1" d="M569.79,59.18a5.62,5.62,0,0,0-2.38-.86l-4.52-1V54.9h33.87l39.37,49.64V60.89a2.19,2.19,0,0,0-.55-1.77,6.24,6.24,0,0,0-2.26-.79l-4.4-1V54.9H647.5v2.44l-4.52,1a5.62,5.62,0,0,0-2.38.86A2.4,2.4,0,0,0,640,61v79.47h-4.4L574.26,62.85V134.5a2.19,2.19,0,0,0,.55,1.77,6.2,6.2,0,0,0,2.26.79l4.4,1v2.45H562.89V138l4.52-1a5.6,5.6,0,0,0,2.38-.86,2.4,2.4,0,0,0,.55-1.83V61A2.4,2.4,0,0,0,569.79,59.18Z"/></g></svg>