<svg id="footer" xmlns="http://www.w3.org/2000/svg" xmlns:xlink="http://www.w3.org/1999/xlink" viewBox="0 0 1921.85 631"><defs><style>.cls-1{fill:url(#linear-gradient);}.cls-2{font-size:23.9px;font-family:MyriadPro-Regular, Myriad Pro;}.cls-2,.cls-6{fill:#fff;}.cls-3{fill:url(#linear-gradient-2);}.cls-4{fill:#51695c;}.cls-5{fill:#f3f3f3;}.cls-7{fill:#ccc;}.cls-8{fill:#301727;}.cls-9{fill:url(#linear-gradient-3);}.cls-10{fill:url(#linear-gradient-4);}.cls-11{fill:url(#linear-gradient-5);}.cls-12{fill:url(#linear-gradient-6);}.cls-13{fill:url(#linear-gradient-7);}.cls-14{fill:url(#linear-gradient-8);}.cls-15{fill:#cd675d;}.cls-16{fill:#a05d56;}.cls-17,.cls-19{fill:#423b50;}.cls-18{fill:#d2aa62;}.cls-19,.cls-29{opacity:0.18;}.cls-20{fill:#ca524c;}.cls-21{fill:none;}.cls-22{fill:url(#linear-gradient-9);}.cls-23{fill:#cd9c3c;}.cls-24{fill:#484257;}.cls-25{opacity:0.25;}.cls-26{fill:#ad4c3f;}.cls-27{fill:#c05745;}.cls-28{fill:#d2aa64;}.cls-30{fill:#853b36;}.cls-31{fill:url(#linear-gradient-10);}.cls-32{fill:url(#linear-gradient-11);}</style><linearGradient id="linear-gradient" x1="960.03" y1="-614.66" x2="960.03" y2="1454.73" gradientUnits="userSpaceOnUse"><stop offset="0.09" stop-color="#d5b671"/><stop offset="0.27" stop-color="#d5b470"/><stop offset="0.37" stop-color="#d3ac6d"/><stop offset="0.44" stop-color="#d19f69"/><stop offset="0.51" stop-color="#ce8c62"/><stop offset="0.51" stop-color="#ce8a61"/><stop offset="0.96" stop-color="#be6b42"/></linearGradient><linearGradient id="linear-gradient-2" x1="-2799.43" y1="520.83" x2="-2799.43" y2="102.35" gradientTransform="matrix(-1, 0, 0, 1, -2171.5, 0)" gradientUnits="userSpaceOnUse"><stop offset="0" stop-color="#fcc189"/><stop offset="0.18" stop-color="#f7c089"/><stop offset="0.39" stop-color="#e8bb8b"/><stop offset="0.62" stop-color="#d0b48d"/><stop offset="0.87" stop-color="#aeaa8f"/><stop offset="1" stop-color="#99a491"/></linearGradient><linearGradient id="linear-gradient-3" x1="1069.47" y1="595.91" x2="1464.39" y2="595.91" gradientUnits="userSpaceOnUse"><stop offset="0.64" stop-color="#a4554c"/><stop offset="0.83" stop-color="#9e4b41"/></linearGradient><linearGradient id="linear-gradient-4" x1="1253.14" y1="596.03" x2="1281.58" y2="596.03" xlink:href="#linear-gradient-3"/><linearGradient id="linear-gradient-5" x1="505.29" y1="596.5" x2="1556.04" y2="596.5" xlink:href="#linear-gradient-3"/><linearGradient id="linear-gradient-6" x1="601.71" y1="595.97" x2="1791.47" y2="595.97" xlink:href="#linear-gradient-3"/><linearGradient id="linear-gradient-7" x1="601.71" y1="596.2" x2="1791.47" y2="596.2" xlink:href="#linear-gradient-3"/><linearGradient id="linear-gradient-8" x1="601.71" y1="596.16" x2="1791.47" y2="596.16" xlink:href="#linear-gradient-3"/><linearGradient id="linear-gradient-9" x1="236.73" y1="367.58" x2="236.73" y2="-50.9" gradientTransform="matrix(1, 0, 0, 1, 0, 0)" xlink:href="#linear-gradient-2"/><linearGradient id="linear-gradient-10" x1="1741.39" y1="167.44" x2="1741.39" y2="-32.46" gradientTransform="matrix(1, 0, 0, 1, 0, 0)" xlink:href="#linear-gradient-2"/><linearGradient id="linear-gradient-11" x1="-2951.18" y1="128.27" x2="-2951.18" y2="13.98" gradientTransform="matrix(-1, 0, 0, 1, -1590.47, 0)" xlink:href="#linear-gradient-2"/></defs><title>footer แก้</title><rect class="cls-1" width="1920.07" height="589"/><text class="cls-2" transform="translate(1703.74 535.15)">DENMARK</text><path class="cls-3" d="M768.22,342.5H422.11s16.8-112.73,129.37-100.78c0,0,8.4-88.82,84-59.78,0,0,35.28,13.66,28.56,59.78,0,0,10.08-18.79,35.28-10.25,0,0,18.48,8.54,15.12,27.33,0,0,33.6-12,35.28,20.5,0,0,79,6.83,84,63.2Z"/><path class="cls-4" d="M1411.4,310.93c28.6-.06,56.82,4.42,80.26,5.4a255,255,0,0,1-42.18-42.43c-6-7.56-155.66,33-155.66,33-71.08,7.52-248.86-51.76-314.51-39.77-140.47,25.65-69.23,81-252.77,74l402.3,185c35.4-41.7,61.79-84,87.61-131.34C1270.65,295.38,1387.27,311,1411.4,310.93Z"/><path class="cls-4" d="M1921.88,487V300.33c-43-27.24-106.31.66-177.21,25.86,31,6.27,58.68,14.24,71.64,23.76C1851.31,375.67,1886.5,440.06,1921.88,487Z"/><path class="cls-5" d="M1816.31,350c-13-9.52-40.67-17.49-71.64-23.76C1692,315.53,1629.9,309.81,1615,309.81c-23.71,0-57.17-14.47-81.55,0-10.25,6.08-24.74,7.22-41.75,6.52-23.44-1-51.67-5.46-80.26-5.4-24.13.05-140.76-15.55-194.94,83.89-25.82,47.38-52.21,89.64-87.61,131.34A687.32,687.32,0,0,1,1055.41,600l866.47,1V487C1886.5,440.06,1851.31,375.67,1816.31,350Z"/><path class="cls-6" d="M1916.66,222.38c-1.75-2.28-3.78-4.32-11-5.12-8.71-1-14.88,1.81-16.16,4.42-1.6-.32-1.18.84-3,.84a22.56,22.56,0,0,0-9.12,1.72,9.72,9.72,0,0,0-3.07-.46c-2.81,0-5.08,1-5.08,2.27,0,0,0,.05,0,.08-8.27.42-14.7,3.55-14.7,7.36a2.16,2.16,0,0,0,.06.48s0-.1-.06-.1h67.36v-12A27.17,27.17,0,0,0,1916.66,222.38Z"/><path class="cls-6" d="M1570.78,173.24c0-4.53-18.88-8.21-42.15-8.21a187.74,187.74,0,0,0-22.43,1.26c-2-.17-4.16-.27-6.45-.28-2.24-2.77-14.55-4.9-29.41-4.9-4.28,0-8.34.18-12,.49-4-2.28-8.67-4.32-25.16-5.12-20-1-34.16,1.81-37.09,4.42-3.66-.32-2.72.84-7,.84a112.62,112.62,0,0,0-20.93,1.72,49.49,49.49,0,0,0-7.05-.46c-6.44,0-11.66,1-11.66,2.27a.46.46,0,0,0,0,.08c-19,.42-33.73,3.55-33.73,7.36a1.57,1.57,0,0,0,.13.6l-.13,0h255.07s0-.07,0-.1Z"/><path class="cls-4" d="M.57,595.16l-1-141.08c22.32-56.33,92.21-91.59,122.08-91.59,61.63,0,143.13,65.33,238.14,65.33s-116,166.31-116,166.31Z"/><path class="cls-7" d="M116.9,414.34s-60-6.48-63,44.73-4.27,138.32-4.27,138.32l58.66-35.79s78.37-137.08,47.91-145.39S116.9,414.34,116.9,414.34Z"/><path class="cls-8" d="M1267.37,596l1.22.35Z"/><path class="cls-8" d="M1267,595.92l.38.11Z"/><path class="cls-8" d="M1266.93,595.9h0Z"/><path class="cls-9" d="M1266.93,595.9h0Z"/><path class="cls-8" d="M1267.36,596h0Z"/><path class="cls-10" d="M1267.36,596h0Z"/><path class="cls-8" d="M1268.58,596.38l.87.25Z"/><path class="cls-11" d="M1268.58,596.38l.87.25Z"/><path class="cls-12" d="M1267,595.92l.38.11Z"/><path class="cls-13" d="M1267.37,596l1.22.35Z"/><path class="cls-8" d="M1496.52,596.42l.21-.34-.71-.18Z"/><path class="cls-14" d="M1496.52,596.42l.21-.34-.71-.18Z"/><rect class="cls-6" x="1344.07" y="242.34" width="74.18" height="49.68"/><rect class="cls-6" x="1344.07" y="250.88" width="74.18" height="17.57"/><polygon class="cls-6" points="1344.07 249.17 1344.07 250.88 1418.25 250.88 1418.25 249.01 1344.07 249.01 1344.07 249.17"/><polygon class="cls-6" points="1344.07 268.61 1344.07 270.32 1418.25 270.32 1418.25 268.45 1344.07 268.45 1344.07 268.61"/><rect class="cls-6" x="1300.72" y="380.01" width="160.91" height="9.49"/><rect class="cls-6" x="1353.27" y="250.88" width="11.85" height="22.15"/><rect class="cls-6" x="1375.39" y="250.88" width="11.85" height="22.15"/><rect class="cls-6" x="1397.5" y="250.88" width="11.85" height="22.15"/><polygon class="cls-6" points="1380.99 413.06 1300.72 413.06 1304.97 420.68 1380.99 420.68 1457.36 420.68 1461.63 413.06 1380.99 413.06"/><rect class="cls-6" x="1300.72" y="380.01" width="8.28" height="9.74"/><rect class="cls-6" x="1338.88" y="380.01" width="8.28" height="9.74"/><rect class="cls-6" x="1377.04" y="380.01" width="8.28" height="9.74"/><rect class="cls-6" x="1415.2" y="380.01" width="8.28" height="9.74"/><rect class="cls-6" x="1453.35" y="380.01" width="8.28" height="9.74"/><rect class="cls-6" x="1300.72" y="389.5" width="160.91" height="23.56"/><rect class="cls-6" x="1314.71" y="347.45" width="132.05" height="23.56"/><rect class="cls-6" x="1329.5" y="292.03" width="103.31" height="46.87"/><polygon class="cls-6" points="1314.66 371.01 1300.72 380.01 1461.63 380.01 1446.95 371.01 1314.66 371.01"/><polygon class="cls-6" points="1272.11 537.19 1496.02 537.19 1496.02 595.9 1266.93 595.9 1266.93 537.19 1272.11 537.19"/><polygon class="cls-6" points="1278.25 504.02 1489.59 504.02 1489.59 537.19 1273.36 537.19 1273.36 504.02 1278.25 504.02"/><polygon class="cls-6" points="1293.14 431.04 1473.99 431.04 1473.99 504.81 1288.95 504.81 1288.95 431.04 1293.14 431.04"/><rect class="cls-6" x="1288.95" y="431.04" width="185.04" height="8.14"/><polygon class="cls-6" points="1288.95 461.84 1288.95 483.79 1473.99 483.79 1473.99 459.84 1288.95 459.84 1288.95 461.84"/><rect class="cls-6" x="1288.95" y="480.79" width="185.04" height="2.99"/><rect class="cls-6" x="1288.95" y="459.72" width="185.04" height="3.12"/><rect class="cls-6" x="1336.32" y="459.72" width="90.3" height="44.3"/><rect class="cls-6" x="1359.96" y="504.02" width="43.02" height="33.17"/><rect class="cls-6" x="1303.39" y="459.72" width="17.76" height="44.3"/><rect class="cls-6" x="1442.37" y="459.72" width="17.76" height="44.3"/><circle class="cls-6" cx="1434.49" cy="471.73" r="5.61"/><circle class="cls-6" cx="1328.74" cy="471.73" r="5.61"/><circle class="cls-6" cx="1323.35" cy="401.41" r="5.61"/><circle class="cls-6" cx="1361.9" cy="401.66" r="5.61"/><circle class="cls-6" cx="1400.45" cy="401.91" r="5.61"/><circle class="cls-6" cx="1439" cy="402.17" r="5.61"/><circle class="cls-6" cx="1348.67" cy="259.67" r="2.38"/><circle class="cls-6" cx="1370.12" cy="259.67" r="2.38"/><circle class="cls-6" cx="1392.24" cy="259.67" r="2.38"/><circle class="cls-6" cx="1413.8" cy="259.67" r="2.38"/><circle class="cls-6" cx="1296.22" cy="471.73" r="5.61"/><circle class="cls-6" cx="1467.09" cy="471.73" r="5.61"/><rect class="cls-6" x="1303.39" y="504.02" width="17.76" height="5.54"/><rect class="cls-6" x="1273.35" y="504.02" width="15.6" height="5.54"/><rect class="cls-6" x="1336.32" y="504.02" width="23.64" height="5.54"/><rect class="cls-6" x="1402.98" y="504.02" width="23.64" height="5.54"/><rect class="cls-6" x="1442.37" y="504.02" width="17.76" height="5.54"/><rect class="cls-6" x="1473.99" y="504.02" width="15.6" height="5.54"/><polygon class="cls-6" points="1304.98 420.68 1288.95 431.11 1473.99 431.11 1457.11 420.68 1304.98 420.68"/><path class="cls-6" d="M1305,420.68s-9.88-2.6-11.14-13.28c0,0-6.6,13.28,3.13,18.5s8-2.26,8-2.26Z"/><path class="cls-6" d="M1457,420.75s9.88-2.6,11.14-13.28c0,0,6.6,13.28-3.13,18.5s-8-2.26-8-2.26Z"/><polygon class="cls-6" points="1273.36 529.22 1273.36 537.19 1359.96 537.19 1359.96 528.5 1273.36 528.5 1273.36 529.22"/><polygon class="cls-6" points="1402.98 529.22 1402.98 537.19 1489.59 537.19 1489.59 528.5 1402.98 528.5 1402.98 529.22"/><rect class="cls-6" x="1273.35" y="528.5" width="86.61" height="3.12"/><rect class="cls-6" x="1402.98" y="528.5" width="86.61" height="3.12"/><rect class="cls-6" x="1329.5" y="296.42" width="103.31" height="7.4"/><rect class="cls-6" x="1344.07" y="238.64" width="74.18" height="7.1"/><rect class="cls-6" x="1314.71" y="344.27" width="132.05" height="8.1"/><polygon class="cls-6" points="1341.48 299.06 1325.1 299.06 1325.1 291.7 1437.22 291.7 1437.22 299.06 1341.48 299.06"/><rect class="cls-6" x="1335.56" y="308.22" width="16.47" height="23.5"/><rect class="cls-6" x="1360.48" y="308.22" width="16.47" height="23.5"/><rect class="cls-6" x="1385.4" y="308.22" width="16.47" height="23.5"/><rect class="cls-6" x="1410.32" y="308.22" width="16.47" height="23.5"/><polygon class="cls-6" points="1381.16 130.03 1344.07 242.34 1381.16 242.34 1418.25 242.34 1381.16 130.03"/><polygon class="cls-6" points="1394.94 171.77 1381.46 171.77 1380.89 171.77 1367.37 171.77 1357.52 187.53 1380.89 187.53 1381.46 187.53 1404.83 187.53 1394.94 171.77"/><rect class="cls-6" x="1344.07" y="236.52" width="74.18" height="5.82"/><polygon class="cls-6" points="1324.24 347.45 1300.72 347.45 1300.72 338.39 1461.63 338.39 1461.63 347.45 1324.24 347.45"/><rect class="cls-6" x="1344.07" y="242.34" width="74.18" height="49.68"/><rect class="cls-15" x="1344.07" y="250.88" width="74.18" height="17.57"/><polygon class="cls-16" points="1344.07 249.17 1344.07 250.88 1418.25 250.88 1418.25 249.01 1344.07 249.01 1344.07 249.17"/><polygon class="cls-16" points="1344.07 268.61 1344.07 270.32 1418.25 270.32 1418.25 268.45 1344.07 268.45 1344.07 268.61"/><rect class="cls-17" x="1300.72" y="380.01" width="160.91" height="9.49"/><rect class="cls-17" x="1353.27" y="250.88" width="11.85" height="22.15"/><rect class="cls-17" x="1375.39" y="250.88" width="11.85" height="22.15"/><rect class="cls-17" x="1397.5" y="250.88" width="11.85" height="22.15"/><polygon class="cls-17" points="1380.99 413.06 1300.72 413.06 1304.97 420.68 1380.99 420.68 1457.36 420.68 1461.63 413.06 1380.99 413.06"/><rect class="cls-16" x="1300.72" y="380.01" width="8.28" height="9.74"/><rect class="cls-16" x="1338.88" y="380.01" width="8.28" height="9.74"/><rect class="cls-16" x="1377.04" y="380.01" width="8.28" height="9.74"/><rect class="cls-16" x="1415.2" y="380.01" width="8.28" height="9.74"/><rect class="cls-16" x="1453.35" y="380.01" width="8.28" height="9.74"/><rect class="cls-6" x="1300.72" y="389.5" width="160.91" height="23.56"/><rect class="cls-6" x="1314.71" y="347.45" width="132.05" height="23.56"/><rect class="cls-6" x="1329.5" y="292.03" width="103.31" height="46.87"/><polygon class="cls-18" points="1314.66 371.01 1300.72 380.01 1461.63 380.01 1446.95 371.01 1314.66 371.01"/><polygon class="cls-18" points="1272.11 537.19 1496.02 537.19 1496.02 595.9 1266.93 595.9 1266.93 537.19 1272.11 537.19"/><polygon class="cls-6" points="1278.25 504.02 1489.59 504.02 1489.59 537.19 1273.36 537.19 1273.36 504.02 1278.25 504.02"/><polygon class="cls-6" points="1293.14 431.04 1473.99 431.04 1473.99 504.81 1288.95 504.81 1288.95 431.04 1293.14 431.04"/><rect class="cls-16" x="1288.95" y="431.04" width="185.04" height="8.14"/><polygon class="cls-15" points="1288.95 461.84 1288.95 483.79 1473.99 483.79 1473.99 459.84 1288.95 459.84 1288.95 461.84"/><rect class="cls-16" x="1288.95" y="480.79" width="185.04" height="2.99"/><rect class="cls-16" x="1288.95" y="459.72" width="185.04" height="3.12"/><rect class="cls-17" x="1336.32" y="459.72" width="90.3" height="44.3"/><rect class="cls-17" x="1359.96" y="504.02" width="43.02" height="33.17"/><rect class="cls-17" x="1303.39" y="459.72" width="17.76" height="44.3"/><rect class="cls-17" x="1442.37" y="459.72" width="17.76" height="44.3"/><circle class="cls-18" cx="1434.49" cy="471.73" r="5.61"/><circle class="cls-18" cx="1328.74" cy="471.73" r="5.61"/><circle class="cls-18" cx="1323.35" cy="401.41" r="5.61"/><circle class="cls-18" cx="1361.9" cy="401.66" r="5.61"/><circle class="cls-18" cx="1400.45" cy="401.91" r="5.61"/><circle class="cls-18" cx="1439" cy="402.17" r="5.61"/><circle class="cls-18" cx="1348.67" cy="259.67" r="2.38"/><circle class="cls-18" cx="1370.12" cy="259.67" r="2.38"/><circle class="cls-18" cx="1392.24" cy="259.67" r="2.38"/><circle class="cls-18" cx="1413.8" cy="259.67" r="2.38"/><circle class="cls-18" cx="1296.22" cy="471.73" r="5.61"/><circle class="cls-18" cx="1467.09" cy="471.73" r="5.61"/><rect class="cls-18" x="1303.39" y="504.02" width="17.76" height="5.54"/><rect class="cls-18" x="1273.35" y="504.02" width="15.6" height="5.54"/><rect class="cls-18" x="1336.32" y="504.02" width="23.64" height="5.54"/><rect class="cls-18" x="1402.98" y="504.02" width="23.64" height="5.54"/><rect class="cls-18" x="1442.37" y="504.02" width="17.76" height="5.54"/><rect class="cls-18" x="1473.99" y="504.02" width="15.6" height="5.54"/><path class="cls-18" d="M1474,431l-8.66-5.3c9.2-5.35,2.78-18.27,2.78-18.27a16.15,16.15,0,0,1-11,13.41l0,.15H1305s-9.88-2.76-11.14-13.44c0,0-6.6,13.15,3.13,18.37h0l-8,5.09Z"/><polygon class="cls-15" points="1273.36 529.22 1273.36 537.19 1359.96 537.19 1359.96 528.5 1273.36 528.5 1273.36 529.22"/><polygon class="cls-15" points="1402.98 529.22 1402.98 537.19 1489.59 537.19 1489.59 528.5 1402.98 528.5 1402.98 529.22"/><rect class="cls-16" x="1273.35" y="528.5" width="86.61" height="3.12"/><rect class="cls-16" x="1402.98" y="528.5" width="86.61" height="3.12"/><rect class="cls-17" x="1329.5" y="296.42" width="103.31" height="7.4"/><rect class="cls-17" x="1314.71" y="344.27" width="132.05" height="8.1"/><polygon class="cls-16" points="1341.48 299.06 1325.1 299.06 1325.1 291.7 1437.22 291.7 1437.22 299.06 1341.48 299.06"/><rect class="cls-17" x="1335.56" y="308.22" width="16.47" height="23.5"/><rect class="cls-17" x="1360.48" y="308.22" width="16.47" height="23.5"/><rect class="cls-17" x="1385.4" y="308.22" width="16.47" height="23.5"/><rect class="cls-17" x="1410.32" y="308.22" width="16.47" height="23.5"/><polygon class="cls-18" points="1418.53 238.64 1418.53 236.87 1416.32 236.87 1400.15 187.84 1404.83 187.84 1394.94 171.92 1381.16 130.1 1367.37 171.96 1367.37 171.96 1357.52 187.84 1362.17 187.84 1345.99 236.87 1344.48 236.87 1344.48 238.64 1344.48 242.34 1344.48 245.88 1418.53 245.88 1418.53 238.64 1418.53 238.64"/><polygon class="cls-16" points="1324.24 347.45 1300.72 347.45 1300.72 338.39 1461.63 338.39 1461.63 347.45 1324.24 347.45"/><path class="cls-19" d="M1381.16,130l-13.78,41.74-9.86,15.76h4.65l-16.18,49h-1.92v31.93h0v1.87h0V291.7h-19v7.36h4.4v39.34h-28.78v9.06h14V371h-.05l-13.94,9v33.05l4.25,7.61c-.06,0-9.88-2.63-11.13-13.28,0,0-6.6,13.28,3.13,18.5l-7.9,5.14H1289v73h-15.6v33.17h-6.43V595.9h114.53l-.3-465.88Z"/><path class="cls-20" d="M1267.36,596l-.38-.11Z"/><path class="cls-21" d="M1267,595.92l.38.11Z"/><path class="cls-6" d="M177.18,123.74c0-9.05-8.23-16.39-18.37-16.39a19.92,19.92,0,0,0-9.77,2.51,8.06,8.06,0,0,0-2.81-.56c-1-5.54-6.34-9.77-12.81-9.77a14.25,14.25,0,0,0-5.24,1c-1.75-4.55-3.78-8.63-11-10.23-8.71-1.94-14.88,3.62-16.16,8.82-1.6-.64-1.18,1.68-3,1.68a13.48,13.48,0,0,0-9.12,3.44,5.46,5.46,0,0,0-3.07-.92,4.83,4.83,0,0,0-5.08,4.54c0,.06,0,.11,0,.16-8.27.83-14.7,7.09-14.7,14.7,0,.41,0,.81.06,1.21L66,124H177.18c0-.07,0-.14,0-.21Z"/><path class="cls-22" d="M96.44,259.3H442.55s-16.8-112.73-129.37-100.78c0,0-8.4-88.82-84-59.78,0,0-35.28,13.66-28.56,59.78,0,0-10.08-18.79-35.28-10.25,0,0-18.48,8.54-15.12,27.33,0,0-33.6-12-35.28,20.5,0,0-79,6.83-84,63.2Z"/><rect class="cls-6" x="945.86" y="359.57" width="295.1" height="234.99"/><polygon class="cls-16" points="945.86 391.03 945.86 419.76 1240.97 419.76 1240.97 388.42 945.86 388.42 945.86 391.03"/><rect class="cls-17" x="1011.62" y="536.1" width="18.66" height="34.9"/><rect class="cls-17" x="1000.41" y="396.19" width="41.09" height="54.58"/><rect class="cls-23" x="1000.41" y="440.96" width="41.09" height="9.81"/><polygon class="cls-16" points="1256.49 360.5 1246.03 324.23 945.91 324.23 935.4 360.5 1256.49 360.5"/><polygon class="cls-16" points="1234.39 324.23 1223.93 287.97 968 287.97 957.5 324.23 1234.39 324.23"/><rect class="cls-17" x="1000.41" y="450.45" width="41.09" height="54.58"/><rect class="cls-23" x="1000.41" y="495.21" width="41.09" height="9.81"/><rect class="cls-17" x="1149.52" y="535.67" width="18.66" height="34.9"/><rect class="cls-17" x="1138.31" y="395.76" width="41.09" height="54.58"/><rect class="cls-23" x="1138.31" y="440.53" width="41.09" height="9.81"/><rect class="cls-17" x="1138.31" y="450.02" width="41.09" height="54.58"/><rect class="cls-23" x="1138.31" y="494.79" width="41.09" height="9.81"/><polygon class="cls-19" points="967.51 288.91 957 324.94 945.42 324.94 934.91 360.96 945.2 360.96 945.2 389.27 945.2 391.88 945.2 420.61 945.2 595.13 1088.3 595.13 1088.3 288.91 967.51 288.91"/><rect class="cls-6" x="1501.12" y="349.95" width="315.22" height="129.57"/><polygon class="cls-18" points="1501.12 379.04 1501.12 419.79 1816.34 419.79 1816.34 375.34 1501.12 375.34 1501.12 379.04"/><rect class="cls-16" x="1501.12" y="414.23" width="315.22" height="5.56"/><rect class="cls-24" x="1547.88" y="444.79" width="12.63" height="23.61"/><rect class="cls-24" x="1571.46" y="444.79" width="12.63" height="23.61"/><rect class="cls-24" x="1595.03" y="444.79" width="12.63" height="23.61"/><rect class="cls-24" x="1618.6" y="444.79" width="12.63" height="23.61"/><rect class="cls-16" x="1501.12" y="375.1" width="315.22" height="5.79"/><rect class="cls-24" x="1538.86" y="385.99" width="31.02" height="41.21"/><rect class="cls-24" x="1609.24" y="385.99" width="31.02" height="41.21"/><rect class="cls-18" x="1538.86" y="419.79" width="31.02" height="7.41"/><rect class="cls-18" x="1609.24" y="419.79" width="31.02" height="7.41"/><polygon class="cls-24" points="1589.34 341.11 1496.19 341.11 1501.12 349.95 1589.34 349.95 1816.31 349.95 1821.27 341.11 1589.34 341.11"/><rect class="cls-18" x="1516.33" y="341.11" width="7.51" height="8.84"/><rect class="cls-18" x="1550.96" y="341.11" width="7.51" height="8.84"/><rect class="cls-18" x="1585.59" y="341.11" width="7.51" height="8.84"/><rect class="cls-18" x="1620.21" y="341.11" width="7.51" height="8.84"/><rect class="cls-18" x="1654.84" y="341.11" width="7.51" height="8.84"/><rect class="cls-16" x="1496.19" y="330.58" width="325.08" height="10.53"/><rect class="cls-24" x="1687.93" y="444.79" width="12.63" height="23.61"/><rect class="cls-24" x="1711.5" y="444.79" width="12.63" height="23.61"/><rect class="cls-24" x="1735.07" y="444.79" width="12.63" height="23.61"/><rect class="cls-24" x="1758.65" y="444.79" width="12.63" height="23.61"/><rect class="cls-24" x="1678.9" y="385.99" width="31.02" height="41.21"/><rect class="cls-24" x="1749.28" y="385.99" width="31.02" height="41.21"/><rect class="cls-18" x="1678.9" y="419.79" width="31.02" height="7.41"/><rect class="cls-18" x="1749.28" y="419.79" width="31.02" height="7.41"/><rect class="cls-18" x="1691" y="341.11" width="7.51" height="8.84"/><rect class="cls-18" x="1725.63" y="341.11" width="7.51" height="8.84"/><rect class="cls-18" x="1760.26" y="341.11" width="7.51" height="8.84"/><rect class="cls-18" x="1794.88" y="341.11" width="7.51" height="8.84"/><polygon class="cls-19" points="1496.19 330.94 1495.65 341.29 1500.59 349.95 1500.59 479.04 1650.69 479.04 1650.69 330.94 1496.19 330.94"/><rect class="cls-6" x="1516.57" y="281.4" width="79.56" height="15.8"/><rect class="cls-6" x="1525.25" y="243.96" width="62.17" height="26.06"/><polygon class="cls-17" points="1556.35 303.4 1556.35 303.4 1487.37 303.4 1494.81 316.04 1556.35 316.04 1556.35 316.04 1617.89 316.04 1625.34 303.4 1556.35 303.4"/><rect class="cls-16" x="1524" y="303.4" width="6.33" height="12.64"/><rect class="cls-16" x="1553.19" y="303.4" width="6.33" height="12.64"/><rect class="cls-16" x="1582.34" y="303.4" width="6.33" height="12.64"/><rect class="cls-16" x="1530.98" y="281.38" width="6.33" height="15.81"/><rect class="cls-16" x="1542.14" y="254.06" width="6.33" height="15.96"/><rect class="cls-16" x="1564.33" y="254.06" width="6.33" height="15.96"/><rect class="cls-16" x="1553.21" y="281.38" width="6.33" height="15.81"/><rect class="cls-16" x="1575.4" y="281.38" width="6.33" height="15.81"/><rect class="cls-6" x="1494.83" y="321.23" width="123.04" height="72.75"/><polygon class="cls-18" points="1499.32 297.21 1487.37 303.38 1625.34 303.38 1612.75 297.21 1499.32 297.21"/><rect class="cls-6" x="1477.18" y="411.36" width="158.7" height="116.25"/><polygon class="cls-15" points="1477.18 437.46 1477.18 474.02 1635.88 474.02 1635.88 434.14 1477.18 434.14 1477.18 437.46"/><rect class="cls-16" x="1477.18" y="469.03" width="158.7" height="4.99"/><rect class="cls-17" x="1519.14" y="496.45" width="11.33" height="21.19"/><rect class="cls-17" x="1540.29" y="496.45" width="11.33" height="21.19"/><rect class="cls-17" x="1561.44" y="496.45" width="11.33" height="21.19"/><rect class="cls-17" x="1582.59" y="496.45" width="11.33" height="21.19"/><rect class="cls-16" x="1477.18" y="433.93" width="158.7" height="5.19"/><circle class="cls-18" cx="1492.13" cy="453.66" r="9.56"/><circle class="cls-18" cx="1555.28" cy="453.66" r="9.56"/><circle class="cls-18" cx="1618.43" cy="453.66" r="9.56"/><rect class="cls-17" x="1511.04" y="443.69" width="27.84" height="36.98"/><rect class="cls-17" x="1574.18" y="443.69" width="27.84" height="36.98"/><rect class="cls-18" x="1511.04" y="474.02" width="27.84" height="6.65"/><rect class="cls-18" x="1574.18" y="474.02" width="27.84" height="6.65"/><polygon class="cls-17" points="1556.33 403.43 1472.75 403.43 1477.18 411.36 1556.33 411.36 1635.86 411.36 1640.3 403.43 1556.33 403.43"/><rect class="cls-16" x="1490.83" y="403.43" width="6.74" height="7.93"/><rect class="cls-16" x="1521.9" y="403.43" width="6.74" height="7.93"/><rect class="cls-16" x="1552.96" y="403.43" width="6.74" height="7.93"/><rect class="cls-16" x="1584.03" y="403.43" width="6.74" height="7.93"/><rect class="cls-16" x="1615.1" y="403.43" width="6.74" height="7.93"/><path class="cls-18" d="M1640.3,403l-7.84-4.63c8.33-4.84,2.51-16.45,2.51-16.45a14.42,14.42,0,0,1-9.93,12l0,0H1487.26s-8.95-2.35-10.09-12c0,0-6,11.81,2.83,16.53l-7.26,4.5Z"/><polygon class="cls-15" points="1494.83 341.09 1494.83 377.65 1617.87 377.65 1617.87 337.76 1494.83 337.76 1494.83 341.09"/><rect class="cls-16" x="1494.83" y="372.66" width="123.04" height="4.99"/><rect class="cls-16" x="1494.83" y="337.56" width="123.04" height="5.19"/><rect class="cls-16" x="1494.81" y="316.04" width="123.04" height="5.19"/><rect class="cls-16" x="1516.57" y="276.17" width="79.56" height="5.36"/><rect class="cls-17" x="1542.42" y="347.32" width="27.84" height="30.33"/><rect class="cls-18" x="1542.42" y="377.65" width="27.84" height="6.65"/><circle class="cls-18" cx="1507.77" cy="357.6" r="7.55"/><circle class="cls-18" cx="1530.93" cy="357.6" r="7.55"/><circle class="cls-18" cx="1581.74" cy="357.6" r="7.55"/><circle class="cls-18" cx="1604.9" cy="357.6" r="7.55"/><rect class="cls-16" x="1513.77" y="270.02" width="85.13" height="6.31"/><rect class="cls-17" x="1525.25" y="243.96" width="62.17" height="5.16"/><rect class="cls-16" x="1525.25" y="249.13" width="62.17" height="4.93"/><path class="cls-18" d="M1590.77,235.27c0,5.17-8.41,6.6-8.41,6.6h0c-6.31-4-17.32-12.21-26-29.93-8.69,17.71-19.7,26.05-26,29.68,0,0-8-1-8-6.21a5.92,5.92,0,0,0,2.9,8.46h62.18A6.4,6.4,0,0,0,1590.77,235.27Z"/><g class="cls-25"><path class="cls-17" d="M1530.32,303.44h-43l7.45,12.64v5.19h0V394h-7.57s-8.95-2.35-10.09-12c0,0-6,12,2.83,16.75l-7.26,4.73,4.43,7.93V527.65h79.16V303.44h-26Z"/><polygon class="cls-17" points="1487.37 303.42 1556.33 303.42 1556.33 297.25 1499.32 297.25 1487.37 303.42"/><path class="cls-17" d="M1530.32,241.59s-8-1-8-6.13c0,0-3.09,5.73,2.9,8.54v26.06h-11.48v6.31h2.8v20.85h39.77v-85.4h0C1547.64,229.54,1536.63,238,1530.32,241.59Z"/></g><rect class="cls-6" x="1440.11" y="449.44" width="189.93" height="78.07"/><polygon class="cls-18" points="1440.11 466.97 1440.11 491.52 1630.05 491.52 1630.05 464.74 1440.11 464.74 1440.11 466.97"/><rect class="cls-26" x="1440.11" y="488.17" width="189.93" height="3.35"/><rect class="cls-17" x="1468.29" y="506.59" width="7.61" height="14.23"/><rect class="cls-17" x="1482.5" y="506.59" width="7.61" height="14.23"/><rect class="cls-17" x="1496.7" y="506.59" width="7.61" height="14.23"/><rect class="cls-17" x="1510.9" y="506.59" width="7.61" height="14.23"/><rect class="cls-26" x="1440.11" y="464.6" width="189.93" height="3.49"/><rect class="cls-17" x="1462.85" y="471.16" width="18.69" height="24.83"/><rect class="cls-17" x="1505.26" y="471.16" width="18.69" height="24.83"/><rect class="cls-18" x="1462.85" y="491.52" width="18.69" height="4.46"/><rect class="cls-18" x="1505.26" y="491.52" width="18.69" height="4.46"/><polygon class="cls-17" points="1493.27 444.12 1437.14 444.12 1440.11 449.44 1493.27 449.44 1630.03 449.44 1633.02 444.12 1493.27 444.12"/><rect class="cls-18" x="1449.28" y="444.12" width="4.52" height="5.33"/><rect class="cls-18" x="1470.15" y="444.12" width="4.52" height="5.33"/><rect class="cls-18" x="1491.01" y="444.12" width="4.52" height="5.33"/><rect class="cls-18" x="1511.87" y="444.12" width="4.52" height="5.33"/><rect class="cls-18" x="1532.74" y="444.12" width="4.52" height="5.33"/><rect class="cls-27" x="1437.14" y="437.77" width="195.87" height="6.35"/><rect class="cls-17" x="1552.68" y="506.59" width="7.61" height="14.23"/><rect class="cls-17" x="1566.88" y="506.59" width="7.61" height="14.23"/><rect class="cls-17" x="1581.08" y="506.59" width="7.61" height="14.23"/><rect class="cls-17" x="1595.29" y="506.59" width="7.61" height="14.23"/><rect class="cls-17" x="1547.24" y="471.16" width="18.69" height="24.83"/><rect class="cls-17" x="1589.64" y="471.16" width="18.69" height="24.83"/><rect class="cls-18" x="1547.24" y="491.52" width="18.69" height="4.46"/><rect class="cls-18" x="1589.64" y="491.52" width="18.69" height="4.46"/><rect class="cls-18" x="1554.53" y="444.12" width="4.52" height="5.33"/><rect class="cls-18" x="1575.39" y="444.12" width="4.52" height="5.33"/><rect class="cls-18" x="1596.26" y="444.12" width="4.52" height="5.33"/><rect class="cls-18" x="1617.12" y="444.12" width="4.52" height="5.33"/><polygon class="cls-19" points="1437.31 438.01 1437.44 444.35 1440.55 449.66 1440.55 464.81 1440.55 464.95 1440.55 467.19 1440.55 468.3 1440.55 488.39 1440.55 491.74 1440.55 528.08 1533.61 528.08 1533.61 438.01 1437.31 438.01"/><rect class="cls-6" x="1629.68" y="472.04" width="66.05" height="55.04"/><rect class="cls-15" x="1630.05" y="449.44" width="65.68" height="22.55"/><rect class="cls-24" x="1639.72" y="482.9" width="16.5" height="15.55"/><rect class="cls-24" x="1670.53" y="482.9" width="16.5" height="15.55"/><rect class="cls-19" x="1629.68" y="449.02" width="33.02" height="78.05"/><path class="cls-4" d="M1888.86,596.13H1426.54V527l269.19.09V477l121.5,1c15.24,0,55.66,76.54,55.66,76.54Z"/><rect class="cls-6" x="1655.7" y="248.88" width="113.08" height="82.06"/><rect class="cls-16" x="1655.7" y="260.89" width="113.08" height="17.01"/><rect class="cls-18" x="1689.72" y="264.89" width="44.03" height="51.04"/><rect class="cls-18" x="1684.72" y="256.89" width="54.04" height="10.01"/><rect class="cls-17" x="1694.72" y="273.9" width="11.01" height="34.02"/><rect class="cls-17" x="1717.74" y="273.9" width="11.01" height="34.02"/><polygon class="cls-17" points="1733.45 240.54 1640.29 240.54 1645.22 249.38 1733.45 249.38 1779.22 249.38 1784.18 240.54 1733.45 240.54"/><rect class="cls-16" x="1640.29" y="230.01" width="143.89" height="10.53"/><polygon class="cls-18" points="1784.18 230.01 1748.1 221.17 1673.71 221.17 1640.29 230.01 1784.18 230.01"/><rect class="cls-28" x="1674.71" y="196.84" width="71.05" height="24.02"/><rect class="cls-16" x="1667.71" y="184.84" width="84.06" height="12.01"/><path class="cls-16" d="M1763.25,171.86c0,8.08-12.48,10-12.48,10h0c-9.87-6-27.09-19.17-40.69-46.87-13.6,27.71-30.81,40.72-40.69,46.39,0,0-12.52-1.66-12.48-9.73,0,0-4.83,8.52,4.54,13.21h97.27C1768.08,180.14,1763.25,171.86,1763.25,171.86Z"/><rect class="cls-6" x="174.65" y="197.85" width="75.05" height="5"/><rect class="cls-6" x="121.62" y="232.87" width="361.25" height="361.25"/><polygon class="cls-16" points="502.3 234.72 487.18 214.68 117.27 214.68 102.08 234.72 502.3 234.72"/><rect class="cls-16" x="121.62" y="370.22" width="361.15" height="75.13"/><rect class="cls-16" x="121.62" y="269.15" width="361.15" height="16.43"/><rect class="cls-24" x="160.92" y="277.38" width="13.95" height="26.08"/><rect class="cls-24" x="195.79" y="277.32" width="13.95" height="26.08"/><rect class="cls-24" x="227.75" y="277.41" width="13.95" height="26.08"/><rect class="cls-24" x="262.62" y="277.35" width="13.95" height="26.08"/><rect class="cls-24" x="297.02" y="277.43" width="13.95" height="26.08"/><rect class="cls-24" x="328.88" y="277.36" width="13.95" height="26.08"/><rect class="cls-24" x="361.85" y="277.46" width="13.95" height="26.08"/><rect class="cls-24" x="395.72" y="277.39" width="13.95" height="26.08"/><rect class="cls-24" x="431.35" y="277.49" width="13.95" height="26.08"/><rect class="cls-24" x="152.54" y="320.8" width="30.71" height="40.79"/><rect class="cls-18" x="152.54" y="354.26" width="30.71" height="7.33"/><rect class="cls-24" x="219.37" y="320.8" width="30.71" height="40.79"/><rect class="cls-18" x="219.37" y="354.26" width="30.71" height="7.33"/><rect class="cls-24" x="287.09" y="320.8" width="30.71" height="40.79"/><rect class="cls-18" x="287.09" y="354.26" width="30.71" height="7.33"/><rect class="cls-24" x="353.92" y="320.8" width="30.71" height="40.79"/><rect class="cls-18" x="353.92" y="354.26" width="30.71" height="7.33"/><rect class="cls-24" x="422.97" y="320.8" width="30.71" height="40.79"/><rect class="cls-18" x="422.97" y="354.26" width="30.71" height="7.33"/><rect class="cls-18" x="174.65" y="203.85" width="75.05" height="11.01"/><rect class="cls-6" x="331.76" y="184.84" width="75.05" height="30.02"/><path class="cls-16" d="M414.9,173.2c0,6.95-10.73,8.09-10.73,8.09h0c-8.49-4.43-23.3-16.1-35-39.93-11.7,23.83-26.5,35.21-35,40.09,0,0-10.77-1.24-10.73-8.18,0,0-4.16,8,3.91,11.55H411C419.06,181.29,414.9,173.2,414.9,173.2Z"/><path class="cls-18" d="M257.79,186c0,6.95-10.73,7.86-10.73,7.86h0c-8.49-4-23.3-15.87-35-39.7-11.7,23.83-26.5,35.32-35,40.21,0,0-10.77-1.18-10.73-8.12,0,0-4.16,8.07,3.91,11.61h83.66C261.95,194.3,257.79,186,257.79,186Z"/><rect class="cls-24" x="160.92" y="461.37" width="6.97" height="15.47"/><rect class="cls-24" x="179.76" y="461.37" width="6.97" height="15.47"/><rect class="cls-24" x="198.83" y="461.37" width="6.97" height="15.47"/><rect class="cls-24" x="217.67" y="461.37" width="6.97" height="15.47"/><rect class="cls-24" x="236.73" y="461.37" width="6.97" height="15.47"/><rect class="cls-24" x="255.57" y="461.37" width="6.97" height="15.47"/><rect class="cls-24" x="274.64" y="461.37" width="6.97" height="15.47"/><rect class="cls-24" x="293.49" y="461.37" width="6.97" height="15.47"/><rect class="cls-24" x="160.92" y="495" width="6.97" height="15.47"/><rect class="cls-24" x="179.76" y="495" width="6.97" height="15.47"/><rect class="cls-24" x="198.83" y="495" width="6.97" height="15.47"/><rect class="cls-24" x="217.67" y="495" width="6.97" height="15.47"/><rect class="cls-24" x="236.73" y="495" width="6.97" height="15.47"/><rect class="cls-24" x="255.57" y="495" width="6.97" height="15.47"/><rect class="cls-24" x="274.64" y="495" width="6.97" height="15.47"/><path class="cls-19" d="M249.71,214.86v-17h4.17c8.07-3.54,3.91-11.87,3.91-11.87,0,6.95-10.73,7.86-10.73,7.86h0c-8.49-4-23.3-15.87-35-39.7-11.7,23.83-26.5,35.32-35,40.21,0,0-10.77-1.18-10.73-8.12,0,0-4.16,8.07,3.91,11.61h4.43v17H117.27l-15.19,20h19.53V594.12H293.74V214.86Z"/><path class="cls-4" d="M582.8,337.41c24.38,12.8,72.67.9,122,1,24.13,0,133.08,26.66,194.94,74.22,64.65,49.7,83.39,121.68,161,181.51l-1009.1,1s78.81-80.35,170.06-80.86c106.75-.6,140.11-107.25,175.11-130s80.66-46.89,104.38-46.89S558.42,324.61,582.8,337.41Z"/><rect class="cls-6" x="696.12" y="419.15" width="220.57" height="175.64"/><polygon class="cls-15" points="696.12 442.67 696.12 464.14 916.69 464.14 916.69 440.71 696.12 440.71 696.12 442.67"/><rect class="cls-24" x="745.27" y="551.09" width="13.95" height="26.08"/><rect class="cls-24" x="736.89" y="446.52" width="30.71" height="40.79"/><rect class="cls-18" x="736.89" y="479.98" width="30.71" height="7.33"/><polygon class="cls-15" points="928.29 419.84 920.47 392.74 696.16 392.74 688.3 419.84 928.29 419.84"/><polygon class="cls-15" points="911.78 392.74 903.96 365.63 712.67 365.63 704.81 392.74 911.78 392.74"/><rect class="cls-24" x="736.89" y="487.08" width="30.71" height="40.79"/><rect class="cls-18" x="736.89" y="520.54" width="30.71" height="7.33"/><rect class="cls-24" x="848.34" y="550.77" width="13.95" height="26.08"/><rect class="cls-24" x="839.96" y="446.2" width="30.71" height="40.79"/><rect class="cls-18" x="839.96" y="479.66" width="30.71" height="7.33"/><rect class="cls-24" x="839.96" y="486.76" width="30.71" height="40.79"/><rect class="cls-18" x="839.96" y="520.22" width="30.71" height="7.33"/><polygon class="cls-19" points="712.67 365.96 704.81 392.98 696.16 392.98 688.3 420 696.02 420 696.02 440.71 696.02 442.67 696.02 464.14 696.02 595.13 808.1 595.13 808.1 365.96 712.67 365.96"/><rect class="cls-6" x="514.62" y="221.61" width="120.9" height="24"/><rect class="cls-6" x="527.81" y="164.74" width="94.46" height="39.6"/><polygon class="cls-24" points="575.07 255.05 575.07 255.05 470.25 255.05 481.57 274.25 575.07 274.25 575.07 274.25 668.57 274.25 679.89 255.05 575.07 255.05"/><rect class="cls-16" x="525.91" y="255.05" width="9.61" height="19.2"/><rect class="cls-16" x="570.26" y="255.05" width="9.61" height="19.2"/><rect class="cls-16" x="614.56" y="255.05" width="9.61" height="19.2"/><rect class="cls-16" x="536.52" y="221.6" width="9.61" height="24.02"/><rect class="cls-16" x="553.48" y="180.08" width="9.61" height="24.25"/><rect class="cls-16" x="587.19" y="180.08" width="9.61" height="24.25"/><rect class="cls-16" x="570.29" y="221.6" width="9.61" height="24.02"/><rect class="cls-16" x="604.01" y="221.6" width="9.61" height="24.02"/><rect class="cls-6" x="481.59" y="282.14" width="186.95" height="110.54"/><polygon class="cls-18" points="488.4 245.64 470.25 255.02 679.89 255.02 660.76 245.64 488.4 245.64"/><rect class="cls-6" x="454.77" y="419.09" width="241.14" height="176.64"/><polygon class="cls-15" points="454.76 458.75 454.76 514.3 695.91 514.3 695.91 453.7 454.76 453.7 454.76 458.75"/><rect class="cls-16" x="454.77" y="506.72" width="241.14" height="7.58"/><rect class="cls-24" x="518.52" y="548.39" width="17.22" height="32.19"/><rect class="cls-24" x="550.66" y="548.39" width="17.22" height="32.19"/><rect class="cls-24" x="582.8" y="548.39" width="17.22" height="32.19"/><rect class="cls-24" x="614.94" y="548.39" width="17.22" height="32.19"/><rect class="cls-16" x="454.77" y="453.38" width="241.14" height="7.89"/><circle class="cls-18" cx="477.49" cy="483.37" r="14.52"/><circle class="cls-18" cx="573.44" cy="483.37" r="14.52"/><circle class="cls-18" cx="669.4" cy="483.37" r="14.52"/><rect class="cls-24" x="506.21" y="468.22" width="42.29" height="56.18"/><rect class="cls-24" x="602.17" y="468.22" width="42.29" height="56.18"/><rect class="cls-18" x="506.21" y="514.3" width="42.29" height="10.1"/><rect class="cls-18" x="602.17" y="514.3" width="42.29" height="10.1"/><polygon class="cls-24" points="575.04 407.04 448.04 407.04 454.76 419.09 575.04 419.09 695.88 419.09 702.63 407.04 575.04 407.04"/><rect class="cls-16" x="475.51" y="407.04" width="10.24" height="12.05"/><rect class="cls-16" x="522.72" y="407.04" width="10.24" height="12.05"/><rect class="cls-16" x="569.92" y="407.04" width="10.24" height="12.05"/><rect class="cls-16" x="617.13" y="407.04" width="10.24" height="12.05"/><rect class="cls-16" x="664.34" y="407.04" width="10.24" height="12.05"/><path class="cls-18" d="M702.63,407l-11.91-7.34c12.65-7.36,3.82-25.16,3.82-25.16-1.59,13.56-13.29,17.81-15.08,18.36l0,.13H470.09s-13.6-3.73-15.32-18.43c0,0-9.08,18.17,4.3,25.35h0L448,407Z"/><polygon class="cls-15" points="481.59 312.31 481.59 367.87 668.55 367.87 668.55 307.26 481.59 307.26 481.59 312.31"/><rect class="cls-16" x="481.59" y="360.29" width="186.95" height="7.58"/><rect class="cls-16" x="481.59" y="306.95" width="186.95" height="7.89"/><rect class="cls-16" x="481.57" y="274.25" width="186.95" height="7.89"/><rect class="cls-16" x="514.62" y="213.68" width="120.9" height="8.15"/><rect class="cls-24" x="553.9" y="321.78" width="42.29" height="46.08"/><rect class="cls-18" x="553.9" y="367.87" width="42.29" height="10.1"/><circle class="cls-18" cx="501.25" cy="337.41" r="11.48"/><circle class="cls-18" cx="536.44" cy="337.41" r="11.48"/><circle class="cls-18" cx="613.64" cy="337.41" r="11.48"/><circle class="cls-18" cx="648.83" cy="337.41" r="11.48"/><rect class="cls-24" x="510.37" y="204.33" width="129.35" height="9.59"/><rect class="cls-24" x="527.81" y="164.74" width="94.46" height="7.85"/><rect class="cls-16" x="527.81" y="172.58" width="94.46" height="7.5"/><path class="cls-18" d="M626.71,151.68c0,7.85-12.12,9.14-12.12,9.14h0c-9.59-5-26.31-18.18-39.52-45.1-13.21,26.91-29.93,39.77-39.52,45.28,0,0-12.16-1.4-12.12-9.23,0,0-4.7,9,4.41,13.05H622.3C631.41,160.82,626.71,151.68,626.71,151.68Z"/><g class="cls-29"><path class="cls-17" d="M535.52,255.11H470.25l11.32,19.2v7.89h0V392.74h-11.5s-13.6-3.57-15.32-18.27c0,0-9.08,18.27,4.3,25.45l-11,7.18,6.72,12.05V595.79H575V255.11H535.52Z"/><polygon class="cls-17" points="470.25 255.08 575.04 255.08 575.04 245.7 488.4 245.7 470.25 255.08"/><path class="cls-17" d="M535.52,161.13c-.05,0-12.16-1.47-12.12-9.31,0,0-4.7,8.71,4.41,13v39.6H510.37V214h4.25v31.69H575V115.91h0C561.83,142.82,545.11,155.61,535.52,161.13Z"/></g><rect class="cls-6" x="915.56" y="418.64" width="429.75" height="176.64"/><polygon class="cls-18" points="915.56 458.3 915.56 513.85 1345.3 513.85 1345.3 453.25 915.56 453.25 915.56 458.3"/><rect class="cls-16" x="915.56" y="506.27" width="429.75" height="7.58"/><rect class="cls-24" x="979.31" y="547.94" width="17.22" height="32.19"/><rect class="cls-24" x="1011.45" y="547.94" width="17.22" height="32.19"/><rect class="cls-24" x="1043.59" y="547.94" width="17.22" height="32.19"/><rect class="cls-24" x="1075.73" y="547.94" width="17.22" height="32.19"/><rect class="cls-16" x="915.56" y="452.93" width="429.75" height="7.89"/><rect class="cls-24" x="967" y="467.77" width="42.29" height="56.18"/><rect class="cls-24" x="1062.96" y="467.77" width="42.29" height="56.18"/><rect class="cls-18" x="967" y="513.85" width="42.29" height="10.1"/><rect class="cls-18" x="1062.96" y="513.85" width="42.29" height="10.1"/><polygon class="cls-24" points="1035.83 406.59 908.83 406.59 915.56 418.64 1035.83 418.64 1345.27 418.64 1352.03 406.59 1035.83 406.59"/><rect class="cls-18" x="936.3" y="406.59" width="10.24" height="12.05"/><rect class="cls-18" x="983.51" y="406.59" width="10.24" height="12.05"/><rect class="cls-18" x="1030.71" y="406.59" width="10.24" height="12.05"/><rect class="cls-18" x="1077.92" y="406.59" width="10.24" height="12.05"/><rect class="cls-18" x="1125.13" y="406.59" width="10.24" height="12.05"/><rect class="cls-16" x="908.83" y="392.23" width="443.19" height="14.36"/><rect class="cls-24" x="1170.24" y="547.94" width="17.22" height="32.19"/><rect class="cls-24" x="1202.38" y="547.94" width="17.22" height="32.19"/><rect class="cls-24" x="1234.52" y="547.94" width="17.22" height="32.19"/><rect class="cls-24" x="1266.65" y="547.94" width="17.22" height="32.19"/><rect class="cls-24" x="1157.93" y="467.77" width="42.29" height="56.18"/><rect class="cls-24" x="1253.88" y="467.77" width="42.29" height="56.18"/><rect class="cls-18" x="1157.93" y="513.85" width="42.29" height="10.1"/><rect class="cls-18" x="1253.88" y="513.85" width="42.29" height="10.1"/><rect class="cls-18" x="1174.43" y="406.59" width="10.24" height="12.05"/><rect class="cls-18" x="1221.64" y="406.59" width="10.24" height="12.05"/><rect class="cls-18" x="1268.85" y="406.59" width="10.24" height="12.05"/><rect class="cls-18" x="1316.06" y="406.59" width="10.24" height="12.05"/><polygon class="cls-19" points="908.84 391.98 908.64 406.46 915.17 418.64 915.17 452.93 915.17 453.25 915.17 458.3 915.17 460.82 915.17 506.27 915.17 513.85 915.17 595.13 1130.33 595.13 1130.33 391.98 908.84 391.98"/><rect class="cls-30" x="0.57" y="595.16" width="1921.28" height="35.84"/><path class="cls-31" d="M1649.69,115.72h226.22s-11-53.85-84.56-48.14c0,0-5.49-42.43-54.91-28.56,0,0-23.06,6.53-18.67,28.56,0,0-6.59-9-23.06-4.9,0,0-12.08,4.08-9.88,13.05,0,0-22-5.71-23.06,9.79,0,0-51.61,3.26-54.91,30.19Z"/><path class="cls-32" d="M1452.41,98.7H1226.19s11-30.79,84.56-27.52c0,0,5.49-24.26,54.91-16.33,0,0,23.06,3.73,18.67,16.33,0,0,6.59-5.13,23.06-2.8,0,0,12.08,2.33,9.88,7.46,0,0,22-3.27,23.06,5.6,0,0,51.61,1.87,54.91,17.26Z"/><path class="cls-6" d="M1596.55,56.26c0-4.53-5.64-8.21-12.59-8.21a17.73,17.73,0,0,0-6.7,1.26,7.33,7.33,0,0,0-1.93-.28c-.67-2.77-4.35-4.9-8.78-4.9a13,13,0,0,0-3.59.49c-1.2-2.28-2.59-4.32-7.51-5.12-6-1-10.2,1.81-11.08,4.42-1.09-.32-.81.84-2.09.84a11.37,11.37,0,0,0-6.25,1.72,4.78,4.78,0,0,0-2.11-.46c-1.92,0-3.48,1-3.48,2.27,0,0,0,.05,0,.08-5.67.42-10.07,3.55-10.07,7.36a4.92,4.92,0,0,0,0,.6l0,0h76.17s0-.07,0-.1Z"/><path class="cls-6" d="M783.36,300.45c0-4.53-5.64-8.21-12.59-8.21a17.73,17.73,0,0,0-6.7,1.26,7.33,7.33,0,0,0-1.93-.28c-.67-2.77-4.35-4.9-8.78-4.9a13,13,0,0,0-3.59.49c-1.2-2.28-2.59-4.32-7.51-5.12-6-1-10.2,1.81-11.08,4.42-1.09-.32-.81.84-2.09.84a11.37,11.37,0,0,0-6.25,1.72,4.78,4.78,0,0,0-2.11-.46c-1.92,0-3.48,1-3.48,2.27,0,0,0,.05,0,.08-5.67.42-10.07,3.55-10.07,7.36a4.92,4.92,0,0,0,0,.6l0,0h76.17s0-.07,0-.1Z"/><path class="cls-19" d="M1669.37,182.35s-12.52-1.66-12.48-9.73c0,0-4.83,8.52,4.54,13.21h6.27v12h7v24h-1l-33.42,9h0v10.85l4.93,9.16h10.47v81.06h54V136.59C1696.19,163.86,1679.16,176.72,1669.37,182.35Z"/></svg>