<svg xmlns="http://www.w3.org/2000/svg" xmlns:xlink="http://www.w3.org/1999/xlink" viewBox="0 0 832 384.72"><defs><style>.cls-1{isolation:isolate;}.cls-2{fill:#806056;}.cls-3{fill:#bf6536;}.cls-4{fill:#f2a670;}.cls-5,.cls-6{opacity:0.11;mix-blend-mode:multiply;}.cls-5{fill:url(#linear-gradient);}.cls-6{fill:url(#linear-gradient-2);}</style><linearGradient id="linear-gradient" x1="203.31" y1="237.41" x2="300.97" y2="237.41" gradientUnits="userSpaceOnUse"><stop offset="0" stop-color="#747d9d"/><stop offset="0.59" stop-color="#9281aa"/><stop offset="1" stop-color="#aa84b4"/></linearGradient><linearGradient id="linear-gradient-2" x1="-2990.77" y1="259.47" x2="-2920.17" y2="259.47" gradientTransform="matrix(-1, 0, 0, 1, -2305.03, 0)" xlink:href="#linear-gradient"/></defs><title>ต้นไม้</title><g class="cls-1"><g id="ต้นไม้"><path class="cls-2" d="M211.82,229.18c-5.4-5.4,10.81-70.24,10.81-70.24l4.72,1.47c.4-4.2.68-6.87.68-6.87,37.82-10.81,67.54-32.42,67.54-32.42l-5.4-8.11c-10.81,10.81-72.95,32.42-72.95,32.42s2.7,48.63-24.32,64.84-59.44-21.61-59.44-21.61l-8.11,13.51s37.82,21.61,59.44,40.53-.8,72.95-.8,72.95l21.09.27C211.91,298.25,216.8,234.16,211.82,229.18Z"/><path class="cls-2" d="M238.83,237.29c12.86,0,38.9-19.35,54.27-31.75l5.75-16.31-.59-.57c-16.21,18.91-69.87,33.56-72.95,24.32-2.09-6.26.66-38.31,2-52.57l-4.72-1.47s-16.21,64.84-10.81,70.24c5,5,.09,69.06-6.73,86.72l40.53.51C225.38,298.29,238.83,237.29,238.83,237.29Z"/><path class="cls-3" d="M284,153.1s13.76-1.54,21.17-5.73h28.39l-21.82-29.3c0-13-19.53-13-19.53-13s0-13-16.28-16.28-19.53,9.77-19.53,9.77,3.26-26-26-26S210.84,105,210.84,105s-3.26-9.77-19.53-6.51-6.51,22.79-6.51,22.79c-27.7,0-20.49,23.26-19.62,25.81-.47,3.65.86,7.95,7.12,11.7,11.1,6.66,29.08-5.6,36.61-11.46h10.24c6.58,2.5,17.1,5.73,27.64,5.73s15.68-3.23,18.09-5.73h7.69Z"/><path class="cls-4" d="M328.8,137.26c3.62-3.26,3.62-9.77-2-13s-12.47,3.26-12.47,3.26,7.24-22.79-14.48-26-25.33,16.28-25.33,16.28a8.23,8.23,0,0,0-10.86-3.26c-7.24,3.26-3.62,9.77-3.62,9.77-3.62-6.51-10.86-6.51-10.86-6.51-18.09-3.26-18.09,19.53-18.09,19.53-10-1.8-15.56,3.36-18.55,8.34a6.67,6.67,0,0,0-2.82,6.56c-.23.84-.34,1.38-.34,1.38H210c2.9,10.43,50.67,9,68.81,0h8.93c5.42,3.18,14.61,7.64,21,5.73a46,46,0,0,0,12.07-5.73h11.66s14.35,0,14.48-3.26C347.42,136.87,328.8,137.26,328.8,137.26Z"/><path class="cls-3" d="M168.67,200.45c.25-7.08-8.59-6.87-8.59-6.87a4.5,4.5,0,0,0-1-6.87c-2.67-1.72-5.92,1.72-5.92,1.72s3.44-12-6.87-13.75-12,8.59-12,8.59-1.72-3.44-5.16-1.72-1.72,5.16-1.72,5.16a6.11,6.11,0,0,0-5.16-3.44c-8.59-1.72-8.59,10.31-8.59,10.31-6.87-1.37-9.34,4.94-10.06,7.52a2.7,2.7,0,0,0-.25,1.07c0,4.35,15.22,2.17,15.22,0,0,0,10.87,4.35,17.4,2.17l6.52-2.17H152a16,16,0,0,0,7.88,2.17c6.52,0,8.35-3.26,8.35-3.26A.85.85,0,0,0,168.67,200.45Z"/><path class="cls-4" d="M341.57,200c.31-8.8-10.67-8.54-10.67-8.54a5.59,5.59,0,0,0-1.18-8.54c-3.32-2.13-7.36,2.13-7.36,2.13s4.27-14.94-8.54-17.08-14.94,10.67-14.94,10.67-2.13-4.27-6.4-2.13-2.13,6.4-2.13,6.4a7.58,7.58,0,0,0-6.4-4.27c-10.67-2.13-10.67,12.81-10.67,12.81-10.67-2.13-12.81,10.67-12.81,10.67s0,8.11,13.51,5.4,13.74-5.4,13.74-5.4,7.88,8.11,16,5.4,12.09-5.4,12.09-5.4,9.52,8.11,17.62,5.4c5.81-1.94,7.45-5.25,7.91-7A.9.9,0,0,0,341.57,200Z"/><path class="cls-5" d="M238.83,237c12.86,0,38.9-19.35,54.27-31.75L298.86,189l-.59-.57c-16.21,18.91-69.87,33.56-72.95,24.32-2.09-6.26.66-38.31,2-52.57l-4.72-1.47s-16.21,64.84-10.81,70.24c5,5,.09,69.06-6.73,86.72l40.53.51C225.38,298,238.83,237,238.83,237Z"/><path class="cls-2" d="M679.6,253.52c3.91-3.91-7.81-50.78-7.81-50.78l-3.41,1.06c-.29-3-.49-5-.49-5C640.53,191,619,175.4,619,175.4l3.91-5.86c7.81,7.81,52.73,23.44,52.73,23.44s-2,35.16,17.58,46.87,43-15.62,43-15.62L742.1,234s-27.34,15.62-43,29.3.58,52.73.58,52.73l-15.25.19C679.53,303.45,676,257.13,679.6,253.52Z"/><path class="cls-2" d="M660.07,259.38c-9.29,0-28.12-14-39.24-23l-4.16-11.79.43-.41c11.72,13.67,50.51,24.26,52.73,17.58,1.51-4.53-.48-27.69-1.46-38l3.41-1.06s11.72,46.87,7.81,50.78c-3.6,3.6-.07,49.93,4.87,62.69l-29.3.37C669.79,303.48,660.07,259.38,660.07,259.38Z"/><path class="cls-3" d="M627.39,198.52s-10-1.12-15.31-4.14H591.56l15.77-21.18c0-9.41,14.12-9.41,14.12-9.41s0-9.41,11.77-11.77,14.12,7.06,14.12,7.06-2.35-18.83,18.83-18.83,14.12,23.54,14.12,23.54,2.35-7.06,14.12-4.71,4.71,16.48,4.71,16.48c20,0,14.81,16.82,14.18,18.66.34,2.64-.63,5.75-5.14,8.46-8,4.82-21-4.05-26.47-8.29h-7.4c-4.75,1.81-12.36,4.14-20,4.14s-11.34-2.33-13.08-4.14h-5.56Z"/><path class="cls-4" d="M595,187.07c-2.62-2.35-2.62-7.06,1.45-9.41s9,2.35,9,2.35-5.23-16.47,10.46-18.83,18.31,11.77,18.31,11.77a6,6,0,0,1,7.85-2.35,4.88,4.88,0,0,1,2.62,7.06,9.52,9.52,0,0,1,7.85-4.71c13.08-2.35,13.08,14.12,13.08,14.12,7.23-1.3,11.25,2.43,13.41,6a4.82,4.82,0,0,1,2,4.74c.17.6.25,1,.25,1h-.42c-2.1,7.54-36.63,6.5-49.75,0h-6.46c-3.92,2.3-10.56,5.52-15.17,4.14a33.27,33.27,0,0,1-8.73-4.14h-8.43s-10.37,0-10.46-2.35C581.57,186.79,595,187.07,595,187.07Z"/><path class="cls-3" d="M710.79,232.75c-.18-5.12,6.21-5,6.21-5a3.25,3.25,0,0,1,.69-5c1.93-1.24,4.28,1.24,4.28,1.24s-2.48-8.7,5-9.94,8.7,6.21,8.7,6.21a2.78,2.78,0,1,1,5,2.48,4.41,4.41,0,0,1,3.73-2.48c6.21-1.24,6.21,7.45,6.21,7.45,5-1,6.75,3.57,7.27,5.44a2,2,0,0,1,.18.77c0,3.14-11,1.57-11,0,0,0-7.86,3.14-12.58,1.57L729.7,234h-6.88a11.53,11.53,0,0,1-5.7,1.57c-4.72,0-6-2.36-6-2.36A.62.62,0,0,1,710.79,232.75Z"/><path class="cls-4" d="M585.79,232.45c-.22-6.36,7.72-6.17,7.72-6.17a4,4,0,0,1,.85-6.17c2.4-1.54,5.32,1.54,5.32,1.54s-3.09-10.8,6.17-12.35,10.8,7.72,10.8,7.72a3.45,3.45,0,1,1,6.17,3.09,5.48,5.48,0,0,1,4.63-3.09c7.72-1.54,7.72,9.26,7.72,9.26,7.72-1.54,9.26,7.72,9.26,7.72s0,5.86-9.77,3.91-9.93-3.91-9.93-3.91-5.69,5.86-11.55,3.91a38.89,38.89,0,0,1-8.74-3.91s-6.88,5.86-12.74,3.91c-4.2-1.4-5.38-3.79-5.72-5A.65.65,0,0,1,585.79,232.45Z"/><path class="cls-6" d="M660.07,259.19c-9.29,0-28.12-14-39.24-23l-4.16-11.79.43-.41c11.72,13.67,50.51,24.26,52.73,17.58,1.51-4.53-.48-27.69-1.46-38l3.41-1.06s11.72,46.87,7.81,50.78c-3.6,3.6-.07,49.93,4.87,62.69l-29.3.37C669.79,303.29,660.07,259.19,660.07,259.19Z"/></g></g></svg>