<svg xmlns="http://www.w3.org/2000/svg" viewBox="0 0 2232.09 511.47"><defs><style>.cls-1{fill:#bf6536;}.cls-2{fill:#3e4670;}.cls-3{fill:#fdeff5;}.cls-4{fill:#fed208;}.cls-5{fill:#4e5c37;}.cls-6{fill:none;stroke:#484257;stroke-miterlimit:10;stroke-width:3px;}</style></defs><title>ธงสี</title><g id="ธงสี"><path class="cls-1" d="M592.24,367.7s47.56,10.48,65.95-5.5c0,0,8.05,45-2.62,65.35,0,0-53.26,18.41-55.67,4C599.57,429.55,601.91,385.85,592.24,367.7Z"/><path class="cls-1" d="M999.5,328.81s46.22,7.61,64.6-8.37c0,0,8.05,45-2.62,65.35,0,0-53.26,18.41-55.67,4C1005.49,387.79,1009.17,347,999.5,328.81Z"/><path class="cls-2" d="M681.23,360.45s4,55.61,0,65.11c0,0,47.55,5.64,51-3,2-5,8.94-61.21,6.47-66.86Z"/><path class="cls-2" d="M1085.23,318.45s4,55.61,0,65.11c0,0,47.55,5.64,51-3,2-5,9.46-63.79,7-69.44Z"/><path class="cls-3" d="M768.43,353s-1.19,63.12-9.19,74.31c0,0,69.5-5.31,73-7.81s7.32-73.32,7.32-73.32Z"/><path class="cls-3" d="M1166.83,308.06s-16.59,59.83-8.92,72.13c0,0,76.45-5.24,73-7.81-11-8.16,7.32-73.32,7.32-73.32Z"/><path class="cls-4" d="M857.78,344.39s-1,50.67-2.53,64.67v8.5s35.5-5.5,51-5c0,0-6.7-55.85-3.1-72.93C903.14,339.63,871.31,360.72,857.78,344.39Z"/><path class="cls-3" d="M1569.7,247.27s-1,50.67-2.53,64.67v8.5s35.5-5.5,51-5c0,0-6.7-55.85-3.1-72.93C1615.07,242.51,1583.23,263.6,1569.7,247.27Z"/><path class="cls-5" d="M1337.83,283.82s-1,50.67-2.53,64.67V357s35.5-5.5,51-5c0,0-6.4-57.86-2.8-74.94C1383.49,277.05,1351.36,300.16,1337.83,283.82Z"/><path class="cls-5" d="M919.17,337.89s-5.43,60.66,11.57,76.16c0,0,48.17-11,58.83-12,0,0-17-63.48-11.69-70.74Z"/><path class="cls-1" d="M207.12,363.43s-10.88,56.79-13.54,60.13c0,0,35.33,8,50.67,8,0,0,22-17.56,22-61.78Z"/><path class="cls-1" d="M1454.9,339.63s12.68-72.74,15.35-76.07c0,0-55.92,11.25-71.25,11.25,0,0-3.25,14.26-3.25,58.48Z"/><path class="cls-5" d="M2105.91,226.15s-5.5-62-2.83-65.33c0,0-15.08,4.88-30.42,4.88,0,0,.75,16.24.75,60.45Z"/><path class="cls-2" d="M1909,268.55s12.68-72.74,15.35-76.07c0,0-55.92,11.25-71.25,11.25,0,0-3.25,14.26-3.25,58.48Z"/><path class="cls-2" d="M291.6,371.41s5,26.81,5.31,46.14l.33,19.33h61.18s5.82-44.55,1.15-63.11l-54-1.68Z"/><path class="cls-2" d="M1477.28,262.13s5,29.31,5.31,50.45l.33,21.14h61.18s7.63-61.21,3-81.5l-34.14,4.83Z"/><path class="cls-3" d="M379.91,373.77s-10.67,48.79-1.33,63.12l63.67-1.67s-10-56.24-3.67-61.45Z"/><path class="cls-4" d="M451.57,372.95l5.67,63.94s37.33-11,50-5.33c0,0,1-47.62-4-60.14Z"/><path class="cls-5" d="M524.73,370.33s10,54.24,6.51,66.73c0,0,21.5,6,42-2.51,0,0,7.5-4.5,10.5-9l-5.56-58Z"/><path class="cls-4" d="M1256.59,296.85s10.15,55.71,6.65,68.2c0,0,21.5,6,42-2.51,0,0,7.5-4.5,10.5-9L1312,288.37Z"/><path class="cls-4" d="M1626.34,240s10.15,55.71,6.65,68.2c0,0,21.5,6,42-2.51,0,0,7.5-4.5,10.5-9l-3.71-65.17Z"/><path class="cls-4" d="M2005.67,176.74s10.15,55.71,6.65,68.2c0,0,21.5,6,42-2.51,0,0,7.5-4.5,10.5-9l-3.71-65.17Z"/><path class="cls-5" d="M1700.78,228s-1.19,63.12-9.19,74.31c0,0,69.5-5.31,73-7.81s8.15-78.09,8.15-78.09Z"/><path class="cls-1" d="M1833.86,207.63s1.13,61.06,2.63,75.06v8.5s-35.5-5.5-51-5c0,0,6.7-55.85,3.1-72.93C1788.6,213.26,1820.33,224,1833.86,207.63Z"/><path class="cls-3" d="M1991.57,179.4s7.57,78-9.43,93.48c0,0-48.17-11-58.83-12,0,0,17-63.48,11.69-70.74Z"/><path class="cls-6" d="M2101.47,160.82S599.61,440,181,359"/></g></svg>