<?xml version="1.0" encoding="utf-8"?>
<!-- Generator: Adobe Illustrator 17.0.0, SVG Export Plug-In . SVG Version: 6.00 Build 0)  -->
<!DOCTYPE svg PUBLIC "-//W3C//DTD SVG 1.1//EN" "http://www.w3.org/Graphics/SVG/1.1/DTD/svg11.dtd">
<svg version="1.1" id="Layer_1" xmlns="http://www.w3.org/2000/svg" xmlns:xlink="http://www.w3.org/1999/xlink" x="0px" y="0px"
	 width="700px" height="375px" viewBox="0 0 700 375" enable-background="new 0 0 700 375" xml:space="preserve">
<g id="background_แค่แถวบน">
</g>
<g id="Layer_1_1_">
	<path fill="#C19E6C" d="M382.511,88.366h106.25c3.365,0,6.251-2.591,6.446-5.971c0.217-3.763-2.842-7.917-17.396-7.917h-82.194
		c-0.162,0-0.324-0.004-0.486-0.018c-0.988-0.081-5.392-0.273-5.392,2.665c0,0-0.313,1.898,4.909,1.36
		c0.232-0.026,0.468-0.041,0.7-0.041h47.958c0,0,3.288-0.332,3.288,2.974c0,2.79-2.573,2.753-3.376,2.676
		c-0.192-0.018-0.383-0.029-0.571-0.029h-58.992c-0.24,0-0.479-0.011-0.719-0.041c-0.645-0.081-2.392-0.07-2.392,2.355
		C380.539,88.366,382.511,88.366,382.511,88.366z"/>
	<path fill="#C19E6C" d="M311.533,33.615h-10.618h-5.499h-2.65c-1.839,0-3.347-1.235-3.347-2.742c0-1.507,1.507-2.742,3.347-2.742
		h2.764h5.381h5.672c1.441,0,2.617-0.966,2.617-2.145s-1.179-2.145-2.617-2.145h-73.02c-1.441,0-2.617,0.966-2.617,2.145
		s1.179,2.145,2.617,2.145h13.53h5.963h2.182c1.839,0,3.347,1.235,3.347,2.742c0,1.507-1.507,2.742-3.347,2.742h-2.068h-6.081
		h-21.966c-1.6,0-2.908,1.073-2.908,2.385s1.308,2.385,2.908,2.385h86.41c1.6,0,2.908-1.073,2.908-2.385
		C314.444,34.688,313.136,33.615,311.533,33.615z"/>
	<path fill="#C19E6C" d="M60.234,87.529H45.857c-1.017,0-1.847-0.833-1.847-1.847V84.75c0-1.017,0.833-1.847,1.847-1.847h14.378
		c1.017,0,1.847,0.833,1.847,1.847v0.932C62.081,86.696,61.248,87.529,60.234,87.529z"/>
	<path fill="#C19E6C" d="M445.141,50.337h-19.637c-1.017,0-1.847-0.833-1.847-1.847v-0.932c0-1.017,0.833-1.847,1.847-1.847h19.637
		c1.017,0,1.847,0.833,1.847,1.847v0.932C446.991,49.508,446.158,50.337,445.141,50.337z"/>
</g>
<g id="text">
</g>
<g id="ปุ่มซ้ายขวา" display="none">
</g>
<g id="ชื่อประเทศ" display="none">
</g>
<g id="Layer_5">
</g>
<g id="รถในหลวง" display="none">
</g>
<g id="Layer_6">
</g>
<g id="Layer_1_2_">
	<linearGradient id="SVGID_1_" gradientUnits="userSpaceOnUse" x1="518.3634" y1="38.385" x2="518.3634" y2="42.979">
		<stop  offset="1.385881e-007" style="stop-color:#A96928"/>
		<stop  offset="1" style="stop-color:#FECA80"/>
		<stop  offset="1" style="stop-color:#D997B1"/>
		<stop  offset="1" style="stop-color:#E192AB"/>
	</linearGradient>
	<path fill="url(#SVGID_1_)" d="M528.116,42.979H508.61c-1.01,0-1.834-0.827-1.834-1.834v-0.926c0-1.01,0.827-1.834,1.834-1.834
		h19.506c1.01,0,1.834,0.827,1.834,1.834v0.926C529.95,42.152,529.127,42.979,528.116,42.979z"/>
	<linearGradient id="SVGID_2_" gradientUnits="userSpaceOnUse" x1="644.4034" y1="59.015" x2="644.4034" y2="63.609">
		<stop  offset="1.385881e-007" style="stop-color:#A96928"/>
		<stop  offset="1" style="stop-color:#FECA80"/>
		<stop  offset="1" style="stop-color:#D997B1"/>
		<stop  offset="1" style="stop-color:#E192AB"/>
	</linearGradient>
	<path fill="url(#SVGID_2_)" d="M654.156,63.609H634.65c-1.01,0-1.834-0.827-1.834-1.834v-0.926c0-1.01,0.827-1.834,1.834-1.834
		h19.506c1.01,0,1.834,0.827,1.834,1.834v0.926C655.99,62.782,655.163,63.609,654.156,63.609z"/>
	<linearGradient id="SVGID_3_" gradientUnits="userSpaceOnUse" x1="196.9387" y1="80.6045" x2="196.9387" y2="94.4535">
		<stop  offset="1.385881e-007" style="stop-color:#A96928"/>
		<stop  offset="1" style="stop-color:#FECA80"/>
		<stop  offset="1" style="stop-color:#D997B1"/>
		<stop  offset="1" style="stop-color:#E192AB"/>
	</linearGradient>
	<path fill="url(#SVGID_3_)" d="M251.939,94.453H146.398c-3.343,0-6.209-2.574-6.403-5.931c-0.216-3.738,2.823-7.864,17.28-7.864
		h81.645c0.161,0,0.322-0.004,0.483-0.018c0.981-0.081,5.356-0.271,5.356,2.647c0,0,0.311,1.885-4.877,1.351
		c-0.231-0.026-0.465-0.04-0.696-0.04h-22.175c0,0-3.266-0.329-3.266,2.954c0,2.771,2.555,2.735,3.354,2.658
		c0.19-0.018,0.381-0.029,0.567-0.029h33.136c0.238,0,0.476-0.011,0.714-0.04c0.641-0.081,2.376-0.07,2.376,2.339
		C253.898,94.453,251.939,94.453,251.939,94.453z"/>
</g>
<g id="Layer_6_1_">
</g>
</svg>
