<svg xmlns="http://www.w3.org/2000/svg" viewBox="0 0 439.76 321.02"><defs><style>.cls-1{fill:#c3973f;}.cls-2{fill:#a09181;}.cls-3{fill:#6f5447;}.cls-4{fill:#a6613f;}.cls-5{fill:#f6e2d6;}.cls-6{fill:#ddd3c7;}.cls-7{fill:#eae1d8;}.cls-8{fill:#926f59;}.cls-9{fill:#a98373;}.cls-10{fill:#fff;}.cls-11{fill:#b34830;}.cls-12{fill:#49497d;}.cls-13{fill:#a88037;}</style></defs><title>ป้ายสถานีเกษตร</title><g id="ป้ายสถานีเกษตร"><path class="cls-1" d="M101.74,227.93s-1.5-15.68,16.5-22.55,34,6.75,34,6.75-6.5-9.49,12.5-16.3,39.5-3.28,38.5,9.95c0,0-.67-11.27,24.16-7.27s19.21,16.13,19.21,16.13,2.47-10.39,19.8-2.51,7.39,15.81,7.39,15.81Z"/><rect class="cls-2" x="127.39" y="117.92" width="2.73" height="24.21" transform="translate(-0.25 0.25) rotate(-0.11)"/><rect class="cls-2" x="272.93" y="117.64" width="2.73" height="24.21" transform="translate(-0.25 0.54) rotate(-0.11)"/><rect class="cls-3" x="287.21" y="41.7" width="1.59" height="40.21" transform="translate(-0.12 0.56) rotate(-0.11)"/><rect class="cls-4" x="114.56" y="141.85" width="173.92" height="41.53" rx="12.77" ry="12.77"/><path class="cls-5" d="M156.13,156.65a.72.72,0,0,1-.15.4,1.27,1.27,0,0,1-.34.29,1.54,1.54,0,0,1,.18.41,1.94,1.94,0,0,1,.06.52v3.46a.64.64,0,0,1-.06.27.67.67,0,0,1-.37.35.78.78,0,0,1-.55,0,.67.67,0,0,1-.37-.35.64.64,0,0,1-.06-.27v-2a1.77,1.77,0,0,1-.47.21l-.44.11-.49.1a2.88,2.88,0,0,0-.44.12,1,1,0,0,0-.32.17.34.34,0,0,0-.12.27.53.53,0,0,0,.08.3.6.6,0,0,0,.2.19.88.88,0,0,0,.28.1,1.55,1.55,0,0,0,.31,0h.25a.6.6,0,0,1,.22,0,.58.58,0,0,1,.19.07.49.49,0,0,1,.15.14.51.51,0,0,1,.08.2.56.56,0,0,1-.08.41.55.55,0,0,1-.14.15.51.51,0,0,1-.19.08l-.36.06-.34,0a3.44,3.44,0,0,1-.79-.09,1.87,1.87,0,0,1-.66-.29,1.42,1.42,0,0,1-.45-.52,1.71,1.71,0,0,1-.16-.79,1.59,1.59,0,0,1,.08-.53,1.28,1.28,0,0,1,.24-.41,1.51,1.51,0,0,1,.38-.31,3,3,0,0,1,.51-.23,5.74,5.74,0,0,1,.63-.18l.74-.15.41-.09a2,2,0,0,0,.35-.12.82.82,0,0,0,.25-.17.33.33,0,0,0,.09-.23.55.55,0,0,0-.08-.33.54.54,0,0,0-.22-.18,1,1,0,0,0-.31-.08l-.34,0-.34,0a1,1,0,0,0-.29.09.83.83,0,0,0-.23.17.91.91,0,0,0-.17.28.82.82,0,0,1-.15.23.72.72,0,0,1-.21.16.71.71,0,0,1-.26.07.83.83,0,0,1-.3,0,.56.56,0,0,1-.24-.14.68.68,0,0,1-.15-.23.75.75,0,0,1-.06-.27.73.73,0,0,1,.05-.28,1.78,1.78,0,0,1,.39-.61,2,2,0,0,1,.56-.4,2.68,2.68,0,0,1,.7-.21,4.76,4.76,0,0,1,1.34,0,3,3,0,0,1,.53.11l.13-.12a.62.62,0,0,0,.1-.15.7.7,0,0,1,.23-.29.61.61,0,0,1,.36-.1.64.64,0,0,1,.26.05.66.66,0,0,1,.21.14.63.63,0,0,1,.14.21A.57.57,0,0,1,156.13,156.65Z"/><path class="cls-5" d="M157,159.26a.92.92,0,0,0,0-.25.73.73,0,0,0-.14-.26l-.15-.2a.46.46,0,0,1-.07-.16.35.35,0,0,1,0-.16,1.18,1.18,0,0,1,.07-.2,2.64,2.64,0,0,1,.35-.58,2.32,2.32,0,0,1,.54-.49,2.74,2.74,0,0,1,.75-.34,3.47,3.47,0,0,1,1-.13,4,4,0,0,1,.92.09,2.76,2.76,0,0,1,.7.26,1.92,1.92,0,0,1,.51.39,2.05,2.05,0,0,1,.33.5,2.37,2.37,0,0,1,.19.57,3.19,3.19,0,0,1,.06.61v2.77a.65.65,0,0,1-.06.27.67.67,0,0,1-.15.22.71.71,0,0,1-.23.14.78.78,0,0,1-.56,0,.71.71,0,0,1-.23-.14.67.67,0,0,1-.15-.22.65.65,0,0,1-.06-.27v-2.86a1.28,1.28,0,0,0-.06-.39.91.91,0,0,0-.21-.35,1.08,1.08,0,0,0-.39-.25,1.73,1.73,0,0,0-.6-.1,1.94,1.94,0,0,0-.49,0,1.45,1.45,0,0,0-.36.14,1,1,0,0,0-.24.19.59.59,0,0,0-.13.2,1,1,0,0,1,.26.41,1.75,1.75,0,0,1,.09.57v2h.14a.49.49,0,0,1,.21,0,.53.53,0,0,1,.16.12.52.52,0,0,1,.11.17.62.62,0,0,1,0,.42.52.52,0,0,1-.11.17.53.53,0,0,1-.16.12.49.49,0,0,1-.21,0h-1a.49.49,0,0,1-.21,0,.53.53,0,0,1-.16-.12.51.51,0,0,1-.11-.17.6.6,0,0,1,0-.21Z"/><path class="cls-5" d="M165.51,158.66a1.11,1.11,0,0,0-.19-.71.66.66,0,0,0-.54-.22.68.68,0,0,0-.42.13.78.78,0,0,0-.26.4.7.7,0,0,1-.15.24.75.75,0,0,1-.23.16.73.73,0,0,1-.27.07.71.71,0,0,1-.69-.42.72.72,0,0,1-.06-.27.7.7,0,0,1,0-.28,1.86,1.86,0,0,1,.34-.55,2,2,0,0,1,.48-.4,2.26,2.26,0,0,1,.58-.24,2.48,2.48,0,0,1,.63-.08,2.89,2.89,0,0,1,.84.12,1.89,1.89,0,0,1,.68.36,1.67,1.67,0,0,1,.45.61,2.16,2.16,0,0,1,.16.88v3.25a.65.65,0,0,1-.06.27.66.66,0,0,1-.15.21.71.71,0,0,1-.23.14.77.77,0,0,1-.55,0,.71.71,0,0,1-.23-.14.66.66,0,0,1-.15-.21.65.65,0,0,1-.06-.27Z"/><path class="cls-5" d="M168,157.24A.67.67,0,0,1,168,157a.65.65,0,0,1,.15-.21.7.7,0,0,1,.22-.14.77.77,0,0,1,.55,0,.7.7,0,0,1,.22.14.65.65,0,0,1,.15.21.67.67,0,0,1,.05.27v3.08a1,1,0,0,0,.06.36.73.73,0,0,0,.18.26.76.76,0,0,0,.28.16,1.09,1.09,0,0,0,.36.06,1.59,1.59,0,0,0,.6-.1,1.16,1.16,0,0,0,.43-.29,1.2,1.2,0,0,0,.25-.44,1.75,1.75,0,0,0,.09-.56v-2.53a.65.65,0,0,1,.06-.27.66.66,0,0,1,.15-.21.72.72,0,0,1,.23-.14.77.77,0,0,1,.55,0,.7.7,0,0,1,.22.14.67.67,0,0,1,.15.21.65.65,0,0,1,.06.27v4.53a.64.64,0,0,1-.05.26.63.63,0,0,1-.14.21.64.64,0,0,1-.22.13.77.77,0,0,1-.53,0,.64.64,0,0,1-.36-.34.62.62,0,0,1-.05-.26v-.07a2.64,2.64,0,0,1-.75.54,1.94,1.94,0,0,1-.83.19,3,3,0,0,1-1-.14,1.62,1.62,0,0,1-.66-.41,1.59,1.59,0,0,1-.36-.66,3.16,3.16,0,0,1-.11-.88Z"/><path class="cls-5" d="M168.43,155.82a.49.49,0,0,1-.21,0,.48.48,0,0,1-.16-.12.53.53,0,0,1-.1-.17.61.61,0,0,1,0-.42.55.55,0,0,1,.1-.17.47.47,0,0,1,.16-.12.49.49,0,0,1,.21,0h3.25v-.3a.61.61,0,0,1,.05-.26.63.63,0,0,1,.15-.2.67.67,0,0,1,.21-.13.74.74,0,0,1,.52,0,.67.67,0,0,1,.21.13.61.61,0,0,1,.14.2.63.63,0,0,1,.05.26v.74a.63.63,0,0,1-.05.26.61.61,0,0,1-.14.2.67.67,0,0,1-.21.13.71.71,0,0,1-.26,0Z"/><path class="cls-5" d="M175.59,161.72a.66.66,0,0,1-.06.27.67.67,0,0,1-.15.22.71.71,0,0,1-.23.14.78.78,0,0,1-.56,0,.72.72,0,0,1-.23-.14.67.67,0,0,1-.15-.22.66.66,0,0,1-.06-.27v-4.47a.66.66,0,0,1,.21-.49.72.72,0,0,1,.23-.14.78.78,0,0,1,.56,0,.71.71,0,0,1,.23.14.66.66,0,0,1,.21.49Z"/><path class="cls-5" d="M180.33,158.83a1.28,1.28,0,0,0-.06-.39.91.91,0,0,0-.21-.35,1.08,1.08,0,0,0-.39-.25,1.73,1.73,0,0,0-.6-.1,1.94,1.94,0,0,0-.49,0,1.45,1.45,0,0,0-.36.14,1,1,0,0,0-.24.19.59.59,0,0,0-.13.2,1,1,0,0,1,.27.41,1.64,1.64,0,0,1,.09.57v2.42a.64.64,0,0,1-.06.27.66.66,0,0,1-.15.21.69.69,0,0,1-.23.14.79.79,0,0,1-.55,0,.69.69,0,0,1-.23-.14.66.66,0,0,1-.15-.21.64.64,0,0,1-.06-.27v-2.44a.92.92,0,0,0,0-.25.73.73,0,0,0-.14-.26l-.15-.2a.46.46,0,0,1-.07-.16.35.35,0,0,1,0-.16,1.18,1.18,0,0,1,.07-.2,2.64,2.64,0,0,1,.35-.58,2.32,2.32,0,0,1,.54-.49,2.74,2.74,0,0,1,.75-.34,3.47,3.47,0,0,1,1-.13,4,4,0,0,1,.92.09,2.76,2.76,0,0,1,.7.26,1.92,1.92,0,0,1,.51.39,2.05,2.05,0,0,1,.33.5,2.37,2.37,0,0,1,.19.57,3.19,3.19,0,0,1,.06.61v2.76a.65.65,0,0,1-.21.49.71.71,0,0,1-.23.14.78.78,0,0,1-.56,0,.71.71,0,0,1-.23-.14.65.65,0,0,1-.21-.49Z"/><path class="cls-5" d="M185.51,159.76a.65.65,0,0,1-.24,0,.62.62,0,0,1-.2-.12.55.55,0,0,1-.13-.19.57.57,0,0,1,0-.24v-.45a.57.57,0,0,1,0-.24.56.56,0,0,1,.13-.19.63.63,0,0,1,.2-.12.65.65,0,0,1,.24,0,.67.67,0,0,1,.24,0,.62.62,0,0,1,.2.12.58.58,0,0,1,.13.18.54.54,0,0,1,.05.23h.53v-1.46a.65.65,0,0,1,.06-.27.66.66,0,0,1,.15-.21.7.7,0,0,1,.23-.14.78.78,0,0,1,.55,0,.73.73,0,0,1,.23.14.67.67,0,0,1,.16.21.64.64,0,0,1,.06.27v1.46h.07a.47.47,0,0,1,.2,0,.49.49,0,0,1,.26.28.61.61,0,0,1,0,.41.49.49,0,0,1-.1.17.47.47,0,0,1-.16.11.49.49,0,0,1-.2,0h-.07V160a3.69,3.69,0,0,1-.05.62,2.49,2.49,0,0,1-.17.58,2,2,0,0,1-.32.51,1.87,1.87,0,0,1-.49.4,2.55,2.55,0,0,1-.69.26,3.94,3.94,0,0,1-.91.1,4,4,0,0,1-.93-.1,2.57,2.57,0,0,1-.69-.26,1.83,1.83,0,0,1-.49-.4,2,2,0,0,1-.31-.51,2.48,2.48,0,0,1-.17-.58,3.84,3.84,0,0,1,0-.62v-2.76a.65.65,0,0,1,.06-.27.68.68,0,0,1,.15-.21.69.69,0,0,1,.22-.14.77.77,0,0,1,.55,0,.71.71,0,0,1,.23.14.66.66,0,0,1,.15.21.65.65,0,0,1,.06.27v2.86a1.43,1.43,0,0,0,.06.41,1,1,0,0,0,.2.37,1,1,0,0,0,.38.26,1.48,1.48,0,0,0,.59.1,1.43,1.43,0,0,0,.58-.1,1,1,0,0,0,.37-.26,1,1,0,0,0,.19-.37,1.52,1.52,0,0,0,.06-.41v-.34Z"/><path class="cls-5" d="M194.65,161.7a.65.65,0,0,1-.06.27.66.66,0,0,1-.15.21.71.71,0,0,1-.23.14.77.77,0,0,1-.55,0,.69.69,0,0,1-.22-.14.67.67,0,0,1-.15-.21.65.65,0,0,1-.06-.27v-3a1.18,1.18,0,0,0,0-.23,1.11,1.11,0,0,0-.2-.45.93.93,0,0,0-.18-.19l-.6.39a.69.69,0,0,1-.29.09.57.57,0,0,1-.32-.09l-.61-.41a1,1,0,0,0-.19.19,1.11,1.11,0,0,0-.21.46,1.23,1.23,0,0,0,0,.24v1.82l.8-.78h-.1a.42.42,0,0,1-.17,0,.44.44,0,0,1-.14-.09.44.44,0,0,1-.13-.31.44.44,0,0,1,.26-.4.42.42,0,0,1,.17,0h1.18a.5.5,0,0,1,.2,0,.54.54,0,0,1,.16.11.48.48,0,0,1,.11.16.49.49,0,0,1,0,.2.71.71,0,0,1,0,.19.45.45,0,0,1-.11.18l-2.31,2.41a.79.79,0,0,1-.25.18.76.76,0,0,1-.32.07.92.92,0,0,1-.31-.05.75.75,0,0,1-.25-.15.68.68,0,0,1-.17-.23.7.7,0,0,1-.06-.3v-2.85a3,3,0,0,1,.07-.67,2.29,2.29,0,0,1,.23-.62,2.09,2.09,0,0,1,.42-.53,2.16,2.16,0,0,1,.64-.39l.15-.05.19,0h.22a.6.6,0,0,1,.22.09l.62.41.65-.41a.58.58,0,0,1,.2-.08H193l.17,0,.13,0a2.18,2.18,0,0,1,.64.39,2.07,2.07,0,0,1,.43.53,2.27,2.27,0,0,1,.24.62,3.06,3.06,0,0,1,.07.67Z"/><path class="cls-5" d="M199.79,157.78a.68.68,0,0,1,0,.27.68.68,0,0,1-.24.46.7.7,0,0,1-.51.17.67.67,0,0,1-.25-.07.74.74,0,0,1-.21-.16.65.65,0,0,1-.14-.24.8.8,0,0,0-.12-.23.69.69,0,0,0-.38-.25l-.23,0-.24,0a.84.84,0,0,0-.22.08.47.47,0,0,0-.16.14.33.33,0,0,0-.06.2.28.28,0,0,0,.06.17.66.66,0,0,0,.18.16,2.13,2.13,0,0,0,.32.16l.48.18a7,7,0,0,1,1,.42,2.56,2.56,0,0,1,.6.43,1.26,1.26,0,0,1,.3.47,1.61,1.61,0,0,1,.09.53,1.81,1.81,0,0,1-.18.84,1.48,1.48,0,0,1-.48.55,2,2,0,0,1-.73.3,4.18,4.18,0,0,1-.9.09,3.21,3.21,0,0,1-.72-.08,2.22,2.22,0,0,1-.62-.24,1.88,1.88,0,0,1-.5-.42,2,2,0,0,1-.34-.61.67.67,0,0,1,0-.28.7.7,0,0,1,.23-.48.66.66,0,0,1,.24-.14.78.78,0,0,1,.29,0,.65.65,0,0,1,.25.07.66.66,0,0,1,.2.16.8.8,0,0,1,.14.24.86.86,0,0,0,.34.48,1.05,1.05,0,0,0,.59.16l.27,0a.87.87,0,0,0,.26-.09.56.56,0,0,0,.19-.17.48.48,0,0,0,.08-.28.37.37,0,0,0-.06-.22.69.69,0,0,0-.2-.18,2.2,2.2,0,0,0-.33-.17l-.47-.19-.77-.31a3.1,3.1,0,0,1-.62-.36,1.52,1.52,0,0,1-.42-.46,1.26,1.26,0,0,1-.15-.64,1.64,1.64,0,0,1,.08-.54,1.37,1.37,0,0,1,.23-.42,1.5,1.5,0,0,1,.34-.31,2,2,0,0,1,.43-.21,2.55,2.55,0,0,1,.48-.12,3.31,3.31,0,0,1,.5,0,3.74,3.74,0,0,1,.72.07,2.17,2.17,0,0,1,.61.21,1.62,1.62,0,0,1,.48.39A1.82,1.82,0,0,1,199.79,157.78Z"/><path class="cls-5" d="M205.85,161.73a.65.65,0,0,1-.21.48.7.7,0,0,1-.23.14.77.77,0,0,1-.55,0,.71.71,0,0,1-.23-.14.67.67,0,0,1-.15-.21.65.65,0,0,1-.06-.27v-2.11a2.17,2.17,0,0,0,0-.26,1,1,0,0,0-.06-.23.62.62,0,0,0-.11-.18.5.5,0,0,0-.17-.13L202.3,160v1.76a.65.65,0,0,1-.06.27.66.66,0,0,1-.15.21.7.7,0,0,1-.23.14.77.77,0,0,1-.55,0,.67.67,0,0,1-.38-.35.65.65,0,0,1-.06-.27v-4.49a.65.65,0,0,1,.06-.27.68.68,0,0,1,.15-.21.69.69,0,0,1,.22-.14.77.77,0,0,1,.55,0,.71.71,0,0,1,.23.14.66.66,0,0,1,.15.21.65.65,0,0,1,.06.27v1.1l2.64-1.67a.64.64,0,0,1,.25-.1.67.67,0,0,1,.26,0,.66.66,0,0,1,.23.1.67.67,0,0,1,.18.19.66.66,0,0,1,0,.73.67.67,0,0,1-.19.18l-.42.27a1.26,1.26,0,0,1,.29.3,1.58,1.58,0,0,1,.19.38,2.23,2.23,0,0,1,.1.45,4.34,4.34,0,0,1,0,.52Z"/><path class="cls-5" d="M210.4,159.72a1.77,1.77,0,0,1-.47.21l-.44.11-.49.1a2.89,2.89,0,0,0-.44.12,1,1,0,0,0-.32.17.34.34,0,0,0-.12.27.53.53,0,0,0,.08.3.6.6,0,0,0,.2.19.88.88,0,0,0,.28.1,1.56,1.56,0,0,0,.31,0h.25a.6.6,0,0,1,.22,0,.58.58,0,0,1,.19.07.48.48,0,0,1,.15.14.51.51,0,0,1,.08.2.56.56,0,0,1-.08.41.54.54,0,0,1-.14.15.51.51,0,0,1-.19.08l-.36.06-.34,0a3.44,3.44,0,0,1-.79-.09,1.87,1.87,0,0,1-.66-.29,1.42,1.42,0,0,1-.45-.52,1.7,1.7,0,0,1-.17-.79,1.57,1.57,0,0,1,.08-.53,1.29,1.29,0,0,1,.24-.41,1.52,1.52,0,0,1,.38-.31,3,3,0,0,1,.51-.23,5.73,5.73,0,0,1,.63-.18l.74-.15.41-.09a2,2,0,0,0,.35-.12.82.82,0,0,0,.25-.17.32.32,0,0,0,.09-.23.55.55,0,0,0-.08-.33.53.53,0,0,0-.22-.18,1,1,0,0,0-.31-.08l-.35,0-.34,0a1,1,0,0,0-.29.09.83.83,0,0,0-.23.17.9.9,0,0,0-.17.28.83.83,0,0,1-.15.23.72.72,0,0,1-.21.16.71.71,0,0,1-.26.07.82.82,0,0,1-.3,0,.56.56,0,0,1-.24-.14.67.67,0,0,1-.15-.23.75.75,0,0,1-.06-.27.72.72,0,0,1,.05-.28,1.78,1.78,0,0,1,.39-.61,1.94,1.94,0,0,1,.56-.4,2.69,2.69,0,0,1,.7-.21,4.77,4.77,0,0,1,1.34,0,3,3,0,0,1,.53.11,2.23,2.23,0,0,1,.48.21,1.49,1.49,0,0,1,.39.33,1.47,1.47,0,0,1,.26.47,1.87,1.87,0,0,1,.1.62v3.46a.63.63,0,0,1-.06.27.67.67,0,0,1-.37.35.78.78,0,0,1-.55,0,.67.67,0,0,1-.22-.14.68.68,0,0,1-.15-.21.63.63,0,0,1-.06-.27Z"/><path class="cls-5" d="M215,162.46a2.55,2.55,0,0,1-.73-.1,2.13,2.13,0,0,1-.6-.28,2,2,0,0,1-.47-.44,2.37,2.37,0,0,1-.32-.57.65.65,0,0,1,0-.28.73.73,0,0,1,.06-.26.7.7,0,0,1,.16-.22.68.68,0,0,1,.24-.15.69.69,0,0,1,.54,0,.72.72,0,0,1,.22.16.68.68,0,0,1,.14.24,1.11,1.11,0,0,0,.14.29.88.88,0,0,0,.19.2.77.77,0,0,0,.22.12.77.77,0,0,0,.25,0,.82.82,0,0,0,.74-.42,1.73,1.73,0,0,0,.2-.55,4.58,4.58,0,0,0,0-1.57,1.8,1.8,0,0,0-.2-.55.86.86,0,0,0-.32-.32.84.84,0,0,0-.42-.11.76.76,0,0,0-.25,0,.79.79,0,0,0-.22.12.85.85,0,0,0-.19.2,1.14,1.14,0,0,0-.14.29.68.68,0,0,1-.14.24.71.71,0,0,1-.22.16.69.69,0,0,1-.26.07.68.68,0,0,1-.28,0,.69.69,0,0,1-.24-.15.73.73,0,0,1-.16-.22.71.71,0,0,1-.06-.26.65.65,0,0,1,0-.28,2.25,2.25,0,0,1,.33-.57,2.06,2.06,0,0,1,.48-.44,2.25,2.25,0,0,1,.6-.28,2.46,2.46,0,0,1,.71-.1,2.61,2.61,0,0,1,1.1.22,2.05,2.05,0,0,1,.77.61,2.61,2.61,0,0,1,.45.94,5.13,5.13,0,0,1,0,2.45,2.59,2.59,0,0,1-.45.94,2,2,0,0,1-.77.6A2.64,2.64,0,0,1,215,162.46Z"/><path class="cls-5" d="M221.89,161a1.72,1.72,0,0,1-.12.68,1.25,1.25,0,0,1-.33.47,1.36,1.36,0,0,1-.5.27,2.13,2.13,0,0,1-.62.09,1.93,1.93,0,0,1-.58-.08,1.3,1.3,0,0,1-.43-.22,1.35,1.35,0,0,1-.31-.35,2.61,2.61,0,0,1-.22-.47l-.64-1.76a.62.62,0,0,1,0-.26.62.62,0,0,1,.07-.24.69.69,0,0,1,.16-.2.72.72,0,0,1,.24-.14.71.71,0,0,1,.27,0,.67.67,0,0,1,.25.05.66.66,0,0,1,.21.14.6.6,0,0,1,.14.23l.71,2a.26.26,0,0,0,.07.12.17.17,0,0,0,.11,0,.13.13,0,0,0,.1,0,.14.14,0,0,0,0-.1v-3.35h-.29a.52.52,0,0,1-.39-.17.58.58,0,0,1-.11-.18.64.64,0,0,1,0-.45.57.57,0,0,1,.11-.18.52.52,0,0,1,.39-.17h1.17a.52.52,0,0,1,.22,0,.53.53,0,0,1,.17.12.58.58,0,0,1,.11.18.62.62,0,0,1,0,.22Z"/><path class="cls-5" d="M224.9,159.09a.52.52,0,0,1,.22,0,.53.53,0,0,1,.17.12.59.59,0,0,1,.11.18.64.64,0,0,1,0,.45.59.59,0,0,1-.11.18.53.53,0,0,1-.17.12.52.52,0,0,1-.22,0h-.66a1.59,1.59,0,0,0,.16.4,1.28,1.28,0,0,0,.25.31,1.06,1.06,0,0,0,.72.27,1,1,0,0,0,.88-.46,1.67,1.67,0,0,0,.24-.55,3,3,0,0,0,.08-.74,2.36,2.36,0,0,0-.3-1.3,1,1,0,0,0-.91-.45,1.49,1.49,0,0,0-.33,0,1.55,1.55,0,0,0-.32.11,1.2,1.2,0,0,0-.27.17.87.87,0,0,0-.2.24,1.05,1.05,0,0,1-.17.23.81.81,0,0,1-.21.16.65.65,0,0,1-.25.07.81.81,0,0,1-.29,0,.59.59,0,0,1-.25-.14.69.69,0,0,1-.22-.5.57.57,0,0,1,.07-.28,2.11,2.11,0,0,1,.4-.55,2.35,2.35,0,0,1,.56-.41,2.85,2.85,0,0,1,.69-.26,3.43,3.43,0,0,1,.8-.09,3,3,0,0,1,1.24.23,2.16,2.16,0,0,1,.82.64,2.56,2.56,0,0,1,.46,1,4.74,4.74,0,0,1,.14,1.18,4.65,4.65,0,0,1-.06.77,3.27,3.27,0,0,1-.2.7,2.64,2.64,0,0,1-.35.6,2.15,2.15,0,0,1-.5.47,2.33,2.33,0,0,1-.68.31,3.13,3.13,0,0,1-.86.11,3.23,3.23,0,0,1-.84-.1,2.35,2.35,0,0,1-.66-.28,2,2,0,0,1-.49-.44,2.53,2.53,0,0,1-.35-.57,3.07,3.07,0,0,1-.21-.66,4.6,4.6,0,0,1-.08-.74.61.61,0,0,1,0-.22.58.58,0,0,1,.11-.18.53.53,0,0,1,.17-.12.52.52,0,0,1,.22,0Z"/><path class="cls-5" d="M227.79,155.27a.62.62,0,0,1-.05.26.65.65,0,0,1-.15.21.64.64,0,0,1-.22.13.75.75,0,0,1-.53,0,.66.66,0,0,1-.22-.13.63.63,0,0,1-.15-.21.62.62,0,0,1-.05-.26v-1a.62.62,0,0,1,.05-.26.63.63,0,0,1,.15-.21.66.66,0,0,1,.22-.13.75.75,0,0,1,.53,0,.64.64,0,0,1,.22.13.65.65,0,0,1,.15.21.62.62,0,0,1,.05.26Z"/><path class="cls-5" d="M231.3,158.66a1.11,1.11,0,0,0-.18-.71.66.66,0,0,0-.54-.22.68.68,0,0,0-.42.13.78.78,0,0,0-.26.4.7.7,0,0,1-.15.24.75.75,0,0,1-.23.16.74.74,0,0,1-.27.07.71.71,0,0,1-.53-.19.7.7,0,0,1-.22-.49.7.7,0,0,1,0-.28,1.86,1.86,0,0,1,.34-.55,2,2,0,0,1,.48-.4,2.26,2.26,0,0,1,.58-.24,2.49,2.49,0,0,1,.63-.08,2.89,2.89,0,0,1,.84.12,1.9,1.9,0,0,1,.68.36,1.68,1.68,0,0,1,.45.61,2.16,2.16,0,0,1,.16.88v3.25a.65.65,0,0,1-.21.48.7.7,0,0,1-.23.14.77.77,0,0,1-.55,0,.7.7,0,0,1-.23-.14.65.65,0,0,1-.21-.48Z"/><path class="cls-5" d="M237.35,161a1.72,1.72,0,0,1-.12.68,1.25,1.25,0,0,1-.33.47,1.36,1.36,0,0,1-.5.27,2.13,2.13,0,0,1-.62.09,1.93,1.93,0,0,1-.58-.08,1.3,1.3,0,0,1-.43-.22,1.35,1.35,0,0,1-.31-.35,2.61,2.61,0,0,1-.22-.47l-.64-1.76a.62.62,0,0,1,0-.26.62.62,0,0,1,.07-.24.69.69,0,0,1,.16-.2.72.72,0,0,1,.24-.14.71.71,0,0,1,.27,0,.67.67,0,0,1,.25.05.66.66,0,0,1,.21.14.6.6,0,0,1,.14.23l.71,2a.26.26,0,0,0,.07.12.17.17,0,0,0,.11,0,.13.13,0,0,0,.1,0,.14.14,0,0,0,0-.1v-3.35h-.29a.52.52,0,0,1-.39-.17.58.58,0,0,1-.11-.18.64.64,0,0,1,0-.45.57.57,0,0,1,.11-.18.52.52,0,0,1,.39-.17h1.17a.52.52,0,0,1,.22,0,.53.53,0,0,1,.17.12.58.58,0,0,1,.11.18.62.62,0,0,1,0,.22Z"/><path class="cls-5" d="M240.71,160.07l.67-3a.63.63,0,0,1,.11-.25.71.71,0,0,1,.2-.18.75.75,0,0,1,.25-.1.81.81,0,0,1,.29,0,.71.71,0,0,1,.27.1.67.67,0,0,1,.2.19.66.66,0,0,1,.1.25.64.64,0,0,1,0,.28l-1.06,4a2,2,0,0,1-.14.41,1.26,1.26,0,0,1-.22.32.93.93,0,0,1-.3.22.9.9,0,0,1-.38.08.86.86,0,0,1-.37-.08,1,1,0,0,1-.3-.22,1.36,1.36,0,0,1-.22-.33,2,2,0,0,1-.14-.4l-1-3.6h-.2A.57.57,0,0,1,238,157a.57.57,0,0,1,.3-.3.56.56,0,0,1,.22,0h1a.49.49,0,0,1,.21,0,.53.53,0,0,1,.16.12.66.66,0,0,1,.12.18,1.13,1.13,0,0,1,.07.23Z"/><path class="cls-5" d="M246.07,158.66a1.11,1.11,0,0,0-.18-.71.66.66,0,0,0-.54-.22.68.68,0,0,0-.42.13.78.78,0,0,0-.26.4.7.7,0,0,1-.15.24.75.75,0,0,1-.23.16.74.74,0,0,1-.27.07.71.71,0,0,1-.53-.19.7.7,0,0,1-.22-.49.7.7,0,0,1,0-.28,1.86,1.86,0,0,1,.34-.55,2,2,0,0,1,.48-.4,2.26,2.26,0,0,1,.58-.24,2.49,2.49,0,0,1,.63-.08,2.89,2.89,0,0,1,.84.12,1.9,1.9,0,0,1,.68.36,1.68,1.68,0,0,1,.45.61,2.16,2.16,0,0,1,.16.88v3.25a.65.65,0,0,1-.21.48.7.7,0,0,1-.23.14.77.77,0,0,1-.55,0,.7.7,0,0,1-.23-.14.65.65,0,0,1-.21-.48Z"/><path class="cls-5" d="M252.12,161a1.72,1.72,0,0,1-.12.68,1.25,1.25,0,0,1-.33.47,1.36,1.36,0,0,1-.5.27,2.13,2.13,0,0,1-.62.09,1.93,1.93,0,0,1-.58-.08,1.3,1.3,0,0,1-.43-.22,1.35,1.35,0,0,1-.31-.35,2.61,2.61,0,0,1-.22-.47l-.64-1.76a.62.62,0,0,1,0-.26.62.62,0,0,1,.07-.24.69.69,0,0,1,.16-.2.72.72,0,0,1,.24-.14.71.71,0,0,1,.27,0,.67.67,0,0,1,.25.05.66.66,0,0,1,.21.14.6.6,0,0,1,.14.23l.71,2a.26.26,0,0,0,.07.12.17.17,0,0,0,.11,0,.13.13,0,0,0,.1,0,.14.14,0,0,0,0-.1v-3.35h-.29a.52.52,0,0,1-.39-.17.58.58,0,0,1-.11-.18.64.64,0,0,1,0-.45.57.57,0,0,1,.11-.18.52.52,0,0,1,.39-.17h1.17a.52.52,0,0,1,.22,0,.53.53,0,0,1,.17.12.58.58,0,0,1,.11.18.62.62,0,0,1,0,.22Z"/><path class="cls-5" d="M118.7,166.7a1,1,0,0,1,.05-.34.56.56,0,0,1,.14-.22.53.53,0,0,1,.22-.12,1.07,1.07,0,0,1,.29,0h2a2.82,2.82,0,0,1,.63.06,1.89,1.89,0,0,1,.47.17,1.29,1.29,0,0,1,.56.57,1.37,1.37,0,0,1,.12.35,1.89,1.89,0,0,1,0,.35,1.55,1.55,0,0,1-.06.43,1.42,1.42,0,0,1-.18.39,1.22,1.22,0,0,1-.29.3,1,1,0,0,1-.38.18v0a.81.81,0,0,1,.38.15.79.79,0,0,1,.23.28,1.23,1.23,0,0,1,.11.39,3,3,0,0,1,0,.46,1.67,1.67,0,0,0,0,.31c0,.09,0,.18.05.25l.05.21a.73.73,0,0,1,0,.18.41.41,0,0,1,0,.2.49.49,0,0,1-.13.15.63.63,0,0,1-.39.13.71.71,0,0,1-.28,0,.6.6,0,0,1-.32-.31,1.18,1.18,0,0,1-.07-.2,1.12,1.12,0,0,1,0-.18c0-.06,0-.1,0-.14a4.27,4.27,0,0,0,0-.61,1.16,1.16,0,0,0-.13-.41.57.57,0,0,0-.25-.24,1,1,0,0,0-.41-.08H119.9v1.59a.73.73,0,0,1,0,.25.55.55,0,0,1-.12.19.54.54,0,0,1-.19.13.65.65,0,0,1-.25,0,.67.67,0,0,1-.25,0,.55.55,0,0,1-.19-.13.56.56,0,0,1-.12-.19.71.71,0,0,1,0-.25Zm1.2,1.69h1.21a1.88,1.88,0,0,0,.33,0,.81.81,0,0,0,.29-.11.59.59,0,0,0,.21-.22.78.78,0,0,0,.08-.37.9.9,0,0,0-.06-.36.52.52,0,0,0-.18-.22.71.71,0,0,0-.28-.12,1.78,1.78,0,0,0-.36,0H119.9Z"/><path class="cls-5" d="M123.74,168.71a3.53,3.53,0,0,1,.08-.73,3.09,3.09,0,0,1,.22-.68,2.64,2.64,0,0,1,.38-.58,2.36,2.36,0,0,1,.53-.46,2.54,2.54,0,0,1,.68-.3,3,3,0,0,1,.83-.11,3.06,3.06,0,0,1,.84.11,2.54,2.54,0,0,1,.68.3,2.41,2.41,0,0,1,.53.46,2.66,2.66,0,0,1,.38.58,3,3,0,0,1,.23.68,3.53,3.53,0,0,1,.08.73,3.49,3.49,0,0,1-.08.73,2.93,2.93,0,0,1-.23.67,2.66,2.66,0,0,1-.38.58,2.34,2.34,0,0,1-.53.46,2.6,2.6,0,0,1-.68.3,3.1,3.1,0,0,1-.84.11,3,3,0,0,1-.83-.11,2.6,2.6,0,0,1-.68-.3,2.3,2.3,0,0,1-.53-.46,2.64,2.64,0,0,1-.38-.58,3,3,0,0,1-.22-.67A3.49,3.49,0,0,1,123.74,168.71Zm1.19,0a2.7,2.7,0,0,0,0,.45,2.06,2.06,0,0,0,.12.42,1.77,1.77,0,0,0,.2.37,1.34,1.34,0,0,0,.29.3,1.35,1.35,0,0,0,.39.2,1.56,1.56,0,0,0,.49.07,1.61,1.61,0,0,0,.5-.07,1.38,1.38,0,0,0,.4-.2,1.33,1.33,0,0,0,.3-.3,1.74,1.74,0,0,0,.2-.37,2.08,2.08,0,0,0,.12-.42,2.73,2.73,0,0,0,0-.45,2.76,2.76,0,0,0,0-.45,2.1,2.1,0,0,0-.12-.43,1.79,1.79,0,0,0-.2-.38,1.34,1.34,0,0,0-.3-.3,1.36,1.36,0,0,0-.4-.2,1.62,1.62,0,0,0-.5-.07,1.56,1.56,0,0,0-.49.07,1.33,1.33,0,0,0-.39.2,1.34,1.34,0,0,0-.29.3,1.83,1.83,0,0,0-.2.38,2.09,2.09,0,0,0-.12.43A2.73,2.73,0,0,0,124.93,168.71Z"/><path class="cls-5" d="M131,169.26l-1.54-2.47a.61.61,0,0,1-.1-.31.53.53,0,0,1,.07-.28.55.55,0,0,1,.21-.21.64.64,0,0,1,.33-.08l.19,0,.15.07a.5.5,0,0,1,.12.11l.1.15,1.11,1.95,1.11-1.95a1.12,1.12,0,0,1,.11-.17A.49.49,0,0,1,133,166l.14-.06.17,0a.63.63,0,0,1,.31.08.53.53,0,0,1,.28.48.62.62,0,0,1-.1.32l-1.54,2.47v1.65a.69.69,0,0,1,0,.25.54.54,0,0,1-.12.19.56.56,0,0,1-.19.12.7.7,0,0,1-.25,0,.69.69,0,0,1-.25,0,.56.56,0,0,1-.19-.12.54.54,0,0,1-.12-.19.68.68,0,0,1,0-.25Z"/><path class="cls-5" d="M135.43,166.34a.53.53,0,0,1,.23-.29A.76.76,0,0,1,136,166h.29l.2,0a.55.55,0,0,1,.18.06.56.56,0,0,1,.16.13.73.73,0,0,1,.12.23l1.49,4.08,0,.11,0,.12,0,.13a.58.58,0,0,1,0,.11.49.49,0,0,1,0,.21.53.53,0,0,1-.12.17.58.58,0,0,1-.19.11.6.6,0,0,1-.22,0,.71.71,0,0,1-.34-.08.48.48,0,0,1-.21-.26l-.31-.89h-2l-.32.89a.45.45,0,0,1-.2.26.71.71,0,0,1-.35.08.7.7,0,0,1-.23,0,.51.51,0,0,1-.18-.11.48.48,0,0,1-.12-.17.57.57,0,0,1,0-.22.58.58,0,0,1,0-.11l0-.13,0-.12,0-.11Zm.74.95h0l-.73,2.14h1.44Z"/><path class="cls-5" d="M139.36,166.52a.71.71,0,0,1,0-.25.53.53,0,0,1,.12-.19.55.55,0,0,1,.19-.12.74.74,0,0,1,.5,0,.53.53,0,0,1,.19.12.54.54,0,0,1,.12.19.71.71,0,0,1,0,.25v3.91h2a.87.87,0,0,1,.25,0,.6.6,0,0,1,.2.1.47.47,0,0,1,.13.16.52.52,0,0,1,0,.44.47.47,0,0,1-.13.16.61.61,0,0,1-.2.1.89.89,0,0,1-.25,0h-2.5a1.12,1.12,0,0,1-.29,0,.55.55,0,0,1-.22-.12.54.54,0,0,1-.14-.22,1,1,0,0,1-.05-.34Z"/><path class="cls-5" d="M147.09,166.34a.53.53,0,0,1,.23-.29.76.76,0,0,1,.37-.08H148l.2,0a.55.55,0,0,1,.18.06.56.56,0,0,1,.16.13.73.73,0,0,1,.12.23l1.49,4.08,0,.11,0,.12,0,.13a.58.58,0,0,1,0,.11.49.49,0,0,1,0,.21.53.53,0,0,1-.12.17.58.58,0,0,1-.19.11.6.6,0,0,1-.22,0,.71.71,0,0,1-.34-.08.48.48,0,0,1-.21-.26l-.31-.89h-2l-.32.89a.45.45,0,0,1-.2.26.71.71,0,0,1-.35.08.7.7,0,0,1-.23,0,.51.51,0,0,1-.18-.11.48.48,0,0,1-.12-.17.57.57,0,0,1,0-.22.58.58,0,0,1,0-.11l0-.13,0-.12,0-.11Zm.74.95h0l-.73,2.14h1.44Z"/><path class="cls-5" d="M155.73,171.11a.43.43,0,0,1,0,.16.42.42,0,0,1-.09.13.4.4,0,0,1-.13.09.41.41,0,0,1-.17,0,.49.49,0,0,1-.22,0,.36.36,0,0,1-.14-.13.71.71,0,0,1-.09-.22,3.1,3.1,0,0,1-.06-.31,2.17,2.17,0,0,1-.29.3,1.7,1.7,0,0,1-.35.23,1.87,1.87,0,0,1-.42.15,2.34,2.34,0,0,1-.51.05,3.11,3.11,0,0,1-.84-.11,2.37,2.37,0,0,1-.66-.29,2,2,0,0,1-.49-.45,2.5,2.5,0,0,1-.34-.58,3.16,3.16,0,0,1-.19-.68,4.39,4.39,0,0,1-.06-.74,3.46,3.46,0,0,1,.2-1.22,2.49,2.49,0,0,1,.57-.9,2.39,2.39,0,0,1,.87-.55,3.24,3.24,0,0,1,1.13-.19,2.84,2.84,0,0,1,.62.06,2.54,2.54,0,0,1,.51.17,2.09,2.09,0,0,1,.4.24,1.73,1.73,0,0,1,.29.28,1.2,1.2,0,0,1,.18.29.7.7,0,0,1,.06.26.61.61,0,0,1-.05.27.46.46,0,0,1-.13.17.49.49,0,0,1-.18.09l-.2,0a.44.44,0,0,1-.19,0,.51.51,0,0,1-.14-.1l-.12-.14-.12-.16-.14-.16a.83.83,0,0,0-.2-.14,1.18,1.18,0,0,0-.28-.1,1.72,1.72,0,0,0-.38,0,1.55,1.55,0,0,0-.59.11,1.22,1.22,0,0,0-.47.34,1.68,1.68,0,0,0-.32.6,3,3,0,0,0-.11.88,2.63,2.63,0,0,0,.1.73,1.61,1.61,0,0,0,.29.57,1.27,1.27,0,0,0,.47.36,1.56,1.56,0,0,0,.65.13,1.43,1.43,0,0,0,.51-.09,1.13,1.13,0,0,0,.39-.24,1.12,1.12,0,0,0,.26-.37,1.33,1.33,0,0,0,.1-.49h-.79l-.19,0a.48.48,0,0,1-.18-.08.43.43,0,0,1-.13-.15.49.49,0,0,1,0-.23.5.5,0,0,1,.12-.36.46.46,0,0,1,.35-.13h1.49a.48.48,0,0,1,.38.13.59.59,0,0,1,.11.39Z"/><path class="cls-5" d="M156.79,166.7a1,1,0,0,1,.05-.34.56.56,0,0,1,.14-.22.53.53,0,0,1,.22-.12,1.07,1.07,0,0,1,.29,0h2a2.82,2.82,0,0,1,.63.06,1.89,1.89,0,0,1,.47.17,1.29,1.29,0,0,1,.56.57,1.37,1.37,0,0,1,.12.35,1.89,1.89,0,0,1,0,.35,1.55,1.55,0,0,1-.06.43,1.42,1.42,0,0,1-.18.39,1.22,1.22,0,0,1-.29.3,1,1,0,0,1-.38.18v0a.81.81,0,0,1,.38.15.79.79,0,0,1,.23.28,1.23,1.23,0,0,1,.11.39,3,3,0,0,1,0,.46,1.67,1.67,0,0,0,0,.31c0,.09,0,.18.05.25l.05.21a.73.73,0,0,1,0,.18.41.41,0,0,1,0,.2.49.49,0,0,1-.13.15.63.63,0,0,1-.39.13.71.71,0,0,1-.28,0,.6.6,0,0,1-.32-.31,1.18,1.18,0,0,1-.07-.2,1.12,1.12,0,0,1,0-.18c0-.06,0-.1,0-.14a4.27,4.27,0,0,0,0-.61,1.16,1.16,0,0,0-.13-.41.57.57,0,0,0-.25-.24,1,1,0,0,0-.41-.08H158v1.59a.73.73,0,0,1,0,.25.55.55,0,0,1-.12.19.54.54,0,0,1-.19.13.65.65,0,0,1-.25,0,.67.67,0,0,1-.25,0,.55.55,0,0,1-.19-.13.56.56,0,0,1-.12-.19.71.71,0,0,1,0-.25Zm1.2,1.69h1.21a1.88,1.88,0,0,0,.33,0,.81.81,0,0,0,.29-.11A.59.59,0,0,0,160,168a.78.78,0,0,0,.08-.37.9.9,0,0,0-.06-.36.52.52,0,0,0-.18-.22.71.71,0,0,0-.28-.12,1.78,1.78,0,0,0-.36,0H158Z"/><path class="cls-5" d="M163.36,170.94a.54.54,0,0,1,0,.23.55.55,0,0,1-.13.18.6.6,0,0,1-.19.12.65.65,0,0,1-.46,0,.59.59,0,0,1-.19-.12.55.55,0,0,1-.13-.18.54.54,0,0,1,0-.23v-4.46a.54.54,0,0,1,.17-.4.58.58,0,0,1,.19-.12.65.65,0,0,1,.46,0,.59.59,0,0,1,.19.12.55.55,0,0,1,.13.18.54.54,0,0,1,0,.23Z"/><path class="cls-5" d="M164.24,168.7a3.67,3.67,0,0,1,.08-.75,3,3,0,0,1,.23-.68,2.67,2.67,0,0,1,.38-.58,2.28,2.28,0,0,1,.52-.46,2.55,2.55,0,0,1,.67-.29,3,3,0,0,1,.81-.11,3,3,0,0,1,.66.07,2.76,2.76,0,0,1,.55.18,2.16,2.16,0,0,1,.43.26,1.86,1.86,0,0,1,.32.3,1.31,1.31,0,0,1,.19.32.9.9,0,0,1,.07.3.53.53,0,0,1-.14.42.56.56,0,0,1-.41.15.59.59,0,0,1-.23,0,.62.62,0,0,1-.17-.11l-.14-.16-.13-.18-.15-.18a.93.93,0,0,0-.2-.16,1,1,0,0,0-.27-.11,1.41,1.41,0,0,0-.37,0,1.31,1.31,0,0,0-.56.12,1.34,1.34,0,0,0-.47.36,1.8,1.8,0,0,0-.32.58,2.46,2.46,0,0,0-.12.79,2.94,2.94,0,0,0,.08.71,1.74,1.74,0,0,0,.26.59,1.32,1.32,0,0,0,.47.41,1.46,1.46,0,0,0,.69.15,1.05,1.05,0,0,0,.42-.07,1.17,1.17,0,0,0,.3-.19,1.47,1.47,0,0,0,.23-.25l.19-.25a1.23,1.23,0,0,1,.2-.2.42.42,0,0,1,.24-.09.61.61,0,0,1,.23,0,.53.53,0,0,1,.18.1.52.52,0,0,1,.12.15.58.58,0,0,1,.06.2.86.86,0,0,1,0,.39,1.27,1.27,0,0,1-.21.37,1.8,1.8,0,0,1-.34.32,2.38,2.38,0,0,1-.45.26,2.76,2.76,0,0,1-.53.17,2.79,2.79,0,0,1-.59.06,3.38,3.38,0,0,1-1.15-.18,2.22,2.22,0,0,1-.86-.54,2.38,2.38,0,0,1-.53-.9A3.8,3.8,0,0,1,164.24,168.7Z"/><path class="cls-5" d="M174.51,169.4a2.67,2.67,0,0,1-.15.94,1.71,1.71,0,0,1-.44.67,1.87,1.87,0,0,1-.72.4,3.23,3.23,0,0,1-1,.13,3.7,3.7,0,0,1-1-.12,1.91,1.91,0,0,1-.74-.39,1.68,1.68,0,0,1-.46-.67,2.64,2.64,0,0,1-.16-1v-2.91a.56.56,0,0,1,0-.23.53.53,0,0,1,.13-.18.59.59,0,0,1,.19-.12.65.65,0,0,1,.46,0,.59.59,0,0,1,.19.12.53.53,0,0,1,.13.18.56.56,0,0,1,0,.23v2.91a1.15,1.15,0,0,0,.3.86,1.22,1.22,0,0,0,.89.3,1.07,1.07,0,0,0,.82-.3,1.22,1.22,0,0,0,.28-.86v-2.91a.56.56,0,0,1,0-.23.53.53,0,0,1,.13-.18.59.59,0,0,1,.19-.12.65.65,0,0,1,.46,0,.59.59,0,0,1,.19.12.52.52,0,0,1,.13.18.56.56,0,0,1,0,.23Z"/><path class="cls-5" d="M175.54,166.52a.71.71,0,0,1,0-.25.53.53,0,0,1,.12-.19.55.55,0,0,1,.19-.12.74.74,0,0,1,.5,0,.53.53,0,0,1,.19.12.54.54,0,0,1,.12.19.71.71,0,0,1,0,.25v3.91h2a.87.87,0,0,1,.25,0,.6.6,0,0,1,.2.1.47.47,0,0,1,.13.16.52.52,0,0,1,0,.44.47.47,0,0,1-.13.16.61.61,0,0,1-.2.1.89.89,0,0,1-.25,0h-2.5a1.12,1.12,0,0,1-.29,0,.55.55,0,0,1-.22-.12.54.54,0,0,1-.14-.22,1,1,0,0,1-.05-.34Z"/><path class="cls-5" d="M180.47,167h-1.1a.47.47,0,0,1-.2,0,.48.48,0,0,1-.16-.11.51.51,0,0,1-.1-.17.58.58,0,0,1,0-.41.52.52,0,0,1,.1-.17.48.48,0,0,1,.35-.15h3.43a.48.48,0,0,1,.35.15.51.51,0,0,1,.1.17.57.57,0,0,1,0,.41.5.5,0,0,1-.1.17.48.48,0,0,1-.16.11.47.47,0,0,1-.2,0h-1.13v3.92a.55.55,0,0,1,0,.23.54.54,0,0,1-.13.18.58.58,0,0,1-.19.12.65.65,0,0,1-.46,0,.58.58,0,0,1-.19-.12.54.54,0,0,1-.13-.18.55.55,0,0,1,0-.23Z"/><path class="cls-5" d="M188.49,169.4a2.67,2.67,0,0,1-.15.94,1.71,1.71,0,0,1-.44.67,1.87,1.87,0,0,1-.72.4,3.23,3.23,0,0,1-1,.13,3.7,3.7,0,0,1-1-.12,1.91,1.91,0,0,1-.74-.39,1.68,1.68,0,0,1-.46-.67,2.64,2.64,0,0,1-.16-1v-2.91a.56.56,0,0,1,0-.23.53.53,0,0,1,.13-.18.59.59,0,0,1,.19-.12.65.65,0,0,1,.46,0,.59.59,0,0,1,.19.12.53.53,0,0,1,.13.18.56.56,0,0,1,0,.23v2.91a1.15,1.15,0,0,0,.3.86,1.22,1.22,0,0,0,.89.3,1.07,1.07,0,0,0,.82-.3,1.22,1.22,0,0,0,.28-.86v-2.91a.56.56,0,0,1,0-.23.53.53,0,0,1,.13-.18.59.59,0,0,1,.19-.12.65.65,0,0,1,.46,0,.59.59,0,0,1,.19.12.52.52,0,0,1,.13.18.56.56,0,0,1,0,.23Z"/><path class="cls-5" d="M189.52,166.7a1,1,0,0,1,.05-.34.56.56,0,0,1,.14-.22.53.53,0,0,1,.22-.12,1.07,1.07,0,0,1,.29,0h2a2.82,2.82,0,0,1,.63.06,1.89,1.89,0,0,1,.47.17,1.29,1.29,0,0,1,.56.57,1.37,1.37,0,0,1,.12.35,1.89,1.89,0,0,1,0,.35,1.55,1.55,0,0,1-.06.43,1.42,1.42,0,0,1-.18.39,1.22,1.22,0,0,1-.29.3,1,1,0,0,1-.38.18v0a.81.81,0,0,1,.38.15.79.79,0,0,1,.23.28,1.23,1.23,0,0,1,.11.39,3,3,0,0,1,0,.46,1.67,1.67,0,0,0,0,.31c0,.09,0,.18.05.25l.05.21a.73.73,0,0,1,0,.18.41.41,0,0,1,0,.2.49.49,0,0,1-.13.15.63.63,0,0,1-.39.13.71.71,0,0,1-.28,0,.6.6,0,0,1-.32-.31,1.18,1.18,0,0,1-.07-.2,1.12,1.12,0,0,1,0-.18c0-.06,0-.1,0-.14a4.27,4.27,0,0,0,0-.61,1.16,1.16,0,0,0-.13-.41.57.57,0,0,0-.25-.24,1,1,0,0,0-.41-.08h-1.19v1.59a.73.73,0,0,1,0,.25.55.55,0,0,1-.12.19.54.54,0,0,1-.19.13.65.65,0,0,1-.25,0,.67.67,0,0,1-.25,0,.55.55,0,0,1-.19-.13.56.56,0,0,1-.12-.19.71.71,0,0,1,0-.25Zm1.2,1.69h1.21a1.88,1.88,0,0,0,.33,0,.81.81,0,0,0,.29-.11.59.59,0,0,0,.21-.22.78.78,0,0,0,.08-.37.9.9,0,0,0-.06-.36.52.52,0,0,0-.18-.22.71.71,0,0,0-.28-.12,1.78,1.78,0,0,0-.36,0h-1.24Z"/><path class="cls-5" d="M196.32,166.34a.53.53,0,0,1,.23-.29.76.76,0,0,1,.37-.08h.29l.2,0a.55.55,0,0,1,.18.06.56.56,0,0,1,.16.13.73.73,0,0,1,.12.23l1.49,4.08,0,.11,0,.12,0,.13a.58.58,0,0,1,0,.11.49.49,0,0,1,0,.21.53.53,0,0,1-.12.17.58.58,0,0,1-.19.11.6.6,0,0,1-.22,0,.71.71,0,0,1-.34-.08.48.48,0,0,1-.21-.26l-.31-.89h-2l-.32.89a.45.45,0,0,1-.2.26.71.71,0,0,1-.35.08.7.7,0,0,1-.23,0,.51.51,0,0,1-.18-.11.48.48,0,0,1-.12-.17.57.57,0,0,1,0-.22.58.58,0,0,1,0-.11l0-.13,0-.12,0-.11Zm.74.95h0l-.73,2.14h1.44Z"/><path class="cls-5" d="M200.25,166.52a.71.71,0,0,1,0-.25.53.53,0,0,1,.12-.19.55.55,0,0,1,.19-.12.74.74,0,0,1,.5,0,.53.53,0,0,1,.19.12.54.54,0,0,1,.12.19.72.72,0,0,1,0,.25v3.91h2a.87.87,0,0,1,.25,0,.6.6,0,0,1,.2.1.46.46,0,0,1,.13.16.52.52,0,0,1,0,.44.47.47,0,0,1-.13.16.61.61,0,0,1-.2.1.89.89,0,0,1-.25,0H201a1.12,1.12,0,0,1-.29,0,.55.55,0,0,1-.22-.12.54.54,0,0,1-.14-.22,1,1,0,0,1-.05-.34Z"/><path class="cls-5" d="M209.4,168.28a2.25,2.25,0,0,1,.69.26,1.57,1.57,0,0,1,.43.38,1.27,1.27,0,0,1,.22.45,1.91,1.91,0,0,1,.06.48,1.71,1.71,0,0,1-.14.69,1.47,1.47,0,0,1-.41.55,2,2,0,0,1-.69.36,3.23,3.23,0,0,1-1,.13,3.74,3.74,0,0,1-.7-.06,2.92,2.92,0,0,1-.57-.17,2,2,0,0,1-.43-.24,1.56,1.56,0,0,1-.3-.29,1.19,1.19,0,0,1-.18-.32.9.9,0,0,1-.06-.31.55.55,0,0,1,0-.21.48.48,0,0,1,.27-.27.54.54,0,0,1,.21,0,.47.47,0,0,1,.27.07.9.9,0,0,1,.2.18l.18.24a1.28,1.28,0,0,0,.23.24,1.15,1.15,0,0,0,.34.18,1.54,1.54,0,0,0,.51.07,1.31,1.31,0,0,0,.42-.06,1,1,0,0,0,.31-.16.69.69,0,0,0,.19-.23.61.61,0,0,0,.06-.27.62.62,0,0,0,0-.17.5.5,0,0,0-.08-.16.59.59,0,0,0-.16-.14.9.9,0,0,0-.26-.11l-1.38-.36a2.64,2.64,0,0,1-.48-.17,1.88,1.88,0,0,1-.35-.22,1.2,1.2,0,0,1-.24-.25,1.22,1.22,0,0,1-.15-.27,1.31,1.31,0,0,1-.07-.29,2.06,2.06,0,0,1,0-.29,1.62,1.62,0,0,1,.09-.55,1.44,1.44,0,0,1,.24-.43,1.52,1.52,0,0,1,.36-.32,2.18,2.18,0,0,1,.44-.22,2.69,2.69,0,0,1,.5-.12,3.45,3.45,0,0,1,.52,0,2.71,2.71,0,0,1,.49,0,3,3,0,0,1,.48.13,2.74,2.74,0,0,1,.44.2,1.81,1.81,0,0,1,.36.26,1.13,1.13,0,0,1,.23.31.67.67,0,0,1,.08.34.5.5,0,0,1-.35.46.67.67,0,0,1-.21,0,.42.42,0,0,1-.24-.06.92.92,0,0,1-.18-.15l-.17-.2a1.13,1.13,0,0,0-.22-.2,1.22,1.22,0,0,0-.32-.15,1.6,1.6,0,0,0-.48-.06,1.34,1.34,0,0,0-.38,0,.83.83,0,0,0-.28.13.57.57,0,0,0-.17.2.6.6,0,0,0-.06.26.38.38,0,0,0,.08.24.63.63,0,0,0,.2.16,1.29,1.29,0,0,0,.27.11l.29.08Z"/><path class="cls-5" d="M212.69,167h-1.1a.47.47,0,0,1-.2,0,.49.49,0,0,1-.16-.11.5.5,0,0,1-.1-.17.58.58,0,0,1,0-.41.51.51,0,0,1,.1-.17.47.47,0,0,1,.35-.15H215a.48.48,0,0,1,.35.15.53.53,0,0,1,.1.17.58.58,0,0,1,0,.41.52.52,0,0,1-.1.17.49.49,0,0,1-.16.11.47.47,0,0,1-.2,0h-1.13v3.92a.54.54,0,0,1-.17.41.58.58,0,0,1-.19.12.65.65,0,0,1-.46,0,.58.58,0,0,1-.19-.12.54.54,0,0,1-.17-.41Z"/><path class="cls-5" d="M217,166.34a.53.53,0,0,1,.23-.29.76.76,0,0,1,.37-.08h.29l.2,0a.55.55,0,0,1,.18.06.57.57,0,0,1,.16.13.73.73,0,0,1,.12.23l1.49,4.08,0,.11,0,.12,0,.13a.58.58,0,0,1,0,.11.49.49,0,0,1,0,.21.53.53,0,0,1-.12.17.59.59,0,0,1-.18.11.61.61,0,0,1-.22,0,.71.71,0,0,1-.34-.08.47.47,0,0,1-.21-.26l-.31-.89h-2l-.32.89a.46.46,0,0,1-.2.26.71.71,0,0,1-.35.08.7.7,0,0,1-.23,0,.52.52,0,0,1-.18-.11.48.48,0,0,1-.12-.17.57.57,0,0,1,0-.22.58.58,0,0,1,0-.11l0-.13,0-.12,0-.11Zm.74.95h0l-.73,2.14h1.44Z"/><path class="cls-5" d="M221.55,167h-1.1a.47.47,0,0,1-.2,0,.49.49,0,0,1-.16-.11.5.5,0,0,1-.1-.17.58.58,0,0,1,0-.41.51.51,0,0,1,.1-.17.47.47,0,0,1,.35-.15h3.43a.48.48,0,0,1,.35.15.53.53,0,0,1,.1.17.58.58,0,0,1,0,.41.52.52,0,0,1-.1.17.49.49,0,0,1-.16.11.47.47,0,0,1-.2,0h-1.13v3.92a.54.54,0,0,1-.17.41.58.58,0,0,1-.19.12.65.65,0,0,1-.46,0,.58.58,0,0,1-.19-.12.54.54,0,0,1-.17-.41Z"/><path class="cls-5" d="M226.16,170.94a.54.54,0,0,1,0,.23.55.55,0,0,1-.13.18.6.6,0,0,1-.19.12.65.65,0,0,1-.46,0,.59.59,0,0,1-.19-.12.54.54,0,0,1-.17-.4v-4.46a.54.54,0,0,1,.17-.4.58.58,0,0,1,.19-.12.65.65,0,0,1,.46,0,.59.59,0,0,1,.19.12.55.55,0,0,1,.13.18.54.54,0,0,1,0,.23Z"/><path class="cls-5" d="M227,168.71A3.55,3.55,0,0,1,227,168a3.07,3.07,0,0,1,.22-.68,2.61,2.61,0,0,1,.38-.58,2.35,2.35,0,0,1,.53-.46,2.53,2.53,0,0,1,.68-.3,3,3,0,0,1,.83-.11,3.05,3.05,0,0,1,.84.11,2.54,2.54,0,0,1,.69.3,2.41,2.41,0,0,1,.53.46,2.65,2.65,0,0,1,.38.58,3,3,0,0,1,.23.68,3.51,3.51,0,0,1,.08.73,3.47,3.47,0,0,1-.08.73,2.93,2.93,0,0,1-.23.67,2.65,2.65,0,0,1-.38.58,2.34,2.34,0,0,1-.53.46,2.6,2.6,0,0,1-.69.3,3.1,3.1,0,0,1-.84.11,3,3,0,0,1-.83-.11,2.59,2.59,0,0,1-.68-.3,2.29,2.29,0,0,1-.53-.46,2.61,2.61,0,0,1-.38-.58,3,3,0,0,1-.22-.67A3.51,3.51,0,0,1,227,168.71Zm1.19,0a2.73,2.73,0,0,0,0,.45,2.08,2.08,0,0,0,.12.42,1.77,1.77,0,0,0,.2.37,1.34,1.34,0,0,0,.29.3,1.36,1.36,0,0,0,.39.2,1.56,1.56,0,0,0,.49.07,1.61,1.61,0,0,0,.5-.07,1.38,1.38,0,0,0,.4-.2,1.33,1.33,0,0,0,.3-.3,1.75,1.75,0,0,0,.2-.37,2.08,2.08,0,0,0,.12-.42,2.67,2.67,0,0,0,0-.45,2.7,2.7,0,0,0,0-.45,2.1,2.1,0,0,0-.12-.43,1.81,1.81,0,0,0-.2-.38,1.33,1.33,0,0,0-.3-.3,1.36,1.36,0,0,0-.4-.2,1.61,1.61,0,0,0-.5-.07,1.56,1.56,0,0,0-.49.07,1.33,1.33,0,0,0-.39.2,1.35,1.35,0,0,0-.29.3,1.83,1.83,0,0,0-.2.38,2.1,2.1,0,0,0-.12.43A2.76,2.76,0,0,0,228.15,168.71Z"/><path class="cls-5" d="M233.15,166.65a.74.74,0,0,1,.18-.55.79.79,0,0,1,.56-.17.74.74,0,0,1,.34.08.63.63,0,0,1,.25.25l2.13,3.46h0v-3.19a.61.61,0,0,1,.15-.45.56.56,0,0,1,.42-.15.58.58,0,0,1,.42.15.6.6,0,0,1,.15.45v4.22a.86.86,0,0,1-.16.56.66.66,0,0,1-.54.2l-.24,0a.56.56,0,0,1-.17-.05.44.44,0,0,1-.13-.1,1,1,0,0,1-.11-.16l-2.12-3.36h0v3.1a.59.59,0,0,1-.15.44.58.58,0,0,1-.42.14.52.52,0,0,1-.57-.59Z"/><path class="cls-5" d="M242.18,166.34a.53.53,0,0,1,.23-.29.76.76,0,0,1,.37-.08h.29l.2,0a.55.55,0,0,1,.18.06.57.57,0,0,1,.16.13.73.73,0,0,1,.12.23l1.49,4.08,0,.11,0,.12,0,.13a.58.58,0,0,1,0,.11.49.49,0,0,1,0,.21.53.53,0,0,1-.12.17.59.59,0,0,1-.18.11.61.61,0,0,1-.22,0,.71.71,0,0,1-.34-.08.47.47,0,0,1-.21-.26l-.31-.89h-2l-.32.89a.46.46,0,0,1-.2.26.71.71,0,0,1-.35.08.7.7,0,0,1-.23,0,.52.52,0,0,1-.18-.11.48.48,0,0,1-.12-.17.57.57,0,0,1,0-.22.58.58,0,0,1,0-.11l0-.13,0-.12,0-.11Zm.74.95h0l-.73,2.14h1.44Z"/><path class="cls-5" d="M246.11,166.65a.74.74,0,0,1,.18-.55.79.79,0,0,1,.56-.17.74.74,0,0,1,.34.08.63.63,0,0,1,.25.25l2.13,3.46h0v-3.19a.61.61,0,0,1,.15-.45.56.56,0,0,1,.42-.15.58.58,0,0,1,.42.15.6.6,0,0,1,.15.45v4.22a.86.86,0,0,1-.16.56.66.66,0,0,1-.54.2l-.24,0a.56.56,0,0,1-.17-.05.44.44,0,0,1-.13-.1,1,1,0,0,1-.11-.16l-2.12-3.36h0v3.1a.59.59,0,0,1-.15.44.58.58,0,0,1-.42.14.52.52,0,0,1-.57-.59Z"/><path class="cls-5" d="M256.6,171.11a.43.43,0,0,1,0,.16.42.42,0,0,1-.08.13.4.4,0,0,1-.13.09.42.42,0,0,1-.17,0,.49.49,0,0,1-.22,0,.36.36,0,0,1-.14-.13.71.71,0,0,1-.09-.22q0-.13-.06-.31a2.12,2.12,0,0,1-.29.3,1.69,1.69,0,0,1-.35.23,1.87,1.87,0,0,1-.42.15,2.34,2.34,0,0,1-.51.05,3.12,3.12,0,0,1-.84-.11,2.37,2.37,0,0,1-.66-.29,2,2,0,0,1-.49-.45,2.5,2.5,0,0,1-.34-.58,3.19,3.19,0,0,1-.19-.68,4.42,4.42,0,0,1-.06-.74,3.46,3.46,0,0,1,.2-1.22,2.48,2.48,0,0,1,.57-.9,2.39,2.39,0,0,1,.87-.55,3.24,3.24,0,0,1,1.13-.19,2.84,2.84,0,0,1,.62.06,2.55,2.55,0,0,1,.51.17,2.1,2.1,0,0,1,.4.24,1.73,1.73,0,0,1,.29.28,1.21,1.21,0,0,1,.18.29.71.71,0,0,1,.06.26.6.6,0,0,1-.05.27.45.45,0,0,1-.13.17.5.5,0,0,1-.18.09l-.2,0a.44.44,0,0,1-.19,0,.51.51,0,0,1-.14-.1l-.12-.14-.12-.16-.14-.16a.84.84,0,0,0-.2-.14,1.17,1.17,0,0,0-.28-.1,1.71,1.71,0,0,0-.38,0,1.55,1.55,0,0,0-.58.11,1.21,1.21,0,0,0-.47.34,1.68,1.68,0,0,0-.32.6,3,3,0,0,0-.12.88,2.65,2.65,0,0,0,.1.73,1.61,1.61,0,0,0,.29.57,1.27,1.27,0,0,0,.47.36,1.56,1.56,0,0,0,.65.13,1.43,1.43,0,0,0,.51-.09,1.11,1.11,0,0,0,.65-.62,1.32,1.32,0,0,0,.1-.49h-.79l-.19,0a.47.47,0,0,1-.17-.08.43.43,0,0,1-.13-.15.58.58,0,0,1,.07-.59.46.46,0,0,1,.35-.13h1.49a.48.48,0,0,1,.38.13.59.59,0,0,1,.11.39Z"/><path class="cls-5" d="M257.65,166.52a.69.69,0,0,1,0-.25.54.54,0,0,1,.12-.19A.56.56,0,0,1,258,166a.69.69,0,0,1,.25,0,.68.68,0,0,1,.25,0,.56.56,0,0,1,.19.12.53.53,0,0,1,.12.19.69.69,0,0,1,0,.25v1.83l2-2.19A1,1,0,0,1,261,166a.64.64,0,0,1,.22-.09.48.48,0,0,1,.23,0,.55.55,0,0,1,.23.13.51.51,0,0,1,.13.18.47.47,0,0,1,0,.2.52.52,0,0,1-.05.2.64.64,0,0,1-.13.18l-1.31,1.38,1.5,2.28a1.91,1.91,0,0,1,.14.24.69.69,0,0,1,.07.24.46.46,0,0,1,0,.23.55.55,0,0,1-.18.21.65.65,0,0,1-.27.12.55.55,0,0,1-.26,0,.66.66,0,0,1-.23-.12.92.92,0,0,1-.19-.22L259.53,169l-.67.67v1.21a.69.69,0,0,1,0,.25.53.53,0,0,1-.12.19.54.54,0,0,1-.19.12.68.68,0,0,1-.25,0,.69.69,0,0,1-.25,0,.55.55,0,0,1-.19-.12.54.54,0,0,1-.12-.19.69.69,0,0,1,0-.25Z"/><path class="cls-5" d="M264,169.14v1.81a.54.54,0,0,1,0,.23.56.56,0,0,1-.13.18.6.6,0,0,1-.19.12.65.65,0,0,1-.46,0,.59.59,0,0,1-.19-.12.55.55,0,0,1-.13-.18.53.53,0,0,1,0-.23v-4.46a.53.53,0,0,1,0-.23.54.54,0,0,1,.13-.18.58.58,0,0,1,.19-.12.65.65,0,0,1,.46,0,.59.59,0,0,1,.19.12.56.56,0,0,1,.13.18.54.54,0,0,1,0,.23v1.67h2.25v-1.67a.54.54,0,0,1,0-.23.55.55,0,0,1,.13-.18.59.59,0,0,1,.19-.12.65.65,0,0,1,.46,0,.58.58,0,0,1,.19.12.54.54,0,0,1,.17.4v4.46a.54.54,0,0,1-.17.4.59.59,0,0,1-.19.12.65.65,0,0,1-.46,0,.6.6,0,0,1-.19-.12.55.55,0,0,1-.13-.18.54.54,0,0,1,0-.23v-1.81Z"/><path class="cls-5" d="M269.92,166.34a.53.53,0,0,1,.23-.29.76.76,0,0,1,.37-.08h.29l.2,0a.55.55,0,0,1,.18.06.57.57,0,0,1,.16.13.73.73,0,0,1,.12.23l1.49,4.08,0,.11,0,.12,0,.13a.58.58,0,0,1,0,.11.49.49,0,0,1,0,.21.53.53,0,0,1-.12.17.59.59,0,0,1-.18.11.61.61,0,0,1-.22,0,.71.71,0,0,1-.34-.08.47.47,0,0,1-.21-.26l-.31-.89h-2l-.32.89a.46.46,0,0,1-.2.26.71.71,0,0,1-.35.08.7.7,0,0,1-.23,0,.52.52,0,0,1-.18-.11.48.48,0,0,1-.12-.17.57.57,0,0,1,0-.22.58.58,0,0,1,0-.11l0-.13,0-.12,0-.11Zm.74.95h0l-.73,2.14h1.44Z"/><path class="cls-5" d="M273.85,166.65a.74.74,0,0,1,.18-.55.79.79,0,0,1,.56-.17.74.74,0,0,1,.34.08.63.63,0,0,1,.25.25l2.13,3.46h0v-3.19a.61.61,0,0,1,.15-.45.56.56,0,0,1,.42-.15.58.58,0,0,1,.42.15.6.6,0,0,1,.15.45v4.22a.86.86,0,0,1-.16.56.66.66,0,0,1-.54.2l-.24,0a.56.56,0,0,1-.17-.05.44.44,0,0,1-.13-.1,1,1,0,0,1-.11-.16L275,167.81h0v3.1a.59.59,0,0,1-.15.44.58.58,0,0,1-.42.14.52.52,0,0,1-.57-.59Z"/><path class="cls-5" d="M284.35,171.11a.43.43,0,0,1,0,.16.42.42,0,0,1-.08.13.4.4,0,0,1-.13.09.42.42,0,0,1-.17,0,.49.49,0,0,1-.22,0,.36.36,0,0,1-.14-.13.71.71,0,0,1-.09-.22q0-.13-.06-.31a2.12,2.12,0,0,1-.29.3,1.69,1.69,0,0,1-.35.23,1.87,1.87,0,0,1-.42.15,2.34,2.34,0,0,1-.51.05,3.12,3.12,0,0,1-.84-.11,2.37,2.37,0,0,1-.66-.29,2,2,0,0,1-.49-.45,2.5,2.5,0,0,1-.34-.58,3.19,3.19,0,0,1-.19-.68,4.42,4.42,0,0,1-.06-.74,3.46,3.46,0,0,1,.2-1.22,2.48,2.48,0,0,1,.57-.9,2.39,2.39,0,0,1,.87-.55,3.24,3.24,0,0,1,1.13-.19,2.84,2.84,0,0,1,.62.06,2.55,2.55,0,0,1,.51.17,2.1,2.1,0,0,1,.4.24,1.73,1.73,0,0,1,.29.28,1.21,1.21,0,0,1,.18.29.71.71,0,0,1,.06.26.6.6,0,0,1-.05.27.45.45,0,0,1-.13.17.5.5,0,0,1-.18.09l-.2,0a.44.44,0,0,1-.19,0,.51.51,0,0,1-.14-.1l-.12-.14-.12-.16-.14-.16a.84.84,0,0,0-.2-.14,1.17,1.17,0,0,0-.28-.1,1.71,1.71,0,0,0-.38,0,1.55,1.55,0,0,0-.58.11,1.21,1.21,0,0,0-.47.34,1.68,1.68,0,0,0-.32.6,3,3,0,0,0-.12.88,2.65,2.65,0,0,0,.1.73,1.61,1.61,0,0,0,.29.57,1.27,1.27,0,0,0,.47.36,1.56,1.56,0,0,0,.65.13,1.43,1.43,0,0,0,.51-.09,1.11,1.11,0,0,0,.65-.62,1.32,1.32,0,0,0,.1-.49h-.79l-.19,0a.47.47,0,0,1-.17-.08.43.43,0,0,1-.13-.15.58.58,0,0,1,.07-.59.46.46,0,0,1,.35-.13h1.49a.48.48,0,0,1,.38.13.59.59,0,0,1,.11.39Z"/><polygon class="cls-6" points="301.93 114.52 301.93 200.3 301.93 208.87 301.93 218.71 101.11 218.71 101.11 208.87 101.11 200.3 101.11 114.52 70.43 114.52 70.43 200.3 70.43 208.87 70.43 259.96 332.61 259.96 332.61 208.87 332.61 200.3 332.61 114.52 301.93 114.52"/><polygon class="cls-7" points="70.06 259.96 63.61 259.96 63.61 210.19 107.94 210.19 107.94 259.96 70.06 259.96"/><polygon class="cls-2" points="70.06 218.71 63.61 218.71 63.61 210.19 107.94 210.19 107.94 218.71 70.06 218.71"/><polygon class="cls-2" points="74.89 129.39 70.43 129.39 70.43 120.86 101.11 120.86 101.11 129.39 74.89 129.39"/><polygon class="cls-2" points="306.39 129.39 301.93 129.39 301.93 120.86 332.61 120.86 332.61 129.39 306.39 129.39"/><polygon class="cls-8" points="317.27 86.95 317.27 79.8 201.52 79.8 85.78 79.8 85.78 86.95 41.49 117.64 201.52 117.64 361.56 117.64 317.27 86.95"/><polygon class="cls-3" points="356.99 117.64 352.42 117.64 347.84 117.64 343.27 117.64 338.7 117.64 334.13 117.64 329.55 117.64 324.98 117.64 320.41 117.64 315.84 117.64 311.26 117.64 306.69 117.64 302.12 117.64 297.55 117.64 292.97 117.64 288.4 117.64 283.83 117.64 279.26 117.64 274.68 117.64 270.11 117.64 265.54 117.64 260.97 117.64 256.39 117.64 251.82 117.64 247.25 117.64 242.68 117.64 238.1 117.64 233.53 117.64 228.96 117.64 224.39 117.64 219.81 117.64 215.24 117.64 210.67 117.64 206.1 117.64 201.52 117.64 196.95 117.64 192.38 117.64 187.81 117.64 183.23 117.64 178.66 117.64 174.09 117.64 169.52 117.64 164.94 117.64 160.37 117.64 155.8 117.64 151.23 117.64 146.65 117.64 142.08 117.64 137.51 117.64 132.94 117.64 128.36 117.64 123.79 117.64 119.22 117.64 114.65 117.64 110.07 117.64 105.5 117.64 100.93 117.64 96.36 117.64 91.78 117.64 87.21 117.64 82.64 117.64 78.07 117.64 73.5 117.64 68.92 117.64 64.35 117.64 59.78 117.64 55.2 117.64 50.63 117.64 46.06 117.64 41.49 117.64 41.49 123.53 43.77 126.08 46.06 123.53 48.35 126.08 50.63 123.53 52.92 126.08 55.2 123.53 57.49 126.08 59.78 123.53 62.06 126.08 64.35 123.53 66.64 126.08 68.92 123.53 71.21 126.08 73.5 123.53 75.78 126.08 78.07 123.53 80.35 126.08 82.64 123.53 84.93 126.08 87.21 123.53 89.5 126.08 91.78 123.53 94.07 126.08 96.36 123.53 98.64 126.08 100.93 123.53 103.22 126.08 105.5 123.53 107.79 126.08 110.07 123.53 112.36 126.08 114.65 123.53 116.93 126.08 119.22 123.53 121.51 126.08 123.79 123.53 126.08 126.08 128.36 123.53 130.65 126.08 132.94 123.53 135.22 126.08 137.51 123.53 139.8 126.08 142.08 123.53 144.37 126.08 146.65 123.53 148.94 126.08 151.23 123.53 153.51 126.08 155.8 123.53 158.09 126.08 160.37 123.53 162.66 126.08 164.94 123.53 167.23 126.08 169.52 123.53 171.8 126.08 174.09 123.53 176.38 126.08 178.66 123.53 180.95 126.08 183.23 123.53 185.52 126.08 187.81 123.53 190.09 126.08 192.38 123.53 194.66 126.08 196.95 123.53 199.24 126.08 201.52 123.53 203.81 126.08 206.1 123.53 208.38 126.08 210.67 123.53 212.96 126.08 215.24 123.53 217.53 126.08 219.81 123.53 222.1 126.08 224.39 123.53 226.67 126.08 228.96 123.53 231.25 126.08 233.53 123.53 235.82 126.08 238.1 123.53 240.39 126.08 242.68 123.53 244.96 126.08 247.25 123.53 249.53 126.08 251.82 123.53 254.11 126.08 256.39 123.53 258.68 126.08 260.97 123.53 263.25 126.08 265.54 123.53 267.82 126.08 270.11 123.53 272.4 126.08 274.68 123.53 276.97 126.08 279.26 123.53 281.54 126.08 283.83 123.53 286.12 126.08 288.4 123.53 290.69 126.08 292.97 123.53 295.26 126.08 297.55 123.53 299.83 126.08 302.12 123.53 304.4 126.08 306.69 123.53 308.98 126.08 311.26 123.53 313.55 126.08 315.84 123.53 318.12 126.08 320.41 123.53 322.69 126.08 324.98 123.53 327.27 126.08 329.55 123.53 331.84 126.08 334.13 123.53 336.41 126.08 338.7 123.53 340.98 126.08 343.27 123.53 345.56 126.08 347.84 123.53 350.13 126.08 352.42 123.53 354.7 126.08 356.99 123.53 359.27 126.08 361.56 123.53 361.56 117.64 356.99 117.64"/><rect class="cls-3" x="85.77" y="79.79" width="231.5" height="7.16"/><polygon class="cls-9" points="267.46 70.05 267.46 64.95 201.52 64.95 135.59 64.95 135.59 70.05 110.36 91.87 201.52 91.87 292.69 91.87 267.46 70.05"/><polygon class="cls-3" points="287.65 91.61 283.1 91.61 278.56 91.61 274.01 91.61 269.47 91.61 264.92 91.61 260.38 91.61 255.83 91.61 251.28 91.61 246.74 91.61 242.19 91.61 237.65 91.61 233.1 91.61 228.55 91.61 224.01 91.61 219.46 91.61 214.92 91.61 210.37 91.61 205.82 91.61 201.28 91.61 196.73 91.61 192.19 91.61 187.64 91.61 183.09 91.61 178.55 91.61 174 91.61 169.46 91.61 164.91 91.61 160.37 91.61 155.82 91.61 151.27 91.61 146.73 91.61 142.18 91.61 137.64 91.61 133.09 91.61 128.54 91.61 124 91.61 119.45 91.61 114.91 91.61 110.36 91.61 110.36 97.46 112.64 100 114.91 97.46 117.18 100 119.45 97.46 121.73 100 124 97.46 126.27 100 128.54 97.46 130.82 100 133.09 97.46 135.36 100 137.64 97.46 139.91 100 142.18 97.46 144.46 100 146.73 97.46 149 100 151.27 97.46 153.55 100 155.82 97.46 158.09 100 160.37 97.46 162.64 100 164.91 97.46 167.19 100 169.46 97.46 171.73 100 174 97.46 176.28 100 178.55 97.46 180.82 100 183.09 97.46 185.37 100 187.64 97.46 189.91 100 192.19 97.46 194.46 100 196.73 97.46 199.01 100 201.28 97.46 203.55 100 205.82 97.46 208.1 100 210.37 97.46 212.64 100 214.92 97.46 217.19 100 219.46 97.46 221.74 100 224.01 97.46 226.28 100 228.55 97.46 230.83 100 233.1 97.46 235.37 100 237.65 97.46 239.92 100 242.19 97.46 244.46 100 246.74 97.46 249.01 100 251.28 97.46 253.56 100 255.83 97.46 258.1 100 260.38 97.46 262.65 100 264.92 97.46 267.19 100 269.47 97.46 271.74 100 274.01 97.46 276.29 100 278.56 97.46 280.83 100 283.1 97.46 285.38 100 287.65 97.46 289.92 100 292.2 97.46 292.2 91.61 287.65 91.61"/><rect class="cls-3" x="135.59" y="64.95" width="131.87" height="5.09"/><rect class="cls-10" x="288.76" y="41.7" width="27.93" height="19.83"/><rect class="cls-11" x="288.76" y="41.7" width="27.93" height="3.96"/><rect class="cls-11" x="288.76" y="57.57" width="27.93" height="3.96"/><rect class="cls-12" x="288.76" y="48.81" width="27.93" height="5.59"/><polygon class="cls-7" points="300.9 259.96 294.45 259.96 294.45 217.34 338.77 217.34 338.77 259.96 300.9 259.96"/><polygon class="cls-2" points="300.9 218.71 294.45 218.71 294.45 210.19 338.77 210.19 338.77 218.71 300.9 218.71"/><path class="cls-13" d="M247.49,241.82s11.43-9-7-13.89-8,11.95-8,11.95-6.58-11.51-14.33-11.18-7.19,10.19-2.8,11.18c0,0-15.34-12.26-20.64-4.81s2.39,8.46,2.39,8.46-8.74-9.43-14.22,2.33,6.69,8,6.69,8-6.37-1.62-5.7,3.76h58l5.65-12.43Z"/><path class="cls-1" d="M410,257.63s1.5-15.68-16.5-22.55-34,6.75-34,6.75,6.5-9.49-12.5-16.3-39.5-3.28-38.5,9.95c0,0,.67-11.27-24.16-7.27s-19.21,16.13-19.21,16.13-2.47-10.39-19.8-2.51-7.39,15.81-7.39,15.81Z"/></g></svg>