<svg xmlns="http://www.w3.org/2000/svg" viewBox="0 0 2140 1054.85"><defs><style>.cls-1{fill:#f4d087;}.cls-2{fill:#4e5c37;}.cls-3{fill:#51695c;}</style></defs><title>ภูเขา</title><g id="ภูเขา"><path class="cls-1" d="M127.23,162.88s69.52-12.24,160.27,29.35S608.91,255.11,696.1,225s237.08-84.22,318.15-54.18,120.5,72.26,223.8,129.16,467,134.59,520.69,134.74,134.94,16.6,134.94,16.6l35.09,139.51-302,240.57L1243.17,951.63,704.7,791.39,276.09,742.93,114.28,533.85l-1-375.59Z"/><path class="cls-2" d="M2033.25,372.55l-143.86,48s-121.11,49.15-137.48,80.66-79.77,147.47-79.77,147.47S1505,722.15,1480.42,727.42s-233.69-16.69-233.69-16.69l-197.27,35.33-35.22,247.59h1019Z"/><path class="cls-3" d="M113.25,344.2s277,52.48,359.52,119.06,290.81,83.64,290.81,83.64L999.32,675.67l152.38,146L1510.39,931l136.28,49.5H113.25Z"/><rect class="cls-2" x="113.25" y="979.62" width="1920" height="28.08"/></g></svg>