<?xml version="1.0" encoding="utf-8"?>
<!-- Generator: Adobe Illustrator 21.0.0, SVG Export Plug-In . SVG Version: 6.00 Build 0)  -->
<svg version="1.1" id="Layer_1" xmlns="http://www.w3.org/2000/svg" xmlns:xlink="http://www.w3.org/1999/xlink" x="0px" y="0px"
	 viewBox="0 0 560.8 288" style="enable-background:new 0 0 560.8 288;" xml:space="preserve">
<style type="text/css">
	.st0{fill:#B34830;}
	.st1{fill:#262826;}
	.st2{fill:#8E4420;}
	.st3{fill:#3F4140;}
	.st4{fill:#BEBDBF;}
	.st5{fill:#444345;}
	.st6{fill:#A2D7F2;}
	.st7{fill:#80C6DD;}
</style>
<title>รถ tractor</title>
<g id="รถ_tractor">
	<path class="st0" d="M27.1,117.8v74.7h226.5v-74.7H33.2H27.1z M247.4,128.7H33.2v-6h214.3V128.7z M247.4,139.5H33.2v-6h214.3V139.5
		z M33.2,151.4v-7h214.3v7H33.2z"/>
	<rect x="27.1" y="189.8" class="st1" width="226.5" height="14.9"/>
	<path class="st0" d="M303.4,192.1v-56.7h164.1l0,0c9.4,0,16.9,7.6,16.9,16.9V192H382.1L303.4,192.1z"/>
	<path class="st2" d="M476.5,147.9v9c0,0.5-0.4,0.9-0.9,0.9h-47.4c-0.5,0-0.9-0.4-0.9-0.9v-9c0-0.5,0.4-0.9,0.9-0.9h47.4
		C476.1,147,476.5,147.4,476.5,147.9z"/>
	<path class="st2" d="M476.7,161.2v2.4c0,0.5-0.4,0.9-0.9,0.9h-47.5c-0.5,0-0.9-0.4-0.9-0.9v-2.4c0-0.5,0.4-0.9,0.9-0.9h47.5
		C476.3,160.3,476.7,160.7,476.7,161.2z"/>
	<path class="st2" d="M476.7,167.1v2.4c0,0.5-0.4,0.9-0.9,0.9h-47.5c-0.5,0-0.9-0.4-0.9-0.9v-2.4c0-0.5,0.4-0.9,0.9-0.9h47.5
		C476.3,166.2,476.7,166.6,476.7,167.1z"/>
	<path class="st2" d="M476.7,172.9v2.4c0,0.5-0.4,0.9-0.9,0.9h-47.5c-0.5,0-0.9-0.4-0.9-0.9v-2.4c0-0.5,0.4-0.9,0.9-0.9h47.5
		C476.3,172,476.7,172.4,476.7,172.9z"/>
	<path class="st2" d="M476.7,178.8v2.4c0,0.5-0.4,0.9-0.9,0.9h-47.5c-0.5,0-0.9-0.4-0.9-0.9v-2.4c0-0.5,0.4-0.9,0.9-0.9h47.5
		C476.3,177.9,476.7,178.3,476.7,178.8z"/>
	<path class="st1" d="M465.4,163.8c-21.6,3.3-36.5,23.6-33.1,45.2h78.9c0.3-2.1,0.5-4.2,0.5-6.3c-0.2-21.9-18-39.5-39.9-39.3
		C469.6,163.3,467.5,163.5,465.4,163.8z"/>
	<polygon class="st0" points="411.6,139 303.4,139 303.4,76.5 397,76.5 411.6,135.2 	"/>
	<path class="st1" d="M281.9,188H273c0,0.8,0.1,1.6,0.1,2.4h115.5c0.1-0.8,0.1-1.6,0.1-2.4c0.1-30.6-23.7-56.1-54.2-58
		c-31.9-2-59.3,22.3-61.2,54.1h8.8V188z"/>
	<polygon class="st1" points="440.4,204.7 376.1,204.7 383.2,189.8 437.2,189.8 	"/>
	<rect x="259.9" y="187.7" class="st1" width="24.4" height="8.6"/>
	<circle class="st3" cx="330.8" cy="187.7" r="52.5"/>
	<circle class="st1" cx="330.8" cy="187.7" r="27.4"/>
	<circle class="st3" cx="471.7" cy="203.2" r="37.1"/>
	<circle class="st1" cx="471.7" cy="203.2" r="19.1"/>
	<circle class="st4" cx="330.8" cy="187.7" r="23.2"/>
	<circle class="st4" cx="471.7" cy="203.2" r="15.6"/>
	<circle class="st5" cx="471.7" cy="203.2" r="6.9"/>
	<circle class="st5" cx="330.8" cy="187.7" r="9.2"/>
	<rect x="253.5" y="184.2" class="st3" width="6.4" height="15.4"/>
	<rect x="455.7" y="110.3" class="st3" width="12.3" height="25.1"/>
	<polygon class="st2" points="303.4,76.5 303.4,79.5 397.8,79.5 397,76.5 	"/>
	<rect x="299.8" y="71.8" class="st4" width="101.5" height="4.7"/>
	<path class="st6" d="M403.3,143.6l-14.7-62.3H354V132c7.9,1.8,15,5.9,20.7,11.6H403.3z"/>
	<rect x="308.8" y="81.3" class="st6" width="38.4" height="46.2"/>
	<rect x="33.2" y="157.2" class="st2" width="214.3" height="8"/>
	<rect x="33.2" y="168" class="st2" width="214.3" height="8"/>
	<rect x="33.2" y="178.9" class="st2" width="214.3" height="8"/>
	<polygon class="st7" points="347.2,81.3 308.7,81.3 347.2,127.5 	"/>
	<polygon class="st7" points="354,81.3 388.6,81.3 403.3,143.6 	"/>
	<path class="st4" d="M461,110.2V95c0-0.7-0.4-1.3-0.9-1.6l-3.9-2.5l2.1-3.6l5.7,3.6c0.6,0.4,0.9,1,0.9,1.7v17.7L461,110.2z"/>
	<path class="st1" d="M403.3,146L403.3,146v2.8l0,0c0,0.3-0.2,0.5-0.5,0.5h-7.1l0,0c-0.3,0-0.5-0.2-0.5-0.5V146l0,0H403.3L403.3,146
		z"/>
	<circle class="st3" cx="219" cy="213.1" r="26.9"/>
	<circle class="st1" cx="219" cy="213.1" r="13.8"/>
	<circle class="st4" cx="219" cy="213.1" r="11.3"/>
	<circle class="st5" cx="219" cy="213.1" r="5"/>
	<circle class="st3" cx="59.8" cy="213.1" r="26.9"/>
	<circle class="st1" cx="59.8" cy="213.1" r="13.8"/>
	<circle class="st4" cx="59.8" cy="213.1" r="11.3"/>
	<circle class="st5" cx="59.8" cy="213.1" r="5"/>
</g>
</svg>
