<svg xmlns="http://www.w3.org/2000/svg" viewBox="0 0 560.85 288.04"><defs><style>.cls-1{fill:#b34830;}.cls-2{fill:#262826;}.cls-3{fill:#8e4420;}.cls-4{fill:#3f4140;}.cls-5{fill:#bebdbf;}.cls-6{fill:#444345;}.cls-7{fill:#a2d7f2;}.cls-8{fill:#80c6dd;}</style></defs><title>รถ tractor</title><g id="รถ_tractor" data-name="รถ tractor"><path class="cls-1" d="M505.55,117.83H285.19v74.72H511.66V117.83ZM291.3,122.68H505.55v6H291.3Zm0,10.87H505.55v6H291.3Zm0,17.85v-7H505.55v7Z"/><rect class="cls-2" x="285.19" y="189.82" width="226.47" height="14.85"/><path class="cls-1" d="M156.62,192.05H54.35V152.33a16.93,16.93,0,0,1,16.93-16.93H235.36v56.66Z"/><rect class="cls-3" x="62.21" y="147.04" width="49.2" height="10.77" rx="0.9" ry="0.9"/><rect class="cls-3" x="62.05" y="160.31" width="49.35" height="4.18" rx="0.9" ry="0.9"/><rect class="cls-3" x="62.05" y="166.16" width="49.35" height="4.18" rx="0.9" ry="0.9"/><rect class="cls-3" x="62.05" y="172.02" width="49.35" height="4.18" rx="0.9" ry="0.9"/><rect class="cls-3" x="62.05" y="177.87" width="49.35" height="4.18" rx="0.9" ry="0.9"/><path class="cls-2" d="M67,163.31A39.64,39.64,0,0,0,27.53,209h78.89A39.64,39.64,0,0,0,67,163.31Z"/><polygon class="cls-1" points="127.12 135.18 141.68 76.5 235.36 76.5 235.36 138.99 127.12 138.99 127.12 135.18"/><path class="cls-2" d="M256.81,184.17h8.79A57.79,57.79,0,0,0,150.13,188c0,.8,0,1.6.06,2.39H265.68c0-.79.06-1.59.06-2.39h-8.93Z"/><polygon class="cls-2" points="101.53 189.82 155.56 189.82 162.63 204.68 98.3 204.68 101.53 189.82"/><rect class="cls-2" x="254.33" y="187.73" width="24.45" height="8.64"/><circle class="cls-4" cx="207.94" cy="187.73" r="52.55"/><circle class="cls-2" cx="207.94" cy="187.73" r="27.42"/><circle class="cls-4" cx="66.98" cy="203.23" r="37.06"/><circle class="cls-2" cx="66.98" cy="203.23" r="19.06"/><circle class="cls-5" cx="207.94" cy="187.73" r="23.24"/><circle class="cls-5" cx="66.98" cy="203.23" r="15.6"/><circle class="cls-6" cx="66.98" cy="203.23" r="6.85"/><circle class="cls-6" cx="207.94" cy="187.73" r="9.19"/><rect class="cls-4" x="278.78" y="184.17" width="6.4" height="15.44"/><rect class="cls-4" x="70.71" y="110.26" width="12.3" height="25.13"/><polygon class="cls-3" points="141.68 76.5 140.94 79.47 235.36 79.47 235.36 76.5 141.68 76.5"/><rect class="cls-5" x="137.4" y="71.84" width="101.5" height="4.66"/><path class="cls-7" d="M164,143.64A42.54,42.54,0,0,1,184.69,132V81.35H150.13l-14.67,62.29Z"/><rect class="cls-7" x="191.55" y="81.35" width="38.42" height="46.19"/><rect class="cls-3" x="291.3" y="157.23" width="214.25" height="7.96"/><rect class="cls-3" x="291.3" y="168" width="214.25" height="7.96"/><rect class="cls-3" x="291.3" y="178.91" width="214.25" height="7.96"/><polygon class="cls-8" points="191.55 127.54 229.98 81.35 191.55 81.35 191.55 127.54"/><polygon class="cls-8" points="135.47 143.64 150.13 81.35 184.69 81.35 135.47 143.64"/><path class="cls-5" d="M73.83,110.26V92.53a2,2,0,0,1,.92-1.67l5.7-3.58,2.12,3.6-3.9,2.5A2,2,0,0,0,77.77,95v15.22Z"/><path class="cls-2" d="M135.47,146h8a0,0,0,0,1,0,0v2.78a.47.47,0,0,1-.47.47h-7.09a.47.47,0,0,1-.47-.47V146a0,0,0,0,1,0,0Z"/><circle class="cls-4" cx="319.76" cy="213.08" r="26.9"/><circle class="cls-2" cx="319.76" cy="213.08" r="13.84"/><circle class="cls-5" cx="319.76" cy="213.08" r="11.33"/><circle class="cls-6" cx="319.76" cy="213.08" r="4.97"/><circle class="cls-4" cx="478.97" cy="213.08" r="26.9"/><circle class="cls-2" cx="478.97" cy="213.08" r="13.84"/><circle class="cls-5" cx="478.97" cy="213.08" r="11.33"/><circle class="cls-6" cx="478.97" cy="213.08" r="4.97"/></g></svg>