<svg xmlns="http://www.w3.org/2000/svg" xmlns:xlink="http://www.w3.org/1999/xlink" viewBox="0 0 292.88 185.57"><defs><style>.cls-1{isolation:isolate;}.cls-10,.cls-2,.cls-39{fill:none;stroke-miterlimit:10;}.cls-2{stroke:#bbb;stroke-linecap:round;stroke-width:1.39px;}.cls-3{fill:url(#linear-gradient);}.cls-4{fill:#b298a2;}.cls-5{fill:url(#linear-gradient-2);}.cls-6{fill:#383534;}.cls-7{fill:#edc5a4;}.cls-8{fill:#999393;}.cls-9{fill:#716a6a;}.cls-10{stroke:#8a8384;stroke-width:0.69px;}.cls-11{fill:#f2ef89;}.cls-12{fill:#a5a0a0;}.cls-13{fill:#eaeaea;}.cls-14{fill:#e1e0cf;}.cls-15{fill:#f9f294;}.cls-16{fill:#dbd8bd;}.cls-17,.cls-38{opacity:0.19;mix-blend-mode:multiply;}.cls-17{fill:url(#linear-gradient-3);}.cls-18{fill:#bbb;}.cls-19{fill:#a3a1a1;}.cls-20{fill:#2e368f;}.cls-21{fill:#d41f40;}.cls-22{fill:#fff;}.cls-23{fill:#303030;}.cls-24{fill:#fdd1b2;}.cls-25{fill:url(#radial-gradient);}.cls-26{fill:#d6bb65;}.cls-27{fill:#fee4d2;}.cls-28{fill:#e6a48d;}.cls-29{fill:#e9be96;}.cls-30{fill:#504f4b;}.cls-31{fill:#7b9fba;}.cls-32{fill:#96bac6;}.cls-33{fill:#8bb0c1;}.cls-34{fill:#9ec3cc;}.cls-35{fill:#ead8e0;}.cls-36{fill:#f7e4ea;}.cls-37{fill:#e6d0d8;}.cls-38{fill:url(#linear-gradient-4);}.cls-39{stroke:#737264;stroke-width:0.35px;}</style><linearGradient id="linear-gradient" x1="104.55" y1="84.04" x2="219.42" y2="84.04" gradientUnits="userSpaceOnUse"><stop offset="0" stop-color="#fae979"/><stop offset="0.28" stop-color="#faeb83"/><stop offset="0.75" stop-color="#fbf19c"/><stop offset="1" stop-color="#fbf5ad"/></linearGradient><linearGradient id="linear-gradient-2" x1="56.31" y1="118.74" x2="268.71" y2="118.74" gradientUnits="userSpaceOnUse"><stop offset="0" stop-color="#fbe27c"/><stop offset="0.28" stop-color="#fbe584"/><stop offset="0.72" stop-color="#fbef9b"/><stop offset="0.96" stop-color="#fbf5aa"/><stop offset="1" stop-color="#fbf5ad"/></linearGradient><linearGradient id="linear-gradient-3" x1="118.78" y1="115.96" x2="162.51" y2="115.96" gradientUnits="userSpaceOnUse"><stop offset="0" stop-color="#fbdb7a"/><stop offset="0.28" stop-color="#fbe084"/><stop offset="0.76" stop-color="#fbed9d"/><stop offset="1" stop-color="#fbf5ad"/></linearGradient><radialGradient id="radial-gradient" cx="321.95" cy="296.85" r="3.79" gradientTransform="translate(-131.66 -225.87)" gradientUnits="userSpaceOnUse"><stop offset="0" stop-color="#f3776b" stop-opacity="0.3"/><stop offset="0.61" stop-color="#f27a94" stop-opacity="0.1"/><stop offset="1" stop-color="#f27baa" stop-opacity="0"/></radialGradient><linearGradient id="linear-gradient-4" x1="54.23" y1="109.36" x2="171.63" y2="109.36" gradientUnits="userSpaceOnUse"><stop offset="0" stop-color="#faf17d"/><stop offset="0.3" stop-color="#faf287"/><stop offset="0.79" stop-color="#fbf4a0"/><stop offset="1" stop-color="#fbf5ad"/></linearGradient></defs><title>รถ</title><g class="cls-1"><g id="รถ"><line class="cls-2" x1="260.38" y1="96.29" x2="260.38" y2="73.45"/><path class="cls-3" d="M219.42,112.32H104.55l10-49c0-4.2,3-7.61,6.73-7.61H204.6c3.43,0,6.22,3.15,6.22,7Z"/><path class="cls-4" d="M166.33,60.61V90.46H210.4s-2.78-29.85-5.55-29.15Z"/><path class="cls-5" d="M84.24,94.62H237a31.7,31.7,0,0,1,31.7,31.7v16.54a0,0,0,0,1,0,0H56.31a0,0,0,0,1,0,0V122.55A27.93,27.93,0,0,1,84.24,94.62Z"/><circle class="cls-6" cx="98.13" cy="143.03" r="20.65"/><path class="cls-7" d="M184.37,72.41,184,77.27s3.12,3.82,6.25,3.82c0,0,3.82,1,4.51.35l.35-3.47Z"/><circle class="cls-6" cx="227.58" cy="143.03" r="20.65"/><circle class="cls-8" cx="97.96" cy="142.86" r="9.72"/><path class="cls-9" d="M96.29,150.49s.28-2.42,1.67-2.42,1.67,2.42,1.67,2.42Z"/><path class="cls-9" d="M101.58,149.78s-1.35-2-.28-2.93,2.83.79,2.83.79Z"/><path class="cls-9" d="M105.18,145.83s-2.34-.69-2.1-2.06,2.68-1.22,2.68-1.22Z"/><path class="cls-9" d="M105.4,140.49s-2.24,1-2.93-.23,1.27-2.65,1.27-2.65Z"/><path class="cls-9" d="M102.13,136.26S101,138.44,99.74,138s-.74-2.85-.74-2.85Z"/><path class="cls-9" d="M96.91,135.12s.57,2.37-.74,2.85-2.39-1.71-2.39-1.71Z"/><path class="cls-9" d="M92.18,137.6s2,1.45,1.27,2.65-2.93.23-2.93.23Z"/><path class="cls-9" d="M90.15,142.55s2.44-.15,2.68,1.22-2.1,2.06-2.1,2.06Z"/><path class="cls-9" d="M91.78,147.64s1.77-1.68,2.83-.79-.28,2.93-.28,2.93Z"/><circle class="cls-10" cx="97.96" cy="142.86" r="7.81"/><polygon class="cls-11" points="70.89 136.58 79.21 118.57 119.38 118.57 127.11 136.58 120.45 136.61 112.92 127.41 83.16 127.41 75.63 136.61 70.89 136.58"/><circle class="cls-8" cx="227.75" cy="142.86" r="9.72"/><path class="cls-9" d="M226.09,150.49s.28-2.42,1.67-2.42,1.67,2.42,1.67,2.42Z"/><path class="cls-9" d="M231.38,149.78s-1.35-2-.28-2.93,2.83.79,2.83.79Z"/><path class="cls-9" d="M235,145.83s-2.34-.69-2.1-2.06,2.68-1.22,2.68-1.22Z"/><path class="cls-9" d="M235.19,140.49s-2.24,1-2.93-.23,1.27-2.65,1.27-2.65Z"/><path class="cls-9" d="M231.93,136.26s-1.09,2.18-2.39,1.71-.74-2.85-.74-2.85Z"/><path class="cls-9" d="M226.71,135.12s.57,2.37-.74,2.85-2.39-1.71-2.39-1.71Z"/><path class="cls-9" d="M222,137.6s2,1.45,1.27,2.65-2.93.23-2.93.23Z"/><path class="cls-9" d="M220,142.55s2.44-.15,2.68,1.22-2.1,2.06-2.1,2.06Z"/><path class="cls-9" d="M221.57,147.64s1.77-1.68,2.83-.79-.28,2.93-.28,2.93Z"/><circle class="cls-10" cx="227.75" cy="142.86" r="7.81"/><path class="cls-11" d="M201.38,136.69s2.07-21.59,26.37-21.59,27,21.48,27,21.48-7.95.38-7.95,0c0-13.07-18-15.27-18-15.27s-19.5,2.83-20.48,15.27Z"/><path class="cls-8" d="M56.31,142.86H77.48l6.3-14.67h28.7l6.3,14.67h88.15a23.05,23.05,0,0,1,1.36-6.28A20.28,20.28,0,0,1,220.39,124a20.82,20.82,0,0,1,16.08.62,19.1,19.1,0,0,1,10.52,12,29.45,29.45,0,0,1,1.25,6.23h20.48v-6.28l-18.39,0c-1-4.16-6.59-17-21.52-17-13.88,0-21.52,8.68-23.6,17H121.9l-5.55-13.19H81.64l-6.59,13.19H56.31Z"/><path class="cls-6" d="M265.6,102.66v32.83a1.13,1.13,0,0,0,1.13,1.13H270a1.13,1.13,0,0,0,1.13-1.13V104.63a1.13,1.13,0,0,0-.55-1l-3.28-2A1.13,1.13,0,0,0,265.6,102.66Z"/><polygon class="cls-12" points="265.58 100.52 265.58 136.61 267.5 136.58 267.5 101.8 265.58 100.52"/><polygon class="cls-12" points="267.32 104.69 271.13 107.3 271.13 109.2 267.5 106.77 267.32 104.69"/><polygon class="cls-12" points="267.32 109.54 271.13 112.16 271.13 114.06 267.5 111.63 267.32 109.54"/><polygon class="cls-12" points="267.32 114.4 271.13 117.02 271.13 118.91 267.5 116.48 267.32 114.4"/><polygon class="cls-12" points="267.32 119.26 271.13 121.88 271.13 123.77 267.5 121.34 267.32 119.26"/><polygon class="cls-12" points="267.32 124.12 271.13 126.73 271.13 128.63 267.5 126.2 267.32 124.12"/><polygon class="cls-13" points="161.47 60.61 161.47 90.8 120.17 90.8 124.33 62.34 127.11 60.61 161.47 60.61"/><polygon class="cls-12" points="267.32 128.98 271.13 131.59 271.13 133.49 267.5 131.06 267.32 128.98"/><rect class="cls-14" x="260.38" y="95.31" width="5.21" height="19.09" rx="2.01" ry="2.01"/><path class="cls-15" d="M214.57,95.31v22.54s-12.14,7-12.15,18.76l-38.06.07V95.31Z"/><rect class="cls-16" x="168.06" y="98.44" width="9.02" height="1.74"/><polygon class="cls-17" points="118.78 95.31 118.78 118.57 119.47 118.57 127.01 136.61 162.51 136.61 162.51 95.31 118.78 95.31"/><rect class="cls-16" x="122.6" y="98.44" width="9.02" height="1.74"/><path class="cls-18" d="M202.18,61a4.11,4.11,0,0,1,4.09,3.52l3.91,26h-43.5V61h35.5m0-1.39H165.28V91.84h46.5l-4.15-27.58a5.52,5.52,0,0,0-5.46-4.7Z"/><path class="cls-18" d="M160.77,61v29.5H120.39l4.05-26.92a3,3,0,0,1,3-2.58h33.33m1.39-1.39H127.45a4.42,4.42,0,0,0-4.37,3.76l-4.29,28.51h43.38V59.57Z"/><rect class="cls-19" x="162.16" y="59.57" width="3.12" height="32.28"/><rect class="cls-8" x="54.23" y="131.41" width="4.86" height="11.45"/><rect class="cls-20" x="259.34" y="74.14" width="20.82" height="11.45"/><rect class="cls-21" x="259.34" y="74.14" width="20.82" height="2.78"/><rect class="cls-21" x="259.34" y="82.82" width="20.82" height="2.78"/><rect class="cls-22" x="259.34" y="81.78" width="20.82" height="2.08"/><rect class="cls-22" x="259.34" y="75.88" width="20.82" height="2.08"/><path class="cls-23" d="M183.93,72s-5,1.88-7.26-3.92c-1.67-4.38-.63-3-1.93-4.73s-2.4-5.11-1.48-7.28c0,0-.82-5.56,4.16-8.33,0,0,1,.89,2.19-2.05s5.89-2.52,6.84-2.81,4.68-1.15,6.39-.62a32.77,32.77,0,0,0,4.37,1.31c1.21.16,2.93.14,3.79,1.3s1.69,2.68,2.11,3.21a2.84,2.84,0,0,1,1,1.74c.43,1.43-.85,4.31-.85,4.31Z"/><path class="cls-24" d="M184,66.38s-2-1.78-3.41-.36a2.37,2.37,0,0,0-.59,2.24,5,5,0,0,0,3.9,3.84s2.18,4.27,4.54,5.25,9.64,1,10.07.75c1.17-.74,3.77-4.25,4.86-6.28a3.76,3.76,0,0,0,.44-1.58c.08-1.43.24-4.53.22-4.93s0-7.38-.06-8-.81-7.92-5.68-7.76a7.17,7.17,0,0,0-3.17,2c-1,1.34-4.41,1.7-4.52,1.35,0,0-2,1.51-3.91.78,0,0-3.25.84-5.23-1a5.79,5.79,0,0,0,2.65,8Z"/><ellipse class="cls-25" cx="190.28" cy="70.98" rx="4.1" ry="3.47" transform="translate(-12.35 57.33) rotate(-16.6)"/><path class="cls-26" d="M196.74,68.92l-.13,0-7.09.85a.76.76,0,0,1-.84-.59l-1-4.56a.76.76,0,0,1,.5-.89,18.48,18.48,0,0,1,8.5-1,.77.77,0,0,1,.65.76l0,4.69A.77.77,0,0,1,196.74,68.92Zm-8.6-4.38,1,4.56a.27.27,0,0,0,.29.21l7.09-.85a.27.27,0,0,0,.24-.26l0-4.69a.26.26,0,0,0-.23-.27,18,18,0,0,0-8.27,1,.27.27,0,0,0-.18.31Z"/><path class="cls-26" d="M206,68.36l-.13,0h0l-3.44,0c-.15,0-1.17.08-1.29-.45v0l-.56-4.69a.75.75,0,0,1,.51-.88h0c3-.87,4.36-.43,5.44-.07a.8.8,0,0,1,.61.75v0l-.56,4.58A.77.77,0,0,1,206,68.36Zm-.17-.47a.27.27,0,0,0,.22-.26v0l.56-4.57c0-.16-.19-.24-.27-.26-1.07-.35-2.28-.75-5.15.08h0a.26.26,0,0,0-.16.31v0l.55,4.65a1.72,1.72,0,0,0,.77.09h0Z"/><path class="cls-26" d="M200.82,65a1.71,1.71,0,0,0-1.23-.71,3.86,3.86,0,0,0-2.39,1l-.34-.36a4.28,4.28,0,0,1,2.76-1.17,2.19,2.19,0,0,1,1.59.9Z"/><polygon class="cls-26" points="188.1 65.71 183.69 65.79 183.53 66.05 183.11 65.79 183.41 65.3 188.09 65.21 188.1 65.71"/><ellipse class="cls-23" cx="193.63" cy="65.14" rx="0.81" ry="1.16" transform="translate(-5.88 21.18) rotate(-6.17)"/><ellipse class="cls-23" cx="202.89" cy="64.05" rx="0.71" ry="1.1" transform="translate(-5.71 22.17) rotate(-6.17)"/><path class="cls-27" d="M199.28,64.87a7.46,7.46,0,0,1,1.33,1.42A1.9,1.9,0,0,1,200,68"/><path class="cls-28" d="M199.6,71.14a.17.17,0,0,0-.06-.12.18.18,0,0,0-.13,0h-.12a.17.17,0,0,0-.16.18s0,.94-1.32,1.24-1.74-.52-1.75-.56a.17.17,0,0,0-.23-.09l-.11,0a.17.17,0,0,0-.09.23,1.73,1.73,0,0,0,1.65.91,3,3,0,0,0,.64-.07l.25-.06h0A1.73,1.73,0,0,0,199.6,71.14Z"/><path class="cls-23" d="M194.73,60.92a.12.12,0,0,1-.13,0,2.31,2.31,0,0,0-1.49-.7,3.15,3.15,0,0,0-2.27,1,.12.12,0,1,1-.17-.18,3.38,3.38,0,0,1,2.46-1,2.52,2.52,0,0,1,1.66.79.12.12,0,0,1,0,.17Z"/><path class="cls-23" d="M203.32,60.17h0a.12.12,0,0,1-.14-.11s-.07-.52-.84-.51a.92.92,0,0,0-.93.73.12.12,0,0,1-.24,0,1.17,1.17,0,0,1,1.17-.93c1,0,1.09.73,1.09.73A.12.12,0,0,1,203.32,60.17Z"/><path class="cls-29" d="M181.1,67.86a.84.84,0,0,1,.35-.75.46.46,0,0,1,.4-.08,3.81,3.81,0,0,1,1.72,1.43s-.67-.06-.58,1.08c0,0,.18.59.45.64A2.39,2.39,0,0,1,181.1,67.86Z"/><polygon class="cls-30" points="178.13 47.77 181.45 52.64 181.34 52.86 177.43 47.77 178.13 47.77"/><polygon class="cls-31" points="181.6 78.31 174.66 84.9 172.57 90.46 196.52 90.46 198.6 90.46 195.82 84.56 181.6 78.31"/><polygon class="cls-32" points="181.35 78.54 189.93 88.37 194.78 88.37 193.81 90.46 196.87 90.46 192.35 84.9 181.6 78.31 181.35 78.54"/><path class="cls-33" d="M195.79,81.18l5.59,4.07,1.74,5.21h-6.59l-.35-.69S194.71,81.27,195.79,81.18Z"/><polygon class="cls-34" points="196.24 81.62 198.25 86.64 196.52 88.37 198.43 90.46 196.24 90.46 195.48 80.74 196.24 81.62"/><polygon class="cls-35" points="194.09 80.39 195.48 85.6 196.17 89.76 192.01 84.56 194.09 80.39"/><path class="cls-36" d="M184.37,74.14l-1.39.69-1.39,3.47s5.9,5.55,10.76,7.29l1.74-5.21s-7.41,0-10-4.69l.24-.87Z"/><polygon class="cls-37" points="194.99 79.35 195.48 80.04 196.13 89.52 194.43 81.67 194.99 79.35"/><polygon class="cls-36" points="195.48 80.04 196.52 83.86 195.82 84.56 195.48 80.04"/><path class="cls-33" d="M174.65,84.9l3.47-.69s3.47,1.39,4.51,3.82l.94,2.43h-11Z"/><path class="cls-38" d="M171.63,55.75l-43.3,86.94h-9.72L92.85,163s-8.66-2.59-11.41-7.81a20.33,20.33,0,0,1-4-12.33H54.23V131.41H56.3l0-24.25a13.38,13.38,0,0,1,5.24-9.77,12.05,12.05,0,0,1,7.14-2.73c4.43-.22,39.43,0,39.43,0l6.6-33.32s.81-4.22,4.76-5.34c0,0,.74-.43,3.56-.25Z"/><rect class="cls-15" x="99" y="98.44" width="15.27" height="10.76"/><line class="cls-39" x1="164.36" y1="94.62" x2="164.36" y2="136.61"/></g></g></svg>