<svg xmlns="http://www.w3.org/2000/svg" viewBox="0 0 668 557.92"><defs><style>.cls-1{isolation:isolate;}.cls-2{fill:#fff;}.cls-3,.cls-9{fill:#423b50;}.cls-4{fill:#a05d56;}.cls-5{fill:#d2aa62;}.cls-6{fill:#cd675d;}.cls-7{opacity:0.25;mix-blend-mode:multiply;}.cls-8{fill:#484257;}.cls-9{opacity:0.18;}.cls-10{fill:#d2aa64;}</style></defs><title>วัด</title><g class="cls-1"><g id="วัด"><rect class="cls-2" x="116.37" y="298.83" width="75.63" height="15.06"/><rect class="cls-2" x="124.63" y="263.15" width="59.09" height="24.84"/><polygon class="cls-3" points="154.19 319.81 154.19 319.81 88.62 319.81 95.7 331.85 154.19 331.85 154.19 331.85 212.68 331.85 219.76 319.81 154.19 319.81"/><rect class="cls-4" x="123.43" y="319.8" width="6.01" height="12.04"/><rect class="cls-4" x="151.18" y="319.8" width="6.01" height="12.04"/><rect class="cls-4" x="178.89" y="319.8" width="6.01" height="12.04"/><rect class="cls-4" x="130.07" y="298.82" width="6.01" height="15.07"/><rect class="cls-4" x="140.68" y="272.78" width="6.01" height="15.21"/><rect class="cls-4" x="161.77" y="272.78" width="6.01" height="15.21"/><rect class="cls-4" x="151.2" y="298.82" width="6.01" height="15.07"/><rect class="cls-4" x="172.29" y="298.82" width="6.01" height="15.07"/><rect class="cls-2" x="95.71" y="336.8" width="116.95" height="69.34"/><polygon class="cls-5" points="99.97 313.9 88.62 319.79 219.76 319.79 207.79 313.9 99.97 313.9"/><rect class="cls-2" x="78.93" y="422.71" width="150.85" height="110.81"/><polygon class="cls-6" points="78.93 447.58 78.93 482.43 229.78 482.43 229.78 444.42 78.93 444.42 78.93 447.58"/><rect class="cls-4" x="78.93" y="477.68" width="150.85" height="4.75"/><rect class="cls-3" x="118.81" y="503.81" width="10.77" height="20.2"/><rect class="cls-3" x="138.92" y="503.81" width="10.77" height="20.2"/><rect class="cls-3" x="159.02" y="503.81" width="10.77" height="20.2"/><rect class="cls-3" x="179.13" y="503.81" width="10.77" height="20.2"/><rect class="cls-4" x="78.93" y="444.22" width="150.85" height="4.95"/><ellipse class="cls-5" cx="93.15" cy="463.03" rx="9.08" ry="9.11"/><ellipse class="cls-5" cx="153.17" cy="463.03" rx="9.08" ry="9.11"/><ellipse class="cls-5" cx="213.19" cy="463.03" rx="9.08" ry="9.11"/><rect class="cls-3" x="111.11" y="453.52" width="26.46" height="35.24"/><rect class="cls-3" x="171.14" y="453.52" width="26.46" height="35.24"/><rect class="cls-5" x="111.11" y="482.43" width="26.46" height="6.34"/><rect class="cls-5" x="171.14" y="482.43" width="26.46" height="6.34"/><polygon class="cls-3" points="154.17 415.15 74.72 415.15 78.93 422.71 154.17 422.71 229.76 422.71 233.98 415.15 154.17 415.15"/><rect class="cls-4" x="91.91" y="415.15" width="6.4" height="7.56"/><rect class="cls-4" x="121.44" y="415.15" width="6.4" height="7.56"/><rect class="cls-4" x="150.97" y="415.15" width="6.4" height="7.56"/><rect class="cls-4" x="180.5" y="415.15" width="6.4" height="7.56"/><rect class="cls-4" x="210.03" y="415.15" width="6.4" height="7.56"/><path class="cls-5" d="M234,414.73l-7.45-4.41c7.91-4.62,2.39-15.68,2.39-15.68a13.73,13.73,0,0,1-9.44,11.47l0,0H88.52a13.68,13.68,0,0,1-9.59-11.47s-5.68,11.25,2.69,15.76l-6.9,4.29Z"/><polygon class="cls-6" points="95.71 355.73 95.71 390.58 212.66 390.58 212.66 352.56 95.71 352.56 95.71 355.73"/><rect class="cls-4" x="95.71" y="385.82" width="116.95" height="4.75"/><rect class="cls-4" x="95.71" y="352.36" width="116.95" height="4.95"/><rect class="cls-4" x="95.7" y="331.85" width="116.95" height="4.95"/><rect class="cls-4" x="116.37" y="293.86" width="75.63" height="5.11"/><rect class="cls-3" x="140.94" y="361.67" width="26.46" height="28.91"/><rect class="cls-5" x="140.94" y="390.58" width="26.46" height="6.34"/><ellipse class="cls-5" cx="108.01" cy="371.47" rx="7.18" ry="7.2"/><ellipse class="cls-5" cx="130.02" cy="371.47" rx="7.18" ry="7.2"/><ellipse class="cls-5" cx="178.32" cy="371.47" rx="7.18" ry="7.2"/><ellipse class="cls-5" cx="200.33" cy="371.47" rx="7.18" ry="7.2"/><rect class="cls-4" x="113.71" y="287.99" width="80.92" height="6.02"/><rect class="cls-3" x="124.63" y="263.15" width="59.09" height="4.92"/><rect class="cls-4" x="124.63" y="268.08" width="59.09" height="4.7"/><path class="cls-5" d="M186.9,254.87c0,4.92-8,6.29-8,6.29h0c-6-3.82-16.46-11.64-24.72-28.52-8.26,16.88-18.73,24.83-24.72,28.29,0,0-7.61-1-7.58-5.92a5.65,5.65,0,0,0,2.76,8.06h59.11A6.11,6.11,0,0,0,186.9,254.87Z"/><g class="cls-7"><path class="cls-3" d="M129.45,319.84H88.62l7.08,12v4.95h0v69.34h-7.2a13.68,13.68,0,0,1-9.59-11.46s-5.68,11.46,2.69,16l-6.9,4.5,4.21,7.56V533.55h75.24V319.84H129.45Z"/><polygon class="cls-3" points="88.62 319.83 154.17 319.83 154.17 313.94 99.97 313.94 88.62 319.83"/><path class="cls-3" d="M129.45,260.89s-7.61-.92-7.58-5.84c0,0-2.94,5.46,2.76,8.14V288H113.71v6h2.66v19.88h37.8v-81.4h0C145.91,249.41,135.45,257.43,129.45,260.89Z"/></g><rect class="cls-2" x="239.62" y="371.96" width="396.67" height="163.5"/><polygon class="cls-5" points="636.29 408.67 636.29 460.09 239.62 460.09 239.62 404 636.29 404 636.29 408.67"/><rect class="cls-4" x="239.62" y="453.08" width="396.67" height="7.01"/><rect class="cls-8" x="561.55" y="491.64" width="15.89" height="29.8"/><rect class="cls-8" x="531.88" y="491.64" width="15.89" height="29.8"/><rect class="cls-8" x="502.22" y="491.64" width="15.89" height="29.8"/><rect class="cls-8" x="472.56" y="491.64" width="15.89" height="29.8"/><rect class="cls-4" x="239.62" y="403.7" width="396.67" height="7.3"/><rect class="cls-8" x="549.76" y="417.43" width="39.04" height="52" transform="translate(1138.56 886.87) rotate(-180)"/><rect class="cls-8" x="461.19" y="417.43" width="39.04" height="52" transform="translate(961.43 886.87) rotate(-180)"/><rect class="cls-5" x="549.76" y="460.09" width="39.04" height="9.35"/><rect class="cls-5" x="461.19" y="460.09" width="39.04" height="9.35"/><polygon class="cls-8" points="525.27 360.81 642.49 360.81 636.29 371.96 525.27 371.96 239.65 371.96 233.42 360.81 525.27 360.81"/><rect class="cls-5" x="607.69" y="360.81" width="9.45" height="11.16"/><rect class="cls-5" x="564.12" y="360.81" width="9.45" height="11.16"/><rect class="cls-5" x="520.54" y="360.81" width="9.45" height="11.16"/><rect class="cls-5" x="476.97" y="360.81" width="9.45" height="11.16"/><rect class="cls-5" x="433.4" y="360.81" width="9.45" height="11.16"/><rect class="cls-4" x="233.42" y="347.52" width="409.08" height="13.29"/><rect class="cls-8" x="385.32" y="491.64" width="15.89" height="29.8"/><rect class="cls-8" x="355.65" y="491.64" width="15.89" height="29.8"/><rect class="cls-8" x="325.99" y="491.64" width="15.89" height="29.8"/><rect class="cls-8" x="296.33" y="491.64" width="15.89" height="29.8"/><rect class="cls-8" x="373.53" y="417.43" width="39.04" height="52" transform="translate(786.1 886.87) rotate(-180)"/><rect class="cls-8" x="284.97" y="417.43" width="39.04" height="52" transform="translate(608.97 886.87) rotate(-180)"/><rect class="cls-5" x="373.53" y="460.09" width="39.04" height="9.35"/><rect class="cls-5" x="284.97" y="460.09" width="39.04" height="9.35"/><rect class="cls-5" x="387.89" y="360.81" width="9.45" height="11.16"/><rect class="cls-5" x="344.32" y="360.81" width="9.45" height="11.16"/><rect class="cls-5" x="300.74" y="360.81" width="9.45" height="11.16"/><rect class="cls-5" x="257.17" y="360.81" width="9.45" height="11.16"/><polygon class="cls-9" points="642.49 347.97 643.16 361.04 636.96 371.96 636.96 534.86 448.06 534.86 448.06 347.97 642.49 347.97"/><rect class="cls-2" x="299.47" y="244.42" width="142.3" height="103.55"/><rect class="cls-4" x="299.47" y="259.58" width="142.3" height="21.47"/><rect class="cls-5" x="343.54" y="264.63" width="55.41" height="64.4"/><rect class="cls-5" x="337.25" y="254.53" width="68" height="12.63"/><rect class="cls-3" x="378.8" y="275.99" width="13.85" height="42.93"/><rect class="cls-3" x="349.84" y="275.99" width="13.85" height="42.93"/><polygon class="cls-3" points="343.93 233.9 461.15 233.9 454.94 245.06 343.93 245.06 286.32 245.06 280.09 233.9 343.93 233.9"/><rect class="cls-4" x="280.09" y="220.61" width="181.06" height="13.29"/><polygon class="cls-5" points="280.09 220.61 325.5 209.45 419.1 209.45 461.15 220.61 280.09 220.61"/><rect class="cls-10" x="328.43" y="178.76" width="89.41" height="30.31"/><rect class="cls-4" x="320.88" y="163.61" width="105.78" height="15.15"/><path class="cls-4" d="M306.43,147.24c-.06,10.2,15.7,12.58,15.7,12.58h0c12.42-7.58,34.09-24.19,51.2-59.15,17.11,35,38.78,51.38,51.2,58.54,0,0,15.76-2.09,15.7-12.28,0,0,6.08,10.75-5.72,16.67H312.15C300.35,157.68,306.43,147.24,306.43,147.24Z"/><polygon class="cls-10" points="325.5 209.45 328.43 209.07 417.84 209.07 419.1 209.45 392.66 215.03 343.55 216.41 325.5 209.45"/></g></g></svg>