<?xml version="1.0" encoding="utf-8"?>
<!-- Generator: Adobe Illustrator 17.0.0, SVG Export Plug-In . SVG Version: 6.00 Build 0)  -->
<!DOCTYPE svg PUBLIC "-//W3C//DTD SVG 1.1//EN" "http://www.w3.org/Graphics/SVG/1.1/DTD/svg11.dtd">
<svg version="1.1" id="Layer_1" xmlns="http://www.w3.org/2000/svg" xmlns:xlink="http://www.w3.org/1999/xlink" x="0px" y="0px"
	 width="700px" height="375px" viewBox="0 0 700 375" enable-background="new 0 0 700 375" xml:space="preserve">
<g id="background_แค่แถวบน">
</g>
<g id="text">
</g>
<g id="ปุ่มซ้ายขวา" display="none">
</g>
<g id="ชื่อประเทศ" display="none">
</g>
<g id="Layer_5">
</g>
<g id="รถในหลวง" display="none">
</g>
<path d="M450.438,16.265h21.42c1.322,0,2.394,1.072,2.394,2.394v0.447c0,1.322-1.072,2.394-2.394,2.394h-21.42
	c-1.322,0-2.394-1.072-2.394-2.394v-0.447C448.045,17.337,449.116,16.265,450.438,16.265z"/>
<path d="M77.534,85.627h15.514c1.322,0,2.394,1.072,2.394,2.394v0.447c0,1.322-1.072,2.394-2.394,2.394H77.534
	c-1.322,0-2.394-1.072-2.394-2.394v-0.447C75.141,86.699,76.212,85.627,77.534,85.627z"/>
<path d="M503.959,43.562h21.42c1.322,0,2.394,1.072,2.394,2.394v0.447c0,1.322-1.072,2.394-2.394,2.394h-21.42
	c-1.322,0-2.394-1.072-2.394-2.394v-0.447C501.566,44.633,502.637,43.562,503.959,43.562z"/>
<path d="M592.957,42.311h21.42c1.322,0,2.394,1.072,2.394,2.394v0.447c0,1.322-1.072,2.394-2.394,2.394h-21.42
	c-1.322,0-2.394-1.072-2.394-2.394v-0.447C590.563,43.383,591.635,42.311,592.957,42.311z"/>
<path d="M374.197,56.989c0,0,8.913-7.558,13.298-1.495C391.881,61.557,374.197,56.989,374.197,56.989z"/>
<path d="M132.662,39.18c0,0-8.913-7.558-13.298-1.495C114.978,43.748,132.662,39.18,132.662,39.18z"/>
<path d="M310.417,67.574c0,0,3.168,2.688,4.73,0.53C316.708,65.947,310.417,67.574,310.417,67.574z"/>
<path d="M454.725,44.125c0,0,4.991,4.233,7.455,0.828S454.725,44.125,454.725,44.125z"/>
<path d="M633.196,75.601c0,0-4.991,4.233-7.455,0.828C623.277,73.025,633.196,75.601,633.196,75.601z"/>
</svg>
