<svg xmlns="http://www.w3.org/2000/svg" xmlns:xlink="http://www.w3.org/1999/xlink" viewBox="0 0 1960 1000"><defs><style>.cls-1,.cls-29{fill:none;}.cls-2{isolation:isolate;}.cls-3{fill:#fff;}.cls-4{fill:#d9464e;}.cls-5{fill:url(#linear-gradient);}.cls-6{fill:url(#linear-gradient-2);}.cls-7{fill:url(#linear-gradient-3);}.cls-8{clip-path:url(#clip-path);}.cls-9{fill:#50685c;}.cls-10{fill:#f2f2f2;}.cls-11{fill:#301627;}.cls-12{fill:url(#linear-gradient-4);}.cls-13{fill:url(#linear-gradient-5);}.cls-14{fill:url(#linear-gradient-6);}.cls-15{fill:url(#linear-gradient-7);}.cls-16{fill:url(#linear-gradient-8);}.cls-17{fill:#cc665d;}.cls-18{fill:#9f5d56;}.cls-19,.cls-21,.cls-24{fill:#413a4f;}.cls-20{fill:#d1a962;}.cls-21,.cls-24,.cls-28{opacity:0.18;}.cls-22{fill:#c9514c;}.cls-23{fill:#cb9a3b;}.cls-24{mix-blend-mode:multiply;}.cls-25{fill:#ac4b3e;}.cls-26{fill:#bf5645;}.cls-27{fill:#474156;}.cls-29{stroke:#fff;stroke-miterlimit:10;stroke-width:2.49px;}.cls-30{fill:#843a36;}</style><linearGradient id="linear-gradient" x1="2099.5" y1="341.53" x2="2099.5" y2="68.98" gradientUnits="userSpaceOnUse"><stop offset="0" stop-color="#fbbf88"/><stop offset="0.18" stop-color="#f6be88"/><stop offset="0.39" stop-color="#e7b98a"/><stop offset="0.62" stop-color="#cfb38c"/><stop offset="0.87" stop-color="#ada98e"/><stop offset="1" stop-color="#98a390"/></linearGradient><linearGradient id="linear-gradient-2" x1="1392.74" y1="823.36" x2="1392.74" y2="252.79" gradientTransform="matrix(-1, 0, 0, 1, 1974.07, 0)" xlink:href="#linear-gradient"/><linearGradient id="linear-gradient-3" x1="47.96" y1="614.41" x2="47.96" y2="43.83" xlink:href="#linear-gradient"/><clipPath id="clip-path"><rect class="cls-1" x="-285.85" y="-179.13" width="2632.8" height="1179.13"/></clipPath><linearGradient id="linear-gradient-4" x1="1356.36" y1="924.19" x2="1990.39" y2="924.19" gradientUnits="userSpaceOnUse"><stop offset="0.64" stop-color="#a2544c"/><stop offset="0.83" stop-color="#9c4a40"/></linearGradient><linearGradient id="linear-gradient-5" x1="1658.26" y1="924.38" x2="1689.88" y2="924.38" xlink:href="#linear-gradient-4"/><linearGradient id="linear-gradient-6" x1="450.57" y1="925.14" x2="2137.54" y2="925.14" xlink:href="#linear-gradient-4"/><linearGradient id="linear-gradient-7" x1="605.38" y1="924.29" x2="2515.51" y2="924.29" xlink:href="#linear-gradient-4"/><linearGradient id="linear-gradient-8" x1="605.38" y1="924.66" x2="2515.51" y2="924.66" xlink:href="#linear-gradient-4"/></defs><title>ภูฏานแก้</title><g class="cls-2"><g id="Layer_1" data-name="Layer 1"><path class="cls-3" d="M793.26,522.89c0-6.18-7.69-11.19-17.16-11.19a24.18,24.18,0,0,0-9.13,1.72,10,10,0,0,0-2.63-.38c-.91-3.78-5.92-6.68-12-6.68a17.71,17.71,0,0,0-4.89.67c-1.63-3.11-3.53-5.89-10.24-7-8.14-1.33-13.91,2.47-15.1,6-1.49-.44-1.11,1.15-2.85,1.15a15.51,15.51,0,0,0-8.52,2.35,6.51,6.51,0,0,0-2.87-.63c-2.62,0-4.75,1.39-4.75,3.1,0,0,0,.07,0,.11-7.73.57-13.74,4.85-13.74,10a6.71,6.71,0,0,0,.05.82l-.05,0H793.26s0-.1,0-.14Z"/><polygon class="cls-4" points="1220.4 516.84 1242.19 557.7 1263.98 516.84 1220.4 516.84"/><path class="cls-3" d="M1866.88,349.44c0-6.18-25.75-11.19-57.47-11.19a256,256,0,0,0-30.59,1.72c-2.7-.23-5.67-.37-8.8-.38-3-3.78-19.84-6.68-40.1-6.68-5.83,0-11.37.24-16.38.67-5.47-3.11-11.82-5.89-34.3-7-27.26-1.33-46.58,2.47-50.57,6-5-.44-3.71,1.15-9.54,1.15a153.55,153.55,0,0,0-28.54,2.35,67.48,67.48,0,0,0-9.61-.63c-8.78,0-15.9,1.39-15.9,3.1a.63.63,0,0,0,0,.11c-25.88.57-46,4.85-46,10a2.14,2.14,0,0,0,.17.82l-.17,0h347.78s0-.1,0-.14Z"/><path class="cls-5" d="M1974.48,271h308.44s-15-73.42-115.29-65.64c0,0-7.49-57.85-74.86-38.94,0,0-31.44,8.9-25.45,38.94,0,0-9-12.24-31.44-6.67,0,0-16.47,5.56-13.48,17.8,0,0-29.95-7.79-31.44,13.35,0,0-70.37,4.45-74.86,41.16Z"/><path class="cls-3" d="M1902,189.95c0-6.18-7.69-11.19-17.16-11.19a24.18,24.18,0,0,0-9.13,1.72,10,10,0,0,0-2.63-.38c-.91-3.78-5.92-6.68-12-6.68a17.71,17.71,0,0,0-4.89.67c-1.63-3.11-3.53-5.89-10.24-7-8.14-1.33-13.91,2.47-15.1,6-1.49-.44-1.11,1.15-2.85,1.15a15.51,15.51,0,0,0-8.52,2.35,6.51,6.51,0,0,0-2.87-.63c-2.62,0-4.75,1.39-4.75,3.1,0,0,0,.07,0,.11-7.73.57-13.74,4.85-13.74,10a6.71,6.71,0,0,0,.05.82l-.05,0H1902s0-.1,0-.14Z"/><path class="cls-6" d="M772.62,580.22H300.71s22.91-153.71,176.39-137.4c0,0,11.45-121.1,114.54-81.51,0,0,48.11,18.63,38.94,81.51,0,0,13.74-25.62,48.11-14,0,0,25.2,11.64,20.62,37.26,0,0,45.82-16.3,48.11,27.95,0,0,107.67,9.32,114.54,86.17Z"/><path class="cls-7" d="M-143.33,466.79H328.58s-22.91-153.71-176.39-137.4c0,0-11.45-121.1-114.54-81.51,0,0-48.11,18.63-38.94,81.51,0,0-13.74-25.62-48.11-14,0,0-25.2,11.64-20.62,37.26,0,0-45.82-16.3-48.11,27.95,0,0-107.67,9.32-114.54,86.17Z"/><g class="cls-8"><path class="cls-9" d="M1892.49,476.28c45.91-.1,91.23,7.1,128.86,8.67-23.07-18-45.7-40.48-67.72-68.12-9.68-12.14-249.91,53.06-249.91,53.06C1589.61,482,1304.19,386.79,1198.78,406c-225.52,41.18-111.14,130-405.82,118.84l645.9,297C1495.7,754.89,1538.06,687,1579.51,611,1666.51,451.31,1853.75,476.36,1892.49,476.28Z"/><path class="cls-10" d="M2544,529.31c-20.83-15.29-65.37-28.08-115.14-38.14-84.67-17.11-184.48-26.3-208.49-26.3-38.12,0-91.88-23.23-131.07,0-16.48,9.77-39.77,11.6-67.11,10.46-37.67-1.56-83-8.76-129-8.67-38.79.08-226.24-25-313.34,134.69-41.5,76.07-83.91,143.92-140.81,210.87-33.43,39.33-71.85,78.35-118,118.53l1392.71,1.61v-183C2656.78,674,2600.23,570.6,2544,529.31Z"/><path class="cls-9" d="M-372,922.69V696.48c35.7-90.43,147.52-147.05,195.3-147.05,98.6,0,229,104.89,381,104.89s-185.66,267-185.66,267Z"/><path class="cls-11" d="M1674.07,924.38l2,.56Z"/><path class="cls-11" d="M1673.45,924.2l.62.18Z"/><path class="cls-11" d="M1673.37,924.18l.08,0Z"/><path class="cls-12" d="M1673.37,924.18l.08,0Z"/><path class="cls-11" d="M1674.07,924.38h0Z"/><path class="cls-13" d="M1674.07,924.38h0Z"/><path class="cls-11" d="M1676,924.94l1.4.4Z"/><path class="cls-14" d="M1676,924.94l1.4.4Z"/><path class="cls-15" d="M1673.45,924.2l.62.18Z"/><path class="cls-16" d="M1674.07,924.38l2,.56Z"/><rect class="cls-3" x="1797.22" y="356.54" width="119.09" height="79.76"/><rect class="cls-3" x="1797.22" y="370.25" width="119.09" height="28.2"/><polygon class="cls-3" points="1797.22 367.5 1797.22 370.25 1916.32 370.25 1916.32 367.25 1797.22 367.25 1797.22 367.5"/><polygon class="cls-3" points="1797.22 398.71 1797.22 401.46 1916.32 401.46 1916.32 398.46 1797.22 398.46 1797.22 398.71"/><rect class="cls-3" x="1727.63" y="577.56" width="258.33" height="15.23"/><rect class="cls-3" x="1812" y="370.25" width="19.02" height="35.57"/><rect class="cls-3" x="1847.5" y="370.25" width="19.02" height="35.57"/><rect class="cls-3" x="1883.01" y="370.25" width="19.02" height="35.57"/><polygon class="cls-3" points="1856.5 630.63 1727.63 630.63 1734.45 642.86 1856.5 642.86 1979.11 642.86 1985.96 630.63 1856.5 630.63"/><rect class="cls-3" x="1727.63" y="577.56" width="13.29" height="15.64"/><rect class="cls-3" x="1788.89" y="577.56" width="13.29" height="15.64"/><rect class="cls-3" x="1850.15" y="577.56" width="13.29" height="15.64"/><rect class="cls-3" x="1911.42" y="577.56" width="13.29" height="15.64"/><rect class="cls-3" x="1727.63" y="592.8" width="258.33" height="37.83"/><rect class="cls-3" x="1750.08" y="525.29" width="212" height="37.83"/><rect class="cls-3" x="1773.83" y="436.32" width="165.87" height="75.25"/><polygon class="cls-3" points="1750 563.12 1727.63 577.56 1985.96 577.56 1962.4 563.12 1750 563.12"/><polygon class="cls-3" points="1681.7 829.91 2041.17 829.91 2041.17 924.18 1673.37 924.18 1673.37 829.91 1681.7 829.91"/><polygon class="cls-3" points="1691.55 776.66 2030.85 776.66 2030.85 829.91 1683.69 829.91 1683.69 776.66 1691.55 776.66"/><polygon class="cls-3" points="1715.45 659.49 2005.82 659.49 2005.82 777.93 1708.73 777.93 1708.73 659.49 1715.45 659.49"/><rect class="cls-3" x="1708.73" y="659.49" width="297.09" height="13.07"/><polygon class="cls-3" points="1708.73 708.94 1708.73 744.17 2005.82 744.17 2005.82 705.74 1708.73 705.74 1708.73 708.94"/><rect class="cls-3" x="1708.73" y="739.37" width="297.09" height="4.8"/><rect class="cls-3" x="1708.73" y="705.54" width="297.09" height="5.01"/><rect class="cls-3" x="1784.78" y="705.54" width="144.98" height="71.12"/><rect class="cls-3" x="1822.73" y="776.66" width="69.07" height="53.25"/><rect class="cls-3" x="1731.92" y="705.54" width="28.52" height="71.12"/><rect class="cls-3" x="1955.04" y="705.54" width="28.52" height="71.12"/><circle class="cls-3" cx="1942.4" cy="724.83" r="9.01"/><circle class="cls-3" cx="1772.61" cy="724.83" r="9.01"/><circle class="cls-3" cx="1763.96" cy="611.92" r="9.01"/><circle class="cls-3" cx="1825.85" cy="612.32" r="9.01"/><circle class="cls-3" cx="1887.74" cy="612.73" r="9.01"/><circle class="cls-3" cx="1949.63" cy="613.14" r="9.01"/><circle class="cls-3" cx="1804.6" cy="384.35" r="3.81"/><circle class="cls-3" cx="1839.05" cy="384.35" r="3.81"/><circle class="cls-3" cx="1874.56" cy="384.35" r="3.81"/><circle class="cls-3" cx="1909.17" cy="384.35" r="3.81"/><circle class="cls-3" cx="1720.41" cy="724.83" r="9.01"/><rect class="cls-3" x="1731.92" y="776.66" width="28.52" height="8.89"/><rect class="cls-3" x="1683.69" y="776.66" width="25.04" height="8.89"/><rect class="cls-3" x="1784.78" y="776.66" width="37.95" height="8.89"/><rect class="cls-3" x="1891.81" y="776.66" width="37.95" height="8.89"/><rect class="cls-3" x="1955.04" y="776.66" width="28.52" height="8.89"/><polygon class="cls-3" points="1734.46 642.85 1708.73 659.61 2005.82 659.61 1978.71 642.85 1734.46 642.85"/><path class="cls-3" d="M1734.46,642.85s-15.87-4.17-17.88-21.32c0,0-10.59,21.32,5,29.7s12.86-3.63,12.86-3.63Z"/><polygon class="cls-3" points="1683.69 817.12 1683.69 829.91 1822.73 829.91 1822.73 815.96 1683.69 815.96 1683.69 817.12"/><polygon class="cls-3" points="1891.81 817.12 1891.81 829.91 2030.85 829.91 2030.85 815.96 1891.81 815.96 1891.81 817.12"/><rect class="cls-3" x="1683.69" y="815.96" width="139.04" height="5.01"/><rect class="cls-3" x="1891.81" y="815.96" width="139.04" height="5.01"/><rect class="cls-3" x="1773.83" y="443.37" width="165.87" height="11.87"/><rect class="cls-3" x="1797.22" y="350.6" width="119.09" height="11.4"/><rect class="cls-3" x="1750.08" y="520.19" width="212" height="13.01"/><polygon class="cls-3" points="1793.07 447.6 1766.77 447.6 1766.77 435.78 1946.77 435.78 1946.77 447.6 1793.07 447.6"/><rect class="cls-3" x="1783.56" y="462.31" width="26.45" height="37.73"/><rect class="cls-3" x="1823.57" y="462.31" width="26.45" height="37.73"/><rect class="cls-3" x="1863.58" y="462.31" width="26.45" height="37.73"/><rect class="cls-3" x="1903.58" y="462.31" width="26.45" height="37.73"/><polygon class="cls-3" points="1856.77 176.22 1797.22 356.54 1856.77 356.54 1916.32 356.54 1856.77 176.22"/><polygon class="cls-3" points="1878.9 243.24 1857.25 243.24 1856.34 243.24 1834.64 243.24 1818.81 268.54 1856.34 268.54 1857.25 268.54 1894.77 268.54 1878.9 243.24"/><rect class="cls-3" x="1797.22" y="347.19" width="119.09" height="9.35"/><polygon class="cls-3" points="1765.38 525.29 1727.63 525.29 1727.63 510.75 1985.96 510.75 1985.96 525.29 1765.38 525.29"/><rect class="cls-3" x="1797.22" y="356.54" width="119.09" height="79.76"/><rect class="cls-17" x="1797.22" y="370.25" width="119.09" height="28.2"/><polygon class="cls-18" points="1797.22 367.5 1797.22 370.25 1916.32 370.25 1916.32 367.25 1797.22 367.25 1797.22 367.5"/><polygon class="cls-18" points="1797.22 398.71 1797.22 401.46 1916.32 401.46 1916.32 398.46 1797.22 398.46 1797.22 398.71"/><rect class="cls-19" x="1727.63" y="577.56" width="258.33" height="15.23"/><rect class="cls-19" x="1812" y="370.25" width="19.02" height="35.57"/><rect class="cls-19" x="1847.5" y="370.25" width="19.02" height="35.57"/><rect class="cls-19" x="1883.01" y="370.25" width="19.02" height="35.57"/><polygon class="cls-19" points="1856.5 630.63 1727.63 630.63 1734.45 642.86 1856.5 642.86 1979.11 642.86 1985.96 630.63 1856.5 630.63"/><rect class="cls-18" x="1727.63" y="577.56" width="13.29" height="15.64"/><rect class="cls-18" x="1788.89" y="577.56" width="13.29" height="15.64"/><rect class="cls-18" x="1850.15" y="577.56" width="13.29" height="15.64"/><rect class="cls-18" x="1911.42" y="577.56" width="13.29" height="15.64"/><rect class="cls-3" x="1727.63" y="592.8" width="258.33" height="37.83"/><rect class="cls-3" x="1750.08" y="525.29" width="212" height="37.83"/><rect class="cls-3" x="1773.83" y="436.32" width="165.87" height="75.25"/><polygon class="cls-20" points="1750 563.12 1727.63 577.56 1985.96 577.56 1962.4 563.12 1750 563.12"/><polygon class="cls-20" points="1681.7 829.91 2041.17 829.91 2041.17 924.18 1673.37 924.18 1673.37 829.91 1681.7 829.91"/><polygon class="cls-3" points="1691.55 776.66 2030.85 776.66 2030.85 829.91 1683.69 829.91 1683.69 776.66 1691.55 776.66"/><polygon class="cls-3" points="1715.45 659.49 2005.82 659.49 2005.82 777.93 1708.73 777.93 1708.73 659.49 1715.45 659.49"/><rect class="cls-18" x="1708.73" y="659.49" width="297.09" height="13.07"/><polygon class="cls-17" points="1708.73 708.94 1708.73 744.17 2005.82 744.17 2005.82 705.74 1708.73 705.74 1708.73 708.94"/><rect class="cls-18" x="1708.73" y="739.37" width="297.09" height="4.8"/><rect class="cls-18" x="1708.73" y="705.54" width="297.09" height="5.01"/><rect class="cls-19" x="1784.78" y="705.54" width="144.98" height="71.12"/><rect class="cls-19" x="1822.73" y="776.66" width="69.07" height="53.25"/><rect class="cls-19" x="1731.92" y="705.54" width="28.52" height="71.12"/><rect class="cls-19" x="1955.04" y="705.54" width="28.52" height="71.12"/><circle class="cls-20" cx="1942.4" cy="724.83" r="9.01"/><circle class="cls-20" cx="1772.61" cy="724.83" r="9.01"/><circle class="cls-20" cx="1763.96" cy="611.92" r="9.01"/><circle class="cls-20" cx="1825.85" cy="612.32" r="9.01"/><circle class="cls-20" cx="1887.74" cy="612.73" r="9.01"/><circle class="cls-20" cx="1949.63" cy="613.14" r="9.01"/><circle class="cls-20" cx="1804.6" cy="384.35" r="3.81"/><circle class="cls-20" cx="1839.05" cy="384.35" r="3.81"/><circle class="cls-20" cx="1874.56" cy="384.35" r="3.81"/><circle class="cls-20" cx="1909.17" cy="384.35" r="3.81"/><circle class="cls-20" cx="1720.41" cy="724.83" r="9.01"/><rect class="cls-20" x="1731.92" y="776.66" width="28.52" height="8.89"/><rect class="cls-20" x="1683.69" y="776.66" width="25.04" height="8.89"/><rect class="cls-20" x="1784.78" y="776.66" width="37.95" height="8.89"/><rect class="cls-20" x="1891.81" y="776.66" width="37.95" height="8.89"/><rect class="cls-20" x="1955.04" y="776.66" width="28.52" height="8.89"/><path class="cls-20" d="M2005.82,659.44l-13.9-8.51c14.76-8.59,4.46-29.33,4.46-29.33-1.86,15.83-15.5,20.88-17.6,21.52l-.06.25H1734.46s-15.87-4.43-17.88-21.58c0,0-10.59,21.11,5,29.49h0l-12.86,8.16Z"/><polygon class="cls-17" points="1683.69 817.12 1683.69 829.91 1822.73 829.91 1822.73 815.96 1683.69 815.96 1683.69 817.12"/><polygon class="cls-17" points="1891.81 817.12 1891.81 829.91 2030.85 829.91 2030.85 815.96 1891.81 815.96 1891.81 817.12"/><rect class="cls-18" x="1683.69" y="815.96" width="139.04" height="5.01"/><rect class="cls-18" x="1891.81" y="815.96" width="139.04" height="5.01"/><rect class="cls-19" x="1773.83" y="443.37" width="165.87" height="11.87"/><rect class="cls-19" x="1750.08" y="520.19" width="212" height="13.01"/><polygon class="cls-18" points="1793.07 447.6 1766.77 447.6 1766.77 435.78 1946.77 435.78 1946.77 447.6 1793.07 447.6"/><rect class="cls-19" x="1783.56" y="462.31" width="26.45" height="37.73"/><rect class="cls-19" x="1823.57" y="462.31" width="26.45" height="37.73"/><rect class="cls-19" x="1863.58" y="462.31" width="26.45" height="37.73"/><rect class="cls-19" x="1903.58" y="462.31" width="26.45" height="37.73"/><polygon class="cls-20" points="1916.77 350.6 1916.77 347.76 1913.23 347.76 1887.26 269.03 1894.77 269.03 1878.9 243.49 1856.77 176.34 1834.64 243.55 1834.64 243.55 1818.81 269.03 1826.28 269.03 1800.31 347.76 1797.88 347.76 1797.88 350.6 1797.88 356.54 1797.88 362.22 1916.77 362.22 1916.77 350.6 1916.77 350.6"/><polygon class="cls-18" points="1765.38 525.29 1727.63 525.29 1727.63 510.75 1985.96 510.75 1985.96 525.29 1765.38 525.29"/><path class="cls-21" d="M1856.77,176.22l-22.13,67-15.82,25.3h7.47l-26,78.65h-3.09v51.27h0v3h0v34.31h-30.45V447.6h7.07v63.15h-46.2v14.54h22.45v37.83H1750l-22.37,14.44v53.06l6.82,12.22c-.1,0-15.87-4.22-17.87-21.32,0,0-10.59,21.32,5,29.7l-12.68,8.26h-.19V776.66h-25v53.25h-10.32v94.27h183.87l-.48-748Z"/><path class="cls-22" d="M1674.07,924.38l-.62-.18Z"/><path class="cls-1" d="M1673.45,924.2l.62.18Z"/><rect class="cls-3" x="1493.66" y="408.22" width="261" height="207.84"/><polygon class="cls-18" points="1493.66 436.04 1493.66 461.45 1754.66 461.45 1754.66 433.73 1493.66 433.73 1493.66 436.04"/><rect class="cls-19" x="1551.82" y="564.34" width="16.5" height="30.86"/><rect class="cls-19" x="1541.9" y="440.6" width="36.34" height="48.27"/><rect class="cls-23" x="1541.9" y="480.2" width="36.34" height="8.68"/><polygon class="cls-18" points="1768.39 409.03 1759.14 376.96 1493.7 376.96 1484.41 409.03 1768.39 409.03"/><polygon class="cls-18" points="1748.85 376.96 1739.6 344.89 1513.24 344.89 1503.95 376.96 1748.85 376.96"/><rect class="cls-19" x="1541.9" y="488.59" width="36.34" height="48.27"/><rect class="cls-23" x="1541.9" y="528.18" width="36.34" height="8.68"/><rect class="cls-19" x="1673.79" y="563.97" width="16.5" height="30.86"/><rect class="cls-19" x="1663.87" y="440.22" width="36.34" height="48.27"/><rect class="cls-23" x="1663.87" y="479.82" width="36.34" height="8.68"/><rect class="cls-19" x="1663.87" y="488.21" width="36.34" height="48.27"/><rect class="cls-23" x="1663.87" y="527.81" width="36.34" height="8.68"/><polygon class="cls-24" points="1512.81 345.72 1503.52 377.58 1493.27 377.58 1483.98 409.44 1493.07 409.44 1493.07 434.48 1493.07 436.79 1493.07 462.2 1493.07 616.55 1619.64 616.55 1619.64 345.72 1512.81 345.72"/><rect class="cls-3" x="1938.59" y="689.04" width="304.94" height="125.34"/><polygon class="cls-20" points="1938.59 717.18 1938.59 756.6 2243.53 756.6 2243.53 713.6 1938.59 713.6 1938.59 717.18"/><rect class="cls-25" x="1938.59" y="751.22" width="304.94" height="5.38"/><rect class="cls-25" x="1938.59" y="713.37" width="304.94" height="5.6"/><polygon class="cls-19" points="2023.94 680.49 1933.82 680.49 1938.59 689.04 2023.94 689.04 2243.5 689.04 2248.3 680.49 2023.94 680.49"/><rect class="cls-20" x="1953.31" y="680.49" width="7.26" height="8.55"/><rect class="cls-26" x="1933.82" y="670.3" width="314.48" height="10.19"/><polygon class="cls-21" points="1934.09 670.69 1934.3 680.86 1939.28 689.38 1939.28 713.72 1939.28 713.94 1939.28 717.52 1939.28 719.32 1939.28 751.57 1939.28 756.94 1939.28 815.29 2088.7 815.29 2088.7 670.69 1934.09 670.69"/><path class="cls-9" d="M2671.88,924.54H1929.62v-111l432.18.15V733.35L2556.88,735c24.47,0,89.37,122.88,89.37,122.88Z"/><rect class="cls-3" x="-93.09" y="285.1" width="120.5" height="8.03"/><rect class="cls-3" x="-178.24" y="341.33" width="579.99" height="579.99"/><polygon class="cls-18" points="432.94 344.3 408.67 312.13 -185.22 312.13 -209.6 344.3 432.94 344.3"/><rect class="cls-18" x="-178.24" y="561.85" width="579.83" height="120.62"/><rect class="cls-18" x="-178.24" y="399.58" width="579.83" height="26.37"/><rect class="cls-27" x="-7.84" y="412.84" width="22.39" height="41.88"/><rect class="cls-27" x="48.14" y="412.74" width="22.39" height="41.88"/><rect class="cls-27" x="103.36" y="412.87" width="22.39" height="41.88"/><rect class="cls-27" x="154.52" y="412.77" width="22.39" height="41.88"/><rect class="cls-27" x="207.45" y="412.92" width="22.39" height="41.88"/><rect class="cls-27" x="261.82" y="412.82" width="22.39" height="41.88"/><rect class="cls-27" x="319.03" y="412.97" width="22.39" height="41.88"/><rect class="cls-27" x="-21.3" y="482.51" width="49.31" height="65.49"/><rect class="cls-20" x="-21.3" y="536.23" width="49.31" height="11.77"/><rect class="cls-27" x="87.42" y="482.51" width="49.31" height="65.49"/><rect class="cls-20" x="87.42" y="536.23" width="49.31" height="11.77"/><rect class="cls-27" x="194.72" y="482.51" width="49.31" height="65.49"/><rect class="cls-20" x="194.72" y="536.23" width="49.31" height="11.77"/><rect class="cls-27" x="305.58" y="482.51" width="49.31" height="65.49"/><rect class="cls-20" x="305.58" y="536.23" width="49.31" height="11.77"/><rect class="cls-20" x="-93.09" y="294.74" width="120.5" height="17.67"/><rect class="cls-3" x="159.15" y="264.21" width="120.5" height="48.2"/><path class="cls-18" d="M292.62,245.53c.06,11.16-17.23,13-17.23,13h0c-13.63-7.11-37.4-25.85-56.18-64.11-18.78,38.26-42.55,56.53-56.18,64.37-.07,0-17.29-2-17.23-13.12,0,0-6.67,12.86,6.27,18.55H286.35C299.3,258.52,292.62,245.53,292.62,245.53Z"/><path class="cls-20" d="M40.38,266c.06,11.16-17.23,12.63-17.23,12.63h0c-13.63-6.43-37.4-25.48-56.18-63.74-18.78,38.26-42.55,56.71-56.18,64.55-.07,0-17.29-1.9-17.23-13,0,0-6.67,13,6.27,18.64H34.11C47.06,279.41,40.38,266,40.38,266Z"/><rect class="cls-27" x="6.57" y="708.18" width="11.2" height="24.83"/><rect class="cls-27" x="36.83" y="708.18" width="11.2" height="24.83"/><rect class="cls-27" x="67.44" y="708.18" width="11.2" height="24.83"/><rect class="cls-27" x="97.69" y="708.18" width="11.2" height="24.83"/><rect class="cls-27" x="6.57" y="762.17" width="11.2" height="24.83"/><rect class="cls-27" x="36.83" y="762.17" width="11.2" height="24.83"/><rect class="cls-27" x="67.44" y="762.17" width="11.2" height="24.83"/><path class="cls-21" d="M27.4,312.41V285.1h6.7C47.06,279.41,40.38,266,40.38,266c.06,11.16-17.23,12.63-17.23,12.63h0c-13.63-6.43-37.4-25.48-56.18-63.74-18.78,38.26-42.55,56.71-56.18,64.55-.07,0-17.29-1.9-17.23-13,0,0-6.67,13,6.27,18.64h7.11v27.31h-92.13l-24.39,32.13h31.36V921.32H98.1V312.41Z"/><path class="cls-9" d="M562.18,509.17c39.14,20.55,116.67,1.44,195.89,1.59,38.74.07,213.65,42.8,313,119.16,103.8,79.8,133.88,195.36,258.56,291.41L-290.49,923S-164,794-17.46,793.16c171.38-1,224.94-172.19,281.14-208.72s129.51-75.28,167.58-75.28S523,488.62,562.18,509.17Z"/><rect class="cls-3" x="744.12" y="640.41" width="354.13" height="281.99"/><polygon class="cls-17" points="744.12 678.16 744.12 712.63 1098.24 712.63 1098.24 675.02 744.12 675.02 744.12 678.16"/><rect class="cls-27" x="823.03" y="852.24" width="22.39" height="41.88"/><rect class="cls-27" x="809.57" y="684.35" width="49.31" height="65.49"/><rect class="cls-20" x="809.57" y="738.07" width="49.31" height="11.77"/><polygon class="cls-17" points="1116.87 641.52 1104.32 598 744.18 598 731.57 641.52 1116.87 641.52"/><polygon class="cls-17" points="1090.36 598 1077.81 554.48 770.68 554.48 758.08 598 1090.36 598"/><rect class="cls-27" x="809.57" y="749.46" width="49.31" height="65.49"/><rect class="cls-20" x="809.57" y="803.18" width="49.31" height="11.77"/><rect class="cls-27" x="988.51" y="851.73" width="22.39" height="41.88"/><rect class="cls-27" x="975.05" y="683.84" width="49.31" height="65.49"/><rect class="cls-20" x="975.05" y="737.56" width="49.31" height="11.77"/><rect class="cls-27" x="975.05" y="748.94" width="49.31" height="65.49"/><rect class="cls-20" x="975.05" y="802.67" width="49.31" height="11.77"/><polygon class="cls-21" points="770.68 555.01 758.08 598.39 744.18 598.39 731.57 641.77 743.96 641.77 743.96 675.02 743.96 678.16 743.96 712.63 743.96 922.93 923.9 922.93 923.9 555.01 770.68 555.01"/><rect class="cls-3" x="452.72" y="323.26" width="194.1" height="38.53"/><rect class="cls-3" x="473.9" y="231.95" width="151.65" height="63.57"/><polygon class="cls-27" points="549.77 376.94 549.77 376.94 381.48 376.94 399.65 407.76 549.77 407.76 549.77 407.76 699.89 407.76 718.06 376.94 549.77 376.94"/><rect class="cls-18" x="470.84" y="376.94" width="15.43" height="30.83"/><rect class="cls-18" x="542.06" y="376.94" width="15.43" height="30.83"/><rect class="cls-18" x="613.18" y="376.94" width="15.43" height="30.83"/><rect class="cls-18" x="487.88" y="323.23" width="15.43" height="38.56"/><rect class="cls-18" x="515.11" y="256.58" width="15.43" height="38.94"/><rect class="cls-18" x="569.23" y="256.58" width="15.43" height="38.94"/><rect class="cls-18" x="542.1" y="323.23" width="15.43" height="38.56"/><rect class="cls-18" x="596.23" y="323.23" width="15.43" height="38.56"/><rect class="cls-3" x="399.7" y="420.43" width="300.15" height="177.47"/><polygon class="cls-20" points="410.63 361.83 381.48 376.89 718.06 376.89 687.35 361.83 410.63 361.83"/><rect class="cls-3" x="356.62" y="640.31" width="387.16" height="283.6"/><polygon class="cls-17" points="356.63 703.97 356.63 793.16 743.78 793.16 743.78 695.87 356.63 695.87 356.63 703.97"/><rect class="cls-18" x="356.62" y="781" width="387.16" height="12.16"/><rect class="cls-27" x="458.99" y="847.89" width="27.64" height="51.69"/><rect class="cls-27" x="510.58" y="847.89" width="27.64" height="51.69"/><rect class="cls-27" x="562.18" y="847.89" width="27.64" height="51.69"/><rect class="cls-27" x="613.78" y="847.89" width="27.64" height="51.69"/><rect class="cls-18" x="356.62" y="695.36" width="387.16" height="12.67"/><circle class="cls-20" cx="393.11" cy="743.5" r="23.31"/><circle class="cls-20" cx="547.16" cy="743.5" r="23.31"/><circle class="cls-20" cx="701.21" cy="743.5" r="23.31"/><rect class="cls-27" x="439.22" y="719.18" width="67.9" height="90.2"/><rect class="cls-27" x="593.28" y="719.18" width="67.9" height="90.2"/><rect class="cls-20" x="439.22" y="793.16" width="67.9" height="16.22"/><rect class="cls-20" x="593.28" y="793.16" width="67.9" height="16.22"/><polygon class="cls-27" points="549.73 620.95 345.83 620.95 356.63 640.3 549.73 640.3 743.73 640.3 754.57 620.95 549.73 620.95"/><rect class="cls-18" x="389.93" y="620.95" width="16.44" height="19.35"/><rect class="cls-18" x="465.72" y="620.95" width="16.44" height="19.35"/><rect class="cls-18" x="541.51" y="620.95" width="16.44" height="19.35"/><rect class="cls-18" x="617.3" y="620.95" width="16.44" height="19.35"/><rect class="cls-18" x="693.09" y="620.95" width="16.44" height="19.35"/><path class="cls-20" d="M754.57,620.88,735.45,609.1c20.31-11.82,6.13-40.39,6.13-40.39-2.56,21.78-21.33,28.59-24.22,29.48l-.08.21H381.23s-21.83-6-24.6-29.58c0,0-14.57,29.18,6.9,40.71h0l-17.7,11.37Z"/><polygon class="cls-17" points="399.7 468.88 399.7 558.07 699.85 558.07 699.85 460.77 399.7 460.77 399.7 468.88"/><rect class="cls-18" x="399.7" y="545.9" width="300.15" height="12.16"/><rect class="cls-18" x="399.7" y="460.26" width="300.15" height="12.67"/><rect class="cls-18" x="399.65" y="407.76" width="300.15" height="12.67"/><rect class="cls-18" x="452.72" y="310.52" width="194.1" height="13.08"/><rect class="cls-27" x="515.78" y="484.08" width="67.9" height="73.99"/><rect class="cls-20" x="515.78" y="558.07" width="67.9" height="16.22"/><circle class="cls-20" cx="431.26" cy="509.17" r="18.43"/><circle class="cls-20" cx="487.75" cy="509.17" r="18.43"/><circle class="cls-20" cx="611.7" cy="509.17" r="18.43"/><circle class="cls-20" cx="668.2" cy="509.17" r="18.43"/><rect class="cls-27" x="445.89" y="295.52" width="207.67" height="15.4"/><rect class="cls-27" x="473.9" y="231.95" width="151.65" height="12.6"/><rect class="cls-18" x="473.9" y="244.54" width="151.65" height="12.04"/><path class="cls-20" d="M632.69,211c.07,12.6-19.46,14.68-19.46,14.68h0c-15.4-8-42.25-29.2-63.45-72.41-21.21,43.21-48.06,63.85-63.45,72.7-.08,0-19.53-2.25-19.46-14.82,0,0-7.54,14.53,7.09,21H625.6C640.23,225.66,632.69,211,632.69,211Z"/><g class="cls-28"><path class="cls-19" d="M486.28,377H381.48l18.17,30.83v12.67h0V598H381.23s-21.83-5.74-24.6-29.34c0,0-14.57,29.34,6.9,40.86l-17.7,11.53,10.8,19.35V924h193.1V377H486.28Z"/><polygon class="cls-19" points="381.48 377 549.73 377 549.73 361.93 410.63 361.93 381.48 377"/><path class="cls-19" d="M486.27,226.15c-.08,0-19.53-2.37-19.46-14.94,0,0-7.54,14,7.09,20.83v63.57h-28V311h6.83v50.87h97V153.55h0C528.52,196.76,501.67,217.3,486.27,226.15Z"/></g><rect class="cls-3" x="1096.42" y="639.58" width="689.96" height="283.6"/><polygon class="cls-20" points="1096.42 703.25 1096.42 792.44 1786.38 792.44 1786.38 695.14 1096.42 695.14 1096.42 703.25"/><rect class="cls-18" x="1096.42" y="780.28" width="689.96" height="12.16"/><rect class="cls-27" x="1198.78" y="847.17" width="27.64" height="51.69"/><rect class="cls-27" x="1250.38" y="847.17" width="27.64" height="51.69"/><rect class="cls-27" x="1301.98" y="847.17" width="27.64" height="51.69"/><rect class="cls-27" x="1353.57" y="847.17" width="27.64" height="51.69"/><rect class="cls-18" x="1096.42" y="694.64" width="689.96" height="12.67"/><rect class="cls-27" x="1179.02" y="718.46" width="67.9" height="90.2"/><rect class="cls-27" x="1333.07" y="718.46" width="67.9" height="90.2"/><rect class="cls-20" x="1179.02" y="792.44" width="67.9" height="16.22"/><rect class="cls-20" x="1333.07" y="792.44" width="67.9" height="16.22"/><polygon class="cls-27" points="1289.52 620.23 1085.63 620.23 1096.42 639.58 1289.52 639.58 1786.32 639.58 1797.17 620.23 1289.52 620.23"/><rect class="cls-20" x="1129.72" y="620.23" width="16.44" height="19.35"/><rect class="cls-20" x="1205.51" y="620.23" width="16.44" height="19.35"/><rect class="cls-20" x="1281.31" y="620.23" width="16.44" height="19.35"/><rect class="cls-20" x="1357.1" y="620.23" width="16.44" height="19.35"/><rect class="cls-20" x="1432.89" y="620.23" width="16.44" height="19.35"/><rect class="cls-18" x="1085.63" y="597.18" width="711.54" height="23.05"/><rect class="cls-27" x="1505.31" y="847.17" width="27.64" height="51.69"/><rect class="cls-27" x="1556.91" y="847.17" width="27.64" height="51.69"/><rect class="cls-27" x="1608.51" y="847.17" width="27.64" height="51.69"/><rect class="cls-27" x="1660.1" y="847.17" width="27.64" height="51.69"/><rect class="cls-27" x="1485.55" y="718.46" width="67.9" height="90.2"/><rect class="cls-27" x="1639.6" y="718.46" width="67.9" height="90.2"/><rect class="cls-20" x="1485.55" y="792.44" width="67.9" height="16.22"/><rect class="cls-20" x="1639.6" y="792.44" width="67.9" height="16.22"/><rect class="cls-20" x="1512.05" y="620.23" width="16.44" height="19.35"/><rect class="cls-20" x="1587.84" y="620.23" width="16.44" height="19.35"/><rect class="cls-20" x="1663.63" y="620.23" width="16.44" height="19.35"/><rect class="cls-20" x="1739.42" y="620.23" width="16.44" height="19.35"/><polygon class="cls-21" points="1085.63 596.78 1085.32 620.04 1095.81 639.58 1095.81 694.64 1095.81 695.14 1095.81 703.25 1095.81 707.31 1095.81 780.28 1095.81 792.44 1095.81 922.93 1441.23 922.93 1441.23 596.78 1085.63 596.78"/></g><line class="cls-29" x1="-186.23" y1="280.54" x2="7.84" y2="917.46"/><rect class="cls-30" x="-424.45" y="921.7" width="2771.41" height="78.3"/></g></g></svg>