<svg xmlns="http://www.w3.org/2000/svg" xmlns:xlink="http://www.w3.org/1999/xlink" viewBox="0 0 2100.32 741.09"><defs><style>.cls-1{isolation:isolate;}.cls-2{fill:#806056;}.cls-3{fill:#3a4523;}.cls-4{fill:#697d4b;}.cls-5{fill:#4e5c37;}.cls-6,.cls-7{opacity:0.11;mix-blend-mode:multiply;}.cls-6{fill:url(#linear-gradient);}.cls-7{fill:url(#linear-gradient-2);}.cls-8{fill:#b28c49;}.cls-9{fill:#b34830;}.cls-10{fill:#234042;}</style><linearGradient id="linear-gradient" x1="280.82" y1="216.81" x2="343.26" y2="216.81" gradientUnits="userSpaceOnUse"><stop offset="0" stop-color="#747d9d"/><stop offset="0.59" stop-color="#9281aa"/><stop offset="1" stop-color="#aa84b4"/></linearGradient><linearGradient id="linear-gradient-2" x1="-3656.41" y1="-91.68" x2="-3622.11" y2="-91.68" gradientTransform="matrix(-0.99, -0.15, -0.15, 0.99, -3474.61, -268.82)" xlink:href="#linear-gradient"/></defs><title>เกษตรขั้นบันได</title><g class="cls-1"><g id="เกษตรขั้นบันได"><path class="cls-2" d="M286.26,211.55c-3.45-3.45,6.91-44.91,6.91-44.91l3,.94c.26-2.68.44-4.39.44-4.39,24.18-6.91,43.18-20.73,43.18-20.73l-3.45-5.18c-6.91,6.91-46.63,20.73-46.63,20.73s1.73,31.09-15.54,41.45-38-13.82-38-13.82L231,194.28s24.18,13.82,38,25.91-.51,46.63-.51,46.63L282,267C286.32,255.7,289.45,214.74,286.26,211.55Z"/><path class="cls-2" d="M303.54,216.73c8.22,0,24.87-12.37,34.7-20.3L341.91,186l-.38-.37c-10.36,12.09-44.66,21.45-46.63,15.54-1.33-4,.42-24.49,1.29-33.61l-3-.94s-10.36,41.45-6.91,44.91c3.18,3.18.06,44.15-4.3,55.44l25.91.33C294.94,255.73,303.54,216.73,303.54,216.73Z"/><path class="cls-3" d="M332.43,162.91s8.8-1,13.54-3.66h18.15l-14-18.73c0-8.33-12.49-8.33-12.49-8.33s0-8.33-10.41-10.41S314.78,128,314.78,128s2.08-16.65-16.65-16.65-12.49,20.81-12.49,20.81-2.08-6.24-12.49-4.16S269,142.6,269,142.6c-17.71,0-13.1,14.87-12.54,16.5-.3,2.33.55,5.08,4.55,7.48,7.1,4.26,18.59-3.58,23.41-7.33h6.54c4.2,1.6,10.93,3.66,17.67,3.66s10-2.06,11.57-3.66h4.92Z"/><path class="cls-4" d="M361,152.78c2.31-2.08,2.31-6.24-1.28-8.33s-8,2.08-8,2.08,4.63-14.57-9.25-16.65-16.19,10.41-16.19,10.41a5.26,5.26,0,0,0-6.94-2.08,4.32,4.32,0,0,0-2.31,6.24,8.42,8.42,0,0,0-6.94-4.16c-11.57-2.08-11.57,12.49-11.57,12.49-6.39-1.15-9.95,2.15-11.86,5.33a4.26,4.26,0,0,0-1.8,4.19c-.15.53-.22.88-.22.88h.37c1.85,6.67,32.39,5.75,44,0h5.71c3.47,2,9.34,4.89,13.42,3.66a29.42,29.42,0,0,0,7.72-3.66h7.45s9.17,0,9.25-2.08C373,152.53,361,152.78,361,152.78Z"/><path class="cls-4" d="M258.68,193.18c.16-4.53-5.49-4.39-5.49-4.39a2.88,2.88,0,0,0-.61-4.39c-1.71-1.1-3.79,1.1-3.79,1.1s2.2-7.69-4.39-8.79-7.69,5.49-7.69,5.49a2.46,2.46,0,1,0-4.39,2.2,3.9,3.9,0,0,0-3.3-2.2c-5.49-1.1-5.49,6.59-5.49,6.59-4.39-.88-6,3.16-6.43,4.81a1.72,1.72,0,0,0-.16.68c0,2.78,9.73,1.39,9.73,0,0,0,7,2.78,11.12,1.39l4.17-1.39H248a10.19,10.19,0,0,0,5,1.39c4.17,0,5.34-2.09,5.34-2.09A.55.55,0,0,0,258.68,193.18Z"/><path class="cls-5" d="M369.22,192.92c.2-5.62-6.82-5.46-6.82-5.46a3.57,3.57,0,0,0-.76-5.46c-2.12-1.36-4.7,1.36-4.7,1.36s2.73-9.55-5.46-10.92-9.55,6.82-9.55,6.82a3.05,3.05,0,1,0-5.46,2.73,4.85,4.85,0,0,0-4.09-2.73c-6.82-1.36-6.82,8.19-6.82,8.19-6.82-1.36-8.19,6.82-8.19,6.82s0,5.18,8.64,3.45,8.78-3.45,8.78-3.45,5,5.18,10.22,3.45a34.39,34.39,0,0,0,7.73-3.45s6.09,5.18,11.27,3.45c3.71-1.24,4.76-3.35,5.06-4.46A.58.58,0,0,0,369.22,192.92Z"/><path class="cls-6" d="M303.54,216.56c8.22,0,24.87-12.37,34.7-20.3l3.68-10.42-.38-.37c-10.36,12.09-44.66,21.45-46.63,15.54-1.33-4,.42-24.49,1.29-33.61l-3-.94s-10.36,41.45-6.91,44.91c3.18,3.18.06,44.15-4.3,55.44l25.91.33C294.94,255.56,303.54,216.56,303.54,216.56Z"/><path class="cls-2" d="M150.06,198.35c2.17-1.58,0-25,0-25l-1.72.25c.09-1.48.13-2.42.13-2.42a84.83,84.83,0,0,1-21.69-14.89l2.31-2.52c3.17,4.33,23.57,15.18,23.57,15.18s-3.56,16.73,4.94,23.81,21.79-4.3,21.79-4.3l2.08,5.12s-14.29,5.46-22.81,10.86-3.65,25.36-3.65,25.36l-7.33-1C146.3,222.31,148.06,199.81,150.06,198.35Z"/><path class="cls-2" d="M140.24,199.71c-4.46-.69-12.46-8.81-17.12-13.94l-1.12-6,.24-.17c4.61,7.44,22.44,15.41,24,12.37,1.06-2.06,1.83-13.33,2.13-18.35l1.72-.25s2.13,23.38,0,25c-2,1.46-3.75,24-2.34,30.46l-14.09-2C141.62,221.6,140.24,199.71,140.24,199.71Z"/><path class="cls-3" d="M129.09,168.05s-4.69-1.28-7-3.13l-9.85-1.53,9.15-9c.7-4.52,7.48-3.47,7.48-3.47s.7-4.52,6.53-4.77,6.25,4.44,6.25,4.44.27-9.21,10.44-7.64,5,12.35,5,12.35,1.66-3.21,7.13-1.21,1,8.26,1,8.26c9.61,1.49,5.86,9.18,5.42,10,0,1.29-.73,2.71-3.1,3.68-4.21,1.71-9.79-3.51-12.09-6l-3.55-.55a28.67,28.67,0,0,1-9.9.5c-3.66-.57-5.27-2-6-3l-2.67-.41Z"/><path class="cls-4" d="M114.41,160.14a2.82,2.82,0,0,1,1.4-4.41c2.13-.83,4.15,1.8,4.15,1.8s-1.28-8.3,6.43-8.26,7.91,7,7.91,7a2.89,2.89,0,0,1,3.94-.54,2.37,2.37,0,0,1,.73,3.58,4.63,4.63,0,0,1,4.12-1.67c6.45-.15,5.23,7.75,5.23,7.75a5.87,5.87,0,0,1,6,3.89,2.34,2.34,0,0,1,.62,2.43c0,.3,0,.5,0,.5l-.2,0c-1.57,3.46-18.07.39-23.88-3.71l-3.1-.48c-2.05.81-5.48,1.86-7.59.86a16.16,16.16,0,0,1-3.88-2.64l-4-.63s-5-.77-4.85-1.91C108,159,114.41,160.14,114.41,160.14Z"/><path class="cls-4" d="M166.58,190.7c.3-2.47,3.35-1.92,3.35-1.92a1.58,1.58,0,0,1,.7-2.33c1-.45,2,.92,2,.92s-.54-4.36,3.13-4.4,3.71,3.63,3.71,3.63a1.35,1.35,0,1,1,2.2,1.56,2.14,2.14,0,0,1,2-.91c3.07-.13,2.43,4,2.43,4,2.46-.11,3,2.22,3.09,3.15a1,1,0,0,1,0,.39c-.23,1.51-5.4-.07-5.28-.82,0,0-4,.92-6.16-.18l-2.15-1.11-3.3-.51a5.6,5.6,0,0,1-2.85.33c-2.26-.35-2.72-1.58-2.72-1.58A.3.3,0,0,1,166.58,190.7Z"/><path class="cls-5" d="M106.6,181.24c.37-3.07,4.16-2.39,4.16-2.39a2,2,0,0,1,.87-2.9c1.27-.56,2.44,1.14,2.44,1.14s-.68-5.42,3.88-5.47,4.61,4.51,4.61,4.51a1.68,1.68,0,1,1,2.73,1.94,2.66,2.66,0,0,1,2.45-1.14c3.82-.17,3,5,3,5,3.82-.17,3.87,4.39,3.87,4.39s-.44,2.81-5,1.15-4.48-2.62-4.48-2.62-3.17,2.39-5.84,1a18.89,18.89,0,0,1-3.91-2.53s-3.74,2.3-6.41.93c-1.91-1-2.3-2.22-2.37-2.85A.32.32,0,0,1,106.6,181.24Z"/><path class="cls-7" d="M140.26,199.61c-4.46-.69-12.46-8.81-17.12-13.94l-1.12-6,.24-.17c4.61,7.44,22.44,15.41,24,12.37,1.06-2.06,1.83-13.33,2.13-18.35l1.72-.25s2.13,23.38,0,25c-2,1.46-3.75,24-2.34,30.46l-14.09-2C141.64,221.51,140.26,199.61,140.26,199.61Z"/><path class="cls-5" d="M85.8,215.81s214.5,38.65,227,51.63,65,66.61,65,66.61,40.69,134.5,68.67,150.48,134.79,78.3,134.79,78.3-13,33.62,23.55,40.2c61.91,11.13,188.22-1.62,195.12,3.81,11,8.63,66.65,51.94,66.65,51.94s134.08,29.59,136.57,30.29,24.86,8.69,24.86,8.69H85.8Z"/><path class="cls-3" d="M85.8,355.87h304c.5,0,22.5,58,22.5,58H85.8Z"/><path class="cls-3" d="M412.3,413.87h11s9.5,20,17.5,32,18.5,25.5,18.5,25.5l5.83,23.92H85.8V413.87Z"/><path class="cls-8" d="M85.8,556.3s221,14.39,269.67,16.9,143.33,2.83,150,0,64.67-7.45,64.67-7.45l11.12-2.91L604.8,603,412.3,643H252.14L172.8,623l-87,2.67Z"/><path class="cls-8" d="M459.3,471.37l-114,8-129.5,2.5-130-5.25v29.25s110,7.5,112.5,6.5,95.5.09,95.5.09l90.5-10.22,80.83-6.95Z"/><polygon class="cls-8" points="412.3 413.87 401.98 386.8 278.8 384.87 201.3 384.87 137.8 384.87 85.8 380.87 85.8 400.37 136.3 413.87 218.3 410.37 324.8 413.87 387.8 412.87 412.3 413.87"/><polygon class="cls-3" points="384.77 355.87 305.14 338.7 218.47 337.12 162.14 337.12 85.8 337.12 85.8 361.04 244.47 371.7 358.47 368.04 384.77 355.87"/><polygon class="cls-8" points="377.79 334.05 313.3 330.17 256.3 322.37 185.8 328.21 118.8 328.21 85.8 318.37 85.8 340.37 140.8 344.87 231.79 352.37 317.8 347.37 384.77 355.87 377.79 334.05"/><path class="cls-5" d="M265.3,431.62s1.5-15.68-16.5-22.55-34,6.75-34,6.75,6.5-9.49-12.5-16.3-39.5-3.28-38.5,9.95c0,0,.67-11.27-24.16-7.27s-19.21,16.13-19.21,16.13-2.47-10.39-19.8-2.51-7.39,15.81-7.39,15.81Z"/><path class="cls-5" d="M427.24,431.62s1.5-15.68-16.5-22.55-34,6.75-34,6.75,6.5-9.49-12.5-16.3-39.5-3.28-38.5,9.95c0,0,.67-11.27-24.16-7.27s-19.21,16.13-19.21,16.13-2.47-10.39-19.8-2.51-7.39,15.81-7.39,15.81Z"/><path class="cls-4" d="M269,462.37s1.5-16.5-16.5-23.74-34,7.1-34,7.1,6.5-10-12.5-17.16-39.5-3.45-38.5,10.47c0,0,.67-11.86-24.16-7.65s-19.21,17-19.21,17-2.47-10.94-19.8-2.64-7.39,16.64-7.39,16.64Z"/><path class="cls-4" d="M430.9,462.37s1.5-16.5-16.5-23.74-34,7.1-34,7.1,6.5-10-12.5-17.16-39.5-3.45-38.5,10.47c0,0,.67-11.86-24.16-7.65s-19.21,17-19.21,17-2.47-10.94-19.8-2.64-7.39,16.64-7.39,16.64Z"/><circle class="cls-9" cx="137.64" cy="446.53" r="2.84"/><circle class="cls-9" cx="195.06" cy="438.29" r="2.93"/><circle class="cls-9" cx="232.29" cy="452.76" r="1.82"/><circle class="cls-9" cx="291.48" cy="454.77" r="2.02"/><circle class="cls-9" cx="318.65" cy="441.59" r="3.3"/><circle class="cls-9" cx="359.45" cy="443.24" r="1.65"/><circle class="cls-9" cx="401.47" cy="454.03" r="4.67"/><circle class="cls-9" cx="171.96" cy="452.76" r="1.82"/><circle class="cls-9" cx="108.48" cy="454.77" r="2.02"/><circle class="cls-9" cx="137.33" cy="414.49" r="2.84"/><circle class="cls-9" cx="194.76" cy="406.26" r="2.93"/><circle class="cls-9" cx="231.99" cy="420.72" r="1.82"/><circle class="cls-9" cx="291.18" cy="422.74" r="2.02"/><circle class="cls-9" cx="318.35" cy="409.55" r="3.3"/><circle class="cls-9" cx="359.14" cy="411.2" r="1.65"/><circle class="cls-9" cx="401.17" cy="422" r="4.67"/><circle class="cls-9" cx="171.65" cy="420.72" r="1.82"/><circle class="cls-9" cx="108.18" cy="422.74" r="2.02"/><path class="cls-10" d="M549.3,556.3c-1.5-1.93-78.83-49.93-84.17-51.93s-30,6.18-63.66,8.09S266.8,531.31,240.8,524.59s-155-12.13-155-12.13v33.41s69.46-2.5,88-1,117.7,11.43,117.7,11.43H549.3Z"/><polygon class="cls-4" points="2006.8 691.3 793.3 691.3 793.3 691.15 85.8 691.15 85.8 704.37 793.3 704.37 793.3 704.22 2006.8 704.22 2006.8 691.3"/></g></g></svg>