<svg xmlns="http://www.w3.org/2000/svg" xmlns:xlink="http://www.w3.org/1999/xlink" viewBox="0 0 2201.89 1195.48"><defs><style>.cls-1{fill:none;}.cls-2{fill:url(#linear-gradient);}.cls-3,.cls-4,.cls-5,.cls-6{fill:#fff;}.cls-3{opacity:0.76;}.cls-4{opacity:0.5;}.cls-5{opacity:0.72;}.cls-7{fill:url(#linear-gradient-2);}.cls-8{fill:url(#linear-gradient-3);}.cls-9{fill:url(#linear-gradient-4);}.cls-10{clip-path:url(#clip-path);}</style><linearGradient id="linear-gradient" x1="842.44" y1="959.81" x2="1485.92" y2="959.81" gradientUnits="userSpaceOnUse"><stop offset="0" stop-color="#d5b671"/><stop offset="0.24" stop-color="#d09966"/><stop offset="0.35" stop-color="#ce8a61"/><stop offset="0.51" stop-color="#d39270"/><stop offset="0.81" stop-color="#dfa896"/><stop offset="1" stop-color="#e7b7b2"/></linearGradient><linearGradient id="linear-gradient-2" x1="440.57" y1="492.32" x2="440.57" y2="236.39" xlink:href="#linear-gradient"/><linearGradient id="linear-gradient-3" x1="800.66" y1="210.43" x2="800.66" y2="10.31" xlink:href="#linear-gradient"/><linearGradient id="linear-gradient-4" x1="1880.46" y1="275.56" x2="1880.46" y2="75.43" xlink:href="#linear-gradient"/><clipPath id="clip-path"><rect id="SVGID" class="cls-1" x="136.58" y="137.13" width="230.35" height="110"/></clipPath></defs><title>เมฆบน</title><g id="เมฆบน"><path class="cls-2" d="M1383.48,1090.22h-541s26.26-176.72,202.24-158c0,0,13.13-139.23,131.32-93.71,0,0,55.16,21.42,44.65,93.71,0,0,15.76-29.45,55.16-16.07,0,0,28.89,13.39,23.64,42.84,0,0,52.53-18.74,55.16,32.13,0,0,123.44,10.71,131.32,99.07Z"/><path class="cls-3" d="M1425.15,1083.65h646.72s-31.39-211.23-241.74-188.83c0,0-15.7-166.42-157-112,0,0-65.93,25.6-53.37,112,0,0-18.84-35.21-65.93-19.2,0,0-34.53,16-28.25,51.21,0,0-62.79-22.4-65.93,38.41,0,0-147.55,12.8-157,118.42Z"/><path class="cls-4" d="M431.37,994.1H777.23s-16.79-113-129.28-101c0,0-8.39-89-83.95-59.91,0,0-35.26,13.69-28.54,59.91,0,0-10.07-18.83-35.26-10.27,0,0-18.47,8.56-15.11,27.39,0,0-33.58-12-35.26,20.54,0,0-78.91,6.85-83.95,63.33Z"/><path class="cls-4" d="M596,548.58c0-4.54-18.91-8.22-42.2-8.22a188,188,0,0,0-22.46,1.26c-2-.17-4.16-.27-6.46-.28-2.24-2.78-14.57-4.9-29.45-4.9-4.28,0-8.35.18-12,.49-4-2.28-8.68-4.33-25.19-5.13-20-1-34.2,1.81-37.13,4.42-3.67-.32-2.72.84-7,.84a112.75,112.75,0,0,0-21,1.72,49.55,49.55,0,0,0-7.06-.46c-6.45,0-11.67,1-11.67,2.27a.46.46,0,0,0,0,.08c-19,.42-33.77,3.56-33.77,7.37a1.57,1.57,0,0,0,.13.61l-.13,0H596s0-.07,0-.1Z"/><path class="cls-5" d="M1206,545.89h-67.32c-6.6,0-12-4.4-12-9.78s5.4-9.78,12-9.78h49.57c5.17,0,9.39-3.44,9.39-7.65s-4.23-7.65-9.39-7.65h-262c-5.17,0-9.39,3.44-9.39,7.65s4.23,7.65,9.39,7.65h77.75c6.6,0,12,4.4,12,9.78s-5.4,9.78-12,9.78H896c-5.74,0-10.44,3.83-10.44,8.5s4.7,8.5,10.44,8.5h310c5.74,0,10.44-3.83,10.44-8.5S1211.75,545.89,1206,545.89Z"/><path class="cls-6" d="M267.68,482.67c0-9.06-8.24-16.41-18.39-16.41a19.94,19.94,0,0,0-9.79,2.52,8.07,8.07,0,0,0-2.81-.56c-1-5.54-6.35-9.79-12.83-9.79a14.27,14.27,0,0,0-5.24,1c-1.75-4.56-3.78-8.64-11-10.24-8.72-1.95-14.9,3.62-16.18,8.83-1.6-.64-1.19,1.68-3.05,1.68a13.5,13.5,0,0,0-9.13,3.44,5.47,5.47,0,0,0-3.08-.93,4.84,4.84,0,0,0-5.09,4.54c0,.06,0,.11,0,.16-8.28.83-14.71,7.1-14.71,14.72,0,.41,0,.81.06,1.21l-.06,0H267.68c0-.07,0-.14,0-.21Z"/><path class="cls-7" d="M354.77,426.11H566.44s-10.28-68.94-79.12-61.63c0,0-5.14-54.32-51.38-36.56,0,0-21.58,8.36-17.47,36.56,0,0-6.17-11.49-21.58-6.27,0,0-11.3,5.22-9.25,16.71,0,0-20.55-7.31-21.58,12.54,0,0-48.29,4.18-51.38,38.65Z"/><path class="cls-8" d="M708.86,158.66H935.34s-11-53.91-84.66-48.19c0,0-5.5-42.48-55-28.59,0,0-23.09,6.53-18.69,28.59,0,0-6.6-9-23.09-4.9,0,0-12.09,4.08-9.89,13.07,0,0-22-5.72-23.09,9.8,0,0-51.67,3.27-55,30.22Z"/><path class="cls-9" d="M1788.66,223.78h226.48s-11-53.91-84.66-48.19c0,0-5.5-42.48-55-28.59,0,0-23.09,6.53-18.69,28.59,0,0-6.6-9-23.09-4.9,0,0-12.09,4.08-9.89,13.07,0,0-22-5.72-23.09,9.8,0,0-51.67,3.27-55,30.22Z"/><path class="cls-5" d="M1352.93,158H1126.45s11-30.82,84.66-27.56c0,0,5.5-24.29,55-16.35,0,0,23.09,3.74,18.69,16.35,0,0,6.6-5.14,23.09-2.8,0,0,12.09,2.34,9.89,7.47,0,0,22-3.27,23.09,5.6,0,0,51.67,1.87,55,17.28Z"/><g class="cls-10"><path class="cls-4" d="M304.46,215.57H237.92c-6.53,0-11.86-4.35-11.86-9.66s5.34-9.66,11.86-9.66h49c5.11,0,9.29-3.4,9.29-7.56s-4.18-7.56-9.29-7.56H28c-5.11,0-9.29,3.4-9.29,7.56s4.18,7.56,9.29,7.56h76.86c6.53,0,11.86,4.35,11.86,9.66s-5.34,9.66-11.86,9.66H-2c-5.67,0-10.32,3.78-10.32,8.4s4.64,8.4,10.32,8.4H304.46c5.67,0,10.32-3.78,10.32-8.4S310.14,215.57,304.46,215.57Z"/></g></g></svg>