<svg xmlns="http://www.w3.org/2000/svg" xmlns:xlink="http://www.w3.org/1999/xlink" viewBox="0 0 2438.95 1360"><defs><style>.cls-1{fill:none;}.cls-2{opacity:0.85;fill:url(#linear-gradient);}.cls-3{fill:#c3973f;}.cls-3,.cls-4{opacity:0.5;}.cls-4,.cls-7,.cls-8{fill:#fff;}.cls-5{fill:#fbecb2;}.cls-6{clip-path:url(#clip-path);}.cls-7{opacity:0.72;}</style><linearGradient id="linear-gradient" x1="567.25" y1="770.7" x2="1210.73" y2="770.7" gradientUnits="userSpaceOnUse"><stop offset="0" stop-color="#d5b671"/><stop offset="0.24" stop-color="#d09966"/><stop offset="0.35" stop-color="#ce8a61"/><stop offset="0.51" stop-color="#d39270"/><stop offset="0.81" stop-color="#dfa896"/><stop offset="1" stop-color="#e7b7b2"/></linearGradient><clipPath id="clip-path"><rect id="SVGID" class="cls-1" x="143.72" y="488.04" width="308" height="147.08"/></clipPath></defs><title>เมฆกลาง</title><g id="เมฆล่าง"><path class="cls-2" d="M1108.3,901.11h-541s26.26-176.72,202.24-158c0,0,13.13-139.23,131.32-93.71,0,0,55.16,21.42,44.65,93.71,0,0,15.76-29.45,55.16-16.07,0,0,28.89,13.39,23.64,42.84,0,0,52.53-18.74,55.16,32.13,0,0,123.44,10.71,131.32,99.07Z"/><path class="cls-3" d="M809.64,355.11h345.86s-16.79-113-129.28-101c0,0-8.39-89-83.95-59.91,0,0-35.26,13.69-28.54,59.91,0,0-10.07-18.83-35.26-10.27,0,0-18.47,8.56-15.11,27.39,0,0-33.58-12-35.26,20.54,0,0-78.91,6.85-83.95,63.33Z"/><path class="cls-3" d="M1972.42,889.35h345.86s-16.79-113-129.28-101c0,0-8.39-89-83.95-59.91,0,0-35.26,13.69-28.54,59.91,0,0-10.07-18.83-35.26-10.27,0,0-18.47,8.56-15.11,27.39,0,0-33.58-12-35.26,20.54,0,0-78.91,6.85-83.95,63.33Z"/><path class="cls-3" d="M926,1243h345.86s-16.79-113-129.28-101c0,0-8.39-89-83.95-59.91,0,0-35.26,13.69-28.54,59.91,0,0-10.07-18.83-35.26-10.27,0,0-18.47,8.56-15.11,27.39,0,0-33.58-12-35.26,20.54,0,0-78.91,6.85-83.95,63.33Z"/><path class="cls-4" d="M297.27,1090.25H643.13s-16.79-113-129.28-101c0,0-8.39-89-83.95-59.91,0,0-35.26,13.69-28.54,59.91,0,0-10.07-18.83-35.26-10.27,0,0-18.47,8.56-15.11,27.39,0,0-33.58-12-35.26,20.54,0,0-78.91,6.85-83.95,63.33Z"/><path class="cls-5" d="M479.52,214.25H425.83c-5.27,0-9.57-3.51-9.57-7.8s4.31-7.8,9.57-7.8h39.54c4.12,0,7.49-2.75,7.49-6.1s-3.37-6.1-7.49-6.1h-209c-4.12,0-7.49,2.75-7.49,6.1s3.37,6.1,7.49,6.1h62c5.27,0,9.57,3.51,9.57,7.8s-4.31,7.8-9.57,7.8H232.28c-4.58,0-8.32,3.05-8.32,6.78s3.75,6.78,8.32,6.78H479.52c4.58,0,8.32-3.05,8.32-6.78S484.1,214.25,479.52,214.25Z"/><path class="cls-4" d="M1518.84,210.54H1744.9s-11-54-84.5-48.24c0,0-5.49-42.51-54.87-28.62,0,0-23,6.54-18.66,28.62,0,0-6.58-9-23-4.91,0,0-12.07,4.09-9.88,13.08,0,0-21.95-5.72-23,9.81,0,0-51.58,3.27-54.87,30.25Z"/><g class="cls-6"><path class="cls-7" d="M368.2,592.91h-89c-8.73,0-15.86-5.81-15.86-12.92s7.14-12.92,15.86-12.92h65.53c6.83,0,12.42-4.55,12.42-10.11s-5.59-10.11-12.42-10.11H-1.51c-6.83,0-12.42,4.55-12.42,10.11s5.59,10.11,12.42,10.11H101.27c8.73,0,15.86,5.81,15.86,12.92s-7.14,12.92-15.86,12.92H-41.51c-7.59,0-13.79,5.06-13.79,11.23s6.21,11.23,13.79,11.23H368.2c7.59,0,13.79-5.06,13.79-11.23S375.78,592.91,368.2,592.91Z"/></g><path class="cls-5" d="M2036.22,1031.15c0-19.68-44.53-35.63-99.41-35.63a243.89,243.89,0,0,0-52.91,5.47,102.72,102.72,0,0,0-15.22-1.21c-5.27-12-34.32-21.25-69.37-21.25a182.37,182.37,0,0,0-28.34,2.14c-9.47-9.9-20.45-18.76-59.33-22.24-47.15-4.23-80.57,7.86-87.47,19.18-8.64-1.4-6.41,3.66-16.5,3.66-19.36,0-36.84,2.87-49.37,7.47a64.63,64.63,0,0,0-16.63-2c-15.19,0-27.5,4.42-27.5,9.86,0,.12,0,.24,0,.36-44.76,1.81-79.56,15.43-79.56,32a11.92,11.92,0,0,0,.3,2.62l-.3.11h601.56c0-.15,0-.3,0-.46Z"/><circle class="cls-8" cx="304.8" cy="340.63" r="12.13"/><circle class="cls-8" cx="1819.94" cy="227" r="10.41"/><circle class="cls-8" cx="1975.58" cy="1095.84" r="13.6"/><circle class="cls-8" cx="1206.68" cy="956.85" r="6.8"/><circle class="cls-8" cx="252.74" cy="747.04" r="8.57"/><circle class="cls-8" cx="649.93" cy="1013.78" r="4.87"/><circle class="cls-8" cx="1293.24" cy="193.24" r="4.87"/><circle class="cls-8" cx="676.68" cy="410.63" r="4.87"/></g></svg>