<svg xmlns="http://www.w3.org/2000/svg" viewBox="0 0 870.65 608.31"><defs><style>.cls-1{isolation:isolate;}.cls-2{fill:#a09181;}.cls-3{fill:#e8d9d1;}.cls-4{fill:#4c453d;}.cls-5{fill:#bb6e4c;}.cls-6{fill:#595b4f;}.cls-7{fill:#cfb47c;}.cls-8{fill:#b36e4d;}.cls-9{fill:#313b68;}.cls-10{fill:#1c1c1c;}.cls-11,.cls-12{fill:#807056;}.cls-12{opacity:0.3;mix-blend-mode:multiply;}.cls-13{fill:#ad9363;}.cls-14{fill:#917d5e;}.cls-15{fill:#9a5d45;}.cls-16{fill:#933d38;}.cls-17{fill:#e4dedb;}.cls-18{fill:#e23f29;}.cls-19{fill:#ffd10a;}.cls-20,.cls-21,.cls-22{fill:#fff;}.cls-20,.cls-25{stroke:#010101;}.cls-20,.cls-22,.cls-23,.cls-25{stroke-miterlimit:10;}.cls-20,.cls-21,.cls-22,.cls-23,.cls-25,.cls-26{stroke-width:0.07px;}.cls-21,.cls-22,.cls-23,.cls-26{stroke:#231f20;}.cls-21,.cls-26{stroke-linejoin:round;}.cls-23,.cls-25,.cls-26{fill:none;}.cls-24{fill:#231f20;}</style></defs><title>โรงเรียน</title><g class="cls-1"><g id="โรงเรียน"><rect class="cls-2" x="164.54" y="260.89" width="612.21" height="307.97"/><rect class="cls-3" x="141.28" y="245.07" width="658.73" height="15.82"/><rect class="cls-4" x="125.92" y="237.16" width="689.44" height="7.91"/><rect class="cls-5" x="608.69" y="275.15" width="143.28" height="116.77"/><rect class="cls-6" x="608.69" y="275.15" width="26.52" height="116.77"/><rect class="cls-6" x="725.45" y="275.23" width="26.52" height="116.77"/><rect class="cls-7" x="600.31" y="260.89" width="158.76" height="32.87"/><rect class="cls-7" x="608.86" y="399.44" width="143.11" height="2.71"/><rect class="cls-3" x="615.78" y="279.03" width="8.06" height="11.71" rx="4.03" ry="4.03"/><rect class="cls-3" x="633.07" y="279.03" width="8.06" height="11.71" rx="4.03" ry="4.03"/><rect class="cls-3" x="650.36" y="279.03" width="8.06" height="11.71" rx="4.03" ry="4.03"/><rect class="cls-3" x="667.65" y="279.03" width="8.06" height="11.71" rx="4.03" ry="4.03"/><rect class="cls-3" x="684.94" y="279.03" width="8.06" height="11.71" rx="4.03" ry="4.03"/><rect class="cls-3" x="702.23" y="279.03" width="8.06" height="11.71" rx="4.03" ry="4.03"/><rect class="cls-3" x="719.52" y="279.03" width="8.06" height="11.71" rx="4.03" ry="4.03"/><rect class="cls-3" x="736.81" y="279.03" width="8.06" height="11.71" rx="4.03" ry="4.03"/><rect class="cls-8" x="600.31" y="268.41" width="158.76" height="4.65"/><rect class="cls-9" x="600.31" y="260.89" width="158.76" height="7.52"/><rect class="cls-9" x="608.86" y="391.92" width="143.11" height="7.52"/><path class="cls-10" d="M677.19,365.64h-37V319.25a18.51,18.51,0,0,1,18.51-18.51h0a18.51,18.51,0,0,1,18.51,18.51Z"/><path class="cls-10" d="M720.49,365.64h-37V319.25A18.51,18.51,0,0,1,702,300.74h0a18.51,18.51,0,0,1,18.51,18.51Z"/><polygon class="cls-6" points="640.34 365.64 608.86 365.64 608.86 391.92 751.97 391.92 751.97 365.64 640.34 365.64"/><rect class="cls-5" x="635.2" y="365.64" width="4.97" height="26.28"/><rect class="cls-5" x="677.19" y="365.64" width="6.27" height="26.28"/><rect class="cls-5" x="720.49" y="365.64" width="4.97" height="26.28"/><rect class="cls-6" x="608.69" y="387.13" width="143.28" height="4.79"/><rect class="cls-3" x="611.55" y="300.58" width="20.78" height="32.87"/><rect class="cls-3" x="611.55" y="338.27" width="20.78" height="22.17"/><rect class="cls-3" x="728.15" y="300.74" width="20.78" height="32.87"/><rect class="cls-3" x="728.15" y="338.42" width="20.78" height="22.17"/><rect class="cls-11" x="640.17" y="338.27" width="37.02" height="6.67"/><rect class="cls-11" x="683.46" y="338.27" width="37.02" height="6.67"/><rect class="cls-3" x="640.17" y="365.64" width="37.02" height="4.88"/><rect class="cls-3" x="683.46" y="365.64" width="37.02" height="4.88"/><rect class="cls-5" x="641.76" y="372.38" width="33.84" height="14.75"/><rect class="cls-5" x="685.05" y="372.38" width="33.84" height="14.75"/><rect class="cls-6" x="632.33" y="370.52" width="100.1" height="5.82"/><rect class="cls-5" x="611.55" y="362.5" width="20.78" height="8.02"/><rect class="cls-5" x="728.15" y="362.5" width="20.78" height="8.02"/><rect class="cls-12" x="608.69" y="293.76" width="143.28" height="2.33"/><rect class="cls-12" x="611.55" y="362.5" width="20.78" height="2.33"/><rect class="cls-12" x="728.15" y="362.5" width="20.78" height="2.33"/><rect class="cls-12" x="641.76" y="376.34" width="33.84" height="2.33"/><rect class="cls-12" x="685.05" y="376.34" width="33.84" height="2.33"/><rect class="cls-12" x="677.19" y="376.34" width="6.27" height="2.33"/><rect class="cls-12" x="635.2" y="376.34" width="4.97" height="2.33"/><rect class="cls-12" x="720.49" y="376.34" width="4.97" height="2.33"/><rect class="cls-11" x="619.81" y="300.58" width="4.03" height="32.87"/><rect class="cls-11" x="619.93" y="306.63" width="4.03" height="20.78" transform="translate(938.97 -304.92) rotate(90)"/><rect class="cls-11" x="736.4" y="300.74" width="4.03" height="32.87"/><rect class="cls-11" x="736.52" y="306.63" width="4.03" height="20.78" transform="translate(1055.56 -421.51) rotate(90)"/><rect class="cls-11" x="619.81" y="338.27" width="4.03" height="22.17"/><rect class="cls-11" x="619.93" y="339.16" width="4.03" height="20.78" transform="translate(971.49 -272.4) rotate(90)"/><rect class="cls-11" x="736.4" y="338.42" width="4.03" height="22.17"/><rect class="cls-11" x="736.52" y="339.35" width="4.03" height="20.78" transform="translate(1088.28 -388.79) rotate(90)"/><rect class="cls-5" x="190.59" y="275.15" width="143.28" height="116.77"/><rect class="cls-6" x="190.59" y="275.15" width="26.52" height="116.77"/><rect class="cls-6" x="307.36" y="275.23" width="26.52" height="116.77"/><rect class="cls-7" x="182.21" y="260.89" width="158.76" height="32.87"/><rect class="cls-7" x="190.76" y="399.44" width="143.11" height="2.71"/><rect class="cls-3" x="197.68" y="279.03" width="8.06" height="11.71" rx="4.03" ry="4.03"/><rect class="cls-3" x="214.97" y="279.03" width="8.06" height="11.71" rx="4.03" ry="4.03"/><rect class="cls-3" x="232.26" y="279.03" width="8.06" height="11.71" rx="4.03" ry="4.03"/><rect class="cls-3" x="249.55" y="279.03" width="8.06" height="11.71" rx="4.03" ry="4.03"/><rect class="cls-3" x="266.84" y="279.03" width="8.06" height="11.71" rx="4.03" ry="4.03"/><rect class="cls-3" x="284.13" y="279.03" width="8.06" height="11.71" rx="4.03" ry="4.03"/><rect class="cls-3" x="301.42" y="279.03" width="8.06" height="11.71" rx="4.03" ry="4.03"/><rect class="cls-3" x="318.71" y="279.03" width="8.06" height="11.71" rx="4.03" ry="4.03"/><rect class="cls-8" x="182.21" y="268.41" width="158.76" height="4.65"/><rect class="cls-9" x="182.21" y="260.89" width="158.76" height="7.52"/><rect class="cls-9" x="190.76" y="391.92" width="143.11" height="7.52"/><path class="cls-10" d="M259.1,365.64h-37V319.25a18.51,18.51,0,0,1,18.51-18.51h0a18.51,18.51,0,0,1,18.51,18.51Z"/><path class="cls-10" d="M302.39,365.64h-37V319.25a18.51,18.51,0,0,1,18.51-18.51h0a18.51,18.51,0,0,1,18.51,18.51Z"/><polygon class="cls-6" points="222.25 365.64 190.76 365.64 190.76 391.92 333.87 391.92 333.87 365.64 222.25 365.64"/><rect class="cls-5" x="217.11" y="365.64" width="4.97" height="26.28"/><rect class="cls-5" x="259.1" y="365.64" width="6.27" height="26.28"/><rect class="cls-5" x="302.39" y="365.64" width="4.97" height="26.28"/><rect class="cls-6" x="190.59" y="387.13" width="143.28" height="4.79"/><rect class="cls-3" x="193.46" y="300.58" width="20.78" height="32.87"/><rect class="cls-3" x="193.46" y="338.27" width="20.78" height="22.17"/><rect class="cls-3" x="310.05" y="300.74" width="20.78" height="32.87"/><rect class="cls-3" x="310.05" y="338.42" width="20.78" height="22.17"/><rect class="cls-11" x="222.07" y="338.27" width="37.02" height="6.67"/><rect class="cls-11" x="265.37" y="338.27" width="37.02" height="6.67"/><rect class="cls-3" x="222.07" y="365.64" width="37.02" height="4.88"/><rect class="cls-3" x="265.37" y="365.64" width="37.02" height="4.88"/><rect class="cls-5" x="223.66" y="372.38" width="33.84" height="14.75"/><rect class="cls-5" x="266.96" y="372.38" width="33.84" height="14.75"/><rect class="cls-6" x="214.24" y="370.52" width="100.1" height="5.82"/><rect class="cls-5" x="193.46" y="362.5" width="20.78" height="8.02"/><rect class="cls-5" x="310.05" y="362.5" width="20.78" height="8.02"/><rect class="cls-12" x="190.59" y="293.76" width="143.28" height="2.33"/><rect class="cls-12" x="193.46" y="362.5" width="20.78" height="2.33"/><rect class="cls-12" x="310.05" y="362.5" width="20.78" height="2.33"/><rect class="cls-12" x="223.66" y="376.34" width="33.84" height="2.33"/><rect class="cls-12" x="266.96" y="376.34" width="33.84" height="2.33"/><rect class="cls-12" x="259.1" y="376.34" width="6.27" height="2.33"/><rect class="cls-12" x="217.11" y="376.34" width="4.97" height="2.33"/><rect class="cls-12" x="302.39" y="376.34" width="4.97" height="2.33"/><rect class="cls-11" x="201.71" y="300.58" width="4.03" height="32.87"/><rect class="cls-11" x="201.83" y="306.63" width="4.03" height="20.78" transform="translate(520.87 113.18) rotate(90)"/><rect class="cls-11" x="318.31" y="300.74" width="4.03" height="32.87"/><rect class="cls-11" x="318.42" y="306.63" width="4.03" height="20.78" transform="translate(637.46 -3.42) rotate(90)"/><rect class="cls-11" x="201.71" y="338.27" width="4.03" height="22.17"/><rect class="cls-11" x="201.83" y="339.16" width="4.03" height="20.78" transform="translate(553.4 145.7) rotate(90)"/><rect class="cls-11" x="318.31" y="338.42" width="4.03" height="22.17"/><rect class="cls-11" x="318.42" y="339.35" width="4.03" height="20.78" transform="translate(670.18 29.3) rotate(90)"/><rect class="cls-5" x="399.64" y="275.15" width="143.28" height="116.77"/><rect class="cls-6" x="399.64" y="275.15" width="26.52" height="116.77"/><rect class="cls-6" x="516.4" y="275.23" width="26.52" height="116.77"/><rect class="cls-7" x="391.26" y="260.89" width="158.76" height="32.87"/><rect class="cls-7" x="399.81" y="399.44" width="143.11" height="2.71"/><rect class="cls-3" x="406.73" y="279.03" width="8.06" height="11.71" rx="4.03" ry="4.03"/><rect class="cls-3" x="424.02" y="279.03" width="8.06" height="11.71" rx="4.03" ry="4.03"/><rect class="cls-3" x="441.31" y="279.03" width="8.06" height="11.71" rx="4.03" ry="4.03"/><rect class="cls-3" x="458.6" y="279.03" width="8.06" height="11.71" rx="4.03" ry="4.03"/><rect class="cls-3" x="475.89" y="279.03" width="8.06" height="11.71" rx="4.03" ry="4.03"/><rect class="cls-3" x="493.18" y="279.03" width="8.06" height="11.71" rx="4.03" ry="4.03"/><rect class="cls-3" x="510.47" y="279.03" width="8.06" height="11.71" rx="4.03" ry="4.03"/><rect class="cls-3" x="527.76" y="279.03" width="8.06" height="11.71" rx="4.03" ry="4.03"/><rect class="cls-8" x="391.26" y="268.41" width="158.76" height="4.65"/><rect class="cls-9" x="391.26" y="260.89" width="158.76" height="7.52"/><rect class="cls-9" x="399.81" y="391.92" width="143.11" height="7.52"/><path class="cls-10" d="M468.14,365.64h-37V319.25a18.51,18.51,0,0,1,18.51-18.51h0a18.51,18.51,0,0,1,18.51,18.51Z"/><path class="cls-10" d="M511.44,365.64h-37V319.25a18.51,18.51,0,0,1,18.51-18.51h0a18.51,18.51,0,0,1,18.51,18.51Z"/><polygon class="cls-6" points="431.3 365.64 399.81 365.64 399.81 391.92 542.92 391.92 542.92 365.64 431.3 365.64"/><rect class="cls-5" x="426.15" y="365.64" width="4.97" height="26.28"/><rect class="cls-5" x="468.14" y="365.64" width="6.27" height="26.28"/><rect class="cls-5" x="511.44" y="365.64" width="4.97" height="26.28"/><rect class="cls-6" x="399.64" y="387.13" width="143.28" height="4.79"/><rect class="cls-3" x="402.51" y="300.58" width="20.78" height="32.87"/><rect class="cls-3" x="402.51" y="338.27" width="20.78" height="22.17"/><rect class="cls-3" x="519.1" y="300.74" width="20.78" height="32.87"/><rect class="cls-3" x="519.1" y="338.42" width="20.78" height="22.17"/><rect class="cls-11" x="431.12" y="338.27" width="37.02" height="6.67"/><rect class="cls-11" x="474.41" y="338.27" width="37.02" height="6.67"/><rect class="cls-3" x="431.12" y="365.64" width="37.02" height="4.88"/><rect class="cls-3" x="474.41" y="365.64" width="37.02" height="4.88"/><rect class="cls-5" x="432.71" y="372.38" width="33.84" height="14.75"/><rect class="cls-5" x="476" y="372.38" width="33.84" height="14.75"/><rect class="cls-6" x="423.29" y="370.52" width="100.1" height="5.82"/><rect class="cls-5" x="402.51" y="362.5" width="20.78" height="8.02"/><rect class="cls-5" x="519.1" y="362.5" width="20.78" height="8.02"/><rect class="cls-12" x="399.64" y="293.76" width="143.28" height="2.33"/><rect class="cls-12" x="402.51" y="362.5" width="20.78" height="2.33"/><rect class="cls-12" x="519.1" y="362.5" width="20.78" height="2.33"/><rect class="cls-12" x="432.71" y="376.34" width="33.84" height="2.33"/><rect class="cls-12" x="476" y="376.34" width="33.84" height="2.33"/><rect class="cls-12" x="468.14" y="376.34" width="6.27" height="2.33"/><rect class="cls-12" x="426.15" y="376.34" width="4.97" height="2.33"/><rect class="cls-12" x="511.44" y="376.34" width="4.97" height="2.33"/><rect class="cls-11" x="410.76" y="300.58" width="4.03" height="32.87"/><rect class="cls-11" x="410.88" y="306.63" width="4.03" height="20.78" transform="translate(729.92 -95.87) rotate(90)"/><rect class="cls-11" x="527.36" y="300.74" width="4.03" height="32.87"/><rect class="cls-11" x="527.47" y="306.63" width="4.03" height="20.78" transform="translate(846.51 -212.47) rotate(90)"/><rect class="cls-11" x="410.76" y="338.27" width="4.03" height="22.17"/><rect class="cls-11" x="410.88" y="339.16" width="4.03" height="20.78" transform="translate(762.44 -63.35) rotate(90)"/><rect class="cls-11" x="527.36" y="338.42" width="4.03" height="22.17"/><rect class="cls-11" x="527.47" y="339.35" width="4.03" height="20.78" transform="translate(879.23 -179.75) rotate(90)"/><rect class="cls-5" x="201.71" y="433.01" width="121.03" height="73.81"/><polygon class="cls-6" points="228.34 425.92 201.72 425.92 201.72 433.01 322.75 433.01 322.75 425.92 228.34 425.92"/><polygon class="cls-6" points="201.72 443.72 201.72 425.92 196 425.92 196 506.83 201.72 506.83 201.72 443.72"/><polygon class="cls-6" points="328.46 443.72 328.46 425.92 322.75 425.92 322.75 506.83 328.46 506.83 328.46 443.72"/><rect class="cls-12" x="196" y="520.16" width="132.46" height="3.8"/><rect class="cls-12" x="201.71" y="433.01" width="121.03" height="2.33"/><rect class="cls-7" x="196" y="506.83" width="132.46" height="13.34"/><rect class="cls-7" x="196.09" y="421.38" width="132.46" height="4.54"/><path class="cls-10" d="M222.68,440.46h0a13.87,13.87,0,0,1,13.87,13.87v45.06a0,0,0,0,1,0,0H208.81a0,0,0,0,1,0,0V454.33a13.87,13.87,0,0,1,13.87-13.87Z"/><path class="cls-10" d="M262.23,440.46h0a13.87,13.87,0,0,1,13.87,13.87v45.06a0,0,0,0,1,0,0H248.36a0,0,0,0,1,0,0V454.33A13.87,13.87,0,0,1,262.23,440.46Z"/><path class="cls-10" d="M301.78,440.46h0a13.87,13.87,0,0,1,13.87,13.87v45.06a0,0,0,0,1,0,0H287.91a0,0,0,0,1,0,0V454.33A13.87,13.87,0,0,1,301.78,440.46Z"/><rect class="cls-3" x="208.81" y="494.5" width="27.74" height="4.88"/><rect class="cls-3" x="248.36" y="494.5" width="27.74" height="4.88"/><rect class="cls-3" x="287.91" y="494.5" width="27.74" height="4.88"/><rect class="cls-5" x="619.86" y="433.01" width="121.03" height="73.81"/><polygon class="cls-6" points="646.48 425.92 619.86 425.92 619.86 433.01 740.89 433.01 740.89 425.92 646.48 425.92"/><polygon class="cls-6" points="619.86 443.72 619.86 425.92 614.14 425.92 614.14 506.83 619.86 506.83 619.86 443.72"/><polygon class="cls-6" points="746.6 443.72 746.6 425.92 740.89 425.92 740.89 506.83 746.6 506.83 746.6 443.72"/><rect class="cls-12" x="614.14" y="520.16" width="132.46" height="3.8"/><rect class="cls-12" x="619.86" y="433.01" width="121.03" height="2.33"/><rect class="cls-7" x="614.14" y="506.83" width="132.46" height="13.34"/><rect class="cls-7" x="614.23" y="421.38" width="132.46" height="4.54"/><path class="cls-10" d="M640.82,440.46h0a13.87,13.87,0,0,1,13.87,13.87v45.06a0,0,0,0,1,0,0H627a0,0,0,0,1,0,0V454.33A13.87,13.87,0,0,1,640.82,440.46Z"/><path class="cls-10" d="M680.37,440.46h0a13.87,13.87,0,0,1,13.87,13.87v45.06a0,0,0,0,1,0,0H666.5a0,0,0,0,1,0,0V454.33A13.87,13.87,0,0,1,680.37,440.46Z"/><path class="cls-10" d="M719.92,440.46h0a13.87,13.87,0,0,1,13.87,13.87v45.06a0,0,0,0,1,0,0H706.06a0,0,0,0,1,0,0V454.33a13.87,13.87,0,0,1,13.87-13.87Z"/><rect class="cls-3" x="626.95" y="494.5" width="27.74" height="4.88"/><rect class="cls-3" x="666.5" y="494.5" width="27.74" height="4.88"/><rect class="cls-3" x="706.06" y="494.5" width="27.74" height="4.88"/><rect class="cls-13" x="164.54" y="557.22" width="612.21" height="11.63"/><rect class="cls-14" x="164.54" y="545.59" width="612.21" height="11.63"/><rect class="cls-10" x="370.62" y="421.38" width="200.04" height="124.21"/><rect class="cls-5" x="376.96" y="421.38" width="52.28" height="13.33"/><rect class="cls-5" x="354.17" y="489.99" width="97.87" height="13.33" transform="translate(-93.56 899.76) rotate(-90)"/><rect class="cls-15" x="380.35" y="434.72" width="45.51" height="13.05"/><rect class="cls-5" x="512.04" y="421.38" width="52.28" height="13.33"/><rect class="cls-5" x="489.25" y="489.99" width="97.87" height="13.33" transform="translate(41.52 1034.84) rotate(-90)"/><rect class="cls-15" x="515.43" y="434.72" width="45.51" height="13.05"/><rect class="cls-5" x="489.25" y="489.99" width="97.87" height="13.33" transform="translate(41.52 1034.84) rotate(-90)"/><rect class="cls-16" x="442.27" y="403.8" width="58.02" height="15.95"/><path class="cls-17" d="M454,413.54a3.82,3.82,0,0,0,1.66.41c.69,0,1.05-.28,1.05-.72s-.31-.65-1.11-.93c-1.1-.38-1.82-1-1.82-2,0-1.13.94-2,2.51-2a4.06,4.06,0,0,1,1.69.33l-.33,1.21a3.15,3.15,0,0,0-1.39-.31c-.65,0-1,.29-1,.64s.37.61,1.23.93c1.17.43,1.72,1,1.72,2,0,1.11-.85,2.05-2.67,2.05a4.33,4.33,0,0,1-1.88-.4Z"/><path class="cls-17" d="M464.08,414.9a4.27,4.27,0,0,1-1.7.28,3.15,3.15,0,0,1-3.47-3.31,3.38,3.38,0,0,1,3.62-3.52,3.91,3.91,0,0,1,1.63.29l-.3,1.19a3.23,3.23,0,0,0-1.26-.25,2.18,2.18,0,0,0,0,4.35,3.74,3.74,0,0,0,1.25-.22Z"/><path class="cls-17" d="M466.56,408.46V411H469v-2.54h1.49v6.62H469v-2.77h-2.47v2.77h-1.5v-6.62Z"/><path class="cls-17" d="M477.89,411.71a3.16,3.16,0,0,1-3.25,3.49,3.09,3.09,0,0,1-3.11-3.37,3.21,3.21,0,0,1,3.22-3.47A3.09,3.09,0,0,1,477.89,411.71Zm-4.79.09c0,1.3.61,2.21,1.61,2.21s1.59-1,1.59-2.25-.57-2.21-1.6-2.21S473.11,410.51,473.11,411.79Z"/><path class="cls-17" d="M484.94,411.71a3.16,3.16,0,0,1-3.25,3.49,3.09,3.09,0,0,1-3.11-3.37,3.21,3.21,0,0,1,3.22-3.47A3.09,3.09,0,0,1,484.94,411.71Zm-4.79.09c0,1.3.61,2.21,1.61,2.21s1.59-1,1.59-2.25-.57-2.21-1.6-2.21S480.15,410.51,480.15,411.79Z"/><path class="cls-17" d="M485.92,408.46h1.5v5.36h2.63v1.26h-4.14Z"/><polygon class="cls-18" points="434.5 158.64 351.71 158.64 434.5 103.44 434.5 158.64"/><polygon class="cls-19" points="351.71 103.49 434.5 103.49 351.71 158.69 351.71 103.49"/><path class="cls-20" d="M403.2,121.43a8.23,8.23,0,0,0,1.71,1.56,10.32,10.32,0,0,1,1.8,1.65c-.83.1-1.39-1.06-2-1.41s-2.41-1.2-2.12-1.9S403.2,121.43,403.2,121.43Z"/><path class="cls-21" d="M415.14,119.27s.61.49,0,1.55a4.39,4.39,0,0,0-.29,1.6c-.76-.35-.4-2.05-.4-2.05-1,1-.92,3.48-.92,3.48-.28.14-.44-2.13-.17-2.7a5.38,5.38,0,0,0-1.7,1c-.62.57-.45-.43.83-1.2.86-.52.62-.8.95-1"/><path class="cls-22" d="M408.83,129.75h0S408.82,129.74,408.83,129.75Z"/><path class="cls-21" d="M418.47,121.65c0-.41.1-.52-.3-.92a1.83,1.83,0,0,0-.89-.31,3.7,3.7,0,0,1,.4.45c.14.22.26.74,0,.88a.58.58,0,0,0-.62.16c-.05-.78-.28-1.22-1.13-1.16a.94.94,0,0,1,.37,1,1.65,1.65,0,0,1-1.15.38,3.25,3.25,0,0,1-2-.54c-.63-.38-1.12-.66-1.74-1a4,4,0,0,0-1.56-.45h-.5c0-.9.8-1.23,1.57-1.15,0,.34.27.62.17.94a1.2,1.2,0,0,0,.5-.8s.64.17,1,.33a7.31,7.31,0,0,1-.38.65c.42.16.61-.17,1-.26a3.36,3.36,0,0,0,.89.09,1.68,1.68,0,0,0,1-.71,1.66,1.66,0,0,0,.23-1,11.21,11.21,0,0,0,1.69-.33,16.91,16.91,0,0,1,2.12-.9,8.39,8.39,0,0,1,1.25-.14,3.86,3.86,0,0,0,1.91-.47,10.26,10.26,0,0,1-1.56,0,3.29,3.29,0,0,0-1.67,0c-.49.15-1.11.44-1.63.55a2.23,2.23,0,0,1-1,.09c.92-.21,1.09-.86,1.8-1.28s1.62-.3,1.88-1.12c-.7.44-1.62.15-2.47.44a4.29,4.29,0,0,0-1.11.75,3.74,3.74,0,0,1,.59-1.61,6.77,6.77,0,0,0,.38-1.61c.13-.61,1.47-1.71,1.1-2.24a1.84,1.84,0,0,1-.57.88c-.44.33-1,.49-1,1.14-.14,1.53-1,1.43-1.32,2.46a7.84,7.84,0,0,0-.14,1.31c-1.09.48-.91-.17-1.34,0a1.4,1.4,0,0,1-.83.11,2.29,2.29,0,0,0-1.58-.52,1.09,1.09,0,0,0-1.69-.74,2.07,2.07,0,0,0-2.49-.38c-.64-1-2-.73-3.24-1.79a4,4,0,0,0-3.79-1s1.78-.07,2.43.83c0,0-1-.6-1.77-.09,0,0,.89.06,1.13.32a.64.64,0,0,1,.06.84c-.75-.1-1.62-1.64-3.41-.79a3.38,3.38,0,0,1,2.83,1.62,6.08,6.08,0,0,0-2.42-1.29,2.83,2.83,0,0,0-2.61.33c.68-.17,2.24-.48,2.66.29a1,1,0,0,0-.33.2,1.55,1.55,0,0,0-1.46.33c.24.06,1-.21,1.29.12a2.74,2.74,0,0,0-.12,1,5.2,5.2,0,0,0-3.6-.47c-1.53.47-1.44,2.24,0,1.9,0,0-.79-.75.06-1.12a3,3,0,0,1,1.51-.07,4.23,4.23,0,0,1,1.89.44,3.12,3.12,0,0,0,1.19.51c-1.25.23-2.79.1-3.08-.46a.51.51,0,0,0,.23.85c-1.56-.14-1.8.67-2.83.88-.79.16-2.24-.22-2.71,1a1.94,1.94,0,0,1,1.18-.47c.64-.09,1.86.28,3.49.14a.54.54,0,0,0-.21.63,1,1,0,0,0-.44,1.44c-.5.12-.23.94-.23.94a2.37,2.37,0,0,0-1.08.64,2.65,2.65,0,0,0-.75,1.21,2.31,2.31,0,0,1,1.6-.85s-1.37,2-.81,2.93a1.27,1.27,0,0,1,1.28-1.47c.63,0,.76-.14.93-.41-.72,1-.06,1.84.91,1.7a1.16,1.16,0,0,0-.18,1,1.4,1.4,0,0,0,.74.58s-.16.58-1.86.58a3.13,3.13,0,0,0,2.5.95,1.09,1.09,0,0,0,.19,1.18,4.5,4.5,0,0,1-2-.4c.09.64,1.14.45,1.08,1.25a2,2,0,0,0-.43-.3c-.15-.06-.68-.22-.72.16.07-.56-1.13-1.57-1.83-.78a.78.78,0,0,0-1.38-.66c.15-1-.28-.68-.71-1.28-.19-.27,0-.49-.43-.78s-.65,0-.72-.49c-.09.85.7.66.47,1.93a.72.72,0,0,0-1.32-.28c0-.66-1-.76-1.2-.13a.67.67,0,0,0-1.34-.08c-.1-1.62-1.6-.85-2.12-1.72.12,1,1,.84.89,1.76-.51-.49-1.79-.07-1.58.89-.77-.51-1.76.29-1.52.92a2.27,2.27,0,0,0-1.76-.07,4,4,0,0,0-1.35.69,4.69,4.69,0,0,1,1.27,0c.41.08.47.27.88.33-.35.23-.4.14-.65.51-.35.53.28.88.28.88a1.12,1.12,0,0,0-1.12.62,1,1,0,0,0,.21,1.3c-1.43-.11-1.92,1.6-3.29,1.3,1.25,1,1.22-.14,3.1,0,0,0-1.05.38-1.09,1a1.29,1.29,0,0,0,.43.93.86.86,0,0,0-.74,1.25c-.7-.07-1.48.83-2,.79a1.54,1.54,0,0,0,1.47.37c-.56.27-.89.93-1.59.5.12.46.25.71.62.77-.6.43-1,.15-1.74.12-.05.33.35.77.35.77-1-.08-1.43-.4-2.56.15a1.34,1.34,0,0,1,.92.5l-.39,0c-.62-.25-1.19.14-1.88,0s-.94-.46-1.27-.54a3,3,0,0,0-1.21,0c-.4.07-.4,0-.71-.17s-1.27-.37-1.61.27a1.86,1.86,0,0,1,.88-.12,3,3,0,0,0,1.82.48,14,14,0,0,1,2.94.91c-1.18.28-2.1-.27-3.37.58-.79.53-2.22-.07-2.41.92a.7.7,0,0,1,.79-.28,3.55,3.55,0,0,0,2.69-.44.74.74,0,0,1-.53,1c-1.06.34-2.08.34-3,1.07-.67.53-1.07-.3-1.92.79a2.89,2.89,0,0,1-1.55.8s.76.54,1.93-.36c.82-.63,1.77-.34,3-1a1.17,1.17,0,0,1-.94.93c-.66.17-1.17-.14-3.3,1.92a5.45,5.45,0,0,1-2,1.08c1.65.11,2.68-1,3.2-1,2.34-.28,1.69-.09,3.43-1.72l.19.14c0-.06.77-.42,1-.61.41-.41.31-.61.89-.68a2.31,2.31,0,0,0,1.3-.69c.33-.26.92-.64,1.33-.33-.51-.08-1,.53-1.26.86a2.66,2.66,0,0,1-1,.94c.87.47,2-1.73,3.31-1.47a2.11,2.11,0,0,1-.93,1,1.63,1.63,0,0,0-1.06,1c.82-.75,1.78-.36,2.28-.85a19.84,19.84,0,0,1,1.91-1.69,6.7,6.7,0,0,0,1.56-1.55c.44-.74,1.08-.7,1.52-1.15s1.41-.42,2.16-.35c0,0,0,.48,0,1.16a1.08,1.08,0,0,0-1.41.34.72.72,0,0,1,.78.51c-.75-.11-.52,1-1.29.95.48.42,1,.29,1.49-.25-.07.71.08.86.55,1a1.41,1.41,0,0,1,0-.65c.14-.25.46-.21.52-.53-.07.73.36.57.61,1.13a2,2,0,0,1,0,1.63c-1.46,0-2.09,2.33-1.15,3,.38.28.11.32.21.8a3.4,3.4,0,0,0,.61,1.15,2,2,0,0,0,1.79.55,2.68,2.68,0,0,0,1.6-.59,3.19,3.19,0,0,0,.5-1.7,2.16,2.16,0,0,0-.26-3,4.44,4.44,0,0,1,1.34.13c.93.38,1,2,1,2,.19-1.05.54-1.72-.09-2.9a1.31,1.31,0,0,0-1.25-.64,1.11,1.11,0,0,0-1.06.24c-.19-.26-.44,0-.66-.11s-.08-.48-.21-.8-.58-.48-.58-.48c-.15-.25.1-.49-.18-.7s-.36,0-.49-.33,0-.72,0-1a4.35,4.35,0,0,1,.1-1.68c.33.16.44,0,.8.07s.47.14.8.41a3.4,3.4,0,0,0,2,.8,6.44,6.44,0,0,1,1.07-.14,2.2,2.2,0,0,0,1.07-.17,1.46,1.46,0,0,0,.8-1.69,3.36,3.36,0,0,0-1.07-1.76c.65-.56-.86-1.08-1.26-1.06a4.28,4.28,0,0,0-1.57.56c-.05-.45-.41-.92.09-1.26a1.58,1.58,0,0,1,1.43-.35,1.59,1.59,0,0,0-1-.63,2,2,0,0,0-1.35.3,2.07,2.07,0,0,0-.69,2.22c-.4,0-.72.21-1.11-.13a1.61,1.61,0,0,1-.39-1.07,4.76,4.76,0,0,1,.36-2.12,2.89,2.89,0,0,1,3-2.19,13.42,13.42,0,0,1,2.61.3,21.49,21.49,0,0,1,2.11.7,12.47,12.47,0,0,0,2.3.38c.93.13,1.75.36,2.7.41.21,0,.86.15.82.42s-.21.33-.22.57a2.67,2.67,0,0,0,.13.69,1.85,1.85,0,0,1-1-.23c-.36-.21-.52-.36-1-.22.39.62.93.65,1.56.84a2.3,2.3,0,0,0-1.06.58,4.18,4.18,0,0,1-.87.74c.87.23,1.27-.63,2.08-.49,0,.44-.06.92,0,1.38.45-.17.6-.93.7-1.33a9.69,9.69,0,0,0,1.16.87,2.76,2.76,0,0,0,1.42.67c.11.4.56.42.89.46a8.82,8.82,0,0,1,1,.2,2.44,2.44,0,0,0,1.12-.06,4.61,4.61,0,0,1,1.1,0l.1.1h0c-.13.55.53.33.87.34-.71.16-1.34,1.23-.56,1.65.06.37-.06.61.15.94s.84.41.84.41c.19.37.35,1.29,1.94.93,1.38.35,2.79.29,3.51-1.16a3,3,0,0,0,.17-2.16,2.57,2.57,0,0,0-.45-.68c0-.36.17-.47.09-.9l-.21-.38c-.49-1.22-2.07-1.09-2.77-.8.35-.56.26-.83.86-1.06a1.58,1.58,0,0,0,.35-.26c.11-.08.13-.26.23-.33.27-.19.38-.11.68,0a1.14,1.14,0,0,0-1.06-.46,3,3,0,0,0-1.05.41.76.76,0,0,0-1,1c-.42-.3-.92.1-1,.66a1.24,1.24,0,0,0-1,.52c-.19-.6-1.11-.47-1.11-.47s-.23-.35-.59-.43a1.1,1.1,0,0,0-.71,0c-.31,0-.76-.18-1.1,0,0-.64-.54-.58-1-.6a2.61,2.61,0,0,0,0-1.08c2.12-1.7,2.6-4.35,2.73-6.88.48,0,.59-.32,1-.43s.75.37,1.17.31a3.47,3.47,0,0,1-.13.61c-.09.33-.13.55-.52.68.5.18.74-.09,1.06-.46-.11.82-.15,1.48.6,2a1.47,1.47,0,0,1,.29-1.32c.41.33,1,.57,1,1.19.39-.78-.36-2.14-.7-2.15a4,4,0,0,0,2-.38,4.31,4.31,0,0,0,1.1-.72c.37-.38.44-.54.89-.47s.75.49,1.27.84a2.22,2.22,0,0,0,1.38.32,2.36,2.36,0,0,0,1-.37c.37-.19.58-.07,1-.17a1.53,1.53,0,0,0,.87-.7c.14-.19,1.34-1.47.39-1.54,0-.76-.28-1.46-1.16-1.53,0-1-1.76-1.77-2.65-1.49a2.09,2.09,0,0,0-1.25,1.26c-.23.52-.69.78-.89,1.38a8.35,8.35,0,0,0-2.08.25,6.56,6.56,0,0,1-2.23.13,6.46,6.46,0,0,1-2.29-1c-.71-.43-1.45-.72-2.17-1.1s-2.58-2.3-2.24-3c.56-.16,1.17.14,1.75.12a10.41,10.41,0,0,0,1.44-.34,3.15,3.15,0,0,1-2.4,1.6c1.29.49,2-.46,2.54-.81,0,0,.72,0,1.62,0a3.8,3.8,0,0,0,1.33-.22c.36.27,1.4.79,1.73,1.09.13.13.76.83.76.84-.43.23-.66.67-1.17.88a1.24,1.24,0,0,0,1.54-.4,1.07,1.07,0,0,0,.11,1.25s.12-.81.59-1a3.1,3.1,0,0,1,.69,1,1.24,1.24,0,0,0,.3-1,.42.42,0,0,0-.26-.42c0-.3.33-.66-.1-1.35-.21-.33-.39-.29-.73-.37a5.11,5.11,0,0,1-1.16-.56,4.45,4.45,0,0,1-.89-.65,3.89,3.89,0,0,1,1.86.3c.65.27,1.2.56,2.45,1.15a4.61,4.61,0,0,0,2.05.17,9.52,9.52,0,0,1,3.16-.42,1.42,1.42,0,0,1,1.34,1.13C420.76,122.12,419.52,121.48,418.47,121.65Zm-1.51,5a9.64,9.64,0,0,0,.74-1,1,1,0,0,0,.3.86c-.53.07-.9.72-.9.72S416.89,126.61,417,126.61Zm-16.18-10.76s-1.28-.62-1.08-1,1.58.71,1.58.71A1.71,1.71,0,0,0,400.78,115.86Zm.81-.53c-.92-.83-2.31-.77-1.58-1s1.87.8,1.87.8S401.67,115.39,401.59,115.32ZM402.9,121s-.61-.39-.61-.79l1.67.39Zm.13-6.42a7.85,7.85,0,0,1,0-1.29,16.28,16.28,0,0,0,1.46,1.45Zm1.95.07a6.59,6.59,0,0,0-1.59-1.54,4.17,4.17,0,0,1,1.1.47c.55.38,1.4,1,1.4,1Z"/><path class="cls-23" d="M410.59,117.32c0-.15-.15-.32-.26-.4s-.39-.16-.53.11a.58.58,0,0,0,0,.6c.19.22.58-.17.82-.22,0-.36-.41-.6-.66-.76a1,1,0,0,0-1,0,1,1,0,0,0-.54.82c0,.24.06.73.27.87.38.26.82-.09,1.08-.34a2.68,2.68,0,0,1,.88-.57,1.84,1.84,0,0,0-.1-.28"/><path class="cls-24" d="M410.61,117.31c0-.15-.15-.32-.26-.4s-.39-.16-.53.11a.58.58,0,0,0,0,.6c.19.22.58-.17.82-.22Z"/><path class="cls-23" d="M414.33,116.13c.75.9-.44,1.06-.5,1.87.54-.09.4,1-.44,1s-.75-.74-.48-1.14"/><path class="cls-23" d="M412.3,117.85c-.65-.12-.67.5-.28.7"/><path class="cls-23" d="M413.36,116.28c-.23.48-1.05.58-1.49.43-.17-.06-.48-.18-.54-.39-.09-.38.25-.41.44-.56"/><path class="cls-23" d="M410.12,115a1.07,1.07,0,0,0-.45.61c-.07.47.1.28.41.41s1,.7,1.26.31"/><path class="cls-23" d="M409.66,115.72c-.63.32-1-.47-1.25-.61l-.8-.48"/><path class="cls-23" d="M409,116.58a1.18,1.18,0,0,0-2,.67"/><path class="cls-23" d="M406.47,116.3c-.62-.11-.13-.67.35-.38"/><path class="cls-23" d="M405.5,116.09c-.09,0-.44-.06-.56,0-.29.18.06.33.21.31"/><path class="cls-23" d="M406.33,115.08a1.16,1.16,0,0,0-.73,0c-.22.14-.25.44.07.45"/><path class="cls-23" d="M404.53,115.12c-.46-.08-.58.53-.17.56"/><path class="cls-23" d="M403.24,115.15c-.39-.25-.6.63,0,.66"/><path class="cls-23" d="M403.2,116.33c-.2,0-.47-.07-.55.17s.18.45.34.28"/><path class="cls-23" d="M404.32,116.09c-.65-.35-.28,1,.21.38"/><path class="cls-23" d="M405.08,118c-.27-.17.08-.72.57-.6"/><path class="cls-23" d="M407.93,117.38a1,1,0,0,0-1.09-.06.67.67,0,0,0-.3.87"/><path class="cls-23" d="M407.55,119.58c-.58,0-1,1.34-.38,1.2"/><path class="cls-23" d="M407.77,120.08c-.28.06-.3.55-.15.74"/><path class="cls-23" d="M405.26,119.08a.42.42,0,0,0,.8.13"/><path class="cls-23" d="M406.16,118.7a.62.62,0,0,1,1,.08"/><path class="cls-23" d="M405.19,118.64a1.36,1.36,0,0,0-1.32-1.06c-.51,0-1,.36-1.77.14a.8.8,0,0,1-.49-1.14c-.58.1-1.71-.35-1.16-.91"/><path class="cls-23" d="M402.09,115.85c-.08-.26-.74-.22-.81-.3"/><path class="cls-23" d="M402.2,115c0-.19.35-.16.49-.1"/><path class="cls-23" d="M401.12,116.58a4,4,0,0,1-2.45.94,14.52,14.52,0,0,0-1.89.38c-.43.13-2,.48-2.22,0"/><path class="cls-23" d="M399.45,118.66c-.19.3-.76,1.53-1.71.65"/><path class="cls-23" d="M398.59,120.58c-.26.24-1.2.52-1.32-.33"/><path class="cls-23" d="M399.89,118.84c-.35,0-.56.7-.84,1.15a4.3,4.3,0,0,1-1.1,1.16,8,8,0,0,1-2.64.51"/><path class="cls-23" d="M395.09,122.66a9.2,9.2,0,0,1,1.09-.17c.42,0,.84-.12,1.26-.14a2.44,2.44,0,0,0,1.57-.58c.84-.67.94-2.37,2.43-2,.25.07.61.37.86.45a2.41,2.41,0,0,0-.49.82c-.1.46-.68.57-.7.26"/><path class="cls-23" d="M404.74,119.58c-.63-.14-1,.44-2.24.07a10.16,10.16,0,0,0-2.61-.81"/><path class="cls-23" d="M404.14,119.61c-.42.19-.61-.46-.94-.65a2.31,2.31,0,0,0-.92-.39,1.42,1.42,0,0,0-1,.21l-.3.06c-2.53-.3-3.84-.44-4.81-.2"/><path class="cls-23" d="M398.66,117.52c-.25.2-.08.6.14.78a1.2,1.2,0,0,0,.73.25,2.3,2.3,0,0,0,1.31-.25,2.28,2.28,0,0,1,1.65-.11c.79.27,1.54.89,2.39.89"/><path class="cls-23" d="M397,117.13c1.94.49,3-.22,3.46-.12"/><path class="cls-23" d="M396.44,118.58c-.49.42-.17,1.25.68,1.19.67,0,1-1.15.81-1.24"/><path class="cls-23" d="M396.26,119.27a.83.83,0,0,0-.49,1,.79.79,0,0,0,.49.57c.73.28,1.14-.49,1.06-1.09"/><path class="cls-23" d="M400.22,120.08c0,.22.35.37.54.37.41,0,.42-.47.53-.67"/><path class="cls-23" d="M399.81,120.65c-.06.35.41.67.7.66s.87-.42.67-1.19"/><path class="cls-23" d="M399.55,121.08c-.17,1.43,1.81,1.47,1.52-.1"/><path class="cls-23" d="M398.3,122.18a.67.67,0,0,0,.65.58.79.79,0,0,0,.85-.83"/><path class="cls-23" d="M395.93,122.5c0,.22.16.66.92.6.56,0,.82-.4.77-.77"/><path class="cls-23" d="M399,122.77c0,.32-.18.74-.79.68s-.78-.41-.73-.66"/><path class="cls-23" d="M399.67,122.42a.63.63,0,0,0,.66.64.84.84,0,0,0,.81-.66"/><path class="cls-23" d="M399,123.14c0,.68,1.43.88,1.55-.11"/><path class="cls-23" d="M399,123.38a.61.61,0,0,0,.2,1.17.92.92,0,0,0,1.16-1.17"/><path class="cls-23" d="M396.91,123.84a1,1,0,0,0,.65,1.14,1.15,1.15,0,0,0,1.39-.55"/><path class="cls-23" d="M398.3,125a1,1,0,0,0,1.92-.34"/><path class="cls-23" d="M397.4,124.91c-.11,1.38,1.65,1.75,1.67.55"/><path class="cls-23" d="M401.9,121.65a2.74,2.74,0,0,0,.76,2.25,17.5,17.5,0,0,1,1.07,1.68,10.24,10.24,0,0,1,1.44,3.68"/><path class="cls-23" d="M401.27,121.47a2.93,2.93,0,0,0,.26,2.25,25.77,25.77,0,0,0,1.67,2.83,7.75,7.75,0,0,1,.86,2.73,7,7,0,0,1,.06,1.51c0,.44-.17.87-.23,1.3a5.8,5.8,0,0,1-1.45,4.07"/><path class="cls-23" d="M413.81,125.18a1.44,1.44,0,0,0,.21.92,2.8,2.8,0,0,0,.88.72c.49.22,1.5.25,1.85-.23"/><path class="cls-23" d="M415.73,126.78c-.05-.07.17-.69.12-.9s-.3-.49-.53-.45a1.66,1.66,0,0,1,1,.23c.21.17.2.44.28.61"/><path class="cls-23" d="M414.95,124.32c.08,0,.25.37.41.46s.8.27,1,.09"/><path class="cls-23" d="M416.43,124.55c-.09,0-.39-.21-.47-.31a.58.58,0,0,1-.11-.53.52.52,0,0,0,.57.35"/><path class="cls-23" d="M417,127.36a.87.87,0,0,0-.3.46"/><path class="cls-23" d="M413.6,126.52c.49,0,1.29.27,1.34.83"/><path class="cls-23" d="M411.54,126.36c-.26.43,1.3.81,1.23,0"/><path class="cls-23" d="M410.43,126.68c0,.55,1.16.76,1.34.19"/><path class="cls-23" d="M409.52,126.8c-.26.39.72.42.93.07"/><path class="cls-23" d="M408.06,126.59a.64.64,0,0,0,1.11.25"/><path class="cls-23" d="M407,126c-.09.08-.06.28,0,.39s.36.12.55.12"/><path class="cls-23" d="M405.6,125.46c.06.53.72.59,1.11.46"/><path class="cls-23" d="M404.65,124.92a.9.9,0,0,0-.12.43c.06.33.65.35.81.12"/><path class="cls-23" d="M404,124.25a.53.53,0,0,0-.27.65c.19.59.82.23.82.23"/><path class="cls-23" d="M404.7,125.76a.86.86,0,0,0-.23.65c.12.43.74.26.9,0"/><path class="cls-23" d="M405.67,126.5c-.23,0-.36.55-.24.71s1.11.16,1.09-.25"/><path class="cls-23" d="M409.15,127.8c-.05.38-.72.76-1,.42-.12-.15-.24-.7,0-.81"/><path class="cls-23" d="M412,127.12c0,.26-.27.72-.56.69a.89.89,0,0,1-.53-.46"/><path class="cls-23" d="M409.8,128c-.22.22.09.62.34.69a1,1,0,0,0,1.19-.83"/><path class="cls-23" d="M410.61,128.84c0,.43-.69,1-1.11.77a.46.46,0,0,1-.19-.67"/><path class="cls-23" d="M410.91,128.47s0,0-.05,0c.14.68,1,.2.79-.42"/><path class="cls-23" d="M411.93,127.8c-.1.16.05.26.21.25a.62.62,0,0,0,.49-.55"/><path class="cls-23" d="M399,125.9a1.22,1.22,0,0,0,1.37.18c.33-.15.78-1,.43-1.17"/><path class="cls-23" d="M400.06,124.44c0,.22.6.47.78.49a1.19,1.19,0,0,0,1-.48"/><path class="cls-23" d="M400.77,125.55c.33.86,1.75.52,1.66-.21"/><path class="cls-23" d="M403.06,126.32c0,.39-.27.75-1,.78-.36,0-.79-.33-.73-.61"/><path class="cls-23" d="M400.11,127a.82.82,0,0,0,.58,1.22c.94.12,1.14-.6,1.24-1.1"/><path class="cls-23" d="M401.84,127.42a.89.89,0,0,0,.69.83c.67.2,1.18-.21,1.15-.6"/><path class="cls-23" d="M404,129c0,.34-.59.65-1.07.46a1.09,1.09,0,0,1-.65-1.35"/><path class="cls-23" d="M399.54,128.18c-.2.22-.43.59,0,1.23s1.45.51,1.45-.31"/><path class="cls-23" d="M399,127.07c-.2.64.73,1.66,1.48,1.1"/><path class="cls-23" d="M401.63,131.06c.06.33-.55.86-1.12.57a.85.85,0,0,1-.21-1.17"/><path class="cls-23" d="M401.76,130.39c-.15.28-.28.84.19,1,1,.47,1.15-.9,1.15-.9"/><path class="cls-23" d="M403.1,130.46a1.26,1.26,0,0,0,.21,1,.76.76,0,0,0,.64.22"/><path class="cls-23" d="M402.57,131.52c-.16.16-.06.59.11.76s1.15.21,1.21-.19"/><path class="cls-23" d="M403.45,132.88a.93.93,0,0,1-.59.54c-.26.07-.71,0-.92.16-.4.39.46,1.2.9.49"/><path class="cls-23" d="M401.16,132.28a.63.63,0,0,0-.29.77c.19.76,1.07.53,1.07.53"/><path class="cls-23" d="M400.39,128.24a1.07,1.07,0,0,0,1,.94.9.9,0,0,0,.85-.7"/><path class="cls-23" d="M400.87,129.55a.89.89,0,0,0,1.12.81c.71-.14.6-.76.59-1.1"/><path class="cls-23" d="M404.11,129.69c.12.92-1.56,1-1.63.38"/><path class="cls-23" d="M398.09,130.7a.7.7,0,0,0,.49,1,.68.68,0,0,0,.57-.19c.18-.16.35-.52.17-.76"/><path class="cls-23" d="M398.71,131.74a1,1,0,0,0-.18.89.58.58,0,0,0,.56.35.75.75,0,0,0,.71-.35c.12-.17.33-.65.12-.8"/><path class="cls-23" d="M399.3,133a.74.74,0,0,0-.22,1.08.83.83,0,0,0,.9.11c.45-.24.72-1,.09-1.22"/><path class="cls-23" d="M397.3,130.6a.78.78,0,0,0-.15.7c.27.93,1.3.39,1.3.39"/><path class="cls-23" d="M396.13,130.21s-.38.14-.22.83a1,1,0,0,0,1.38.62"/><path class="cls-23" d="M395.19,129.8a.8.8,0,0,0-.31.73.85.85,0,0,0,1.16.78"/><path class="cls-23" d="M393.92,129.18a.66.66,0,0,0-.17.83c.35.7,1.14.27,1.14.27"/><path class="cls-23" d="M392.79,128.82a.7.7,0,0,0-.14.75,1,1,0,0,0,1.16.52"/><path class="cls-23" d="M391.55,128.49a1.36,1.36,0,0,0-.1.9c.3.86,1.27.3,1.27.3"/><path class="cls-23" d="M390.4,128.27a.7.7,0,0,0,.13.53c.13.16.73.31.9.12"/><path class="cls-23" d="M390.51,129.18s-.13.5.26.69a.69.69,0,0,0,.93-.12"/><path class="cls-23" d="M389.7,128.17a.69.69,0,0,0-.26,1,.62.62,0,0,0,1.16-.31"/><path class="cls-23" d="M387.79,128.07a.85.85,0,0,0,.51.92c.3.15.93.13,1-.19"/><path class="cls-23" d="M388.46,129a.66.66,0,1,0,1,.17"/><path class="cls-23" d="M389.42,129.92a.56.56,0,0,0,.54.77.94.94,0,0,0,.81-.82"/><path class="cls-23" d="M391.93,130.92c-.37,1-1.65.09-1.44-.48"/><path class="cls-23" d="M391.6,129.87s-.39.79.34,1.05S393,130,393,130"/><path class="cls-23" d="M392.74,130.66a.69.69,0,0,0,.75.7c.69,0,.86-1,.86-1"/><path class="cls-23" d="M394.66,131.85s-.31.23-.5.15a.55.55,0,0,1-.36-.72"/><path class="cls-23" d="M395,131s-.84,1,0,1.49a.85.85,0,0,0,1.19-.35"/><path class="cls-23" d="M396.39,131.63s-.58,1.18.37,1.4a.76.76,0,0,0,.81-.34"/><path class="cls-23" d="M397.7,131.84a1,1,0,0,0-.1.92.67.67,0,0,0,1.11.13"/><path class="cls-23" d="M398,133.11a.65.65,0,0,0,.44.9"/><path class="cls-23" d="M396.78,133.21s-.14.59.39.64"/><path class="cls-23" d="M395.5,132.68s-.27.49.1.74a.88.88,0,0,0,1.29-.37"/><path class="cls-23" d="M394.28,132s-.58.67.07,1.12a.86.86,0,0,0,1.06-.18"/><path class="cls-23" d="M393.23,131.32a.86.86,0,0,0-.39,1,.8.8,0,0,0,1.22.36"/><path class="cls-23" d="M391.79,131.16c-.23.72.61,1,1,.81"/><path class="cls-23" d="M392.13,131.93a.45.45,0,0,0,.27.68"/><path class="cls-23" d="M391,131.32a.73.73,0,0,0-.09.42.61.61,0,0,0,.37.52"/><path class="cls-23" d="M390,130.69a1,1,0,0,0-.24.88.55.55,0,0,0,.34.4"/><path class="cls-23" d="M390.31,132a1.79,1.79,0,0,0,.79,1.4"/><path class="cls-23" d="M391.31,132.26a3.15,3.15,0,0,0,.75,1.41"/><path class="cls-23" d="M392.86,132.81s.15,1.15.81,1.42"/><path class="cls-23" d="M395,133.39a.86.86,0,0,0,.32,1.1"/><path class="cls-23" d="M396.79,133.81a1.44,1.44,0,0,0,0,.5.8.8,0,0,0,.41.5"/><path class="cls-23" d="M397.93,134c-.2.18,0,.85.41,1"/><path class="cls-23" d="M389.37,131.91c-.36.5-.16,1.23.19,1.29"/><path class="cls-23" d="M387.82,132.17a.93.93,0,0,0,.33,1"/><path class="cls-23" d="M386.35,132.77c-.08.33.27.69.66.83"/><path class="cls-23" d="M385.39,133.77a2,2,0,0,0,1.09.27"/><path class="cls-23" d="M385,134.71a1.44,1.44,0,0,0,1,.14"/><path class="cls-23" d="M384.78,135.72c.18.07.57.22.8,0"/><path class="cls-23" d="M384.75,136.57c0,.29.57.3.64.24"/><path class="cls-23" d="M384.89,137.46c.25.17.41,0,.5,0"/><path class="cls-23" d="M385.91,138.64a1.43,1.43,0,0,1-.82-.74,2.38,2.38,0,0,1-.31-1,5.3,5.3,0,0,1,.21-2.15,3.93,3.93,0,0,1,.52-1.1,3.58,3.58,0,0,1,1.54-1.21,6.13,6.13,0,0,1,2.42-.47,11.9,11.9,0,0,1,3.25.79A21.54,21.54,0,0,0,399,134c.14,0-.29.51,0,1"/><path class="cls-23" d="M396.21,123c-.29,1,1.48,1.13,1.58.3"/><path class="cls-23" d="M398.41,126.19c0,.54.94.65,1.26,0"/><path class="cls-23" d="M399.58,126.33c.09.68.76.7,1.06.67a.85.85,0,0,0,.82-1"/><path class="cls-23" d="M398.79,129.7a.71.71,0,0,0,1.08-.06"/><path class="cls-23" d="M401,131.72a.63.63,0,0,0,.48.77c.63.16,1-.12,1.07-.38"/><path class="cls-23" d="M400.69,133.55c0,.67.5,1.06,1.11.7"/><path class="cls-23" d="M401.06,134.66a.51.51,0,0,0,.88.37"/><path class="cls-23" d="M400.3,134.43c-.19,0-.24.43-.15.56a.5.5,0,0,0,.73,0"/><path class="cls-23" d="M402.29,136.49c-.33.32-1-.34-.7-.53"/><path class="cls-23" d="M399.09,134.38c.08.23,0,.43.28.59a.42.42,0,0,0,.56,0"/><path class="cls-23" d="M400,135.26c-.26.4.6.49.83.32"/><path class="cls-23" d="M401,136.16a.37.37,0,0,1-.72-.07"/><path class="cls-23" d="M401.15,136.51a.27.27,0,1,0,.49.23"/><path class="cls-23" d="M399.3,136.07c.07.38.66.16.74-.12"/><path class="cls-23" d="M400.78,136.81c-.09.35-.83.34-.72.09"/><path class="cls-23" d="M400.83,137.23c.14.23.4.4.63.09"/><path class="cls-23" d="M401.57,137.62c-.11.07,0,.16.12.2a.42.42,0,0,0,.48-.18"/><path class="cls-23" d="M402.43,138c-.17.35.43.49.56.16"/><path class="cls-23" d="M402.5,137.46c0,.27.39.39.6.3"/><path class="cls-23" d="M403.42,138c0,.38.62.28.81.19"/><path class="cls-23" d="M404.56,138.3c-.07.12.09.21.21.25a.47.47,0,0,0,.49-.11"/><path class="cls-23" d="M405.72,138.71c0,.2.48.21.63.09"/><path class="cls-23" d="M405.21,138.83c0,.33.62.7.81.39"/><path class="cls-23" d="M404.68,139c-.17,0-.38-.18-.28-.35"/><path class="cls-23" d="M403.24,138.67a.54.54,0,0,0,.76,0"/><path class="cls-23" d="M400,137.35c-.21.36.46.49.7.42"/><path class="cls-23" d="M402.4,138.74c-.22.14-.89-.14-.79-.39"/><path class="cls-23" d="M400.92,138c-.07.21.27.26.42.21"/><path class="cls-23" d="M402.71,138.85c0,.4.75.49,1,.32"/><path class="cls-23" d="M404.07,139.29c.05.18.27.13.37,0"/><path class="cls-23" d="M405,139.39c0,.13.19.14.3.09"/><path class="cls-23" d="M399.41,137.79a.36.36,0,0,1,.23-.56"/><path class="cls-23" d="M399,136.81c0,.18.15.35.35.35"/><path class="cls-23" d="M412.89,140.41c-.3-.24-.7-.72-1.1-.82a3.5,3.5,0,0,0-1.54,0,2.31,2.31,0,0,0-1.77,1.83,3.11,3.11,0,0,0,.15,1.76,2.07,2.07,0,0,0,1.43,1.33"/><path class="cls-23" d="M411.91,141.45c-.45,0-.84.06-1,.51s.09.73.33,1c0-.58.55-1.3,1.18-1.08"/><path class="cls-23" d="M412,142.52c-.25.08-.17.33,0,.39s.29-.08.42-.26"/><path class="cls-23" d="M412.29,139.88c-.07-.19-.43-.65-.3-.92s.66,0,.77.17"/><path class="cls-23" d="M408,138.24c0,.24.12,1,.5.82"/><path class="cls-23" d="M408.76,128.49c.32.14.57.56.88,0"/><path class="cls-23" d="M407.78,128.45c-.34.81,1,1.37,1.18.58"/><path class="cls-23" d="M407.25,126.68c0,.22,0,.34.16.49s.46.22.61,0"/><path class="cls-23" d="M408.34,127.29c-.14.31.65.35.81.12"/><path class="cls-23" d="M409.43,127.52c.06.54.9.21,1-.12"/><path class="cls-23" d="M406.3,126.22a.43.43,0,0,0,0,.49c.1.15.6.46.67.16"/><path class="cls-23" d="M405.51,125.8c-.1.28,0,.58.37.46"/><path class="cls-23" d="M405.4,128c.19-.36.53-.31.83-.17a1.54,1.54,0,0,0,1.21,0"/><path class="cls-23" d="M402.63,125.63c0,.08.12-.29.19-.59a2.44,2.44,0,0,0,0-.91"/><path class="cls-23" d="M403.33,126.8a1.76,1.76,0,0,0,.33-1.33"/><path class="cls-23" d="M403.85,128.24a2,2,0,0,0,.61-1.24"/><path class="cls-23" d="M404.13,129.78c.81-.38.78-1.68.78-1.68"/><path class="cls-23" d="M404,131.52a2,2,0,0,0,1.1-1.15"/><path class="cls-23" d="M403.86,132.87a2.41,2.41,0,0,0,1-1.12"/><path class="cls-23" d="M386.46,128.35c-.78.76,1.3,1.41,1.35.13"/><path class="cls-23" d="M385.43,128.81a.66.66,0,0,0,.17.82c.67.49,1.23-.45,1.23-.45"/><path class="cls-23" d="M384.26,129.68c0,.2.27.41.44.43a.87.87,0,0,0,.9-.48"/><path class="cls-23" d="M383.42,130.58a.55.55,0,0,0,.53.6c.86,0,1.08-1,1.08-1"/><path class="cls-23" d="M382.79,131.76c.05.43,1.15.12,1.16-.32"/><path class="cls-23" d="M389.73,131.06c-.18-.24-.75,0-.88.18-.29.45,0,.68,0,.68"/><path class="cls-23" d="M388.64,130.11a.55.55,0,1,0,.27,1.07"/><path class="cls-23" d="M387.16,129.21a.62.62,0,0,0,.13.83.8.8,0,0,0,1-.11"/><path class="cls-23" d="M388,130.16c-.55.12-.66,1.29.58,1"/><path class="cls-23" d="M388.15,131.22c-.45.09-.38.9,0,.84"/><path class="cls-23" d="M387.47,130.14s-1,.2-.69,1c.17.52,1.07.39,1.07.39"/><path class="cls-23" d="M386.2,129.77a.56.56,0,0,0,0,.67c.12.22.58.2.58.2"/><path class="cls-23" d="M385,130.09a.64.64,0,0,0,1.17.35"/><path class="cls-23" d="M386.32,132.22s-.81.56-1.09-.12.6-.79.6-.79"/><path class="cls-23" d="M384.44,131a.43.43,0,0,0,.11.61.6.6,0,0,0,.71,0"/><path class="cls-23" d="M385.85,130.69a.82.82,0,0,0,.18.9.75.75,0,0,0,1-.1"/><path class="cls-23" d="M387,131.57a.42.42,0,0,0,.3.73"/><path class="cls-23" d="M386.55,131.78a.37.37,0,0,0,.23.7"/><path class="cls-23" d="M385.09,133a.32.32,0,0,1-.49-.41"/><path class="cls-23" d="M385.78,132.43c-.93.14-.92,1.5-.53,1.43"/><path class="cls-23" d="M383.67,131.8s-.3.52.14.79c.77.48,1.37-.68,1.37-.68"/><path class="cls-23" d="M383.68,132.49a.78.78,0,0,0,.12,1.12.92.92,0,0,0,1.21-.1"/><path class="cls-23" d="M382.46,132.41c-.06.55.63.79,1.07.37"/><path class="cls-23" d="M384.12,134c-.29.5-1.1.55-.83-.16,0,0,0,0,0,0"/><path class="cls-23" d="M384.49,134.15c0,.22,0,.51.32.44"/><path class="cls-23" d="M382.15,133.52a.45.45,0,0,0,.2.44c.28.18.5,0,.7-.19"/><path class="cls-23" d="M384.19,134.7c-.11,0-.15.26-.11.38s.28.23.48.23"/><path class="cls-23" d="M382.7,134.54c-.12.56.45.83.86.44"/><path class="cls-23" d="M383.14,135.75a.73.73,0,0,1-.88.07c-.17-.15-.14-.35-.14-.56"/><path class="cls-23" d="M383.47,135.4c-.31.29.28.64.53.39"/><path class="cls-23" d="M381.73,134.66c-.07.11,0,.2.14.21s.26-.18.35-.3"/><path class="cls-23" d="M382.93,136.19c-.09.48.86.75,1.09.28"/><path class="cls-23" d="M382.26,136.49a.73.73,0,0,0-.1.67c.15.23.69.21.77-.06"/><path class="cls-23" d="M381.61,135.72c-.06.28.32.45.6.35"/><path class="cls-23" d="M381.24,136.42c-.05.4.06.52.49.42"/><path class="cls-23" d="M381,137.51a.51.51,0,0,0,0,.51c.23.25.63,0,.81-.16"/><path class="cls-23" d="M382.47,137.6c-.26.36.25.75.56.44"/><path class="cls-23" d="M383.28,137.32c0,.47.61.37.83.19"/><path class="cls-23" d="M383.65,138c0,.21,0,.42.16.56a.51.51,0,0,0,.72-.26"/><path class="cls-23" d="M382.79,138.44a.72.72,0,0,0-.14.63c.18.42.76.36,1,.13"/><path class="cls-23" d="M382.17,139.43c-.28.1-.51-.11-.32-.37"/><path class="cls-23" d="M381.45,138.37c0,.15,0,.22.1.3s.39,0,.51,0"/><path class="cls-23" d="M380.29,138.78a.75.75,0,0,0,.86-.12"/><path class="cls-23" d="M380.69,139.27c-.17.27.35.49.56.23"/><path class="cls-23" d="M380.73,139.94c0,.18,0,.59.3.3"/><path class="cls-23" d="M379.76,139.78c.06.28.43,0,.49-.12"/><path class="cls-23" d="M381.43,139.94c-.14.38.67.28.81.12"/><path class="cls-23" d="M382.84,139.73c-.22.06,0,.51.13.6a.73.73,0,0,0,.91-.16"/><path class="cls-23" d="M383.93,139.48c-.18.4.52.63.65.09"/><path class="cls-23" d="M384.44,139c0,.36.53.34.67.09"/><path class="cls-23" d="M385,138.44c-.24.23.3.38.46.37"/><path class="cls-23" d="M385.51,139.34c-.11.2.25.44.39.25"/><path class="cls-23" d="M388.26,136.19a.36.36,0,0,0,0,.61,1,1,0,0,0,.76,0"/><path class="cls-23" d="M390.22,137.82c-.18,0-.5.18-.26.53a1.32,1.32,0,0,0,.64.39"/><path class="cls-23" d="M391.35,138.74a5.07,5.07,0,0,0-1.48.12,2.24,2.24,0,0,0-1.06.79,1.6,1.6,0,0,0-.38,1.06,1.39,1.39,0,0,0,.6,1c.14.13.29.28.42.42a4.12,4.12,0,0,0,.44.4"/><path class="cls-23" d="M388.17,142.28c-.12-.08,0-.37.11-.47s1,.2,1,.2"/><path class="cls-23" d="M390.61,139.92c-.25.16-.64.94-.14,1"/><path class="cls-23" d="M391.07,140.11c-.24.23,0,.66.13.86a.53.53,0,0,1,.24-.57c0,.16,0,.43.18.46"/><path class="cls-23" d="M381.33,140.41c0,.23.38.23.49.12"/><path class="cls-23" d="M379.67,140.15c0,.43.42.38.67.23"/><path class="cls-23" d="M379.13,140.57c-.13-.07-.33.25-.33.38,0,.32.59.25.77.13"/><path class="cls-23" d="M380,140.85c-.16.24-.09.53.25.42"/><path class="cls-23" d="M380.73,140.75c-.28.19,0,.44.23.35"/><path class="cls-23" d="M378.46,141.4c-.12.09-.06.23.06.3s.39-.06.49-.18"/><path class="cls-23" d="M379.48,141.52c-.28.16,0,.57.32.25"/><path class="cls-23" d="M380.13,141.61c0,.15.08.32.23.23"/><path class="cls-23" d="M379.6,142.1c-.09.06-.08.3.09.28"/><path class="cls-23" d="M379,141.82c0,.16.17.37.32.21"/><path class="cls-23" d="M379,142.84c-.15.17-.4,0-.23-.14"/><path class="cls-23" d="M377.93,141.68c-.16.24.3.31.46.21"/><path class="cls-23" d="M378.67,142.14a.25.25,0,0,0-.11.3.25.25,0,0,0,.28-.09"/><path class="cls-23" d="M377.63,141.87a.24.24,0,0,0-.09.3c.08.13.32.08.44,0"/><path class="cls-23" d="M378.51,143.14c-.16.27-.31-.12-.28-.28"/><path class="cls-23" d="M377,142.33c-.2.3.44,0,.51,0"/><path class="cls-23" d="M377.9,143.28c-.13.13-.27,0-.23-.16"/><path class="cls-23" d="M377.39,143.54c-.13.2-.36,0-.21-.12"/><path class="cls-23" d="M377.44,142.65c-.23.11.17.19.28.14"/><path class="cls-23" d="M378,142.42c-.1.16.09.32.19.09"/><path class="cls-23" d="M376.37,142.65c0,.22.17.57.42.25"/><path class="cls-23" d="M376.63,143.4a.39.39,0,0,0,0,.25.32.32,0,0,0,.21,0"/><path class="cls-23" d="M376.19,143.7a.51.51,0,0,1-.23,0,.27.27,0,0,1,.14-.27"/><path class="cls-23" d="M375.31,143.16c0,.16.07.29.21.16"/><path class="cls-23" d="M375.38,143.67c-.11,0-.14.12-.11.23s.28,0,.3-.16"/><path class="cls-23" d="M375.84,142.89c-.06.14.1.17.21.12"/><path class="cls-23" d="M374.8,143.56c-.08.15.14.17.23.12"/><path class="cls-23" d="M374.73,144c0,.14.11.15.19.07"/><path class="cls-23" d="M374.15,144.32c-.14.07-.24-.05-.16-.16"/><path class="cls-23" d="M373.55,144c-.07.06-.06.11,0,.16"/><path class="cls-23" d="M373.43,144.73a.27.27,0,0,1-.23,0"/><path class="cls-23" d="M374.26,143.63c-.07.06.08.12.21.09"/><path class="cls-23" d="M373.15,144.25a.44.44,0,0,0,.16.12"/><path class="cls-23" d="M372.69,144.65c0,.12.14.17.25.16"/><path class="cls-23" d="M372.25,145.11s0,0,0,.07a.13.13,0,0,0,.12,0"/><path class="cls-23" d="M375.94,145.67c.26,0,.9-.84,1.08-1a12.54,12.54,0,0,1,1-1,9.58,9.58,0,0,1,1.39-.85,6.15,6.15,0,0,0,1-.91,8,8,0,0,0,1.15-1.09c.23-.32.57-.72,1-.64a1.78,1.78,0,0,1-.42,1.13c-.12.14-.28.24-.39.39s-.18.38-.27.45"/><path class="cls-23" d="M383.65,140.52c-.33.35.36.6.65.42"/><path class="cls-23" d="M384.56,140c0,.33.16.76.58.49"/><path class="cls-23" d="M383,140.68c0,.19-.08.38,0,.55a.43.43,0,0,0,.63.1"/><path class="cls-23" d="M385,142.21c-.43.41-1.14-.2-.67-.67"/><path class="cls-23" d="M384.37,142.84c-.42-.18-.72,1.23.12.67"/><path class="cls-23" d="M383,143.12c.65.46.66,1.33.78,1.72"/><path class="cls-23" d="M384.53,143.81c-.34,0-.23,1.07.37.58"/><path class="cls-23" d="M384.7,142.86a.92.92,0,0,0-.07.51.26.26,0,0,0,.49,0"/><path class="cls-23" d="M385,142.52c.06,0,0,.18,0,.28a.2.2,0,0,0,.39,0"/><path class="cls-23" d="M385.09,141.08c-.39,0-.11,1.23.32.7"/><path class="cls-23" d="M385.67,140.11a.85.85,0,0,0-.46.6c0,.28.28.59.55.39"/><path class="cls-23" d="M386.62,138.83a1.52,1.52,0,0,1,.44.67"/><path class="cls-23" d="M387.18,141.66a.85.85,0,0,1,1.24-1.13"/><path class="cls-23" d="M388.8,138.95c-.07.15.27.22.39.16"/><path class="cls-23" d="M388.31,139.55c.05.1.2.09.3,0"/><path class="cls-23" d="M388.13,150.62c0-.59-.25-1.49-1-1.5a1.17,1.17,0,0,1-.86-.27c-.3-.24-.66-.54-1-.26-.16.12-.23.31-.37.44s-.33.13-.49.22a2.29,2.29,0,0,0-.78,1.35"/><path class="cls-23" d="M385.58,151c-.26-.2.74-.88,1.11-.58"/><path class="cls-23" d="M385.76,151.6c.17-.25.87-.84,1.18-.57-.13.21-.48.1-.58.43,0,.12,0,.56.17.35"/><path class="cls-23" d="M385,146.57c.12.32.53,0,.58-.21"/><path class="cls-23" d="M386,144.46c0,.33-.34.15-.44,0"/><path class="cls-23" d="M384.86,144.76c0,.28.64.27.58-.12"/><path class="cls-23" d="M384.42,145.27c.18.18.27-.1.28-.25"/><path class="cls-23" d="M386.25,145.07a.2.2,0,0,1-.37-.12"/><path class="cls-23" d="M385.14,145.3c0,.27.55.25.58-.07"/><path class="cls-23" d="M384.83,145.85a.23.23,0,0,0,.32-.12"/><path class="cls-23" d="M386.74,146.09c-.07.15-.28.1-.35,0"/><path class="cls-23" d="M385.78,146.55a.18.18,0,0,0,.3-.14"/><path class="cls-23" d="M385.58,145.69c0,.2.3.57.44.25"/><path class="cls-23" d="M389.54,147.92c-.22-.69.72-.48,1-.12"/><path class="cls-23" d="M387.41,149.21c0-.23-.08-.77.34-.74a2.07,2.07,0,0,1,.86.61"/><path class="cls-23" d="M383,149.21s-.07,0,0,.09a1.48,1.48,0,0,1,.71-.53c0,.11.14.76.55.58"/><path class="cls-23" d="M406.61,120.92c-.12,0-.71-.29-.66-.52s.27-.2.35-.28a3.05,3.05,0,0,0,.34-.42c.24-.3.52-.61.84-.24s.14.84.65.66.17-1.18-.41-1.6c0,0-1.54-.83-2.54.12a1.27,1.27,0,0,0-.42,1.11,2.59,2.59,0,0,0,.56,1C405.69,121.14,406.61,120.92,406.61,120.92Z"/><path class="cls-23" d="M398.57,126.52s.2,1.06,1.24.28"/><path class="cls-23" d="M399.07,127.6s.26.57-.47.92"/><path class="cls-20" d="M396,120.65a.67.67,0,0,0-.18,1"/><path class="cls-25" d="M396.87,120.79a.64.64,0,0,0,.81.48"/><path class="cls-25" d="M399.19,129.92s-.16,1.49-1.34.64"/><path class="cls-23" d="M400,129.69s-.25,1.3,1.55.66"/><path class="cls-23" d="M399.06,130.39a.92.92,0,0,0,1.11.59"/><path class="cls-23" d="M398.63,126.71a.92.92,0,0,1-.68.29"/><path class="cls-25" d="M398.09,130.7s-.85.2-4-1.44a17.42,17.42,0,0,0-6-1.2,6.42,6.42,0,0,0-5.31,3.57,31.25,31.25,0,0,0-1.36,4.41,10.88,10.88,0,0,1-2.07,4.11c-1.21,1.53-4.48,3.3-5.45,3.67a12.74,12.74,0,0,0-2.89,1.94c-.24.27,2.82-1.31,4.2-1.51a8.23,8.23,0,0,0,3-.77"/><path class="cls-25" d="M399.3,131.36s.31.83,1.21.27"/><path class="cls-25" d="M402.14,132.49a.6.6,0,0,0,.34,1"/><path class="cls-25" d="M403.36,132.41a.64.64,0,0,0,.44.72"/><path class="cls-25" d="M386.06,138.69a2,2,0,0,0,0,1.39c.3.59-.63.46,0,1.38"/><path class="cls-23" d="M404.87,118.84a4,4,0,0,0-1.95-1.07"/><path class="cls-23" d="M410.75,117.66s-.17.64.09.86"/><path class="cls-23" d="M410.7,118.19a1.87,1.87,0,0,0-1.18.65"/><path class="cls-26" d="M409.34,120.2a2.52,2.52,0,0,1-1.14,1.55"/><path class="cls-26" d="M410.69,123.68a2,2,0,0,0,1.8.22"/><path class="cls-26" d="M412.34,122.48s-1.26-.36-1.12.65"/><path class="cls-26" d="M411.46,122.51a10.18,10.18,0,0,0-2.2-1.21"/><path class="cls-26" d="M415.54,116.14s.73.27.53.83-.93.59-.69,1.28"/><path class="cls-23" d="M412.94,126.1s-.34.73,0,1.12,0,.62.05.87"/><path class="cls-23" d="M406.92,138.76s-.58.11-.34.63.12.85-.16.74"/><rect class="cls-3" x="348.31" y="96.73" width="3.3" height="140.43"/><circle class="cls-3" cx="349.96" cy="95.22" r="4.8"/></g></g></svg>