<svg id="Layer_1" data-name="Layer 1" xmlns="http://www.w3.org/2000/svg" viewBox="0 0 212.98 88.13"><defs><style>.cls-1{fill:#ee2228;}.cls-2{fill:#f3f3f3;}.cls-3{fill:#595a5c;}.cls-4{fill:#2aa9e1;}.cls-5{fill:#f15624;}.cls-6{fill:#2376bc;}.cls-7{fill:#b5b6b8;}.cls-8{fill:#e7e7e9;}.cls-9{fill:#7fccec;}.cls-10{fill:#231f20;}.cls-11{fill:#f15b2c;}.cls-12{fill:#a1d8f3;}.cls-13{fill:none;stroke:#595a5c;stroke-miterlimit:10;stroke-width:1.22px;}.cls-14{fill:#5b5c5e;}.cls-15{fill:#bdbec2;}.cls-16{fill:#6e6f73;}</style></defs><title>ambulance</title><polygon class="cls-1" points="176.53 70.6 176.95 72.59 204.96 72.59 204.96 60.21 168.45 60.21 174.48 66.24 176.53 70.6"/><polygon class="cls-1" points="46.88 70.6 47.34 72.59 140.75 72.59 141.38 70.6 156.94 56.77 97.23 52.89 41.28 52.89 37.59 60.27 43.84 67.02 46.88 70.6"/><path class="cls-2" d="M327.7,288.87l-7.33,1.67-25.51,24.18-23.84,6s-3.34,1.67-3.34,4.33v15H473.09V304.38s-2.84-12.17-8.84-15.51Z" transform="translate(-263.13 -276.93)"/><path class="cls-3" d="M320.37,290.54l2.7-.61h4.08l-26.71,26.83s-7.63.26-6.42-1.83l.84-.21,5.08.2,23.76-23.54Z" transform="translate(-263.13 -276.93)"/><path class="cls-2" d="M464.25,288.87s-2-11.33-5-11.33H360.72s-11.67,3.16-14.34,5.67H332s-4.5-.84-4.34,5.66Z" transform="translate(-263.13 -276.93)"/><rect class="cls-4" x="95.92" y="3.62" width="6.34" height="6.34" rx="2.76"/><rect class="cls-5" x="103.26" y="3.62" width="6.34" height="6.34" rx="2.76"/><rect class="cls-4" x="176.53" y="3.62" width="6.34" height="6.34" rx="2.76"/><rect class="cls-5" x="183.87" y="3.62" width="6.34" height="6.34" rx="2.76"/><path class="cls-6" d="M383.66,281.13h2l2,5.17h-1.85l-.23-.74h-1.75l-.23.74h-1.85Zm1.51,3.32L384.7,283l0-.19h-.06l0,.19-.47,1.47Z" transform="translate(-263.13 -276.93)"/><path class="cls-6" d="M388,281.13h1.91l1,2,1-2h1.91v5.17H392.2v-2.83l-.92,1.72h-.61l-.93-1.72v2.83H388Z" transform="translate(-263.13 -276.93)"/><path class="cls-6" d="M394.72,281.13h2.58c1.38,0,2,.59,2,1.42a1.13,1.13,0,0,1-.7,1.08,1.32,1.32,0,0,1,.94,1.32c0,1-1,1.35-1.9,1.35h-2.95Zm2.39,2.09a.46.46,0,0,0,.44-.49.51.51,0,0,0-.5-.49h-.61v1Zm0,2a.57.57,0,0,0,.62-.49.55.55,0,0,0-.62-.55h-.67v1Z" transform="translate(-263.13 -276.93)"/><path class="cls-6" d="M400.12,281.13h1.73v3.26a.74.74,0,1,0,1.47,0v-3.26H405v3.45c0,1.15-1,1.84-2.46,1.84s-2.46-.69-2.46-1.84Z" transform="translate(-263.13 -276.93)"/><path class="cls-6" d="M405.81,281.13h1.72V285h1.84v1.29h-3.56Z" transform="translate(-263.13 -276.93)"/><path class="cls-6" d="M411.52,281.13h2l2,5.17h-1.85l-.23-.74h-1.75l-.23.74h-1.85Zm1.51,3.32-.46-1.47,0-.19h-.06l0,.19-.46,1.47Z" transform="translate(-263.13 -276.93)"/><path class="cls-6" d="M415.88,281.13h1.72l1.48,2.59v-2.59h1.72v5.17h-1.72l-1.48-2.4v2.4h-1.72Z" transform="translate(-263.13 -276.93)"/><path class="cls-6" d="M424.24,281a3.29,3.29,0,0,1,2,.62l-.68,1.23a1.67,1.67,0,0,0-1-.37,1.23,1.23,0,1,0,0,2.46,1.67,1.67,0,0,0,1-.37l.68,1.23a3.32,3.32,0,0,1-2,.61,2.71,2.71,0,1,1,0-5.41Z" transform="translate(-263.13 -276.93)"/><path class="cls-6" d="M426.69,281.13h4.19v1.29h-2.46v.74h2.21v1.23h-2.21V285h2.52v1.29h-4.25Z" transform="translate(-263.13 -276.93)"/><polygon class="cls-7" points="69.41 6.27 69.41 4.94 67.91 3.62 84 3.62 82.63 4.99 82.63 6.27 69.41 6.27"/><path class="cls-5" d="M330.82,280.55h0a3.62,3.62,0,0,1,3.62-3.62h8.85a3.62,3.62,0,0,1,3.62,3.62H330.82Z" transform="translate(-263.13 -276.93)"/><rect class="cls-8" x="86.67" y="16.19" width="113.04" height="20.51" rx="2.94"/><path class="cls-1" d="M279.52,327.39H473.09v-8.51H297S279.52,320.39,279.52,327.39Z" transform="translate(-263.13 -276.93)"/><rect class="cls-9" x="4.56" y="49.08" width="4.84" height="8"/><path class="cls-10" d="M267.68,340.06s-8.27,5.08-2.52,12.84h9.48s-.91-9.51,4.34-13Z" transform="translate(-263.13 -276.93)"/><path class="cls-10" d="M466.71,337.14v13.63h7.13s4.75-.87.5-13.63Z" transform="translate(-263.13 -276.93)"/><path class="cls-11" d="M473.09,329.26s-3.5-1.37-3.5,3.25,3.5,3.26,3.5,3.26Z" transform="translate(-263.13 -276.93)"/><path class="cls-9" d="M326.54,294.13h17.63v22.13H313.41s-4-2.13-1-7.63Z" transform="translate(-263.13 -276.93)"/><path class="cls-9" d="M294.86,314.72c-1.21,1.14,5.19,1.31,5.19,1.31l25.49-25.49h-5.17Z" transform="translate(-263.13 -276.93)"/><polygon class="cls-12" points="63.41 17.19 81.04 39.33 69.29 39.33 56.87 23.91 63.41 17.19"/><polygon class="cls-12" points="71.66 17.19 81.04 27.2 81.04 32.7 66.79 17.19 71.66 17.19"/><path class="cls-13" d="M326.51,294.13h17.63v22.13H313.38s-4-2.13-1-7.63Z" transform="translate(-263.13 -276.93)"/><path class="cls-2" d="M385,321.49h1.16l.63,1.23.63-1.23h1.16v3.13h-1V322.9L387,324h-.38l-.55-1.05v1.72H385Z" transform="translate(-263.13 -276.93)"/><path class="cls-2" d="M389.08,321.49h2.53v.78h-1.49v.45h1.34v.74h-1.34v.37h1.53v.79h-2.57Z" transform="translate(-263.13 -276.93)"/><path class="cls-2" d="M392,321.49h1.27a1.57,1.57,0,1,1,0,3.13H392Zm1.23,2.34a.78.78,0,0,0,0-1.56h-.18v1.56Z" transform="translate(-263.13 -276.93)"/><path class="cls-2" d="M395.38,321.49h1v3.13h-1Z" transform="translate(-263.13 -276.93)"/><path class="cls-2" d="M398.51,321.41a2,2,0,0,1,1.19.38l-.41.74a1,1,0,0,0-.63-.22.75.75,0,1,0,0,1.49,1,1,0,0,0,.63-.23l.41.75a2,2,0,0,1-1.19.37,1.64,1.64,0,1,1,0-3.28Z" transform="translate(-263.13 -276.93)"/><path class="cls-2" d="M401,321.49h1.19l1.19,3.13h-1.11l-.15-.45h-1.05l-.14.45h-1.12Zm.92,2-.29-.9,0-.11h0l0,.11-.28.9Z" transform="translate(-263.13 -276.93)"/><path class="cls-2" d="M403.66,321.49h1v2.34h1.12v.79h-2.16Z" transform="translate(-263.13 -276.93)"/><path class="cls-2" d="M407.76,323.59a2,2,0,0,0,1,.32c.16,0,.3,0,.3-.15s-.11-.16-.19-.19a6.09,6.09,0,0,1-.78-.28.94.94,0,0,1-.63-.85c0-.72.64-1,1.37-1a2.5,2.5,0,0,1,1.31.38l-.37.67a1.67,1.67,0,0,0-.9-.27c-.14,0-.26,0-.26.15s.1.16.19.19l.67.22a1,1,0,0,1,.74.93c0,.71-.68,1-1.41,1a2.78,2.78,0,0,1-1.42-.37Z" transform="translate(-263.13 -276.93)"/><path class="cls-2" d="M410.54,321.49h2.53v.78h-1.49v.45h1.34v.74h-1.34v.37h1.53v.79h-2.57Z" transform="translate(-263.13 -276.93)"/><path class="cls-2" d="M413.49,321.49h1.64a1.15,1.15,0,0,1,1.3,1.11,1,1,0,0,1-.56.95l.75,1.07h-1.2l-.56-.9h-.33v.9h-1Zm1.45,1.49c.3,0,.45-.16.45-.38s-.16-.37-.45-.37h-.41V323Z" transform="translate(-263.13 -276.93)"/><path class="cls-2" d="M417.7,321.49l.63,2,0,.11h0l0-.11.63-2h1.12L419,324.62h-1.2l-1.19-3.13Z" transform="translate(-263.13 -276.93)"/><path class="cls-2" d="M420.42,321.49h1.05v3.13h-1.05Z" transform="translate(-263.13 -276.93)"/><path class="cls-2" d="M423.55,321.41a2,2,0,0,1,1.2.38l-.41.74a1,1,0,0,0-.64-.22.75.75,0,1,0,0,1.49,1,1,0,0,0,.64-.23l.41.75a2,2,0,0,1-1.2.37,1.64,1.64,0,1,1,0-3.28Z" transform="translate(-263.13 -276.93)"/><path class="cls-2" d="M425.05,321.49h2.53v.78h-1.49v.45h1.34v.74h-1.34v.37h1.53v.79h-2.57Z" transform="translate(-263.13 -276.93)"/><path class="cls-14" d="M292.43,332.59a17.82,17.82,0,0,0-17.58,14.94H310A17.83,17.83,0,0,0,292.43,332.59Z" transform="translate(-263.13 -276.93)"/><path class="cls-14" d="M422.08,332.59a17.83,17.83,0,0,0-17.58,14.94h35.16A17.82,17.82,0,0,0,422.08,332.59Z" transform="translate(-263.13 -276.93)"/><circle class="cls-10" cx="29.3" cy="73.6" r="14.53"/><circle class="cls-15" cx="29.3" cy="73.6" r="10.24"/><circle class="cls-16" cx="29.3" cy="73.6" r="5.46"/><circle class="cls-10" cx="159.33" cy="73.6" r="14.53"/><circle class="cls-15" cx="159.33" cy="73.6" r="10.24"/><circle class="cls-16" cx="159.33" cy="73.6" r="5.46"/><path class="cls-6" d="M402.94,304.1l-4-1.24,1.75-4.39,3.54,1.63-.24-3.73h4.63l-.16,3.73,3.54-1.63,1.71,4.39-4,1.24,2.88,3.45-3.73,2.84-2.52-3.84-2.53,3.84-3.73-2.84Z" transform="translate(-263.13 -276.93)"/><path class="cls-11" d="M272.52,326v8h0a2.67,2.67,0,0,0,2.67-2.66v-2.67a2.68,2.68,0,0,0-2.67-2.67Z" transform="translate(-263.13 -276.93)"/><rect class="cls-8" x="66.79" y="11.94" width="132.92" height="0.75"/></svg>