<svg id="Layer_1" data-name="Layer 1" xmlns="http://www.w3.org/2000/svg" viewBox="0 0 1123 714"><defs><style>.cls-1{fill:none;}.cls-2{fill:#f2c020;}.cls-3{fill:#caa259;}.cls-4{fill:#d9b75d;}.cls-5{fill:#62747f;}.cls-6{fill:#f8cb4e;}.cls-7{fill:#fcfeb6;}.cls-8{fill:#d6d6d8;}.cls-9{fill:#b8b8b8;}.cls-10{fill:#adadad;}.cls-11{fill:#e6e6e6;}.cls-12{fill:#d3d3d3;}.cls-13{fill:#7d3726;}.cls-14{fill:#f1d7c8;}.cls-15{fill:#c4afa5;}.cls-16{fill:#efb33a;}.cls-17{fill:#bdb7bb;}.cls-18{fill:#ded7cf;}.cls-19{fill:#dc8162;}.cls-20{fill:#263c53;}.cls-21{fill:#f1957c;}.cls-22{fill:#a9978b;}.cls-23{fill:#e6d5cb;}</style></defs><title>church-01</title><rect class="cls-1" x="627.69" y="617.88" width="1.36" height="1.06"/><rect class="cls-1" x="597.99" y="617.88" width="1.36" height="1.06"/><rect class="cls-1" x="624.72" y="617.88" width="1.36" height="1.06"/><rect class="cls-1" x="600.96" y="617.88" width="1.36" height="1.06"/><rect class="cls-1" x="595.02" y="617.88" width="1.36" height="1.06"/><rect class="cls-1" x="603.93" y="617.88" width="1.36" height="1.06"/><rect class="cls-1" x="621.75" y="617.88" width="1.36" height="1.06"/><polygon class="cls-1" points="560.48 577.62 560.48 577.63 560.49 577.62 560.48 577.62"/><rect class="cls-1" x="612.84" y="617.88" width="1.36" height="1.06"/><rect class="cls-1" x="609.87" y="617.88" width="1.36" height="1.06"/><polygon class="cls-1" points="541.02 678.45 541.02 633.4 539.9 633.4 539.9 630.55 539.09 630.55 539.09 629.23 539.9 629.23 539.9 620.26 539.03 620.26 539.03 618.94 539.9 618.94 539.9 617.88 539.84 617.88 539.84 612.17 525.25 612.17 525.25 617.26 526.96 617.26 526.96 618.58 525.25 618.58 525.25 627.55 526.96 627.55 526.96 628.87 525.25 628.87 525.25 632.57 524.46 632.57 524.46 676.12 526.3 676.12 526.3 680.88 525.51 680.88 525.51 684.17 532.85 684.17 532.85 678.45 541.02 678.45"/><rect class="cls-1" x="615.81" y="617.88" width="1.36" height="1.06"/><rect class="cls-1" x="618.78" y="617.88" width="1.36" height="1.06"/><path class="cls-1" d="M751.29,912.59v-13h254.3v-.05H927.72v-1.32h2.11v-1.85h2.11v-2.91h1.85v-2.37h1.58v-2.91h2.11v-2.37H935.9v-2.64h13v-3.29h-.8v-4.76H950V831.57h-.79v-3.7h-1.72v-1.32h1.72v-9h-1.72v-1.32h1.72v-5.09h0v-.12a32.58,32.58,0,0,1-3.15-5.65c-2-5.35-2.84-14.36-2.84-14.36h1.86l.32-1.59a3,3,0,0,1-1.2-.65,4.8,4.8,0,0,1-.32-2.19l1.31.11.21,1,1.21.44V792l-1.1.22s.42,8,3.5,11.09a20.27,20.27,0,0,0,3.58,2.63L971.92,794a23.82,23.82,0,0,1-2-3.83c-2-5.35-2.84-14.37-2.84-14.37H969l.33-1.58a3,3,0,0,1-1.2-.66,4.66,4.66,0,0,1-.33-2.18l1.31.11.22,1,1.2.44v3.82l-1.09.22s.41,8,3.49,11.09a27.48,27.48,0,0,0,5.58,3.77l15.38-13.68a26.08,26.08,0,0,1-2.29-4.31c-2-5.35-2.84-14.37-2.84-14.37h1.86l.32-1.58a2.9,2.9,0,0,1-1.2-.66,4.75,4.75,0,0,1-.32-2.18l1.31.11.21,1,1.21.44v3.82l-1.1.22s.42,8,3.5,11.09a19,19,0,0,0,3.28,2.44l44.12-96.37-3-6.77a1.54,1.54,0,0,1,.5-1.88l3.4-2.47V649.49h.89V666.6l3.4,2.47a1.54,1.54,0,0,1,.5,1.88l-3,6.81,44.46,97.1a24.26,24.26,0,0,0,4.75-3.32c3.08-3.12,3.5-11.08,3.5-11.08l-1.09-.22v-3.83l1.2-.43.22-1,1.31-.11a4.84,4.84,0,0,1-.33,2.19,3,3,0,0,1-1.2.65l.32,1.59h1.86s-.84,9-2.84,14.36a25.77,25.77,0,0,1-2.29,4.32l15.12,13.44a28.07,28.07,0,0,0,5.71-3.85c3.08-3.12,3.49-11.09,3.49-11.09l-1.09-.22v-3.82l1.2-.44.22-1,1.31-.11a4.75,4.75,0,0,1-.32,2.18,3,3,0,0,1-1.21.66l.33,1.58H1121s-.85,9-2.84,14.37a26.06,26.06,0,0,1-2.11,4l19.63,12.11a19.63,19.63,0,0,0,3.49-2.58c3.08-3.12,3.5-11.09,3.5-11.09l-1.1-.22v-3.82l1.21-.44.21-1,1.32-.11a4.85,4.85,0,0,1-.33,2.19,3,3,0,0,1-1.2.65l.32,1.59H1145s-.84,9-2.84,14.36a33.08,33.08,0,0,1-3.23,5.77h.08v6.77h1.72v1.32H1139v9h1.72v1.32H1139v2h-.79v43.55H1140v4.76h-.79v3.29h11v2.64h-1.58v2.37h2.11v2.91h1.59v2.37h1.84v2.91h2.12v1.85h2.11v1.32h-77.61v.05H1558v-.05H1173.57v-4.87h2V798.75h-2v-4.87h2V780.66h-2v-4.87h2V679.87h-2V675h2V656.62h-2v-4.87h2V532.93h-2v-4.87H1558v-.44H1175.43V514.41h-20.76l117.72-52.52V434.76h60.8l65-29v-.33c1-.45,0-30.26,0-30.26h-2.18v-7.64h6.09V287.6l7.07-.86,0-12.91c0-1,.07-2,.15-3h0a40.43,40.43,0,0,1,37.18-37.14V218.85h6.23V233.7a40.43,40.43,0,0,1,37.18,37.14v.07c.08,1,.16,2.07.16,3.12v13.45l6.3,1v79.05h6.3v7.64H1498v30.29L1558,432V199H435V913H1558v-.41Zm-24.83,0h-13v-13h13Zm18.67,0h-13v-13h13Z" transform="translate(-435 -199)"/><polygon class="cls-1" points="678.19 617.88 678.19 618.94 678.24 618.94 678.24 620.26 678.19 620.26 678.19 622.19 677.47 622.19 677.47 629.23 678.55 629.23 678.55 630.55 677.47 630.55 677.47 633.4 676.91 633.4 676.91 678.45 685.27 678.45 685.27 684.17 692.61 684.17 692.61 680.88 691.82 680.88 691.82 676.12 693.67 676.12 693.67 632.57 692.88 632.57 692.88 630.55 691.16 630.55 691.16 629.23 692.88 629.23 692.88 620.26 691.16 620.26 691.16 618.94 692.88 618.94 692.88 612.17 678.54 612.17 678.54 617.88 678.19 617.88"/><rect class="cls-1" x="606.9" y="617.88" width="1.36" height="1.06"/><rect class="cls-1" x="580.62" y="617.88" width="0.9" height="1.06"/><rect class="cls-1" x="636.6" y="617.88" width="0.52" height="1.06"/><polygon class="cls-1" points="637.12 633.4 637.12 630.55 636.24 630.55 636.24 629.23 637.12 629.23 637.12 620.26 636.6 620.26 636.6 622.19 634.99 622.19 634.99 620.26 633.63 620.26 633.63 622.19 632.02 622.19 632.02 620.26 630.66 620.26 630.66 622.19 629.05 622.19 629.05 620.26 627.69 620.26 627.69 622.19 626.08 622.19 626.08 620.26 624.72 620.26 624.72 622.19 623.11 622.19 623.11 620.26 621.75 620.26 621.75 622.19 620.13 622.19 620.13 620.26 618.78 620.26 618.78 622.19 617.16 622.19 617.16 620.26 615.81 620.26 615.81 622.19 614.19 622.19 614.19 620.26 612.84 620.26 612.84 622.19 611.22 622.19 611.22 620.26 609.87 620.26 609.87 622.19 608.25 622.19 608.25 620.26 606.9 620.26 606.9 622.19 605.28 622.19 605.28 620.26 603.93 620.26 603.93 622.19 602.31 622.19 602.31 620.26 600.96 620.26 600.96 622.19 599.34 622.19 599.34 620.26 597.99 620.26 597.99 622.19 596.37 622.19 596.37 620.26 595.02 620.26 595.02 622.19 593.4 622.19 593.4 620.26 592.05 620.26 592.05 622.19 590.43 622.19 590.43 620.26 589.08 620.26 589.08 622.19 587.46 622.19 587.46 620.26 586.11 620.26 586.11 622.19 584.49 622.19 584.49 620.26 583.14 620.26 583.14 622.19 581.52 622.19 581.52 620.26 580.62 620.26 580.62 629.23 581.4 629.23 581.4 630.55 580.62 630.55 580.62 633.4 579.47 633.4 579.47 678.45 589.84 678.45 589.84 671.87 597.46 671.87 597.46 673.62 619.39 673.62 619.39 671.87 627.01 671.87 627.01 678.45 638.46 678.45 638.46 633.4 637.12 633.4"/><rect class="cls-1" x="592.05" y="617.88" width="1.36" height="1.06"/><rect class="cls-1" x="589.08" y="617.88" width="1.36" height="1.06"/><rect class="cls-1" x="583.14" y="617.88" width="1.36" height="1.06"/><rect class="cls-1" x="630.66" y="617.88" width="1.36" height="1.06"/><rect class="cls-1" x="586.11" y="617.88" width="1.36" height="1.06"/><rect class="cls-1" x="633.63" y="617.88" width="1.36" height="1.06"/><polygon points="645.83 700.77 644.3 700.77 644.45 700.95 570.87 700.95 571.03 700.77 570.59 700.77 570.59 700.59 316.3 700.59 316.3 713.59 1123 713.59 1123 700.59 645.83 700.59 645.83 700.77"/><rect x="297.13" y="700.59" width="13" height="13"/><rect x="278.46" y="700.59" width="13" height="13"/><path class="cls-2" d="M1043.21,675.72h0c0,2.12,0,4.9,0,4.9l41.2,90h-3.64l2.07,4.52h4l.34.73c.53-.28,1.15-.61,1.81-1l-44.46-97.1-1.27,2.85S1043.22,677.84,1043.21,675.72Z" transform="translate(-435 -199)"/><path class="cls-2" d="M1000.08,774.35l3.66.37,1.89-4.13H1002l41.2-90-1.29-2.89-44.12,96.37c.78.49,1.58.95,2.3,1.34Z" transform="translate(-435 -199)"/><polygon class="cls-3" points="645.75 571.59 649.39 571.59 608.19 481.61 566.99 571.59 570.63 571.59 608.19 489.56 645.75 571.59"/><path class="cls-4" d="M1082.82,775.11l-2.07-4.52-37.56-82-37.56,82-1.89,4.13.38,0Zm-39.63-78.49,32.87,73.92h-65.73Z" transform="translate(-435 -199)"/><path class="cls-5" d="M1043.19,696.62l-32.86,73.92h65.73Zm11.57,63.83-.87-2.07-4.51,2.6v1.55h-12.31V761l-4.51-2.6-.87,2.07-7.63-1.21v-2.42l2.78-.7,3.64,2.08,2.26-1.56.69-12-2.6-2.94,3.46-6.08,1.74,4.86v12.83l3.46,5.2.87,2.6,1.39-.35.17-2.25-2.77-4-1.73-5.89.17-1.91,2.25,2.6.52,2.6,1.91.34-.51-2.94-1-1.21V744.5l-1.39-4,1.22-5.38h0l2.6,4.33.09,11.53.08-11.53,2.6-4.33,1.22,5.38-1.39,4v3.65l-1,1.21-.52,2.94,1.91-.34.52-2.6,2.25-2.6.18,1.91-1.74,5.89-2.77,4,.17,2.25,1.39.35.87-2.6,3.46-5.2V740.52l1.74-4.86,3.46,6.08-2.6,2.94.7,12,2.25,1.56,3.64-2.08,2.78.7v2.42Z" transform="translate(-435 -199)"/><path class="cls-2" d="M979.94,791.49l129,.21.51-.27L1094.37,778c-.51.82-1,1.51-1.29,2l12.58,10.6H982l12.91-10.89c-.28-.42-.64-1-1-1.57l-15.38,13.68c.29.17.57.31.84.45Z" transform="translate(-435 -199)"/><polygon class="cls-2" points="655.41 578.69 657.73 580.65 657.73 577.99 656.41 578.31 653.88 577.77 654.06 577.57 652.51 577.59 652.85 578.31 565.08 578.03 565.08 577.69 560.49 577.62 560.48 577.63 560.48 580.14 562.2 578.69 655.41 578.69"/><path class="cls-2" d="M995.48,779.14v-2.51h0l4.59.07v-1.26c-.72-.39-1.52-.85-2.3-1.34a19,19,0,0,1-3.28-2.44c-3.08-3.12-3.5-11.09-3.5-11.09l1.1-.22v-3.82l-1.21-.44-.21-1-1.31-.11a4.75,4.75,0,0,0,.32,2.18,2.9,2.9,0,0,0,1.2.66l-.32,1.58h-1.86s.84,9,2.84,14.37a26.08,26.08,0,0,0,2.29,4.31c.38.61.74,1.15,1,1.57Z" transform="translate(-435 -199)"/><path class="cls-2" d="M1087.51,776.59l1.55,0,.38-.38,4.67-.75-.74,1.39-.64.16v2.66l.35.3c.31-.45.78-1.14,1.29-2a25.77,25.77,0,0,0,2.29-4.32c2-5.35,2.84-14.36,2.84-14.36h-1.86l-.32-1.59a3,3,0,0,0,1.2-.65,4.84,4.84,0,0,0,.33-2.19l-1.31.11-.22,1-1.2.43v3.83l1.09.22s-.42,8-3.5,11.08a24.26,24.26,0,0,1-4.75,3.32c-.66.38-1.28.71-1.81,1Z" transform="translate(-435 -199)"/><polygon class="cls-3" points="655.41 578.69 562.2 578.69 560.48 580.14 559.86 580.66 546.95 591.55 670.66 591.55 658.08 580.95 657.73 580.65 655.41 578.69"/><path class="cls-2" d="M1132.82,807.46c.82-.43,1.83-1,2.85-1.61L1116,793.74c-.57.92-1.1,1.71-1.45,2.21l18.19,10.64H954.51l18.55-10.85c-.33-.5-.73-1.11-1.14-1.78L952.58,805.9c1,.6,2,1.14,2.76,1.56Z" transform="translate(-435 -199)"/><path class="cls-2" d="M1110.81,793.73l3.41,2v-2.42l-.29-.67-.53.44-132.51,0,.07,0h0l-7.09-.1v2.3l2.62-1.54Z" transform="translate(-435 -199)"/><path class="cls-2" d="M1113.54,791.71h0l1.22-.22.07.22h.25l-.21.16.21.73-.68,1.12-.18-.42v2.42l.37.22c.35-.5.88-1.29,1.45-2.21a26.06,26.06,0,0,0,2.11-4c2-5.35,2.84-14.37,2.84-14.37h-1.86l-.33-1.58a3,3,0,0,0,1.21-.66,4.75,4.75,0,0,0,.32-2.18L1119,771l-.22,1-1.2.44v3.82l1.09.22s-.41,8-3.49,11.09a28.07,28.07,0,0,1-5.71,3.85l-.51.27Z" transform="translate(-435 -199)"/><path class="cls-2" d="M973.87,795.27V793l7.09.1-.07,0h-2.31l.72-.82c-.27-.14-.55-.28-.84-.45a27.48,27.48,0,0,1-5.58-3.77c-3.08-3.13-3.49-11.09-3.49-11.09l1.09-.22v-3.82l-1.2-.44-.22-1-1.31-.11a4.66,4.66,0,0,0,.33,2.18,3,3,0,0,0,1.2.66l-.33,1.58h-1.86s.85,9,2.84,14.37a23.82,23.82,0,0,0,2,3.83c.41.67.81,1.28,1.14,1.78Z" transform="translate(-435 -199)"/><polygon class="cls-2" points="545.97 594.08 545.97 594.08 545.97 594.08 545.97 594.08"/><path class="cls-2" d="M1138.79,807.46v3.71h.09a33.08,33.08,0,0,0,3.23-5.77c2-5.35,2.84-14.36,2.84-14.36h-1.86l-.32-1.59a3,3,0,0,0,1.2-.65,4.85,4.85,0,0,0,.33-2.19l-1.32.11-.21,1-1.21.44V792l1.1.22s-.42,8-3.5,11.09a19.63,19.63,0,0,1-3.49,2.58c-1,.62-2,1.18-2.85,1.61Z" transform="translate(-435 -199)"/><path class="cls-2" d="M949.2,807.46h6.14c-.8-.42-1.78-1-2.76-1.56a20.27,20.27,0,0,1-3.58-2.63c-3.08-3.12-3.5-11.09-3.5-11.09l1.1-.22v-3.82l-1.21-.44-.21-1-1.31-.11a4.8,4.8,0,0,0,.32,2.19,3,3,0,0,0,1.2.65l-.32,1.59h-1.86s.84,9,2.84,14.36a32.58,32.58,0,0,0,3.15,5.65Z" transform="translate(-435 -199)"/><polygon class="cls-3" points="675.81 594.73 541.49 594.73 538.87 596.27 538.06 596.74 519.51 607.59 697.78 607.59 679.59 596.95 679.22 596.73 675.81 594.73"/><polygon class="cls-3" points="638.46 633.4 638.46 678.45 639.21 678.45 639.21 671.87 646.83 671.87 646.83 673.62 668.76 673.62 668.76 671.87 676.38 671.87 676.38 678.45 676.91 678.45 676.91 633.4 638.46 633.4"/><polygon class="cls-3" points="541.02 633.4 541.02 678.45 541.5 678.45 541.5 671.87 549.11 671.87 549.11 673.62 571.04 673.62 571.04 671.87 578.66 671.87 578.66 678.45 579.47 678.45 579.47 633.4 541.02 633.4"/><rect class="cls-6" x="580.17" y="617.88" width="0.46" height="1.06"/><polygon class="cls-6" points="580.62 633.4 580.62 630.55 539.9 630.55 539.9 633.4 541.02 633.4 579.47 633.4 580.62 633.4"/><rect class="cls-6" x="637.12" y="617.88" width="0.84" height="1.06"/><rect class="cls-6" x="539.9" y="617.88" width="0.04" height="1.06"/><rect class="cls-6" x="672.25" y="617.88" width="1.36" height="1.06"/><rect class="cls-6" x="657.39" y="617.88" width="1.36" height="1.06"/><rect class="cls-6" x="660.36" y="617.88" width="1.36" height="1.06"/><rect class="cls-6" x="639.57" y="617.88" width="1.36" height="1.06"/><polygon class="cls-6" points="676.57 622.19 676.57 620.26 675.22 620.26 675.22 622.19 673.6 622.19 673.6 620.26 672.25 620.26 672.25 622.19 670.63 622.19 670.63 620.26 669.27 620.26 669.27 622.19 667.66 622.19 667.66 620.26 666.3 620.26 666.3 622.19 664.69 622.19 664.69 620.26 663.33 620.26 663.33 622.19 661.72 622.19 661.72 620.26 660.36 620.26 660.36 622.19 658.75 622.19 658.75 620.26 657.39 620.26 657.39 622.19 655.78 622.19 655.78 620.26 654.42 620.26 654.42 622.19 652.81 622.19 652.81 620.26 651.45 620.26 651.45 622.19 649.84 622.19 649.84 620.26 648.48 620.26 648.48 622.19 646.87 622.19 646.87 620.26 645.51 620.26 645.51 622.19 643.9 622.19 643.9 620.26 642.54 620.26 642.54 622.19 640.93 622.19 640.93 620.26 639.57 620.26 639.57 622.19 637.96 622.19 637.96 620.26 637.12 620.26 637.12 629.23 677.47 629.23 677.47 622.19 676.57 622.19"/><rect class="cls-6" x="675.22" y="617.88" width="1.36" height="1.06"/><rect class="cls-6" x="642.54" y="617.88" width="1.36" height="1.06"/><rect class="cls-6" x="648.48" y="617.88" width="1.36" height="1.06"/><rect class="cls-6" x="654.42" y="617.88" width="1.36" height="1.06"/><rect class="cls-6" x="651.45" y="617.88" width="1.36" height="1.06"/><rect class="cls-6" x="669.27" y="617.88" width="1.36" height="1.06"/><polygon class="cls-6" points="637.12 630.55 637.12 633.4 638.46 633.4 676.91 633.4 677.47 633.4 677.47 630.55 637.12 630.55"/><rect class="cls-6" x="666.3" y="617.88" width="1.36" height="1.06"/><rect class="cls-6" x="645.51" y="617.88" width="1.36" height="1.06"/><rect class="cls-6" x="663.33" y="617.88" width="1.36" height="1.06"/><rect class="cls-6" x="550.46" y="617.88" width="1.36" height="1.06"/><rect class="cls-6" x="553.43" y="617.88" width="1.36" height="1.06"/><rect class="cls-6" x="562.34" y="617.88" width="1.36" height="1.06"/><rect class="cls-6" x="565.31" y="617.88" width="1.36" height="1.06"/><rect class="cls-6" x="556.4" y="617.88" width="1.36" height="1.06"/><rect class="cls-6" x="559.37" y="617.88" width="1.36" height="1.06"/><rect class="cls-6" x="568.28" y="617.88" width="1.36" height="1.06"/><rect class="cls-6" x="577.2" y="617.88" width="1.36" height="1.06"/><rect class="cls-6" x="571.25" y="617.88" width="1.36" height="1.06"/><rect class="cls-6" x="574.23" y="617.88" width="1.36" height="1.06"/><rect class="cls-6" x="544.52" y="617.88" width="1.36" height="1.06"/><polygon class="cls-6" points="580.62 629.23 580.62 620.26 580.17 620.26 580.17 622.19 578.55 622.19 578.55 620.26 577.2 620.26 577.2 622.19 575.58 622.19 575.58 620.26 574.23 620.26 574.23 622.19 572.61 622.19 572.61 620.26 571.25 620.26 571.25 622.19 569.64 622.19 569.64 620.26 568.28 620.26 568.28 622.19 566.67 622.19 566.67 620.26 565.31 620.26 565.31 622.19 563.7 622.19 563.7 620.26 562.34 620.26 562.34 622.19 560.73 622.19 560.73 620.26 559.37 620.26 559.37 622.19 557.76 622.19 557.76 620.26 556.4 620.26 556.4 622.19 554.79 622.19 554.79 620.26 553.43 620.26 553.43 622.19 551.82 622.19 551.82 620.26 550.46 620.26 550.46 622.19 548.85 622.19 548.85 620.26 547.49 620.26 547.49 622.19 545.88 622.19 545.88 620.26 544.52 620.26 544.52 622.19 542.91 622.19 542.91 620.26 541.55 620.26 541.55 622.19 539.94 622.19 539.94 620.26 539.9 620.26 539.9 629.23 580.62 629.23"/><rect class="cls-6" x="547.49" y="617.88" width="1.36" height="1.06"/><rect class="cls-6" x="541.55" y="617.88" width="1.36" height="1.06"/><polygon class="cls-2" points="525.25 612.17 539.84 612.17 539.84 612.12 678.54 612.12 678.54 612.17 692.88 612.17 703.79 612.17 703.79 608.46 697.82 608.46 520.34 608.46 514.2 608.46 514.2 612.05 514.2 612.17 525.25 612.17"/><rect class="cls-3" x="615.81" y="618.94" width="1.36" height="1.32"/><rect class="cls-3" x="618.78" y="618.94" width="1.36" height="1.32"/><rect class="cls-3" x="627.69" y="618.94" width="1.36" height="1.32"/><rect class="cls-3" x="621.75" y="618.94" width="1.36" height="1.32"/><rect class="cls-3" x="624.72" y="618.94" width="1.36" height="1.32"/><rect class="cls-3" x="583.14" y="618.94" width="1.36" height="1.32"/><rect class="cls-3" x="633.63" y="618.94" width="1.36" height="1.32"/><rect class="cls-3" x="678.19" y="618.94" width="0.05" height="1.32"/><rect class="cls-3" x="586.11" y="618.94" width="1.36" height="1.32"/><rect class="cls-3" x="597.99" y="618.94" width="1.36" height="1.32"/><rect class="cls-3" x="600.96" y="618.94" width="1.36" height="1.32"/><rect class="cls-3" x="595.02" y="618.94" width="1.36" height="1.32"/><rect class="cls-3" x="592.05" y="618.94" width="1.36" height="1.32"/><rect class="cls-3" x="603.93" y="618.94" width="1.36" height="1.32"/><rect class="cls-3" x="609.87" y="618.94" width="1.36" height="1.32"/><rect class="cls-3" x="612.84" y="618.94" width="1.36" height="1.32"/><rect class="cls-3" x="606.9" y="618.94" width="1.36" height="1.32"/><rect class="cls-3" x="630.66" y="618.94" width="1.36" height="1.32"/><polygon class="cls-3" points="580.62 618.94 580.17 618.94 580.17 620.26 580.62 620.26 581.52 620.26 581.52 618.94 580.62 618.94"/><rect class="cls-3" x="589.08" y="618.94" width="1.36" height="1.32"/><polygon class="cls-3" points="539.94 618.94 539.9 618.94 539.03 618.94 539.03 620.26 539.9 620.26 539.94 620.26 539.94 618.94"/><polygon class="cls-3" points="637.96 618.94 637.12 618.94 636.6 618.94 636.6 620.26 637.12 620.26 637.96 620.26 637.96 618.94"/><rect class="cls-3" x="660.36" y="618.94" width="1.36" height="1.32"/><rect class="cls-3" x="663.33" y="618.94" width="1.36" height="1.32"/><rect class="cls-3" x="669.27" y="618.94" width="1.36" height="1.32"/><rect class="cls-3" x="657.39" y="618.94" width="1.36" height="1.32"/><rect class="cls-3" x="672.25" y="618.94" width="1.36" height="1.32"/><rect class="cls-3" x="675.22" y="618.94" width="1.36" height="1.32"/><rect class="cls-3" x="648.48" y="618.94" width="1.36" height="1.32"/><rect class="cls-3" x="651.45" y="618.94" width="1.36" height="1.32"/><rect class="cls-3" x="666.3" y="618.94" width="1.36" height="1.32"/><rect class="cls-3" x="639.57" y="618.94" width="1.36" height="1.32"/><rect class="cls-3" x="645.51" y="618.94" width="1.36" height="1.32"/><rect class="cls-3" x="654.42" y="618.94" width="1.36" height="1.32"/><rect class="cls-3" x="642.54" y="618.94" width="1.36" height="1.32"/><rect class="cls-3" x="568.28" y="618.94" width="1.36" height="1.32"/><rect class="cls-3" x="544.52" y="618.94" width="1.36" height="1.32"/><rect class="cls-3" x="571.25" y="618.94" width="1.36" height="1.32"/><rect class="cls-3" x="547.49" y="618.94" width="1.36" height="1.32"/><rect class="cls-3" x="541.55" y="618.94" width="1.36" height="1.32"/><rect class="cls-3" x="574.23" y="618.94" width="1.36" height="1.32"/><rect class="cls-3" x="562.34" y="618.94" width="1.36" height="1.32"/><rect class="cls-3" x="553.43" y="618.94" width="1.36" height="1.32"/><rect class="cls-3" x="565.31" y="618.94" width="1.36" height="1.32"/><rect class="cls-3" x="556.4" y="618.94" width="1.36" height="1.32"/><rect class="cls-3" x="577.2" y="618.94" width="1.36" height="1.32"/><rect class="cls-3" x="550.46" y="618.94" width="1.36" height="1.32"/><rect class="cls-3" x="559.37" y="618.94" width="1.36" height="1.32"/><polygon class="cls-7" points="580.62 630.55 581.4 630.55 581.4 629.23 580.62 629.23 539.9 629.23 539.09 629.23 539.09 630.55 539.9 630.55 580.62 630.55"/><polygon class="cls-7" points="637.12 629.23 636.24 629.23 636.24 630.55 637.12 630.55 677.47 630.55 678.55 630.55 678.55 629.23 677.47 629.23 637.12 629.23"/><polygon class="cls-7" points="539.94 620.26 539.94 622.19 541.55 622.19 541.55 620.26 541.55 618.94 541.55 617.88 539.94 617.88 539.94 618.94 539.94 620.26"/><polygon class="cls-7" points="542.91 618.94 542.91 620.26 542.91 622.19 544.52 622.19 544.52 620.26 544.52 618.94 544.52 617.88 542.91 617.88 542.91 618.94"/><polygon class="cls-7" points="545.88 618.94 545.88 620.26 545.88 622.19 547.49 622.19 547.49 620.26 547.49 618.94 547.49 617.88 545.88 617.88 545.88 618.94"/><polygon class="cls-7" points="548.85 618.94 548.85 620.26 548.85 622.19 550.46 622.19 550.46 620.26 550.46 618.94 550.46 617.88 548.85 617.88 548.85 618.94"/><polygon class="cls-7" points="551.82 618.94 551.82 620.26 551.82 622.19 553.43 622.19 553.43 620.26 553.43 618.94 553.43 617.88 551.82 617.88 551.82 618.94"/><polygon class="cls-7" points="554.79 618.94 554.79 620.26 554.79 622.19 556.4 622.19 556.4 620.26 556.4 618.94 556.4 617.88 554.79 617.88 554.79 618.94"/><polygon class="cls-7" points="557.76 618.94 557.76 620.26 557.76 622.19 559.37 622.19 559.37 620.26 559.37 618.94 559.37 617.88 557.76 617.88 557.76 618.94"/><polygon class="cls-7" points="560.73 618.94 560.73 620.26 560.73 622.19 562.34 622.19 562.34 620.26 562.34 618.94 562.34 617.88 560.73 617.88 560.73 618.94"/><polygon class="cls-7" points="563.7 618.94 563.7 620.26 563.7 622.19 565.31 622.19 565.31 620.26 565.31 618.94 565.31 617.88 563.7 617.88 563.7 618.94"/><polygon class="cls-7" points="566.67 618.94 566.67 620.26 566.67 622.19 568.28 622.19 568.28 620.26 568.28 618.94 568.28 617.88 566.67 617.88 566.67 618.94"/><polygon class="cls-7" points="569.64 618.94 569.64 620.26 569.64 622.19 571.25 622.19 571.25 620.26 571.25 618.94 571.25 617.88 569.64 617.88 569.64 618.94"/><polygon class="cls-7" points="572.61 618.94 572.61 620.26 572.61 622.19 574.23 622.19 574.23 620.26 574.23 618.94 574.23 617.88 572.61 617.88 572.61 618.94"/><polygon class="cls-7" points="575.58 618.94 575.58 620.26 575.58 622.19 577.2 622.19 577.2 620.26 577.2 618.94 577.2 617.88 575.58 617.88 575.58 618.94"/><polygon class="cls-7" points="578.55 618.94 578.55 620.26 578.55 622.19 580.17 622.19 580.17 620.26 580.17 618.94 580.17 617.88 578.55 617.88 578.55 618.94"/><polygon class="cls-7" points="581.52 620.26 581.52 622.19 583.14 622.19 583.14 620.26 583.14 618.94 583.14 617.88 581.52 617.88 581.52 618.94 581.52 620.26"/><polygon class="cls-7" points="584.49 620.26 584.49 622.19 586.11 622.19 586.11 620.26 586.11 618.94 586.11 617.88 584.49 617.88 584.49 618.94 584.49 620.26"/><polygon class="cls-7" points="587.46 620.26 587.46 622.19 589.08 622.19 589.08 620.26 589.08 618.94 589.08 617.88 587.46 617.88 587.46 618.94 587.46 620.26"/><polygon class="cls-7" points="590.43 620.26 590.43 622.19 592.05 622.19 592.05 620.26 592.05 618.94 592.05 617.88 590.43 617.88 590.43 618.94 590.43 620.26"/><polygon class="cls-7" points="593.4 620.26 593.4 622.19 595.02 622.19 595.02 620.26 595.02 618.94 595.02 617.88 593.4 617.88 593.4 618.94 593.4 620.26"/><polygon class="cls-7" points="596.37 620.26 596.37 622.19 597.99 622.19 597.99 620.26 597.99 618.94 597.99 617.88 596.37 617.88 596.37 618.94 596.37 620.26"/><polygon class="cls-7" points="599.34 620.26 599.34 622.19 600.96 622.19 600.96 620.26 600.96 618.94 600.96 617.88 599.34 617.88 599.34 618.94 599.34 620.26"/><polygon class="cls-7" points="602.31 620.26 602.31 622.19 603.93 622.19 603.93 620.26 603.93 618.94 603.93 617.88 602.31 617.88 602.31 618.94 602.31 620.26"/><polygon class="cls-7" points="605.28 620.26 605.28 622.19 606.9 622.19 606.9 620.26 606.9 618.94 606.9 617.88 605.28 617.88 605.28 618.94 605.28 620.26"/><polygon class="cls-7" points="608.25 620.26 608.25 622.19 609.87 622.19 609.87 620.26 609.87 618.94 609.87 617.88 608.25 617.88 608.25 618.94 608.25 620.26"/><polygon class="cls-7" points="611.22 620.26 611.22 622.19 612.84 622.19 612.84 620.26 612.84 618.94 612.84 617.88 611.22 617.88 611.22 618.94 611.22 620.26"/><polygon class="cls-7" points="614.19 620.26 614.19 622.19 615.81 622.19 615.81 620.26 615.81 618.94 615.81 617.88 614.19 617.88 614.19 618.94 614.19 620.26"/><polygon class="cls-7" points="617.16 620.26 617.16 622.19 618.78 622.19 618.78 620.26 618.78 618.94 618.78 617.88 617.16 617.88 617.16 618.94 617.16 620.26"/><polygon class="cls-7" points="620.13 620.26 620.13 622.19 621.75 622.19 621.75 620.26 621.75 618.94 621.75 617.88 620.13 617.88 620.13 618.94 620.13 620.26"/><polygon class="cls-7" points="623.11 620.26 623.11 622.19 624.72 622.19 624.72 620.26 624.72 618.94 624.72 617.88 623.11 617.88 623.11 618.94 623.11 620.26"/><polygon class="cls-7" points="626.08 620.26 626.08 622.19 627.69 622.19 627.69 620.26 627.69 618.94 627.69 617.88 626.08 617.88 626.08 618.94 626.08 620.26"/><polygon class="cls-7" points="629.05 620.26 629.05 622.19 630.66 622.19 630.66 620.26 630.66 618.94 630.66 617.88 629.05 617.88 629.05 618.94 629.05 620.26"/><polygon class="cls-7" points="632.02 620.26 632.02 622.19 633.63 622.19 633.63 620.26 633.63 618.94 633.63 617.88 632.02 617.88 632.02 618.94 632.02 620.26"/><polygon class="cls-7" points="634.99 620.26 634.99 622.19 636.6 622.19 636.6 620.26 636.6 618.94 636.6 617.88 634.99 617.88 634.99 618.94 634.99 620.26"/><polygon class="cls-7" points="637.96 620.26 637.96 622.19 639.57 622.19 639.57 620.26 639.57 618.94 639.57 617.88 637.96 617.88 637.96 618.94 637.96 620.26"/><polygon class="cls-7" points="640.93 618.94 640.93 620.26 640.93 622.19 642.54 622.19 642.54 620.26 642.54 618.94 642.54 617.88 640.93 617.88 640.93 618.94"/><polygon class="cls-7" points="643.9 618.94 643.9 620.26 643.9 622.19 645.51 622.19 645.51 620.26 645.51 618.94 645.51 617.88 643.9 617.88 643.9 618.94"/><polygon class="cls-7" points="646.87 618.94 646.87 620.26 646.87 622.19 648.48 622.19 648.48 620.26 648.48 618.94 648.48 617.88 646.87 617.88 646.87 618.94"/><polygon class="cls-7" points="649.84 618.94 649.84 620.26 649.84 622.19 651.45 622.19 651.45 620.26 651.45 618.94 651.45 617.88 649.84 617.88 649.84 618.94"/><polygon class="cls-7" points="652.81 618.94 652.81 620.26 652.81 622.19 654.42 622.19 654.42 620.26 654.42 618.94 654.42 617.88 652.81 617.88 652.81 618.94"/><polygon class="cls-7" points="655.78 618.94 655.78 620.26 655.78 622.19 657.39 622.19 657.39 620.26 657.39 618.94 657.39 617.88 655.78 617.88 655.78 618.94"/><polygon class="cls-7" points="658.75 618.94 658.75 620.26 658.75 622.19 660.36 622.19 660.36 620.26 660.36 618.94 660.36 617.88 658.75 617.88 658.75 618.94"/><polygon class="cls-7" points="661.72 618.94 661.72 620.26 661.72 622.19 663.33 622.19 663.33 620.26 663.33 618.94 663.33 617.88 661.72 617.88 661.72 618.94"/><polygon class="cls-7" points="664.69 618.94 664.69 620.26 664.69 622.19 666.3 622.19 666.3 620.26 666.3 618.94 666.3 617.88 664.69 617.88 664.69 618.94"/><polygon class="cls-7" points="667.66 618.94 667.66 620.26 667.66 622.19 669.27 622.19 669.27 620.26 669.27 618.94 669.27 617.88 667.66 617.88 667.66 618.94"/><polygon class="cls-7" points="670.63 618.94 670.63 620.26 670.63 622.19 672.25 622.19 672.25 620.26 672.25 618.94 672.25 617.88 670.63 617.88 670.63 618.94"/><polygon class="cls-7" points="673.6 618.94 673.6 620.26 673.6 622.19 675.22 622.19 675.22 620.26 675.22 618.94 675.22 617.88 673.6 617.88 673.6 618.94"/><polygon class="cls-7" points="676.57 618.94 676.57 620.26 676.57 622.19 677.47 622.19 678.19 622.19 678.19 620.26 678.19 618.94 678.19 617.88 676.57 617.88 676.57 618.94"/><polygon class="cls-3" points="539.9 617.88 539.94 617.88 541.55 617.88 542.91 617.88 544.52 617.88 545.88 617.88 547.49 617.88 548.85 617.88 550.46 617.88 551.82 617.88 553.43 617.88 554.79 617.88 556.4 617.88 557.76 617.88 559.37 617.88 560.73 617.88 562.34 617.88 563.7 617.88 565.31 617.88 566.67 617.88 568.28 617.88 569.64 617.88 571.25 617.88 572.61 617.88 574.23 617.88 575.58 617.88 577.2 617.88 578.55 617.88 580.17 617.88 580.62 617.88 581.52 617.88 583.14 617.88 584.49 617.88 586.11 617.88 587.46 617.88 589.08 617.88 590.43 617.88 592.05 617.88 593.4 617.88 595.02 617.88 596.37 617.88 597.99 617.88 599.34 617.88 600.96 617.88 602.31 617.88 603.93 617.88 605.28 617.88 606.9 617.88 608.25 617.88 609.87 617.88 611.22 617.88 612.84 617.88 614.19 617.88 615.81 617.88 617.16 617.88 618.78 617.88 620.13 617.88 621.75 617.88 623.11 617.88 624.72 617.88 626.08 617.88 627.69 617.88 629.05 617.88 630.66 617.88 632.02 617.88 633.63 617.88 634.99 617.88 636.6 617.88 637.12 617.88 637.96 617.88 639.57 617.88 640.93 617.88 642.54 617.88 643.9 617.88 645.51 617.88 646.87 617.88 648.48 617.88 649.84 617.88 651.45 617.88 652.81 617.88 654.42 617.88 655.78 617.88 657.39 617.88 658.75 617.88 660.36 617.88 661.72 617.88 663.33 617.88 664.69 617.88 666.3 617.88 667.66 617.88 669.27 617.88 670.63 617.88 672.25 617.88 673.6 617.88 675.22 617.88 676.57 617.88 678.19 617.88 678.54 617.88 678.54 612.17 678.54 612.12 539.84 612.12 539.84 612.17 539.84 617.88 539.9 617.88"/><rect class="cls-3" x="513.9" y="680.88" width="11.62" height="3.29"/><rect class="cls-3" x="514.95" y="632.57" width="9.5" height="43.56"/><polygon class="cls-6" points="526.3 680.88 526.3 676.12 524.46 676.12 514.95 676.12 513.1 676.12 513.1 680.88 513.9 680.88 525.51 680.88 526.3 680.88"/><polygon class="cls-6" points="525.25 632.57 525.25 628.87 514.16 628.87 514.16 632.57 514.95 632.57 524.46 632.57 525.25 632.57"/><polygon class="cls-6" points="525.25 612.17 514.2 612.17 514.16 612.17 514.16 617.26 525.25 617.26 525.25 612.17"/><rect class="cls-6" x="514.16" y="618.58" width="11.09" height="8.98"/><polygon class="cls-7" points="526.96 618.58 526.96 617.26 525.25 617.26 514.16 617.26 512.44 617.26 512.44 618.58 514.16 618.58 525.25 618.58 526.96 618.58"/><polygon class="cls-7" points="526.96 628.87 526.96 627.55 525.25 627.55 514.16 627.55 512.44 627.55 512.44 628.87 514.16 628.87 525.25 628.87 526.96 628.87"/><rect class="cls-3" x="692.61" y="680.88" width="11.62" height="3.29"/><rect class="cls-3" x="693.67" y="632.57" width="9.5" height="43.56"/><polygon class="cls-6" points="691.82 676.12 691.82 680.88 692.61 680.88 704.23 680.88 705.02 680.88 705.02 676.12 703.17 676.12 693.67 676.12 691.82 676.12"/><rect class="cls-6" x="692.88" y="620.26" width="11.09" height="8.98"/><polygon class="cls-6" points="692.88 612.17 692.88 618.94 703.96 618.94 703.96 612.17 703.88 612.17 703.79 612.17 692.88 612.17"/><polygon class="cls-6" points="692.88 630.55 692.88 632.57 693.67 632.57 703.17 632.57 703.96 632.57 703.96 630.55 692.88 630.55"/><polygon class="cls-7" points="691.16 618.94 691.16 620.26 692.88 620.26 703.96 620.26 705.68 620.26 705.68 618.94 703.96 618.94 692.88 618.94 691.16 618.94"/><polygon class="cls-7" points="691.16 629.23 691.16 630.55 692.88 630.55 703.96 630.55 705.68 630.55 705.68 629.23 703.96 629.23 692.88 629.23 691.16 629.23"/><rect class="cls-6" x="597.46" y="673.62" width="21.94" height="4.82"/><polygon class="cls-3" points="597.46 671.87 589.84 671.87 589.84 678.45 597.46 678.45 597.46 673.62 597.46 671.87"/><polygon class="cls-3" points="619.39 671.87 619.39 673.62 619.39 678.45 627.01 678.45 627.01 671.87 619.39 671.87"/><rect class="cls-3" x="549.11" y="673.62" width="21.94" height="4.82"/><polygon class="cls-3" points="549.11 671.87 541.5 671.87 541.5 678.45 549.11 678.45 549.11 673.62 549.11 671.87"/><polygon class="cls-3" points="571.04 671.87 571.04 673.62 571.04 678.45 578.66 678.45 578.66 671.87 571.04 671.87"/><rect class="cls-3" x="646.83" y="673.62" width="21.94" height="4.82"/><polygon class="cls-3" points="646.83 671.87 639.21 671.87 639.21 678.45 646.83 678.45 646.83 673.62 646.83 671.87"/><polygon class="cls-3" points="668.76 671.87 668.76 673.62 668.76 678.45 676.38 678.45 676.38 671.87 668.76 671.87"/><polygon class="cls-8" points="685.27 684.17 685.27 684.33 638.17 684.3 638.17 686.54 713.67 686.54 713.67 686.81 715.25 686.81 715.25 684.17 704.23 684.17 692.61 684.17 685.27 684.17"/><polygon class="cls-8" points="578.25 686.54 578.25 684.25 532.85 684.22 532.85 684.17 525.51 684.17 513.9 684.17 500.9 684.17 500.9 686.81 502.48 686.81 502.48 686.54 578.25 686.54"/><polygon class="cls-9" points="574.82 688.78 578.25 688.78 578.25 686.54 502.48 686.54 502.48 686.81 502.48 689.18 574.82 689.18 574.82 688.78"/><polygon class="cls-9" points="638.17 686.54 638.17 688.78 641.6 688.78 641.6 689.18 713.67 689.18 713.67 686.81 713.67 686.54 638.17 686.54"/><polygon class="cls-8" points="574.82 689.18 502.48 689.18 500.37 689.18 500.37 692.09 574.82 692.09 574.82 689.18"/><polygon class="cls-8" points="641.6 692.09 715.78 692.09 715.78 689.18 713.67 689.18 641.6 689.18 641.6 692.09"/><polygon class="cls-9" points="570.59 693.43 574.82 693.43 574.82 692.09 500.37 692.09 498.79 692.09 498.79 694.46 570.59 694.46 570.59 693.43"/><polygon class="cls-9" points="641.6 693.43 645.83 693.43 645.83 694.46 717.37 694.46 717.37 692.09 715.78 692.09 641.6 692.09 641.6 693.43"/><polygon class="cls-8" points="570.59 694.46 498.79 694.46 496.94 694.46 496.94 697.37 570.59 697.37 570.59 694.46"/><polygon class="cls-8" points="645.83 697.37 719.21 697.37 719.21 694.46 717.37 694.46 645.83 694.46 645.83 697.37"/><polygon class="cls-10" points="570.59 697.37 496.94 697.37 494.83 697.37 494.83 699.22 570.59 699.22 570.59 697.37"/><polygon class="cls-10" points="645.83 699.22 721.33 699.22 721.33 697.37 719.21 697.37 645.83 697.37 645.83 699.22"/><polygon class="cls-10" points="645.83 700.54 721.33 700.54 723.44 700.54 723.44 699.22 721.33 699.22 645.83 699.22 645.83 700.54"/><polygon class="cls-10" points="494.83 699.22 492.72 699.22 492.72 700.54 494.83 700.54 570.59 700.54 570.59 699.22 494.83 699.22"/><polygon class="cls-11" points="571.03 700.77 575.21 696.13 574.82 696.13 574.82 693.43 570.59 693.43 570.59 694.46 570.59 697.37 570.59 699.22 570.59 700.54 570.59 700.59 570.59 700.77 571.03 700.77"/><polygon class="cls-11" points="645.83 697.37 645.83 694.46 645.83 693.43 641.6 693.43 641.6 696.13 640.68 696.13 644.3 700.77 645.83 700.77 645.83 700.59 645.83 700.54 645.83 699.22 645.83 697.37"/><polygon class="cls-11" points="638.17 691.34 636.95 691.34 640.68 696.13 641.6 696.13 641.6 693.43 641.6 692.09 641.6 689.18 641.6 688.78 638.17 688.78 638.17 691.34"/><polygon class="cls-11" points="579.51 691.34 578.25 691.34 578.25 688.78 574.82 688.78 574.82 689.18 574.82 692.09 574.82 693.43 574.82 696.13 575.21 696.13 579.51 691.34"/><polygon class="cls-11" points="636.95 691.34 638.17 691.34 638.17 688.78 638.17 686.54 638.17 684.3 631.45 684.29 636.95 691.34"/><polygon class="cls-11" points="578.25 691.34 579.51 691.34 585.88 684.26 578.25 684.25 578.25 686.54 578.25 688.78 578.25 691.34"/><path class="cls-12" d="M1075.68,895.13l-3.73-4.79-5.5-7.05-45.57,0-6.37,7.08-4.3,4.79-4.18,4.64-.16.18h73.57l-.14-.18Zm-51.18-9.91h38l9.15,12.49h-58.07Z" transform="translate(-435 -199)"/><polygon class="cls-11" points="636.69 698.71 627.53 686.22 589.5 686.22 578.62 698.71 636.69 698.71"/><polygon class="cls-2" points="624.61 557.12 620.97 559.2 618.72 557.64 618.02 545.68 620.62 542.74 617.16 536.66 615.42 541.52 615.42 554.35 611.96 559.55 611.09 562.15 609.7 561.8 609.53 559.55 612.3 555.56 614.04 549.67 613.86 547.76 611.61 550.36 611.09 552.96 609.18 553.3 609.7 550.36 610.74 549.15 610.74 545.5 612.13 541.52 610.91 536.14 608.31 540.47 608.23 552 608.14 540.47 605.54 536.14 605.54 536.14 604.32 541.52 605.71 545.5 605.71 549.15 606.75 550.36 607.27 553.3 605.36 552.96 604.84 550.36 602.59 547.76 602.41 549.67 604.15 555.56 606.92 559.55 606.75 561.8 605.36 562.15 604.49 559.55 601.03 554.35 601.03 541.52 599.29 536.66 595.83 542.74 598.43 545.68 597.74 557.64 595.48 559.2 591.84 557.12 589.06 557.82 589.06 560.25 596.69 561.45 597.56 559.38 602.07 561.98 602.07 563.53 608.14 563.53 608.31 563.53 614.38 563.53 614.38 561.98 618.89 559.38 619.76 561.45 627.39 560.25 627.39 557.82 624.61 557.12"/><polygon class="cls-2" points="652.85 578.31 652.51 577.59 652.15 576.85 651.81 576.12 647.82 576.11 569.12 575.76 568.74 575.72 565.08 575.35 565.08 576.43 565.08 577.69 565.08 578.03 652.85 578.31"/><polygon class="cls-2" points="656.41 578.31 657.73 577.99 658.38 577.83 659.11 576.44 654.44 577.19 654.06 577.57 653.88 577.77 656.41 578.31"/><polygon class="cls-2" points="678.93 593.64 678.54 592.71 673.98 592.71 544.94 592.49 544.3 593.22 543.58 594.04 545.89 594.04 678.4 594.08 678.93 593.64"/><polygon class="cls-2" points="680.08 592.72 679.83 592.72 679.87 592.88 680.08 592.72"/><polygon class="cls-2" points="678.93 593.64 679.22 594.31 679.4 594.73 680.08 593.61 679.87 592.88 679.83 592.72 679.76 592.49 678.54 592.71 678.54 592.71 678.93 593.64"/><polygon class="cls-13" points="585.88 684.26 631.45 684.29 638.17 684.3 685.27 684.33 685.27 684.17 685.27 678.45 676.91 678.45 676.38 678.45 668.76 678.45 646.83 678.45 639.21 678.45 638.46 678.45 627.01 678.45 619.39 678.45 597.46 678.45 589.84 678.45 579.47 678.45 578.66 678.45 571.04 678.45 549.11 678.45 541.5 678.45 541.02 678.45 532.85 678.45 532.85 684.17 532.85 684.22 578.25 684.25 585.88 684.26"/><polygon class="cls-2" points="608.19 467.26 608.21 467.27 608.23 467.26 608.23 467.29 608.65 467.6 608.65 450.49 607.76 450.49 607.76 467.6 608.19 467.29 608.19 467.26"/><path class="cls-2" d="M1043.2,675.71h0c0,2.12,0,4.89,0,4.89l1.27-2.85,3-6.81a1.54,1.54,0,0,0-.5-1.88l-3.4-2.47-.42-.32v0h0v0l-.43.32-3.4,2.47a1.54,1.54,0,0,0-.5,1.88l3,6.77,1.29,2.89S1043.2,677.83,1043.2,675.71Z" transform="translate(-435 -199)"/><polygon class="cls-14" points="1037.2 71.84 992.07 71.84 992.07 85.59 1036.47 85.59 1038.21 85.86 1037.2 85.59 1037.2 71.84"/><path class="cls-14" d="M1490.09,287.48V274c0-1-.08-2.09-.16-3.12v16.55Z" transform="translate(-435 -199)"/><path class="cls-14" d="M1409.33,270.84c-.08,1-.14,2-.15,3l0,12.91h.11Z" transform="translate(-435 -199)"/><polygon class="cls-15" points="992.07 85.59 992.07 71.84 974.34 71.84 974.33 71.84 974.33 87.73 992.07 85.59"/><polygon class="cls-15" points="1037.2 71.84 1037.2 85.59 1038.21 85.86 1054.93 88.46 1054.93 71.91 1054.93 71.84 1054.93 71.84 1037.2 71.84"/><path class="cls-16" d="M1472.2,270.84h17.73a40.43,40.43,0,0,0-37.18-37.14v3.84h-6.23V233.7a40.43,40.43,0,0,0-37.18,37.14h62.86Z" transform="translate(-435 -199)"/><polygon class="cls-17" points="1036.47 90.32 1061.39 93.32 1061.39 89.46 1055.09 88.48 1054.93 88.46 1038.21 85.86 1036.47 85.59 992.07 85.59 974.33 87.73 974.23 87.74 967.15 88.6 967.15 93.32 992.07 90.32 1036.47 90.32"/><path class="cls-15" d="M1427.07,289.32l-24.92,3v75.19h24.92Zm-6.45,68.22h-11.81V319.18a11.82,11.82,0,0,1,11.81-11.82Z" transform="translate(-435 -199)"/><path class="cls-14" d="M1464,364.94v2.57h7.52V289.32h-44.4v78.19h8.25v-2.57Zm-30.26-44.07a15.69,15.69,0,0,1,31.37,0v25.55a11.12,11.12,0,0,1-11.12,11.12h-9.13a11.12,11.12,0,0,1-11.12-11.12Z" transform="translate(-435 -199)"/><polygon class="cls-17" points="1000.32 168.51 992.07 168.51 967.15 168.51 961.06 168.51 961.06 176.15 963.24 176.15 1000.32 176.15 1000.32 168.51"/><polygon class="cls-17" points="1028.95 168.51 1028.95 176.15 1063.01 176.15 1067.69 176.15 1067.69 168.51 1061.39 168.51 1036.47 168.51 1028.95 168.51"/><polygon class="cls-18" points="1028.95 191.37 1063.01 206.44 1063.01 176.15 1028.95 176.15 1028.95 191.37"/><path class="cls-18" d="M1435.32,389.2V375.15h-37.08s1,29.81,0,30.26v.33l37.08-16.54Z" transform="translate(-435 -199)"/><polygon class="cls-19" points="1028.95 168.51 1028.95 165.94 1000.32 165.94 1000.32 168.51 1000.32 176.15 1000.32 190.2 1000.32 190.2 1013.27 184.42 1028.95 191.37 1028.95 176.15 1028.95 168.51"/><polygon class="cls-20" points="837.39 235.76 837.39 262.89 898.19 235.76 837.39 235.76"/><polygon class="cls-20" points="1028.95 191.37 1013.27 184.42 1000.32 190.2 963.24 206.74 898.19 235.76 837.39 262.89 719.67 315.41 729.98 315.41 1013.27 192.16 1123 239.95 1123 233 1063.01 206.44 1028.95 191.37"/><polygon class="cls-18" points="1013.27 192.16 729.98 315.41 740.43 315.41 740.58 315.41 1013.27 202.11 1123 247.71 1123 239.95 1013.27 192.16"/><polygon class="cls-19" points="755.47 480.87 755.47 484.42 755.47 573.25 755.47 576.79 757.48 576.79 757.48 581.66 770.65 581.66 770.65 576.79 772.66 576.79 772.66 573.25 772.66 484.42 772.66 480.87 770.65 480.87 770.65 476 757.48 476 757.48 480.87 755.47 480.87"/><polygon class="cls-19" points="772.66 695.67 772.66 692.12 772.66 603.29 772.66 599.75 770.65 599.75 770.65 594.88 757.48 594.88 757.48 599.75 755.47 599.75 755.47 603.29 755.47 692.12 755.47 695.67 757.48 695.67 757.48 700.54 770.65 700.54 770.65 695.67 772.66 695.67"/><path class="cls-19" d="M1222.55,679.87v95.92h2v4.87h45.83v-4.87h2V679.87h-2V675h-45.83v4.87Zm6.32,24.55a18.61,18.61,0,1,1,37.21,0v65.44h-37.21Z" transform="translate(-435 -199)"/><path class="cls-19" d="M1287.29,679.87v95.92h2v4.87h48.12v-4.87h2V679.87h-2V675h-48.12v4.87Zm7.6,24.55a18.61,18.61,0,1,1,37.21,0v65.44h-37.21Z" transform="translate(-435 -199)"/><path class="cls-19" d="M1354.31,679.87v95.92h2v4.87h48.12v-4.87h2V679.87h-2V675h-48.12v4.87Zm7.61,24.55a18.61,18.61,0,1,1,37.21,0v65.44h-37.21Z" transform="translate(-435 -199)"/><path class="cls-19" d="M1488.37,679.87v95.92h2v4.87h48.12v-4.87h2V679.87h-2V675h-48.12v4.87Zm7.6,24.55a18.61,18.61,0,1,1,37.21,0v65.44H1496Z" transform="translate(-435 -199)"/><polygon class="cls-19" points="1122.4 480.87 1120.39 480.87 1120.39 484.42 1120.39 573.25 1120.39 576.79 1122.4 576.79 1122.4 581.66 1123 581.66 1123 476 1122.4 476 1122.4 480.87"/><path class="cls-19" d="M1272.39,894.67V798.75h-2v-4.87h-45.83v4.87h-2v95.92h2v4.87h45.83v-4.87Zm-6.31-33.57h-37.21V821.52a18.61,18.61,0,1,1,37.21,0Z" transform="translate(-435 -199)"/><path class="cls-19" d="M1224.56,532.93h-2V651.75h2v4.87h-18.91v-4.87h2V532.93h-2v-4.87h-13.17v4.87h-2V651.75h2v4.87h-16.9v.16h94.81v-4.87h2V533.09h-2v-4.87h18.9v4.87h-2V651.91h2v4.87H1558V528.06H1224.56ZM1538.49,651.8h2V533h-2v-4.87h18.91V533h-2V651.8h2v4.87h-18.91ZM1495.83,583a18.61,18.61,0,1,1,37.21,0v65.44h-37.21Zm-24.36,68.84h2V533h-2v-4.87h18.9V533h-2V651.83h2v4.87h-18.9Zm-41.81-68.25c0-10,7.69-18.71,17.72-19.18A18.62,18.62,0,0,1,1466.87,583v65.38a.06.06,0,0,1,0,.06h-37.11a.06.06,0,0,1,0-.06Zm-25.22,68.28h2V533h-2v-4.87h18.91V533h-2V651.86h2v4.87h-18.91ZM1361.77,583a18.61,18.61,0,1,1,37.22,0v65.44h-37.22Zm-24.36,68.89h2V533.07h-2V528.2h18.91v4.87h-2V651.88h2v4.87h-18.91ZM1294.75,583a18.61,18.61,0,1,1,37.21,0v65.44h-37.21Zm-65.88.59c0-10,7.69-18.71,17.72-19.18A18.62,18.62,0,0,1,1266.08,583v65.38a.06.06,0,0,1-.06.06h-37.1a.06.06,0,0,1-.05-.06Z" transform="translate(-435 -199)"/><path class="cls-19" d="M1540.5,894.67V798.75h-2v-4.87h-48.12v4.87h-2v95.92h2v4.87h48.12v-4.87Zm-7.32-33.56H1496V821.52a18.61,18.61,0,1,1,37.21,0Z" transform="translate(-435 -199)"/><polygon class="cls-19" points="1122.4 599.75 1120.39 599.75 1120.39 603.29 1120.39 692.12 1120.39 695.67 1122.4 695.67 1122.4 700.54 1123 700.54 1123 594.88 1122.4 594.88 1122.4 599.75"/><path class="cls-19" d="M1473.47,894.67V798.75h-2v-4.87h-48.12v4.87h-2v95.92h2v4.87h48.12v-4.87Zm-6.45-1.78H1429.8V827.46a18.61,18.61,0,1,1,37.22,0Z" transform="translate(-435 -199)"/><path class="cls-19" d="M1339.42,894.67V798.75h-2v-4.87h-48.12v4.87h-2v95.92h2v4.87h48.12v-4.87Zm-7.32-1.78h-37.21V827.46a18.61,18.61,0,1,1,37.21,0Z" transform="translate(-435 -199)"/><path class="cls-19" d="M1406.45,894.67V798.75h-2v-4.87h-48.12v4.87h-2v95.92h2v4.87h48.12v-4.87Zm-7.32-33.56h-37.21V821.52a18.61,18.61,0,1,1,37.21,0Z" transform="translate(-435 -199)"/><path class="cls-19" d="M1421.34,679.87v95.92h2v4.87h48.12v-4.87h2V679.87h-2V675h-48.12v4.87Zm8.46,24.55a18.61,18.61,0,1,1,37.22,0v65.44H1429.8Z" transform="translate(-435 -199)"/><polygon class="cls-17" points="757.48 333.93 757.48 329.06 740.58 329.06 738.57 329.06 738.57 333.93 740.58 333.93 755.47 333.93 757.48 333.93"/><rect class="cls-21" x="740.58" y="337.48" width="14.89" height="111.73"/><rect class="cls-22" x="740.58" y="333.93" width="14.89" height="3.54"/><polygon class="cls-17" points="757.48 452.75 755.47 452.75 740.58 452.75 738.57 452.75 738.57 457.62 740.58 457.62 757.48 457.62 757.48 452.75"/><rect class="cls-22" x="740.58" y="449.2" width="14.89" height="3.54"/><polygon class="cls-17" points="772.66 333.93 787.55 333.93 789.56 333.93 789.56 329.06 770.65 329.06 770.65 333.93 772.66 333.93"/><rect class="cls-21" x="772.66" y="337.48" width="14.89" height="111.73"/><rect class="cls-22" x="772.66" y="333.93" width="14.89" height="3.54"/><polygon class="cls-17" points="770.65 452.75 770.65 457.62 789.56 457.62 789.56 452.75 787.55 452.75 772.66 452.75 770.65 452.75"/><rect class="cls-22" x="772.66" y="449.2" width="14.89" height="3.54"/><polygon class="cls-17" points="757.48 480.87 757.48 476 740.58 476 738.57 476 738.57 480.87 740.58 480.87 755.47 480.87 757.48 480.87"/><rect class="cls-21" x="740.58" y="484.42" width="14.89" height="88.83"/><rect class="cls-22" x="740.58" y="480.87" width="14.89" height="3.54"/><polygon class="cls-17" points="757.48 576.79 755.47 576.79 740.58 576.79 738.57 576.79 738.57 581.66 740.58 581.66 757.48 581.66 757.48 576.79"/><rect class="cls-22" x="740.58" y="573.25" width="14.89" height="3.54"/><polygon class="cls-17" points="772.66 480.87 787.55 480.87 789.56 480.87 789.56 476 770.65 476 770.65 480.87 772.66 480.87"/><rect class="cls-21" x="772.66" y="484.42" width="14.89" height="88.83"/><rect class="cls-22" x="772.66" y="480.87" width="14.89" height="3.54"/><polygon class="cls-17" points="787.55 576.79 772.66 576.79 770.65 576.79 770.65 581.66 789.56 581.66 789.56 576.79 787.55 576.79"/><rect class="cls-22" x="772.66" y="573.25" width="14.89" height="3.54"/><polygon class="cls-17" points="757.48 599.75 757.48 594.88 740.58 594.88 738.57 594.88 738.57 599.75 740.58 599.75 755.47 599.75 757.48 599.75"/><rect class="cls-21" x="740.58" y="603.29" width="14.89" height="88.83"/><rect class="cls-22" x="740.58" y="599.75" width="14.89" height="3.54"/><polygon class="cls-17" points="755.47 695.67 740.58 695.67 738.57 695.67 738.57 700.54 740.58 700.54 757.48 700.54 757.48 695.67 755.47 695.67"/><rect class="cls-22" x="740.58" y="692.12" width="14.89" height="3.54"/><polygon class="cls-17" points="772.66 599.75 787.55 599.75 789.56 599.75 789.56 594.88 770.65 594.88 770.65 599.75 772.66 599.75"/><rect class="cls-21" x="772.66" y="603.29" width="14.89" height="88.83"/><rect class="cls-22" x="772.66" y="599.75" width="14.89" height="3.54"/><polygon class="cls-17" points="787.55 695.67 772.66 695.67 770.65 695.67 770.65 700.54 789.56 700.54 789.56 695.67 787.55 695.67"/><rect class="cls-22" x="772.66" y="692.12" width="14.89" height="3.54"/><polygon class="cls-17" points="1122.4 333.99 1122.4 329.12 1103.49 329.12 1103.49 333.99 1105.5 333.99 1120.39 333.99 1122.4 333.99"/><rect class="cls-21" x="1105.5" y="337.53" width="14.89" height="111.73"/><rect class="cls-22" x="1105.5" y="333.99" width="14.89" height="3.54"/><polygon class="cls-17" points="1122.4 452.8 1120.39 452.8 1105.5 452.8 1103.49 452.8 1103.49 457.67 1122.4 457.67 1122.4 452.8"/><rect class="cls-22" x="1105.5" y="449.26" width="14.89" height="3.54"/><polygon class="cls-17" points="1055.37 334.01 1055.37 329.14 1036.47 329.14 1036.47 334.01 1038.47 334.01 1053.37 334.01 1055.37 334.01"/><rect class="cls-21" x="1038.47" y="337.56" width="14.89" height="111.73"/><rect class="cls-22" x="1038.47" y="334.01" width="14.89" height="3.54"/><polygon class="cls-17" points="1055.37 452.83 1053.37 452.83 1038.47 452.83 1036.47 452.83 1036.47 457.7 1055.37 457.7 1055.37 452.83"/><rect class="cls-22" x="1038.47" y="449.29" width="14.89" height="3.54"/><polygon class="cls-17" points="988.35 334.04 988.35 329.17 969.44 329.17 969.44 334.04 971.45 334.04 986.34 334.04 988.35 334.04"/><rect class="cls-21" x="971.45" y="337.58" width="14.89" height="111.73"/><rect class="cls-22" x="971.45" y="334.04" width="14.89" height="3.54"/><polygon class="cls-17" points="988.35 452.86 986.34 452.86 971.45 452.86 969.44 452.86 969.44 457.73 988.35 457.73 988.35 452.86"/><rect class="cls-22" x="971.45" y="449.31" width="14.89" height="3.54"/><polygon class="cls-17" points="921.32 334.07 921.32 329.2 902.41 329.2 902.41 334.07 904.42 334.07 919.31 334.07 921.32 334.07"/><rect class="cls-21" x="904.42" y="337.61" width="14.89" height="111.73"/><rect class="cls-22" x="904.42" y="334.07" width="14.89" height="3.54"/><polygon class="cls-17" points="921.32 452.88 919.31 452.88 904.42 452.88 902.41 452.88 902.41 457.75 921.32 457.75 921.32 452.88"/><rect class="cls-22" x="904.42" y="449.34" width="14.89" height="3.54"/><polygon class="cls-17" points="854.29 334.09 854.29 329.22 835.39 329.22 835.39 334.09 837.39 334.09 852.29 334.09 854.29 334.09"/><rect class="cls-21" x="837.39" y="337.64" width="14.89" height="111.73"/><rect class="cls-22" x="837.39" y="334.09" width="14.89" height="3.54"/><polygon class="cls-17" points="854.29 452.91 852.29 452.91 837.39 452.91 835.39 452.91 835.39 457.78 854.29 457.78 854.29 452.91"/><rect class="cls-22" x="837.39" y="449.37" width="14.89" height="3.54"/><polygon class="cls-17" points="837.39 480.87 852.29 480.87 854.29 480.87 854.29 476 835.39 476 835.39 480.87 837.39 480.87"/><rect class="cls-21" x="837.39" y="484.42" width="14.89" height="88.83"/><rect class="cls-22" x="837.39" y="480.87" width="14.89" height="3.54"/><polygon class="cls-17" points="852.29 576.79 837.39 576.79 835.39 576.79 835.39 581.66 854.29 581.66 854.29 576.79 852.29 576.79"/><rect class="cls-22" x="837.39" y="573.25" width="14.89" height="3.54"/><polygon class="cls-17" points="904.42 480.87 919.31 480.87 921.32 480.87 921.32 476 902.41 476 902.41 480.87 904.42 480.87"/><rect class="cls-21" x="904.42" y="484.42" width="14.89" height="88.83"/><rect class="cls-22" x="904.42" y="480.87" width="14.89" height="3.54"/><polygon class="cls-17" points="919.31 576.79 904.42 576.79 902.41 576.79 902.41 581.66 921.32 581.66 921.32 576.79 919.31 576.79"/><rect class="cls-22" x="904.42" y="573.25" width="14.89" height="3.54"/><polygon class="cls-17" points="971.45 480.87 986.34 480.87 988.35 480.87 988.35 476 969.44 476 969.44 480.87 971.45 480.87"/><rect class="cls-21" x="971.45" y="484.42" width="14.89" height="88.83"/><rect class="cls-22" x="971.45" y="480.87" width="14.89" height="3.54"/><polygon class="cls-17" points="986.34 576.79 971.45 576.79 969.44 576.79 969.44 581.66 988.35 581.66 988.35 576.79 986.34 576.79"/><rect class="cls-22" x="971.45" y="573.25" width="14.89" height="3.54"/><polygon class="cls-17" points="1038.47 480.87 1053.37 480.87 1055.37 480.87 1055.37 476 1036.47 476 1036.47 480.87 1038.47 480.87"/><rect class="cls-21" x="1038.47" y="484.42" width="14.89" height="88.83"/><rect class="cls-22" x="1038.47" y="480.87" width="14.89" height="3.54"/><polygon class="cls-17" points="1053.37 576.79 1038.47 576.79 1036.47 576.79 1036.47 581.66 1055.37 581.66 1055.37 576.79 1053.37 576.79"/><rect class="cls-22" x="1038.47" y="573.25" width="14.89" height="3.54"/><polygon class="cls-17" points="1105.5 480.87 1120.39 480.87 1122.4 480.87 1122.4 476 1103.49 476 1103.49 480.87 1105.5 480.87"/><rect class="cls-21" x="1105.5" y="484.42" width="14.89" height="88.83"/><rect class="cls-22" x="1105.5" y="480.87" width="14.89" height="3.54"/><polygon class="cls-17" points="1103.49 576.79 1103.49 581.66 1122.4 581.66 1122.4 576.79 1120.39 576.79 1105.5 576.79 1103.49 576.79"/><rect class="cls-22" x="1105.5" y="573.25" width="14.89" height="3.54"/><polygon class="cls-17" points="837.39 599.75 852.29 599.75 854.29 599.75 854.29 594.88 835.39 594.88 835.39 599.75 837.39 599.75"/><rect class="cls-21" x="837.39" y="603.29" width="14.89" height="88.83"/><rect class="cls-22" x="837.39" y="599.75" width="14.89" height="3.54"/><polygon class="cls-17" points="852.29 695.67 837.39 695.67 835.39 695.67 835.39 700.54 854.29 700.54 854.29 695.67 852.29 695.67"/><rect class="cls-22" x="837.39" y="692.12" width="14.89" height="3.54"/><polygon class="cls-17" points="904.42 599.75 919.31 599.75 921.32 599.75 921.32 594.88 902.41 594.88 902.41 599.75 904.42 599.75"/><rect class="cls-21" x="904.42" y="603.29" width="14.89" height="88.83"/><rect class="cls-22" x="904.42" y="599.75" width="14.89" height="3.54"/><polygon class="cls-17" points="919.31 695.67 904.42 695.67 902.41 695.67 902.41 700.54 921.32 700.54 921.32 695.67 919.31 695.67"/><rect class="cls-22" x="904.42" y="692.12" width="14.89" height="3.54"/><polygon class="cls-17" points="971.45 599.75 986.34 599.75 988.35 599.75 988.35 594.88 969.44 594.88 969.44 599.75 971.45 599.75"/><rect class="cls-21" x="971.45" y="603.29" width="14.89" height="88.83"/><rect class="cls-22" x="971.45" y="599.75" width="14.89" height="3.54"/><polygon class="cls-17" points="986.34 695.67 971.45 695.67 969.44 695.67 969.44 700.54 988.35 700.54 988.35 695.67 986.34 695.67"/><rect class="cls-22" x="971.45" y="692.12" width="14.89" height="3.54"/><polygon class="cls-17" points="1038.47 599.75 1053.37 599.75 1055.37 599.75 1055.37 594.88 1036.47 594.88 1036.47 599.75 1038.47 599.75"/><rect class="cls-21" x="1038.47" y="603.29" width="14.89" height="88.83"/><rect class="cls-22" x="1038.47" y="599.75" width="14.89" height="3.54"/><polygon class="cls-17" points="1053.37 695.67 1038.47 695.67 1036.47 695.67 1036.47 700.54 1055.37 700.54 1055.37 695.67 1053.37 695.67"/><rect class="cls-22" x="1038.47" y="692.12" width="14.89" height="3.54"/><polygon class="cls-17" points="1105.5 599.75 1120.39 599.75 1122.4 599.75 1122.4 594.88 1103.49 594.88 1103.49 599.75 1105.5 599.75"/><rect class="cls-21" x="1105.5" y="603.29" width="14.89" height="88.83"/><rect class="cls-22" x="1105.5" y="599.75" width="14.89" height="3.54"/><polygon class="cls-17" points="1120.39 695.67 1105.5 695.67 1103.49 695.67 1103.49 700.54 1122.4 700.54 1122.4 695.67 1120.39 695.67"/><rect class="cls-22" x="1105.5" y="692.12" width="14.89" height="3.54"/><polygon class="cls-18" points="835.39 457.78 740.58 457.78 740.58 476 757.48 476 770.65 476 789.56 476 835.39 476 854.29 476 902.41 476 921.32 476 969.44 476 988.35 476 1036.47 476 1055.37 476 1103.49 476 1122.4 476 1123 476 1123 457.78 854.29 457.78 835.39 457.78"/><polygon class="cls-18" points="1103.49 581.66 1055.37 581.66 1036.47 581.66 988.35 581.66 969.44 581.66 921.32 581.66 902.41 581.66 854.29 581.66 835.39 581.66 789.56 581.66 770.65 581.66 757.48 581.66 740.58 581.66 740.58 594.88 757.48 594.88 770.65 594.88 789.56 594.88 835.39 594.88 854.29 594.88 902.41 594.88 921.32 594.88 969.44 594.88 988.35 594.88 1036.47 594.88 1055.37 594.88 1103.49 594.88 1122.4 594.88 1123 594.88 1123 581.66 1122.4 581.66 1103.49 581.66"/><polygon class="cls-18" points="917.75 315.41 740.58 315.41 740.43 315.41 740.43 328.62 1123 328.62 1123 315.41 1108.78 315.41 917.75 315.41"/><path class="cls-19" d="M1448.27,401.11l-272.69,113.3h177.17a97.2,97.2,0,0,1,191,0H1558v-67.7ZM1313.5,509.3a17.62,17.62,0,1,1,17.61-17.62A17.61,17.61,0,0,1,1313.5,509.3Z" transform="translate(-435 -199)"/><path class="cls-14" d="M1448.27,435.21a97.22,97.22,0,0,0-95.52,79.2h191A97.21,97.21,0,0,0,1448.27,435.21Z" transform="translate(-435 -199)"/><circle class="cls-20" cx="878.5" cy="292.68" r="17.61"/><path class="cls-23" d="M1266,648.43a.06.06,0,0,0,.06-.06V583a18.62,18.62,0,0,0-19.49-18.59c-10,.47-17.72,9.14-17.72,19.18v64.79a.06.06,0,0,0,.05.06ZM1231.79,583a15.69,15.69,0,1,1,31.37,0v51.39A11.12,11.12,0,0,1,1252,645.5h-9.13a11.12,11.12,0,0,1-11.12-11.12Z" transform="translate(-435 -199)"/><path class="cls-20" d="M1242.91,645.5H1252a11.12,11.12,0,0,0,11.12-11.12V583a15.69,15.69,0,1,0-31.37,0v51.39A11.12,11.12,0,0,0,1242.91,645.5Z" transform="translate(-435 -199)"/><path class="cls-23" d="M1332,583a18.61,18.61,0,1,0-37.21,0v65.44H1332ZM1329,634.38a11.12,11.12,0,0,1-11.12,11.12h-9.13a11.12,11.12,0,0,1-11.12-11.12V583a15.69,15.69,0,1,1,31.37,0Z" transform="translate(-435 -199)"/><path class="cls-20" d="M1313.35,567.3A15.69,15.69,0,0,0,1297.67,583v51.39a11.12,11.12,0,0,0,11.12,11.12h9.13A11.12,11.12,0,0,0,1329,634.38V583A15.69,15.69,0,0,0,1313.35,567.3Z" transform="translate(-435 -199)"/><path class="cls-23" d="M1399,583a18.61,18.61,0,1,0-37.22,0v65.44H1399Zm-2.93,51.39a11.12,11.12,0,0,1-11.12,11.12h-9.12a11.12,11.12,0,0,1-11.12-11.12V583a15.68,15.68,0,1,1,31.36,0Z" transform="translate(-435 -199)"/><path class="cls-20" d="M1380.38,567.3A15.69,15.69,0,0,0,1364.7,583v51.39a11.12,11.12,0,0,0,11.12,11.12h9.12a11.12,11.12,0,0,0,11.12-11.12V583A15.69,15.69,0,0,0,1380.38,567.3Z" transform="translate(-435 -199)"/><path class="cls-23" d="M1466.82,648.43a.06.06,0,0,0,0-.06V583a18.62,18.62,0,0,0-19.49-18.59c-10,.47-17.72,9.14-17.72,19.18v64.79a.06.06,0,0,0,0,.06ZM1432.58,583a15.69,15.69,0,1,1,31.37,0v51.39a11.12,11.12,0,0,1-11.12,11.12h-9.13a11.12,11.12,0,0,1-11.12-11.12Z" transform="translate(-435 -199)"/><path class="cls-20" d="M1443.7,645.5h9.13A11.12,11.12,0,0,0,1464,634.38V583a15.69,15.69,0,1,0-31.37,0v51.39A11.12,11.12,0,0,0,1443.7,645.5Z" transform="translate(-435 -199)"/><path class="cls-23" d="M1533,583a18.61,18.61,0,1,0-37.21,0v65.44H1533Zm-2.92,51.39A11.12,11.12,0,0,1,1519,645.5h-9.13a11.12,11.12,0,0,1-11.12-11.12V583a15.69,15.69,0,0,1,15.68-15.69h0A15.7,15.7,0,0,1,1530.12,583Z" transform="translate(-435 -199)"/><path class="cls-20" d="M1514.43,567.3h0A15.69,15.69,0,0,0,1498.75,583v51.39a11.12,11.12,0,0,0,11.12,11.12H1519a11.12,11.12,0,0,0,11.12-11.12V583A15.7,15.7,0,0,0,1514.43,567.3Z" transform="translate(-435 -199)"/><path class="cls-23" d="M1332.1,704.42a18.61,18.61,0,1,0-37.21,0v65.44h37.21Zm-2.92,51.39a11.12,11.12,0,0,1-11.12,11.12h-9.13a11.12,11.12,0,0,1-11.12-11.12V704.42a15.69,15.69,0,0,1,15.69-15.68h0a15.68,15.68,0,0,1,15.68,15.68Z" transform="translate(-435 -199)"/><path class="cls-20" d="M1313.5,688.74h0a15.69,15.69,0,0,0-15.69,15.68v51.39a11.12,11.12,0,0,0,11.12,11.12h9.13a11.12,11.12,0,0,0,11.12-11.12V704.42A15.68,15.68,0,0,0,1313.5,688.74Z" transform="translate(-435 -199)"/><path class="cls-23" d="M1399.13,704.42a18.61,18.61,0,1,0-37.21,0v65.44h37.21Zm-2.92,51.39a11.12,11.12,0,0,1-11.12,11.12H1376a11.12,11.12,0,0,1-11.12-11.12V704.42a15.68,15.68,0,0,1,15.68-15.68h0a15.69,15.69,0,0,1,15.69,15.68Z" transform="translate(-435 -199)"/><path class="cls-20" d="M1380.52,688.74h0a15.68,15.68,0,0,0-15.68,15.68v51.39A11.12,11.12,0,0,0,1376,766.93h9.13a11.12,11.12,0,0,0,11.12-11.12V704.42A15.69,15.69,0,0,0,1380.52,688.74Z" transform="translate(-435 -199)"/><path class="cls-23" d="M1467,704.42a18.61,18.61,0,1,0-37.22,0v65.44H1467Zm-2.93,51.39A11.12,11.12,0,0,1,1453,766.93h-9.12a11.12,11.12,0,0,1-11.12-11.12V704.42a15.68,15.68,0,0,1,15.68-15.68h0a15.68,15.68,0,0,1,15.68,15.68Z" transform="translate(-435 -199)"/><path class="cls-20" d="M1448.41,688.74h0a15.68,15.68,0,0,0-15.68,15.68v51.39a11.12,11.12,0,0,0,11.12,11.12H1453a11.12,11.12,0,0,0,11.12-11.12V704.42A15.68,15.68,0,0,0,1448.41,688.74Z" transform="translate(-435 -199)"/><path class="cls-23" d="M1533.18,704.42a18.61,18.61,0,1,0-37.21,0v65.44h37.21Zm-2.92,51.39a11.12,11.12,0,0,1-11.12,11.12H1510a11.12,11.12,0,0,1-11.12-11.12V704.42a15.69,15.69,0,0,1,31.37,0Z" transform="translate(-435 -199)"/><path class="cls-20" d="M1514.58,688.74a15.69,15.69,0,0,0-15.69,15.68v51.39A11.12,11.12,0,0,0,1510,766.93h9.13a11.12,11.12,0,0,0,11.12-11.12V704.42A15.68,15.68,0,0,0,1514.58,688.74Z" transform="translate(-435 -199)"/><path class="cls-23" d="M1313.5,808.85a18.63,18.63,0,0,0-18.61,18.61v65.43h37.21V827.46A18.62,18.62,0,0,0,1313.5,808.85Zm15.68,70A11.12,11.12,0,0,1,1318.06,890h-9.13a11.12,11.12,0,0,1-11.12-11.12V827.46a15.69,15.69,0,0,1,15.69-15.69h0a15.68,15.68,0,0,1,15.68,15.69Z" transform="translate(-435 -199)"/><path class="cls-20" d="M1313.5,811.77h0a15.69,15.69,0,0,0-15.69,15.69v51.39A11.12,11.12,0,0,0,1308.93,890h9.13a11.12,11.12,0,0,0,11.12-11.12V827.46A15.68,15.68,0,0,0,1313.5,811.77Z" transform="translate(-435 -199)"/><path class="cls-23" d="M1448.41,808.85a18.63,18.63,0,0,0-18.61,18.61v65.43H1467V827.46A18.63,18.63,0,0,0,1448.41,808.85Zm15.68,70A11.12,11.12,0,0,1,1453,890h-9.12a11.12,11.12,0,0,1-11.12-11.12V827.46a15.68,15.68,0,0,1,15.68-15.69h0a15.68,15.68,0,0,1,15.68,15.69Z" transform="translate(-435 -199)"/><path class="cls-20" d="M1448.41,811.77h0a15.68,15.68,0,0,0-15.68,15.69v51.39A11.12,11.12,0,0,0,1443.85,890H1453a11.12,11.12,0,0,0,11.12-11.12V827.46A15.68,15.68,0,0,0,1448.41,811.77Z" transform="translate(-435 -199)"/><path class="cls-23" d="M1266.08,704.42a18.61,18.61,0,1,0-37.21,0v65.44h37.21Zm-2.92,51.39A11.12,11.12,0,0,1,1252,766.93h-9.13a11.12,11.12,0,0,1-11.12-11.12V704.42a15.69,15.69,0,0,1,31.37,0Z" transform="translate(-435 -199)"/><path class="cls-20" d="M1247.47,688.74a15.68,15.68,0,0,0-15.68,15.68v51.39a11.12,11.12,0,0,0,11.12,11.12H1252a11.12,11.12,0,0,0,11.12-11.12V704.42A15.69,15.69,0,0,0,1247.47,688.74Z" transform="translate(-435 -199)"/><path class="cls-23" d="M1247.47,802.91a18.62,18.62,0,0,0-18.6,18.61V861.1h37.21V821.52A18.63,18.63,0,0,0,1247.47,802.91Zm15.69,44.15A11.12,11.12,0,0,1,1252,858.18h-9.13a11.12,11.12,0,0,1-11.12-11.12V821.52a15.69,15.69,0,1,1,31.37,0Z" transform="translate(-435 -199)"/><path class="cls-20" d="M1247.47,805.83a15.69,15.69,0,0,0-15.68,15.69v25.54a11.12,11.12,0,0,0,11.12,11.12H1252a11.12,11.12,0,0,0,11.12-11.12V821.52A15.7,15.7,0,0,0,1247.47,805.83Z" transform="translate(-435 -199)"/><path class="cls-23" d="M1380.52,802.91a18.62,18.62,0,0,0-18.6,18.61v39.59h37.21V821.52A18.63,18.63,0,0,0,1380.52,802.91Zm15.69,44.15a11.12,11.12,0,0,1-11.12,11.12H1376a11.12,11.12,0,0,1-11.12-11.12V821.52a15.68,15.68,0,0,1,15.68-15.68h0a15.69,15.69,0,0,1,15.69,15.68Z" transform="translate(-435 -199)"/><path class="cls-20" d="M1380.52,805.84h0a15.68,15.68,0,0,0-15.68,15.68v25.54A11.12,11.12,0,0,0,1376,858.18h9.13a11.12,11.12,0,0,0,11.12-11.12V821.52A15.69,15.69,0,0,0,1380.52,805.84Z" transform="translate(-435 -199)"/><path class="cls-20" d="M1444.81,357.54h9.13a11.12,11.12,0,0,0,11.12-11.12V320.87a15.69,15.69,0,0,0-31.37,0v25.55A11.12,11.12,0,0,0,1444.81,357.54Z" transform="translate(-435 -199)"/><path class="cls-23" d="M1514.58,802.91A18.63,18.63,0,0,0,1496,821.52v39.59h37.21V821.52A18.62,18.62,0,0,0,1514.58,802.91Zm15.68,44.15a11.12,11.12,0,0,1-11.12,11.12H1510a11.12,11.12,0,0,1-11.12-11.12V821.52a15.69,15.69,0,0,1,31.37,0Z" transform="translate(-435 -199)"/><path class="cls-20" d="M1514.58,805.84a15.69,15.69,0,0,0-15.69,15.68v25.54A11.12,11.12,0,0,0,1510,858.18h9.13a11.12,11.12,0,0,0,11.12-11.12V821.52A15.68,15.68,0,0,0,1514.58,805.84Z" transform="translate(-435 -199)"/><path class="cls-20" d="M1408.81,319.18v38.36h11.81V307.36A11.82,11.82,0,0,0,1408.81,319.18Z" transform="translate(-435 -199)"/><path class="cls-15" d="M1471.47,367.51h24.92V292.32l-24.92-3Zm18.26-10h-11.82V307.36a11.82,11.82,0,0,1,11.82,11.82Z" transform="translate(-435 -199)"/><path class="cls-20" d="M1477.91,307.36v50.18h11.82V319.18A11.82,11.82,0,0,0,1477.91,307.36Z" transform="translate(-435 -199)"/><polygon class="cls-16" points="1017.75 38.54 1017.75 34.7 1017.75 19.85 1011.52 19.85 1011.52 34.7 1011.52 38.54 1017.75 38.54"/></svg>