<svg id="Layer_1" data-name="Layer 1" xmlns="http://www.w3.org/2000/svg" xmlns:xlink="http://www.w3.org/1999/xlink" viewBox="0 0 988.25 125.18"><defs><style>.cls-1{fill:url(#linear-gradient);}.cls-2{fill:url(#linear-gradient-2);}</style><linearGradient id="linear-gradient" x1="-1725.43" y1="533.25" x2="-1725.43" y2="155.18" gradientTransform="matrix(-1, 0, 0, 1, -1771.69, 0)" gradientUnits="userSpaceOnUse"><stop offset="0" stop-color="#9dca7d"/><stop offset="0.22" stop-color="#c8d286"/><stop offset="0.44" stop-color="#f0d98e"/><stop offset="0.56" stop-color="#ffdc91"/><stop offset="0.71" stop-color="#ffe298"/><stop offset="0.93" stop-color="#fdf1ad"/><stop offset="1" stop-color="#fdf7b4"/></linearGradient><linearGradient id="linear-gradient-2" x1="-2419.53" y1="464.3" x2="-2419.53" y2="282.79" xlink:href="#linear-gradient"/></defs><title>cloud-13</title><path class="cls-1" d="M-245,410.59A65.67,65.67,0,0,1-179.31,345a65.42,65.42,0,0,1,35,10.06,26.16,26.16,0,0,1,10.06-2.22,46.4,46.4,0,0,1,45.83-39.14,46.2,46.2,0,0,1,18.72,3.95A46.41,46.41,0,0,1-25.85,286.3a46.41,46.41,0,0,1,45.32,36.42,45.55,45.55,0,0,1,51.31,9.75,18.16,18.16,0,0,1,29.15,14.46c0,.22,0,.44,0,.66a59.25,59.25,0,0,1,52.56,58.86c0,1.63-.06,3.24-.19,4.83l.19.2H-245c0-.28,0-.56,0-.84Z" transform="translate(244.99 -286.3)"/><path class="cls-2" d="M552.43,405.41a31.55,31.55,0,0,1,48.32-26.67,12.72,12.72,0,0,1,4.83-1.07,22.29,22.29,0,0,1,31-16.89,22.28,22.28,0,0,1,42.83,2.45A21.84,21.84,0,0,1,704,367.91a8.72,8.72,0,0,1,14,6.94c0,.11,0,.21,0,.32a28.44,28.44,0,0,1,25.24,28.25c0,.79,0,1.56-.1,2.32l.1.1H552.43v-.43Z" transform="translate(244.99 -286.3)"/></svg>