<svg id="Layer_1" data-name="Layer 1" xmlns="http://www.w3.org/2000/svg" viewBox="0 0 366.14 56.48"><defs><style>.cls-1{fill:#fff;}</style></defs><title>cloud-03</title><path class="cls-1" d="M356.57,232.52l14.84-.05s1.1-1.76-2.24-2c-2.46-.19-2.26-.64-3.63-1.06s-3.49-1-5,1.21c-.31.46-.26-1-1.66-1C357.12,229.56,355.75,231.15,356.57,232.52Z" transform="translate(-114.57 -191.93)"/><path class="cls-1" d="M175.31,200.4l-60-.1s-4.42-4.24,9.07-4.87c10-.47,9.13-1.54,14.7-2.54s14.09-2.44,20.25,2.91c1.25,1.08,1-2.49,6.73-2.49C173.08,193.31,178.61,197.12,175.31,200.4Z" transform="translate(-114.57 -191.93)"/><path class="cls-1" d="M458.18,248.41l22.27-.07s1.64-2.64-3.36-3c-3.69-.3-3.39-1-5.45-1.59s-5.23-1.53-7.52,1.82c-.46.68-.38-1.56-2.49-1.56C459,244,457,246.36,458.18,248.41Z" transform="translate(-114.57 -191.93)"/></svg>