<svg id="Layer_1" data-name="Layer 1" xmlns="http://www.w3.org/2000/svg" viewBox="0 0 466.53 228.63"><defs><style>.cls-1{fill:#fff;}</style></defs><title>cloud-15</title><path class="cls-1" d="M527.7,381.81H480.1c-4.67,0-8.49-3.12-8.49-6.92s3.82-6.91,8.49-6.91h35c3.65,0,6.64-2.44,6.64-5.41s-3-5.41-6.64-5.41H329.93c-3.65,0-6.64,2.43-6.64,5.41s3,5.41,6.64,5.41h55c4.67,0,8.49,3.11,8.49,6.91s-3.82,6.92-8.49,6.92H308.53c-4.06,0-7.38,2.7-7.38,6s3.32,6,7.38,6H527.7c4,0,7.37-2.71,7.37-6S531.75,381.81,527.7,381.81Z" transform="translate(-68.54 -357.16)"/><path class="cls-1" d="M295.09,573.76h-47.6c-4.67,0-8.48-3.11-8.48-6.92s3.81-6.91,8.48-6.91h35.05c3.66,0,6.65-2.44,6.65-5.41s-3-5.41-6.65-5.41H97.32c-3.65,0-6.64,2.43-6.64,5.41s3,5.41,6.64,5.41h55c4.67,0,8.48,3.11,8.48,6.91s-3.81,6.92-8.48,6.92H75.92c-4.06,0-7.38,2.7-7.38,6s3.32,6,7.38,6H295.09c4.06,0,7.38-2.7,7.38-6S299.15,573.76,295.09,573.76Z" transform="translate(-68.54 -357.16)"/></svg>