<svg id="Layer_1" data-name="Layer 1" xmlns="http://www.w3.org/2000/svg" xmlns:xlink="http://www.w3.org/1999/xlink" viewBox="0 0 1091.12 49.14"><defs><style>.cls-1{fill:url(#linear-gradient);}.cls-2{fill:url(#linear-gradient-2);}</style><linearGradient id="linear-gradient" x1="-248.18" y1="164.7" x2="-128.74" y2="164.7" gradientUnits="userSpaceOnUse"><stop offset="0" stop-color="#f3b07d"/><stop offset="1" stop-color="#a6a5d2"/></linearGradient><linearGradient id="linear-gradient-2" x1="723.5" y1="172.86" x2="842.94" y2="172.86" xlink:href="#linear-gradient"/></defs><title>cloud-12</title><path class="cls-1" d="M-128.74,184.93a19.74,19.74,0,0,0-19.74-19.72,19.6,19.6,0,0,0-10.5,3,7.84,7.84,0,0,0-3-.67,14,14,0,0,0-13.77-11.76A13.88,13.88,0,0,0-181.4,157c-1.88-5.48-4.06-10.38-11.78-12.31a14.1,14.1,0,0,0-17.37,10.61c-1.71-.78-1.27,2-3.27,2a13.67,13.67,0,0,0-9.81,4.14,5.41,5.41,0,0,0-3.3-1.12,5.47,5.47,0,0,0-5.46,5.46c0,.07,0,.13,0,.2a17.8,17.8,0,0,0-15.8,17.69c0,.48,0,1,.06,1.45l-.06.06h119.44v-.27Z" transform="translate(248.18 -144.21)"/><path class="cls-2" d="M842.94,193.09a19.75,19.75,0,0,0-30.24-16.7,8,8,0,0,0-3-.66,14,14,0,0,0-19.4-10.58c-1.88-5.47-4.06-10.38-11.78-12.31a14.1,14.1,0,0,0-17.37,10.61c-1.71-.77-1.27,2-3.27,2a13.62,13.62,0,0,0-9.8,4.13,5.47,5.47,0,0,0-8.77,4.35c0,.06,0,.13,0,.2a17.79,17.79,0,0,0-15.8,17.68c0,.49,0,1,.06,1.45l-.06.06H842.94v-.25Z" transform="translate(248.18 -144.21)"/></svg>