<svg id="Layer_1" data-name="Layer 1" xmlns="http://www.w3.org/2000/svg" viewBox="0 0 1132.91 399.56"><defs><style>.cls-1{fill:#fff;}</style></defs><title>cloud-11</title><path class="cls-1" d="M-71.17,369.08a32.71,32.71,0,0,0-32.71-32.67,32.59,32.59,0,0,0-17.4,5,13.09,13.09,0,0,0-5-1.11,23.1,23.1,0,0,0-22.82-19.48,23,23,0,0,0-9.32,2c-3.11-9.07-6.73-17.19-19.52-20.39-15.51-3.87-26.5,7.21-28.77,17.58-2.84-1.28-2.11,3.35-5.43,3.35a22.6,22.6,0,0,0-16.24,6.86,9,9,0,0,0-5.47-1.85,9,9,0,0,0-9,9.05c0,.11,0,.21,0,.32A29.51,29.51,0,0,0-269.07,367c0,.81,0,1.61.1,2.4l-.1.1H-71.18c0-.14,0-.28,0-.41Z" transform="translate(269.07 30.04)"/><path class="cls-1" d="M863.84,52.64a40.09,40.09,0,0,0-61.41-33.89,15.69,15.69,0,0,0-6.13-1.36A28.31,28.31,0,0,0,756.91-4.08c-3.82-11.12-8.25-21.07-23.92-25-19-4.75-32.48,8.83-35.26,21.54-3.48-1.57-2.59,4.11-6.65,4.11A27.69,27.69,0,0,0,671.18,5a11.08,11.08,0,0,0-17.79,8.82c0,.13,0,.27,0,.4a36.15,36.15,0,0,0-32.07,35.91c0,1,0,2,.12,3a1.36,1.36,0,0,0-.12.12h242.5c0-.17,0-.34,0-.51Z" transform="translate(269.07 30.04)"/></svg>