<svg id="Layer_1" data-name="Layer 1" xmlns="http://www.w3.org/2000/svg" xmlns:xlink="http://www.w3.org/1999/xlink" viewBox="0 0 962.19 695.03"><defs><style>.cls-1{opacity:0.74;}.cls-2{fill:url(#linear-gradient);}.cls-3{fill:url(#linear-gradient-2);}.cls-4{fill:url(#linear-gradient-3);}.cls-5{fill:url(#linear-gradient-4);}</style><linearGradient id="linear-gradient" x1="-1711.45" y1="44.08" x2="-1711.45" y2="-139.25" gradientTransform="matrix(-1, 0, 0, 1, -982.61, 0)" gradientUnits="userSpaceOnUse"><stop offset="0" stop-color="#9dca7d"/><stop offset="0.22" stop-color="#c8d286"/><stop offset="0.44" stop-color="#f0d98e"/><stop offset="0.56" stop-color="#ffdc91"/><stop offset="0.71" stop-color="#ffe298"/><stop offset="0.93" stop-color="#fdf1ad"/><stop offset="1" stop-color="#fdf7b4"/></linearGradient><linearGradient id="linear-gradient-2" x1="-136.99" y1="-83.1" x2="123.32" y2="-83.1" gradientTransform="matrix(1, 0, 0, 1, 0, 0)" xlink:href="#linear-gradient"/><linearGradient id="linear-gradient-3" x1="410.15" y1="414.85" x2="410.15" y2="-225.08" gradientTransform="matrix(1, 0, 0, 1, 0, 0)" xlink:href="#linear-gradient"/><linearGradient id="linear-gradient-4" x1="-1240.25" y1="720.06" x2="-1240.25" y2="245.67" xlink:href="#linear-gradient"/></defs><title>cloud-07</title><g class="cls-1"><path class="cls-2" d="M632.47-15.4a31.84,31.84,0,0,1,31.85-31.81,31.72,31.72,0,0,1,16.95,4.88,12.56,12.56,0,0,1,4.87-1.08,22.51,22.51,0,0,1,22.23-19,22.54,22.54,0,0,1,9.08,1.91,22.51,22.51,0,0,1,21.28-15.19A22.51,22.51,0,0,1,760.7-58a22,22,0,0,1,9.07-2,22,22,0,0,1,15.81,6.67,8.81,8.81,0,0,1,5.33-1.79,8.8,8.8,0,0,1,8.81,8.8c0,.11,0,.22,0,.32A28.74,28.74,0,0,1,825.2-17.41c0,.79,0,1.57-.1,2.35l.1.09H632.47v-.43Z" transform="translate(136.99 127.76)"/></g><g class="cls-1"><path class="cls-3" d="M123.32-39a43,43,0,0,0-43-43A42.84,42.84,0,0,0,57.41-75.4a17.24,17.24,0,0,0-6.59-1.46,30.38,30.38,0,0,0-30-25.62A30.23,30.23,0,0,0,8.54-99.9c-4.09-11.94-8.85-22.62-25.67-26.82C-37.53-131.82-52-117.24-55-103.6c-3.74-1.68-2.77,4.41-7.14,4.41a29.74,29.74,0,0,0-21.36,9,11.84,11.84,0,0,0-7.19-2.42,11.89,11.89,0,0,0-11.9,11.89c0,.15,0,.29,0,.43A38.81,38.81,0,0,0-137-41.73c0,1.06.05,2.12.13,3.16a1.59,1.59,0,0,1-.13.13h260.3c0-.18,0-.36,0-.55Z" transform="translate(136.99 127.76)"/></g><g class="cls-1"><path class="cls-4" d="M746.54,207.23a111.21,111.21,0,0,0-170.35-94,44.32,44.32,0,0,0-17-3.77A78.57,78.57,0,0,0,449.9,49.88a78.55,78.55,0,0,0-151,8.63A77.09,77.09,0,0,0,212.06,75a30.74,30.74,0,0,0-49.35,24.48c0,.37,0,.74,0,1.11a100.29,100.29,0,0,0-89,99.62q0,4.14.33,8.19l-.33.33H746.52c0-.48,0-1,0-1.42Z" transform="translate(136.99 127.76)"/></g><g class="cls-1"><path class="cls-5" d="M8.27,566.15a82.43,82.43,0,0,1,126.28-69.7,32.77,32.77,0,0,1,12.62-2.79,58.2,58.2,0,0,1,81-44.15,58.23,58.23,0,0,1,111.94,6.39,57.17,57.17,0,0,1,64.38,12.23,22.8,22.8,0,0,1,36.58,18.15c0,.27,0,.55,0,.82A74.36,74.36,0,0,1,507,561q0,3.06-.25,6.06l.25.25H8.28c0-.35,0-.7,0-1Z" transform="translate(136.99 127.76)"/></g></svg>