<svg id="Layer_1" data-name="Layer 1" xmlns="http://www.w3.org/2000/svg" viewBox="0 0 1889.14 348.75"><defs><style>.cls-1,.cls-2{fill:#fff;}.cls-1{opacity:0.51;}.cls-2{opacity:0.86;}</style></defs><title>cloud-10</title><path class="cls-1" d="M862.13,199.53H792.31c-6.85,0-12.45-4.57-12.45-10.15s5.6-10.14,12.45-10.14h51.42c5.36,0,9.74-3.57,9.74-7.94s-4.38-7.94-9.74-7.94H572c-5.36,0-9.74,3.58-9.74,7.94s4.38,7.94,9.74,7.94h80.65c6.85,0,12.45,4.56,12.45,10.14s-5.6,10.15-12.45,10.15h-112c-6,0-10.83,4-10.83,8.81s4.87,8.82,10.83,8.82H862.13c6,0,10.83-4,10.83-8.82S868.08,199.53,862.13,199.53Z" transform="translate(647.19 6.53)"/><path class="cls-1" d="M1236.36,333.12h-36c-3.54,0-6.43-2.36-6.43-5.24s2.89-5.24,6.43-5.24h26.55c2.77,0,5-1.84,5-4.09s-2.26-4.1-5-4.1H1086.55c-2.77,0-5,1.84-5,4.1s2.27,4.09,5,4.09h41.64c3.54,0,6.43,2.36,6.43,5.24s-2.89,5.24-6.43,5.24h-57.86c-3.07,0-5.59,2.05-5.59,4.55s2.52,4.56,5.59,4.56h166c3.08,0,5.59-2.05,5.59-4.56S1239.44,333.12,1236.36,333.12Z" transform="translate(647.19 6.53)"/><path class="cls-1" d="M480.94,319.23H444.88c-3.53,0-6.43-2.36-6.43-5.24s2.9-5.24,6.43-5.24h26.56c2.76,0,5-1.84,5-4.1s-2.27-4.09-5-4.09H331.12c-2.76,0-5,1.84-5,4.09s2.27,4.1,5,4.1h41.65c3.54,0,6.43,2.36,6.43,5.24s-2.89,5.24-6.43,5.24H314.91c-3.07,0-5.59,2-5.59,4.55s2.52,4.56,5.59,4.56h166c3.07,0,5.59-2,5.59-4.56S484,319.23,480.94,319.23Z" transform="translate(647.19 6.53)"/><path class="cls-2" d="M-314.85,29.63h-69.82c-6.85,0-12.45-4.56-12.45-10.14s5.6-10.14,12.45-10.14h51.42c5.36,0,9.74-3.57,9.74-7.94s-4.38-7.94-9.74-7.94H-605c-5.36,0-9.74,3.58-9.74,7.94s4.38,7.94,9.74,7.94h80.65c6.85,0,12.45,4.56,12.45,10.14s-5.6,10.14-12.45,10.14h-112c-5.95,0-10.83,4-10.83,8.82s4.88,8.82,10.83,8.82h321.51c6,0,10.83-4,10.83-8.82S-308.89,29.63-314.85,29.63Z" transform="translate(647.19 6.53)"/></svg>