<svg id="Layer_1" data-name="Layer 1" xmlns="http://www.w3.org/2000/svg" xmlns:xlink="http://www.w3.org/1999/xlink" viewBox="0 0 1788.5 499.18"><defs><style>.cls-1,.cls-2{opacity:0.31;}.cls-1{fill:url(#linear-gradient);}.cls-2{fill:url(#linear-gradient-2);}.cls-3,.cls-4{fill:#fff;}.cls-4{opacity:0.77;}</style><linearGradient id="linear-gradient" x1="471.72" y1="-342.3" x2="738.33" y2="-342.3" gradientUnits="userSpaceOnUse"><stop offset="0" stop-color="#f3b07d"/><stop offset="1" stop-color="#a6a5d2"/></linearGradient><linearGradient id="linear-gradient-2" x1="-1685.72" y1="-197.74" x2="-1524.47" y2="-197.74" gradientTransform="matrix(-1, 0, 0, 1, -447.49, 0)" xlink:href="#linear-gradient"/></defs><title>cloud-08</title><path class="cls-1" d="M738.33-297.15a44.06,44.06,0,0,0-44.06-44,43.86,43.86,0,0,0-23.45,6.76,17.43,17.43,0,0,0-6.74-1.5,31.13,31.13,0,0,0-30.74-26.25,31,31,0,0,0-12.56,2.65c-4.2-12.22-9.07-23.17-26.3-27.47-20.89-5.22-35.7,9.71-38.76,23.68-3.83-1.72-2.85,4.52-7.32,4.52a30.47,30.47,0,0,0-21.87,9.23,12.12,12.12,0,0,0-7.37-2.49A12.19,12.19,0,0,0,507-339.85c0,.14,0,.29,0,.44a39.74,39.74,0,0,0-35.26,39.48c0,1.09,0,2.17.13,3.24l-.13.13h266.6c0-.19,0-.37,0-.56Z" transform="translate(546.6 458.73)"/><path class="cls-2" d="M1077-170.43A26.65,26.65,0,0,1,1103.63-197a26.59,26.59,0,0,1,14.18,4.08,10.66,10.66,0,0,1,4.08-.9,18.82,18.82,0,0,1,18.59-15.88,18.88,18.88,0,0,1,7.6,1.6c2.54-7.39,5.48-14,15.9-16.61,12.64-3.16,21.6,5.87,23.45,14.32,2.31-1,1.72,2.73,4.42,2.73a18.38,18.38,0,0,1,13.23,5.59,7.28,7.28,0,0,1,4.46-1.5,7.36,7.36,0,0,1,7.37,7.36,2.44,2.44,0,0,1,0,.27,24,24,0,0,1,21.33,23.88c0,.66,0,1.31-.08,2l.08.08H1077c0-.12,0-.23,0-.34Z" transform="translate(546.6 458.73)"/><path class="cls-3" d="M-101.17-410.27h-93.59c-9.17,0-16.68-6.11-16.68-13.59s7.51-13.59,16.68-13.59h68.92c7.18,0,13.06-4.79,13.06-10.64s-5.88-10.64-13.06-10.64H-490c-7.19,0-13.06,4.79-13.06,10.64s5.87,10.64,13.06,10.64h108.09c9.18,0,16.68,6.11,16.68,13.59s-7.5,13.59-16.68,13.59H-532.09c-8,0-14.51,5.32-14.51,11.82s6.53,11.82,14.51,11.82h430.92c8,0,14.51-5.31,14.51-11.82S-93.19-410.27-101.17-410.27Z" transform="translate(546.6 458.73)"/><path class="cls-4" d="M1231.08,22.81h-69.82c-6.85,0-12.45-4.56-12.45-10.14s5.6-10.14,12.45-10.14h51.42c5.36,0,9.74-3.58,9.74-7.94s-4.38-7.94-9.74-7.94H941c-5.36,0-9.74,3.57-9.74,7.94S935.6,2.53,941,2.53h80.65c6.85,0,12.45,4.56,12.45,10.14s-5.6,10.14-12.45,10.14h-112c-6,0-10.83,4-10.83,8.82s4.87,8.82,10.83,8.82h321.51c6,0,10.83-4,10.83-8.82S1237,22.81,1231.08,22.81Z" transform="translate(546.6 458.73)"/><path class="cls-4" d="M541.23-31.29H471.4c-6.84,0-12.45-4.56-12.45-10.14s5.61-10.14,12.45-10.14h51.42c5.36,0,9.75-3.58,9.75-7.94s-4.39-7.94-9.75-7.94H251.11c-5.36,0-9.75,3.57-9.75,7.94s4.39,7.94,9.75,7.94h80.65c6.84,0,12.45,4.56,12.45,10.14s-5.61,10.14-12.45,10.14h-112c-6,0-10.82,4-10.82,8.82s4.87,8.82,10.82,8.82H541.23c5.95,0,10.82-4,10.82-8.82S547.18-31.29,541.23-31.29Z" transform="translate(546.6 458.73)"/></svg>