<svg id="Layer_1" data-name="Layer 1" xmlns="http://www.w3.org/2000/svg" viewBox="0 0 258.89 150.8"><defs><style>.cls-1{fill:#f1967c;}</style></defs><title>country-02</title><path class="cls-1" d="M429.11,293.12a7.29,7.29,0,0,0-2.88-2.17,4.09,4.09,0,0,1-1.45-.71A11.51,11.51,0,0,0,420.5,288c-2.2-.71-2.76-2.59-3-4.62a18.83,18.83,0,0,1,.71-7.17,15,15,0,0,0-.42-9.55,9.72,9.72,0,0,0-1.78-3.06,5,5,0,0,1-1.07-2.84c-.12-1.07-.24-2.15-.42-3.22a1.36,1.36,0,0,0-.44-.72c-.56-.48-1.16-.9-1.74-1.35a6.71,6.71,0,0,1-2.56-5,1.39,1.39,0,0,1,.55-1.25c1.42-1.29,2.76-2.67,4.16-4a1.34,1.34,0,0,1,.91-.35c.92.11,1.34-.33,1.85-1.05,1.41-2,2.93-4,4.5-5.86a2.62,2.62,0,0,0,0-3.71,13.58,13.58,0,0,1-3.61-5.9,5.39,5.39,0,0,1,1.53-6c1.48.5,2.84.92,4.17,1.42a5.57,5.57,0,0,1,1.52.86c1.7,1.38,3.31,2.89,5.09,4.16a4.35,4.35,0,0,0,2.67.74c3-.25,5.47,1,8,2.15,3.21,1.45,6.37,3,9.55,4.55a23.4,23.4,0,0,1,5.9,4.3c.64.6,1.18,1.3,1.86,1.83a3.27,3.27,0,0,1,1.13,3.39c-.16,1.31-.1,2.65-.15,4,0,.55.33.63.76.57.8-.11,1.6-.28,2.41-.33a1.19,1.19,0,0,1,.9.41,8.94,8.94,0,0,1,1.46,4.27,3.73,3.73,0,0,0,2.72,3.22,11.15,11.15,0,0,1,4.76,2.87l.38.42c.92,1.15.92,1.41-.14,2.43a52.14,52.14,0,0,1-12.22,8.72c-1.33.69-2.6,1.48-3.93,2.15a2.91,2.91,0,0,1-1.45.3c-1.79-.1-3.57-.3-5.35-.39a1.62,1.62,0,0,0-1,.48c-.51.48-.88,1.12-1.41,1.57a18.35,18.35,0,0,1-2.28,1.65c-1.61,1-3.26,1.93-4.87,2.92-1.29.81-2.55,1.66-3.8,2.51a2.32,2.32,0,0,0-1.16,2c.07,1.87-1.28,2.94-2.31,4.21-.9,1.1-1.77,2.25-2.65,3.37Z" transform="translate(-214.61 -142.32)"/><path class="cls-1" d="M251.06,142.32c.71.44,1.41.9,2.14,1.29.17.09.49,0,.71-.13a20.07,20.07,0,0,1,1.85-.82c.56-.18,1.19-.24,1.56.47.05.11.31.16.48.15a3.64,3.64,0,0,0,.79-.14,4.38,4.38,0,0,1,3.73.41,2.25,2.25,0,0,0,1.25.33c.72,0,1,.39,1.28,1,.43,1,.93,2.08,1.38,3.13a2.09,2.09,0,0,1-.09,1.94,13,13,0,0,0-2,7.36c.12,1.23-.45,1.67-1.3,2.16-.25.14-.39.49-.57.75A10.83,10.83,0,0,1,261,162.1a8.84,8.84,0,0,1-2.23,1.48c-.3.15-.81-.06-1.2-.17a8,8,0,0,0-1.3-.49c-2.08-.21-4.16-.3-6.23-.54a3.5,3.5,0,0,1-2.71-1.63,7.69,7.69,0,0,0-5.57-3.4c-.32-.06-.64-.15-1-.24a2.51,2.51,0,0,1-1.79-3.59c.2-.5.53-1,.76-1.44.53-1.12,1-2.27,1.57-3.36a3.6,3.6,0,0,1,1.16-1.29c2.17-1.38,4.39-2.69,6.59-4.05.52-.32,1-.7,1.49-1.06Z" transform="translate(-214.61 -142.32)"/><path class="cls-1" d="M382.3,194.16a7.23,7.23,0,0,1,1.36-3.91,4.31,4.31,0,0,1,7.19.06c1.06,1.47,2.16,2.92,3.27,4.36a5.91,5.91,0,0,0,1,.92,2.1,2.1,0,0,0,2.41.24,56.07,56.07,0,0,1,6.51-2.74,5.59,5.59,0,0,1,5.15,1.08c2.2,1.63,4.33,3.36,6.45,5.09a12.27,12.27,0,0,0,4.31,2.36,9.94,9.94,0,0,1,2.51,1.42,2.57,2.57,0,0,1,1,2.36,2.17,2.17,0,0,1-1,2c-1.58.94-3.2,1.81-4.81,2.7a11.42,11.42,0,0,1-5.07,1.26,6.37,6.37,0,0,0-3.93,1.38c-1.76,1.49-3.95,1.47-6,1.85a3.67,3.67,0,0,1-3.28-.62,9.59,9.59,0,0,0-2-1c-.38-.2-.46-.44-.31-.92a5.18,5.18,0,0,0,.16-2c-.19-2-.47-4-.69-6s-1.47-2.93-3.31-2.16a3.14,3.14,0,0,1-4-.81,12.77,12.77,0,0,0-2.07-1.41c-.84-.62-1.68-1.26-2.46-2-.47-.43-.8-1-1.57-1-.14,0-.35-.26-.4-.43C382.6,195.63,382.46,194.89,382.3,194.16Z" transform="translate(-214.61 -142.32)"/><path class="cls-1" d="M326.31,165.4c.8,0,1.15.34.91,1.14a1.48,1.48,0,0,0,.42,1.54,3.59,3.59,0,0,1,1.18,2.56,7,7,0,0,0,.52,2c.23.83.54,1.58,1.58,1.68.2,0,.55.44.5.58a4.71,4.71,0,0,1-.7,1.4,1.27,1.27,0,0,1-.81-.31,2.18,2.18,0,0,0-2.92-.56c-.88.42-1.72.92-2.56,1.42-1.1.66-1.44.75-2.41-.1a45.88,45.88,0,0,1-3.54-3.57c-.71-.78-1-.79-1.72,0a1.33,1.33,0,0,1-1.21.14c-.28-.12-.47-.64-.54-1,0-.2.23-.47.41-.67a1.37,1.37,0,0,0-.32-2.2c-1.12-.68-4.28-.48-5.23.41a1.09,1.09,0,0,0-.1,1.05,15.21,15.21,0,0,0,1.59,1.64l-6.56,1.62c-1.18-3.07-3.39-5.4-5.14-8a16.45,16.45,0,0,1-1.51-3.2c-.59-1.51-1.08-3.05-1.62-4.58l-.27-.78c1.51-.21,2.93-.38,4.33-.61a14.57,14.57,0,0,0,2-.5,6.36,6.36,0,0,0,3.17-2.16c1.37-1.64,2.85-3.19,4.31-4.76a3.48,3.48,0,0,1,.93-.66,1.74,1.74,0,0,1,2.61.58c.74,1.12,1.33,2.35,2,3.52a14.17,14.17,0,0,0,1.25,2c1.21,1.47,2.48,2.87,3.7,4.32a.93.93,0,0,1,.1.7c-.1.42-.3.81-.43,1.22a2.37,2.37,0,0,0,1.1,3.06,6.12,6.12,0,0,1,1.26,1.45,6.2,6.2,0,0,0,.93,1.23,2.3,2.3,0,0,0,1.57.56c.45-.11.79-.78,1.1-1.25A2.28,2.28,0,0,0,326.31,165.4Z" transform="translate(-214.61 -142.32)"/><path class="cls-1" d="M374.56,185.88c-1.44-.43-3-.83-4.43-1.34a59.87,59.87,0,0,0-11.68-3.24,4.43,4.43,0,0,0-2.12.31,16.68,16.68,0,0,1-6.34,1.27c-1.7,0-3.4-.27-5.1-.42s-1.76-.24-.93-1.73a12.27,12.27,0,0,1,1.44-2.06,4.91,4.91,0,0,0,1.13-2.47c.08-.48.2-1.22.5-1.33a5.09,5.09,0,0,1,2.35-.28c.49.06.91.61,1.38.92.23.16.5.41.73.39,3.61-.27,7,.85,10.56,1.24.81.09,1.63.13,2.44.14a1.83,1.83,0,0,0,1.93-1.32c.18-.6.5-.64,1-.39,1.25.65,2.48,1.36,3.76,1.93a6.12,6.12,0,0,0,2.26.53c2.93.06,5.87,0,8.81.05a6.66,6.66,0,0,1,2.35.55c1,.38,1.11,1.17.29,1.82a21.51,21.51,0,0,1-2.93,1.89c-1.9,1-3.84,2-5.78,3A11.43,11.43,0,0,1,374.56,185.88Z" transform="translate(-214.61 -142.32)"/><path class="cls-1" d="M356.22,196.11a3.62,3.62,0,0,1,3.22-2.53,6.65,6.65,0,0,1,2.39.16,43.46,43.46,0,0,0,7.58,1.34,5.25,5.25,0,0,1,3.2,1.46,29.46,29.46,0,0,1,5.69,8,.74.74,0,0,1-.08.64c-2.16,2.75-4.73,5-8.25,5.73a7.54,7.54,0,0,1-2.88,0,2.86,2.86,0,0,1-2.39-2.73c-.12-1.4-.22-2.81-.22-4.22a3.66,3.66,0,0,0-1.54-3.22c-1.73-1.25-3.49-2.48-5.25-3.71C357.23,196.7,356.73,196.43,356.22,196.11Z" transform="translate(-214.61 -142.32)"/><path class="cls-1" d="M228.12,161.69c-1.61.76-3.27,1.39-4.77,2.28a12.4,12.4,0,0,0-4.26,4.84c-.64,1.13-1.31,2.25-2,3.37-.53.9-1.3.9-1.77-.05a8.18,8.18,0,0,1-.48-5.49,9.75,9.75,0,0,1,3.49-5.45l.13-.09a22.75,22.75,0,0,0,7.06-7.32c.27-.43.66-.78,1-1.2a2.21,2.21,0,0,1,2.74-.79c.89.27,1.17.86.74,1.68a3.35,3.35,0,0,1-.73,1,3.88,3.88,0,0,0-1.16,3.62C228.2,159.32,228.12,160.6,228.12,161.69Z" transform="translate(-214.61 -142.32)"/><path class="cls-1" d="M378.22,220.63a2.82,2.82,0,0,1,1.52-2.93c2.43-1.37,4.83-2.8,7.28-4.15a1.46,1.46,0,0,1,1.21,0c1.23.68,2.42,1.43,3.59,2.21.46.3.36,1.28,0,1.76a1.46,1.46,0,0,0-.34.87,13.1,13.1,0,0,0,.21,2.26c.08.46,0,.64-.46.76a6.34,6.34,0,0,1-3.25.42c-.08,0-.18,0-.24,0-2.33-1.19-4.64-.33-7,.07-.43.07-.85.18-1.27.26-.95.18-1.14,0-1.28-.9A4.05,4.05,0,0,1,378.22,220.63Z" transform="translate(-214.61 -142.32)"/></svg>