<svg id="Layer_1" data-name="Layer 1" xmlns="http://www.w3.org/2000/svg" viewBox="0 0 513.31 275.87"><defs><style>.cls-1{opacity:0.78;}.cls-2{fill:#f1967c;}</style></defs><title>contry</title><g class="cls-1"><path class="cls-2" d="M378.86,388.09c-2.63.74-5.13,1.46-7.64,2.14a6.88,6.88,0,0,0-3.6,11.27c-1.53-.62-2.91-1.52-4.35-1.64-1.12-.09-2.31.8-4.31,1.59-2-.39-5.18-.59-8-1.75s-5.33-3.31-8.67-5.47c0,4.7-2.07,4-4.54,3.35-5.07-1.28-10.2-1.94-15.3,1.18-.68-.5-1.52-1.59-2.33-1.58s-2.46,1-2.52,1.67A9.75,9.75,0,0,1,308,408c-2,.06-4,0-6.33,0,.6,4.13-2.2,5.72-4.19,8.24-3.45,4.35-3.77,10.08-1,15.46.49,1,.86,2,1.41,3.31-5.21-.77-10.46-.26-14.09-2.44-3.3-2-4.92-6.83-7.11-10.53-.49-.83.2-2.58-.38-3.1-5.91-5.35-5.58-14.84-12.45-19.27-3.89-2.5-8.57-3.78-13.08-5.68-1.54,2.61-2.58,4.61-3.86,6.46-.72,1.05-2.26,2.78-2.7,2.58-3.94-1.75-10-3-11.05-6-2.28-6.27-6.82-10.18-10.47-15.12-4.16-5.64-8.87-7.91-15.61-7a62.8,62.8,0,0,1-8.05.06c.64,5.36-2.63,5.12-6.31,5.41a67.11,67.11,0,0,1-35.46-6.64c-10.31-5-21.2-7.37-32.7-6-2.44.28-4.48-.81-4.49-2.83,0-5.13-4.42-6.07-7.14-8.71-3.45-3.36-8.43-3.37-12-5.8-4.34-2.92-8-6.93-11.55-10.91a80.74,80.74,0,0,1-9-12.37c-2.33-4-5.27-8.44-5.25-12.68,0-3.7-1.86-4.11-3.59-5.85-4.94-5-9.44-10.3-10-17.83a7.39,7.39,0,0,0-1.51-4.4c-2.85-2.89-3.42-5.93-1.71-9.49,2.19-4.59,1.67-9.16-.34-13.56-2.92-6.42-2.55-12.55.13-19,1.29-3.11,1.45-6.8,1.63-10.25.26-4.82,0-9.66.08-14.49,0-3.37-1-7.15,4.18-8.94l-3.53-1.84c.45-3.93.71-7.36-2-11.3-2.85-4.15-3.35-9.91-5.07-15.59,4.71,1.37,9.29,3.82,12.81.92l2.7-9.32H315.4l.69-4.88.82-.35a26.28,26.28,0,0,0,1.68,3.83c1.06,1.66,2.07,3.75,3.66,4.62,3.5,1.9,6.95,3.93,11.58,2.84,1.91-.44,4.5,2,6.54,3.6,2,.77,4,1.56,6,2.29.49.18,1.23.43,1.54.21,3.72-2.63,7.4.44,11.09,0a2.82,2.82,0,0,1,2.18.58c2.93,3.74,6.19,2.45,9,.3,3.24-2.45,5.82-2.38,9.31-.23,7.65,4.69,15.69,8.73,23.43,13.29,1.48.87,2.13,3,3.41,4.36a25.09,25.09,0,0,0,5.52,4.33c.93,3,1.83,5.92,5.14,4.5,2,1.93,3.25,3.72,5,4.76,3.2,2,5.86,3.76,5.94,8.19.13,7.49,1.1,15,1.14,22.46,0,2.28-1.75,4.61-2.87,6.83-.4.8-1.38,1.29-1.92,2-1.33,1.89-3.83,3.83-1.68,6.29,2,2.3,5.58,4.05,7.94,2,6.72-5.75,15.5-6.32,22.91-10.18,3.54-1.85,6.9-3.23,5.3-8.47-.88-2.85,1.78-3.55,4-3.64,4.3-.17,8.63.09,12.91-.29a8.36,8.36,0,0,0,4.55-2.43c4.5-4.36,8.77-9,13.24-13.35a4.72,4.72,0,0,1,2.92-.9c8.46-.33,16.93-.48,25.38-.92,1.69-.08,3.33-1.17,4.79-2.37,3.51.28,5-1.15,7.08-4.48,3.88-6.4,4.55-14.08,9-20.08.92-1.24,1.77-2.53,3-4.37,1.67,4,4.06,4.23,7.22,3,2.74-1.06,5.9,1.22,6.13,4.21a22.93,22.93,0,0,1-.19,6,18.35,18.35,0,0,0,5.59,17.75c.73.7,1.08,1.81,2.18,3.74l-16,6c-.47-.94-.88-1.75-1.41-2.83-.59.74-1.21,1.17-1.18,1.55.34,5-3.79,5.93-7,6.61-4.47,1-6,4.4-7.53,7.59s-2.21,6.83-3.42,10.79c.6,1.18,1.5,3.08,2.51,4.92,1.9,3.42.76,5.55-3.22,5.91-5.2.46-10.43.64-15.57,1.46-2.34.38-4.48,2-6.7,3.07l.6,1.76,12.89-2.22.29,1.1L503,279.44a53.63,53.63,0,0,1,.36,7.42,10.14,10.14,0,0,1-1.8,4.73,73.84,73.84,0,0,1-4.89,5.89l-6.4-6.87c-1.94,3.13,0,5.14,1.45,6.73,2.83,3.09,2.39,6.07.46,9.17-1.73,2.79-3.66,5.45-6,8.93-.14-1.56-.48-2.39-.21-2.7,3-3.36.89-5.86-1.31-8.34-1.45-1.62-2-2.85-.66-5.23,1-1.87.21-4.76.21-7-1.47.7-1.47.7-3,13.44l-6.29-2.73-.77,1.23a37.61,37.61,0,0,0,5.1,3.43c2.55,1.18,4,2.39,2.55,5.46a53.35,53.35,0,0,0-2.2,7c4.11.25,6.7,2.5,6.45,6.77l-5.35,3.94c2.19.74,3.17,1,4.11,1.4,2.3,1,2.36,2.19.59,3.89a19,19,0,0,0-2.22,3.18c-1,1.49-1.74,3.8-3.13,4.32-4.92,1.84-8.54,5.23-12.23,8.67a4.63,4.63,0,0,1-2.12,1c-4,.84-6.61,2.82-7.5,7.18-.32,1.56-2.23,3.18-3.82,4-3.46,1.83-7.27,3-10.76,4.81-1,.55-1.66,2.2-2.16,3.46a73.06,73.06,0,0,0-3.24,9.33c-.66,2.77-1.54,5.93-.82,8.5,1.59,5.62,5,10.8,6.09,16.46,1.81,9.63,8.4,18.38,5.25,29-1.43,4.81-4.4,8.25-7.07,8.07-1.95-3.33-3.66-6-5.14-8.82-1.35-2.54-2.27-5.31-3.73-7.77-.9-1.53-2.49-2.65-3.69-4A13.19,13.19,0,0,1,426.22,410a7.29,7.29,0,0,0-.3-4.32A4.87,4.87,0,0,0,423,403.3c-.78-1.63-1.24-3.54-2.39-4.84-4.56-5.18-4.71-5.29-11.34-2.39-3,1.31-4.93,1.35-7.2-1.33-4.42-5.21-10.25-6.28-16.72-4.66C381.45,391,380,390.44,378.86,388.09Z" transform="translate(-53.37 -168.19)"/></g></svg>