<svg id="Layer_1" data-name="Layer 1" xmlns="http://www.w3.org/2000/svg" viewBox="0 0 841.89 298.9"><defs><style>.cls-1{fill:#a26536;}.cls-2{fill:#e2e2e2;}.cls-3{fill:#282825;}.cls-4{fill:#855431;}</style></defs><title>hand_L</title><path class="cls-1" d="M726.29,291.25c4.31,2.58,25.8,14,29.94,16.39,6,3.43,13.2,7,19,11.32,13.47,10,26.85,18.86,40.7,28.7,5.88,4.17,11.69,8.73,17.5,13,4,2.93,11.62,11.53,7.06,17.2s-20.73-1.22-25.53-3.4a159,159,0,0,1-22.51-12.88c-8.68-5.83-19-7.28-27.9-13-8.4-5.4-16.89-10.27-26.45-12.24,4.79,6.88,15.29,11.52,22.08,16.47,7.72,5.63,15.58,10.75,23.08,16.61,11.83,9.24,25.32,14.25,35.3,25.69,5.93,6.79,4.47,15.23-5.94,14.92-8.55-.25-17.94-8.07-25.28-11.75-18.15-9.1-35.75-20.61-53.26-31-5.78-3.42-12.24-8.38-18.63-10.47,8.08,8.24,17.55,14.68,27,21.55,10.13,7.34,18.7,15.94,27.84,24.38,6.26,5.78,28.68,19.48,17.33,28.49-9.88-.5-14.37-3.76-21.88-8.93-8.08-5.55-15.41-12.14-23.48-17.55-15.32-10.27-31.17-18.49-46.2-27.18,8.16,13.27,29.51,30.86,44.46,44.69,4.21,3.9,17.23,19.44,12.33,26.05-5,6.78-15.57-2.22-19.84-5.38-9-6.7-18.22-11.51-24.62-16.45-7.52-5.82-27.58-13.46-38-18.39" transform="translate(0 -151.93)"/><path class="cls-1" d="M583.55,236.66,619.43,251s44.33,6.77,56.58,13.6c6.58,3.68,30.36,9.41,59.44,27.69,25,15.68,54.33,37.15,54.33,37.15l-56-7.15-18.42,21.39-25.57,31,3.54,43.53S599.7,377.46,594.09,365c0,0-5.43-10.69-7.21-16.46-1.15-3.76-26.61-12-26.61-12Z" transform="translate(0 -151.93)"/><polygon class="cls-2" points="583.93 205.41 299.28 167.99 299.28 45.15 583.93 82.57 583.93 205.41"/><polygon class="cls-3" points="566.53 206.28 0 131.16 0 0 566.53 75.12 566.53 206.28"/><path class="cls-4" d="M784.38,368.41l-46.29-32.06s13.3,17.68,45.82,40.26c13.28,9.22,33.35,23.95,37.65,29.05C821.56,405.66,827.19,394.32,784.38,368.41Z" transform="translate(0 -151.93)"/><path class="cls-4" d="M754.56,387l-39.12-30.14s50.44,50.7,75.75,68.34l-2.85-6.66Z" transform="translate(0 -151.93)"/><path class="cls-4" d="M749.83,433.79l-6.6-8.66-47.16-47.51s36.44,47.88,58.34,65.91Z" transform="translate(0 -151.93)"/><path class="cls-4" d="M583.93,326.27s10.49,8.1,11.82,15.64,9.78,32.77,9.78,32.77L594.09,365s-7.34-18.88-10.16-19Z" transform="translate(0 -151.93)"/><path class="cls-1" d="M616.85,290.12l13.23-37.63,60.63.35L737,256.36s42.4,16.24,50.29,15.83-3.66,25.94-26.9,19.94l-38.87-6.71-34.08,5.47Z" transform="translate(0 -151.93)"/></svg>