<svg id="Layer_1" data-name="Layer 1" xmlns="http://www.w3.org/2000/svg" viewBox="0 0 841.89 302.22"><defs><style>.cls-1{fill:#282825;}.cls-2{fill:#e0b780;}.cls-3{fill:#e2e2e2;}.cls-4,.cls-5{fill:none;stroke:#cb956a;stroke-miterlimit:10;}.cls-4{stroke-width:1.75px;}.cls-5{stroke-width:1.85px;}</style></defs><title>hand_R</title><line class="cls-1" y1="131.16"/><path class="cls-2" d="M269.42,266.08l-36.85,8.66S196.25,288,183.39,292.86,113,316.91,113,316.91,51.6,355.26,68.32,355.07c15.38-.18,33.29-7,41.64-3.43,15.29,6.52,9.87,32.3,16.16,46.71,7.54,17.27-.61,28.45-.61,28.45s109.06-37.72,116.3-48.95c0,0,2.69-4.79,6.54-4.66S276,366.63,276,366.63Z" transform="translate(0 -151.93)"/><path class="cls-2" d="M111.47,317.89C107.37,319.83,87,328.26,83.11,330c-5.74,2.56-12.49,5.15-18.09,8.54-13,7.87-25.85,14.72-39.2,22.42-5.66,3.26-11.31,6.89-16.92,10.26-3.85,2.31-11.52,9.48-8,15.19s18.65,1,23.16-.55a139.38,139.38,0,0,0,21.38-9.63c8.34-4.51,17.73-4.81,26.22-9.19,8-4.15,26.34-12.43,35.07-13.28-5,5.87-25,13.75-31.58,17.64-7.45,4.42-15,8.36-22.26,13-11.48,7.34-24,10.61-34.08,20.18-6,5.67-5.48,13.64,3.86,14.4,7.66.64,16.82-5.64,23.74-8.3,17.12-6.58,34-15.44,50.65-23.24,5.5-2.57,11.77-6.51,17.68-7.79-8,6.8-17.13,11.8-26.27,17.19-9.77,5.76-18.27,12.85-27.28,19.73-6.16,4.71-27.55,15.11-18.28,24.6,8.88.54,13.21-2,20.44-6,7.76-4.32,15-9.67,22.71-13.85,14.7-7.95,29.68-13.94,44-20.46-16.13,9.44-31.74,20.84-46.46,32.11-4.15,3.19-16.44,11.76-12.71,18.38,3.83,6.77,14.13-.48,18.27-3,8.74-5.28,17.51-9.72,25.76-15.74,7-5.08,14.09-7.2,23.87-10.71" transform="translate(0 -151.93)"/><polygon class="cls-3" points="269.64 232.55 537.71 195.88 537.71 75.52 269.64 112.19 269.64 232.55"/><polygon class="cls-1" points="286.69 233.4 841.89 156.22 841.89 27.7 286.69 104.88 286.69 233.4"/><path class="cls-2" d="M231.57,316.91l-12-37.41-59.71-1.34-45.7,2.18s-42.2,14.81-50,14.2,2.89,25.64,25.93,20.38l38.46-5.54L162,315.72Z" transform="translate(0 -151.93)"/><path class="cls-4" d="M133,310.21s31.86,37.4,63.72,36.23" transform="translate(0 -151.93)"/><path class="cls-5" d="M102.87,340s9,45.41,30.11,69.5" transform="translate(0 -151.93)"/></svg>