<svg id="Layer_1" data-name="Layer 1" xmlns="http://www.w3.org/2000/svg" viewBox="0 0 1920.5 559.63"><defs><style>.cls-1{fill:#e0b780;}.cls-2{fill:#a26536;}.cls-3{fill:#e2e2e2;}.cls-4{fill:#292926;}.cls-5{fill:#cb956a;}.cls-6{fill:#855331;}</style></defs><title>hand</title><path class="cls-1" d="M644.59-.77l-84.4,19.84S477,49.49,447.54,60.57s-295.75,74.17-295.75,74.17-41.18,23.71-28.6,59.89,159,185.19,159,185.19S564.75,281,581.33,255.23c0,0,6.17-11,15-10.67s63.27-15,63.27-15Z" transform="translate(591.25 111.67)"/><path class="cls-2" d="M87.46,35.41l80,31.93S266.33,65,293.62,80.18s258,161,258,161,40.63,24,19.27,63c-18.24,33.39-61.69,2.45-61.69,2.45s29.16,18.1,8.25,46.81c-22.09,30.33-67.57,6.59-67.57,6.59s19.77,25.72,0,41.54c-20,16-59.33-4.95-59.33-4.95s8.9,26.71,0,40.55c-14.36,22.35-58.33,3-58.33,3S123.46,349.31,111,321.59c0,0-12.11-23.84-16.06-36.7-2.58-8.38-59.32-26.7-59.32-26.7Z" transform="translate(591.25 111.67)"/><path class="cls-1" d="M155.59,342.72c-6.37,9.86-25,13.06-40.11,3.27s-21.06-28.85-14.68-38.71,21.9-3.62,37,6.17S162,332.86,155.59,342.72Z" transform="translate(591.25 111.67)"/><path class="cls-1" d="M208.58,355.36c-8.92,20.54-22.36,32.55-45.33,17.36-13.1-8.66-13.26-17.48-4.34-38s27.82-32.12,42.22-25.86S217.49,334.82,208.58,355.36Z" transform="translate(591.25 111.67)"/><path class="cls-1" d="M283.5,418.83c-8.9,16.67-21.39,25.66-41,10.61-11.18-8.58-10.89-16.11-2-32.79s26.22-24.79,38.67-18.14S292.41,402.15,283.5,418.83Z" transform="translate(591.25 111.67)"/><path class="cls-1" d="M256.63,375c-11.42,26.3-29.08,40.3-51.52,23.88-12.8-9.36-8.42-20.14,3-46.44s28.71-42.64,43.12-36.38S268,348.74,256.63,375Z" transform="translate(591.25 111.67)"/><polygon class="cls-3" points="679.57 416.12 44.98 332.7 44.98 58.86 679.57 142.28 679.57 416.12"/><polygon class="cls-4" points="640.78 418.06 0 328.99 0 36.59 640.78 125.67 640.78 418.06"/><path class="cls-5" d="M354.31,117.27l35.88-18.5L571.44,227.54s14.83,12.28,0,30.86Z" transform="translate(591.25 111.67)"/><polygon class="cls-3" points="1236.34 382.09 1850.34 298.11 1850.34 22.42 1236.34 106.4 1236.34 382.09"/><polygon class="cls-4" points="1275.4 384.04 1920.5 294.37 1920.5 0 1275.4 89.67 1275.4 384.04"/><path class="cls-5" d="M240.55,315.31,200.81,395s-4.6-7.76-2.86-15.4c0,0,13.61-41.26,21.52-49.17C219.47,330.39,234,315.07,240.55,315.31Z" transform="translate(591.25 111.67)"/><path class="cls-5" d="M269.22,376.19l-31.73,48.58s-7.05-8.11-1.66-18.12,12.88-24.57,23.47-28.16Z" transform="translate(591.25 111.67)"/><path class="cls-6" d="M513.11,306.65l-87-52.41s21.74,46.14,98.37,83.89C524.48,338.13,533.87,319.51,513.11,306.65Z" transform="translate(591.25 111.67)"/><path class="cls-6" d="M449.84,360.05l-76.13-64.28s16.8,47.47,83.9,80.42Z" transform="translate(591.25 111.67)"/><path class="cls-6" d="M390.51,394.67l-72.17-51.43s15.82,28.68,72.17,57.36Z" transform="translate(591.25 111.67)"/><path class="cls-6" d="M88.32,235.17s23.39,18.08,26.35,34.89,25.14,44.7,25.14,44.7l-36.17-8.37s-9-26.88-15.32-27.16Z" transform="translate(591.25 111.67)"/><path class="cls-1" d="M560.41,19.8l-186.5,7.78L286.55,85.44s-65.68,78.62-81.67,86.5,35.74,47.06,74.92,9.7l69.19-56L422.15,99Z" transform="translate(591.25 111.67)"/></svg>