<svg id="Layer_1" data-name="Layer 1" xmlns="http://www.w3.org/2000/svg" xmlns:xlink="http://www.w3.org/1999/xlink" viewBox="0 0 401 199.24"><defs><style>.cls-1{fill:#010101;}.cls-2{opacity:0.69;fill:url(#linear-gradient);}.cls-3{fill:#fff;}.cls-4{fill:#dfdfde;}.cls-5{fill:#b5b6b6;}.cls-6{fill:#9b9b9b;}.cls-7{fill:#8fd6eb;}.cls-8{fill:#7ec7de;}.cls-9{fill:#f5f6f6;}.cls-10{fill:#dededb;}.cls-11{fill:#c2c1c1;}.cls-12{fill:#e0dcdd;}.cls-13{fill:#81c6da;}.cls-14{fill:#73bbca;}.cls-15{fill:#ece3dc;}.cls-16{fill:#c3c6c6;}.cls-17{fill:#ddd;}.cls-18{fill:#acada6;}.cls-19{fill:#c8c5c1;}.cls-20{fill:#ef4963;}.cls-21{fill:#e5e5e5;}.cls-22{fill:#d6e1dd;}.cls-23{fill:#ccc;}.cls-24{fill:#e4e3e1;}.cls-25{fill:#c2c5ca;}.cls-26{fill:#b8b6b9;}.cls-27{fill:#a5a6ab;}.cls-28{fill:#f9f3f8;}.cls-29{font-size:6.55px;fill:#ea5163;font-family:MyriadPro-Bold, MyriadPro Bold;font-weight:700;}.cls-30{fill:#c9c9c9;}.cls-31{fill:#b2b2b2;}.cls-32{fill:#c8c7c6;}.cls-33{fill:#aeb7b6;}</style><linearGradient id="linear-gradient" x1="5.78" y1="297.09" x2="406.78" y2="297.09" gradientUnits="userSpaceOnUse"><stop offset="0" stop-color="#f3b07d"/><stop offset="1" stop-color="#a6a5d2"/></linearGradient></defs><title>hospital</title><rect class="cls-1" y="194.55" width="401" height="4.68"/><path class="cls-2" d="M5.78,393.57v-193h208c106.57,0,193,86.39,193,193H5.78Z" transform="translate(-5.78 -199.02)"/><path class="cls-3" d="M120.64,239.22h-7.93a1.18,1.18,0,1,1,0-2.3h5.84a.92.92,0,1,0,0-1.81H87.69a.92.92,0,1,0,0,1.81h9.16a1.17,1.17,0,1,1,0,2.3H84.12a1,1,0,1,0,0,2h36.52a1,1,0,1,0,0-2Z" transform="translate(-5.78 -199.02)"/><path class="cls-3" d="M357.7,352.53h-27c-2.64,0-4.81-1.77-4.81-3.92s2.17-3.92,4.81-3.92h19.87c2.07,0,3.77-1.38,3.77-3.07s-1.7-3.06-3.77-3.06h-105c-2.07,0-3.76,1.38-3.76,3.06s1.69,3.07,3.76,3.07h31.16c2.65,0,4.81,1.76,4.81,3.92s-2.16,3.92-4.81,3.92H233.47c-2.3,0-4.18,1.53-4.18,3.41s1.88,3.4,4.18,3.4H357.7c2.3,0,4.18-1.53,4.18-3.4S360,352.53,357.7,352.53Z" transform="translate(-5.78 -199.02)"/><path class="cls-3" d="M114.19,282.26H97a2.55,2.55,0,1,1,0-5h12.63a2,2,0,1,0,0-3.9H42.93a2,2,0,1,0,0,3.9H62.74a2.55,2.55,0,1,1,0,5H35.22a2.21,2.21,0,1,0,0,4.33h79a2.21,2.21,0,1,0,0-4.33Z" transform="translate(-5.78 -199.02)"/><path class="cls-3" d="M92.1,362.85H75a2.54,2.54,0,1,1,0-5H87.58a2,2,0,1,0,0-3.9H20.84a2,2,0,1,0,0,3.9H40.65a2.54,2.54,0,1,1,0,5H13.13a2.22,2.22,0,1,0,0,4.34h79a2.22,2.22,0,1,0,0-4.34Z" transform="translate(-5.78 -199.02)"/><path class="cls-3" d="M359.54,216.48H325.82c-3.31,0-6-2.2-6-4.9s2.7-4.89,6-4.89h24.83c2.59,0,4.71-1.73,4.71-3.84s-2.12-3.83-4.71-3.83H219.44c-2.59,0-4.7,1.73-4.7,3.83s2.11,3.84,4.7,3.84h38.95c3.3,0,6,2.2,6,4.89s-2.71,4.9-6,4.9H204.28c-2.87,0-5.23,1.92-5.23,4.26s2.36,4.26,5.23,4.26H359.54c2.87,0,5.23-1.92,5.23-4.26S362.41,216.48,359.54,216.48Z" transform="translate(-5.78 -199.02)"/><circle class="cls-3" cx="27.67" cy="53.5" r="2.1"/><circle class="cls-3" cx="290.57" cy="33.79" r="1.81"/><circle class="cls-3" cx="331.99" cy="96.35" r="2.36"/><circle class="cls-3" cx="330.81" cy="144.34" r="1.18"/><circle class="cls-3" cx="18.64" cy="124.02" r="1.49"/><circle class="cls-3" cx="174.74" cy="83.56" r="0.84"/><circle class="cls-3" cx="213.36" cy="60.78" r="0.84"/><rect class="cls-4" x="91.52" y="102.68" width="35.1" height="36.24"/><polygon class="cls-5" points="66.67 102.68 66.67 138.92 91.52 138.92 91.52 100.9 66.67 100.9 66.67 102.68"/><rect class="cls-6" x="76.21" y="118.08" width="30.47" height="17.16"/><rect class="cls-7" x="90.95" y="118.47" width="14.88" height="16.77"/><rect class="cls-8" x="76.64" y="118.47" width="14.88" height="16.77"/><polygon class="cls-9" points="126.62 142.86 38.15 142.86 38.15 189.56 89.17 189.56 126.62 189.56 126.62 142.86"/><rect class="cls-10" x="38.15" y="185.55" width="88.48" height="4.01"/><polygon class="cls-11" points="241.96 70.61 241.96 64.44 203.23 64.44 203.23 123.78 241.96 123.78 241.96 70.61"/><rect class="cls-12" x="241.96" y="64.44" width="32.18" height="60.33"/><rect class="cls-13" x="242.44" y="70.61" width="30.28" height="53.16"/><rect class="cls-14" x="222.5" y="70.61" width="19.94" height="53.16"/><rect class="cls-15" x="200.24" y="126.72" width="30.19" height="62.84"/><rect class="cls-16" x="203.23" y="126.72" width="59.38" height="1.47"/><polygon class="cls-9" points="235.05 189.56 289.81 189.56 289.81 126.72 230.43 126.72 230.43 189.56 235.05 189.56"/><rect class="cls-17" x="230.43" y="126.72" width="59.38" height="1.47"/><rect class="cls-7" x="214.91" y="134.79" width="11.11" height="5.7"/><rect class="cls-7" x="214.91" y="147.08" width="11.11" height="5.7"/><rect class="cls-7" x="235.65" y="147.08" width="47.61" height="5.7"/><rect class="cls-7" x="235.65" y="134.64" width="47.61" height="5.7"/><rect class="cls-7" x="45.12" y="149.93" width="81.5" height="5.7"/><rect class="cls-7" x="45.12" y="161.56" width="81.5" height="5.7"/><rect class="cls-7" x="214.91" y="164.41" width="11.11" height="25.16"/><rect class="cls-7" x="235.65" y="164.41" width="20.93" height="25.16"/><rect class="cls-7" x="260.12" y="164.41" width="20.93" height="25.16"/><polygon class="cls-8" points="214.91 185.55 226.01 173.8 226.01 164.41 214.91 164.41 214.91 185.55"/><polygon class="cls-8" points="235.65 189.56 235.65 164.41 256.58 164.41 256.58 166.49 235.65 189.56"/><polygon class="cls-8" points="281.05 164.41 281.05 167.44 260.12 189.56 260.12 164.41 281.05 164.41"/><polygon class="cls-8" points="214.91 147.08 214.91 148.27 220.46 148.27 220.46 152.78 221.46 152.78 221.46 148.27 226.01 148.27 226.01 147.08 214.91 147.08"/><polygon class="cls-8" points="214.91 134.79 214.91 135.97 220.46 135.97 220.46 140.48 221.46 140.48 221.46 135.97 226.01 135.97 226.01 134.79 214.91 134.79"/><polygon class="cls-8" points="283.26 147.08 235.65 152.78 235.65 147.08 283.26 147.08"/><polygon class="cls-8" points="283.26 134.65 235.65 140.34 235.65 134.65 283.26 134.65"/><polygon class="cls-8" points="92.73 149.93 45.12 155.63 45.12 149.93 92.73 149.93"/><polygon class="cls-8" points="92.73 161.56 45.12 167.25 45.12 161.56 92.73 161.56"/><rect class="cls-6" x="214.91" y="162.84" width="11.11" height="1.57"/><rect class="cls-6" x="235.65" y="162.84" width="20.93" height="1.57"/><rect class="cls-6" x="260.12" y="162.84" width="20.93" height="1.57"/><rect class="cls-6" x="214.91" y="146.3" width="11.11" height="0.78"/><rect class="cls-6" x="235.65" y="146.3" width="47.61" height="0.78"/><rect class="cls-6" x="235.65" y="133.86" width="47.61" height="0.78"/><rect class="cls-6" x="45.12" y="149.15" width="81.5" height="0.78"/><rect class="cls-6" x="45.12" y="160.77" width="81.5" height="0.78"/><rect class="cls-6" x="214.91" y="134" width="11.11" height="0.78"/><rect class="cls-6" x="213.7" y="134" width="1.21" height="6.48"/><rect class="cls-6" x="213.7" y="146.3" width="1.21" height="6.48"/><rect class="cls-6" x="283.26" y="133.83" width="1.21" height="6.48"/><rect class="cls-6" x="283.26" y="146.3" width="1.21" height="6.48"/><rect class="cls-6" x="213.7" y="162.84" width="1.21" height="26.72"/><rect class="cls-6" x="256.58" y="162.84" width="1.21" height="26.72"/><rect class="cls-6" x="281.05" y="162.84" width="1.21" height="26.72"/><rect class="cls-18" x="221.34" y="59.89" width="20.62" height="4.56"/><rect class="cls-19" x="241.96" y="59.89" width="21.57" height="4.56"/><rect class="cls-6" x="222.5" y="70.61" width="50.22" height="1.16"/><rect class="cls-6" x="271.56" y="70.71" width="1.16" height="52.12"/><rect class="cls-6" x="256.61" y="70.71" width="1.16" height="52.12"/><rect class="cls-6" x="240.8" y="71.14" width="1.16" height="52.12"/><rect class="cls-6" x="222.5" y="81.91" width="50.22" height="1.16"/><rect class="cls-6" x="222.5" y="93.68" width="50.22" height="1.16"/><rect class="cls-6" x="222.5" y="105.45" width="50.22" height="1.16"/><rect class="cls-6" x="222.5" y="117.22" width="50.22" height="1.16"/><rect class="cls-4" x="222.5" y="80.96" width="50.22" height="0.95"/><rect class="cls-4" x="237.49" y="295.74" width="53.16" height="0.95" transform="translate(554.51 -166.88) rotate(90)"/><rect class="cls-4" x="221.64" y="295.74" width="53.16" height="0.95" transform="translate(538.65 -151.02) rotate(90)"/><rect class="cls-4" x="222.5" y="92.73" width="50.22" height="0.95"/><rect class="cls-4" x="222.5" y="104.5" width="50.22" height="0.95"/><rect class="cls-4" x="222.5" y="116.28" width="50.22" height="0.95"/><polygon class="cls-20" points="203.23 122.83 288.24 122.83 290.95 126.72 203.23 126.72 203.23 122.83"/><rect class="cls-21" x="134.74" y="22.65" width="16.38" height="8.62"/><rect class="cls-9" x="151.11" y="22.65" width="19.22" height="8.62"/><polygon class="cls-9" points="126.62 189.56 126.62 34.63 203.71 34.63 203.71 151.02 209.97 151.02 209.97 189.56 126.62 189.56"/><rect class="cls-7" x="155.53" y="41.85" width="43.24" height="105.18"/><polygon class="cls-8" points="198.83 41.85 155.53 76.07 155.59 41.85 198.83 41.85"/><polygon class="cls-8" points="198.77 51.82 155.53 88.65 155.47 104.79 198.77 67.95 198.77 51.82"/><polygon class="cls-8" points="155.47 132.51 155.53 146.51 162.32 146.51 198.77 109.72 198.77 104.79 184.29 104.79 155.47 132.51"/><polygon class="cls-21" points="151.11 34.63 151.11 151.07 157.38 151.07 157.38 189.56 126.62 189.56 126.62 34.63 151.11 34.63"/><rect class="cls-22" x="151.11" y="51.82" width="56.01" height="4.56"/><rect class="cls-22" x="151.11" y="67.96" width="56.01" height="4.56"/><rect class="cls-22" x="151.11" y="84.09" width="56.01" height="4.56"/><rect class="cls-22" x="151.11" y="100.23" width="56.01" height="4.56"/><rect class="cls-22" x="151.11" y="116.37" width="56.01" height="4.56"/><rect class="cls-22" x="151.11" y="132.51" width="56.01" height="4.56"/><rect class="cls-22" x="151.11" y="146.51" width="56.01" height="4.56"/><rect class="cls-23" x="161.08" y="159.14" width="22.93" height="25.2"/><polygon class="cls-6" points="203.23 159.14 203.23 186.76 200.24 186.76 200.24 184.34 184.01 184.34 184.01 159.14 203.23 159.14"/><polygon class="cls-24" points="206.08 159.14 206.08 189.56 166.92 189.56 166.92 186.76 203.23 186.76 203.23 159.14 206.08 159.14"/><polygon class="cls-25" points="161.08 184.34 161.08 189.56 166.92 189.56 166.92 186.76 164 186.76 164 184.34 161.08 184.34"/><rect class="cls-26" x="164" y="184.34" width="36.24" height="2.42"/><rect class="cls-6" x="165.14" y="167.04" width="10.61" height="17.3"/><rect class="cls-27" x="135.95" y="186.95" width="18.23" height="2.61"/><rect class="cls-26" x="139.15" y="184.34" width="15.02" height="2.61"/><rect class="cls-6" x="145.42" y="167.04" width="8.76" height="17.3"/><polygon class="cls-23" points="135.95 186.95 135.95 159.14 154.18 159.14 154.18 167.04 145.42 167.04 145.42 184.34 139.15 184.34 139.15 186.95 135.95 186.95"/><rect class="cls-28" x="132.98" y="159.14" width="2.97" height="30.43"/><text class="cls-29" transform="translate(168.3 157.43)">HOSPITAL</text><rect class="cls-20" x="125.2" y="30.84" width="79.6" height="3.8"/><rect class="cls-20" x="170.34" y="26.21" width="24.92" height="0.75"/><rect class="cls-20" x="197.32" y="228.19" width="6.67" height="0.75" transform="translate(423.45 -171.11) rotate(90)"/><rect class="cls-20" x="192.22" y="228.19" width="6.67" height="0.75" transform="translate(418.34 -166.01) rotate(90)"/><rect class="cls-20" x="187.11" y="228.19" width="6.67" height="0.75" transform="translate(413.23 -160.9) rotate(90)"/><rect class="cls-20" x="182" y="228.19" width="6.67" height="0.75" transform="translate(408.13 -155.79) rotate(90)"/><rect class="cls-20" x="176.89" y="228.19" width="6.67" height="0.75" transform="translate(403.02 -150.68) rotate(90)"/><rect class="cls-30" x="126.62" y="34.63" width="24.49" height="1.47"/><rect class="cls-17" x="151.11" y="34.63" width="52.59" height="1.47"/><rect class="cls-6" x="155.53" y="41.85" width="43.24" height="0.85"/><rect class="cls-6" x="155.5" y="56.37" width="43.24" height="0.85"/><rect class="cls-6" x="155.5" y="72.51" width="43.24" height="0.85"/><rect class="cls-6" x="155.5" y="88.65" width="43.24" height="0.85"/><rect class="cls-6" x="155.5" y="104.79" width="43.24" height="0.85"/><rect class="cls-6" x="155.56" y="120.93" width="43.24" height="0.85"/><rect class="cls-6" x="155.5" y="137.07" width="43.24" height="0.85"/><rect class="cls-6" x="197.88" y="137.07" width="0.85" height="9.45"/><rect class="cls-6" x="197.88" y="120.93" width="0.85" height="11.58"/><rect class="cls-6" x="197.88" y="104.79" width="0.85" height="11.58"/><rect class="cls-6" x="197.88" y="88.65" width="0.85" height="11.58"/><rect class="cls-6" x="197.88" y="72.51" width="0.85" height="11.58"/><rect class="cls-6" x="197.88" y="56.37" width="0.85" height="11.58"/><rect class="cls-6" x="197.88" y="41.85" width="0.85" height="9.97"/><rect class="cls-17" x="38.15" y="142.86" width="88.48" height="2.11"/><polygon class="cls-20" points="126.62 138.92 39.9 138.92 36.91 142.86 126.62 142.86 126.62 138.92"/><rect class="cls-31" x="75.64" y="170.17" width="13.53" height="1.92"/><rect class="cls-31" x="108.32" y="170.17" width="13.53" height="1.92"/><rect class="cls-7" x="96.04" y="174.53" width="11.11" height="5.7"/><polygon class="cls-8" points="96.04 174.53 96.04 175.71 101.59 175.71 101.59 180.22 102.59 180.22 102.59 175.71 107.15 175.71 107.15 174.53 96.04 174.53"/><rect class="cls-6" x="96.04" y="173.74" width="11.11" height="0.78"/><rect class="cls-6" x="94.83" y="173.74" width="1.21" height="6.48"/><rect class="cls-7" x="63.15" y="174.53" width="11.11" height="5.7"/><polygon class="cls-8" points="63.15 174.53 63.15 175.71 68.7 175.71 68.7 180.22 69.7 180.22 69.7 175.71 74.25 175.71 74.25 174.53 63.15 174.53"/><rect class="cls-6" x="63.15" y="173.74" width="11.11" height="0.78"/><rect class="cls-6" x="61.94" y="173.74" width="1.21" height="6.48"/><rect class="cls-7" x="45.55" y="174.53" width="11.11" height="5.7"/><polygon class="cls-8" points="45.55 174.53 45.55 175.71 51.1 175.71 51.1 180.22 52.1 180.22 52.1 175.71 56.66 175.71 56.66 174.53 45.55 174.53"/><rect class="cls-6" x="45.55" y="173.74" width="11.11" height="0.78"/><rect class="cls-6" x="44.34" y="173.74" width="1.21" height="6.48"/><rect class="cls-6" x="43.91" y="149.15" width="1.21" height="6.48"/><rect class="cls-6" x="43.91" y="160.77" width="1.21" height="6.48"/><rect class="cls-32" x="86.47" y="170.17" width="2.71" height="1.92"/><rect class="cls-32" x="119.15" y="170.17" width="2.71" height="1.92"/><rect class="cls-6" x="80.13" y="174.35" width="9.04" height="15.21"/><polygon class="cls-32" points="80.13 189.56 78.63 189.56 78.63 173.75 89.17 173.75 89.17 174.35 80.13 174.35 80.13 189.56"/><rect class="cls-6" x="112.81" y="174.35" width="9.04" height="15.21"/><polygon class="cls-32" points="112.81 189.56 111.31 189.56 111.31 173.75 121.85 173.75 121.85 174.35 112.81 174.35 112.81 189.56"/><rect class="cls-20" x="64.82" y="96.62" width="61.8" height="4.27"/><rect class="cls-18" x="66.67" y="100.9" width="24.85" height="1.78"/><rect class="cls-19" x="91.52" y="100.9" width="35.1" height="1.78"/><rect class="cls-7" x="98.05" y="105.64" width="28.57" height="7.5"/><rect class="cls-7" x="109.07" y="118.08" width="8.91" height="6.74"/><rect class="cls-7" x="120.31" y="118.08" width="6.31" height="6.74"/><rect class="cls-6" x="109.07" y="118.08" width="8.91" height="0.78"/><rect class="cls-6" x="76.21" y="118.08" width="30.47" height="0.78"/><rect class="cls-6" x="117.2" y="118.08" width="0.78" height="6.74"/><rect class="cls-6" x="125.82" y="118.08" width="0.78" height="6.74"/><rect class="cls-6" x="120.31" y="118.08" width="6.3" height="0.78"/><rect class="cls-8" x="109.07" y="118.86" width="8.13" height="0.94"/><rect class="cls-8" x="116.26" y="118.86" width="0.94" height="5.96"/><rect class="cls-8" x="124.88" y="118.86" width="0.94" height="5.96"/><rect class="cls-8" x="120.31" y="118.86" width="5.51" height="0.94"/><rect class="cls-7" x="109.07" y="128.5" width="8.91" height="6.74"/><rect class="cls-7" x="120.31" y="128.5" width="6.31" height="6.74"/><rect class="cls-6" x="109.07" y="128.5" width="8.91" height="0.78"/><rect class="cls-6" x="117.2" y="128.5" width="0.78" height="6.74"/><rect class="cls-6" x="120.31" y="128.5" width="6.3" height="0.78"/><rect class="cls-8" x="109.07" y="129.28" width="8.13" height="0.94"/><rect class="cls-8" x="116.26" y="129.28" width="0.94" height="5.96"/><rect class="cls-8" x="124.88" y="129.28" width="0.94" height="5.96"/><rect class="cls-8" x="120.31" y="129.28" width="5.51" height="0.94"/><rect class="cls-4" x="76.21" y="118.08" width="0.85" height="17.16"/><rect class="cls-33" x="98.05" y="105.64" width="28.57" height="1.23"/><polygon class="cls-8" points="98.05 113.14 98.05 106.88 126.62 106.88 126.62 108.66 98.05 113.14"/><rect class="cls-20" x="35.58" y="189.56" width="256.79" height="4.94"/></svg>