<svg id="Layer_1" data-name="Layer 1" xmlns="http://www.w3.org/2000/svg" viewBox="0 0 231.65 49.19"><defs><style>.cls-1{fill:#010101;}</style></defs><title>line-02</title><path class="cls-1" d="M411.8,321.64a120.07,120.07,0,0,1-39.57-14.55c-9.73-5.62-18.45-13.22-21.67-24.34-.35-1.23,1.52-1.93,1.88-.69,3.42,11.81,13.19,19.26,23.59,24.86a118.84,118.84,0,0,0,36.12,12.76A1,1,0,0,1,411.8,321.64Z" transform="translate(-181.29 -272.47)"/><path class="cls-1" d="M248.52,272.47A120.31,120.31,0,0,0,207,279.85c-10.56,3.83-20.49,9.78-25.6,20.17-.57,1.15,1.15,2.16,1.72,1,5.44-11,16.37-16.65,27.59-20.34a118.81,118.81,0,0,1,37.8-6.22A1,1,0,0,0,248.52,272.47Z" transform="translate(-181.29 -272.47)"/></svg>