<svg id="Layer_1" data-name="Layer 1" xmlns="http://www.w3.org/2000/svg" viewBox="0 0 474.85 362.68"><defs><style>.cls-1{fill:#404d51;opacity:0.21;}.cls-2{fill:#efeeed;}.cls-3{fill:#fff;}</style></defs><title>paper</title><path class="cls-1" d="M472.63,134.74l-.05-8.09L468.12,119l-4.5,7.89-4.09,7.19L455.36,127l-4.59-7.83-4.5,7.89-4.08,7.18L438,127.09l-4.59-7.84-4.49,7.9-4.09,7.18-4.18-7.13-4.59-7.84-4.49,7.89-4.09,7.18-4.18-7.13-4.59-7.84-4.49,7.9-4.09,7.18L386,127.41l-4.59-7.84-4.49,7.89-4.09,7.19-4.18-7.13L364,119.68l-4.49,7.89-4.09,7.18-4.17-7.13-4.59-7.84-4.5,7.9-4.09,7.18-4.17-7.13-4.59-7.84-4.5,7.89L320.75,135l-4.18-7.14L312,120l-4.49,7.9-4.09,7.18-4.18-7.13-4.59-7.84-4.49,7.9-4.09,7.18-4.18-7.13-4.59-7.84-4.49,7.89-4.09,7.18-4.18-7.13-4.59-7.84-4.49,7.9-4.09,7.18-4.18-7.13-4.59-7.84-4.49,7.89L234,135.5l-4.17-7.14-4.59-7.83-4.5,7.89-4.09,7.18-4.17-7.13-4.59-7.84-4.5,7.9-4.08,7.18-4.18-7.13-4.59-7.84-4.49,7.89L182,135.82l-4.18-7.14-4.59-7.83-4.49,7.89-4.09,7.18-4.18-7.13L155.84,121l-4.49,7.9L147.27,136h0l-4.17-7.11-4.59-7.84L134,129,130,136h-.14l-4.11-7-4.59-7.84-4.49,7.9-4,6.95h-.27l-4-6.9-4.59-7.84-4.5,7.89L95.41,136H95l-4-6.8-4.59-7.83L82,129.27,78.12,136H77.6l-3.91-6.69-4.59-7.84-4.49,7.9L60.83,136h-.62V440.4a27.25,27.25,0,0,0,27.24,27.24H445.34a27.24,27.24,0,0,0,27.24-27.24V136Z" transform="translate(-60.21 -104.96)"/><path class="cls-2" d="M58.65,31.55H363.08a0,0,0,0,1,0,0V347.83a0,0,0,0,1,0,0H63.85a25.06,25.06,0,0,1-25.06-25.06V51.42A19.87,19.87,0,0,1,58.65,31.55Z"/><path class="cls-3" d="M535.06,120.67l0-8.09L530.56,105l-4.5,7.89L522,120l-4.17-7.14-4.59-7.83-4.5,7.89-4.09,7.18L500.45,113l-4.59-7.84-4.49,7.9-4.09,7.18-4.18-7.13-4.59-7.84L474,113.17l-4.09,7.19-4.18-7.14-4.59-7.84-4.49,7.9-4.09,7.18-4.18-7.13-4.59-7.84-4.49,7.9-4.09,7.18-4.18-7.13-4.59-7.84L422,113.49l-4.09,7.18-4.17-7.13-4.59-7.84-4.5,7.9-4.09,7.18-4.17-7.13-4.59-7.84-4.5,7.89-4.09,7.19L379,113.75l-4.59-7.83-4.5,7.89L365.84,121l-4.18-7.13L357.07,106l-4.49,7.9-4.09,7.18L344.31,114l-4.59-7.84L335.23,114l-4.09,7.19L327,114.07l-4.59-7.84-4.49,7.9-4.09,7.18-4.18-7.13L305,106.34l-4.49,7.9-4.09,7.18-4.17-7.13-4.59-7.84-4.5,7.89-4.09,7.18-4.17-7.13-4.59-7.84-4.5,7.9-4.09,7.18-4.17-7.13L253,106.66l-4.5,7.89-4.08,7.19-4.18-7.14-4.59-7.83-4.49,7.89-4.09,7.18-4.18-7.13-4.59-7.84-4.49,7.9-4.08,7.16h0l-4.17-7.11L200.93,107l-4.49,7.89-4,7.06h-.14l-4.11-7-4.59-7.84-4.49,7.9-4,7h-.26l-4-6.9-4.59-7.84-4.5,7.9-3.89,6.84h-.4l-4-6.79-4.59-7.84-4.5,7.89-3.83,6.74H140l-3.91-6.69-4.59-7.84-4.5,7.9-3.77,6.63h-.62V446.44a7.12,7.12,0,0,0,7.12,7.12h378A27.24,27.24,0,0,0,535,426.32V121.93Z" transform="translate(-60.21 -104.96)"/></svg>