<svg id="Layer_1" data-name="Layer 1" xmlns="http://www.w3.org/2000/svg" viewBox="0 0 595.28 283.46"><defs><style>.cls-1{fill:#c98558;}.cls-2{fill:#f2a670;}.cls-3{fill:#c9a172;}.cls-4{fill:#fff;}.cls-10,.cls-5,.cls-6,.cls-7{fill:none;stroke-miterlimit:10;}.cls-5{stroke:#f2a670;}.cls-10,.cls-5{stroke-width:1.24px;}.cls-6{stroke:#c9a172;stroke-width:0.62px;}.cls-7{stroke:#fff;stroke-width:1.86px;}.cls-8{fill:#d1e5d3;}.cls-9{fill:#b1aa80;}.cls-10{stroke:#d1e5d3;}</style></defs><title>plan</title><polygon class="cls-1" points="121.59 215.41 121.1 219.59 107.84 219.9 106.16 196.65 92.42 197.26 91.73 203.94 82.74 205.99 83.17 188.87 66.62 188.36 66.62 186.47 60.47 184.44 44.44 190.91 19.91 191.54 20.17 198.57 15.18 198.57 15.18 201.07 13.63 201.2 13.63 198.76 12.39 198.63 12.39 192.39 10.54 192.39 10.54 185.91 8.37 186.3 8.37 179.71 -0.93 179.71 -0.93 252.37 126.12 252.37 126.12 215.58 121.59 215.41"/><polygon class="cls-1" points="592.59 223.15 587.09 200.21 573.35 200.82 572.66 207.5 568 209.01 564.11 192.43 547.55 191.91 547.55 190.03 541.4 188 525.37 194.47 500.84 195.09 501.1 202.13 496.12 202.13 496.12 204.63 494.56 204.75 494.56 202.31 493.33 202.19 493.33 195.94 491.47 195.94 491.47 189.47 489.3 189.86 489.3 183.27 474.73 183.27 474.73 215.93 459.55 216.06 459.55 211.95 458 211.43 458 210.15 457.38 210.41 457.38 211.31 456.76 211.43 456.76 215.93 454.9 215.54 454.9 213.23 453.66 213.49 453.66 210.66 452.11 210.92 452.11 213.23 451.18 212.97 451.18 215.93 449.01 216.06 449.01 213.26 447.93 213.26 447.03 216.04 445.61 216.04 445.61 220.04 442.51 219.65 442.51 216.83 440.96 217.09 440.96 214.52 439.1 214 439.1 210.78 434.14 210.78 434.14 221.71 434.14 255.92 594.04 255.92 594.04 223.15 592.59 223.15"/><polygon class="cls-1" points="267.74 221.55 267.74 210.63 272.69 210.63 272.69 213.85 274.55 214.36 274.55 216.93 276.1 216.67 276.1 219.5 279.2 219.88 279.2 215.88 280.62 215.88 281.52 213.1 282.61 213.1 282.61 215.9 284.78 215.77 284.78 212.82 285.71 213.08 285.71 210.76 287.26 210.51 287.26 213.33 288.5 213.08 288.5 215.39 290.36 215.77 290.36 211.28 290.98 211.15 290.98 210.25 291.6 209.99 291.6 211.28 293.14 211.79 293.14 215.9 308.33 215.77 308.33 183.12 322.89 183.12 322.89 189.7 325.06 189.32 325.06 195.79 326.92 195.79 326.92 202.03 328.16 202.16 328.16 204.6 329.71 204.47 329.71 201.97 334.69 201.97 334.44 194.94 358.96 194.31 375 187.84 381.15 189.87 381.15 191.76 397.7 192.27 401.6 208.86 406.25 207.34 406.95 200.66 420.69 200.06 426.18 223 435.62 223 436.12 218.81 440.65 218.99 440.65 255.77 267.74 255.77 267.74 221.55"/><polygon class="cls-1" points="516.26 221.71 516.26 210.78 511.3 210.78 511.3 214 509.44 214.52 509.44 217.09 507.89 216.83 507.89 219.65 504.79 220.04 504.79 216.04 503.37 216.04 502.47 213.26 501.38 213.26 501.38 216.06 499.21 215.93 499.21 212.97 498.28 213.23 498.28 210.92 496.73 210.66 496.73 213.49 495.5 213.23 495.5 215.54 493.64 215.93 493.64 211.43 493.02 211.31 493.02 210.41 492.4 210.15 492.4 211.43 490.85 211.95 490.85 216.06 475.66 215.93 475.66 183.27 461.1 183.27 461.1 189.86 458.93 189.47 458.93 195.94 457.07 195.94 457.07 202.19 455.83 202.31 455.83 204.75 454.28 204.63 454.28 202.13 449.3 202.13 449.56 195.09 425.03 194.47 408.99 188 402.84 190.03 402.84 191.91 386.29 192.43 382.39 209.01 377.74 207.5 377.04 200.82 363.31 200.21 357.81 223.15 348.37 223.15 347.87 218.96 343.35 219.14 343.35 255.92 516.26 255.92 516.26 221.71"/><polygon class="cls-1" points="295.62 218.15 295.62 207.23 290.67 207.23 290.67 210.45 288.81 210.96 288.81 213.53 287.26 213.27 287.26 216.1 284.16 216.48 284.16 212.49 282.74 212.49 281.83 209.7 280.75 209.7 280.75 212.5 278.58 212.37 278.58 209.42 277.65 209.68 277.65 207.36 276.1 207.11 276.1 209.93 274.86 209.68 274.86 211.99 273 212.37 273 207.88 272.38 207.75 272.38 206.85 271.76 206.59 271.76 207.88 270.21 208.39 270.21 212.5 255.03 212.37 255.03 179.71 240.47 179.71 240.47 186.3 238.3 185.91 238.3 192.39 236.44 192.39 236.44 198.63 235.2 198.76 235.2 201.2 233.65 201.07 233.65 198.57 228.67 198.57 227.76 192.08 204.4 190.91 188.36 184.44 182.21 186.47 182.21 188.36 165.66 188.87 166.4 203.21 157.1 203.94 156.41 197.26 138.51 197.65 137.18 219.59 127.73 219.59 127.24 215.41 122.71 215.58 122.71 252.37 295.62 252.37 295.62 218.15"/><path class="cls-2" d="M119.86,175c1.63-.6,1.23,5.14,1.23,5.14,1.12,0,.76,4.37.76,4.37,2.14,0,.84,3.86,1.25,4.28,1.4,1.39-.13,1.71,1.93,4.79a11.7,11.7,0,0,1,1.86,6.51V250.2H113V200.09a13,13,0,0,1,2.06-6.51c2.06-3.08.71-3.4,2.11-4.79.41-.42-.88-4.28,1.26-4.28,0,0-.35-4.37.76-4.37,0,0-.52-5.74,1.12-5.14"/><polygon class="cls-2" points="248.68 249.89 248.68 198.24 248.06 197.66 248.06 189.92 246.2 189.92 246.2 178.17 244.34 178.17 244.34 175.39 243.41 175.39 243.41 173.22 241.24 173.22 241.24 170.44 239.69 170.44 239.69 167.35 238.76 167.35 238.76 164.57 237.83 164.57 237.83 162.71 237.83 162.71 236.93 162.71 236.28 162.71 236.28 164.57 234.73 164.57 234.73 167.35 234.11 167.35 234.11 170.44 232.25 170.44 232.25 173.22 231.01 173.22 231.01 175.39 229.46 175.39 229.46 178.17 227.6 178.17 227.6 189.92 226.05 189.92 226.05 197.66 225.13 198.24 225.13 249.89 248.68 249.89"/><polygon class="cls-2" points="99.63 250.82 99.63 203.56 98.39 203.03 98.39 196.1 94.98 196.1 94.98 185.28 91.57 185.28 91.57 182.81 90.02 182.81 90.02 180.64 85.99 180.64 85.99 178.17 83.2 178.17 83.2 175.39 81.34 175.39 81.34 172.6 79.79 172.6 79.79 171.06 79.79 171.06 78.15 171.06 77 171.06 77 172.6 74.22 172.6 74.22 175.39 72.98 175.39 72.98 178.17 69.57 178.17 69.57 180.64 67.4 180.64 67.4 182.81 64.61 182.81 64.61 185.28 61.2 185.28 61.2 196.1 58.1 196.1 58.1 203.03 56.55 203.56 56.55 250.82 99.63 250.82"/><polygon class="cls-2" points="595.69 239.03 595.5 219.5 592.9 217.09 592.63 213.48 587.27 213.48 587.1 216.92 585.13 217.05 585.14 223.89 584.08 224.21 584.08 229.52 582.06 229.69 581.67 226.27 578.79 225.58 578.79 221.3 576.92 220.96 576.92 218.22 567.42 217.96 567.35 222.07 544.03 220.79 542.01 226.1 501.07 226.44 500.92 230.01 482.88 230.11 482.53 218.12 467.09 218.12 467.36 246.04 464.42 246.13 464.33 219.52 455.31 213.35 454.87 222.08 453.26 222.92 452.73 219.66 451.83 219.66 451.3 221.82 448.48 221.82 448.48 234.5 440.09 234.5 440.36 248.41 436.66 248.41 436.66 246.06 430.75 245.81 430.75 248.41 425.63 248.41 425.81 241.3 420.28 241.3 419.93 225.53 408.5 225.53 408.33 230.79 405.29 230.79 405.11 234.19 402.76 234.19 402.76 239.9 401.93 239.64 401.74 220.12 399.14 217.71 398.87 214.1 393.51 214.1 393.34 217.54 391.37 217.67 391.38 224.5 390.32 224.83 390.32 230.14 388.3 230.31 387.92 226.88 385.03 226.2 385.03 221.92 383.17 221.58 383.17 218.84 373.66 218.58 373.6 221.04 350.28 221.41 350.2 226.71 307.31 227.06 307.17 230.63 289.12 230.73 288.77 218.73 273.33 218.73 273.6 246.66 270.66 246.75 270.57 220.14 261.56 213.97 261.11 222.69 259.5 223.54 258.97 220.28 258.08 220.28 257.54 222.44 254.72 222.44 254.72 234.5 246.33 234.5 246.6 248.41 242.9 248.41 242.9 246.06 236.99 245.81 236.99 248.41 231.88 248.41 232.06 241.3 226.52 241.3 226.17 225.53 214.75 225.53 214.57 230.79 211.53 230.79 211.36 234.19 209 234.19 209 239.9 208.17 239.64 207.98 220.12 205.38 217.71 205.11 214.1 199.76 214.1 199.58 217.54 197.62 217.67 197.62 224.5 196.56 224.83 196.56 230.14 194.54 230.31 194.16 226.88 191.27 226.2 191.27 221.92 189.41 221.58 189.41 218.84 179.91 218.58 179.86 221.51 156.52 221.41 154.49 226.71 113.56 227.06 113.41 230.63 95.36 230.73 95.01 218.73 79.58 218.73 79.72 234.19 76.86 234.19 76.81 220.14 67.8 213.97 67.35 222.69 65.75 223.54 65.21 220.28 64.32 220.28 63.78 222.44 60.96 222.44 60.96 248.1 57.71 248.1 57.89 240.99 52.36 240.99 52 225.22 40.58 225.22 40.4 230.48 37.37 230.48 37.19 233.88 34.84 233.88 34.84 239.59 34.01 239.33 33.81 217.42 31.53 217.4 30.64 213.79 26.53 213.79 25.73 217.23 23.45 217.36 23.41 230.14 20.07 230 19.99 225.96 17.11 225.89 17.11 221.61 15.24 221.27 15.24 218.53 5.74 218.27 5.67 222.38 -0.93 222.33 -0.93 253.98 60.96 253.98 60.96 254.29 254.72 254.29 448.48 254.29 448.48 253.67 596.21 253.67 596.21 239.19 595.69 239.03"/><polygon class="cls-2" points="282.61 191.46 282.61 256.38 300.58 256.38 300.58 191.46 296.65 191.46 296.39 182.5 294.59 182.5 294.45 184.82 293.14 184.76 293.14 180.02 289.43 180.02 289.43 185.28 289.12 185.28 289.01 183 286.33 182.52 286.33 191.46 282.61 191.46"/><path class="cls-2" d="M465,164.28c1.25-.7.95,6,.95,6,.85,0,.58,5.08.58,5.08,1.65,0,.64,4.5,1,5,1.08,1.62-.15,2,1.44,5.58a18.88,18.88,0,0,1,1.38,7.57v58.29H459.77V193.46a20.52,20.52,0,0,1,1.54-7.57c1.58-3.59.52-4,1.59-5.58.32-.48-.69-5,1-5,0,0-.27-5.08.58-5.08,0,0-.4-6.67.86-6"/><rect class="cls-3" x="148.74" y="197.03" width="18.9" height="58.43"/><rect class="cls-4" x="151.22" y="199.5" width="1.86" height="5.26"/><rect class="cls-4" x="154.94" y="199.5" width="1.86" height="5.26"/><rect class="cls-4" x="158.35" y="199.5" width="2.17" height="5.26"/><rect class="cls-4" x="151.22" y="205.99" width="1.86" height="5.26"/><rect class="cls-4" x="154.94" y="205.99" width="1.86" height="5.26"/><rect class="cls-4" x="158.35" y="205.99" width="2.17" height="5.26"/><rect class="cls-4" x="162.38" y="205.99" width="2.17" height="5.26"/><rect class="cls-4" x="154.94" y="212.79" width="1.86" height="4.95"/><rect class="cls-4" x="158.35" y="224.85" width="2.17" height="5.26"/><rect class="cls-4" x="162.38" y="224.85" width="2.17" height="5.26"/><rect class="cls-4" x="154.94" y="235.98" width="1.86" height="4.95"/><rect class="cls-4" x="151.22" y="224.85" width="1.86" height="5.26"/><rect class="cls-4" x="158.35" y="218.36" width="2.17" height="4.95"/><rect class="cls-4" x="158.35" y="235.98" width="2.17" height="4.95"/><rect class="cls-4" x="162.38" y="235.98" width="2.17" height="4.95"/><rect class="cls-4" x="151.22" y="243.4" width="1.86" height="4.64"/><rect class="cls-4" x="154.94" y="243.4" width="1.86" height="4.64"/><rect class="cls-4" x="158.35" y="243.4" width="2.17" height="4.64"/><rect class="cls-4" x="162.38" y="243.4" width="2.17" height="4.64"/><rect class="cls-2" x="508.74" y="98.41" width="34.71" height="11.13"/><polygon class="cls-2" points="507.04 238.76 504.32 109.73 525.93 101.87 549.26 109.73 545.76 238.76 507.04 238.76"/><rect class="cls-2" x="507.19" y="238.76" width="39.04" height="17"/><rect class="cls-2" x="522.68" y="81.09" width="6.82" height="34.32"/><line class="cls-5" x1="525.16" y1="85.42" x2="525.16" y2="60.07"/><rect class="cls-3" x="185" y="154.98" width="16.42" height="14.53"/><rect class="cls-4" x="186.86" y="157.15" width="12.4" height="10.2"/><polygon class="cls-3" points="180.97 255.46 206.88 255.46 204.6 169.51 180.97 169.51 180.97 255.46"/><rect class="cls-4" x="185.62" y="190.53" width="15.8" height="60.9"/><rect class="cls-4" x="185.62" y="173.53" width="15.8" height="13.6"/><line class="cls-6" x1="197.7" y1="169.51" x2="197.7" y2="252.37"/><line class="cls-6" x1="205.14" y1="177.24" x2="183.76" y2="177.24"/><line class="cls-6" x1="205.14" y1="194.24" x2="183.76" y2="194.24"/><line class="cls-6" x1="204.21" y1="198.26" x2="182.21" y2="198.26"/><line class="cls-6" x1="189.65" y1="173.53" x2="189.65" y2="252.37"/><line class="cls-6" x1="204.21" y1="181.26" x2="182.21" y2="181.26"/><line class="cls-6" x1="205.14" y1="184.97" x2="183.76" y2="184.97"/><line class="cls-6" x1="193.67" y1="157.15" x2="193.67" y2="252.37"/><line class="cls-6" x1="204.21" y1="201.36" x2="182.21" y2="201.36"/><line class="cls-6" x1="204.21" y1="212.79" x2="182.21" y2="212.79"/><line class="cls-6" x1="203.59" y1="216.5" x2="181.9" y2="216.5"/><line class="cls-6" x1="203.59" y1="205.07" x2="181.9" y2="205.07"/><line class="cls-6" x1="204.21" y1="208.77" x2="182.21" y2="208.77"/><line class="cls-6" x1="204.21" y1="219.9" x2="182.21" y2="219.9"/><line class="cls-6" x1="203.59" y1="224.23" x2="181.9" y2="224.23"/><line class="cls-6" x1="203.59" y1="227.63" x2="181.9" y2="227.63"/><line class="cls-6" x1="203.59" y1="238.76" x2="181.9" y2="238.76"/><line class="cls-6" x1="205.14" y1="242.16" x2="183.76" y2="242.16"/><line class="cls-6" x1="205.14" y1="231.34" x2="183.76" y2="231.34"/><line class="cls-6" x1="203.59" y1="235.05" x2="181.9" y2="235.05"/><line class="cls-6" x1="204.21" y1="245.56" x2="182.21" y2="245.56"/><line class="cls-6" x1="203.59" y1="249.58" x2="181.9" y2="249.58"/><line class="cls-6" x1="200.18" y1="162.4" x2="186.24" y2="162.4"/><polygon class="cls-3" points="204.52 255.46 231.48 255.46 231.48 180.91 204.52 169.55 204.52 255.46"/><polygon class="cls-4" points="203.59 251.44 228.69 251.28 228.69 183.93 203.59 173.64 203.59 251.44"/><line class="cls-6" x1="218.15" y1="177.24" x2="218.15" y2="251.44"/><line class="cls-6" x1="220.63" y1="177.86" x2="202.66" y2="177.86"/><line class="cls-6" x1="229.62" y1="181.88" x2="202.66" y2="181.88"/><line class="cls-6" x1="210.1" y1="173.22" x2="210.1" y2="251.44"/><line class="cls-6" x1="214.13" y1="175.08" x2="214.13" y2="251.44"/><line class="cls-6" x1="229.62" y1="184.97" x2="202.66" y2="184.97"/><line class="cls-6" x1="229.62" y1="196.41" x2="202.66" y2="196.41"/><line class="cls-6" x1="229.62" y1="200.12" x2="202.35" y2="200.12"/><line class="cls-6" x1="229.66" y1="188.19" x2="202.32" y2="188.64"/><line class="cls-6" x1="229.62" y1="192.39" x2="202.66" y2="192.39"/><line class="cls-6" x1="229.62" y1="203.52" x2="202.66" y2="203.52"/><line class="cls-6" x1="229.62" y1="207.85" x2="202.35" y2="207.85"/><line class="cls-6" x1="229.62" y1="211.25" x2="202.35" y2="211.25"/><line class="cls-6" x1="229.62" y1="222.38" x2="202.35" y2="222.38"/><line class="cls-6" x1="229.66" y1="225.91" x2="202.78" y2="226.37"/><line class="cls-6" x1="229.62" y1="214.96" x2="202.66" y2="214.96"/><line class="cls-6" x1="229.62" y1="218.67" x2="202.35" y2="218.67"/><line class="cls-6" x1="229.62" y1="229.18" x2="202.66" y2="229.18"/><line class="cls-6" x1="229.62" y1="233.2" x2="202.35" y2="233.2"/><line class="cls-6" x1="222.49" y1="180.02" x2="222.49" y2="252.67"/><line class="cls-6" x1="226.52" y1="180.02" x2="226.52" y2="252.37"/><line class="cls-6" x1="206.38" y1="172.6" x2="206.38" y2="251.44"/><line class="cls-6" x1="230.24" y1="244.02" x2="202.66" y2="244.02"/><line class="cls-6" x1="230.11" y1="247.73" x2="203.23" y2="248.18"/><line class="cls-6" x1="230.24" y1="236.91" x2="203.28" y2="236.91"/><line class="cls-6" x1="230.24" y1="240.31" x2="202.66" y2="240.31"/><rect class="cls-3" x="498.28" y="187.13" width="11.16" height="9.89"/><rect class="cls-4" x="499.83" y="188.68" width="8.37" height="6.8"/><polygon class="cls-3" points="512.23 255.46 494.56 255.46 496.12 197.03 512.23 197.03 512.23 255.46"/><rect class="cls-4" x="498.28" y="211.25" width="10.85" height="41.43"/><rect class="cls-4" x="498.28" y="199.81" width="10.85" height="9.27"/><line class="cls-6" x1="500.76" y1="197.03" x2="500.76" y2="253.29"/><line class="cls-6" x1="495.8" y1="202.28" x2="510.37" y2="202.28"/><line class="cls-6" x1="495.8" y1="213.72" x2="510.37" y2="213.72"/><line class="cls-6" x1="496.42" y1="216.5" x2="511.3" y2="216.5"/><line class="cls-6" x1="506.34" y1="199.81" x2="506.34" y2="253.29"/><line class="cls-6" x1="496.42" y1="205.07" x2="511.3" y2="205.07"/><line class="cls-6" x1="495.8" y1="207.54" x2="510.37" y2="207.54"/><line class="cls-6" x1="503.55" y1="188.68" x2="503.55" y2="253.29"/><line class="cls-6" x1="496.42" y1="218.67" x2="511.3" y2="218.67"/><line class="cls-6" x1="496.42" y1="226.4" x2="511.3" y2="226.4"/><line class="cls-6" x1="496.73" y1="228.87" x2="511.61" y2="228.87"/><line class="cls-6" x1="496.73" y1="221.14" x2="511.61" y2="221.14"/><line class="cls-6" x1="496.42" y1="223.61" x2="511.3" y2="223.61"/><line class="cls-6" x1="496.42" y1="231.34" x2="511.3" y2="231.34"/><line class="cls-6" x1="496.73" y1="234.13" x2="511.61" y2="234.13"/><line class="cls-6" x1="496.73" y1="236.6" x2="511.61" y2="236.6"/><line class="cls-6" x1="496.73" y1="244.02" x2="511.61" y2="244.02"/><line class="cls-6" x1="495.8" y1="246.49" x2="510.37" y2="246.49"/><line class="cls-6" x1="495.8" y1="239.07" x2="510.37" y2="239.07"/><line class="cls-6" x1="496.73" y1="241.55" x2="511.61" y2="241.55"/><line class="cls-6" x1="496.42" y1="248.66" x2="511.3" y2="248.66"/><line class="cls-6" x1="496.73" y1="251.44" x2="511.61" y2="251.44"/><line class="cls-6" x1="499.21" y1="192.08" x2="508.51" y2="192.08"/><polygon class="cls-3" points="496.12 255.46 477.83 255.46 477.83 204.76 496.12 197.03 496.12 255.46"/><polygon class="cls-4" points="496.73 252.72 479.69 252.62 479.69 206.81 496.73 199.81 496.73 252.72"/><line class="cls-6" x1="486.82" y1="202.28" x2="486.82" y2="252.67"/><line class="cls-6" x1="485.27" y1="202.59" x2="497.35" y2="202.59"/><line class="cls-6" x1="479.07" y1="205.37" x2="497.35" y2="205.37"/><line class="cls-6" x1="492.4" y1="199.5" x2="492.4" y2="252.67"/><line class="cls-6" x1="489.61" y1="200.74" x2="489.61" y2="252.67"/><line class="cls-6" x1="479.07" y1="207.54" x2="497.35" y2="207.54"/><line class="cls-6" x1="479.07" y1="215.27" x2="497.35" y2="215.27"/><line class="cls-6" x1="479.07" y1="217.74" x2="497.66" y2="217.74"/><line class="cls-6" x1="479.07" y1="209.7" x2="497.66" y2="210.01"/><line class="cls-6" x1="479.07" y1="212.48" x2="497.35" y2="212.48"/><line class="cls-6" x1="479.07" y1="220.21" x2="497.35" y2="220.21"/><line class="cls-6" x1="479.07" y1="223" x2="497.66" y2="223"/><line class="cls-6" x1="479.07" y1="225.47" x2="497.66" y2="225.47"/><line class="cls-6" x1="479.07" y1="232.89" x2="497.66" y2="232.89"/><line class="cls-6" x1="479.07" y1="235.36" x2="497.35" y2="235.67"/><line class="cls-6" x1="479.07" y1="227.94" x2="497.35" y2="227.94"/><line class="cls-6" x1="479.07" y1="230.42" x2="497.66" y2="230.42"/><line class="cls-6" x1="479.07" y1="237.53" x2="497.35" y2="237.53"/><line class="cls-6" x1="479.07" y1="240.31" x2="497.66" y2="240.31"/><line class="cls-6" x1="484.03" y1="204.14" x2="484.03" y2="253.6"/><line class="cls-6" x1="481.24" y1="204.14" x2="481.24" y2="253.29"/><line class="cls-6" x1="494.88" y1="199.19" x2="494.88" y2="252.67"/><line class="cls-6" x1="478.76" y1="247.73" x2="497.35" y2="247.73"/><line class="cls-6" x1="478.76" y1="250.2" x2="497.04" y2="250.51"/><line class="cls-6" x1="478.76" y1="242.78" x2="497.04" y2="242.78"/><line class="cls-6" x1="478.76" y1="245.26" x2="497.35" y2="245.26"/><polygon class="cls-3" points="392.62 255.77 347.68 255.77 347.68 156.84 392.62 142.62 392.62 255.77"/><line class="cls-7" x1="358.53" y1="153.44" x2="358.53" y2="255.77"/><line class="cls-7" x1="380.84" y1="147.25" x2="380.84" y2="255.77"/><rect class="cls-4" x="366.28" y="240" width="6.82" height="15.46"/><rect class="cls-3" x="295.62" y="200.74" width="35.95" height="54.72"/><rect class="cls-4" x="305.23" y="221.45" width="5.58" height="1.85"/><rect class="cls-4" x="305.23" y="225.16" width="5.58" height="1.85"/><rect class="cls-4" x="305.23" y="228.56" width="5.58" height="2.16"/><rect class="cls-4" x="298.72" y="221.45" width="5.27" height="1.85"/><rect class="cls-4" x="298.72" y="225.16" width="5.27" height="1.85"/><rect class="cls-4" x="298.72" y="228.56" width="5.27" height="2.16"/><rect class="cls-4" x="298.72" y="232.58" width="5.27" height="2.16"/><rect class="cls-4" x="323.51" y="209.08" width="4.96" height="1.85"/><rect class="cls-4" x="316.7" y="212.48" width="5.27" height="2.16"/><rect class="cls-4" x="316.7" y="216.5" width="5.27" height="2.16"/><rect class="cls-4" x="305.23" y="209.08" width="5.58" height="1.85"/><rect class="cls-4" x="316.7" y="205.37" width="5.27" height="1.85"/><rect class="cls-4" x="323.51" y="212.48" width="4.96" height="2.16"/><rect class="cls-4" x="305.23" y="212.48" width="5.58" height="2.16"/><rect class="cls-4" x="305.23" y="216.5" width="5.58" height="2.16"/><rect class="cls-4" x="298.72" y="205.37" width="5.27" height="1.85"/><rect class="cls-4" x="298.72" y="209.08" width="5.27" height="1.85"/><rect class="cls-4" x="298.72" y="212.48" width="5.27" height="2.16"/><rect class="cls-4" x="298.72" y="216.5" width="5.27" height="2.16"/><rect class="cls-4" x="305.54" y="248.66" width="5.27" height="1.85"/><rect class="cls-4" x="316.7" y="228.56" width="5.27" height="1.85"/><rect class="cls-4" x="316.7" y="243.71" width="5.27" height="2.16"/><rect class="cls-4" x="316.7" y="248.66" width="5.27" height="2.16"/><rect class="cls-4" x="305.54" y="232.58" width="5.27" height="1.85"/><rect class="cls-4" x="305.54" y="236.29" width="5.27" height="1.85"/><rect class="cls-4" x="298.72" y="239.69" width="5.27" height="2.16"/><rect class="cls-4" x="305.54" y="243.71" width="5.27" height="2.16"/><rect class="cls-4" x="298.72" y="248.96" width="5.27" height="1.85"/><rect class="cls-4" x="323.2" y="240" width="5.27" height="1.85"/><rect class="cls-4" x="323.2" y="236.29" width="5.27" height="1.85"/><rect class="cls-4" x="316.7" y="232.89" width="5.27" height="1.85"/><rect class="cls-3" x="329.4" y="197.65" width="18.28" height="58.43"/><rect class="cls-4" x="333.12" y="211.87" width="10.85" height="41.43"/><rect class="cls-4" x="333.12" y="200.43" width="10.85" height="9.27"/><line class="cls-6" x1="335.6" y1="197.65" x2="335.6" y2="253.91"/><line class="cls-6" x1="330.64" y1="202.9" x2="345.2" y2="202.9"/><line class="cls-6" x1="330.64" y1="214.34" x2="345.2" y2="214.34"/><line class="cls-6" x1="331.26" y1="217.12" x2="346.13" y2="217.12"/><line class="cls-6" x1="341.18" y1="200.43" x2="341.18" y2="253.91"/><line class="cls-6" x1="331.26" y1="205.68" x2="346.13" y2="205.68"/><line class="cls-6" x1="330.64" y1="208.16" x2="345.2" y2="208.16"/><line class="cls-6" x1="338.39" y1="200.43" x2="338.39" y2="253.91"/><line class="cls-6" x1="331.26" y1="219.29" x2="346.13" y2="219.29"/><line class="cls-6" x1="331.26" y1="227.01" x2="346.13" y2="227.01"/><line class="cls-6" x1="331.57" y1="229.49" x2="346.44" y2="229.49"/><line class="cls-6" x1="331.57" y1="221.76" x2="346.44" y2="221.76"/><line class="cls-6" x1="331.26" y1="224.23" x2="346.13" y2="224.23"/><line class="cls-6" x1="331.26" y1="231.96" x2="346.13" y2="231.96"/><line class="cls-6" x1="331.57" y1="234.74" x2="346.44" y2="234.74"/><line class="cls-6" x1="331.57" y1="237.22" x2="346.44" y2="237.22"/><line class="cls-6" x1="331.57" y1="244.64" x2="346.44" y2="244.64"/><line class="cls-6" x1="330.64" y1="247.11" x2="345.2" y2="247.11"/><line class="cls-6" x1="330.64" y1="239.69" x2="345.2" y2="239.69"/><line class="cls-6" x1="331.57" y1="242.16" x2="346.44" y2="242.16"/><line class="cls-6" x1="331.26" y1="249.27" x2="346.13" y2="249.27"/><line class="cls-6" x1="331.57" y1="252.06" x2="346.44" y2="252.06"/><line class="cls-6" x1="338.39" y1="191.77" x2="338.39" y2="182.5"/><circle class="cls-3" cx="338.15" cy="180.94" r="1.38"/><polygon class="cls-3" points="344.89 198.26 331.68 198.26 334.22 190.53 342.35 190.53 344.89 198.26"/><rect class="cls-3" x="157.77" y="197.34" width="18.9" height="58.43"/><rect class="cls-4" x="160.25" y="199.81" width="1.86" height="5.26"/><rect class="cls-4" x="163.97" y="199.81" width="1.86" height="5.26"/><rect class="cls-4" x="167.38" y="199.81" width="2.17" height="5.26"/><rect class="cls-4" x="160.25" y="206.3" width="1.86" height="5.26"/><rect class="cls-4" x="163.97" y="206.3" width="1.86" height="5.26"/><rect class="cls-4" x="167.38" y="206.3" width="2.17" height="5.26"/><rect class="cls-4" x="171.4" y="206.3" width="2.17" height="5.26"/><rect class="cls-4" x="163.97" y="213.1" width="1.86" height="4.95"/><rect class="cls-4" x="167.38" y="225.16" width="2.17" height="5.26"/><rect class="cls-4" x="171.4" y="225.16" width="2.17" height="5.26"/><rect class="cls-4" x="163.97" y="236.29" width="1.86" height="4.95"/><rect class="cls-4" x="160.25" y="225.16" width="1.86" height="5.26"/><rect class="cls-4" x="167.38" y="218.67" width="2.17" height="4.95"/><rect class="cls-4" x="167.38" y="236.29" width="2.17" height="4.95"/><rect class="cls-4" x="171.4" y="236.29" width="2.17" height="4.95"/><rect class="cls-4" x="160.25" y="243.71" width="1.86" height="4.64"/><rect class="cls-4" x="163.97" y="243.71" width="1.86" height="4.64"/><rect class="cls-4" x="167.38" y="243.71" width="2.17" height="4.64"/><rect class="cls-4" x="171.4" y="243.71" width="2.17" height="4.64"/><rect class="cls-3" x="140.11" y="197.03" width="18.9" height="58.43"/><rect class="cls-4" x="154.67" y="199.5" width="1.86" height="5.26"/><rect class="cls-4" x="150.95" y="199.5" width="1.86" height="5.26"/><rect class="cls-4" x="147.23" y="199.5" width="2.17" height="5.26"/><rect class="cls-4" x="154.67" y="205.99" width="1.86" height="5.26"/><rect class="cls-4" x="150.95" y="205.99" width="1.86" height="5.26"/><rect class="cls-4" x="147.23" y="205.99" width="2.17" height="5.26"/><rect class="cls-4" x="143.2" y="205.99" width="2.17" height="5.26"/><rect class="cls-4" x="150.95" y="212.79" width="1.86" height="4.95"/><rect class="cls-4" x="147.23" y="224.85" width="2.17" height="5.26"/><rect class="cls-4" x="143.2" y="224.85" width="2.17" height="5.26"/><rect class="cls-4" x="150.95" y="235.98" width="1.86" height="4.95"/><rect class="cls-4" x="154.67" y="224.85" width="1.86" height="5.26"/><rect class="cls-4" x="147.23" y="218.36" width="2.17" height="4.95"/><rect class="cls-4" x="147.23" y="235.98" width="2.17" height="4.95"/><rect class="cls-4" x="143.2" y="235.98" width="2.17" height="4.95"/><rect class="cls-4" x="154.67" y="243.4" width="1.86" height="4.64"/><rect class="cls-4" x="150.95" y="243.4" width="1.86" height="4.64"/><rect class="cls-4" x="147.23" y="243.4" width="2.17" height="4.64"/><rect class="cls-4" x="143.2" y="243.4" width="2.17" height="4.64"/><rect class="cls-3" x="422.67" y="197.65" width="27.27" height="58.12"/><rect class="cls-4" x="425.46" y="200.43" width="21.38" height="1.85"/><rect class="cls-4" x="425.46" y="203.83" width="21.38" height="0.93"/><rect class="cls-4" x="425.46" y="205.99" width="21.38" height="1.55"/><rect class="cls-4" x="425.46" y="209.08" width="21.38" height="2.16"/><rect class="cls-4" x="425.46" y="212.79" width="21.38" height="0.31"/><rect class="cls-4" x="425.46" y="214.65" width="21.38" height="1.85"/><rect class="cls-4" x="425.46" y="218.36" width="21.38" height="2.16"/><rect class="cls-4" x="425.46" y="221.76" width="21.38" height="0.62"/><rect class="cls-4" x="425.46" y="223.61" width="21.38" height="1.55"/><rect class="cls-4" x="425.46" y="230.42" width="21.38" height="2.16"/><rect class="cls-4" x="425.46" y="234.13" width="21.38" height="0.31"/><rect class="cls-4" x="425.46" y="235.98" width="21.38" height="1.24"/><rect class="cls-4" x="425.46" y="240.62" width="21.38" height="1.85"/><rect class="cls-4" x="425.46" y="244.02" width="21.38" height="0.62"/><rect class="cls-4" x="425.46" y="246.18" width="21.38" height="1.55"/><polygon class="cls-3" points="417.41 175.69 417.41 162.71 415 162.71 413.48 155.29 407.38 155.29 401.28 155.29 399.76 162.71 397.26 162.71 397.26 175.69 392 175.69 392 255.46 397.22 255.46 402.3 255.46 407.38 255.46 412.46 255.46 417.54 255.46 422.67 255.46 422.67 175.69 417.41 175.69"/><polygon class="cls-4" points="416.17 177.86 416.17 172.6 399.12 172.6 399.12 177.86 395.71 177.86 395.71 248.04 419.88 248.04 419.88 177.86 416.17 177.86"/><rect class="cls-4" x="402.84" y="164.26" width="9.3" height="6.8"/><line class="cls-6" x1="398.81" y1="174.77" x2="416.17" y2="174.77"/><line class="cls-6" x1="407.18" y1="140.14" x2="407.18" y2="248.66"/><line class="cls-6" x1="402.84" y1="155.29" x2="402.84" y2="248.66"/><line class="cls-6" x1="412.14" y1="155.29" x2="412.14" y2="248.66"/><line class="cls-6" x1="398.81" y1="168.58" x2="398.81" y2="248.66"/><line class="cls-6" x1="416.17" y1="168.58" x2="416.17" y2="248.66"/><line class="cls-6" x1="395.71" y1="176.93" x2="419.88" y2="176.93"/><line class="cls-6" x1="395.71" y1="180.33" x2="419.88" y2="180.33"/><line class="cls-6" x1="395.71" y1="183.42" x2="419.88" y2="183.42"/><line class="cls-6" x1="395.71" y1="186.21" x2="419.88" y2="186.21"/><line class="cls-6" x1="395.71" y1="189.61" x2="419.88" y2="189.61"/><line class="cls-6" x1="395.71" y1="192.39" x2="419.88" y2="192.39"/><line class="cls-6" x1="395.71" y1="195.48" x2="419.88" y2="195.48"/><line class="cls-6" x1="395.71" y1="198.26" x2="419.88" y2="198.26"/><line class="cls-6" x1="395.71" y1="201.66" x2="419.88" y2="201.66"/><line class="cls-6" x1="395.71" y1="204.76" x2="419.88" y2="204.76"/><line class="cls-6" x1="395.71" y1="208.16" x2="419.88" y2="208.16"/><line class="cls-6" x1="395.71" y1="211.25" x2="419.88" y2="211.25"/><line class="cls-6" x1="395.71" y1="214.03" x2="419.88" y2="214.03"/><line class="cls-6" x1="395.71" y1="217.12" x2="419.88" y2="217.12"/><line class="cls-6" x1="395.71" y1="220.52" x2="419.88" y2="220.52"/><line class="cls-6" x1="395.71" y1="223.61" x2="419.88" y2="223.61"/><line class="cls-6" x1="395.71" y1="226.71" x2="419.88" y2="226.71"/><line class="cls-6" x1="395.71" y1="230.11" x2="419.88" y2="230.11"/><line class="cls-6" x1="395.71" y1="232.89" x2="419.88" y2="232.89"/><line class="cls-6" x1="395.71" y1="235.98" x2="419.88" y2="235.98"/><line class="cls-6" x1="395.71" y1="239.69" x2="419.88" y2="239.69"/><line class="cls-6" x1="395.71" y1="242.47" x2="419.88" y2="242.47"/><line class="cls-6" x1="395.71" y1="245.56" x2="419.88" y2="245.56"/><line class="cls-6" x1="401.6" y1="167.35" x2="412.45" y2="167.35"/><polygon class="cls-3" points="473.18 182.19 473.18 170.13 471.1 170.13 469.7 163.33 464.09 163.33 458.48 163.33 457.08 170.13 454.9 170.13 454.9 182.19 449.94 182.19 449.94 255.46 454.75 255.46 459.42 255.46 464.09 255.46 468.76 255.46 473.44 255.46 478.14 255.46 478.14 182.19 473.18 182.19"/><path class="cls-3" d="M468.43,157.76a4.44,4.44,0,0,0-8.88,0h0v10.82h9V157.76Z"/><ellipse class="cls-4" cx="463.89" cy="171.83" rx="3.87" ry="3.86"/><ellipse class="cls-6" cx="463.89" cy="171.83" rx="2.48" ry="2.47"/><rect class="cls-4" x="454.28" y="188.06" width="2.79" height="6.49"/><rect class="cls-4" x="458.62" y="188.06" width="2.79" height="6.49"/><rect class="cls-4" x="454.28" y="197.65" width="2.79" height="6.49"/><rect class="cls-4" x="458.62" y="197.65" width="2.79" height="6.49"/><rect class="cls-4" x="454.28" y="207.23" width="2.79" height="6.49"/><rect class="cls-4" x="458.62" y="207.23" width="2.79" height="6.49"/><rect class="cls-4" x="454.28" y="216.81" width="2.79" height="6.49"/><rect class="cls-4" x="458.62" y="216.81" width="2.79" height="6.49"/><rect class="cls-4" x="454.28" y="226.71" width="2.79" height="6.49"/><rect class="cls-4" x="458.62" y="226.71" width="2.79" height="6.49"/><rect class="cls-4" x="454.28" y="236.29" width="2.79" height="6.49"/><rect class="cls-4" x="458.62" y="236.29" width="2.79" height="6.49"/><rect class="cls-4" x="454.28" y="245.87" width="2.79" height="6.49"/><rect class="cls-4" x="458.62" y="245.87" width="2.79" height="6.49"/><rect class="cls-4" x="466.99" y="188.06" width="2.79" height="6.49"/><rect class="cls-4" x="471.32" y="188.06" width="2.79" height="6.49"/><rect class="cls-4" x="466.99" y="197.65" width="2.79" height="6.49"/><rect class="cls-4" x="471.32" y="197.65" width="2.79" height="6.49"/><rect class="cls-4" x="466.99" y="207.23" width="2.79" height="6.49"/><rect class="cls-4" x="471.32" y="207.23" width="2.79" height="6.49"/><rect class="cls-4" x="466.99" y="216.81" width="2.79" height="6.49"/><rect class="cls-4" x="471.32" y="216.81" width="2.79" height="6.49"/><rect class="cls-4" x="466.99" y="226.71" width="2.79" height="6.49"/><rect class="cls-4" x="471.32" y="226.71" width="2.79" height="6.49"/><rect class="cls-4" x="466.99" y="236.29" width="2.79" height="6.49"/><rect class="cls-4" x="471.32" y="236.29" width="2.79" height="6.49"/><rect class="cls-4" x="466.99" y="245.87" width="2.79" height="6.49"/><rect class="cls-4" x="471.32" y="245.87" width="2.79" height="6.49"/><rect class="cls-3" x="258.13" y="197.03" width="18.28" height="58.43"/><rect class="cls-4" x="261.85" y="211.25" width="10.85" height="41.43"/><rect class="cls-4" x="261.85" y="199.81" width="10.85" height="9.27"/><line class="cls-6" x1="264.33" y1="197.03" x2="264.33" y2="253.29"/><line class="cls-6" x1="259.37" y1="202.28" x2="273.93" y2="202.28"/><line class="cls-6" x1="259.37" y1="213.72" x2="273.93" y2="213.72"/><line class="cls-6" x1="259.99" y1="216.5" x2="274.86" y2="216.5"/><line class="cls-6" x1="269.9" y1="199.81" x2="269.9" y2="253.29"/><line class="cls-6" x1="259.99" y1="205.07" x2="274.86" y2="205.07"/><line class="cls-6" x1="259.37" y1="207.54" x2="273.93" y2="207.54"/><line class="cls-6" x1="267.11" y1="199.81" x2="267.11" y2="253.29"/><line class="cls-6" x1="259.99" y1="218.67" x2="274.86" y2="218.67"/><line class="cls-6" x1="259.99" y1="226.4" x2="274.86" y2="226.4"/><line class="cls-6" x1="260.3" y1="228.87" x2="275.17" y2="228.87"/><line class="cls-6" x1="260.3" y1="221.14" x2="275.17" y2="221.14"/><line class="cls-6" x1="259.99" y1="223.61" x2="274.86" y2="223.61"/><line class="cls-6" x1="259.99" y1="231.34" x2="274.86" y2="231.34"/><line class="cls-6" x1="260.3" y1="234.13" x2="275.17" y2="234.13"/><line class="cls-6" x1="260.3" y1="236.6" x2="275.17" y2="236.6"/><line class="cls-6" x1="260.3" y1="244.02" x2="275.17" y2="244.02"/><line class="cls-6" x1="259.37" y1="246.49" x2="273.93" y2="246.49"/><line class="cls-6" x1="259.37" y1="239.07" x2="273.93" y2="239.07"/><line class="cls-6" x1="260.3" y1="241.55" x2="275.17" y2="241.55"/><line class="cls-6" x1="259.99" y1="248.66" x2="274.86" y2="248.66"/><line class="cls-6" x1="260.3" y1="251.44" x2="275.17" y2="251.44"/><line class="cls-6" x1="267.11" y1="191.15" x2="267.11" y2="181.88"/><circle class="cls-3" cx="266.87" cy="180.32" r="1.38"/><polygon class="cls-3" points="273.62 197.65 260.41 197.65 262.95 189.92 271.08 189.92 273.62 197.65"/><path class="cls-8" d="M41.17,255.49c-1-1.73-.69-3.61-.7-5.46,0-2.39,0-4.77,0-7.16,0-2,.64-2.59,2.6-2.63,2.65-.06,2.78.68,2.78-2.81V198.56c0-2.38.39-2.83,2.76-2.87,1.11,0,1.58-.51,1.53-1.57,0-.4,0-.79,0-1.18V106.05c0-.19,0-.39,0-.58a1.89,1.89,0,0,1,1.64-2c1.7-.42,1.71-.41,1.7-2.11q0-6.81,0-13.62c0-1.94.62-2.57,2.6-2.63.27,0,.55-.06.82-.05,1,.06,1.32-.36,1.3-1.32,0-2.31,0-4.62,0-6.93s.64-2.76,2.83-2.77a20.32,20.32,0,0,0,4.34-.14c2.83.35,5.67.07,8.5.15a7.89,7.89,0,0,0,2.78-.2,13.71,13.71,0,0,0,4.09.19c2.12,0,2.81.67,2.82,2.81s.06,4.54,0,6.81c-.05,1.16.38,1.57,1.48,1.45a2.48,2.48,0,0,1,.47,0c2.21,0,2.74.57,2.74,2.82v13.74c0,1.76,0,1.76,1.71,1.79,2,0,2.62.66,2.62,2.84q0,43.82,0,87.63c0,1.16.06,1.93,1.57,1.84,1.1-.06,1.69.75,1.78,1.82.06.82,0,1.64,0,2.46q0,19.34,0,38.65c0,1.49,0,1.59,1.49,1.51,3.6-.21,3.91.81,3.81,3.8-.06,2,0,4,0,6,0,1.85.26,3.73-.67,5.47ZM56.59,151.4h0c0-14.34,0-28.67,0-43,0-1.05-.24-1.46-1.35-1.38-1.87.13-1.86-.41-1.81,1.82v84c0,.74,0,1.49,0,2.23,0,.26,0,.54.3.7A1.85,1.85,0,0,0,56.59,194Zm28.53.11V183c0,3.91,0,7.83.06,11.74,0,.37-.25.88.39,1.07,1.7.53,2.6-.09,2.6-1.82V107.76c0-.24,0-.59-.2-.63a5.67,5.67,0,0,0-2.56,0c-.53.14-.28.83-.28,1.27Q85.12,130,85.12,151.51Zm-15.87-6.46v36.66c0,.31,0,.62,0,.94s0,.56.27.58a8.12,8.12,0,0,0,2.56,0c.66-.18.32-1,.32-1.57q0-36.42,0-72.84c0-2,.24-1.63-1.74-1.78-1.26-.09-1.47.36-1.46,1.51C69.27,120.7,69.25,132.88,69.25,145.05Zm-7.38.12h0v-14q0-11.44,0-22.91c0-.37.19-.94-.18-1.09a4.31,4.31,0,0,0-2.54-.08c-.65.15-.34.87-.34,1.33q0,36.47,0,72.95c0,.43,0,.86,0,1.29,0,.24,0,.55.31.56a7.1,7.1,0,0,0,2.44-.05c.61-.2.3-1.05.3-1.6Q61.88,163.38,61.87,145.17Zm5.29,0v-33c0-1.41,0-2.82,0-4.23,0-.3.1-.79-.23-.83a7.34,7.34,0,0,0-2.56,0c-.65.15-.32,1-.32,1.44q0,36.52,0,73c0,.31,0,.63,0,.94-.05.56.19.79.75.75a5.71,5.71,0,0,1,1.17,0c1,.15,1.23-.31,1.23-1.26Q67.14,163.61,67.16,145.18Zm12.72,0h0v37.1c0,.34-.13.87.26.93a6.31,6.31,0,0,0,2.45,0c.63-.17.3-1,.3-1.47q0-36.69.05-73.39c0-1.29-.53-1.35-1.52-1.33s-1.57,0-1.56,1.3C79.91,120.6,79.88,132.89,79.88,145.18Zm-5.29-.13h0v32.17c0,1.69,0,3.37,0,5.05,0,.34-.13.89.26.94a6.67,6.67,0,0,0,2.56,0c.53-.16.24-1,.24-1.51q0-36.4,0-72.8c0-2.13.27-1.74-1.78-1.84-1,0-1.31.2-1.31,1.27C74.61,120.54,74.59,132.79,74.59,145.05Zm-21.1,74.61V237c0,.47,0,.94,0,1.41.07,2-.36,1.73,1.82,1.81.9,0,1.2-.21,1.2-1.16,0-12.68.07-25.36.11-38,0-1.84,0-1.76-1.89-1.85-1.09-.06-1.28.32-1.27,1.32C53.52,206.9,53.49,213.28,53.49,219.66Zm39.93.08h0c0-6.46,0-12.92,0-19.38,0-1-.32-1.26-1.2-1.14a2.33,2.33,0,0,1-.59,0c-1-.17-1.3.27-1.3,1.3q0,19.26,0,38.53c0,1.16.5,1.27,1.4,1.21s1.74.29,1.72-1.24C93.37,232.59,93.42,226.16,93.42,219.74Zm-8.29,0h0c0,6.42,0,12.84,0,19.26,0,1.07.33,1.41,1.33,1.26a1.88,1.88,0,0,1,.58,0c.88.13,1.14-.22,1.14-1.1q0-19.32,0-38.63c0-1-.23-1.45-1.29-1.29-.83.12-1.84-.41-1.82,1.25C85.18,206.89,85.13,213.31,85.13,219.72Zm-36.88.06q0,9.63,0,19.26c0,.38-.18,1,.19,1.08a4.64,4.64,0,0,0,2.56,0c.55-.14.29-.81.29-1.24,0-12.8,0-25.6.05-38.4,0-1.34-.62-1.31-1.56-1.3s-1.59,0-1.57,1.32C48.29,207,48.25,213.37,48.25,219.78Zm27.15,28c0-1.64,0-3.28,0-4.93,0-.63-.15-.91-.84-.9-2.47,0-4.94,0-7.42,0-.55,0-.86.11-.85.78,0,3.32,0,6.65,0,10,0,.68.25.86.9.85,2.43,0,4.86,0,7.29,0,.78,0,.93-.28.92-.94C75.38,251,75.4,249.42,75.4,247.81ZM58.82,226.64c0,4.07,0,8.14,0,12.21,0,1,.14,1.55,1.31,1.41.9-.11,1.78.25,1.76-1.35q-.13-12.25,0-24.53c0-1.61-.86-1.26-1.76-1.34s-1.35.19-1.33,1.28C58.86,218.42,58.82,222.53,58.82,226.64Zm24,.05q0-6.27,0-12.55c0-.33.18-.89-.19-.95a6.57,6.57,0,0,0-2.42,0c-.58.14-.29.88-.29,1.35q0,12,0,23.94c0,2.15-.17,1.69,1.83,1.8.86,0,1.13-.23,1.12-1.11C82.84,235,82.86,230.84,82.86,226.69ZM72.4,198.16c0-3.41,0-6.82,0-10.22,0-.8-.2-1.18-1-1.06a2.89,2.89,0,0,1-.83,0c-1.06-.19-1.29.27-1.29,1.29,0,6.42,0,12.84,0,19.26,0,1.95,0,1.89,1.89,2,1,0,1.25-.29,1.24-1.25C72.37,204.81,72.4,201.48,72.4,198.16Zm5.23,40.77c0-8.21,0-16.43,0-24.64,0-1.11-.37-1.35-1.34-1.25s-1.76-.32-1.74,1.23c.08,6.61,0,13.22,0,19.83a2.18,2.18,0,0,0,1,2.06A6.45,6.45,0,0,1,77.63,238.93Zm-13.57,0a6.76,6.76,0,0,1,2.27-3,1.8,1.8,0,0,0,.82-1.76c0-6.46,0-12.92,0-19.38,0-1.9.38-1.73-1.82-1.85-1.1-.06-1.28.36-1.27,1.34,0,7.71,0,15.42,0,23.13Zm5.23-15.07h0c0,2.89,0,5.79,0,8.68,0,2.21,0,2.18,2.22,2.13.75,0,.9-.31.9-1q0-9.87,0-19.72c0-.68-.17-1.05-.92-1a3.7,3.7,0,0,1-.94,0c-1-.12-1.29.22-1.27,1.23C69.33,217.47,69.29,220.68,69.29,223.89Zm8.35-25.72h0c0-3.36-.07-6.73,0-10.08,0-1.33-.62-1.23-1.49-1.22s-1.61-.16-1.6,1.25c.09,6.45,0,12.9.05,19.34,0,2.16-.4,1.84,1.93,1.93.89,0,1.12-.27,1.11-1.14C77.61,204.89,77.64,201.53,77.64,198.17ZM64.06,198h0c0,3.4,0,6.8,0,10.2,0,.33-.15.83.19,1a4.4,4.4,0,0,0,2.54.08c.55-.12.3-.81.3-1.25q0-9.61,0-19.23c0-2.17.36-1.85-1.92-1.94-.95,0-1.18.28-1.17,1.19C64.09,191.38,64.06,194.7,64.06,198Zm5.19-102c0,1.84,0,3.67,0,5.51,0,2.19-.34,1.88,1.92,2,.95,0,1.28-.22,1.27-1.22-.06-3.88,0-7.75,0-11.62,0-2.41.31-2-2-2.07-.87,0-1.18.21-1.16,1.1C69.29,91.84,69.25,94,69.25,96.07Zm-2.09,0c0-1.76,0-3.52,0-5.28,0-2.55.46-2.13-2.26-2.2-.77,0-.88.31-.88,1q0,6.57,0,13.15c0,.69.17,1,.92.94a4.82,4.82,0,0,1,.93,0c1,.12,1.33-.26,1.31-1.25C67.12,100.33,67.16,98.22,67.16,96.11Zm10.49-.06h0c0-2.06-.06-4.14,0-6.2,0-1-.32-1.34-1.27-1.21a1.88,1.88,0,0,1-.58,0c-1-.15-1.28.2-1.27,1.2.06,3.91,0,7.81,0,11.71,0,2.18-.4,1.93,2,2,.79,0,1.09-.21,1.07-1.05C77.62,100.35,77.65,98.2,77.65,96.05Zm-15.78.06h0c0-1.85,0-3.69,0-5.53,0-2.21.29-1.86-1.95-2-1,0-1.15.34-1.14,1.21,0,3.91,0,7.83,0,11.75,0,2.2-.33,1.85,1.92,2,1,0,1.18-.33,1.16-1.21C61.83,100.26,61.87,98.18,61.87,96.11Zm21,0c0-1.91,0-3.83,0-5.75s.33-1.59-1.71-1.69c-1.06,0-1.32.32-1.3,1.32.05,3.88,0,7.75,0,11.63,0,2.3-.36,1.87,2,2,.8,0,1-.28,1-1C82.87,100.37,82.89,98.22,82.89,96.06Zm0,151.79c0-1,0-2.11,0-3.16,0-2.05.22-1.66-1.76-1.71a.4.4,0,0,1-.11,0c-1-.16-1.19.31-1.16,1.19,0,2.11,0,4.22,0,6.33s0,2.22,2.24,2.16c.65,0,.79-.25.78-.82C82.88,250.51,82.9,249.18,82.9,247.85Zm5.28,0h0c0-.93,0-1.87,0-2.81,0-2.35.34-1.94-2-2-.88,0-1,.32-1,1.08,0,2.18,0,4.37,0,6.55,0,2.39-.42,1.95,2.15,2,.75,0,.94-.3.92-1C88.15,250.39,88.18,249.1,88.18,247.81Zm-31.55.08h0c0-1,0-2,0-2.93-.06-2.24.42-1.9-2-2-.89,0-1.16.27-1.14,1.13,0,2.12,0,4.23,0,6.35,0,2.3,0,2.28,2.26,2.2.66,0,.9-.22.88-.88C56.6,250.48,56.63,249.18,56.63,247.89Zm2.16-43.62h0c0,1,0,2.11,0,3.16,0,2.28-.25,1.83,1.93,1.95,1,.06,1.17-.35,1.16-1.21,0-2.34,0-4.69,0-7,0-2,0-2-2.06-1.93h-.12c-.75-.11-.93.25-.91.94C58.82,201.53,58.79,202.9,58.79,204.27Zm24.11.11h0v-3.16c0-2.05,0-2-2.06-2-.84,0-1,.33-1,1,0,2.38,0,4.76,0,7.13,0,2.06,0,2,2,2,.79,0,1-.28,1-1C82.86,207,82.9,205.7,82.9,204.38Zm-36.81,43.5h0c0-1,0-2,0-2.94,0-2.2.3-1.87-1.93-2-1,0-1.18.33-1.16,1.21.06,2.11,0,4.23,0,6.34,0,2.4-.54,2.06,2.21,2.12.7,0,.87-.26.86-.9C46.07,250.46,46.09,249.17,46.09,247.88Zm5.23.07V245c0-2.15,0-2.12-2.2-2-.65,0-.88.22-.87.89,0,2.23,0,4.46,0,6.69,0,2.43-.45,2,2.11,2.08.83,0,1-.33,1-1C51.29,250.38,51.32,249.17,51.32,248Zm10.54-.09h0c0-1,0-2,0-2.93,0-2.22.29-1.87-1.94-2-.85,0-1.17.2-1.15,1.1.06,2.15,0,4.31,0,6.46,0,2.39-.52,2,2.23,2.11.71,0,.86-.31.85-.92C61.84,250.44,61.86,249.15,61.86,247.86Zm31.55-.13h0c0-.93,0-1.87,0-2.81,0-2.09.43-1.87-1.93-1.94-.87,0-1.15.24-1.13,1.12.05,2.14,0,4.29,0,6.44,0,2.42-.52,2,2.22,2.11.6,0,.84-.2.82-.81C93.39,250.47,93.41,249.1,93.41,247.73Zm5.22.12h0c0-1,0-1.95,0-2.93,0-2.12.42-1.87-1.92-1.95-.87,0-1.17.23-1.14,1.12.06,2.15,0,4.3,0,6.44,0,2.39-.53,2.07,2.22,2.12.61,0,.83-.21.82-.81C98.62,250.51,98.63,249.18,98.63,247.85ZM82.86,191.4h0v-2.58c0-2,0-1.94-2-2-.82,0-1,.31-1,1,0,2,0,3.91,0,5.87s0,2,2,1.94c.82,0,1-.29,1-1C82.82,193.6,82.86,192.5,82.86,191.4Zm-24-.13c0,1.06.08,2.12,0,3.16s.31,1.57,1.41,1.4a1.85,1.85,0,0,1,.47,0c.83,0,1.2-.27,1.17-1.16-.05-1.92,0-3.83,0-5.74,0-2.38.38-2-2.17-2.06-.69,0-.87.26-.85.89C58.84,188.93,58.82,190.1,58.82,191.27ZM72.43,81.36h0c0-.51,0-1,0-1.53-.07-2.42.56-2.15-2.27-2.19-.73,0-.94.27-.92,1,0,1.45,0,2.89,0,4.34,0,2.46-.51,2.14,2.26,2.2.74,0,1-.28.92-1C72.39,83.23,72.43,82.29,72.43,81.36Zm5.22.09h0V79.68c0-2.15,0-2.13-2.19-2.05-.65,0-.91.22-.89.89,0,1.52,0,3,0,4.58,0,2.23-.52,2,2.19,2,.65,0,.92-.2.89-.88C77.62,83.33,77.65,82.39,77.65,81.45Zm-10.49-.09h0V79.83c0-2.31,0-2.28-2.27-2.19-.67,0-.88.25-.87.9,0,1.48,0,3,0,4.46,0,2.31,0,2.29,2.33,2.14.61,0,.83-.26.81-.85C67.14,83.31,67.16,82.33,67.16,81.36Z"/><path class="cls-9" d="M76.63,73.86a7.89,7.89,0,0,1-2.78.2c-2.83-.08-5.67.2-8.5-.15,0-5.38,0-10.76,0-16.15,0-1.38.36-2.46,1.77-3A1.21,1.21,0,0,0,68,53.43C68,52.69,68,52,68,51.2a1.63,1.63,0,0,1,.87-1.65c1.14-.59.9-1.84.92-2.74.09-6.26,0-12.52,0-18.78,0-.34-.19-.67-.07-1,.21-.65.55-1.18,1.32-1.09s.72.71.72,1.26V48c0,.57.08,1.08.72,1.34a1.9,1.9,0,0,1,1.17,2.09c0,.46,0,.94,0,1.4A1.93,1.93,0,0,0,75,55.05c1.18.5,1.28,1.66,1.28,2.8q0,7.11,0,14.21A2.84,2.84,0,0,0,76.63,73.86Z"/><path class="cls-9" d="M56.59,151.4V194a1.85,1.85,0,0,1-2.78,1.73c-.32-.16-.3-.44-.3-.7,0-.74,0-1.49,0-2.23v-84c0-2.23-.06-1.69,1.81-1.82,1.11-.08,1.35.33,1.35,1.38,0,14.33,0,28.66,0,43Z"/><path class="cls-9" d="M85.12,151.51q0-21.56,0-43.11c0-.44-.25-1.13.28-1.27a5.67,5.67,0,0,1,2.56,0c.21,0,.2.39.2.63V194c0,1.73-.9,2.35-2.6,1.82-.64-.19-.39-.7-.39-1.07,0-3.91-.05-7.83-.06-11.74Z"/><path class="cls-9" d="M69.25,145.05c0-12.17,0-24.35,0-36.53,0-1.15.2-1.6,1.46-1.51,2,.15,1.74-.25,1.74,1.78q0,36.42,0,72.84c0,.54.34,1.39-.32,1.57a8.12,8.12,0,0,1-2.56,0c-.26,0-.26-.35-.27-.58s0-.63,0-.94Z"/><path class="cls-9" d="M61.87,145.17q0,18.21,0,36.42c0,.55.31,1.4-.3,1.6a7.1,7.1,0,0,1-2.44.05c-.28,0-.31-.32-.31-.56,0-.43,0-.86,0-1.29q0-36.48,0-72.95c0-.46-.31-1.18.34-1.33a4.31,4.31,0,0,1,2.54.08c.37.15.18.72.18,1.09q0,11.46,0,22.91v14Z"/><path class="cls-9" d="M67.16,145.18q0,18.42,0,36.86c0,1-.21,1.41-1.23,1.26a5.71,5.71,0,0,0-1.17,0c-.56,0-.8-.19-.75-.75,0-.31,0-.63,0-.94q0-36.51,0-73c0-.49-.33-1.29.32-1.44a7.34,7.34,0,0,1,2.56,0c.33,0,.23.53.23.83,0,1.41,0,2.82,0,4.23Z"/><path class="cls-9" d="M79.88,145.18c0-12.29,0-24.58,0-36.87,0-1.33.62-1.28,1.56-1.3s1.52,0,1.52,1.33q-.08,36.71-.05,73.39c0,.51.33,1.3-.3,1.47a6.31,6.31,0,0,1-2.45,0c-.39-.06-.26-.59-.26-.93v-37.1Z"/><path class="cls-9" d="M74.59,145.05c0-12.26,0-24.51,0-36.76,0-1.07.3-1.32,1.31-1.27,2,.1,1.78-.29,1.78,1.84q0,36.4,0,72.8c0,.52.29,1.35-.24,1.51a6.67,6.67,0,0,1-2.56,0c-.39-.05-.25-.6-.26-.94,0-1.68,0-3.36,0-5.05V145.05Z"/><path class="cls-9" d="M53.49,219.66c0-6.38,0-12.76,0-19.14,0-1,.18-1.38,1.27-1.32,1.89.09,1.9,0,1.89,1.85,0,12.68-.1,25.36-.11,38,0,.95-.3,1.2-1.2,1.16-2.18-.08-1.75.22-1.82-1.81,0-.47,0-.94,0-1.41Z"/><path class="cls-9" d="M93.42,219.74c0,6.42,0,12.85,0,19.27,0,1.53-.87,1.18-1.72,1.24s-1.4-.05-1.4-1.21q.07-19.26,0-38.53c0-1,.26-1.47,1.3-1.3a2.33,2.33,0,0,0,.59,0c.88-.12,1.21.16,1.2,1.14,0,6.46,0,12.92,0,19.38Z"/><path class="cls-9" d="M85.13,219.72c0-6.41.05-12.83,0-19.25,0-1.66,1-1.13,1.82-1.25,1.06-.16,1.29.28,1.29,1.29q0,19.32,0,38.63c0,.88-.26,1.23-1.14,1.1a1.88,1.88,0,0,0-.58,0c-1,.15-1.34-.19-1.33-1.26,0-6.42,0-12.84,0-19.26Z"/><path class="cls-9" d="M48.25,219.78c0-6.41,0-12.83,0-19.25,0-1.34.64-1.31,1.57-1.32s1.56,0,1.56,1.3c-.06,12.8,0,25.6-.05,38.4,0,.43.26,1.1-.29,1.24a4.64,4.64,0,0,1-2.56,0c-.37-.12-.19-.7-.19-1.08Q48.25,229.41,48.25,219.78Z"/><path class="cls-9" d="M75.4,247.81c0,1.61,0,3.22,0,4.82,0,.66-.14,1-.92.94-2.43,0-4.86,0-7.29,0-.65,0-.91-.17-.9-.85,0-3.33,0-6.66,0-10,0-.67.3-.78.85-.78,2.48,0,4.95,0,7.42,0,.69,0,.86.27.84.9C75.38,244.53,75.4,246.17,75.4,247.81Z"/><path class="cls-9" d="M58.82,226.64c0-4.11,0-8.22,0-12.32,0-1.09.33-1.37,1.33-1.28s1.78-.27,1.76,1.34q-.15,12.27,0,24.53c0,1.6-.86,1.24-1.76,1.35-1.17.14-1.32-.42-1.31-1.41C58.85,234.78,58.82,230.71,58.82,226.64Z"/><path class="cls-9" d="M82.86,226.69c0,4.15,0,8.3,0,12.44,0,.88-.26,1.16-1.12,1.11-2-.11-1.83.35-1.83-1.8q0-12,0-23.94c0-.47-.29-1.21.29-1.35a6.57,6.57,0,0,1,2.42,0c.37.06.19.62.19.95Q82.87,220.41,82.86,226.69Z"/><path class="cls-9" d="M72.4,198.16c0,3.32,0,6.65,0,10,0,1-.24,1.29-1.24,1.25-1.89-.07-1.89,0-1.89-2,0-6.42,0-12.84,0-19.26,0-1,.23-1.48,1.29-1.29a2.89,2.89,0,0,0,.83,0c.84-.12,1.05.26,1,1.06C72.38,191.34,72.4,194.75,72.4,198.16Z"/><path class="cls-9" d="M77.63,238.93a6.45,6.45,0,0,0-2.08-2.77,2.18,2.18,0,0,1-1-2.06c0-6.61.07-13.22,0-19.83,0-1.55.91-1.15,1.74-1.23s1.35.14,1.34,1.25C77.6,222.5,77.63,230.72,77.63,238.93Z"/><path class="cls-9" d="M64.06,239v-1.47c0-7.71,0-15.42,0-23.13,0-1,.17-1.4,1.27-1.34,2.2.12,1.81-.05,1.82,1.85,0,6.46,0,12.92,0,19.38a1.8,1.8,0,0,1-.82,1.76A6.76,6.76,0,0,0,64.06,239Z"/><path class="cls-9" d="M69.29,223.89c0-3.21,0-6.42,0-9.62,0-1,.32-1.35,1.27-1.23a3.7,3.7,0,0,0,.94,0c.75-.09.92.28.92,1q0,9.85,0,19.72c0,.67-.15,1-.9,1-2.22.05-2.22.08-2.22-2.13,0-2.89,0-5.79,0-8.68Z"/><path class="cls-9" d="M77.64,198.17c0,3.36,0,6.72,0,10.08,0,.87-.22,1.17-1.11,1.14-2.33-.09-1.92.23-1.93-1.93,0-6.44,0-12.89-.05-19.34,0-1.41.73-1.23,1.6-1.25s1.54-.11,1.49,1.22c-.11,3.35,0,6.72,0,10.08Z"/><path class="cls-9" d="M64.06,198c0-3.33,0-6.65,0-10,0-.91.22-1.23,1.17-1.19,2.28.09,1.91-.23,1.92,1.94q0,9.62,0,19.23c0,.44.25,1.13-.3,1.25a4.4,4.4,0,0,1-2.54-.08c-.34-.15-.19-.65-.19-1,0-3.4,0-6.8,0-10.2Z"/><path class="cls-9" d="M69.25,96.07c0-2.12,0-4.23,0-6.34,0-.89.29-1.14,1.16-1.1,2.34.1,2-.34,2,2.07,0,3.87,0,7.74,0,11.62,0,1-.32,1.26-1.27,1.22-2.26-.08-1.9.23-1.92-2C69.24,99.74,69.25,97.91,69.25,96.07Z"/><path class="cls-9" d="M67.16,96.11c0,2.11,0,4.22,0,6.34,0,1-.34,1.37-1.31,1.25a4.82,4.82,0,0,0-.93,0c-.75.09-.93-.25-.92-.94q0-6.57,0-13.15c0-.67.11-1,.88-1,2.72.07,2.23-.35,2.26,2.2C67.17,92.59,67.16,94.35,67.16,96.11Z"/><path class="cls-9" d="M77.65,96.05c0,2.15,0,4.3,0,6.44,0,.84-.28,1.07-1.07,1.05-2.41-.06-2,.19-2-2,0-3.9,0-7.8,0-11.71,0-1,.31-1.35,1.27-1.2a1.88,1.88,0,0,0,.58,0c1-.13,1.31.19,1.27,1.21-.08,2.06,0,4.14,0,6.2Z"/><path class="cls-9" d="M61.87,96.11c0,2.07,0,4.15,0,6.22,0,.88-.18,1.26-1.16,1.21-2.25-.1-1.91.25-1.92-2,0-3.92,0-7.84,0-11.75,0-.87.15-1.25,1.14-1.21,2.24.09,1.9-.26,1.95,2,0,1.84,0,3.68,0,5.53Z"/><path class="cls-9" d="M82.89,96.06c0,2.16,0,4.31,0,6.46,0,.74-.19,1-1,1-2.37-.1-2,.33-2-2,0-3.88,0-7.75,0-11.63,0-1,.24-1.36,1.3-1.32,2,.1,1.68-.11,1.71,1.69S82.89,94.15,82.89,96.06Z"/><path class="cls-9" d="M82.9,247.85c0,1.33,0,2.66,0,4,0,.57-.13.8-.78.82-2.25.06-2.24.09-2.24-2.16s0-4.22,0-6.33c0-.88.19-1.35,1.16-1.19a.4.4,0,0,0,.11,0c2,.05,1.75-.34,1.76,1.71C82.9,245.74,82.9,246.8,82.9,247.85Z"/><path class="cls-9" d="M88.18,247.81c0,1.29,0,2.58,0,3.86,0,.68-.17,1-.92,1-2.57-.09-2.11.35-2.15-2,0-2.18,0-4.37,0-6.55,0-.76.13-1.11,1-1.08,2.39.08,2-.33,2,2,0,.94,0,1.88,0,2.81Z"/><path class="cls-9" d="M56.63,247.89c0,1.29,0,2.59,0,3.88,0,.66-.22.86-.88.88-2.26.08-2.26.1-2.26-2.2,0-2.12,0-4.23,0-6.35,0-.86.25-1.17,1.14-1.13,2.43.09,2-.25,2,2,0,1,0,1.95,0,2.93Z"/><path class="cls-9" d="M58.79,204.27c0-1.37,0-2.74,0-4.11,0-.69.16-1,.91-.94h.12c2-.08,2-.08,2.06,1.93,0,2.34,0,4.69,0,7,0,.86-.16,1.27-1.16,1.21-2.18-.12-1.91.33-1.93-1.95,0-1.05,0-2.11,0-3.16Z"/><path class="cls-9" d="M82.9,204.38c0,1.32,0,2.65,0,4,0,.74-.19,1-1,1-2,0-2,0-2-2,0-2.37,0-4.75,0-7.13,0-.7.11-1,1-1,2.06,0,2.06,0,2.06,2v3.16Z"/><path class="cls-9" d="M46.09,247.88c0,1.29,0,2.58,0,3.87,0,.64-.16.92-.86.9-2.75-.06-2.18.28-2.21-2.12,0-2.11,0-4.23,0-6.34,0-.88.18-1.26,1.16-1.21,2.23.09,1.89-.24,1.93,2,0,1,0,2,0,2.94Z"/><path class="cls-9" d="M51.32,248c0,1.22,0,2.43,0,3.64,0,.72-.13,1.08-1,1-2.56-.07-2.08.35-2.11-2.08,0-2.23,0-4.46,0-6.69,0-.67.22-.87.87-.89,2.2-.08,2.2-.11,2.2,2Z"/><path class="cls-9" d="M61.86,247.86c0,1.29,0,2.58,0,3.87,0,.61-.14.94-.85.92-2.75-.07-2.19.28-2.23-2.11,0-2.15,0-4.31,0-6.46,0-.9.3-1.13,1.15-1.1,2.23.08,1.9-.27,1.94,2,0,1,0,1.95,0,2.93Z"/><path class="cls-9" d="M93.41,247.73c0,1.37,0,2.74,0,4.11,0,.61-.22.82-.82.81-2.74-.07-2.18.31-2.22-2.11,0-2.15,0-4.3,0-6.44,0-.88.26-1.15,1.13-1.12,2.36.07,1.88-.15,1.93,1.94,0,.94,0,1.88,0,2.81Z"/><path class="cls-9" d="M98.63,247.85c0,1.33,0,2.66,0,4,0,.6-.21.82-.82.81-2.75-.05-2.18.27-2.22-2.12,0-2.14,0-4.29,0-6.44,0-.89.27-1.15,1.14-1.12,2.34.08,1.88-.17,1.92,1.95,0,1,0,2,0,2.93Z"/><path class="cls-9" d="M82.86,191.4c0,1.1,0,2.2,0,3.29,0,.72-.13,1-1,1-2,0-2,.06-2-1.94s0-3.92,0-5.87c0-.72.15-1,1-1,2,0,2,0,2,2v2.58Z"/><path class="cls-9" d="M58.82,191.27c0-1.17,0-2.34,0-3.51,0-.63.16-.91.85-.89,2.55.08,2.13-.32,2.17,2.06,0,1.91,0,3.82,0,5.74,0,.89-.34,1.2-1.17,1.16a1.85,1.85,0,0,0-.47,0c-1.1.17-1.53-.24-1.41-1.4S58.82,192.33,58.82,191.27Z"/><path class="cls-9" d="M72.43,81.36c0,.93,0,1.87,0,2.81,0,.69-.18,1-.92,1-2.77-.06-2.21.26-2.26-2.2,0-1.45,0-2.89,0-4.34,0-.69.19-1,.92-1,2.83,0,2.2-.23,2.27,2.19,0,.51,0,1,0,1.53Z"/><path class="cls-9" d="M77.65,81.45c0,.94,0,1.88,0,2.81,0,.68-.24.89-.89.88-2.71,0-2.15.19-2.19-2,0-1.53,0-3.06,0-4.58,0-.67.24-.86.89-.89,2.19-.08,2.19-.1,2.19,2.05v1.77Z"/><path class="cls-9" d="M67.16,81.36c0,1,0,2,0,2.93,0,.59-.2.81-.81.85C64,85.29,64,85.31,64,83c0-1.49,0-3,0-4.46,0-.65.2-.88.87-.9,2.27-.09,2.27-.12,2.27,2.19v1.53Z"/><path class="cls-8" d="M456.69,155.92s2-1.31,2-2,7.05-2.91,7.05-2.91V142.8l-3-.38s-1.05-2.69-2.43-1.46-1.87-8.59-1.87,2.45c0,3.6-2.62-1.38-3.2-3.48A147.2,147.2,0,0,1,456.69,155.92Z"/><rect class="cls-8" x="431.33" y="203.39" width="29.24" height="2.22"/><rect class="cls-9" x="425.03" y="205.61" width="41.08" height="9.97"/><rect class="cls-8" x="426.89" y="207.45" width="5.55" height="6.28"/><rect class="cls-8" x="433.92" y="207.45" width="6.66" height="6.28"/><rect class="cls-8" x="442.43" y="207.45" width="6.29" height="6.28"/><rect class="cls-8" x="450.94" y="207.45" width="5.18" height="6.28"/><rect class="cls-8" x="457.6" y="207.45" width="5.55" height="6.28"/><rect class="cls-9" x="429.11" y="235.52" width="33.68" height="1.48"/><rect class="cls-8" x="429.11" y="236.99" width="33.68" height="0.74"/><rect class="cls-9" x="429.11" y="237.73" width="33.68" height="0.74"/><rect class="cls-8" x="429.11" y="238.47" width="33.68" height="1.85"/><rect class="cls-9" x="425.4" y="240.32" width="40.71" height="4.8"/><rect class="cls-8" x="426.89" y="245.12" width="38.49" height="4.8"/><rect class="cls-9" x="425.4" y="249.92" width="40.71" height="5.54"/><path class="cls-9" d="M440.63,113.54l-5.94-4.91s-.89.31-.58.61,5.95,5.18,5.95,5.18Z"/><path class="cls-9" d="M448.19,113.54l5.95-4.91s.88.31.58.61-6,5.18-6,5.18Z"/><path class="cls-9" d="M444.68,110.43l-.06-6.48s-.8-.47-.84,0-.15,6.64-.15,6.64Z"/><path class="cls-9" d="M442.55,111.78l-4.67-6.13s-.94.1-.71.47,4.62,6.38,4.62,6.38Z"/><path class="cls-9" d="M446.36,111.78l4.68-6.13s.93.1.7.47-4.62,6.38-4.62,6.38Z"/><rect class="cls-8" x="430.22" y="91.14" width="3.7" height="0.74"/><rect class="cls-8" x="428.37" y="87.45" width="7.77" height="2.95"/><rect class="cls-8" x="428.74" y="84.86" width="7.03" height="2.58"/><path class="cls-2" d="M432.11,84.13s5.45-.24,1.85-6.16c-.53-.86-1.85-3.25-1.85-3.25h0s-1.32,2.39-1.84,3.25c-3.61,5.92,1.84,6.09,1.84,6.09"/><path class="cls-9" d="M448.83,116.47l5.85-2.81s.09-.93-.32-.78-6.09,2.7-6.09,2.7Z"/><path class="cls-9" d="M439.37,116.47l-5.85-2.81s-.09-.93.32-.78,6.08,2.7,6.08,2.7Z"/><path class="cls-9" d="M446.32,129.45s8.24-.35,9.88,13.76,1.9,52.43,3.9,56.86H432s1.81-7.77-.77-18.36c-.27-1.1,2.44-.81,2.49-2.05a299.89,299.89,0,0,0-.34-30.24C432.41,134.2,446.32,129.45,446.32,129.45Z"/><path class="cls-8" d="M431.19,161.21a78.14,78.14,0,0,0,9.47-12.58A155.33,155.33,0,0,0,448,134.14v21.55s-5.85,19.33-14.27,23.93Z"/><path class="cls-8" d="M431.21,193.53a39.3,39.3,0,0,0,10.14-12.4C445.66,173,450,163.8,450,163.8l6.91,1L449.81,170c.58,2.3,7.79,2.45,7.79,2.45v3.54a68.53,68.53,0,0,1-6.28,6.54c-2.16,1.69,1.4,9.84-1.37,17.59h-4l2.15-13.5s-6.3,7.59-7.38,13.5H432Z"/><rect class="cls-9" x="428.37" y="214.84" width="35.53" height="20.68"/><rect class="cls-8" x="433.18" y="214.84" width="25.17" height="20.68"/><rect class="cls-9" x="435.77" y="218.16" width="5.18" height="14.03"/><rect class="cls-9" x="442.8" y="218.16" width="5.92" height="14.03"/><rect class="cls-9" x="451.31" y="218.16" width="5.18" height="14.03"/><path class="cls-9" d="M448.54,115.26s.93-1.24-1.48-2.72l-2.2-1.83H443.8l-2.21,1.83c-2.4,1.48-1.48,2.85-1.48,2.85"/><path class="cls-8" d="M444.28,112.63s-4.71,1.43-4.71,3.84-.84,9,4.71,9Z"/><path class="cls-9" d="M443.91,112.63s4.72,1.43,4.72,3.84,1.2,9-4.72,9Z"/><rect class="cls-9" x="429.11" y="199.7" width="32.94" height="3.69"/><path class="cls-8" d="M435.79,117s-2.07-18.36-1.25-24.49l-4.68.1s-.18,21.52,2.06,29.32"/><path class="cls-9" d="M438.69,123.52s-2.84-3.39-2.61-6.46-2.07,6.34-7.54,6.14c-2.07-.08,5.08,17.06,5.08,17.06S438.46,135.58,438.69,123.52Z"/><path class="cls-8" d="M446.05,129.45s-5.51-2.39-7.36-6.27a154.42,154.42,0,0,1-5.88,17.32v4.6S444.7,132.6,446.05,129.45Z"/><path class="cls-10" d="M113.16,208.24s9,36.38,62,36.38S239,207.83,239,207.83"/><path class="cls-10" d="M112.36,211.19s9.83,36.37,62.76,36.37S239,212.41,239,212.41"/><polygon class="cls-9" points="111.25 207.85 111.25 202.28 104.12 202.28 104.12 207.85 101.64 207.85 101.64 253.29 103.92 253.29 104.16 253.29 110.56 253.29 111.05 253.29 112.8 253.29 112.8 207.85 111.25 207.85"/><path class="cls-9" d="M100,205.37h4.14v3.55S99.76,208.47,100,205.37Z"/><path class="cls-9" d="M115,205.37h-3.72v3.55S115.19,208.47,115,205.37Z"/><polygon class="cls-9" points="112.77 259.17 101.95 259.17 99.16 259.17 99.16 283.59 101.95 283.59 112.77 283.59 115.28 283.59 115.28 259.17 112.77 259.17"/><rect class="cls-8" x="105.36" y="206.61" width="4.03" height="45.45"/><rect class="cls-8" x="102.57" y="206.92" width="0.62" height="45.14"/><rect class="cls-8" x="111.25" y="206.92" width="0.62" height="45.14"/><rect class="cls-8" x="103.19" y="261.02" width="8.68" height="22.57"/><rect class="cls-8" x="100.4" y="261.02" width="1.55" height="22.57"/><rect class="cls-8" x="112.8" y="261.02" width="1.55" height="22.57"/><rect class="cls-9" y="252.98" width="595.59" height="6.8"/><rect class="cls-8" x="7.44" y="253.6" width="580.71" height="2.47"/><rect class="cls-8" x="10.85" y="257.31" width="579.16" height="1.24"/><line class="cls-10" x1="119.92" y1="224.85" x2="119.92" y2="252.98"/><line class="cls-10" x1="134.49" y1="237.53" x2="134.49" y2="252.98"/><line class="cls-10" x1="148.12" y1="244.33" x2="148.12" y2="252.98"/><line class="cls-10" x1="223.11" y1="233.2" x2="223.11" y2="252.98"/><line class="cls-10" x1="209.17" y1="241.24" x2="209.17" y2="252.98"/><line class="cls-10" x1="187.79" y1="246.8" x2="187.79" y2="252.98"/><line class="cls-10" x1="167.64" y1="247.73" x2="167.64" y2="252.98"/><polygon class="cls-9" points="248.21 208.47 248.21 202.59 241.09 202.59 241.09 208.47 238.3 208.47 238.3 253.6 240.84 253.6 241.09 253.6 247.48 253.6 247.97 253.6 249.76 253.6 249.76 208.47 248.21 208.47"/><path class="cls-9" d="M236.91,205.68h4.18v3.65S236.69,209.08,236.91,205.68Z"/><path class="cls-9" d="M251.9,205.68h-3.69v3.65S252.12,209.08,251.9,205.68Z"/><rect class="cls-8" x="242.32" y="206.92" width="4.03" height="45.45"/><rect class="cls-8" x="239.54" y="207.23" width="0.62" height="45.14"/><rect class="cls-8" x="248.21" y="207.23" width="0.62" height="45.14"/><polygon class="cls-9" points="249.69 259.48 238.87 259.48 236.13 259.48 236.13 283.9 238.87 283.9 249.69 283.9 252.24 283.9 252.24 259.48 249.69 259.48"/><rect class="cls-8" x="240.16" y="261.64" width="8.68" height="22.26"/><rect class="cls-8" x="237.06" y="261.64" width="1.86" height="22.26"/><rect class="cls-8" x="249.76" y="261.64" width="1.55" height="22.26"/><polygon class="cls-9" points="538.88 208.16 538.88 202.28 531.75 202.28 531.75 208.16 528.96 208.16 528.96 253.29 531.51 253.29 531.75 253.29 538.15 253.29 538.64 253.29 540.43 253.29 540.43 208.16 538.88 208.16"/><path class="cls-9" d="M527.57,205.37h4.18V209S527.35,208.77,527.57,205.37Z"/><path class="cls-9" d="M542.57,205.37h-3.69V209S542.78,208.77,542.57,205.37Z"/><rect class="cls-8" x="532.99" y="206.61" width="4.03" height="45.45"/><rect class="cls-8" x="530.2" y="206.92" width="0.62" height="45.14"/><rect class="cls-8" x="538.88" y="206.92" width="0.62" height="45.14"/><polygon class="cls-9" points="540.36 259.17 529.54 259.17 526.79 259.17 526.79 283.59 529.54 283.59 540.36 283.59 542.91 283.59 542.91 259.17 540.36 259.17"/><rect class="cls-8" x="530.82" y="261.33" width="8.68" height="22.26"/><rect class="cls-8" x="527.72" y="261.33" width="1.86" height="22.26"/><rect class="cls-8" x="540.43" y="261.33" width="1.55" height="22.26"/><polygon class="cls-9" points="567.39 208.16 567.39 202.28 560.26 202.28 560.26 208.16 557.47 208.16 557.47 253.29 560.02 253.29 560.26 253.29 566.66 253.29 567.15 253.29 568.94 253.29 568.94 208.16 567.39 208.16"/><path class="cls-9" d="M556.08,205.37h4.18V209S555.86,208.77,556.08,205.37Z"/><path class="cls-9" d="M571.07,205.37h-3.68V209S571.29,208.77,571.07,205.37Z"/><rect class="cls-8" x="561.5" y="206.61" width="4.03" height="45.45"/><rect class="cls-8" x="558.71" y="206.92" width="0.62" height="45.14"/><rect class="cls-8" x="567.39" y="206.92" width="0.62" height="45.14"/><polygon class="cls-9" points="568.87 259.17 558.05 259.17 555.3 259.17 555.3 283.59 558.05 283.59 568.87 283.59 571.41 283.59 571.41 259.17 568.87 259.17"/><rect class="cls-8" x="559.33" y="261.33" width="8.68" height="22.26"/><rect class="cls-8" x="556.23" y="261.33" width="1.86" height="22.26"/><rect class="cls-8" x="568.94" y="261.33" width="1.55" height="22.26"/></svg>