<svg id="Layer_1" data-name="Layer 1" xmlns="http://www.w3.org/2000/svg" viewBox="0 0 1920.51 542.95"><defs><style>.cls-1{fill:#c98558;}.cls-2{fill:#f2a670;}.cls-3{fill:#c9a172;}.cls-4{fill:#fff;}.cls-10,.cls-5,.cls-6,.cls-7{fill:none;stroke-miterlimit:10;}.cls-5{stroke:#f2a670;}.cls-10,.cls-5{stroke-width:4px;}.cls-6{stroke:#c9a172;stroke-width:2px;}.cls-7{stroke:#fff;stroke-width:6.01px;}.cls-8{fill:#d1e5d3;}.cls-9{fill:#b1aa80;}.cls-10{stroke:#d1e5d3;}</style></defs><title>plan-02</title><polygon class="cls-1" points="394.46 400.07 392.87 413.56 350.18 414.56 344.78 339.7 300.55 341.65 298.31 363.16 269.37 369.77 270.78 314.64 217.49 312.98 217.49 306.92 197.69 300.38 146.05 321.21 67.09 323.23 67.92 345.88 51.88 345.88 51.88 353.92 46.89 354.33 46.89 346.48 42.9 346.06 42.9 325.97 36.91 325.97 36.91 305.13 29.93 306.37 29.93 285.16 0 285.16 0 519.07 409.04 519.07 409.04 400.65 394.46 400.07"/><polygon class="cls-1" points="1910.86 425.01 1893.16 351.15 1848.93 353.1 1846.69 374.6 1831.71 379.49 1819.16 326.08 1765.87 324.43 1765.87 318.37 1746.07 311.83 1694.43 332.65 1615.47 334.67 1616.3 357.32 1600.26 357.32 1600.26 365.37 1595.27 365.78 1595.27 357.92 1591.28 357.51 1591.28 337.42 1585.29 337.42 1585.29 316.57 1578.31 317.81 1578.31 296.61 1531.42 296.61 1531.42 401.76 1482.53 402.17 1482.53 388.94 1477.55 387.28 1477.55 383.15 1475.55 383.98 1475.55 386.87 1473.55 387.28 1473.55 401.76 1467.57 400.52 1467.57 393.07 1463.58 393.9 1463.58 384.8 1458.59 385.63 1458.59 393.07 1455.6 392.25 1455.6 401.76 1448.61 402.17 1448.61 393.16 1445.12 393.16 1442.21 402.12 1437.64 402.12 1437.64 414.99 1427.66 413.75 1427.66 404.65 1422.67 405.48 1422.67 397.21 1416.69 395.55 1416.69 385.19 1400.72 385.19 1400.72 420.37 1400.72 530.51 1915.52 530.51 1915.52 425.01 1910.86 425.01"/><polygon class="cls-1" points="864.98 419.87 864.98 384.7 880.94 384.7 880.94 395.06 886.93 396.71 886.93 404.98 891.91 404.15 891.91 413.25 901.89 414.49 901.89 401.62 906.47 401.62 909.37 392.66 912.87 392.66 912.87 401.67 919.85 401.26 919.85 391.75 922.84 392.57 922.84 385.13 927.83 384.31 927.83 393.4 931.82 392.57 931.82 400.02 937.81 401.26 937.81 386.79 939.8 386.37 939.8 383.48 941.8 382.65 941.8 386.79 946.79 388.44 946.79 401.67 995.67 401.26 995.67 296.11 1042.56 296.11 1042.56 317.32 1049.55 316.07 1049.55 336.92 1055.53 336.92 1055.53 357.01 1059.52 357.43 1059.52 365.28 1064.51 364.87 1064.51 356.83 1080.55 356.83 1079.72 334.18 1158.68 332.16 1210.33 311.33 1230.12 317.87 1230.12 323.93 1283.41 325.59 1295.96 379 1310.94 374.11 1313.18 352.6 1357.41 350.65 1375.11 424.51 1405.5 424.51 1407.1 411.02 1421.68 411.6 1421.68 530.01 864.98 530.01 864.98 419.87"/><polygon class="cls-1" points="1665.11 420.37 1665.11 385.19 1649.14 385.19 1649.14 395.55 1643.16 397.21 1643.16 405.48 1638.17 404.65 1638.17 413.75 1628.19 414.99 1628.19 402.12 1623.62 402.12 1620.71 393.16 1617.22 393.16 1617.22 402.17 1610.23 401.76 1610.23 392.25 1607.24 393.07 1607.24 385.63 1602.25 384.8 1602.25 393.9 1598.26 393.07 1598.26 400.52 1592.28 401.76 1592.28 387.28 1590.28 386.87 1590.28 383.98 1588.29 383.15 1588.29 387.28 1583.3 388.94 1583.3 402.17 1534.41 401.76 1534.41 296.61 1487.52 296.61 1487.52 317.81 1480.54 316.57 1480.54 337.42 1474.55 337.42 1474.55 357.51 1470.56 357.92 1470.56 365.78 1465.57 365.37 1465.57 357.32 1449.53 357.32 1450.36 334.68 1371.4 332.65 1319.76 311.83 1299.96 318.37 1299.96 324.43 1246.67 326.08 1234.12 379.49 1219.14 374.6 1216.9 353.1 1172.67 351.15 1154.97 425.01 1124.58 425.01 1122.99 411.52 1108.41 412.1 1108.41 530.51 1665.11 530.51 1665.11 420.37"/><polygon class="cls-1" points="954.77 408.92 954.77 373.75 938.8 373.75 938.8 384.11 932.82 385.76 932.82 394.03 927.83 393.2 927.83 402.3 917.85 403.54 917.85 390.67 913.28 390.67 910.38 381.71 906.88 381.71 906.88 390.72 899.9 390.31 899.9 380.8 896.9 381.63 896.9 374.18 891.91 373.36 891.91 382.45 887.92 381.63 887.92 389.07 881.94 390.31 881.94 375.84 879.94 375.42 879.94 372.53 877.95 371.7 877.95 375.84 872.96 377.49 872.96 390.72 824.07 390.31 824.07 285.16 777.18 285.16 777.18 306.37 770.2 305.13 770.2 325.97 764.21 325.97 764.21 346.06 760.22 346.48 760.22 354.33 755.23 353.92 755.23 345.88 739.2 345.88 736.28 324.98 661.06 321.21 609.42 300.38 589.62 306.92 589.62 312.98 536.33 314.64 538.74 360.81 508.8 363.16 506.56 341.65 448.95 342.89 444.64 413.56 414.24 413.56 412.65 400.07 398.07 400.65 398.07 519.07 954.77 519.07 954.77 408.92"/><path class="cls-2" d="M-203.27,166.79c5.25-1.93,4,16.55,4,16.55,3.59,0,2.43,14,2.43,14,6.91,0,2.7,12.44,4,13.79,4.5,4.48-.43,5.51,6.21,15.44a37.68,37.68,0,0,1,6,20.95V408.9h-44.89V247.57a41.88,41.88,0,0,1,6.64-20.95c6.63-9.93,2.28-11,6.77-15.44,1.35-1.35-2.82-13.79,4.08-13.79,0,0-1.13-14,2.46-14,0,0-1.68-18.48,3.57-16.55" transform="translate(592.15 103.2)"/><polygon class="cls-2" points="803.62 511.1 803.62 344.81 801.62 342.94 801.62 318.01 795.63 318.01 795.63 280.19 789.65 280.19 789.65 271.23 786.65 271.23 786.65 264.26 779.67 264.26 779.67 255.3 774.68 255.3 774.68 245.35 771.69 245.35 771.69 236.39 768.7 236.39 768.7 230.42 768.7 230.42 765.81 230.42 763.71 230.42 763.71 236.39 758.72 236.39 758.72 245.35 756.73 245.35 756.73 255.3 750.74 255.3 750.74 264.26 746.75 264.26 746.75 271.23 741.76 271.23 741.76 280.19 735.77 280.19 735.77 318.01 730.79 318.01 730.79 342.94 727.79 344.81 727.79 511.1 803.62 511.1"/><polygon class="cls-2" points="323.74 514.09 323.74 361.94 319.75 360.24 319.75 337.92 308.78 337.92 308.78 303.08 297.8 303.08 297.8 295.12 292.81 295.12 292.81 288.15 279.85 288.15 279.85 280.19 270.87 280.19 270.87 271.23 264.88 271.23 264.88 262.27 259.89 262.27 259.89 257.29 259.89 257.29 254.59 257.29 250.91 257.29 250.91 262.27 241.93 262.27 241.93 271.23 237.94 271.23 237.94 280.19 226.97 280.19 226.97 288.15 219.99 288.15 219.99 295.12 211.01 295.12 211.01 303.08 200.03 303.08 200.03 337.92 190.06 337.92 190.06 360.24 185.07 361.94 185.07 514.09 323.74 514.09"/><polygon class="cls-2" points="1913.86 479.89 1913.24 417.04 1904.92 409.26 1904.04 397.64 1886.87 397.64 1886.3 408.71 1880 409.15 1880.02 431.15 1876.61 432.2 1876.61 449.29 1870.15 449.84 1868.91 438.81 1859.65 436.61 1859.65 422.82 1853.67 421.72 1853.67 412.9 1823.18 412.07 1822.97 425.31 1748.16 421.17 1741.67 438.26 1610.35 439.37 1609.87 450.87 1551.99 451.19 1550.86 412.57 1501.35 412.57 1502.2 502.46 1492.76 502.75 1492.47 417.1 1463.57 397.22 1462.13 425.32 1456.98 428.05 1455.27 417.54 1452.4 417.54 1450.69 424.51 1441.63 424.51 1441.63 465.32 1414.72 465.32 1415.58 510.11 1403.72 510.11 1403.72 502.56 1384.76 501.73 1384.76 510.11 1368.36 510.11 1368.93 487.22 1351.18 487.22 1350.04 436.45 1313.4 436.45 1312.83 453.38 1303.1 453.38 1302.53 464.32 1294.97 464.32 1294.97 482.71 1292.31 481.88 1291.69 419.03 1283.37 411.26 1282.49 399.63 1265.32 399.63 1264.75 410.7 1258.45 411.14 1258.48 433.14 1255.07 434.19 1255.07 451.28 1248.6 451.83 1247.36 440.8 1238.11 438.6 1238.11 424.81 1232.12 423.71 1232.12 414.89 1201.64 414.06 1201.42 422 1126.62 423.16 1126.37 440.25 988.8 441.36 988.32 452.87 930.45 453.18 929.31 414.56 879.8 414.56 880.66 504.46 871.21 504.75 870.93 419.09 842.02 399.21 840.59 427.31 835.44 430.04 833.72 419.53 830.86 419.53 829.14 426.5 820.08 426.5 820.08 465.32 793.17 465.32 794.03 510.11 782.17 510.11 782.17 502.56 763.22 501.73 763.22 510.11 746.81 510.11 747.38 487.22 729.64 487.22 728.49 436.45 691.86 436.45 691.28 453.38 681.55 453.38 680.98 464.32 673.42 464.32 673.42 482.71 670.76 481.88 670.15 419.03 661.83 411.26 660.95 399.63 643.77 399.63 643.2 410.7 636.9 411.14 636.93 433.14 633.52 434.19 633.52 451.28 627.05 451.83 625.81 440.8 616.56 438.6 616.56 424.81 610.57 423.71 610.57 414.89 580.09 414.06 579.94 423.5 505.07 423.16 498.58 440.25 367.25 441.36 366.77 452.87 308.9 453.18 307.77 414.56 258.25 414.56 258.73 464.32 249.53 464.32 249.38 419.09 220.47 399.21 219.04 427.31 213.89 430.04 212.17 419.53 209.31 419.53 207.59 426.5 198.54 426.5 198.54 509.11 188.12 509.11 188.69 486.22 170.94 486.22 169.8 435.46 133.16 435.46 132.59 452.38 122.86 452.38 122.29 463.33 114.73 463.33 114.73 481.71 112.07 480.88 111.45 410.33 104.13 410.26 101.25 398.63 88.07 398.63 85.51 409.71 78.21 410.15 78.07 451.28 67.36 450.84 67.12 437.82 57.87 437.6 57.87 423.82 51.88 422.72 51.88 413.89 21.4 413.07 21.18 426.3 0 426.13 0 528.02 198.54 528.02 198.54 529.02 820.08 529.02 1441.63 529.02 1441.63 527.03 1915.52 527.03 1915.52 480.41 1913.86 479.89"/><polygon class="cls-2" points="912.87 322.99 912.87 532.01 970.73 532.01 970.73 322.99 958.07 322.99 957.24 294.12 951.43 294.12 950.98 301.6 946.79 301.43 946.79 286.16 934.82 286.16 934.82 303.08 933.82 303.08 933.47 295.74 924.84 294.19 924.84 322.99 912.87 322.99"/><path class="cls-2" d="M836,132.26c4-2.24,3.06,19.24,3.06,19.24,2.76,0,1.87,16.35,1.87,16.35,5.32,0,2.08,14.47,3.11,16,3.46,5.21-.48,6.41,4.62,18s4.46,24.38,4.46,24.38V413.88H819.24V226.22s-.14-12.83,5-24.38,1.68-12.74,5.13-18c1-1.57-2.21-16,3.1-16,0,0-.89-16.35,1.87-16.35,0,0-1.3-21.48,2.74-19.24" transform="translate(592.15 103.2)"/><rect class="cls-3" x="481.87" y="340.9" width="60.86" height="188.12"/><rect class="cls-4" x="489.85" y="348.86" width="5.99" height="16.92"/><rect class="cls-4" x="501.83" y="348.86" width="5.99" height="16.92"/><rect class="cls-4" x="512.8" y="348.86" width="6.98" height="16.92"/><rect class="cls-4" x="489.85" y="369.77" width="5.99" height="16.92"/><rect class="cls-4" x="501.83" y="369.77" width="5.99" height="16.92"/><rect class="cls-4" x="512.8" y="369.77" width="6.98" height="16.92"/><rect class="cls-4" x="525.77" y="369.77" width="6.98" height="16.92"/><rect class="cls-4" x="501.83" y="391.66" width="5.99" height="15.93"/><rect class="cls-4" x="512.8" y="430.48" width="6.98" height="16.92"/><rect class="cls-4" x="525.77" y="430.48" width="6.98" height="16.92"/><rect class="cls-4" x="501.83" y="466.31" width="5.99" height="15.93"/><rect class="cls-4" x="489.85" y="430.48" width="5.99" height="16.92"/><rect class="cls-4" x="512.8" y="409.58" width="6.98" height="15.93"/><rect class="cls-4" x="512.8" y="466.31" width="6.98" height="15.93"/><rect class="cls-4" x="525.77" y="466.31" width="6.98" height="15.93"/><rect class="cls-4" x="489.85" y="490.2" width="5.99" height="14.93"/><rect class="cls-4" x="501.83" y="490.2" width="5.99" height="14.93"/><rect class="cls-4" x="512.8" y="490.2" width="6.98" height="14.93"/><rect class="cls-4" x="525.77" y="490.2" width="6.98" height="14.93"/><rect class="cls-2" x="1636.37" y="167.18" width="80.02" height="25.66"/><polygon class="cls-2" points="1632.45 490.81 1626.2 193.28 1676.02 175.16 1729.81 193.28 1721.74 490.81 1632.45 490.81"/><rect class="cls-2" x="1632.8" y="490.81" width="90.03" height="39.21"/><rect class="cls-2" x="1668.52" y="127.26" width="15.72" height="79.12"/><line class="cls-5" x1="1674.24" y1="137.24" x2="1674.24" y2="78.79"/><rect class="cls-3" x="573.34" y="262.41" width="43.64" height="38.61"/><rect class="cls-4" x="578.28" y="268.16" width="32.93" height="27.11"/><polygon class="cls-3" points="562.64 529.37 631.47 529.37 625.42 301.02 562.64 301.02 562.64 529.37"/><rect class="cls-4" x="574.99" y="356.88" width="41.99" height="161.81"/><rect class="cls-4" x="574.99" y="311.7" width="41.99" height="36.14"/><line class="cls-6" x1="607.1" y1="301.02" x2="607.1" y2="521.15"/><line class="cls-6" x1="626.86" y1="321.56" x2="570.05" y2="321.56"/><line class="cls-6" x1="626.86" y1="366.73" x2="570.05" y2="366.73"/><line class="cls-6" x1="624.39" y1="377.41" x2="565.93" y2="377.41"/><line class="cls-6" x1="585.69" y1="311.7" x2="585.69" y2="521.15"/><line class="cls-6" x1="624.39" y1="332.23" x2="565.93" y2="332.23"/><line class="cls-6" x1="626.86" y1="342.09" x2="570.05" y2="342.09"/><line class="cls-6" x1="596.4" y1="268.16" x2="596.4" y2="521.15"/><line class="cls-6" x1="624.39" y1="385.62" x2="565.93" y2="385.62"/><line class="cls-6" x1="624.39" y1="416.02" x2="565.93" y2="416.02"/><line class="cls-6" x1="622.74" y1="425.87" x2="565.11" y2="425.87"/><line class="cls-6" x1="622.74" y1="395.48" x2="565.11" y2="395.48"/><line class="cls-6" x1="624.39" y1="405.34" x2="565.93" y2="405.34"/><line class="cls-6" x1="624.39" y1="434.91" x2="565.93" y2="434.91"/><line class="cls-6" x1="622.74" y1="446.41" x2="565.11" y2="446.41"/><line class="cls-6" x1="622.74" y1="455.44" x2="565.11" y2="455.44"/><line class="cls-6" x1="622.74" y1="485.01" x2="565.11" y2="485.01"/><line class="cls-6" x1="626.86" y1="494.05" x2="570.05" y2="494.05"/><line class="cls-6" x1="626.86" y1="465.3" x2="570.05" y2="465.3"/><line class="cls-6" x1="622.74" y1="475.16" x2="565.11" y2="475.16"/><line class="cls-6" x1="624.39" y1="503.08" x2="565.93" y2="503.08"/><line class="cls-6" x1="622.74" y1="513.76" x2="565.11" y2="513.76"/><line class="cls-6" x1="613.69" y1="282.13" x2="576.64" y2="282.13"/><polygon class="cls-3" points="625.21 529.37 696.84 529.37 696.84 331.31 625.21 301.12 625.21 529.37"/><polygon class="cls-4" points="622.74 518.69 689.43 518.28 689.43 339.33 622.74 311.99 622.74 518.69"/><line class="cls-6" x1="661.44" y1="321.56" x2="661.44" y2="518.69"/><line class="cls-6" x1="668.02" y1="323.2" x2="620.27" y2="323.2"/><line class="cls-6" x1="691.9" y1="333.88" x2="620.27" y2="333.88"/><line class="cls-6" x1="640.03" y1="310.88" x2="640.03" y2="518.69"/><line class="cls-6" x1="650.73" y1="315.81" x2="650.73" y2="518.69"/><line class="cls-6" x1="691.9" y1="342.09" x2="620.27" y2="342.09"/><line class="cls-6" x1="691.9" y1="372.48" x2="620.27" y2="372.48"/><line class="cls-6" x1="691.9" y1="382.34" x2="619.45" y2="382.34"/><line class="cls-6" x1="692" y1="350.63" x2="619.37" y2="351.84"/><line class="cls-6" x1="691.9" y1="361.8" x2="620.27" y2="361.8"/><line class="cls-6" x1="691.9" y1="391.37" x2="620.27" y2="391.37"/><line class="cls-6" x1="691.9" y1="402.87" x2="619.45" y2="402.87"/><line class="cls-6" x1="691.9" y1="411.91" x2="619.45" y2="411.91"/><line class="cls-6" x1="691.9" y1="441.48" x2="619.45" y2="441.48"/><line class="cls-6" x1="692" y1="450.87" x2="620.58" y2="452.08"/><line class="cls-6" x1="691.9" y1="421.77" x2="620.27" y2="421.77"/><line class="cls-6" x1="691.9" y1="431.62" x2="619.45" y2="431.62"/><line class="cls-6" x1="691.9" y1="459.55" x2="620.27" y2="459.55"/><line class="cls-6" x1="691.9" y1="470.23" x2="619.45" y2="470.23"/><line class="cls-6" x1="672.96" y1="328.95" x2="672.96" y2="521.98"/><line class="cls-6" x1="683.67" y1="328.95" x2="683.67" y2="521.15"/><line class="cls-6" x1="630.15" y1="309.23" x2="630.15" y2="518.69"/><line class="cls-6" x1="693.55" y1="498.98" x2="620.27" y2="498.98"/><line class="cls-6" x1="693.21" y1="508.84" x2="621.79" y2="510.05"/><line class="cls-6" x1="693.55" y1="480.08" x2="621.92" y2="480.08"/><line class="cls-6" x1="693.55" y1="489.12" x2="620.27" y2="489.12"/><rect class="cls-3" x="1621.44" y="347.84" width="29.64" height="26.28"/><rect class="cls-4" x="1625.56" y="351.95" width="22.23" height="18.07"/><polygon class="cls-3" points="1658.49 529.37 1611.56 529.37 1615.68 374.12 1658.49 374.12 1658.49 529.37"/><rect class="cls-4" x="1621.44" y="411.91" width="28.82" height="110.07"/><rect class="cls-4" x="1621.44" y="381.52" width="28.82" height="24.64"/><line class="cls-6" x1="1628.03" y1="374.12" x2="1628.03" y2="523.62"/><line class="cls-6" x1="1614.85" y1="388.09" x2="1653.55" y2="388.09"/><line class="cls-6" x1="1614.85" y1="418.48" x2="1653.55" y2="418.48"/><line class="cls-6" x1="1616.5" y1="425.87" x2="1656.02" y2="425.87"/><line class="cls-6" x1="1642.85" y1="381.52" x2="1642.85" y2="523.62"/><line class="cls-6" x1="1616.5" y1="395.48" x2="1656.02" y2="395.48"/><line class="cls-6" x1="1614.85" y1="402.05" x2="1653.55" y2="402.05"/><line class="cls-6" x1="1635.44" y1="351.95" x2="1635.44" y2="523.62"/><line class="cls-6" x1="1616.5" y1="431.62" x2="1656.02" y2="431.62"/><line class="cls-6" x1="1616.5" y1="452.16" x2="1656.02" y2="452.16"/><line class="cls-6" x1="1617.32" y1="458.73" x2="1656.84" y2="458.73"/><line class="cls-6" x1="1617.32" y1="438.19" x2="1656.84" y2="438.19"/><line class="cls-6" x1="1616.5" y1="444.76" x2="1656.02" y2="444.76"/><line class="cls-6" x1="1616.5" y1="465.3" x2="1656.02" y2="465.3"/><line class="cls-6" x1="1617.32" y1="472.69" x2="1656.84" y2="472.69"/><line class="cls-6" x1="1617.32" y1="479.26" x2="1656.84" y2="479.26"/><line class="cls-6" x1="1617.32" y1="498.98" x2="1656.84" y2="498.98"/><line class="cls-6" x1="1614.85" y1="505.55" x2="1653.55" y2="505.55"/><line class="cls-6" x1="1614.85" y1="485.83" x2="1653.55" y2="485.83"/><line class="cls-6" x1="1617.32" y1="492.41" x2="1656.84" y2="492.41"/><line class="cls-6" x1="1616.5" y1="511.3" x2="1656.02" y2="511.3"/><line class="cls-6" x1="1617.32" y1="518.69" x2="1656.84" y2="518.69"/><line class="cls-6" x1="1623.91" y1="360.98" x2="1648.61" y2="360.98"/><polygon class="cls-3" points="1615.68 529.37 1567.1 529.37 1567.1 394.66 1615.68 374.12 1615.68 529.37"/><polygon class="cls-4" points="1617.32 522.11 1572.04 521.83 1572.04 400.11 1617.32 381.52 1617.32 522.11"/><line class="cls-6" x1="1590.98" y1="388.09" x2="1590.98" y2="521.98"/><line class="cls-6" x1="1586.86" y1="388.91" x2="1618.97" y2="388.91"/><line class="cls-6" x1="1570.39" y1="396.3" x2="1618.97" y2="396.3"/><line class="cls-6" x1="1605.8" y1="380.7" x2="1605.8" y2="521.98"/><line class="cls-6" x1="1598.39" y1="383.98" x2="1598.39" y2="521.98"/><line class="cls-6" x1="1570.39" y1="402.05" x2="1618.97" y2="402.05"/><line class="cls-6" x1="1570.39" y1="422.59" x2="1618.97" y2="422.59"/><line class="cls-6" x1="1570.39" y1="429.16" x2="1619.79" y2="429.16"/><line class="cls-6" x1="1570.39" y1="407.8" x2="1619.79" y2="408.62"/><line class="cls-6" x1="1570.39" y1="415.19" x2="1618.97" y2="415.19"/><line class="cls-6" x1="1570.39" y1="435.73" x2="1618.97" y2="435.73"/><line class="cls-6" x1="1570.39" y1="443.12" x2="1619.79" y2="443.12"/><line class="cls-6" x1="1570.39" y1="449.69" x2="1619.79" y2="449.69"/><line class="cls-6" x1="1570.39" y1="469.41" x2="1619.79" y2="469.41"/><line class="cls-6" x1="1570.39" y1="475.98" x2="1618.97" y2="476.8"/><line class="cls-6" x1="1570.39" y1="456.26" x2="1618.97" y2="456.26"/><line class="cls-6" x1="1570.39" y1="462.84" x2="1619.79" y2="462.84"/><line class="cls-6" x1="1570.39" y1="481.73" x2="1618.97" y2="481.73"/><line class="cls-6" x1="1570.39" y1="489.12" x2="1619.79" y2="489.12"/><line class="cls-6" x1="1583.57" y1="393.02" x2="1583.57" y2="524.44"/><line class="cls-6" x1="1576.16" y1="393.02" x2="1576.16" y2="523.62"/><line class="cls-6" x1="1612.38" y1="379.87" x2="1612.38" y2="521.98"/><line class="cls-6" x1="1569.57" y1="508.83" x2="1618.97" y2="508.83"/><line class="cls-6" x1="1569.57" y1="515.4" x2="1618.15" y2="516.23"/><line class="cls-6" x1="1569.57" y1="495.69" x2="1618.15" y2="495.69"/><line class="cls-6" x1="1569.57" y1="502.26" x2="1618.97" y2="502.26"/><polygon class="cls-3" points="1253.49 530.19 1134.11 530.19 1134.11 267.34 1253.49 229.56 1253.49 530.19"/><line class="cls-7" x1="1162.92" y1="258.31" x2="1162.92" y2="530.19"/><line class="cls-7" x1="1222.2" y1="241.88" x2="1222.2" y2="530.19"/><rect class="cls-4" x="1183.51" y="488.3" width="18.11" height="41.07"/><rect class="cls-3" x="968.12" y="383.98" width="95.5" height="145.39"/><rect class="cls-4" x="993.64" y="439.01" width="14.82" height="4.93"/><rect class="cls-4" x="993.64" y="448.87" width="14.82" height="4.93"/><rect class="cls-4" x="993.64" y="457.91" width="14.82" height="5.75"/><rect class="cls-4" x="976.35" y="439.01" width="14" height="4.93"/><rect class="cls-4" x="976.35" y="448.87" width="14" height="4.93"/><rect class="cls-4" x="976.35" y="457.91" width="14" height="5.75"/><rect class="cls-4" x="976.35" y="468.58" width="14" height="5.75"/><rect class="cls-4" x="1042.22" y="406.16" width="13.17" height="4.93"/><rect class="cls-4" x="1024.11" y="415.19" width="14" height="5.75"/><rect class="cls-4" x="1024.11" y="425.87" width="14" height="5.75"/><rect class="cls-4" x="993.64" y="406.16" width="14.82" height="4.93"/><rect class="cls-4" x="1024.11" y="396.3" width="14" height="4.93"/><rect class="cls-4" x="1042.22" y="415.19" width="13.17" height="5.75"/><rect class="cls-4" x="993.64" y="415.19" width="14.82" height="5.75"/><rect class="cls-4" x="993.64" y="425.87" width="14.82" height="5.75"/><rect class="cls-4" x="976.35" y="396.3" width="14" height="4.93"/><rect class="cls-4" x="976.35" y="406.16" width="14" height="4.93"/><rect class="cls-4" x="976.35" y="415.19" width="14" height="5.75"/><rect class="cls-4" x="976.35" y="425.87" width="14" height="5.75"/><rect class="cls-4" x="994.47" y="511.3" width="14" height="4.93"/><rect class="cls-4" x="1024.11" y="457.91" width="14" height="4.93"/><rect class="cls-4" x="1024.11" y="498.15" width="14" height="5.75"/><rect class="cls-4" x="1024.11" y="511.3" width="14" height="5.75"/><rect class="cls-4" x="994.47" y="468.58" width="14" height="4.93"/><rect class="cls-4" x="994.47" y="478.44" width="14" height="4.93"/><rect class="cls-4" x="976.35" y="487.48" width="14" height="5.75"/><rect class="cls-4" x="994.47" y="498.15" width="14" height="5.75"/><rect class="cls-4" x="976.35" y="512.12" width="14" height="4.93"/><rect class="cls-4" x="1041.4" y="488.3" width="14" height="4.93"/><rect class="cls-4" x="1041.4" y="478.44" width="14" height="4.93"/><rect class="cls-4" x="1024.11" y="469.41" width="14" height="4.93"/><rect class="cls-3" x="1077.86" y="375.77" width="48.58" height="155.24"/><rect class="cls-4" x="1087.74" y="413.55" width="28.82" height="110.07"/><rect class="cls-4" x="1087.74" y="383.16" width="28.82" height="24.64"/><line class="cls-6" x1="1094.33" y1="375.77" x2="1094.33" y2="525.26"/><line class="cls-6" x1="1081.16" y1="389.73" x2="1119.85" y2="389.73"/><line class="cls-6" x1="1081.16" y1="420.12" x2="1119.85" y2="420.12"/><line class="cls-6" x1="1082.8" y1="427.52" x2="1122.32" y2="427.52"/><line class="cls-6" x1="1109.15" y1="383.16" x2="1109.15" y2="525.26"/><line class="cls-6" x1="1082.8" y1="397.12" x2="1122.32" y2="397.12"/><line class="cls-6" x1="1081.16" y1="403.69" x2="1119.85" y2="403.69"/><line class="cls-6" x1="1101.74" y1="383.16" x2="1101.74" y2="525.26"/><line class="cls-6" x1="1082.8" y1="433.26" x2="1122.32" y2="433.26"/><line class="cls-6" x1="1082.8" y1="453.8" x2="1122.32" y2="453.8"/><line class="cls-6" x1="1083.63" y1="460.37" x2="1123.14" y2="460.37"/><line class="cls-6" x1="1083.63" y1="439.84" x2="1123.14" y2="439.84"/><line class="cls-6" x1="1082.8" y1="446.41" x2="1122.32" y2="446.41"/><line class="cls-6" x1="1082.8" y1="466.94" x2="1122.32" y2="466.94"/><line class="cls-6" x1="1083.63" y1="474.33" x2="1123.14" y2="474.33"/><line class="cls-6" x1="1083.63" y1="480.91" x2="1123.14" y2="480.91"/><line class="cls-6" x1="1083.63" y1="500.62" x2="1123.14" y2="500.62"/><line class="cls-6" x1="1081.16" y1="507.19" x2="1119.85" y2="507.19"/><line class="cls-6" x1="1081.16" y1="487.48" x2="1119.85" y2="487.48"/><line class="cls-6" x1="1083.63" y1="494.05" x2="1123.14" y2="494.05"/><line class="cls-6" x1="1082.8" y1="512.94" x2="1122.32" y2="512.94"/><line class="cls-6" x1="1083.63" y1="520.33" x2="1123.14" y2="520.33"/><line class="cls-6" x1="1101.74" y1="360.16" x2="1101.74" y2="335.52"/><ellipse class="cls-3" cx="1101.1" cy="331.37" rx="3.68" ry="3.67"/><polygon class="cls-3" points="1119.02 377.41 1083.92 377.41 1090.67 356.88 1112.27 356.88 1119.02 377.41"/><rect class="cls-3" x="501" y="374.95" width="50.22" height="155.24"/><rect class="cls-4" x="507.59" y="381.52" width="4.94" height="13.96"/><rect class="cls-4" x="517.47" y="381.52" width="4.94" height="13.96"/><rect class="cls-4" x="526.52" y="381.52" width="5.76" height="13.96"/><rect class="cls-4" x="507.59" y="398.77" width="4.94" height="13.96"/><rect class="cls-4" x="517.47" y="398.77" width="4.94" height="13.96"/><rect class="cls-4" x="526.52" y="398.77" width="5.76" height="13.96"/><rect class="cls-4" x="537.23" y="398.77" width="5.76" height="13.96"/><rect class="cls-4" x="517.47" y="416.84" width="4.94" height="13.14"/><rect class="cls-4" x="526.52" y="448.87" width="5.76" height="13.96"/><rect class="cls-4" x="537.23" y="448.87" width="5.76" height="13.96"/><rect class="cls-4" x="517.47" y="478.44" width="4.94" height="13.14"/><rect class="cls-4" x="507.59" y="448.87" width="4.94" height="13.96"/><rect class="cls-4" x="526.52" y="431.62" width="5.76" height="13.14"/><rect class="cls-4" x="526.52" y="478.44" width="5.76" height="13.14"/><rect class="cls-4" x="537.23" y="478.44" width="5.76" height="13.14"/><rect class="cls-4" x="507.59" y="498.15" width="4.94" height="12.32"/><rect class="cls-4" x="517.47" y="498.15" width="4.94" height="12.32"/><rect class="cls-4" x="526.52" y="498.15" width="5.76" height="12.32"/><rect class="cls-4" x="537.23" y="498.15" width="5.76" height="12.32"/><rect class="cls-3" x="454.07" y="374.12" width="50.22" height="155.24"/><rect class="cls-4" x="492.77" y="380.7" width="4.94" height="13.96"/><rect class="cls-4" x="482.89" y="380.7" width="4.94" height="13.96"/><rect class="cls-4" x="473.01" y="380.7" width="5.76" height="13.96"/><rect class="cls-4" x="492.77" y="397.94" width="4.94" height="13.96"/><rect class="cls-4" x="482.89" y="397.94" width="4.94" height="13.96"/><rect class="cls-4" x="473.01" y="397.94" width="5.76" height="13.96"/><rect class="cls-4" x="462.3" y="397.94" width="5.76" height="13.96"/><rect class="cls-4" x="482.89" y="416.02" width="4.94" height="13.14"/><rect class="cls-4" x="473.01" y="448.05" width="5.76" height="13.96"/><rect class="cls-4" x="462.3" y="448.05" width="5.76" height="13.96"/><rect class="cls-4" x="482.89" y="477.62" width="4.94" height="13.14"/><rect class="cls-4" x="492.77" y="448.05" width="4.94" height="13.96"/><rect class="cls-4" x="473.01" y="430.8" width="5.76" height="13.14"/><rect class="cls-4" x="473.01" y="477.62" width="5.76" height="13.14"/><rect class="cls-4" x="462.3" y="477.62" width="5.76" height="13.14"/><rect class="cls-4" x="492.77" y="497.33" width="4.94" height="12.32"/><rect class="cls-4" x="482.89" y="497.33" width="4.94" height="12.32"/><rect class="cls-4" x="473.01" y="497.33" width="5.76" height="12.32"/><rect class="cls-4" x="462.3" y="497.33" width="5.76" height="12.32"/><rect class="cls-3" x="1355.91" y="375.77" width="72.45" height="154.42"/><rect class="cls-4" x="1363.32" y="383.16" width="56.81" height="4.93"/><rect class="cls-4" x="1363.32" y="392.2" width="56.81" height="2.46"/><rect class="cls-4" x="1363.32" y="397.94" width="56.81" height="4.11"/><rect class="cls-4" x="1363.32" y="406.16" width="56.81" height="5.75"/><rect class="cls-4" x="1363.32" y="416.02" width="56.81" height="0.82"/><rect class="cls-4" x="1363.32" y="420.94" width="56.81" height="4.93"/><rect class="cls-4" x="1363.32" y="430.8" width="56.81" height="5.75"/><rect class="cls-4" x="1363.32" y="439.84" width="56.81" height="1.64"/><rect class="cls-4" x="1363.32" y="444.76" width="56.81" height="4.11"/><rect class="cls-4" x="1363.32" y="462.84" width="56.81" height="5.75"/><rect class="cls-4" x="1363.32" y="472.69" width="56.81" height="0.82"/><rect class="cls-4" x="1363.32" y="477.62" width="56.81" height="3.29"/><rect class="cls-4" x="1363.32" y="489.94" width="56.81" height="4.93"/><rect class="cls-4" x="1363.32" y="498.98" width="56.81" height="1.64"/><rect class="cls-4" x="1363.32" y="504.73" width="56.81" height="4.11"/><polygon class="cls-3" points="1329.15 317.45 1329.15 282.95 1322.76 282.95 1318.71 263.24 1302.51 263.24 1286.31 263.24 1282.26 282.95 1275.63 282.95 1275.63 317.45 1261.64 317.45 1261.64 529.37 1275.51 529.37 1289.01 529.37 1302.51 529.37 1316.01 529.37 1329.51 529.37 1343.14 529.37 1343.14 317.45 1329.15 317.45"/><polygon class="cls-4" points="1325.86 323.2 1325.86 309.23 1280.57 309.23 1280.57 323.2 1271.52 323.2 1271.52 509.65 1335.73 509.65 1335.73 323.2 1325.86 323.2"/><rect class="cls-4" x="1290.45" y="287.06" width="24.7" height="18.07"/><line class="cls-6" x1="1279.75" y1="314.98" x2="1325.86" y2="314.98"/><line class="cls-6" x1="1301.98" y1="222.99" x2="1301.98" y2="511.3"/><line class="cls-6" x1="1290.45" y1="263.24" x2="1290.45" y2="511.3"/><line class="cls-6" x1="1315.15" y1="263.24" x2="1315.15" y2="511.3"/><line class="cls-6" x1="1279.75" y1="298.56" x2="1279.75" y2="511.3"/><line class="cls-6" x1="1325.86" y1="298.56" x2="1325.86" y2="511.3"/><line class="cls-6" x1="1271.52" y1="320.73" x2="1335.74" y2="320.73"/><line class="cls-6" x1="1271.52" y1="329.77" x2="1335.74" y2="329.77"/><line class="cls-6" x1="1271.52" y1="337.98" x2="1335.74" y2="337.98"/><line class="cls-6" x1="1271.52" y1="345.38" x2="1335.74" y2="345.38"/><line class="cls-6" x1="1271.52" y1="354.41" x2="1335.74" y2="354.41"/><line class="cls-6" x1="1271.52" y1="361.8" x2="1335.74" y2="361.8"/><line class="cls-6" x1="1271.52" y1="370.02" x2="1335.74" y2="370.02"/><line class="cls-6" x1="1271.52" y1="377.41" x2="1335.74" y2="377.41"/><line class="cls-6" x1="1271.52" y1="386.45" x2="1335.74" y2="386.45"/><line class="cls-6" x1="1271.52" y1="394.66" x2="1335.74" y2="394.66"/><line class="cls-6" x1="1271.52" y1="403.69" x2="1335.74" y2="403.69"/><line class="cls-6" x1="1271.52" y1="411.91" x2="1335.74" y2="411.91"/><line class="cls-6" x1="1271.52" y1="419.3" x2="1335.74" y2="419.3"/><line class="cls-6" x1="1271.52" y1="427.52" x2="1335.74" y2="427.52"/><line class="cls-6" x1="1271.52" y1="436.55" x2="1335.74" y2="436.55"/><line class="cls-6" x1="1271.52" y1="444.76" x2="1335.74" y2="444.76"/><line class="cls-6" x1="1271.52" y1="452.98" x2="1335.74" y2="452.98"/><line class="cls-6" x1="1271.52" y1="462.01" x2="1335.74" y2="462.01"/><line class="cls-6" x1="1271.52" y1="469.41" x2="1335.74" y2="469.41"/><line class="cls-6" x1="1271.52" y1="477.62" x2="1335.74" y2="477.62"/><line class="cls-6" x1="1271.52" y1="487.48" x2="1335.74" y2="487.48"/><line class="cls-6" x1="1271.52" y1="494.87" x2="1335.74" y2="494.87"/><line class="cls-6" x1="1271.52" y1="503.08" x2="1335.74" y2="503.08"/><line class="cls-6" x1="1287.16" y1="295.27" x2="1315.98" y2="295.27"/><polygon class="cls-3" points="1544.98 334.7 1544.98 302.66 1539.44 302.66 1535.72 284.59 1520.82 284.59 1505.92 284.59 1502.2 302.66 1496.41 302.66 1496.41 334.7 1483.23 334.7 1483.23 529.37 1495.99 529.37 1508.41 529.37 1520.82 529.37 1533.23 529.37 1545.65 529.37 1558.15 529.37 1558.15 334.7 1544.98 334.7"/><path class="cls-3" d="M940.2,166.61a11.79,11.79,0,0,0-23.58,0h0v28.75h23.87V166.61Z" transform="translate(592.15 103.2)"/><ellipse class="cls-4" cx="1520.28" cy="307.18" rx="10.29" ry="10.27"/><ellipse class="cls-6" cx="1520.28" cy="307.18" rx="6.59" ry="6.57"/><rect class="cls-4" x="1494.76" y="350.3" width="7.41" height="17.25"/><rect class="cls-4" x="1506.29" y="350.3" width="7.41" height="17.25"/><rect class="cls-4" x="1494.76" y="375.77" width="7.41" height="17.25"/><rect class="cls-4" x="1506.29" y="375.77" width="7.41" height="17.25"/><rect class="cls-4" x="1494.76" y="401.23" width="7.41" height="17.25"/><rect class="cls-4" x="1506.29" y="401.23" width="7.41" height="17.25"/><rect class="cls-4" x="1494.76" y="426.69" width="7.41" height="17.25"/><rect class="cls-4" x="1506.29" y="426.69" width="7.41" height="17.25"/><rect class="cls-4" x="1494.76" y="452.98" width="7.41" height="17.25"/><rect class="cls-4" x="1506.29" y="452.98" width="7.41" height="17.25"/><rect class="cls-4" x="1494.76" y="478.44" width="7.41" height="17.25"/><rect class="cls-4" x="1506.29" y="478.44" width="7.41" height="17.25"/><rect class="cls-4" x="1494.76" y="503.9" width="7.41" height="17.25"/><rect class="cls-4" x="1506.29" y="503.9" width="7.41" height="17.25"/><rect class="cls-4" x="1528.52" y="350.3" width="7.41" height="17.25"/><rect class="cls-4" x="1540.04" y="350.3" width="7.41" height="17.25"/><rect class="cls-4" x="1528.52" y="375.77" width="7.41" height="17.25"/><rect class="cls-4" x="1540.04" y="375.77" width="7.41" height="17.25"/><rect class="cls-4" x="1528.52" y="401.23" width="7.41" height="17.25"/><rect class="cls-4" x="1540.04" y="401.23" width="7.41" height="17.25"/><rect class="cls-4" x="1528.52" y="426.69" width="7.41" height="17.25"/><rect class="cls-4" x="1540.04" y="426.69" width="7.41" height="17.25"/><rect class="cls-4" x="1528.52" y="452.98" width="7.41" height="17.25"/><rect class="cls-4" x="1540.04" y="452.98" width="7.41" height="17.25"/><rect class="cls-4" x="1528.52" y="478.44" width="7.41" height="17.25"/><rect class="cls-4" x="1540.04" y="478.44" width="7.41" height="17.25"/><rect class="cls-4" x="1528.52" y="503.9" width="7.41" height="17.25"/><rect class="cls-4" x="1540.04" y="503.9" width="7.41" height="17.25"/><rect class="cls-3" x="835.57" y="374.12" width="48.58" height="155.24"/><rect class="cls-4" x="845.45" y="411.91" width="28.82" height="110.07"/><rect class="cls-4" x="845.45" y="381.52" width="28.82" height="24.64"/><line class="cls-6" x1="852.04" y1="374.12" x2="852.04" y2="523.62"/><line class="cls-6" x1="838.86" y1="388.09" x2="877.56" y2="388.09"/><line class="cls-6" x1="838.86" y1="418.48" x2="877.56" y2="418.48"/><line class="cls-6" x1="840.51" y1="425.87" x2="880.03" y2="425.87"/><line class="cls-6" x1="866.86" y1="381.52" x2="866.86" y2="523.62"/><line class="cls-6" x1="840.51" y1="395.48" x2="880.03" y2="395.48"/><line class="cls-6" x1="838.86" y1="402.05" x2="877.56" y2="402.05"/><line class="cls-6" x1="859.45" y1="381.52" x2="859.45" y2="523.62"/><line class="cls-6" x1="840.51" y1="431.62" x2="880.03" y2="431.62"/><line class="cls-6" x1="840.51" y1="452.16" x2="880.03" y2="452.16"/><line class="cls-6" x1="841.33" y1="458.73" x2="880.85" y2="458.73"/><line class="cls-6" x1="841.33" y1="438.19" x2="880.85" y2="438.19"/><line class="cls-6" x1="840.51" y1="444.76" x2="880.03" y2="444.76"/><line class="cls-6" x1="840.51" y1="465.3" x2="880.03" y2="465.3"/><line class="cls-6" x1="841.33" y1="472.69" x2="880.85" y2="472.69"/><line class="cls-6" x1="841.33" y1="479.26" x2="880.85" y2="479.26"/><line class="cls-6" x1="841.33" y1="498.98" x2="880.85" y2="498.98"/><line class="cls-6" x1="838.86" y1="505.55" x2="877.56" y2="505.55"/><line class="cls-6" x1="838.86" y1="485.83" x2="877.56" y2="485.83"/><line class="cls-6" x1="841.33" y1="492.41" x2="880.85" y2="492.41"/><line class="cls-6" x1="840.51" y1="511.3" x2="880.03" y2="511.3"/><line class="cls-6" x1="841.33" y1="518.69" x2="880.85" y2="518.69"/><line class="cls-6" x1="859.45" y1="358.52" x2="859.45" y2="333.88"/><ellipse class="cls-3" cx="858.81" cy="329.73" rx="3.68" ry="3.67"/><polygon class="cls-3" points="876.73 375.77 841.63 375.77 848.38 355.23 869.98 355.23 876.73 375.77"/><path class="cls-8" d="M-457.28,426.18c-2.23-4-1.58-8.33-1.61-12.59,0-5.5,0-11,0-16.51,0-4.61,1.49-6,6-6.07,6.11-.13,6.42,1.57,6.42-6.47q0-44.81,0-89.61c0-5.51.91-6.54,6.36-6.64,2.57-.05,3.65-1.16,3.55-3.62,0-.9,0-1.81,0-2.71q0-100.17,0-200.34c0-.45,0-.9,0-1.35-.06-2.61,1.43-4,3.77-4.58,3.92-1,3.93-1,3.93-4.86q0-15.7,0-31.41c0-4.49,1.42-5.93,6-6.07.64,0,1.27-.14,1.9-.11,2.2.14,3-.83,3-3.05-.11-5.32-.08-10.65,0-16,.07-5.12,1.47-6.36,6.52-6.39,3.33,0,6.69.41,10-.32,6.53.8,13.08.16,19.62.33,2.13.06,4.31.26,6.4-.45,3.1,1,6.28.4,9.43.43,4.89,0,6.49,1.54,6.5,6.48,0,5.24.13,10.48-.07,15.71-.11,2.68.88,3.63,3.41,3.34a6.49,6.49,0,0,1,1.08,0c5.11.09,6.32,1.31,6.33,6.5q0,15,0,30.07v1.62c0,4,0,4,3.94,4.12,4.7.09,6,1.53,6,6.56q0,101,0,202c0,2.68.14,4.46,3.63,4.25,2.52-.15,3.88,1.74,4.09,4.19.15,1.89.11,3.79.11,5.69q0,44.55,0,89.1c0,3.44.05,3.67,3.43,3.48,8.29-.48,9,1.87,8.79,8.76-.14,4.6,0,9.21,0,13.81,0,4.26.59,8.62-1.55,12.62Zm35.56-240h.11q0-49.57.05-99.14c0-2.43-.56-3.36-3.12-3.18-4.3.29-4.27-.95-4.17,4.2,0,.63,0,1.27,0,1.9q0,95.88,0,191.77c0,1.72,0,3.43,0,5.15,0,.61,0,1.25.69,1.61a4.27,4.27,0,0,0,6.42-4Q-421.7,235.33-421.72,186.17Zm65.79.26q0,36.3,0,72.6,0,13.55.13,27.08c0,.86-.57,2,.9,2.48,3.92,1.21,6-.22,6-4.22q0-97.24,0-194.49c0-1.44,0-2.88,0-4.33,0-.54,0-1.36-.46-1.46a13.1,13.1,0,0,0-5.91,0c-1.22.32-.64,1.9-.64,2.92Q-355.94,136.73-355.93,186.43Zm-36.59-14.89v84.52c0,.72,0,1.44,0,2.16,0,.54,0,1.31.62,1.34,2,.11,4.07.46,5.91-.06,1.51-.43.74-2.38.74-3.62q.06-84,0-167.94c0-4.69.55-3.77-4-4.11-2.9-.21-3.38.83-3.37,3.47C-392.48,115.38-392.52,143.46-392.52,171.54Zm-17,.28h0q0-16.12,0-32.24,0-26.4,0-52.82c0-.86.44-2.17-.41-2.52a9.89,9.89,0,0,0-5.85-.18c-1.52.33-.79,2-.79,3q-.06,84.12,0,168.22c0,1,0,2,0,3,0,.54.07,1.26.71,1.28,1.89.08,3.93.43,5.64-.12,1.4-.46.69-2.41.69-3.68Q-409.53,213.81-409.55,171.82Zm12.2,0V95.76c0-3.25,0-6.5,0-9.75,0-.69.24-1.82-.53-1.91a17.25,17.25,0,0,0-5.91,0c-1.49.36-.73,2.19-.73,3.34q-.06,84.2,0,168.37c0,.73.07,1.45,0,2.17-.1,1.29.45,1.82,1.73,1.74a13.63,13.63,0,0,1,2.71,0c2.35.34,2.84-.72,2.83-2.91Q-397.4,214.33-397.35,171.82Zm29.34,0h0q0,42.78,0,85.55c0,.77-.31,2,.61,2.14a14.41,14.41,0,0,0,5.63,0c1.46-.39.69-2.22.69-3.39q.06-84.6.12-169.21c0-3-1.23-3.12-3.5-3.08s-3.61-.06-3.6,3C-368,115.15-368,143.49-368,171.83Zm-12.21-.3h0v74.19c0,3.88,0,7.76,0,11.64,0,.77-.31,2,.59,2.15a14.75,14.75,0,0,0,5.89-.09c1.24-.36.57-2.26.57-3.46q0-83.94,0-167.88c0-4.91.62-4-4.11-4.23-2.31-.12-3,.45-3,2.92C-380.18,115-380.22,143.28-380.22,171.53Zm-48.64,172v40.07c0,1.08,0,2.17,0,3.25.16,4.66-.83,4,4.2,4.17,2.08.08,2.76-.5,2.76-2.69q0-43.86.26-87.71c0-4.23,0-4.06-4.36-4.27-2.51-.12-2.95.75-2.93,3.05C-428.81,314.14-428.86,328.85-428.86,343.56Zm92.06.19h0c0-14.9-.06-29.79.06-44.69,0-2.26-.74-2.9-2.77-2.63a4.7,4.7,0,0,1-1.35,0c-2.41-.39-3,.61-3,3q.12,44.41,0,88.85c0,2.68,1.13,2.93,3.22,2.78s4,.67,4-2.86C-336.91,373.37-336.8,358.56-336.8,343.75Zm-19.12,0h.11c0,14.8.06,29.6-.06,44.4,0,2.46.76,3.26,3.06,2.9a4.7,4.7,0,0,1,1.35,0c2,.31,2.62-.51,2.62-2.54q-.09-44.53,0-89.07c0-2.33-.53-3.35-3-3-1.91.28-4.25-.93-4.19,2.89C-355.79,314.12-355.92,328.92-355.92,343.72Zm-85,.13q0,22.2,0,44.4c0,.87-.41,2.22.45,2.5a10.72,10.72,0,0,0,5.89.06c1.28-.33.68-1.88.68-2.87,0-29.5,0-59,.11-88.52,0-3.09-1.44-3-3.59-3s-3.67-.05-3.64,3C-440.85,314.26-440.95,329.06-440.94,343.85Zm62.6,64.64c0-3.8-.06-7.59,0-11.38,0-1.46-.35-2.1-1.94-2.09-5.7.06-11.4,0-17.1,0-1.27,0-2,.24-2,1.78q.1,11.52,0,23c0,1.57.58,2,2.08,2,5.61-.07,11.22-.11,16.83,0,1.77,0,2.13-.66,2.1-2.18C-378.38,415.89-378.34,412.19-378.34,408.49Zm-38.24-48.82c0,9.39.06,18.77,0,28.15,0,2.28.33,3.57,3,3.24,2.06-.24,4.09.58,4-3.1q-.31-28.27,0-56.57c0-3.7-2-2.9-4.05-3.09-2.31-.2-3.12.45-3.07,2.95C-416.48,340.72-416.58,350.2-416.58,359.67Zm55.43.12q0-14.48,0-29c0-.76.4-2-.44-2.19a14.57,14.57,0,0,0-5.58-.08c-1.35.31-.68,2-.69,3.1q-.06,27.6,0,55.19c0,5-.39,3.92,4.21,4.17,2,.11,2.61-.53,2.59-2.57C-361.2,378.91-361.15,369.35-361.15,359.79ZM-385.26,294c0-7.86-.05-15.71,0-23.56,0-1.84-.44-2.73-2.4-2.45a6,6,0,0,1-1.89,0c-2.45-.41-3,.64-3,3,.11,14.81.06,29.61.06,44.42,0,4.48,0,4.35,4.37,4.51,2.3.09,2.88-.67,2.85-2.88C-385.34,309.33-385.27,301.66-385.26,294Zm12.05,94c0-18.94-.06-37.87.07-56.81,0-2.57-.86-3.13-3.09-2.89-1.92.19-4.06-.72-4,2.84.19,15.24.12,30.49,0,45.73,0,2.06.42,3.5,2.21,4.74A15,15,0,0,1-373.21,388Zm-31.29.08c1.29-2.7,2.78-5.22,5.23-6.82,1.66-1.07,1.9-2.34,1.89-4.06,0-14.89,0-29.78,0-44.67,0-4.39.88-4-4.2-4.27-2.53-.14-2.94.82-2.93,3.1.09,17.77.05,35.55.05,53.33Zm12.07-34.76h0q0,10,0,20c0,5.09,0,5,5.11,4.9,1.74,0,2.09-.7,2.08-2.26q-.06-22.73,0-45.46c0-1.58-.39-2.41-2.12-2.22a8.75,8.75,0,0,1-2.17,0c-2.19-.27-3,.51-2.93,2.83C-392.34,338.52-392.43,345.92-392.43,353.32Zm19.25-59.3h0c0-7.75-.18-15.51.09-23.25.11-3.06-1.44-2.84-3.44-2.8s-3.73-.37-3.68,2.87c.19,14.87.06,29.74.1,44.61,0,5-.92,4.24,4.45,4.43,2.06.07,2.59-.61,2.56-2.61C-373.25,309.52-373.18,301.77-373.18,294Zm-31.31-.34h.06c0,7.84,0,15.68,0,23.52,0,.78-.36,1.93.44,2.26a9.86,9.86,0,0,0,5.84.19c1.27-.27.71-1.87.71-2.87q.06-22.17,0-44.33c0-5,.83-4.29-4.42-4.5-2.2-.08-2.73.66-2.7,2.76C-404.42,278.36-404.49,286-404.49,293.68Zm12-235.09c0,4.24,0,8.48,0,12.72.06,5-.79,4.32,4.42,4.52,2.2.09,3-.51,2.93-2.83-.13-8.93,0-17.86,0-26.79,0-5.56.7-4.54-4.7-4.78-2-.08-2.71.49-2.65,2.55C-392.44,48.85-392.52,53.72-392.52,58.59Zm-4.83.1c0-4.06,0-8.12,0-12.18-.05-5.86,1.08-4.9-5.19-5.06-1.79,0-2.05.72-2,2.26q.07,15.15,0,30.31c0,1.6.41,2.39,2.12,2.18a9.26,9.26,0,0,1,2.17,0c2.22.26,3.06-.62,3-2.9C-397.44,68.43-397.35,63.56-397.35,58.69Zm24.19-.13h0c0-4.77-.12-9.54.06-14.31.09-2.34-.75-3.09-2.93-2.78a4.7,4.7,0,0,1-1.35,0c-2.2-.34-2.94.47-2.9,2.77.12,9,0,18,0,27,0,5-.92,4.44,4.63,4.58,1.84.05,2.52-.48,2.47-2.41C-373.24,68.46-373.16,63.51-373.16,58.56Zm-36.39.12h0c0-4.24.07-8.49,0-12.73-.1-5.1.68-4.31-4.47-4.51-2.29-.09-2.66.79-2.64,2.79.08,9,0,18.06,0,27.09,0,5.08-.76,4.27,4.43,4.51,2.27.1,2.73-.77,2.68-2.79C-409.63,68.25-409.55,63.47-409.55,58.68Zm48.48-.09c0-4.43,0-8.85,0-13.27-.06-4.15.77-3.68-3.94-3.89-2.45-.11-3,.72-3,3,.12,8.93,0,17.87.07,26.8.05,5.31-.83,4.31,4.64,4.55,1.84.08,2.3-.64,2.27-2.34C-361.12,68.52-361.07,63.55-361.07,58.59Zm0,350c0-2.43,0-4.86,0-7.29,0-4.73.49-3.82-4.06-3.93a2.44,2.44,0,0,1-.27,0c-2.23-.37-2.72.72-2.67,2.74.13,4.86.09,9.73.08,14.59,0,5.2,0,5.13,5.17,5,1.49,0,1.81-.57,1.78-1.89C-361.11,414.7-361.06,411.63-361.06,408.57Zm12.17-.09h0c0-2.16,0-4.32,0-6.47,0-5.44.77-4.48-4.73-4.68-2-.07-2.37.76-2.34,2.5.08,5,0,10.07,0,15.1.08,5.52-1,4.51,5,4.7,1.73.05,2.15-.69,2.11-2.25C-348.95,414.41-348.89,411.44-348.89,408.48Zm-72.74.18h0c0-2.25.05-4.51,0-6.77-.14-5.15,1-4.37-4.63-4.58-2.05-.08-2.68.64-2.64,2.62.11,4.87,0,9.75,0,14.62,0,5.32,0,5.26,5.22,5.1,1.52,0,2.07-.52,2-2C-421.7,414.62-421.63,411.64-421.63,408.66Zm5-100.59h0c0,2.44,0,4.87,0,7.3,0,5.25-.57,4.21,4.44,4.5,2.31.14,2.72-.82,2.69-2.79-.08-5.41,0-10.81,0-16.22,0-4.62,0-4.62-4.75-4.44a2.44,2.44,0,0,1-.27,0c-1.72-.24-2.15.59-2.1,2.19C-416.57,301.77-416.64,304.92-416.64,308.07Zm55.58.26h0c0-2.43,0-4.85,0-7.28,0-4.72,0-4.6-4.75-4.66-1.94,0-2.21.75-2.19,2.37.07,5.49,0,11,0,16.46,0,4.73,0,4.64,4.69,4.63,1.83,0,2.32-.64,2.26-2.35C-361.14,314.45-361.06,311.39-361.06,308.33Zm-84.86,100.3h0c0-2.26,0-4.52,0-6.77-.09-5.07.69-4.31-4.46-4.53-2.25-.1-2.7.78-2.65,2.8.12,4.87,0,9.75,0,14.62.09,5.53-1.24,4.74,5.11,4.89,1.6,0,2-.61,2-2.07C-446,414.59-445.92,411.61-445.92,408.63Zm12,.18V402c0-5,0-4.89-5.05-4.71-1.51.06-2.05.51-2,2.05.07,5.14,0,10.29,0,15.43.07,5.61-1,4.64,4.86,4.81,1.92.06,2.27-.78,2.21-2.42C-433.94,414.41-433.87,411.61-433.88,408.81Zm24.31-.22h0c0-2.25,0-4.51,0-6.76-.11-5.11.65-4.31-4.49-4.49-1.95-.07-2.7.45-2.64,2.54.14,5,0,9.92.05,14.88.09,5.51-1.2,4.72,5.13,4.88,1.64,0,2-.71,2-2.12C-409.6,414.55-409.57,411.57-409.57,408.59Zm72.75-.29h0c0-2.16.05-4.32,0-6.48-.12-4.83,1-4.33-4.45-4.49-2-.06-2.67.56-2.62,2.58.13,4.95,0,9.91.07,14.86.1,5.58-1.19,4.7,5.12,4.86,1.39,0,1.93-.45,1.9-1.87C-336.86,414.61-336.82,411.45-336.82,408.3Zm12.05.27h0c0-2.25,0-4.51,0-6.76-.09-4.88,1-4.32-4.42-4.5-2-.06-2.68.53-2.63,2.58.14,5,0,9.91.06,14.87.09,5.51-1.23,4.75,5.1,4.87,1.42,0,1.93-.48,1.9-1.87C-324.81,414.7-324.77,411.63-324.77,408.57Zm-36.38-130.15h0v-6c0-4.59,0-4.48-4.59-4.52-1.89,0-2.27.71-2.24,2.37.09,4.51,0,9,0,13.53s0,4.5,4.6,4.49c1.88,0,2.27-.67,2.19-2.34C-361.23,283.47-361.15,280.94-361.15,278.42Zm-55.43-.3a70.66,70.66,0,0,1-.05,7.28c-.28,2.67.71,3.62,3.27,3.21a4.87,4.87,0,0,1,1.08,0c1.9.11,2.75-.62,2.69-2.67-.12-4.41,0-8.83-.05-13.24-.09-5.48.88-4.56-5-4.74-1.61,0-2,.6-2,2.05C-416.52,272.71-416.58,275.41-416.58,278.12Zm31.37-253.45h0c0-1.17,0-2.34,0-3.51-.15-5.58,1.29-4.95-5.22-5.05-1.69,0-2.18.62-2.14,2.22.09,3.32,0,6.66.05,10,.11,5.68-1.18,4.94,5.22,5.07,1.7,0,2.19-.63,2.11-2.23C-385.29,29-385.21,26.84-385.21,24.67Zm12.06.21h0V20.82c0-5,0-4.92-5.05-4.74-1.49.06-2.09.51-2.06,2.05.07,3.52-.05,7,0,10.56.1,5.15-1.19,4.61,5.05,4.7,1.5,0,2.13-.47,2.06-2C-373.22,29.21-373.15,27-373.15,24.88Zm-24.19-.21h0V21.15c0-5.32,0-5.26-5.23-5.06-1.54.06-2,.58-2,2.09.09,3.42,0,6.85,0,10.28,0,5.33,0,5.28,5.37,4.93,1.4-.09,1.91-.59,1.86-2C-397.39,29.18-397.34,26.92-397.34,24.67Z" transform="translate(592.15 103.2)"/><path class="cls-9" d="M-375.51,7.39c-2.09.71-4.27.51-6.4.45-6.54-.17-13.09.47-19.62-.33,0-12.41.1-24.83.07-37.24,0-3.18.84-5.67,4.09-6.86a2.79,2.79,0,0,0,2-3.12c-.12-1.71,0-3.43,0-5.14a3.73,3.73,0,0,1,2-3.81c2.63-1.38,2.09-4.25,2.12-6.32.22-14.43.11-28.87.06-43.31,0-.78-.44-1.55-.17-2.38.49-1.49,1.27-2.71,3-2.5s1.67,1.63,1.67,2.91q0,18.41,0,36.82c0,3.7,0,7.4,0,11.1,0,1.33.19,2.49,1.65,3.09,2.15.87,2.8,2.64,2.71,4.82-.05,1.08.1,2.18,0,3.24-.33,2.58.61,4.13,3.09,5.2,2.71,1.17,3,3.84,2.95,6.46q0,16.38,0,32.76C-376.37,4.68-376.42,6.13-375.51,7.39Z" transform="translate(592.15 103.2)"/><path class="cls-9" d="M-421.72,186.17q0,49.16,0,98.32a4.27,4.27,0,0,1-6.42,4c-.73-.36-.67-1-.69-1.61,0-1.72,0-3.43,0-5.15q0-95.88,0-191.77c0-.63,0-1.27,0-1.9-.1-5.15-.13-3.91,4.17-4.2,2.56-.18,3.12.75,3.12,3.18q-.12,49.57-.05,99.14Z" transform="translate(592.15 103.2)"/><path class="cls-9" d="M-355.93,186.43q0-49.69,0-99.4c0-1-.58-2.6.64-2.92a13.1,13.1,0,0,1,5.91,0c.49.1.46.92.46,1.46,0,1.45,0,2.89,0,4.33q0,97.25,0,194.49c0,4-2.09,5.43-6,4.22-1.47-.46-.89-1.62-.9-2.48q-.12-13.55-.13-27.08Q-355.94,222.73-355.93,186.43Z" transform="translate(592.15 103.2)"/><path class="cls-9" d="M-392.52,171.54c0-28.08,0-56.16-.06-84.24,0-2.64.47-3.68,3.37-3.47,4.56.34,4-.58,4,4.11q0,84,0,167.94c0,1.24.77,3.19-.74,3.62-1.84.52-3.94.17-5.91.06-.61,0-.61-.8-.62-1.34,0-.72,0-1.44,0-2.16Z" transform="translate(592.15 103.2)"/><path class="cls-9" d="M-409.55,171.82q0,42,0,84c0,1.27.71,3.22-.69,3.68-1.71.55-3.75.2-5.64.12-.64,0-.69-.74-.71-1.28,0-1,0-2,0-3q0-84.11,0-168.22c0-1-.73-2.72.79-3a9.89,9.89,0,0,1,5.85.18c.85.35.41,1.66.41,2.52q0,26.42,0,52.82,0,16.13,0,32.24Z" transform="translate(592.15 103.2)"/><path class="cls-9" d="M-397.35,171.82q0,42.51.05,85c0,2.19-.48,3.25-2.83,2.91a13.63,13.63,0,0,0-2.71,0c-1.28.08-1.83-.45-1.73-1.74.07-.72,0-1.44,0-2.17q0-84.18,0-168.37c0-1.15-.76-3,.73-3.34a17.25,17.25,0,0,1,5.91,0c.77.09.53,1.22.53,1.91,0,3.25,0,6.5,0,9.75Z" transform="translate(592.15 103.2)"/><path class="cls-9" d="M-368,171.83c0-28.34.05-56.68-.08-85,0-3.06,1.44-3,3.6-3s3.5.1,3.5,3.08q-.17,84.6-.12,169.21c0,1.17.77,3-.69,3.39a14.41,14.41,0,0,1-5.63,0c-.92-.13-.61-1.37-.61-2.14q0-42.76,0-85.55Z" transform="translate(592.15 103.2)"/><path class="cls-9" d="M-380.22,171.53c0-28.25,0-56.51-.06-84.76,0-2.47.7-3,3-2.92,4.73.23,4.1-.68,4.11,4.23q0,83.94,0,167.88c0,1.2.67,3.1-.57,3.46a14.75,14.75,0,0,1-5.89.09c-.9-.11-.58-1.38-.59-2.15,0-3.88,0-7.76,0-11.64V171.53Z" transform="translate(592.15 103.2)"/><path class="cls-9" d="M-428.86,343.56c0-14.71.05-29.42-.05-44.13,0-2.3.42-3.17,2.93-3.05,4.35.21,4.37,0,4.36,4.27q-.15,43.86-.26,87.71c0,2.19-.68,2.77-2.76,2.69-5-.19-4,.49-4.2-4.17,0-1.08,0-2.17,0-3.25Z" transform="translate(592.15 103.2)"/><path class="cls-9" d="M-336.8,343.75c0,14.81-.11,29.62.09,44.43,0,3.53-2,2.72-4,2.86s-3.23-.1-3.22-2.78q.15-44.43,0-88.85c0-2.38.6-3.38,3-3a4.7,4.7,0,0,0,1.35,0c2-.27,2.78.37,2.77,2.63-.12,14.9-.06,29.79-.06,44.69Z" transform="translate(592.15 103.2)"/><path class="cls-9" d="M-355.92,343.72c0-14.8.13-29.6-.08-44.4-.06-3.82,2.28-2.61,4.19-2.89,2.45-.37,3,.65,3,3q-.12,44.54,0,89.07c0,2-.6,2.85-2.62,2.54a4.7,4.7,0,0,0-1.35,0c-2.3.36-3.08-.44-3.06-2.9.12-14.8.06-29.6.06-44.4Z" transform="translate(592.15 103.2)"/><path class="cls-9" d="M-440.95,343.85c0-14.79.1-29.59-.08-44.39,0-3.09,1.48-3,3.64-3s3.6-.09,3.59,3c-.14,29.51-.08,59-.11,88.52,0,1,.6,2.54-.68,2.87a10.72,10.72,0,0,1-5.89-.06c-.86-.28-.45-1.63-.45-2.5Q-441,366-440.95,343.85Z" transform="translate(592.15 103.2)"/><path class="cls-9" d="M-378.34,408.49c0,3.7,0,7.4,0,11.1,0,1.52-.33,2.22-2.1,2.18-5.61-.13-11.22-.09-16.83,0-1.5,0-2.09-.39-2.08-2q.09-11.51,0-23c0-1.54.71-1.79,2-1.78,5.7,0,11.4.09,17.1,0,1.59,0,2,.63,1.94,2.09C-378.4,400.9-378.34,404.69-378.34,408.49Z" transform="translate(592.15 103.2)"/><path class="cls-9" d="M-416.58,359.67c0-9.47.1-18.95-.06-28.42-.05-2.5.76-3.15,3.07-2.95,2.07.19,4.09-.61,4.05,3.09q-.35,28.29,0,56.57c0,3.68-2,2.86-4,3.1-2.7.33-3.05-1-3-3.24C-416.52,378.44-416.58,369.06-416.58,359.67Z" transform="translate(592.15 103.2)"/><path class="cls-9" d="M-361.15,359.79c0,9.56-.05,19.12,0,28.67,0,2-.59,2.68-2.59,2.57-4.6-.25-4.2.81-4.21-4.17q0-27.58,0-55.19c0-1.07-.66-2.79.69-3.1a14.57,14.57,0,0,1,5.58.08c.84.14.44,1.43.44,2.19Q-361.13,345.32-361.15,359.79Z" transform="translate(592.15 103.2)"/><path class="cls-9" d="M-385.27,294c0,7.67-.07,15.34,0,23,0,2.21-.55,3-2.85,2.88-4.36-.16-4.37,0-4.37-4.51,0-14.81.05-29.61-.06-44.42,0-2.34.53-3.39,3-3a6,6,0,0,0,1.89,0c2-.28,2.42.61,2.4,2.45C-385.31,278.28-385.26,286.13-385.27,294Z" transform="translate(592.15 103.2)"/><path class="cls-9" d="M-373.21,388a15,15,0,0,0-4.79-6.39c-1.79-1.24-2.22-2.68-2.21-4.74.08-15.24.15-30.49,0-45.73,0-3.56,2.1-2.65,4-2.84,2.23-.24,3.11.32,3.09,2.89C-373.27,350.13-373.21,369.06-373.21,388Z" transform="translate(592.15 103.2)"/><path class="cls-9" d="M-404.5,388.08v-3.39c0-17.78,0-35.56-.05-53.33,0-2.28.4-3.24,2.93-3.1,5.08.27,4.19-.12,4.2,4.27.05,14.89,0,29.78,0,44.67,0,1.72-.23,3-1.89,4.06C-401.72,382.86-403.21,385.38-404.5,388.08Z" transform="translate(592.15 103.2)"/><path class="cls-9" d="M-392.43,353.32c0-7.4.09-14.8-.05-22.19,0-2.32.74-3.1,2.93-2.83a8.75,8.75,0,0,0,2.17,0c1.73-.19,2.12.64,2.12,2.22q-.06,22.73,0,45.46c0,1.56-.34,2.22-2.08,2.26-5.1.11-5.11.19-5.11-4.9q0-10,0-20Z" transform="translate(592.15 103.2)"/><path class="cls-9" d="M-373.18,294c0,7.75-.07,15.5,0,23.25,0,2-.5,2.68-2.56,2.61-5.37-.19-4.43.53-4.45-4.43,0-14.87.09-29.74-.1-44.61-.05-3.24,1.68-2.84,3.68-2.87s3.55-.26,3.44,2.8c-.27,7.74-.09,15.5-.09,23.25Z" transform="translate(592.15 103.2)"/><path class="cls-9" d="M-404.49,293.68c0-7.65.07-15.32-.05-23,0-2.1.5-2.84,2.7-2.76,5.25.21,4.41-.51,4.42,4.5q.06,22.16,0,44.33c0,1,.56,2.6-.71,2.87a9.86,9.86,0,0,1-5.84-.19c-.8-.33-.44-1.48-.44-2.26,0-7.84,0-15.68,0-23.52Z" transform="translate(592.15 103.2)"/><path class="cls-9" d="M-392.52,58.59c0-4.87.08-9.74,0-14.61-.06-2.06.65-2.63,2.65-2.55,5.4.24,4.69-.78,4.7,4.78,0,8.93-.08,17.86,0,26.79,0,2.32-.73,2.92-2.93,2.83-5.21-.2-4.36.52-4.42-4.52C-392.56,67.07-392.52,62.83-392.52,58.59Z" transform="translate(592.15 103.2)"/><path class="cls-9" d="M-397.35,58.69c0,4.87-.09,9.74,0,14.61.06,2.28-.78,3.16-3,2.9a9.26,9.26,0,0,0-2.17,0c-1.71.21-2.13-.58-2.12-2.18q.09-15.16,0-30.31c0-1.54.25-2.3,2-2.26,6.27.16,5.14-.8,5.19,5.06C-397.32,50.57-397.35,54.63-397.35,58.69Z" transform="translate(592.15 103.2)"/><path class="cls-9" d="M-373.16,58.56c0,4.95-.08,9.9,0,14.85.05,1.93-.63,2.46-2.47,2.41-5.55-.14-4.6.44-4.63-4.58-.06-9,.07-18,0-27,0-2.3.7-3.11,2.9-2.77a4.7,4.7,0,0,0,1.35,0c2.18-.31,3,.44,2.93,2.78-.18,4.77-.06,9.54-.06,14.31Z" transform="translate(592.15 103.2)"/><path class="cls-9" d="M-409.55,58.68c0,4.79-.08,9.57,0,14.36,0,2-.41,2.89-2.68,2.79-5.19-.24-4.41.57-4.43-4.51-.06-9,0-18.06,0-27.09,0-2,.35-2.88,2.64-2.79,5.15.2,4.37-.59,4.47,4.51.09,4.24,0,8.49,0,12.73Z" transform="translate(592.15 103.2)"/><path class="cls-9" d="M-361.07,58.59c0,5-.05,9.93,0,14.89,0,1.7-.43,2.42-2.27,2.34-5.47-.24-4.59.76-4.64-4.55-.07-8.93.05-17.87-.07-26.8,0-2.32.55-3.15,3-3,4.71.21,3.88-.26,3.94,3.89C-361,49.74-361.07,54.16-361.07,58.59Z" transform="translate(592.15 103.2)"/><path class="cls-9" d="M-361.06,408.57c0,3.06-.05,6.13,0,9.19,0,1.32-.29,1.85-1.78,1.89-5.2.15-5.18.22-5.17-5,0-4.86.05-9.73-.08-14.59-.05-2,.44-3.11,2.67-2.74a2.44,2.44,0,0,0,.27,0c4.55.11,4-.8,4.06,3.93C-361,403.71-361.06,406.14-361.06,408.57Z" transform="translate(592.15 103.2)"/><path class="cls-9" d="M-348.89,408.48c0,3-.06,5.93,0,8.9,0,1.56-.38,2.3-2.11,2.25-5.93-.19-4.88.82-5-4.7-.08-5,0-10.07,0-15.1,0-1.74.3-2.57,2.34-2.5,5.5.2,4.69-.76,4.73,4.68,0,2.15,0,4.31,0,6.47Z" transform="translate(592.15 103.2)"/><path class="cls-9" d="M-421.63,408.66c0,3-.07,6,0,8.94.05,1.53-.5,2-2,2-5.22.16-5.22.22-5.22-5.1,0-4.87.06-9.75,0-14.62,0-2,.59-2.7,2.64-2.62,5.6.21,4.49-.57,4.63,4.58.06,2.26,0,4.52,0,6.77Z" transform="translate(592.15 103.2)"/><path class="cls-9" d="M-416.64,308.07c0-3.15.07-6.3,0-9.45-.05-1.6.38-2.43,2.1-2.19a2.44,2.44,0,0,0,.27,0c4.71-.18,4.73-.18,4.75,4.44,0,5.41-.05,10.81,0,16.22,0,2-.38,2.93-2.69,2.79-5-.29-4.39.75-4.44-4.5,0-2.43,0-4.86,0-7.3Z" transform="translate(592.15 103.2)"/><path class="cls-9" d="M-361.06,308.33c0,3.06-.08,6.12,0,9.17.06,1.71-.43,2.35-2.26,2.35-4.7,0-4.7.1-4.69-4.63,0-5.49,0-11,0-16.46,0-1.62.25-2.39,2.19-2.37,4.75.06,4.75-.06,4.75,4.66,0,2.43,0,4.85,0,7.28Z" transform="translate(592.15 103.2)"/><path class="cls-9" d="M-445.92,408.63c0,3-.05,6,0,8.94,0,1.46-.37,2.11-2,2.07-6.35-.15-5,.64-5.11-4.89-.08-4.87.07-9.75,0-14.62-.05-2,.4-2.9,2.65-2.8,5.15.22,4.37-.54,4.46,4.53,0,2.25,0,4.51,0,6.77Z" transform="translate(592.15 103.2)"/><path class="cls-9" d="M-433.87,408.81c0,2.8-.07,5.6,0,8.39.06,1.64-.29,2.48-2.21,2.42-5.9-.17-4.79.8-4.86-4.81-.07-5.14,0-10.29,0-15.43,0-1.54.51-2,2-2.05,5.06-.18,5.05-.24,5.05,4.71C-433.88,404.3-433.88,406.55-433.87,408.81Z" transform="translate(592.15 103.2)"/><path class="cls-9" d="M-409.57,408.59c0,3,0,6,0,8.93,0,1.41-.32,2.16-2,2.12-6.33-.16-5,.63-5.13-4.88-.09-5,.09-9.92-.05-14.88-.06-2.09.69-2.61,2.64-2.54,5.14.18,4.38-.62,4.49,4.49,0,2.25,0,4.51,0,6.76Z" transform="translate(592.15 103.2)"/><path class="cls-9" d="M-336.82,408.3c0,3.15,0,6.31,0,9.46,0,1.42-.51,1.9-1.9,1.87-6.31-.16-5,.72-5.12-4.86-.09-4.95.06-9.91-.07-14.86-.05-2,.61-2.64,2.62-2.58,5.44.16,4.33-.34,4.45,4.49.05,2.16,0,4.32,0,6.48Z" transform="translate(592.15 103.2)"/><path class="cls-9" d="M-324.77,408.57c0,3.06,0,6.13,0,9.19,0,1.39-.48,1.9-1.9,1.87-6.33-.12-5,.64-5.1-4.87-.08-5,.08-9.91-.06-14.87-.05-2.05.63-2.64,2.63-2.58,5.4.18,4.33-.38,4.42,4.5,0,2.25,0,4.51,0,6.76Z" transform="translate(592.15 103.2)"/><path class="cls-9" d="M-361.15,278.42c0,2.52-.08,5.05,0,7.57.08,1.67-.31,2.33-2.19,2.34-4.6,0-4.6.13-4.6-4.49s0-9,0-13.53c0-1.66.35-2.38,2.24-2.37,4.59,0,4.59-.07,4.59,4.52v6Z" transform="translate(592.15 103.2)"/><path class="cls-9" d="M-416.58,278.12c0-2.71.06-5.41,0-8.11,0-1.45.36-2.09,2-2.05,5.87.18,4.9-.74,5,4.74.07,4.41-.07,8.83.05,13.24.06,2.05-.79,2.78-2.69,2.67a4.87,4.87,0,0,0-1.08,0c-2.56.41-3.55-.54-3.27-3.21A70.66,70.66,0,0,0-416.58,278.12Z" transform="translate(592.15 103.2)"/><path class="cls-9" d="M-385.21,24.67c0,2.17-.08,4.33,0,6.49.08,1.6-.41,2.26-2.11,2.23-6.4-.13-5.11.61-5.22-5.07-.06-3.33,0-6.67-.05-10,0-1.6.45-2.25,2.14-2.22,6.51.1,5.07-.53,5.22,5.05,0,1.17,0,2.34,0,3.51Z" transform="translate(592.15 103.2)"/><path class="cls-9" d="M-373.15,24.88c0,2.16-.07,4.33,0,6.5.07,1.54-.56,2-2.06,2-6.24-.09-4.95.45-5.05-4.7-.06-3.52.06-7,0-10.56,0-1.54.57-2,2.06-2.05,5.05-.18,5.05-.23,5.05,4.74v4.06Z" transform="translate(592.15 103.2)"/><path class="cls-9" d="M-397.34,24.67c0,2.25-.05,4.51,0,6.76.05,1.37-.46,1.87-1.86,2-5.37.35-5.37.4-5.37-4.93,0-3.43.07-6.86,0-10.28,0-1.51.46-2,2-2.09,5.23-.2,5.23-.26,5.23,5.06v3.52Z" transform="translate(592.15 103.2)"/><path class="cls-8" d="M351.06,196.6s4.64-3,4.64-4.61S372,185.27,372,185.27V166.35l-6.94-.89s-2.41-6.19-5.6-3.36-4.31-19.81-4.31,5.66c0,8.3-6.05-3.19-7.37-8C347.73,159.72,351.06,182.82,351.06,196.6Z" transform="translate(592.15 103.2)"/><rect class="cls-8" x="884.73" y="409.25" width="67.42" height="5.11"/><rect class="cls-9" x="870.22" y="414.36" width="94.73" height="22.99"/><rect class="cls-8" x="874.49" y="418.62" width="12.8" height="14.47"/><rect class="cls-8" x="890.7" y="418.62" width="15.36" height="14.47"/><rect class="cls-8" x="910.33" y="418.62" width="14.51" height="14.47"/><rect class="cls-8" x="929.96" y="418.62" width="11.95" height="14.47"/><rect class="cls-8" x="945.32" y="418.62" width="12.8" height="14.47"/><rect class="cls-9" x="879.61" y="483.33" width="77.66" height="3.41"/><rect class="cls-8" x="879.61" y="486.73" width="77.66" height="1.7"/><rect class="cls-9" x="879.61" y="488.44" width="77.66" height="1.7"/><rect class="cls-8" x="879.61" y="490.14" width="77.66" height="4.26"/><rect class="cls-9" x="871.08" y="494.39" width="93.87" height="11.07"/><rect class="cls-8" x="874.49" y="505.46" width="88.75" height="11.07"/><rect class="cls-9" x="871.08" y="516.53" width="93.87" height="12.77"/><path class="cls-9" d="M314,98.88,300.33,87.56s-2,.7-1.33,1.41,13.72,11.93,13.72,11.93Z" transform="translate(592.15 103.2)"/><path class="cls-9" d="M331.47,98.88l13.71-11.32s2,.7,1.33,1.41S332.8,100.9,332.8,100.9Z" transform="translate(592.15 103.2)"/><path class="cls-9" d="M323.36,91.7l-.12-14.92s-1.86-1.11-1.95-.11S321,92,321,92Z" transform="translate(592.15 103.2)"/><path class="cls-9" d="M318.46,94.82,307.68,80.69s-2.15.22-1.62,1.07,10.65,14.73,10.65,14.73Z" transform="translate(592.15 103.2)"/><path class="cls-9" d="M327.25,94.82,338,80.69s2.15.22,1.62,1.07S329,96.49,329,96.49Z" transform="translate(592.15 103.2)"/><rect class="cls-8" x="882.17" y="150.43" width="8.53" height="1.7"/><rect class="cls-8" x="877.9" y="141.91" width="17.92" height="6.81"/><rect class="cls-8" x="878.76" y="135.95" width="16.21" height="5.96"/><path class="cls-2" d="M294.39,31.06s12.56-.55,4.25-14.21c-1.2-2-4.25-7.48-4.25-7.48h0s-3.05,5.51-4.25,7.48c-8.31,13.66,4.25,14.06,4.25,14.06" transform="translate(592.15 103.2)"/><path class="cls-9" d="M332.93,105.63l13.49-6.47s.21-2.14-.73-1.8-14,6.22-14,6.22Z" transform="translate(592.15 103.2)"/><path class="cls-9" d="M311.12,105.63l-13.49-6.47s-.21-2.14.74-1.8,14,6.22,14,6.22Z" transform="translate(592.15 103.2)"/><path class="cls-9" d="M327.15,135.57s19-.82,22.79,31.72,4.37,120.89,9,131.11H294s4.17-17.92-1.77-42.33c-.62-2.55,5.62-1.87,5.73-4.72a688.34,688.34,0,0,0-.77-69.73C295.09,146.51,327.15,135.57,327.15,135.57Z" transform="translate(592.15 103.2)"/><path class="cls-8" d="M292.27,208.79a180.07,180.07,0,0,0,21.84-29A356.7,356.7,0,0,0,331,146.38v49.68s-13.5,44.57-32.91,55.18Z" transform="translate(592.15 103.2)"/><path class="cls-8" d="M292.32,283.31s13.45-9.85,23.37-28.59,19.84-39.94,19.84-39.94l16,2.31L335.19,229c1.36,5.3,18,5.64,18,5.64v8.16s-9.53,11.2-14.5,15.09,3.23,22.68-3.15,40.56H326.3l5-31.13s-14.54,17.5-17,31.13H294Z" transform="translate(592.15 103.2)"/><rect class="cls-9" x="877.9" y="435.65" width="81.93" height="47.68"/><rect class="cls-8" x="889" y="435.65" width="58.03" height="47.68"/><rect class="cls-9" x="894.97" y="443.31" width="11.95" height="32.35"/><rect class="cls-9" x="911.19" y="443.31" width="13.65" height="32.35"/><rect class="cls-9" x="930.81" y="443.31" width="11.95" height="32.35"/><path class="cls-9" d="M332.28,102.84s2.13-2.85-3.42-6.27l-5.08-4.21h-2.44l-5.08,4.21c-5.56,3.42-3.43,6.57-3.43,6.57" transform="translate(592.15 103.2)"/><path class="cls-8" d="M322.45,96.78s-10.87,3.3-10.87,8.85-1.93,20.75,10.87,20.75Z" transform="translate(592.15 103.2)"/><path class="cls-9" d="M321.6,96.78s10.87,3.3,10.87,8.85,2.78,20.75-10.87,20.75Z" transform="translate(592.15 103.2)"/><rect class="cls-9" x="879.61" y="400.74" width="75.95" height="8.51"/><path class="cls-8" d="M302.88,106.8S298.1,64.49,300,50.34l-10.8.22s-.4,49.63,4.76,67.62" transform="translate(592.15 103.2)"/><path class="cls-9" d="M309.56,121.89s-6.55-7.82-6-14.9-4.76,14.62-17.37,14.15c-4.79-.17,11.69,39.36,11.69,39.36S309,149.7,309.56,121.89Z" transform="translate(592.15 103.2)"/><path class="cls-8" d="M326.53,135.57s-12.71-5.51-17-14.46c0,0-6.74,24.55-13.56,39.93v10.61S323.41,142.83,326.53,135.57Z" transform="translate(592.15 103.2)"/><path class="cls-10" d="M-224.83,273.81s29.06,117.12,199.48,117.12,205.7-118.44,205.7-118.44" transform="translate(592.15 103.2)"/><path class="cls-10" d="M-227.42,283.29s31.65,117.12,202.07,117.12,205.8-113.17,205.8-113.17" transform="translate(592.15 103.2)"/><polygon class="cls-9" points="361.16 375.74 361.16 357.82 338.21 357.82 338.21 375.74 330.23 375.74 330.23 522.05 337.55 522.05 338.34 522.05 358.93 522.05 360.51 522.05 366.14 522.05 366.14 375.74 361.16 375.74"/><path class="cls-9" d="M-267.26,264.58h13.32V276S-268,274.53-267.26,264.58Z" transform="translate(592.15 103.2)"/><path class="cls-9" d="M-219,264.58h-12V276S-218.29,274.53-219,264.58Z" transform="translate(592.15 103.2)"/><rect class="cls-8" x="342.2" y="371.76" width="12.97" height="146.31"/><rect class="cls-8" x="333.22" y="372.75" width="2" height="145.32"/><rect class="cls-8" x="361.16" y="372.75" width="2" height="145.32"/><rect class="cls-9" x="2.99" y="521.06" width="1917.52" height="21.9"/><rect class="cls-8" x="26.94" y="523.05" width="1869.63" height="7.96"/><rect class="cls-8" x="37.91" y="534.99" width="1864.64" height="3.98"/><line class="cls-10" x1="389.09" y1="430.48" x2="389.09" y2="521.06"/><line class="cls-10" x1="435.98" y1="471.29" x2="435.98" y2="521.06"/><line class="cls-10" x1="479.88" y1="493.19" x2="479.88" y2="521.06"/><line class="cls-10" x1="721.31" y1="457.36" x2="721.31" y2="521.06"/><line class="cls-10" x1="676.42" y1="483.23" x2="676.42" y2="521.06"/><line class="cls-10" x1="607.58" y1="501.15" x2="607.58" y2="521.06"/><line class="cls-10" x1="542.73" y1="504.14" x2="542.73" y2="521.06"/><polygon class="cls-9" points="802.12 377.73 802.12 358.82 779.18 358.82 779.18 377.73 770.2 377.73 770.2 523.05 778.39 523.05 779.18 523.05 799.77 523.05 801.36 523.05 807.11 523.05 807.11 377.73 802.12 377.73"/><path class="cls-9" d="M173.58,265.58H187v11.73S172.88,276.52,173.58,265.58Z" transform="translate(592.15 103.2)"/><path class="cls-9" d="M221.85,265.58H210v11.73S222.55,276.52,221.85,265.58Z" transform="translate(592.15 103.2)"/><rect class="cls-8" x="783.17" y="372.75" width="12.97" height="146.31"/><rect class="cls-8" x="774.19" y="373.75" width="2" height="145.32"/><rect class="cls-8" x="802.12" y="373.75" width="2" height="145.32"/><polygon class="cls-9" points="1737.94 376.73 1737.94 357.82 1714.99 357.82 1714.99 376.73 1706.01 376.73 1706.01 522.05 1714.2 522.05 1715 522.05 1735.59 522.05 1737.17 522.05 1742.92 522.05 1742.92 376.73 1737.94 376.73"/><path class="cls-9" d="M1109.39,264.58h13.45v11.74S1108.69,275.53,1109.39,264.58Z" transform="translate(592.15 103.2)"/><path class="cls-9" d="M1157.66,264.58h-11.87v11.74S1158.37,275.53,1157.66,264.58Z" transform="translate(592.15 103.2)"/><rect class="cls-8" x="1718.98" y="371.76" width="12.97" height="146.31"/><rect class="cls-8" x="1710" y="372.75" width="2" height="145.32"/><rect class="cls-8" x="1737.94" y="372.75" width="2" height="145.32"/><polygon class="cls-9" points="1829.72 376.73 1829.72 357.82 1806.78 357.82 1806.78 376.73 1797.8 376.73 1797.8 522.05 1805.99 522.05 1806.78 522.05 1827.37 522.05 1828.95 522.05 1834.71 522.05 1834.71 376.73 1829.72 376.73"/><path class="cls-9" d="M1201.18,264.58h13.45v11.74S1200.47,275.53,1201.18,264.58Z" transform="translate(592.15 103.2)"/><path class="cls-9" d="M1249.45,264.58h-11.88v11.74S1250.15,275.53,1249.45,264.58Z" transform="translate(592.15 103.2)"/><rect class="cls-8" x="1810.77" y="371.76" width="12.97" height="146.31"/><rect class="cls-8" x="1801.79" y="372.75" width="2" height="145.32"/><rect class="cls-8" x="1829.72" y="372.75" width="2" height="145.32"/></svg>