<svg id="Layer_1" data-name="Layer 1" xmlns="http://www.w3.org/2000/svg" xmlns:xlink="http://www.w3.org/1999/xlink" viewBox="0 0 494.49 986.7"><defs><style>.cls-1{fill:none;}.cls-2{clip-path:url(#clip-path);}.cls-3{fill:#b1b1e5;opacity:0.6;}.cls-4,.cls-5{opacity:0.69;}.cls-4{fill:url(#linear-gradient);}.cls-5{fill:url(#linear-gradient-2);}.cls-6{fill:#d0c5a5;}.cls-7{fill:#faf4b6;}.cls-8{fill:#fbecb3;}.cls-9{fill:#928171;}</style><clipPath id="clip-path" transform="translate(-767.03 -14.32)"><rect class="cls-1" x="891.42" y="290.77" width="354.58" height="157.49" transform="translate(2137.42 739.03) rotate(-180)"/></clipPath><linearGradient id="linear-gradient" x1="767.03" y1="162.8" x2="1088.82" y2="162.8" gradientUnits="userSpaceOnUse"><stop offset="0" stop-color="#f4b07d"/><stop offset="1" stop-color="#a5a5db"/></linearGradient><linearGradient id="linear-gradient-2" x1="800.14" y1="683.42" x2="1121.93" y2="683.42" xlink:href="#linear-gradient"/></defs><title>post-01</title><g class="cls-2"><path class="cls-3" d="M939.74,435.55a53.18,53.18,0,0,1,81.47-45,21.28,21.28,0,0,1,8.15-1.8,37.57,37.57,0,0,1,52.26-28.49c5.06-14.75,10.94-28,31.73-33.16,25.22-6.3,43.1,11.73,46.79,28.59,4.62-2.08,3.43,5.45,8.83,5.45a36.75,36.75,0,0,1,26.4,11.14A14.71,14.71,0,0,1,1219,384c0,.18,0,.35,0,.53a48,48,0,0,1,42.55,47.65c0,1.32,0,2.62-.16,3.91l.16.16H939.75c0-.22,0-.45,0-.68Z" transform="translate(-767.03 -14.32)"/></g><path class="cls-4" d="M1088.82,217.29a53.2,53.2,0,0,0-81.48-45,21.27,21.27,0,0,0-8.14-1.8A37.58,37.58,0,0,0,946.93,142c-5.06-14.75-10.94-28-31.73-33.15-25.22-6.31-43.1,11.72-46.79,28.58-4.62-2.08-3.43,5.45-8.83,5.45a36.76,36.76,0,0,0-26.4,11.14,14.72,14.72,0,0,0-23.61,11.71c0,.18,0,.35,0,.53A48,48,0,0,0,767,213.94c0,1.32.06,2.62.16,3.91L767,218h321.78c0-.22,0-.45,0-.68Z" transform="translate(-767.03 -14.32)"/><path class="cls-5" d="M1121.93,737.92a53.2,53.2,0,0,0-81.48-45,21.27,21.27,0,0,0-8.14-1.8,37.55,37.55,0,0,0-52.26-28.48c-5.07-14.76-10.94-28-31.74-33.16-25.22-6.31-43.1,11.72-46.79,28.58-4.62-2.08-3.43,5.45-8.82,5.45a36.77,36.77,0,0,0-26.41,11.14,14.71,14.71,0,0,0-23.6,11.71c0,.18,0,.36,0,.53a48,48,0,0,0-42.56,47.65c0,1.32.06,2.62.16,3.92l-.16.15h321.78c0-.22,0-.45,0-.67Z" transform="translate(-767.03 -14.32)"/><path class="cls-3" d="M1181,68a26,26,0,0,0-39.85-22,10.15,10.15,0,0,0-4-.88A18.37,18.37,0,0,0,1119,29.6a18.12,18.12,0,0,0-7.41,1.57c-2.48-7.22-5.35-13.68-15.52-16.22-12.33-3.08-21.08,5.73-22.88,14-2.26-1-1.68,2.67-4.32,2.67A18,18,0,0,0,1056,37a7.2,7.2,0,0,0-11.54,5.73,2.35,2.35,0,0,0,0,.26,23.45,23.45,0,0,0-20.81,23.3c0,.64,0,1.28.07,1.91l-.07.08H1181c0-.11,0-.22,0-.33Z" transform="translate(-767.03 -14.32)"/><polygon class="cls-6" points="219.66 4.18 205.17 66.7 175.02 92.38 219.66 4.18"/><polygon class="cls-7" points="259.88 83.45 219.66 4.18 205.17 66.7 259.88 83.45"/><polygon class="cls-8" points="205.17 66.7 259.88 83.45 294.49 986.7 194 986.7 205.17 66.7"/><polygon class="cls-9" points="175.02 92.38 205.17 66.7 194 986.7 141.53 986.7 175.02 92.38"/></svg>