<svg id="Layer_1" data-name="Layer 1" xmlns="http://www.w3.org/2000/svg" viewBox="0 0 291.65 917.46"><defs><style>.cls-1{fill:#e4dedb;}.cls-2{fill:#01796f;}.cls-3{fill:#f5f4f2;}.cls-4{fill:#54352d;}.cls-5{fill:#fff;}.cls-6{fill:#333330;}.cls-7{fill:#282825;}.cls-8{fill:none;stroke:#282825;stroke-miterlimit:10;stroke-width:2px;}.cls-9{fill:#f94b4b;}</style></defs><title>post-02</title><rect class="cls-1" x="62.15" y="65.36" width="10.89" height="43.87"/><polygon class="cls-2" points="190.29 68.69 190.29 109.23 73.04 109.23 73.04 67.48 190.29 68.69"/><polygon class="cls-3" points="75.62 106.96 190.29 106.96 190.29 109.23 73.04 109.23 73.04 106.96 75.62 106.96"/><circle class="cls-4" cx="70.4" cy="86.77" r="1.59"/><circle class="cls-4" cx="70.4" cy="106.51" r="1.59"/><circle class="cls-4" cx="70.4" cy="68.23" r="1.59"/><rect class="cls-1" x="62.15" y="113.92" width="10.89" height="43.87"/><polygon class="cls-2" points="252.77 117.25 252.77 157.79 73.04 157.79 73.04 116.04 252.77 117.25"/><polygon class="cls-3" points="76.99 155.52 252.77 155.52 252.77 157.79 73.04 157.79 73.04 155.52 76.99 155.52"/><circle class="cls-4" cx="70.4" cy="135.33" r="1.59"/><circle class="cls-4" cx="70.4" cy="155.07" r="1.59"/><circle class="cls-4" cx="70.4" cy="116.8" r="1.59"/><path class="cls-5" d="M255.49,243.25a10.28,10.28,0,0,0,5.38,1.72c2.23,0,3.41-1.19,3.41-3s-1-2.7-3.6-3.89c-3.57-1.59-5.89-4.13-5.89-8.14,0-4.71,3.06-8.31,8.12-8.31a10.74,10.74,0,0,1,5.47,1.39l-1.08,5a8.45,8.45,0,0,0-4.49-1.31c-2.1,0-3.12,1.23-3.12,2.66,0,1.76,1.21,2.54,4,3.89,3.79,1.8,5.57,4.33,5.57,8.22,0,4.63-2.77,8.55-8.66,8.55a11.52,11.52,0,0,1-6.08-1.67Z" transform="translate(-173.98 -147.8)"/><path class="cls-5" d="M276.66,227.33H270.9v-5.24h16.49v5.24h-5.86v22.35h-4.87Z" transform="translate(-173.98 -147.8)"/><path class="cls-5" d="M290,222.46a33.15,33.15,0,0,1,6.46-.57c3.19,0,5.42.61,6.94,2.17a8,8,0,0,1,2,5.77,7.36,7.36,0,0,1-3.79,6.79v.12c1.5.78,2.32,2.62,2.86,5.16.67,3.11,1.34,6.71,1.76,7.78h-5a42.42,42.42,0,0,1-1.5-6.43c-.57-3.44-1.49-4.38-3.47-4.42h-1.46v10.85H290Zm4.81,11.87h1.91a3.63,3.63,0,0,0,3.85-4c0-2.54-1.34-3.81-3.57-3.85a9.48,9.48,0,0,0-2.19.21Z" transform="translate(-173.98 -147.8)"/><path class="cls-5" d="M321.62,238h-7.9v6.55h8.82v5.12H308.85V222.09h13.24v5.12h-8.37v5.73h7.9Z" transform="translate(-173.98 -147.8)"/><path class="cls-5" d="M338.62,238h-7.9v6.55h8.82v5.12H325.85V222.09h13.24v5.12h-8.37v5.73h7.9Z" transform="translate(-173.98 -147.8)"/><path class="cls-5" d="M347.15,227.33h-5.76v-5.24h16.49v5.24H352v22.35h-4.87Z" transform="translate(-173.98 -147.8)"/><path class="cls-5" d="M262.29,298.09V270.5H268l4.45,10.11a91,91,0,0,1,3.51,9.46H276c-.32-3.65-.41-7.37-.41-11.5V270.5h4.46v27.59H275l-4.58-10.64c-1.28-2.95-2.68-6.51-3.73-9.74l-.09,0c.12,3.64.19,7.53.19,12v8.31Z" transform="translate(-173.98 -147.8)"/><path class="cls-5" d="M297,286.42h-7.89V293H298v5.12H284.26V270.5H297.5v5.12h-8.37v5.73H297Z" transform="translate(-173.98 -147.8)"/><path class="cls-5" d="M305,298.09l-5.09-27.59h5.19l1.62,11.38c.48,3.27.92,6.83,1.27,9.62H308c.35-3,.86-6.3,1.4-9.7l1.81-11.3h5.16l1.72,11.63c.48,3.23.83,6.18,1.15,9.25h.06c.32-3.07.8-6.31,1.24-9.58l1.75-11.3h4.94l-5.54,27.59h-5.25l-1.82-11.87c-.41-2.78-.76-5.36-1-8.51h-.06c-.38,3.11-.73,5.73-1.24,8.51l-2,11.87Z" transform="translate(-173.98 -147.8)"/><path class="cls-5" d="M339.88,298.09v-11.3L333.1,270.5h5.54l2.19,6.63c.67,2,1.12,3.48,1.66,5.28h.06c.48-1.72,1-3.31,1.63-5.28l2.16-6.63h5.44l-7.06,16.09v11.5Z" transform="translate(-173.98 -147.8)"/><path class="cls-5" d="M372.26,284c0,9-4.27,14.53-10.54,14.53s-10.1-6.18-10.1-14c0-8.27,4.11-14.45,10.45-14.45C368.66,270.05,372.26,276.4,372.26,284Zm-15.51.37c0,5.4,2,9.2,5.22,9.2s5.16-4,5.16-9.37c0-4.95-1.85-9.2-5.19-9.2S356.75,279,356.75,284.38Z" transform="translate(-173.98 -147.8)"/><path class="cls-5" d="M375.44,270.87a34,34,0,0,1,6.46-.57c3.19,0,5.41.61,6.94,2.17a8,8,0,0,1,2,5.77A7.38,7.38,0,0,1,387,285v.12c1.49.78,2.32,2.62,2.86,5.16.67,3.11,1.34,6.71,1.75,7.78h-5a42.42,42.42,0,0,1-1.5-6.43c-.57-3.44-1.49-4.38-3.47-4.42h-1.46v10.85h-4.81Zm4.81,11.87h1.91a3.63,3.63,0,0,0,3.85-4c0-2.54-1.34-3.81-3.57-3.85a9.48,9.48,0,0,0-2.19.21Z" transform="translate(-173.98 -147.8)"/><path class="cls-5" d="M394.32,270.5h4.81v12.2h.09c.48-1.06,1-2.05,1.47-3l4.87-9.17h5.95l-7.1,11.75,7.48,15.84h-5.66L401,286.18l-1.84,2.9v9h-4.81Z" transform="translate(-173.98 -147.8)"/><rect class="cls-6" x="47" y="21.79" width="15.43" height="882.67"/><polygon class="cls-7" points="241.88 203.1 241.88 243.65 62.15 243.65 62.15 201.89 241.88 203.1"/><polygon class="cls-1" points="66.09 241.38 241.88 241.38 241.88 243.65 62.15 243.65 62.15 241.38 66.09 241.38"/><polygon class="cls-5" points="205.76 221.84 178.19 205.92 178.19 213.16 98.27 213.16 98.27 230.52 178.19 230.52 178.19 237.76 205.76 221.84"/><path class="cls-7" d="M291.15,369.51c0,4.17-2.18,6.7-5.4,6.7s-5.17-2.85-5.17-6.48c0-3.81,2.1-6.66,5.35-6.66S291.15,366,291.15,369.51Zm-7.94.17c0,2.49,1,4.24,2.67,4.24s2.65-1.85,2.65-4.32c0-2.28-.95-4.25-2.66-4.25S283.21,367.2,283.21,369.68Z" transform="translate(-173.98 -147.8)"/><path class="cls-7" d="M292.79,376V363.28h2.91l2.28,4.66a40.73,40.73,0,0,1,1.8,4.36h0c-.16-1.68-.21-3.4-.21-5.3v-3.72h2.29V376h-2.61l-2.35-4.91A46.57,46.57,0,0,1,295,366.6l0,0c.06,1.68.09,3.47.09,5.55V376Z" transform="translate(-173.98 -147.8)"/><path class="cls-7" d="M310.6,370.62h-4.05v3h4.52V376h-7V363.28h6.79v2.36h-4.29v2.64h4.05Z" transform="translate(-173.98 -147.8)"/><path class="cls-7" d="M317.25,376l-2.62-12.72h2.66l.84,5.25c.24,1.51.47,3.15.65,4.43h0c.18-1.38.44-2.91.72-4.47l.93-5.21h2.64l.89,5.36c.24,1.49.42,2.85.58,4.26h0c.16-1.41.4-2.9.63-4.41l.9-5.21h2.53L325.83,376h-2.69l-.93-5.47c-.21-1.29-.39-2.48-.52-3.93h0c-.19,1.43-.37,2.64-.63,3.93L320,376Z" transform="translate(-173.98 -147.8)"/><path class="cls-7" d="M331.64,372.73l-.78,3.27h-2.58l3.36-12.72h3.27L338.32,376h-2.68l-.85-3.27Zm2.8-2.15-.69-2.7c-.2-.75-.39-1.7-.55-2.45h0c-.16.75-.32,1.72-.5,2.45l-.66,2.7Z" transform="translate(-173.98 -147.8)"/><path class="cls-7" d="M340.79,376v-5.21l-3.48-7.51h2.84l1.13,3.06c.34.92.57,1.6.85,2.43h0c.24-.79.5-1.53.83-2.43l1.11-3.06h2.79l-3.62,7.42V376Z" transform="translate(-173.98 -147.8)"/><circle class="cls-6" cx="54.72" cy="15.2" r="15.2"/><rect class="cls-6" x="37.65" y="904.46" width="254" height="13"/><rect class="cls-6" x="18.67" y="904.46" width="13" height="13"/><rect class="cls-6" y="904.46" width="13" height="13"/><rect class="cls-7" x="363.92" y="630.14" width="1.64" height="20.33" transform="translate(555.5 1132.82) rotate(-180)"/><rect class="cls-7" x="282.17" y="628.73" width="1.64" height="20.33" transform="translate(392 1129.99) rotate(-180)"/><line class="cls-8" x1="209.39" y1="404.61" x2="102.83" y2="480"/><rect class="cls-7" x="93.56" y="479.01" width="144" height="3.33"/><rect class="cls-6" x="208.35" y="317.8" width="15.43" height="586.66"/><circle class="cls-6" cx="216.07" cy="311.21" r="15.2"/><rect class="cls-7" x="203.03" y="722.85" width="242.41" height="94.83" rx="1.42" transform="translate(920.51 298.23) rotate(90)"/><rect class="cls-7" x="278.23" y="650.77" width="92" height="238.99" rx="4.67" transform="translate(474.48 1392.73) rotate(-180)"/><path class="cls-5" d="M286.3,705.82l-2-11.05h2.08l.65,4.55c.2,1.32.37,2.74.51,3.86h0c.14-1.2.34-2.53.56-3.89l.73-4.52h2.07l.69,4.65c.19,1.3.33,2.48.45,3.71h0c.13-1.23.32-2.53.5-3.84l.7-4.52h2L293,705.82h-2.11l-.73-4.76c-.16-1.11-.3-2.15-.4-3.41h0c-.15,1.25-.29,2.3-.5,3.41l-.81,4.76Z" transform="translate(-173.98 -147.8)"/><path class="cls-5" d="M297.56,703l-.62,2.84h-2l2.63-11.05h2.55l2.67,11.05h-2.1L300,703Zm2.18-1.87-.54-2.34c-.15-.66-.3-1.48-.43-2.14h0c-.12.66-.25,1.5-.39,2.14l-.51,2.34Z" transform="translate(-173.98 -147.8)"/><path class="cls-5" d="M304,703.24a4.1,4.1,0,0,0,2.16.69c.89,0,1.37-.47,1.37-1.19s-.41-1.09-1.45-1.56a3.48,3.48,0,0,1-2.36-3.27,3.14,3.14,0,0,1,3.26-3.33,4.32,4.32,0,0,1,2.19.56l-.43,2a3.43,3.43,0,0,0-1.8-.53,1.1,1.1,0,0,0-1.25,1.07c0,.71.48,1,1.59,1.56a3.38,3.38,0,0,1,2.24,3.29A3.21,3.21,0,0,1,306,706a4.63,4.63,0,0,1-2.44-.67Z" transform="translate(-173.98 -147.8)"/><path class="cls-5" d="M312.76,694.77V699H316v-4.24h1.94v11.05H316v-4.63h-3.2v4.63h-1.95V694.77Z" transform="translate(-173.98 -147.8)"/><path class="cls-5" d="M321.55,694.77v11.05H319.6V694.77Z" transform="translate(-173.98 -147.8)"/><path class="cls-5" d="M323.23,705.82V694.77h2.27l1.79,4.05a38.67,38.67,0,0,1,1.41,3.78h0c-.12-1.46-.16-3-.16-4.6v-3.23h1.78v11.05h-2l-1.84-4.27c-.51-1.18-1.07-2.6-1.49-3.9l0,0c.05,1.46.08,3,.08,4.82v3.33Z" transform="translate(-173.98 -147.8)"/><path class="cls-5" d="M339.22,705.31a7.81,7.81,0,0,1-2.87.62,4.21,4.21,0,0,1-3.5-1.49,6.25,6.25,0,0,1-1.21-4c0-3.67,2.09-5.77,4.91-5.77a4.84,4.84,0,0,1,2.39.54l-.41,2a3.89,3.89,0,0,0-2-.47c-1.62,0-2.85,1.18-2.85,3.57s1.11,3.63,2.71,3.63a2,2,0,0,0,.95-.17v-2.31H336v-2h3.2Z" transform="translate(-173.98 -147.8)"/><path class="cls-5" d="M342.39,696.86h-2.31v-2.09h6.61v2.09h-2.34v9h-2Z" transform="translate(-173.98 -147.8)"/><path class="cls-5" d="M355.23,700.18c0,3.62-1.71,5.82-4.23,5.82s-4-2.48-4-5.63c0-3.31,1.65-5.79,4.19-5.79S355.23,697.13,355.23,700.18Zm-6.22.14c0,2.17.8,3.69,2.1,3.69s2.06-1.6,2.06-3.75c0-2-.74-3.69-2.08-3.69S349,698.18,349,700.32Z" transform="translate(-173.98 -147.8)"/><path class="cls-5" d="M356.5,705.82V694.77h2.27l1.79,4.05a36.21,36.21,0,0,1,1.4,3.78h0c-.13-1.46-.16-3-.16-4.6v-3.23h1.78v11.05h-2l-1.84-4.27c-.51-1.18-1.07-2.6-1.49-3.9l0,0c.05,1.46.08,3,.08,4.82v3.33Z" transform="translate(-173.98 -147.8)"/><path class="cls-5" d="M301,714.59a12.35,12.35,0,0,1,2.52-.23A3.92,3.92,0,0,1,306,715a2.55,2.55,0,0,1,1,2.17,2.5,2.5,0,0,1-1.41,2.36v0a2.7,2.7,0,0,1,1.71,2.72,3.3,3.3,0,0,1-.9,2.35,4.52,4.52,0,0,1-3.38,1,11,11,0,0,1-2.11-.17Zm1.93,4.23h.64c1,0,1.57-.54,1.57-1.36s-.5-1.28-1.38-1.28a4.59,4.59,0,0,0-.83.06Zm0,4.9a5.19,5.19,0,0,0,.75,0,1.48,1.48,0,0,0,1.66-1.59c0-1.11-.77-1.55-1.74-1.55h-.67Z" transform="translate(-173.98 -147.8)"/><path class="cls-5" d="M316.53,719.85c0,3.63-1.71,5.82-4.22,5.82s-4.05-2.47-4.05-5.62c0-3.31,1.65-5.79,4.19-5.79S316.53,716.8,316.53,719.85Zm-6.21.15c0,2.16.79,3.69,2.09,3.69s2.07-1.61,2.07-3.76c0-2-.74-3.69-2.08-3.69S310.32,717.85,310.32,720Z" transform="translate(-173.98 -147.8)"/><path class="cls-5" d="M317.87,722.92a4.16,4.16,0,0,0,2.16.69c.89,0,1.36-.48,1.36-1.2s-.41-1.08-1.44-1.56a3.45,3.45,0,0,1-2.36-3.26,3.12,3.12,0,0,1,3.25-3.33,4.26,4.26,0,0,1,2.2.56l-.44,2a3.38,3.38,0,0,0-1.8-.52c-.84,0-1.25.49-1.25,1.07s.49,1,1.6,1.55a3.38,3.38,0,0,1,2.23,3.3,3.22,3.22,0,0,1-3.47,3.43,4.6,4.6,0,0,1-2.44-.68Z" transform="translate(-173.98 -147.8)"/><path class="cls-5" d="M326.35,716.54H324v-2.1h6.61v2.1h-2.34v9h-2Z" transform="translate(-173.98 -147.8)"/><path class="cls-5" d="M339.19,719.85c0,3.63-1.71,5.82-4.23,5.82s-4-2.47-4-5.62c0-3.31,1.64-5.79,4.18-5.79S339.19,716.8,339.19,719.85ZM333,720c0,2.16.79,3.69,2.1,3.69s2.06-1.61,2.06-3.76c0-2-.74-3.69-2.08-3.69S333,717.85,333,720Z" transform="translate(-173.98 -147.8)"/><path class="cls-5" d="M340.46,725.49v-11h2.27l1.79,4a35.56,35.56,0,0,1,1.4,3.79h0c-.13-1.46-.17-2.95-.17-4.61v-3.23h1.79v11h-2l-1.84-4.26c-.51-1.18-1.07-2.61-1.49-3.9h0c.05,1.46.08,3,.08,4.82v3.33Z" transform="translate(-173.98 -147.8)"/><path class="cls-5" d="M294,736.21h-2.31v-2.1h6.61v2.1h-2.35v9h-2Z" transform="translate(-173.98 -147.8)"/><path class="cls-5" d="M304.41,740.49h-3.17v2.63h3.54v2h-5.49V734.11h5.31v2h-3.36v2.3h3.17Z" transform="translate(-173.98 -147.8)"/><path class="cls-5" d="M306.1,745.17V734.11h2.27l1.79,4a37.25,37.25,0,0,1,1.4,3.79h0c-.13-1.46-.16-3-.16-4.61v-3.23h1.78v11.06h-2l-1.84-4.27c-.51-1.18-1.07-2.6-1.49-3.9l0,0c.05,1.46.08,3,.08,4.82v3.33Z" transform="translate(-173.98 -147.8)"/><path class="cls-5" d="M314.9,745.17V734.11h2.27l1.79,4a39.85,39.85,0,0,1,1.41,3.79h0c-.12-1.46-.16-3-.16-4.61v-3.23H322v11.06h-2l-1.84-4.27c-.51-1.18-1.07-2.6-1.49-3.9l0,0c.05,1.46.08,3,.08,4.82v3.33Z" transform="translate(-173.98 -147.8)"/><path class="cls-5" d="M328.82,740.49h-3.16v2.63h3.53v2H323.7V734.11H329v2h-3.35v2.3h3.16Z" transform="translate(-173.98 -147.8)"/><path class="cls-5" d="M330.58,742.59a4.07,4.07,0,0,0,2.16.69c.89,0,1.36-.47,1.36-1.2s-.41-1.08-1.44-1.55a3.46,3.46,0,0,1-2.36-3.27,3.13,3.13,0,0,1,3.25-3.33,4.36,4.36,0,0,1,2.2.56l-.43,2a3.34,3.34,0,0,0-1.8-.53c-.85,0-1.25.5-1.25,1.07s.48,1,1.59,1.56a3.38,3.38,0,0,1,2.23,3.29,3.21,3.21,0,0,1-3.47,3.43,4.69,4.69,0,0,1-2.44-.67Z" transform="translate(-173.98 -147.8)"/><path class="cls-5" d="M337.47,742.59a4.07,4.07,0,0,0,2.16.69c.89,0,1.36-.47,1.36-1.2s-.41-1.08-1.44-1.55a3.46,3.46,0,0,1-2.36-3.27,3.13,3.13,0,0,1,3.25-3.33,4.36,4.36,0,0,1,2.2.56l-.44,2a3.28,3.28,0,0,0-1.8-.53,1.1,1.1,0,0,0-1.25,1.07c0,.7.49,1,1.6,1.56A3.38,3.38,0,0,1,343,741.9a3.21,3.21,0,0,1-3.47,3.43,4.69,4.69,0,0,1-2.44-.67Z" transform="translate(-173.98 -147.8)"/><path class="cls-5" d="M349.41,740.49h-3.16v2.63h3.53v2h-5.49V734.11h5.31v2h-3.35v2.3h3.16Z" transform="translate(-173.98 -147.8)"/><path class="cls-5" d="M356.22,740.49h-3.16v2.63h3.53v2h-5.48V734.11h5.3v2h-3.35v2.3h3.16Z" transform="translate(-173.98 -147.8)"/><path class="cls-5" d="M298.62,764.53a4.42,4.42,0,0,1-2.2.48c-3,0-4.51-2.38-4.51-5.53,0-3.77,2.09-5.87,4.7-5.87a4.16,4.16,0,0,1,2.12.49l-.4,2a3.45,3.45,0,0,0-1.63-.41c-1.55,0-2.75,1.2-2.75,3.66,0,2.21,1,3.61,2.76,3.61a4,4,0,0,0,1.62-.36Z" transform="translate(-173.98 -147.8)"/><path class="cls-5" d="M307.39,759.2c0,3.62-1.71,5.82-4.23,5.82s-4-2.47-4-5.62c0-3.32,1.64-5.79,4.18-5.79S307.39,756.15,307.39,759.2Zm-6.22.15c0,2.16.79,3.69,2.1,3.69s2.06-1.61,2.06-3.76c0-2-.74-3.69-2.08-3.69S301.17,757.2,301.17,759.35Z" transform="translate(-173.98 -147.8)"/><path class="cls-5" d="M308.66,753.79h1.95v9H314v2.1h-5.37Z" transform="translate(-173.98 -147.8)"/><path class="cls-5" d="M322.57,759.2c0,3.62-1.71,5.82-4.23,5.82s-4-2.47-4-5.62c0-3.32,1.64-5.79,4.18-5.79S322.57,756.15,322.57,759.2Zm-6.22.15c0,2.16.79,3.69,2.09,3.69s2.07-1.61,2.07-3.76c0-2-.74-3.69-2.08-3.69S316.35,757.2,316.35,759.35Z" transform="translate(-173.98 -147.8)"/><path class="cls-5" d="M323.84,753.94a12.69,12.69,0,0,1,2.59-.23,3.64,3.64,0,0,1,2.78.87,3.18,3.18,0,0,1,.79,2.31,3,3,0,0,1-1.52,2.72v0a2.81,2.81,0,0,1,1.15,2.07c.27,1.24.54,2.68.7,3.11h-2a17.38,17.38,0,0,1-.6-2.57c-.23-1.38-.6-1.76-1.39-1.77h-.58v4.34h-1.93Zm1.93,4.75h.76a1.46,1.46,0,0,0,1.55-1.59,1.35,1.35,0,0,0-1.43-1.54,4,4,0,0,0-.88.08Z" transform="translate(-173.98 -147.8)"/><path class="cls-5" d="M333.52,762l-.61,2.84h-2l2.63-11.05h2.55l2.67,11.05h-2.09L336,762Zm2.18-1.87-.53-2.34c-.16-.66-.31-1.48-.44-2.13h0c-.13.65-.26,1.49-.4,2.13l-.51,2.34Z" transform="translate(-173.98 -147.8)"/><path class="cls-5" d="M339.89,753.94a13.29,13.29,0,0,1,2.62-.23,4.65,4.65,0,0,1,3.53,1.18,5.53,5.53,0,0,1,1.45,4.16,6.44,6.44,0,0,1-1.43,4.48,5.22,5.22,0,0,1-4,1.43,13.16,13.16,0,0,1-2.2-.17Zm1.95,9a3.34,3.34,0,0,0,.67,0c1.77,0,2.91-1.23,2.91-3.87,0-2.29-1-3.51-2.7-3.51a3.12,3.12,0,0,0-.88.1Z" transform="translate(-173.98 -147.8)"/><path class="cls-5" d="M356.64,759.2c0,3.62-1.71,5.82-4.23,5.82s-4-2.47-4-5.62c0-3.32,1.64-5.79,4.18-5.79S356.64,756.15,356.64,759.2Zm-6.22.15c0,2.16.79,3.69,2.1,3.69s2.06-1.61,2.06-3.76c0-2-.74-3.69-2.08-3.69S350.42,757.2,350.42,759.35Z" transform="translate(-173.98 -147.8)"/><path class="cls-5" d="M286.34,773.46h2v9h3.42v2.1h-5.37Z" transform="translate(-173.98 -147.8)"/><path class="cls-5" d="M300.24,778.87c0,3.63-1.71,5.83-4.22,5.83s-4-2.48-4-5.63c0-3.31,1.65-5.79,4.19-5.79S300.24,775.82,300.24,778.87ZM294,779c0,2.17.79,3.69,2.09,3.69s2.07-1.61,2.07-3.75-.74-3.69-2.08-3.69S294,776.87,294,779Z" transform="translate(-173.98 -147.8)"/><path class="cls-5" d="M301.58,781.94a4.07,4.07,0,0,0,2.16.69c.89,0,1.36-.48,1.36-1.2s-.41-1.08-1.44-1.56a3.44,3.44,0,0,1-2.36-3.26,3.13,3.13,0,0,1,3.25-3.33,4.26,4.26,0,0,1,2.2.56l-.44,2a3.28,3.28,0,0,0-1.8-.53c-.84,0-1.25.49-1.25,1.07s.49,1,1.6,1.56a3.37,3.37,0,0,1,2.23,3.29,3.21,3.21,0,0,1-3.47,3.43,4.69,4.69,0,0,1-2.44-.67Z" transform="translate(-173.98 -147.8)"/><path class="cls-5" d="M313,781.68l-.61,2.84h-2L313,773.46h2.56l2.66,11.06h-2.09l-.66-2.84Zm2.19-1.87-.54-2.35c-.15-.65-.31-1.47-.43-2.13h0c-.13.66-.25,1.49-.39,2.13l-.51,2.35Z" transform="translate(-173.98 -147.8)"/><path class="cls-5" d="M319.35,784.52V773.46h2.27l1.79,4a37.25,37.25,0,0,1,1.4,3.79h0c-.13-1.46-.17-2.95-.17-4.61v-3.23h1.79v11.06h-2l-1.84-4.27c-.51-1.18-1.07-2.61-1.49-3.9l0,0c.05,1.45.08,3,.08,4.82v3.33Z" transform="translate(-173.98 -147.8)"/><path class="cls-5" d="M335.34,784a7.82,7.82,0,0,1-2.88.62,4.19,4.19,0,0,1-3.49-1.49,6.28,6.28,0,0,1-1.22-4c0-3.67,2.1-5.77,4.92-5.77a4.79,4.79,0,0,1,2.38.54l-.4,2a3.92,3.92,0,0,0-2-.48c-1.62,0-2.84,1.18-2.84,3.58s1.11,3.62,2.7,3.62a2.07,2.07,0,0,0,1-.16v-2.31h-1.33v-1.95h3.21Z" transform="translate(-173.98 -147.8)"/><path class="cls-5" d="M342,779.84H338.8v2.63h3.54v2h-5.49V773.46h5.31v2H338.8v2.3H342Z" transform="translate(-173.98 -147.8)"/><path class="cls-5" d="M343.66,773.46h1.95v9H349v2.1h-5.37Z" transform="translate(-173.98 -147.8)"/><path class="cls-5" d="M355.3,779.84h-3.17v2.63h3.54v2h-5.49V773.46h5.31v2h-3.36v2.3h3.17Z" transform="translate(-173.98 -147.8)"/><path class="cls-5" d="M357.06,781.94a4,4,0,0,0,2.15.69c.9,0,1.37-.48,1.37-1.2s-.41-1.08-1.44-1.56a3.44,3.44,0,0,1-2.36-3.26,3.13,3.13,0,0,1,3.25-3.33,4.22,4.22,0,0,1,2.19.56l-.43,2a3.31,3.31,0,0,0-1.8-.53c-.84,0-1.25.49-1.25,1.07s.49,1,1.6,1.56a3.38,3.38,0,0,1,2.23,3.29,3.21,3.21,0,0,1-3.47,3.43,4.69,4.69,0,0,1-2.44-.67Z" transform="translate(-173.98 -147.8)"/><path class="cls-5" d="M294.3,793.14v4.24h3.2v-4.24h1.94v11.05H297.5v-4.62h-3.2v4.62h-2V793.14Z" transform="translate(-173.98 -147.8)"/><path class="cls-5" d="M309,798.55c0,3.62-1.71,5.82-4.23,5.82s-4-2.48-4-5.62c0-3.32,1.64-5.79,4.18-5.79S309,795.5,309,798.55Zm-6.22.15c0,2.16.79,3.69,2.1,3.69s2.06-1.61,2.06-3.76c0-2-.74-3.69-2.08-3.69S302.79,796.55,302.79,798.7Z" transform="translate(-173.98 -147.8)"/><path class="cls-5" d="M310.28,804.19V793.14h2.27l1.79,4.05a35.56,35.56,0,0,1,1.4,3.79h0c-.13-1.46-.17-3-.17-4.61v-3.23h1.79v11.05h-2l-1.84-4.26c-.51-1.18-1.07-2.61-1.49-3.91l0,0c.05,1.46.08,3,.08,4.82v3.33Z" transform="translate(-173.98 -147.8)"/><path class="cls-5" d="M327,798.55c0,3.62-1.71,5.82-4.22,5.82s-4-2.48-4-5.62c0-3.32,1.64-5.79,4.18-5.79S327,795.5,327,798.55Zm-6.21.15c0,2.16.79,3.69,2.09,3.69s2.07-1.61,2.07-3.76c0-2-.74-3.69-2.08-3.69S320.74,796.55,320.74,798.7Z" transform="translate(-173.98 -147.8)"/><path class="cls-5" d="M328.23,793.14h1.95v9h3.42v2.1h-5.37Z" transform="translate(-173.98 -147.8)"/><path class="cls-5" d="M336.29,793.14v6.36c0,1.9.56,2.87,1.56,2.87s1.58-.92,1.58-2.87v-6.36h1.94v6.2c0,3.41-1.34,5-3.59,5s-3.44-1.54-3.44-5.07v-6.16Z" transform="translate(-173.98 -147.8)"/><path class="cls-5" d="M343.05,793.14H345v9h3.42v2.1h-5.37Z" transform="translate(-173.98 -147.8)"/><path class="cls-5" d="M351.11,793.14v6.36c0,1.9.56,2.87,1.56,2.87s1.58-.92,1.58-2.87v-6.36h1.94v6.2c0,3.41-1.34,5-3.58,5s-3.45-1.54-3.45-5.07v-6.16Z" transform="translate(-173.98 -147.8)"/><rect class="cls-5" x="110.18" y="528.82" width="79.36" height="3.25"/><rect class="cls-5" x="110.18" y="671.28" width="79.36" height="3.25"/><path class="cls-9" d="M331.4,835.83a11.28,11.28,0,0,1,.82-.86,8.26,8.26,0,0,1,3.41-2.06,6.64,6.64,0,0,1,4.12.4,6.08,6.08,0,0,1,3,2.57,8,8,0,0,1,1.1,5.25A10.31,10.31,0,0,1,342,846a26.4,26.4,0,0,1-7,6.86c-1,.67-2.1,1.21-3.15,1.81a.33.33,0,0,1-.24,0,36.3,36.3,0,0,1-6.85-4.53,18.3,18.3,0,0,1-4.6-6.06,8.84,8.84,0,0,1-.85-4.39,8.49,8.49,0,0,1,1.37-4.14,6.34,6.34,0,0,1,4-2.59,5.19,5.19,0,0,1,4.85,1,9.15,9.15,0,0,1,1.63,1.66C331.23,835.64,331.31,835.72,331.4,835.83Z" transform="translate(-173.98 -147.8)"/><path class="cls-5" d="M316,872.76s0,0,0,0c0-2.32,0-4.63.05-7,0-.51.05-1,.05-1.53,0-1.09,0-2.18,0-3.27a2.28,2.28,0,0,0-.09-.51.88.88,0,0,0-.79-.67,7.57,7.57,0,0,0-.95,0,3.08,3.08,0,0,1-1.88-.35,1.22,1.22,0,0,1-.62-1.19,1.31,1.31,0,0,1,.73-1.17,2.76,2.76,0,0,1,1.49-.27c1.26.06,2.52.16,3.78.17.92,0,1.84-.09,2.76-.13a15.32,15.32,0,0,1,1.66,0,1.47,1.47,0,0,1,1.35,1.51,1.54,1.54,0,0,1-1.33,1.5c-.45,0-.91,0-1.36,0a4.24,4.24,0,0,0-.88.08.86.86,0,0,0-.73.87c0,.48,0,1,0,1.43,0,1.12,0,2.25,0,3.37,0,2.49-.05,5-.07,7.47,0,.64.06,1.28,0,1.92a2.86,2.86,0,0,1-.85,2.06,2.86,2.86,0,0,1-4.34-.87c-.66-1.24-1.14-2.56-1.68-3.86-.63-1.52-1.3-3-1.95-4.55-.52-1.22-1-2.45-1.55-3.68-.38-.89-.75-1.78-1.13-2.66-.07-.15-.16-.29-.23-.43h-.08c0,.21,0,.42,0,.63,0,1.58,0,3.17,0,4.76,0,1.43,0,2.85,0,4.28,0,.69,0,1.37,0,2.06a3.77,3.77,0,0,0,0,.58,1.1,1.1,0,0,0,1.19,1h1.54a1.44,1.44,0,0,1,1.39,1.07,1.42,1.42,0,0,1-1.45,1.82c-.77,0-1.53-.06-2.29-.08-1,0-2,0-3,0s-2,.08-3,.11a3.58,3.58,0,0,1-.73,0,1.44,1.44,0,0,1-1-1.83,1.58,1.58,0,0,1,1.89-1.07,3.1,3.1,0,0,0,1.42,0,.94.94,0,0,0,.81-1c0-1,0-2,0-3l0-4.47c0-.55,0-1.1,0-1.65,0-1.14,0-2.29,0-3.44,0-.1,0-.2,0-.3a.63.63,0,0,0-.5-.6,3.37,3.37,0,0,0-.77-.09c-.46,0-.93,0-1.39,0-.88,0-1.28-.61-1.41-1.39a1.42,1.42,0,0,1,1.23-1.55,7.09,7.09,0,0,1,1,0h4.85a2.57,2.57,0,0,1,2.33,1.35,4.16,4.16,0,0,1,.28.51q1.32,3,2.62,5.95l2.18,5.1c.42,1,.85,1.91,1.27,2.87C316,872.6,316,872.68,316,872.76Z" transform="translate(-173.98 -147.8)"/><path class="cls-5" d="M336.23,866.76c.19-.28.36-.52.52-.78.66-1.12,1.33-2.24,2-3.37.34-.59.66-1.2,1-1.79a4.08,4.08,0,0,0,.28-.49c.12-.26,0-.43-.26-.46a2.81,2.81,0,0,0-.58,0,2.62,2.62,0,0,1-1.3-.13,1.48,1.48,0,0,1-.42-2.5,1.32,1.32,0,0,1,.8-.28c.48,0,.95,0,1.43,0l2.1,0c1.53,0,3.05,0,4.58-.13a4,4,0,0,1,1,0,1.5,1.5,0,0,1-.34,2.95,4.42,4.42,0,0,1-.63,0,7.88,7.88,0,0,0-1.75.1,1.74,1.74,0,0,0-1,.55,7.16,7.16,0,0,0-.58.78c-1.09,1.78-2.16,3.56-3.25,5.34-.56.91-1.13,1.81-1.67,2.73a1.34,1.34,0,0,0-.2.64c0,1-.05,1.91-.06,2.86a4,4,0,0,0,.05.6,1,1,0,0,0,1,.93,11.41,11.41,0,0,0,1.16-.06,2.45,2.45,0,0,1,1.41.23,1.18,1.18,0,0,1,.67,1.12,1.52,1.52,0,0,1-1,1.51,4.68,4.68,0,0,1-1.24.07,34.06,34.06,0,0,0-4.84-.12c-.7,0-1.4.1-2.1.13a6.41,6.41,0,0,1-1.24,0,1.53,1.53,0,0,1-1.22-1.8,1.42,1.42,0,0,1,1.28-1c.28,0,.57,0,.86,0a6.91,6.91,0,0,0,.91,0,1.1,1.1,0,0,0,1.06-1.19c0-.58,0-1.17.06-1.75s0-.89,0-1.34a1.08,1.08,0,0,0-.13-.56c-.83-1.37-1.69-2.74-2.54-4.11s-1.83-2.91-2.73-4.37a2.64,2.64,0,0,0-1.78-1.28,6,6,0,0,0-1.12-.05c-.4,0-.8,0-1.19,0a1.37,1.37,0,0,1-1.27-1.74c.13-.77.51-1.08,1.4-1.16.3,0,.62,0,.93,0,1.51,0,3,0,4.54,0,.88,0,1.76-.07,2.63-.07a5.68,5.68,0,0,1,1.09.11,1,1,0,0,1,.4.21,1.71,1.71,0,0,1,.42,1.67,1.41,1.41,0,0,1-1.28,1c-.34,0-.69,0-1,0-.18,0-.37,0-.48.17a.49.49,0,0,0,.06.53q1.73,3,3.43,5.91Z" transform="translate(-173.98 -147.8)"/><path class="cls-5" d="M309.38,842.93v-3.6l0-2.27c0-.92-.35-1.26-1.26-1.26-.54,0-1.08.06-1.62,0a1.44,1.44,0,0,1-1.34-.94,1.41,1.41,0,0,1,1.31-2c1,0,2,0,3.05.06a37.83,37.83,0,0,0,4.88-.13,3.21,3.21,0,0,1,1.07,0,1.4,1.4,0,0,1,1.12,1.22,1.45,1.45,0,0,1-.7,1.51,2.41,2.41,0,0,1-1.34.26,7.87,7.87,0,0,0-1.19,0,.83.83,0,0,0-.83.88c0,.35,0,.7,0,1.06,0,1.23.07,2.46.09,3.69,0,1.82.06,3.64.08,5.45,0,.7,0,1.4,0,2.1a2.92,2.92,0,0,0,.11.72.94.94,0,0,0,.91.79c.31,0,.62,0,.93,0a8.44,8.44,0,0,1,1.24.07,1.2,1.2,0,0,1,.92,1.34,1.18,1.18,0,0,1-.94,1.25,12,12,0,0,1-1.59.06.53.53,0,0,1-.13,0c-1.71,0-3.42-.19-5.13,0-.68.08-1.38.1-2.07.13a1.47,1.47,0,0,1-1.48-2.09,1.06,1.06,0,0,1,.7-.65,4.86,4.86,0,0,1,1.74-.15,3.29,3.29,0,0,0,.77,0,.91.91,0,0,0,.81-.86,11.22,11.22,0,0,0,0-1.3q0-.88,0-1.77C309.44,845.36,309.41,844.22,309.38,842.93Z" transform="translate(-173.98 -147.8)"/></svg>