<svg id="Layer_1" data-name="Layer 1" xmlns="http://www.w3.org/2000/svg" viewBox="0 0 237.17 366.03"><defs><style>.cls-1{fill:#f1967c;}</style></defs><title>back-prop</title><path class="cls-1" d="M396.42,118.62c-.91-4.06-5.42-14.15-9.19-15.21s-4.52,4.82-4.52,4.82-19.42,16.12-20.33,16.12-1.65-1.36-2.86-1.36-11.59,6.78-11.59,6.78-2.72-1.06-3.47-.15a14,14,0,0,0-1.5,2.56s-5.88.3-6.18,1.2a21.73,21.73,0,0,0-.45,3.47l-2.86.45-4.52,1-5.72.45-1.51-.6-3.91,1.21-3.92,5.27-.9,3.91s-17,12.2-17.17,12.65-1.06,2.26-1.06,2.26L266,180.37s-4.22-3.31-4.82-3.61,1.81-2.26,0-4.07-3-5.27-5.87-5.42c0,0-9.49-7.68-14-7.23,0,0-3.76-4.22-8.13-3.47s-17,7.53-22.89,21.54c0,0-1.21,13.86,2.11,18.37S220.82,207,230.61,209c0,0,5.12,2.26,6,5.88s-.6,9.33-.6,9.33-12.2,5-11.75,15.82-3,11.74,5.12,31.17c0,0,11.15,18.37,11.45,23.64s.9,10.25.9,10.25-12.05,10.69-13.85,24.24-2.56,39.61-2.56,39.61l3.61,3.46s1.66,36,2.26,38.11,11,17.77,11,17.77,0,2.1-1.2,2.1-14.16-2.86-14.16-2.86-30.27-16-43.52-18.22c0,0-1.81-2.71-9.79-3.76a101.27,101.27,0,0,0-11.75-1.06s-2.71,4.52-2.41,6.93,0,12.95,0,12.95l3.94.3s-2.71,21.54-2.26,23.65,9.94,13.4,12.05,14.6,11.6,7.23,12,5.43a21.29,21.29,0,0,0,.3-4.82l15.06.6s11.29,2.62,34.64,3.91,51.65,1.3,52.71,1.3,4.82-3.71,5.72-12.44,2.11-52.26,2.11-52.26l1.5-19.27s20.79,2.1,26.51,3.61S339.94,390,339.94,390s-3.76,12.05-5,14.31-8.58,6.48-13.1,22.89c0,0-11,14.16-13.7,16.72a15.4,15.4,0,0,0-4.67,11.44c.15,4.67.15,9.79.15,9.79s14.46,2.71,19,.91l-.15-3.17a70.2,70.2,0,0,1,7.68.15c1.21.31,8.59,3.77,15.82,3.32s17,1.5,26.5-4.07c0,0-.75-4.82-7.38-6.17s-11,.75-14.76-1.36-5.27-10.24-5.27-10.24-5.57-1.81-7.38-1.35c0,0,.31-8.29,4.37-10.85,0,0,27.41,2.41,32.08.6l1.81-2.71S377,410.94,380,405.06s9.79-30.12,10.85-34.63,3-16.87-6.48-21.54S338.89,339,338.89,339L319.76,335s-5.12-11.45-5.57-19.43-2.11-24.85-1.81-25.75-3.46-31.63-3.46-31.63v-4.37s31.78-3.16,44.13-14.46c0,0-.31-21.68.75-26.2l1.66-1.51s.9-11.89,1.2-12.8-6-3-6-3L349.58,189s-9.49-6.32-12.05-6.47c0,0-.6-16.12-.9-18.68a27.38,27.38,0,0,0-1.05-4.82,16.49,16.49,0,0,0,3.76-11.59s22.44-14,27.71-16.12,17-9.63,24.71-9.33C391.76,121.94,397.32,122.69,396.42,118.62Zm-85.69,79.22L297.47,218l-4.81-6.18L280,212.6l-3-3-2.86.9-4.82-4.07s4.37-3.76,4.37-6.17-2.56-6.63-2.56-6.63l-1.81-4.82,29.59-18.22,3.24,1.21h7.23l8.74,11Z" transform="translate(-159.35 -103.29)"/></svg>