<svg id="Layer_1" data-name="Layer 1" xmlns="http://www.w3.org/2000/svg" viewBox="0 0 469.78 259.26"><defs><style>.cls-1{fill:#292926;}.cls-2{fill:#cb956a;}.cls-3{fill:#e0b780;}.cls-4{fill:#3d331c;}.cls-5{fill:#e6ba40;}.cls-6{fill:#631f13;}.cls-7{fill:#343330;}.cls-8{fill:#f2fafe;}.cls-9{fill:#171817;}.cls-10{fill:#855331;}.cls-11{fill:#a26536;}</style></defs><title>soldier</title><path class="cls-1" d="M130.68,269.16l3.88,1.94-2.8,3.39-5.66,2.93-1-4.13S127.61,270,130.68,269.16Z" transform="translate(-108.48 -89.47)"/><path class="cls-2" d="M210.1,218.92s-3.18-.19-2.21,2.17,7.78,4.72,9.29,6.37.38,1.94,4.25,3.07,5.57,1.76,7,2.91,2.05,3.66,4.47,4.62-1.07-7.34-1.07-7.34l-4.91-5.31-7.56-4Z" transform="translate(-108.48 -89.47)"/><path class="cls-1" d="M203.72,220.05s3.72.42,4.17-.66-.87-3.15-.87-3.15l-2.49,1.94-1.29,1.66Z" transform="translate(-108.48 -89.47)"/><path class="cls-2" d="M166.47,238.82s-11.34-4.46-7.26-13.81l5.42,7.36Z" transform="translate(-108.48 -89.47)"/><path class="cls-3" d="M204.08,220.13a55.54,55.54,0,0,0-.36,7.64c.22,2.55.55,14.45,0,15.79s-2.77,8.86-6.92,10.13H169.44l-3.33-.78.36-10,12.46-1.07,7.65-7.36L199.08,224l3-3.6Z" transform="translate(-108.48 -89.47)"/><path class="cls-4" d="M159.39,223.42a7.09,7.09,0,0,0,1.13,5.69c2,2.91,5.95,12.68,6.52,15.09s-.64,3.68,3.11,2.76a62.09,62.09,0,0,1,12.33-1.2c3.54-.07,6.44.78,8.28-3.33s6.87-21,13-22.38l-9.2,1.77L184,225.22l-13,.21-9.42-1.77Z" transform="translate(-108.48 -89.47)"/><path class="cls-5" d="M205.14,218.49s-20.4,16.57-46.32,4.67v-3.11l15.86,2.12,13.6-1,16.86-7.9,2-1.59S209.82,214,205.14,218.49Z" transform="translate(-108.48 -89.47)"/><path class="cls-6" d="M158.82,220.05v-2.86l.57-1.17,20.54,2,13-2,12.18-4.33a7.84,7.84,0,0,1-2.27,5.24C200.61,219.06,180.49,229.54,158.82,220.05Z" transform="translate(-108.48 -89.47)"/><path class="cls-1" d="M150.07,212.54s7.9,6.37,18.38,6.37,29.61.29,37.68-6.37,6.81-11.5,6.81-11.5L152,206l-1.92,1.12A6.75,6.75,0,0,0,150.07,212.54Z" transform="translate(-108.48 -89.47)"/><path class="cls-7" d="M172,189.88a43.58,43.58,0,0,1,25.08-3.26c14.59,2.26,20.11,14.45,12.46,20.4s-30.74,12.89-52.55,6.37S172,189.88,172,189.88Z" transform="translate(-108.48 -89.47)"/><path class="cls-2" d="M201.46,225.64s-5.1,5.88-4.68,9.71,2.27,5.73,3.76,6.09-.85-1.91.14-6.94S204.43,224.23,201.46,225.64Z" transform="translate(-108.48 -89.47)"/><path class="cls-1" d="M154,263.73s4.21-11.68,12.17-12.24,32.13,1.4,32.13,1.4-1.42,2.57,3,7.39c0,0-3.78-4.59-16.62-2.72s-31.36,7.35-31.36,7.35Z" transform="translate(-108.48 -89.47)"/><path class="cls-5" d="M127.66,275.29s-.57-5.28,3-6.13c0,0-4.25.75-5.29,2.36,0,0-3.21.85-4.35,2.26s-1.6,6.05-1.6,6.05Z" transform="translate(-108.48 -89.47)"/><path class="cls-3" d="M252.41,232.51s-14.55-6.81-16.62-8.55-2.74-2.5-7.65-2.78-18.18-3.74-19.65-4.34-2.64,1.7,2.08,4.44a48.89,48.89,0,0,0,9.49,4.13s-1.56.78.62,2.05a10,10,0,0,0,5.38.9s4,3.18,4.91,5.08,1,4.27,3.21,6.06,9.35,3.12,9.35,3.12S242.59,233.93,252.41,232.51Z" transform="translate(-108.48 -89.47)"/><path class="cls-8" d="M254.86,232.89s-12.46-4-11.33,9.73l4.82-1.15,7-6.12Z" transform="translate(-108.48 -89.47)"/><path class="cls-7" d="M268.74,232.36s-10.95-1.34-16.33,1.3-7.56,5.75-8.41,11.51l12.37,16.34,2.27,6.13a60.23,60.23,0,0,0-9.24-1.6c-4.17-.28-12.86-1.13-12.86-1.13s-5.76-7.75-8.12-9.07-3.12-.66-3.12-.66l-10.48,2.55s-10.58-.85-13.5,2.55l-3.88-3.78-28.7.52-15.4,7.89s-19.7,5.44-25.72,9.58c0,0-8,1.75-10.16,7.32A22.28,22.28,0,0,0,116,292.29s-4.06,7.65-1.89,13.51a70.31,70.31,0,0,0-1.51,10.39c-.09,4-2.64,12.18-2.64,15.29s-1.52,17.24-1.52,17.24h29.85l-.1-2.22,2.74,2.22H241.36s-4.91-11.57-4.44-19.12,4-17.85,4-17.85l3.3-7.56s24-5.57,33.24-9.54,19.46-9.16,21.16-15.11.66-9-3.5-14.63S270.16,238.62,268.74,232.36Z" transform="translate(-108.48 -89.47)"/><path class="cls-5" d="M275,242s-16.37-1.72-22.87,13.92l2.95,3.9s4-9.5,9.34-11.58S278,245.6,278,245.6Z" transform="translate(-108.48 -89.47)"/><path class="cls-6" d="M253.54,256.12s4-8,9.92-11a20.09,20.09,0,0,1,11.33-2l1,1.32s-7.27-1.14-12.37,2.17-8.67,10-8.81,10.77Z" transform="translate(-108.48 -89.47)"/><path class="cls-5" d="M214.82,253.69v6.78l10.11-.38.37-6.4a32.82,32.82,0,0,0-5.24,0A32.82,32.82,0,0,1,214.82,253.69Z" transform="translate(-108.48 -89.47)"/><path class="cls-9" d="M309.38,221.9l6.19,3.09-4.46,5.41-9,4.67-1.65-6.59S304.49,223.18,309.38,221.9Z" transform="translate(-108.48 -89.47)"/><path class="cls-10" d="M436,141.82s-5.08-.3-3.52,3.46,12.4,7.53,14.8,10.16.61,3.08,6.78,4.89,8.88,2.81,11.14,4.64,3.27,5.83,7.13,7.37-1.71-11.71-1.71-11.71l-7.83-8.46-12-6.44Z" transform="translate(-108.48 -89.47)"/><path class="cls-1" d="M425.81,143.62s5.92.68,6.65-1.05-1.39-5-1.39-5l-4,3.1-2,2.64Z" transform="translate(-108.48 -89.47)"/><path class="cls-10" d="M366.43,173.54s-18.07-7.11-11.57-22l8.64,11.74Z" transform="translate(-108.48 -89.47)"/><path class="cls-11" d="M426.38,143.75s-.9,8.11-.57,12.18.87,23-.07,25.17-4.41,14.12-11,16.15H371.17l-5.3-1.24.56-15.92,19.87-1.7,12.19-11.74,19.93-16.79,4.79-5.74Z" transform="translate(-108.48 -89.47)"/><path class="cls-1" d="M355.15,149a11.28,11.28,0,0,0,1.8,9.07c3.16,4.63,9.48,20.21,10.38,24.05s-1,5.87,5,4.4,14-1.8,19.65-1.92,10.27,1.25,13.2-5.3,11-33.53,20.66-35.68l-14.67,2.82-16.71,5.42-20.66.34-15-2.82Z" transform="translate(-108.48 -89.47)"/><path class="cls-5" d="M428.07,141.14s-32.51,26.42-73.83,7.45v-5L379.53,147l21.67-1.58,26.87-12.59,3.16-2.54S435.52,133.91,428.07,141.14Z" transform="translate(-108.48 -89.47)"/><path class="cls-6" d="M354.24,143.62v-4.56l.9-1.86,32.74,3.21,20.77-3.21,19.42-6.9a12.55,12.55,0,0,1-3.61,8.36C420.85,142,388.78,158.75,354.24,143.62Z" transform="translate(-108.48 -89.47)"/><path class="cls-9" d="M340.29,131.66s12.59,10.16,29.3,10.16,47.19.45,60.06-10.16,10.85-18.33,10.85-18.33l-97.1,7.94-3,1.77A10.79,10.79,0,0,0,340.29,131.66Z" transform="translate(-108.48 -89.47)"/><path class="cls-1" d="M375.24,95.53s16.71-8.81,40-5.19,32.06,23,19.87,32.51-49,20.55-83.77,10.16S375.24,95.53,375.24,95.53Z" transform="translate(-108.48 -89.47)"/><path class="cls-10" d="M422.2,152.54s-8.13,9.37-7.45,15.47,3.61,9.14,6,9.71-1.35-3.05.23-11.07S426.94,150.28,422.2,152.54Z" transform="translate(-108.48 -89.47)"/><path class="cls-9" d="M346.56,213.25s6.71-18.61,19.39-19.51S417.17,196,417.17,196s-2.27,4.1,4.81,11.78c0,0-6-7.31-26.5-4.34s-50,11.71-50,11.71Z" transform="translate(-108.48 -89.47)"/><path class="cls-5" d="M304.56,231.68s-.9-8.43,4.82-9.78c0,0-6.77,1.2-8.43,3.76,0,0-5.12,1.35-6.92,3.61s-2.56,9.64-2.56,9.64Z" transform="translate(-108.48 -89.47)"/><path class="cls-11" d="M503.41,163.49s-23.18-10.85-26.49-13.63-4.37-4-12.19-4.43-29-6-31.31-6.93-4.22,2.71,3.31,7.08a77.49,77.49,0,0,0,15.13,6.59s-2.49,1.25,1,3.27,8.58,1.43,8.58,1.43,6.33,5.06,7.83,8.1,1.66,6.8,5.12,9.66,14.9,5,14.9,5S487.76,165.75,503.41,163.49Z" transform="translate(-108.48 -89.47)"/><path class="cls-8" d="M507.32,164.09s-19.86-6.32-18.06,15.51l7.68-1.83L508.08,168Z" transform="translate(-108.48 -89.47)"/><path class="cls-1" d="M529.45,163.24s-17.46-2.13-26,2.07-12,9.17-13.4,18.35l19.72,26,3.62,9.79a96,96,0,0,0-14.74-2.56c-6.64-.45-20.49-1.81-20.49-1.81s-9.18-12.34-12.94-14.45-5-1-5-1l-16.71,4.06s-16.86-1.35-21.52,4.07l-6.18-6-45.76.83-24.53,12.56s-31.41,8.68-41,15.28c0,0-12.74,2.79-16.2,11.67a35.74,35.74,0,0,0-2.26,16.71s-6.47,12.19-3,21.52c0,0-2.26,10.24-2.41,16.56s-4.21,19.42-4.21,24.38S274,348.72,274,348.72h47.56l-.15-3.54,4.37,3.54h160s-7.83-18.44-7.08-30.49,6.33-28.45,6.33-28.45l5.27-12s38.23-8.88,53-15.2,31-14.6,33.72-24.09,1.05-14.3-5.57-23.33S531.71,173.23,529.45,163.24Z" transform="translate(-108.48 -89.47)"/><path class="cls-5" d="M539.39,178.54s-26.09-2.75-36.45,22.19l4.7,6.21s6.31-15.15,14.89-18.46,21.75-4.13,21.75-4.13Z" transform="translate(-108.48 -89.47)"/><path class="cls-6" d="M505.22,201.12s6.32-12.79,15.8-17.46a32.2,32.2,0,0,1,18.07-3.16l1.65,2.11s-11.59-1.81-19.72,3.46-13.81,16-14,17.16Z" transform="translate(-108.48 -89.47)"/><path class="cls-5" d="M443.5,197.25v10.8l16.11-.6.6-10.2a51.59,51.59,0,0,0-8.35,0A53,53,0,0,1,443.5,197.25Z" transform="translate(-108.48 -89.47)"/></svg>