<svg id="Layer_1" data-name="Layer 1" xmlns="http://www.w3.org/2000/svg" viewBox="0 0 339.26 609.11"><defs><style>.cls-1{fill:#fff;}.cls-2{fill:#b22435;}.cls-3{fill:#273d53;}.cls-4{fill:#e6ae88;}.cls-5{fill:#eac38c;}</style></defs><title>usa</title><rect id="_59" data-name="59" class="cls-1" x="61.61" y="5.84" width="277.65" height="146.13"/><rect id="_58" data-name="58" class="cls-2" x="61.61" y="5.84" width="277.65" height="11.24"/><rect id="_57" data-name="57" class="cls-2" x="61.61" y="28.32" width="277.65" height="11.24"/><rect id="_56" data-name="56" class="cls-2" x="61.61" y="50.8" width="277.65" height="11.24"/><rect id="_55" data-name="55" class="cls-2" x="61.61" y="73.28" width="277.65" height="11.24"/><rect id="_54" data-name="54" class="cls-2" x="61.61" y="95.77" width="277.65" height="11.24"/><rect id="_53" data-name="53" class="cls-2" x="61.61" y="118.25" width="277.65" height="11.24"/><rect id="_52" data-name="52" class="cls-2" x="61.61" y="140.73" width="277.65" height="11.24"/><rect id="_51" data-name="51" class="cls-3" x="61.61" y="5.84" width="111.06" height="78.69"/><polygon id="_50" data-name="50" class="cls-1" points="66.83 12.23 69.47 14.15 68.47 17.26 71.11 15.34 73.76 17.26 72.75 14.15 75.39 12.23 72.12 12.23 71.11 9.12 70.1 12.23 66.83 12.23"/><polygon id="_49" data-name="49" class="cls-1" points="85.24 12.23 87.89 14.15 86.88 17.26 89.52 15.34 92.17 17.26 91.16 14.15 93.8 12.23 90.53 12.23 89.52 9.12 88.51 12.23 85.24 12.23"/><polygon id="_48" data-name="48" class="cls-1" points="103.66 12.23 106.3 14.15 105.29 17.26 107.94 15.34 110.58 17.26 109.57 14.15 112.22 12.23 108.95 12.23 107.94 9.12 106.92 12.23 103.66 12.23"/><polygon id="_47" data-name="47" class="cls-1" points="122.07 12.23 124.71 14.15 123.7 17.26 126.35 15.34 128.99 17.26 127.98 14.15 130.63 12.23 127.36 12.23 126.35 9.12 125.34 12.23 122.07 12.23"/><polygon id="_46" data-name="46" class="cls-1" points="140.48 12.23 143.13 14.15 142.12 17.26 144.76 15.34 147.41 17.26 146.4 14.15 149.04 12.23 145.77 12.23 144.76 9.12 143.75 12.23 140.48 12.23"/><polygon id="_45" data-name="45" class="cls-1" points="158.89 12.23 161.54 14.15 160.53 17.26 163.17 15.34 165.82 17.26 164.81 14.15 167.45 12.23 164.18 12.23 163.17 9.12 162.16 12.23 158.89 12.23"/><polygon id="_44" data-name="44" class="cls-1" points="76.04 20.12 78.68 22.04 77.67 25.15 80.32 23.23 82.96 25.15 81.95 22.04 84.6 20.12 81.33 20.12 80.32 17.01 79.31 20.12 76.04 20.12"/><polygon id="_43" data-name="43" class="cls-1" points="94.45 20.12 97.09 22.04 96.08 25.15 98.73 23.23 101.38 25.15 100.36 22.04 103.01 20.12 99.74 20.12 98.73 17.01 97.72 20.12 94.45 20.12"/><polygon id="_42" data-name="42" class="cls-1" points="112.86 20.12 115.51 22.04 114.5 25.15 117.14 23.23 119.79 25.15 118.78 22.04 121.42 20.12 118.15 20.12 117.14 17.01 116.13 20.12 112.86 20.12"/><polygon id="_41" data-name="41" class="cls-1" points="131.27 20.12 133.92 22.04 132.91 25.15 135.55 23.23 138.2 25.15 137.19 22.04 139.84 20.12 136.56 20.12 135.55 17.01 134.54 20.12 131.27 20.12"/><polygon id="_40" data-name="40" class="cls-1" points="149.69 20.12 152.33 22.04 151.32 25.15 153.97 23.23 156.61 25.15 155.6 22.04 158.25 20.12 154.98 20.12 153.97 17.01 152.96 20.12 149.69 20.12"/><polygon id="_39" data-name="39" class="cls-1" points="66.83 28.01 69.47 29.93 68.47 33.04 71.11 31.12 73.76 33.04 72.75 29.93 75.39 28.01 72.12 28.01 71.11 24.9 70.1 28.01 66.83 28.01"/><polygon id="_38" data-name="38" class="cls-1" points="85.24 28.01 87.89 29.93 86.88 33.04 89.52 31.12 92.17 33.04 91.16 29.93 93.8 28.01 90.53 28.01 89.52 24.9 88.51 28.01 85.24 28.01"/><polygon id="_37" data-name="37" class="cls-1" points="103.66 28.01 106.3 29.93 105.29 33.04 107.94 31.12 110.58 33.04 109.57 29.93 112.22 28.01 108.95 28.01 107.94 24.9 106.92 28.01 103.66 28.01"/><polygon id="_36" data-name="36" class="cls-1" points="122.07 28.01 124.71 29.93 123.7 33.04 126.35 31.12 128.99 33.04 127.98 29.93 130.63 28.01 127.36 28.01 126.35 24.9 125.34 28.01 122.07 28.01"/><polygon id="_35" data-name="35" class="cls-1" points="140.48 28.01 143.13 29.93 142.12 33.04 144.76 31.12 147.41 33.04 146.4 29.93 149.04 28.01 145.77 28.01 144.76 24.9 143.75 28.01 140.48 28.01"/><polygon id="_34" data-name="34" class="cls-1" points="158.89 28.01 161.54 29.93 160.53 33.04 163.17 31.12 165.82 33.04 164.81 29.93 167.45 28.01 164.18 28.01 163.17 24.9 162.16 28.01 158.89 28.01"/><polygon id="_33" data-name="33" class="cls-1" points="76.26 35.93 78.91 37.85 77.9 40.96 80.54 39.04 83.19 40.96 82.18 37.85 84.82 35.93 81.55 35.93 80.54 32.82 79.53 35.93 76.26 35.93"/><polygon id="_32" data-name="32" class="cls-1" points="94.68 35.93 97.32 37.85 96.31 40.96 98.96 39.04 101.6 40.96 100.59 37.85 103.24 35.93 99.97 35.93 98.96 32.82 97.95 35.93 94.68 35.93"/><polygon id="_31" data-name="31" class="cls-1" points="113.09 35.93 115.73 37.85 114.72 40.96 117.37 39.04 120.01 40.96 119 37.85 121.65 35.93 118.38 35.93 117.37 32.82 116.36 35.93 113.09 35.93"/><polygon id="_30" data-name="30" class="cls-1" points="131.5 35.93 134.15 37.85 133.14 40.96 135.78 39.04 138.43 40.96 137.42 37.85 140.06 35.93 136.79 35.93 135.78 32.82 134.77 35.93 131.5 35.93"/><polygon id="_29" data-name="29" class="cls-1" points="149.91 35.93 152.56 37.85 151.55 40.96 154.19 39.04 156.84 40.96 155.83 37.85 158.47 35.93 155.2 35.93 154.19 32.82 153.18 35.93 149.91 35.93"/><polygon id="_28" data-name="28" class="cls-1" points="67.11 43.75 69.75 45.67 68.74 48.78 71.39 46.86 74.03 48.78 73.03 45.67 75.67 43.75 72.4 43.75 71.39 40.64 70.38 43.75 67.11 43.75"/><polygon id="_27" data-name="27" class="cls-1" points="85.52 43.75 88.17 45.67 87.16 48.78 89.8 46.86 92.45 48.78 91.44 45.67 94.08 43.75 90.81 43.75 89.8 40.64 88.79 43.75 85.52 43.75"/><polygon id="_26" data-name="26" class="cls-1" points="103.93 43.75 106.58 45.67 105.57 48.78 108.22 46.86 110.86 48.78 109.85 45.67 112.5 43.75 109.22 43.75 108.22 40.64 107.2 43.75 103.93 43.75"/><polygon id="_25" data-name="25" class="cls-1" points="122.35 43.75 124.99 45.67 123.98 48.78 126.63 46.86 129.27 48.78 128.26 45.67 130.91 43.75 127.64 43.75 126.63 40.64 125.62 43.75 122.35 43.75"/><polygon id="_24" data-name="24" class="cls-1" points="140.76 43.75 143.41 45.67 142.39 48.78 145.04 46.86 147.69 48.78 146.68 45.67 149.32 43.75 146.05 43.75 145.04 40.64 144.03 43.75 140.76 43.75"/><polygon id="_23" data-name="23" class="cls-1" points="159.17 43.75 161.82 45.67 160.81 48.78 163.45 46.86 166.1 48.78 165.09 45.67 167.73 43.75 164.46 43.75 163.45 40.64 162.44 43.75 159.17 43.75"/><polygon id="_22" data-name="22" class="cls-1" points="67.28 59.28 69.93 61.21 68.92 64.32 71.56 62.4 74.21 64.32 73.2 61.21 75.84 59.28 72.57 59.28 71.56 56.17 70.55 59.28 67.28 59.28"/><polygon id="_21" data-name="21" class="cls-1" points="85.69 59.28 88.34 61.21 87.33 64.32 89.97 62.4 92.62 64.32 91.61 61.21 94.25 59.28 90.98 59.28 89.97 56.17 88.96 59.28 85.69 59.28"/><polygon id="_20" data-name="20" class="cls-1" points="104.11 59.28 106.75 61.21 105.74 64.32 108.39 62.4 111.03 64.32 110.02 61.21 112.67 59.28 109.4 59.28 108.39 56.17 107.38 59.28 104.11 59.28"/><polygon id="_19" data-name="19" class="cls-1" points="122.52 59.28 125.17 61.21 124.15 64.32 126.8 62.4 129.45 64.32 128.44 61.21 131.08 59.28 127.81 59.28 126.8 56.17 125.79 59.28 122.52 59.28"/><polygon id="_18" data-name="18" class="cls-1" points="140.93 59.28 143.58 61.21 142.57 64.32 145.21 62.4 147.86 64.32 146.85 61.21 149.49 59.28 146.22 59.28 145.21 56.17 144.2 59.28 140.93 59.28"/><polygon id="_17" data-name="17" class="cls-1" points="159.34 59.28 161.99 61.21 160.98 64.32 163.63 62.4 166.27 64.32 165.26 61.21 167.91 59.28 164.64 59.28 163.63 56.17 162.61 59.28 159.34 59.28"/><polygon id="_16" data-name="16" class="cls-1" points="67.06 75 69.7 76.92 68.69 80.03 71.34 78.11 73.98 80.03 72.97 76.92 75.62 75 72.35 75 71.34 71.89 70.33 75 67.06 75"/><polygon id="_15" data-name="15" class="cls-1" points="85.47 75 88.11 76.92 87.1 80.03 89.75 78.11 92.39 80.03 91.39 76.92 94.03 75 90.76 75 89.75 71.89 88.74 75 85.47 75"/><polygon id="_14" data-name="14" class="cls-1" points="103.88 75 106.53 76.92 105.52 80.03 108.16 78.11 110.81 80.03 109.8 76.92 112.44 75 109.17 75 108.16 71.89 107.15 75 103.88 75"/><polygon id="_13" data-name="13" class="cls-1" points="122.3 75 124.94 76.92 123.93 80.03 126.58 78.11 129.22 80.03 128.21 76.92 130.86 75 127.59 75 126.58 71.89 125.56 75 122.3 75"/><polygon id="_12" data-name="12" class="cls-1" points="140.71 75 143.35 76.92 142.34 80.03 144.99 78.11 147.63 80.03 146.62 76.92 149.27 75 146 75 144.99 71.89 143.98 75 140.71 75"/><polygon id="_11" data-name="11" class="cls-1" points="159.12 75 161.76 76.92 160.75 80.03 163.4 78.11 166.05 80.03 165.03 76.92 167.68 75 164.41 75 163.4 71.89 162.39 75 159.12 75"/><polygon id="_10" data-name="10" class="cls-1" points="76.32 51.44 78.96 53.36 77.95 56.47 80.6 54.55 83.24 56.47 82.23 53.36 84.88 51.44 81.61 51.44 80.6 48.33 79.59 51.44 76.32 51.44"/><polygon id="_9" data-name="9" class="cls-1" points="94.73 51.44 97.38 53.36 96.36 56.47 99.01 54.55 101.66 56.47 100.65 53.36 103.29 51.44 100.02 51.44 99.01 48.33 98 51.44 94.73 51.44"/><polygon id="_8" data-name="8" class="cls-1" points="113.14 51.44 115.79 53.36 114.78 56.47 117.42 54.55 120.07 56.47 119.06 53.36 121.7 51.44 118.43 51.44 117.42 48.33 116.41 51.44 113.14 51.44"/><polygon id="_7" data-name="7" class="cls-1" points="131.56 51.44 134.2 53.36 133.19 56.47 135.84 54.55 138.48 56.47 137.47 53.36 140.12 51.44 136.85 51.44 135.84 48.33 134.82 51.44 131.56 51.44"/><polygon id="_6" data-name="6" class="cls-1" points="149.97 51.44 152.61 53.36 151.6 56.47 154.25 54.55 156.89 56.47 155.88 53.36 158.53 51.44 155.26 51.44 154.25 48.33 153.24 51.44 149.97 51.44"/><polygon id="_5" data-name="5" class="cls-1" points="76.26 67.13 78.91 69.05 77.9 72.16 80.54 70.24 83.19 72.16 82.18 69.05 84.82 67.13 81.55 67.13 80.54 64.02 79.53 67.13 76.26 67.13"/><polygon id="_4" data-name="4" class="cls-1" points="94.68 67.13 97.32 69.05 96.31 72.16 98.96 70.24 101.6 72.16 100.59 69.05 103.24 67.13 99.97 67.13 98.96 64.02 97.95 67.13 94.68 67.13"/><polygon id="_3" data-name="3" class="cls-1" points="113.09 67.13 115.73 69.05 114.72 72.16 117.37 70.24 120.02 72.16 119 69.05 121.65 67.13 118.38 67.13 117.37 64.02 116.36 67.13 113.09 67.13"/><polygon id="_2" data-name="2" class="cls-1" points="131.5 67.13 134.15 69.05 133.14 72.16 135.78 70.24 138.43 72.16 137.42 69.05 140.06 67.13 136.79 67.13 135.78 64.02 134.77 67.13 131.5 67.13"/><polygon id="_1" data-name="1" class="cls-1" points="149.91 67.13 152.56 69.05 151.55 72.16 154.19 70.24 156.84 72.16 155.83 69.05 158.47 67.13 155.21 67.13 154.19 64.02 153.18 67.13 149.91 67.13"/><rect class="cls-4" x="51.78" width="9.83" height="609.11"/><rect class="cls-5" y="592.86" width="113.39" height="16.25"/><rect class="cls-4" x="5.63" y="576.61" width="102.13" height="16.25"/></svg>